<?xml version="1.0" encoding="UTF-8" standalone="no"?>
<!-- Created with matplotlib (http://matplotlib.sourceforge.net/) -->

<svg
   xmlns:dc="http://purl.org/dc/elements/1.1/"
   xmlns:cc="http://creativecommons.org/ns#"
   xmlns:rdf="http://www.w3.org/1999/02/22-rdf-syntax-ns#"
   xmlns:svg="http://www.w3.org/2000/svg"
   xmlns="http://www.w3.org/2000/svg"
   xmlns:sodipodi="http://sodipodi.sourceforge.net/DTD/sodipodi-0.dtd"
   xmlns:inkscape="http://www.inkscape.org/namespaces/inkscape"
   version="1.0"
   x="0.0"
   y="0.0"
   width="576"
   height="432"
   id="svg1"
   inkscape:version="0.46+devel r21521"
   sodipodi:docname="soma-1.digital.pass.svg"
   inkscape:output_extension="org.inkscape.output.svg.inkscape">
  <metadata
     id="metadata241">
    <rdf:RDF>
      <cc:Work
         rdf:about="">
        <dc:format>image/svg+xml</dc:format>
        <dc:type
           rdf:resource="http://purl.org/dc/dcmitype/StillImage" />
      </cc:Work>
    </rdf:RDF>
  </metadata>
  <defs
     id="defs239">
    <inkscape:perspective
       sodipodi:type="inkscape:persp3d"
       inkscape:vp_x="0 : 216 : 1"
       inkscape:vp_y="0 : 1000 : 0"
       inkscape:vp_z="576 : 216 : 1"
       inkscape:persp3d-origin="288 : 144 : 1"
       id="perspective243" />
  </defs>
  <sodipodi:namedview
     pagecolor="#ffffff"
     bordercolor="#666666"
     borderopacity="1"
     objecttolerance="10"
     gridtolerance="10"
     guidetolerance="10"
     inkscape:pageopacity="0"
     inkscape:pageshadow="2"
     inkscape:window-width="1600"
     inkscape:window-height="1127"
     id="namedview237"
     showgrid="false"
     inkscape:zoom="1.5451593"
     inkscape:cx="394.60426"
     inkscape:cy="180.94141"
     inkscape:window-x="0"
     inkscape:window-y="25"
     inkscape:window-maximized="1"
     inkscape:current-layer="figure1" />
  <g
     id="figure1">
    <polygon
       style="stroke: #ffffff; stroke-width: 1.000000; stroke-linejoin: miter; stroke-linecap: square;  opacity: 1.000000; fill: #ffffff; "
       points="0.000000,432.000000 0.000000,0.000000 576.000000,0.000000 576.000000,432.000000"
       id="polygon4" />
    <g
       id="axes1">
      <polygon
         style="stroke: #000000; stroke-width: 1.000000; stroke-linejoin: miter; stroke-linecap: square;  opacity: 1.000000; fill: #ffffff; "
         points="72.000000,388.800000 72.000000,43.200000 518.400000,43.200000 518.400000,388.800000"
         id="polygon7" />
      <g
         id="matplotlib.axis1">
        <g
           id="xtick1">
          <text
             style="font-size: 12.000000; font-family: Bitstream Vera Sans; font-style: Roman; fill: #000000;"
             x="69.000000"
             y="401.800000"
             id="text11">0</text>
        </g>
        <g
           id="xtick2">
          <defs
             id="defs14">
            <clipPath
               id="789695421804425603">
              <rect
                 x="72.000000"
                 y="43.200000"
                 width="446.400000"
                 height="345.600000"
                 style="stroke: gray; fill: none;"
                 id="rect17" />
            </clipPath>
          </defs>
          <path
             style="stroke: #000000; stroke-width: 0.500000; stroke-linejoin: miter; stroke-linecap: butt; stroke-dasharray: 1.000000 3.000000; stroke-dashoffset: 0.000000; opacity: 1.000000; fill: none; clip-path:url(#789695421804425603);"
             d="M 161.280000,388.800000 L 161.280000,43.200000 "
             id="path19"
             clip-path="url(#789695421804425603)" />
          <path
             style="stroke: #000000; stroke-width: 0.500000; stroke-linejoin: miter; stroke-linecap: butt;  opacity: 1.000000; fill: none; "
             d="M 161.280000,388.800000 L 161.280000,384.800000"
             id="path21" />
          <path
             style="stroke: #000000; stroke-width: 0.500000; stroke-linejoin: miter; stroke-linecap: butt;  opacity: 1.000000; fill: none; "
             d="M 161.280000,388.800000 L 161.280000,384.800000"
             id="path23" />
          <path
             style="stroke: #000000; stroke-width: 0.500000; stroke-linejoin: miter; stroke-linecap: butt;  opacity: 1.000000; fill: none; "
             d="M 161.280000,47.200000 L 161.280000,43.200000"
             id="path25" />
          <path
             style="stroke: #000000; stroke-width: 0.500000; stroke-linejoin: miter; stroke-linecap: butt;  opacity: 1.000000; fill: none; "
             d="M 161.280000,47.200000 L 161.280000,43.200000"
             id="path27" />
          <text
             style="font-size: 12.000000; font-family: Bitstream Vera Sans; font-style: Roman; fill: #000000;"
             x="158.256563"
             y="401.800000"
             id="text29">2</text>
        </g>
        <g
           id="xtick3">
          <path
             style="stroke: #000000; stroke-width: 0.500000; stroke-linejoin: miter; stroke-linecap: butt; stroke-dasharray: 1.000000 3.000000; stroke-dashoffset: 0.000000; opacity: 1.000000; fill: none; clip-path:url(#789695421804425603);"
             d="M 250.560000,388.800000 L 250.560000,43.200000 "
             id="path32"
             clip-path="url(#789695421804425603)" />
          <path
             style="stroke: #000000; stroke-width: 0.500000; stroke-linejoin: miter; stroke-linecap: butt;  opacity: 1.000000; fill: none; "
             d="M 250.560000,388.800000 L 250.560000,384.800000"
             id="path34" />
          <path
             style="stroke: #000000; stroke-width: 0.500000; stroke-linejoin: miter; stroke-linecap: butt;  opacity: 1.000000; fill: none; "
             d="M 250.560000,388.800000 L 250.560000,384.800000"
             id="path36" />
          <path
             style="stroke: #000000; stroke-width: 0.500000; stroke-linejoin: miter; stroke-linecap: butt;  opacity: 1.000000; fill: none; "
             d="M 250.560000,47.200000 L 250.560000,43.200000"
             id="path38" />
          <path
             style="stroke: #000000; stroke-width: 0.500000; stroke-linejoin: miter; stroke-linecap: butt;  opacity: 1.000000; fill: none; "
             d="M 250.560000,47.200000 L 250.560000,43.200000"
             id="path40" />
          <text
             style="font-size: 12.000000; font-family: Bitstream Vera Sans; font-style: Roman; fill: #000000;"
             x="247.560000"
             y="401.800000"
             id="text42">4</text>
        </g>
        <g
           id="xtick4">
          <path
             style="stroke: #000000; stroke-width: 0.500000; stroke-linejoin: miter; stroke-linecap: butt; stroke-dasharray: 1.000000 3.000000; stroke-dashoffset: 0.000000; opacity: 1.000000; fill: none; clip-path:url(#789695421804425603);"
             d="M 339.840000,388.800000 L 339.840000,43.200000 "
             id="path45"
             clip-path="url(#789695421804425603)" />
          <path
             style="stroke: #000000; stroke-width: 0.500000; stroke-linejoin: miter; stroke-linecap: butt;  opacity: 1.000000; fill: none; "
             d="M 339.840000,388.800000 L 339.840000,384.800000"
             id="path47" />
          <path
             style="stroke: #000000; stroke-width: 0.500000; stroke-linejoin: miter; stroke-linecap: butt;  opacity: 1.000000; fill: none; "
             d="M 339.840000,388.800000 L 339.840000,384.800000"
             id="path49" />
          <path
             style="stroke: #000000; stroke-width: 0.500000; stroke-linejoin: miter; stroke-linecap: butt;  opacity: 1.000000; fill: none; "
             d="M 339.840000,47.200000 L 339.840000,43.200000"
             id="path51" />
          <path
             style="stroke: #000000; stroke-width: 0.500000; stroke-linejoin: miter; stroke-linecap: butt;  opacity: 1.000000; fill: none; "
             d="M 339.840000,47.200000 L 339.840000,43.200000"
             id="path53" />
          <text
             style="font-size: 12.000000; font-family: Bitstream Vera Sans; font-style: Roman; fill: #000000;"
             x="336.840000"
             y="401.800000"
             id="text55">6</text>
        </g>
        <g
           id="xtick5">
          <path
             style="stroke: #000000; stroke-width: 0.500000; stroke-linejoin: miter; stroke-linecap: butt; stroke-dasharray: 1.000000 3.000000; stroke-dashoffset: 0.000000; opacity: 1.000000; fill: none; clip-path:url(#789695421804425603);"
             d="M 429.120000,388.800000 L 429.120000,43.200000 "
             id="path58"
             clip-path="url(#789695421804425603)" />
          <path
             style="stroke: #000000; stroke-width: 0.500000; stroke-linejoin: miter; stroke-linecap: butt;  opacity: 1.000000; fill: none; "
             d="M 429.120000,388.800000 L 429.120000,384.800000"
             id="path60" />
          <path
             style="stroke: #000000; stroke-width: 0.500000; stroke-linejoin: miter; stroke-linecap: butt;  opacity: 1.000000; fill: none; "
             d="M 429.120000,388.800000 L 429.120000,384.800000"
             id="path62" />
          <path
             style="stroke: #000000; stroke-width: 0.500000; stroke-linejoin: miter; stroke-linecap: butt;  opacity: 1.000000; fill: none; "
             d="M 429.120000,47.200000 L 429.120000,43.200000"
             id="path64" />
          <path
             style="stroke: #000000; stroke-width: 0.500000; stroke-linejoin: miter; stroke-linecap: butt;  opacity: 1.000000; fill: none; "
             d="M 429.120000,47.200000 L 429.120000,43.200000"
             id="path66" />
          <text
             style="font-size: 12.000000; font-family: Bitstream Vera Sans; font-style: Roman; fill: #000000;"
             x="426.120000"
             y="401.800000"
             id="text68">8</text>
        </g>
        <g
           id="xtick6">
          <text
             style="font-size: 12.000000; font-family: Bitstream Vera Sans; font-style: Roman; fill: #000000;"
             x="511.400000"
             y="401.800000"
             id="text71">10</text>
        </g>
        <text
           style="font-size: 12.000000; font-family: Bitstream Vera Sans; font-style: Roman; fill: #000000;"
           x="245.700000"
           y="419.800000"
           id="text73">Frequency (kHz)</text>
      </g>
      <g
         id="matplotlib.axis2">
        <g
           id="ytick1">
          <text
             style="font-size: 12.000000; font-family: Bitstream Vera Sans; font-style: Roman; fill: #000000;"
             x="58.000000"
             y="393.300000"
             id="text77">-3</text>
        </g>
        <g
           id="ytick2">
          <path
             style="stroke: #000000; stroke-width: 0.500000; stroke-linejoin: miter; stroke-linecap: butt; stroke-dasharray: 1.000000 3.000000; stroke-dashoffset: 0.000000; opacity: 1.000000; fill: none; clip-path:url(#789695421804425603);"
             d="M 72.000000,331.200000 L 518.400000,331.200000 "
             id="path80"
             clip-path="url(#789695421804425603)" />
          <path
             style="stroke: #000000; stroke-width: 0.500000; stroke-linejoin: miter; stroke-linecap: butt;  opacity: 1.000000; fill: none; "
             d="M 72.000000,331.200000 L 76.000000,331.200000"
             id="path82" />
          <path
             style="stroke: #000000; stroke-width: 0.500000; stroke-linejoin: miter; stroke-linecap: butt;  opacity: 1.000000; fill: none; "
             d="M 72.000000,331.200000 L 76.000000,331.200000"
             id="path84" />
          <path
             style="stroke: #000000; stroke-width: 0.500000; stroke-linejoin: miter; stroke-linecap: butt;  opacity: 1.000000; fill: none; "
             d="M 514.400000,331.200000 L 518.400000,331.200000"
             id="path86" />
          <path
             style="stroke: #000000; stroke-width: 0.500000; stroke-linejoin: miter; stroke-linecap: butt;  opacity: 1.000000; fill: none; "
             d="M 514.400000,331.200000 L 518.400000,331.200000"
             id="path88" />
          <text
             style="font-size: 12.000000; font-family: Bitstream Vera Sans; font-style: Roman; fill: #000000;"
             x="57.953125"
             y="335.700000"
             id="text90">-2</text>
        </g>
        <g
           id="ytick3">
          <path
             style="stroke: #000000; stroke-width: 0.500000; stroke-linejoin: miter; stroke-linecap: butt; stroke-dasharray: 1.000000 3.000000; stroke-dashoffset: 0.000000; opacity: 1.000000; fill: none; clip-path:url(#789695421804425603);"
             d="M 72.000000,273.600000 L 518.400000,273.600000 "
             id="path93"
             clip-path="url(#789695421804425603)" />
          <path
             style="stroke: #000000; stroke-width: 0.500000; stroke-linejoin: miter; stroke-linecap: butt;  opacity: 1.000000; fill: none; "
             d="M 72.000000,273.600000 L 76.000000,273.600000"
             id="path95" />
          <path
             style="stroke: #000000; stroke-width: 0.500000; stroke-linejoin: miter; stroke-linecap: butt;  opacity: 1.000000; fill: none; "
             d="M 72.000000,273.600000 L 76.000000,273.600000"
             id="path97" />
          <path
             style="stroke: #000000; stroke-width: 0.500000; stroke-linejoin: miter; stroke-linecap: butt;  opacity: 1.000000; fill: none; "
             d="M 514.400000,273.600000 L 518.400000,273.600000"
             id="path99" />
          <path
             style="stroke: #000000; stroke-width: 0.500000; stroke-linejoin: miter; stroke-linecap: butt;  opacity: 1.000000; fill: none; "
             d="M 514.400000,273.600000 L 518.400000,273.600000"
             id="path101" />
          <text
             style="font-size: 12.000000; font-family: Bitstream Vera Sans; font-style: Roman; fill: #000000;"
             x="59.000000"
             y="278.100000"
             id="text103">-1</text>
        </g>
        <g
           id="ytick4">
          <path
             style="stroke: #000000; stroke-width: 0.500000; stroke-linejoin: miter; stroke-linecap: butt; stroke-dasharray: 1.000000 3.000000; stroke-dashoffset: 0.000000; opacity: 1.000000; fill: none; clip-path:url(#789695421804425603);"
             d="M 72.000000,216.000000 L 518.400000,216.000000 "
             id="path106"
             clip-path="url(#789695421804425603)" />
          <path
             style="stroke: #000000; stroke-width: 0.500000; stroke-linejoin: miter; stroke-linecap: butt;  opacity: 1.000000; fill: none; "
             d="M 72.000000,216.000000 L 76.000000,216.000000"
             id="path108" />
          <path
             style="stroke: #000000; stroke-width: 0.500000; stroke-linejoin: miter; stroke-linecap: butt;  opacity: 1.000000; fill: none; "
             d="M 72.000000,216.000000 L 76.000000,216.000000"
             id="path110" />
          <path
             style="stroke: #000000; stroke-width: 0.500000; stroke-linejoin: miter; stroke-linecap: butt;  opacity: 1.000000; fill: none; "
             d="M 514.400000,216.000000 L 518.400000,216.000000"
             id="path112" />
          <path
             style="stroke: #000000; stroke-width: 0.500000; stroke-linejoin: miter; stroke-linecap: butt;  opacity: 1.000000; fill: none; "
             d="M 514.400000,216.000000 L 518.400000,216.000000"
             id="path114" />
          <text
             style="font-size: 12.000000; font-family: Bitstream Vera Sans; font-style: Roman; fill: #000000;"
             x="62.000000"
             y="220.500000"
             id="text116">0</text>
        </g>
        <g
           id="ytick5">
          <path
             style="stroke: #000000; stroke-width: 0.500000; stroke-linejoin: miter; stroke-linecap: butt; stroke-dasharray: 1.000000 3.000000; stroke-dashoffset: 0.000000; opacity: 1.000000; fill: none; clip-path:url(#789695421804425603);"
             d="M 72.000000,158.400000 L 518.400000,158.400000 "
             id="path119"
             clip-path="url(#789695421804425603)" />
          <path
             style="stroke: #000000; stroke-width: 0.500000; stroke-linejoin: miter; stroke-linecap: butt;  opacity: 1.000000; fill: none; "
             d="M 72.000000,158.400000 L 76.000000,158.400000"
             id="path121" />
          <path
             style="stroke: #000000; stroke-width: 0.500000; stroke-linejoin: miter; stroke-linecap: butt;  opacity: 1.000000; fill: none; "
             d="M 72.000000,158.400000 L 76.000000,158.400000"
             id="path123" />
          <path
             style="stroke: #000000; stroke-width: 0.500000; stroke-linejoin: miter; stroke-linecap: butt;  opacity: 1.000000; fill: none; "
             d="M 514.400000,158.400000 L 518.400000,158.400000"
             id="path125" />
          <path
             style="stroke: #000000; stroke-width: 0.500000; stroke-linejoin: miter; stroke-linecap: butt;  opacity: 1.000000; fill: none; "
             d="M 514.400000,158.400000 L 518.400000,158.400000"
             id="path127" />
          <text
             style="font-size: 12.000000; font-family: Bitstream Vera Sans; font-style: Roman; fill: #000000;"
             x="63.000000"
             y="162.900000"
             id="text129">1</text>
        </g>
        <g
           id="ytick6">
          <path
             style="stroke: #000000; stroke-width: 0.500000; stroke-linejoin: miter; stroke-linecap: butt; stroke-dasharray: 1.000000 3.000000; stroke-dashoffset: 0.000000; opacity: 1.000000; fill: none; clip-path:url(#789695421804425603);"
             d="M 72.000000,100.800000 L 518.400000,100.800000 "
             id="path132"
             clip-path="url(#789695421804425603)" />
          <path
             style="stroke: #000000; stroke-width: 0.500000; stroke-linejoin: miter; stroke-linecap: butt;  opacity: 1.000000; fill: none; "
             d="M 72.000000,100.800000 L 76.000000,100.800000"
             id="path134" />
          <path
             style="stroke: #000000; stroke-width: 0.500000; stroke-linejoin: miter; stroke-linecap: butt;  opacity: 1.000000; fill: none; "
             d="M 72.000000,100.800000 L 76.000000,100.800000"
             id="path136" />
          <path
             style="stroke: #000000; stroke-width: 0.500000; stroke-linejoin: miter; stroke-linecap: butt;  opacity: 1.000000; fill: none; "
             d="M 514.400000,100.800000 L 518.400000,100.800000"
             id="path138" />
          <path
             style="stroke: #000000; stroke-width: 0.500000; stroke-linejoin: miter; stroke-linecap: butt;  opacity: 1.000000; fill: none; "
             d="M 514.400000,100.800000 L 518.400000,100.800000"
             id="path140" />
          <text
             style="font-size: 12.000000; font-family: Bitstream Vera Sans; font-style: Roman; fill: #000000;"
             x="61.953125"
             y="105.300000"
             id="text142">2</text>
        </g>
        <g
           id="ytick7">
          <text
             style="font-size: 12.000000; font-family: Bitstream Vera Sans; font-style: Roman; fill: #000000;"
             x="62.000000"
             y="47.700000"
             id="text145">3</text>
        </g>
        <text
           style="font-size: 12.000000; font-family: Bitstream Vera Sans; font-style: Roman; fill: #000000;"
           x="52.953125"
           y="263.500000"
           transform="translate(52.953125,263.500000) rotate(-90.0) translate(-52.953125,-263.500000)"
           id="text147">Magnitude (dB)</text>
      </g>
      <path
         style="fill:none;stroke:#008000;stroke-width:0.5;stroke-linecap:square;stroke-linejoin:miter"
         clip-path="url(#789695421804425603)"
         d="m 72,218.03456 c 26.532113,-0.0358 52.8473,-5.80266 79.42614,-3.65067 22.8638,1.6131 45.74719,5.149 68.71217,3.02276 22.17528,-1.86533 44.43296,-4.88264 66.71224,-2.69462 21.64206,1.95486 43.39739,4.75909 65.14086,2.48118 20.91827,-2.02748 41.98335,-4.68595 62.99807,-2.25572 19.33215,2.0686 38.8841,4.728 58.28393,1.76622 15.31544,-1.85448 32.08228,-5.9485 46.42714,1.99829 16.94522,9.72217 25.74742,28.46458 33.2847,45.63453 18.51098,46.1796 27.72432,95.40009 36.85601,144.10414 21.42551,123.15806 33.99178,247.64042 45.65727,372.03604 24.57998,273.36609 40.31532,547.43659 54.19681,821.52519 25.85558,524.3906 42.42718,1049.193 55.73656,1574.0366 32.23181,1298.741 41.3938,2597.922 44.96938,3897.0168 3.01979,1170.0995 2.1349,2340.204 2.43376,3510.3057 0.18205,-618.101 -0.15094,-1236.2027 0.46754,-1854.3038 0.0904,-18.0748 -0.0257,-36.1512 0.24672,-54.2246 0.76478,336.551 0.41115,673.1038 0.71426,1009.6555 0.27188,-834.3324 -0.17104,-1668.668 2.81861,-2502.9965 1.26636,-269.5258 2.15337,-539.0669 6.86337,-808.5598 1.38868,-53.1459 1.5427,-106.3933 5.71041,-159.4148 0.16122,-1.453 0.85162,-9.3907 2.32136,-5.1548 3.89521,30.3722 3.73103,61.1277 5.05722,91.6929 5.19466,195.1957 6.15158,390.4731 7.51382,585.7243 2.76714,529.8049 2.45621,1059.6194 2.7213,1589.4297 0.0453,629.635 0.0905,1259.27 0.13575,1888.9049 0.17518,-854.7834 -0.14397,-1709.5672 0.46939,-2564.3506 0.55265,-392.7725 0.59574,-785.5555 4.69538,-1178.3111 1.63722,-118.9966 2.5997,-238.0441 8.02859,-356.9437 1.33937,-16.2186 0.90389,-32.8804 4.94894,-48.6964 2.31863,-1.1616 2.07304,4.8439 2.71421,6.2802 5.13303,44.0821 5.68974,88.5529 7.55668,132.8582 6.6088,216.1866 8.26518,432.4864 10.04826,648.7553 3.49597,527.7454 3.17533,1055.5059 3.54024,1583.26 0.0466,300.6624 0.0933,601.3247 0.13988,901.987 0.28473,-661.5437 -0.22465,-1323.0889 1.49236,-1984.6311 0.99044,-256.5283 1.55796,-513.0773 6.56935,-769.5663 1.64399,-59.78 2.15499,-119.6729 7.22353,-179.2887 0.96132,-4.1242 0.14111,-10.0892 3.14276,-13.0195 3.89019,10.0965 3.2958,21.5832 4.64354,32.2893 6.09631,94.2342 7.63883,188.6908 9.94767,283.0739 6.99388,349.5905 8.58696,699.2606 10.00917,1048.9096 2.00416,593.4498 1.49378,1186.904 1.97024,1780.3561 0.27997,-560.9614 -0.24651,-1121.9255 1.88344,-1682.8841 0.84046,-132.6736 0.88575,-265.3702 4.11637,-398.0132 0.54283,-8.2412 0.0574,-16.8747 1.71424,-24.86 2.62715,25.9093 1.98867,52.1536 2.81279,78.205 3.17238,228.0285 3.18094,456.0863 3.81727,684.132 0.84417,470.174 0.64061,940.3489 0.94113,1410.5233 0.29939,-679.6834 -0.32282,-1359.3704 2.51538,-2039.0496 1.80065,-352.6199 4.0299,-705.264 12.19846,-1057.8041 2.96218,-109.7199 5.41542,-219.5153 12.9996,-329.0361 1.92087,-18.6262 2.14539,-37.7504 7.42834,-55.8105 1.80524,-4.0741 4.0354,1.8056 4.14273,3.7139 5.89874,31.7129 6.46553,64.1402 8.57117,96.2598 7.24221,154.718 9.13848,309.6237 11.32067,464.4773 4.74679,411.2383 4.87842,822.5112 5.48456,1233.7711 0.46814,482.6041 0.36192,965.2085 0.47995,1447.8127 0.29322,-668.659 -0.23052,-1337.3196 1.57138,-2005.9769 1.14071,-296.1732 2.02685,-592.3711 8.20693,-888.4916 2.2504,-86.4227 3.7664,-172.9379 10.304,-259.1696 1.5687,-11.7772 1.2194,-24.3215 5.774,-35.4057 2.8932,-0.7324 2.733,5.0809 3.5714,6.9278 5.8184,37.514 6.5801,75.6003 8.714,113.4482 7.3144,176.2163 9.2585,352.6002 11.3877,528.9391 4.4145,445.5373 4.3955,891.1027 4.9162,1336.6572 0.2541,388.2788 0.291,776.5578 0.4099,1164.8367 0.2795,-655.0746 -0.3394,-1310.1515 1.824,-1965.2236 1.2132,-262.0727 2.1446,-524.1712 8.1271,-786.1882 2.0144,-67.4543 3.0383,-135.0227 8.9054,-202.282 1.2151,-6.3698 0.49,-14.022 4.1427,-19.4491 3.719,5.0233 2.9236,12.6035 4.1428,18.7006 5.881,66.1144 6.9041,132.5451 8.9294,198.8588 6.0474,258.8888 7.014,517.8617 8.2536,776.8082 2.1352,616.8627 1.6232,1233.7306 1.9081,1850.596 0.017,82.0817 0.034,164.1633 0.051,246.245 0.2782,-686.343 -0.3652,-1372.6882 1.7212,-2059.0291 1.2797,-305.142 2.4399,-610.3115 9.3015,-915.3899 2.5572,-93.816 4.4861,-187.7249 11.6909,-281.3271 1.8037,-14.5748 1.7253,-29.8333 6.857,-43.7151 2.6893,-2.582 3.5818,3.9552 4.1427,5.5859 6.2054,34.0973 7.0066,68.9094 9.2854,103.4245 7.7874,159.5495 10.0753,319.3035 12.5341,479.0051 5.3767,415.4414 5.6489,830.9262 6.341,1246.3954 0.5025,438.1571 0.4401,876.3145 0.5529,1314.4718 0.4133,-632.7829 -0.2367,-1265.5684 2.0039,-1898.3486 1.2141,-245.2323 2.0966,-490.4905 7.8529,-735.6679 1.8483,-58.0897 2.5853,-116.3046 7.9998,-174.2022 0.9777,-4.197 0.269,-10.0014 3.2856,-13.0906 3.8391,8.6668 3.1321,18.951 4.4285,28.3085 5.6794,86.061 6.6615,172.3478 8.4955,258.5536 5.0143,310.3559 5.4401,620.7621 6.2825,931.1506 0.9336,441.6814 0.653,883.3647 1.0508,1325.0462 0.044,11.0908 0.025,-3.0411 0.031,-7.1348 0.2991,-603.465 -0.2318,-1206.9337 2.502,-1810.3942 1.6841,-292.7286 3.5188,-585.4905 11.5777,-878.1266 2.9568,-90.9656 5.35,-182.0341 13.202,-272.7402 1.9883,-15.2831 2.2025,-31.2399 7.714,-45.7688 3.1034,-3.9331 4.7567,4.2423 5.2856,6.3163 6.6916,34.7195 7.7828,70.2261 10.2536,105.4255 8.3131,154.8679 10.8634,309.973 13.5341,465.0194 5.8017,396.4954 6.2355,793.0433 7.0201,1189.5729 0.7834,593.1662 0.6033,1186.333 0.7626,1779.4995 0.2715,-707.2428 -0.3707,-1414.4872 1.4699,-2121.7284 1.0908,-288.8426 1.884,-577.7092 7.8156,-866.5022 2.1938,-84.8198 3.6361,-169.7349 10.1425,-254.3615 1.5333,-11.5724 1.2746,-23.8519 5.7141,-34.7626 2.6893,-1.3087 2.8557,4.3925 3.5714,5.9971 5.9356,35.4648 6.6642,71.5649 8.8568,107.3957 7.5479,168.5859 9.6622,337.3559 11.9493,506.0776 4.834,429.1145 4.9559,858.2635 5.5455,1287.3996 0.3922,456.2076 0.3788,912.4155 0.5047,1368.6233 0.2769,-671.4131 -0.3546,-1342.8284 1.7049,-2014.2394 1.1629,-265.9569 2.0184,-531.9386 7.8662,-797.8432 1.9872,-68.7956 2.9837,-137.7024 8.8118,-206.3091 1.1802,-6.5009 0.5473,-14.096 4.045,-19.7806 3.4968,4.1076 2.7294,10.9616 3.857,16.2196 5.7551,62.2273 6.6729,124.7806 8.6455,187.2104 5.9769,250.5564 6.9308,501.1977 8.18,751.8121 2.2065,612.2934 1.6731,1224.5923 1.9806,1836.8885 0.017,72.2777 0.034,144.5554 0.05,216.8331 0.2801,-675.6977 -0.3562,-1351.3978 1.8074,-2027.0931 1.3252,-304.8023 2.5771,-609.6326 9.5944,-914.3681 2.5813,-92.6447 4.5161,-185.3828 11.6809,-277.8142 1.7143,-13.7475 1.647,-28.1427 6.4879,-41.2354 2.622,-2.2862 3.2883,4.0125 3.857,5.5608 5.9288,34.482 6.5477,69.6238 8.6622,104.4833 7.0912,163.1407 8.8008,326.455 10.8064,489.7198 4.2091,426.3984 4.1663,852.8235 4.6863,1279.2382 0.2721,405.0299 0.3032,810.0599 0.4158,1215.0899 0.2803,-671.1174 -0.353,-1342.2372 1.8216,-2013.3522 1.3411,-304.5041 2.609,-609.0378 9.7974,-913.4718 2.7533,-97.7179 4.9745,-195.5298 12.6659,-293.0131 1.9735,-16.6846 2.2097,-33.9735 7.7141,-49.9697 2.1535,-3.9807 4.4687,2.1156 4.7141,4.13 6.3953,30.4529 7.2959,61.7416 9.6297,92.6947 8.1451,144.0097 10.6272,288.2647 13.3067,432.4574 6.0391,383.193 6.589,766.4443 7.4438,1149.6759 0.7876,479.8095 0.6264,959.6197 0.9046,1439.4296 0.2846,-623.6849 -0.3,-1247.3727 2.0248,-1871.0546 1.2915,-251.4527 2.3172,-502.9335 8.5048,-754.324 2.1043,-65.8766 3.2214,-131.8768 9.3269,-197.537 1.2631,-6.5517 0.624,-14.3356 4.4284,-19.9268 3.6896,3.7035 2.9295,10.5198 4.1428,15.5078 6.0656,57.9331 7.1259,116.25 9.2595,174.4238 6.5652,233.4022 7.8393,466.9119 9.3264,700.3897 2.7193,564.386 2.2466,1128.7807 2.5439,1693.1715 5e-4,58.2343 0.1011,116.4686 0.1552,174.7029 0.2946,-607.8845 -0.2595,-1215.7724 2.3042,-1823.653 1.4971,-269.449 2.9155,-538.9294 10.0352,-808.3008 2.4977,-76.524 4.1702,-153.1651 11.0885,-229.45 1.5674,-9.6746 1.1643,-20.3154 5.7141,-29.1357 3.2287,0.096 2.8527,5.9099 3.857,8.245 6.0018,39.147 6.8296,78.8717 8.9838,118.3616 7.1334,176.6086 8.8427,353.3795 10.7941,530.1047 3.9207,442.5446 3.8295,885.1116 4.286,1327.6698 0.1958,345.4232 0.2436,690.8465 0.364,1036.2698 0.2825,-652.4931 -0.3319,-1304.9887 1.9397,-1957.479 1.3745,-293.3359 2.6756,-586.7015 9.799,-879.9659 2.6628,-90.9208 4.6999,-181.9416 12.1177,-272.629 1.8364,-14.1673 1.818,-29.0378 6.9997,-42.48 3.3588,-2.6613 3.947,5.4322 4.7142,7.3824 6.3416,37.3208 7.2546,75.3144 9.5711,113.0342 7.6439,166.9774 9.6721,334.1477 11.8902,501.2664 4.5893,420.7619 4.6454,841.5556 5.217,1262.3372 0.4793,596.7811 0.3365,1193.5624 0.4637,1790.3436 0.2586,-757.5398 -0.3543,-1515.0807 1.1616,-2272.6195 1.0028,-335.8805 1.734,-671.7835 7.913,-1007.6177 2.5172,-113.6448 4.5916,-227.3657 12.0676,-340.8173 1.9881,-20.5035 2.3034,-41.4837 7.8569,-61.42 1.015,-4.1363 4.2613,-0.7563 4.2856,1.8725 6.0157,27.3122 6.6351,55.4786 8.772,83.2865 7.6516,137.604 9.7734,275.4404 12.205,413.2136 5.4901,374.761 5.892,749.5718 6.6711,1124.3652 1.0374,811.9143 0.5566,1623.8295 0.7796,2435.7444 0.2194,-805.0353 -0.2521,-1610.0709 0.7355,-2415.1057 0.7643,-376.6752 1.1219,-753.3673 6.5235,-1130.0113 2.3929,-138.3819 4.4912,-276.8257 12.0835,-415.0416 2.1326,-28.4795 2.8492,-57.2887 8.7995,-85.2965 0.079,-2.2202 2.8527,-7.1822 4.4284,-3.0136 5.6379,18.624 5.9103,38.4117 7.9318,57.6608 7.7015,108.7513 9.9295,217.7978 12.623,326.7614 6.7789,327.1869 7.784,654.4576 8.942,981.7022 1.5151,561.7923 1.1297,1123.5872 1.5023,1685.3808 0.2861,-622.061 -0.2952,-1244.125 2.07,-1866.1828 1.3435,-260.0186 2.4817,-520.0666 9.0069,-780.0181 2.3058,-72.7791 3.7345,-145.6779 10.351,-218.2263 1.5032,-8.7889 0.9712,-18.6689 5.4284,-26.5332 3.4516,1.0266 2.862,7.0097 3.9999,9.9428 6.1105,42.7225 7.1252,85.9804 9.3674,129.0288 7.427,187.4426 9.3333,375.0487 11.3827,562.6109 4.055,455.9122 3.9503,911.8476 4.4146,1367.7739 0.1879,306.5717 0.1804,613.1436 0.2631,919.7154 0.4841,-638.8465 -0.2857,-1277.6965 2.3124,-1916.5395 1.4035,-257.5222 2.6344,-515.0743 9.2853,-772.526 2.3022,-70.4779 3.6889,-141.0783 10.2196,-211.3247 1.4018,-7.941 0.8983,-16.94 5.039,-23.993 3.3867,1.3931 2.7262,7.2577 3.857,10.354 5.9707,44.7418 6.9031,89.9748 9.0366,135.016 6.9606,194.7843 8.5482,389.7101 10.3485,584.5956 3.4714,474.5136 3.261,949.0438 3.6404,1423.5671 0.1371,333.9071 0.1842,667.8141 0.2595,1001.7212 0.2786,-681.6734 -0.3625,-1363.3489 1.7351,-2045.02 1.2789,-301.5455 2.4337,-603.1188 9.2878,-904.6001 2.5743,-93.4645 4.5192,-187.0236 11.7742,-280.2705 1.7901,-14.2693 1.6976,-29.2299 6.7734,-42.8056 3.1027,-2.3208 3.5615,5.0707 4.2856,6.8676 6.0786,36.746 6.8537,74.1296 9.0445,111.2481 7.2668,168.1816 9.0428,336.5395 11.0772,504.8479 4.1635,427.3351 4.1343,854.6963 4.6384,1282.0473 0.4823,870.8582 0.2092,1741.7167 0.3551,2612.5747 0.01,164.933 0.018,329.865 0.027,494.798 0.1293,-997.598 -0.051,-1995.1955 0.2985,-2992.7932 0.475,-466.7827 0.344,-933.5749 4.5254,-1400.343 2.2335,-206.444 4.513,-412.9338 12.8291,-619.2403 2.7381,-55.1003 4.5152,-110.3846 11.7747,-165.1235 1.6347,-6.5425 1.263,-14.6311 5.8569,-19.9262 3.8128,0.7632 3.6122,6.7676 4.857,9.7624 7.0132,38.3682 8.3939,77.4956 11.0548,116.3395 8.7693,162.7882 11.6398,325.8223 14.5159,488.7995 6.1778,406.2135 6.6948,812.4847 7.5165,1218.7362 1.0364,809.5881 0.5343,1619.1771 0.7481,2428.7656 0.01,90.391 0.014,180.782 0.021,271.173 0.1907,-839.5187 -0.1796,-1679.0375 0.5503,-2518.5558 0.6126,-377.7458 0.7131,-755.5039 5.1295,-1133.2292 1.8623,-124.7234 3.1759,-249.5034 9.3736,-374.1049 1.5982,-20.211 1.515,-40.8178 6.2317,-60.6036 2.3739,-3.9564 3.3802,4.4677 3.7142,6.0023 5.4487,41.0575 6.049,82.581 7.9623,123.9097 6.4377,192.5963 7.772,385.317 9.406,578.0006 3.168,482.6882 2.9271,965.3902 3.2611,1448.0864 0.1289,319.0121 0.1534,638.0242 0.2271,957.0363 0.2777,-692.1944 -0.3694,-1384.3908 1.6918,-2076.583 1.2962,-316.846 2.5164,-633.7206 9.685,-950.4995 2.7787,-103.3672 5.074,-206.8226 12.8447,-309.9631 2.0008,-18.301 2.4017,-37.118 7.9203,-54.791 1.6415,-4.6 4.7822,0.6375 4.857,3.1336 6.3792,29.4462 7.2295,59.7584 9.5485,89.7192 8.1452,141.3196 10.6148,282.8895 13.308,424.3953 6.1271,380.157 6.7021,760.3744 7.5822,1140.5714 0.8494,512.9857 0.7038,1025.9723 0.8461,1538.9585 0.3912,-635.0127 -0.2249,-1270.0277 1.927,-1905.0379 1.2277,-261.3316 2.1776,-522.69 8.2638,-783.9638 2.0737,-68.9874 3.2244,-138.0866 9.2372,-206.8733 1.2683,-7.1577 0.6822,-15.3716 4.4284,-21.7035 3.5024,2.9749 2.6954,9.3908 3.857,13.7208 5.8445,55.232 6.7497,110.8445 8.7709,166.3109 6.244,227.7592 7.3625,455.6192 8.7615,683.4482 2.4491,534.221 2.142,1068.4495 2.3541,1602.6747 0.038,302.1911 0.075,604.3822 0.1129,906.5733 0.2607,-734.5824 -0.3018,-1469.1662 1.3162,-2203.7474 1.1172,-351.9201 2.0976,-703.8661 9.0689,-1055.7295 2.9126,-125.6244 5.5467,-251.3236 13.8999,-376.7297 2.3302,-25.6726 3.1455,-51.7586 9.4283,-76.8555 0.1807,-2.334 3.1939,-6.3846 4.7141,-2.5455 5.8352,16.6893 6.1737,34.7491 8.2855,52.1772 8.0872,98.0609 10.5444,196.4778 13.5054,294.7956 7.7073,302.0947 9.2305,604.3032 10.7175,906.4795 2.2215,582.9817 1.8044,1165.9691 2.062,1748.9539 0.6159,-604.1814 -0.2526,-1208.3673 2.5713,-1812.5444 1.4408,-234.017 2.6313,-468.0663 9.1426,-702.0094 2.1688,-60.4373 3.359,-121.0115 9.5711,-181.205 1.3152,-6.2451 0.6826,-13.9225 4.7142,-19.0206 3.8635,3.4653 3.0775,10.2965 4.4284,15.0774 6.4077,54.2863 7.6768,109.0211 10.0343,163.5914 7.4252,219.4229 9.2658,438.9864 11.1582,658.5123 3.4523,496.3707 3.2303,992.7572 3.5837,1489.1371 0.1669,441.4661 0.141,882.9322 0.2231,1324.398 0.2611,-745.0147 -0.3585,-1490.0307 1.2092,-2235.0445 0.9671,-306.565 1.5992,-613.1506 7.151,-919.6748 2.0097,-86.6021 3.2149,-173.2886 9.2106,-259.7304 1.335,-9.9907 0.8152,-20.7527 4.7142,-30.1155 3.0762,1.6786 2.2671,7.4985 3.2856,10.6966 5.4356,51.5395 6.0741,103.4438 7.9106,155.2006 5.7857,224.969 6.6931,450.027 7.9677,675.0563 2.446,598.9459 1.8419,1197.8985 2.2059,1796.848 0.019,62.1203 0.039,124.2406 0.058,186.3609 0.285,-658.7346 -0.3342,-1317.472 2.0196,-1976.2037 1.5139,-322.9618 3.1524,-645.9558 11.2231,-968.8334 3.0943,-106.3923 5.7905,-212.8722 14.0422,-319.0177 2.2008,-19.9644 2.7311,-40.4679 8.714,-59.7572 0.6445,-3.3168 4.1042,-2.3694 4.4284,0.548 6.122,21.7185 6.6508,44.5658 8.8569,66.9162 7.9826,115.1189 10.3255,230.5358 13.0602,345.8716 6.65,333.2991 7.5614,666.6777 8.6681,1000.0312 1.2325,492.9196 1.1033,985.8412 1.271,1478.7619 0.4133,-297.6753 0.1452,-595.3528 0.494,-893.0289 0.5369,-418.7179 0.5575,-837.4469 4.8871,-1256.1472 2.0419,-159.6834 3.7936,-319.4162 10.8537,-478.974 2.0296,-32.5664 2.5628,-65.4143 8.193,-97.6172 0.034,-1.8983 2.2748,-7.7306 3.857,-3.4859 5.2005,20.7974 5.2956,42.5075 7.058,63.7973 6.7206,123.2722 8.2621,246.7535 10.3239,370.1706 4.8463,363.9925 5.0781,728.0255 5.7783,1092.0437 0.7258,598.8215 0.5443,1197.6435 0.6962,1796.4653 0.2718,-730.3321 -0.3806,-1460.6657 1.4401,-2190.9962 1.2185,-347.6916 2.3649,-695.4119 9.7883,-1043.0381 3.1105,-125.8164 6.0158,-251.7098 14.7709,-377.287 2.5294,-27.1166 3.5203,-54.6701 10.2854,-81.1547 0.1977,-2.7383 3.7364,-7.2878 5.4284,-2.8271 6.137,17.1393 6.6181,35.722 8.8568,53.6548 8.4715,97.4946 11.124,195.3781 14.2528,293.1561 8.0789,296.0654 9.7734,592.2574 11.3756,888.4145 2.3942,569.431 2.0585,1138.8687 2.2537,1708.3034 0.039,414.055 0.078,828.1099 0.1171,1242.1645 0.2243,-794.6261 -0.2645,-1589.2531 0.7752,-2383.8792 0.7588,-354.9364 1.0987,-709.8893 6.2246,-1064.796 2.1817,-121.7815 3.8732,-243.6307 10.8568,-365.2537 1.8436,-21.6977 2.0761,-43.8111 7.4283,-65.0017 1.2068,-4.5325 4.1908,0.1302 4.1427,2.5681 5.8899,30.5081 6.4593,61.757 8.5712,92.6875 7.3871,151.0093 9.3399,302.2182 11.5711,453.3721 4.8423,399.9675 5.0098,799.972 5.6431,1199.9629 0.424,387.5543 0.3941,775.109 0.4995,1162.6635 0.5479,-643.0524 -0.3309,-1286.1091 2.5863,-1929.157 1.5748,-265.3627 3.1033,-530.7596 10.5562,-796.0359 2.746,-80.9 4.8103,-161.92 12.4282,-242.5438 1.8852,-12.6618 1.8871,-26.1645 7.2855,-37.9375 3.6027,-2.549 4.4188,5.3257 5.2855,7.47 6.9326,35.4099 8.2687,71.626 10.916,107.5387 8.976,155.1006 12.1012,310.4659 15.2437,465.772 7.1251,403.2559 7.9676,806.5879 8.9606,1209.8954 1.0292,584.8932 0.8154,1169.7876 1.0215,1754.6814 0.2747,-664.6909 -0.349,-1329.3839 1.651,-1994.0727 1.0789,-245.6469 1.7515,-491.3173 7.063,-736.9178 1.7329,-57.7438 2.3346,-115.6095 7.5712,-173.172 0.942,-4.0197 0.2284,-9.6489 3.1428,-12.5791 3.8126,8.9631 3.1318,19.4687 4.4284,29.0928 5.7533,88.2512 6.8202,176.7262 8.714,265.1222 5.2127,316.6995 5.6881,633.452 6.5618,950.1861 1.178,632.9058 0.8165,1265.813 1.0094,1898.7197 0.2753,-694.4723 -0.2579,-1388.9459 1.4845,-2083.4164 1.1706,-332.2553 2.2222,-664.5363 9.0475,-996.7338 2.6746,-109.2892 4.8808,-218.6583 12.4673,-327.7424 1.9556,-19.2065 2.2992,-38.8929 7.7141,-57.5238 0.9438,-3.7751 4.0738,-0.9115 4.1427,1.612 5.9882,25.9714 6.5767,52.8371 8.714,79.3233 7.7494,133.4937 9.9949,267.2305 12.5599,400.902 6.0002,372.9094 6.5676,745.878 7.4475,1118.8266 0.8028,470.8989 0.7154,941.7986 0.8491,1412.698 0.5456,-633.6559 -0.3223,-1267.3159 2.5101,-1900.9675 1.3982,-231.8957 2.5283,-463.8217 8.7711,-695.6488 1.9903,-55.2652 2.8354,-110.6743 8.5553,-165.7146 1.056,-4.0134 0.3049,-10.0885 3.5914,-12.7056 4.0207,8.557 3.352,18.8041 4.7141,28.0951 5.9155,81.968 7.0066,164.1908 8.9516,246.3234 5.3857,295.9631 5.9496,591.9863 6.9051,887.9889 1.2057,490.3999 0.8446,980.8018 1.2856,1471.2025 0.2978,-613.4944 -0.2584,-1226.9925 2.39,-1840.4828 1.6306,-294.3759 3.3766,-588.7849 11.3239,-883.0715 2.8878,-90.198 5.1826,-180.4976 12.8567,-270.4459 1.8584,-14.2821 2.007,-29.2071 7.1427,-42.7875 2.5291,-3.2295 4.0071,3.2719 4.4284,5.0114 6.2392,32.281 6.9758,65.3289 9.1941,98.0591 7.4859,151.1647 9.4148,302.5353 11.631,453.8487 4.7436,396.5351 4.895,793.1061 5.5191,1189.6638 0.4847,457.7482 0.396,915.4969 0.5121,1373.2453 0.3364,-652.0394 -0.2156,-1304.0808 1.761,-1956.1181 1.2867,-311.4145 2.4803,-622.8578 9.5938,-934.2053 2.7774,-102.315 5.08,-204.7194 12.8678,-306.8041 2.0107,-18.0243 2.3653,-36.5913 7.9193,-53.9689 1.9507,-4.5442 4.7304,1.5252 4.857,3.8121 6.3393,30.7288 7.1579,62.2793 9.4283,93.4966 7.8154,145.0459 9.9712,290.322 12.3844,435.5363 5.2952,384.1815 5.5885,768.4086 6.3221,1152.6193 0.5988,474.1354 0.5266,948.2713 0.7215,1422.4069 0.2822,-650.9466 -0.3316,-1301.8958 1.925,-1952.8397 1.3633,-290.8532 2.6311,-581.7367 9.7451,-872.5182 2.7126,-92.4605 4.8639,-185.0205 12.472,-277.2386 1.9508,-15.5066 2.1021,-31.6795 7.5712,-46.453 2.4514,-3.5989 4.3425,2.8348 4.7141,4.7215 6.4892,31.4184 7.4154,63.669 9.7714,95.5874 8.1012,146.0608 10.475,292.3635 13.048,438.6038 5.6515,382.1419 6.0673,764.3355 6.8568,1146.5111 0.8787,636.7811 0.5799,1273.5629 0.7515,1910.3443 0.2603,-723.6077 -0.2932,-1447.2167 1.314,-2170.8232 1.0503,-320.45 1.835,-640.9236 8.0504,-961.3244 2.4989,-106.4239 4.5063,-212.93 11.9206,-319.1515 1.9486,-18.8537 2.2448,-38.2141 7.7141,-56.468 1.7369,-4.6161 4.6396,1.1044 4.7141,3.4519 6.3086,30.7172 7.1391,62.2484 9.4283,93.4487 7.9893,146.3593 10.3255,292.9535 12.8714,439.4867 5.6194,385.0627 6.0234,770.1762 6.8025,1155.2718 1.0137,816.8028 0.5208,1633.6064 0.7313,2450.4091 0.01,101.268 0.015,202.536 0.023,303.805 0.1766,-840.7098 -0.1475,-1681.4194 0.4737,-2522.1285 0.5821,-410.8756 0.6591,-821.7634 5.2404,-1232.6188 2.1928,-160.6385 4.1484,-321.3311 11.714,-481.826 2.3021,-36.2472 3.1919,-72.7832 9.5711,-108.6089 0.9637,-2.1386 1.0244,-8.5461 4.4284,-7.6069 5.1247,9.8167 4.9347,21.5783 6.7141,32.3614 7.7575,77.1651 9.9902,154.7535 12.9996,232.2121 8.6632,265.9146 11.1074,531.9828 13.2469,798.015 3.5472,529.3771 3.2907,1058.7698 3.6322,1588.156 0.04,167.6585 0.08,335.317 0.1204,502.9755 0.6161,-606.9454 -0.3118,-1213.8954 2.5819,-1820.8363 1.2584,-188.6417 2.0216,-377.3131 7.2504,-565.8968 1.4227,-33.3866 1.5066,-66.9488 5.7386,-100.131 -0.052,-4.1401 2.8097,-3.8795 2.7143,0.1076 4.4544,35.8886 4.512,72.1691 5.9998,108.2675 5.2563,196.6575 6.0254,393.3999 7.2673,590.1138 2.5837,574.9802 1.9984,1149.9683 2.3578,1724.9526 0.03,84.6217 0.059,169.2434 0.089,253.8651 0.2873,-655.4038 -0.3263,-1310.8105 2.1017,-1966.2112 1.5468,-322.4074 3.2614,-644.8456 11.2585,-967.1702 2.9771,-102.5666 5.4809,-205.22 13.3532,-307.5548 2.0195,-17.8088 2.3131,-36.1824 7.8569,-53.3386 2.466,-4.4299 4.5991,3.0412 4.857,5.0894 6.2805,33.7934 7.0455,68.3272 9.2854,102.5548 7.4665,155.8234 9.3764,311.8458 11.5588,467.813 4.6282,405.7527 4.7204,811.5389 5.3191,1217.3125 0.3774,369.037 0.2853,738.0742 0.5502,1107.1112 0.2899,-622.3456 -0.287,-1244.6942 2.1817,-1867.0363 1.4892,-284.3466 2.9463,-568.7255 10.3893,-852.9914 2.7499,-87.5402 4.8838,-175.1856 12.4282,-262.4756 1.8615,-13.8475 1.9244,-28.4019 7.1427,-41.4989 2.5956,-2.93 3.9407,3.352 4.4284,5.0702 6.4041,32.1171 7.2365,65.0371 9.5374,97.6305 7.8148,149.2511 9.9861,298.7255 12.3872,448.1405 5.214,390.4939 5.4834,781.0313 6.1909,1171.5531 0.5378,429.746 0.4834,859.4924 0.5979,1289.2386 0.4876,-640.7441 -0.2884,-1281.4917 2.3389,-1922.2321 1.4684,-270.2062 2.8403,-540.4444 10.0005,-810.5724 2.6066,-80.5129 4.4801,-161.1416 11.7577,-241.4017 1.706,-11.5573 1.6014,-23.9064 6.4734,-34.6691 2.8198,-1.8982 3.458,4.077 4.1427,5.7597 6.3415,33.1583 7.182,67.0793 9.4809,100.6887 7.8114,153.8365 9.9886,307.8894 12.3756,461.885 5.1234,397.8062 5.3619,795.6537 6.0405,1193.4862 0.5198,369.1459 0.2759,738.2924 0.6736,1107.4382 0.2959,-597.6258 -0.2458,-1195.255 2.323,-1792.8768 1.4892,-261.9804 2.8635,-523.9935 9.9623,-785.8947 2.5444,-76.2404 4.3032,-152.602 11.4282,-228.5868 1.6884,-10.4391 1.3523,-21.8735 6.2856,-31.3879 3.2112,-0.6566 3.2009,5.2507 4.1427,7.3237 6.4137,36.2366 7.3543,73.1797 9.714,109.837 7.8892,163.3896 10.1271,326.9859 12.5155,490.5288 5.0205,412.0315 5.2104,824.1015 5.8499,1236.1574 0.4113,380.6239 0.3871,761.248 0.4911,1141.8721 0.5655,-636.5244 -0.3362,-1273.0532 2.6067,-1909.573 1.4861,-242.2123 2.7942,-484.4567 9.5358,-726.5921 2.2726,-64.0861 3.582,-128.3061 9.9997,-192.147 1.361,-6.7349 0.723,-14.8527 4.857,-20.4759 3.7791,3.1946 2.9751,9.8658 4.2856,14.4043 6.2317,53.4644 7.3203,107.3681 9.5261,161.1069 6.8146,216.5528 8.234,433.2291 9.8579,649.8695 2.9354,505.5847 2.6569,1011.1808 2.9474,1516.772 0.032,126.2222 0.064,252.4445 0.097,378.6667 0.4182,-352.3657 0.1529,-704.7329 0.6423,-1057.0989 0.6623,-412.2634 0.8941,-824.5417 6.0847,-1236.779 2.4971,-166.7662 4.8995,-333.5867 13.0876,-500.1907 2.4572,-38.6088 3.6581,-77.4761 10.1845,-115.6723 1.2051,-2.947 0.8681,-8.9567 4.5712,-9.759 4.6684,6.3066 4.2335,15.1627 5.857,22.6265 7.2259,61.8873 8.9714,124.2531 11.6421,186.4594 7.8913,226.6632 9.8511,453.4799 11.8,680.2563 3.4643,499.0081 3.2095,998.0319 3.5732,1497.0492 0.1347,166.4665 -0.096,332.9347 0.2696,499.4002 0.298,-588.6727 -0.232,-1177.3489 2.3564,-1766.0175 1.4556,-249.181 2.7383,-498.3938 9.5004,-747.4995 2.3237,-67.6178 3.7142,-135.3656 10.2854,-202.7393 1.3654,-7.5346 0.9289,-16.1091 4.9998,-22.7338 3.5077,1.4314 2.8305,7.4865 3.9999,10.6832 6.024,44.6726 6.9904,89.8437 9.1426,134.8216 6.9899,193.1134 8.5647,386.3709 10.3623,579.5871 3.4954,475.7451 3.253,951.507 3.6463,1427.2619 0.072,229.775 0.1077,459.55 0.2766,689.325 0.2905,-622.0041 -0.2839,-1244.0114 2.2032,-1866.012 1.5129,-288.4728 3.0325,-576.9782 10.6168,-865.3683 2.8606,-91.2874 5.1403,-182.6805 12.9848,-273.7081 1.9553,-15.1357 2.1995,-30.9206 7.6228,-45.3192 3.0314,-4.0373 4.7925,4.0636 5.2855,6.147 6.6775,34.4181 7.7468,69.6287 10.1977,104.5293 8.2229,153.5893 10.6616,307.4147 13.2445,461.1804 5.5718,393.57 5.9259,787.1889 6.682,1180.7905 0.6559,517.0048 0.5667,1034.0101 0.732,1551.0152 0.2779,-670.4654 -0.3532,-1340.9329 1.7424,-2011.396 1.2382,-283.7478 2.2635,-567.523 8.7561,-851.21 2.4131,-85.284 4.1021,-170.6713 11.0723,-255.7351 1.6856,-12.1311 1.4348,-25.0615 6.2855,-36.439 2.8474,-1.4126 3.1094,4.4941 3.857,6.1933 6.1235,35.0215 6.8752,70.7248 9.0954,106.1428 7.4636,162.6743 9.413,325.5382 11.5888,488.3505 4.5631,417.2899 4.6183,834.6115 5.1921,1251.9211 0.339,378.4917 0.3101,756.9837 0.4087,1135.4755 0.4598,-642.0874 -0.2708,-1284.1781 2.2383,-1926.2622 1.4502,-279.9408 2.8294,-559.9133 10.0734,-839.7767 2.7195,-87.1237 4.8013,-174.3567 12.4018,-261.2244 1.8793,-13.9362 2.0002,-28.573 7.2855,-41.7455 2.5811,-3.2597 4.2557,3.0887 4.7141,4.9259 6.6002,31.2443 7.6163,63.3464 10.06,95.1086 8.4742,145.077 11.1932,290.4134 14.0595,435.6866 6.5059,384.4818 7.1992,769.0305 8.1313,1153.5571 0.8219,455.6602 0.7568,911.3213 0.8911,1366.9821 0.6197,-616.4934 -0.3178,-1232.9916 2.6688,-1849.4802 1.4077,-216.5136 2.4999,-433.0589 8.6165,-649.5024 1.93,-50.2928 2.6736,-100.7429 8.2855,-150.7977 1.0464,-3.3425 0.3057,-8.9851 3.4284,-10.9341 4.1047,8.5017 3.4581,18.7484 4.857,28.013 6.1168,80.7537 7.3526,161.78 9.4283,242.7118 5.8165,290.2718 6.5816,580.6139 7.6505,870.9331 1.5832,600.9272 1.1789,1201.8572 1.4921,1802.7858 0.2827,-655.9688 -0.335,-1311.9402 1.9393,-1967.9063 1.3759,-295.3821 2.6883,-590.7932 9.7746,-886.105 2.569,-88.5058 4.4898,-177.107 11.5711,-265.395 1.7246,-12.9723 1.5291,-26.6928 6.4284,-38.9477 2.6973,-1.6262 3.0437,4.2238 3.7141,5.8079 5.9231,34.707 6.5206,70.0699 8.6156,105.1518 6.9689,163.4919 8.5805,327.1524 10.5124,490.764 4.0438,430.3592 3.9482,860.7429 4.4476,1291.1168 0.1851,272.9229 0.2012,545.8459 0.2809,818.7689 0.4482,-459.2387 0.1227,-918.4787 1.1182,-1377.717 0.9821,-370.623 1.7423,-741.2692 8.3461,-1111.8442 2.9084,-140.096 5.6711,-280.2589 14.2492,-420.1466 2.4988,-30.9519 3.5552,-62.2655 10.2854,-92.6658 0.4153,-1.9869 2.4602,-8.3226 4.9999,-4.7256 5.6741,14.2599 5.8396,30.0681 7.8569,45.1424 7.9315,90.1226 10.1633,180.6258 12.9996,271.0175 7.414,283.35 8.8107,566.813 10.2759,850.2431 2.3721,611.8761 1.8702,1223.7584 2.0991,1835.6379 0.018,111.1875 0.035,222.375 0.053,333.5625 0.2963,-666.3839 -0.2274,-1332.7695 1.5868,-1999.1517 1.1858,-308.7595 2.1785,-617.5459 8.8635,-926.246 2.6962,-103.8432 4.9123,-207.7783 12.7717,-311.3888 2.0814,-19.1242 2.5722,-38.7711 8.3484,-57.237 0.5364,-3.0767 3.9614,-2.809 4.4285,0.1429 6.1037,19.7339 6.7286,40.6882 8.9997,61.1077 8.5583,107.6211 11.4413,215.5933 14.7138,323.4751 8.5452,325.6223 10.4477,651.3722 12.0981,977.0884 2.565,644.944 1.9052,1289.8949 2.3009,1934.8425 0.01,30.4745 0.019,60.9489 0.029,91.4234 0.2804,-632.1076 -0.3194,-1264.2177 1.865,-1896.3227 1.1461,-229.95 1.8691,-459.9253 7.2328,-689.8248 1.6398,-50.1798 2.1588,-100.4856 7.0446,-150.4842 0.8396,-2.8879 0.138,-8.3155 2.8571,-9.5867 4.0288,13.0734 3.5118,27.2362 4.8322,40.8204 5.6584,107.982 6.6936,216.1406 8.4404,324.2384 4.4274,359.1246 4.5851,718.2837 5.2272,1077.4299 0.6311,560.448 0.5005,1120.8966 0.6424,1681.3446 0.2747,-720.0109 -0.3817,-1440.0238 1.5401,-2160.0333 1.2622,-343.3435 2.509,-686.7149 9.9099,-1029.9923 2.9471,-116.873 5.5335,-233.8246 13.6921,-350.476 2.1838,-22.3065 2.7927,-45.0662 8.714,-66.7829 0.5963,-4.3024 4.6816,-2.9173 4.857,0.7379 6.2097,25.3441 6.8374,51.6701 9.0641,77.5771 7.9171,128.3476 10.1982,256.9594 12.8096,385.5 6.0702,356.6407 6.7033,713.3444 7.6251,1070.0271 0.9502,455.8717 0.6408,911.7448 1.0717,1367.617 0.2956,-597.3055 -0.2483,-1194.6143 2.3045,-1791.9159 1.4521,-255.1702 2.7466,-510.372 9.5799,-765.4671 2.37,-70.7291 3.8818,-141.5803 10.5435,-212.0693 1.4932,-8.558 0.9995,-18.206 5.4284,-25.8228 3.4508,1.0442 2.866,6.9719 3.9999,9.9034 6.0717,42.4817 7.0336,85.4978 9.2227,128.3043 7.1798,185.901 8.8922,371.9584 10.8107,557.9721 3.7686,456.2751 3.6242,912.5704 4.0514,1368.8575 0.1697,254.1193 0.073,508.2388 0.343,762.3581 0.2936,-611.7254 -0.2682,-1223.4541 2.2731,-1835.1757 1.5087,-275.3867 2.9606,-550.8059 10.2895,-826.1121 2.6462,-81.7994 4.5725,-163.7116 11.8652,-245.2616 1.7004,-11.7039 1.6054,-24.1741 6.4284,-35.1109 2.9092,-1.873 3.4324,4.3836 4.1427,6.1036 6.2586,34.314 7.0328,69.3525 9.2855,104.0902 7.537,158.5199 9.4947,317.2384 11.701,475.9024 4.6417,408.1664 4.7401,816.3662 5.3342,1224.5535 0.3786,411.9266 0.3649,823.8534 0.5356,1235.7801 0.2833,-647.9586 -0.3268,-1295.9199 1.9663,-1943.8757 1.3943,-292.8755 2.7177,-585.7818 9.9658,-878.5831 2.7557,-93.1544 4.9601,-186.408 12.6386,-279.3175 1.9404,-15.6451 2.1754,-31.9115 7.5712,-46.8514 0.3563,-0.5812 0.8063,-1.3445 1.5714,-1.3827"
         id="path149" />
      <path
         style="fill:none;stroke:#ff0000;stroke-width:0.5;stroke-linecap:square;stroke-linejoin:miter"
         clip-path="url(#789695421804425603)"
         d="m 72,216 c 137.52776,-0.17223 274.58512,27.61403 402.41623,77.94074 219.76245,86.42791 411.26362,234.79758 566.98257,410.76087 154.4182,174.32608 274.0633,375.78939 384.1311,580.05559 98.3826,183.433 189.9053,370.4192 282.9913,556.5644 129.6348,260.2525 261.7544,519.3507 402.4163,773.8492 196.6021,356.4577 409.3715,704.1482 641.1232,1038.8815 281.5235,407.087 590.785,794.9699 924.8287,1160.1929 217.0357,237.4112 444.3859,465.354 680.5506,683.7318"
         id="path151" />
      <path
         style="fill:none;stroke:#0000ff;stroke-width:0.5;stroke-linecap:square;stroke-linejoin:miter"
         clip-path="url(#789695421804425603)"
         d="m 72,218.03456 c 26.190617,-0.015 52.44788,-4.75172 78.56902,-0.77179 23.27274,3.29919 46.14606,9.44627 69.71215,10.5948 21.86949,1.22201 44.00495,2.15141 65.14086,8.4618 22.29092,6.45782 44.14897,14.68708 67.14079,18.4554 20.84289,3.53411 41.8469,7.44599 61.28384,16.0918 20.10389,8.71593 39.81151,18.78523 61.28383,23.806 15.79319,3.84402 32.39957,8.36797 44.14151,20.36064 18.75434,18.84197 27.98153,44.67303 36.42745,69.30299 20.13219,63.99652 30.56314,130.52613 40.71304,196.68537 22.19987,154.00778 35.72327,309.10785 48.14138,464.16023 24.99401,323.6155 41.34527,647.8279 55.56972,972.0727 26.32952,614.615 42.9255,1229.6056 55.71258,1844.6376 32.15696,1572.5551 35.12669,3145.5082 36.52804,4718.3337 0.52816,753.6676 0.33264,1507.3352 0.47083,2261.0032 0.18108,-617.668 -0.14889,-1235.3356 0.46527,-1853.0029 0.0925,-18.3294 -0.0265,-36.6605 0.24899,-54.9885 0.7645,336.7301 0.41124,673.462 0.71426,1010.1929 0.27111,-832.042 -0.17004,-1664.0871 2.80011,-2496.1252 1.25662,-268.1156 2.12864,-536.2465 6.80848,-804.3294 1.38285,-52.6428 1.51232,-105.3891 5.67666,-157.9065 -0.0104,-1.8602 1.28964,-9.6471 2.4285,-4.2275 4.01992,34.6705 3.9331,69.6891 5.31201,104.5379 5.23157,210.0559 6.19675,420.1888 7.51865,630.2973 2.537,539.2104 2.2515,1078.4288 2.46697,1617.6437 0.0435,605.1321 0.087,1210.2642 0.13046,1815.3962 0.17492,-854.3325 -0.14339,-1708.6653 0.46842,-2562.9978 0.5507,-390.4884 0.58605,-780.9873 4.64984,-1171.4591 1.61963,-117.3191 2.54066,-234.69 7.93277,-351.912 1.29196,-15.6213 0.90652,-31.6613 4.80557,-46.8955 2.30191,-1.2546 2.08625,4.823 2.7142,6.2345 5.12762,44.0567 5.69686,88.5007 7.5712,132.7802 6.65973,216.2047 8.377,432.5237 10.19871,648.812 3.60238,528.8622 3.27805,1057.7404 3.65846,1586.6118 0.0475,306.1386 0.0949,612.2771 0.1424,918.4157 0.28423,-660.4891 -0.22358,-1320.9798 1.48663,-1981.4674 0.98061,-253.6987 1.5289,-507.4179 6.47251,-761.0779 1.60189,-58.4296 2.11301,-116.9677 7.0404,-175.2385 0.96677,-4.1119 0.11701,-10.1784 3.14276,-13.0406 3.93016,10.5884 3.34781,22.5204 4.71414,33.7007 6.14432,96.8779 7.74002,193.9741 10.08013,290.9991 7.06875,356.4793 8.69472,713.0382 10.11797,1069.5762 1.97052,591.5112 1.47103,1183.0265 1.94408,1774.5396 0.2793,-559.7505 -0.2454,-1119.5039 1.87471,-1679.2518 0.8323,-131.5159 0.87566,-263.0545 4.07472,-394.5402 0.57539,-8.1628 -0.0199,-17.2017 1.76462,-24.8314 2.69342,29.6024 2.10754,59.4771 2.94786,89.1986 3.16924,243.759 3.16051,487.5453 3.77652,731.3203 0.72637,453.1433 0.56235,906.2874 0.84681,1359.4315 0.29815,-676.9961 -0.31983,-1353.9954 2.4895,-2030.9869 1.76744,-346.7562 3.91766,-693.5367 11.93863,-1040.2149 2.90753,-107.303 5.27479,-214.6838 12.78821,-321.7867 1.91113,-17.9381 2.04155,-36.4201 7.35403,-53.7608 2.12167,-3.7458 3.90775,2.6477 4.14273,4.381 5.94072,32.6035 6.57014,65.9065 8.71402,98.9104 7.37803,157.6208 9.3651,315.4317 11.60677,473.1909 4.84881,414.0451 5.00268,828.1261 5.61778,1242.1938 0.47949,485.7143 0.36996,971.4288 0.48919,1457.1433 0.29213,-666.7298 -0.22804,-1333.4613 1.55911,-2000.1894 1.12032,-291.6048 1.96619,-583.2337 8.012,-874.7873 2.2003,-84.2481 3.6254,-168.5916 10.0841,-252.6484 1.5468,-11.1311 1.1128,-23.0958 5.6297,-33.5006 2.9668,-0.2953 2.6697,5.3788 3.5714,7.4027 5.8637,38.5364 6.6884,77.634 8.8568,116.5007 7.4289,178.9867 9.4767,358.1422 11.6645,537.2535 4.5358,448.945 4.5286,897.9192 5.062,1346.8822 0.2592,391.6477 0.296,783.2955 0.4159,1174.9432 0.2788,-653.1297 -0.3374,-1306.2617 1.8101,-1959.3889 1.1909,-257.3455 2.0794,-514.7164 7.9275,-772.0077 1.965,-65.5639 2.9255,-131.2431 8.6904,-196.6132 1.1635,-6.0953 0.5105,-13.3669 3.9998,-18.5825 3.5874,4.43 2.8318,11.5144 3.9999,17.0636 5.8813,63.0794 6.9023,126.491 8.9601,189.7785 6.2609,251.7036 7.3621,503.499 8.6956,755.2662 2.3332,595.6694 1.8402,1191.345 2.1239,1787.0177 0.026,123.5146 0.051,247.0296 0.077,370.5436 0.2782,-684.9979 -0.365,-1369.9981 1.7143,-2054.9941 1.2566,-297.9784 2.356,-595.9837 9.0226,-893.9007 2.478,-90.5465 4.2838,-181.189 11.3466,-271.5226 1.7518,-13.6749 1.6103,-28.0667 6.63,-41.0324 3.0733,-2.1716 3.5455,4.9186 4.2855,6.7114 6.3028,36.527 7.2204,73.7332 9.5712,110.6617 7.9704,166.943 10.3936,334.0889 12.9216,501.1844 5.4388,424.4006 5.7163,848.8446 6.3984,1273.2731 0.4856,433.3152 0.4244,866.6308 0.5365,1299.9462 0.4122,-630.4445 -0.2346,-1260.8917 1.987,-1891.3337 1.1918,-240.3479 2.0217,-480.7217 7.6577,-721.0161 1.7977,-56.0162 2.4726,-112.1596 7.7833,-167.9841 0.98,-3.8535 0.1929,-9.821 3.2857,-12.2744 3.9881,10.3575 3.3606,22.1097 4.7141,33.0807 5.807,93.5084 6.9016,187.231 8.7779,280.8793 5.0279,325.8032 5.4181,651.6546 6.2332,977.489 0.8335,427.2567 0.5676,854.515 0.9645,1281.7717 0.041,10.1542 0.02,-5.2814 0.027,-8.7993 0.2983,-600.3748 -0.2308,-1200.7533 2.4782,-1801.1236 1.6361,-283.1958 3.3501,-566.4245 11.1173,-849.5317 2.851,-86.9915 5.0608,-174.0933 12.7807,-260.822 1.8925,-13.8927 2.0366,-28.4862 7.3337,-41.6093 2.5356,-3.2795 4.2716,2.9577 4.7141,4.801 6.5586,30.6652 7.5674,62.1934 9.9997,93.3792 8.4862,143.4388 11.2285,287.1401 14.1222,430.7776 6.6182,382.5077 7.3418,765.085 8.3,1147.6394 1.1041,641.8697 0.8093,1283.7408 1.0056,1925.6113 0.2705,-705.1992 -0.3679,-1410.4 1.4582,-2115.5974 1.0696,-281.982 1.8055,-563.9874 7.5628,-845.9217 2.1156,-81.0977 3.4167,-162.2953 9.7795,-243.2 1.4958,-10.5197 1.0994,-21.8558 5.4845,-31.6548 2.8873,-0.477 2.7077,5.0515 3.5713,6.9583 5.9971,37.4795 6.8389,75.5639 9.0914,113.3962 7.7291,174.4909 10.0066,349.1658 12.3828,523.7945 4.9874,436.1768 5.1319,872.3896 5.7309,1308.5891 0.3964,457.8401 0.3819,915.6808 0.5084,1373.5208 0.2762,-668.907 -0.3526,-1337.8159 1.6892,-2006.7206 1.1334,-259.0731 1.9314,-518.1705 7.5962,-777.1933 1.9214,-65.998 2.8158,-132.1107 8.5289,-197.9194 1.1368,-5.9566 0.4659,-13.1064 3.8993,-18.178 3.692,5.0756 2.8923,12.683 4.1024,18.8203 5.8775,66.9155 6.9265,134.1423 8.9696,201.2543 6.1257,262.0708 7.127,524.2266 8.3816,786.3559 2.1617,622.2226 1.6233,1244.4504 1.9332,1866.6758 0.014,58.805 0.027,117.61 0.041,176.415 0.2789,-672.7527 -0.353,-1345.5071 1.7871,-2018.257 1.2843,-294.877 2.4403,-589.7812 9.1624,-884.5951 2.4622,-88.4019 4.2493,-176.8988 11.1927,-265.0904 1.6692,-12.8774 1.5272,-26.445 6.2855,-38.644 2.7624,-1.8846 3.1909,4.3605 3.8571,5.976 6.0257,35.262 6.7237,71.1845 8.9028,106.8274 7.3393,165.2672 9.2243,330.7156 11.3478,496.1141 4.4442,424.7249 4.4591,849.4795 5.0094,1274.2226 0.3151,420.9723 0.3325,841.9444 0.4535,1262.9174 0.2788,-667.8031 -0.349,-1335.6082 1.7978,-2003.4086 1.2938,-293.684 2.4556,-587.3964 9.2963,-881.0148 2.6088,-92.6848 4.6262,-185.4672 12.048,-277.9216 1.8637,-15.2906 2.0538,-31.1847 7.2855,-45.7961 2.3517,-3.8028 4.3899,2.6521 4.7141,4.5752 6.467,31.2987 7.4571,63.4207 9.8569,95.2161 8.4124,146.8414 11.1236,293.9351 13.9747,440.9675 6.4711,388.866 7.1398,777.7976 8.0546,1166.7074 0.864,492.9303 0.6831,985.8619 0.97,1478.7919 0.2838,-620.7928 -0.2985,-1241.5886 2.0041,-1862.3786 1.2612,-243.4249 2.1972,-486.8778 8.1896,-730.2427 2.0192,-62.0634 2.9918,-124.2575 8.9485,-186.1021 1.1664,-5.7756 0.5778,-12.7756 4.1428,-17.5816 3.6531,3.8487 2.9324,10.6184 4.1427,15.6835 6.142,58.323 7.2832,117.0337 9.4882,175.601 6.846,234.6846 8.2884,469.4842 9.8744,704.2507 2.8327,542.1616 2.4516,1084.3329 2.7358,1626.4998 0.013,95.656 0.053,191.312 0.1866,286.968 0.2937,-604.2705 -0.2581,-1208.5443 2.2743,-1812.8109 1.4483,-259.2705 2.7445,-518.5719 9.5735,-777.7684 2.3774,-72.0504 3.8849,-144.2225 10.5801,-216.0348 1.4807,-8.7921 1.0774,-18.5604 5.4284,-26.4858 3.2294,0.3119 2.8332,5.9936 3.8571,8.4149 6.0656,39.2658 6.9638,79.1158 9.1858,118.7292 7.4177,176.9228 9.3307,354.0184 11.4244,531.0671 4.2385,439.5503 4.1965,879.1268 4.6998,1318.6931 0.2348,366.8246 0.2726,733.6486 0.4035,1100.4726 0.2817,-649.331 -0.3298,-1298.6647 1.9175,-1947.9929 1.3305,-282.3729 2.5158,-564.7749 9.3229,-847.0803 2.5315,-85.7319 4.3584,-171.5702 11.5639,-257.0683 1.7471,-12.698 1.6315,-26.1541 6.6233,-38.0969 2.7599,-2.1412 3.5043,3.986 4.1427,5.6389 6.3103,33.2355 7.1726,67.2225 9.4811,100.9032 7.9121,154.7529 10.2059,309.7241 12.6746,464.6391 5.3269,398.8602 5.6246,797.7648 6.3308,1196.6535 0.7425,656.6327 0.4951,1313.2647 0.6555,1969.8977 0.2581,-755.814 -0.3526,-1511.6296 1.1546,-2267.4427 0.9803,-325.8038 1.6461,-651.6294 7.5781,-977.3893 2.3917,-107.4262 4.2546,-214.9327 11.4812,-322.1682 1.9107,-18.6004 2.0604,-37.7373 7.4995,-55.7343 1.8829,-4.1684 4.2833,1.7542 4.4285,3.7698 6.219,31.1624 7.0152,63.1091 9.2854,94.7332 7.9356,149.11 10.2797,298.4469 12.816,447.7254 5.6164,392.9501 5.9838,785.95 6.7515,1178.9324 0.9386,799.0987 0.51,1598.1977 0.7176,2397.2957 0.2186,-803.595 -0.2501,-1607.19 0.731,-2410.7853 0.7501,-367.6836 1.0708,-735.3836 6.2688,-1103.0377 2.2751,-131.4996 4.1639,-263.0639 11.4868,-394.4013 2.0266,-26.0507 2.5931,-52.456 8.3697,-78.0183 0.066,-2.2968 2.9692,-5.8314 4.1428,-2.0765 5.6301,18.6837 5.9551,38.5158 7.9997,57.8201 7.8831,109.1098 10.2946,218.523 13.1425,327.8534 7.2771,329.5507 8.4913,659.1962 9.7592,988.8133 1.7238,581.1732 1.2752,1162.3493 1.669,1743.5243 0.2851,-618.817 -0.2932,-1237.6366 2.0456,-1856.4505 1.3048,-251.093 2.3439,-502.215 8.6282,-753.2438 2.2028,-68.4742 3.4573,-137.0754 9.897,-205.3172 1.4323,-7.7311 0.8125,-16.7085 5.1427,-23.416 3.5894,1.9639 2.9171,8.0709 4.1427,11.6399 6.2357,46.1094 7.422,92.7241 9.754,139.1481 7.69,196.8636 9.7755,393.8921 11.9089,590.8782 4.1346,463.1016 4.0389,926.2269 4.5037,1389.3433 0.1864,305.5 0.1786,611 0.2612,916.501 0.4824,-635.436 -0.2824,-1270.876 2.2856,-1906.3083 1.3653,-248.6655 2.4894,-497.3609 8.9102,-745.9586 2.1997,-66.262 3.431,-132.6528 9.7684,-198.683 1.3798,-7.0967 0.7082,-15.5403 4.8921,-21.5672 3.7842,3.0789 2.9706,9.7617 4.2856,14.226 6.2987,53.3287 7.4642,107.1039 9.7478,160.7124 7.1668,217.3119 8.8189,434.7579 10.591,652.1666 3.2245,498.939 2.9706,997.8921 3.2992,1496.8381 0.1154,294.855 0.1469,589.709 0.2184,884.563 0.2781,-679.289 -0.361,-1358.581 1.7213,-2037.8678 1.2462,-291.3599 2.3038,-582.7472 8.8961,-874.0459 2.4514,-88.1688 4.213,-176.4366 11.2391,-264.389 1.7035,-12.9657 1.5619,-26.6456 6.4284,-38.9079 2.7965,-2.0255 3.3389,4.305 3.9998,5.9485 6.1506,34.7937 6.9078,70.2796 9.1426,105.4758 7.5402,162.1024 9.542,324.3983 11.7598,486.6419 4.6483,413.8385 4.7428,827.71 5.3289,1241.5694 0.6351,838.358 0.2799,1676.717 0.4434,2515.075 0.013,237.77 0.026,475.539 0.039,713.309 0.1293,-997.409 -0.051,-1994.818 0.2985,-2992.227 0.4699,-459.56 0.3334,-919.1298 4.3989,-1378.676 2.126,-196.6397 4.1972,-393.3258 12.1397,-589.8343 2.5917,-51.1826 4.1693,-102.5589 11.162,-153.3802 1.561,-5.7496 1.1232,-13.2418 5.5713,-17.6381 3.9703,1.5548 3.6575,7.721 4.9999,11.2337 7.1635,41.1642 8.7011,83.0565 11.4823,124.6814 9.0978,170.8342 12.2352,341.9162 15.2777,512.9443 6.4811,417.8403 7.0525,835.7421 7.8937,1253.6232 1.0425,810.009 0.5386,1620.018 0.7527,2430.028 0.01,91.483 0.014,182.966 0.021,274.448 0.19,-837.923 -0.1778,-1675.847 0.5466,-2513.77 0.602,-371.759 0.6857,-743.5293 4.9775,-1115.2684 1.7994,-120.3211 2.988,-240.7009 9.0469,-360.9015 1.5429,-18.7393 1.3757,-37.9034 5.9998,-56.1971 2.0293,-3.1085 2.9832,3.4189 3.2856,4.7448 5.3096,36.2041 5.8592,72.9149 7.7529,109.4102 6.6657,178.7909 8.1989,357.7232 10.0107,536.6146 3.7248,464.1684 3.5197,928.3564 3.9532,1392.5374 0.1578,371.296 0.2062,742.592 0.2826,1113.888 0.2768,-689.306 -0.3664,-1378.613 1.6733,-2067.916 1.2528,-305.9952 2.3763,-612.0176 9.2063,-917.9498 2.6413,-98.4507 4.7407,-196.9927 12.2625,-295.2201 1.9735,-16.991 2.1492,-34.6 7.7141,-50.899 2.1898,-3.9465 4.4498,2.222 4.7141,4.2132 6.4332,30.537 7.3905,61.9125 9.7739,92.9526 8.3819,144.4788 11.0706,289.2125 13.9165,433.8839 6.4849,384.4685 7.1828,769.0032 8.111,1153.5172 0.9296,525.265 0.7622,1050.532 0.9119,1575.798 0.39,-632.303 -0.2226,-1264.608 1.9089,-1896.909 1.1976,-253.9671 2.0774,-507.9609 7.9721,-761.8728 2.005,-65.7996 3.0236,-131.7177 8.9357,-197.3137 1.2655,-6.3824 0.4965,-14.1864 4.3254,-19.5288 3.7865,4.9169 3.0511,12.4227 4.2856,18.4518 6.0755,64.3329 7.19,129.0099 9.3115,193.561 6.3429,250.1789 7.4525,500.4525 8.7966,750.6975 2.2957,579.319 1.8979,1158.645 2.088,1737.968 0.03,238.207 0.059,476.413 0.089,714.619 0.2602,-732.866 -0.3003,-1465.735 1.3086,-2198.6 1.09,-341.103 1.9931,-682.2311 8.6664,-1023.2804 2.7641,-119.417 5.1818,-238.9114 13.2377,-358.1148 2.2451,-23.8433 2.9083,-48.136 9.072,-71.3809 0.2175,-3.2399 4.076,-4.99 4.857,-0.9822 6.0969,20.2066 6.689,41.6078 8.9369,62.4844 8.3725,109.2867 11.1044,218.9078 14.2053,328.4422 7.9199,325.4502 9.4282,651.0124 10.8672,976.5427 1.945,566.085 1.6167,1132.174 1.8467,1698.262 0.614,-600.272 -0.2488,-1200.549 2.5345,-1800.817 1.3955,-226.9262 2.4968,-453.8841 8.7797,-680.7395 2.0978,-57.6578 3.1352,-115.4626 9.2566,-172.8722 1.2447,-5.4908 0.6195,-12.4872 4.4284,-16.8127 3.9433,4.0534 3.216,11.1911 4.5713,16.5066 6.5522,57.4325 7.941,115.303 10.3888,173.0159 7.6726,228.2021 9.6528,456.5474 11.6105,684.8559 3.508,503.091 3.2834,1006.198 3.6369,1509.298 0.1633,439.142 0.1388,878.284 0.2202,1317.426 0.2602,-743.087 -0.3559,-1486.176 1.1999,-2229.262 0.9485,-299.932 1.5361,-599.884 6.9289,-899.7771 1.9333,-83.2017 3.0587,-166.4875 8.8706,-249.5324 1.2892,-9.5654 0.7979,-19.8747 4.5713,-28.8304 3.0645,1.5487 2.2721,7.3571 3.2856,10.4681 5.4699,50.7426 6.1504,101.8589 8.0277,152.8245 5.9822,222.2261 7.0085,444.5473 8.3599,666.8393 2.6006,581.66 2.0332,1163.328 2.3804,1744.993 0.029,94.881 0.059,189.761 0.089,284.642 0.2846,-656.355 -0.3333,-1312.713 2.0039,-1969.065 1.4695,-311.478 2.9861,-622.988 10.71,-934.3866 2.9619,-101.5012 5.4555,-203.0954 13.5116,-304.3497 2.1103,-18.3969 2.5519,-37.3583 8.3449,-55.0671 1.3673,-4.2122 4.7321,-0.3042 4.857,2.3276 6.4182,26.3802 7.2143,53.7476 9.5711,80.7019 8.3062,129.6955 10.8802,259.6726 13.7139,389.5778 6.6323,357.2291 7.4596,714.5331 8.4868,1071.8131 1.0172,468.201 0.9343,936.404 1.0843,1404.606 0.4128,-295.177 0.145,-590.357 0.4883,-885.536 0.5276,-413.707 0.5334,-827.425 4.7382,-1241.116 1.9648,-154.7323 3.5849,-309.5151 10.4372,-464.126 1.9546,-31.0143 2.4344,-62.3108 7.907,-92.9639 -0.1088,-2.4944 2.8534,-7.4318 3.9999,-2.6388 5.3796,23.3559 5.5734,47.5663 7.4283,71.3884 6.9078,131.6571 8.5846,263.5185 10.706,395.3194 4.8676,375.3789 5.0952,750.7969 5.7747,1126.2009 0.6816,589.945 0.5145,1179.891 0.6616,1769.837 0.2713,-728.621 -0.3789,-1457.243 1.4315,-2185.862 1.1875,-336.883 2.2503,-673.7932 9.3463,-1010.6145 2.9665,-120.3011 5.644,-240.6836 14.1521,-360.7483 2.3996,-25.0571 3.303,-50.5541 9.7834,-74.9821 0.1841,-3.0995 4.1236,-6.527 5.4284,-2.0239 6.2249,18.3494 6.8373,38.0639 9.1426,57.1766 8.6858,101.3083 11.5486,203.0034 14.8257,304.5978 8.4857,305.2903 10.3418,610.7154 12.0185,916.1044 2.4542,569.722 2.121,1139.451 2.3218,1709.177 0.04,419.992 0.079,839.984 0.1188,1259.976 0.2239,-793.606 -0.2635,-1587.212 0.7722,-2380.817 0.7475,-348.462 1.0624,-696.94 6.0444,-1045.3729 2.1037,-117.344 3.6605,-234.7577 10.4686,-351.9457 1.7796,-20.2491 1.9216,-40.9368 7.1426,-60.6673 1.8425,-4.6006 4.2078,2.0104 4.2856,4.0397 5.9949,33.4935 6.7081,67.6741 8.9059,101.5642 7.5989,160.3141 9.6939,320.825 11.9866,481.284 4.8741,412 5.0191,824.037 5.6406,1236.061 0.3871,377.653 0.3643,755.306 0.466,1132.96 0.5461,-639.762 -0.3271,-1279.529 2.556,-1919.287 1.5311,-257.378 2.9511,-514.79 10.1579,-772.0854 2.6455,-76.9653 4.5123,-154.0606 11.9997,-230.7452 1.7722,-11.2624 1.703,-23.409 6.8569,-33.7501 3.1085,-1.9956 3.9315,4.2826 4.7141,6.1709 6.8477,32.436 8.0802,65.7422 10.714,98.71 9.1109,147.1411 12.4099,294.5652 15.7536,441.9268 7.9164,396.364 9.0983,792.821 10.2633,1189.25 1.3495,623.338 1.0251,1246.678 1.268,1870.017 0.2739,-662.635 -0.3468,-1325.271 1.638,-1987.904 1.06,-240.74 1.6903,-481.503 6.8808,-722.198 1.6789,-55.646 2.2289,-111.415 7.3378,-166.882 0.9435,-3.71 0.152,-9.527 3.1428,-11.86 3.9576,10.722 3.3613,22.768 4.7141,34.075 5.8739,95.934 7.0614,192.08 8.9998,288.153 5.2093,331.286 5.6652,662.622 6.5016,993.941 1.0674,619.207 0.7449,1238.416 0.9267,1857.623 0.2747,-692.816 -0.2565,-1385.633 1.4762,-2078.448 1.1459,-323.871 2.1324,-647.767 8.7285,-971.583 2.584,-105.373 4.6363,-210.83 12.0803,-315.999 1.9417,-17.993 2.0866,-36.557 7.5712,-53.916 2.0251,-3.957 4.2255,2.085 4.4285,4.007 6.2512,31.281 7.0574,63.35 9.3407,95.095 7.9674,149.168 10.3842,298.563 12.989,447.9 5.8542,396.339 6.3087,792.73 7.1098,1189.103 0.6375,441.383 0.5819,882.766 0.7024,1324.149 0.5436,-630.586 -0.3179,-1261.175 2.4816,-1891.757 1.367,-226.499 2.4283,-453.028 8.5181,-679.46 1.9258,-53.124 2.7143,-106.393 8.2854,-159.296 0.9923,-3.916 0.3614,-9.466 3.4285,-12.221 3.9687,7.492 3.2301,16.906 4.5713,25.217 5.968,77.624 7.0777,155.521 9.082,233.321 5.6515,284.588 6.3692,569.244 7.4158,853.878 1.4673,517.542 1.0351,1035.087 1.5016,1552.631 0.2967,-610.505 -0.2566,-1221.014 2.3632,-1831.516 1.5838,-285.664 3.2196,-571.36 10.8875,-856.938 2.7872,-86.809 4.9411,-173.723 12.4628,-260.282 1.833,-13.472 1.8632,-27.659 6.9998,-40.383 2.7952,-2.728 3.8576,3.906 4.4284,5.637 6.3239,33.169 7.1499,67.097 9.4283,100.715 7.6941,153.449 9.774,307.109 12.089,460.712 4.9485,397.669 5.1427,795.376 5.7971,1193.069 0.5176,467.291 0.4236,934.583 0.5419,1401.874 0.3359,-650.294 -0.2147,-1300.591 1.7512,-1950.883 1.258,-303.158 2.3802,-606.345 9.2485,-909.439 2.6738,-98.383 4.8227,-196.859 12.4282,-295.014 1.9717,-16.945 2.1965,-34.489 7.714,-50.7522 2.1588,-4.0365 4.4764,2.1532 4.7142,4.1742 6.3855,30.759 7.2569,62.346 9.5711,93.6 8.0168,145.016 10.3346,290.272 12.8716,435.466 5.5708,380.452 5.976,760.954 6.7547,1141.439 0.6982,492.436 0.5924,984.872 0.8017,1477.308 0.2815,-648.834 -0.33,-1297.67 1.9101,-1946.501 1.3348,-283.525 2.5233,-567.081 9.4249,-850.537 2.6229,-88.77 4.6114,-177.646 12.0928,-266.172 1.8908,-14.241 1.9198,-29.214 7.2855,-42.683 3.0497,-3.066 4.2333,4.298 4.857,6.192 6.6246,34.184 7.6907,69.155 10.1425,103.817 8.3136,153.951 10.8509,308.142 13.5022,462.273 5.7509,394.234 6.1444,788.519 6.9283,1182.786 0.8219,628.706 0.5474,1257.413 0.7118,1886.119 0.26,-722.403 -0.2923,-1444.807 1.3089,-2167.209 1.0346,-313.934 1.7726,-627.89 7.8275,-941.776 2.425,-102.569 4.2795,-205.225 11.5772,-307.591 1.8892,-17.4 2.0616,-35.355 7.4283,-52.126 2.4817,-4.363 4.5616,3.135 4.857,5.15 6.4148,33.659 7.3887,68.074 9.7684,102.187 8.1887,155.079 10.6754,310.389 13.2886,465.641 5.6699,397.807 6.0436,795.665 6.8078,1193.505 0.9482,825.072 0.4809,1650.144 0.6872,2475.216 0.01,82.545 0.012,165.091 0.019,247.636 0.1762,-839.868 -0.1464,-1679.737 0.4718,-2519.605 0.5748,-405.617 0.6426,-811.246 5.111,-1216.844 2.1219,-156.006 3.9496,-312.066 11.3232,-467.932 2.2224,-34.399 3.0076,-69.097 9.2361,-103.073 0.7704,-1.858 1.2818,-8.511 4.4284,-6.586 5.2893,11.73 5.2204,25.171 7.1008,37.763 7.9189,84.201 10.3549,168.798 13.47,253.279 8.864,283.004 11.3695,566.16 13.4858,849.281 3.3636,539.454 3.0992,1078.922 3.4077,1618.384 0.035,147.646 0.071,295.291 0.106,442.937 0.6156,-604.711 -0.3108,-1209.427 2.5632,-1814.134 1.2386,-184.957 1.9612,-369.944 7.0974,-554.844 1.3921,-32.368 1.4494,-64.914 5.6246,-97.076 0.063,-4.431 2.8869,-3.09 2.7142,0.563 4.4775,36.693 4.5781,73.77 6.086,110.67 5.3311,198.686 6.1523,397.458 7.4165,596.201 2.6156,571.145 2.0476,1142.297 2.3998,1713.446 0.032,92.728 0.065,185.457 0.097,278.186 0.2865,-652.967 -0.3243,-1305.936 2.0825,-1958.899 1.5089,-314.208 3.128,-628.445 10.8734,-942.573 2.895,-99.526 5.2639,-199.144 13.0433,-298.437 1.9396,-16.758 2.24,-34.066 7.5712,-50.182 2.454,-4.388 4.5912,2.964 4.8569,5.013 6.3355,33.581 7.152,67.915 9.4283,101.941 7.642,154.603 9.6947,309.413 11.9827,464.168 4.8872,401.161 5.0549,802.36 5.6949,1203.545 0.4408,387.537 0.3317,775.075 0.6076,1162.612 0.289,-620.193 -0.2853,-1240.389 2.1645,-1860.578 1.4577,-277.252 2.8312,-554.535 10.0573,-831.709 2.6599,-84.354 4.6638,-168.817 12.0632,-252.921 1.8417,-13.018 1.7551,-26.841 6.9997,-39.046 2.9165,-2.31 3.7608,4.149 4.4285,5.907 6.4804,33.435 7.4059,67.652 9.7679,101.554 8.0052,153.071 10.3145,306.368 12.8028,459.607 5.3607,394.332 5.6668,788.709 6.387,1183.07 0.555,433.579 0.4966,867.159 0.6128,1300.739 0.4867,-638.55 -0.2864,-1277.102 2.3213,-1915.648 1.4355,-263.523 2.7345,-527.077 9.6783,-790.524 2.5277,-77.787 4.2791,-155.694 11.4282,-233.228 1.662,-10.839 1.4895,-22.52 6.2856,-32.532 2.9665,-1.463 3.3608,4.467 4.1427,6.251 6.4113,34.102 7.3265,68.955 9.6769,103.505 7.9746,156.261 10.2896,312.743 12.7644,469.168 5.3132,400.656 5.588,801.356 6.2918,1202.041 0.5393,375.507 0.2958,751.015 0.6946,1126.522 0.2951,-595.449 -0.2447,-1190.901 2.3044,-1786.346 1.4578,-255.723 2.7594,-511.478 9.6622,-767.125 2.4746,-73.651 4.1082,-147.43 11.1372,-220.824 1.6156,-9.671 1.2683,-20.354 6.0381,-29.084 3.2598,-0.362 3.1573,5.451 4.1428,7.638 6.4506,36.763 7.4557,74.225 9.8568,111.407 8.0485,164.733 10.4256,329.677 12.9082,494.568 5.228,412.504 5.4704,825.049 6.1387,1237.58 0.4449,390.772 0.4174,781.545 0.5239,1172.317 0.5643,-634.254 -0.334,-1268.512 2.5866,-1902.761 1.4611,-236.997 2.6981,-474.027 9.2991,-710.948 2.1972,-61.593 3.4398,-123.32 9.6851,-184.671 1.3111,-6.447 0.7215,-14.208 4.7141,-19.582 3.7741,3.11 2.9756,9.747 4.2856,14.221 6.2611,52.945 7.3912,106.337 9.6382,159.561 7.0105,215.57 8.5467,431.269 10.2504,646.932 3.0922,499.398 2.8295,998.809 3.1434,1498.215 0.037,144.233 0.073,288.467 0.1102,432.7 0.4178,-350.206 0.1527,-700.414 0.6358,-1050.621 0.6527,-407.875 0.862,-815.765 5.9304,-1223.615 2.4168,-162.325 4.6869,-324.705 12.6773,-486.871 2.4231,-37.285 3.4758,-74.856 10.0413,-111.708 1.0934,-2.502 0.9207,-8.365 4.4284,-8.457 4.7965,7.393 4.5058,17.05 6.1427,25.537 7.4065,66.458 9.3012,133.378 12.0686,200.148 8.0684,237.524 10.0993,475.2 12.0574,712.837 3.3773,505.424 3.1255,1010.862 3.4687,1516.294 0.1319,156.382 -0.1008,312.767 0.2616,469.149 0.2973,-586.538 -0.231,-1173.08 2.3377,-1759.614 1.4255,-243.679 2.6475,-487.39 9.2334,-730.997 2.2542,-65.487 3.5733,-131.104 9.9996,-196.349 1.3913,-7.214 0.7991,-15.702 4.9999,-21.868 3.6234,2.294 2.9018,8.515 4.1427,12.325 6.19,48.389 7.2726,97.257 9.5008,145.944 7.1127,202.549 8.7459,405.239 10.5499,607.89 3.4048,482.285 3.1681,964.586 3.5382,1446.88 0.067,219.676 0.1062,439.353 0.2675,659.03 0.2897,-619.935 -0.2824,-1239.873 2.1861,-1859.804 1.4814,-281.832 2.9229,-563.696 10.2952,-845.448 2.7706,-88.226 4.9257,-176.561 12.6107,-264.529 1.9319,-14.374 2.0456,-29.469 7.4785,-43.059 2.5365,-3.26 4.2716,2.961 4.7141,4.803 6.5751,30.749 7.5597,62.365 9.9781,93.637 8.3617,143.105 10.9509,286.47 13.7092,429.769 6.1639,376.256 6.7645,752.573 7.6521,1128.87 0.9253,561.649 0.7457,1123.299 0.9453,1684.949 0.2779,-669.206 -0.3528,-1338.414 1.7354,-2007.618 1.2209,-278.362 2.1974,-556.751 8.55,-835.053 2.3527,-82.565 3.9346,-165.237 10.8048,-247.581 1.6233,-11.35 1.359,-23.506 6.0519,-34.101 2.906,-1.219 3.0672,4.639 3.857,6.394 6.1799,35.535 6.979,71.752 9.2389,107.685 7.611,164.131 9.6763,328.457 11.9262,492.73 4.7352,418.984 4.8099,838.001 5.4093,1257.006 0.3529,385.359 0.3261,770.718 0.4248,1156.077 0.4581,-639.721 -0.2673,-1279.446 2.2177,-1919.164 1.4194,-274.2 2.7296,-548.43 9.7819,-822.555 2.6458,-84.51 4.6025,-169.133 12.0948,-253.386 1.8226,-13.069 1.8764,-26.871 7.0475,-39.157 2.8112,-2.919 4.1424,3.678 4.7141,5.496 6.6302,32.079 7.7185,64.994 10.2026,97.581 8.6222,147.614 11.4776,295.49 14.4376,443.304 6.7181,388.44 7.4796,776.95 8.4374,1165.436 0.8561,461.141 0.7842,922.283 0.9214,1383.424 0.6189,-614.313 -0.316,-1228.63 2.6486,-1842.938 1.3848,-212.663 2.4266,-425.358 8.4395,-637.952 1.8737,-48.6 2.5851,-97.356 8.0541,-145.722 1.0439,-3.181 0.2751,-8.95 3.4285,-10.591 4.1643,9.261 3.5727,20.141 4.9998,30.121 6.2154,84.193 7.5309,168.654 9.6528,253.024 5.8878,297.023 6.6711,594.116 7.7395,891.186 1.5444,598.288 1.1562,1196.578 1.4643,1794.867 0.2824,-654.362 -0.3342,-1308.727 1.9283,-1963.087 1.3521,-289.574 2.6055,-579.177 9.5243,-868.684 2.5134,-86.242 4.3349,-172.585 11.349,-258.608 1.6529,-12.277 1.5031,-25.267 6.1975,-36.851 2.8417,-1.682 3.1455,4.572 3.857,6.242 5.9569,35.471 6.6267,71.584 8.7587,107.426 7.1104,165.629 8.8122,331.431 10.8004,497.183 4.1419,430.695 4.0646,861.415 4.5758,1292.124 0.1961,278.767 0.212,557.534 0.293,836.301 0.4477,-457.278 0.1228,-914.556 1.1088,-1371.833 0.9637,-364.936 1.6823,-729.895 8.1048,-1094.785 2.8179,-136.554 5.4447,-273.176 13.8494,-409.525 2.4067,-29.656 3.4489,-59.66 9.9359,-88.782 0.407,-1.993 2.4644,-8.306 4.9999,-4.709 5.7208,14.37 5.907,30.298 7.9514,45.489 8.0186,90.104 10.3571,180.593 13.2731,270.972 7.6794,283.328 9.2176,566.777 10.7591,850.191 2.4443,588.225 2.0135,1176.456 2.231,1764.684 0.023,146.595 0.047,293.191 0.07,439.786 0.2953,-664.9 -0.2252,-1329.802 1.5775,-1994.701 1.1695,-303.591 2.1133,-607.209 8.6525,-910.743 2.6191,-100.611 4.7107,-201.316 12.4218,-301.695 2.0668,-18.128 2.3714,-36.86 8.2044,-54.276 1.3044,-3.844 4.5261,-0.393 4.7141,2.092 6.5074,25.036 7.3952,51.132 9.8568,76.786 8.8462,124.273 11.9775,248.864 15.3323,373.38 8.4368,357.88 10.0906,715.875 11.5435,1073.838 1.9953,634.294 1.4717,1268.592 1.8376,1902.888 0.2796,-630.492 -0.3174,-1260.986 1.8529,-1891.475 1.1313,-226.757 1.8239,-453.538 7.1019,-680.245 1.6483,-49.375 2.0497,-98.892 7.0447,-148.074 0.8109,-2.307 0.1499,-7.626 2.7142,-8.232 4.0552,13.666 3.5809,28.368 4.9144,42.525 5.7154,110.238 6.8028,220.652 8.578,331.006 4.4791,362.417 4.6477,724.869 5.293,1087.307 0.6311,560.705 0.5008,1121.41 0.6426,1682.115 0.2738,-718.254 -0.3789,-1436.511 1.5289,-2154.763 1.2387,-337.216 2.428,-674.459 9.6353,-1011.612 2.8628,-113.938 5.3429,-227.955 13.3372,-341.675 2.1712,-21.695 2.6744,-43.881 8.6405,-64.958 0.3371,-2.79 3.5904,-3.442 4.1427,-0.373 5.8986,19.828 6.3046,40.826 8.4283,61.296 7.9013,110.467 10.2279,221.238 12.9848,331.925 6.8492,326.718 7.875,653.521 9.0473,980.298 1.4947,520.317 1.0599,1040.637 1.5386,1560.955 0.295,-595.617 -0.2474,-1191.236 2.2904,-1786.849 1.4293,-250.415 2.6693,-500.861 9.3628,-751.203 2.3236,-68.816 3.7431,-137.759 10.3461,-206.332 1.4537,-8.036 0.9339,-17.21 5.2856,-24.27 3.4418,1.318 2.8525,7.136 3.9999,10.205 6.1238,43.09 7.1385,86.712 9.3661,130.128 7.3067,187.214 9.1129,374.587 11.0879,561.917 3.8672,454.409 3.7492,908.84 4.187,1363.262 0.1874,262.937 0.082,525.875 0.3582,788.812 0.2925,-609.442 -0.2657,-1218.887 2.2517,-1828.325 1.4752,-270.058 2.8659,-540.147 9.9978,-810.127 2.5811,-79.956 4.4227,-160.027 11.6069,-239.736 1.7221,-11.329 1.4634,-23.555 6.4284,-34.033 3.1288,-1.169 3.2804,4.977 4.1427,6.89 6.3158,35.612 7.1795,71.927 9.4772,107.954 7.6589,161.764 9.7171,323.727 11.974,485.636 4.7223,411.118 4.8354,822.27 5.4365,1233.41 0.3831,413.717 0.3685,827.435 0.54,1241.152 0.2825,-646.093 -0.3245,-1292.188 1.9515,-1938.278 1.3697,-287.749 2.6344,-575.528 9.7193,-863.205 2.6831,-90.564 4.7833,-181.229 12.3285,-271.55 1.912,-14.978 2.0627,-30.619 7.4284,-44.866 0.4198,-0.813 1.4524,-1.74 2.2856,-0.822"
         id="path153" />
      <g
         id="legend1">
        <polygon
           style="stroke: #000000; stroke-width: 1.000000; stroke-linejoin: miter; stroke-linecap: square;  opacity: 1.000000; fill: #ffffff; "
           points="317.414400,92.168640 317.414400,50.112000 509.472000,50.112000 509.472000,92.168640"
           id="polygon223" />
        <path
           style="stroke: #008000; stroke-width: 0.500000; stroke-linejoin: miter; stroke-linecap: square;  opacity: 1.000000; fill: none; "
           d="M 335.219200,58.116720 L 342.659200,58.116720 L 350.099200,58.116720 L 357.539200,58.116720 "
           id="path225" />
        <path
           style="stroke: #ff0000; stroke-width: 0.500000; stroke-linejoin: miter; stroke-linecap: square;  opacity: 1.000000; fill: none; "
           d="M 335.219200,70.590320 L 342.659200,70.590320 L 350.099200,70.590320 L 357.539200,70.590320 "
           id="path227" />
        <path
           style="stroke: #0000ff; stroke-width: 0.500000; stroke-linejoin: miter; stroke-linecap: square;  opacity: 1.000000; fill: none; "
           d="M 335.219200,83.663920 L 342.659200,83.663920 L 350.099200,83.663920 L 357.539200,83.663920 "
           id="path229" />
        <text
           style="font-size: 10.000000; font-family: Bitstream Vera Sans; font-style: Roman; fill: #000000;"
           x="366.467200"
           y="62.616720"
           id="text231">FIR response</text>
        <text
           style="font-size: 10.000000; font-family: Bitstream Vera Sans; font-style: Roman; fill: #000000;"
           x="366.467200"
           y="75.590320"
           id="text233">Analog response</text>
        <text
           style="font-size: 10.000000; font-family: Bitstream Vera Sans; font-style: Roman; fill: #000000;"
           x="366.467200"
           y="88.663920"
           id="text235">Total Frequency Response</text>
      </g>
      <text
         xml:space="preserve"
         style="font-size:15.91441727px;font-style:normal;font-variant:normal;font-weight:normal;font-stretch:normal;text-align:start;line-height:125%;writing-mode:lr-tb;text-anchor:start;fill:#000000;fill-opacity:1;stroke:none;font-family:Bitstream Vera Sans;-inkscape-font-specification:Bitstream Vera Sans"
         x="181.51807"
         y="35.062683"
         id="text3052"
         sodipodi:linespacing="125%"><tspan
           sodipodi:role="line"
           id="tspan3054"
           x="181.51807"
           y="35.062683">Undecimated Aggregate Spectra</tspan></text>
    </g>
  </g>
</svg>
