<?xml version="1.0" encoding="UTF-8" standalone="no"?>
<!-- Created with matplotlib (http://matplotlib.sourceforge.net/) -->

<svg
   xmlns:dc="http://purl.org/dc/elements/1.1/"
   xmlns:cc="http://creativecommons.org/ns#"
   xmlns:rdf="http://www.w3.org/1999/02/22-rdf-syntax-ns#"
   xmlns:svg="http://www.w3.org/2000/svg"
   xmlns="http://www.w3.org/2000/svg"
   xmlns:sodipodi="http://sodipodi.sourceforge.net/DTD/sodipodi-0.dtd"
   xmlns:inkscape="http://www.inkscape.org/namespaces/inkscape"
   version="1.0"
   x="0.0"
   y="0.0"
   width="576"
   height="432"
   id="svg1"
   inkscape:version="0.46+devel r21521"
   sodipodi:docname="soma-1.digital.aggregate.svg"
   inkscape:output_extension="org.inkscape.output.svg.inkscape">
  <metadata
     id="metadata356">
    <rdf:RDF>
      <cc:Work
         rdf:about="">
        <dc:format>image/svg+xml</dc:format>
        <dc:type
           rdf:resource="http://purl.org/dc/dcmitype/StillImage" />
      </cc:Work>
    </rdf:RDF>
  </metadata>
  <defs
     id="defs354">
    <inkscape:perspective
       sodipodi:type="inkscape:persp3d"
       inkscape:vp_x="0 : 216 : 1"
       inkscape:vp_y="0 : 1000 : 0"
       inkscape:vp_z="576 : 216 : 1"
       inkscape:persp3d-origin="288 : 144 : 1"
       id="perspective358" />
  </defs>
  <sodipodi:namedview
     pagecolor="#ffffff"
     bordercolor="#666666"
     borderopacity="1"
     objecttolerance="10"
     gridtolerance="10"
     guidetolerance="10"
     inkscape:pageopacity="0"
     inkscape:pageshadow="2"
     inkscape:window-width="1540"
     inkscape:window-height="1018"
     id="namedview352"
     showgrid="false"
     inkscape:zoom="1.5451593"
     inkscape:cx="230.78749"
     inkscape:cy="281.97402"
     inkscape:window-x="0"
     inkscape:window-y="25"
     inkscape:window-maximized="0"
     inkscape:current-layer="axes1" />
  <g
     id="figure1">
    <polygon
       style="stroke: #ffffff; stroke-width: 1.000000; stroke-linejoin: miter; stroke-linecap: square;  opacity: 1.000000; fill: #ffffff; "
       points="0.000000,432.000000 0.000000,0.000000 576.000000,0.000000 576.000000,432.000000"
       id="polygon4" />
    <g
       id="axes1">
      <polygon
         style="stroke: #000000; stroke-width: 1.000000; stroke-linejoin: miter; stroke-linecap: square;  opacity: 1.000000; fill: #ffffff; "
         points="72.000000,388.800000 72.000000,43.200000 518.400000,43.200000 518.400000,388.800000"
         id="polygon7" />
      <g
         id="matplotlib.axis1">
        <g
           id="xtick1">
          <text
             style="font-size: 12.000000; font-family: Bitstream Vera Sans; font-style: Roman; fill: #000000;"
             x="69.000000"
             y="401.800000"
             id="text11">0</text>
        </g>
        <g
           id="xtick2">
          <defs
             id="defs14">
            <clipPath
               id="789695421804425603">
              <rect
                 x="72.000000"
                 y="43.200000"
                 width="446.400000"
                 height="345.600000"
                 style="stroke: gray; fill: none;"
                 id="rect17" />
            </clipPath>
          </defs>
          <path
             style="stroke: #000000; stroke-width: 0.500000; stroke-linejoin: miter; stroke-linecap: butt; stroke-dasharray: 1.000000 3.000000; stroke-dashoffset: 0.000000; opacity: 1.000000; fill: none; clip-path:url(#789695421804425603);"
             d="M 118.500000,388.800000 L 118.500000,43.200000 "
             id="path19"
             clip-path="url(#789695421804425603)" />
          <path
             style="stroke: #000000; stroke-width: 0.500000; stroke-linejoin: miter; stroke-linecap: butt;  opacity: 1.000000; fill: none; "
             d="M 118.500000,388.800000 L 118.500000,384.800000"
             id="path21" />
          <path
             style="stroke: #000000; stroke-width: 0.500000; stroke-linejoin: miter; stroke-linecap: butt;  opacity: 1.000000; fill: none; "
             d="M 118.500000,388.800000 L 118.500000,384.800000"
             id="path23" />
          <path
             style="stroke: #000000; stroke-width: 0.500000; stroke-linejoin: miter; stroke-linecap: butt;  opacity: 1.000000; fill: none; "
             d="M 118.500000,47.200000 L 118.500000,43.200000"
             id="path25" />
          <path
             style="stroke: #000000; stroke-width: 0.500000; stroke-linejoin: miter; stroke-linecap: butt;  opacity: 1.000000; fill: none; "
             d="M 118.500000,47.200000 L 118.500000,43.200000"
             id="path27" />
          <text
             style="font-size: 12.000000; font-family: Bitstream Vera Sans; font-style: Roman; fill: #000000;"
             x="111.500000"
             y="401.800000"
             id="text29">10</text>
        </g>
        <g
           id="xtick3">
          <path
             style="stroke: #000000; stroke-width: 0.500000; stroke-linejoin: miter; stroke-linecap: butt; stroke-dasharray: 1.000000 3.000000; stroke-dashoffset: 0.000000; opacity: 1.000000; fill: none; clip-path:url(#789695421804425603);"
             d="M 165.000000,388.800000 L 165.000000,43.200000 "
             id="path32"
             clip-path="url(#789695421804425603)" />
          <path
             style="stroke: #000000; stroke-width: 0.500000; stroke-linejoin: miter; stroke-linecap: butt;  opacity: 1.000000; fill: none; "
             d="M 165.000000,388.800000 L 165.000000,384.800000"
             id="path34" />
          <path
             style="stroke: #000000; stroke-width: 0.500000; stroke-linejoin: miter; stroke-linecap: butt;  opacity: 1.000000; fill: none; "
             d="M 165.000000,388.800000 L 165.000000,384.800000"
             id="path36" />
          <path
             style="stroke: #000000; stroke-width: 0.500000; stroke-linejoin: miter; stroke-linecap: butt;  opacity: 1.000000; fill: none; "
             d="M 165.000000,47.200000 L 165.000000,43.200000"
             id="path38" />
          <path
             style="stroke: #000000; stroke-width: 0.500000; stroke-linejoin: miter; stroke-linecap: butt;  opacity: 1.000000; fill: none; "
             d="M 165.000000,47.200000 L 165.000000,43.200000"
             id="path40" />
          <text
             style="font-size: 12.000000; font-family: Bitstream Vera Sans; font-style: Roman; fill: #000000;"
             x="158.000000"
             y="401.800000"
             id="text42">20</text>
        </g>
        <g
           id="xtick4">
          <path
             style="stroke: #000000; stroke-width: 0.500000; stroke-linejoin: miter; stroke-linecap: butt; stroke-dasharray: 1.000000 3.000000; stroke-dashoffset: 0.000000; opacity: 1.000000; fill: none; clip-path:url(#789695421804425603);"
             d="M 211.500000,388.800000 L 211.500000,43.200000 "
             id="path45"
             clip-path="url(#789695421804425603)" />
          <path
             style="stroke: #000000; stroke-width: 0.500000; stroke-linejoin: miter; stroke-linecap: butt;  opacity: 1.000000; fill: none; "
             d="M 211.500000,388.800000 L 211.500000,384.800000"
             id="path47" />
          <path
             style="stroke: #000000; stroke-width: 0.500000; stroke-linejoin: miter; stroke-linecap: butt;  opacity: 1.000000; fill: none; "
             d="M 211.500000,388.800000 L 211.500000,384.800000"
             id="path49" />
          <path
             style="stroke: #000000; stroke-width: 0.500000; stroke-linejoin: miter; stroke-linecap: butt;  opacity: 1.000000; fill: none; "
             d="M 211.500000,47.200000 L 211.500000,43.200000"
             id="path51" />
          <path
             style="stroke: #000000; stroke-width: 0.500000; stroke-linejoin: miter; stroke-linecap: butt;  opacity: 1.000000; fill: none; "
             d="M 211.500000,47.200000 L 211.500000,43.200000"
             id="path53" />
          <text
             style="font-size: 12.000000; font-family: Bitstream Vera Sans; font-style: Roman; fill: #000000;"
             x="204.500000"
             y="401.800000"
             id="text55">30</text>
        </g>
        <g
           id="xtick5">
          <path
             style="stroke: #000000; stroke-width: 0.500000; stroke-linejoin: miter; stroke-linecap: butt; stroke-dasharray: 1.000000 3.000000; stroke-dashoffset: 0.000000; opacity: 1.000000; fill: none; clip-path:url(#789695421804425603);"
             d="M 258.000000,388.800000 L 258.000000,43.200000 "
             id="path58"
             clip-path="url(#789695421804425603)" />
          <path
             style="stroke: #000000; stroke-width: 0.500000; stroke-linejoin: miter; stroke-linecap: butt;  opacity: 1.000000; fill: none; "
             d="M 258.000000,388.800000 L 258.000000,384.800000"
             id="path60" />
          <path
             style="stroke: #000000; stroke-width: 0.500000; stroke-linejoin: miter; stroke-linecap: butt;  opacity: 1.000000; fill: none; "
             d="M 258.000000,388.800000 L 258.000000,384.800000"
             id="path62" />
          <path
             style="stroke: #000000; stroke-width: 0.500000; stroke-linejoin: miter; stroke-linecap: butt;  opacity: 1.000000; fill: none; "
             d="M 258.000000,47.200000 L 258.000000,43.200000"
             id="path64" />
          <path
             style="stroke: #000000; stroke-width: 0.500000; stroke-linejoin: miter; stroke-linecap: butt;  opacity: 1.000000; fill: none; "
             d="M 258.000000,47.200000 L 258.000000,43.200000"
             id="path66" />
          <text
             style="font-size: 12.000000; font-family: Bitstream Vera Sans; font-style: Roman; fill: #000000;"
             x="251.000000"
             y="401.800000"
             id="text68">40</text>
        </g>
        <g
           id="xtick6">
          <path
             style="stroke: #000000; stroke-width: 0.500000; stroke-linejoin: miter; stroke-linecap: butt; stroke-dasharray: 1.000000 3.000000; stroke-dashoffset: 0.000000; opacity: 1.000000; fill: none; clip-path:url(#789695421804425603);"
             d="M 304.500000,388.800000 L 304.500000,43.200000 "
             id="path71"
             clip-path="url(#789695421804425603)" />
          <path
             style="stroke: #000000; stroke-width: 0.500000; stroke-linejoin: miter; stroke-linecap: butt;  opacity: 1.000000; fill: none; "
             d="M 304.500000,388.800000 L 304.500000,384.800000"
             id="path73" />
          <path
             style="stroke: #000000; stroke-width: 0.500000; stroke-linejoin: miter; stroke-linecap: butt;  opacity: 1.000000; fill: none; "
             d="M 304.500000,388.800000 L 304.500000,384.800000"
             id="path75" />
          <path
             style="stroke: #000000; stroke-width: 0.500000; stroke-linejoin: miter; stroke-linecap: butt;  opacity: 1.000000; fill: none; "
             d="M 304.500000,47.200000 L 304.500000,43.200000"
             id="path77" />
          <path
             style="stroke: #000000; stroke-width: 0.500000; stroke-linejoin: miter; stroke-linecap: butt;  opacity: 1.000000; fill: none; "
             d="M 304.500000,47.200000 L 304.500000,43.200000"
             id="path79" />
          <text
             style="font-size: 12.000000; font-family: Bitstream Vera Sans; font-style: Roman; fill: #000000;"
             x="297.500000"
             y="401.800000"
             id="text81">50</text>
        </g>
        <g
           id="xtick7">
          <path
             style="stroke: #000000; stroke-width: 0.500000; stroke-linejoin: miter; stroke-linecap: butt; stroke-dasharray: 1.000000 3.000000; stroke-dashoffset: 0.000000; opacity: 1.000000; fill: none; clip-path:url(#789695421804425603);"
             d="M 351.000000,388.800000 L 351.000000,43.200000 "
             id="path84"
             clip-path="url(#789695421804425603)" />
          <path
             style="stroke: #000000; stroke-width: 0.500000; stroke-linejoin: miter; stroke-linecap: butt;  opacity: 1.000000; fill: none; "
             d="M 351.000000,388.800000 L 351.000000,384.800000"
             id="path86" />
          <path
             style="stroke: #000000; stroke-width: 0.500000; stroke-linejoin: miter; stroke-linecap: butt;  opacity: 1.000000; fill: none; "
             d="M 351.000000,388.800000 L 351.000000,384.800000"
             id="path88" />
          <path
             style="stroke: #000000; stroke-width: 0.500000; stroke-linejoin: miter; stroke-linecap: butt;  opacity: 1.000000; fill: none; "
             d="M 351.000000,47.200000 L 351.000000,43.200000"
             id="path90" />
          <path
             style="stroke: #000000; stroke-width: 0.500000; stroke-linejoin: miter; stroke-linecap: butt;  opacity: 1.000000; fill: none; "
             d="M 351.000000,47.200000 L 351.000000,43.200000"
             id="path92" />
          <text
             style="font-size: 12.000000; font-family: Bitstream Vera Sans; font-style: Roman; fill: #000000;"
             x="344.000000"
             y="401.800000"
             id="text94">60</text>
        </g>
        <g
           id="xtick8">
          <path
             style="stroke: #000000; stroke-width: 0.500000; stroke-linejoin: miter; stroke-linecap: butt; stroke-dasharray: 1.000000 3.000000; stroke-dashoffset: 0.000000; opacity: 1.000000; fill: none; clip-path:url(#789695421804425603);"
             d="M 397.500000,388.800000 L 397.500000,43.200000 "
             id="path97"
             clip-path="url(#789695421804425603)" />
          <path
             style="stroke: #000000; stroke-width: 0.500000; stroke-linejoin: miter; stroke-linecap: butt;  opacity: 1.000000; fill: none; "
             d="M 397.500000,388.800000 L 397.500000,384.800000"
             id="path99" />
          <path
             style="stroke: #000000; stroke-width: 0.500000; stroke-linejoin: miter; stroke-linecap: butt;  opacity: 1.000000; fill: none; "
             d="M 397.500000,388.800000 L 397.500000,384.800000"
             id="path101" />
          <path
             style="stroke: #000000; stroke-width: 0.500000; stroke-linejoin: miter; stroke-linecap: butt;  opacity: 1.000000; fill: none; "
             d="M 397.500000,47.200000 L 397.500000,43.200000"
             id="path103" />
          <path
             style="stroke: #000000; stroke-width: 0.500000; stroke-linejoin: miter; stroke-linecap: butt;  opacity: 1.000000; fill: none; "
             d="M 397.500000,47.200000 L 397.500000,43.200000"
             id="path105" />
          <text
             style="font-size: 12.000000; font-family: Bitstream Vera Sans; font-style: Roman; fill: #000000;"
             x="390.500000"
             y="401.800000"
             id="text107">70</text>
        </g>
        <g
           id="xtick9">
          <path
             style="stroke: #000000; stroke-width: 0.500000; stroke-linejoin: miter; stroke-linecap: butt; stroke-dasharray: 1.000000 3.000000; stroke-dashoffset: 0.000000; opacity: 1.000000; fill: none; clip-path:url(#789695421804425603);"
             d="M 444.000000,388.800000 L 444.000000,43.200000 "
             id="path110"
             clip-path="url(#789695421804425603)" />
          <path
             style="stroke: #000000; stroke-width: 0.500000; stroke-linejoin: miter; stroke-linecap: butt;  opacity: 1.000000; fill: none; "
             d="M 444.000000,388.800000 L 444.000000,384.800000"
             id="path112" />
          <path
             style="stroke: #000000; stroke-width: 0.500000; stroke-linejoin: miter; stroke-linecap: butt;  opacity: 1.000000; fill: none; "
             d="M 444.000000,388.800000 L 444.000000,384.800000"
             id="path114" />
          <path
             style="stroke: #000000; stroke-width: 0.500000; stroke-linejoin: miter; stroke-linecap: butt;  opacity: 1.000000; fill: none; "
             d="M 444.000000,47.200000 L 444.000000,43.200000"
             id="path116" />
          <path
             style="stroke: #000000; stroke-width: 0.500000; stroke-linejoin: miter; stroke-linecap: butt;  opacity: 1.000000; fill: none; "
             d="M 444.000000,47.200000 L 444.000000,43.200000"
             id="path118" />
          <text
             style="font-size: 12.000000; font-family: Bitstream Vera Sans; font-style: Roman; fill: #000000;"
             x="437.000000"
             y="401.800000"
             id="text120">80</text>
        </g>
        <g
           id="xtick10">
          <path
             style="stroke: #000000; stroke-width: 0.500000; stroke-linejoin: miter; stroke-linecap: butt; stroke-dasharray: 1.000000 3.000000; stroke-dashoffset: 0.000000; opacity: 1.000000; fill: none; clip-path:url(#789695421804425603);"
             d="M 490.500000,388.800000 L 490.500000,43.200000 "
             id="path123"
             clip-path="url(#789695421804425603)" />
          <path
             style="stroke: #000000; stroke-width: 0.500000; stroke-linejoin: miter; stroke-linecap: butt;  opacity: 1.000000; fill: none; "
             d="M 490.500000,388.800000 L 490.500000,384.800000"
             id="path125" />
          <path
             style="stroke: #000000; stroke-width: 0.500000; stroke-linejoin: miter; stroke-linecap: butt;  opacity: 1.000000; fill: none; "
             d="M 490.500000,388.800000 L 490.500000,384.800000"
             id="path127" />
          <path
             style="stroke: #000000; stroke-width: 0.500000; stroke-linejoin: miter; stroke-linecap: butt;  opacity: 1.000000; fill: none; "
             d="M 490.500000,47.200000 L 490.500000,43.200000"
             id="path129" />
          <path
             style="stroke: #000000; stroke-width: 0.500000; stroke-linejoin: miter; stroke-linecap: butt;  opacity: 1.000000; fill: none; "
             d="M 490.500000,47.200000 L 490.500000,43.200000"
             id="path131" />
          <text
             style="font-size: 12.000000; font-family: Bitstream Vera Sans; font-style: Roman; fill: #000000;"
             x="483.500000"
             y="401.800000"
             id="text133">90</text>
        </g>
        <text
           style="font-size: 12.000000; font-family: Bitstream Vera Sans; font-style: Roman; fill: #000000;"
           x="245.700000"
           y="419.800000"
           id="text135">Frequency (kHz)</text>
      </g>
      <g
         id="matplotlib.axis2">
        <g
           id="ytick1">
          <text
             style="font-size: 12.000000; font-family: Bitstream Vera Sans; font-style: Roman; fill: #000000;"
             x="42.000000"
             y="393.300000"
             id="text139">-180</text>
        </g>
        <g
           id="ytick2">
          <path
             style="stroke: #000000; stroke-width: 0.500000; stroke-linejoin: miter; stroke-linecap: butt; stroke-dasharray: 1.000000 3.000000; stroke-dashoffset: 0.000000; opacity: 1.000000; fill: none; clip-path:url(#789695421804425603);"
             d="M 72.000000,352.421053 L 518.400000,352.421053 "
             id="path142"
             clip-path="url(#789695421804425603)" />
          <path
             style="stroke: #000000; stroke-width: 0.500000; stroke-linejoin: miter; stroke-linecap: butt;  opacity: 1.000000; fill: none; "
             d="M 72.000000,352.421053 L 76.000000,352.421053"
             id="path144" />
          <path
             style="stroke: #000000; stroke-width: 0.500000; stroke-linejoin: miter; stroke-linecap: butt;  opacity: 1.000000; fill: none; "
             d="M 72.000000,352.421053 L 76.000000,352.421053"
             id="path146" />
          <path
             style="stroke: #000000; stroke-width: 0.500000; stroke-linejoin: miter; stroke-linecap: butt;  opacity: 1.000000; fill: none; "
             d="M 514.400000,352.421053 L 518.400000,352.421053"
             id="path148" />
          <path
             style="stroke: #000000; stroke-width: 0.500000; stroke-linejoin: miter; stroke-linecap: butt;  opacity: 1.000000; fill: none; "
             d="M 514.400000,352.421053 L 518.400000,352.421053"
             id="path150" />
          <text
             style="font-size: 12.000000; font-family: Bitstream Vera Sans; font-style: Roman; fill: #000000;"
             x="42.000000"
             y="356.921053"
             id="text152">-160</text>
        </g>
        <g
           id="ytick3">
          <path
             style="stroke: #000000; stroke-width: 0.500000; stroke-linejoin: miter; stroke-linecap: butt; stroke-dasharray: 1.000000 3.000000; stroke-dashoffset: 0.000000; opacity: 1.000000; fill: none; clip-path:url(#789695421804425603);"
             d="M 72.000000,316.042105 L 518.400000,316.042105 "
             id="path155"
             clip-path="url(#789695421804425603)" />
          <path
             style="stroke: #000000; stroke-width: 0.500000; stroke-linejoin: miter; stroke-linecap: butt;  opacity: 1.000000; fill: none; "
             d="M 72.000000,316.042105 L 76.000000,316.042105"
             id="path157" />
          <path
             style="stroke: #000000; stroke-width: 0.500000; stroke-linejoin: miter; stroke-linecap: butt;  opacity: 1.000000; fill: none; "
             d="M 72.000000,316.042105 L 76.000000,316.042105"
             id="path159" />
          <path
             style="stroke: #000000; stroke-width: 0.500000; stroke-linejoin: miter; stroke-linecap: butt;  opacity: 1.000000; fill: none; "
             d="M 514.400000,316.042105 L 518.400000,316.042105"
             id="path161" />
          <path
             style="stroke: #000000; stroke-width: 0.500000; stroke-linejoin: miter; stroke-linecap: butt;  opacity: 1.000000; fill: none; "
             d="M 514.400000,316.042105 L 518.400000,316.042105"
             id="path163" />
          <text
             style="font-size: 12.000000; font-family: Bitstream Vera Sans; font-style: Roman; fill: #000000;"
             x="42.000000"
             y="320.542105"
             id="text165">-140</text>
        </g>
        <g
           id="ytick4">
          <path
             style="stroke: #000000; stroke-width: 0.500000; stroke-linejoin: miter; stroke-linecap: butt; stroke-dasharray: 1.000000 3.000000; stroke-dashoffset: 0.000000; opacity: 1.000000; fill: none; clip-path:url(#789695421804425603);"
             d="M 72.000000,279.663158 L 518.400000,279.663158 "
             id="path168"
             clip-path="url(#789695421804425603)" />
          <path
             style="stroke: #000000; stroke-width: 0.500000; stroke-linejoin: miter; stroke-linecap: butt;  opacity: 1.000000; fill: none; "
             d="M 72.000000,279.663158 L 76.000000,279.663158"
             id="path170" />
          <path
             style="stroke: #000000; stroke-width: 0.500000; stroke-linejoin: miter; stroke-linecap: butt;  opacity: 1.000000; fill: none; "
             d="M 72.000000,279.663158 L 76.000000,279.663158"
             id="path172" />
          <path
             style="stroke: #000000; stroke-width: 0.500000; stroke-linejoin: miter; stroke-linecap: butt;  opacity: 1.000000; fill: none; "
             d="M 514.400000,279.663158 L 518.400000,279.663158"
             id="path174" />
          <path
             style="stroke: #000000; stroke-width: 0.500000; stroke-linejoin: miter; stroke-linecap: butt;  opacity: 1.000000; fill: none; "
             d="M 514.400000,279.663158 L 518.400000,279.663158"
             id="path176" />
          <text
             style="font-size: 12.000000; font-family: Bitstream Vera Sans; font-style: Roman; fill: #000000;"
             x="42.000000"
             y="284.163158"
             id="text178">-120</text>
        </g>
        <g
           id="ytick5">
          <path
             style="stroke: #000000; stroke-width: 0.500000; stroke-linejoin: miter; stroke-linecap: butt; stroke-dasharray: 1.000000 3.000000; stroke-dashoffset: 0.000000; opacity: 1.000000; fill: none; clip-path:url(#789695421804425603);"
             d="M 72.000000,243.284211 L 518.400000,243.284211 "
             id="path181"
             clip-path="url(#789695421804425603)" />
          <path
             style="stroke: #000000; stroke-width: 0.500000; stroke-linejoin: miter; stroke-linecap: butt;  opacity: 1.000000; fill: none; "
             d="M 72.000000,243.284211 L 76.000000,243.284211"
             id="path183" />
          <path
             style="stroke: #000000; stroke-width: 0.500000; stroke-linejoin: miter; stroke-linecap: butt;  opacity: 1.000000; fill: none; "
             d="M 72.000000,243.284211 L 76.000000,243.284211"
             id="path185" />
          <path
             style="stroke: #000000; stroke-width: 0.500000; stroke-linejoin: miter; stroke-linecap: butt;  opacity: 1.000000; fill: none; "
             d="M 514.400000,243.284211 L 518.400000,243.284211"
             id="path187" />
          <path
             style="stroke: #000000; stroke-width: 0.500000; stroke-linejoin: miter; stroke-linecap: butt;  opacity: 1.000000; fill: none; "
             d="M 514.400000,243.284211 L 518.400000,243.284211"
             id="path189" />
          <text
             style="font-size: 12.000000; font-family: Bitstream Vera Sans; font-style: Roman; fill: #000000;"
             x="42.000000"
             y="247.784211"
             id="text191">-100</text>
        </g>
        <g
           id="ytick6">
          <path
             style="stroke: #000000; stroke-width: 0.500000; stroke-linejoin: miter; stroke-linecap: butt; stroke-dasharray: 1.000000 3.000000; stroke-dashoffset: 0.000000; opacity: 1.000000; fill: none; clip-path:url(#789695421804425603);"
             d="M 72.000000,206.905263 L 518.400000,206.905263 "
             id="path194"
             clip-path="url(#789695421804425603)" />
          <path
             style="stroke: #000000; stroke-width: 0.500000; stroke-linejoin: miter; stroke-linecap: butt;  opacity: 1.000000; fill: none; "
             d="M 72.000000,206.905263 L 76.000000,206.905263"
             id="path196" />
          <path
             style="stroke: #000000; stroke-width: 0.500000; stroke-linejoin: miter; stroke-linecap: butt;  opacity: 1.000000; fill: none; "
             d="M 72.000000,206.905263 L 76.000000,206.905263"
             id="path198" />
          <path
             style="stroke: #000000; stroke-width: 0.500000; stroke-linejoin: miter; stroke-linecap: butt;  opacity: 1.000000; fill: none; "
             d="M 514.400000,206.905263 L 518.400000,206.905263"
             id="path200" />
          <path
             style="stroke: #000000; stroke-width: 0.500000; stroke-linejoin: miter; stroke-linecap: butt;  opacity: 1.000000; fill: none; "
             d="M 514.400000,206.905263 L 518.400000,206.905263"
             id="path202" />
          <text
             style="font-size: 12.000000; font-family: Bitstream Vera Sans; font-style: Roman; fill: #000000;"
             x="50.000000"
             y="211.405263"
             id="text204">-80</text>
        </g>
        <g
           id="ytick7">
          <path
             style="stroke: #000000; stroke-width: 0.500000; stroke-linejoin: miter; stroke-linecap: butt; stroke-dasharray: 1.000000 3.000000; stroke-dashoffset: 0.000000; opacity: 1.000000; fill: none; clip-path:url(#789695421804425603);"
             d="M 72.000000,170.526316 L 518.400000,170.526316 "
             id="path207"
             clip-path="url(#789695421804425603)" />
          <path
             style="stroke: #000000; stroke-width: 0.500000; stroke-linejoin: miter; stroke-linecap: butt;  opacity: 1.000000; fill: none; "
             d="M 72.000000,170.526316 L 76.000000,170.526316"
             id="path209" />
          <path
             style="stroke: #000000; stroke-width: 0.500000; stroke-linejoin: miter; stroke-linecap: butt;  opacity: 1.000000; fill: none; "
             d="M 72.000000,170.526316 L 76.000000,170.526316"
             id="path211" />
          <path
             style="stroke: #000000; stroke-width: 0.500000; stroke-linejoin: miter; stroke-linecap: butt;  opacity: 1.000000; fill: none; "
             d="M 514.400000,170.526316 L 518.400000,170.526316"
             id="path213" />
          <path
             style="stroke: #000000; stroke-width: 0.500000; stroke-linejoin: miter; stroke-linecap: butt;  opacity: 1.000000; fill: none; "
             d="M 514.400000,170.526316 L 518.400000,170.526316"
             id="path215" />
          <text
             style="font-size: 12.000000; font-family: Bitstream Vera Sans; font-style: Roman; fill: #000000;"
             x="50.000000"
             y="175.026316"
             id="text217">-60</text>
        </g>
        <g
           id="ytick8">
          <path
             style="stroke: #000000; stroke-width: 0.500000; stroke-linejoin: miter; stroke-linecap: butt; stroke-dasharray: 1.000000 3.000000; stroke-dashoffset: 0.000000; opacity: 1.000000; fill: none; clip-path:url(#789695421804425603);"
             d="M 72.000000,134.147368 L 518.400000,134.147368 "
             id="path220"
             clip-path="url(#789695421804425603)" />
          <path
             style="stroke: #000000; stroke-width: 0.500000; stroke-linejoin: miter; stroke-linecap: butt;  opacity: 1.000000; fill: none; "
             d="M 72.000000,134.147368 L 76.000000,134.147368"
             id="path222" />
          <path
             style="stroke: #000000; stroke-width: 0.500000; stroke-linejoin: miter; stroke-linecap: butt;  opacity: 1.000000; fill: none; "
             d="M 72.000000,134.147368 L 76.000000,134.147368"
             id="path224" />
          <path
             style="stroke: #000000; stroke-width: 0.500000; stroke-linejoin: miter; stroke-linecap: butt;  opacity: 1.000000; fill: none; "
             d="M 514.400000,134.147368 L 518.400000,134.147368"
             id="path226" />
          <path
             style="stroke: #000000; stroke-width: 0.500000; stroke-linejoin: miter; stroke-linecap: butt;  opacity: 1.000000; fill: none; "
             d="M 514.400000,134.147368 L 518.400000,134.147368"
             id="path228" />
          <text
             style="font-size: 12.000000; font-family: Bitstream Vera Sans; font-style: Roman; fill: #000000;"
             x="50.000000"
             y="138.647368"
             id="text230">-40</text>
        </g>
        <g
           id="ytick9">
          <path
             style="stroke: #000000; stroke-width: 0.500000; stroke-linejoin: miter; stroke-linecap: butt; stroke-dasharray: 1.000000 3.000000; stroke-dashoffset: 0.000000; opacity: 1.000000; fill: none; clip-path:url(#789695421804425603);"
             d="M 72.000000,97.768421 L 518.400000,97.768421 "
             id="path233"
             clip-path="url(#789695421804425603)" />
          <path
             style="stroke: #000000; stroke-width: 0.500000; stroke-linejoin: miter; stroke-linecap: butt;  opacity: 1.000000; fill: none; "
             d="M 72.000000,97.768421 L 76.000000,97.768421"
             id="path235" />
          <path
             style="stroke: #000000; stroke-width: 0.500000; stroke-linejoin: miter; stroke-linecap: butt;  opacity: 1.000000; fill: none; "
             d="M 72.000000,97.768421 L 76.000000,97.768421"
             id="path237" />
          <path
             style="stroke: #000000; stroke-width: 0.500000; stroke-linejoin: miter; stroke-linecap: butt;  opacity: 1.000000; fill: none; "
             d="M 514.400000,97.768421 L 518.400000,97.768421"
             id="path239" />
          <path
             style="stroke: #000000; stroke-width: 0.500000; stroke-linejoin: miter; stroke-linecap: butt;  opacity: 1.000000; fill: none; "
             d="M 514.400000,97.768421 L 518.400000,97.768421"
             id="path241" />
          <text
             style="font-size: 12.000000; font-family: Bitstream Vera Sans; font-style: Roman; fill: #000000;"
             x="50.000000"
             y="102.268421"
             id="text243">-20</text>
        </g>
        <g
           id="ytick10">
          <path
             style="stroke: #000000; stroke-width: 0.500000; stroke-linejoin: miter; stroke-linecap: butt; stroke-dasharray: 1.000000 3.000000; stroke-dashoffset: 0.000000; opacity: 1.000000; fill: none; clip-path:url(#789695421804425603);"
             d="M 72.000000,61.389474 L 518.400000,61.389474 "
             id="path246"
             clip-path="url(#789695421804425603)" />
          <path
             style="stroke: #000000; stroke-width: 0.500000; stroke-linejoin: miter; stroke-linecap: butt;  opacity: 1.000000; fill: none; "
             d="M 72.000000,61.389474 L 76.000000,61.389474"
             id="path248" />
          <path
             style="stroke: #000000; stroke-width: 0.500000; stroke-linejoin: miter; stroke-linecap: butt;  opacity: 1.000000; fill: none; "
             d="M 72.000000,61.389474 L 76.000000,61.389474"
             id="path250" />
          <path
             style="stroke: #000000; stroke-width: 0.500000; stroke-linejoin: miter; stroke-linecap: butt;  opacity: 1.000000; fill: none; "
             d="M 514.400000,61.389474 L 518.400000,61.389474"
             id="path252" />
          <path
             style="stroke: #000000; stroke-width: 0.500000; stroke-linejoin: miter; stroke-linecap: butt;  opacity: 1.000000; fill: none; "
             d="M 514.400000,61.389474 L 518.400000,61.389474"
             id="path254" />
          <text
             style="font-size: 12.000000; font-family: Bitstream Vera Sans; font-style: Roman; fill: #000000;"
             x="62.000000"
             y="65.889474"
             id="text256">0</text>
        </g>
        <text
           style="font-size: 12.000000; font-family: Bitstream Vera Sans; font-style: Roman; fill: #000000;"
           x="37.000000"
           y="263.500000"
           transform="translate(37.000000,263.500000) rotate(-90.0) translate(-37.000000,-263.500000)"
           id="text258">Magnitude (dB)</text>
      </g>
      <path
         style="fill:none;stroke:#008000;stroke-width:0.5;stroke-linecap:square;stroke-linejoin:miter"
         clip-path="url(#789695421804425603)"
         d="m 72,61.453723 c 7.097875,-0.25969 14.195162,0.126038 21.29328,-0.123724 6.51814,0.256224 13.03642,-0.125443 19.55468,0.111484 3.8498,-0.310407 8.38158,-0.402257 10.9813,3.026646 5.68466,7.209429 7.4025,16.611422 9.6254,25.29436 7.63418,36.657151 9.67773,74.209061 11.622,111.511611 2.64285,62.46379 1.88671,125.00385 2.0711,187.50561 0.0343,-20.08964 -0.0464,-40.18039 0.0745,-60.26932 0.0806,10.62766 0.0424,21.25595 0.0745,31.88386 0.44325,-36.19084 -0.83544,-72.47131 1.3857,-108.61036 0.3968,-2.90987 1.09955,1.08994 1.0132,1.97836 2.01225,42.65547 0.60617,85.40362 1.0579,128.09335 0.4797,-42.35891 -0.9968,-84.7822 1.0728,-127.10424 -0.005,-0.70879 0.51104,-5.61746 1.3559,-2.9493 2.89245,22.90635 1.37426,46.15781 1.94553,69.1876 0.0149,11.07637 0.0132,22.15276 0.0213,33.22914 0.53019,-30.40009 -1.02284,-60.91634 1.2814,-91.25474 -0.13424,-1.57407 1.11999,-2.48122 1.2069,-0.41967 3.07719,25.80145 1.61856,51.93568 2.17643,77.86045 0.009,6.68986 0.005,13.37975 0.0288,20.06958 0.37377,-22.07731 -0.68448,-44.60455 0.8344,-66.46695 1.32271,22.80705 0.43528,45.73646 0.7599,68.58596 0.57754,-34.93426 -1.19878,-70.04831 2.2797,-104.8712 0.52141,-1.37088 0.11665,-4.70538 1.7731,-5.0082 2.53453,7.21941 1.59346,15.30903 2.2946,22.84064 0.62146,26.52735 0.36187,53.06536 0.447,79.59759 0.57228,-32.2228 -1.14279,-64.578 1.5496,-96.72695 0.0617,-0.80421 0.67661,-5.59812 1.8029,-3.13487 2.98042,16.18245 1.65079,32.87053 2.2797,49.23579 0.0817,16.47303 0.0684,32.94633 0.0894,49.4195 0.56379,-30.36148 -1.11647,-60.86169 1.5049,-91.14791 -0.18999,-1.63166 1.31835,-4.15526 1.5943,-1.14266 2.78612,24.41409 1.12413,49.13068 1.71277,73.65035 0.006,7.4564 0.0103,14.91281 0.0156,22.36921 0.58562,-33.03253 -1.19932,-66.20821 1.6837,-99.15994 0.50556,-1.31232 0.0816,-4.76536 1.7731,-4.92478 2.59159,7.01077 1.7687,14.91535 2.4883,22.26328 0.75998,25.68109 0.47008,51.3785 0.5662,77.06719 0.57668,-28.99437 -1.08431,-58.13154 1.4751,-87.04986 -0.13735,-1.63996 1.23527,-2.92806 1.3261,-0.5513 2.58969,26.21481 0.91441,52.6819 1.5198,78.98283 0.62566,-30.12507 -1.2345,-60.45223 2.1009,-90.46074 0.52917,-1.40185 0.19882,-4.46679 1.9221,-4.86178 2.51719,4.93471 1.82643,11.01333 2.5628,16.39324 1.40504,31.82723 0.6786,63.70314 0.9089,95.55065 0.55336,-33.07748 -1.12859,-66.27476 1.4453,-99.2858 0.41374,-1.03712 0.0651,-4.1394 1.5049,-4.07631 2.62015,8.12883 1.70542,17.0694 2.4138,25.49548 0.57813,25.93176 0.34764,51.87286 0.4321,77.80895 0.56005,-31.03158 -1.11093,-62.19481 1.4602,-93.15526 -0.0985,-0.93812 0.88764,-4.25147 1.4453,-1.74368 2.77512,21.07887 1.17862,42.51274 1.77562,63.7142 0.0132,10.08743 0.0194,20.17486 0.0273,30.26229 0.58342,-32.67136 -1.19639,-65.49005 1.7284,-98.07746 0.49204,-1.30958 0.0866,-4.50956 1.6837,-4.7973 2.54194,7.31299 1.53564,15.50374 2.235,23.12455 0.53196,24.82735 0.32197,49.66296 0.4023,74.49415 0.59716,-32.51541 -1.21755,-65.1838 1.7582,-97.61264 0.5626,-1.65615 0.11469,-4.8956 1.9221,-5.63897 2.45429,4.72471 1.76243,10.60452 2.4883,15.77396 1.30545,27.54279 0.71975,55.13253 0.9238,82.69565 0.57094,-28.94973 -1.11291,-58.04993 1.5645,-86.91822 -0.0699,-0.88858 0.88858,-4.30281 1.5645,-1.90167 2.87981,18.19518 1.39781,36.82018 2.00296,55.16761 0.037,10.32612 0.0172,20.65235 0.0532,30.97845 0.59826,-29.18522 -1.1772,-58.54806 1.8327,-87.63341 0.17226,-0.73304 0.55903,-4.83545 1.7731,-3.06898 2.89397,13.22411 1.55882,27.0514 2.2499,40.48104 0.13636,18.1103 0.10438,36.22128 0.1341,54.33194 0.60061,-31.51735 -1.2091,-63.19463 1.7731,-94.62211 0.506,-1.29178 0.12683,-4.71755 1.8327,-4.82457 2.61757,6.88617 1.71318,14.70854 2.4287,21.93976 0.77537,31.32138 0.38203,62.65745 0.5066,93.98522 0.56198,-36.57741 -1.17065,-73.26484 1.4751,-109.77995 0.57582,-1.98007 0.0436,-5.32518 1.8625,-6.54603 2.3788,4.64367 1.60688,10.45805 2.3095,15.53346 1.35175,37.53675 0.53515,75.11377 0.7897,112.66674 0.53106,-39.98803 -1.12456,-80.06254 1.3261,-120.00056 0.62263,-2.44281 0.007,-6.14448 1.9817,-7.8881 2.29277,3.83763 1.61033,8.96013 2.3095,13.27912 1.46028,27.68052 0.77519,55.42067 1.0132,83.12634 0.584,-29.25659 -1.14852,-58.6721 1.6539,-87.84134 0.15494,-0.69751 0.51701,-4.58259 1.6837,-2.90064 2.95753,13.02251 1.67656,26.67775 2.384,39.91868 0.16008,17.97455 0.12778,35.95006 0.149,53.92512 0.60186,-29.6224 -1.15236,-59.4038 1.6837,-88.93782 0.0848,-0.72229 0.6394,-4.74252 1.6837,-2.71978 2.87653,14.78033 1.5231,30.08978 2.16708,45.05523 0.0976,17.96449 0.0772,35.92933 0.0977,53.89401 0.58626,-32.75528 -1.20076,-65.65499 1.6837,-98.32863 2.6139,-13.99342 4.44389,11.75517 3.9336,14.29035 1.00151,46.31662 0.31934,92.65239 0.5364,138.97667 0.48,-50.17875 -1.02532,-100.40849 1.0728,-150.55646 0.72907,-4.41361 0.0669,-9.64771 2.5032,-13.54367 2.00212,1.06085 1.54242,4.53247 2.1754,6.49972 3.23277,32.79392 1.35116,65.86057 1.95722,98.75456 0.003,12.62761 0.006,25.25522 0.01,37.88283 0.49725,-41.25794 -1.03548,-82.58633 1.1324,-123.80399 0.458,-1.41567 -0.0702,-4.61813 1.3857,-5.18191 2.50625,9.29114 1.33724,19.30836 2.0264,28.83566 0.29788,23.13496 0.19246,46.27265 0.2384,69.40891 0.59343,-33.67727 -1.23009,-67.50089 1.7433,-101.0944 0.58873,-1.77404 0.0981,-5.18173 1.9817,-6.02779 2.45744,4.74185 1.76221,10.63793 2.4883,15.8239 1.31957,28.35656 0.71625,56.7603 0.9089,85.13707 0.58813,-29.73496 -1.1228,-59.61623 1.5496,-89.27197 -0.10977,-1.02275 0.98978,-4.37756 1.5645,-1.75653 2.82282,20.26536 1.22941,40.90831 1.83596,61.30442 0.0232,14.69857 0.0166,29.39717 0.0265,44.09576 0.58913,-36.47811 -1.23274,-73.08345 1.6688,-109.48803 0.66397,-2.46186 0.12348,-6.19031 2.2201,-7.89244 2.29824,3.06003 1.7014,7.61422 2.4138,11.25044 1.9184,27.82032 1.01424,55.74554 1.3112,83.60872 0.62208,-27.60452 -1.12558,-55.38005 1.6688,-82.89282 -0.0643,-0.91985 0.94692,-4.25695 1.6837,-1.90497 3.03823,16.23702 1.69673,32.9936 2.3393,49.41772 0.10483,21.64579 0.0695,43.29193 0.0894,64.9379 0.54008,-35.0154 -1.10952,-70.13634 1.3559,-105.09313 0.21455,-0.62633 0.25377,-4.54602 1.3559,-3.23821 2.63014,15.90626 1.1764,32.25914 1.788,48.31569 0.0438,13.4746 0.0414,26.94928 0.0596,40.42393 0.61299,-32.85207 -1.26623,-65.87862 1.9966,-98.62859 0.61312,-1.95125 0.18457,-5.26366 2.1009,-6.38443 2.38486,3.78915 1.69793,8.92408 2.4138,13.22532 1.44488,26.02196 0.81951,52.10597 1.0281,78.15441 0.63256,-27.7675 -1.14371,-55.7154 1.7582,-83.38529 -0.0856,-1.00622 1.04111,-4.34056 1.6837,-1.80424 2.86329,18.15676 1.33641,36.74118 1.9519,55.04736 0.0396,16.29225 0.0334,32.58457 0.0447,48.87686 0.59883,-36.05971 -1.26452,-72.25643 1.7433,-108.23684 0.69311,-2.70385 0.19973,-6.54945 2.3989,-8.52107 2.2474,2.22179 1.72549,6.23393 2.4287,9.15491 2.86375,37.54294 1.04011,75.27562 1.62092,112.8882 0.002,10.57706 0.004,11.12647 0.006,0.23198 0.53961,-35.74267 -1.12392,-71.58866 1.36779,-107.27345 0.49916,-1.48059 0.008,-4.63909 1.6241,-5.23993 2.47605,6.37929 1.59894,13.69882 2.2946,20.41891 0.6822,23.82873 0.43515,47.67164 0.5215,71.50703 0.62964,-29.96775 -1.19631,-60.11016 1.8476,-89.97987 0.17195,-1.0308 0.79825,-6.69623 2.4734,-4.10535 3.23927,12.01689 2.36385,24.76762 3.0992,37.08175 0.41702,24.67945 0.26749,49.36391 0.3278,74.04575 0.53799,-30.00929 -1.05331,-60.14187 1.3261,-90.08596 -0.13379,-1.12165 0.95139,-3.08335 1.2069,-0.91873 2.67623,23.28598 1.05729,46.87491 1.64059,70.26447 0.004,9.29642 0.009,18.59284 0.0133,27.88926 0.58522,-34.47158 -1.20044,-69.0778 1.6837,-103.47214 0.57499,-1.72891 0.0624,-5.16429 1.8923,-5.9599 2.46739,5.46867 1.69881,11.9815 2.4138,17.84303 0.99457,25.75739 0.59864,51.54335 0.7301,77.31362 0.59893,-28.41668 -1.11519,-56.99176 1.5943,-85.32287 -0.11254,-1.02721 0.9871,-3.55633 1.3857,-1.25652 2.71762,21.0113 1.11504,42.36753 1.71452,63.49636 0.005,3.99814 0.0124,20.77293 0.0297,17.50934 0.6236,-30.03397 -1.2323,-60.26773 2.07021,-90.18697 2.90091,-13.06685 4.55774,11.77496 4.1273,14.16394 0.82059,26.57508 0.46576,53.16912 0.5811,79.75269 0.60695,-32.33201 -1.22082,-64.81973 1.788,-97.06225 0.56076,-1.65171 0.12822,-4.86344 1.9221,-5.61044 2.44571,4.81537 1.67584,10.78165 2.384,16.02851 1.10935,27.35707 0.59981,54.74846 0.7748,82.12044 0.59787,-31.36356 -1.20891,-62.88593 1.7582,-94.15998 -0.43169,-4.64251 3.16387,-7.4014 3.2333,-1.16856 3.16234,27.81211 1.36388,55.93962 1.97098,83.86603 0.004,8.5237 0.007,17.0474 0.0107,25.57111 0.56865,-34.90478 -1.16403,-69.92765 1.5049,-104.76605 0.56439,-1.77816 0.047,-5.0963 1.8625,-6.02026 2.4398,4.83493 1.71274,10.80988 2.4287,16.07702 1.49108,41.42361 0.53543,82.89287 0.8344,124.33455 0.51259,-42.90824 -1.0842,-85.88823 1.2069,-128.75468 0.64182,-2.72899 -0.0214,-6.63877 2.0413,-8.70828 2.24705,3.17156 1.68038,7.76282 2.3989,11.48175 2.11415,29.31613 1.14723,58.75181 1.4602,88.11723 0.56254,-25.8773 -0.9983,-51.90243 1.3559,-77.70346 0.74294,-2.59521 1.20482,2.25141 1.2069,2.90313 1.56587,26.90114 0.67355,53.88212 0.9834,80.81391 0.61076,-32.77451 -1.25574,-65.72619 2.0264,-98.39689 0.56812,-1.65592 0.14643,-4.87233 1.9221,-5.62672 2.44099,5.21292 1.59419,11.51941 2.2946,17.13142 0.88079,24.80127 0.51515,49.62562 0.6556,74.43731 0.61079,-30.2172 -1.21701,-60.61245 1.8774,-90.72896 -0.32406,-4.72468 3.16059,-6.3248 3.0843,-0.64523 3.03034,28.54786 1.23827,57.38162 1.84418,86.03176 0.002,11.07923 0.018,-5.96482 0.0228,-9.74898 0.61509,-25.69452 -1.13837,-51.60745 1.99208,-77.17973 -0.21786,-2.36767 2.07297,-4.61374 2.3393,-1.0268 3.22696,21.44108 1.58146,43.31417 2.21145,64.9117 0.0232,7.86183 0.001,15.7238 0.0385,23.58557 0.60574,-28.56814 -1.17804,-57.31753 1.8178,-85.78502 2.46527,-10.74678 4.16245,9.23694 3.874,11.4984 1.18819,26.28979 0.68314,52.62042 0.8493,78.92806 0.61522,-28.87897 -1.15062,-57.92411 1.6986,-86.71214 0.0125,-0.8017 0.79487,-4.70769 1.7135,-2.42278 2.88345,15.73693 1.50037,31.96819 2.12101,47.88106 0.059,12.4038 0.0573,24.80777 0.0693,37.21167 0.64913,-29.21441 -1.20682,-58.62315 1.9817,-87.72752 2.67913,-12.31674 4.70466,9.94994 4.2763,12.54522 1.06442,24.6895 0.63374,49.41321 0.8046,74.11756 0.5989,-27.77524 -1.14441,-55.72831 1.7433,-83.40669 -0.11639,-1.15145 1.16965,-4.71955 1.8327,-1.89575 2.99291,18.60982 1.43403,37.66811 2.06591,56.43534 0.0316,10.70238 0.0229,21.40483 0.0499,32.10722 0.61374,-30.38866 -1.22858,-60.95902 1.9221,-91.24404 0.2219,-1.0147 0.74034,-6.78313 2.4436,-4.31247 3.18967,12.76741 1.95994,26.24689 2.6958,39.27163 0.22621,21.42672 0.15803,42.85508 0.1948,64.28262 0.5779,-31.69636 -1.165,-63.53315 1.5943,-95.15163 0.45642,-1.18599 0.0924,-4.2088 1.6241,-4.38 2.56722,6.89956 1.64754,14.71953 2.3542,21.95317 0.62719,24.0986 0.39722,48.20902 0.4768,72.31318 0.62459,-30.63415 -1.20909,-61.43753 1.8178,-91.97646 2.8225,-13.67017 5.09381,11.05388 4.6339,13.9073 1.12524,25.87132 0.68909,51.779 0.8344,77.6667 0.60864,-27.28937 -1.10689,-54.744 1.5794,-81.94534 -0.14252,-1.46218 1.25006,-3.07584 1.4453,-0.73768 2.81725,22.18264 1.1997,44.70564 1.79283,67.00688 0.009,8.21207 0.017,16.42414 0.025,24.63621 0.59997,-31.70909 -1.2069,-63.57738 1.7731,-95.19718 2.50141,-12.70031 4.09298,10.92895 3.6654,13.23368 0.68898,22.61143 0.44964,45.23813 0.5364,67.85676 0.65742,-29.90297 -1.24207,-60.00797 2.086,-89.79424 0.55763,-1.48439 0.21534,-4.71081 2.0413,-5.13292 2.53107,4.75439 1.81888,10.69813 2.5479,15.91372 1.31076,29.7745 0.65843,59.59415 0.8642,89.38759 0.6019,-32.69932 -1.20645,-65.54305 1.6688,-98.16139 0.58634,-1.72345 0.10632,-5.14796 2.0413,-5.8841 2.51426,4.30656 1.95561,9.86137 2.7267,14.67246 1.91396,30.73738 0.99351,61.56734 1.2963,92.34308 0.53944,-28.35138 -1.04672,-56.83705 1.3559,-85.11751 -0.0401,-2.01364 1.28175,-1.76701 1.2069,0.0975 2.4743,28.57406 0.86514,57.35992 1.40958,86.00784 0.004,10.24378 0.007,12.55309 0.0105,0.96892 0.59876,-32.67424 -1.24846,-65.51697 1.93241,-98.09309 0.58126,-1.77702 0.15341,-4.98617 1.9817,-5.91247 2.40831,4.32767 1.68601,9.88276 2.3989,14.67459 1.24706,25.64762 0.70639,51.34101 0.9089,77.00852 0.6002,-28.29248 -1.15998,-56.76175 1.7582,-84.95717 0.0121,-0.84327 0.84925,-4.81311 1.8029,-2.46331 2.96339,15.49278 1.57905,31.51157 2.21792,47.19201 0.0773,13.74846 0.053,27.49721 0.0916,41.24578 0.60573,-29.52364 -1.19518,-59.22673 1.8625,-88.64937 -0.2564,-4.42684 2.92958,-5.45796 2.8161,-0.40461 2.9522,28.89521 1.15503,58.06185 1.76752,87.05383 0.008,11.71334 0.0104,-6.14983 0.0154,-10.19731 0.60418,-26.68689 -1.15464,-53.58603 2.03151,-80.15112 0.37849,-1.16961 0.2956,-3.13297 1.4751,-3.81716"
         id="path260" />
      <path
         style="fill:none;stroke:#ff0000;stroke-width:0.5;stroke-linecap:square;stroke-linejoin:miter"
         clip-path="url(#789695421804425603)"
         d="m 72,61.389474 c 32.515,0.08349 65.19766,4.14128 96.29086,13.856782 20.62402,6.36689 39.84267,16.478282 58.1845,27.721804 15.63234,9.3843 31.16606,18.94164 46.8605,28.217 12.65305,6.72705 25.20034,13.66439 37.9205,20.258 14.17052,6.59812 28.25522,13.39314 42.4799,19.867 18.36947,7.34878 36.6768,14.86605 55.0853,22.109 25.93623,8.66489 51.8302,17.46984 77.7929,26.047 10.77767,2.89333 21.55533,5.78666 32.333,8.68"
         id="path262" />
      <path
         style="fill:none;stroke:#0000ff;stroke-width:0.5;stroke-linecap:square;stroke-linejoin:miter"
         clip-path="url(#789695421804425603)"
         d="m 72,61.453723 c 7.109314,-0.259254 14.204936,0.334891 21.30816,0.506325 6.528233,0.636195 13.09191,0.831734 19.5845,1.813664 4.05485,0.09106 8.57161,0.852525 10.9813,4.53012 5.85476,8.395528 7.65036,18.817418 9.9532,28.58817 7.86902,40.713398 9.90215,82.294518 11.7114,123.632548 2.04654,58.77401 1.46623,117.59604 1.6092,176.3943 0.0343,-20.08398 -0.0464,-40.16909 0.0745,-60.25237 0.0805,10.63332 0.0424,21.26726 0.0745,31.90083 0.43774,-36.05248 -0.82505,-72.19278 1.3708,-108.19442 0.39029,-2.91929 1.10023,1.06341 1.0132,1.96141 2.03938,42.79175 0.61558,85.67814 1.0728,128.50486 0.47412,-42.22265 -0.98445,-84.50845 1.0579,-126.69494 0.31365,-0.79121 -0.0238,-3.95362 1.0877,-3.63151 2.62813,13.80053 1.47144,28.1181 2.1158,42.09402 0.15706,20.56421 0.11123,41.12923 0.1341,61.69385 0.5277,-30.25845 -1.01623,-60.63238 1.2665,-90.82965 -0.11758,-1.71631 1.16637,-2.2514 1.2069,-0.26133 3.09862,26.39527 1.6405,53.11802 2.19237,79.6353 0.002,3.46716 0.0219,23.2921 0.0286,17.86293 0.38845,-21.55087 -0.70813,-43.92619 0.84844,-65.08972 1.27838,22.87648 0.43713,45.85321 0.745,68.76501 0.57803,-34.61151 -1.19849,-69.40118 2.235,-103.90301 0.50949,-1.33302 0.11549,-4.58552 1.7433,-4.86853 2.5477,7.14172 1.63235,15.1666 2.3393,22.6284 0.66652,26.90963 0.38549,53.83137 0.4768,80.74652 0.56875,-31.98695 -1.1317,-64.10458 1.5198,-96.01902 -0.005,-0.86969 0.78865,-5.52062 1.8029,-2.84939 3.06151,17.21422 1.69144,34.92584 2.32037,52.3208 0.0686,15.74507 0.0591,31.49032 0.0785,47.23549 0.56001,-30.12298 -1.10544,-60.38294 1.4751,-90.43198 -0.11483,-0.99807 0.94084,-4.01258 1.4453,-1.55256 2.85992,20.79335 1.27334,41.96266 1.8774,62.88723 0.0159,11.52118 0.0218,23.04237 0.0298,34.56356 0.58018,-32.71284 -1.18264,-65.56571 1.639,-98.20001 0.48538,-1.29454 0.0768,-4.42694 1.6837,-4.71493 2.5306,6.34271 1.77961,13.62344 2.5032,20.32481 0.94013,26.7849 0.56286,53.59409 0.6854,80.39004 0.57446,-28.73274 -1.07596,-57.60734 1.4453,-86.26503 -0.10927,-1.93999 1.34282,-2.50403 1.341,-0.24033 2.5868,26.46475 0.94204,53.17379 1.5347,79.7228 0.62382,-29.66427 -1.22181,-59.52634 2.0264,-89.07808 -0.24725,-1.96466 1.88147,-7.11307 2.7565,-2.62871 3.44947,19.34845 2.00712,39.22556 2.64629,58.77385 0.0639,17.66924 0.0509,35.33863 0.0655,53.00794 0.54422,-32.73389 -1.10557,-65.5841 1.4006,-98.25379 0.0567,-0.79443 0.63721,-5.53462 1.788,-3.12568 3.07809,15.48695 1.83152,31.52806 2.4883,47.21749 0.12411,19.00053 0.0954,38.0016 0.1192,57.00241 0.55154,-30.68343 -1.08972,-61.49506 1.4155,-92.10958 -0.13967,-1.11045 0.99961,-4.04242 1.4453,-1.45743 2.83396,21.82803 1.22603,44.00782 1.82158,65.95852 0.0127,9.72366 0.0182,19.44732 0.026,29.17098 0.58024,-32.21908 -1.18078,-64.58257 1.6688,-96.72032 0.43345,-1.04144 0.13697,-4.72827 1.7135,-4.33162 2.70922,9.10719 1.6467,18.98868 2.3542,28.37004 0.39539,23.58764 0.25258,47.18001 0.3129,70.7699 0.58873,-32.00843 -1.19101,-64.1645 1.6837,-96.0903 0.53446,-1.43124 0.0988,-4.83496 1.8923,-5.16178 2.578,5.65235 1.90573,12.34809 2.6522,18.41254 1.19571,27.36409 0.68413,54.76709 0.8642,82.14842 0.57169,-28.55467 -1.10696,-57.25961 1.5198,-85.734 -0.14192,-1.15899 1.09406,-3.94497 1.5645,-1.4071 2.97395,19.64872 1.44825,39.7145 2.0562,59.51211 0.0273,9.34287 0.0107,18.68581 0.0447,28.02865 0.58398,-28.64423 -1.14225,-57.45731 1.7433,-86.00742 0.0929,-0.75298 0.67197,-4.80216 1.7731,-2.77462 2.94365,13.76395 1.67029,28.11113 2.3393,42.08141 0.13614,18.13735 0.10447,36.27538 0.1341,54.41308 0.59163,-30.99489 -1.1879,-62.1448 1.6986,-93.05325 -0.34082,-4.4298 2.89424,-6.02953 2.8757,-0.69133 3.14846,28.15207 1.35091,56.6136 1.95502,84.87835 0.004,9.77087 0.008,19.54173 0.0118,29.3126 0.54841,-36.11118 -1.14194,-72.32797 1.4155,-108.37946 0.55664,-1.76394 0.0116,-5.11154 1.8029,-6.02219 2.44656,5.183 1.71377,11.44487 2.4287,17.03658 1.34242,37.69676 0.5409,75.43262 0.7897,113.14524 0.52234,-39.57542 -1.1005,-79.23477 1.2814,-118.76191 2.69817,-19.50503 5.6796,14.10437 4.8127,17.79553 0.6878,24.48762 0.43285,48.98892 0.5364,73.48303 0.57989,-28.80707 -1.13266,-57.77022 1.5943,-86.49255 -0.1221,-1.12988 1.10946,-4.77252 1.8327,-1.97902 3.11291,17.32636 1.74926,35.15378 2.37412,52.66435 0.0643,14.13793 0.0568,28.27604 0.0695,42.41407 0.59811,-29.17001 -1.13703,-58.49623 1.6241,-87.58047 -0.0177,-0.82683 0.82021,-4.59107 1.6837,-2.27087 2.98499,16.10895 1.60093,32.73054 2.24051,49.02173 0.0798,17.1465 0.0656,34.29324 0.0839,51.43987 0.57388,-32.25235 -1.16775,-64.64282 1.6092,-96.81774 0.47626,-1.23542 0.0834,-4.45908 1.6837,-4.613 2.59074,7.07754 1.67526,15.06198 2.384,22.47055 0.88079,45.81643 0.28789,91.64757 0.4768,137.46993 0.47221,-49.83636 -1.00484,-99.72234 1.043,-149.52885 0.7034,-4.05736 0.0211,-8.97588 2.3691,-12.50659 1.97182,1.20197 1.55419,4.58204 2.1903,6.61918 3.4076,32.77637 1.48916,65.85184 2.10566,98.73909 0.003,13.36914 0.007,26.73827 0.0101,40.10741 0.48957,-40.9483 -1.01612,-81.96539 1.1026,-122.87447 0.43421,-1.30363 -0.0686,-4.36383 1.3261,-4.82818 2.50008,9.08981 1.405,18.90408 2.086,28.23605 0.34143,23.79646 0.21642,47.59643 0.2682,71.39455 0.58295,-33.17481 -1.19982,-66.49012 1.6688,-99.58526 2.81537,-15.50351 5.29756,12.10991 4.7233,15.22965 1.01683,27.35114 0.59427,54.73032 0.7301,82.09405 0.58476,-29.36588 -1.10995,-58.87625 1.5049,-88.16464 -0.17493,-1.41305 1.23327,-4.04275 1.5943,-1.24954 2.89644,22.09741 1.24828,44.55321 1.85738,66.7755 0.0139,13.22723 0.0122,26.45448 0.02,39.68172 0.58439,-36.01848 -1.21407,-72.16125 1.6092,-108.10872 0.65721,-2.20079 0.0646,-5.97667 2.1754,-7.28092 2.43502,3.88518 1.846,9.09083 2.5926,13.49808 1.76592,27.74704 0.97977,55.58135 1.2367,83.36503 0.62372,-27.23456 -1.1213,-54.64007 1.6241,-81.78416 -0.13597,-1.16962 1.15272,-3.93106 1.6837,-1.43922 3.13615,17.67699 1.77277,35.8529 2.3989,53.71385 0.0839,20.67698 0.0572,41.35419 0.0745,62.03129 0.52753,-34.67153 -1.08065,-69.44441 1.3112,-104.05975 0.16331,-0.59536 0.31756,-4.56778 1.3559,-3.02941 2.6944,16.61964 1.223,33.68019 1.83605,50.44944 0.0404,13.11537 0.0386,26.23082 0.0563,39.34623 0.6119,-32.34965 -1.25208,-64.87006 1.9221,-97.12126 0.58989,-1.78624 0.16324,-5.04588 2.0413,-5.94644 2.44275,4.08999 1.78523,9.47023 2.5181,14.06055 1.47907,26.33476 0.8484,52.7334 1.0579,79.09556 0.62506,-27.37354 -1.12367,-54.9227 1.6986,-82.20204 -0.12568,-1.15102 1.14896,-4.14461 1.6837,-1.54309 2.94969,18.90997 1.39366,38.25055 2.01394,57.31207 0.0371,15.93022 0.0311,31.86049 0.0423,47.79074 0.59393,-35.62103 -1.24472,-71.37565 1.6837,-106.92015 0.69801,-2.43552 0.12026,-6.35762 2.3691,-7.90531 2.39972,3.07313 1.87497,7.67762 2.6224,11.36413 2.73738,40.8653 0.95362,81.88917 1.5198,122.81329 0.51555,-38.46332 -1.07417,-77.01024 1.2367,-115.42609 0.51762,-1.68738 -0.0361,-4.90053 1.6241,-5.79934 2.43003,5.81725 1.62602,12.62371 2.3244,18.80519 0.83864,24.83736 0.51693,49.69555 0.6258,74.54246 0.62623,-29.56247 -1.18185,-59.29625 1.788,-88.76363 -0.31079,-2.16297 1.97345,-7.03471 2.8161,-2.47528 3.64357,18.98069 2.39434,38.54563 3.04604,57.75649 0.0966,18.00572 0.0774,36.01179 0.0979,54.01769 0.53019,-29.75347 -1.04178,-59.62821 1.2963,-89.31744 -0.14079,-1.29565 1.03076,-2.84043 1.2069,-0.70347 2.7202,23.94221 1.08746,48.18494 1.67091,72.23056 0.004,8.92949 0.009,17.85899 0.0128,26.78848 0.58315,-34.11136 -1.18863,-68.35544 1.639,-102.39137 0.54306,-1.63641 0.0664,-4.82974 1.8029,-5.60018 2.46243,5.22756 1.73355,11.53667 2.4585,17.17525 1.1302,26.46811 0.66775,52.97239 0.8195,79.45658 0.59059,-28.10529 -1.09542,-56.36485 1.5496,-84.38719 -0.15238,-1.45559 1.22757,-3.33537 1.4453,-0.85392 2.75367,23.08985 1.11439,46.49617 1.70469,69.69522 -0.003,5.30117 0.0293,19.41981 0.029,6.44704 0.61894,-27.92369 -1.18295,-56.06009 2.08069,-83.86272 0.39634,-0.92703 0.2958,-4.24356 1.8029,-3.68817 2.70909,7.84925 1.76028,16.56209 2.4734,24.7305 0.55988,24.97076 0.34352,49.95061 0.4172,74.92561 0.59877,-31.9469 -1.1975,-64.04467 1.7284,-95.90551 2.80891,-14.81152 5.09769,11.80964 4.4998,14.70278 0.88381,26.48688 0.50707,52.9956 0.6407,79.49232 0.59754,-31.02542 -1.20062,-62.20812 1.7135,-93.14583 2.59198,-13.47671 4.98088,10.09499 4.4551,12.98527 1.26227,32.33641 0.59969,64.71141 0.8046,97.06398 0.56785,-34.62621 -1.15654,-69.36982 1.4751,-103.93054 0.5403,-1.62164 0.0395,-4.8725 1.8029,-5.59797 2.47627,5.10027 1.77823,11.29934 2.5032,16.82274 1.51387,41.62396 0.54767,83.29445 0.8493,124.93685 0.50371,-42.64369 -1.06292,-85.357 1.1771,-127.96019 0.63022,-2.56903 -0.049,-6.4016 1.9817,-8.2815 2.30725,3.52129 1.74944,8.39234 2.4883,12.43996 2.09098,29.50396 1.16058,59.12297 1.4602,88.67494 0.56657,-25.68278 -1.00245,-51.51614 1.341,-77.12192 0.80802,-2.4229 1.16289,2.52255 1.2069,3.13206 1.58465,27.07883 0.68732,54.23839 0.9983,81.3483 0.60848,-32.38507 -1.24272,-64.94376 1.9668,-97.22817 2.84752,-15.03788 4.97616,12.07971 4.3657,14.92378 0.73691,24.13415 0.44986,48.2845 0.5662,72.42617 0.60293,-29.86029 -1.19549,-59.89328 1.8178,-89.6566 0.48661,-1.24394 0.15914,-4.34083 1.8029,-4.50254 2.58172,5.90286 1.79297,12.83763 2.5181,19.13343 0.91756,25.69826 0.54813,51.42085 0.6705,77.1301 0.61277,-29.84951 -1.17758,-59.86341 1.7433,-89.62083 2.51572,-11.72849 4.39727,9.78703 4.0379,12.2212 1.09817,25.10419 0.64407,50.24398 0.8195,75.36399 0.60343,-28.26466 -1.16808,-56.70818 1.7731,-84.87439 0.35268,-0.84613 0.26235,-4.04797 1.6837,-3.43243 2.73689,7.96516 1.88613,16.78053 2.6075,25.07109 0.60523,23.39021 0.40422,46.79157 0.4768,70.18714 0.61767,-28.62163 -1.14994,-57.40978 1.6688,-85.94117 -0.0209,-0.83356 0.84656,-4.48742 1.6837,-2.18858 2.94562,16.0381 1.55352,32.57888 2.1806,48.79669 0.059,12.41239 0.0574,24.82494 0.0693,37.23742 0.64215,-28.86852 -1.18755,-57.92599 1.9221,-86.68831 0.46347,-1.14293 0.19904,-4.18979 1.8029,-4.18781 2.62192,5.98201 1.86992,12.99574 2.6075,19.37767 0.9436,24.26924 0.58052,48.56541 0.7301,72.84652 0.59216,-27.49411 -1.1277,-55.16194 1.6986,-82.56195 -0.14638,-1.26849 1.24992,-4.57258 1.8327,-1.69915 3.02945,18.89387 1.48109,38.23532 2.1106,57.28754 0.0316,10.70907 0.0229,21.4182 0.0499,32.12728 0.60499,-30.0487 -1.20571,-60.27329 1.8625,-90.22229 0.52301,-1.36873 0.16667,-4.58592 1.9221,-4.8637 2.58213,5.31007 1.8803,11.73275 2.6224,17.47823 1.2491,29.31479 0.65311,58.67044 0.8493,88.0027 0.57644,-31.4534 -1.15722,-63.04611 1.5645,-94.42277 0.37973,-0.9143 0.18816,-4.67714 1.7135,-3.97445 2.7773,9.36051 1.74906,19.49157 2.4585,29.13148 0.38552,21.98686 0.26565,43.97848 0.3129,65.96767 0.61987,-30.34209 -1.19464,-60.85013 1.7731,-91.09946 2.70454,-12.99962 4.98016,10.36386 4.5743,13.17159 1.28296,26.59555 0.76963,53.23751 0.9387,79.85363 0.60474,-27.06989 -1.0963,-54.30303 1.5496,-81.28641 -0.13777,-1.59622 1.30697,-2.86407 1.4453,-0.5749 2.8701,22.78208 1.22565,45.90579 1.82384,68.80731 0.009,7.84609 0.0161,15.69219 0.0238,23.53828 0.59317,-31.4234 -1.18867,-63.00203 1.7284,-94.33882 0.45375,-1.15105 0.11188,-4.2136 1.6241,-4.30996 2.57427,7.54284 1.54751,15.95532 2.2499,23.80259 0.44764,20.8612 0.31945,41.72916 0.3725,62.59371 0.65162,-29.5678 -1.22459,-59.33246 2.0264,-88.78742 0.0229,-1.22767 1.20596,-7.23745 2.682,-3.79994 3.28766,14.61222 1.99074,29.87343 2.6969,44.72259 0.15642,20.1808 0.11126,40.36241 0.1341,60.54362 0.59219,-32.42227 -1.18286,-64.98442 1.6241,-97.32853 0.57174,-1.62176 0.0927,-5.086 2.0115,-5.65432 2.55402,4.6211 2.01845,10.43448 2.8012,15.5438 1.90038,30.86714 1.0014,61.82456 1.2963,92.72938 0.54032,-28.18954 -1.04549,-56.51401 1.341,-84.63268 0.0267,-2.23445 1.33708,-1.32694 1.2218,0.37202 2.48303,29.45295 0.86637,59.1108 1.41078,88.63553 0.004,12.88329 0.007,4.82497 0.0103,-3.45518 0.60233,-31.745 -1.24128,-63.66453 1.93139,-95.30884 0.55221,-1.57948 0.15405,-4.70748 1.9221,-5.37096 2.461,4.68303 1.75049,10.53813 2.4734,15.67019 1.21633,25.65135 0.69933,51.34591 0.894,77.0162 0.5907,-28.03578 -1.13881,-56.24307 1.7135,-84.18497 0.11528,-0.69971 0.60114,-4.42972 1.6837,-2.65879 2.91776,13.10507 1.63764,26.81962 2.3244,40.13644 0.14465,16.46906 0.10387,32.93892 0.149,49.40836 0.59978,-29.254 -1.17943,-58.68342 1.8178,-87.8392 2.5148,-11.49641 4.24484,9.79391 3.8889,12.11748 1.05383,26.93909 0.57978,53.90942 0.745,80.86219 0.59545,-31.09486 -1.20502,-62.34958 1.7582,-93.35404 0.46544,-1.42931 0.22358,-4.39708 1.7582,-5.13182"
         id="path264" />
      <path
         style="stroke: #000000; stroke-width: 0.500000; stroke-linejoin: miter; stroke-linecap: butt; stroke-dasharray: 6.000000 6.000000; stroke-dashoffset: 0.000000; opacity: 1.000000; fill: none; clip-path:url(#789695421804425603);"
         d="M 118.500000,425.178947 L 118.500000,43.200000 "
         id="path266"
         clip-path="url(#789695421804425603)" />
      <path
         style="stroke: #000000; stroke-width: 0.500000; stroke-linejoin: miter; stroke-linecap: butt; stroke-dasharray: 6.000000 6.000000; stroke-dashoffset: 0.000000; opacity: 1.000000; fill: none; clip-path:url(#789695421804425603);"
         d="M 146.400000,425.178947 L 146.400000,43.200000 "
         id="path268"
         clip-path="url(#789695421804425603)" />
      <g
         id="legend1">
        <polygon
           style="stroke: #000000; stroke-width: 1.000000; stroke-linejoin: miter; stroke-linecap: square;  opacity: 1.000000; fill: #ffffff; "
           points="317.414400,92.168640 317.414400,50.112000 509.472000,50.112000 509.472000,92.168640"
           id="polygon338" />
        <path
           style="stroke: #008000; stroke-width: 0.500000; stroke-linejoin: miter; stroke-linecap: square;  opacity: 1.000000; fill: none; "
           d="M 335.219200,58.116720 L 342.659200,58.116720 L 350.099200,58.116720 L 357.539200,58.116720 "
           id="path340" />
        <path
           style="stroke: #ff0000; stroke-width: 0.500000; stroke-linejoin: miter; stroke-linecap: square;  opacity: 1.000000; fill: none; "
           d="M 335.219200,70.590320 L 342.659200,70.590320 L 350.099200,70.590320 L 357.539200,70.590320 "
           id="path342" />
        <path
           style="stroke: #0000ff; stroke-width: 0.500000; stroke-linejoin: miter; stroke-linecap: square;  opacity: 1.000000; fill: none; "
           d="M 335.219200,83.663920 L 342.659200,83.663920 L 350.099200,83.663920 L 357.539200,83.663920 "
           id="path344" />
        <text
           style="font-size: 10.000000; font-family: Bitstream Vera Sans; font-style: Roman; fill: #000000;"
           x="366.467200"
           y="62.616720"
           id="text346">FIR response</text>
        <text
           style="font-size: 10.000000; font-family: Bitstream Vera Sans; font-style: Roman; fill: #000000;"
           x="366.467200"
           y="75.590320"
           id="text348">Analog response</text>
        <text
           style="font-size: 10.000000; font-family: Bitstream Vera Sans; font-style: Roman; fill: #000000;"
           x="366.467200"
           y="88.663920"
           id="text350">Total Frequency Response</text>
      </g>
      <text
         xml:space="preserve"
         style="font-size:15.35521507px;font-style:normal;font-variant:normal;font-weight:normal;font-stretch:normal;text-align:start;line-height:125%;writing-mode:lr-tb;text-anchor:start;fill:#000000;fill-opacity:1;stroke:none;font-family:Bitstream Vera Sans;-inkscape-font-specification:Bitstream Vera Sans"
         x="164.73991"
         y="35.555592"
         id="text3168"
         sodipodi:linespacing="125%"><tspan
           sodipodi:role="line"
           id="tspan3170"
           x="164.73991"
           y="35.555592">Undecimated Aggregate Spectra</tspan></text>
    </g>
  </g>
</svg>
