%FSLAX24Y24*%
%MOIN*%
G70*
G01*
G75*
%ADD10R,0.0630X0.0118*%
%ADD11R,0.0630X0.0118*%
%ADD12R,0.0709X0.0630*%
%ADD13R,0.0846X0.0157*%
%ADD14R,0.0846X0.0157*%
%ADD15R,0.0630X0.0709*%
%ADD16R,0.0512X0.0591*%
%ADD17R,0.0591X0.0512*%
%ADD18R,0.0551X0.0236*%
%ADD19O,0.0480X0.0169*%
%ADD20R,0.0650X0.0118*%
%ADD21R,0.0787X0.0472*%
%ADD22R,0.0866X0.0236*%
%ADD23R,0.0866X0.0236*%
%ADD24R,0.0433X0.0394*%
%ADD25R,0.0610X0.0236*%
%ADD26R,0.1024X0.1614*%
%ADD27R,0.1614X0.1024*%
%ADD28R,0.0480X0.0169*%
%ADD29R,0.0394X0.0236*%
%ADD30R,0.1240X0.1360*%
%ADD31R,0.0315X0.1417*%
%ADD32C,0.0160*%
%ADD33C,0.0200*%
%ADD34C,0.0100*%
%ADD35C,0.0300*%
%ADD36C,0.0080*%
%ADD37C,0.0250*%
%ADD38C,0.0400*%
%ADD39C,0.0600*%
%ADD40C,0.1600*%
%ADD41C,0.0500*%
%ADD42R,0.0591X0.0591*%
%ADD43C,0.0591*%
%ADD44C,0.0750*%
%ADD45C,0.0866*%
%ADD46C,0.1575*%
%ADD47C,0.0250*%
%ADD48C,0.0350*%
%ADD49R,0.0394X0.0433*%
%ADD50C,0.0098*%
%ADD51C,0.0079*%
%ADD52C,0.0070*%
%ADD53R,0.0079X0.0197*%
%ADD54R,0.0197X0.0079*%
%ADD55C,0.0039*%
%ADD56R,0.0157X0.0197*%
%ADD57R,0.0197X0.0079*%
%ADD58C,0.0020*%
%ADD59R,0.0197X0.0157*%
%ADD60R,0.0157X0.0197*%
D34*
X49900Y50900D02*
Y54000D01*
Y50900D02*
X59900D01*
Y42100D02*
Y50900D01*
X49900Y42100D02*
X59900D01*
X21000Y43200D02*
Y55500D01*
X21100D01*
X36600D01*
Y54000D02*
Y55500D01*
Y54000D02*
X49900D01*
X39400Y44500D02*
X49900D01*
X39400Y43200D02*
Y44500D01*
X21000Y43200D02*
X39400D01*
X21000Y42800D02*
Y43200D01*
Y31600D02*
Y42800D01*
Y31600D02*
X49900D01*
Y44500D01*
X50300Y31600D02*
Y41300D01*
X67400D01*
Y48000D01*
X77300D01*
Y31600D02*
Y48000D01*
X50300Y31600D02*
X77300D01*
X21550Y53350D02*
X28450D01*
X21550Y46450D02*
Y53350D01*
Y46450D02*
X28450D01*
Y53350D01*
X43450Y67950D02*
Y74850D01*
X36550Y67950D02*
X43450D01*
X36550D02*
Y74850D01*
X43450D01*
X70750Y71850D02*
X77650D01*
X70750Y64950D02*
Y71850D01*
Y64950D02*
X77650D01*
Y71850D01*
X19900Y80200D02*
X20275D01*
X20400Y80075D01*
Y73950D02*
Y80075D01*
X20275Y73825D02*
X20400Y73950D01*
X19900Y73825D02*
X20275D01*
X19900Y82200D02*
X28150D01*
Y72200D02*
Y82200D01*
X19900Y72200D02*
X28150D01*
X19900D02*
Y82200D01*
X52750Y72250D02*
X59650D01*
X52750Y65350D02*
Y72250D01*
Y65350D02*
X59650D01*
Y72250D01*
X20000Y65000D02*
X20375D01*
X20500Y64875D01*
Y58750D02*
Y64875D01*
X20375Y58625D02*
X20500Y58750D01*
X20000Y58625D02*
X20375D01*
X20000Y67000D02*
X28250D01*
Y57000D02*
Y67000D01*
X20000Y57000D02*
X28250D01*
X20000D02*
Y67000D01*
X70750Y63450D02*
X77650D01*
X70750Y56550D02*
Y63450D01*
Y56550D02*
X77650D01*
Y63450D01*
X53350Y58250D02*
X60250D01*
X53350Y51350D02*
Y58250D01*
Y51350D02*
X60250D01*
Y58250D01*
X37350Y61250D02*
X44250D01*
X37350Y54350D02*
Y61250D01*
Y54350D02*
X44250D01*
Y61250D01*
X20000Y93900D02*
X20375D01*
X20500Y93775D01*
Y87650D02*
Y93775D01*
X20375Y87525D02*
X20500Y87650D01*
X20000Y87525D02*
X20375D01*
X20000Y95900D02*
X28250D01*
Y85900D02*
Y95900D01*
X20000Y85900D02*
X28250D01*
X20000D02*
Y95900D01*
X70150Y88850D02*
X77050D01*
X70150Y81950D02*
Y88850D01*
Y81950D02*
X77050D01*
Y88850D01*
X54350Y87450D02*
X61250D01*
X54350Y80550D02*
Y87450D01*
Y80550D02*
X61250D01*
Y87450D01*
X36550Y88450D02*
X43450D01*
X36550Y81550D02*
Y88450D01*
Y81550D02*
X43450D01*
Y88450D01*
X50350Y50250D02*
X57250D01*
X50350Y43350D02*
Y50250D01*
Y43350D02*
X57250D01*
Y50250D01*
X72030Y48800D02*
Y49800D01*
X66770Y48800D02*
X72030D01*
X66770D02*
Y50800D01*
X72030D01*
Y49800D02*
Y50800D01*
X62546Y43989D02*
X63806D01*
X62546D02*
Y47178D01*
X62980Y47611D01*
X63806D01*
X64594D02*
X65420D01*
X65420D02*
X65814Y47217D01*
Y43989D02*
Y47217D01*
X64594Y43989D02*
X65814D01*
X74348Y48430D02*
X79191D01*
Y55517D01*
X74348D02*
X79191D01*
X74348Y48430D02*
Y55517D01*
X64394Y55011D02*
X65654D01*
Y51822D02*
Y55011D01*
X65220Y51389D02*
X65654Y51822D01*
X64394Y51389D02*
X65220D01*
X62780D02*
X63606D01*
X62386Y51783D02*
X62780Y51389D01*
X62386Y51783D02*
Y55011D01*
X63606D01*
X21750Y41250D02*
X28650D01*
X21750Y34350D02*
Y41250D01*
Y34350D02*
X28650D01*
Y41250D01*
X42750Y44250D02*
X49650D01*
X42750Y37350D02*
Y44250D01*
Y37350D02*
X49650D01*
Y44250D01*
X72030Y53400D02*
Y54400D01*
X66770Y53400D02*
X72030D01*
X66770D02*
Y55400D01*
X72030D01*
Y54400D02*
Y55400D01*
X50750Y40650D02*
X57650D01*
X50750Y33750D02*
Y40650D01*
Y33750D02*
X57650D01*
Y40650D01*
X69350Y40750D02*
X76250D01*
Y47650D01*
X69350D02*
X76250D01*
X69350Y40750D02*
Y47650D01*
X23133Y54000D02*
X22867Y54700D01*
X22600Y54000D01*
X22700Y54233D02*
X23033D01*
X23297Y54700D02*
Y54000D01*
Y54700D02*
X23530D01*
X23630Y54667D01*
X23696Y54600D01*
X23730Y54533D01*
X23763Y54433D01*
Y54267D01*
X23730Y54167D01*
X23696Y54100D01*
X23630Y54033D01*
X23530Y54000D01*
X23297D01*
X24086Y54700D02*
X23986Y54667D01*
X23953Y54600D01*
Y54533D01*
X23986Y54467D01*
X24053Y54433D01*
X24186Y54400D01*
X24286Y54367D01*
X24353Y54300D01*
X24386Y54233D01*
Y54133D01*
X24353Y54067D01*
X24320Y54033D01*
X24220Y54000D01*
X24086D01*
X23986Y54033D01*
X23953Y54067D01*
X23920Y54133D01*
Y54233D01*
X23953Y54300D01*
X24020Y54367D01*
X24120Y54400D01*
X24253Y54433D01*
X24320Y54467D01*
X24353Y54533D01*
Y54600D01*
X24320Y54667D01*
X24220Y54700D01*
X24086D01*
X24743D02*
X24643Y54667D01*
X24576Y54567D01*
X24543Y54400D01*
Y54300D01*
X24576Y54133D01*
X24643Y54033D01*
X24743Y54000D01*
X24810D01*
X24910Y54033D01*
X24976Y54133D01*
X25009Y54300D01*
Y54400D01*
X24976Y54567D01*
X24910Y54667D01*
X24810Y54700D01*
X24743D01*
X25199Y54533D02*
Y54567D01*
X25233Y54633D01*
X25266Y54667D01*
X25333Y54700D01*
X25466D01*
X25533Y54667D01*
X25566Y54633D01*
X25599Y54567D01*
Y54500D01*
X25566Y54433D01*
X25499Y54333D01*
X25166Y54000D01*
X25633D01*
X25956Y54700D02*
X25856Y54667D01*
X25823Y54600D01*
Y54533D01*
X25856Y54467D01*
X25923Y54433D01*
X26056Y54400D01*
X26156Y54367D01*
X26223Y54300D01*
X26256Y54233D01*
Y54133D01*
X26223Y54067D01*
X26189Y54033D01*
X26089Y54000D01*
X25956D01*
X25856Y54033D01*
X25823Y54067D01*
X25789Y54133D01*
Y54233D01*
X25823Y54300D01*
X25889Y54367D01*
X25989Y54400D01*
X26123Y54433D01*
X26189Y54467D01*
X26223Y54533D01*
Y54600D01*
X26189Y54667D01*
X26089Y54700D01*
X25956D01*
X27496Y54000D02*
X27229Y54700D01*
X26962Y54000D01*
X27062Y54233D02*
X27396D01*
X27659Y54467D02*
Y54000D01*
Y54333D02*
X27759Y54433D01*
X27826Y54467D01*
X27926D01*
X27992Y54433D01*
X28026Y54333D01*
Y54000D01*
X28309Y54700D02*
Y54133D01*
X28342Y54033D01*
X28409Y54000D01*
X28475D01*
X28209Y54467D02*
X28442D01*
X28642Y54700D02*
X28675Y54667D01*
X28709Y54700D01*
X28675Y54733D01*
X28642Y54700D01*
X28675Y54467D02*
Y54000D01*
X28832Y54300D02*
X29432D01*
X30172Y54000D02*
X29905Y54700D01*
X29638Y54000D01*
X29738Y54233D02*
X30072D01*
X30335Y54700D02*
Y54000D01*
X30548Y54700D02*
X30582Y54667D01*
X30615Y54700D01*
X30582Y54733D01*
X30548Y54700D01*
X30582Y54467D02*
Y54000D01*
X31138Y54467D02*
Y54000D01*
Y54367D02*
X31072Y54433D01*
X31005Y54467D01*
X30905D01*
X30838Y54433D01*
X30772Y54367D01*
X30738Y54267D01*
Y54200D01*
X30772Y54100D01*
X30838Y54033D01*
X30905Y54000D01*
X31005D01*
X31072Y54033D01*
X31138Y54100D01*
X31691Y54367D02*
X31658Y54433D01*
X31558Y54467D01*
X31458D01*
X31358Y54433D01*
X31325Y54367D01*
X31358Y54300D01*
X31425Y54267D01*
X31591Y54233D01*
X31658Y54200D01*
X31691Y54133D01*
Y54100D01*
X31658Y54033D01*
X31558Y54000D01*
X31458D01*
X31358Y54033D01*
X31325Y54100D01*
X31905Y54700D02*
X31938Y54667D01*
X31971Y54700D01*
X31938Y54733D01*
X31905Y54700D01*
X31938Y54467D02*
Y54000D01*
X32095Y54467D02*
Y54000D01*
Y54333D02*
X32195Y54433D01*
X32261Y54467D01*
X32361D01*
X32428Y54433D01*
X32461Y54333D01*
Y54000D01*
X33044Y54467D02*
Y53933D01*
X33011Y53833D01*
X32978Y53800D01*
X32911Y53767D01*
X32811D01*
X32744Y53800D01*
X33044Y54367D02*
X32978Y54433D01*
X32911Y54467D01*
X32811D01*
X32744Y54433D01*
X32678Y54367D01*
X32645Y54267D01*
Y54200D01*
X32678Y54100D01*
X32744Y54033D01*
X32811Y54000D01*
X32911D01*
X32978Y54033D01*
X33044Y54100D01*
X33781Y54700D02*
Y54000D01*
Y54700D02*
X34214D01*
X33781Y54367D02*
X34048D01*
X34361Y54700D02*
X34394Y54667D01*
X34427Y54700D01*
X34394Y54733D01*
X34361Y54700D01*
X34394Y54467D02*
Y54000D01*
X34551Y54700D02*
Y54000D01*
X34797Y54700D02*
Y54133D01*
X34831Y54033D01*
X34897Y54000D01*
X34964D01*
X34697Y54467D02*
X34931D01*
X35064Y54267D02*
X35464D01*
Y54333D01*
X35431Y54400D01*
X35397Y54433D01*
X35331Y54467D01*
X35231D01*
X35164Y54433D01*
X35097Y54367D01*
X35064Y54267D01*
Y54200D01*
X35097Y54100D01*
X35164Y54033D01*
X35231Y54000D01*
X35331D01*
X35397Y54033D01*
X35464Y54100D01*
X35614Y54467D02*
Y54000D01*
Y54267D02*
X35647Y54367D01*
X35714Y54433D01*
X35781Y54467D01*
X35880D01*
X36613Y31800D02*
X36347Y32500D01*
X36080Y31800D01*
X36180Y32033D02*
X36513D01*
X36777Y32500D02*
Y31800D01*
Y32500D02*
X37010D01*
X37110Y32467D01*
X37176Y32400D01*
X37210Y32333D01*
X37243Y32233D01*
Y32067D01*
X37210Y31967D01*
X37176Y31900D01*
X37110Y31833D01*
X37010Y31800D01*
X36777D01*
X37566Y32500D02*
X37466Y32467D01*
X37433Y32400D01*
Y32333D01*
X37466Y32267D01*
X37533Y32233D01*
X37666Y32200D01*
X37766Y32167D01*
X37833Y32100D01*
X37866Y32033D01*
Y31933D01*
X37833Y31867D01*
X37800Y31833D01*
X37700Y31800D01*
X37566D01*
X37466Y31833D01*
X37433Y31867D01*
X37400Y31933D01*
Y32033D01*
X37433Y32100D01*
X37500Y32167D01*
X37600Y32200D01*
X37733Y32233D01*
X37800Y32267D01*
X37833Y32333D01*
Y32400D01*
X37800Y32467D01*
X37700Y32500D01*
X37566D01*
X38423D02*
X38090D01*
X38056Y32200D01*
X38090Y32233D01*
X38190Y32267D01*
X38290D01*
X38389Y32233D01*
X38456Y32167D01*
X38489Y32067D01*
Y32000D01*
X38456Y31900D01*
X38389Y31833D01*
X38290Y31800D01*
X38190D01*
X38090Y31833D01*
X38056Y31867D01*
X38023Y31933D01*
X38646Y32367D02*
X38713Y32400D01*
X38813Y32500D01*
Y31800D01*
X39226Y32500D02*
X39593D01*
X39393Y32233D01*
X39493D01*
X39559Y32200D01*
X39593Y32167D01*
X39626Y32067D01*
Y32000D01*
X39593Y31900D01*
X39526Y31833D01*
X39426Y31800D01*
X39326D01*
X39226Y31833D01*
X39193Y31867D01*
X39159Y31933D01*
X40866Y31800D02*
X40599Y32500D01*
X40332Y31800D01*
X40432Y32033D02*
X40766D01*
X41029Y32267D02*
Y31800D01*
Y32133D02*
X41129Y32233D01*
X41196Y32267D01*
X41296D01*
X41362Y32233D01*
X41396Y32133D01*
Y31800D01*
X41679Y32500D02*
Y31933D01*
X41712Y31833D01*
X41779Y31800D01*
X41845D01*
X41579Y32267D02*
X41812D01*
X42012Y32500D02*
X42045Y32467D01*
X42079Y32500D01*
X42045Y32533D01*
X42012Y32500D01*
X42045Y32267D02*
Y31800D01*
X42202Y32100D02*
X42802D01*
X43542Y31800D02*
X43275Y32500D01*
X43009Y31800D01*
X43108Y32033D02*
X43442D01*
X43705Y32500D02*
Y31800D01*
X43918Y32500D02*
X43952Y32467D01*
X43985Y32500D01*
X43952Y32533D01*
X43918Y32500D01*
X43952Y32267D02*
Y31800D01*
X44508Y32267D02*
Y31800D01*
Y32167D02*
X44442Y32233D01*
X44375Y32267D01*
X44275D01*
X44208Y32233D01*
X44142Y32167D01*
X44108Y32067D01*
Y32000D01*
X44142Y31900D01*
X44208Y31833D01*
X44275Y31800D01*
X44375D01*
X44442Y31833D01*
X44508Y31900D01*
X45061Y32167D02*
X45028Y32233D01*
X44928Y32267D01*
X44828D01*
X44728Y32233D01*
X44695Y32167D01*
X44728Y32100D01*
X44795Y32067D01*
X44961Y32033D01*
X45028Y32000D01*
X45061Y31933D01*
Y31900D01*
X45028Y31833D01*
X44928Y31800D01*
X44828D01*
X44728Y31833D01*
X44695Y31900D01*
X45275Y32500D02*
X45308Y32467D01*
X45341Y32500D01*
X45308Y32533D01*
X45275Y32500D01*
X45308Y32267D02*
Y31800D01*
X45465Y32267D02*
Y31800D01*
Y32133D02*
X45565Y32233D01*
X45631Y32267D01*
X45731D01*
X45798Y32233D01*
X45831Y32133D01*
Y31800D01*
X46414Y32267D02*
Y31733D01*
X46381Y31633D01*
X46348Y31600D01*
X46281Y31567D01*
X46181D01*
X46115Y31600D01*
X46414Y32167D02*
X46348Y32233D01*
X46281Y32267D01*
X46181D01*
X46115Y32233D01*
X46048Y32167D01*
X46015Y32067D01*
Y32000D01*
X46048Y31900D01*
X46115Y31833D01*
X46181Y31800D01*
X46281D01*
X46348Y31833D01*
X46414Y31900D01*
X47151Y32500D02*
Y31800D01*
Y32500D02*
X47584D01*
X47151Y32167D02*
X47418D01*
X47731Y32500D02*
X47764Y32467D01*
X47797Y32500D01*
X47764Y32533D01*
X47731Y32500D01*
X47764Y32267D02*
Y31800D01*
X47921Y32500D02*
Y31800D01*
X48167Y32500D02*
Y31933D01*
X48201Y31833D01*
X48267Y31800D01*
X48334D01*
X48067Y32267D02*
X48301D01*
X48434Y32067D02*
X48834D01*
Y32133D01*
X48801Y32200D01*
X48767Y32233D01*
X48701Y32267D01*
X48601D01*
X48534Y32233D01*
X48467Y32167D01*
X48434Y32067D01*
Y32000D01*
X48467Y31900D01*
X48534Y31833D01*
X48601Y31800D01*
X48701D01*
X48767Y31833D01*
X48834Y31900D01*
X48984Y32267D02*
Y31800D01*
Y32067D02*
X49017Y32167D01*
X49084Y32233D01*
X49151Y32267D01*
X49251D01*
X58500Y48300D02*
X58467Y48367D01*
X58400Y48433D01*
X58333Y48467D01*
X58233Y48500D01*
X58067D01*
X57967Y48467D01*
X57900Y48433D01*
X57833Y48367D01*
X57800Y48300D01*
Y48167D01*
X57833Y48100D01*
X57900Y48033D01*
X57967Y48000D01*
X58067Y47967D01*
X58233D01*
X58333Y48000D01*
X58400Y48033D01*
X58467Y48100D01*
X58500Y48167D01*
Y48300D01*
X58267Y47803D02*
X57933D01*
X57833Y47770D01*
X57800Y47703D01*
Y47604D01*
X57833Y47537D01*
X57933Y47437D01*
X58267D02*
X57800D01*
X58500Y47154D02*
X57933D01*
X57833Y47120D01*
X57800Y47054D01*
Y46987D01*
X58267Y47254D02*
Y47020D01*
Y46887D02*
X57567D01*
X58167D02*
X58233Y46820D01*
X58267Y46754D01*
Y46654D01*
X58233Y46587D01*
X58167Y46520D01*
X58067Y46487D01*
X58000D01*
X57900Y46520D01*
X57833Y46587D01*
X57800Y46654D01*
Y46754D01*
X57833Y46820D01*
X57900Y46887D01*
X58267Y46337D02*
X57933D01*
X57833Y46304D01*
X57800Y46237D01*
Y46137D01*
X57833Y46071D01*
X57933Y45971D01*
X58267D02*
X57800D01*
X58500Y45687D02*
X57933D01*
X57833Y45654D01*
X57800Y45587D01*
Y45521D01*
X58267Y45787D02*
Y45554D01*
X44900Y36600D02*
X44833Y36567D01*
X44767Y36500D01*
X44733Y36433D01*
X44700Y36333D01*
Y36167D01*
X44733Y36067D01*
X44767Y36000D01*
X44833Y35933D01*
X44900Y35900D01*
X45033D01*
X45100Y35933D01*
X45167Y36000D01*
X45200Y36067D01*
X45233Y36167D01*
Y36333D01*
X45200Y36433D01*
X45167Y36500D01*
X45100Y36567D01*
X45033Y36600D01*
X44900D01*
X45397Y36367D02*
Y36033D01*
X45430Y35933D01*
X45497Y35900D01*
X45596D01*
X45663Y35933D01*
X45763Y36033D01*
Y36367D02*
Y35900D01*
X46046Y36600D02*
Y36033D01*
X46080Y35933D01*
X46146Y35900D01*
X46213D01*
X45946Y36367D02*
X46180D01*
X46313D02*
Y35667D01*
Y36267D02*
X46380Y36333D01*
X46446Y36367D01*
X46546D01*
X46613Y36333D01*
X46680Y36267D01*
X46713Y36167D01*
Y36100D01*
X46680Y36000D01*
X46613Y35933D01*
X46546Y35900D01*
X46446D01*
X46380Y35933D01*
X46313Y36000D01*
X46863Y36367D02*
Y36033D01*
X46896Y35933D01*
X46963Y35900D01*
X47063D01*
X47129Y35933D01*
X47229Y36033D01*
Y36367D02*
Y35900D01*
X47513Y36600D02*
Y36033D01*
X47546Y35933D01*
X47613Y35900D01*
X47679D01*
X47413Y36367D02*
X47646D01*
X24100Y45900D02*
Y45200D01*
X24247Y45667D02*
Y45200D01*
Y45533D02*
X24347Y45633D01*
X24413Y45667D01*
X24513D01*
X24580Y45633D01*
X24613Y45533D01*
Y45200D01*
X24797Y45667D02*
Y44967D01*
Y45567D02*
X24863Y45633D01*
X24930Y45667D01*
X25030D01*
X25096Y45633D01*
X25163Y45567D01*
X25196Y45467D01*
Y45400D01*
X25163Y45300D01*
X25096Y45233D01*
X25030Y45200D01*
X24930D01*
X24863Y45233D01*
X24797Y45300D01*
X25346Y45667D02*
Y45333D01*
X25380Y45233D01*
X25446Y45200D01*
X25546D01*
X25613Y45233D01*
X25713Y45333D01*
Y45667D02*
Y45200D01*
X25996Y45900D02*
Y45333D01*
X26030Y45233D01*
X26096Y45200D01*
X26163D01*
X25896Y45667D02*
X26130D01*
X23900Y42200D02*
Y41500D01*
X24047Y41967D02*
Y41500D01*
Y41833D02*
X24147Y41933D01*
X24213Y41967D01*
X24313D01*
X24380Y41933D01*
X24413Y41833D01*
Y41500D01*
X24597Y41967D02*
Y41267D01*
Y41867D02*
X24663Y41933D01*
X24730Y41967D01*
X24830D01*
X24896Y41933D01*
X24963Y41867D01*
X24996Y41767D01*
Y41700D01*
X24963Y41600D01*
X24896Y41533D01*
X24830Y41500D01*
X24730D01*
X24663Y41533D01*
X24597Y41600D01*
X25146Y41967D02*
Y41633D01*
X25180Y41533D01*
X25246Y41500D01*
X25346D01*
X25413Y41533D01*
X25513Y41633D01*
Y41967D02*
Y41500D01*
X25796Y42200D02*
Y41633D01*
X25830Y41533D01*
X25896Y41500D01*
X25963D01*
X25696Y41967D02*
X25930D01*
X68100Y43200D02*
X68133Y43133D01*
X68200Y43067D01*
X68267Y43033D01*
X68367Y43000D01*
X68533D01*
X68633Y43033D01*
X68700Y43067D01*
X68767Y43133D01*
X68800Y43200D01*
Y43333D01*
X68767Y43400D01*
X68700Y43467D01*
X68633Y43500D01*
X68533Y43533D01*
X68367D01*
X68267Y43500D01*
X68200Y43467D01*
X68133Y43400D01*
X68100Y43333D01*
Y43200D01*
X68333Y43697D02*
X68667D01*
X68767Y43730D01*
X68800Y43797D01*
Y43896D01*
X68767Y43963D01*
X68667Y44063D01*
X68333D02*
X68800D01*
X68100Y44346D02*
X68667D01*
X68767Y44380D01*
X68800Y44446D01*
Y44513D01*
X68333Y44246D02*
Y44480D01*
Y44613D02*
X69033D01*
X68433D02*
X68367Y44680D01*
X68333Y44746D01*
Y44846D01*
X68367Y44913D01*
X68433Y44980D01*
X68533Y45013D01*
X68600D01*
X68700Y44980D01*
X68767Y44913D01*
X68800Y44846D01*
Y44746D01*
X68767Y44680D01*
X68700Y44613D01*
X68333Y45163D02*
X68667D01*
X68767Y45196D01*
X68800Y45263D01*
Y45363D01*
X68767Y45429D01*
X68667Y45529D01*
X68333D02*
X68800D01*
X68100Y45813D02*
X68667D01*
X68767Y45846D01*
X68800Y45913D01*
Y45979D01*
X68333Y45713D02*
Y45946D01*
X52600Y33300D02*
Y32600D01*
X52747Y33067D02*
Y32600D01*
Y32933D02*
X52847Y33033D01*
X52913Y33067D01*
X53013D01*
X53080Y33033D01*
X53113Y32933D01*
Y32600D01*
X53297Y33067D02*
Y32367D01*
Y32967D02*
X53363Y33033D01*
X53430Y33067D01*
X53530D01*
X53596Y33033D01*
X53663Y32967D01*
X53696Y32867D01*
Y32800D01*
X53663Y32700D01*
X53596Y32633D01*
X53530Y32600D01*
X53430D01*
X53363Y32633D01*
X53297Y32700D01*
X53846Y33067D02*
Y32733D01*
X53880Y32633D01*
X53946Y32600D01*
X54046D01*
X54113Y32633D01*
X54213Y32733D01*
Y33067D02*
Y32600D01*
X54496Y33300D02*
Y32733D01*
X54530Y32633D01*
X54596Y32600D01*
X54663D01*
X54396Y33067D02*
X54630D01*
X63500Y32600D02*
Y31900D01*
X63900D01*
X64210Y32600D02*
Y31900D01*
X63977Y32600D02*
X64443D01*
X65026Y32433D02*
X64993Y32500D01*
X64926Y32567D01*
X64860Y32600D01*
X64726D01*
X64660Y32567D01*
X64593Y32500D01*
X64560Y32433D01*
X64526Y32333D01*
Y32167D01*
X64560Y32067D01*
X64593Y32000D01*
X64660Y31933D01*
X64726Y31900D01*
X64860D01*
X64926Y31933D01*
X64993Y32000D01*
X65026Y32067D01*
X65223Y32467D02*
X65290Y32500D01*
X65390Y32600D01*
Y31900D01*
X66136Y32600D02*
X65803D01*
X65770Y32300D01*
X65803Y32333D01*
X65903Y32367D01*
X66003D01*
X66103Y32333D01*
X66169Y32267D01*
X66203Y32167D01*
Y32100D01*
X66169Y32000D01*
X66103Y31933D01*
X66003Y31900D01*
X65903D01*
X65803Y31933D01*
X65770Y31967D01*
X65736Y32033D01*
X66759Y32500D02*
X66726Y32567D01*
X66626Y32600D01*
X66559D01*
X66459Y32567D01*
X66393Y32467D01*
X66359Y32300D01*
Y32133D01*
X66393Y32000D01*
X66459Y31933D01*
X66559Y31900D01*
X66593D01*
X66693Y31933D01*
X66759Y32000D01*
X66793Y32100D01*
Y32133D01*
X66759Y32233D01*
X66693Y32300D01*
X66593Y32333D01*
X66559D01*
X66459Y32300D01*
X66393Y32233D01*
X66359Y32133D01*
X67013Y32600D02*
X67379D01*
X67179Y32333D01*
X67279D01*
X67346Y32300D01*
X67379Y32267D01*
X67412Y32167D01*
Y32100D01*
X67379Y32000D01*
X67313Y31933D01*
X67213Y31900D01*
X67113D01*
X67013Y31933D01*
X66979Y31967D01*
X66946Y32033D01*
X68652Y31900D02*
X68386Y32600D01*
X68119Y31900D01*
X68219Y32133D02*
X68552D01*
X68816Y32367D02*
Y31900D01*
Y32233D02*
X68916Y32333D01*
X68982Y32367D01*
X69082D01*
X69149Y32333D01*
X69182Y32233D01*
Y31900D01*
X69465Y32600D02*
Y32033D01*
X69499Y31933D01*
X69565Y31900D01*
X69632D01*
X69365Y32367D02*
X69599D01*
X69799Y32600D02*
X69832Y32567D01*
X69865Y32600D01*
X69832Y32633D01*
X69799Y32600D01*
X69832Y32367D02*
Y31900D01*
X69989Y32200D02*
X70588D01*
X71328Y31900D02*
X71062Y32600D01*
X70795Y31900D01*
X70895Y32133D02*
X71228D01*
X71492Y32600D02*
Y31900D01*
X71705Y32600D02*
X71738Y32567D01*
X71772Y32600D01*
X71738Y32633D01*
X71705Y32600D01*
X71738Y32367D02*
Y31900D01*
X72295Y32367D02*
Y31900D01*
Y32267D02*
X72228Y32333D01*
X72161Y32367D01*
X72062D01*
X71995Y32333D01*
X71928Y32267D01*
X71895Y32167D01*
Y32100D01*
X71928Y32000D01*
X71995Y31933D01*
X72062Y31900D01*
X72161D01*
X72228Y31933D01*
X72295Y32000D01*
X72848Y32267D02*
X72815Y32333D01*
X72715Y32367D01*
X72615D01*
X72515Y32333D01*
X72481Y32267D01*
X72515Y32200D01*
X72581Y32167D01*
X72748Y32133D01*
X72815Y32100D01*
X72848Y32033D01*
Y32000D01*
X72815Y31933D01*
X72715Y31900D01*
X72615D01*
X72515Y31933D01*
X72481Y32000D01*
X73061Y32600D02*
X73095Y32567D01*
X73128Y32600D01*
X73095Y32633D01*
X73061Y32600D01*
X73095Y32367D02*
Y31900D01*
X73251Y32367D02*
Y31900D01*
Y32233D02*
X73351Y32333D01*
X73418Y32367D01*
X73518D01*
X73584Y32333D01*
X73618Y32233D01*
Y31900D01*
X74201Y32367D02*
Y31833D01*
X74168Y31733D01*
X74134Y31700D01*
X74068Y31667D01*
X73968D01*
X73901Y31700D01*
X74201Y32267D02*
X74134Y32333D01*
X74068Y32367D01*
X73968D01*
X73901Y32333D01*
X73834Y32267D01*
X73801Y32167D01*
Y32100D01*
X73834Y32000D01*
X73901Y31933D01*
X73968Y31900D01*
X74068D01*
X74134Y31933D01*
X74201Y32000D01*
X74938Y32600D02*
Y31900D01*
Y32600D02*
X75371D01*
X74938Y32267D02*
X75204D01*
X75517Y32600D02*
X75551Y32567D01*
X75584Y32600D01*
X75551Y32633D01*
X75517Y32600D01*
X75551Y32367D02*
Y31900D01*
X75707Y32600D02*
Y31900D01*
X75954Y32600D02*
Y32033D01*
X75987Y31933D01*
X76054Y31900D01*
X76121D01*
X75854Y32367D02*
X76087D01*
X76221Y32167D02*
X76621D01*
Y32233D01*
X76587Y32300D01*
X76554Y32333D01*
X76487Y32367D01*
X76387D01*
X76321Y32333D01*
X76254Y32267D01*
X76221Y32167D01*
Y32100D01*
X76254Y32000D01*
X76321Y31933D01*
X76387Y31900D01*
X76487D01*
X76554Y31933D01*
X76621Y32000D01*
X76770Y32367D02*
Y31900D01*
Y32167D02*
X76804Y32267D01*
X76870Y32333D01*
X76937Y32367D01*
X77037D01*
X29081Y66100D02*
X28890Y66600D01*
X28700Y66100D01*
X28771Y66267D02*
X29009D01*
X29198Y66600D02*
Y66100D01*
Y66600D02*
X29364D01*
X29436Y66576D01*
X29483Y66528D01*
X29507Y66481D01*
X29531Y66409D01*
Y66290D01*
X29507Y66219D01*
X29483Y66171D01*
X29436Y66124D01*
X29364Y66100D01*
X29198D01*
X29762Y66600D02*
X29690Y66576D01*
X29666Y66528D01*
Y66481D01*
X29690Y66433D01*
X29738Y66409D01*
X29833Y66386D01*
X29904Y66362D01*
X29952Y66314D01*
X29976Y66267D01*
Y66195D01*
X29952Y66148D01*
X29928Y66124D01*
X29857Y66100D01*
X29762D01*
X29690Y66124D01*
X29666Y66148D01*
X29643Y66195D01*
Y66267D01*
X29666Y66314D01*
X29714Y66362D01*
X29785Y66386D01*
X29881Y66409D01*
X29928Y66433D01*
X29952Y66481D01*
Y66528D01*
X29928Y66576D01*
X29857Y66600D01*
X29762D01*
X30373D02*
X30135D01*
X30112Y66386D01*
X30135Y66409D01*
X30207Y66433D01*
X30278D01*
X30350Y66409D01*
X30397Y66362D01*
X30421Y66290D01*
Y66243D01*
X30397Y66171D01*
X30350Y66124D01*
X30278Y66100D01*
X30207D01*
X30135Y66124D01*
X30112Y66148D01*
X30088Y66195D01*
X30533Y66505D02*
X30581Y66528D01*
X30652Y66600D01*
Y66100D01*
X30947Y66600D02*
X31209D01*
X31066Y66409D01*
X31138D01*
X31185Y66386D01*
X31209Y66362D01*
X31233Y66290D01*
Y66243D01*
X31209Y66171D01*
X31161Y66124D01*
X31090Y66100D01*
X31019D01*
X30947Y66124D01*
X30923Y66148D01*
X30900Y66195D01*
X32118Y66100D02*
X31928Y66600D01*
X31737Y66100D01*
X31809Y66267D02*
X32047D01*
X32616Y66100D02*
X32425Y66600D01*
X32235Y66100D01*
X32306Y66267D02*
X32544D01*
X33482Y66481D02*
X33458Y66528D01*
X33411Y66576D01*
X33363Y66600D01*
X33268D01*
X33220Y66576D01*
X33173Y66528D01*
X33149Y66481D01*
X33125Y66409D01*
Y66290D01*
X33149Y66219D01*
X33173Y66171D01*
X33220Y66124D01*
X33268Y66100D01*
X33363D01*
X33411Y66124D01*
X33458Y66171D01*
X33482Y66219D01*
X33623Y66600D02*
Y66100D01*
Y66338D02*
X33694Y66409D01*
X33742Y66433D01*
X33813D01*
X33861Y66409D01*
X33885Y66338D01*
Y66100D01*
X34301Y66433D02*
Y66100D01*
Y66362D02*
X34254Y66409D01*
X34206Y66433D01*
X34135D01*
X34087Y66409D01*
X34039Y66362D01*
X34016Y66290D01*
Y66243D01*
X34039Y66171D01*
X34087Y66124D01*
X34135Y66100D01*
X34206D01*
X34254Y66124D01*
X34301Y66171D01*
X34434Y66433D02*
Y66100D01*
Y66338D02*
X34506Y66409D01*
X34554Y66433D01*
X34625D01*
X34673Y66409D01*
X34696Y66338D01*
Y66100D01*
X34827Y66433D02*
Y66100D01*
Y66338D02*
X34899Y66409D01*
X34946Y66433D01*
X35018D01*
X35065Y66409D01*
X35089Y66338D01*
Y66100D01*
X35220Y66290D02*
X35506D01*
Y66338D01*
X35482Y66386D01*
X35458Y66409D01*
X35410Y66433D01*
X35339D01*
X35291Y66409D01*
X35244Y66362D01*
X35220Y66290D01*
Y66243D01*
X35244Y66171D01*
X35291Y66124D01*
X35339Y66100D01*
X35410D01*
X35458Y66124D01*
X35506Y66171D01*
X35613Y66600D02*
Y66100D01*
X28881Y81200D02*
X28690Y81700D01*
X28500Y81200D01*
X28571Y81367D02*
X28809D01*
X28998Y81700D02*
Y81200D01*
Y81700D02*
X29164D01*
X29236Y81676D01*
X29283Y81628D01*
X29307Y81581D01*
X29331Y81509D01*
Y81390D01*
X29307Y81319D01*
X29283Y81271D01*
X29236Y81224D01*
X29164Y81200D01*
X28998D01*
X29562Y81700D02*
X29490Y81676D01*
X29466Y81628D01*
Y81581D01*
X29490Y81533D01*
X29538Y81509D01*
X29633Y81486D01*
X29704Y81462D01*
X29752Y81414D01*
X29776Y81367D01*
Y81295D01*
X29752Y81248D01*
X29728Y81224D01*
X29657Y81200D01*
X29562D01*
X29490Y81224D01*
X29466Y81248D01*
X29443Y81295D01*
Y81367D01*
X29466Y81414D01*
X29514Y81462D01*
X29585Y81486D01*
X29681Y81509D01*
X29728Y81533D01*
X29752Y81581D01*
Y81628D01*
X29728Y81676D01*
X29657Y81700D01*
X29562D01*
X30031D02*
X29959Y81676D01*
X29912Y81605D01*
X29888Y81486D01*
Y81414D01*
X29912Y81295D01*
X29959Y81224D01*
X30031Y81200D01*
X30078D01*
X30150Y81224D01*
X30197Y81295D01*
X30221Y81414D01*
Y81486D01*
X30197Y81605D01*
X30150Y81676D01*
X30078Y81700D01*
X30031D01*
X30357Y81581D02*
Y81605D01*
X30381Y81652D01*
X30404Y81676D01*
X30452Y81700D01*
X30547D01*
X30595Y81676D01*
X30619Y81652D01*
X30642Y81605D01*
Y81557D01*
X30619Y81509D01*
X30571Y81438D01*
X30333Y81200D01*
X30666D01*
X30778Y81605D02*
X30826Y81628D01*
X30897Y81700D01*
Y81200D01*
X31918D02*
X31728Y81700D01*
X31537Y81200D01*
X31609Y81367D02*
X31847D01*
X32416Y81200D02*
X32225Y81700D01*
X32035Y81200D01*
X32106Y81367D02*
X32344D01*
X33282Y81581D02*
X33259Y81628D01*
X33211Y81676D01*
X33163Y81700D01*
X33068D01*
X33020Y81676D01*
X32973Y81628D01*
X32949Y81581D01*
X32925Y81509D01*
Y81390D01*
X32949Y81319D01*
X32973Y81271D01*
X33020Y81224D01*
X33068Y81200D01*
X33163D01*
X33211Y81224D01*
X33259Y81271D01*
X33282Y81319D01*
X33423Y81700D02*
Y81200D01*
Y81438D02*
X33494Y81509D01*
X33542Y81533D01*
X33613D01*
X33661Y81509D01*
X33685Y81438D01*
Y81200D01*
X34101Y81533D02*
Y81200D01*
Y81462D02*
X34054Y81509D01*
X34006Y81533D01*
X33935D01*
X33887Y81509D01*
X33839Y81462D01*
X33816Y81390D01*
Y81343D01*
X33839Y81271D01*
X33887Y81224D01*
X33935Y81200D01*
X34006D01*
X34054Y81224D01*
X34101Y81271D01*
X34234Y81533D02*
Y81200D01*
Y81438D02*
X34306Y81509D01*
X34354Y81533D01*
X34425D01*
X34473Y81509D01*
X34496Y81438D01*
Y81200D01*
X34627Y81533D02*
Y81200D01*
Y81438D02*
X34699Y81509D01*
X34746Y81533D01*
X34818D01*
X34865Y81509D01*
X34889Y81438D01*
Y81200D01*
X35020Y81390D02*
X35306D01*
Y81438D01*
X35282Y81486D01*
X35258Y81509D01*
X35210Y81533D01*
X35139D01*
X35091Y81509D01*
X35044Y81462D01*
X35020Y81390D01*
Y81343D01*
X35044Y81271D01*
X35091Y81224D01*
X35139Y81200D01*
X35210D01*
X35258Y81224D01*
X35306Y81271D01*
X35413Y81700D02*
Y81200D01*
X29500Y95600D02*
Y95100D01*
X29786D01*
X30007Y95600D02*
Y95100D01*
X29840Y95600D02*
X30174D01*
X30590Y95481D02*
X30566Y95528D01*
X30519Y95576D01*
X30471Y95600D01*
X30376D01*
X30328Y95576D01*
X30281Y95528D01*
X30257Y95481D01*
X30233Y95409D01*
Y95290D01*
X30257Y95219D01*
X30281Y95171D01*
X30328Y95124D01*
X30376Y95100D01*
X30471D01*
X30519Y95124D01*
X30566Y95171D01*
X30590Y95219D01*
X30731Y95505D02*
X30778Y95528D01*
X30850Y95600D01*
Y95100D01*
X31383Y95600D02*
X31145D01*
X31121Y95386D01*
X31145Y95409D01*
X31216Y95433D01*
X31288D01*
X31359Y95409D01*
X31407Y95362D01*
X31431Y95290D01*
Y95243D01*
X31407Y95171D01*
X31359Y95124D01*
X31288Y95100D01*
X31216D01*
X31145Y95124D01*
X31121Y95148D01*
X31097Y95195D01*
X31828Y95528D02*
X31804Y95576D01*
X31733Y95600D01*
X31685D01*
X31614Y95576D01*
X31566Y95505D01*
X31542Y95386D01*
Y95267D01*
X31566Y95171D01*
X31614Y95124D01*
X31685Y95100D01*
X31709D01*
X31780Y95124D01*
X31828Y95171D01*
X31852Y95243D01*
Y95267D01*
X31828Y95338D01*
X31780Y95386D01*
X31709Y95409D01*
X31685D01*
X31614Y95386D01*
X31566Y95338D01*
X31542Y95267D01*
X32009Y95600D02*
X32271D01*
X32128Y95409D01*
X32199D01*
X32247Y95386D01*
X32271Y95362D01*
X32295Y95290D01*
Y95243D01*
X32271Y95171D01*
X32223Y95124D01*
X32152Y95100D01*
X32080D01*
X32009Y95124D01*
X31985Y95148D01*
X31961Y95195D01*
X33180Y95100D02*
X32990Y95600D01*
X32799Y95100D01*
X32871Y95267D02*
X33109D01*
X33678Y95100D02*
X33487Y95600D01*
X33297Y95100D01*
X33368Y95267D02*
X33606D01*
X34544Y95481D02*
X34520Y95528D01*
X34473Y95576D01*
X34425Y95600D01*
X34330D01*
X34282Y95576D01*
X34235Y95528D01*
X34211Y95481D01*
X34187Y95409D01*
Y95290D01*
X34211Y95219D01*
X34235Y95171D01*
X34282Y95124D01*
X34330Y95100D01*
X34425D01*
X34473Y95124D01*
X34520Y95171D01*
X34544Y95219D01*
X34685Y95600D02*
Y95100D01*
Y95338D02*
X34756Y95409D01*
X34804Y95433D01*
X34875D01*
X34923Y95409D01*
X34946Y95338D01*
Y95100D01*
X35363Y95433D02*
Y95100D01*
Y95362D02*
X35315Y95409D01*
X35268Y95433D01*
X35196D01*
X35149Y95409D01*
X35101Y95362D01*
X35077Y95290D01*
Y95243D01*
X35101Y95171D01*
X35149Y95124D01*
X35196Y95100D01*
X35268D01*
X35315Y95124D01*
X35363Y95171D01*
X35496Y95433D02*
Y95100D01*
Y95338D02*
X35568Y95409D01*
X35615Y95433D01*
X35687D01*
X35734Y95409D01*
X35758Y95338D01*
Y95100D01*
X35889Y95433D02*
Y95100D01*
Y95338D02*
X35961Y95409D01*
X36008Y95433D01*
X36080D01*
X36127Y95409D01*
X36151Y95338D01*
Y95100D01*
X36282Y95290D02*
X36568D01*
Y95338D01*
X36544Y95386D01*
X36520Y95409D01*
X36472Y95433D01*
X36401D01*
X36353Y95409D01*
X36306Y95362D01*
X36282Y95290D01*
Y95243D01*
X36306Y95171D01*
X36353Y95124D01*
X36401Y95100D01*
X36472D01*
X36520Y95124D01*
X36568Y95171D01*
X36675Y95600D02*
Y95100D01*
D36*
X52067Y87300D02*
X52400D01*
X52067Y86967D01*
Y86883D01*
X52150Y86800D01*
X52317D01*
X52400Y86883D01*
X52200Y88300D02*
X52033D01*
X52117D01*
Y87800D01*
X52200Y87883D01*
X46800Y88217D02*
X46717Y88300D01*
X46550D01*
X46467Y88217D01*
Y87883D01*
X46550Y87800D01*
X46717D01*
X46800Y87883D01*
Y87967D01*
X46717Y88050D01*
X46467D01*
X46800Y87300D02*
X46633D01*
X46717D01*
Y86800D01*
X46800Y86883D01*
X46383D02*
X46300Y86800D01*
X46134D01*
X46050Y86883D01*
Y87217D01*
X46134Y87300D01*
X46300D01*
X46383Y87217D01*
Y86883D01*
X51967Y59500D02*
X52300D01*
X51967Y59167D01*
Y59083D01*
X52050Y59000D01*
X52217D01*
X52300Y59083D01*
X52100Y60500D02*
X51933D01*
X52017D01*
Y60000D01*
X52100Y60083D01*
X46700Y60417D02*
X46617Y60500D01*
X46450D01*
X46367Y60417D01*
Y60083D01*
X46450Y60000D01*
X46617D01*
X46700Y60083D01*
Y60167D01*
X46617Y60250D01*
X46367D01*
X46700Y59500D02*
X46533D01*
X46617D01*
Y59000D01*
X46700Y59083D01*
X46283D02*
X46200Y59000D01*
X46034D01*
X45950Y59083D01*
Y59417D01*
X46034Y59500D01*
X46200D01*
X46283Y59417D01*
Y59083D01*
X51967Y74000D02*
X52300D01*
X51967Y73667D01*
Y73583D01*
X52050Y73500D01*
X52217D01*
X52300Y73583D01*
X52100Y75000D02*
X51933D01*
X52017D01*
Y74500D01*
X52100Y74583D01*
X46700Y74917D02*
X46617Y75000D01*
X46450D01*
X46367Y74917D01*
Y74583D01*
X46450Y74500D01*
X46617D01*
X46700Y74583D01*
Y74667D01*
X46617Y74750D01*
X46367D01*
X46700Y74000D02*
X46533D01*
X46617D01*
Y73500D01*
X46700Y73583D01*
X46283D02*
X46200Y73500D01*
X46034D01*
X45950Y73583D01*
Y73917D01*
X46034Y74000D01*
X46200D01*
X46283Y73917D01*
Y73583D01*
D50*
X60142Y77669D02*
G03*
X60142Y77669I-49J0D01*
G01*
X60160Y92691D02*
G03*
X60160Y92691I-49J0D01*
G01*
X33242Y50369D02*
G03*
X33242Y50369I-49J0D01*
G01*
X32226Y91785D02*
G03*
X32226Y91785I-49J0D01*
G01*
X67298D02*
G03*
X67298Y91785I-49J0D01*
G01*
X68342Y76469D02*
G03*
X68342Y76469I-49J0D01*
G01*
X43157Y92671D02*
G03*
X43157Y92671I-49J0D01*
G01*
X48688Y92385D02*
G03*
X48688Y92385I-49J0D01*
G01*
X62057Y63643D02*
G03*
X62057Y63643I-49J0D01*
G01*
X59188Y97485D02*
G03*
X59188Y97485I-49J0D01*
G01*
X32226Y63885D02*
G03*
X32226Y63885I-49J0D01*
G01*
X32126Y77885D02*
G03*
X32126Y77885I-49J0D01*
G01*
X62960Y38791D02*
G03*
X62960Y38791I-49J0D01*
G01*
X70098Y37885D02*
G03*
X70098Y37885I-49J0D01*
G01*
X41442Y49169D02*
G03*
X41442Y49169I-49J0D01*
G01*
X48588Y79085D02*
G03*
X48588Y79085I-49J0D01*
G01*
Y64585D02*
G03*
X48588Y64585I-49J0D01*
G01*
X43057Y79371D02*
G03*
X43057Y79371I-49J0D01*
G01*
Y64871D02*
G03*
X43057Y64871I-49J0D01*
G01*
X34957Y39543D02*
G03*
X34957Y39543I-49J0D01*
G01*
D51*
X60851Y77620D02*
G03*
X60949Y77620I49J0D01*
G01*
X61164Y92780D02*
G03*
X61636Y92780I236J0D01*
G01*
X33951Y50320D02*
G03*
X34049Y50320I49J0D01*
G01*
X33056Y91684D02*
G03*
X33344Y91684I144J0D01*
G01*
X68170D02*
G03*
X68630Y91684I230J0D01*
G01*
X69051Y76420D02*
G03*
X69149Y76420I49J0D01*
G01*
X43997Y92504D02*
G03*
X44403Y92504I203J0D01*
G01*
X49557Y92304D02*
G03*
X50043Y92304I243J0D01*
G01*
X62897Y63604D02*
G03*
X63303Y63604I203J0D01*
G01*
X55153Y96790D02*
G03*
X55340Y96790I93J0D01*
G01*
X60057Y97404D02*
G03*
X60543Y97404I243J0D01*
G01*
X33056Y63784D02*
G03*
X33344Y63784I144J0D01*
G01*
X32956Y77784D02*
G03*
X33244Y77784I144J0D01*
G01*
X63964Y38880D02*
G03*
X64436Y38880I236J0D01*
G01*
X70970Y37784D02*
G03*
X71430Y37784I230J0D01*
G01*
X42151Y49120D02*
G03*
X42249Y49120I49J0D01*
G01*
X49457Y79004D02*
G03*
X49943Y79004I243J0D01*
G01*
X49457Y64504D02*
G03*
X49943Y64504I243J0D01*
G01*
X43897Y79204D02*
G03*
X44303Y79204I203J0D01*
G01*
X43897Y64704D02*
G03*
X44303Y64704I203J0D01*
G01*
X35797Y39504D02*
G03*
X36203Y39504I203J0D01*
G01*
X60565Y77620D02*
X60851D01*
X60949D02*
X61235D01*
Y76380D02*
Y77620D01*
X60565Y76380D02*
X61235D01*
X60565D02*
Y77620D01*
X68388Y61876D02*
Y62624D01*
X69412Y61876D02*
Y62624D01*
X68388Y60576D02*
Y61324D01*
X69412Y60576D02*
Y61324D01*
X68388Y60576D02*
X69412D01*
X68388Y62624D02*
X69412D01*
X62109Y90220D02*
Y92780D01*
X60691Y90220D02*
Y92780D01*
Y90220D02*
X62109D01*
X61636Y92780D02*
X62109D01*
X60691D02*
X61164D01*
X64276Y60288D02*
X65024D01*
X64276Y61312D02*
X65024D01*
X65576Y60288D02*
X66324D01*
X65576Y61312D02*
X66324D01*
Y60288D02*
Y61312D01*
X64276Y60288D02*
Y61312D01*
X32157Y37447D02*
X32787D01*
X32157Y38353D02*
X32787D01*
Y37447D02*
Y38353D01*
X31213Y37447D02*
Y38353D01*
Y37447D02*
X31843D01*
X31213Y38353D02*
X31843D01*
X57457Y61547D02*
X58087D01*
X57457Y62453D02*
X58087D01*
Y61547D02*
Y62453D01*
X56513Y61547D02*
Y62453D01*
Y61547D02*
X57143D01*
X56513Y62453D02*
X57143D01*
X34653Y47857D02*
Y48487D01*
X33747Y47857D02*
Y48487D01*
X34653D01*
X33747Y46913D02*
X34653D01*
Y47543D01*
X33747Y46913D02*
Y47543D01*
X33665Y50320D02*
X33951D01*
X34049D02*
X34335D01*
Y49080D02*
Y50320D01*
X33665Y49080D02*
X34335D01*
X33665D02*
Y50320D01*
X31376Y47788D02*
X32124D01*
X31376Y48812D02*
X32124D01*
X32676Y47788D02*
X33424D01*
X32676Y48812D02*
X33424D01*
Y47788D02*
Y48812D01*
X31376Y47788D02*
Y48812D01*
X37912Y48476D02*
Y49224D01*
X36888Y48476D02*
Y49224D01*
X37912Y49776D02*
Y50524D01*
X36888Y49776D02*
Y50524D01*
X37912D01*
X36888Y48476D02*
X37912D01*
X57057Y76747D02*
X57687D01*
X57057Y77653D02*
X57687D01*
Y76747D02*
Y77653D01*
X56113Y76747D02*
Y77653D01*
Y76747D02*
X56743D01*
X56113Y77653D02*
X56743D01*
X46900Y86600D02*
Y88600D01*
X51900Y86600D02*
Y88600D01*
X46900Y86600D02*
X51900D01*
X46900Y88600D02*
X51900D01*
X46800Y58800D02*
Y60800D01*
X51800Y58800D02*
Y60800D01*
X46800Y58800D02*
X51800D01*
X46800Y60800D02*
X51800D01*
X46800Y73300D02*
Y75300D01*
X51800Y73300D02*
Y75300D01*
X46800Y73300D02*
X51800D01*
X46800Y75300D02*
X51800D01*
X34098Y92894D02*
X36106D01*
X34098Y92106D02*
X36106D01*
X34098D02*
Y92894D01*
X32767Y91684D02*
X33056D01*
X33344D02*
X33633D01*
X32767Y89716D02*
X33633D01*
X32767D02*
Y91684D01*
X33633Y89716D02*
Y91684D01*
X30547Y89913D02*
Y90543D01*
X31453Y89913D02*
Y90543D01*
X30547Y89913D02*
X31453D01*
X30547Y91487D02*
X31453D01*
X30547Y90857D02*
Y91487D01*
X31453Y90857D02*
Y91487D01*
X34094Y88706D02*
X36102D01*
X34094Y89494D02*
X36102D01*
Y88706D02*
Y89494D01*
X70347Y90213D02*
Y90843D01*
X71253Y90213D02*
Y90843D01*
X70347Y90213D02*
X71253D01*
X70347Y91787D02*
X71253D01*
X70347Y91157D02*
Y91787D01*
X71253Y91157D02*
Y91787D01*
X68891Y92954D02*
X69462D01*
X68891Y92246D02*
X69462D01*
X68891D02*
Y92954D01*
X70309Y92246D02*
Y92954D01*
X69738D02*
X70309D01*
X69738Y92246D02*
X70309D01*
X67711Y91684D02*
X68170D01*
X68630D02*
X69089D01*
X67711Y89716D02*
X69089D01*
X67711D02*
Y91684D01*
X69089Y89716D02*
Y91684D01*
X67957Y92047D02*
X68587D01*
X67957Y92953D02*
X68587D01*
Y92047D02*
Y92953D01*
X67013Y92047D02*
Y92953D01*
Y92047D02*
X67643D01*
X67013Y92953D02*
X67643D01*
X66157Y92047D02*
X66787D01*
X66157Y92953D02*
X66787D01*
Y92047D02*
Y92953D01*
X65213Y92047D02*
Y92953D01*
Y92047D02*
X65843D01*
X65213Y92953D02*
X65843D01*
X66138Y90946D02*
X66709D01*
X66138Y91654D02*
X66709D01*
Y90946D02*
Y91654D01*
X65291Y90946D02*
Y91654D01*
Y90946D02*
X65862D01*
X65291Y91654D02*
X65862D01*
X64357Y92047D02*
X64987D01*
X64357Y92953D02*
X64987D01*
Y92047D02*
Y92953D01*
X63413Y92047D02*
Y92953D01*
Y92047D02*
X64043D01*
X63413Y92953D02*
X64043D01*
X56957Y91247D02*
X57587D01*
X56957Y92153D02*
X57587D01*
Y91247D02*
Y92153D01*
X56013Y91247D02*
Y92153D01*
Y91247D02*
X56643D01*
X56013Y92153D02*
X56643D01*
X64357Y90847D02*
X64987D01*
X64357Y91753D02*
X64987D01*
Y90847D02*
Y91753D01*
X63413Y90847D02*
Y91753D01*
Y90847D02*
X64043D01*
X63413Y91753D02*
X64043D01*
X58757Y91247D02*
X59387D01*
X58757Y92153D02*
X59387D01*
Y91247D02*
Y92153D01*
X57813Y91247D02*
Y92153D01*
Y91247D02*
X58443D01*
X57813Y92153D02*
X58443D01*
X58757Y90047D02*
X59387D01*
X58757Y90953D02*
X59387D01*
Y90047D02*
Y90953D01*
X57813Y90047D02*
Y90953D01*
Y90047D02*
X58443D01*
X57813Y90953D02*
X58443D01*
X61557Y89047D02*
X62187D01*
X61557Y89953D02*
X62187D01*
Y89047D02*
Y89953D01*
X60613Y89047D02*
Y89953D01*
Y89047D02*
X61243D01*
X60613Y89953D02*
X61243D01*
X67400Y72500D02*
Y73500D01*
X65400Y72500D02*
X67400D01*
X65400D02*
Y73500D01*
X67400D01*
Y73900D02*
Y74900D01*
X65400Y73900D02*
X67400D01*
X65400D02*
Y74900D01*
X67400D01*
X60000Y78100D02*
X61000D01*
X60000D02*
Y80100D01*
X61000D01*
Y78100D02*
Y80100D01*
X60200Y73500D02*
Y74500D01*
X58200Y73500D02*
X60200D01*
X58200D02*
Y74500D01*
X60200D01*
X57913Y79053D02*
X58543D01*
X57913Y78147D02*
X58543D01*
X57913D02*
Y79053D01*
X59487Y78147D02*
Y79053D01*
X58857D02*
X59487D01*
X58857Y78147D02*
X59487D01*
X62447Y76213D02*
Y76843D01*
X63353Y76213D02*
Y76843D01*
X62447Y76213D02*
X63353D01*
X62447Y77787D02*
X63353D01*
X62447Y77157D02*
Y77787D01*
X63353Y77157D02*
Y77787D01*
X66313Y79253D02*
X66943D01*
X66313Y78347D02*
X66943D01*
X66313D02*
Y79253D01*
X67887Y78347D02*
Y79253D01*
X67257D02*
X67887D01*
X67257Y78347D02*
X67887D01*
X70647Y75013D02*
Y75643D01*
X71553Y75013D02*
Y75643D01*
X70647Y75013D02*
X71553D01*
X70647Y76587D02*
X71553D01*
X70647Y75957D02*
Y76587D01*
X71553Y75957D02*
Y76587D01*
X58276Y75088D02*
X59024D01*
X58276Y76112D02*
X59024D01*
X59576Y75088D02*
X60324D01*
X59576Y76112D02*
X60324D01*
Y75088D02*
Y76112D01*
X58276Y75088D02*
Y76112D01*
X64812Y75776D02*
Y76524D01*
X63788Y75776D02*
Y76524D01*
X64812Y77076D02*
Y77824D01*
X63788Y77076D02*
Y77824D01*
X64812D01*
X63788Y75776D02*
X64812D01*
X67076Y76888D02*
X67824D01*
X67076Y77912D02*
X67824D01*
X68376Y76888D02*
X69124D01*
X68376Y77912D02*
X69124D01*
Y76888D02*
Y77912D01*
X67076Y76888D02*
Y77912D01*
X71176D02*
X71924D01*
X71176Y76888D02*
X71924D01*
X69876Y77912D02*
X70624D01*
X69876Y76888D02*
X70624D01*
X69876D02*
Y77912D01*
X71924Y76888D02*
Y77912D01*
X58857Y76747D02*
X59487D01*
X58857Y77653D02*
X59487D01*
Y76747D02*
Y77653D01*
X57913Y76747D02*
Y77653D01*
Y76747D02*
X58543D01*
X57913Y77653D02*
X58543D01*
X62857Y74947D02*
X63487D01*
X62857Y75853D02*
X63487D01*
Y74947D02*
Y75853D01*
X61913Y74947D02*
Y75853D01*
Y74947D02*
X62543D01*
X61913Y75853D02*
X62543D01*
X60647Y74213D02*
Y74843D01*
X61553Y74213D02*
Y74843D01*
X60647Y74213D02*
X61553D01*
X60647Y75787D02*
X61553D01*
X60647Y75157D02*
Y75787D01*
X61553Y75157D02*
Y75787D01*
X68765Y76420D02*
X69051D01*
X69149D02*
X69435D01*
Y75180D02*
Y76420D01*
X68765Y75180D02*
X69435D01*
X68765D02*
Y76420D01*
X66857Y75547D02*
X67487D01*
X66857Y76453D02*
X67487D01*
Y75547D02*
Y76453D01*
X65913Y75547D02*
Y76453D01*
Y75547D02*
X66543D01*
X65913Y76453D02*
X66543D01*
X66057Y76947D02*
X66687D01*
X66057Y77853D02*
X66687D01*
Y76947D02*
Y77853D01*
X65113Y76947D02*
Y77853D01*
Y76947D02*
X65743D01*
X65113Y77853D02*
X65743D01*
X70457Y73948D02*
X71087D01*
X70457Y74853D02*
X71087D01*
Y73948D02*
Y74853D01*
X69513Y73948D02*
Y74853D01*
Y73948D02*
X70143D01*
X69513Y74853D02*
X70143D01*
X68657Y73947D02*
X69287D01*
X68657Y74853D02*
X69287D01*
Y73947D02*
Y74853D01*
X67713Y73947D02*
Y74853D01*
Y73947D02*
X68343D01*
X67713Y74853D02*
X68343D01*
X56988Y75876D02*
Y76624D01*
X58012Y75876D02*
Y76624D01*
X56988Y74576D02*
Y75324D01*
X58012Y74576D02*
Y75324D01*
X56988Y74576D02*
X58012D01*
X56988Y76624D02*
X58012D01*
X61676Y73488D02*
X62424D01*
X61676Y74512D02*
X62424D01*
X62976Y73488D02*
X63724D01*
X62976Y74512D02*
X63724D01*
Y73488D02*
Y74512D01*
X61676Y73488D02*
Y74512D01*
X63988Y74876D02*
Y75624D01*
X65012Y74876D02*
Y75624D01*
X63988Y73576D02*
Y74324D01*
X65012Y73576D02*
Y74324D01*
X63988Y73576D02*
X65012D01*
X63988Y75624D02*
X65012D01*
X69576Y73512D02*
X70324D01*
X69576Y72488D02*
X70324D01*
X68276Y73512D02*
X69024D01*
X68276Y72488D02*
X69024D01*
X68276D02*
Y73512D01*
X70324Y72488D02*
Y73512D01*
X74000Y72500D02*
Y73500D01*
X71000Y72500D02*
X74000D01*
X71000D02*
Y73500D01*
X74000D01*
X61771Y78235D02*
Y80165D01*
Y78235D02*
X65432D01*
X61771Y80165D02*
X65432D01*
X68971Y78235D02*
Y80165D01*
Y78235D02*
X72632D01*
X68971Y80165D02*
X72632D01*
X72135Y74071D02*
X74065D01*
Y77732D01*
X72135Y74071D02*
Y77732D01*
X60371Y71235D02*
Y73165D01*
Y71235D02*
X64032D01*
X60371Y73165D02*
X64032D01*
X46291Y91254D02*
X46862D01*
X46291Y90546D02*
X46862D01*
X46291D02*
Y91254D01*
X47709Y90546D02*
Y91254D01*
X47138D02*
X47709D01*
X47138Y90546D02*
X47709D01*
X46291Y92254D02*
X46862D01*
X46291Y91546D02*
X46862D01*
X46291D02*
Y92254D01*
X47709Y91546D02*
Y92254D01*
X47138D02*
X47709D01*
X47138Y91546D02*
X47709D01*
X43590Y92504D02*
X43997D01*
X44403D02*
X44810D01*
X43590Y90496D02*
X44810D01*
X43590D02*
Y92504D01*
X44810Y90496D02*
Y92504D01*
X46291Y93254D02*
X46862D01*
X46291Y92546D02*
X46862D01*
X46291D02*
Y93254D01*
X47709Y92546D02*
Y93254D01*
X47138D02*
X47709D01*
X47138Y92546D02*
X47709D01*
X46291Y90254D02*
X46862D01*
X46291Y89546D02*
X46862D01*
X46291D02*
Y90254D01*
X47709Y89546D02*
Y90254D01*
X47138D02*
X47709D01*
X47138Y89546D02*
X47709D01*
X49072Y92304D02*
X49557D01*
X50043D02*
X50528D01*
X49072Y90296D02*
X50528D01*
X49072D02*
Y92304D01*
X50528Y90296D02*
Y92304D01*
X41738Y92746D02*
X42309D01*
X41738Y93454D02*
X42309D01*
Y92746D02*
Y93454D01*
X40891Y92746D02*
Y93454D01*
Y92746D02*
X41462D01*
X40891Y93454D02*
X41462D01*
X38891Y90454D02*
X39462D01*
X38891Y89746D02*
X39462D01*
X38891D02*
Y90454D01*
X40309Y89746D02*
Y90454D01*
X39738D02*
X40309D01*
X39738Y89746D02*
X40309D01*
X41738D02*
X42309D01*
X41738Y90454D02*
X42309D01*
Y89746D02*
Y90454D01*
X40891Y89746D02*
Y90454D01*
Y89746D02*
X41462D01*
X40891Y90454D02*
X41462D01*
X38891Y92454D02*
X39462D01*
X38891Y91746D02*
X39462D01*
X38891D02*
Y92454D01*
X40309Y91746D02*
Y92454D01*
X39738D02*
X40309D01*
X39738Y91746D02*
X40309D01*
X41738D02*
X42309D01*
X41738Y92454D02*
X42309D01*
Y91746D02*
Y92454D01*
X40891Y91746D02*
Y92454D01*
Y91746D02*
X41462D01*
X40891Y92454D02*
X41462D01*
X51894Y92106D02*
X53902D01*
X51894Y92894D02*
X53902D01*
Y92106D02*
Y92894D01*
X38891Y91454D02*
X39462D01*
X38891Y90746D02*
X39462D01*
X38891D02*
Y91454D01*
X40309Y90746D02*
Y91454D01*
X39738D02*
X40309D01*
X39738Y90746D02*
X40309D01*
X41738D02*
X42309D01*
X41738Y91454D02*
X42309D01*
Y90746D02*
Y91454D01*
X40891Y90746D02*
Y91454D01*
Y90746D02*
X41462D01*
X40891Y91454D02*
X41462D01*
X51894Y89706D02*
X53902D01*
X51894Y90494D02*
X53902D01*
Y89706D02*
Y90494D01*
X46147Y84813D02*
Y85443D01*
X47053Y84813D02*
Y85443D01*
X46147Y84813D02*
X47053D01*
X46147Y86387D02*
X47053D01*
X46147Y85757D02*
Y86387D01*
X47053Y85757D02*
Y86387D01*
X47547Y84813D02*
Y85443D01*
X48453Y84813D02*
Y85443D01*
X47547Y84813D02*
X48453D01*
X47547Y86387D02*
X48453D01*
X47547Y85757D02*
Y86387D01*
X48453Y85757D02*
Y86387D01*
X48947Y84813D02*
Y85443D01*
X49853Y84813D02*
Y85443D01*
X48947Y84813D02*
X49853D01*
X48947Y86387D02*
X49853D01*
X48947Y85757D02*
Y86387D01*
X49853Y85757D02*
Y86387D01*
X50347Y84813D02*
Y85443D01*
X51253Y84813D02*
Y85443D01*
X50347Y84813D02*
X51253D01*
X50347Y86387D02*
X51253D01*
X50347Y85757D02*
Y86387D01*
X51253Y85757D02*
Y86387D01*
X51747Y84813D02*
Y85443D01*
X52653Y84813D02*
Y85443D01*
X51747Y84813D02*
X52653D01*
X51747Y86387D02*
X52653D01*
X51747Y85757D02*
Y86387D01*
X52653Y85757D02*
Y86387D01*
X58513Y65053D02*
X59143D01*
X58513Y64147D02*
X59143D01*
X58513D02*
Y65053D01*
X60087Y64147D02*
Y65053D01*
X59457D02*
X60087D01*
X59457Y64147D02*
X60087D01*
X62113Y59853D02*
X62743D01*
X62113Y58947D02*
X62743D01*
X62113D02*
Y59853D01*
X63687Y58947D02*
Y59853D01*
X63057D02*
X63687D01*
X63057Y58947D02*
X63687D01*
X67457Y60347D02*
X68087D01*
X67457Y61253D02*
X68087D01*
Y60347D02*
Y61253D01*
X66513Y60347D02*
Y61253D01*
Y60347D02*
X67143D01*
X66513Y61253D02*
X67143D01*
X65257Y65747D02*
X65887D01*
X65257Y66653D02*
X65887D01*
Y65747D02*
Y66653D01*
X64313Y65747D02*
Y66653D01*
Y65747D02*
X64943D01*
X64313Y66653D02*
X64943D01*
X59076Y62688D02*
X59824D01*
X59076Y63712D02*
X59824D01*
X60376Y62688D02*
X61124D01*
X60376Y63712D02*
X61124D01*
Y62688D02*
Y63712D01*
X59076Y62688D02*
Y63712D01*
X62076Y60288D02*
X62824D01*
X62076Y61312D02*
X62824D01*
X63376Y60288D02*
X64124D01*
X63376Y61312D02*
X64124D01*
Y60288D02*
Y61312D01*
X62076Y60288D02*
Y61312D01*
X65376Y65312D02*
X66124D01*
X65376Y64288D02*
X66124D01*
X64076Y65312D02*
X64824D01*
X64076Y64288D02*
X64824D01*
X64076D02*
Y65312D01*
X66124Y64288D02*
Y65312D01*
X62490Y63604D02*
X62897D01*
X63303D02*
X63710D01*
X62490Y61596D02*
X63710D01*
X62490D02*
Y63604D01*
X63710Y61596D02*
Y63604D01*
X59257Y61547D02*
X59887D01*
X59257Y62453D02*
X59887D01*
Y61547D02*
Y62453D01*
X58313Y61547D02*
Y62453D01*
Y61547D02*
X58943D01*
X58313Y62453D02*
X58943D01*
X61257Y59347D02*
X61887D01*
X61257Y60253D02*
X61887D01*
Y59347D02*
Y60253D01*
X60313Y59347D02*
Y60253D01*
Y59347D02*
X60943D01*
X60313Y60253D02*
X60943D01*
X60247Y60613D02*
Y61243D01*
X61153Y60613D02*
Y61243D01*
X60247Y60613D02*
X61153D01*
X60247Y62187D02*
X61153D01*
X60247Y61557D02*
Y62187D01*
X61153Y61557D02*
Y62187D01*
X65313Y62653D02*
X65943D01*
X65313Y61747D02*
X65943D01*
X65313D02*
Y62653D01*
X66887Y61747D02*
Y62653D01*
X66257D02*
X66887D01*
X66257Y61747D02*
X66887D01*
X64857Y58947D02*
X65487D01*
X64857Y59853D02*
X65487D01*
Y58947D02*
Y59853D01*
X63913Y58947D02*
Y59853D01*
Y58947D02*
X64543D01*
X63913Y59853D02*
X64543D01*
X65313Y64053D02*
X65943D01*
X65313Y63147D02*
X65943D01*
X65313D02*
Y64053D01*
X66887Y63147D02*
Y64053D01*
X66257D02*
X66887D01*
X66257Y63147D02*
X66887D01*
X68153Y63157D02*
Y63787D01*
X67247Y63157D02*
Y63787D01*
X68153D01*
X67247Y62213D02*
X68153D01*
Y62843D01*
X67247Y62213D02*
Y62843D01*
X58376Y61112D02*
X59124D01*
X58376Y60088D02*
X59124D01*
X57076Y61112D02*
X57824D01*
X57076Y60088D02*
X57824D01*
X57076D02*
Y61112D01*
X59124Y60088D02*
Y61112D01*
X59376Y59712D02*
X60124D01*
X59376Y58688D02*
X60124D01*
X58076Y59712D02*
X58824D01*
X58076Y58688D02*
X58824D01*
X58076D02*
Y59712D01*
X60124Y58688D02*
Y59712D01*
X65676Y58888D02*
X66424D01*
X65676Y59912D02*
X66424D01*
X66976Y58888D02*
X67724D01*
X66976Y59912D02*
X67724D01*
Y58888D02*
Y59912D01*
X65676Y58888D02*
Y59912D01*
X67200Y64100D02*
X68200D01*
X67200D02*
Y67100D01*
X68200D01*
Y64100D02*
Y67100D01*
X60771Y56635D02*
Y58565D01*
Y56635D02*
X64432D01*
X60771Y58565D02*
X64432D01*
X60171Y64435D02*
Y66365D01*
Y64435D02*
X63832D01*
X60171Y66365D02*
X63832D01*
X55030Y95660D02*
Y96782D01*
Y95670D02*
X55470D01*
Y95658D02*
Y96780D01*
X55400Y96790D02*
X55468D01*
X55030D02*
X55098D01*
X55476Y97488D02*
Y98512D01*
X57524Y97488D02*
Y98512D01*
X56776D02*
X57524D01*
X56776Y97488D02*
X57524D01*
X55476Y98512D02*
X56224D01*
X55476Y97488D02*
X56224D01*
X53591Y97954D02*
X54162D01*
X53591Y97246D02*
X54162D01*
X53591D02*
Y97954D01*
X55009Y97246D02*
Y97954D01*
X54438D02*
X55009D01*
X54438Y97246D02*
X55009D01*
X59572Y97404D02*
X60057D01*
X60543D02*
X61028D01*
X59572Y95396D02*
X61028D01*
X59572D02*
Y97404D01*
X61028Y95396D02*
Y97404D01*
X56788Y96824D02*
X57812D01*
X56788Y94776D02*
X57812D01*
Y95524D01*
X56788Y94776D02*
Y95524D01*
X57812Y96076D02*
Y96824D01*
X56788Y96076D02*
Y96824D01*
X32767Y63784D02*
X33056D01*
X33344D02*
X33633D01*
X32767Y61816D02*
X33633D01*
X32767D02*
Y63784D01*
X33633Y61816D02*
Y63784D01*
X32667Y77784D02*
X32956D01*
X33244D02*
X33533D01*
X32667Y75816D02*
X33533D01*
X32667D02*
Y77784D01*
X33533Y75816D02*
Y77784D01*
X64909Y36320D02*
Y38880D01*
X63491Y36320D02*
Y38880D01*
Y36320D02*
X64909D01*
X64436Y38880D02*
X64909D01*
X63491D02*
X63964D01*
X70511Y37784D02*
X70970D01*
X71430D02*
X71889D01*
X70511Y35816D02*
X71889D01*
X70511D02*
Y37784D01*
X71889Y35816D02*
Y37784D01*
X41865Y49120D02*
X42151D01*
X42249D02*
X42535D01*
Y47880D02*
Y49120D01*
X41865Y47880D02*
X42535D01*
X41865D02*
Y49120D01*
X48972Y79004D02*
X49457D01*
X49943D02*
X50428D01*
X48972Y76996D02*
X50428D01*
X48972D02*
Y79004D01*
X50428Y76996D02*
Y79004D01*
X48972Y64504D02*
X49457D01*
X49943D02*
X50428D01*
X48972Y62496D02*
X50428D01*
X48972D02*
Y64504D01*
X50428Y62496D02*
Y64504D01*
X43490Y79204D02*
X43897D01*
X44303D02*
X44710D01*
X43490Y77196D02*
X44710D01*
X43490D02*
Y79204D01*
X44710Y77196D02*
Y79204D01*
X43490Y64704D02*
X43897D01*
X44303D02*
X44710D01*
X43490Y62696D02*
X44710D01*
X43490D02*
Y64704D01*
X44710Y62696D02*
Y64704D01*
X35390Y39504D02*
X35797D01*
X36203D02*
X36610D01*
X35390Y37496D02*
X36610D01*
X35390D02*
Y39504D01*
X36610Y37496D02*
Y39504D01*
X30547Y62013D02*
Y62643D01*
X31453Y62013D02*
Y62643D01*
X30547Y62013D02*
X31453D01*
X30547Y63587D02*
X31453D01*
X30547Y62957D02*
Y63587D01*
X31453Y62957D02*
Y63587D01*
X30447Y76013D02*
Y76643D01*
X31353Y76013D02*
Y76643D01*
X30447Y76013D02*
X31353D01*
X30447Y77587D02*
X31353D01*
X30447Y76957D02*
Y77587D01*
X31353Y76957D02*
Y77587D01*
X64357Y35147D02*
X64987D01*
X64357Y36053D02*
X64987D01*
Y35147D02*
Y36053D01*
X63413Y35147D02*
Y36053D01*
Y35147D02*
X64043D01*
X63413Y36053D02*
X64043D01*
X61557Y36147D02*
X62187D01*
X61557Y37053D02*
X62187D01*
Y36147D02*
Y37053D01*
X60613Y36147D02*
Y37053D01*
Y36147D02*
X61243D01*
X60613Y37053D02*
X61243D01*
X67157Y36947D02*
X67787D01*
X67157Y37853D02*
X67787D01*
Y36947D02*
Y37853D01*
X66213Y36947D02*
Y37853D01*
Y36947D02*
X66843D01*
X66213Y37853D02*
X66843D01*
X61557Y37347D02*
X62187D01*
X61557Y38253D02*
X62187D01*
Y37347D02*
Y38253D01*
X60613Y37347D02*
Y38253D01*
Y37347D02*
X61243D01*
X60613Y38253D02*
X61243D01*
X67157Y38147D02*
X67787D01*
X67157Y39053D02*
X67787D01*
Y38147D02*
Y39053D01*
X66213Y38147D02*
Y39053D01*
Y38147D02*
X66843D01*
X66213Y39053D02*
X66843D01*
X59757Y37347D02*
X60387D01*
X59757Y38253D02*
X60387D01*
Y37347D02*
Y38253D01*
X58813Y37347D02*
Y38253D01*
Y37347D02*
X59443D01*
X58813Y38253D02*
X59443D01*
X70757Y38147D02*
X71387D01*
X70757Y39053D02*
X71387D01*
Y38147D02*
Y39053D01*
X69813Y38147D02*
Y39053D01*
Y38147D02*
X70443D01*
X69813Y39053D02*
X70443D01*
X68957Y38147D02*
X69587D01*
X68957Y39053D02*
X69587D01*
Y38147D02*
Y39053D01*
X68013Y38147D02*
Y39053D01*
Y38147D02*
X68643D01*
X68013Y39053D02*
X68643D01*
X73147Y36313D02*
Y36943D01*
X74053Y36313D02*
Y36943D01*
X73147Y36313D02*
X74053D01*
X73147Y37887D02*
X74053D01*
X73147Y37257D02*
Y37887D01*
X74053Y37257D02*
Y37887D01*
X43557Y46647D02*
X44187D01*
X43557Y47553D02*
X44187D01*
Y46647D02*
Y47553D01*
X42613Y46647D02*
Y47553D01*
Y46647D02*
X43243D01*
X42613Y47553D02*
X43243D01*
X41757Y46647D02*
X42387D01*
X41757Y47553D02*
X42387D01*
Y46647D02*
Y47553D01*
X40813Y46647D02*
Y47553D01*
Y46647D02*
X41443D01*
X40813Y47553D02*
X41443D01*
X39957Y48247D02*
X40587D01*
X39957Y49153D02*
X40587D01*
Y48247D02*
Y49153D01*
X39013Y48247D02*
Y49153D01*
Y48247D02*
X39643D01*
X39013Y49153D02*
X39643D01*
X39157Y49647D02*
X39787D01*
X39157Y50553D02*
X39787D01*
Y49647D02*
Y50553D01*
X38213Y49647D02*
Y50553D01*
Y49647D02*
X38843D01*
X38213Y50553D02*
X38843D01*
X35957Y47647D02*
X36587D01*
X35957Y48553D02*
X36587D01*
Y47647D02*
Y48553D01*
X35013Y47647D02*
Y48553D01*
Y47647D02*
X35643D01*
X35013Y48553D02*
X35643D01*
X31957Y49447D02*
X32587D01*
X31957Y50353D02*
X32587D01*
Y49447D02*
Y50353D01*
X31013Y49447D02*
Y50353D01*
Y49447D02*
X31643D01*
X31013Y50353D02*
X31643D01*
X30157Y49447D02*
X30787D01*
X30157Y50353D02*
X30787D01*
Y49447D02*
Y50353D01*
X29213Y49447D02*
Y50353D01*
Y49447D02*
X29843D01*
X29213Y50353D02*
X29843D01*
X43747Y47713D02*
Y48343D01*
X44653Y47713D02*
Y48343D01*
X43747Y47713D02*
X44653D01*
X43747Y49287D02*
X44653D01*
X43747Y48657D02*
Y49287D01*
X44653Y48657D02*
Y49287D01*
X39413Y51953D02*
X40043D01*
X39413Y51047D02*
X40043D01*
X39413D02*
Y51953D01*
X40987Y51047D02*
Y51953D01*
X40357D02*
X40987D01*
X40357Y51047D02*
X40987D01*
X35547Y48913D02*
Y49543D01*
X36453Y48913D02*
Y49543D01*
X35547Y48913D02*
X36453D01*
X35547Y50487D02*
X36453D01*
X35547Y49857D02*
Y50487D01*
X36453Y49857D02*
Y50487D01*
X31013Y51753D02*
X31643D01*
X31013Y50847D02*
X31643D01*
X31013D02*
Y51753D01*
X32587Y50847D02*
Y51753D01*
X31957D02*
X32587D01*
X31957Y50847D02*
X32587D01*
X46047Y71513D02*
Y72143D01*
X46953Y71513D02*
Y72143D01*
X46047Y71513D02*
X46953D01*
X46047Y73087D02*
X46953D01*
X46047Y72457D02*
Y73087D01*
X46953Y72457D02*
Y73087D01*
X46046Y57013D02*
Y57643D01*
X46951Y57013D02*
Y57643D01*
X46046Y57013D02*
X46951D01*
X46046Y58587D02*
X46951D01*
X46046Y57957D02*
Y58587D01*
X46951Y57957D02*
Y58587D01*
X47447Y71513D02*
Y72143D01*
X48353Y71513D02*
Y72143D01*
X47447Y71513D02*
X48353D01*
X47447Y73087D02*
X48353D01*
X47447Y72457D02*
Y73087D01*
X48353Y72457D02*
Y73087D01*
X47448Y57013D02*
Y57643D01*
X48354Y57013D02*
Y57643D01*
X47448Y57013D02*
X48354D01*
X47448Y58587D02*
X48354D01*
X47448Y57957D02*
Y58587D01*
X48354Y57957D02*
Y58587D01*
X48847Y71513D02*
Y72143D01*
X49753Y71513D02*
Y72143D01*
X48847Y71513D02*
X49753D01*
X48847Y73087D02*
X49753D01*
X48847Y72457D02*
Y73087D01*
X49753Y72457D02*
Y73087D01*
X48846Y57013D02*
Y57643D01*
X49751Y57013D02*
Y57643D01*
X48846Y57013D02*
X49751D01*
X48846Y58587D02*
X49751D01*
X48846Y57957D02*
Y58587D01*
X49751Y57957D02*
Y58587D01*
X50247Y71513D02*
Y72143D01*
X51153Y71513D02*
Y72143D01*
X50247Y71513D02*
X51153D01*
X50247Y73087D02*
X51153D01*
X50247Y72457D02*
Y73087D01*
X51153Y72457D02*
Y73087D01*
X50246Y57013D02*
Y57643D01*
X51151Y57013D02*
Y57643D01*
X50246Y57013D02*
X51151D01*
X50246Y58587D02*
X51151D01*
X50246Y57957D02*
Y58587D01*
X51151Y57957D02*
Y58587D01*
X51647Y71513D02*
Y72143D01*
X52553Y71513D02*
Y72143D01*
X51647Y71513D02*
X52553D01*
X51647Y73087D02*
X52553D01*
X51647Y72457D02*
Y73087D01*
X52553Y72457D02*
Y73087D01*
X51649Y57013D02*
Y57643D01*
X52554Y57013D02*
Y57643D01*
X51649Y57013D02*
X52554D01*
X51649Y58587D02*
X52554D01*
X51649Y57957D02*
Y58587D01*
X52554Y57957D02*
Y58587D01*
X41638Y77446D02*
X42209D01*
X41638Y78154D02*
X42209D01*
Y77446D02*
Y78154D01*
X40791Y77446D02*
Y78154D01*
Y77446D02*
X41362D01*
X40791Y78154D02*
X41362D01*
X41638Y62946D02*
X42209D01*
X41638Y63654D02*
X42209D01*
Y62946D02*
Y63654D01*
X40791Y62946D02*
Y63654D01*
Y62946D02*
X41362D01*
X40791Y63654D02*
X41362D01*
X41638Y78446D02*
X42209D01*
X41638Y79154D02*
X42209D01*
Y78446D02*
Y79154D01*
X40791Y78446D02*
Y79154D01*
Y78446D02*
X41362D01*
X40791Y79154D02*
X41362D01*
X41638Y63946D02*
X42209D01*
X41638Y64654D02*
X42209D01*
Y63946D02*
Y64654D01*
X40791Y63946D02*
Y64654D01*
Y63946D02*
X41362D01*
X40791Y64654D02*
X41362D01*
X41638Y76446D02*
X42209D01*
X41638Y77154D02*
X42209D01*
Y76446D02*
Y77154D01*
X40791Y76446D02*
Y77154D01*
Y76446D02*
X41362D01*
X40791Y77154D02*
X41362D01*
X41638Y61946D02*
X42209D01*
X41638Y62654D02*
X42209D01*
Y61946D02*
Y62654D01*
X40791Y61946D02*
Y62654D01*
Y61946D02*
X41362D01*
X40791Y62654D02*
X41362D01*
X41638Y79446D02*
X42209D01*
X41638Y80154D02*
X42209D01*
Y79446D02*
Y80154D01*
X40791Y79446D02*
Y80154D01*
Y79446D02*
X41362D01*
X40791Y80154D02*
X41362D01*
X41638Y64946D02*
X42209D01*
X41638Y65654D02*
X42209D01*
Y64946D02*
Y65654D01*
X40791Y64946D02*
Y65654D01*
Y64946D02*
X41362D01*
X40791Y65654D02*
X41362D01*
X46191Y76954D02*
X46762D01*
X46191Y76246D02*
X46762D01*
X46191D02*
Y76954D01*
X47609Y76246D02*
Y76954D01*
X47038D02*
X47609D01*
X47038Y76246D02*
X47609D01*
X46191Y62454D02*
X46762D01*
X46191Y61746D02*
X46762D01*
X46191D02*
Y62454D01*
X47609Y61746D02*
Y62454D01*
X47038D02*
X47609D01*
X47038Y61746D02*
X47609D01*
X46191Y79954D02*
X46762D01*
X46191Y79246D02*
X46762D01*
X46191D02*
Y79954D01*
X47609Y79246D02*
Y79954D01*
X47038D02*
X47609D01*
X47038Y79246D02*
X47609D01*
X46191Y65454D02*
X46762D01*
X46191Y64746D02*
X46762D01*
X46191D02*
Y65454D01*
X47609Y64746D02*
Y65454D01*
X47038D02*
X47609D01*
X47038Y64746D02*
X47609D01*
X46191Y78954D02*
X46762D01*
X46191Y78246D02*
X46762D01*
X46191D02*
Y78954D01*
X47609Y78246D02*
Y78954D01*
X47038D02*
X47609D01*
X47038Y78246D02*
X47609D01*
X46191Y64454D02*
X46762D01*
X46191Y63746D02*
X46762D01*
X46191D02*
Y64454D01*
X47609Y63746D02*
Y64454D01*
X47038D02*
X47609D01*
X47038Y63746D02*
X47609D01*
X46191Y77954D02*
X46762D01*
X46191Y77246D02*
X46762D01*
X46191D02*
Y77954D01*
X47609Y77246D02*
Y77954D01*
X47038D02*
X47609D01*
X47038Y77246D02*
X47609D01*
X46191Y63454D02*
X46762D01*
X46191Y62746D02*
X46762D01*
X46191D02*
Y63454D01*
X47609Y62746D02*
Y63454D01*
X47038D02*
X47609D01*
X47038Y62746D02*
X47609D01*
X38213Y39953D02*
X38843D01*
X38213Y39048D02*
X38843D01*
X38213D02*
Y39953D01*
X39787Y39048D02*
Y39953D01*
X39157D02*
X39787D01*
X39157Y39048D02*
X39787D01*
X41054Y39057D02*
Y39687D01*
X40148Y39057D02*
Y39687D01*
X41054D01*
X40148Y38113D02*
X41054D01*
Y38743D01*
X40148Y38113D02*
Y38743D01*
X38213Y38553D02*
X38843D01*
X38213Y37648D02*
X38843D01*
X38213D02*
Y38553D01*
X39787Y37648D02*
Y38553D01*
X39157D02*
X39787D01*
X39157Y37648D02*
X39787D01*
X37757Y34847D02*
X38387D01*
X37757Y35753D02*
X38387D01*
Y34847D02*
Y35753D01*
X36813Y34847D02*
Y35753D01*
Y34847D02*
X37443D01*
X36813Y35753D02*
X37443D01*
X34157Y35247D02*
X34787D01*
X34157Y36153D02*
X34787D01*
Y35247D02*
Y36153D01*
X33213Y35247D02*
Y36153D01*
Y35247D02*
X33843D01*
X33213Y36153D02*
X33843D01*
X33148Y36513D02*
Y37143D01*
X34053Y36513D02*
Y37143D01*
X33148Y36513D02*
X34053D01*
X33148Y38087D02*
X34053D01*
X33148Y37457D02*
Y38087D01*
X34053Y37457D02*
Y38087D01*
X30357Y37447D02*
X30987D01*
X30357Y38353D02*
X30987D01*
Y37447D02*
Y38353D01*
X29413Y37447D02*
Y38353D01*
Y37447D02*
X30043D01*
X29413Y38353D02*
X30043D01*
X38157Y41647D02*
X38787D01*
X38157Y42553D02*
X38787D01*
Y41647D02*
Y42553D01*
X37213Y41647D02*
Y42553D01*
Y41647D02*
X37843D01*
X37213Y42553D02*
X37843D01*
X40357Y36247D02*
X40987D01*
X40357Y37153D02*
X40987D01*
Y36247D02*
Y37153D01*
X39413Y36247D02*
Y37153D01*
Y36247D02*
X40043D01*
X39413Y37153D02*
X40043D01*
X35013Y35753D02*
X35643D01*
X35013Y34848D02*
X35643D01*
X35013D02*
Y35753D01*
X36587Y34848D02*
Y35753D01*
X35957D02*
X36587D01*
X35957Y34848D02*
X36587D01*
X31413Y40954D02*
X32043D01*
X31413Y40048D02*
X32043D01*
X31413D02*
Y40954D01*
X32987Y40048D02*
Y40954D01*
X32357D02*
X32987D01*
X32357Y40048D02*
X32987D01*
X40500Y45200D02*
Y46200D01*
X38500Y45200D02*
X40500D01*
X38500D02*
Y46200D01*
X40500D01*
Y46600D02*
Y47600D01*
X38500Y46600D02*
X40500D01*
X38500D02*
Y47600D01*
X40500D01*
X33100Y50800D02*
X34100D01*
X33100D02*
Y52800D01*
X34100D01*
Y50800D02*
Y52800D01*
X33300Y46200D02*
Y47200D01*
X31300Y46200D02*
X33300D01*
X31300D02*
Y47200D01*
X33300D01*
X47100Y45200D02*
Y46200D01*
X44100Y45200D02*
X47100D01*
X44100D02*
Y46200D01*
X47100D01*
X40100Y40000D02*
X41100D01*
X40100D02*
Y43000D01*
X41100D01*
Y40000D02*
Y43000D01*
X34094Y60806D02*
X36102D01*
X34094Y61594D02*
X36102D01*
Y60806D02*
Y61594D01*
X33994Y74806D02*
X36002D01*
X33994Y75594D02*
X36002D01*
Y74806D02*
Y75594D01*
X34098Y64994D02*
X36106D01*
X34098Y64206D02*
X36106D01*
X34098D02*
Y64994D01*
X33998Y78994D02*
X36006D01*
X33998Y78206D02*
X36006D01*
X33998D02*
Y78994D01*
X68938Y37046D02*
X69509D01*
X68938Y37754D02*
X69509D01*
Y37046D02*
Y37754D01*
X68091Y37046D02*
Y37754D01*
Y37046D02*
X68662D01*
X68091Y37754D02*
X68662D01*
X71691Y39054D02*
X72262D01*
X71691Y38346D02*
X72262D01*
X71691D02*
Y39054D01*
X73109Y38346D02*
Y39054D01*
X72538D02*
X73109D01*
X72538Y38346D02*
X73109D01*
X45235Y46771D02*
X47165D01*
Y50432D01*
X45235Y46771D02*
Y50432D01*
X33471Y43935D02*
Y45865D01*
Y43935D02*
X37132D01*
X33471Y45865D02*
X37132D01*
X34871Y50935D02*
Y52865D01*
Y50935D02*
X38532D01*
X34871Y52865D02*
X38532D01*
X42071Y50935D02*
Y52865D01*
Y50935D02*
X45732D01*
X42071Y52865D02*
X45732D01*
X42676Y46212D02*
X43424D01*
X42676Y45188D02*
X43424D01*
X41376Y46212D02*
X42124D01*
X41376Y45188D02*
X42124D01*
X41376D02*
Y46212D01*
X43424Y45188D02*
Y46212D01*
X37088Y47576D02*
Y48324D01*
X38112Y47576D02*
Y48324D01*
X37088Y46276D02*
Y47024D01*
X38112Y46276D02*
Y47024D01*
X37088Y46276D02*
X38112D01*
X37088Y48324D02*
X38112D01*
X34776Y46188D02*
X35524D01*
X34776Y47212D02*
X35524D01*
X36076Y46188D02*
X36824D01*
X36076Y47212D02*
X36824D01*
Y46188D02*
Y47212D01*
X34776Y46188D02*
Y47212D01*
X30088Y48576D02*
Y49324D01*
X31112Y48576D02*
Y49324D01*
X30088Y47276D02*
Y48024D01*
X31112Y47276D02*
Y48024D01*
X30088Y47276D02*
X31112D01*
X30088Y49324D02*
X31112D01*
X44276Y50612D02*
X45024D01*
X44276Y49588D02*
X45024D01*
X42976Y50612D02*
X43724D01*
X42976Y49588D02*
X43724D01*
X42976D02*
Y50612D01*
X45024Y49588D02*
Y50612D01*
X40176Y49588D02*
X40924D01*
X40176Y50612D02*
X40924D01*
X41476Y49588D02*
X42224D01*
X41476Y50612D02*
X42224D01*
Y49588D02*
Y50612D01*
X40176Y49588D02*
Y50612D01*
X51794Y76406D02*
X53802D01*
X51794Y77194D02*
X53802D01*
Y76406D02*
Y77194D01*
X51794Y61906D02*
X53802D01*
X51794Y62694D02*
X53802D01*
Y61906D02*
Y62694D01*
X51794Y78806D02*
X53802D01*
X51794Y79594D02*
X53802D01*
Y78806D02*
Y79594D01*
X51794Y64306D02*
X53802D01*
X51794Y65094D02*
X53802D01*
Y64306D02*
Y65094D01*
X38791Y78154D02*
X39362D01*
X38791Y77446D02*
X39362D01*
X38791D02*
Y78154D01*
X40209Y77446D02*
Y78154D01*
X39638D02*
X40209D01*
X39638Y77446D02*
X40209D01*
X38791Y63654D02*
X39362D01*
X38791Y62946D02*
X39362D01*
X38791D02*
Y63654D01*
X40209Y62946D02*
Y63654D01*
X39638D02*
X40209D01*
X39638Y62946D02*
X40209D01*
X38791Y79154D02*
X39362D01*
X38791Y78446D02*
X39362D01*
X38791D02*
Y79154D01*
X40209Y78446D02*
Y79154D01*
X39638D02*
X40209D01*
X39638Y78446D02*
X40209D01*
X38791Y64654D02*
X39362D01*
X38791Y63946D02*
X39362D01*
X38791D02*
Y64654D01*
X40209Y63946D02*
Y64654D01*
X39638D02*
X40209D01*
X39638Y63946D02*
X40209D01*
X38791Y77154D02*
X39362D01*
X38791Y76446D02*
X39362D01*
X38791D02*
Y77154D01*
X40209Y76446D02*
Y77154D01*
X39638D02*
X40209D01*
X39638Y76446D02*
X40209D01*
X38791Y62654D02*
X39362D01*
X38791Y61946D02*
X39362D01*
X38791D02*
Y62654D01*
X40209Y61946D02*
Y62654D01*
X39638D02*
X40209D01*
X39638Y61946D02*
X40209D01*
X33071Y40335D02*
Y42265D01*
Y40335D02*
X36732D01*
X33071Y42265D02*
X36732D01*
X34571Y32535D02*
Y34465D01*
Y32535D02*
X38232D01*
X34571Y34465D02*
X38232D01*
X41288Y37776D02*
Y38524D01*
X42312Y37776D02*
Y38524D01*
X41288Y36476D02*
Y37224D01*
X42312Y36476D02*
Y37224D01*
X41288Y36476D02*
X42312D01*
X41288Y38524D02*
X42312D01*
X38576Y34788D02*
X39324D01*
X38576Y35812D02*
X39324D01*
X39876Y34788D02*
X40624D01*
X39876Y35812D02*
X40624D01*
Y34788D02*
Y35812D01*
X38576Y34788D02*
Y35812D01*
X32276Y35612D02*
X33024D01*
X32276Y34588D02*
X33024D01*
X30976Y35612D02*
X31724D01*
X30976Y34588D02*
X31724D01*
X30976D02*
Y35612D01*
X33024Y34588D02*
Y35612D01*
X31276Y37012D02*
X32024D01*
X31276Y35988D02*
X32024D01*
X29976Y37012D02*
X30724D01*
X29976Y35988D02*
X30724D01*
X29976D02*
Y37012D01*
X32024Y35988D02*
Y37012D01*
X38276Y41212D02*
X39024D01*
X38276Y40188D02*
X39024D01*
X36976Y41212D02*
X37724D01*
X36976Y40188D02*
X37724D01*
X36976D02*
Y41212D01*
X39024Y40188D02*
Y41212D01*
X37176Y36188D02*
X37924D01*
X37176Y37212D02*
X37924D01*
X38476Y36188D02*
X39224D01*
X38476Y37212D02*
X39224D01*
Y36188D02*
Y37212D01*
X37176Y36188D02*
Y37212D01*
X34976Y36188D02*
X35724D01*
X34976Y37212D02*
X35724D01*
X36276Y36188D02*
X37024D01*
X36276Y37212D02*
X37024D01*
Y36188D02*
Y37212D01*
X34976Y36188D02*
Y37212D01*
X31976Y38588D02*
X32724D01*
X31976Y39612D02*
X32724D01*
X33276Y38588D02*
X34024D01*
X33276Y39612D02*
X34024D01*
Y38588D02*
Y39612D01*
X31976Y38588D02*
Y39612D01*
D52*
X52863Y91798D02*
G03*
X52991Y91798I64J0D01*
G01*
X52763Y78498D02*
G03*
X52891Y78498I64J0D01*
G01*
X52763Y63998D02*
G03*
X52891Y63998I64J0D01*
G01*
X52754Y91798D02*
X52853Y91798D01*
X53000D02*
X53089Y91798D01*
X52754Y90775D02*
Y91798D01*
Y90775D02*
X53089Y90775D01*
X53089Y90775D02*
Y91798D01*
X52654Y78498D02*
X52753Y78498D01*
X52900D02*
X52989Y78498D01*
X52654Y77475D02*
Y78498D01*
Y77475D02*
X52989Y77475D01*
X52989Y77475D02*
Y78498D01*
X52654Y63998D02*
X52753Y63998D01*
X52900D02*
X52989Y63998D01*
X52654Y62975D02*
Y63998D01*
Y62975D02*
X52989Y62975D01*
X52989Y62975D02*
Y63998D01*
X54900Y97200D02*
Y96950D01*
X54950Y96900D01*
X55050D01*
X55100Y96950D01*
Y97200D01*
X55200Y96900D02*
X55300D01*
X55250D01*
Y97200D01*
X55200Y97150D01*
X55650Y97200D02*
X55550Y97150D01*
X55450Y97050D01*
Y96950D01*
X55500Y96900D01*
X55600D01*
X55650Y96950D01*
Y97000D01*
X55600Y97050D01*
X55450D01*
X59500Y97800D02*
Y97550D01*
X59550Y97500D01*
X59650D01*
X59700Y97550D01*
Y97800D01*
X59800Y97500D02*
X59900D01*
X59850D01*
Y97800D01*
X59800Y97750D01*
X60050Y97800D02*
X60250D01*
Y97750D01*
X60050Y97550D01*
Y97500D01*
X32700Y64300D02*
Y64050D01*
X32750Y64000D01*
X32850D01*
X32900Y64050D01*
Y64300D01*
X33000Y64000D02*
X33100D01*
X33050D01*
Y64300D01*
X33000Y64250D01*
X32600Y78200D02*
Y77950D01*
X32650Y77900D01*
X32750D01*
X32800Y77950D01*
Y78200D01*
X33100Y77900D02*
X32900D01*
X33100Y78100D01*
Y78150D01*
X33050Y78200D01*
X32950D01*
X32900Y78150D01*
X32700Y92100D02*
Y91850D01*
X32750Y91800D01*
X32850D01*
X32900Y91850D01*
Y92100D01*
X33000Y92050D02*
X33050Y92100D01*
X33150D01*
X33200Y92050D01*
Y92000D01*
X33150Y91950D01*
X33100D01*
X33150D01*
X33200Y91900D01*
Y91850D01*
X33150Y91800D01*
X33050D01*
X33000Y91850D01*
X63300Y39400D02*
Y39150D01*
X63350Y39100D01*
X63450D01*
X63500Y39150D01*
Y39400D01*
X63800Y39100D02*
X63600D01*
X63800Y39300D01*
Y39350D01*
X63750Y39400D01*
X63650D01*
X63600Y39350D01*
X63900Y39100D02*
X64000D01*
X63950D01*
Y39400D01*
X63900Y39350D01*
X60500Y93300D02*
Y93050D01*
X60550Y93000D01*
X60650D01*
X60700Y93050D01*
Y93300D01*
X60800Y93000D02*
X60900D01*
X60850D01*
Y93300D01*
X60800Y93250D01*
X61050Y93050D02*
X61100Y93000D01*
X61200D01*
X61250Y93050D01*
Y93250D01*
X61200Y93300D01*
X61100D01*
X61050Y93250D01*
Y93200D01*
X61100Y93150D01*
X61250D01*
X71500Y38200D02*
Y37950D01*
X71550Y37900D01*
X71650D01*
X71700Y37950D01*
Y38200D01*
X72000Y37900D02*
X71800D01*
X72000Y38100D01*
Y38150D01*
X71950Y38200D01*
X71850D01*
X71800Y38150D01*
X72250Y37900D02*
Y38200D01*
X72100Y38050D01*
X72300D01*
X68700Y92100D02*
Y91850D01*
X68750Y91800D01*
X68850D01*
X68900Y91850D01*
Y92100D01*
X69200Y91800D02*
X69000D01*
X69200Y92000D01*
Y92050D01*
X69150Y92100D01*
X69050D01*
X69000Y92050D01*
X69500Y91800D02*
X69300D01*
X69500Y92000D01*
Y92050D01*
X69450Y92100D01*
X69350D01*
X69300Y92050D01*
X42300Y49600D02*
Y49350D01*
X42350Y49300D01*
X42450D01*
X42500Y49350D01*
Y49600D01*
X42800D02*
X42700Y49550D01*
X42600Y49450D01*
Y49350D01*
X42650Y49300D01*
X42750D01*
X42800Y49350D01*
Y49400D01*
X42750Y49450D01*
X42600D01*
X69200Y76900D02*
Y76650D01*
X69250Y76600D01*
X69350D01*
X69400Y76650D01*
Y76900D01*
X69700Y76600D02*
X69500D01*
X69700Y76800D01*
Y76850D01*
X69650Y76900D01*
X69550D01*
X69500Y76850D01*
X69800D02*
X69850Y76900D01*
X69950D01*
X70000Y76850D01*
Y76800D01*
X69950Y76750D01*
X69900D01*
X69950D01*
X70000Y76700D01*
Y76650D01*
X69950Y76600D01*
X69850D01*
X69800Y76650D01*
X34100Y50800D02*
Y50550D01*
X34150Y50500D01*
X34250D01*
X34300Y50550D01*
Y50800D01*
X34550Y50500D02*
Y50800D01*
X34400Y50650D01*
X34600D01*
X61000Y78100D02*
Y77850D01*
X61050Y77800D01*
X61150D01*
X61200Y77850D01*
Y78100D01*
X61300Y77800D02*
X61400D01*
X61350D01*
Y78100D01*
X61300Y78050D01*
X61550D02*
X61600Y78100D01*
X61700D01*
X61750Y78050D01*
Y78000D01*
X61700Y77950D01*
X61750Y77900D01*
Y77850D01*
X61700Y77800D01*
X61600D01*
X61550Y77850D01*
Y77900D01*
X61600Y77950D01*
X61550Y78000D01*
Y78050D01*
X61600Y77950D02*
X61700D01*
X48900Y79500D02*
Y79250D01*
X48950Y79200D01*
X49050D01*
X49100Y79250D01*
Y79500D01*
X49200Y79200D02*
X49300D01*
X49250D01*
Y79500D01*
X49200Y79450D01*
X49450Y79200D02*
X49550D01*
X49500D01*
Y79500D01*
X49450Y79450D01*
X48900Y65000D02*
Y64750D01*
X48950Y64700D01*
X49050D01*
X49100Y64750D01*
Y65000D01*
X49200Y64700D02*
X49300D01*
X49250D01*
Y65000D01*
X49200Y64950D01*
X49450D02*
X49500Y65000D01*
X49600D01*
X49650Y64950D01*
Y64750D01*
X49600Y64700D01*
X49500D01*
X49450Y64750D01*
Y64950D01*
X49000Y92800D02*
Y92550D01*
X49050Y92500D01*
X49150D01*
X49200Y92550D01*
Y92800D01*
X49300Y92500D02*
X49400D01*
X49350D01*
Y92800D01*
X49300Y92750D01*
X49750Y92500D02*
X49550D01*
X49750Y92700D01*
Y92750D01*
X49700Y92800D01*
X49600D01*
X49550Y92750D01*
X54000Y78600D02*
X53750D01*
X53700Y78550D01*
Y78450D01*
X53750Y78400D01*
X54000D01*
X53700Y78300D02*
Y78200D01*
Y78250D01*
X54000D01*
X53950Y78300D01*
X53700Y77900D02*
X54000D01*
X53850Y78050D01*
Y77850D01*
X54000Y64100D02*
X53750D01*
X53700Y64050D01*
Y63950D01*
X53750Y63900D01*
X54000D01*
X53700Y63800D02*
Y63700D01*
Y63750D01*
X54000D01*
X53950Y63800D01*
Y63550D02*
X54000Y63500D01*
Y63400D01*
X53950Y63350D01*
X53900D01*
X53850Y63400D01*
Y63450D01*
Y63400D01*
X53800Y63350D01*
X53750D01*
X53700Y63400D01*
Y63500D01*
X53750Y63550D01*
X54100Y91800D02*
X53850D01*
X53800Y91750D01*
Y91650D01*
X53850Y91600D01*
X54100D01*
X53800Y91500D02*
Y91400D01*
Y91450D01*
X54100D01*
X54050Y91500D01*
X54100Y91050D02*
Y91250D01*
X53950D01*
X54000Y91150D01*
Y91100D01*
X53950Y91050D01*
X53850D01*
X53800Y91100D01*
Y91200D01*
X53850Y91250D01*
X43400Y79700D02*
Y79450D01*
X43450Y79400D01*
X43550D01*
X43600Y79450D01*
Y79700D01*
X43700Y79650D02*
X43750Y79700D01*
X43850D01*
X43900Y79650D01*
Y79600D01*
X43850Y79550D01*
X43900Y79500D01*
Y79450D01*
X43850Y79400D01*
X43750D01*
X43700Y79450D01*
Y79500D01*
X43750Y79550D01*
X43700Y79600D01*
Y79650D01*
X43750Y79550D02*
X43850D01*
X43400Y65200D02*
Y64950D01*
X43450Y64900D01*
X43550D01*
X43600Y64950D01*
Y65200D01*
X43700D02*
X43900D01*
Y65150D01*
X43700Y64950D01*
Y64900D01*
X43500Y93000D02*
Y92750D01*
X43550Y92700D01*
X43650D01*
X43700Y92750D01*
Y93000D01*
X43800Y92750D02*
X43850Y92700D01*
X43950D01*
X44000Y92750D01*
Y92950D01*
X43950Y93000D01*
X43850D01*
X43800Y92950D01*
Y92900D01*
X43850Y92850D01*
X44000D01*
X35200Y40000D02*
Y39750D01*
X35250Y39700D01*
X35350D01*
X35400Y39750D01*
Y40000D01*
X35700D02*
X35500D01*
Y39850D01*
X35600Y39900D01*
X35650D01*
X35700Y39850D01*
Y39750D01*
X35650Y39700D01*
X35550D01*
X35500Y39750D01*
X62300Y64100D02*
Y63850D01*
X62350Y63800D01*
X62450D01*
X62500Y63850D01*
Y64100D01*
X62800Y63800D02*
X62600D01*
X62800Y64000D01*
Y64050D01*
X62750Y64100D01*
X62650D01*
X62600Y64050D01*
X62900D02*
X62950Y64100D01*
X63050D01*
X63100Y64050D01*
Y63850D01*
X63050Y63800D01*
X62950D01*
X62900Y63850D01*
Y64050D01*
X56800Y96900D02*
Y97200D01*
X56950D01*
X57000Y97150D01*
Y97050D01*
X56950Y97000D01*
X56800D01*
X56900D02*
X57000Y96900D01*
X57100Y97200D02*
X57300D01*
Y97150D01*
X57100Y96950D01*
Y96900D01*
X57400Y97150D02*
X57450Y97200D01*
X57550D01*
X57600Y97150D01*
Y97100D01*
X57550Y97050D01*
X57500D01*
X57550D01*
X57600Y97000D01*
Y96950D01*
X57550Y96900D01*
X57450D01*
X57400Y96950D01*
X55500Y98700D02*
Y99000D01*
X55650D01*
X55700Y98950D01*
Y98850D01*
X55650Y98800D01*
X55500D01*
X55600D02*
X55700Y98700D01*
X55800Y99000D02*
X56000D01*
Y98950D01*
X55800Y98750D01*
Y98700D01*
X56100Y98950D02*
X56150Y99000D01*
X56250D01*
X56300Y98950D01*
Y98750D01*
X56250Y98700D01*
X56150D01*
X56100Y98750D01*
Y98950D01*
X30600Y63700D02*
Y64000D01*
X30750D01*
X30800Y63950D01*
Y63850D01*
X30750Y63800D01*
X30600D01*
X30700D02*
X30800Y63700D01*
X30900Y63950D02*
X30950Y64000D01*
X31050D01*
X31100Y63950D01*
Y63900D01*
X31050Y63850D01*
X31100Y63800D01*
Y63750D01*
X31050Y63700D01*
X30950D01*
X30900Y63750D01*
Y63800D01*
X30950Y63850D01*
X30900Y63900D01*
Y63950D01*
X30950Y63850D02*
X31050D01*
X30300Y76000D02*
X30000D01*
Y76150D01*
X30050Y76200D01*
X30150D01*
X30200Y76150D01*
Y76000D01*
Y76100D02*
X30300Y76200D01*
Y76450D02*
X30000D01*
X30150Y76300D01*
Y76500D01*
X30400Y89900D02*
X30100D01*
Y90050D01*
X30150Y90100D01*
X30250D01*
X30300Y90050D01*
Y89900D01*
Y90000D02*
X30400Y90100D01*
X30350Y90200D02*
X30400Y90250D01*
Y90350D01*
X30350Y90400D01*
X30150D01*
X30100Y90350D01*
Y90250D01*
X30150Y90200D01*
X30200D01*
X30250Y90250D01*
Y90400D01*
X65100Y35000D02*
Y34700D01*
X64950D01*
X64900Y34750D01*
Y34850D01*
X64950Y34900D01*
X65100D01*
X65000D02*
X64900Y35000D01*
X64800Y34750D02*
X64750Y34700D01*
X64650D01*
X64600Y34750D01*
Y34800D01*
X64650Y34850D01*
X64600Y34900D01*
Y34950D01*
X64650Y35000D01*
X64750D01*
X64800Y34950D01*
Y34900D01*
X64750Y34850D01*
X64800Y34800D01*
Y34750D01*
X64750Y34850D02*
X64650D01*
X64300Y34700D02*
X64500D01*
Y34850D01*
X64400Y34800D01*
X64350D01*
X64300Y34850D01*
Y34950D01*
X64350Y35000D01*
X64450D01*
X64500Y34950D01*
X62200Y88900D02*
Y88600D01*
X62050D01*
X62000Y88650D01*
Y88750D01*
X62050Y88800D01*
X62200D01*
X62100D02*
X62000Y88900D01*
X61900Y88650D02*
X61850Y88600D01*
X61750D01*
X61700Y88650D01*
Y88700D01*
X61750Y88750D01*
X61700Y88800D01*
Y88850D01*
X61750Y88900D01*
X61850D01*
X61900Y88850D01*
Y88800D01*
X61850Y88750D01*
X61900Y88700D01*
Y88650D01*
X61850Y88750D02*
X61750D01*
X61600Y88900D02*
X61500D01*
X61550D01*
Y88600D01*
X61600Y88650D01*
X62300Y36000D02*
Y35700D01*
X62150D01*
X62100Y35750D01*
Y35850D01*
X62150Y35900D01*
X62300D01*
X62200D02*
X62100Y36000D01*
X62000Y35700D02*
X61800D01*
Y35750D01*
X62000Y35950D01*
Y36000D01*
X61700Y35700D02*
X61500D01*
Y35750D01*
X61700Y35950D01*
Y36000D01*
X59400Y89900D02*
Y89600D01*
X59250D01*
X59200Y89650D01*
Y89750D01*
X59250Y89800D01*
X59400D01*
X59300D02*
X59200Y89900D01*
X58900Y89600D02*
X59000Y89650D01*
X59100Y89750D01*
Y89850D01*
X59050Y89900D01*
X58950D01*
X58900Y89850D01*
Y89800D01*
X58950Y89750D01*
X59100D01*
X58800Y89650D02*
X58750Y89600D01*
X58650D01*
X58600Y89650D01*
Y89700D01*
X58650Y89750D01*
X58600Y89800D01*
Y89850D01*
X58650Y89900D01*
X58750D01*
X58800Y89850D01*
Y89800D01*
X58750Y89750D01*
X58800Y89700D01*
Y89650D01*
X58750Y89750D02*
X58650D01*
X67900Y36800D02*
Y36500D01*
X67750D01*
X67700Y36550D01*
Y36650D01*
X67750Y36700D01*
X67900D01*
X67800D02*
X67700Y36800D01*
X67600Y36750D02*
X67550Y36800D01*
X67450D01*
X67400Y36750D01*
Y36550D01*
X67450Y36500D01*
X67550D01*
X67600Y36550D01*
Y36600D01*
X67550Y36650D01*
X67400D01*
X67100Y36800D02*
X67300D01*
X67100Y36600D01*
Y36550D01*
X67150Y36500D01*
X67250D01*
X67300Y36550D01*
X65000Y90700D02*
Y90400D01*
X64850D01*
X64800Y90450D01*
Y90550D01*
X64850Y90600D01*
X65000D01*
X64900D02*
X64800Y90700D01*
X64700Y90450D02*
X64650Y90400D01*
X64550D01*
X64500Y90450D01*
Y90500D01*
X64550Y90550D01*
X64500Y90600D01*
Y90650D01*
X64550Y90700D01*
X64650D01*
X64700Y90650D01*
Y90600D01*
X64650Y90550D01*
X64700Y90500D01*
Y90450D01*
X64650Y90550D02*
X64550D01*
X64400Y90400D02*
X64200D01*
Y90450D01*
X64400Y90650D01*
Y90700D01*
X60600Y38400D02*
Y38700D01*
X60750D01*
X60800Y38650D01*
Y38550D01*
X60750Y38500D01*
X60600D01*
X60700D02*
X60800Y38400D01*
X60900Y38650D02*
X60950Y38700D01*
X61050D01*
X61100Y38650D01*
Y38600D01*
X61050Y38550D01*
X61100Y38500D01*
Y38450D01*
X61050Y38400D01*
X60950D01*
X60900Y38450D01*
Y38500D01*
X60950Y38550D01*
X60900Y38600D01*
Y38650D01*
X60950Y38550D02*
X61050D01*
X61400Y38400D02*
X61200D01*
X61400Y38600D01*
Y38650D01*
X61350Y38700D01*
X61250D01*
X61200Y38650D01*
X57800Y92300D02*
Y92600D01*
X57950D01*
X58000Y92550D01*
Y92450D01*
X57950Y92400D01*
X57800D01*
X57900D02*
X58000Y92300D01*
X58100Y92600D02*
X58300D01*
Y92550D01*
X58100Y92350D01*
Y92300D01*
X58600Y92600D02*
X58500Y92550D01*
X58400Y92450D01*
Y92350D01*
X58450Y92300D01*
X58550D01*
X58600Y92350D01*
Y92400D01*
X58550Y92450D01*
X58400D01*
X66200Y39300D02*
Y39600D01*
X66350D01*
X66400Y39550D01*
Y39450D01*
X66350Y39400D01*
X66200D01*
X66300D02*
X66400Y39300D01*
X66500Y39350D02*
X66550Y39300D01*
X66650D01*
X66700Y39350D01*
Y39550D01*
X66650Y39600D01*
X66550D01*
X66500Y39550D01*
Y39500D01*
X66550Y39450D01*
X66700D01*
X66800Y39350D02*
X66850Y39300D01*
X66950D01*
X67000Y39350D01*
Y39550D01*
X66950Y39600D01*
X66850D01*
X66800Y39550D01*
Y39500D01*
X66850Y39450D01*
X67000D01*
X63400Y93200D02*
Y93500D01*
X63550D01*
X63600Y93450D01*
Y93350D01*
X63550Y93300D01*
X63400D01*
X63500D02*
X63600Y93200D01*
X63700Y93250D02*
X63750Y93200D01*
X63850D01*
X63900Y93250D01*
Y93450D01*
X63850Y93500D01*
X63750D01*
X63700Y93450D01*
Y93400D01*
X63750Y93350D01*
X63900D01*
X64000Y93200D02*
X64100D01*
X64050D01*
Y93500D01*
X64000Y93450D01*
X58800Y38400D02*
Y38700D01*
X58950D01*
X59000Y38650D01*
Y38550D01*
X58950Y38500D01*
X58800D01*
X58900D02*
X59000Y38400D01*
X59100Y38700D02*
X59300D01*
Y38650D01*
X59100Y38450D01*
Y38400D01*
X59400Y38650D02*
X59450Y38700D01*
X59550D01*
X59600Y38650D01*
Y38600D01*
X59550Y38550D01*
X59600Y38500D01*
Y38450D01*
X59550Y38400D01*
X59450D01*
X59400Y38450D01*
Y38500D01*
X59450Y38550D01*
X59400Y38600D01*
Y38650D01*
X59450Y38550D02*
X59550D01*
X56000Y92300D02*
Y92600D01*
X56150D01*
X56200Y92550D01*
Y92450D01*
X56150Y92400D01*
X56000D01*
X56100D02*
X56200Y92300D01*
X56500Y92600D02*
X56400Y92550D01*
X56300Y92450D01*
Y92350D01*
X56350Y92300D01*
X56450D01*
X56500Y92350D01*
Y92400D01*
X56450Y92450D01*
X56300D01*
X56600Y92350D02*
X56650Y92300D01*
X56750D01*
X56800Y92350D01*
Y92550D01*
X56750Y92600D01*
X56650D01*
X56600Y92550D01*
Y92500D01*
X56650Y92450D01*
X56800D01*
X69800Y39200D02*
Y39500D01*
X69950D01*
X70000Y39450D01*
Y39350D01*
X69950Y39300D01*
X69800D01*
X69900D02*
X70000Y39200D01*
X70100D02*
X70200D01*
X70150D01*
Y39500D01*
X70100Y39450D01*
X70350D02*
X70400Y39500D01*
X70500D01*
X70550Y39450D01*
Y39250D01*
X70500Y39200D01*
X70400D01*
X70350Y39250D01*
Y39450D01*
X70650Y39500D02*
X70850D01*
Y39450D01*
X70650Y39250D01*
Y39200D01*
X67000Y93100D02*
Y93400D01*
X67150D01*
X67200Y93350D01*
Y93250D01*
X67150Y93200D01*
X67000D01*
X67100D02*
X67200Y93100D01*
X67300D02*
X67400D01*
X67350D01*
Y93400D01*
X67300Y93350D01*
X67550D02*
X67600Y93400D01*
X67700D01*
X67750Y93350D01*
Y93150D01*
X67700Y93100D01*
X67600D01*
X67550Y93150D01*
Y93350D01*
X68050Y93100D02*
X67850D01*
X68050Y93300D01*
Y93350D01*
X68000Y93400D01*
X67900D01*
X67850Y93350D01*
X68000Y39200D02*
Y39500D01*
X68150D01*
X68200Y39450D01*
Y39350D01*
X68150Y39300D01*
X68000D01*
X68100D02*
X68200Y39200D01*
X68300D02*
X68400D01*
X68350D01*
Y39500D01*
X68300Y39450D01*
X68550D02*
X68600Y39500D01*
X68700D01*
X68750Y39450D01*
Y39250D01*
X68700Y39200D01*
X68600D01*
X68550Y39250D01*
Y39450D01*
X68850D02*
X68900Y39500D01*
X69000D01*
X69050Y39450D01*
Y39400D01*
X69000Y39350D01*
X68950D01*
X69000D01*
X69050Y39300D01*
Y39250D01*
X69000Y39200D01*
X68900D01*
X68850Y39250D01*
X65200Y93100D02*
Y93400D01*
X65350D01*
X65400Y93350D01*
Y93250D01*
X65350Y93200D01*
X65200D01*
X65300D02*
X65400Y93100D01*
X65500Y93150D02*
X65550Y93100D01*
X65650D01*
X65700Y93150D01*
Y93350D01*
X65650Y93400D01*
X65550D01*
X65500Y93350D01*
Y93300D01*
X65550Y93250D01*
X65700D01*
X65800Y93350D02*
X65850Y93400D01*
X65950D01*
X66000Y93350D01*
Y93300D01*
X65950Y93250D01*
X66000Y93200D01*
Y93150D01*
X65950Y93100D01*
X65850D01*
X65800Y93150D01*
Y93200D01*
X65850Y93250D01*
X65800Y93300D01*
Y93350D01*
X65850Y93250D02*
X65950D01*
X74100Y37900D02*
X74400D01*
Y37750D01*
X74350Y37700D01*
X74250D01*
X74200Y37750D01*
Y37900D01*
Y37800D02*
X74100Y37700D01*
Y37600D02*
Y37500D01*
Y37550D01*
X74400D01*
X74350Y37600D01*
X74100Y37350D02*
Y37250D01*
Y37300D01*
X74400D01*
X74350Y37350D01*
Y37100D02*
X74400Y37050D01*
Y36950D01*
X74350Y36900D01*
X74150D01*
X74100Y36950D01*
Y37050D01*
X74150Y37100D01*
X74350D01*
X71300Y91700D02*
X71600D01*
Y91550D01*
X71550Y91500D01*
X71450D01*
X71400Y91550D01*
Y91700D01*
Y91600D02*
X71300Y91500D01*
Y91400D02*
Y91300D01*
Y91350D01*
X71600D01*
X71550Y91400D01*
Y91150D02*
X71600Y91100D01*
Y91000D01*
X71550Y90950D01*
X71350D01*
X71300Y91000D01*
Y91100D01*
X71350Y91150D01*
X71550D01*
X71350Y90850D02*
X71300Y90800D01*
Y90700D01*
X71350Y90650D01*
X71550D01*
X71600Y90700D01*
Y90800D01*
X71550Y90850D01*
X71500D01*
X71450Y90800D01*
Y90650D01*
X44300Y46500D02*
Y46200D01*
X44150D01*
X44100Y46250D01*
Y46350D01*
X44150Y46400D01*
X44300D01*
X44200D02*
X44100Y46500D01*
X44000Y46250D02*
X43950Y46200D01*
X43850D01*
X43800Y46250D01*
Y46300D01*
X43850Y46350D01*
X43900D01*
X43850D01*
X43800Y46400D01*
Y46450D01*
X43850Y46500D01*
X43950D01*
X44000Y46450D01*
X43700Y46250D02*
X43650Y46200D01*
X43550D01*
X43500Y46250D01*
Y46300D01*
X43550Y46350D01*
X43500Y46400D01*
Y46450D01*
X43550Y46500D01*
X43650D01*
X43700Y46450D01*
Y46400D01*
X43650Y46350D01*
X43700Y46300D01*
Y46250D01*
X43650Y46350D02*
X43550D01*
X71100Y73800D02*
Y73500D01*
X70950D01*
X70900Y73550D01*
Y73650D01*
X70950Y73700D01*
X71100D01*
X71000D02*
X70900Y73800D01*
X70800D02*
X70700D01*
X70750D01*
Y73500D01*
X70800Y73550D01*
X70550D02*
X70500Y73500D01*
X70400D01*
X70350Y73550D01*
Y73750D01*
X70400Y73800D01*
X70500D01*
X70550Y73750D01*
Y73550D01*
X70050Y73500D02*
X70150Y73550D01*
X70250Y73650D01*
Y73750D01*
X70200Y73800D01*
X70100D01*
X70050Y73750D01*
Y73700D01*
X70100Y73650D01*
X70250D01*
X40700Y47637D02*
Y47937D01*
X40850D01*
X40900Y47887D01*
Y47787D01*
X40850Y47737D01*
X40700D01*
X40800D02*
X40900Y47637D01*
X41200D02*
X41000D01*
X41200Y47837D01*
Y47887D01*
X41150Y47937D01*
X41050D01*
X41000Y47887D01*
X41500Y47937D02*
X41300D01*
Y47787D01*
X41400Y47837D01*
X41450D01*
X41500Y47787D01*
Y47687D01*
X41450Y47637D01*
X41350D01*
X41300Y47687D01*
X67600Y74937D02*
Y75237D01*
X67750D01*
X67800Y75187D01*
Y75087D01*
X67750Y75037D01*
X67600D01*
X67700D02*
X67800Y74937D01*
X67900D02*
X68000D01*
X67950D01*
Y75237D01*
X67900Y75187D01*
X68150D02*
X68200Y75237D01*
X68300D01*
X68350Y75187D01*
Y74987D01*
X68300Y74937D01*
X68200D01*
X68150Y74987D01*
Y75187D01*
X68650Y75237D02*
X68450D01*
Y75087D01*
X68550Y75137D01*
X68600D01*
X68650Y75087D01*
Y74987D01*
X68600Y74937D01*
X68500D01*
X68450Y74987D01*
X39000Y49300D02*
Y49600D01*
X39150D01*
X39200Y49550D01*
Y49450D01*
X39150Y49400D01*
X39000D01*
X39100D02*
X39200Y49300D01*
X39500D02*
X39300D01*
X39500Y49500D01*
Y49550D01*
X39450Y49600D01*
X39350D01*
X39300Y49550D01*
X39600Y49300D02*
X39700D01*
X39650D01*
Y49600D01*
X39600Y49550D01*
X65900Y76600D02*
Y76900D01*
X66050D01*
X66100Y76850D01*
Y76750D01*
X66050Y76700D01*
X65900D01*
X66000D02*
X66100Y76600D01*
X66200Y76650D02*
X66250Y76600D01*
X66350D01*
X66400Y76650D01*
Y76850D01*
X66350Y76900D01*
X66250D01*
X66200Y76850D01*
Y76800D01*
X66250Y76750D01*
X66400D01*
X66500Y76900D02*
X66700D01*
Y76850D01*
X66500Y76650D01*
Y76600D01*
X39870Y50686D02*
X40170D01*
Y50536D01*
X40120Y50486D01*
X40020D01*
X39970Y50536D01*
Y50686D01*
Y50586D02*
X39870Y50486D01*
Y50186D02*
Y50386D01*
X40070Y50186D01*
X40120D01*
X40170Y50236D01*
Y50336D01*
X40120Y50386D01*
Y50086D02*
X40170Y50036D01*
Y49936D01*
X40120Y49886D01*
X39920D01*
X39870Y49936D01*
Y50036D01*
X39920Y50086D01*
X40120D01*
X66770Y77886D02*
X67070D01*
Y77736D01*
X67020Y77686D01*
X66920D01*
X66870Y77736D01*
Y77886D01*
Y77786D02*
X66770Y77686D01*
X66820Y77586D02*
X66770Y77536D01*
Y77436D01*
X66820Y77386D01*
X67020D01*
X67070Y77436D01*
Y77536D01*
X67020Y77586D01*
X66970D01*
X66920Y77536D01*
Y77386D01*
X67070Y77086D02*
X67020Y77186D01*
X66920Y77286D01*
X66820D01*
X66770Y77236D01*
Y77136D01*
X66820Y77086D01*
X66870D01*
X66920Y77136D01*
Y77286D01*
X36700Y48400D02*
X37000D01*
Y48250D01*
X36950Y48200D01*
X36850D01*
X36800Y48250D01*
Y48400D01*
Y48300D02*
X36700Y48200D01*
Y48100D02*
Y48000D01*
Y48050D01*
X37000D01*
X36950Y48100D01*
X36700Y47700D02*
X37000D01*
X36850Y47850D01*
Y47650D01*
X63600Y75600D02*
X63900D01*
Y75450D01*
X63850Y75400D01*
X63750D01*
X63700Y75450D01*
Y75600D01*
Y75500D02*
X63600Y75400D01*
X63850Y75300D02*
X63900Y75250D01*
Y75150D01*
X63850Y75100D01*
X63800D01*
X63750Y75150D01*
X63700Y75100D01*
X63650D01*
X63600Y75150D01*
Y75250D01*
X63650Y75300D01*
X63700D01*
X63750Y75250D01*
X63800Y75300D01*
X63850D01*
X63750Y75250D02*
Y75150D01*
X63900Y74800D02*
X63850Y74900D01*
X63750Y75000D01*
X63650D01*
X63600Y74950D01*
Y74850D01*
X63650Y74800D01*
X63700D01*
X63750Y74850D01*
Y75000D01*
X34700Y46700D02*
Y46400D01*
X34550D01*
X34500Y46450D01*
Y46550D01*
X34550Y46600D01*
X34700D01*
X34600D02*
X34500Y46700D01*
X34400D02*
X34300D01*
X34350D01*
Y46400D01*
X34400Y46450D01*
X34150D02*
X34100Y46400D01*
X34000D01*
X33950Y46450D01*
Y46650D01*
X34000Y46700D01*
X34100D01*
X34150Y46650D01*
Y46450D01*
X61500Y74000D02*
Y73700D01*
X61350D01*
X61300Y73750D01*
Y73850D01*
X61350Y73900D01*
X61500D01*
X61400D02*
X61300Y74000D01*
X61200Y73750D02*
X61150Y73700D01*
X61050D01*
X61000Y73750D01*
Y73800D01*
X61050Y73850D01*
X61000Y73900D01*
Y73950D01*
X61050Y74000D01*
X61150D01*
X61200Y73950D01*
Y73900D01*
X61150Y73850D01*
X61200Y73800D01*
Y73750D01*
X61150Y73850D02*
X61050D01*
X60900Y73750D02*
X60850Y73700D01*
X60750D01*
X60700Y73750D01*
Y73950D01*
X60750Y74000D01*
X60850D01*
X60900Y73950D01*
Y73750D01*
X30900Y50500D02*
Y50800D01*
X31050D01*
X31100Y50750D01*
Y50650D01*
X31050Y50600D01*
X30900D01*
X31000D02*
X31100Y50500D01*
X31400Y50800D02*
X31300Y50750D01*
X31200Y50650D01*
Y50550D01*
X31250Y50500D01*
X31350D01*
X31400Y50550D01*
Y50600D01*
X31350Y50650D01*
X31200D01*
X57800Y77800D02*
Y78100D01*
X57950D01*
X58000Y78050D01*
Y77950D01*
X57950Y77900D01*
X57800D01*
X57900D02*
X58000Y77800D01*
X58100Y78100D02*
X58300D01*
Y78050D01*
X58100Y77850D01*
Y77800D01*
X58550D02*
Y78100D01*
X58400Y77950D01*
X58600D01*
X29100Y49400D02*
X28800D01*
Y49550D01*
X28850Y49600D01*
X28950D01*
X29000Y49550D01*
Y49400D01*
Y49500D02*
X29100Y49600D01*
Y49900D02*
Y49700D01*
X28900Y49900D01*
X28850D01*
X28800Y49850D01*
Y49750D01*
X28850Y49700D01*
X56000Y76700D02*
X55700D01*
Y76850D01*
X55750Y76900D01*
X55850D01*
X55900Y76850D01*
Y76700D01*
Y76800D02*
X56000Y76900D01*
X55700Y77200D02*
X55750Y77100D01*
X55850Y77000D01*
X55950D01*
X56000Y77050D01*
Y77150D01*
X55950Y77200D01*
X55900D01*
X55850Y77150D01*
Y77000D01*
X55700Y77300D02*
Y77500D01*
X55750D01*
X55950Y77300D01*
X56000D01*
X44800Y48700D02*
X45100D01*
Y48550D01*
X45050Y48500D01*
X44950D01*
X44900Y48550D01*
Y48700D01*
Y48600D02*
X44800Y48500D01*
X45050Y48400D02*
X45100Y48350D01*
Y48250D01*
X45050Y48200D01*
X45000D01*
X44950Y48250D01*
Y48300D01*
Y48250D01*
X44900Y48200D01*
X44850D01*
X44800Y48250D01*
Y48350D01*
X44850Y48400D01*
Y48100D02*
X44800Y48050D01*
Y47950D01*
X44850Y47900D01*
X45050D01*
X45100Y47950D01*
Y48050D01*
X45050Y48100D01*
X45000D01*
X44950Y48050D01*
Y47900D01*
X71700Y75900D02*
X72000D01*
Y75750D01*
X71950Y75700D01*
X71850D01*
X71800Y75750D01*
Y75900D01*
Y75800D02*
X71700Y75700D01*
Y75600D02*
Y75500D01*
Y75550D01*
X72000D01*
X71950Y75600D01*
Y75350D02*
X72000Y75300D01*
Y75200D01*
X71950Y75150D01*
X71750D01*
X71700Y75200D01*
Y75300D01*
X71750Y75350D01*
X71950D01*
Y75050D02*
X72000Y75000D01*
Y74900D01*
X71950Y74850D01*
X71900D01*
X71850Y74900D01*
X71800Y74850D01*
X71750D01*
X71700Y74900D01*
Y75000D01*
X71750Y75050D01*
X71800D01*
X71850Y75000D01*
X71900Y75050D01*
X71950D01*
X71850Y75000D02*
Y74900D01*
X39400Y52100D02*
Y52400D01*
X39550D01*
X39600Y52350D01*
Y52250D01*
X39550Y52200D01*
X39400D01*
X39500D02*
X39600Y52100D01*
X39900D02*
X39700D01*
X39900Y52300D01*
Y52350D01*
X39850Y52400D01*
X39750D01*
X39700Y52350D01*
X40150Y52100D02*
Y52400D01*
X40000Y52250D01*
X40200D01*
X66300Y79400D02*
Y79700D01*
X66450D01*
X66500Y79650D01*
Y79550D01*
X66450Y79500D01*
X66300D01*
X66400D02*
X66500Y79400D01*
X66600D02*
X66700D01*
X66650D01*
Y79700D01*
X66600Y79650D01*
X66850D02*
X66900Y79700D01*
X67000D01*
X67050Y79650D01*
Y79450D01*
X67000Y79400D01*
X66900D01*
X66850Y79450D01*
Y79650D01*
X67150Y79400D02*
X67250D01*
X67200D01*
Y79700D01*
X67150Y79650D01*
X35500Y50600D02*
Y50900D01*
X35650D01*
X35700Y50850D01*
Y50750D01*
X35650Y50700D01*
X35500D01*
X35600D02*
X35700Y50600D01*
X35800D02*
X35900D01*
X35850D01*
Y50900D01*
X35800Y50850D01*
X36250Y50900D02*
X36050D01*
Y50750D01*
X36150Y50800D01*
X36200D01*
X36250Y50750D01*
Y50650D01*
X36200Y50600D01*
X36100D01*
X36050Y50650D01*
X62400Y77900D02*
Y78200D01*
X62550D01*
X62600Y78150D01*
Y78050D01*
X62550Y78000D01*
X62400D01*
X62500D02*
X62600Y77900D01*
X62700Y78150D02*
X62750Y78200D01*
X62850D01*
X62900Y78150D01*
Y78100D01*
X62850Y78050D01*
X62900Y78000D01*
Y77950D01*
X62850Y77900D01*
X62750D01*
X62700Y77950D01*
Y78000D01*
X62750Y78050D01*
X62700Y78100D01*
Y78150D01*
X62750Y78050D02*
X62850D01*
X63000Y77950D02*
X63050Y77900D01*
X63150D01*
X63200Y77950D01*
Y78150D01*
X63150Y78200D01*
X63050D01*
X63000Y78150D01*
Y78100D01*
X63050Y78050D01*
X63200D01*
X30900Y50800D02*
X30600D01*
Y50950D01*
X30650Y51000D01*
X30750D01*
X30800Y50950D01*
Y50800D01*
Y50900D02*
X30900Y51000D01*
X30600Y51100D02*
Y51300D01*
X30650D01*
X30850Y51100D01*
X30900D01*
X57800Y78100D02*
X57500D01*
Y78250D01*
X57550Y78300D01*
X57650D01*
X57700Y78250D01*
Y78100D01*
Y78200D02*
X57800Y78300D01*
X57500Y78400D02*
Y78600D01*
X57550D01*
X57750Y78400D01*
X57800D01*
X57500Y78900D02*
Y78700D01*
X57650D01*
X57600Y78800D01*
Y78850D01*
X57650Y78900D01*
X57750D01*
X57800Y78850D01*
Y78750D01*
X57750Y78700D01*
X47100Y71300D02*
Y71000D01*
X46950D01*
X46900Y71050D01*
Y71150D01*
X46950Y71200D01*
X47100D01*
X47000D02*
X46900Y71300D01*
X46650D02*
Y71000D01*
X46800Y71150D01*
X46600D01*
X46500Y71300D02*
X46400D01*
X46450D01*
Y71000D01*
X46500Y71050D01*
X47100Y56800D02*
Y56500D01*
X46950D01*
X46900Y56550D01*
Y56650D01*
X46950Y56700D01*
X47100D01*
X47000D02*
X46900Y56800D01*
X46650D02*
Y56500D01*
X46800Y56650D01*
X46600D01*
X46500Y56550D02*
X46450Y56500D01*
X46350D01*
X46300Y56550D01*
Y56750D01*
X46350Y56800D01*
X46450D01*
X46500Y56750D01*
Y56550D01*
X47100Y84600D02*
Y84300D01*
X46950D01*
X46900Y84350D01*
Y84450D01*
X46950Y84500D01*
X47100D01*
X47000D02*
X46900Y84600D01*
X46650D02*
Y84300D01*
X46800Y84450D01*
X46600D01*
X46300Y84600D02*
X46500D01*
X46300Y84400D01*
Y84350D01*
X46350Y84300D01*
X46450D01*
X46500Y84350D01*
X48500Y71300D02*
Y71000D01*
X48350D01*
X48300Y71050D01*
Y71150D01*
X48350Y71200D01*
X48500D01*
X48400D02*
X48300Y71300D01*
X48050D02*
Y71000D01*
X48200Y71150D01*
X48000D01*
X47900Y71050D02*
X47850Y71000D01*
X47750D01*
X47700Y71050D01*
Y71100D01*
X47750Y71150D01*
X47700Y71200D01*
Y71250D01*
X47750Y71300D01*
X47850D01*
X47900Y71250D01*
Y71200D01*
X47850Y71150D01*
X47900Y71100D01*
Y71050D01*
X47850Y71150D02*
X47750D01*
X48500Y56800D02*
Y56500D01*
X48350D01*
X48300Y56550D01*
Y56650D01*
X48350Y56700D01*
X48500D01*
X48400D02*
X48300Y56800D01*
X48050D02*
Y56500D01*
X48200Y56650D01*
X48000D01*
X47900Y56550D02*
X47850Y56500D01*
X47750D01*
X47700Y56550D01*
Y56600D01*
X47750Y56650D01*
X47800D01*
X47750D01*
X47700Y56700D01*
Y56750D01*
X47750Y56800D01*
X47850D01*
X47900Y56750D01*
X48500Y84600D02*
Y84300D01*
X48350D01*
X48300Y84350D01*
Y84450D01*
X48350Y84500D01*
X48500D01*
X48400D02*
X48300Y84600D01*
X48000Y84300D02*
X48200D01*
Y84450D01*
X48100Y84400D01*
X48050D01*
X48000Y84450D01*
Y84550D01*
X48050Y84600D01*
X48150D01*
X48200Y84550D01*
X47900Y84350D02*
X47850Y84300D01*
X47750D01*
X47700Y84350D01*
Y84400D01*
X47750Y84450D01*
X47800D01*
X47750D01*
X47700Y84500D01*
Y84550D01*
X47750Y84600D01*
X47850D01*
X47900Y84550D01*
X49900Y71300D02*
Y71000D01*
X49750D01*
X49700Y71050D01*
Y71150D01*
X49750Y71200D01*
X49900D01*
X49800D02*
X49700Y71300D01*
X49400Y71000D02*
X49600D01*
Y71150D01*
X49500Y71100D01*
X49450D01*
X49400Y71150D01*
Y71250D01*
X49450Y71300D01*
X49550D01*
X49600Y71250D01*
X49300D02*
X49250Y71300D01*
X49150D01*
X49100Y71250D01*
Y71050D01*
X49150Y71000D01*
X49250D01*
X49300Y71050D01*
Y71100D01*
X49250Y71150D01*
X49100D01*
X49900Y56800D02*
Y56500D01*
X49750D01*
X49700Y56550D01*
Y56650D01*
X49750Y56700D01*
X49900D01*
X49800D02*
X49700Y56800D01*
X49400Y56500D02*
X49600D01*
Y56650D01*
X49500Y56600D01*
X49450D01*
X49400Y56650D01*
Y56750D01*
X49450Y56800D01*
X49550D01*
X49600Y56750D01*
X49300Y56550D02*
X49250Y56500D01*
X49150D01*
X49100Y56550D01*
Y56600D01*
X49150Y56650D01*
X49100Y56700D01*
Y56750D01*
X49150Y56800D01*
X49250D01*
X49300Y56750D01*
Y56700D01*
X49250Y56650D01*
X49300Y56600D01*
Y56550D01*
X49250Y56650D02*
X49150D01*
X49900Y84600D02*
Y84300D01*
X49750D01*
X49700Y84350D01*
Y84450D01*
X49750Y84500D01*
X49900D01*
X49800D02*
X49700Y84600D01*
X49400Y84300D02*
X49500Y84350D01*
X49600Y84450D01*
Y84550D01*
X49550Y84600D01*
X49450D01*
X49400Y84550D01*
Y84500D01*
X49450Y84450D01*
X49600D01*
X49300Y84350D02*
X49250Y84300D01*
X49150D01*
X49100Y84350D01*
Y84550D01*
X49150Y84600D01*
X49250D01*
X49300Y84550D01*
Y84350D01*
X51300Y71300D02*
Y71000D01*
X51150D01*
X51100Y71050D01*
Y71150D01*
X51150Y71200D01*
X51300D01*
X51200D02*
X51100Y71300D01*
X50800Y71000D02*
X50900Y71050D01*
X51000Y71150D01*
Y71250D01*
X50950Y71300D01*
X50850D01*
X50800Y71250D01*
Y71200D01*
X50850Y71150D01*
X51000D01*
X50500Y71300D02*
X50700D01*
X50500Y71100D01*
Y71050D01*
X50550Y71000D01*
X50650D01*
X50700Y71050D01*
X51300Y56800D02*
Y56500D01*
X51150D01*
X51100Y56550D01*
Y56650D01*
X51150Y56700D01*
X51300D01*
X51200D02*
X51100Y56800D01*
X50800Y56500D02*
X50900Y56550D01*
X51000Y56650D01*
Y56750D01*
X50950Y56800D01*
X50850D01*
X50800Y56750D01*
Y56700D01*
X50850Y56650D01*
X51000D01*
X50700Y56800D02*
X50600D01*
X50650D01*
Y56500D01*
X50700Y56550D01*
X51300Y84600D02*
Y84300D01*
X51150D01*
X51100Y84350D01*
Y84450D01*
X51150Y84500D01*
X51300D01*
X51200D02*
X51100Y84600D01*
X50800Y84300D02*
X50900Y84350D01*
X51000Y84450D01*
Y84550D01*
X50950Y84600D01*
X50850D01*
X50800Y84550D01*
Y84500D01*
X50850Y84450D01*
X51000D01*
X50700Y84350D02*
X50650Y84300D01*
X50550D01*
X50500Y84350D01*
Y84400D01*
X50550Y84450D01*
X50600D01*
X50550D01*
X50500Y84500D01*
Y84550D01*
X50550Y84600D01*
X50650D01*
X50700Y84550D01*
X52700Y71300D02*
Y71000D01*
X52550D01*
X52500Y71050D01*
Y71150D01*
X52550Y71200D01*
X52700D01*
X52600D02*
X52500Y71300D01*
X52200Y71000D02*
X52300Y71050D01*
X52400Y71150D01*
Y71250D01*
X52350Y71300D01*
X52250D01*
X52200Y71250D01*
Y71200D01*
X52250Y71150D01*
X52400D01*
X51900Y71000D02*
X52100D01*
Y71150D01*
X52000Y71100D01*
X51950D01*
X51900Y71150D01*
Y71250D01*
X51950Y71300D01*
X52050D01*
X52100Y71250D01*
X52700Y56800D02*
Y56500D01*
X52550D01*
X52500Y56550D01*
Y56650D01*
X52550Y56700D01*
X52700D01*
X52600D02*
X52500Y56800D01*
X52200Y56500D02*
X52300Y56550D01*
X52400Y56650D01*
Y56750D01*
X52350Y56800D01*
X52250D01*
X52200Y56750D01*
Y56700D01*
X52250Y56650D01*
X52400D01*
X51950Y56800D02*
Y56500D01*
X52100Y56650D01*
X51900D01*
X52700Y84600D02*
Y84300D01*
X52550D01*
X52500Y84350D01*
Y84450D01*
X52550Y84500D01*
X52700D01*
X52600D02*
X52500Y84600D01*
X52200Y84300D02*
X52300Y84350D01*
X52400Y84450D01*
Y84550D01*
X52350Y84600D01*
X52250D01*
X52200Y84550D01*
Y84500D01*
X52250Y84450D01*
X52400D01*
X51900Y84300D02*
X52000Y84350D01*
X52100Y84450D01*
Y84550D01*
X52050Y84600D01*
X51950D01*
X51900Y84550D01*
Y84500D01*
X51950Y84450D01*
X52100D01*
X40700Y77400D02*
X40400D01*
Y77550D01*
X40450Y77600D01*
X40550D01*
X40600Y77550D01*
Y77400D01*
Y77500D02*
X40700Y77600D01*
X40450Y77700D02*
X40400Y77750D01*
Y77850D01*
X40450Y77900D01*
X40500D01*
X40550Y77850D01*
Y77800D01*
Y77850D01*
X40600Y77900D01*
X40650D01*
X40700Y77850D01*
Y77750D01*
X40650Y77700D01*
X40700Y78000D02*
Y78100D01*
Y78050D01*
X40400D01*
X40450Y78000D01*
X40700Y62900D02*
X40400D01*
Y63050D01*
X40450Y63100D01*
X40550D01*
X40600Y63050D01*
Y62900D01*
Y63000D02*
X40700Y63100D01*
Y63400D02*
Y63200D01*
X40500Y63400D01*
X40450D01*
X40400Y63350D01*
Y63250D01*
X40450Y63200D01*
X40400Y63500D02*
Y63700D01*
X40450D01*
X40650Y63500D01*
X40700D01*
X40800Y90700D02*
X40500D01*
Y90850D01*
X40550Y90900D01*
X40650D01*
X40700Y90850D01*
Y90700D01*
Y90800D02*
X40800Y90900D01*
X40550Y91000D02*
X40500Y91050D01*
Y91150D01*
X40550Y91200D01*
X40600D01*
X40650Y91150D01*
Y91100D01*
Y91150D01*
X40700Y91200D01*
X40750D01*
X40800Y91150D01*
Y91050D01*
X40750Y91000D01*
X40500Y91500D02*
Y91300D01*
X40650D01*
X40600Y91400D01*
Y91450D01*
X40650Y91500D01*
X40750D01*
X40800Y91450D01*
Y91350D01*
X40750Y91300D01*
X40700Y78400D02*
X40400D01*
Y78550D01*
X40450Y78600D01*
X40550D01*
X40600Y78550D01*
Y78400D01*
Y78500D02*
X40700Y78600D01*
X40450Y78700D02*
X40400Y78750D01*
Y78850D01*
X40450Y78900D01*
X40500D01*
X40550Y78850D01*
Y78800D01*
Y78850D01*
X40600Y78900D01*
X40650D01*
X40700Y78850D01*
Y78750D01*
X40650Y78700D01*
X40700Y79200D02*
Y79000D01*
X40500Y79200D01*
X40450D01*
X40400Y79150D01*
Y79050D01*
X40450Y79000D01*
X40700Y63900D02*
X40400D01*
Y64050D01*
X40450Y64100D01*
X40550D01*
X40600Y64050D01*
Y63900D01*
Y64000D02*
X40700Y64100D01*
Y64400D02*
Y64200D01*
X40500Y64400D01*
X40450D01*
X40400Y64350D01*
Y64250D01*
X40450Y64200D01*
Y64500D02*
X40400Y64550D01*
Y64650D01*
X40450Y64700D01*
X40500D01*
X40550Y64650D01*
X40600Y64700D01*
X40650D01*
X40700Y64650D01*
Y64550D01*
X40650Y64500D01*
X40600D01*
X40550Y64550D01*
X40500Y64500D01*
X40450D01*
X40550Y64550D02*
Y64650D01*
X40800Y91700D02*
X40500D01*
Y91850D01*
X40550Y91900D01*
X40650D01*
X40700Y91850D01*
Y91700D01*
Y91800D02*
X40800Y91900D01*
X40550Y92000D02*
X40500Y92050D01*
Y92150D01*
X40550Y92200D01*
X40600D01*
X40650Y92150D01*
Y92100D01*
Y92150D01*
X40700Y92200D01*
X40750D01*
X40800Y92150D01*
Y92050D01*
X40750Y92000D01*
X40500Y92500D02*
X40550Y92400D01*
X40650Y92300D01*
X40750D01*
X40800Y92350D01*
Y92450D01*
X40750Y92500D01*
X40700D01*
X40650Y92450D01*
Y92300D01*
X40700Y76400D02*
X40400D01*
Y76550D01*
X40450Y76600D01*
X40550D01*
X40600Y76550D01*
Y76400D01*
Y76500D02*
X40700Y76600D01*
X40450Y76700D02*
X40400Y76750D01*
Y76850D01*
X40450Y76900D01*
X40500D01*
X40550Y76850D01*
Y76800D01*
Y76850D01*
X40600Y76900D01*
X40650D01*
X40700Y76850D01*
Y76750D01*
X40650Y76700D01*
X40450Y77000D02*
X40400Y77050D01*
Y77150D01*
X40450Y77200D01*
X40650D01*
X40700Y77150D01*
Y77050D01*
X40650Y77000D01*
X40450D01*
X40700Y61900D02*
X40400D01*
Y62050D01*
X40450Y62100D01*
X40550D01*
X40600Y62050D01*
Y61900D01*
Y62000D02*
X40700Y62100D01*
Y62400D02*
Y62200D01*
X40500Y62400D01*
X40450D01*
X40400Y62350D01*
Y62250D01*
X40450Y62200D01*
X40400Y62700D02*
X40450Y62600D01*
X40550Y62500D01*
X40650D01*
X40700Y62550D01*
Y62650D01*
X40650Y62700D01*
X40600D01*
X40550Y62650D01*
Y62500D01*
X40800Y89700D02*
X40500D01*
Y89850D01*
X40550Y89900D01*
X40650D01*
X40700Y89850D01*
Y89700D01*
Y89800D02*
X40800Y89900D01*
X40550Y90000D02*
X40500Y90050D01*
Y90150D01*
X40550Y90200D01*
X40600D01*
X40650Y90150D01*
Y90100D01*
Y90150D01*
X40700Y90200D01*
X40750D01*
X40800Y90150D01*
Y90050D01*
X40750Y90000D01*
X40800Y90450D02*
X40500D01*
X40650Y90300D01*
Y90500D01*
X40700Y79500D02*
X40400D01*
Y79650D01*
X40450Y79700D01*
X40550D01*
X40600Y79650D01*
Y79500D01*
Y79600D02*
X40700Y79700D01*
X40450Y79800D02*
X40400Y79850D01*
Y79950D01*
X40450Y80000D01*
X40500D01*
X40550Y79950D01*
Y79900D01*
Y79950D01*
X40600Y80000D01*
X40650D01*
X40700Y79950D01*
Y79850D01*
X40650Y79800D01*
X40450Y80100D02*
X40400Y80150D01*
Y80250D01*
X40450Y80300D01*
X40500D01*
X40550Y80250D01*
Y80200D01*
Y80250D01*
X40600Y80300D01*
X40650D01*
X40700Y80250D01*
Y80150D01*
X40650Y80100D01*
X40700Y65000D02*
X40400D01*
Y65150D01*
X40450Y65200D01*
X40550D01*
X40600Y65150D01*
Y65000D01*
Y65100D02*
X40700Y65200D01*
Y65500D02*
Y65300D01*
X40500Y65500D01*
X40450D01*
X40400Y65450D01*
Y65350D01*
X40450Y65300D01*
X40650Y65600D02*
X40700Y65650D01*
Y65750D01*
X40650Y65800D01*
X40450D01*
X40400Y65750D01*
Y65650D01*
X40450Y65600D01*
X40500D01*
X40550Y65650D01*
Y65800D01*
X40800Y92800D02*
X40500D01*
Y92950D01*
X40550Y93000D01*
X40650D01*
X40700Y92950D01*
Y92800D01*
Y92900D02*
X40800Y93000D01*
X40550Y93100D02*
X40500Y93150D01*
Y93250D01*
X40550Y93300D01*
X40600D01*
X40650Y93250D01*
Y93200D01*
Y93250D01*
X40700Y93300D01*
X40750D01*
X40800Y93250D01*
Y93150D01*
X40750Y93100D01*
X40500Y93400D02*
Y93600D01*
X40550D01*
X40750Y93400D01*
X40800D01*
X47700Y77100D02*
X48000D01*
Y76950D01*
X47950Y76900D01*
X47850D01*
X47800Y76950D01*
Y77100D01*
Y77000D02*
X47700Y76900D01*
Y76650D02*
X48000D01*
X47850Y76800D01*
Y76600D01*
X47750Y76500D02*
X47700Y76450D01*
Y76350D01*
X47750Y76300D01*
X47950D01*
X48000Y76350D01*
Y76450D01*
X47950Y76500D01*
X47900D01*
X47850Y76450D01*
Y76300D01*
X47700Y62600D02*
X48000D01*
Y62450D01*
X47950Y62400D01*
X47850D01*
X47800Y62450D01*
Y62600D01*
Y62500D02*
X47700Y62400D01*
Y62150D02*
X48000D01*
X47850Y62300D01*
Y62100D01*
X47700Y61850D02*
X48000D01*
X47850Y62000D01*
Y61800D01*
X47800Y90300D02*
X48100D01*
Y90150D01*
X48050Y90100D01*
X47950D01*
X47900Y90150D01*
Y90300D01*
Y90200D02*
X47800Y90100D01*
X48100Y89800D02*
Y90000D01*
X47950D01*
X48000Y89900D01*
Y89850D01*
X47950Y89800D01*
X47850D01*
X47800Y89850D01*
Y89950D01*
X47850Y90000D01*
X47800Y89550D02*
X48100D01*
X47950Y89700D01*
Y89500D01*
X47700Y80100D02*
X48000D01*
Y79950D01*
X47950Y79900D01*
X47850D01*
X47800Y79950D01*
Y80100D01*
Y80000D02*
X47700Y79900D01*
X48000Y79600D02*
Y79800D01*
X47850D01*
X47900Y79700D01*
Y79650D01*
X47850Y79600D01*
X47750D01*
X47700Y79650D01*
Y79750D01*
X47750Y79800D01*
X47700Y79300D02*
Y79500D01*
X47900Y79300D01*
X47950D01*
X48000Y79350D01*
Y79450D01*
X47950Y79500D01*
X47700Y65600D02*
X48000D01*
Y65450D01*
X47950Y65400D01*
X47850D01*
X47800Y65450D01*
Y65600D01*
Y65500D02*
X47700Y65400D01*
Y65150D02*
X48000D01*
X47850Y65300D01*
Y65100D01*
X48000Y65000D02*
Y64800D01*
X47950D01*
X47750Y65000D01*
X47700D01*
X47800Y93300D02*
X48100D01*
Y93150D01*
X48050Y93100D01*
X47950D01*
X47900Y93150D01*
Y93300D01*
Y93200D02*
X47800Y93100D01*
X48100Y92800D02*
Y93000D01*
X47950D01*
X48000Y92900D01*
Y92850D01*
X47950Y92800D01*
X47850D01*
X47800Y92850D01*
Y92950D01*
X47850Y93000D01*
X48100Y92700D02*
Y92500D01*
X48050D01*
X47850Y92700D01*
X47800D01*
X47700Y79100D02*
X48000D01*
Y78950D01*
X47950Y78900D01*
X47850D01*
X47800Y78950D01*
Y79100D01*
Y79000D02*
X47700Y78900D01*
X48000Y78600D02*
Y78800D01*
X47850D01*
X47900Y78700D01*
Y78650D01*
X47850Y78600D01*
X47750D01*
X47700Y78650D01*
Y78750D01*
X47750Y78800D01*
X47700Y78500D02*
Y78400D01*
Y78450D01*
X48000D01*
X47950Y78500D01*
X47700Y64600D02*
X48000D01*
Y64450D01*
X47950Y64400D01*
X47850D01*
X47800Y64450D01*
Y64600D01*
Y64500D02*
X47700Y64400D01*
Y64150D02*
X48000D01*
X47850Y64300D01*
Y64100D01*
X48000Y63800D02*
X47950Y63900D01*
X47850Y64000D01*
X47750D01*
X47700Y63950D01*
Y63850D01*
X47750Y63800D01*
X47800D01*
X47850Y63850D01*
Y64000D01*
X47800Y92300D02*
X48100D01*
Y92150D01*
X48050Y92100D01*
X47950D01*
X47900Y92150D01*
Y92300D01*
Y92200D02*
X47800Y92100D01*
X48100Y91800D02*
Y92000D01*
X47950D01*
X48000Y91900D01*
Y91850D01*
X47950Y91800D01*
X47850D01*
X47800Y91850D01*
Y91950D01*
X47850Y92000D01*
X48100Y91500D02*
X48050Y91600D01*
X47950Y91700D01*
X47850D01*
X47800Y91650D01*
Y91550D01*
X47850Y91500D01*
X47900D01*
X47950Y91550D01*
Y91700D01*
X47700Y78100D02*
X48000D01*
Y77950D01*
X47950Y77900D01*
X47850D01*
X47800Y77950D01*
Y78100D01*
Y78000D02*
X47700Y77900D01*
X48000Y77600D02*
Y77800D01*
X47850D01*
X47900Y77700D01*
Y77650D01*
X47850Y77600D01*
X47750D01*
X47700Y77650D01*
Y77750D01*
X47750Y77800D01*
X47950Y77500D02*
X48000Y77450D01*
Y77350D01*
X47950Y77300D01*
X47750D01*
X47700Y77350D01*
Y77450D01*
X47750Y77500D01*
X47950D01*
X47700Y63600D02*
X48000D01*
Y63450D01*
X47950Y63400D01*
X47850D01*
X47800Y63450D01*
Y63600D01*
Y63500D02*
X47700Y63400D01*
Y63150D02*
X48000D01*
X47850Y63300D01*
Y63100D01*
X48000Y62800D02*
Y63000D01*
X47850D01*
X47900Y62900D01*
Y62850D01*
X47850Y62800D01*
X47750D01*
X47700Y62850D01*
Y62950D01*
X47750Y63000D01*
X47800Y91300D02*
X48100D01*
Y91150D01*
X48050Y91100D01*
X47950D01*
X47900Y91150D01*
Y91300D01*
Y91200D02*
X47800Y91100D01*
X48100Y90800D02*
Y91000D01*
X47950D01*
X48000Y90900D01*
Y90850D01*
X47950Y90800D01*
X47850D01*
X47800Y90850D01*
Y90950D01*
X47850Y91000D01*
X48100Y90500D02*
Y90700D01*
X47950D01*
X48000Y90600D01*
Y90550D01*
X47950Y90500D01*
X47850D01*
X47800Y90550D01*
Y90650D01*
X47850Y90700D01*
X38100Y39000D02*
X37800D01*
Y39150D01*
X37850Y39200D01*
X37950D01*
X38000Y39150D01*
Y39000D01*
Y39100D02*
X38100Y39200D01*
Y39300D02*
Y39400D01*
Y39350D01*
X37800D01*
X37850Y39300D01*
Y39550D02*
X37800Y39600D01*
Y39700D01*
X37850Y39750D01*
X37900D01*
X37950Y39700D01*
X38000Y39750D01*
X38050D01*
X38100Y39700D01*
Y39600D01*
X38050Y39550D01*
X38000D01*
X37950Y39600D01*
X37900Y39550D01*
X37850D01*
X37950Y39600D02*
Y39700D01*
X65200Y63100D02*
X64900D01*
Y63250D01*
X64950Y63300D01*
X65050D01*
X65100Y63250D01*
Y63100D01*
Y63200D02*
X65200Y63300D01*
X65150Y63400D02*
X65200Y63450D01*
Y63550D01*
X65150Y63600D01*
X64950D01*
X64900Y63550D01*
Y63450D01*
X64950Y63400D01*
X65000D01*
X65050Y63450D01*
Y63600D01*
X65200Y63850D02*
X64900D01*
X65050Y63700D01*
Y63900D01*
X41200Y39800D02*
X41500D01*
Y39650D01*
X41450Y39600D01*
X41350D01*
X41300Y39650D01*
Y39800D01*
Y39700D02*
X41200Y39600D01*
Y39300D02*
Y39500D01*
X41400Y39300D01*
X41450D01*
X41500Y39350D01*
Y39450D01*
X41450Y39500D01*
Y39200D02*
X41500Y39150D01*
Y39050D01*
X41450Y39000D01*
X41400D01*
X41350Y39050D01*
Y39100D01*
Y39050D01*
X41300Y39000D01*
X41250D01*
X41200Y39050D01*
Y39150D01*
X41250Y39200D01*
X68300Y63800D02*
X68600D01*
Y63650D01*
X68550Y63600D01*
X68450D01*
X68400Y63650D01*
Y63800D01*
Y63700D02*
X68300Y63600D01*
Y63500D02*
Y63400D01*
Y63450D01*
X68600D01*
X68550Y63500D01*
Y63250D02*
X68600Y63200D01*
Y63100D01*
X68550Y63050D01*
X68350D01*
X68300Y63100D01*
Y63200D01*
X68350Y63250D01*
X68550D01*
X68300Y62800D02*
X68600D01*
X68450Y62950D01*
Y62750D01*
X38100Y37600D02*
X37800D01*
Y37750D01*
X37850Y37800D01*
X37950D01*
X38000Y37750D01*
Y37600D01*
Y37700D02*
X38100Y37800D01*
Y37900D02*
Y38000D01*
Y37950D01*
X37800D01*
X37850Y37900D01*
X37800Y38150D02*
Y38350D01*
X37850D01*
X38050Y38150D01*
X38100D01*
X65200Y61700D02*
X64900D01*
Y61850D01*
X64950Y61900D01*
X65050D01*
X65100Y61850D01*
Y61700D01*
Y61800D02*
X65200Y61900D01*
X65150Y62000D02*
X65200Y62050D01*
Y62150D01*
X65150Y62200D01*
X64950D01*
X64900Y62150D01*
Y62050D01*
X64950Y62000D01*
X65000D01*
X65050Y62050D01*
Y62200D01*
X64950Y62300D02*
X64900Y62350D01*
Y62450D01*
X64950Y62500D01*
X65000D01*
X65050Y62450D01*
Y62400D01*
Y62450D01*
X65100Y62500D01*
X65150D01*
X65200Y62450D01*
Y62350D01*
X65150Y62300D01*
X36800Y35800D02*
Y36100D01*
X36950D01*
X37000Y36050D01*
Y35950D01*
X36950Y35900D01*
X36800D01*
X36900D02*
X37000Y35800D01*
X37100D02*
X37200D01*
X37150D01*
Y36100D01*
X37100Y36050D01*
X37550Y36100D02*
X37450Y36050D01*
X37350Y35950D01*
Y35850D01*
X37400Y35800D01*
X37500D01*
X37550Y35850D01*
Y35900D01*
X37500Y35950D01*
X37350D01*
X63900Y59900D02*
Y60200D01*
X64050D01*
X64100Y60150D01*
Y60050D01*
X64050Y60000D01*
X63900D01*
X64000D02*
X64100Y59900D01*
X64200Y59950D02*
X64250Y59900D01*
X64350D01*
X64400Y59950D01*
Y60150D01*
X64350Y60200D01*
X64250D01*
X64200Y60150D01*
Y60100D01*
X64250Y60050D01*
X64400D01*
X64500Y60150D02*
X64550Y60200D01*
X64650D01*
X64700Y60150D01*
Y59950D01*
X64650Y59900D01*
X64550D01*
X64500Y59950D01*
Y60150D01*
X33100Y36200D02*
Y36500D01*
X33250D01*
X33300Y36450D01*
Y36350D01*
X33250Y36300D01*
X33100D01*
X33200D02*
X33300Y36200D01*
X33400D02*
X33500D01*
X33450D01*
Y36500D01*
X33400Y36450D01*
X33850Y36200D02*
X33650D01*
X33850Y36400D01*
Y36450D01*
X33800Y36500D01*
X33700D01*
X33650Y36450D01*
X60200Y60300D02*
Y60600D01*
X60350D01*
X60400Y60550D01*
Y60450D01*
X60350Y60400D01*
X60200D01*
X60300D02*
X60400Y60300D01*
X60500Y60550D02*
X60550Y60600D01*
X60650D01*
X60700Y60550D01*
Y60500D01*
X60650Y60450D01*
X60700Y60400D01*
Y60350D01*
X60650Y60300D01*
X60550D01*
X60500Y60350D01*
Y60400D01*
X60550Y60450D01*
X60500Y60500D01*
Y60550D01*
X60550Y60450D02*
X60650D01*
X60800Y60550D02*
X60850Y60600D01*
X60950D01*
X61000Y60550D01*
Y60500D01*
X60950Y60450D01*
X60900D01*
X60950D01*
X61000Y60400D01*
Y60350D01*
X60950Y60300D01*
X60850D01*
X60800Y60350D01*
X33000Y38200D02*
Y38500D01*
X33150D01*
X33200Y38450D01*
Y38350D01*
X33150Y38300D01*
X33000D01*
X33100D02*
X33200Y38200D01*
X33300D02*
X33400D01*
X33350D01*
Y38500D01*
X33300Y38450D01*
X33550Y38200D02*
X33650D01*
X33600D01*
Y38500D01*
X33550Y38450D01*
X60100Y62300D02*
Y62600D01*
X60250D01*
X60300Y62550D01*
Y62450D01*
X60250Y62400D01*
X60100D01*
X60200D02*
X60300Y62300D01*
X60400Y62550D02*
X60450Y62600D01*
X60550D01*
X60600Y62550D01*
Y62500D01*
X60550Y62450D01*
X60600Y62400D01*
Y62350D01*
X60550Y62300D01*
X60450D01*
X60400Y62350D01*
Y62400D01*
X60450Y62450D01*
X60400Y62500D01*
Y62550D01*
X60450Y62450D02*
X60550D01*
X60850Y62300D02*
Y62600D01*
X60700Y62450D01*
X60900D01*
X32800Y37300D02*
Y37000D01*
X32650D01*
X32600Y37050D01*
Y37150D01*
X32650Y37200D01*
X32800D01*
X32700D02*
X32600Y37300D01*
X32500Y37050D02*
X32450Y37000D01*
X32350D01*
X32300Y37050D01*
Y37100D01*
X32350Y37150D01*
X32400D01*
X32350D01*
X32300Y37200D01*
Y37250D01*
X32350Y37300D01*
X32450D01*
X32500Y37250D01*
X59800Y61400D02*
Y61100D01*
X59650D01*
X59600Y61150D01*
Y61250D01*
X59650Y61300D01*
X59800D01*
X59700D02*
X59600Y61400D01*
X59500Y61100D02*
X59300D01*
Y61150D01*
X59500Y61350D01*
Y61400D01*
X59000D02*
X59200D01*
X59000Y61200D01*
Y61150D01*
X59050Y61100D01*
X59150D01*
X59200Y61150D01*
X29300Y37400D02*
X29000D01*
Y37550D01*
X29050Y37600D01*
X29150D01*
X29200Y37550D01*
Y37400D01*
Y37500D02*
X29300Y37600D01*
Y37700D02*
Y37800D01*
Y37750D01*
X29000D01*
X29050Y37700D01*
X56400Y61500D02*
X56100D01*
Y61650D01*
X56150Y61700D01*
X56250D01*
X56300Y61650D01*
Y61500D01*
Y61600D02*
X56400Y61700D01*
X56100Y61800D02*
Y62000D01*
X56150D01*
X56350Y61800D01*
X56400D01*
Y62100D02*
Y62200D01*
Y62150D01*
X56100D01*
X56150Y62100D01*
X38900Y42700D02*
X39200D01*
Y42550D01*
X39150Y42500D01*
X39050D01*
X39000Y42550D01*
Y42700D01*
Y42600D02*
X38900Y42500D01*
Y42400D02*
Y42300D01*
Y42350D01*
X39200D01*
X39150Y42400D01*
X38950Y42150D02*
X38900Y42100D01*
Y42000D01*
X38950Y41950D01*
X39150D01*
X39200Y42000D01*
Y42100D01*
X39150Y42150D01*
X39100D01*
X39050Y42100D01*
Y41950D01*
X66000Y66700D02*
X66300D01*
Y66550D01*
X66250Y66500D01*
X66150D01*
X66100Y66550D01*
Y66700D01*
Y66600D02*
X66000Y66500D01*
X66050Y66400D02*
X66000Y66350D01*
Y66250D01*
X66050Y66200D01*
X66250D01*
X66300Y66250D01*
Y66350D01*
X66250Y66400D01*
X66200D01*
X66150Y66350D01*
Y66200D01*
X66300Y65900D02*
Y66100D01*
X66150D01*
X66200Y66000D01*
Y65950D01*
X66150Y65900D01*
X66050D01*
X66000Y65950D01*
Y66050D01*
X66050Y66100D01*
X39400Y37300D02*
Y37600D01*
X39550D01*
X39600Y37550D01*
Y37450D01*
X39550Y37400D01*
X39400D01*
X39500D02*
X39600Y37300D01*
X39900D02*
X39700D01*
X39900Y37500D01*
Y37550D01*
X39850Y37600D01*
X39750D01*
X39700Y37550D01*
X40200Y37300D02*
X40000D01*
X40200Y37500D01*
Y37550D01*
X40150Y37600D01*
X40050D01*
X40000Y37550D01*
X66500Y61400D02*
Y61700D01*
X66650D01*
X66700Y61650D01*
Y61550D01*
X66650Y61500D01*
X66500D01*
X66600D02*
X66700Y61400D01*
X66800D02*
X66900D01*
X66850D01*
Y61700D01*
X66800Y61650D01*
X67050D02*
X67100Y61700D01*
X67200D01*
X67250Y61650D01*
Y61450D01*
X67200Y61400D01*
X67100D01*
X67050Y61450D01*
Y61650D01*
X67350D02*
X67400Y61700D01*
X67500D01*
X67550Y61650D01*
Y61450D01*
X67500Y61400D01*
X67400D01*
X67350Y61450D01*
Y61650D01*
X35000Y35800D02*
Y36100D01*
X35150D01*
X35200Y36050D01*
Y35950D01*
X35150Y35900D01*
X35000D01*
X35100D02*
X35200Y35800D01*
X35300D02*
X35400D01*
X35350D01*
Y36100D01*
X35300Y36050D01*
X35550D02*
X35600Y36100D01*
X35700D01*
X35750Y36050D01*
Y36000D01*
X35700Y35950D01*
X35650D01*
X35700D01*
X35750Y35900D01*
Y35850D01*
X35700Y35800D01*
X35600D01*
X35550Y35850D01*
X62100Y59900D02*
Y60200D01*
X62250D01*
X62300Y60150D01*
Y60050D01*
X62250Y60000D01*
X62100D01*
X62200D02*
X62300Y59900D01*
X62400Y60150D02*
X62450Y60200D01*
X62550D01*
X62600Y60150D01*
Y60100D01*
X62550Y60050D01*
X62600Y60000D01*
Y59950D01*
X62550Y59900D01*
X62450D01*
X62400Y59950D01*
Y60000D01*
X62450Y60050D01*
X62400Y60100D01*
Y60150D01*
X62450Y60050D02*
X62550D01*
X62700Y60150D02*
X62750Y60200D01*
X62850D01*
X62900Y60150D01*
Y60100D01*
X62850Y60050D01*
X62900Y60000D01*
Y59950D01*
X62850Y59900D01*
X62750D01*
X62700Y59950D01*
Y60000D01*
X62750Y60050D01*
X62700Y60100D01*
Y60150D01*
X62750Y60050D02*
X62850D01*
X31300Y40100D02*
X31000D01*
Y40250D01*
X31050Y40300D01*
X31150D01*
X31200Y40250D01*
Y40100D01*
Y40200D02*
X31300Y40300D01*
X31000Y40600D02*
Y40400D01*
X31150D01*
X31100Y40500D01*
Y40550D01*
X31150Y40600D01*
X31250D01*
X31300Y40550D01*
Y40450D01*
X31250Y40400D01*
X58400Y64200D02*
X58100D01*
Y64350D01*
X58150Y64400D01*
X58250D01*
X58300Y64350D01*
Y64200D01*
Y64300D02*
X58400Y64400D01*
X58100Y64500D02*
Y64700D01*
X58150D01*
X58350Y64500D01*
X58400D01*
X58350Y64800D02*
X58400Y64850D01*
Y64950D01*
X58350Y65000D01*
X58150D01*
X58100Y64950D01*
Y64850D01*
X58150Y64800D01*
X58200D01*
X58250Y64850D01*
Y65000D01*
X73120Y55840D02*
Y56140D01*
X73270D01*
X73320Y56090D01*
Y55990D01*
X73270Y55940D01*
X73120D01*
X73570Y56140D02*
X73470D01*
X73420Y56090D01*
Y55890D01*
X73470Y55840D01*
X73570D01*
X73620Y55890D01*
Y56090D01*
X73570Y56140D01*
X73720D02*
Y55840D01*
X73820Y55940D01*
X73920Y55840D01*
Y56140D01*
X74220D02*
X74020D01*
Y55840D01*
X74220D01*
X74020Y55990D02*
X74120D01*
X74320Y55840D02*
Y56140D01*
X74470D01*
X74520Y56090D01*
Y55990D01*
X74470Y55940D01*
X74320D01*
X74420D02*
X74520Y55840D01*
X74620Y55990D02*
X74819D01*
X74919Y55840D02*
Y56040D01*
X75019Y56140D01*
X75119Y56040D01*
Y55840D01*
Y55990D01*
X74919D01*
X75219Y55840D02*
X75319D01*
X75269D01*
Y56140D01*
X75219Y56090D01*
X69370Y47970D02*
Y48270D01*
X69520D01*
X69570Y48220D01*
Y48120D01*
X69520Y48070D01*
X69370D01*
X69670Y47970D02*
X69770D01*
X69720D01*
Y48270D01*
X69670Y48220D01*
X70120Y47970D02*
X69920D01*
X70120Y48170D01*
Y48220D01*
X70070Y48270D01*
X69970D01*
X69920Y48220D01*
X57900Y40600D02*
X58200D01*
Y40450D01*
X58150Y40400D01*
X58050D01*
X58000Y40450D01*
Y40600D01*
X58150Y40300D02*
X58200Y40250D01*
Y40150D01*
X58150Y40100D01*
X58100D01*
X58050Y40150D01*
X58000Y40100D01*
X57950D01*
X57900Y40150D01*
Y40250D01*
X57950Y40300D01*
X58000D01*
X58050Y40250D01*
X58100Y40300D01*
X58150D01*
X58050Y40250D02*
Y40150D01*
X42770Y44570D02*
Y44870D01*
X42920D01*
X42970Y44820D01*
Y44720D01*
X42920Y44670D01*
X42770D01*
X43270Y44870D02*
X43170Y44820D01*
X43070Y44720D01*
Y44620D01*
X43120Y44570D01*
X43220D01*
X43270Y44620D01*
Y44670D01*
X43220Y44720D01*
X43070D01*
X21770Y41570D02*
Y41870D01*
X21920D01*
X21970Y41820D01*
Y41720D01*
X21920Y41670D01*
X21770D01*
X22070Y41570D02*
X22170D01*
X22120D01*
Y41870D01*
X22070Y41820D01*
X21570Y53670D02*
Y53970D01*
X21720D01*
X21770Y53920D01*
Y53820D01*
X21720Y53770D01*
X21570D01*
X22070Y53670D02*
X21870D01*
X22070Y53870D01*
Y53920D01*
X22020Y53970D01*
X21920D01*
X21870Y53920D01*
X50000Y49200D02*
X49700D01*
Y49350D01*
X49750Y49400D01*
X49850D01*
X49900Y49350D01*
Y49200D01*
X49700Y49500D02*
Y49700D01*
X49750D01*
X49950Y49500D01*
X50000D01*
X54370Y87770D02*
Y88070D01*
X54520D01*
X54570Y88020D01*
Y87920D01*
X54520Y87870D01*
X54370D01*
X54670Y87770D02*
X54770D01*
X54720D01*
Y88070D01*
X54670Y88020D01*
X54920Y87770D02*
X55020D01*
X54970D01*
Y88070D01*
X54920Y88020D01*
X36570Y88770D02*
Y89070D01*
X36720D01*
X36770Y89020D01*
Y88920D01*
X36720Y88870D01*
X36570D01*
X37020Y88770D02*
Y89070D01*
X36870Y88920D01*
X37070D01*
X70170Y89170D02*
Y89470D01*
X70320D01*
X70370Y89420D01*
Y89320D01*
X70320Y89270D01*
X70170D01*
X70470Y89170D02*
X70570D01*
X70520D01*
Y89470D01*
X70470Y89420D01*
X70920Y89470D02*
X70720D01*
Y89320D01*
X70820Y89370D01*
X70870D01*
X70920Y89320D01*
Y89220D01*
X70870Y89170D01*
X70770D01*
X70720Y89220D01*
X53370Y58570D02*
Y58870D01*
X53520D01*
X53570Y58820D01*
Y58720D01*
X53520Y58670D01*
X53370D01*
X53670Y58570D02*
X53770D01*
X53720D01*
Y58870D01*
X53670Y58820D01*
X53920D02*
X53970Y58870D01*
X54070D01*
X54120Y58820D01*
Y58620D01*
X54070Y58570D01*
X53970D01*
X53920Y58620D01*
Y58820D01*
X37370Y61570D02*
Y61870D01*
X37520D01*
X37570Y61820D01*
Y61720D01*
X37520Y61670D01*
X37370D01*
X37870Y61870D02*
X37670D01*
Y61720D01*
X37770Y61770D01*
X37820D01*
X37870Y61720D01*
Y61620D01*
X37820Y61570D01*
X37720D01*
X37670Y61620D01*
X70770Y63770D02*
Y64070D01*
X70920D01*
X70970Y64020D01*
Y63920D01*
X70920Y63870D01*
X70770D01*
X71070Y63770D02*
X71170D01*
X71120D01*
Y64070D01*
X71070Y64020D01*
X71320D02*
X71370Y64070D01*
X71470D01*
X71520Y64020D01*
Y63970D01*
X71470Y63920D01*
X71420D01*
X71470D01*
X71520Y63870D01*
Y63820D01*
X71470Y63770D01*
X71370D01*
X71320Y63820D01*
X52770Y72570D02*
Y72870D01*
X52920D01*
X52970Y72820D01*
Y72720D01*
X52920Y72670D01*
X52770D01*
X53070Y72620D02*
X53120Y72570D01*
X53220D01*
X53270Y72620D01*
Y72820D01*
X53220Y72870D01*
X53120D01*
X53070Y72820D01*
Y72770D01*
X53120Y72720D01*
X53270D01*
X36570Y75170D02*
Y75470D01*
X36720D01*
X36770Y75420D01*
Y75320D01*
X36720Y75270D01*
X36570D01*
X36870Y75420D02*
X36920Y75470D01*
X37020D01*
X37070Y75420D01*
Y75370D01*
X37020Y75320D01*
X36970D01*
X37020D01*
X37070Y75270D01*
Y75220D01*
X37020Y75170D01*
X36920D01*
X36870Y75220D01*
X70770Y72170D02*
Y72470D01*
X70920D01*
X70970Y72420D01*
Y72320D01*
X70920Y72270D01*
X70770D01*
X71070Y72170D02*
X71170D01*
X71120D01*
Y72470D01*
X71070Y72420D01*
X71470Y72170D02*
Y72470D01*
X71320Y72320D01*
X71520D01*
X66790Y56020D02*
Y55720D01*
X66990D01*
X67290D02*
X67090D01*
X67290Y55920D01*
Y55970D01*
X67240Y56020D01*
X67140D01*
X67090Y55970D01*
X66790Y51420D02*
Y51120D01*
X66990D01*
X67090D02*
X67190D01*
X67140D01*
Y51420D01*
X67090Y51370D01*
X40400Y44800D02*
X40500D01*
X40450D01*
Y45050D01*
X40500Y45100D01*
X40550D01*
X40600Y45050D01*
X40300Y45100D02*
Y44800D01*
X40150D01*
X40100Y44850D01*
Y44950D01*
X40150Y45000D01*
X40300D01*
X40000Y44850D02*
X39950Y44800D01*
X39850D01*
X39800Y44850D01*
Y44900D01*
X39850Y44950D01*
X39900D01*
X39850D01*
X39800Y45000D01*
Y45050D01*
X39850Y45100D01*
X39950D01*
X40000Y45050D01*
X67200Y72100D02*
X67300D01*
X67250D01*
Y72350D01*
X67300Y72400D01*
X67350D01*
X67400Y72350D01*
X67100Y72400D02*
Y72100D01*
X66950D01*
X66900Y72150D01*
Y72250D01*
X66950Y72300D01*
X67100D01*
X66800Y72400D02*
X66700D01*
X66750D01*
Y72100D01*
X66800Y72150D01*
X66350Y72400D02*
X66550D01*
X66350Y72200D01*
Y72150D01*
X66400Y72100D01*
X66500D01*
X66550Y72150D01*
X40400Y46200D02*
X40500D01*
X40450D01*
Y46450D01*
X40500Y46500D01*
X40550D01*
X40600Y46450D01*
X40300Y46500D02*
Y46200D01*
X40150D01*
X40100Y46250D01*
Y46350D01*
X40150Y46400D01*
X40300D01*
X39850Y46500D02*
Y46200D01*
X40000Y46350D01*
X39800D01*
X67200Y73500D02*
X67300D01*
X67250D01*
Y73750D01*
X67300Y73800D01*
X67350D01*
X67400Y73750D01*
X67100Y73800D02*
Y73500D01*
X66950D01*
X66900Y73550D01*
Y73650D01*
X66950Y73700D01*
X67100D01*
X66800Y73800D02*
X66700D01*
X66750D01*
Y73500D01*
X66800Y73550D01*
X66550D02*
X66500Y73500D01*
X66400D01*
X66350Y73550D01*
Y73600D01*
X66400Y73650D01*
X66450D01*
X66400D01*
X66350Y73700D01*
Y73750D01*
X66400Y73800D01*
X66500D01*
X66550Y73750D01*
X33100Y53200D02*
X33000D01*
X33050D01*
Y52950D01*
X33000Y52900D01*
X32950D01*
X32900Y52950D01*
X33200Y52900D02*
Y53200D01*
X33350D01*
X33400Y53150D01*
Y53050D01*
X33350Y53000D01*
X33200D01*
X33700Y52900D02*
X33500D01*
X33700Y53100D01*
Y53150D01*
X33650Y53200D01*
X33550D01*
X33500Y53150D01*
X60000Y80500D02*
X59900D01*
X59950D01*
Y80250D01*
X59900Y80200D01*
X59850D01*
X59800Y80250D01*
X60100Y80200D02*
Y80500D01*
X60250D01*
X60300Y80450D01*
Y80350D01*
X60250Y80300D01*
X60100D01*
X60400Y80200D02*
X60500D01*
X60450D01*
Y80500D01*
X60400Y80450D01*
X60650Y80200D02*
X60750D01*
X60700D01*
Y80500D01*
X60650Y80450D01*
X33200Y45700D02*
X33300D01*
X33250D01*
Y45950D01*
X33300Y46000D01*
X33350D01*
X33400Y45950D01*
X33100Y46000D02*
Y45700D01*
X32950D01*
X32900Y45750D01*
Y45850D01*
X32950Y45900D01*
X33100D01*
X32800Y46000D02*
X32700D01*
X32750D01*
Y45700D01*
X32800Y45750D01*
X60000Y73000D02*
X60100D01*
X60050D01*
Y73250D01*
X60100Y73300D01*
X60150D01*
X60200Y73250D01*
X59900Y73300D02*
Y73000D01*
X59750D01*
X59700Y73050D01*
Y73150D01*
X59750Y73200D01*
X59900D01*
X59600Y73300D02*
X59500D01*
X59550D01*
Y73000D01*
X59600Y73050D01*
X59350D02*
X59300Y73000D01*
X59200D01*
X59150Y73050D01*
Y73250D01*
X59200Y73300D01*
X59300D01*
X59350Y73250D01*
Y73050D01*
X47000Y44700D02*
X47100D01*
X47050D01*
Y44950D01*
X47100Y45000D01*
X47150D01*
X47200Y44950D01*
X46900Y45000D02*
Y44700D01*
X46750D01*
X46700Y44750D01*
Y44850D01*
X46750Y44900D01*
X46900D01*
X46400Y44700D02*
X46500Y44750D01*
X46600Y44850D01*
Y44950D01*
X46550Y45000D01*
X46450D01*
X46400Y44950D01*
Y44900D01*
X46450Y44850D01*
X46600D01*
X73800Y72000D02*
X73900D01*
X73850D01*
Y72250D01*
X73900Y72300D01*
X73950D01*
X74000Y72250D01*
X73700Y72300D02*
Y72000D01*
X73550D01*
X73500Y72050D01*
Y72150D01*
X73550Y72200D01*
X73700D01*
X73400Y72300D02*
X73300D01*
X73350D01*
Y72000D01*
X73400Y72050D01*
X72950Y72000D02*
X73150D01*
Y72150D01*
X73050Y72100D01*
X73000D01*
X72950Y72150D01*
Y72250D01*
X73000Y72300D01*
X73100D01*
X73150Y72250D01*
X47000Y75800D02*
X46900D01*
X46950D01*
Y75550D01*
X46900Y75500D01*
X46850D01*
X46800Y75550D01*
X47100Y75500D02*
Y75800D01*
X47250D01*
X47300Y75750D01*
Y75650D01*
X47250Y75600D01*
X47100D01*
X47400Y75750D02*
X47450Y75800D01*
X47550D01*
X47600Y75750D01*
Y75700D01*
X47550Y75650D01*
X47600Y75600D01*
Y75550D01*
X47550Y75500D01*
X47450D01*
X47400Y75550D01*
Y75600D01*
X47450Y75650D01*
X47400Y75700D01*
Y75750D01*
X47450Y75650D02*
X47550D01*
X47000Y61300D02*
X46900D01*
X46950D01*
Y61050D01*
X46900Y61000D01*
X46850D01*
X46800Y61050D01*
X47100Y61000D02*
Y61300D01*
X47250D01*
X47300Y61250D01*
Y61150D01*
X47250Y61100D01*
X47100D01*
X47400Y61300D02*
X47600D01*
Y61250D01*
X47400Y61050D01*
Y61000D01*
X47100Y89100D02*
X47000D01*
X47050D01*
Y88850D01*
X47000Y88800D01*
X46950D01*
X46900Y88850D01*
X47200Y88800D02*
Y89100D01*
X47350D01*
X47400Y89050D01*
Y88950D01*
X47350Y88900D01*
X47200D01*
X47500Y88850D02*
X47550Y88800D01*
X47650D01*
X47700Y88850D01*
Y89050D01*
X47650Y89100D01*
X47550D01*
X47500Y89050D01*
Y89000D01*
X47550Y88950D01*
X47700D01*
X40330Y43660D02*
X40230D01*
X40280D01*
Y43410D01*
X40230Y43360D01*
X40180D01*
X40130Y43410D01*
X40430Y43360D02*
Y43660D01*
X40580D01*
X40630Y43610D01*
Y43510D01*
X40580Y43460D01*
X40430D01*
X40930Y43660D02*
X40730D01*
Y43510D01*
X40830Y43560D01*
X40880D01*
X40930Y43510D01*
Y43410D01*
X40880Y43360D01*
X40780D01*
X40730Y43410D01*
X67430Y67760D02*
X67330D01*
X67380D01*
Y67510D01*
X67330Y67460D01*
X67280D01*
X67230Y67510D01*
X67530Y67460D02*
Y67760D01*
X67680D01*
X67730Y67710D01*
Y67610D01*
X67680Y67560D01*
X67530D01*
X67830Y67460D02*
X67930D01*
X67880D01*
Y67760D01*
X67830Y67710D01*
X68230Y67460D02*
Y67760D01*
X68080Y67610D01*
X68280D01*
X19680Y95680D02*
Y95780D01*
Y95730D01*
X19430D01*
X19380Y95780D01*
Y95830D01*
X19430Y95880D01*
X19630Y95580D02*
X19680Y95530D01*
Y95430D01*
X19630Y95380D01*
X19580D01*
X19530Y95430D01*
Y95480D01*
Y95430D01*
X19480Y95380D01*
X19430D01*
X19380Y95430D01*
Y95530D01*
X19430Y95580D01*
X19680Y66780D02*
Y66880D01*
Y66830D01*
X19430D01*
X19380Y66880D01*
Y66930D01*
X19430Y66980D01*
X19380Y66680D02*
Y66580D01*
Y66630D01*
X19680D01*
X19630Y66680D01*
X19580Y81980D02*
Y82080D01*
Y82030D01*
X19330D01*
X19280Y82080D01*
Y82130D01*
X19330Y82180D01*
X19280Y81680D02*
Y81880D01*
X19480Y81680D01*
X19530D01*
X19580Y81730D01*
Y81830D01*
X19530Y81880D01*
X62610Y55650D02*
X62560Y55700D01*
X62460D01*
X62410Y55650D01*
Y55450D01*
X62460Y55400D01*
X62560D01*
X62610Y55450D01*
X62910Y55700D02*
X62710D01*
Y55550D01*
X62810Y55600D01*
X62860D01*
X62910Y55550D01*
Y55450D01*
X62860Y55400D01*
X62760D01*
X62710Y55450D01*
X63010Y55700D02*
X63210D01*
Y55650D01*
X63010Y55450D01*
Y55400D01*
X62770Y48250D02*
X62720Y48300D01*
X62620D01*
X62570Y48250D01*
Y48050D01*
X62620Y48000D01*
X62720D01*
X62770Y48050D01*
X63070Y48300D02*
X62870D01*
Y48150D01*
X62970Y48200D01*
X63020D01*
X63070Y48150D01*
Y48050D01*
X63020Y48000D01*
X62920D01*
X62870Y48050D01*
X63370Y48300D02*
X63270Y48250D01*
X63170Y48150D01*
Y48050D01*
X63220Y48000D01*
X63320D01*
X63370Y48050D01*
Y48100D01*
X63320Y48150D01*
X63170D01*
X53700Y98350D02*
X53650Y98400D01*
X53550D01*
X53500Y98350D01*
Y98150D01*
X53550Y98100D01*
X53650D01*
X53700Y98150D01*
X53950Y98100D02*
Y98400D01*
X53800Y98250D01*
X54000D01*
X54250Y98100D02*
Y98400D01*
X54100Y98250D01*
X54300D01*
X35900Y60350D02*
X35950Y60300D01*
X36050D01*
X36100Y60350D01*
Y60550D01*
X36050Y60600D01*
X35950D01*
X35900Y60550D01*
X35800Y60350D02*
X35750Y60300D01*
X35650D01*
X35600Y60350D01*
Y60400D01*
X35650Y60450D01*
X35600Y60500D01*
Y60550D01*
X35650Y60600D01*
X35750D01*
X35800Y60550D01*
Y60500D01*
X35750Y60450D01*
X35800Y60400D01*
Y60350D01*
X35750Y60450D02*
X35650D01*
X35800Y74350D02*
X35850Y74300D01*
X35950D01*
X36000Y74350D01*
Y74550D01*
X35950Y74600D01*
X35850D01*
X35800Y74550D01*
X35700D02*
X35650Y74600D01*
X35550D01*
X35500Y74550D01*
Y74350D01*
X35550Y74300D01*
X35650D01*
X35700Y74350D01*
Y74400D01*
X35650Y74450D01*
X35500D01*
X34300Y89950D02*
X34250Y90000D01*
X34150D01*
X34100Y89950D01*
Y89750D01*
X34150Y89700D01*
X34250D01*
X34300Y89750D01*
X34400Y89700D02*
X34500D01*
X34450D01*
Y90000D01*
X34400Y89950D01*
X34850Y90000D02*
X34750Y89950D01*
X34650Y89850D01*
Y89750D01*
X34700Y89700D01*
X34800D01*
X34850Y89750D01*
Y89800D01*
X34800Y89850D01*
X34650D01*
X34300Y65350D02*
X34250Y65400D01*
X34150D01*
X34100Y65350D01*
Y65150D01*
X34150Y65100D01*
X34250D01*
X34300Y65150D01*
X34400Y65100D02*
X34500D01*
X34450D01*
Y65400D01*
X34400Y65350D01*
X34850Y65400D02*
X34650D01*
Y65250D01*
X34750Y65300D01*
X34800D01*
X34850Y65250D01*
Y65150D01*
X34800Y65100D01*
X34700D01*
X34650Y65150D01*
X34200Y79350D02*
X34150Y79400D01*
X34050D01*
X34000Y79350D01*
Y79150D01*
X34050Y79100D01*
X34150D01*
X34200Y79150D01*
X34300Y79100D02*
X34400D01*
X34350D01*
Y79400D01*
X34300Y79350D01*
X34550D02*
X34600Y79400D01*
X34700D01*
X34750Y79350D01*
Y79150D01*
X34700Y79100D01*
X34600D01*
X34550Y79150D01*
Y79350D01*
X34300Y93250D02*
X34250Y93300D01*
X34150D01*
X34100Y93250D01*
Y93050D01*
X34150Y93000D01*
X34250D01*
X34300Y93050D01*
X34400Y93000D02*
X34500D01*
X34450D01*
Y93300D01*
X34400Y93250D01*
X34650Y93300D02*
X34850D01*
Y93250D01*
X34650Y93050D01*
Y93000D01*
X69400Y36650D02*
X69450Y36600D01*
X69550D01*
X69600Y36650D01*
Y36850D01*
X69550Y36900D01*
X69450D01*
X69400Y36850D01*
X69100Y36600D02*
X69200Y36650D01*
X69300Y36750D01*
Y36850D01*
X69250Y36900D01*
X69150D01*
X69100Y36850D01*
Y36800D01*
X69150Y36750D01*
X69300D01*
X68850Y36900D02*
Y36600D01*
X69000Y36750D01*
X68800D01*
X66500Y90550D02*
X66550Y90500D01*
X66650D01*
X66700Y90550D01*
Y90750D01*
X66650Y90800D01*
X66550D01*
X66500Y90750D01*
X66200Y90500D02*
X66300Y90550D01*
X66400Y90650D01*
Y90750D01*
X66350Y90800D01*
X66250D01*
X66200Y90750D01*
Y90700D01*
X66250Y90650D01*
X66400D01*
X66100Y90550D02*
X66050Y90500D01*
X65950D01*
X65900Y90550D01*
Y90750D01*
X65950Y90800D01*
X66050D01*
X66100Y90750D01*
Y90550D01*
X71800Y39450D02*
X71750Y39500D01*
X71650D01*
X71600Y39450D01*
Y39250D01*
X71650Y39200D01*
X71750D01*
X71800Y39250D01*
X71900Y39500D02*
X72100D01*
Y39450D01*
X71900Y39250D01*
Y39200D01*
X72200D02*
X72300D01*
X72250D01*
Y39500D01*
X72200Y39450D01*
X69000Y93350D02*
X68950Y93400D01*
X68850D01*
X68800Y93350D01*
Y93150D01*
X68850Y93100D01*
X68950D01*
X69000Y93150D01*
X69300Y93400D02*
X69200Y93350D01*
X69100Y93250D01*
Y93150D01*
X69150Y93100D01*
X69250D01*
X69300Y93150D01*
Y93200D01*
X69250Y93250D01*
X69100D01*
X69400Y93150D02*
X69450Y93100D01*
X69550D01*
X69600Y93150D01*
Y93350D01*
X69550Y93400D01*
X69450D01*
X69400Y93350D01*
Y93300D01*
X69450Y93250D01*
X69600D01*
X47550Y49300D02*
X47600Y49350D01*
Y49450D01*
X47550Y49500D01*
X47350D01*
X47300Y49450D01*
Y49350D01*
X47350Y49300D01*
X47550Y49200D02*
X47600Y49150D01*
Y49050D01*
X47550Y49000D01*
X47500D01*
X47450Y49050D01*
Y49100D01*
Y49050D01*
X47400Y49000D01*
X47350D01*
X47300Y49050D01*
Y49150D01*
X47350Y49200D01*
X47600Y48900D02*
Y48700D01*
X47550D01*
X47350Y48900D01*
X47300D01*
X74450Y76500D02*
X74500Y76550D01*
Y76650D01*
X74450Y76700D01*
X74250D01*
X74200Y76650D01*
Y76550D01*
X74250Y76500D01*
X74500Y76400D02*
Y76200D01*
X74450D01*
X74250Y76400D01*
X74200D01*
Y75900D02*
Y76100D01*
X74400Y75900D01*
X74450D01*
X74500Y75950D01*
Y76050D01*
X74450Y76100D01*
X37000Y43450D02*
X37050Y43400D01*
X37150D01*
X37200Y43450D01*
Y43650D01*
X37150Y43700D01*
X37050D01*
X37000Y43650D01*
X36900Y43400D02*
X36700D01*
Y43450D01*
X36900Y43650D01*
Y43700D01*
X63800Y70750D02*
X63850Y70700D01*
X63950D01*
X64000Y70750D01*
Y70950D01*
X63950Y71000D01*
X63850D01*
X63800Y70950D01*
X63500Y70700D02*
X63700D01*
Y70850D01*
X63600Y70800D01*
X63550D01*
X63500Y70850D01*
Y70950D01*
X63550Y71000D01*
X63650D01*
X63700Y70950D01*
X63200Y71000D02*
X63400D01*
X63200Y70800D01*
Y70750D01*
X63250Y70700D01*
X63350D01*
X63400Y70750D01*
X35100Y53250D02*
X35050Y53300D01*
X34950D01*
X34900Y53250D01*
Y53050D01*
X34950Y53000D01*
X35050D01*
X35100Y53050D01*
X35200Y53000D02*
X35300D01*
X35250D01*
Y53300D01*
X35200Y53250D01*
X35600Y53000D02*
Y53300D01*
X35450Y53150D01*
X35650D01*
X62000Y80550D02*
X61950Y80600D01*
X61850D01*
X61800Y80550D01*
Y80350D01*
X61850Y80300D01*
X61950D01*
X62000Y80350D01*
X62300Y80600D02*
X62100D01*
Y80450D01*
X62200Y80500D01*
X62250D01*
X62300Y80450D01*
Y80350D01*
X62250Y80300D01*
X62150D01*
X62100Y80350D01*
X62600Y80600D02*
X62400D01*
Y80450D01*
X62500Y80500D01*
X62550D01*
X62600Y80450D01*
Y80350D01*
X62550Y80300D01*
X62450D01*
X62400Y80350D01*
X42200Y53250D02*
X42150Y53300D01*
X42050D01*
X42000Y53250D01*
Y53050D01*
X42050Y53000D01*
X42150D01*
X42200Y53050D01*
X42300Y53250D02*
X42350Y53300D01*
X42450D01*
X42500Y53250D01*
Y53200D01*
X42450Y53150D01*
X42400D01*
X42450D01*
X42500Y53100D01*
Y53050D01*
X42450Y53000D01*
X42350D01*
X42300Y53050D01*
X42800Y53300D02*
X42600D01*
Y53150D01*
X42700Y53200D01*
X42750D01*
X42800Y53150D01*
Y53050D01*
X42750Y53000D01*
X42650D01*
X42600Y53050D01*
X69100Y80550D02*
X69050Y80600D01*
X68950D01*
X68900Y80550D01*
Y80350D01*
X68950Y80300D01*
X69050D01*
X69100Y80350D01*
X69400Y80600D02*
X69300Y80550D01*
X69200Y80450D01*
Y80350D01*
X69250Y80300D01*
X69350D01*
X69400Y80350D01*
Y80400D01*
X69350Y80450D01*
X69200D01*
X69500Y80550D02*
X69550Y80600D01*
X69650D01*
X69700Y80550D01*
Y80500D01*
X69650Y80450D01*
X69700Y80400D01*
Y80350D01*
X69650Y80300D01*
X69550D01*
X69500Y80350D01*
Y80400D01*
X69550Y80450D01*
X69500Y80500D01*
Y80550D01*
X69550Y80450D02*
X69650D01*
X43400Y44750D02*
X43450Y44700D01*
X43550D01*
X43600Y44750D01*
Y44950D01*
X43550Y45000D01*
X43450D01*
X43400Y44950D01*
X43300Y44750D02*
X43250Y44700D01*
X43150D01*
X43100Y44750D01*
Y44800D01*
X43150Y44850D01*
X43200D01*
X43150D01*
X43100Y44900D01*
Y44950D01*
X43150Y45000D01*
X43250D01*
X43300Y44950D01*
X42800Y45000D02*
X43000D01*
X42800Y44800D01*
Y44750D01*
X42850Y44700D01*
X42950D01*
X43000Y44750D01*
X70200Y72050D02*
X70250Y72000D01*
X70350D01*
X70400Y72050D01*
Y72250D01*
X70350Y72300D01*
X70250D01*
X70200Y72250D01*
X69900Y72000D02*
X70000Y72050D01*
X70100Y72150D01*
Y72250D01*
X70050Y72300D01*
X69950D01*
X69900Y72250D01*
Y72200D01*
X69950Y72150D01*
X70100D01*
X69600Y72000D02*
X69800D01*
Y72150D01*
X69700Y72100D01*
X69650D01*
X69600Y72150D01*
Y72250D01*
X69650Y72300D01*
X69750D01*
X69800Y72250D01*
X38450Y48200D02*
X38500Y48250D01*
Y48350D01*
X38450Y48400D01*
X38250D01*
X38200Y48350D01*
Y48250D01*
X38250Y48200D01*
X38200Y48100D02*
Y48000D01*
Y48050D01*
X38500D01*
X38450Y48100D01*
X38250Y47850D02*
X38200Y47800D01*
Y47700D01*
X38250Y47650D01*
X38450D01*
X38500Y47700D01*
Y47800D01*
X38450Y47850D01*
X38400D01*
X38350Y47800D01*
Y47650D01*
X65350Y75400D02*
X65400Y75450D01*
Y75550D01*
X65350Y75600D01*
X65150D01*
X65100Y75550D01*
Y75450D01*
X65150Y75400D01*
X65400Y75100D02*
Y75300D01*
X65250D01*
X65300Y75200D01*
Y75150D01*
X65250Y75100D01*
X65150D01*
X65100Y75150D01*
Y75250D01*
X65150Y75300D01*
X65350Y75000D02*
X65400Y74950D01*
Y74850D01*
X65350Y74800D01*
X65300D01*
X65250Y74850D01*
X65200Y74800D01*
X65150D01*
X65100Y74850D01*
Y74950D01*
X65150Y75000D01*
X65200D01*
X65250Y74950D01*
X65300Y75000D01*
X65350D01*
X65250Y74950D02*
Y74850D01*
X35000Y47550D02*
X34950Y47600D01*
X34850D01*
X34800Y47550D01*
Y47350D01*
X34850Y47300D01*
X34950D01*
X35000Y47350D01*
X35100Y47300D02*
X35200D01*
X35150D01*
Y47600D01*
X35100Y47550D01*
X35350D02*
X35400Y47600D01*
X35500D01*
X35550Y47550D01*
Y47500D01*
X35500Y47450D01*
X35450D01*
X35500D01*
X35550Y47400D01*
Y47350D01*
X35500Y47300D01*
X35400D01*
X35350Y47350D01*
X61900Y74850D02*
X61850Y74900D01*
X61750D01*
X61700Y74850D01*
Y74650D01*
X61750Y74600D01*
X61850D01*
X61900Y74650D01*
X62200Y74900D02*
X62000D01*
Y74750D01*
X62100Y74800D01*
X62150D01*
X62200Y74750D01*
Y74650D01*
X62150Y74600D01*
X62050D01*
X62000Y74650D01*
X62450Y74600D02*
Y74900D01*
X62300Y74750D01*
X62500D01*
X29650Y47500D02*
X29600Y47450D01*
Y47350D01*
X29650Y47300D01*
X29850D01*
X29900Y47350D01*
Y47450D01*
X29850Y47500D01*
X29900Y47800D02*
Y47600D01*
X29700Y47800D01*
X29650D01*
X29600Y47750D01*
Y47650D01*
X29650Y47600D01*
X56550Y74800D02*
X56500Y74750D01*
Y74650D01*
X56550Y74600D01*
X56750D01*
X56800Y74650D01*
Y74750D01*
X56750Y74800D01*
X56800Y75050D02*
X56500D01*
X56650Y74900D01*
Y75100D01*
X56500Y75400D02*
X56550Y75300D01*
X56650Y75200D01*
X56750D01*
X56800Y75250D01*
Y75350D01*
X56750Y75400D01*
X56700D01*
X56650Y75350D01*
Y75200D01*
X44400Y50950D02*
X44350Y51000D01*
X44250D01*
X44200Y50950D01*
Y50750D01*
X44250Y50700D01*
X44350D01*
X44400Y50750D01*
X44500Y50950D02*
X44550Y51000D01*
X44650D01*
X44700Y50950D01*
Y50900D01*
X44650Y50850D01*
X44600D01*
X44650D01*
X44700Y50800D01*
Y50750D01*
X44650Y50700D01*
X44550D01*
X44500Y50750D01*
X45000Y51000D02*
X44900Y50950D01*
X44800Y50850D01*
Y50750D01*
X44850Y50700D01*
X44950D01*
X45000Y50750D01*
Y50800D01*
X44950Y50850D01*
X44800D01*
X71300Y78250D02*
X71250Y78300D01*
X71150D01*
X71100Y78250D01*
Y78050D01*
X71150Y78000D01*
X71250D01*
X71300Y78050D01*
X71400Y78300D02*
X71600D01*
Y78250D01*
X71400Y78050D01*
Y78000D01*
X71700Y78250D02*
X71750Y78300D01*
X71850D01*
X71900Y78250D01*
Y78050D01*
X71850Y78000D01*
X71750D01*
X71700Y78050D01*
Y78250D01*
X40900Y50950D02*
X40850Y51000D01*
X40750D01*
X40700Y50950D01*
Y50750D01*
X40750Y50700D01*
X40850D01*
X40900Y50750D01*
X41000Y50950D02*
X41050Y51000D01*
X41150D01*
X41200Y50950D01*
Y50900D01*
X41150Y50850D01*
X41100D01*
X41150D01*
X41200Y50800D01*
Y50750D01*
X41150Y50700D01*
X41050D01*
X41000Y50750D01*
X41300Y50950D02*
X41350Y51000D01*
X41450D01*
X41500Y50950D01*
Y50900D01*
X41450Y50850D01*
X41400D01*
X41450D01*
X41500Y50800D01*
Y50750D01*
X41450Y50700D01*
X41350D01*
X41300Y50750D01*
X67800Y78250D02*
X67750Y78300D01*
X67650D01*
X67600Y78250D01*
Y78050D01*
X67650Y78000D01*
X67750D01*
X67800Y78050D01*
X68100Y78300D02*
X68000Y78250D01*
X67900Y78150D01*
Y78050D01*
X67950Y78000D01*
X68050D01*
X68100Y78050D01*
Y78100D01*
X68050Y78150D01*
X67900D01*
X68400Y78300D02*
X68300Y78250D01*
X68200Y78150D01*
Y78050D01*
X68250Y78000D01*
X68350D01*
X68400Y78050D01*
Y78100D01*
X68350Y78150D01*
X68200D01*
X37000Y50850D02*
X36950Y50900D01*
X36850D01*
X36800Y50850D01*
Y50650D01*
X36850Y50600D01*
X36950D01*
X37000Y50650D01*
X37300Y50600D02*
X37100D01*
X37300Y50800D01*
Y50850D01*
X37250Y50900D01*
X37150D01*
X37100Y50850D01*
X37400D02*
X37450Y50900D01*
X37550D01*
X37600Y50850D01*
Y50650D01*
X37550Y50600D01*
X37450D01*
X37400Y50650D01*
Y50850D01*
X63900Y78150D02*
X63850Y78200D01*
X63750D01*
X63700Y78150D01*
Y77950D01*
X63750Y77900D01*
X63850D01*
X63900Y77950D01*
X64200Y78200D02*
X64000D01*
Y78050D01*
X64100Y78100D01*
X64150D01*
X64200Y78050D01*
Y77950D01*
X64150Y77900D01*
X64050D01*
X64000Y77950D01*
X64300D02*
X64350Y77900D01*
X64450D01*
X64500Y77950D01*
Y78150D01*
X64450Y78200D01*
X64350D01*
X64300Y78150D01*
Y78100D01*
X64350Y78050D01*
X64500D01*
X31600Y49150D02*
X31550Y49200D01*
X31450D01*
X31400Y49150D01*
Y48950D01*
X31450Y48900D01*
X31550D01*
X31600Y48950D01*
X31900Y49200D02*
X31700D01*
Y49050D01*
X31800Y49100D01*
X31850D01*
X31900Y49050D01*
Y48950D01*
X31850Y48900D01*
X31750D01*
X31700Y48950D01*
X58500Y76450D02*
X58450Y76500D01*
X58350D01*
X58300Y76450D01*
Y76250D01*
X58350Y76200D01*
X58450D01*
X58500Y76250D01*
X58750Y76200D02*
Y76500D01*
X58600Y76350D01*
X58800D01*
X58900Y76250D02*
X58950Y76200D01*
X59050D01*
X59100Y76250D01*
Y76450D01*
X59050Y76500D01*
X58950D01*
X58900Y76450D01*
Y76400D01*
X58950Y76350D01*
X59100D01*
X53700Y76050D02*
X53750Y76000D01*
X53850D01*
X53900Y76050D01*
Y76250D01*
X53850Y76300D01*
X53750D01*
X53700Y76250D01*
X53450Y76300D02*
Y76000D01*
X53600Y76150D01*
X53400D01*
X53300Y76050D02*
X53250Y76000D01*
X53150D01*
X53100Y76050D01*
Y76250D01*
X53150Y76300D01*
X53250D01*
X53300Y76250D01*
Y76050D01*
X53700Y61550D02*
X53750Y61500D01*
X53850D01*
X53900Y61550D01*
Y61750D01*
X53850Y61800D01*
X53750D01*
X53700Y61750D01*
X53600Y61550D02*
X53550Y61500D01*
X53450D01*
X53400Y61550D01*
Y61600D01*
X53450Y61650D01*
X53500D01*
X53450D01*
X53400Y61700D01*
Y61750D01*
X53450Y61800D01*
X53550D01*
X53600Y61750D01*
X53300Y61550D02*
X53250Y61500D01*
X53150D01*
X53100Y61550D01*
Y61600D01*
X53150Y61650D01*
X53100Y61700D01*
Y61750D01*
X53150Y61800D01*
X53250D01*
X53300Y61750D01*
Y61700D01*
X53250Y61650D01*
X53300Y61600D01*
Y61550D01*
X53250Y61650D02*
X53150D01*
X53700Y89350D02*
X53750Y89300D01*
X53850D01*
X53900Y89350D01*
Y89550D01*
X53850Y89600D01*
X53750D01*
X53700Y89550D01*
X53450Y89600D02*
Y89300D01*
X53600Y89450D01*
X53400D01*
X53100Y89600D02*
X53300D01*
X53100Y89400D01*
Y89350D01*
X53150Y89300D01*
X53250D01*
X53300Y89350D01*
X51900Y79950D02*
X51850Y80000D01*
X51750D01*
X51700Y79950D01*
Y79750D01*
X51750Y79700D01*
X51850D01*
X51900Y79750D01*
X52150Y79700D02*
Y80000D01*
X52000Y79850D01*
X52200D01*
X52300Y79700D02*
X52400D01*
X52350D01*
Y80000D01*
X52300Y79950D01*
X51900Y65450D02*
X51850Y65500D01*
X51750D01*
X51700Y65450D01*
Y65250D01*
X51750Y65200D01*
X51850D01*
X51900Y65250D01*
X52000Y65450D02*
X52050Y65500D01*
X52150D01*
X52200Y65450D01*
Y65400D01*
X52150Y65350D01*
X52100D01*
X52150D01*
X52200Y65300D01*
Y65250D01*
X52150Y65200D01*
X52050D01*
X52000Y65250D01*
X52300D02*
X52350Y65200D01*
X52450D01*
X52500Y65250D01*
Y65450D01*
X52450Y65500D01*
X52350D01*
X52300Y65450D01*
Y65400D01*
X52350Y65350D01*
X52500D01*
X52000Y93250D02*
X51950Y93300D01*
X51850D01*
X51800Y93250D01*
Y93050D01*
X51850Y93000D01*
X51950D01*
X52000Y93050D01*
X52250Y93000D02*
Y93300D01*
X52100Y93150D01*
X52300D01*
X52400Y93250D02*
X52450Y93300D01*
X52550D01*
X52600Y93250D01*
Y93200D01*
X52550Y93150D01*
X52500D01*
X52550D01*
X52600Y93100D01*
Y93050D01*
X52550Y93000D01*
X52450D01*
X52400Y93050D01*
X38450Y77600D02*
X38400Y77550D01*
Y77450D01*
X38450Y77400D01*
X38650D01*
X38700Y77450D01*
Y77550D01*
X38650Y77600D01*
X38700Y77900D02*
Y77700D01*
X38500Y77900D01*
X38450D01*
X38400Y77850D01*
Y77750D01*
X38450Y77700D01*
X38400Y78000D02*
Y78200D01*
X38450D01*
X38650Y78000D01*
X38700D01*
X38450Y63100D02*
X38400Y63050D01*
Y62950D01*
X38450Y62900D01*
X38650D01*
X38700Y62950D01*
Y63050D01*
X38650Y63100D01*
X38700Y63400D02*
Y63200D01*
X38500Y63400D01*
X38450D01*
X38400Y63350D01*
Y63250D01*
X38450Y63200D01*
X38700Y63650D02*
X38400D01*
X38550Y63500D01*
Y63700D01*
X38550Y90900D02*
X38500Y90850D01*
Y90750D01*
X38550Y90700D01*
X38750D01*
X38800Y90750D01*
Y90850D01*
X38750Y90900D01*
X38550Y91000D02*
X38500Y91050D01*
Y91150D01*
X38550Y91200D01*
X38600D01*
X38650Y91150D01*
Y91100D01*
Y91150D01*
X38700Y91200D01*
X38750D01*
X38800Y91150D01*
Y91050D01*
X38750Y91000D01*
X38550Y91300D02*
X38500Y91350D01*
Y91450D01*
X38550Y91500D01*
X38750D01*
X38800Y91450D01*
Y91350D01*
X38750Y91300D01*
X38550D01*
X38450Y78600D02*
X38400Y78550D01*
Y78450D01*
X38450Y78400D01*
X38650D01*
X38700Y78450D01*
Y78550D01*
X38650Y78600D01*
X38700Y78900D02*
Y78700D01*
X38500Y78900D01*
X38450D01*
X38400Y78850D01*
Y78750D01*
X38450Y78700D01*
Y79000D02*
X38400Y79050D01*
Y79150D01*
X38450Y79200D01*
X38500D01*
X38550Y79150D01*
X38600Y79200D01*
X38650D01*
X38700Y79150D01*
Y79050D01*
X38650Y79000D01*
X38600D01*
X38550Y79050D01*
X38500Y79000D01*
X38450D01*
X38550Y79050D02*
Y79150D01*
X38450Y64100D02*
X38400Y64050D01*
Y63950D01*
X38450Y63900D01*
X38650D01*
X38700Y63950D01*
Y64050D01*
X38650Y64100D01*
X38700Y64400D02*
Y64200D01*
X38500Y64400D01*
X38450D01*
X38400Y64350D01*
Y64250D01*
X38450Y64200D01*
X38400Y64700D02*
Y64500D01*
X38550D01*
X38500Y64600D01*
Y64650D01*
X38550Y64700D01*
X38650D01*
X38700Y64650D01*
Y64550D01*
X38650Y64500D01*
X38550Y91900D02*
X38500Y91850D01*
Y91750D01*
X38550Y91700D01*
X38750D01*
X38800Y91750D01*
Y91850D01*
X38750Y91900D01*
X38550Y92000D02*
X38500Y92050D01*
Y92150D01*
X38550Y92200D01*
X38600D01*
X38650Y92150D01*
Y92100D01*
Y92150D01*
X38700Y92200D01*
X38750D01*
X38800Y92150D01*
Y92050D01*
X38750Y92000D01*
X38800Y92300D02*
Y92400D01*
Y92350D01*
X38500D01*
X38550Y92300D01*
X38450Y76600D02*
X38400Y76550D01*
Y76450D01*
X38450Y76400D01*
X38650D01*
X38700Y76450D01*
Y76550D01*
X38650Y76600D01*
X38700Y76900D02*
Y76700D01*
X38500Y76900D01*
X38450D01*
X38400Y76850D01*
Y76750D01*
X38450Y76700D01*
X38400Y77200D02*
X38450Y77100D01*
X38550Y77000D01*
X38650D01*
X38700Y77050D01*
Y77150D01*
X38650Y77200D01*
X38600D01*
X38550Y77150D01*
Y77000D01*
X38450Y62100D02*
X38400Y62050D01*
Y61950D01*
X38450Y61900D01*
X38650D01*
X38700Y61950D01*
Y62050D01*
X38650Y62100D01*
X38700Y62400D02*
Y62200D01*
X38500Y62400D01*
X38450D01*
X38400Y62350D01*
Y62250D01*
X38450Y62200D01*
Y62500D02*
X38400Y62550D01*
Y62650D01*
X38450Y62700D01*
X38500D01*
X38550Y62650D01*
Y62600D01*
Y62650D01*
X38600Y62700D01*
X38650D01*
X38700Y62650D01*
Y62550D01*
X38650Y62500D01*
X38550Y89900D02*
X38500Y89850D01*
Y89750D01*
X38550Y89700D01*
X38750D01*
X38800Y89750D01*
Y89850D01*
X38750Y89900D01*
X38800Y90200D02*
Y90000D01*
X38600Y90200D01*
X38550D01*
X38500Y90150D01*
Y90050D01*
X38550Y90000D01*
X38750Y90300D02*
X38800Y90350D01*
Y90450D01*
X38750Y90500D01*
X38550D01*
X38500Y90450D01*
Y90350D01*
X38550Y90300D01*
X38600D01*
X38650Y90350D01*
Y90500D01*
X33300Y42650D02*
X33250Y42700D01*
X33150D01*
X33100Y42650D01*
Y42450D01*
X33150Y42400D01*
X33250D01*
X33300Y42450D01*
X33600Y42700D02*
X33500Y42650D01*
X33400Y42550D01*
Y42450D01*
X33450Y42400D01*
X33550D01*
X33600Y42450D01*
Y42500D01*
X33550Y42550D01*
X33400D01*
X60400Y66750D02*
X60350Y66800D01*
X60250D01*
X60200Y66750D01*
Y66550D01*
X60250Y66500D01*
X60350D01*
X60400Y66550D01*
X60700Y66800D02*
X60500D01*
Y66650D01*
X60600Y66700D01*
X60650D01*
X60700Y66650D01*
Y66550D01*
X60650Y66500D01*
X60550D01*
X60500Y66550D01*
X60800Y66500D02*
X60900D01*
X60850D01*
Y66800D01*
X60800Y66750D01*
X37400Y32150D02*
X37450Y32100D01*
X37550D01*
X37600Y32150D01*
Y32350D01*
X37550Y32400D01*
X37450D01*
X37400Y32350D01*
X37300Y32400D02*
X37200D01*
X37250D01*
Y32100D01*
X37300Y32150D01*
X37050Y32400D02*
X36950D01*
X37000D01*
Y32100D01*
X37050Y32150D01*
X63500Y56250D02*
X63550Y56200D01*
X63650D01*
X63700Y56250D01*
Y56450D01*
X63650Y56500D01*
X63550D01*
X63500Y56450D01*
X63200Y56200D02*
X63400D01*
Y56350D01*
X63300Y56300D01*
X63250D01*
X63200Y56350D01*
Y56450D01*
X63250Y56500D01*
X63350D01*
X63400Y56450D01*
X63100Y56250D02*
X63050Y56200D01*
X62950D01*
X62900Y56250D01*
Y56450D01*
X62950Y56500D01*
X63050D01*
X63100Y56450D01*
Y56250D01*
X42650Y38400D02*
X42700Y38450D01*
Y38550D01*
X42650Y38600D01*
X42450D01*
X42400Y38550D01*
Y38450D01*
X42450Y38400D01*
X42650Y38300D02*
X42700Y38250D01*
Y38150D01*
X42650Y38100D01*
X42600D01*
X42550Y38150D01*
Y38200D01*
Y38150D01*
X42500Y38100D01*
X42450D01*
X42400Y38150D01*
Y38250D01*
X42450Y38300D01*
X42400Y37850D02*
X42700D01*
X42550Y38000D01*
Y37800D01*
X69750Y62400D02*
X69800Y62450D01*
Y62550D01*
X69750Y62600D01*
X69550D01*
X69500Y62550D01*
Y62450D01*
X69550Y62400D01*
X69800Y62100D02*
X69750Y62200D01*
X69650Y62300D01*
X69550D01*
X69500Y62250D01*
Y62150D01*
X69550Y62100D01*
X69600D01*
X69650Y62150D01*
Y62300D01*
X69800Y62000D02*
Y61800D01*
X69750D01*
X69550Y62000D01*
X69500D01*
X40500Y34350D02*
X40550Y34300D01*
X40650D01*
X40700Y34350D01*
Y34550D01*
X40650Y34600D01*
X40550D01*
X40500Y34550D01*
X40200Y34600D02*
X40400D01*
X40200Y34400D01*
Y34350D01*
X40250Y34300D01*
X40350D01*
X40400Y34350D01*
X40100Y34600D02*
X40000D01*
X40050D01*
Y34300D01*
X40100Y34350D01*
X67500Y58450D02*
X67550Y58400D01*
X67650D01*
X67700Y58450D01*
Y58650D01*
X67650Y58700D01*
X67550D01*
X67500Y58650D01*
X67200Y58400D02*
X67300Y58450D01*
X67400Y58550D01*
Y58650D01*
X67350Y58700D01*
X67250D01*
X67200Y58650D01*
Y58600D01*
X67250Y58550D01*
X67400D01*
X67100Y58700D02*
X67000D01*
X67050D01*
Y58400D01*
X67100Y58450D01*
X32900Y34250D02*
X32950Y34200D01*
X33050D01*
X33100Y34250D01*
Y34450D01*
X33050Y34500D01*
X32950D01*
X32900Y34450D01*
X32800Y34250D02*
X32750Y34200D01*
X32650D01*
X32600Y34250D01*
Y34300D01*
X32650Y34350D01*
X32700D01*
X32650D01*
X32600Y34400D01*
Y34450D01*
X32650Y34500D01*
X32750D01*
X32800Y34450D01*
X59900Y58350D02*
X59950Y58300D01*
X60050D01*
X60100Y58350D01*
Y58550D01*
X60050Y58600D01*
X59950D01*
X59900Y58550D01*
X59650Y58600D02*
Y58300D01*
X59800Y58450D01*
X59600D01*
X59500Y58300D02*
X59300D01*
Y58350D01*
X59500Y58550D01*
Y58600D01*
X29550Y36100D02*
X29500Y36050D01*
Y35950D01*
X29550Y35900D01*
X29750D01*
X29800Y35950D01*
Y36050D01*
X29750Y36100D01*
X29800Y36200D02*
Y36300D01*
Y36250D01*
X29500D01*
X29550Y36200D01*
X56650Y60200D02*
X56600Y60150D01*
Y60050D01*
X56650Y60000D01*
X56850D01*
X56900Y60050D01*
Y60150D01*
X56850Y60200D01*
X56900Y60450D02*
X56600D01*
X56750Y60300D01*
Y60500D01*
X56600Y60800D02*
Y60600D01*
X56750D01*
X56700Y60700D01*
Y60750D01*
X56750Y60800D01*
X56850D01*
X56900Y60750D01*
Y60650D01*
X56850Y60600D01*
X39350Y41100D02*
X39400Y41150D01*
Y41250D01*
X39350Y41300D01*
X39150D01*
X39100Y41250D01*
Y41150D01*
X39150Y41100D01*
X39100Y41000D02*
Y40900D01*
Y40950D01*
X39400D01*
X39350Y41000D01*
Y40750D02*
X39400Y40700D01*
Y40600D01*
X39350Y40550D01*
X39300D01*
X39250Y40600D01*
X39200Y40550D01*
X39150D01*
X39100Y40600D01*
Y40700D01*
X39150Y40750D01*
X39200D01*
X39250Y40700D01*
X39300Y40750D01*
X39350D01*
X39250Y40700D02*
Y40600D01*
X66450Y65100D02*
X66500Y65150D01*
Y65250D01*
X66450Y65300D01*
X66250D01*
X66200Y65250D01*
Y65150D01*
X66250Y65100D01*
X66500Y64800D02*
X66450Y64900D01*
X66350Y65000D01*
X66250D01*
X66200Y64950D01*
Y64850D01*
X66250Y64800D01*
X66300D01*
X66350Y64850D01*
Y65000D01*
X66450Y64700D02*
X66500Y64650D01*
Y64550D01*
X66450Y64500D01*
X66400D01*
X66350Y64550D01*
Y64600D01*
Y64550D01*
X66300Y64500D01*
X66250D01*
X66200Y64550D01*
Y64650D01*
X66250Y64700D01*
X37416Y37534D02*
X37366Y37584D01*
X37266D01*
X37216Y37534D01*
Y37334D01*
X37266Y37284D01*
X37366D01*
X37416Y37334D01*
X37716Y37284D02*
X37516D01*
X37716Y37484D01*
Y37534D01*
X37666Y37584D01*
X37566D01*
X37516Y37534D01*
X38015Y37284D02*
X37816D01*
X38015Y37484D01*
Y37534D01*
X37966Y37584D01*
X37866D01*
X37816Y37534D01*
X64516Y61634D02*
X64466Y61684D01*
X64366D01*
X64316Y61634D01*
Y61434D01*
X64366Y61384D01*
X64466D01*
X64516Y61434D01*
X64816Y61684D02*
X64716Y61634D01*
X64616Y61534D01*
Y61434D01*
X64666Y61384D01*
X64766D01*
X64816Y61434D01*
Y61484D01*
X64766Y61534D01*
X64616D01*
X65115Y61384D02*
X64916D01*
X65115Y61584D01*
Y61634D01*
X65066Y61684D01*
X64966D01*
X64916Y61634D01*
X34550Y36400D02*
X34500Y36350D01*
Y36250D01*
X34550Y36200D01*
X34750D01*
X34800Y36250D01*
Y36350D01*
X34750Y36400D01*
X34800Y36500D02*
Y36600D01*
Y36550D01*
X34500D01*
X34550Y36500D01*
X34800Y36950D02*
Y36750D01*
X34600Y36950D01*
X34550D01*
X34500Y36900D01*
Y36800D01*
X34550Y36750D01*
X61650Y60500D02*
X61600Y60450D01*
Y60350D01*
X61650Y60300D01*
X61850D01*
X61900Y60350D01*
Y60450D01*
X61850Y60500D01*
X61600Y60800D02*
Y60600D01*
X61750D01*
X61700Y60700D01*
Y60750D01*
X61750Y60800D01*
X61850D01*
X61900Y60750D01*
Y60650D01*
X61850Y60600D01*
X61650Y60900D02*
X61600Y60950D01*
Y61050D01*
X61650Y61100D01*
X61700D01*
X61750Y61050D01*
Y61000D01*
Y61050D01*
X61800Y61100D01*
X61850D01*
X61900Y61050D01*
Y60950D01*
X61850Y60900D01*
X31550Y38800D02*
X31500Y38750D01*
Y38650D01*
X31550Y38600D01*
X31750D01*
X31800Y38650D01*
Y38750D01*
X31750Y38800D01*
X31800Y39050D02*
X31500D01*
X31650Y38900D01*
Y39100D01*
X58650Y62900D02*
X58600Y62850D01*
Y62750D01*
X58650Y62700D01*
X58850D01*
X58900Y62750D01*
Y62850D01*
X58850Y62900D01*
X58900Y63150D02*
X58600D01*
X58750Y63000D01*
Y63200D01*
X58650Y63300D02*
X58600Y63350D01*
Y63450D01*
X58650Y63500D01*
X58700D01*
X58750Y63450D01*
X58800Y63500D01*
X58850D01*
X58900Y63450D01*
Y63350D01*
X58850Y63300D01*
X58800D01*
X58750Y63350D01*
X58700Y63300D01*
X58650D01*
X58750Y63350D02*
Y63450D01*
D53*
X69491Y61051D02*
D03*
X68309D02*
D03*
X36809Y50051D02*
D03*
X37990D02*
D03*
X63709Y77351D02*
D03*
X64890D02*
D03*
X58091Y75049D02*
D03*
X56909D02*
D03*
X65091Y74049D02*
D03*
X63909D02*
D03*
X38191Y46749D02*
D03*
X37009D02*
D03*
X31191Y47749D02*
D03*
X30009D02*
D03*
X42391Y36949D02*
D03*
X41209Y36950D02*
D03*
D54*
X65851Y61391D02*
D03*
Y60209D02*
D03*
X32951Y48891D02*
D03*
Y47709D02*
D03*
X59851Y76191D02*
D03*
Y75009D02*
D03*
X68651Y77991D02*
D03*
Y76809D02*
D03*
X63251Y74591D02*
D03*
Y73409D02*
D03*
X60651Y63791D02*
D03*
Y62610D02*
D03*
X63651Y61391D02*
D03*
Y60209D02*
D03*
X67251Y59991D02*
D03*
Y58810D02*
D03*
X36351Y47291D02*
D03*
Y46109D02*
D03*
X41751Y50691D02*
D03*
Y49509D02*
D03*
X40151Y35891D02*
D03*
Y34710D02*
D03*
X38751Y37291D02*
D03*
Y36109D02*
D03*
X36551Y37291D02*
D03*
Y36109D02*
D03*
X33551Y39691D02*
D03*
Y38510D02*
D03*
D55*
X31547Y38408D02*
Y38526D01*
X31705D01*
Y38408D01*
X31547D01*
X31580Y38441D02*
X31580Y38493D01*
X31672Y38493D01*
X31672Y38441D01*
X31580Y38441D01*
X31613Y38462D02*
X31639Y38472D01*
X31547Y37270D02*
Y37388D01*
X31705D01*
Y37270D01*
X31547D01*
X31580Y37303D02*
X31580Y37355D01*
X31672Y37355D01*
X31672Y37303D01*
X31580Y37303D01*
X31613Y37324D02*
X31639Y37334D01*
X56847Y62507D02*
Y62625D01*
X57005D01*
Y62507D01*
X56847D01*
X56880Y62540D02*
X56880Y62593D01*
X56972Y62593D01*
X56972Y62540D01*
X56880Y62540D01*
X56913Y62561D02*
X56939Y62571D01*
X56847Y61370D02*
Y61488D01*
X57004D01*
Y61370D01*
X56847D01*
X56879Y61403D02*
X56879Y61455D01*
X56971Y61455D01*
X56971Y61403D01*
X56879Y61403D01*
X56912Y61424D02*
X56939Y61434D01*
X56447Y77708D02*
Y77826D01*
X56605D01*
Y77708D01*
X56447D01*
X56480Y77741D02*
X56480Y77793D01*
X56572Y77793D01*
X56572Y77741D01*
X56480Y77741D01*
X56513Y77762D02*
X56539Y77772D01*
X56447Y76570D02*
Y76688D01*
X56605D01*
Y76570D01*
X56447D01*
X56480Y76603D02*
X56480Y76655D01*
X56572Y76655D01*
X56572Y76603D01*
X56480Y76603D01*
X56513Y76624D02*
X56539Y76634D01*
X58247Y77708D02*
Y77826D01*
X58405D01*
Y77708D01*
X58247D01*
X58280Y77741D02*
X58280Y77793D01*
X58372Y77793D01*
X58372Y77741D01*
X58280Y77741D01*
X58313Y77762D02*
X58339Y77772D01*
X58247Y76570D02*
Y76688D01*
X58405D01*
Y76570D01*
X58247D01*
X58280Y76603D02*
X58280Y76655D01*
X58372Y76655D01*
X58372Y76603D01*
X58280Y76603D01*
X58313Y76624D02*
X58339Y76634D01*
X62247Y75908D02*
Y76026D01*
X62405D01*
Y75908D01*
X62247D01*
X62280Y75941D02*
X62280Y75993D01*
X62372Y75993D01*
X62372Y75941D01*
X62280Y75941D01*
X62313Y75962D02*
X62339Y75972D01*
X62247Y74770D02*
Y74888D01*
X62405D01*
Y74770D01*
X62247D01*
X62280Y74803D02*
X62280Y74855D01*
X62372Y74855D01*
X62372Y74803D01*
X62280Y74803D01*
X62313Y74824D02*
X62339Y74834D01*
X66247Y76508D02*
Y76626D01*
X66405D01*
Y76508D01*
X66247D01*
X66280Y76541D02*
X66280Y76593D01*
X66372Y76593D01*
X66372Y76541D01*
X66280Y76541D01*
X66313Y76562D02*
X66339Y76572D01*
X66247Y75370D02*
Y75488D01*
X66405D01*
Y75370D01*
X66247D01*
X66280Y75403D02*
X66280Y75455D01*
X66372Y75455D01*
X66372Y75403D01*
X66280Y75403D01*
X66313Y75424D02*
X66339Y75434D01*
X65447Y77908D02*
Y78026D01*
X65605D01*
Y77908D01*
X65447D01*
X65480Y77941D02*
X65480Y77993D01*
X65572Y77993D01*
X65572Y77941D01*
X65480Y77941D01*
X65513Y77962D02*
X65539Y77972D01*
X65447Y76770D02*
Y76888D01*
X65605D01*
Y76770D01*
X65447D01*
X65480Y76803D02*
X65480Y76855D01*
X65572Y76855D01*
X65572Y76803D01*
X65480Y76803D01*
X65513Y76824D02*
X65539Y76834D01*
X69847Y74908D02*
Y75026D01*
X70005D01*
Y74908D01*
X69847D01*
X69880Y74941D02*
X69880Y74993D01*
X69972Y74993D01*
X69972Y74941D01*
X69880Y74941D01*
X69913Y74962D02*
X69939Y74972D01*
X69847Y73770D02*
Y73888D01*
X70005D01*
Y73770D01*
X69847D01*
X69880Y73803D02*
X69880Y73856D01*
X69972Y73856D01*
X69972Y73803D01*
X69880Y73803D01*
X69913Y73824D02*
X69939Y73834D01*
X68047Y74908D02*
Y75026D01*
X68205D01*
Y74908D01*
X68047D01*
X68080Y74941D02*
X68080Y74993D01*
X68172Y74993D01*
X68172Y74941D01*
X68080Y74941D01*
X68113Y74962D02*
X68139Y74972D01*
X68047Y73770D02*
Y73888D01*
X68205D01*
Y73770D01*
X68047D01*
X68080Y73803D02*
X68080Y73855D01*
X68172Y73855D01*
X68172Y73803D01*
X68080Y73803D01*
X68113Y73824D02*
X68139Y73834D01*
X66847Y61307D02*
Y61425D01*
X67005D01*
Y61307D01*
X66847D01*
X66880Y61340D02*
X66880Y61392D01*
X66972Y61392D01*
X66972Y61340D01*
X66880Y61340D01*
X66913Y61361D02*
X66939Y61371D01*
X66846Y60170D02*
Y60288D01*
X67004D01*
Y60170D01*
X66846D01*
X66879Y60203D02*
X66879Y60255D01*
X66971Y60255D01*
X66971Y60203D01*
X66879Y60203D01*
X66912Y60224D02*
X66938Y60234D01*
X64647Y66707D02*
Y66825D01*
X64805D01*
Y66707D01*
X64647D01*
X64680Y66740D02*
X64680Y66793D01*
X64772Y66793D01*
X64772Y66740D01*
X64680Y66740D01*
X64713Y66761D02*
X64739Y66771D01*
X64647Y65570D02*
Y65688D01*
X64804D01*
Y65570D01*
X64647D01*
X64679Y65603D02*
X64679Y65655D01*
X64771Y65655D01*
X64771Y65603D01*
X64679Y65603D01*
X64712Y65624D02*
X64739Y65634D01*
X58647Y62507D02*
Y62626D01*
X58805D01*
Y62507D01*
X58647D01*
X58680Y62540D02*
X58680Y62593D01*
X58772Y62593D01*
X58772Y62540D01*
X58680Y62540D01*
X58713Y62561D02*
X58739Y62571D01*
X58647Y61370D02*
Y61488D01*
X58804D01*
Y61370D01*
X58647D01*
X58680Y61403D02*
X58680Y61455D01*
X58771Y61455D01*
X58771Y61403D01*
X58680Y61403D01*
X58712Y61424D02*
X58739Y61434D01*
X60647Y60307D02*
Y60425D01*
X60805D01*
Y60307D01*
X60647D01*
X60680Y60340D02*
X60680Y60393D01*
X60772Y60393D01*
X60772Y60340D01*
X60680Y60340D01*
X60713Y60361D02*
X60739Y60371D01*
X60647Y59170D02*
Y59288D01*
X60804D01*
Y59170D01*
X60647D01*
X60679Y59203D02*
X60679Y59255D01*
X60771Y59255D01*
X60771Y59203D01*
X60679Y59203D01*
X60712Y59224D02*
X60739Y59234D01*
X64247Y59907D02*
Y60025D01*
X64405D01*
Y59907D01*
X64247D01*
X64280Y59940D02*
X64280Y59993D01*
X64372Y59993D01*
X64372Y59940D01*
X64280Y59940D01*
X64313Y59961D02*
X64339Y59971D01*
X64247Y58770D02*
Y58888D01*
X64404D01*
Y58770D01*
X64247D01*
X64280Y58803D02*
X64280Y58855D01*
X64371Y58855D01*
X64371Y58803D01*
X64280Y58803D01*
X64312Y58824D02*
X64339Y58834D01*
X42947Y47608D02*
Y47726D01*
X43104D01*
Y47608D01*
X42947D01*
X42980Y47641D02*
X42980Y47693D01*
X43072Y47693D01*
X43072Y47641D01*
X42980Y47641D01*
X43013Y47662D02*
X43039Y47672D01*
X42947Y46470D02*
Y46588D01*
X43105D01*
Y46470D01*
X42947D01*
X42980Y46503D02*
X42980Y46556D01*
X43072Y46556D01*
X43072Y46503D01*
X42980Y46503D01*
X43013Y46524D02*
X43039Y46534D01*
X41147Y47608D02*
Y47726D01*
X41305D01*
Y47608D01*
X41147D01*
X41180Y47641D02*
X41180Y47693D01*
X41272Y47693D01*
X41272Y47641D01*
X41180Y47641D01*
X41213Y47662D02*
X41239Y47672D01*
X41147Y46470D02*
Y46588D01*
X41305D01*
Y46470D01*
X41147D01*
X41180Y46503D02*
X41180Y46555D01*
X41272Y46555D01*
X41272Y46503D01*
X41180Y46503D01*
X41213Y46524D02*
X41239Y46534D01*
X39347Y49208D02*
Y49326D01*
X39505D01*
Y49208D01*
X39347D01*
X39380Y49241D02*
X39380Y49293D01*
X39472Y49293D01*
X39472Y49241D01*
X39380Y49241D01*
X39413Y49262D02*
X39439Y49272D01*
X39347Y48070D02*
Y48188D01*
X39505D01*
Y48070D01*
X39347D01*
X39380Y48103D02*
X39380Y48155D01*
X39472Y48155D01*
X39472Y48103D01*
X39380Y48103D01*
X39413Y48124D02*
X39439Y48134D01*
X38547Y50608D02*
Y50726D01*
X38705D01*
Y50608D01*
X38547D01*
X38580Y50641D02*
X38580Y50693D01*
X38672Y50693D01*
X38672Y50641D01*
X38580Y50641D01*
X38613Y50662D02*
X38639Y50672D01*
X38547Y49470D02*
Y49588D01*
X38705D01*
Y49470D01*
X38547D01*
X38580Y49503D02*
X38580Y49555D01*
X38672Y49555D01*
X38672Y49503D01*
X38580Y49503D01*
X38613Y49524D02*
X38639Y49534D01*
X35347Y48608D02*
Y48726D01*
X35505D01*
Y48608D01*
X35347D01*
X35380Y48641D02*
X35380Y48693D01*
X35472Y48693D01*
X35472Y48641D01*
X35380Y48641D01*
X35413Y48662D02*
X35439Y48672D01*
X35347Y47470D02*
Y47588D01*
X35505D01*
Y47470D01*
X35347D01*
X35380Y47503D02*
X35380Y47555D01*
X35472Y47555D01*
X35472Y47503D01*
X35380Y47503D01*
X35413Y47524D02*
X35439Y47534D01*
X31347Y50408D02*
Y50526D01*
X31505D01*
Y50408D01*
X31347D01*
X31380Y50441D02*
X31380Y50493D01*
X31472Y50493D01*
X31472Y50441D01*
X31380Y50441D01*
X31413Y50462D02*
X31439Y50472D01*
X31347Y49270D02*
Y49388D01*
X31505D01*
Y49270D01*
X31347D01*
X31380Y49303D02*
X31380Y49355D01*
X31472Y49355D01*
X31472Y49303D01*
X31380Y49303D01*
X31413Y49324D02*
X31439Y49334D01*
X29547Y50408D02*
Y50526D01*
X29705D01*
Y50408D01*
X29547D01*
X29580Y50441D02*
X29580Y50493D01*
X29672Y50493D01*
X29672Y50441D01*
X29580Y50441D01*
X29613Y50462D02*
X29639Y50472D01*
X29547Y49270D02*
Y49388D01*
X29705D01*
Y49270D01*
X29547D01*
X29580Y49303D02*
X29580Y49355D01*
X29672Y49355D01*
X29672Y49303D01*
X29580Y49303D01*
X29613Y49324D02*
X29639Y49334D01*
X37147Y35808D02*
Y35926D01*
X37305D01*
Y35808D01*
X37147D01*
X37180Y35841D02*
X37180Y35893D01*
X37272Y35893D01*
X37272Y35841D01*
X37180Y35841D01*
X37213Y35862D02*
X37239Y35872D01*
X37147Y34670D02*
Y34788D01*
X37305D01*
Y34670D01*
X37147D01*
X37180Y34703D02*
X37180Y34755D01*
X37272Y34755D01*
X37272Y34703D01*
X37180Y34703D01*
X37213Y34724D02*
X37239Y34734D01*
X33547Y36208D02*
Y36326D01*
X33705D01*
Y36208D01*
X33547D01*
X33580Y36241D02*
X33580Y36293D01*
X33672Y36293D01*
X33672Y36241D01*
X33580Y36241D01*
X33613Y36262D02*
X33639Y36272D01*
X33547Y35070D02*
Y35188D01*
X33705D01*
Y35070D01*
X33547D01*
X33580Y35103D02*
X33580Y35155D01*
X33672Y35155D01*
X33672Y35103D01*
X33580Y35103D01*
X33613Y35124D02*
X33639Y35134D01*
X29747Y38408D02*
Y38526D01*
X29905D01*
Y38408D01*
X29747D01*
X29780Y38441D02*
X29780Y38493D01*
X29872Y38493D01*
X29872Y38441D01*
X29780Y38441D01*
X29813Y38462D02*
X29839Y38472D01*
X29747Y37270D02*
Y37388D01*
X29905D01*
Y37270D01*
X29747D01*
X29780Y37303D02*
X29780Y37355D01*
X29872Y37355D01*
X29872Y37303D01*
X29780Y37303D01*
X29813Y37324D02*
X29839Y37334D01*
X37547Y42608D02*
Y42726D01*
X37705D01*
Y42608D01*
X37547D01*
X37580Y42641D02*
X37580Y42693D01*
X37672Y42693D01*
X37672Y42641D01*
X37580Y42641D01*
X37613Y42662D02*
X37639Y42672D01*
X37547Y41470D02*
Y41588D01*
X37705D01*
Y41470D01*
X37547D01*
X37580Y41503D02*
X37580Y41555D01*
X37672Y41555D01*
X37672Y41503D01*
X37580Y41503D01*
X37613Y41524D02*
X37639Y41534D01*
X39747Y37208D02*
Y37326D01*
X39905D01*
Y37208D01*
X39747D01*
X39780Y37241D02*
X39780Y37293D01*
X39872Y37293D01*
X39872Y37241D01*
X39780Y37241D01*
X39813Y37262D02*
X39839Y37272D01*
X39747Y36070D02*
Y36188D01*
X39905D01*
Y36070D01*
X39747D01*
X39780Y36103D02*
X39780Y36155D01*
X39872Y36155D01*
X39872Y36103D01*
X39780Y36103D01*
X39813Y36124D02*
X39839Y36134D01*
D56*
X33629Y48074D02*
D03*
X34767Y48074D02*
D03*
X63467Y77374D02*
D03*
X62330Y77374D02*
D03*
X71667Y76174D02*
D03*
X70529Y76174D02*
D03*
X61667Y75374D02*
D03*
X60529Y75374D02*
D03*
X47167Y85975D02*
D03*
X46031Y85974D02*
D03*
X48567Y85975D02*
D03*
X49966Y85975D02*
D03*
X48831Y85975D02*
D03*
X51366Y85975D02*
D03*
X50231Y85975D02*
D03*
X52766Y85975D02*
D03*
X51631Y85975D02*
D03*
X61266Y61775D02*
D03*
X60130Y61775D02*
D03*
X67135Y62626D02*
D03*
X68271Y62624D02*
D03*
X44767Y48874D02*
D03*
X43629Y48874D02*
D03*
X36567Y50074D02*
D03*
X35430Y50074D02*
D03*
X47067Y72675D02*
D03*
X45931Y72674D02*
D03*
X47065Y58177D02*
D03*
X45931Y58174D02*
D03*
X48467Y72675D02*
D03*
X47331Y72674D02*
D03*
X48468Y58177D02*
D03*
X47331Y58174D02*
D03*
X49867Y72675D02*
D03*
X48731Y72674D02*
D03*
X49865Y58177D02*
D03*
X48731Y58174D02*
D03*
X51267Y72675D02*
D03*
X50131Y72674D02*
D03*
X51265Y58177D02*
D03*
X50131Y58174D02*
D03*
X52667Y72675D02*
D03*
X51531Y72674D02*
D03*
X52668Y58177D02*
D03*
X51531Y58174D02*
D03*
X40035Y38526D02*
D03*
X41172Y38525D02*
D03*
X34167Y37675D02*
D03*
X33030Y37674D02*
D03*
D57*
X69935Y92167D02*
D03*
Y93033D02*
D03*
X47335Y90467D02*
D03*
Y91333D02*
D03*
Y91467D02*
D03*
Y92333D02*
D03*
Y92467D02*
D03*
Y93333D02*
D03*
Y89467D02*
D03*
Y90333D02*
D03*
X39935Y89667D02*
D03*
Y90533D02*
D03*
Y91667D02*
D03*
Y92533D02*
D03*
Y90667D02*
D03*
Y91533D02*
D03*
X54635Y97167D02*
D03*
Y98033D02*
D03*
X47235Y76167D02*
D03*
Y77033D02*
D03*
Y61667D02*
D03*
Y62533D02*
D03*
Y79167D02*
D03*
Y80033D02*
D03*
Y64667D02*
D03*
Y65533D02*
D03*
Y78167D02*
D03*
Y79033D02*
D03*
Y63667D02*
D03*
Y64533D02*
D03*
Y77167D02*
D03*
Y78033D02*
D03*
Y62667D02*
D03*
Y63533D02*
D03*
X72735Y38267D02*
D03*
Y39133D02*
D03*
X39835Y77367D02*
D03*
Y78233D02*
D03*
Y62867D02*
D03*
Y63733D02*
D03*
Y78367D02*
D03*
Y79233D02*
D03*
Y63867D02*
D03*
Y64733D02*
D03*
Y76367D02*
D03*
Y77233D02*
D03*
Y61867D02*
D03*
Y62733D02*
D03*
D58*
X65577Y91704D02*
Y91763D01*
X65754Y91763D01*
Y91704D01*
X65577Y91704D01*
X65593Y91720D02*
X65593Y91746D01*
X65738D01*
X65738Y91720D01*
X65593D01*
X65610Y91728D02*
X65721Y91738D01*
X65577Y90837D02*
Y90896D01*
X65754Y90896D01*
Y90837D01*
X65577Y90837D01*
X65593Y90854D02*
X65593Y90880D01*
X65738D01*
X65738Y90854D01*
X65593D01*
X65610Y90862D02*
X65721Y90872D01*
X70260Y76780D02*
Y76839D01*
X70437Y76839D01*
Y76780D01*
X70260Y76780D01*
X70277Y76796D02*
Y76823D01*
X70421D01*
Y76796D01*
X70277D01*
X70293Y76804D02*
X70405Y76814D01*
X70260Y77961D02*
Y78020D01*
X70437Y78020D01*
Y77961D01*
X70260Y77961D01*
X70277Y77977D02*
Y78004D01*
X70421D01*
Y77977D01*
X70277D01*
X70293Y77986D02*
X70405Y77996D01*
X68660Y72380D02*
Y72439D01*
X68837Y72439D01*
Y72380D01*
X68660Y72380D01*
X68677Y72396D02*
Y72423D01*
X68821D01*
Y72396D01*
X68677D01*
X68693Y72404D02*
X68805Y72414D01*
X68660Y73561D02*
Y73620D01*
X68837Y73620D01*
Y73561D01*
X68660Y73561D01*
X68677Y73577D02*
Y73604D01*
X68821D01*
Y73577D01*
X68677D01*
X68693Y73586D02*
X68805Y73596D01*
X41177Y93504D02*
Y93563D01*
X41354Y93563D01*
Y93504D01*
X41177Y93504D01*
X41193Y93520D02*
X41193Y93546D01*
X41338D01*
X41338Y93520D01*
X41193D01*
X41210Y93528D02*
X41321Y93538D01*
X41177Y92637D02*
Y92696D01*
X41354Y92696D01*
Y92637D01*
X41177Y92637D01*
X41193Y92654D02*
X41193Y92680D01*
X41338D01*
X41338Y92654D01*
X41193D01*
X41210Y92662D02*
X41321Y92672D01*
X41177Y90504D02*
Y90563D01*
X41354Y90563D01*
Y90504D01*
X41177Y90504D01*
X41193Y90520D02*
X41193Y90546D01*
X41338D01*
X41338Y90520D01*
X41193D01*
X41210Y90528D02*
X41321Y90538D01*
X41177Y89637D02*
Y89696D01*
X41354Y89696D01*
Y89637D01*
X41177Y89637D01*
X41193Y89654D02*
X41193Y89680D01*
X41338D01*
X41338Y89654D01*
X41193D01*
X41210Y89662D02*
X41321Y89672D01*
X41177Y92504D02*
Y92563D01*
X41354Y92563D01*
Y92504D01*
X41177Y92504D01*
X41193Y92520D02*
X41193Y92546D01*
X41338D01*
X41338Y92520D01*
X41193D01*
X41210Y92528D02*
X41321Y92538D01*
X41177Y91637D02*
Y91696D01*
X41354Y91696D01*
Y91637D01*
X41177Y91637D01*
X41193Y91654D02*
X41193Y91680D01*
X41338D01*
X41338Y91654D01*
X41193D01*
X41210Y91662D02*
X41321Y91672D01*
X41177Y91504D02*
Y91563D01*
X41354Y91563D01*
Y91504D01*
X41177Y91504D01*
X41193Y91520D02*
X41193Y91546D01*
X41338D01*
X41338Y91520D01*
X41193D01*
X41210Y91528D02*
X41321Y91538D01*
X41177Y90637D02*
Y90696D01*
X41354Y90696D01*
Y90637D01*
X41177Y90637D01*
X41193Y90654D02*
X41193Y90680D01*
X41338D01*
X41338Y90654D01*
X41193D01*
X41210Y90662D02*
X41321Y90672D01*
X64461Y64180D02*
Y64239D01*
X64638Y64239D01*
Y64180D01*
X64461Y64180D01*
X64477Y64196D02*
Y64223D01*
X64622D01*
Y64196D01*
X64477D01*
X64494Y64204D02*
X64605Y64214D01*
X64461Y65361D02*
Y65420D01*
X64638Y65420D01*
Y65361D01*
X64461Y65361D01*
X64477Y65377D02*
Y65404D01*
X64622D01*
Y65377D01*
X64477D01*
X64494Y65386D02*
X64605Y65396D01*
X57461Y59980D02*
Y60039D01*
X57638Y60039D01*
Y59980D01*
X57461Y59980D01*
X57477Y59996D02*
Y60023D01*
X57622D01*
Y59996D01*
X57477D01*
X57494Y60004D02*
X57605Y60014D01*
X57461Y61161D02*
Y61220D01*
X57638Y61220D01*
Y61161D01*
X57461Y61161D01*
X57477Y61177D02*
Y61204D01*
X57622D01*
Y61177D01*
X57477D01*
X57494Y61186D02*
X57605Y61196D01*
X58461Y58580D02*
Y58639D01*
X58638Y58639D01*
Y58580D01*
X58461Y58580D01*
X58477Y58596D02*
Y58623D01*
X58622D01*
Y58596D01*
X58477D01*
X58494Y58604D02*
X58605Y58614D01*
X58461Y59761D02*
Y59820D01*
X58638Y59820D01*
Y59761D01*
X58461Y59761D01*
X58477Y59777D02*
Y59804D01*
X58622D01*
Y59777D01*
X58477D01*
X58494Y59786D02*
X58605Y59796D01*
X41077Y78204D02*
Y78263D01*
X41254Y78263D01*
Y78204D01*
X41077Y78204D01*
X41093Y78220D02*
X41093Y78246D01*
X41238D01*
X41238Y78220D01*
X41093D01*
X41110Y78228D02*
X41221Y78238D01*
X41077Y77337D02*
Y77396D01*
X41254Y77396D01*
Y77337D01*
X41077Y77337D01*
X41093Y77354D02*
X41093Y77380D01*
X41238D01*
X41238Y77354D01*
X41093D01*
X41110Y77362D02*
X41221Y77372D01*
X41077Y63704D02*
Y63763D01*
X41254Y63763D01*
Y63704D01*
X41077Y63704D01*
X41093Y63720D02*
X41093Y63746D01*
X41238D01*
X41238Y63720D01*
X41093D01*
X41110Y63728D02*
X41221Y63738D01*
X41077Y62837D02*
Y62896D01*
X41254Y62896D01*
Y62837D01*
X41077Y62837D01*
X41093Y62854D02*
X41093Y62880D01*
X41238D01*
X41238Y62854D01*
X41093D01*
X41110Y62862D02*
X41221Y62872D01*
X41077Y79204D02*
Y79263D01*
X41254Y79263D01*
Y79204D01*
X41077Y79204D01*
X41093Y79220D02*
X41093Y79246D01*
X41238D01*
X41238Y79220D01*
X41093D01*
X41110Y79228D02*
X41221Y79238D01*
X41077Y78337D02*
Y78396D01*
X41254Y78396D01*
Y78337D01*
X41077Y78337D01*
X41093Y78354D02*
X41093Y78380D01*
X41238D01*
X41238Y78354D01*
X41093D01*
X41110Y78362D02*
X41221Y78372D01*
X41077Y64704D02*
Y64763D01*
X41254Y64763D01*
Y64704D01*
X41077Y64704D01*
X41093Y64720D02*
X41093Y64746D01*
X41238D01*
X41238Y64720D01*
X41093D01*
X41110Y64728D02*
X41221Y64738D01*
X41077Y63837D02*
Y63896D01*
X41254Y63896D01*
Y63837D01*
X41077Y63837D01*
X41093Y63854D02*
X41093Y63880D01*
X41238D01*
X41238Y63854D01*
X41093D01*
X41110Y63862D02*
X41221Y63872D01*
X41077Y77204D02*
Y77263D01*
X41254Y77263D01*
Y77204D01*
X41077Y77204D01*
X41093Y77220D02*
X41093Y77246D01*
X41238D01*
X41238Y77220D01*
X41093D01*
X41110Y77228D02*
X41221Y77238D01*
X41077Y76337D02*
Y76396D01*
X41254Y76396D01*
Y76337D01*
X41077Y76337D01*
X41093Y76354D02*
X41093Y76380D01*
X41238D01*
X41238Y76354D01*
X41093D01*
X41110Y76362D02*
X41221Y76372D01*
X41077Y62704D02*
Y62763D01*
X41254Y62763D01*
Y62704D01*
X41077Y62704D01*
X41093Y62720D02*
X41093Y62746D01*
X41238D01*
X41238Y62720D01*
X41093D01*
X41110Y62728D02*
X41221Y62738D01*
X41077Y61837D02*
Y61896D01*
X41254Y61896D01*
Y61837D01*
X41077Y61837D01*
X41093Y61854D02*
X41093Y61880D01*
X41238D01*
X41238Y61854D01*
X41093D01*
X41110Y61862D02*
X41221Y61872D01*
X41077Y80204D02*
Y80263D01*
X41254Y80263D01*
Y80204D01*
X41077Y80204D01*
X41093Y80220D02*
X41093Y80246D01*
X41238D01*
X41238Y80220D01*
X41093D01*
X41110Y80228D02*
X41221Y80238D01*
X41077Y79337D02*
Y79396D01*
X41254Y79396D01*
Y79337D01*
X41077Y79337D01*
X41093Y79354D02*
X41093Y79380D01*
X41238D01*
X41238Y79354D01*
X41093D01*
X41110Y79362D02*
X41221Y79372D01*
X41077Y65704D02*
Y65763D01*
X41254Y65763D01*
Y65704D01*
X41077Y65704D01*
X41093Y65720D02*
X41093Y65746D01*
X41238D01*
X41238Y65720D01*
X41093D01*
X41110Y65728D02*
X41221Y65738D01*
X41077Y64837D02*
Y64896D01*
X41254Y64896D01*
Y64837D01*
X41077Y64837D01*
X41093Y64854D02*
X41093Y64880D01*
X41238D01*
X41238Y64854D01*
X41093D01*
X41110Y64862D02*
X41221Y64872D01*
X68377Y37804D02*
Y37863D01*
X68554Y37863D01*
Y37804D01*
X68377Y37804D01*
X68393Y37820D02*
Y37846D01*
X68538D01*
Y37820D01*
X68393D01*
X68410Y37828D02*
X68521Y37838D01*
X68377Y36937D02*
Y36996D01*
X68554Y36996D01*
Y36937D01*
X68377Y36937D01*
X68393Y36954D02*
Y36980D01*
X68538D01*
Y36954D01*
X68393D01*
X68410Y36962D02*
X68521Y36972D01*
X41760Y45080D02*
Y45139D01*
X41937Y45139D01*
Y45080D01*
X41760Y45080D01*
X41777Y45096D02*
Y45123D01*
X41921D01*
Y45096D01*
X41777D01*
X41793Y45104D02*
X41905Y45114D01*
X41760Y46261D02*
Y46320D01*
X41937Y46320D01*
Y46261D01*
X41760Y46261D01*
X41777Y46277D02*
Y46304D01*
X41921D01*
Y46277D01*
X41777D01*
X41793Y46286D02*
X41905Y46296D01*
X43360Y49480D02*
Y49539D01*
X43537Y49539D01*
Y49480D01*
X43360Y49480D01*
X43377Y49496D02*
Y49523D01*
X43521D01*
Y49496D01*
X43377D01*
X43393Y49504D02*
X43505Y49514D01*
X43360Y50661D02*
Y50720D01*
X43537Y50720D01*
Y50661D01*
X43360Y50661D01*
X43377Y50677D02*
Y50704D01*
X43521D01*
Y50677D01*
X43377D01*
X43393Y50686D02*
X43505Y50696D01*
X31360Y34480D02*
Y34539D01*
X31537Y34539D01*
Y34480D01*
X31360Y34480D01*
X31377Y34496D02*
Y34523D01*
X31521D01*
Y34496D01*
X31377D01*
X31393Y34504D02*
X31505Y34514D01*
X31360Y35661D02*
Y35720D01*
X31537Y35720D01*
Y35661D01*
X31360Y35661D01*
X31377Y35677D02*
Y35704D01*
X31521D01*
Y35677D01*
X31377D01*
X31393Y35686D02*
X31505Y35696D01*
X30360Y35880D02*
Y35939D01*
X30537Y35939D01*
Y35880D01*
X30360Y35880D01*
X30377Y35896D02*
Y35923D01*
X30521D01*
Y35896D01*
X30377D01*
X30393Y35904D02*
X30505Y35914D01*
X30360Y37061D02*
Y37120D01*
X30537Y37120D01*
Y37061D01*
X30360Y37061D01*
X30377Y37077D02*
Y37104D01*
X30521D01*
Y37077D01*
X30377D01*
X30393Y37086D02*
X30505Y37096D01*
X37360Y40080D02*
Y40139D01*
X37537Y40139D01*
Y40080D01*
X37360Y40080D01*
X37377Y40096D02*
Y40123D01*
X37521D01*
Y40096D01*
X37377D01*
X37393Y40104D02*
X37505Y40114D01*
X37360Y41261D02*
Y41320D01*
X37537Y41320D01*
Y41261D01*
X37360Y41261D01*
X37377Y41277D02*
Y41304D01*
X37521D01*
Y41277D01*
X37377D01*
X37393Y41286D02*
X37505Y41296D01*
D59*
X59074Y78033D02*
D03*
X59074Y79171D02*
D03*
X67474Y78233D02*
D03*
X67474Y79371D02*
D03*
X59674Y64034D02*
D03*
X59675Y65171D02*
D03*
X63274Y58834D02*
D03*
X63275Y59971D02*
D03*
X66474Y61634D02*
D03*
X66475Y62771D02*
D03*
X66474Y63034D02*
D03*
X66475Y64171D02*
D03*
X40574Y50933D02*
D03*
X40574Y52071D02*
D03*
X32174Y50733D02*
D03*
X32174Y51871D02*
D03*
X39374Y38934D02*
D03*
Y40071D02*
D03*
Y37534D02*
D03*
Y38672D02*
D03*
X36174Y34734D02*
D03*
Y35871D02*
D03*
X32574Y39934D02*
D03*
Y41072D02*
D03*
D60*
X47431Y85974D02*
D03*
M02*
