%FSLAX24Y24*%
%MOIN*%
G70*
G01*
G75*
G04 Layer_Physical_Order=1*
%ADD10R,0.0630X0.0118*%
%ADD11R,0.0630X0.0118*%
%ADD12R,0.0709X0.0630*%
%ADD13R,0.0846X0.0157*%
%ADD14R,0.0846X0.0157*%
%ADD15R,0.0630X0.0709*%
%ADD16R,0.0512X0.0591*%
%ADD17R,0.0591X0.0512*%
%ADD18R,0.0551X0.0236*%
%ADD19O,0.0480X0.0169*%
%ADD20R,0.0650X0.0118*%
%ADD21R,0.0787X0.0472*%
%ADD22R,0.0866X0.0236*%
%ADD23R,0.0866X0.0236*%
%ADD24R,0.0433X0.0394*%
%ADD25R,0.0610X0.0236*%
%ADD26R,0.1024X0.1614*%
%ADD27R,0.1614X0.1024*%
%ADD28R,0.0480X0.0169*%
%ADD29R,0.0394X0.0236*%
%ADD30R,0.1240X0.1360*%
%ADD31R,0.0315X0.1417*%
%ADD32C,0.0160*%
%ADD33C,0.0200*%
%ADD34C,0.0100*%
%ADD35C,0.0300*%
%ADD36C,0.0080*%
%ADD37C,0.0250*%
%ADD38C,0.0400*%
%ADD39C,0.0600*%
%ADD40C,0.1600*%
%ADD41C,0.0500*%
%ADD42R,0.0591X0.0591*%
%ADD43C,0.0591*%
%ADD44C,0.0750*%
%ADD45C,0.0866*%
%ADD46C,0.1575*%
%ADD47C,0.0250*%
%ADD48C,0.0350*%
D10*
X60093Y77394D02*
D03*
X60093Y77197D02*
D03*
X60093Y77000D02*
D03*
Y76803D02*
D03*
Y76606D02*
D03*
X61707Y77197D02*
D03*
Y77000D02*
D03*
Y76803D02*
D03*
Y76606D02*
D03*
X33193Y50094D02*
D03*
X33193Y49897D02*
D03*
X33193Y49700D02*
D03*
Y49503D02*
D03*
Y49306D02*
D03*
X34807Y49897D02*
D03*
Y49700D02*
D03*
Y49503D02*
D03*
Y49306D02*
D03*
X68293Y76194D02*
D03*
X68293Y75997D02*
D03*
X68293Y75800D02*
D03*
Y75603D02*
D03*
Y75406D02*
D03*
X69907Y75997D02*
D03*
Y75800D02*
D03*
Y75603D02*
D03*
Y75406D02*
D03*
X43007Y48106D02*
D03*
X41393D02*
D03*
X43007Y48303D02*
D03*
Y48500D02*
D03*
Y48697D02*
D03*
X41393D02*
D03*
X41393Y48894D02*
D03*
X41393Y48500D02*
D03*
Y48303D02*
D03*
D11*
X61707Y77394D02*
D03*
X34807Y50094D02*
D03*
X69907Y76194D02*
D03*
X43007Y48894D02*
D03*
D12*
X68900Y61049D02*
D03*
Y62151D02*
D03*
X37400Y50051D02*
D03*
Y48949D02*
D03*
X64300Y77351D02*
D03*
Y76249D02*
D03*
X57500Y75049D02*
D03*
Y76151D02*
D03*
X64500Y74049D02*
D03*
Y75151D02*
D03*
X57300Y96351D02*
D03*
Y95249D02*
D03*
X37600Y47851D02*
D03*
X30600Y48851D02*
D03*
X41800Y38051D02*
D03*
X37600Y46749D02*
D03*
X30600Y47749D02*
D03*
X41800Y36949D02*
D03*
D13*
X62689Y90604D02*
D03*
Y90860D02*
D03*
Y91116D02*
D03*
Y91372D02*
D03*
Y91628D02*
D03*
Y91884D02*
D03*
Y92140D02*
D03*
Y92396D02*
D03*
X60111Y90604D02*
D03*
Y90860D02*
D03*
Y91116D02*
D03*
Y91372D02*
D03*
Y91628D02*
D03*
Y91884D02*
D03*
Y92140D02*
D03*
X62911Y37216D02*
D03*
X65489Y37728D02*
D03*
X62911D02*
D03*
X65489Y37216D02*
D03*
X62911Y38240D02*
D03*
X65489D02*
D03*
Y37984D02*
D03*
Y37472D02*
D03*
Y36960D02*
D03*
Y36704D02*
D03*
X62911Y36960D02*
D03*
Y37472D02*
D03*
Y37984D02*
D03*
Y36704D02*
D03*
X65489Y38496D02*
D03*
D14*
X60111Y92396D02*
D03*
X62911Y38496D02*
D03*
D15*
X65851Y60800D02*
D03*
X64749D02*
D03*
X32951Y48300D02*
D03*
X31849D02*
D03*
X59851Y75600D02*
D03*
X58749D02*
D03*
X68651Y77400D02*
D03*
X67549D02*
D03*
X70349D02*
D03*
X71451D02*
D03*
X63251Y74000D02*
D03*
X62149D02*
D03*
X68749Y73000D02*
D03*
X69851D02*
D03*
X60651Y63200D02*
D03*
X59549D02*
D03*
X63651Y60800D02*
D03*
X62549D02*
D03*
X64549Y64800D02*
D03*
X65651D02*
D03*
X57549Y60600D02*
D03*
X58651D02*
D03*
X58549Y59200D02*
D03*
X59651D02*
D03*
X67251Y59400D02*
D03*
X66149D02*
D03*
X55949Y98000D02*
D03*
X57051D02*
D03*
X42951Y45700D02*
D03*
X35249Y46700D02*
D03*
X44551Y50100D02*
D03*
X43449D02*
D03*
X40649D02*
D03*
X41751D02*
D03*
X39049Y35300D02*
D03*
X32551Y35100D02*
D03*
X31551Y36500D02*
D03*
X38551Y40700D02*
D03*
X37449D02*
D03*
X37649Y36700D02*
D03*
X38751D02*
D03*
X35449Y36700D02*
D03*
X36551D02*
D03*
X32449Y39100D02*
D03*
X33551D02*
D03*
X41849Y45700D02*
D03*
X36351Y46700D02*
D03*
X40151Y35300D02*
D03*
X31449Y35100D02*
D03*
X30449Y36500D02*
D03*
D16*
X32374Y37900D02*
D03*
X31626D02*
D03*
X57674Y62000D02*
D03*
X56926D02*
D03*
X57274Y77200D02*
D03*
X56526D02*
D03*
X68174Y92500D02*
D03*
X67426D02*
D03*
X66374D02*
D03*
X65626D02*
D03*
X64574D02*
D03*
X63826D02*
D03*
X57174Y91700D02*
D03*
X56426D02*
D03*
X64574Y91300D02*
D03*
X63826D02*
D03*
X58974Y91700D02*
D03*
X58226D02*
D03*
X58974Y90500D02*
D03*
X58226D02*
D03*
X61774Y89500D02*
D03*
X61026D02*
D03*
X58326Y78600D02*
D03*
X59074D02*
D03*
X66726Y78800D02*
D03*
X67474D02*
D03*
X59074Y77200D02*
D03*
X58326D02*
D03*
X63074Y75400D02*
D03*
X62326D02*
D03*
X67074Y76000D02*
D03*
X66326D02*
D03*
X66274Y77400D02*
D03*
X65526D02*
D03*
X70674Y74400D02*
D03*
X69926D02*
D03*
X68874Y74400D02*
D03*
X68126D02*
D03*
X58926Y64600D02*
D03*
X59674D02*
D03*
X62526Y59400D02*
D03*
X63274D02*
D03*
X67674Y60800D02*
D03*
X66926D02*
D03*
X65474Y66200D02*
D03*
X64726D02*
D03*
X59474Y62000D02*
D03*
X58726D02*
D03*
X61474Y59800D02*
D03*
X60726D02*
D03*
X65726Y62200D02*
D03*
X66474D02*
D03*
X65074Y59400D02*
D03*
X64326D02*
D03*
X65726Y63600D02*
D03*
X66474D02*
D03*
X63826Y35600D02*
D03*
X61774Y36600D02*
D03*
X66626Y37400D02*
D03*
X61774Y37800D02*
D03*
X64574Y35600D02*
D03*
X67374Y37400D02*
D03*
Y38600D02*
D03*
X61026Y36600D02*
D03*
Y37800D02*
D03*
X59974D02*
D03*
X66626Y38600D02*
D03*
X68426D02*
D03*
X59226Y37800D02*
D03*
X29826Y37900D02*
D03*
X29626Y49900D02*
D03*
X70226Y38600D02*
D03*
X69174D02*
D03*
X70974D02*
D03*
X43026Y47100D02*
D03*
X41974D02*
D03*
X39426Y48700D02*
D03*
X39374Y50100D02*
D03*
X39826Y51500D02*
D03*
X35426Y48100D02*
D03*
X31426Y49900D02*
D03*
X30374D02*
D03*
X31426Y51300D02*
D03*
X43774Y47100D02*
D03*
X40174Y48700D02*
D03*
X41226Y47100D02*
D03*
X40574Y51500D02*
D03*
X36174Y48100D02*
D03*
X38626Y50100D02*
D03*
X32174Y49900D02*
D03*
X32174Y51300D02*
D03*
X39374Y39501D02*
D03*
X38374Y42100D02*
D03*
X39374Y38101D02*
D03*
X37974Y35300D02*
D03*
X40574Y36700D02*
D03*
X33626Y35700D02*
D03*
X35426Y35301D02*
D03*
X30574Y37900D02*
D03*
X31826Y40501D02*
D03*
X38626Y39501D02*
D03*
X37626Y42100D02*
D03*
X38626Y38101D02*
D03*
X39826Y36700D02*
D03*
X34374Y35700D02*
D03*
X37226Y35300D02*
D03*
X36174Y35301D02*
D03*
X32574Y40501D02*
D03*
D17*
X34200Y48074D02*
D03*
Y47326D02*
D03*
X31000Y90326D02*
D03*
Y91074D02*
D03*
X70800Y90626D02*
D03*
Y91374D02*
D03*
X62900Y76626D02*
D03*
Y77374D02*
D03*
X71100Y75426D02*
D03*
Y76174D02*
D03*
X61100Y74626D02*
D03*
Y75374D02*
D03*
X46600Y85226D02*
D03*
Y85974D02*
D03*
X48000Y85226D02*
D03*
Y85974D02*
D03*
X49400Y85226D02*
D03*
Y85974D02*
D03*
X50800Y85226D02*
D03*
Y85974D02*
D03*
X52200Y85226D02*
D03*
Y85974D02*
D03*
X60700Y61026D02*
D03*
Y61774D02*
D03*
X67700Y63374D02*
D03*
Y62626D02*
D03*
X31000Y62426D02*
D03*
Y63174D02*
D03*
X30900Y76426D02*
D03*
Y77174D02*
D03*
X46500Y72674D02*
D03*
X47900D02*
D03*
X49300D02*
D03*
X50700D02*
D03*
X52100D02*
D03*
X46498Y58174D02*
D03*
X47901D02*
D03*
X49298D02*
D03*
X50698D02*
D03*
X52102D02*
D03*
X73600Y37474D02*
D03*
Y36726D02*
D03*
X44200Y48126D02*
D03*
X36000Y49326D02*
D03*
X44200Y48874D02*
D03*
X36000Y50074D02*
D03*
X40601Y39274D02*
D03*
X33601Y36926D02*
D03*
X40601Y38526D02*
D03*
X33601Y37674D02*
D03*
X46500Y71926D02*
D03*
X46498Y57426D02*
D03*
X47900Y71926D02*
D03*
X47901Y57426D02*
D03*
X49300Y71926D02*
D03*
X49298Y57426D02*
D03*
X50700Y71926D02*
D03*
X50698Y57426D02*
D03*
X52100Y71926D02*
D03*
X52102Y57426D02*
D03*
D18*
X48639Y91050D02*
D03*
Y92050D02*
D03*
Y91550D02*
D03*
Y90550D02*
D03*
X50961Y92050D02*
D03*
Y91550D02*
D03*
Y91050D02*
D03*
Y90550D02*
D03*
X59139Y97150D02*
D03*
Y96650D02*
D03*
Y96150D02*
D03*
Y95650D02*
D03*
X61461Y97150D02*
D03*
Y96650D02*
D03*
Y96150D02*
D03*
Y95650D02*
D03*
X48539Y78250D02*
D03*
Y63750D02*
D03*
X50861Y77750D02*
D03*
Y63250D02*
D03*
X48539Y77250D02*
D03*
Y62750D02*
D03*
X50861Y78250D02*
D03*
Y63750D02*
D03*
X48539Y77750D02*
D03*
Y63250D02*
D03*
Y78750D02*
D03*
X50861D02*
D03*
Y77250D02*
D03*
X48539Y64250D02*
D03*
X50861D02*
D03*
Y62750D02*
D03*
D19*
X52400Y91444D02*
D03*
Y91188D02*
D03*
Y90932D02*
D03*
X53432Y91700D02*
D03*
Y91444D02*
D03*
Y91188D02*
D03*
Y90932D02*
D03*
X52300Y77888D02*
D03*
Y63388D02*
D03*
X53331Y78144D02*
D03*
Y77888D02*
D03*
Y77632D02*
D03*
Y63644D02*
D03*
Y63388D02*
D03*
Y63132D02*
D03*
X52300Y77632D02*
D03*
Y63132D02*
D03*
X53331Y78400D02*
D03*
Y63900D02*
D03*
X52300Y78144D02*
D03*
Y63644D02*
D03*
D20*
X43107Y90604D02*
D03*
Y91116D02*
D03*
Y92396D02*
D03*
Y92140D02*
D03*
Y91884D02*
D03*
Y91628D02*
D03*
Y91372D02*
D03*
Y90860D02*
D03*
X45293Y92396D02*
D03*
Y92140D02*
D03*
Y91884D02*
D03*
Y91628D02*
D03*
Y91372D02*
D03*
Y91116D02*
D03*
Y90860D02*
D03*
Y90604D02*
D03*
X62007Y63368D02*
D03*
Y63112D02*
D03*
Y62856D02*
D03*
Y62600D02*
D03*
Y62344D02*
D03*
Y62088D02*
D03*
Y61832D02*
D03*
X64193Y63368D02*
D03*
Y63112D02*
D03*
Y62856D02*
D03*
Y62600D02*
D03*
Y62344D02*
D03*
Y62088D02*
D03*
Y61832D02*
D03*
X45193Y78328D02*
D03*
X43007Y78584D02*
D03*
X45193Y63828D02*
D03*
X43007Y64084D02*
D03*
Y78328D02*
D03*
Y63828D02*
D03*
Y78840D02*
D03*
Y64340D02*
D03*
Y78072D02*
D03*
Y63572D02*
D03*
Y79096D02*
D03*
Y64596D02*
D03*
X45193Y77816D02*
D03*
Y63316D02*
D03*
Y78840D02*
D03*
Y64340D02*
D03*
Y78584D02*
D03*
Y64084D02*
D03*
Y78072D02*
D03*
Y63572D02*
D03*
Y77304D02*
D03*
Y77560D02*
D03*
Y62804D02*
D03*
Y63060D02*
D03*
X37093Y38756D02*
D03*
Y39012D02*
D03*
Y39268D02*
D03*
Y37988D02*
D03*
Y37732D02*
D03*
X34907Y37988D02*
D03*
Y37732D02*
D03*
Y39012D02*
D03*
Y39268D02*
D03*
X37093Y38244D02*
D03*
X34907D02*
D03*
Y38756D02*
D03*
X43007Y77560D02*
D03*
Y63060D02*
D03*
X37093Y38500D02*
D03*
X45193Y79096D02*
D03*
Y64596D02*
D03*
X34907Y38500D02*
D03*
X43007Y77304D02*
D03*
Y77816D02*
D03*
Y62804D02*
D03*
Y63316D02*
D03*
D21*
X53351Y90100D02*
D03*
X52249Y92500D02*
D03*
X34649D02*
D03*
X35751D02*
D03*
X35551Y89100D02*
D03*
X34449D02*
D03*
X53351Y92500D02*
D03*
X52249Y90100D02*
D03*
X35551Y61200D02*
D03*
X35451Y75200D02*
D03*
X35751Y64600D02*
D03*
X35651Y78600D02*
D03*
X34449Y61200D02*
D03*
X34349Y75200D02*
D03*
X52149Y76800D02*
D03*
Y62300D02*
D03*
X34649Y64600D02*
D03*
X34549Y78600D02*
D03*
X53251Y79200D02*
D03*
Y64700D02*
D03*
Y76800D02*
D03*
Y62300D02*
D03*
X52149Y79200D02*
D03*
Y64700D02*
D03*
D22*
X32176Y90950D02*
D03*
Y90450D02*
D03*
Y89950D02*
D03*
X34224Y91450D02*
D03*
Y90950D02*
D03*
Y90450D02*
D03*
Y89950D02*
D03*
X32176Y62550D02*
D03*
Y63050D02*
D03*
X32076Y76550D02*
D03*
Y77050D02*
D03*
X32176Y62050D02*
D03*
X32076Y76050D02*
D03*
X34124Y77050D02*
D03*
X34224Y63050D02*
D03*
Y62550D02*
D03*
X34124Y76550D02*
D03*
X34224Y62050D02*
D03*
X34124Y76050D02*
D03*
X34224Y63550D02*
D03*
X34124Y77550D02*
D03*
D23*
X32176Y91450D02*
D03*
Y63550D02*
D03*
X32076Y77550D02*
D03*
D24*
X69265Y92600D02*
D03*
X69935D02*
D03*
X66335Y91300D02*
D03*
X65665D02*
D03*
X46665Y90900D02*
D03*
X47335D02*
D03*
X46665Y91900D02*
D03*
X47335D02*
D03*
X46665Y92900D02*
D03*
X47335D02*
D03*
X46665Y89900D02*
D03*
X47335D02*
D03*
X41935Y93100D02*
D03*
X41265D02*
D03*
X39265Y90100D02*
D03*
X39935D02*
D03*
X41935D02*
D03*
X41265D02*
D03*
X39265Y92100D02*
D03*
X39935D02*
D03*
X41935D02*
D03*
X41265D02*
D03*
X39265Y91100D02*
D03*
X39935D02*
D03*
X41935D02*
D03*
X41265D02*
D03*
X53965Y97600D02*
D03*
X54635D02*
D03*
X41835Y77800D02*
D03*
Y63300D02*
D03*
Y78800D02*
D03*
Y64300D02*
D03*
Y76800D02*
D03*
Y62300D02*
D03*
Y79800D02*
D03*
Y65300D02*
D03*
X46565Y76600D02*
D03*
Y62100D02*
D03*
Y79600D02*
D03*
Y65100D02*
D03*
Y78600D02*
D03*
Y64100D02*
D03*
Y77600D02*
D03*
X47235Y76600D02*
D03*
Y79600D02*
D03*
Y78600D02*
D03*
Y77600D02*
D03*
X46565Y63100D02*
D03*
X47235Y62100D02*
D03*
Y65100D02*
D03*
Y64100D02*
D03*
Y63100D02*
D03*
X69135Y37400D02*
D03*
X72065Y38700D02*
D03*
X72735D02*
D03*
X41165Y77800D02*
D03*
X39835D02*
D03*
X41165Y63300D02*
D03*
X39835D02*
D03*
X41165Y78800D02*
D03*
X39835D02*
D03*
X41165Y64300D02*
D03*
X39835D02*
D03*
X41165Y79800D02*
D03*
X39165Y77800D02*
D03*
Y78800D02*
D03*
Y76800D02*
D03*
X41165D02*
D03*
X39835D02*
D03*
X41165Y65300D02*
D03*
X39165Y63300D02*
D03*
Y64300D02*
D03*
Y62300D02*
D03*
X41165D02*
D03*
X39835D02*
D03*
X68465Y37400D02*
D03*
D25*
X67248Y91450D02*
D03*
Y90950D02*
D03*
Y90450D02*
D03*
Y89950D02*
D03*
X69552Y91450D02*
D03*
Y90950D02*
D03*
Y90450D02*
D03*
Y89950D02*
D03*
X70048Y36550D02*
D03*
Y37050D02*
D03*
X72352Y36550D02*
D03*
X70048Y36050D02*
D03*
X72352Y37050D02*
D03*
X70048Y37550D02*
D03*
X72352D02*
D03*
Y36050D02*
D03*
D26*
X64960Y79200D02*
D03*
X62440D02*
D03*
X72160D02*
D03*
X69640D02*
D03*
X63560Y72200D02*
D03*
X61040D02*
D03*
X63960Y57600D02*
D03*
X61440D02*
D03*
X63360Y65400D02*
D03*
X60840D02*
D03*
X34140Y44900D02*
D03*
X38060Y51900D02*
D03*
X45260D02*
D03*
X33740Y41300D02*
D03*
X37760Y33500D02*
D03*
X36660Y44900D02*
D03*
X36260Y41300D02*
D03*
X35540Y51900D02*
D03*
X42740D02*
D03*
X35240Y33500D02*
D03*
D27*
X73100Y77260D02*
D03*
Y74740D02*
D03*
X46200Y47440D02*
D03*
Y49960D02*
D03*
D28*
X52400Y91700D02*
D03*
X52300Y63900D02*
D03*
Y78400D02*
D03*
D29*
X55802Y95852D02*
D03*
Y96226D02*
D03*
Y96600D02*
D03*
X54700Y95852D02*
D03*
Y96226D02*
D03*
Y96600D02*
D03*
D30*
X67710Y49800D02*
D03*
X71090D02*
D03*
X67710Y54400D02*
D03*
X71090D02*
D03*
D31*
X64200Y44619D02*
D03*
Y46981D02*
D03*
X64000Y54381D02*
D03*
Y52019D02*
D03*
D32*
X49850Y63250D02*
X50700D01*
X47235Y61565D02*
Y63100D01*
X49850Y62800D02*
X50300Y63250D01*
X49850Y62050D02*
Y62800D01*
X48900Y61100D02*
X49850Y62050D01*
X36600Y63300D02*
X39165D01*
X36350Y63050D02*
X36600Y63300D01*
X34224Y63050D02*
X36000D01*
X49850Y77750D02*
X50700D01*
X48900Y75600D02*
X49850Y76550D01*
X47235Y76065D02*
Y77600D01*
X49850Y77300D02*
X50300Y77750D01*
X49729Y76271D02*
X50000Y76000D01*
X49571Y76271D02*
X49729D01*
X37000Y76400D02*
Y77100D01*
X36950Y77050D02*
X37600Y77700D01*
X39165D01*
X34124Y77050D02*
X36950D01*
X35400Y36800D02*
X35500D01*
X38657Y36843D02*
X38751Y36749D01*
Y36700D02*
Y36749D01*
X37649Y36700D02*
Y36851D01*
X37093Y40344D02*
X37449Y40700D01*
X40151Y35300D02*
X40700D01*
X39000D02*
Y35500D01*
X33551Y39100D02*
Y39649D01*
X32700Y40500D02*
X33551Y39649D01*
X35200Y35300D02*
X35426D01*
X34800Y34900D02*
X35200Y35300D01*
X32751Y34900D02*
X34800D01*
X36551Y35677D02*
Y36700D01*
X36174Y35300D02*
X36551Y35677D01*
X38751Y36700D02*
X39826D01*
X37449Y41923D02*
X37626Y42100D01*
X37449Y40700D02*
Y41923D01*
X31826Y39900D02*
Y40500D01*
X31626Y39700D02*
X31826Y39900D01*
X31626Y37900D02*
Y39700D01*
X30574Y37900D02*
X31626D01*
X31500Y36400D02*
Y37900D01*
X34400Y35700D02*
X35400Y36700D01*
X34374Y35700D02*
X34400D01*
X33600Y35726D02*
Y37000D01*
X33026Y35100D02*
X33626Y35700D01*
X32400Y35100D02*
X33026D01*
X37974Y35300D02*
X39049D01*
X36174D02*
X37300D01*
X39800Y38100D02*
X40574Y37326D01*
X39374Y38100D02*
X39800D01*
X40574Y36174D02*
Y37326D01*
X40400Y36000D02*
X40574Y36174D01*
X39500Y36000D02*
X40400D01*
X39000Y35500D02*
X39500Y36000D01*
X40600Y37900D02*
Y38526D01*
X39826Y36700D02*
Y37274D01*
X38551Y39575D02*
Y40700D01*
Y39575D02*
X38626Y39500D01*
X39600Y39274D02*
X41226D01*
X39300Y39574D02*
X39600Y39274D01*
X41226D02*
X41800Y38700D01*
Y38051D02*
Y38700D01*
X38800Y42100D02*
X39300Y41600D01*
X38374Y42100D02*
X38800D01*
X39300Y39574D02*
Y41600D01*
X37093Y39268D02*
Y40344D01*
X59851Y59000D02*
X61900D01*
X32065Y48517D02*
X32174Y48625D01*
X30600Y47200D02*
Y47749D01*
X36951Y46749D02*
X37600D01*
X37051Y46700D02*
X37100Y46749D01*
X36351Y46700D02*
X37051D01*
X41751Y50049D02*
Y50749D01*
X41000Y51500D02*
X41751Y50749D01*
X40574Y51500D02*
X41000D01*
X44100Y48800D02*
X44200D01*
X32174Y48625D02*
Y49900D01*
X30474D02*
X31426D01*
X39826Y50552D02*
Y51500D01*
X39351Y50077D02*
X39826Y50552D01*
X38649Y50051D02*
X38700Y50000D01*
X37400Y50051D02*
X38649D01*
X39426Y48700D02*
Y50074D01*
X39200Y48700D02*
X39500D01*
X38351Y47851D02*
X39200Y48700D01*
X37600Y47851D02*
X38351D01*
X43874Y47800D02*
X44200Y48126D01*
X43800Y47800D02*
X43874D01*
X41974Y47100D02*
X43026D01*
Y45775D02*
Y47100D01*
X43449Y49451D02*
X44100Y48800D01*
X43449Y49451D02*
Y50100D01*
X71965Y38600D02*
X72065Y38700D01*
X72735D02*
X72900Y38535D01*
X68465Y37035D02*
Y37400D01*
X69135Y38561D02*
X69174Y38600D01*
X69135Y37400D02*
Y38561D01*
X68400Y38600D02*
X68426D01*
X70974D02*
X71965D01*
X73500Y39500D02*
X73600Y39400D01*
X70900Y39500D02*
X73500D01*
X70200Y38800D02*
X70900Y39500D01*
X73600Y37474D02*
Y39400D01*
X69174Y38600D02*
X70226D01*
X67200Y39300D02*
X67700D01*
X66600Y38700D02*
X67200Y39300D01*
X67700D02*
X68400Y38600D01*
X61774Y37800D02*
X61846Y37728D01*
X60200Y37800D02*
X61026D01*
X67374Y37326D02*
Y38600D01*
X66298Y37728D02*
X66626Y37400D01*
X61700Y36674D02*
Y36800D01*
X61000Y36700D02*
Y37600D01*
X70974Y37474D02*
Y38600D01*
X70550Y37050D02*
X70974Y37474D01*
X70048Y37050D02*
X70550D01*
X69800Y35802D02*
X70048Y36050D01*
X69800Y35700D02*
Y35802D01*
X71800Y37200D02*
X71950Y37050D01*
X72352D01*
X73074Y36726D02*
X73600D01*
X72900Y36900D02*
X73074Y36726D01*
X72900Y36800D02*
Y38535D01*
X72650Y36550D02*
X72900Y36800D01*
X72352Y36550D02*
X72650D01*
X64860Y36960D02*
X65489D01*
X64700Y36800D02*
X64860Y36960D01*
X64796Y36704D02*
X65489D01*
X64700Y36800D02*
X64796Y36704D01*
X66900Y36800D02*
X67400Y37300D01*
X66400Y36800D02*
X66900D01*
X65984Y37216D02*
X66400Y36800D01*
X65489Y37216D02*
X65984D01*
X65200Y35600D02*
X66400Y36800D01*
X64574Y35600D02*
X65200D01*
X65489Y37728D02*
X66298D01*
X64784Y37984D02*
X65489D01*
X64828Y37472D02*
X65489D01*
X64700Y37600D02*
X64828Y37472D01*
X64700Y37900D02*
X64784Y37984D01*
X64700Y37600D02*
Y37900D01*
X66266Y38240D02*
X66626Y38600D01*
X65489Y38240D02*
X66266D01*
X65489Y38789D02*
X65600Y38900D01*
X65489Y38496D02*
Y38789D01*
X62911Y36411D02*
Y36704D01*
X62360Y36960D02*
X62911D01*
X62300Y36900D02*
X62360Y36960D01*
X63484Y37216D02*
X63826Y36874D01*
Y35600D02*
Y36874D01*
X62116Y37216D02*
X63484D01*
X61700Y36800D02*
X62116Y37216D01*
X61846Y37728D02*
X62911D01*
X63700Y37700D02*
Y37800D01*
X63516Y37984D02*
X63700Y37800D01*
X62911Y37984D02*
X63516D01*
X63472Y37472D02*
X63700Y37700D01*
X62911Y37472D02*
X63472D01*
X62000Y38500D02*
X62260Y38240D01*
X62911D01*
X61400Y38500D02*
X62000D01*
X61100Y38200D02*
X61400Y38500D01*
X61100Y37700D02*
Y38200D01*
X62911Y38496D02*
X63596D01*
X47235Y64100D02*
Y65265D01*
X47200Y65300D02*
X47235Y65265D01*
Y61565D02*
X47700Y61100D01*
X48900D01*
X39500Y65300D02*
X41165D01*
X39165Y64965D02*
X39500Y65300D01*
X39165Y63800D02*
Y64965D01*
Y62300D02*
Y63700D01*
X39835Y62300D02*
X41165D01*
X39835Y64300D02*
X41165D01*
X41740Y64340D02*
X41835D01*
X41740D02*
X41780Y64300D01*
X39835Y63300D02*
X41165D01*
X41835D02*
X41900D01*
X42900Y64340D02*
X43007D01*
X49400Y63700D02*
Y64400D01*
Y63700D02*
X49850Y63250D01*
X48600Y65200D02*
X49400Y64400D01*
X47335Y65200D02*
X48600D01*
X51150Y63750D02*
X51400Y64000D01*
X50861Y63750D02*
X51150D01*
X48539Y62750D02*
X48650D01*
X49000Y62400D01*
X47950Y63250D02*
X48539D01*
X48489Y63700D02*
X48539Y63750D01*
X48400Y63700D02*
X48489D01*
X47235Y78600D02*
Y79765D01*
X47200Y79800D02*
X47235Y79765D01*
Y76065D02*
X47700Y75600D01*
X48900D01*
X39500Y79800D02*
X41165D01*
X39165Y79465D02*
X39500Y79800D01*
X39165Y78300D02*
Y79465D01*
Y76800D02*
Y78200D01*
X39835Y76800D02*
X41165D01*
X39835Y78800D02*
X41165D01*
X41740Y78840D02*
X41835D01*
X41740D02*
X41780Y78800D01*
X39835Y77800D02*
X41165D01*
X41835D02*
X41900D01*
X42900Y78840D02*
X43007D01*
X49400Y78200D02*
Y78900D01*
X49850Y76550D02*
Y77300D01*
X49400Y78200D02*
X49850Y77750D01*
X48600Y79700D02*
X49400Y78900D01*
X47335Y79700D02*
X48600D01*
X51150Y78250D02*
X51400Y78500D01*
X50861Y78250D02*
X51150D01*
X48539Y77250D02*
X48650D01*
X49000Y76900D01*
X47950Y77750D02*
X48539D01*
X48489Y78200D02*
X48539Y78250D01*
X48400Y78200D02*
X48489D01*
X60250Y96150D02*
X61461D01*
X59139Y96650D02*
X59750D01*
X59200Y95700D02*
X59800D01*
X61461Y96650D02*
X62050D01*
X59750D02*
X60250Y96150D01*
X57650D02*
X59139D01*
X57400Y96400D02*
X57650Y96150D01*
X55802Y95402D02*
Y95852D01*
X53965Y97600D02*
Y98065D01*
X54300Y96600D02*
X54700D01*
X54200Y96700D02*
X54300Y96600D01*
X54226Y96226D02*
X54700D01*
X57300Y94600D02*
Y95249D01*
X57051Y96600D02*
Y98000D01*
X55549Y97600D02*
X55949Y98000D01*
X54635Y97600D02*
X55549D01*
X55802Y96600D02*
Y97854D01*
X70349Y76751D02*
X71000Y76100D01*
X70349Y76751D02*
Y77400D01*
X64549Y66023D02*
X64726Y66200D01*
X39265Y91600D02*
Y92765D01*
X39600Y93100D02*
X41265D01*
X65665Y90935D02*
Y91300D01*
X69150Y90950D02*
X69552D01*
X69000Y91100D02*
X69150Y90950D01*
X67000Y89702D02*
X67248Y89950D01*
X67000Y89600D02*
Y89702D01*
X70100Y90700D02*
Y92435D01*
Y90800D02*
X70274Y90626D01*
X70800D01*
X69935Y92600D02*
X70100Y92435D01*
X69552Y90450D02*
X69850D01*
X70100Y90700D01*
X69165Y92500D02*
X69265Y92600D01*
X68174Y92500D02*
X69165D01*
X68174Y91374D02*
Y92500D01*
X67248Y90950D02*
X67750D01*
X70800Y91374D02*
Y93300D01*
X67400Y92700D02*
X68100Y93400D01*
X70700D01*
X70800Y93300D01*
X65600Y92500D02*
X65626D01*
X63800Y92600D02*
X64400Y93200D01*
X64900D01*
X65600Y92500D01*
X66374D02*
X67426D01*
X66335Y92461D02*
X66374Y92500D01*
X66335Y91300D02*
Y92461D01*
X67750Y90950D02*
X68174Y91374D01*
X59560Y90860D02*
X60111D01*
X59500Y90800D02*
X59560Y90860D01*
X60111Y92396D02*
X60796D01*
X60111Y91884D02*
X60716D01*
X60900Y91600D02*
Y91700D01*
X60672Y91372D02*
X60900Y91600D01*
X60111Y91372D02*
X60672D01*
X60716Y91884D02*
X60900Y91700D01*
X60111Y90311D02*
Y90604D01*
X62689Y92689D02*
X62800Y92800D01*
X62689Y92396D02*
Y92689D01*
X61984Y91884D02*
X62689D01*
X62028Y91372D02*
X62689D01*
X61900Y91500D02*
Y91800D01*
Y91500D02*
X62028Y91372D01*
X61900Y91800D02*
X61984Y91884D01*
X62060Y90860D02*
X62689D01*
X61996Y90604D02*
X62689D01*
X61900Y90700D02*
X62060Y90860D01*
X61900Y90700D02*
X61996Y90604D01*
X62689Y91116D02*
X63184D01*
X63600Y90700D02*
X64100D01*
X63184Y91116D02*
X63600Y90700D01*
X62400Y89500D02*
X63600Y90700D01*
X61774Y89500D02*
X62400D01*
X64574Y91226D02*
Y92500D01*
X64100Y90700D02*
X64600Y91200D01*
X63466Y92140D02*
X63826Y92500D01*
X62689Y92140D02*
X63466D01*
X63498Y91628D02*
X63826Y91300D01*
X62689Y91628D02*
X63498D01*
X58200Y90600D02*
Y91500D01*
X58300Y91600D02*
Y92100D01*
X59460Y92140D02*
X60111D01*
X57400Y91700D02*
X58226D01*
X59316Y91116D02*
X60684D01*
X61026Y89500D02*
Y90774D01*
X60684Y91116D02*
X61026Y90774D01*
X58900Y90574D02*
Y90700D01*
X59316Y91116D01*
X59046Y91628D02*
X60111D01*
X58974Y91700D02*
X59046Y91628D01*
X59200Y92400D02*
X59460Y92140D01*
X58600Y92400D02*
X59200D01*
X58300Y92100D02*
X58600Y92400D01*
X65651Y63675D02*
Y64800D01*
Y63675D02*
X65726Y63600D01*
X60651Y63200D02*
Y63749D01*
X64749Y60800D02*
Y60951D01*
X65757Y60943D02*
X65851Y60849D01*
X62500Y60900D02*
X62600D01*
X64193Y64444D02*
X64549Y64800D01*
X64193Y63368D02*
Y64444D01*
X64549Y64800D02*
Y66023D01*
X66700Y63374D02*
X68326D01*
X68900Y62151D02*
Y62800D01*
X65474Y66200D02*
X65900D01*
X66400Y65700D01*
Y63674D02*
Y65700D01*
Y63674D02*
X66700Y63374D01*
X68326D02*
X68900Y62800D01*
X67700Y62000D02*
Y62626D01*
X66926Y60800D02*
Y61374D01*
X65851Y60800D02*
X66926D01*
X67251Y59400D02*
X67800D01*
X67674Y60274D02*
Y61426D01*
X66474Y62200D02*
X66900D01*
X67674Y61426D01*
X65851Y60800D02*
Y60849D01*
X65074Y59400D02*
X66149D01*
X66100D02*
Y59600D01*
X66600Y60100D01*
X67500D01*
X67674Y60274D01*
X63274Y59400D02*
X64400D01*
X63651Y59777D02*
Y60800D01*
X63274Y59400D02*
X63651Y59777D01*
X58600Y60500D02*
Y62000D01*
X57674D02*
X58726D01*
X58926Y64000D02*
Y64600D01*
X58726Y63800D02*
X58926Y64000D01*
X58726Y62000D02*
Y63800D01*
X59800Y64600D02*
X60651Y63749D01*
X61500Y59800D02*
X62500Y60800D01*
X61474Y59800D02*
X61500D01*
X60700Y59826D02*
Y61100D01*
X59500Y59200D02*
X60126D01*
X60726Y59800D01*
X62300Y59400D02*
X62526D01*
X61900Y59000D02*
X62300Y59400D01*
X58965Y75817D02*
X59074Y75925D01*
X57500Y74500D02*
Y75049D01*
X63951Y74000D02*
X64000Y74049D01*
X63851D02*
X64500D01*
X63251Y74000D02*
X63951D01*
X68651Y77349D02*
Y78049D01*
X67900Y78800D02*
X68651Y78049D01*
X67474Y78800D02*
X67900D01*
X71000Y76100D02*
X71100D01*
X59074Y75925D02*
Y77200D01*
X57374D02*
X58326D01*
X66726Y77852D02*
Y78800D01*
X66251Y77377D02*
X66726Y77852D01*
X65549Y77351D02*
X65600Y77300D01*
X64300Y77351D02*
X65549D01*
X66100Y76000D02*
X66400D01*
X66326D02*
Y77374D01*
X65251Y75151D02*
X66100Y76000D01*
X64500Y75151D02*
X65251D01*
X70774Y75100D02*
X71100Y75426D01*
X70700Y75100D02*
X70774D01*
X68874Y74400D02*
X69926D01*
Y73075D02*
Y74400D01*
X31650Y62050D02*
X32176D01*
X31400Y61800D02*
X31650Y62050D01*
X26950Y61800D02*
X31400D01*
X26750Y62000D02*
X26950Y61800D01*
X31455Y63550D02*
X32176D01*
X30505Y64500D02*
X31455Y63550D01*
X26200Y64500D02*
X30505D01*
X25300Y63600D02*
X26200Y64500D01*
X31550Y76050D02*
X32076D01*
X31300Y75800D02*
X31550Y76050D01*
X28050Y75800D02*
X31300D01*
X26650Y77200D02*
X28050Y75800D01*
X31355Y77550D02*
X32076D01*
X30405Y78500D02*
X31355Y77550D01*
X25350Y78500D02*
X30405D01*
X25150Y78700D02*
X25350Y78500D01*
X39265Y90100D02*
Y91500D01*
X34100Y90900D02*
X34224D01*
X49950Y91050D02*
X50800D01*
X48700Y93000D02*
X49500Y92200D01*
X47335Y89365D02*
Y90900D01*
X49950Y90600D02*
X50400Y91050D01*
X47435Y93000D02*
X48700D01*
X49500Y91500D02*
Y92200D01*
Y91500D02*
X49950Y91050D01*
Y89850D02*
Y90600D01*
X49000Y88900D02*
X49950Y89850D01*
X47800Y88900D02*
X49000D01*
X47335Y89365D02*
X47800Y88900D01*
X47335Y91900D02*
Y93065D01*
X48500Y91500D02*
X48589D01*
X41935Y91100D02*
X42000D01*
X43000Y92140D02*
X43107D01*
X41840D02*
X41935D01*
X51250Y91550D02*
X51500Y91800D01*
X50961Y91550D02*
X51250D01*
X48750Y90550D02*
X49100Y90200D01*
X48639Y90550D02*
X48750D01*
X48050Y91050D02*
X48639D01*
X47300Y93100D02*
X47335Y93065D01*
X48589Y91500D02*
X48639Y91550D01*
X39265Y92765D02*
X39600Y93100D01*
X39935Y90100D02*
X41265D01*
X39935Y91100D02*
X41265D01*
X39935Y92100D02*
X41265D01*
X41840Y92140D02*
X41880Y92100D01*
X35751Y64600D02*
X36400D01*
X35551Y60751D02*
Y61200D01*
X31550Y63050D02*
X32176D01*
X31426Y63174D02*
X31550Y63050D01*
X31000Y63174D02*
X31426D01*
X31550Y62550D02*
X32176D01*
X31426Y62426D02*
X31550Y62550D01*
X31000Y62426D02*
X31426D01*
X34649Y64249D02*
Y64600D01*
X34224Y63824D02*
X34649Y64249D01*
X34224Y63550D02*
Y63824D01*
X33550Y62550D02*
X34224D01*
Y61876D02*
Y62050D01*
Y61876D02*
X34449Y61651D01*
Y61200D02*
Y61651D01*
X35651Y78600D02*
X36300D01*
X35451Y74751D02*
Y75200D01*
X31450Y77050D02*
X32076D01*
X31326Y77174D02*
X31450Y77050D01*
X30900Y77174D02*
X31326D01*
X31450Y76550D02*
X32076D01*
X31326Y76426D02*
X31450Y76550D01*
X30900Y76426D02*
X31326D01*
X34549Y78249D02*
Y78600D01*
X34124Y77824D02*
X34549Y78249D01*
X34124Y77550D02*
Y77824D01*
X33450Y76550D02*
X34124D01*
Y75876D02*
Y76050D01*
Y75876D02*
X34349Y75651D01*
Y75200D02*
Y75651D01*
X31650Y89950D02*
X32176D01*
X26750Y90900D02*
X27950Y89700D01*
X31400D01*
X31650Y89950D01*
X31455Y91450D02*
X32176D01*
X25300Y92400D02*
X30505D01*
X31455Y91450D01*
X31550Y90450D02*
X32176D01*
X31426Y90326D02*
X31550Y90450D01*
X31000Y90326D02*
X31426D01*
X31550Y90950D02*
X32176D01*
X31000Y91074D02*
X31426D01*
X31550Y90950D01*
X35751Y92500D02*
X36400D01*
X34224Y91724D02*
X34649Y92149D01*
Y92500D01*
X34224Y91450D02*
Y91724D01*
X33550Y90450D02*
X34224D01*
X35551Y88651D02*
Y89100D01*
X34224Y89776D02*
X34449Y89551D01*
X34224Y89776D02*
Y89950D01*
X34449Y89100D02*
Y89551D01*
D33*
X49850Y61250D02*
Y62050D01*
X36000Y63050D02*
X37150D01*
X37100Y62800D02*
Y63050D01*
X36900Y62600D02*
X37100Y62800D01*
X40800Y57800D02*
Y59400D01*
X40000Y71400D02*
Y74113D01*
X37063Y77050D02*
X40000Y74113D01*
X54200Y37200D02*
X58626D01*
X59226Y37800D01*
X54400Y63900D02*
X55026D01*
X56926Y62000D01*
X30449Y35949D02*
Y36500D01*
X30900Y35100D02*
X31449D01*
X41800Y36400D02*
Y36949D01*
X37760Y33500D02*
X38600D01*
X37760Y32340D02*
Y33500D01*
X34400D02*
X35240D01*
X36260Y40360D02*
Y42360D01*
X33740Y41300D02*
Y42460D01*
Y41300D02*
X34500D01*
X41849Y45149D02*
Y45700D01*
X45260Y51900D02*
X46000D01*
X41900D02*
X42740D01*
Y50840D02*
Y51900D01*
X38060D02*
Y52940D01*
X37300Y51900D02*
X39000D01*
X34800D02*
X35540D01*
X36660Y44900D02*
X37500D01*
X34140D02*
Y45940D01*
X33300Y44900D02*
X34140D01*
X46200Y49960D02*
X47340D01*
X46200D02*
Y50700D01*
X45140Y47440D02*
X47260D01*
X34807Y50807D02*
X35500Y51500D01*
X34807Y50493D02*
Y50807D01*
X69650Y36550D02*
X70048D01*
X68800Y35700D02*
X69650Y36550D01*
X37150Y63050D02*
X40800Y59400D01*
X68900Y60500D02*
Y61049D01*
X68749Y72449D02*
Y73000D01*
X66000Y89600D02*
X66850Y90450D01*
X67248D01*
X61461Y96150D02*
X62150D01*
X63100Y95200D01*
X73500Y36726D02*
X74326D01*
X72800Y41700D02*
Y44200D01*
X74326Y36726D02*
X74700Y37100D01*
Y39800D01*
X72800Y41700D02*
X74700Y39800D01*
X51300Y46800D02*
X53800D01*
X44200Y48874D02*
X49226D01*
X51300Y46800D01*
X56800Y54800D02*
Y62000D01*
X54500Y91700D02*
X56426D01*
X40000Y85000D02*
Y87800D01*
X37600Y90200D02*
Y91000D01*
Y90200D02*
X40000Y87800D01*
X57549Y60049D02*
Y60600D01*
X58000Y59200D02*
X58549D01*
X63960Y57600D02*
X64800D01*
X63960Y56440D02*
Y57600D01*
X60600D02*
X61440D01*
X60840Y65400D02*
Y66560D01*
Y65400D02*
X61600D01*
X63360Y64460D02*
Y66460D01*
X72160Y79200D02*
X72900D01*
X68800D02*
X69640D01*
Y78140D02*
Y79200D01*
X64200D02*
X65900D01*
X64960D02*
Y80240D01*
X61700Y79200D02*
X62440D01*
X63560Y72200D02*
X64400D01*
X61040D02*
Y73240D01*
X60200Y72200D02*
X61040D01*
X73100Y77260D02*
Y78000D01*
Y77260D02*
X74240D01*
X72040Y74740D02*
X74160D01*
X61707Y78107D02*
X62400Y78800D01*
X61707Y77793D02*
Y78107D01*
D34*
X36950Y77050D02*
X37063D01*
X55400Y78400D02*
X56526Y77274D01*
X54200Y78400D02*
X55400D01*
X56526Y77200D02*
Y77274D01*
X56100Y76774D02*
X56526Y77200D01*
X56100Y68800D02*
Y76774D01*
X52300Y78400D02*
X52600D01*
X52800Y78100D02*
Y78200D01*
X55226Y63700D02*
X56926Y62000D01*
X52800Y63600D02*
Y63700D01*
X52300Y63900D02*
X52600D01*
X33551Y39100D02*
X33719Y39268D01*
X32500Y38700D02*
Y39200D01*
X32574Y40500D02*
X32700D01*
X32374Y37900D02*
Y37974D01*
X31551Y36500D02*
Y37825D01*
X33551Y37723D02*
X33600Y37674D01*
X33551Y37723D02*
Y39100D01*
X33626Y35700D02*
Y35726D01*
X38412Y38100D02*
X38626D01*
X33719Y39268D02*
X34907D01*
X34512Y39012D02*
X34907D01*
X33900Y38400D02*
X34512Y39012D01*
X32500Y38700D02*
X32800Y38400D01*
X32374Y37974D02*
X32800Y38400D01*
X34500Y38500D02*
X34907D01*
X34300Y38300D02*
X34500Y38500D01*
X34907Y38756D02*
X35344D01*
X35600Y38500D01*
X35344Y38244D02*
X35600Y38500D01*
X34907Y38244D02*
X35344D01*
X34388Y37988D02*
X34907D01*
X34800Y36800D02*
X35400D01*
X34300Y37900D02*
X34388Y37988D01*
X34300Y37300D02*
X34800Y36800D01*
X34300Y37300D02*
Y37900D01*
X34907Y37732D02*
X35568D01*
X36500Y36800D01*
X38200Y39500D02*
X38626D01*
X37712Y39012D02*
X38200Y39500D01*
X37093Y39012D02*
X37712D01*
X37093Y38756D02*
X38144D01*
X38200Y38700D01*
X37093Y38500D02*
X37600D01*
X36444Y38244D02*
X37093D01*
X38300Y37988D02*
X38412Y38100D01*
X37100Y37400D02*
X37649Y36851D01*
X36588Y37988D02*
X38300D01*
X36500Y37900D02*
X36588Y37988D01*
X36500Y37600D02*
X36700Y37400D01*
X37100D01*
X36500Y37600D02*
Y37900D01*
X37768Y37732D02*
X38657Y36843D01*
X37093Y37732D02*
X37768D01*
X33000Y48400D02*
X33100D01*
X33000D02*
X33026Y48374D01*
X37023Y48949D02*
X37400D01*
X41393Y49742D02*
X41751Y50100D01*
X44500D02*
X44600Y50200D01*
X35249Y46700D02*
X35426Y46877D01*
X33600Y48400D02*
Y48500D01*
X35977Y50051D02*
X37400D01*
X35823Y49897D02*
X35977Y50051D01*
X30600Y48851D02*
Y49674D01*
X30374Y49900D02*
X30600Y49674D01*
X29600Y49926D02*
Y50500D01*
X29200Y49474D02*
X29626Y49900D01*
X32174D02*
X32177Y49897D01*
X34200Y47326D02*
X34674D01*
X35200Y46800D01*
X33326Y48074D02*
X34200D01*
X33100Y48300D02*
X33326Y48074D01*
X36000Y49000D02*
Y49326D01*
X35426Y48426D02*
X36000Y49000D01*
X35426Y46877D02*
Y48426D01*
X40187Y48713D02*
X40203Y48697D01*
X40174Y48726D02*
X40187Y48713D01*
X40100Y48800D02*
X40174Y48726D01*
X40174Y48700D02*
Y48725D01*
X41226Y47100D02*
Y47426D01*
X43600Y47600D02*
X43800Y47800D01*
X43300Y47600D02*
X43600D01*
X43026Y47326D02*
X43300Y47600D01*
X43026Y47100D02*
Y47326D01*
X34000Y49600D02*
Y50000D01*
X33906Y50094D02*
X34000Y50000D01*
X33784Y49384D02*
X34000Y49600D01*
X33193Y50094D02*
X33906D01*
X33784Y49084D02*
Y49384D01*
X33100Y48400D02*
X33784Y49084D01*
X32177Y49897D02*
X33193D01*
X33193Y49700D02*
X33700D01*
X32803Y49503D02*
X33193D01*
X32600Y49300D02*
X32803Y49503D01*
X33193Y49193D02*
Y49306D01*
X33000Y49000D02*
X33193Y49193D01*
X32600Y49000D02*
X33000D01*
X32400Y48800D02*
X32600Y49000D01*
X32400Y47100D02*
Y48800D01*
Y47100D02*
X32800Y46700D01*
X34807Y50094D02*
Y50493D01*
X34807Y49897D02*
X35823D01*
X36174Y48100D02*
X37023Y48949D01*
X35200Y49700D02*
X35400Y49500D01*
X34807Y49700D02*
X35200D01*
X35400Y49000D02*
Y49500D01*
X34397Y49503D02*
X34807D01*
X34300Y49400D02*
X34403Y49503D01*
X34300Y49100D02*
Y49400D01*
Y49100D02*
X34400Y49000D01*
X34807Y48907D02*
Y49306D01*
X34600Y48700D02*
X34807Y48907D01*
X34300Y48700D02*
X34600D01*
X41393Y48894D02*
X41906D01*
X42000Y48800D01*
Y47900D02*
Y48800D01*
X41800Y47700D02*
X42000Y47900D01*
X41500Y47700D02*
X41800D01*
X41393Y48894D02*
Y49742D01*
X41226Y47426D02*
X41500Y47700D01*
X41003Y48697D02*
X41393D01*
X40649Y49051D02*
Y50100D01*
Y49051D02*
X41003Y48697D01*
X40174Y48725D02*
X40649Y49200D01*
X40700Y48600D02*
X40800Y48500D01*
X41300D01*
X41000Y48300D02*
X41500D01*
X40700Y48000D02*
X41000Y48300D01*
X41393Y47993D02*
Y48106D01*
X41037Y47637D02*
X41393Y47993D01*
X40537Y47637D02*
X41037D01*
X40000Y47100D02*
X40537Y47637D01*
X43000Y49200D02*
X43007Y49193D01*
Y48894D02*
Y49193D01*
X43396Y48697D02*
X43800Y49100D01*
X43007Y48697D02*
X43396D01*
X44500Y49500D02*
Y50100D01*
X43774Y47100D02*
X44200D01*
X43007Y48500D02*
X43700D01*
X43400Y48300D02*
X43500Y48200D01*
X43600Y46400D02*
X46300D01*
X43500Y47900D02*
Y48200D01*
X43400Y47800D02*
X43500Y47900D01*
X46300Y46400D02*
X46600Y46100D01*
Y45700D02*
Y46100D01*
X43010Y48300D02*
X43400D01*
X43000Y47800D02*
X43400D01*
X42899Y47699D02*
X43000Y47800D01*
X42706Y48106D02*
X43007D01*
X42300Y47700D02*
X42706Y48106D01*
X42000Y46400D02*
X42100Y46500D01*
X41200Y46400D02*
X42000D01*
X40500Y45700D02*
X41200Y46400D01*
X40000Y45700D02*
X40500D01*
X52149Y64549D02*
Y64700D01*
X53251Y64449D02*
Y64700D01*
Y62300D02*
X53900D01*
X48300Y59300D02*
Y59400D01*
X46549Y64084D02*
X46565Y64100D01*
X46400Y65100D02*
X46565D01*
X41835Y64300D02*
X41874Y64340D01*
X51300Y59300D02*
X52100Y58500D01*
Y58174D02*
Y58500D01*
X50300Y59300D02*
X50600Y59000D01*
Y58200D02*
Y59000D01*
X49300Y58174D02*
Y59300D01*
X47900Y58900D02*
X48300Y59300D01*
X47900Y58174D02*
Y58900D01*
X46500Y58500D02*
X47300Y59300D01*
X46500Y58174D02*
Y58500D01*
X51400Y57400D02*
Y57426D01*
X46500D02*
X52100D01*
X46500Y59300D02*
X47300D01*
X45300Y62800D02*
X45600Y62500D01*
Y60200D02*
X46500Y59300D01*
X45600Y60200D02*
Y62500D01*
X47900Y59800D02*
X48300Y59400D01*
X45540Y63060D02*
X46000Y62600D01*
X45193Y63060D02*
X45540D01*
X46000Y60600D02*
X46800Y59800D01*
X47900D01*
X46000Y60600D02*
Y62600D01*
X45605Y63316D02*
X46565Y62356D01*
Y62100D02*
Y62356D01*
X45193Y63316D02*
X45605D01*
X46161Y63100D02*
X46565D01*
X45689Y63572D02*
X46161Y63100D01*
X45193Y63572D02*
X45689D01*
X45193Y64084D02*
X46549D01*
X45640Y64340D02*
X46400Y65100D01*
X45193Y64340D02*
X45640D01*
X44904Y64596D02*
X45193D01*
X44600Y64900D02*
X44904Y64596D01*
X43004Y62804D02*
X43007D01*
X42700Y62500D02*
X43004Y62804D01*
X43440Y63060D02*
X43700Y62800D01*
X43007Y63060D02*
X43440D01*
X43416Y63316D02*
X43700Y63600D01*
X43007Y63316D02*
X43416D01*
X42572Y63572D02*
X43007D01*
X42400Y62865D02*
Y63400D01*
X42572Y63572D01*
X41835Y62300D02*
X42400Y62865D01*
X42428Y63828D02*
X43007D01*
X41900Y63300D02*
X42428Y63828D01*
X41874Y64340D02*
X42900D01*
X42539Y64596D02*
X43007D01*
X41835Y65300D02*
X42539Y64596D01*
X53668Y63132D02*
X54400Y62400D01*
X53331Y63132D02*
X53668D01*
X54400Y60000D02*
Y62400D01*
X53700Y59300D02*
X54400Y60000D01*
X51300Y59300D02*
X53700D01*
X53912Y63388D02*
X54800Y62500D01*
X53331Y63388D02*
X53912D01*
X54800Y59800D02*
Y62500D01*
X53800Y58800D02*
X54800Y59800D01*
X54456Y63644D02*
X55000Y63100D01*
X53331Y63644D02*
X54456D01*
X55000Y59300D02*
Y63100D01*
X53900Y58200D02*
X55000Y59300D01*
X53331Y64032D02*
X53500Y64200D01*
X53331Y63900D02*
Y64032D01*
X53251Y64449D02*
X53500Y64200D01*
X52300Y62900D02*
Y63132D01*
X52149Y62749D02*
X52300Y62900D01*
X52149Y62300D02*
Y62749D01*
X51800Y64200D02*
X52149Y64549D01*
X51856Y63644D02*
X52300D01*
X51800Y63700D02*
Y64200D01*
Y63700D02*
X51856Y63644D01*
X52600Y63900D02*
X52800Y63700D01*
X51388Y63388D02*
X52300D01*
X51250Y63250D02*
X51388Y63388D01*
X50700Y63250D02*
X51250D01*
X45900Y63700D02*
X48400D01*
X45772Y63828D02*
X45900Y63700D01*
X43007Y64084D02*
X43916D01*
X44172Y63828D02*
X45772D01*
X43916Y64084D02*
X44172Y63828D01*
X52149Y79049D02*
Y79200D01*
X53251Y78949D02*
Y79200D01*
Y76800D02*
X53900D01*
X48300Y73800D02*
Y73900D01*
X46549Y78584D02*
X46565Y78600D01*
X46400Y79600D02*
X46565D01*
X41835Y78800D02*
X41874Y78840D01*
X51300Y73800D02*
X52100Y73000D01*
Y72674D02*
Y73000D01*
X50300Y73800D02*
X50600Y73500D01*
Y72700D02*
Y73500D01*
X49300Y72674D02*
Y73800D01*
X47900Y73400D02*
X48300Y73800D01*
X47900Y72674D02*
Y73400D01*
X46500Y73000D02*
X47300Y73800D01*
X46500Y72674D02*
Y73000D01*
X51400Y71900D02*
Y71926D01*
X46500D02*
X52100D01*
X46500Y73800D02*
X47300D01*
X45300Y77300D02*
X45600Y77000D01*
Y74700D02*
X46500Y73800D01*
X45600Y74700D02*
Y77000D01*
X47900Y74300D02*
X48300Y73900D01*
X45540Y77560D02*
X46000Y77100D01*
X45193Y77560D02*
X45540D01*
X46000Y75100D02*
X46800Y74300D01*
X47900D01*
X46000Y75100D02*
Y77100D01*
X45605Y77816D02*
X46565Y76856D01*
Y76600D02*
Y76856D01*
X45193Y77816D02*
X45605D01*
X46161Y77600D02*
X46565D01*
X45689Y78072D02*
X46161Y77600D01*
X45193Y78072D02*
X45689D01*
X45193Y78584D02*
X46549D01*
X45640Y78840D02*
X46400Y79600D01*
X45193Y78840D02*
X45640D01*
X44904Y79096D02*
X45193D01*
X44600Y79400D02*
X44904Y79096D01*
X43004Y77304D02*
X43007D01*
X42700Y77000D02*
X43004Y77304D01*
X43440Y77560D02*
X43700Y77300D01*
X43007Y77560D02*
X43440D01*
X43416Y77816D02*
X43700Y78100D01*
X43007Y77816D02*
X43416D01*
X42572Y78072D02*
X43007D01*
X42400Y77365D02*
Y77900D01*
X42572Y78072D01*
X41835Y76800D02*
X42400Y77365D01*
X42428Y78328D02*
X43007D01*
X41900Y77800D02*
X42428Y78328D01*
X41874Y78840D02*
X42900D01*
X42539Y79096D02*
X43007D01*
X41835Y79800D02*
X42539Y79096D01*
X53668Y77632D02*
X54400Y76900D01*
X53331Y77632D02*
X53668D01*
X54400Y74500D02*
Y76900D01*
X53700Y73800D02*
X54400Y74500D01*
X51300Y73800D02*
X53700D01*
X53912Y77888D02*
X54800Y77000D01*
X53331Y77888D02*
X53912D01*
X54800Y74300D02*
Y77000D01*
X53800Y73300D02*
X54800Y74300D01*
X54456Y78144D02*
X55000Y77600D01*
X53331Y78144D02*
X54456D01*
X55000Y73800D02*
Y77600D01*
X53900Y72700D02*
X55000Y73800D01*
X53331Y78531D02*
X53500Y78700D01*
X53331Y78400D02*
Y78531D01*
X53251Y78949D02*
X53500Y78700D01*
X52300Y77400D02*
Y77632D01*
X52149Y77249D02*
X52300Y77400D01*
X52149Y76800D02*
Y77249D01*
X51800Y78700D02*
X52149Y79049D01*
X51856Y78144D02*
X52300D01*
X51800Y78200D02*
Y78700D01*
Y78200D02*
X51856Y78144D01*
X52600Y78400D02*
X52800Y78200D01*
X51388Y77888D02*
X52300D01*
X51250Y77750D02*
X51388Y77888D01*
X50700Y77750D02*
X51250D01*
X45900Y78200D02*
X48400D01*
X45772Y78328D02*
X45900Y78200D01*
X43007Y78584D02*
X43916D01*
X44172Y78328D02*
X45772D01*
X43916Y78584D02*
X44172Y78328D01*
X59703Y76803D02*
X60093D01*
X59500Y76600D02*
X59703Y76803D01*
X57274Y77200D02*
X57500Y76974D01*
Y76151D02*
Y76974D01*
X51900Y92000D02*
X52249Y92349D01*
X51956Y91444D02*
X52400D01*
X51900Y91500D02*
Y92000D01*
Y91500D02*
X51956Y91444D01*
X70296Y75997D02*
X70700Y76400D01*
X69907Y75997D02*
X70296D01*
X73600Y85400D02*
Y88000D01*
X70900Y90700D02*
X73600Y88000D01*
X55700Y90700D02*
Y91700D01*
X57800Y84000D02*
Y88600D01*
X52400Y91700D02*
X52700D01*
X52900Y91400D02*
Y91500D01*
X55700Y90700D02*
X57800Y88600D01*
X52700Y91700D02*
X52900Y91500D01*
X65244Y62856D02*
X65300Y62800D01*
X64193Y62856D02*
X65244D01*
X65300Y63600D02*
X65726D01*
X64812Y63112D02*
X65300Y63600D01*
X64193Y63112D02*
X64812D01*
X64193Y62600D02*
X64700D01*
X62668Y61832D02*
X63600Y60900D01*
X62007Y61832D02*
X62668D01*
X60819Y63368D02*
X62007D01*
X60651Y63200D02*
X60819Y63368D01*
X60651Y61823D02*
Y63200D01*
X63688Y62088D02*
X65400D01*
X65512Y62200D02*
X65726D01*
X65400Y62088D02*
X65512Y62200D01*
X64200Y61500D02*
X64749Y60951D01*
X63800Y61500D02*
X64200D01*
X63600Y61700D02*
X63800Y61500D01*
X63600Y61700D02*
Y62000D01*
X63688Y62088D01*
X64868Y61832D02*
X65757Y60943D01*
X64193Y61832D02*
X64868D01*
X61900Y60900D02*
X62500D01*
X61488Y62088D02*
X62007D01*
X61400Y61400D02*
X61900Y60900D01*
X61400Y61400D02*
Y62000D01*
X61488Y62088D01*
X63544Y62344D02*
X64193D01*
X62444Y62856D02*
X62700Y62600D01*
X62007Y62856D02*
X62444D01*
Y62344D02*
X62700Y62600D01*
X62007Y62344D02*
X62444D01*
X61600Y62600D02*
X62007D01*
X61400Y62400D02*
X61600Y62600D01*
X59674Y64600D02*
X59800D01*
X60726Y59800D02*
Y59826D01*
X58651Y60600D02*
Y61925D01*
X60651Y61823D02*
X60700Y61774D01*
X59600Y62800D02*
Y63300D01*
X61612Y63112D02*
X62007D01*
X61000Y62500D02*
X61612Y63112D01*
X59600Y62800D02*
X59900Y62500D01*
X59474Y62074D02*
X59900Y62500D01*
X59474Y62000D02*
Y62074D01*
X59900Y75700D02*
X60000D01*
X59900D02*
X59926Y75674D01*
X63923Y76249D02*
X64300D01*
X68293Y77042D02*
X68651Y77400D01*
X71400D02*
X71500Y77500D01*
X62149Y74000D02*
X62326Y74177D01*
X60500Y75700D02*
Y75800D01*
X62877Y77351D02*
X64300D01*
X62723Y77197D02*
X62877Y77351D01*
X59074Y77200D02*
X59077Y77197D01*
X60226Y75374D02*
X61100D01*
X60000Y75600D02*
X60226Y75374D01*
X61100Y74626D02*
X61574D01*
X62100Y74100D01*
X62900Y76300D02*
Y76626D01*
X62326Y75726D02*
X62900Y76300D01*
X62326Y74177D02*
Y75726D01*
X67087Y76013D02*
X67103Y75997D01*
X67000Y76100D02*
X67074Y76026D01*
X67074Y76000D02*
Y76025D01*
X67074Y76026D02*
X67087Y76013D01*
X68126Y74400D02*
Y74726D01*
X70500Y74900D02*
X70700Y75100D01*
X70200Y74900D02*
X70500D01*
X69926Y74626D02*
X70200Y74900D01*
X69926Y74400D02*
Y74626D01*
X60900Y76900D02*
Y77300D01*
X60806Y77394D02*
X60900Y77300D01*
X60684Y76684D02*
X60900Y76900D01*
X60093Y77394D02*
X60806D01*
X60684Y76384D02*
Y76684D01*
X60000Y75700D02*
X60684Y76384D01*
X59077Y77197D02*
X60093D01*
X60093Y77000D02*
X60600D01*
X60093Y76493D02*
Y76606D01*
X59900Y76300D02*
X60093Y76493D01*
X59500Y76300D02*
X59900D01*
X59300Y76100D02*
X59500Y76300D01*
X59300Y74400D02*
Y76100D01*
Y74400D02*
X59700Y74000D01*
X61707Y77394D02*
Y77793D01*
X61707Y77197D02*
X62723D01*
X63074Y75400D02*
X63923Y76249D01*
X62100Y77000D02*
X62300Y76800D01*
X61707Y77000D02*
X62100D01*
X62300Y76300D02*
Y76800D01*
X61297Y76803D02*
X61707D01*
X61200Y76700D02*
X61303Y76803D01*
X61200Y76400D02*
Y76700D01*
Y76400D02*
X61300Y76300D01*
X61707Y76207D02*
Y76606D01*
X61500Y76000D02*
X61707Y76207D01*
X61200Y76000D02*
X61500D01*
X68293Y76194D02*
X68806D01*
X68900Y76100D01*
Y75200D02*
Y76100D01*
X68700Y75000D02*
X68900Y75200D01*
X68400Y75000D02*
X68700D01*
X68293Y76194D02*
Y77042D01*
X68126Y74726D02*
X68400Y75000D01*
X67903Y75997D02*
X68293D01*
X67549Y76351D02*
Y77400D01*
Y76351D02*
X67903Y75997D01*
X67074Y76025D02*
X67549Y76500D01*
X67600Y75900D02*
X67700Y75800D01*
X68200D01*
X67900Y75600D02*
X68400D01*
X67600Y75300D02*
X67900Y75600D01*
X68293Y75293D02*
Y75406D01*
X67937Y74937D02*
X68293Y75293D01*
X67437Y74937D02*
X67937D01*
X66900Y74400D02*
X67437Y74937D01*
X69900Y76500D02*
X69907Y76493D01*
Y76194D02*
Y76493D01*
X71400Y76800D02*
Y77400D01*
X70674Y74400D02*
X71100D01*
X69907Y75800D02*
X70600D01*
X70300Y75600D02*
X70400Y75500D01*
X70500Y73700D02*
X73200D01*
X70400Y75200D02*
Y75500D01*
X70300Y75100D02*
X70400Y75200D01*
X73200Y73700D02*
X73500Y73400D01*
Y73000D02*
Y73400D01*
X69910Y75600D02*
X70300D01*
X69900Y75100D02*
X70300D01*
X69799Y74999D02*
X69900Y75100D01*
X69606Y75406D02*
X69907D01*
X69200Y75000D02*
X69606Y75406D01*
X68900Y73700D02*
X69000Y73800D01*
X68100Y73700D02*
X68900D01*
X67400Y73000D02*
X68100Y73700D01*
X66900Y73000D02*
X67400D01*
X25000Y49900D02*
X29626D01*
X53432Y91444D02*
X54556D01*
X54000Y86000D02*
X55100Y87100D01*
X54556Y91444D02*
X55100Y90900D01*
Y87100D02*
Y90900D01*
X53432Y91188D02*
X54012D01*
X53900Y86600D02*
X54900Y87600D01*
Y90300D01*
X54012Y91188D02*
X54900Y90300D01*
X49400Y85974D02*
Y87100D01*
X50700Y86000D02*
Y86800D01*
X50400Y87100D02*
X50700Y86800D01*
X52200Y85974D02*
Y86300D01*
X53432Y90932D02*
X53768D01*
X51400Y87100D02*
X53800D01*
X51400D02*
X52200Y86300D01*
X53768Y90932D02*
X54500Y90200D01*
Y87800D02*
Y90200D01*
X53800Y87100D02*
X54500Y87800D01*
X46600Y87100D02*
X47400D01*
X46600Y86300D02*
X47400Y87100D01*
X46600Y85974D02*
Y86300D01*
X45400Y90600D02*
X45700Y90300D01*
Y88000D02*
Y90300D01*
Y88000D02*
X46600Y87100D01*
X48400D02*
Y87200D01*
X48000Y86700D02*
X48400Y87100D01*
X48000Y85974D02*
Y86700D01*
X46900Y87600D02*
X48000D01*
X45293Y90860D02*
X45640D01*
X48000Y87600D02*
X48400Y87200D01*
X46100Y88400D02*
X46900Y87600D01*
X46100Y88400D02*
Y90400D01*
X45640Y90860D02*
X46100Y90400D01*
X50800Y91050D02*
X51350D01*
X51488Y91188D02*
X52400D01*
X53351Y90100D02*
X54000D01*
X52400Y90700D02*
Y90932D01*
X52249Y90549D02*
X52400Y90700D01*
X52249Y90100D02*
Y90549D01*
X51350Y91050D02*
X51488Y91188D01*
X52249Y92349D02*
Y92500D01*
X53351Y92249D02*
X53600Y92000D01*
X53351Y92249D02*
Y92500D01*
X53432Y91832D02*
X53600Y92000D01*
X53432Y91700D02*
Y91832D01*
X46600Y85226D02*
X52200D01*
X51500Y85200D02*
Y85226D01*
X45004Y92396D02*
X45293D01*
X44700Y92700D02*
X45004Y92396D01*
X43540Y90860D02*
X43800Y90600D01*
X43107Y90860D02*
X43540D01*
X43104Y90604D02*
X43107D01*
X42800Y90300D02*
X43104Y90604D01*
X44272Y91628D02*
X45872D01*
X46000Y91500D02*
X48500D01*
X43107Y91884D02*
X44016D01*
X45872Y91628D02*
X46000Y91500D01*
X46665Y89900D02*
Y90156D01*
X45293Y91116D02*
X45705D01*
X46665Y90156D01*
X46261Y90900D02*
X46665D01*
X45293Y91372D02*
X45789D01*
X46261Y90900D01*
X46500Y92900D02*
X46665D01*
X45293Y92140D02*
X45740D01*
X46500Y92900D01*
X46649Y91884D02*
X46665Y91900D01*
X45293Y91884D02*
X46649D01*
X44016D02*
X44272Y91628D01*
X43516Y91116D02*
X43800Y91400D01*
X43107Y91116D02*
X43516D01*
X42672Y91372D02*
X43107D01*
X41935Y90100D02*
X42500Y90665D01*
Y91200D01*
X42672Y91372D01*
X42528Y91628D02*
X43107D01*
X42000Y91100D02*
X42528Y91628D01*
X41974Y92140D02*
X43000D01*
X41935Y92100D02*
X41974Y92140D01*
X42639Y92396D02*
X43107D01*
X41935Y93100D02*
X42639Y92396D01*
X79800Y39300D02*
Y38600D01*
X80200D01*
X80676Y39067D02*
Y38600D01*
Y38967D02*
X80610Y39033D01*
X80543Y39067D01*
X80443D01*
X80377Y39033D01*
X80310Y38967D01*
X80277Y38867D01*
Y38800D01*
X80310Y38700D01*
X80377Y38633D01*
X80443Y38600D01*
X80543D01*
X80610Y38633D01*
X80676Y38700D01*
X80896Y39067D02*
X81096Y38600D01*
X81296Y39067D02*
X81096Y38600D01*
X81030Y38467D01*
X80963Y38400D01*
X80896Y38367D01*
X80863D01*
X81413Y38867D02*
X81813D01*
Y38933D01*
X81780Y39000D01*
X81746Y39033D01*
X81680Y39067D01*
X81580D01*
X81513Y39033D01*
X81446Y38967D01*
X81413Y38867D01*
Y38800D01*
X81446Y38700D01*
X81513Y38633D01*
X81580Y38600D01*
X81680D01*
X81746Y38633D01*
X81813Y38700D01*
X81963Y39067D02*
Y38600D01*
Y38867D02*
X81996Y38967D01*
X82063Y39033D01*
X82129Y39067D01*
X82229D01*
X82843Y39167D02*
X82909Y39200D01*
X83009Y39300D01*
Y38600D01*
D35*
X45900Y43400D02*
X55700Y33600D01*
X45500Y43400D02*
X45900D01*
X49298Y40002D02*
X49902D01*
X40600Y40500D02*
X40700Y40600D01*
X37626Y42100D02*
Y42626D01*
X44200Y48874D02*
X46926D01*
X66000Y84000D02*
Y89700D01*
X73300Y80700D02*
X75500Y78500D01*
X64400Y95200D02*
X66100Y93500D01*
X63100Y95200D02*
X64400D01*
X66000Y84000D02*
X69300Y80700D01*
X73300D01*
X72500Y69300D02*
Y73000D01*
X71300Y68100D02*
X72500Y69300D01*
X70700Y59800D02*
Y62600D01*
X67700Y64600D02*
X67800Y64700D01*
X66800Y55900D02*
X70700Y59800D01*
X67800Y64700D02*
X68600D01*
X70700Y62600D01*
X74200Y60100D02*
Y62000D01*
X69800Y65700D02*
Y66800D01*
Y65700D02*
X70500D01*
X64726Y66200D02*
Y66726D01*
X70500Y65700D02*
X74200Y62000D01*
X63200Y55900D02*
X66800D01*
X61100Y53800D02*
X63200Y55900D01*
X61100Y44100D02*
Y53800D01*
X58600Y41600D02*
X61100Y44100D01*
X51500Y41600D02*
X58600D01*
X49902Y40002D02*
X51500Y41600D01*
X66500Y33600D02*
X69450Y36550D01*
X55700Y33600D02*
X66500D01*
X64200Y43300D02*
Y44619D01*
X64000Y50700D02*
Y52019D01*
Y54400D02*
X67710D01*
Y53410D02*
Y54400D01*
Y49800D02*
Y50990D01*
X67500Y48700D02*
Y49800D01*
X66819Y49600D02*
X67800D01*
X64200Y46981D02*
X66819Y49600D01*
X63900Y54500D02*
X64000Y54400D01*
X71107Y49493D02*
X73600D01*
X71144Y54454D02*
X73600D01*
X71090Y54400D02*
X71144Y54454D01*
X75000Y69200D02*
Y75000D01*
X74200Y68400D02*
X75000Y69200D01*
X71100Y76174D02*
X73826D01*
X75000Y75000D01*
X64726Y66726D02*
X65700Y67700D01*
X68900D01*
X69800Y66800D01*
X44100Y40800D02*
X46200D01*
X37626Y42726D02*
X38500Y43600D01*
X41300D01*
X44100Y40800D01*
D36*
X31426Y49900D02*
Y51300D01*
X32500Y50300D02*
X32706Y50094D01*
X32100Y51400D02*
X32500Y51000D01*
X32706Y50094D02*
X33193D01*
X32500Y50300D02*
Y51000D01*
X34200Y49560D02*
Y50700D01*
X33600Y51300D02*
X34200Y50700D01*
X34000Y49360D02*
X34200Y49560D01*
X34000Y49000D02*
X34300Y48700D01*
X34000Y49000D02*
Y49360D01*
X58326Y77200D02*
Y78600D01*
X59400Y77600D02*
X59606Y77394D01*
X59000Y78700D02*
X59400Y78300D01*
X59606Y77394D02*
X60093D01*
X59400Y77600D02*
Y78300D01*
X61100Y76860D02*
Y78000D01*
X60500Y78600D02*
X61100Y78000D01*
X60900Y76660D02*
X61100Y76860D01*
X60900Y76300D02*
X61200Y76000D01*
X60900Y76300D02*
Y76660D01*
D37*
X37400Y91600D02*
X39265D01*
X37600Y91000D02*
Y91600D01*
X34224Y90950D02*
X36750D01*
X37400Y91600D01*
D38*
X25200Y37800D02*
X29726D01*
D39*
X49800Y61400D02*
D03*
X36800Y62600D02*
D03*
X50000Y76000D02*
D03*
X37000Y76400D02*
D03*
X37600Y91000D02*
D03*
X49900Y89500D02*
D03*
D40*
X23200Y97520D02*
D03*
Y32720D02*
D03*
X75520Y34600D02*
D03*
X76400Y97840D02*
D03*
D41*
X25000Y49900D02*
D03*
X27500Y47400D02*
D03*
X22500D02*
D03*
Y52400D02*
D03*
X27500D02*
D03*
X42500Y73900D02*
D03*
X37500D02*
D03*
Y68900D02*
D03*
X42500D02*
D03*
X40000Y71400D02*
D03*
X74200Y68400D02*
D03*
X76700Y65900D02*
D03*
X71700D02*
D03*
Y70900D02*
D03*
X76700D02*
D03*
X56200Y68800D02*
D03*
X58700Y66300D02*
D03*
X53700D02*
D03*
Y71300D02*
D03*
X58700D02*
D03*
X74200Y60000D02*
D03*
X76700Y57500D02*
D03*
X71700D02*
D03*
Y62500D02*
D03*
X76700D02*
D03*
X56800Y54800D02*
D03*
X59300Y52300D02*
D03*
X54300D02*
D03*
Y57300D02*
D03*
X59300D02*
D03*
X40800Y57800D02*
D03*
X43300Y55300D02*
D03*
X38300D02*
D03*
Y60300D02*
D03*
X43300D02*
D03*
X73600Y85400D02*
D03*
X76100Y82900D02*
D03*
X71100D02*
D03*
Y87900D02*
D03*
X76100D02*
D03*
X57800Y84000D02*
D03*
X60300Y81500D02*
D03*
X55300D02*
D03*
Y86500D02*
D03*
X60300D02*
D03*
X40000Y85000D02*
D03*
X42500Y82500D02*
D03*
X37500D02*
D03*
Y87500D02*
D03*
X42500D02*
D03*
X53800Y46800D02*
D03*
X56300Y44300D02*
D03*
X51300D02*
D03*
Y49300D02*
D03*
X56300D02*
D03*
X25200Y37800D02*
D03*
X27700Y35300D02*
D03*
X22700D02*
D03*
Y40300D02*
D03*
X27700D02*
D03*
X46200Y40800D02*
D03*
X48700Y38300D02*
D03*
X43700D02*
D03*
Y43300D02*
D03*
X48700D02*
D03*
X54200Y37200D02*
D03*
X56700Y34700D02*
D03*
X51700D02*
D03*
Y39700D02*
D03*
X56700D02*
D03*
X72800Y44200D02*
D03*
X70300Y46700D02*
D03*
X75300D02*
D03*
Y41700D02*
D03*
X70300D02*
D03*
D42*
X51400Y88100D02*
D03*
X51300Y60300D02*
D03*
Y74800D02*
D03*
X65900Y73000D02*
D03*
Y74400D02*
D03*
X60500Y79600D02*
D03*
X58700Y74000D02*
D03*
X73500Y73000D02*
D03*
X67700Y64600D02*
D03*
X46600Y45700D02*
D03*
X40600Y40500D02*
D03*
X39000Y45700D02*
D03*
Y47100D02*
D03*
X33600Y52300D02*
D03*
X31800Y46700D02*
D03*
D43*
X51400Y87100D02*
D03*
X50400Y88100D02*
D03*
Y87100D02*
D03*
X49400Y88100D02*
D03*
Y87100D02*
D03*
X48400Y88100D02*
D03*
Y87100D02*
D03*
X47400Y88100D02*
D03*
Y87100D02*
D03*
X51300Y59300D02*
D03*
X50300Y60300D02*
D03*
Y59300D02*
D03*
X49300Y60300D02*
D03*
Y59300D02*
D03*
X48300Y60300D02*
D03*
Y59300D02*
D03*
X47300Y60300D02*
D03*
Y59300D02*
D03*
X51300Y73800D02*
D03*
X50300Y74800D02*
D03*
Y73800D02*
D03*
X49300Y74800D02*
D03*
Y73800D02*
D03*
X48300Y74800D02*
D03*
Y73800D02*
D03*
X47300Y74800D02*
D03*
Y73800D02*
D03*
X66900Y73000D02*
D03*
Y74400D02*
D03*
X60500Y78600D02*
D03*
X59700Y74000D02*
D03*
X71500Y73000D02*
D03*
X72500D02*
D03*
X67700Y66600D02*
D03*
Y65600D02*
D03*
X45600Y45700D02*
D03*
X40600Y41500D02*
D03*
X40000Y45700D02*
D03*
Y47100D02*
D03*
X33600Y51300D02*
D03*
X32800Y46700D02*
D03*
X44600Y45700D02*
D03*
X40600Y42500D02*
D03*
D44*
X23400Y78700D02*
D03*
X21400Y75700D02*
D03*
X26650Y77200D02*
D03*
X25150Y78700D02*
D03*
X24900Y75700D02*
D03*
X23500Y63500D02*
D03*
X21500Y60500D02*
D03*
X26750Y62000D02*
D03*
X25250Y63500D02*
D03*
X25000Y60500D02*
D03*
X23500Y92400D02*
D03*
X21500Y89400D02*
D03*
X26750Y90900D02*
D03*
X25250Y92400D02*
D03*
X25000Y89400D02*
D03*
D45*
X73600Y52800D02*
D03*
Y54454D02*
D03*
Y51146D02*
D03*
Y49493D02*
D03*
D46*
X76474Y54454D02*
D03*
Y49493D02*
D03*
D47*
X42700Y40600D02*
D03*
X30449Y35949D02*
D03*
X30900Y35100D02*
D03*
X40700Y35300D02*
D03*
X41800Y36400D02*
D03*
X38600Y33500D02*
D03*
X37760Y32340D02*
D03*
X34400Y33500D02*
D03*
X36260Y42360D02*
D03*
Y40360D02*
D03*
X34500Y41300D02*
D03*
X33740Y42460D02*
D03*
X40600Y37900D02*
D03*
X39826Y37274D02*
D03*
X33900Y38400D02*
D03*
X32800D02*
D03*
X34300Y38300D02*
D03*
X35600Y38500D02*
D03*
X38200Y38700D02*
D03*
X37600Y38500D02*
D03*
X36444Y38244D02*
D03*
X42600Y50000D02*
D03*
X33200Y50500D02*
D03*
X30600Y47200D02*
D03*
X36951Y46749D02*
D03*
X41849Y45149D02*
D03*
X46000Y51900D02*
D03*
X41900D02*
D03*
X42740Y50840D02*
D03*
X38060Y52940D02*
D03*
X39000Y51900D02*
D03*
X37300D02*
D03*
X34800D02*
D03*
X37500Y44900D02*
D03*
X34140Y45940D02*
D03*
X33300Y44900D02*
D03*
X47340Y49960D02*
D03*
X46200Y50700D02*
D03*
X47260Y47440D02*
D03*
X45140D02*
D03*
X33600Y48400D02*
D03*
X33700Y49700D02*
D03*
X32600Y49300D02*
D03*
X34807Y50493D02*
D03*
X36700Y48600D02*
D03*
X35400Y49000D02*
D03*
X34400D02*
D03*
X40700Y48600D02*
D03*
Y48000D02*
D03*
X43000Y49200D02*
D03*
X44500Y49500D02*
D03*
X44200Y47100D02*
D03*
X43700Y48500D02*
D03*
X43600Y46400D02*
D03*
X42899Y47699D02*
D03*
X42300Y47700D02*
D03*
X42100Y46500D02*
D03*
X72900Y36300D02*
D03*
X70935Y35465D02*
D03*
X68465Y37035D02*
D03*
X68800Y35800D02*
D03*
X69800Y35700D02*
D03*
X71800Y37200D02*
D03*
X64700Y36800D02*
D03*
Y37600D02*
D03*
X65600Y38900D02*
D03*
X62911Y36411D02*
D03*
X62300Y36900D02*
D03*
X63700Y37700D02*
D03*
X63596Y38496D02*
D03*
X53400Y62700D02*
D03*
X53900Y62300D02*
D03*
X53800Y58800D02*
D03*
X53900Y58200D02*
D03*
X52300Y62900D02*
D03*
X54400Y63900D02*
D03*
X52800Y63600D02*
D03*
X53400Y77200D02*
D03*
X53900Y76800D02*
D03*
X53800Y73300D02*
D03*
X53900Y72700D02*
D03*
X52300Y77400D02*
D03*
X54400Y78400D02*
D03*
X52800Y78100D02*
D03*
X68900Y60500D02*
D03*
X68749Y72449D02*
D03*
X66100Y93500D02*
D03*
X66000Y89700D02*
D03*
X75500Y78500D02*
D03*
X71300Y68100D02*
D03*
X45500Y43400D02*
D03*
X59800Y95700D02*
D03*
X62050Y96650D02*
D03*
X55802Y95402D02*
D03*
X53965Y98065D02*
D03*
X54200Y96700D02*
D03*
X54226Y96226D02*
D03*
X57300Y94600D02*
D03*
X64200Y43300D02*
D03*
X64000Y50700D02*
D03*
X64900Y54400D02*
D03*
X67710Y53410D02*
D03*
Y50990D02*
D03*
X67500Y48700D02*
D03*
X52900Y91400D02*
D03*
X54500Y91700D02*
D03*
X65665Y90935D02*
D03*
X70100Y90200D02*
D03*
X69000Y91100D02*
D03*
X67000Y89600D02*
D03*
X68135Y89365D02*
D03*
X59500Y90800D02*
D03*
X60796Y92396D02*
D03*
X60900Y91600D02*
D03*
X60111Y90311D02*
D03*
X62800Y92800D02*
D03*
X61900Y91500D02*
D03*
Y90700D02*
D03*
X65300Y62800D02*
D03*
X57549Y60049D02*
D03*
X58000Y59200D02*
D03*
X63960Y56440D02*
D03*
X64800Y57600D02*
D03*
X60600D02*
D03*
X60840Y66560D02*
D03*
X61600Y65400D02*
D03*
X63360Y66460D02*
D03*
Y64460D02*
D03*
X64700Y62600D02*
D03*
X63544Y62344D02*
D03*
X61400Y62400D02*
D03*
X62700Y62600D02*
D03*
X66926Y61374D02*
D03*
X67700Y62000D02*
D03*
X67800Y59400D02*
D03*
X59900Y62500D02*
D03*
X61000D02*
D03*
X69500Y77300D02*
D03*
X60100Y77800D02*
D03*
X59500Y76600D02*
D03*
X57500Y74500D02*
D03*
X63851Y74049D02*
D03*
X72900Y79200D02*
D03*
X69640Y78140D02*
D03*
X68800Y79200D02*
D03*
X64960Y80240D02*
D03*
X65900Y79200D02*
D03*
X64200D02*
D03*
X61700D02*
D03*
X64400Y72200D02*
D03*
X61040Y73240D02*
D03*
X60200Y72200D02*
D03*
X73100Y78000D02*
D03*
X74240Y77260D02*
D03*
X74160Y74740D02*
D03*
X72040D02*
D03*
X60500Y75700D02*
D03*
X60600Y77000D02*
D03*
X61707Y77793D02*
D03*
X63600Y75900D02*
D03*
X62300Y76300D02*
D03*
X61300D02*
D03*
X67600Y75900D02*
D03*
Y75300D02*
D03*
X69900Y76500D02*
D03*
X71400Y76800D02*
D03*
X71100Y74400D02*
D03*
X70600Y75800D02*
D03*
X70500Y73700D02*
D03*
X69799Y74999D02*
D03*
X69200Y75000D02*
D03*
X69000Y73800D02*
D03*
X54000Y86000D02*
D03*
X53900Y86600D02*
D03*
X53500Y90500D02*
D03*
X54000Y90100D02*
D03*
X52400Y90700D02*
D03*
D48*
X51365Y64635D02*
D03*
X50435D02*
D03*
X48500Y61500D02*
D03*
X51400Y57400D02*
D03*
X44600Y64900D02*
D03*
X42700Y62500D02*
D03*
X43700Y62800D02*
D03*
Y63600D02*
D03*
X53500Y64200D02*
D03*
X51800D02*
D03*
X51400Y64000D02*
D03*
X49000Y62400D02*
D03*
X47950Y63250D02*
D03*
X51365Y79135D02*
D03*
X50435D02*
D03*
X48500Y76000D02*
D03*
X51400Y71900D02*
D03*
X44600Y79400D02*
D03*
X42700Y77000D02*
D03*
X43700Y77300D02*
D03*
Y78100D02*
D03*
X53500Y78700D02*
D03*
X51800D02*
D03*
X51400Y78500D02*
D03*
X49000Y76900D02*
D03*
X47950Y77750D02*
D03*
X51465Y92435D02*
D03*
X51900Y92000D02*
D03*
X53600D02*
D03*
X51500Y85200D02*
D03*
X44700Y92700D02*
D03*
X43800Y90600D02*
D03*
X42800Y90300D02*
D03*
X43800Y91400D02*
D03*
X50535Y92435D02*
D03*
X51500Y91800D02*
D03*
X48600Y89300D02*
D03*
X49100Y90200D02*
D03*
X48050Y91050D02*
D03*
X33565Y64735D02*
D03*
X33635Y61065D02*
D03*
X36400Y64600D02*
D03*
X35551Y60751D02*
D03*
X34400Y64000D02*
D03*
X33550Y62550D02*
D03*
X34449Y61651D02*
D03*
X33465Y78735D02*
D03*
X33535Y75065D02*
D03*
X36300Y78600D02*
D03*
X35451Y74751D02*
D03*
X34300Y78000D02*
D03*
X33450Y76550D02*
D03*
X34349Y75651D02*
D03*
X36400Y92500D02*
D03*
X33565Y92635D02*
D03*
X34400Y91900D02*
D03*
X33550Y90450D02*
D03*
X35551Y88651D02*
D03*
X33635Y88965D02*
D03*
X34449Y89551D02*
D03*
M02*
