%FSLAX24Y24*%
%MOIN*%
G70*
G01*
G75*
G04 Layer_Physical_Order=2*
%ADD10R,0.0630X0.0118*%
%ADD11R,0.0630X0.0118*%
%ADD12R,0.0709X0.0630*%
%ADD13R,0.0846X0.0157*%
%ADD14R,0.0846X0.0157*%
%ADD15R,0.0630X0.0709*%
%ADD16R,0.0512X0.0591*%
%ADD17R,0.0591X0.0512*%
%ADD18R,0.0551X0.0236*%
%ADD19O,0.0480X0.0169*%
%ADD20R,0.0650X0.0118*%
%ADD21R,0.0787X0.0472*%
%ADD22R,0.0866X0.0236*%
%ADD23R,0.0866X0.0236*%
%ADD24R,0.0433X0.0394*%
%ADD25R,0.0610X0.0236*%
%ADD26R,0.1024X0.1614*%
%ADD27R,0.1614X0.1024*%
%ADD28R,0.0480X0.0169*%
%ADD29R,0.0394X0.0236*%
%ADD30R,0.1240X0.1360*%
%ADD31R,0.0315X0.1417*%
%ADD32C,0.0160*%
%ADD33C,0.0200*%
%ADD34C,0.0100*%
%ADD35C,0.0300*%
%ADD36C,0.0080*%
%ADD37C,0.0250*%
%ADD38C,0.0400*%
%ADD39C,0.0600*%
%ADD40C,0.1600*%
%ADD41C,0.0500*%
%ADD42R,0.0591X0.0591*%
%ADD43C,0.0591*%
%ADD44C,0.0750*%
%ADD45C,0.0866*%
%ADD46C,0.1575*%
%ADD47C,0.0250*%
%ADD48C,0.0350*%
%ADD49R,0.0394X0.0433*%
%ADD50C,0.0098*%
%ADD51C,0.0079*%
%ADD52C,0.0070*%
%ADD53R,0.0079X0.0197*%
%ADD54R,0.0197X0.0079*%
%ADD55C,0.0039*%
%ADD56R,0.0157X0.0197*%
%ADD57R,0.0197X0.0079*%
%ADD58C,0.0020*%
%ADD59R,0.0197X0.0157*%
%ADD60R,0.0157X0.0197*%
%ADD61R,0.0079X0.0197*%
%ADD62R,0.0710X0.0198*%
%ADD63R,0.0710X0.0198*%
%ADD64R,0.0789X0.0710*%
%ADD65R,0.0926X0.0237*%
%ADD66R,0.0926X0.0237*%
%ADD67R,0.0710X0.0789*%
%ADD68R,0.0592X0.0671*%
%ADD69R,0.0671X0.0592*%
%ADD70R,0.0631X0.0316*%
%ADD71O,0.0560X0.0249*%
%ADD72R,0.0730X0.0198*%
%ADD73R,0.0867X0.0552*%
%ADD74R,0.0946X0.0316*%
%ADD75R,0.0946X0.0316*%
%ADD76R,0.0513X0.0474*%
%ADD77R,0.0690X0.0316*%
%ADD78R,0.1104X0.1694*%
%ADD79R,0.1694X0.1104*%
%ADD80R,0.0560X0.0249*%
%ADD81R,0.0474X0.0316*%
%ADD82R,0.1320X0.1440*%
%ADD83R,0.0395X0.1497*%
%ADD84C,0.0680*%
%ADD85C,0.1680*%
%ADD86C,0.0580*%
%ADD87R,0.0671X0.0671*%
%ADD88C,0.0671*%
%ADD89C,0.0830*%
%ADD90C,0.0946*%
%ADD91C,0.1655*%
%ADD92C,0.0330*%
%ADD93C,0.0430*%
%ADD94R,0.0474X0.0513*%
%ADD95C,0.0820*%
%AMTHD96*
7,0,0,0.2000,0.1800,0.0100,45*
%
%ADD96THD96*%
%ADD97C,0.0800*%
%AMTHD98*
7,0,0,0.1000,0.0800,0.0100,45*
%
%ADD98THD98*%
%AMTHD99*
7,0,0,0.0954,0.0754,0.0100,45*
%
%ADD99THD99*%
%ADD100C,0.0754*%
%ADD101C,0.1050*%
%ADD102C,0.0900*%
%AMTHD103*
7,0,0,0.1250,0.1050,0.0100,45*
%
%ADD103THD103*%
%AMTHD104*
7,0,0,0.1309,0.1109,0.0100,45*
%
%ADD104THD104*%
%ADD105C,0.1109*%
%ADD106C,0.1660*%
%ADD107C,0.0535*%
%AMTHD108*
7,0,0,0.0735,0.0535,0.0100,45*
%
%ADD108THD108*%
%AMTHD109*
7,0,0,0.0800,0.0600,0.0100,45*
%
%ADD109THD109*%
D34*
X79800Y38100D02*
Y37400D01*
X80200D01*
X80676Y37867D02*
Y37400D01*
Y37767D02*
X80610Y37833D01*
X80543Y37867D01*
X80443D01*
X80377Y37833D01*
X80310Y37767D01*
X80277Y37667D01*
Y37600D01*
X80310Y37500D01*
X80377Y37433D01*
X80443Y37400D01*
X80543D01*
X80610Y37433D01*
X80676Y37500D01*
X80896Y37867D02*
X81096Y37400D01*
X81296Y37867D02*
X81096Y37400D01*
X81030Y37267D01*
X80963Y37200D01*
X80896Y37167D01*
X80863D01*
X81413Y37667D02*
X81813D01*
Y37733D01*
X81780Y37800D01*
X81746Y37833D01*
X81680Y37867D01*
X81580D01*
X81513Y37833D01*
X81446Y37767D01*
X81413Y37667D01*
Y37600D01*
X81446Y37500D01*
X81513Y37433D01*
X81580Y37400D01*
X81680D01*
X81746Y37433D01*
X81813Y37500D01*
X81963Y37867D02*
Y37400D01*
Y37667D02*
X81996Y37767D01*
X82063Y37833D01*
X82129Y37867D01*
X82229D01*
X82876Y37933D02*
Y37967D01*
X82909Y38033D01*
X82943Y38067D01*
X83009Y38100D01*
X83143D01*
X83209Y38067D01*
X83243Y38033D01*
X83276Y37967D01*
Y37900D01*
X83243Y37833D01*
X83176Y37733D01*
X82843Y37400D01*
X83309D01*
D38*
X20000Y30000D02*
Y100000D01*
X78800D01*
X78900Y30000D01*
X20000D02*
X78900D01*
D39*
X51400Y57400D02*
D03*
X44600Y64900D02*
D03*
X43700Y62800D02*
D03*
X53500Y64200D02*
D03*
X51400Y64000D02*
D03*
X49000Y62400D02*
D03*
X51400Y71900D02*
D03*
X44600Y79400D02*
D03*
X43700Y77300D02*
D03*
X53500Y78700D02*
D03*
X51400Y78500D02*
D03*
X49000Y76900D02*
D03*
X53600Y92000D02*
D03*
X51500Y85200D02*
D03*
X44700Y92700D02*
D03*
X43800Y90600D02*
D03*
X51500Y91800D02*
D03*
X49100Y90200D02*
D03*
X34400Y64000D02*
D03*
X34449Y61651D02*
D03*
X34300Y78000D02*
D03*
X34349Y75651D02*
D03*
X34400Y91900D02*
D03*
X34449Y89551D02*
D03*
D95*
X49800Y61400D02*
D03*
X36800Y62600D02*
D03*
X50000Y76000D02*
D03*
X37000Y76400D02*
D03*
X37600Y91000D02*
D03*
X49900Y89500D02*
D03*
D96*
X23200Y97520D02*
D03*
Y32720D02*
D03*
X75520Y34600D02*
D03*
X76400Y97840D02*
D03*
D97*
X25000Y49900D02*
D03*
X40000Y71400D02*
D03*
X74200Y68400D02*
D03*
X56200Y68800D02*
D03*
X74200Y60000D02*
D03*
X56800Y54800D02*
D03*
X40800Y57800D02*
D03*
X73600Y85400D02*
D03*
X57800Y84000D02*
D03*
X40000Y85000D02*
D03*
X53800Y46800D02*
D03*
X25200Y37800D02*
D03*
X46200Y40800D02*
D03*
X54200Y37200D02*
D03*
X72800Y44200D02*
D03*
D98*
X27500Y47400D02*
D03*
X22500D02*
D03*
Y52400D02*
D03*
X27500D02*
D03*
X42500Y73900D02*
D03*
X37500D02*
D03*
Y68900D02*
D03*
X42500D02*
D03*
X76700Y65900D02*
D03*
X71700D02*
D03*
Y70900D02*
D03*
X76700D02*
D03*
X58700Y66300D02*
D03*
X53700D02*
D03*
Y71300D02*
D03*
X58700D02*
D03*
X76700Y57500D02*
D03*
X71700D02*
D03*
Y62500D02*
D03*
X76700D02*
D03*
X59300Y52300D02*
D03*
X54300D02*
D03*
Y57300D02*
D03*
X59300D02*
D03*
X43300Y55300D02*
D03*
X38300D02*
D03*
Y60300D02*
D03*
X43300D02*
D03*
X76100Y82900D02*
D03*
X71100D02*
D03*
Y87900D02*
D03*
X76100D02*
D03*
X60300Y81500D02*
D03*
X55300D02*
D03*
Y86500D02*
D03*
X60300D02*
D03*
X42500Y82500D02*
D03*
X37500D02*
D03*
Y87500D02*
D03*
X42500D02*
D03*
X56300Y44300D02*
D03*
X51300D02*
D03*
Y49300D02*
D03*
X56300D02*
D03*
X27700Y35300D02*
D03*
X22700D02*
D03*
Y40300D02*
D03*
X27700D02*
D03*
X48700Y38300D02*
D03*
X43700D02*
D03*
Y43300D02*
D03*
X48700D02*
D03*
X56700Y34700D02*
D03*
X51700D02*
D03*
Y39700D02*
D03*
X56700D02*
D03*
X70300Y46700D02*
D03*
X75300D02*
D03*
Y41700D02*
D03*
X70300D02*
D03*
D99*
X51400Y88100D02*
D03*
X50400D02*
D03*
X49400D02*
D03*
X48400D02*
D03*
X47400D02*
D03*
X51300Y60300D02*
D03*
X50300D02*
D03*
X49300D02*
D03*
X48300D02*
D03*
X47300D02*
D03*
X51300Y74800D02*
D03*
X50300D02*
D03*
X49300D02*
D03*
X48300D02*
D03*
X47300D02*
D03*
X71500Y73000D02*
D03*
X67700Y66600D02*
D03*
X44600Y45700D02*
D03*
X40600Y42500D02*
D03*
D100*
X51400Y87100D02*
D03*
X50400D02*
D03*
X49400D02*
D03*
X48400D02*
D03*
X47400D02*
D03*
X51300Y59300D02*
D03*
X50300D02*
D03*
X49300D02*
D03*
X48300D02*
D03*
X47300D02*
D03*
X51300Y73800D02*
D03*
X50300D02*
D03*
X49300D02*
D03*
X48300D02*
D03*
X47300D02*
D03*
X65900Y73000D02*
D03*
X66900D02*
D03*
X65900Y74400D02*
D03*
X66900D02*
D03*
X60500Y79600D02*
D03*
Y78600D02*
D03*
X58700Y74000D02*
D03*
X59700D02*
D03*
X72500Y73000D02*
D03*
X73500D02*
D03*
X67700Y65600D02*
D03*
Y64600D02*
D03*
X45600Y45700D02*
D03*
X40600Y41500D02*
D03*
X40000Y45700D02*
D03*
Y47100D02*
D03*
X33600Y51300D02*
D03*
X32800Y46700D02*
D03*
X46600Y45700D02*
D03*
X40600Y40500D02*
D03*
X39000Y45700D02*
D03*
Y47100D02*
D03*
X33600Y52300D02*
D03*
X31800Y46700D02*
D03*
D101*
X23400Y78700D02*
D03*
X21400Y75700D02*
D03*
X25150Y78700D02*
D03*
X23500Y63500D02*
D03*
X21500Y60500D02*
D03*
X25250Y63500D02*
D03*
X23500Y92400D02*
D03*
X21500Y89400D02*
D03*
X25250Y92400D02*
D03*
D102*
X26650Y77200D02*
D03*
X26750Y62000D02*
D03*
Y90900D02*
D03*
D103*
X24900Y75700D02*
D03*
X25000Y60500D02*
D03*
Y89400D02*
D03*
D104*
X73600Y52800D02*
D03*
Y51146D02*
D03*
D105*
Y54454D02*
D03*
Y49493D02*
D03*
D106*
X76474Y54454D02*
D03*
Y49493D02*
D03*
D107*
X42700Y40600D02*
D03*
X34400Y33500D02*
D03*
X36260Y42360D02*
D03*
Y40360D02*
D03*
X40600Y37900D02*
D03*
X39826Y37274D02*
D03*
X33900Y38400D02*
D03*
X32800D02*
D03*
X34300Y38300D02*
D03*
X38200Y38700D02*
D03*
X37600Y38500D02*
D03*
X41900Y51900D02*
D03*
X42740Y50840D02*
D03*
X34800Y51900D02*
D03*
X37500Y44900D02*
D03*
X47340Y49960D02*
D03*
X46200Y50700D02*
D03*
X33600Y48400D02*
D03*
X32600Y49300D02*
D03*
X34807Y50493D02*
D03*
X36700Y48600D02*
D03*
X35400Y49000D02*
D03*
X40700Y48000D02*
D03*
X43000Y49200D02*
D03*
X44500Y49500D02*
D03*
X44200Y47100D02*
D03*
X43700Y48500D02*
D03*
X43600Y46400D02*
D03*
X42899Y47699D02*
D03*
X42300Y47700D02*
D03*
X42100Y46500D02*
D03*
X68800Y35800D02*
D03*
X69800Y35700D02*
D03*
X71800Y37200D02*
D03*
X65600Y38900D02*
D03*
X62911Y36411D02*
D03*
X53800Y58800D02*
D03*
X53900Y58200D02*
D03*
X52300Y62900D02*
D03*
X54400Y63900D02*
D03*
X52800Y63600D02*
D03*
X53800Y73300D02*
D03*
X53900Y72700D02*
D03*
X52300Y77400D02*
D03*
X54400Y78400D02*
D03*
X52800Y78100D02*
D03*
X66100Y93500D02*
D03*
X66000Y89700D02*
D03*
X75500Y78500D02*
D03*
X71300Y68100D02*
D03*
X45500Y43400D02*
D03*
X59800Y95700D02*
D03*
X62050Y96650D02*
D03*
X55802Y95402D02*
D03*
X64900Y54400D02*
D03*
X67710Y53410D02*
D03*
Y50990D02*
D03*
X67500Y48700D02*
D03*
X52900Y91400D02*
D03*
X54500Y91700D02*
D03*
X69000Y91100D02*
D03*
X67000Y89600D02*
D03*
X60111Y90311D02*
D03*
X62800Y92800D02*
D03*
X65300Y62800D02*
D03*
X60600Y57600D02*
D03*
X63360Y66460D02*
D03*
Y64460D02*
D03*
X64700Y62600D02*
D03*
X61400Y62400D02*
D03*
X66926Y61374D02*
D03*
X67700Y62000D02*
D03*
X59900Y62500D02*
D03*
X61000D02*
D03*
X59500Y76600D02*
D03*
X69640Y78140D02*
D03*
X68800Y79200D02*
D03*
X61700D02*
D03*
X64400Y72200D02*
D03*
X73100Y78000D02*
D03*
X74240Y77260D02*
D03*
X60500Y75700D02*
D03*
X61707Y77793D02*
D03*
X63600Y75900D02*
D03*
X62300Y76300D02*
D03*
X67600Y75300D02*
D03*
X69900Y76500D02*
D03*
X71400Y76800D02*
D03*
X71100Y74400D02*
D03*
X70600Y75800D02*
D03*
X70500Y73700D02*
D03*
X69799Y74999D02*
D03*
X69200Y75000D02*
D03*
X69000Y73800D02*
D03*
X54000Y86000D02*
D03*
X53900Y86600D02*
D03*
X52400Y90700D02*
D03*
D108*
X30449Y35949D02*
D03*
X30900Y35100D02*
D03*
X40700Y35300D02*
D03*
X41800Y36400D02*
D03*
X38600Y33500D02*
D03*
X37760Y32340D02*
D03*
X34500Y41300D02*
D03*
X33740Y42460D02*
D03*
X35600Y38500D02*
D03*
X36444Y38244D02*
D03*
X42600Y50000D02*
D03*
X33200Y50500D02*
D03*
X30600Y47200D02*
D03*
X36951Y46749D02*
D03*
X41849Y45149D02*
D03*
X46000Y51900D02*
D03*
X38060Y52940D02*
D03*
X39000Y51900D02*
D03*
X37300D02*
D03*
X34140Y45940D02*
D03*
X33300Y44900D02*
D03*
X47260Y47440D02*
D03*
X45140D02*
D03*
X33700Y49700D02*
D03*
X34400Y49000D02*
D03*
X40700Y48600D02*
D03*
X72900Y36300D02*
D03*
X70935Y35465D02*
D03*
X68465Y37035D02*
D03*
X64700Y36800D02*
D03*
Y37600D02*
D03*
X62300Y36900D02*
D03*
X63700Y37700D02*
D03*
X63596Y38496D02*
D03*
X53400Y62700D02*
D03*
X53900Y62300D02*
D03*
X53400Y77200D02*
D03*
X53900Y76800D02*
D03*
X68900Y60500D02*
D03*
X68749Y72449D02*
D03*
X53965Y98065D02*
D03*
X54200Y96700D02*
D03*
X54226Y96226D02*
D03*
X57300Y94600D02*
D03*
X64200Y43300D02*
D03*
X64000Y50700D02*
D03*
X65665Y90935D02*
D03*
X70100Y90200D02*
D03*
X68135Y89365D02*
D03*
X59500Y90800D02*
D03*
X60796Y92396D02*
D03*
X60900Y91600D02*
D03*
X61900Y91500D02*
D03*
Y90700D02*
D03*
X57549Y60049D02*
D03*
X58000Y59200D02*
D03*
X63960Y56440D02*
D03*
X64800Y57600D02*
D03*
X60840Y66560D02*
D03*
X61600Y65400D02*
D03*
X63544Y62344D02*
D03*
X62700Y62600D02*
D03*
X67800Y59400D02*
D03*
X69500Y77300D02*
D03*
X60100Y77800D02*
D03*
X57500Y74500D02*
D03*
X63851Y74049D02*
D03*
X72900Y79200D02*
D03*
X64960Y80240D02*
D03*
X65900Y79200D02*
D03*
X64200D02*
D03*
X61040Y73240D02*
D03*
X60200Y72200D02*
D03*
X74160Y74740D02*
D03*
X72040D02*
D03*
X60600Y77000D02*
D03*
X61300Y76300D02*
D03*
X67600Y75900D02*
D03*
X53500Y90500D02*
D03*
X54000Y90100D02*
D03*
D109*
X51365Y64635D02*
D03*
X50435D02*
D03*
X48500Y61500D02*
D03*
X42700Y62500D02*
D03*
X43700Y63600D02*
D03*
X51800Y64200D02*
D03*
X47950Y63250D02*
D03*
X51365Y79135D02*
D03*
X50435D02*
D03*
X48500Y76000D02*
D03*
X42700Y77000D02*
D03*
X43700Y78100D02*
D03*
X51800Y78700D02*
D03*
X47950Y77750D02*
D03*
X51465Y92435D02*
D03*
X51900Y92000D02*
D03*
X42800Y90300D02*
D03*
X43800Y91400D02*
D03*
X50535Y92435D02*
D03*
X48600Y89300D02*
D03*
X48050Y91050D02*
D03*
X33565Y64735D02*
D03*
X33635Y61065D02*
D03*
X36400Y64600D02*
D03*
X35551Y60751D02*
D03*
X33550Y62550D02*
D03*
X33465Y78735D02*
D03*
X33535Y75065D02*
D03*
X36300Y78600D02*
D03*
X35451Y74751D02*
D03*
X33450Y76550D02*
D03*
X36400Y92500D02*
D03*
X33565Y92635D02*
D03*
X33550Y90450D02*
D03*
X35551Y88651D02*
D03*
X33635Y88965D02*
D03*
M02*
