%FSLAX24Y24*%
%MOIN*%
G70*
G01*
G75*
G04 Layer_Physical_Order=1*
%ADD10C,0.0080*%
%ADD11R,0.0600X0.0150*%
%ADD12R,0.0620X0.1010*%
%ADD13R,0.0360X0.2560*%
%ADD14R,0.0620X0.0775*%
%ADD15R,0.0394X0.0433*%
%ADD16R,0.1181X0.1969*%
%ADD17R,0.1417X0.0315*%
%ADD18R,0.0630X0.1063*%
%ADD19R,0.0150X0.0409*%
%ADD20O,0.0150X0.0409*%
%ADD21R,0.1614X0.1024*%
%ADD22R,0.0630X0.0118*%
%ADD23R,0.0630X0.0118*%
%ADD24R,0.0709X0.0630*%
%ADD25R,0.0846X0.0157*%
%ADD26R,0.0846X0.0157*%
%ADD27R,0.0630X0.0709*%
%ADD28R,0.0512X0.0591*%
%ADD29R,0.0591X0.0512*%
%ADD30R,0.0551X0.0236*%
%ADD31O,0.0480X0.0169*%
%ADD32R,0.0650X0.0118*%
%ADD33R,0.0787X0.0472*%
%ADD34R,0.0866X0.0236*%
%ADD35R,0.0866X0.0236*%
%ADD36R,0.0433X0.0394*%
%ADD37R,0.0610X0.0236*%
%ADD38R,0.1024X0.1614*%
%ADD39R,0.0480X0.0169*%
%ADD40R,0.0394X0.0236*%
%ADD41R,0.1240X0.1360*%
%ADD42R,0.0315X0.1417*%
%ADD43C,0.0100*%
%ADD44C,0.0160*%
%ADD45C,0.0200*%
%ADD46C,0.0300*%
%ADD47C,0.0250*%
%ADD48C,0.0400*%
%ADD49C,0.0700*%
%ADD50C,0.1575*%
%ADD51C,0.0866*%
%ADD52C,0.0866*%
%ADD53C,0.0200*%
%ADD54R,0.0591X0.0591*%
%ADD55C,0.0591*%
%ADD56C,0.0600*%
%ADD57C,0.1600*%
%ADD58C,0.0750*%
%ADD59C,0.0250*%
%ADD60C,0.0350*%
D10*
X65697Y106399D02*
G03*
X65384Y106533I-185J0D01*
G01*
Y106006D02*
G03*
X65697Y106139I128J133D01*
G01*
X65609Y105460D02*
G03*
X65474Y105516I-135J-134D01*
G01*
X65608Y105460D02*
G03*
X65474Y105516I-134J-134D01*
G01*
X65945Y105100D02*
G03*
X65902Y105167I-178J-68D01*
G01*
X65945Y105100D02*
G03*
X65902Y105167I-178J-68D01*
G01*
X65384Y106533D02*
G03*
X65128Y106533I-128J-133D01*
G01*
G03*
X64815Y106399I-128J-133D01*
G01*
X65128Y106006D02*
G03*
X65384Y106006I128J133D01*
G01*
X64815Y106139D02*
G03*
X65128Y106006I185J0D01*
G01*
X63560Y105916D02*
G03*
X63629Y105960I-66J178D01*
G01*
X63560Y105916D02*
G03*
X63628Y105960I-66J178D01*
G01*
X63494Y105904D02*
G03*
X63537Y105909I0J190D01*
G01*
X63494Y105904D02*
G03*
X63537Y105909I0J190D01*
G01*
X63107D02*
G03*
X63150Y105904I43J185D01*
G01*
Y105516D02*
G03*
X63107Y105511I0J-190D01*
G01*
X65953Y104556D02*
G03*
X65958Y104600I-185J44D01*
G01*
X65184Y104900D02*
G03*
X65071Y104730I72J-170D01*
G01*
X65640Y104337D02*
G03*
X65953Y104470I128J133D01*
G01*
X65384Y104337D02*
G03*
X65640Y104337I128J133D01*
G01*
X65071Y104470D02*
G03*
X65384Y104337I185J0D01*
G01*
X63107Y104885D02*
G03*
X63150Y104880I43J185D01*
G01*
X59450Y110467D02*
G03*
X59562Y110322I150J0D01*
G01*
X59450Y110467D02*
G03*
X59562Y110322I150J0D01*
G01*
Y110078D02*
G03*
X59450Y109933I38J-145D01*
G01*
X59562Y110078D02*
G03*
X59450Y109933I38J-145D01*
G01*
Y106500D02*
G03*
X59600Y106350I150J0D01*
G01*
X59450Y106500D02*
G03*
X59600Y106350I150J0D01*
G01*
X52732Y110400D02*
G03*
X52732Y110400I-543J0D01*
G01*
X51079D02*
G03*
X51079Y110400I-543J0D01*
G01*
X49425D02*
G03*
X48400Y110650I-543J0D01*
G01*
Y110150D02*
G03*
X49425Y110400I482J250D01*
G01*
X52732Y108235D02*
G03*
X52732Y108235I-543J0D01*
G01*
X51079D02*
G03*
X51079Y108235I-543J0D01*
G01*
X49425D02*
G03*
X48400Y108485I-543J0D01*
G01*
Y107984D02*
G03*
X49425Y108235I482J250D01*
G01*
X38900Y103900D02*
Y108300D01*
X38600Y103600D02*
X38900Y103900D01*
X76200Y103100D02*
Y107500D01*
X76160Y103100D02*
Y107500D01*
X76080Y103100D02*
Y107500D01*
X76000Y103100D02*
Y107500D01*
X75920Y103100D02*
Y107500D01*
X75840Y103100D02*
Y107500D01*
X75760Y103100D02*
Y107500D01*
X75680Y103100D02*
Y107500D01*
X75600Y103100D02*
Y107500D01*
X75520Y103100D02*
Y107500D01*
X75440Y103100D02*
Y107500D01*
X75360Y103100D02*
Y107500D01*
X75280Y103100D02*
Y107500D01*
X75200Y103100D02*
Y107500D01*
X75120Y103100D02*
Y107500D01*
X75040Y103100D02*
Y107500D01*
X74960Y103100D02*
Y107500D01*
X74880Y103100D02*
Y107500D01*
X74800Y103100D02*
Y107500D01*
X74720Y103100D02*
Y107500D01*
X74640Y103100D02*
Y107500D01*
X74560Y103100D02*
Y107500D01*
X74480Y103100D02*
Y107500D01*
X74400Y103100D02*
Y107500D01*
X74320Y103100D02*
Y107500D01*
X74240Y103100D02*
Y107500D01*
X74160Y103100D02*
Y107500D01*
X74080Y103100D02*
Y107500D01*
X74000Y103100D02*
Y107500D01*
X73920Y103100D02*
Y107500D01*
X73840Y103100D02*
Y107500D01*
X73760Y103100D02*
Y107500D01*
X73680Y103100D02*
Y107500D01*
X73600Y103100D02*
Y107500D01*
X73520Y103100D02*
Y107500D01*
X73440Y103100D02*
Y107500D01*
X73360Y103100D02*
Y107500D01*
X73280Y103100D02*
Y107500D01*
X73200Y103100D02*
Y107500D01*
X73120Y103100D02*
Y107500D01*
X73040Y103100D02*
Y107500D01*
X72960Y103100D02*
Y107500D01*
X72880Y103100D02*
Y107500D01*
X72800Y103100D02*
Y107500D01*
X72720Y103100D02*
Y107500D01*
X72640Y103100D02*
Y107500D01*
X72560Y103100D02*
Y107500D01*
X72480Y103100D02*
Y107500D01*
X72400Y103100D02*
Y107500D01*
X72320Y103100D02*
Y107500D01*
X72240Y103100D02*
Y107500D01*
X72160Y103100D02*
Y107500D01*
X72080Y103100D02*
Y107500D01*
X72000Y103100D02*
Y107500D01*
X71920Y103100D02*
Y107500D01*
X71840Y103100D02*
Y107500D01*
X71760Y103100D02*
Y107500D01*
X71680Y103100D02*
Y107500D01*
X71600Y103100D02*
Y107500D01*
X71520Y103100D02*
Y107500D01*
X71440Y103100D02*
Y107500D01*
X71360Y103100D02*
Y107500D01*
X71280Y103100D02*
Y107500D01*
X71200Y103100D02*
Y107500D01*
X71120Y103100D02*
Y107500D01*
X70500D02*
X76200D01*
X70500Y107440D02*
X76200D01*
X70500Y107360D02*
X76200D01*
X70500Y107280D02*
X76200D01*
X70500Y107200D02*
X76200D01*
X70500Y107120D02*
X76200D01*
X70500Y107040D02*
X76200D01*
X70500Y106960D02*
X76200D01*
X70500Y106880D02*
X76200D01*
X70500Y106800D02*
X76200D01*
X70500Y106720D02*
X76200D01*
X70500Y106640D02*
X76200D01*
X70500Y106560D02*
X76200D01*
X70500Y106480D02*
X76200D01*
X70500Y106400D02*
X76200D01*
X70500Y106320D02*
X76200D01*
X70500Y106240D02*
X76200D01*
X70500Y106160D02*
X76200D01*
X70500Y106080D02*
X76200D01*
X70500Y106000D02*
X76200D01*
X70500Y105920D02*
X76200D01*
X70500Y105840D02*
X76200D01*
X70500Y105760D02*
X76200D01*
X70500Y105680D02*
X76200D01*
X70500Y105600D02*
X76200D01*
X70500Y105520D02*
X76200D01*
X70500Y105440D02*
X76200D01*
X70500Y105360D02*
X76200D01*
X70500Y105280D02*
X76200D01*
X70500Y105200D02*
X76200D01*
X70500Y105120D02*
X76200D01*
X70500Y105040D02*
X76200D01*
X70500Y104960D02*
X76200D01*
X70500Y104880D02*
X76200D01*
X70500Y104800D02*
X76200D01*
X70500Y104720D02*
X76200D01*
X70500Y104640D02*
X76200D01*
X70500Y104560D02*
X76200D01*
X70500Y104480D02*
X76200D01*
X70500Y104400D02*
X76200D01*
X70500Y104320D02*
X76200D01*
X70500Y104240D02*
X76200D01*
X70500Y104160D02*
X76200D01*
X70500Y104080D02*
X76200D01*
X70500Y104000D02*
X76200D01*
X70500Y103920D02*
X76200D01*
X70500Y103840D02*
X76200D01*
X70500Y103760D02*
X76200D01*
X70500Y103680D02*
X76200D01*
X71040Y103100D02*
Y107500D01*
X70960Y103100D02*
Y107500D01*
X70880Y103100D02*
Y107500D01*
X70800Y103100D02*
Y107500D01*
X70720Y103100D02*
Y107500D01*
X70640Y103100D02*
Y107500D01*
X70560Y103100D02*
Y107500D01*
X70500Y103100D02*
Y107500D01*
Y103600D02*
X76200D01*
X70500Y103520D02*
X76200D01*
X70500Y103440D02*
X76200D01*
X70500Y103360D02*
X76200D01*
X70500Y103280D02*
X76200D01*
X70500Y103200D02*
X76200D01*
X70500Y103120D02*
X76200D01*
X70500Y103100D02*
X76200D01*
X65678Y106480D02*
X68400D01*
X65697Y106400D02*
X68400D01*
X65697Y106139D02*
Y106399D01*
X65840Y105229D02*
Y107000D01*
X65760Y105309D02*
Y107000D01*
X65603Y106560D02*
X68400D01*
X65697Y106320D02*
X68400D01*
X65697Y106240D02*
X68400D01*
X65697Y106160D02*
X68400D01*
X65687Y106080D02*
X68400D01*
X65709Y105360D02*
X68400D01*
X65789Y105280D02*
X68400D01*
X65869Y105200D02*
X68400D01*
X65633Y106000D02*
X68400D01*
X65629Y105440D02*
X68400D01*
X65609Y105460D02*
X65902Y105167D01*
X65600Y106562D02*
Y107000D01*
X65520Y106584D02*
Y107000D01*
X65440Y106569D02*
Y107000D01*
X65680Y106476D02*
Y107000D01*
Y105389D02*
Y106063D01*
X65280Y106582D02*
Y107000D01*
X65200Y106575D02*
Y107000D01*
X65347Y106560D02*
X65421D01*
X65360Y106552D02*
Y107000D01*
X65600Y105468D02*
Y105977D01*
X65520Y105510D02*
Y105955D01*
X65440Y105516D02*
Y105969D01*
X65360Y105516D02*
Y105987D01*
X65280Y105516D02*
Y105956D01*
X65200Y105516D02*
Y105963D01*
X65120Y105516D02*
Y105999D01*
X68400Y105100D02*
Y107000D01*
X68320Y105100D02*
Y107000D01*
X68240Y105100D02*
Y107000D01*
X68160Y105100D02*
Y107000D01*
X68080Y105100D02*
Y107000D01*
X68000Y105100D02*
Y107000D01*
X67920Y105100D02*
Y107000D01*
X67840Y105100D02*
Y107000D01*
X67760Y105100D02*
Y107000D01*
X67680Y105100D02*
Y107000D01*
X67600Y105100D02*
Y107000D01*
X67520Y105100D02*
Y107000D01*
X67440Y105100D02*
Y107000D01*
X67360Y105100D02*
Y107000D01*
X67280Y105100D02*
Y107000D01*
X67200Y105100D02*
Y107000D01*
X65945Y105100D02*
X68400D01*
X65936Y105120D02*
X68400D01*
X67120Y105100D02*
Y107000D01*
X67040Y105100D02*
Y107000D01*
X66960Y105100D02*
Y107000D01*
X66880Y105100D02*
Y107000D01*
X66800Y105100D02*
Y107000D01*
X66720Y105100D02*
Y107000D01*
X66640Y105100D02*
Y107000D01*
X66560Y105100D02*
Y107000D01*
X66480Y105100D02*
Y107000D01*
X66400Y105100D02*
Y107000D01*
X66320Y105100D02*
Y107000D01*
X66240Y105100D02*
Y107000D01*
X66160Y105100D02*
Y107000D01*
X66080Y105100D02*
Y107000D01*
X66000Y105100D02*
Y107000D01*
X65920Y105146D02*
Y107000D01*
X64707D02*
X68400D01*
X65040Y106580D02*
Y107000D01*
X64960Y106580D02*
Y107000D01*
X65120Y106540D02*
Y107000D01*
X64880Y106540D02*
Y107000D01*
X64707Y106960D02*
X68400D01*
X64707Y106880D02*
X68400D01*
X64707Y106800D02*
X68400D01*
X64707Y106720D02*
X68400D01*
X65091Y106560D02*
X65165D01*
X64707Y106640D02*
X68400D01*
X64707Y106560D02*
X64909D01*
X63570Y105920D02*
X68400D01*
X62840Y105840D02*
X68400D01*
X64707Y106408D02*
Y107000D01*
Y106480D02*
X64834D01*
X64093Y106408D02*
X64707D01*
X64069Y106400D02*
X64815D01*
X64815Y106139D02*
Y106399D01*
X63989Y106320D02*
X64815D01*
X63909Y106240D02*
X64815D01*
X63829Y106160D02*
X64815D01*
X63629Y105960D02*
X64093Y106424D01*
X63749Y106080D02*
X64825D01*
X63669Y106000D02*
X64879D01*
X63150Y105904D02*
X63494D01*
X62840Y105909D02*
X63107D01*
X64800Y105516D02*
Y107000D01*
X64720Y105516D02*
Y107000D01*
X64640Y105516D02*
Y106408D01*
X64560Y105516D02*
Y106408D01*
X64480Y105516D02*
Y106408D01*
X64400Y105516D02*
Y106408D01*
X64320Y105516D02*
Y106408D01*
X64240Y105516D02*
Y106408D01*
X64160Y105516D02*
Y106408D01*
X65040Y105516D02*
Y105959D01*
X64960Y105516D02*
Y105959D01*
X64880Y105516D02*
Y105999D01*
X63150Y105516D02*
X65474D01*
X64080D02*
Y106411D01*
X62840Y105760D02*
X68400D01*
X62840Y105680D02*
X68400D01*
X62840Y105600D02*
X68400D01*
X62840Y105520D02*
X68400D01*
X64000Y105516D02*
Y106331D01*
X63920Y105516D02*
Y106251D01*
X63840Y105516D02*
Y106171D01*
X63760Y105516D02*
Y106091D01*
X63680Y105516D02*
Y106011D01*
X63600Y105516D02*
Y105936D01*
X63520Y105516D02*
Y105906D01*
X63440Y105516D02*
Y105904D01*
X63360Y105516D02*
Y105904D01*
X63280Y105516D02*
Y105904D01*
X63200Y105516D02*
Y105904D01*
X63120Y105514D02*
Y105906D01*
X63040Y105511D02*
Y105909D01*
X62960Y105511D02*
Y105909D01*
X62880Y105511D02*
Y105909D01*
X62840Y105511D02*
X63107D01*
X62840D02*
Y105909D01*
X75200Y100900D02*
Y102300D01*
X75120Y100900D02*
Y102300D01*
X75040Y100900D02*
Y102300D01*
X74960Y100900D02*
Y102300D01*
X74880Y100900D02*
Y102300D01*
X74800Y100900D02*
Y102300D01*
X74720Y100900D02*
Y102300D01*
X74640Y100900D02*
Y102300D01*
X66700D02*
X75200D01*
X74560Y100900D02*
Y102300D01*
X74480Y100900D02*
Y102300D01*
X74400Y100900D02*
Y102300D01*
X74320Y100900D02*
Y102300D01*
X74240Y100900D02*
Y102300D01*
X74160Y100900D02*
Y102300D01*
X74080Y100900D02*
Y102300D01*
X74000Y100900D02*
Y102300D01*
X73920Y100900D02*
Y102300D01*
X73840Y100900D02*
Y102300D01*
X73760Y100900D02*
Y102300D01*
X73680Y100900D02*
Y102300D01*
X73600Y100900D02*
Y102300D01*
X73520Y100900D02*
Y102300D01*
X73440Y100900D02*
Y102300D01*
X65980Y101120D02*
X75200D01*
X66060Y101040D02*
X75200D01*
X73360Y100900D02*
Y102300D01*
X66140Y100960D02*
X75200D01*
X73280Y100900D02*
Y102300D01*
X73200Y100900D02*
Y102300D01*
X73120Y100900D02*
Y102300D01*
X73040Y100900D02*
Y102300D01*
X72960Y100900D02*
Y102300D01*
X72880Y100900D02*
Y102300D01*
X72800Y100900D02*
Y102300D01*
X72720Y100900D02*
Y102300D01*
X72640Y100900D02*
Y102300D01*
X72560Y100900D02*
Y102300D01*
X72480Y100900D02*
Y102300D01*
X72400Y100900D02*
Y102300D01*
X65958Y104640D02*
X66700D01*
X65953Y104560D02*
X66700D01*
X65953Y104480D02*
X66700D01*
X65939Y104400D02*
X66700D01*
Y102300D02*
Y104900D01*
X66160Y100940D02*
Y104900D01*
X66080Y101020D02*
Y104900D01*
X66000Y101100D02*
Y104900D01*
X72320Y100900D02*
Y102300D01*
X72240Y100900D02*
Y102300D01*
X72160Y100900D02*
Y102300D01*
X72080Y100900D02*
Y102300D01*
X72000Y100900D02*
Y102300D01*
X71920Y100900D02*
Y102300D01*
X71840Y100900D02*
Y102300D01*
X71760Y100900D02*
Y102300D01*
X71680Y100900D02*
Y102300D01*
X71600Y100900D02*
Y102300D01*
X71520Y100900D02*
Y102300D01*
X71440Y100900D02*
Y102300D01*
X71360Y100900D02*
Y102300D01*
X71280Y100900D02*
Y102300D01*
X71200Y100900D02*
Y102300D01*
X71120Y100900D02*
Y102300D01*
X71040Y100900D02*
Y102300D01*
X70960Y100900D02*
Y102300D01*
X70880Y100900D02*
Y102300D01*
X70800Y100900D02*
Y102300D01*
X70720Y100900D02*
Y102300D01*
X70640Y100900D02*
Y102300D01*
X70560Y100900D02*
Y102300D01*
X70480Y100900D02*
Y102300D01*
X70400Y100900D02*
Y102300D01*
X70320Y100900D02*
Y102300D01*
X70240Y100900D02*
Y102300D01*
X70160Y100900D02*
Y102300D01*
X70080Y100900D02*
Y102300D01*
X70000Y100900D02*
Y102300D01*
X69920Y100900D02*
Y102300D01*
X69840Y100900D02*
Y102300D01*
X69760Y100900D02*
Y102300D01*
X69680Y100900D02*
Y102300D01*
X69600Y100900D02*
Y102300D01*
X69520Y100900D02*
Y102300D01*
X69440Y100900D02*
Y102300D01*
X69360Y100900D02*
Y102300D01*
X69280Y100900D02*
Y102300D01*
X69200Y100900D02*
Y102300D01*
X69120Y100900D02*
Y102300D01*
X69040Y100900D02*
Y102300D01*
X68960Y100900D02*
Y102300D01*
X68880Y100900D02*
Y102300D01*
X66200Y100900D02*
X75200D01*
X68800D02*
Y102300D01*
X68720Y100900D02*
Y102300D01*
X68640Y100900D02*
Y102300D01*
X68560Y100900D02*
Y102300D01*
X68480Y100900D02*
Y102300D01*
X68400Y100900D02*
Y102300D01*
X68320Y100900D02*
Y102300D01*
X68240Y100900D02*
Y102300D01*
X68160Y100900D02*
Y102300D01*
X68080Y100900D02*
Y102300D01*
X68000Y100900D02*
Y102300D01*
X67920Y100900D02*
Y102300D01*
X66640Y100900D02*
Y104900D01*
X66560Y100900D02*
Y104900D01*
X66480Y100900D02*
Y104900D01*
X66400Y100900D02*
Y104900D01*
X66320Y100900D02*
Y104900D01*
X66240Y100900D02*
Y104900D01*
X67840Y100900D02*
Y102300D01*
X67760Y100900D02*
Y102300D01*
X67680Y100900D02*
Y102300D01*
X67600Y100900D02*
Y102300D01*
X67520Y100900D02*
Y102300D01*
X67440Y100900D02*
Y102300D01*
X67360Y100900D02*
Y102300D01*
X67280Y100900D02*
Y102300D01*
X67200Y100900D02*
Y102300D01*
X67120Y100900D02*
Y102300D01*
X67040Y100900D02*
Y102300D01*
X66960Y100900D02*
Y102300D01*
X66880Y100900D02*
Y102300D01*
X66800Y100900D02*
Y102300D01*
X66720Y100900D02*
Y102300D01*
X65958Y104900D02*
X66700D01*
X65958Y104880D02*
X66700D01*
X65120Y104855D02*
Y104900D01*
X65958Y104800D02*
X66700D01*
X65958Y104600D02*
Y104900D01*
Y104720D02*
X66700D01*
X65953Y104470D02*
Y104556D01*
X64507Y104900D02*
X65184D01*
X64507Y104880D02*
X65148D01*
X64507Y104800D02*
X65085D01*
X64507Y104720D02*
X65071D01*
X64507Y104640D02*
X65071D01*
X64507Y104408D02*
Y104900D01*
X65071Y104470D02*
Y104730D01*
X65876Y104320D02*
X66700D01*
X65620D02*
X65660D01*
X64507Y104560D02*
X65071D01*
X64507Y104480D02*
X65071D01*
X65364Y104320D02*
X65404D01*
X63700Y104240D02*
X66700D01*
X63700Y104160D02*
X66700D01*
X63700Y104400D02*
X65085D01*
X63700Y104320D02*
X65148D01*
X63700Y104080D02*
X66700D01*
X63700Y104000D02*
X66700D01*
X63700Y103920D02*
X66700D01*
X63700Y103840D02*
X66700D01*
X63786Y104880D02*
X63893Y104773D01*
X63150Y104880D02*
X63786D01*
X63150D02*
X63786D01*
X63680Y104500D02*
Y104880D01*
X63600Y104500D02*
Y104880D01*
X63040Y104500D02*
Y104885D01*
X62960Y104500D02*
Y104885D01*
X62740D02*
X63107D01*
X62880Y104500D02*
Y104885D01*
X62800Y104500D02*
Y104885D01*
X62500Y104900D02*
X62740D01*
X62720Y104500D02*
Y104900D01*
X62640Y104500D02*
Y104900D01*
X62560Y104500D02*
Y104900D01*
X62500Y104500D02*
Y104900D01*
X63520Y104500D02*
Y104880D01*
X63700Y104480D02*
X63893D01*
X63440Y104500D02*
Y104880D01*
X63360Y104500D02*
Y104880D01*
X63893Y104408D02*
Y104773D01*
Y104408D02*
X64507D01*
X63280Y104500D02*
Y104880D01*
X63200Y104500D02*
Y104880D01*
X62500Y104720D02*
X63893D01*
X62500Y104640D02*
X63893D01*
X62500Y104880D02*
X63150D01*
X62500Y104800D02*
X63866D01*
X62500Y104560D02*
X63893D01*
X62500Y104500D02*
X63700D01*
X63120D02*
Y104882D01*
X63980Y103120D02*
X66700D01*
X64060Y103040D02*
X66700D01*
X64140Y102960D02*
X66700D01*
X64220Y102880D02*
X66700D01*
X64300Y102800D02*
X66700D01*
X64380Y102720D02*
X66700D01*
X64460Y102640D02*
X66700D01*
X64540Y102560D02*
X66700D01*
X63700Y103760D02*
X66700D01*
X63700Y103680D02*
X66700D01*
X63700Y103600D02*
X66700D01*
X63700Y103520D02*
X66700D01*
X63700Y103440D02*
X66700D01*
X63740Y103360D02*
X66700D01*
X63820Y103280D02*
X66700D01*
X63900Y103200D02*
X66700D01*
X65340Y101760D02*
X75200D01*
X65420Y101680D02*
X75200D01*
X65500Y101600D02*
X75200D01*
X65580Y101520D02*
X75200D01*
X65660Y101440D02*
X75200D01*
X65740Y101360D02*
X75200D01*
X65820Y101280D02*
X75200D01*
X65900Y101200D02*
X75200D01*
X64860Y102240D02*
X75200D01*
X64940Y102160D02*
X75200D01*
X64620Y102480D02*
X66700D01*
X64700Y102400D02*
X66700D01*
X65020Y102080D02*
X75200D01*
X65100Y102000D02*
X75200D01*
X65180Y101920D02*
X75200D01*
X65260Y101840D02*
X75200D01*
X64720Y102380D02*
Y104900D01*
X64640Y102460D02*
Y104900D01*
X64560Y102540D02*
Y104900D01*
X64480Y102620D02*
Y104408D01*
X65040Y102060D02*
Y104900D01*
X64960Y102140D02*
Y104900D01*
X64880Y102220D02*
Y104900D01*
X64800Y102300D02*
Y104900D01*
X63840Y103260D02*
Y104826D01*
X64080Y103020D02*
Y104408D01*
X63760Y103340D02*
Y104880D01*
X63700Y103400D02*
Y104500D01*
X64400Y102700D02*
Y104408D01*
X64320Y102780D02*
Y104408D01*
X64240Y102860D02*
Y104408D01*
X64160Y102940D02*
Y104408D01*
X65600Y101500D02*
Y104308D01*
X65520Y101580D02*
Y104285D01*
X65440Y101660D02*
Y104300D01*
X65360Y101740D02*
Y104317D01*
X65920Y101180D02*
Y104365D01*
X65840Y101260D02*
Y104300D01*
X65680Y101420D02*
Y104307D01*
X65760Y101340D02*
Y104285D01*
X65120Y101980D02*
Y104345D01*
X64780Y102320D02*
X66700D01*
X64000Y103100D02*
Y104408D01*
X63920Y103180D02*
Y104408D01*
X65280Y101820D02*
Y104287D01*
X63700Y103400D02*
X66200Y100900D01*
X65200Y101900D02*
Y104294D01*
X59562Y110078D02*
Y110322D01*
X59520Y110059D02*
Y110341D01*
X59450Y110467D02*
Y112100D01*
Y108041D02*
Y109933D01*
X59440Y108041D02*
Y112100D01*
X59360Y108041D02*
Y112100D01*
X59280Y108041D02*
Y112100D01*
X59200Y108041D02*
Y112100D01*
X59120Y108041D02*
Y112100D01*
X59040Y108041D02*
Y112100D01*
X58960Y108041D02*
Y112100D01*
X52556Y110800D02*
X59450D01*
X52443Y110880D02*
X59450D01*
X52676Y110640D02*
X59450D01*
X52628Y110720D02*
X59450D01*
X52708Y110560D02*
X59450D01*
X52726Y110480D02*
X59450D01*
X58838Y110400D02*
X59466D01*
X57200Y110467D02*
X58838D01*
Y110320D02*
X59562D01*
X58838Y110240D02*
X59562D01*
X58838Y110160D02*
X59562D01*
X58838Y110080D02*
X59562D01*
X58880Y108041D02*
Y112100D01*
X58838Y109933D02*
Y110467D01*
Y110000D02*
X59466D01*
X61200Y106279D02*
Y106350D01*
X59600D02*
X61200D01*
X61120Y106279D02*
Y106350D01*
X61040Y106279D02*
Y106350D01*
X59450Y106500D02*
Y106758D01*
X60960Y106279D02*
Y106350D01*
X60880Y106279D02*
Y106350D01*
X60800Y106279D02*
Y106350D01*
X60720Y106279D02*
Y106350D01*
X60640Y106279D02*
Y106350D01*
X60560Y106279D02*
Y106350D01*
X60480Y106279D02*
Y106350D01*
X52443Y109920D02*
X59450D01*
X52433Y108720D02*
X59450D01*
X52624Y108560D02*
X59450D01*
X52550Y108640D02*
X59450D01*
X57200Y109933D02*
X58838D01*
X52673Y108480D02*
X59450D01*
X52706Y108400D02*
X59450D01*
X52725Y108320D02*
X59450D01*
X52732Y108240D02*
X59450D01*
X52727Y108160D02*
X59450D01*
X58824Y108041D02*
X59450D01*
X52710Y108080D02*
X59450D01*
X58824Y106758D02*
X59450D01*
X58800Y110467D02*
Y112100D01*
X58720Y110467D02*
Y112100D01*
X58640Y110467D02*
Y112100D01*
X58560Y110467D02*
Y112100D01*
X58480Y110467D02*
Y112100D01*
X58400Y110467D02*
Y112100D01*
X58320Y110467D02*
Y112100D01*
X58240Y110467D02*
Y112100D01*
X58160Y110467D02*
Y112100D01*
X58080Y110467D02*
Y112100D01*
X58000Y110467D02*
Y112100D01*
X57920Y110467D02*
Y112100D01*
X57840Y110467D02*
Y112100D01*
X57760Y110467D02*
Y112100D01*
X57680Y110467D02*
Y112100D01*
X52560Y110797D02*
Y112100D01*
X52480Y110859D02*
Y112100D01*
X52400Y110900D02*
Y112100D01*
X52320Y110927D02*
Y112100D01*
X52240Y110941D02*
Y112100D01*
X52160Y110942D02*
Y112100D01*
X52080Y110932D02*
Y112100D01*
X52000Y110909D02*
Y112100D01*
X57600Y110467D02*
Y112100D01*
X57520Y110467D02*
Y112100D01*
X57440Y110467D02*
Y112100D01*
X57360Y110467D02*
Y112100D01*
X57280Y110467D02*
Y112100D01*
X52720Y110514D02*
Y112100D01*
X52640Y110702D02*
Y112100D01*
X52732Y110400D02*
X57200D01*
X52726Y110320D02*
X57200D01*
X52708Y110240D02*
X57200D01*
X52676Y110160D02*
X57200D01*
X52628Y110080D02*
X57200D01*
X58824Y106758D02*
Y108041D01*
X52679Y108000D02*
X58824D01*
X52632Y107920D02*
X58824D01*
X57200Y109933D02*
Y110467D01*
X52720Y108348D02*
Y110286D01*
X52640Y108537D02*
Y110098D01*
X52556Y110000D02*
X57200D01*
X52400Y108735D02*
Y109900D01*
X52320Y108762D02*
Y109873D01*
X52240Y108775D02*
Y109859D01*
X51920Y110872D02*
Y112100D01*
X51840Y110816D02*
Y112100D01*
X52160Y108777D02*
Y109858D01*
X52080Y108767D02*
Y109868D01*
X52560Y108631D02*
Y110003D01*
X52480Y108693D02*
Y109941D01*
X52562Y107840D02*
X58824D01*
X52453Y107760D02*
X58824D01*
X51920Y108706D02*
Y109928D01*
X51840Y108651D02*
Y109984D01*
X52000Y108744D02*
Y109891D01*
X58800Y105700D02*
Y109933D01*
X58720Y105700D02*
Y109933D01*
X58640Y105700D02*
Y109933D01*
X58560Y105700D02*
Y109933D01*
X58480Y105700D02*
Y109933D01*
X58400Y105700D02*
Y109933D01*
X58320Y105700D02*
Y109933D01*
X58240Y105700D02*
Y109933D01*
X58160Y105700D02*
Y109933D01*
X58080Y105700D02*
Y109933D01*
X58000Y105700D02*
Y109933D01*
X57920Y105700D02*
Y109933D01*
X57840Y105700D02*
Y109933D01*
X57760Y105700D02*
Y109933D01*
X57680Y105700D02*
Y109933D01*
X57600Y105700D02*
Y109933D01*
X57520Y105700D02*
Y109933D01*
X57440Y105700D02*
Y109933D01*
X57360Y105700D02*
Y109933D01*
X57200Y105700D02*
Y112100D01*
X57120Y105700D02*
Y112100D01*
X57280Y105700D02*
Y109933D01*
X57040Y105700D02*
Y112100D01*
X56960Y105700D02*
Y112100D01*
X56880Y105700D02*
Y112100D01*
X56800Y105700D02*
Y112100D01*
X56720Y105700D02*
Y112100D01*
X56640Y105700D02*
Y112100D01*
X56560Y105700D02*
Y112100D01*
X56480Y105700D02*
Y112100D01*
X60440Y106279D02*
X61200D01*
X60440Y106023D02*
Y106279D01*
Y105909D02*
Y106023D01*
Y105909D02*
Y106023D01*
Y105767D02*
Y105909D01*
X60400Y105700D02*
Y106350D01*
X60320Y105700D02*
Y106350D01*
X60440Y105700D02*
Y105767D01*
Y105700D02*
Y105767D01*
X60240Y105700D02*
Y106350D01*
X60160Y105700D02*
Y106350D01*
X60080Y105700D02*
Y106350D01*
X60000Y105700D02*
Y106350D01*
X59920Y105700D02*
Y106350D01*
X59840Y105700D02*
Y106350D01*
X59760Y105700D02*
Y106350D01*
X59520Y105700D02*
Y106373D01*
X59440Y105700D02*
Y106758D01*
X59680Y105700D02*
Y106350D01*
X59600Y105700D02*
Y106350D01*
X59360Y105700D02*
Y106758D01*
X59280Y105700D02*
Y106758D01*
X59200Y105700D02*
Y106758D01*
X59120Y105700D02*
Y106758D01*
X59040Y105700D02*
Y106758D01*
X58960Y105700D02*
Y106758D01*
X58880Y105700D02*
Y106758D01*
X56400Y105700D02*
Y112100D01*
X56320Y105700D02*
Y112100D01*
X56240Y105700D02*
Y112100D01*
X56160Y105700D02*
Y112100D01*
X56080Y105700D02*
Y112100D01*
X56000Y105700D02*
Y112100D01*
X55920Y105700D02*
Y112100D01*
X55840Y105700D02*
Y112100D01*
X55760Y105700D02*
Y112100D01*
X55680Y105700D02*
Y112100D01*
X55600Y105700D02*
Y112100D01*
X55520Y105700D02*
Y112100D01*
X55440Y105700D02*
Y112100D01*
X55360Y105700D02*
Y112100D01*
X55280Y105700D02*
Y112100D01*
X55200Y105700D02*
Y112100D01*
X55120Y105700D02*
Y112100D01*
X55040Y105700D02*
Y112100D01*
X54960Y105700D02*
Y112100D01*
X54880Y105700D02*
Y112100D01*
X54800Y105700D02*
Y112100D01*
X54720Y105700D02*
Y112100D01*
X54640Y105700D02*
Y112100D01*
X54560Y105700D02*
Y112100D01*
X54480Y105700D02*
Y112100D01*
X54400Y105700D02*
Y112100D01*
X54320Y105700D02*
Y112100D01*
X54240Y105700D02*
Y112100D01*
X54160Y105700D02*
Y112100D01*
X54080Y105700D02*
Y112100D01*
X54000Y105700D02*
Y112100D01*
X53920Y105700D02*
Y112100D01*
X53840Y105700D02*
Y112100D01*
X53760Y105700D02*
Y112100D01*
X53680Y105700D02*
Y112100D01*
X53600Y105700D02*
Y112100D01*
X53520Y105700D02*
Y112100D01*
X53440Y105700D02*
Y112100D01*
X53360Y105700D02*
Y112100D01*
X53280Y105700D02*
Y112100D01*
X53200Y105700D02*
Y112100D01*
X53120Y105700D02*
Y112100D01*
X53040Y105700D02*
Y112100D01*
X52960Y105700D02*
Y112100D01*
X52880Y105700D02*
Y112100D01*
X52800Y105700D02*
Y112100D01*
X52720Y105700D02*
Y108121D01*
X52640Y105700D02*
Y107932D01*
X52560Y105700D02*
Y107838D01*
X52480Y105700D02*
Y107776D01*
X52400Y105700D02*
Y107734D01*
X52320Y105700D02*
Y107708D01*
X52080Y105700D02*
Y107703D01*
X52000Y105700D02*
Y107726D01*
X52240Y105700D02*
Y107694D01*
X52160Y105700D02*
Y107692D01*
X51840Y105700D02*
Y107819D01*
X51760Y105700D02*
Y107902D01*
X51920Y105700D02*
Y107763D01*
X50880Y110820D02*
Y112100D01*
X48400D02*
X59450D01*
X50903Y110800D02*
X51822D01*
X50789Y110880D02*
X51935D01*
X50800Y110874D02*
Y112100D01*
X50720Y110911D02*
Y112100D01*
X50640Y110933D02*
Y112100D01*
X50560Y110943D02*
Y112100D01*
X51760Y110733D02*
Y112100D01*
X51680Y110589D02*
Y112100D01*
X50974Y110720D02*
X51750D01*
X51040Y110601D02*
Y112100D01*
X50960Y110739D02*
Y112100D01*
X48400Y112080D02*
X59450D01*
X48400Y112000D02*
X59450D01*
X48400Y111920D02*
X59450D01*
X48400Y111840D02*
X59450D01*
X48400Y111760D02*
X59450D01*
X48400Y111680D02*
X59450D01*
X48400Y111600D02*
X59450D01*
X48400Y111520D02*
X59450D01*
X48400Y111440D02*
X59450D01*
X48400Y111360D02*
X59450D01*
X48400Y111280D02*
X59450D01*
X48400Y111200D02*
X59450D01*
X48400Y111120D02*
X59450D01*
X48400Y111040D02*
X59450D01*
X48400Y110960D02*
X59450D01*
X51054Y110560D02*
X51670D01*
X51023Y110640D02*
X51702D01*
X51023Y110160D02*
X51702D01*
X50974Y110080D02*
X51750D01*
X51073Y110480D02*
X51652D01*
X51079Y110400D02*
X51646D01*
X51073Y110320D02*
X51652D01*
X51054Y110240D02*
X51670D01*
X50903Y110000D02*
X51822D01*
X50789Y109920D02*
X51935D01*
X50800Y108709D02*
Y109926D01*
X50779Y108720D02*
X51945D01*
X50720Y108745D02*
Y109889D01*
X50640Y108768D02*
Y109867D01*
X50560Y108777D02*
Y109857D01*
X48400Y109840D02*
X59450D01*
X48400Y109760D02*
X59450D01*
X48400Y109680D02*
X59450D01*
X48400Y109600D02*
X59450D01*
X48400Y109520D02*
X59450D01*
X48400Y109440D02*
X59450D01*
X48400Y109360D02*
X59450D01*
X48400Y109280D02*
X59450D01*
X48400Y109200D02*
X59450D01*
X48400Y109120D02*
X59450D01*
X48400Y109040D02*
X59450D01*
X48400Y108960D02*
X59450D01*
X48400Y108880D02*
X59450D01*
X48400Y108800D02*
X59450D01*
X50480Y110940D02*
Y112100D01*
X50400Y110926D02*
Y112100D01*
X50320Y110899D02*
Y112100D01*
X49136Y110880D02*
X50281D01*
X50240Y110856D02*
Y112100D01*
X49200Y110840D02*
Y112100D01*
X49249Y110800D02*
X50168D01*
X49120Y110888D02*
Y112100D01*
X50160Y110792D02*
Y112100D01*
X50080Y110696D02*
Y112100D01*
X49321Y110720D02*
X50097D01*
X50000Y110491D02*
Y112100D01*
X49360Y110658D02*
Y112100D01*
X49280Y110769D02*
Y112100D01*
X49040Y110920D02*
Y112100D01*
X48960Y110937D02*
Y112100D01*
X48880Y110943D02*
Y112100D01*
X48800Y110937D02*
Y112100D01*
X48720Y110918D02*
Y112100D01*
X48640Y110886D02*
Y112100D01*
X48560Y110837D02*
Y112100D01*
X48400Y110880D02*
X48628D01*
X48480Y110765D02*
Y112100D01*
X48400Y110800D02*
X48515D01*
X48400Y110650D02*
Y112100D01*
Y110650D02*
Y112100D01*
Y110720D02*
X48443D01*
X49401Y110560D02*
X50016D01*
X49369Y110640D02*
X50048D01*
X49369Y110160D02*
X50048D01*
X49425Y110400D02*
X49992D01*
X49419Y110480D02*
X49998D01*
X49419Y110320D02*
X49998D01*
X49401Y110240D02*
X50016D01*
X50320Y108733D02*
Y109901D01*
X50480Y108775D02*
Y109860D01*
X50400Y108761D02*
Y109874D01*
X49321Y110080D02*
X50097D01*
X49249Y110000D02*
X50168D01*
X49136Y109920D02*
X50281D01*
X48960Y108772D02*
Y109863D01*
X48400Y110080D02*
X48443D01*
X48400Y110000D02*
X48515D01*
X48400Y109920D02*
X48628D01*
X49120Y108723D02*
Y109912D01*
X49040Y108754D02*
Y109880D01*
X49126Y108720D02*
X50292D01*
X48880Y108778D02*
Y109857D01*
X48720Y108753D02*
Y109882D01*
X48640Y108721D02*
Y109914D01*
X48800Y108772D02*
Y109863D01*
X51760Y108568D02*
Y110067D01*
X51680Y108424D02*
Y110211D01*
Y105700D02*
Y108045D01*
X51072Y108320D02*
X51653D01*
X51040Y108435D02*
Y110199D01*
X51078Y108240D02*
X51646D01*
X51073Y108160D02*
X51651D01*
X51600Y105700D02*
Y112100D01*
X51520Y105700D02*
Y112100D01*
X51440Y105700D02*
Y112100D01*
X51360Y105700D02*
Y112100D01*
X51280Y105700D02*
Y112100D01*
X51200Y105700D02*
Y112100D01*
X51120Y105700D02*
Y112100D01*
X50970Y108560D02*
X51754D01*
X50897Y108640D02*
X51828D01*
X51053Y108400D02*
X51672D01*
X51020Y108480D02*
X51704D01*
X50960Y108573D02*
Y110061D01*
X50880Y108654D02*
Y109980D01*
X51056Y108080D02*
X51668D01*
X51025Y108000D02*
X51699D01*
X50978Y107920D02*
X51746D01*
X50908Y107840D02*
X51816D01*
X50799Y107760D02*
X51925D01*
X51040Y105700D02*
Y108034D01*
X50960Y105700D02*
Y107896D01*
X50880Y105700D02*
Y107815D01*
X48400Y107680D02*
X58824D01*
X48400Y107600D02*
X58824D01*
X48400Y107520D02*
X58824D01*
X48400Y107440D02*
X58824D01*
X48400Y107360D02*
X58824D01*
X48400Y107280D02*
X58824D01*
X48400Y107200D02*
X58824D01*
X48400Y107120D02*
X58824D01*
X50800Y105700D02*
Y107760D01*
X48400Y107040D02*
X58824D01*
X48400Y106960D02*
X58824D01*
X48400Y106880D02*
X58824D01*
X50720Y105700D02*
Y107724D01*
X50640Y105700D02*
Y107702D01*
X50560Y105700D02*
Y107692D01*
X48400Y106720D02*
X59450D01*
X48400Y106400D02*
X59488D01*
X48400Y106320D02*
X61200D01*
X48400Y106240D02*
X60440D01*
X48400Y106800D02*
X58824D01*
X48400Y106640D02*
X59450D01*
X48400Y106560D02*
X59450D01*
X48400Y106480D02*
X59451D01*
X48400Y106160D02*
X60440D01*
X48400Y106080D02*
X60440D01*
X48400Y106000D02*
X60440D01*
X48400Y105920D02*
X60440D01*
X48400Y105840D02*
X60440D01*
X48400Y105760D02*
X60440D01*
X48400Y105700D02*
X60440D01*
X50160Y108627D02*
Y110008D01*
X50080Y108530D02*
Y110104D01*
X50240Y108690D02*
Y109944D01*
X49399Y108400D02*
X50018D01*
X50000Y108325D02*
Y110309D01*
X49418Y108320D02*
X49999D01*
X49425Y108240D02*
X49992D01*
X49420Y108160D02*
X49998D01*
X49920Y105700D02*
Y112100D01*
X49840Y105700D02*
Y112100D01*
X49760Y105700D02*
Y112100D01*
X49680Y105700D02*
Y112100D01*
X49600Y105700D02*
Y112100D01*
X49520Y105700D02*
Y112100D01*
X49440Y105700D02*
Y112100D01*
X49280Y108604D02*
Y110031D01*
X49200Y108675D02*
Y109960D01*
X49317Y108560D02*
X50101D01*
X49243Y108640D02*
X50174D01*
X48560Y108672D02*
Y109963D01*
X48480Y108600D02*
Y110035D01*
X48400Y108720D02*
X48638D01*
X48400Y108640D02*
X48520D01*
X49360Y108492D02*
Y110142D01*
X49366Y108480D02*
X50051D01*
X48400Y108485D02*
Y110150D01*
Y108485D02*
Y110150D01*
Y108560D02*
X48447D01*
X50320Y105700D02*
Y107736D01*
X49146Y107760D02*
X50272D01*
X50480Y105700D02*
Y107694D01*
X50400Y105700D02*
Y107709D01*
X49402Y108080D02*
X50015D01*
X49372Y108000D02*
X50046D01*
X49325Y107920D02*
X50093D01*
X49255Y107840D02*
X50162D01*
X50080Y105700D02*
Y107939D01*
X50000Y105700D02*
Y108144D01*
X50240Y105700D02*
Y107779D01*
X50160Y105700D02*
Y107842D01*
X49360Y105700D02*
Y107977D01*
X49280Y105700D02*
Y107865D01*
X49200Y105700D02*
Y107795D01*
X49120Y105700D02*
Y107747D01*
X49040Y105700D02*
Y107715D01*
X48960Y105700D02*
Y107697D01*
X48880Y105700D02*
Y107692D01*
X48400Y107920D02*
X48439D01*
X48400Y107840D02*
X48509D01*
X48400Y107760D02*
X48618D01*
X48640Y105700D02*
Y107748D01*
X48560Y105700D02*
Y107797D01*
X48800Y105700D02*
Y107698D01*
X48720Y105700D02*
Y107716D01*
X48400Y105700D02*
Y107984D01*
Y105700D02*
Y107984D01*
X48480Y105700D02*
Y107869D01*
X58600Y100800D02*
Y101465D01*
Y102135D02*
Y103465D01*
X59023Y104558D02*
X60850D01*
X58600Y104135D02*
X59023Y104558D01*
X73800Y104060D02*
X74640D01*
X63150Y102650D02*
Y104302D01*
Y102650D02*
X65400Y100400D01*
X75500D01*
X75800Y100700D01*
Y102900D01*
X74640Y104060D02*
X75800Y102900D01*
X61200Y110400D02*
X63000D01*
X61200Y110320D02*
X63000D01*
X61200Y110240D02*
X63000D01*
X61200Y110160D02*
X63000D01*
X61200Y110080D02*
X63000D01*
X61200Y110000D02*
X63000D01*
X61200Y109933D02*
Y110467D01*
X60776Y108000D02*
X63000D01*
X61120Y110467D02*
Y112400D01*
X60776Y107920D02*
X63000D01*
X60776Y107840D02*
X63000D01*
X60776Y107760D02*
X63000D01*
X60776Y107680D02*
X63000D01*
X60776Y107600D02*
X63000D01*
X60776Y107520D02*
X63000D01*
X60776Y107440D02*
X63000D01*
X60776Y107360D02*
X63000D01*
X60776Y107280D02*
X63000D01*
X60776Y107200D02*
X63000D01*
X60776Y107120D02*
X63000D01*
X60776Y107040D02*
X63000D01*
X60776Y106960D02*
X63000D01*
X60776Y106880D02*
X63000D01*
X60776Y106800D02*
X63000D01*
X61040Y110467D02*
Y112400D01*
X60960Y110467D02*
Y112400D01*
X60880Y110467D02*
Y112400D01*
X60800Y110467D02*
Y112400D01*
X60720Y110467D02*
Y112400D01*
X60640Y110467D02*
Y112400D01*
X60560Y110467D02*
Y112400D01*
X60480Y110467D02*
Y112400D01*
X60400Y110467D02*
Y112400D01*
X60320Y110467D02*
Y112400D01*
X60240Y110467D02*
Y112400D01*
X60160Y110467D02*
Y112400D01*
X60720Y108041D02*
Y109933D01*
X60640Y108041D02*
Y109933D01*
X60560Y108041D02*
Y109933D01*
X60480Y108041D02*
Y109933D01*
X60400Y108041D02*
Y109933D01*
X60320Y108041D02*
Y109933D01*
X60240Y108041D02*
Y109933D01*
X60160Y108041D02*
Y109933D01*
X63000Y106500D02*
Y112400D01*
X62720Y106590D02*
Y112400D01*
X62640Y106590D02*
Y112400D01*
X62560Y106590D02*
Y112400D01*
X62960Y106500D02*
Y112400D01*
X62880Y106500D02*
Y112400D01*
X62800Y106500D02*
Y112400D01*
X62480Y106590D02*
Y112400D01*
X62400Y106590D02*
Y112400D01*
X62320Y106590D02*
Y112400D01*
X62240Y106590D02*
Y112400D01*
X62160Y106587D02*
Y112400D01*
X62080Y106587D02*
Y112400D01*
X62200Y106590D02*
X62780D01*
Y106560D02*
X63000D01*
X62000Y106587D02*
Y112400D01*
X62780Y106500D02*
Y106590D01*
Y106500D02*
X63000D01*
X61920Y106587D02*
Y112400D01*
X61800Y106587D02*
X62200D01*
X61840D02*
Y112400D01*
X61220Y106590D02*
X61800D01*
X61760D02*
Y112400D01*
X61680Y106590D02*
Y112400D01*
X61600Y106590D02*
Y112400D01*
X61520Y106590D02*
Y112400D01*
X61440Y106590D02*
Y112400D01*
X61360Y106590D02*
Y112400D01*
X61280Y106590D02*
Y112400D01*
X61200Y106500D02*
Y112400D01*
X61120Y106500D02*
Y109933D01*
X61040Y106500D02*
Y109933D01*
X60960Y106500D02*
Y109933D01*
X60880Y106500D02*
Y109933D01*
X60800Y106500D02*
Y109933D01*
X60776Y106758D02*
Y108041D01*
X61220Y106500D02*
Y106590D01*
X60720Y106500D02*
Y106758D01*
X60640Y106500D02*
Y106758D01*
X60560Y106500D02*
Y106758D01*
X60480Y106500D02*
Y106758D01*
X60400Y106500D02*
Y106758D01*
X60320Y106500D02*
Y106758D01*
X60240Y106500D02*
Y106758D01*
X60160Y106500D02*
Y106758D01*
X59600Y112400D02*
X63000D01*
X59600Y112320D02*
X63000D01*
X59600Y112240D02*
X63000D01*
X59600Y112160D02*
X63000D01*
X59600Y112080D02*
X63000D01*
X59600Y112000D02*
X63000D01*
X59600Y111920D02*
X63000D01*
X59600Y111840D02*
X63000D01*
X59600Y111760D02*
X63000D01*
X59600Y111680D02*
X63000D01*
X59600Y111600D02*
X63000D01*
X59600Y111520D02*
X63000D01*
X59600Y111440D02*
X63000D01*
X59600Y111360D02*
X63000D01*
X59600Y111280D02*
X63000D01*
X59600Y111200D02*
X63000D01*
X59600Y111120D02*
X63000D01*
X59600Y111040D02*
X63000D01*
X59600Y110960D02*
X63000D01*
X59600Y110880D02*
X63000D01*
X59600Y110800D02*
X63000D01*
X59600Y110720D02*
X63000D01*
X59600Y110640D02*
X63000D01*
X59600Y110560D02*
X63000D01*
X59600Y110480D02*
X63000D01*
X60080Y110467D02*
Y112400D01*
X60000Y110467D02*
Y112400D01*
X59920Y110467D02*
Y112400D01*
X59840Y110467D02*
Y112400D01*
X59760Y110467D02*
Y112400D01*
X59680Y110467D02*
Y112400D01*
X59600Y110467D02*
Y112400D01*
Y110467D02*
X61200D01*
X59600D02*
Y112400D01*
Y109920D02*
X63000D01*
X59600Y109840D02*
X63000D01*
X59600Y109933D02*
X61200D01*
X59600Y109760D02*
X63000D01*
X59600Y109680D02*
X63000D01*
X59600Y109600D02*
X63000D01*
X59600Y109520D02*
X63000D01*
X59600Y109440D02*
X63000D01*
X59600Y109360D02*
X63000D01*
X59600Y109280D02*
X63000D01*
X59600Y109200D02*
X63000D01*
X59600Y109120D02*
X63000D01*
X59600Y109040D02*
X63000D01*
X59600Y108960D02*
X63000D01*
X59600Y108880D02*
X63000D01*
X59600Y108800D02*
X63000D01*
X59600Y108720D02*
X63000D01*
X59600Y108640D02*
X63000D01*
X59600Y108560D02*
X63000D01*
X60080Y108041D02*
Y109933D01*
X59926Y108041D02*
X60776D01*
X60000D02*
Y109933D01*
X59600Y108480D02*
X63000D01*
X59600Y108400D02*
X63000D01*
X59600Y108320D02*
X63000D01*
X59600Y108240D02*
X63000D01*
X59600Y108160D02*
X63000D01*
X59600Y108080D02*
X63000D01*
X59674Y108000D02*
X59926D01*
X59674Y107920D02*
X59926D01*
Y106758D02*
X60776D01*
X60080Y106500D02*
Y106758D01*
X60000Y106500D02*
Y106758D01*
X59674Y107840D02*
X59926D01*
X59600Y106720D02*
X63000D01*
X59674Y107760D02*
X59926D01*
X59600Y106640D02*
X63000D01*
X59600Y106560D02*
X61220D01*
X59600Y106500D02*
X61220D01*
X59920D02*
Y109933D01*
X59926Y106758D02*
Y108041D01*
X59674Y106758D02*
Y108041D01*
X59840Y106500D02*
Y109933D01*
X59760Y106500D02*
Y109933D01*
X59680Y106500D02*
Y109933D01*
X59600Y108041D02*
Y109933D01*
Y108041D02*
X59674D01*
X59600D02*
Y109933D01*
X59674Y107680D02*
X59926D01*
X59674Y107600D02*
X59926D01*
X59674Y107520D02*
X59926D01*
X59674Y107440D02*
X59926D01*
X59674Y107360D02*
X59926D01*
X59674Y107280D02*
X59926D01*
X59674Y107200D02*
X59926D01*
X59674Y107120D02*
X59926D01*
X59674Y107040D02*
X59926D01*
X59674Y106960D02*
X59926D01*
X59674Y106880D02*
X59926D01*
X59674Y106800D02*
X59926D01*
X59600Y106758D02*
X59674D01*
X59600Y106500D02*
Y106758D01*
Y106500D02*
Y106758D01*
X31426Y49900D02*
Y51300D01*
X32500Y50300D02*
X32706Y50094D01*
X32100Y51400D02*
X32500Y51000D01*
X32706Y50094D02*
X33193D01*
X32500Y50300D02*
Y51000D01*
X34200Y49560D02*
Y50700D01*
X33600Y51300D02*
X34200Y50700D01*
X34000Y49360D02*
X34200Y49560D01*
X34000Y49000D02*
X34300Y48700D01*
X34000Y49000D02*
Y49360D01*
X58326Y77200D02*
Y78600D01*
X59400Y77600D02*
X59606Y77394D01*
X59000Y78700D02*
X59400Y78300D01*
X59606Y77394D02*
X60093D01*
X59400Y77600D02*
Y78300D01*
X61100Y76860D02*
Y78000D01*
X60500Y78600D02*
X61100Y78000D01*
X60900Y76660D02*
X61100Y76860D01*
X60900Y76300D02*
X61200Y76000D01*
X60900Y76300D02*
Y76660D01*
D11*
X60850Y106094D02*
D03*
X63150D02*
D03*
X60850Y105838D02*
D03*
Y105582D02*
D03*
Y105326D02*
D03*
Y105070D02*
D03*
Y104814D02*
D03*
Y104558D02*
D03*
Y104302D02*
D03*
X63150Y105838D02*
D03*
Y105582D02*
D03*
Y105326D02*
D03*
Y105070D02*
D03*
Y104814D02*
D03*
Y104558D02*
D03*
Y104302D02*
D03*
D12*
X62000Y105200D02*
D03*
D13*
X62490D02*
D03*
X61510D02*
D03*
D14*
X62000Y106090D02*
D03*
Y104310D02*
D03*
D15*
X64400Y106065D02*
D03*
Y106735D02*
D03*
X64200Y104065D02*
D03*
Y104735D02*
D03*
X58600Y104135D02*
D03*
Y103465D02*
D03*
Y101465D02*
D03*
Y102135D02*
D03*
D16*
X71729Y106000D02*
D03*
X67871D02*
D03*
D17*
X60381Y110200D02*
D03*
X58019D02*
D03*
D18*
X59249Y107400D02*
D03*
X60351D02*
D03*
D19*
X65000Y104600D02*
D03*
D20*
X65256D02*
D03*
X65512D02*
D03*
X65768D02*
D03*
X65000Y106269D02*
D03*
X65256D02*
D03*
X65512D02*
D03*
X65768D02*
D03*
D21*
X73800Y101540D02*
D03*
Y104060D02*
D03*
X73100Y77260D02*
D03*
Y74740D02*
D03*
X46200Y47440D02*
D03*
Y49960D02*
D03*
D22*
X60093Y77394D02*
D03*
X60093Y77197D02*
D03*
X60093Y77000D02*
D03*
Y76803D02*
D03*
Y76606D02*
D03*
X61707Y77197D02*
D03*
Y77000D02*
D03*
Y76803D02*
D03*
Y76606D02*
D03*
X33193Y50094D02*
D03*
X33193Y49897D02*
D03*
X33193Y49700D02*
D03*
Y49503D02*
D03*
Y49306D02*
D03*
X34807Y49897D02*
D03*
Y49700D02*
D03*
Y49503D02*
D03*
Y49306D02*
D03*
X68293Y76194D02*
D03*
X68293Y75997D02*
D03*
X68293Y75800D02*
D03*
Y75603D02*
D03*
Y75406D02*
D03*
X69907Y75997D02*
D03*
Y75800D02*
D03*
Y75603D02*
D03*
Y75406D02*
D03*
X43007Y48106D02*
D03*
X41393D02*
D03*
X43007Y48303D02*
D03*
Y48500D02*
D03*
Y48697D02*
D03*
X41393D02*
D03*
X41393Y48894D02*
D03*
X41393Y48500D02*
D03*
Y48303D02*
D03*
D23*
X61707Y77394D02*
D03*
X34807Y50094D02*
D03*
X69907Y76194D02*
D03*
X43007Y48894D02*
D03*
D24*
X68900Y61049D02*
D03*
Y62151D02*
D03*
X37400Y50051D02*
D03*
Y48949D02*
D03*
X64300Y77351D02*
D03*
Y76249D02*
D03*
X57500Y75049D02*
D03*
Y76151D02*
D03*
X64500Y74049D02*
D03*
Y75151D02*
D03*
X57300Y96351D02*
D03*
Y95249D02*
D03*
X37600Y47851D02*
D03*
X30600Y48851D02*
D03*
X41800Y37951D02*
D03*
X37600Y46749D02*
D03*
X30600Y47749D02*
D03*
X41800Y36849D02*
D03*
D25*
X62689Y90604D02*
D03*
Y90860D02*
D03*
Y91116D02*
D03*
Y91372D02*
D03*
Y91628D02*
D03*
Y91884D02*
D03*
Y92140D02*
D03*
Y92396D02*
D03*
X60111Y90604D02*
D03*
Y90860D02*
D03*
Y91116D02*
D03*
Y91372D02*
D03*
Y91628D02*
D03*
Y91884D02*
D03*
Y92140D02*
D03*
X62911Y37216D02*
D03*
X65489Y37728D02*
D03*
X62911D02*
D03*
X65489Y37216D02*
D03*
X62911Y38240D02*
D03*
X65489D02*
D03*
Y37984D02*
D03*
Y37472D02*
D03*
Y36960D02*
D03*
Y36704D02*
D03*
X62911Y36960D02*
D03*
Y37472D02*
D03*
Y37984D02*
D03*
Y36704D02*
D03*
X65489Y38496D02*
D03*
D26*
X60111Y92396D02*
D03*
X62911Y38496D02*
D03*
D27*
X65851Y60800D02*
D03*
X64749D02*
D03*
X32951Y48300D02*
D03*
X31849D02*
D03*
X59851Y75600D02*
D03*
X58749D02*
D03*
X68651Y77400D02*
D03*
X67549D02*
D03*
X70349D02*
D03*
X71451D02*
D03*
X63251Y74000D02*
D03*
X62149D02*
D03*
X68749Y73000D02*
D03*
X69851D02*
D03*
X60651Y63200D02*
D03*
X59549D02*
D03*
X63651Y60800D02*
D03*
X62549D02*
D03*
X64549Y64800D02*
D03*
X65651D02*
D03*
X57549Y60600D02*
D03*
X58651D02*
D03*
X58549Y59200D02*
D03*
X59651D02*
D03*
X67251Y59400D02*
D03*
X66149D02*
D03*
X55949Y98000D02*
D03*
X57051D02*
D03*
X42951Y45700D02*
D03*
X35249Y46700D02*
D03*
X44551Y50100D02*
D03*
X43449D02*
D03*
X40649D02*
D03*
X41751D02*
D03*
X39049Y35200D02*
D03*
X32551Y35000D02*
D03*
X31551Y36400D02*
D03*
X38551Y40600D02*
D03*
X37449D02*
D03*
X37649Y36600D02*
D03*
X38751D02*
D03*
X35449Y36600D02*
D03*
X36551D02*
D03*
X32449Y39000D02*
D03*
X33551D02*
D03*
X41849Y45700D02*
D03*
X36351Y46700D02*
D03*
X40151Y35200D02*
D03*
X31449Y35000D02*
D03*
X30449Y36400D02*
D03*
D28*
X32374Y37800D02*
D03*
X31626D02*
D03*
X57674Y62000D02*
D03*
X56926D02*
D03*
X57274Y77200D02*
D03*
X56526D02*
D03*
X68174Y92500D02*
D03*
X67426D02*
D03*
X66374D02*
D03*
X65626D02*
D03*
X64574D02*
D03*
X63826D02*
D03*
X57174Y91700D02*
D03*
X56426D02*
D03*
X64574Y91300D02*
D03*
X63826D02*
D03*
X58974Y91700D02*
D03*
X58226D02*
D03*
X58974Y90500D02*
D03*
X58226D02*
D03*
X61774Y89500D02*
D03*
X61026D02*
D03*
X58326Y78600D02*
D03*
X59074D02*
D03*
X66726Y78800D02*
D03*
X67474D02*
D03*
X59074Y77200D02*
D03*
X58326D02*
D03*
X63074Y75400D02*
D03*
X62326D02*
D03*
X67074Y76000D02*
D03*
X66326D02*
D03*
X66274Y77400D02*
D03*
X65526D02*
D03*
X70674Y74400D02*
D03*
X69926D02*
D03*
X68874Y74400D02*
D03*
X68126D02*
D03*
X58926Y64600D02*
D03*
X59674D02*
D03*
X62526Y59400D02*
D03*
X63274D02*
D03*
X67674Y60800D02*
D03*
X66926D02*
D03*
X65474Y66200D02*
D03*
X64726D02*
D03*
X59474Y62000D02*
D03*
X58726D02*
D03*
X61474Y59800D02*
D03*
X60726D02*
D03*
X65726Y62200D02*
D03*
X66474D02*
D03*
X65074Y59400D02*
D03*
X64326D02*
D03*
X65726Y63600D02*
D03*
X66474D02*
D03*
X63826Y35600D02*
D03*
X61774Y36600D02*
D03*
X66626Y37400D02*
D03*
X61774Y37800D02*
D03*
X64574Y35600D02*
D03*
X67374Y37400D02*
D03*
Y38600D02*
D03*
X61026Y36600D02*
D03*
Y37800D02*
D03*
X59974D02*
D03*
X66626Y38600D02*
D03*
X68426D02*
D03*
X59226Y37800D02*
D03*
X29826Y37800D02*
D03*
X29626Y49900D02*
D03*
X70226Y38600D02*
D03*
X69174D02*
D03*
X70974D02*
D03*
X43026Y47100D02*
D03*
X41974D02*
D03*
X39426Y48700D02*
D03*
X39374Y50100D02*
D03*
X39826Y51500D02*
D03*
X35426Y48100D02*
D03*
X31426Y49900D02*
D03*
X30374D02*
D03*
X31426Y51300D02*
D03*
X43774Y47100D02*
D03*
X40174Y48700D02*
D03*
X41226Y47100D02*
D03*
X40574Y51500D02*
D03*
X36174Y48100D02*
D03*
X38626Y50100D02*
D03*
X32174Y49900D02*
D03*
X32174Y51300D02*
D03*
X39374Y39401D02*
D03*
X38374Y42000D02*
D03*
X39374Y38001D02*
D03*
X37974Y35200D02*
D03*
X40574Y36600D02*
D03*
X33626Y35600D02*
D03*
X35426Y35201D02*
D03*
X30574Y37800D02*
D03*
X31826Y40401D02*
D03*
X38626Y39401D02*
D03*
X37626Y42000D02*
D03*
X38626Y38001D02*
D03*
X39826Y36600D02*
D03*
X34374Y35600D02*
D03*
X37226Y35200D02*
D03*
X36174Y35201D02*
D03*
X32574Y40401D02*
D03*
D29*
X34200Y48074D02*
D03*
Y47326D02*
D03*
X31000Y90326D02*
D03*
Y91074D02*
D03*
X70800Y90626D02*
D03*
Y91374D02*
D03*
X62900Y76626D02*
D03*
Y77374D02*
D03*
X71100Y75426D02*
D03*
Y76174D02*
D03*
X61100Y74626D02*
D03*
Y75374D02*
D03*
X46600Y85226D02*
D03*
Y85974D02*
D03*
X48000Y85226D02*
D03*
Y85974D02*
D03*
X49400Y85226D02*
D03*
Y85974D02*
D03*
X50800Y85226D02*
D03*
Y85974D02*
D03*
X52200Y85226D02*
D03*
Y85974D02*
D03*
X60700Y61026D02*
D03*
Y61774D02*
D03*
X67700Y63374D02*
D03*
Y62626D02*
D03*
X31000Y62426D02*
D03*
Y63174D02*
D03*
X30900Y76426D02*
D03*
Y77174D02*
D03*
X46500Y72674D02*
D03*
X47900D02*
D03*
X49300D02*
D03*
X50700D02*
D03*
X52100D02*
D03*
X46498Y58174D02*
D03*
X47901D02*
D03*
X49298D02*
D03*
X50698D02*
D03*
X52102D02*
D03*
X73600Y37474D02*
D03*
Y36726D02*
D03*
X44200Y48126D02*
D03*
X36000Y49326D02*
D03*
X44200Y48874D02*
D03*
X36000Y50074D02*
D03*
X40601Y39174D02*
D03*
X33601Y36826D02*
D03*
X40601Y38426D02*
D03*
X33601Y37574D02*
D03*
X46500Y71926D02*
D03*
X46498Y57426D02*
D03*
X47900Y71926D02*
D03*
X47901Y57426D02*
D03*
X49300Y71926D02*
D03*
X49298Y57426D02*
D03*
X50700Y71926D02*
D03*
X50698Y57426D02*
D03*
X52100Y71926D02*
D03*
X52102Y57426D02*
D03*
D30*
X48639Y91050D02*
D03*
Y92050D02*
D03*
Y91550D02*
D03*
Y90550D02*
D03*
X50961Y92050D02*
D03*
Y91550D02*
D03*
Y91050D02*
D03*
Y90550D02*
D03*
X59139Y97150D02*
D03*
Y96650D02*
D03*
Y96150D02*
D03*
Y95650D02*
D03*
X61461Y97150D02*
D03*
Y96650D02*
D03*
Y96150D02*
D03*
Y95650D02*
D03*
X48539Y78250D02*
D03*
Y63750D02*
D03*
X50861Y77750D02*
D03*
Y63250D02*
D03*
X48539Y77250D02*
D03*
Y62750D02*
D03*
X50861Y78250D02*
D03*
Y63750D02*
D03*
X48539Y77750D02*
D03*
Y63250D02*
D03*
Y78750D02*
D03*
X50861D02*
D03*
Y77250D02*
D03*
X48539Y64250D02*
D03*
X50861D02*
D03*
Y62750D02*
D03*
D31*
X52400Y91444D02*
D03*
Y91188D02*
D03*
Y90932D02*
D03*
X53432Y91700D02*
D03*
Y91444D02*
D03*
Y91188D02*
D03*
Y90932D02*
D03*
X52300Y77888D02*
D03*
Y63388D02*
D03*
X53331Y78144D02*
D03*
Y77888D02*
D03*
Y77632D02*
D03*
Y63644D02*
D03*
Y63388D02*
D03*
Y63132D02*
D03*
X52300Y77632D02*
D03*
Y63132D02*
D03*
X53331Y78400D02*
D03*
Y63900D02*
D03*
X52300Y78144D02*
D03*
Y63644D02*
D03*
D32*
X43107Y90604D02*
D03*
Y91116D02*
D03*
Y92396D02*
D03*
Y92140D02*
D03*
Y91884D02*
D03*
Y91628D02*
D03*
Y91372D02*
D03*
Y90860D02*
D03*
X45293Y92396D02*
D03*
Y92140D02*
D03*
Y91884D02*
D03*
Y91628D02*
D03*
Y91372D02*
D03*
Y91116D02*
D03*
Y90860D02*
D03*
Y90604D02*
D03*
X62007Y63368D02*
D03*
Y63112D02*
D03*
Y62856D02*
D03*
Y62600D02*
D03*
Y62344D02*
D03*
Y62088D02*
D03*
Y61832D02*
D03*
X64193Y63368D02*
D03*
Y63112D02*
D03*
Y62856D02*
D03*
Y62600D02*
D03*
Y62344D02*
D03*
Y62088D02*
D03*
Y61832D02*
D03*
X45193Y78328D02*
D03*
X43007Y78584D02*
D03*
X45193Y63828D02*
D03*
X43007Y64084D02*
D03*
Y78328D02*
D03*
Y63828D02*
D03*
Y78840D02*
D03*
Y64340D02*
D03*
Y78072D02*
D03*
Y63572D02*
D03*
Y79096D02*
D03*
Y64596D02*
D03*
X45193Y77816D02*
D03*
Y63316D02*
D03*
Y78840D02*
D03*
Y64340D02*
D03*
Y78584D02*
D03*
Y64084D02*
D03*
Y78072D02*
D03*
Y63572D02*
D03*
Y77304D02*
D03*
Y77560D02*
D03*
Y62804D02*
D03*
Y63060D02*
D03*
X37093Y38656D02*
D03*
Y38912D02*
D03*
Y39168D02*
D03*
Y37888D02*
D03*
Y37632D02*
D03*
X34907Y37888D02*
D03*
Y37632D02*
D03*
Y38912D02*
D03*
Y39168D02*
D03*
X37093Y38144D02*
D03*
X34907D02*
D03*
Y38656D02*
D03*
X43007Y77560D02*
D03*
Y63060D02*
D03*
X37093Y38400D02*
D03*
X45193Y79096D02*
D03*
Y64596D02*
D03*
X34907Y38400D02*
D03*
X43007Y77304D02*
D03*
Y77816D02*
D03*
Y62804D02*
D03*
Y63316D02*
D03*
D33*
X53351Y90100D02*
D03*
X52249Y92500D02*
D03*
X34649D02*
D03*
X35751D02*
D03*
X35551Y89100D02*
D03*
X34449D02*
D03*
X53351Y92500D02*
D03*
X52249Y90100D02*
D03*
X35551Y61200D02*
D03*
X35451Y75200D02*
D03*
X35751Y64600D02*
D03*
X35651Y78600D02*
D03*
X34449Y61200D02*
D03*
X34349Y75200D02*
D03*
X52149Y76800D02*
D03*
Y62300D02*
D03*
X34649Y64600D02*
D03*
X34549Y78600D02*
D03*
X53251Y79200D02*
D03*
Y64700D02*
D03*
Y76800D02*
D03*
Y62300D02*
D03*
X52149Y79200D02*
D03*
Y64700D02*
D03*
D34*
X32176Y90950D02*
D03*
Y90450D02*
D03*
Y89950D02*
D03*
X34224Y91450D02*
D03*
Y90950D02*
D03*
Y90450D02*
D03*
Y89950D02*
D03*
X32176Y62550D02*
D03*
Y63050D02*
D03*
X32076Y76550D02*
D03*
Y77050D02*
D03*
X32176Y62050D02*
D03*
X32076Y76050D02*
D03*
X34124Y77050D02*
D03*
X34224Y63050D02*
D03*
Y62550D02*
D03*
X34124Y76550D02*
D03*
X34224Y62050D02*
D03*
X34124Y76050D02*
D03*
X34224Y63550D02*
D03*
X34124Y77550D02*
D03*
D35*
X32176Y91450D02*
D03*
Y63550D02*
D03*
X32076Y77550D02*
D03*
D36*
X69265Y92600D02*
D03*
X69935D02*
D03*
X66335Y91300D02*
D03*
X65665D02*
D03*
X46665Y90900D02*
D03*
X47335D02*
D03*
X46665Y91900D02*
D03*
X47335D02*
D03*
X46665Y92900D02*
D03*
X47335D02*
D03*
X46665Y89900D02*
D03*
X47335D02*
D03*
X41935Y93100D02*
D03*
X41265D02*
D03*
X39265Y90100D02*
D03*
X39935D02*
D03*
X41935D02*
D03*
X41265D02*
D03*
X39265Y92100D02*
D03*
X39935D02*
D03*
X41935D02*
D03*
X41265D02*
D03*
X39265Y91100D02*
D03*
X39935D02*
D03*
X41935D02*
D03*
X41265D02*
D03*
X53965Y97600D02*
D03*
X54635D02*
D03*
X41835Y77800D02*
D03*
Y63300D02*
D03*
Y78800D02*
D03*
Y64300D02*
D03*
Y76800D02*
D03*
Y62300D02*
D03*
Y79800D02*
D03*
Y65300D02*
D03*
X46565Y76600D02*
D03*
Y62100D02*
D03*
Y79600D02*
D03*
Y65100D02*
D03*
Y78600D02*
D03*
Y64100D02*
D03*
Y77600D02*
D03*
X47235Y76600D02*
D03*
Y79600D02*
D03*
Y78600D02*
D03*
Y77600D02*
D03*
X46565Y63100D02*
D03*
X47235Y62100D02*
D03*
Y65100D02*
D03*
Y64100D02*
D03*
Y63100D02*
D03*
X69135Y37400D02*
D03*
X72065Y38700D02*
D03*
X72735D02*
D03*
X41165Y77800D02*
D03*
X39835D02*
D03*
X41165Y63300D02*
D03*
X39835D02*
D03*
X41165Y78800D02*
D03*
X39835D02*
D03*
X41165Y64300D02*
D03*
X39835D02*
D03*
X41165Y79800D02*
D03*
X39165Y77800D02*
D03*
Y78800D02*
D03*
Y76800D02*
D03*
X41165D02*
D03*
X39835D02*
D03*
X41165Y65300D02*
D03*
X39165Y63300D02*
D03*
Y64300D02*
D03*
Y62300D02*
D03*
X41165D02*
D03*
X39835D02*
D03*
X68465Y37400D02*
D03*
D37*
X67248Y91450D02*
D03*
Y90950D02*
D03*
Y90450D02*
D03*
Y89950D02*
D03*
X69552Y91450D02*
D03*
Y90950D02*
D03*
Y90450D02*
D03*
Y89950D02*
D03*
X70048Y36550D02*
D03*
Y37050D02*
D03*
X72352Y36550D02*
D03*
X70048Y36050D02*
D03*
X72352Y37050D02*
D03*
X70048Y37550D02*
D03*
X72352D02*
D03*
Y36050D02*
D03*
D38*
X64960Y79200D02*
D03*
X62440D02*
D03*
X72160D02*
D03*
X69640D02*
D03*
X63560Y72200D02*
D03*
X61040D02*
D03*
X63960Y57600D02*
D03*
X61440D02*
D03*
X63360Y65400D02*
D03*
X60840D02*
D03*
X34140Y44900D02*
D03*
X38060Y51900D02*
D03*
X45260D02*
D03*
X33740Y41200D02*
D03*
X37760Y33400D02*
D03*
X36660Y44900D02*
D03*
X36260Y41200D02*
D03*
X35540Y51900D02*
D03*
X42740D02*
D03*
X35240Y33400D02*
D03*
D39*
X52400Y91700D02*
D03*
X52300Y63900D02*
D03*
Y78400D02*
D03*
D40*
X55802Y95852D02*
D03*
Y96226D02*
D03*
Y96600D02*
D03*
X54700Y95852D02*
D03*
Y96226D02*
D03*
Y96600D02*
D03*
D41*
X67710Y49800D02*
D03*
X71090D02*
D03*
X67710Y54400D02*
D03*
X71090D02*
D03*
D42*
X64200Y44619D02*
D03*
Y46981D02*
D03*
X64000Y54381D02*
D03*
Y52019D02*
D03*
D43*
X59249Y107400D02*
Y108001D01*
Y106798D02*
Y107400D01*
X58864D02*
X59249D01*
X58019Y110200D02*
Y110427D01*
Y110200D02*
X58798D01*
X57240D02*
X58019D01*
Y109973D02*
Y110200D01*
X60850Y106094D02*
Y106239D01*
X60480Y106094D02*
X60850D01*
X60480Y105838D02*
X60850D01*
X50535Y110400D02*
X51038D01*
X50535D02*
Y110903D01*
X48882Y110400D02*
Y110903D01*
X50032Y110400D02*
X50535D01*
Y109897D02*
Y110400D01*
X48882D02*
X49385D01*
X48882Y109897D02*
Y110400D01*
X60381Y110200D02*
X61160D01*
X60381D02*
Y110427D01*
Y109973D02*
Y110200D01*
X60351Y107400D02*
Y108001D01*
Y107400D02*
X60736D01*
X62490Y105200D02*
Y106550D01*
X62000Y106090D02*
Y106547D01*
X61510Y105200D02*
Y106550D01*
X60351Y106798D02*
Y107400D01*
X59966D02*
X60351D01*
X36950Y77050D02*
X37063D01*
X55400Y78400D02*
X56526Y77274D01*
X54200Y78400D02*
X55400D01*
X56526Y77200D02*
Y77274D01*
X56100Y76774D02*
X56526Y77200D01*
X56100Y68800D02*
Y76774D01*
X52300Y78400D02*
X52600D01*
X52800Y78100D02*
Y78200D01*
X55226Y63700D02*
X56926Y62000D01*
X52800Y63600D02*
Y63700D01*
X52300Y63900D02*
X52600D01*
X33551Y39000D02*
X33719Y39168D01*
X32500Y38600D02*
Y39100D01*
X32574Y40400D02*
X32700D01*
X32374Y37800D02*
Y37874D01*
X31551Y36400D02*
Y37725D01*
X33551Y37623D02*
X33600Y37574D01*
X33551Y37623D02*
Y39000D01*
X33626Y35600D02*
Y35626D01*
X38412Y38000D02*
X38626D01*
X33719Y39168D02*
X34907D01*
X34512Y38912D02*
X34907D01*
X33900Y38300D02*
X34512Y38912D01*
X32500Y38600D02*
X32800Y38300D01*
X32374Y37874D02*
X32800Y38300D01*
X34500Y38400D02*
X34907D01*
X34300Y38200D02*
X34500Y38400D01*
X34907Y38656D02*
X35344D01*
X35600Y38400D01*
X35344Y38144D02*
X35600Y38400D01*
X34907Y38144D02*
X35344D01*
X34388Y37888D02*
X34907D01*
X34800Y36700D02*
X35400D01*
X34300Y37800D02*
X34388Y37888D01*
X34300Y37200D02*
X34800Y36700D01*
X34300Y37200D02*
Y37800D01*
X34907Y37632D02*
X35568D01*
X36500Y36700D01*
X38200Y39400D02*
X38626D01*
X37712Y38912D02*
X38200Y39400D01*
X37093Y38912D02*
X37712D01*
X37093Y38656D02*
X38144D01*
X38200Y38600D01*
X37093Y38400D02*
X37600D01*
X36444Y38144D02*
X37093D01*
X38300Y37888D02*
X38412Y38000D01*
X37100Y37300D02*
X37649Y36751D01*
X36588Y37888D02*
X38300D01*
X36500Y37800D02*
X36588Y37888D01*
X36500Y37500D02*
X36700Y37300D01*
X37100D01*
X36500Y37500D02*
Y37800D01*
X37768Y37632D02*
X38657Y36743D01*
X37093Y37632D02*
X37768D01*
X33000Y48400D02*
X33100D01*
X33000D02*
X33026Y48374D01*
X37023Y48949D02*
X37400D01*
X41393Y49742D02*
X41751Y50100D01*
X44500D02*
X44600Y50200D01*
X35249Y46700D02*
X35426Y46877D01*
X33600Y48400D02*
Y48500D01*
X35977Y50051D02*
X37400D01*
X35823Y49897D02*
X35977Y50051D01*
X30600Y48851D02*
Y49674D01*
X30374Y49900D02*
X30600Y49674D01*
X29600Y49926D02*
Y50500D01*
X29200Y49474D02*
X29626Y49900D01*
X32174D02*
X32177Y49897D01*
X34200Y47326D02*
X34674D01*
X35200Y46800D01*
X33326Y48074D02*
X34200D01*
X33100Y48300D02*
X33326Y48074D01*
X36000Y49000D02*
Y49326D01*
X35426Y48426D02*
X36000Y49000D01*
X35426Y46877D02*
Y48426D01*
X40187Y48713D02*
X40203Y48697D01*
X40174Y48726D02*
X40187Y48713D01*
X40100Y48800D02*
X40174Y48726D01*
X40174Y48700D02*
Y48725D01*
X41226Y47100D02*
Y47426D01*
X43600Y47600D02*
X43800Y47800D01*
X43300Y47600D02*
X43600D01*
X43026Y47326D02*
X43300Y47600D01*
X43026Y47100D02*
Y47326D01*
X34000Y49600D02*
Y50000D01*
X33906Y50094D02*
X34000Y50000D01*
X33784Y49384D02*
X34000Y49600D01*
X33193Y50094D02*
X33906D01*
X33784Y49084D02*
Y49384D01*
X33100Y48400D02*
X33784Y49084D01*
X32177Y49897D02*
X33193D01*
X33193Y49700D02*
X33700D01*
X32803Y49503D02*
X33193D01*
X32600Y49300D02*
X32803Y49503D01*
X33193Y49193D02*
Y49306D01*
X33000Y49000D02*
X33193Y49193D01*
X32600Y49000D02*
X33000D01*
X32400Y48800D02*
X32600Y49000D01*
X32400Y47100D02*
Y48800D01*
Y47100D02*
X32800Y46700D01*
X34807Y50094D02*
Y50493D01*
X34807Y49897D02*
X35823D01*
X36174Y48100D02*
X37023Y48949D01*
X35200Y49700D02*
X35400Y49500D01*
X34807Y49700D02*
X35200D01*
X35400Y49000D02*
Y49500D01*
X34397Y49503D02*
X34807D01*
X34300Y49400D02*
X34403Y49503D01*
X34300Y49100D02*
Y49400D01*
Y49100D02*
X34400Y49000D01*
X34807Y48907D02*
Y49306D01*
X34600Y48700D02*
X34807Y48907D01*
X34300Y48700D02*
X34600D01*
X41393Y48894D02*
X41906D01*
X42000Y48800D01*
Y47900D02*
Y48800D01*
X41800Y47700D02*
X42000Y47900D01*
X41500Y47700D02*
X41800D01*
X41393Y48894D02*
Y49742D01*
X41226Y47426D02*
X41500Y47700D01*
X41003Y48697D02*
X41393D01*
X40649Y49051D02*
Y50100D01*
Y49051D02*
X41003Y48697D01*
X40174Y48725D02*
X40649Y49200D01*
X40700Y48600D02*
X40800Y48500D01*
X41300D01*
X41000Y48300D02*
X41500D01*
X40700Y48000D02*
X41000Y48300D01*
X41393Y47993D02*
Y48106D01*
X41037Y47637D02*
X41393Y47993D01*
X40537Y47637D02*
X41037D01*
X40000Y47100D02*
X40537Y47637D01*
X43000Y49200D02*
X43007Y49193D01*
Y48894D02*
Y49193D01*
X43396Y48697D02*
X43800Y49100D01*
X43007Y48697D02*
X43396D01*
X44500Y49500D02*
Y50100D01*
X43774Y47100D02*
X44200D01*
X43007Y48500D02*
X43700D01*
X43400Y48300D02*
X43500Y48200D01*
X43600Y46400D02*
X46300D01*
X43500Y47900D02*
Y48200D01*
X43400Y47800D02*
X43500Y47900D01*
X46300Y46400D02*
X46600Y46100D01*
Y45700D02*
Y46100D01*
X43010Y48300D02*
X43400D01*
X43000Y47800D02*
X43400D01*
X42899Y47699D02*
X43000Y47800D01*
X42706Y48106D02*
X43007D01*
X42300Y47700D02*
X42706Y48106D01*
X42000Y46400D02*
X42100Y46500D01*
X41200Y46400D02*
X42000D01*
X40500Y45700D02*
X41200Y46400D01*
X40000Y45700D02*
X40500D01*
X52149Y64549D02*
Y64700D01*
X53251Y64449D02*
Y64700D01*
Y62300D02*
X53900D01*
X48300Y59300D02*
Y59400D01*
X46549Y64084D02*
X46565Y64100D01*
X46400Y65100D02*
X46565D01*
X41835Y64300D02*
X41874Y64340D01*
X51300Y59300D02*
X52100Y58500D01*
Y58174D02*
Y58500D01*
X50300Y59300D02*
X50600Y59000D01*
Y58200D02*
Y59000D01*
X49300Y58174D02*
Y59300D01*
X47900Y58900D02*
X48300Y59300D01*
X47900Y58174D02*
Y58900D01*
X46500Y58500D02*
X47300Y59300D01*
X46500Y58174D02*
Y58500D01*
X51400Y57400D02*
Y57426D01*
X46500D02*
X52100D01*
X46500Y59300D02*
X47300D01*
X45300Y62800D02*
X45600Y62500D01*
Y60200D02*
X46500Y59300D01*
X45600Y60200D02*
Y62500D01*
X47900Y59800D02*
X48300Y59400D01*
X45540Y63060D02*
X46000Y62600D01*
X45193Y63060D02*
X45540D01*
X46000Y60600D02*
X46800Y59800D01*
X47900D01*
X46000Y60600D02*
Y62600D01*
X45605Y63316D02*
X46565Y62356D01*
Y62100D02*
Y62356D01*
X45193Y63316D02*
X45605D01*
X46161Y63100D02*
X46565D01*
X45689Y63572D02*
X46161Y63100D01*
X45193Y63572D02*
X45689D01*
X45193Y64084D02*
X46549D01*
X45640Y64340D02*
X46400Y65100D01*
X45193Y64340D02*
X45640D01*
X44904Y64596D02*
X45193D01*
X44600Y64900D02*
X44904Y64596D01*
X43004Y62804D02*
X43007D01*
X42700Y62500D02*
X43004Y62804D01*
X43440Y63060D02*
X43700Y62800D01*
X43007Y63060D02*
X43440D01*
X43416Y63316D02*
X43700Y63600D01*
X43007Y63316D02*
X43416D01*
X42572Y63572D02*
X43007D01*
X42400Y62865D02*
Y63400D01*
X42572Y63572D01*
X41835Y62300D02*
X42400Y62865D01*
X42428Y63828D02*
X43007D01*
X41900Y63300D02*
X42428Y63828D01*
X41874Y64340D02*
X42900D01*
X42539Y64596D02*
X43007D01*
X41835Y65300D02*
X42539Y64596D01*
X53668Y63132D02*
X54400Y62400D01*
X53331Y63132D02*
X53668D01*
X54400Y60000D02*
Y62400D01*
X53700Y59300D02*
X54400Y60000D01*
X51300Y59300D02*
X53700D01*
X53912Y63388D02*
X54800Y62500D01*
X53331Y63388D02*
X53912D01*
X54800Y59800D02*
Y62500D01*
X53800Y58800D02*
X54800Y59800D01*
X54456Y63644D02*
X55000Y63100D01*
X53331Y63644D02*
X54456D01*
X55000Y59300D02*
Y63100D01*
X53900Y58200D02*
X55000Y59300D01*
X53331Y64032D02*
X53500Y64200D01*
X53331Y63900D02*
Y64032D01*
X53251Y64449D02*
X53500Y64200D01*
X52300Y62900D02*
Y63132D01*
X52149Y62749D02*
X52300Y62900D01*
X52149Y62300D02*
Y62749D01*
X51800Y64200D02*
X52149Y64549D01*
X51856Y63644D02*
X52300D01*
X51800Y63700D02*
Y64200D01*
Y63700D02*
X51856Y63644D01*
X52600Y63900D02*
X52800Y63700D01*
X51388Y63388D02*
X52300D01*
X51250Y63250D02*
X51388Y63388D01*
X50700Y63250D02*
X51250D01*
X45900Y63700D02*
X48400D01*
X45772Y63828D02*
X45900Y63700D01*
X43007Y64084D02*
X43916D01*
X44172Y63828D02*
X45772D01*
X43916Y64084D02*
X44172Y63828D01*
X52149Y79049D02*
Y79200D01*
X53251Y78949D02*
Y79200D01*
Y76800D02*
X53900D01*
X48300Y73800D02*
Y73900D01*
X46549Y78584D02*
X46565Y78600D01*
X46400Y79600D02*
X46565D01*
X41835Y78800D02*
X41874Y78840D01*
X51300Y73800D02*
X52100Y73000D01*
Y72674D02*
Y73000D01*
X50300Y73800D02*
X50600Y73500D01*
Y72700D02*
Y73500D01*
X49300Y72674D02*
Y73800D01*
X47900Y73400D02*
X48300Y73800D01*
X47900Y72674D02*
Y73400D01*
X46500Y73000D02*
X47300Y73800D01*
X46500Y72674D02*
Y73000D01*
X51400Y71900D02*
Y71926D01*
X46500D02*
X52100D01*
X46500Y73800D02*
X47300D01*
X45300Y77300D02*
X45600Y77000D01*
Y74700D02*
X46500Y73800D01*
X45600Y74700D02*
Y77000D01*
X47900Y74300D02*
X48300Y73900D01*
X45540Y77560D02*
X46000Y77100D01*
X45193Y77560D02*
X45540D01*
X46000Y75100D02*
X46800Y74300D01*
X47900D01*
X46000Y75100D02*
Y77100D01*
X45605Y77816D02*
X46565Y76856D01*
Y76600D02*
Y76856D01*
X45193Y77816D02*
X45605D01*
X46161Y77600D02*
X46565D01*
X45689Y78072D02*
X46161Y77600D01*
X45193Y78072D02*
X45689D01*
X45193Y78584D02*
X46549D01*
X45640Y78840D02*
X46400Y79600D01*
X45193Y78840D02*
X45640D01*
X44904Y79096D02*
X45193D01*
X44600Y79400D02*
X44904Y79096D01*
X43004Y77304D02*
X43007D01*
X42700Y77000D02*
X43004Y77304D01*
X43440Y77560D02*
X43700Y77300D01*
X43007Y77560D02*
X43440D01*
X43416Y77816D02*
X43700Y78100D01*
X43007Y77816D02*
X43416D01*
X42572Y78072D02*
X43007D01*
X42400Y77365D02*
Y77900D01*
X42572Y78072D01*
X41835Y76800D02*
X42400Y77365D01*
X42428Y78328D02*
X43007D01*
X41900Y77800D02*
X42428Y78328D01*
X41874Y78840D02*
X42900D01*
X42539Y79096D02*
X43007D01*
X41835Y79800D02*
X42539Y79096D01*
X53668Y77632D02*
X54400Y76900D01*
X53331Y77632D02*
X53668D01*
X54400Y74500D02*
Y76900D01*
X53700Y73800D02*
X54400Y74500D01*
X51300Y73800D02*
X53700D01*
X53912Y77888D02*
X54800Y77000D01*
X53331Y77888D02*
X53912D01*
X54800Y74300D02*
Y77000D01*
X53800Y73300D02*
X54800Y74300D01*
X54456Y78144D02*
X55000Y77600D01*
X53331Y78144D02*
X54456D01*
X55000Y73800D02*
Y77600D01*
X53900Y72700D02*
X55000Y73800D01*
X53331Y78531D02*
X53500Y78700D01*
X53331Y78400D02*
Y78531D01*
X53251Y78949D02*
X53500Y78700D01*
X52300Y77400D02*
Y77632D01*
X52149Y77249D02*
X52300Y77400D01*
X52149Y76800D02*
Y77249D01*
X51800Y78700D02*
X52149Y79049D01*
X51856Y78144D02*
X52300D01*
X51800Y78200D02*
Y78700D01*
Y78200D02*
X51856Y78144D01*
X52600Y78400D02*
X52800Y78200D01*
X51388Y77888D02*
X52300D01*
X51250Y77750D02*
X51388Y77888D01*
X50700Y77750D02*
X51250D01*
X45900Y78200D02*
X48400D01*
X45772Y78328D02*
X45900Y78200D01*
X43007Y78584D02*
X43916D01*
X44172Y78328D02*
X45772D01*
X43916Y78584D02*
X44172Y78328D01*
X59703Y76803D02*
X60093D01*
X59500Y76600D02*
X59703Y76803D01*
X57274Y77200D02*
X57500Y76974D01*
Y76151D02*
Y76974D01*
X51900Y92000D02*
X52249Y92349D01*
X51956Y91444D02*
X52400D01*
X51900Y91500D02*
Y92000D01*
Y91500D02*
X51956Y91444D01*
X70296Y75997D02*
X70700Y76400D01*
X69907Y75997D02*
X70296D01*
X73600Y85400D02*
Y88000D01*
X70900Y90700D02*
X73600Y88000D01*
X55700Y90700D02*
Y91700D01*
X57800Y84000D02*
Y88600D01*
X52400Y91700D02*
X52700D01*
X52900Y91400D02*
Y91500D01*
X55700Y90700D02*
X57800Y88600D01*
X52700Y91700D02*
X52900Y91500D01*
X65244Y62856D02*
X65300Y62800D01*
X64193Y62856D02*
X65244D01*
X65300Y63600D02*
X65726D01*
X64812Y63112D02*
X65300Y63600D01*
X64193Y63112D02*
X64812D01*
X64193Y62600D02*
X64700D01*
X62668Y61832D02*
X63600Y60900D01*
X62007Y61832D02*
X62668D01*
X60819Y63368D02*
X62007D01*
X60651Y63200D02*
X60819Y63368D01*
X60651Y61823D02*
Y63200D01*
X63688Y62088D02*
X65400D01*
X65512Y62200D02*
X65726D01*
X65400Y62088D02*
X65512Y62200D01*
X64200Y61500D02*
X64749Y60951D01*
X63800Y61500D02*
X64200D01*
X63600Y61700D02*
X63800Y61500D01*
X63600Y61700D02*
Y62000D01*
X63688Y62088D01*
X64868Y61832D02*
X65757Y60943D01*
X64193Y61832D02*
X64868D01*
X61900Y60900D02*
X62500D01*
X61488Y62088D02*
X62007D01*
X61400Y61400D02*
X61900Y60900D01*
X61400Y61400D02*
Y62000D01*
X61488Y62088D01*
X63544Y62344D02*
X64193D01*
X62444Y62856D02*
X62700Y62600D01*
X62007Y62856D02*
X62444D01*
Y62344D02*
X62700Y62600D01*
X62007Y62344D02*
X62444D01*
X61600Y62600D02*
X62007D01*
X61400Y62400D02*
X61600Y62600D01*
X59674Y64600D02*
X59800D01*
X60726Y59800D02*
Y59826D01*
X58651Y60600D02*
Y61925D01*
X60651Y61823D02*
X60700Y61774D01*
X59600Y62800D02*
Y63300D01*
X61612Y63112D02*
X62007D01*
X61000Y62500D02*
X61612Y63112D01*
X59600Y62800D02*
X59900Y62500D01*
X59474Y62074D02*
X59900Y62500D01*
X59474Y62000D02*
Y62074D01*
X59900Y75700D02*
X60000D01*
X59900D02*
X59926Y75674D01*
X63923Y76249D02*
X64300D01*
X68293Y77042D02*
X68651Y77400D01*
X71400D02*
X71500Y77500D01*
X62149Y74000D02*
X62326Y74177D01*
X60500Y75700D02*
Y75800D01*
X62877Y77351D02*
X64300D01*
X62723Y77197D02*
X62877Y77351D01*
X59074Y77200D02*
X59077Y77197D01*
X60226Y75374D02*
X61100D01*
X60000Y75600D02*
X60226Y75374D01*
X61100Y74626D02*
X61574D01*
X62100Y74100D01*
X62900Y76300D02*
Y76626D01*
X62326Y75726D02*
X62900Y76300D01*
X62326Y74177D02*
Y75726D01*
X67087Y76013D02*
X67103Y75997D01*
X67000Y76100D02*
X67074Y76026D01*
X67074Y76000D02*
Y76025D01*
X67074Y76026D02*
X67087Y76013D01*
X68126Y74400D02*
Y74726D01*
X70500Y74900D02*
X70700Y75100D01*
X70200Y74900D02*
X70500D01*
X69926Y74626D02*
X70200Y74900D01*
X69926Y74400D02*
Y74626D01*
X60900Y76900D02*
Y77300D01*
X60806Y77394D02*
X60900Y77300D01*
X60684Y76684D02*
X60900Y76900D01*
X60093Y77394D02*
X60806D01*
X60684Y76384D02*
Y76684D01*
X60000Y75700D02*
X60684Y76384D01*
X59077Y77197D02*
X60093D01*
X60093Y77000D02*
X60600D01*
X60093Y76493D02*
Y76606D01*
X59900Y76300D02*
X60093Y76493D01*
X59500Y76300D02*
X59900D01*
X59300Y76100D02*
X59500Y76300D01*
X59300Y74400D02*
Y76100D01*
Y74400D02*
X59700Y74000D01*
X61707Y77394D02*
Y77793D01*
X61707Y77197D02*
X62723D01*
X63074Y75400D02*
X63923Y76249D01*
X62100Y77000D02*
X62300Y76800D01*
X61707Y77000D02*
X62100D01*
X62300Y76300D02*
Y76800D01*
X61297Y76803D02*
X61707D01*
X61200Y76700D02*
X61303Y76803D01*
X61200Y76400D02*
Y76700D01*
Y76400D02*
X61300Y76300D01*
X61707Y76207D02*
Y76606D01*
X61500Y76000D02*
X61707Y76207D01*
X61200Y76000D02*
X61500D01*
X68293Y76194D02*
X68806D01*
X68900Y76100D01*
Y75200D02*
Y76100D01*
X68700Y75000D02*
X68900Y75200D01*
X68400Y75000D02*
X68700D01*
X68293Y76194D02*
Y77042D01*
X68126Y74726D02*
X68400Y75000D01*
X67903Y75997D02*
X68293D01*
X67549Y76351D02*
Y77400D01*
Y76351D02*
X67903Y75997D01*
X67074Y76025D02*
X67549Y76500D01*
X67600Y75900D02*
X67700Y75800D01*
X68200D01*
X67900Y75600D02*
X68400D01*
X67600Y75300D02*
X67900Y75600D01*
X68293Y75293D02*
Y75406D01*
X67937Y74937D02*
X68293Y75293D01*
X67437Y74937D02*
X67937D01*
X66900Y74400D02*
X67437Y74937D01*
X69900Y76500D02*
X69907Y76493D01*
Y76194D02*
Y76493D01*
X71400Y76800D02*
Y77400D01*
X70674Y74400D02*
X71100D01*
X69907Y75800D02*
X70600D01*
X70300Y75600D02*
X70400Y75500D01*
X70500Y73700D02*
X73200D01*
X70400Y75200D02*
Y75500D01*
X70300Y75100D02*
X70400Y75200D01*
X73200Y73700D02*
X73500Y73400D01*
Y73000D02*
Y73400D01*
X69910Y75600D02*
X70300D01*
X69900Y75100D02*
X70300D01*
X69799Y74999D02*
X69900Y75100D01*
X69606Y75406D02*
X69907D01*
X69200Y75000D02*
X69606Y75406D01*
X68900Y73700D02*
X69000Y73800D01*
X68100Y73700D02*
X68900D01*
X67400Y73000D02*
X68100Y73700D01*
X66900Y73000D02*
X67400D01*
X25000Y49900D02*
X29626D01*
X53432Y91444D02*
X54556D01*
X54000Y86000D02*
X55100Y87100D01*
X54556Y91444D02*
X55100Y90900D01*
Y87100D02*
Y90900D01*
X53432Y91188D02*
X54012D01*
X53900Y86600D02*
X54900Y87600D01*
Y90300D01*
X54012Y91188D02*
X54900Y90300D01*
X49400Y85974D02*
Y87100D01*
X50700Y86000D02*
Y86800D01*
X50400Y87100D02*
X50700Y86800D01*
X52200Y85974D02*
Y86300D01*
X53432Y90932D02*
X53768D01*
X51400Y87100D02*
X53800D01*
X51400D02*
X52200Y86300D01*
X53768Y90932D02*
X54500Y90200D01*
Y87800D02*
Y90200D01*
X53800Y87100D02*
X54500Y87800D01*
X46600Y87100D02*
X47400D01*
X46600Y86300D02*
X47400Y87100D01*
X46600Y85974D02*
Y86300D01*
X45400Y90600D02*
X45700Y90300D01*
Y88000D02*
Y90300D01*
Y88000D02*
X46600Y87100D01*
X48400D02*
Y87200D01*
X48000Y86700D02*
X48400Y87100D01*
X48000Y85974D02*
Y86700D01*
X46900Y87600D02*
X48000D01*
X45293Y90860D02*
X45640D01*
X48000Y87600D02*
X48400Y87200D01*
X46100Y88400D02*
X46900Y87600D01*
X46100Y88400D02*
Y90400D01*
X45640Y90860D02*
X46100Y90400D01*
X50800Y91050D02*
X51350D01*
X51488Y91188D02*
X52400D01*
X53351Y90100D02*
X54000D01*
X52400Y90700D02*
Y90932D01*
X52249Y90549D02*
X52400Y90700D01*
X52249Y90100D02*
Y90549D01*
X51350Y91050D02*
X51488Y91188D01*
X52249Y92349D02*
Y92500D01*
X53351Y92249D02*
X53600Y92000D01*
X53351Y92249D02*
Y92500D01*
X53432Y91832D02*
X53600Y92000D01*
X53432Y91700D02*
Y91832D01*
X46600Y85226D02*
X52200D01*
X51500Y85200D02*
Y85226D01*
X45004Y92396D02*
X45293D01*
X44700Y92700D02*
X45004Y92396D01*
X43540Y90860D02*
X43800Y90600D01*
X43107Y90860D02*
X43540D01*
X43104Y90604D02*
X43107D01*
X42800Y90300D02*
X43104Y90604D01*
X44272Y91628D02*
X45872D01*
X46000Y91500D02*
X48500D01*
X43107Y91884D02*
X44016D01*
X45872Y91628D02*
X46000Y91500D01*
X46665Y89900D02*
Y90156D01*
X45293Y91116D02*
X45705D01*
X46665Y90156D01*
X46261Y90900D02*
X46665D01*
X45293Y91372D02*
X45789D01*
X46261Y90900D01*
X46500Y92900D02*
X46665D01*
X45293Y92140D02*
X45740D01*
X46500Y92900D01*
X46649Y91884D02*
X46665Y91900D01*
X45293Y91884D02*
X46649D01*
X44016D02*
X44272Y91628D01*
X43516Y91116D02*
X43800Y91400D01*
X43107Y91116D02*
X43516D01*
X42672Y91372D02*
X43107D01*
X41935Y90100D02*
X42500Y90665D01*
Y91200D01*
X42672Y91372D01*
X42528Y91628D02*
X43107D01*
X42000Y91100D02*
X42528Y91628D01*
X41974Y92140D02*
X43000D01*
X41935Y92100D02*
X41974Y92140D01*
X42639Y92396D02*
X43107D01*
X41935Y93100D02*
X42639Y92396D01*
X79800Y39300D02*
Y38600D01*
X80200D01*
X80676Y39067D02*
Y38600D01*
Y38967D02*
X80610Y39033D01*
X80543Y39067D01*
X80443D01*
X80377Y39033D01*
X80310Y38967D01*
X80277Y38867D01*
Y38800D01*
X80310Y38700D01*
X80377Y38633D01*
X80443Y38600D01*
X80543D01*
X80610Y38633D01*
X80676Y38700D01*
X80896Y39067D02*
X81096Y38600D01*
X81296Y39067D02*
X81096Y38600D01*
X81030Y38467D01*
X80963Y38400D01*
X80896Y38367D01*
X80863D01*
X81413Y38867D02*
X81813D01*
Y38933D01*
X81780Y39000D01*
X81746Y39033D01*
X81680Y39067D01*
X81580D01*
X81513Y39033D01*
X81446Y38967D01*
X81413Y38867D01*
Y38800D01*
X81446Y38700D01*
X81513Y38633D01*
X81580Y38600D01*
X81680D01*
X81746Y38633D01*
X81813Y38700D01*
X81963Y39067D02*
Y38600D01*
Y38867D02*
X81996Y38967D01*
X82063Y39033D01*
X82129Y39067D01*
X82229D01*
X82843Y39167D02*
X82909Y39200D01*
X83009Y39300D01*
Y38600D01*
D44*
X63865Y105070D02*
X64200Y104735D01*
X63150Y105070D02*
X63865D01*
X65768Y104600D02*
Y105032D01*
X63150Y105326D02*
X65474D01*
X65768Y105032D01*
X64135Y106735D02*
X64400D01*
X63150Y106094D02*
X63494D01*
X64135Y106735D01*
X49850Y63250D02*
X50700D01*
X47235Y61565D02*
Y63100D01*
X49850Y62800D02*
X50300Y63250D01*
X49850Y62050D02*
Y62800D01*
X48900Y61100D02*
X49850Y62050D01*
X36600Y63300D02*
X39165D01*
X36350Y63050D02*
X36600Y63300D01*
X34224Y63050D02*
X36000D01*
X49850Y77750D02*
X50700D01*
X48900Y75600D02*
X49850Y76550D01*
X47235Y76065D02*
Y77600D01*
X49850Y77300D02*
X50300Y77750D01*
X49729Y76271D02*
X50000Y76000D01*
X49571Y76271D02*
X49729D01*
X37000Y76400D02*
Y77100D01*
X36950Y77050D02*
X37600Y77700D01*
X39165D01*
X34124Y77050D02*
X36950D01*
X35400Y36700D02*
X35500D01*
X38657Y36743D02*
X38751Y36649D01*
Y36600D02*
Y36649D01*
X37649Y36600D02*
Y36751D01*
X37093Y40244D02*
X37449Y40600D01*
X40151Y35200D02*
X40700D01*
X39000D02*
Y35400D01*
X33551Y39000D02*
Y39549D01*
X32700Y40400D02*
X33551Y39549D01*
X35200Y35200D02*
X35426D01*
X34800Y34800D02*
X35200Y35200D01*
X32751Y34800D02*
X34800D01*
X36551Y35577D02*
Y36600D01*
X36174Y35200D02*
X36551Y35577D01*
X38751Y36600D02*
X39826D01*
X37449Y41823D02*
X37626Y42000D01*
X37449Y40600D02*
Y41823D01*
X31826Y39800D02*
Y40400D01*
X31626Y39600D02*
X31826Y39800D01*
X31626Y37800D02*
Y39600D01*
X30574Y37800D02*
X31626D01*
X31500Y36300D02*
Y37800D01*
X34400Y35600D02*
X35400Y36600D01*
X34374Y35600D02*
X34400D01*
X33600Y35626D02*
Y36900D01*
X33026Y35000D02*
X33626Y35600D01*
X32400Y35000D02*
X33026D01*
X37974Y35200D02*
X39049D01*
X36174D02*
X37300D01*
X39800Y38000D02*
X40574Y37226D01*
X39374Y38000D02*
X39800D01*
X40574Y36074D02*
Y37226D01*
X40400Y35900D02*
X40574Y36074D01*
X39500Y35900D02*
X40400D01*
X39000Y35400D02*
X39500Y35900D01*
X40600Y37800D02*
Y38426D01*
X39826Y36600D02*
Y37174D01*
X38551Y39475D02*
Y40600D01*
Y39475D02*
X38626Y39400D01*
X39600Y39174D02*
X41226D01*
X39300Y39474D02*
X39600Y39174D01*
X41226D02*
X41800Y38600D01*
Y37951D02*
Y38600D01*
X38800Y42000D02*
X39300Y41500D01*
X38374Y42000D02*
X38800D01*
X39300Y39474D02*
Y41500D01*
X37093Y39168D02*
Y40244D01*
X59851Y59000D02*
X61900D01*
X32065Y48517D02*
X32174Y48625D01*
X30600Y47200D02*
Y47749D01*
X36951Y46749D02*
X37600D01*
X37051Y46700D02*
X37100Y46749D01*
X36351Y46700D02*
X37051D01*
X41751Y50049D02*
Y50749D01*
X41000Y51500D02*
X41751Y50749D01*
X40574Y51500D02*
X41000D01*
X44100Y48800D02*
X44200D01*
X32174Y48625D02*
Y49900D01*
X30474D02*
X31426D01*
X39826Y50552D02*
Y51500D01*
X39351Y50077D02*
X39826Y50552D01*
X38649Y50051D02*
X38700Y50000D01*
X37400Y50051D02*
X38649D01*
X39426Y48700D02*
Y50074D01*
X39200Y48700D02*
X39500D01*
X38351Y47851D02*
X39200Y48700D01*
X37600Y47851D02*
X38351D01*
X43874Y47800D02*
X44200Y48126D01*
X43800Y47800D02*
X43874D01*
X41974Y47100D02*
X43026D01*
Y45775D02*
Y47100D01*
X43449Y49451D02*
X44100Y48800D01*
X43449Y49451D02*
Y50100D01*
X71965Y38600D02*
X72065Y38700D01*
X72735D02*
X72900Y38535D01*
X68465Y37035D02*
Y37400D01*
X69135Y38561D02*
X69174Y38600D01*
X69135Y37400D02*
Y38561D01*
X68400Y38600D02*
X68426D01*
X70974D02*
X71965D01*
X73500Y39500D02*
X73600Y39400D01*
X70900Y39500D02*
X73500D01*
X70200Y38800D02*
X70900Y39500D01*
X73600Y37474D02*
Y39400D01*
X69174Y38600D02*
X70226D01*
X67200Y39300D02*
X67700D01*
X66600Y38700D02*
X67200Y39300D01*
X67700D02*
X68400Y38600D01*
X61774Y37800D02*
X61846Y37728D01*
X60200Y37800D02*
X61026D01*
X67374Y37326D02*
Y38600D01*
X66298Y37728D02*
X66626Y37400D01*
X61700Y36674D02*
Y36800D01*
X61000Y36700D02*
Y37600D01*
X70974Y37474D02*
Y38600D01*
X70550Y37050D02*
X70974Y37474D01*
X70048Y37050D02*
X70550D01*
X69800Y35802D02*
X70048Y36050D01*
X69800Y35700D02*
Y35802D01*
X71800Y37200D02*
X71950Y37050D01*
X72352D01*
X73074Y36726D02*
X73600D01*
X72900Y36900D02*
X73074Y36726D01*
X72900Y36800D02*
Y38535D01*
X72650Y36550D02*
X72900Y36800D01*
X72352Y36550D02*
X72650D01*
X64860Y36960D02*
X65489D01*
X64700Y36800D02*
X64860Y36960D01*
X64796Y36704D02*
X65489D01*
X64700Y36800D02*
X64796Y36704D01*
X66900Y36800D02*
X67400Y37300D01*
X66400Y36800D02*
X66900D01*
X65984Y37216D02*
X66400Y36800D01*
X65489Y37216D02*
X65984D01*
X65200Y35600D02*
X66400Y36800D01*
X64574Y35600D02*
X65200D01*
X65489Y37728D02*
X66298D01*
X64784Y37984D02*
X65489D01*
X64828Y37472D02*
X65489D01*
X64700Y37600D02*
X64828Y37472D01*
X64700Y37900D02*
X64784Y37984D01*
X64700Y37600D02*
Y37900D01*
X66266Y38240D02*
X66626Y38600D01*
X65489Y38240D02*
X66266D01*
X65489Y38789D02*
X65600Y38900D01*
X65489Y38496D02*
Y38789D01*
X62911Y36411D02*
Y36704D01*
X62360Y36960D02*
X62911D01*
X62300Y36900D02*
X62360Y36960D01*
X63484Y37216D02*
X63826Y36874D01*
Y35600D02*
Y36874D01*
X62116Y37216D02*
X63484D01*
X61700Y36800D02*
X62116Y37216D01*
X61846Y37728D02*
X62911D01*
X63700Y37700D02*
Y37800D01*
X63516Y37984D02*
X63700Y37800D01*
X62911Y37984D02*
X63516D01*
X63472Y37472D02*
X63700Y37700D01*
X62911Y37472D02*
X63472D01*
X62000Y38500D02*
X62260Y38240D01*
X62911D01*
X61400Y38500D02*
X62000D01*
X61100Y38200D02*
X61400Y38500D01*
X61100Y37700D02*
Y38200D01*
X62911Y38496D02*
X63596D01*
X47235Y64100D02*
Y65265D01*
X47200Y65300D02*
X47235Y65265D01*
Y61565D02*
X47700Y61100D01*
X48900D01*
X39500Y65300D02*
X41165D01*
X39165Y64965D02*
X39500Y65300D01*
X39165Y63800D02*
Y64965D01*
Y62300D02*
Y63700D01*
X39835Y62300D02*
X41165D01*
X39835Y64300D02*
X41165D01*
X41740Y64340D02*
X41835D01*
X41740D02*
X41780Y64300D01*
X39835Y63300D02*
X41165D01*
X41835D02*
X41900D01*
X42900Y64340D02*
X43007D01*
X49400Y63700D02*
Y64400D01*
Y63700D02*
X49850Y63250D01*
X48600Y65200D02*
X49400Y64400D01*
X47335Y65200D02*
X48600D01*
X51150Y63750D02*
X51400Y64000D01*
X50861Y63750D02*
X51150D01*
X48539Y62750D02*
X48650D01*
X49000Y62400D01*
X47950Y63250D02*
X48539D01*
X48489Y63700D02*
X48539Y63750D01*
X48400Y63700D02*
X48489D01*
X47235Y78600D02*
Y79765D01*
X47200Y79800D02*
X47235Y79765D01*
Y76065D02*
X47700Y75600D01*
X48900D01*
X39500Y79800D02*
X41165D01*
X39165Y79465D02*
X39500Y79800D01*
X39165Y78300D02*
Y79465D01*
Y76800D02*
Y78200D01*
X39835Y76800D02*
X41165D01*
X39835Y78800D02*
X41165D01*
X41740Y78840D02*
X41835D01*
X41740D02*
X41780Y78800D01*
X39835Y77800D02*
X41165D01*
X41835D02*
X41900D01*
X42900Y78840D02*
X43007D01*
X49400Y78200D02*
Y78900D01*
X49850Y76550D02*
Y77300D01*
X49400Y78200D02*
X49850Y77750D01*
X48600Y79700D02*
X49400Y78900D01*
X47335Y79700D02*
X48600D01*
X51150Y78250D02*
X51400Y78500D01*
X50861Y78250D02*
X51150D01*
X48539Y77250D02*
X48650D01*
X49000Y76900D01*
X47950Y77750D02*
X48539D01*
X48489Y78200D02*
X48539Y78250D01*
X48400Y78200D02*
X48489D01*
X60250Y96150D02*
X61461D01*
X59139Y96650D02*
X59750D01*
X59200Y95700D02*
X59800D01*
X61461Y96650D02*
X62050D01*
X59750D02*
X60250Y96150D01*
X57650D02*
X59139D01*
X57400Y96400D02*
X57650Y96150D01*
X55802Y95402D02*
Y95852D01*
X53965Y97600D02*
Y98065D01*
X54300Y96600D02*
X54700D01*
X54200Y96700D02*
X54300Y96600D01*
X54226Y96226D02*
X54700D01*
X57300Y94600D02*
Y95249D01*
X57051Y96600D02*
Y98000D01*
X55549Y97600D02*
X55949Y98000D01*
X54635Y97600D02*
X55549D01*
X55802Y96600D02*
Y97854D01*
X70349Y76751D02*
X71000Y76100D01*
X70349Y76751D02*
Y77400D01*
X64549Y66023D02*
X64726Y66200D01*
X39265Y91600D02*
Y92765D01*
X39600Y93100D02*
X41265D01*
X65665Y90935D02*
Y91300D01*
X69150Y90950D02*
X69552D01*
X69000Y91100D02*
X69150Y90950D01*
X67000Y89702D02*
X67248Y89950D01*
X67000Y89600D02*
Y89702D01*
X70100Y90700D02*
Y92435D01*
Y90800D02*
X70274Y90626D01*
X70800D01*
X69935Y92600D02*
X70100Y92435D01*
X69552Y90450D02*
X69850D01*
X70100Y90700D01*
X69165Y92500D02*
X69265Y92600D01*
X68174Y92500D02*
X69165D01*
X68174Y91374D02*
Y92500D01*
X67248Y90950D02*
X67750D01*
X70800Y91374D02*
Y93300D01*
X67400Y92700D02*
X68100Y93400D01*
X70700D01*
X70800Y93300D01*
X65600Y92500D02*
X65626D01*
X63800Y92600D02*
X64400Y93200D01*
X64900D01*
X65600Y92500D01*
X66374D02*
X67426D01*
X66335Y92461D02*
X66374Y92500D01*
X66335Y91300D02*
Y92461D01*
X67750Y90950D02*
X68174Y91374D01*
X59560Y90860D02*
X60111D01*
X59500Y90800D02*
X59560Y90860D01*
X60111Y92396D02*
X60796D01*
X60111Y91884D02*
X60716D01*
X60900Y91600D02*
Y91700D01*
X60672Y91372D02*
X60900Y91600D01*
X60111Y91372D02*
X60672D01*
X60716Y91884D02*
X60900Y91700D01*
X60111Y90311D02*
Y90604D01*
X62689Y92689D02*
X62800Y92800D01*
X62689Y92396D02*
Y92689D01*
X61984Y91884D02*
X62689D01*
X62028Y91372D02*
X62689D01*
X61900Y91500D02*
Y91800D01*
Y91500D02*
X62028Y91372D01*
X61900Y91800D02*
X61984Y91884D01*
X62060Y90860D02*
X62689D01*
X61996Y90604D02*
X62689D01*
X61900Y90700D02*
X62060Y90860D01*
X61900Y90700D02*
X61996Y90604D01*
X62689Y91116D02*
X63184D01*
X63600Y90700D02*
X64100D01*
X63184Y91116D02*
X63600Y90700D01*
X62400Y89500D02*
X63600Y90700D01*
X61774Y89500D02*
X62400D01*
X64574Y91226D02*
Y92500D01*
X64100Y90700D02*
X64600Y91200D01*
X63466Y92140D02*
X63826Y92500D01*
X62689Y92140D02*
X63466D01*
X63498Y91628D02*
X63826Y91300D01*
X62689Y91628D02*
X63498D01*
X58200Y90600D02*
Y91500D01*
X58300Y91600D02*
Y92100D01*
X59460Y92140D02*
X60111D01*
X57400Y91700D02*
X58226D01*
X59316Y91116D02*
X60684D01*
X61026Y89500D02*
Y90774D01*
X60684Y91116D02*
X61026Y90774D01*
X58900Y90574D02*
Y90700D01*
X59316Y91116D01*
X59046Y91628D02*
X60111D01*
X58974Y91700D02*
X59046Y91628D01*
X59200Y92400D02*
X59460Y92140D01*
X58600Y92400D02*
X59200D01*
X58300Y92100D02*
X58600Y92400D01*
X65651Y63675D02*
Y64800D01*
Y63675D02*
X65726Y63600D01*
X60651Y63200D02*
Y63749D01*
X64749Y60800D02*
Y60951D01*
X65757Y60943D02*
X65851Y60849D01*
X62500Y60900D02*
X62600D01*
X64193Y64444D02*
X64549Y64800D01*
X64193Y63368D02*
Y64444D01*
X64549Y64800D02*
Y66023D01*
X66700Y63374D02*
X68326D01*
X68900Y62151D02*
Y62800D01*
X65474Y66200D02*
X65900D01*
X66400Y65700D01*
Y63674D02*
Y65700D01*
Y63674D02*
X66700Y63374D01*
X68326D02*
X68900Y62800D01*
X67700Y62000D02*
Y62626D01*
X66926Y60800D02*
Y61374D01*
X65851Y60800D02*
X66926D01*
X67251Y59400D02*
X67800D01*
X67674Y60274D02*
Y61426D01*
X66474Y62200D02*
X66900D01*
X67674Y61426D01*
X65851Y60800D02*
Y60849D01*
X65074Y59400D02*
X66149D01*
X66100D02*
Y59600D01*
X66600Y60100D01*
X67500D01*
X67674Y60274D01*
X63274Y59400D02*
X64400D01*
X63651Y59777D02*
Y60800D01*
X63274Y59400D02*
X63651Y59777D01*
X58600Y60500D02*
Y62000D01*
X57674D02*
X58726D01*
X58926Y64000D02*
Y64600D01*
X58726Y63800D02*
X58926Y64000D01*
X58726Y62000D02*
Y63800D01*
X59800Y64600D02*
X60651Y63749D01*
X61500Y59800D02*
X62500Y60800D01*
X61474Y59800D02*
X61500D01*
X60700Y59826D02*
Y61100D01*
X59500Y59200D02*
X60126D01*
X60726Y59800D01*
X62300Y59400D02*
X62526D01*
X61900Y59000D02*
X62300Y59400D01*
X58965Y75817D02*
X59074Y75925D01*
X57500Y74500D02*
Y75049D01*
X63951Y74000D02*
X64000Y74049D01*
X63851D02*
X64500D01*
X63251Y74000D02*
X63951D01*
X68651Y77349D02*
Y78049D01*
X67900Y78800D02*
X68651Y78049D01*
X67474Y78800D02*
X67900D01*
X71000Y76100D02*
X71100D01*
X59074Y75925D02*
Y77200D01*
X57374D02*
X58326D01*
X66726Y77852D02*
Y78800D01*
X66251Y77377D02*
X66726Y77852D01*
X65549Y77351D02*
X65600Y77300D01*
X64300Y77351D02*
X65549D01*
X66100Y76000D02*
X66400D01*
X66326D02*
Y77374D01*
X65251Y75151D02*
X66100Y76000D01*
X64500Y75151D02*
X65251D01*
X70774Y75100D02*
X71100Y75426D01*
X70700Y75100D02*
X70774D01*
X68874Y74400D02*
X69926D01*
Y73075D02*
Y74400D01*
X31650Y62050D02*
X32176D01*
X31400Y61800D02*
X31650Y62050D01*
X26950Y61800D02*
X31400D01*
X26750Y62000D02*
X26950Y61800D01*
X31455Y63550D02*
X32176D01*
X30505Y64500D02*
X31455Y63550D01*
X26200Y64500D02*
X30505D01*
X25300Y63600D02*
X26200Y64500D01*
X31550Y76050D02*
X32076D01*
X31300Y75800D02*
X31550Y76050D01*
X28050Y75800D02*
X31300D01*
X26650Y77200D02*
X28050Y75800D01*
X31355Y77550D02*
X32076D01*
X30405Y78500D02*
X31355Y77550D01*
X25350Y78500D02*
X30405D01*
X25150Y78700D02*
X25350Y78500D01*
X39265Y90100D02*
Y91500D01*
X34100Y90900D02*
X34224D01*
X49950Y91050D02*
X50800D01*
X48700Y93000D02*
X49500Y92200D01*
X47335Y89365D02*
Y90900D01*
X49950Y90600D02*
X50400Y91050D01*
X47435Y93000D02*
X48700D01*
X49500Y91500D02*
Y92200D01*
Y91500D02*
X49950Y91050D01*
Y89850D02*
Y90600D01*
X49000Y88900D02*
X49950Y89850D01*
X47800Y88900D02*
X49000D01*
X47335Y89365D02*
X47800Y88900D01*
X47335Y91900D02*
Y93065D01*
X48500Y91500D02*
X48589D01*
X41935Y91100D02*
X42000D01*
X43000Y92140D02*
X43107D01*
X41840D02*
X41935D01*
X51250Y91550D02*
X51500Y91800D01*
X50961Y91550D02*
X51250D01*
X48750Y90550D02*
X49100Y90200D01*
X48639Y90550D02*
X48750D01*
X48050Y91050D02*
X48639D01*
X47300Y93100D02*
X47335Y93065D01*
X48589Y91500D02*
X48639Y91550D01*
X39265Y92765D02*
X39600Y93100D01*
X39935Y90100D02*
X41265D01*
X39935Y91100D02*
X41265D01*
X39935Y92100D02*
X41265D01*
X41840Y92140D02*
X41880Y92100D01*
X35751Y64600D02*
X36400D01*
X35551Y60751D02*
Y61200D01*
X31550Y63050D02*
X32176D01*
X31426Y63174D02*
X31550Y63050D01*
X31000Y63174D02*
X31426D01*
X31550Y62550D02*
X32176D01*
X31426Y62426D02*
X31550Y62550D01*
X31000Y62426D02*
X31426D01*
X34649Y64249D02*
Y64600D01*
X34224Y63824D02*
X34649Y64249D01*
X34224Y63550D02*
Y63824D01*
X33550Y62550D02*
X34224D01*
Y61876D02*
Y62050D01*
Y61876D02*
X34449Y61651D01*
Y61200D02*
Y61651D01*
X35651Y78600D02*
X36300D01*
X35451Y74751D02*
Y75200D01*
X31450Y77050D02*
X32076D01*
X31326Y77174D02*
X31450Y77050D01*
X30900Y77174D02*
X31326D01*
X31450Y76550D02*
X32076D01*
X31326Y76426D02*
X31450Y76550D01*
X30900Y76426D02*
X31326D01*
X34549Y78249D02*
Y78600D01*
X34124Y77824D02*
X34549Y78249D01*
X34124Y77550D02*
Y77824D01*
X33450Y76550D02*
X34124D01*
Y75876D02*
Y76050D01*
Y75876D02*
X34349Y75651D01*
Y75200D02*
Y75651D01*
X31650Y89950D02*
X32176D01*
X26750Y90900D02*
X27950Y89700D01*
X31400D01*
X31650Y89950D01*
X31455Y91450D02*
X32176D01*
X25300Y92400D02*
X30505D01*
X31455Y91450D01*
X31550Y90450D02*
X32176D01*
X31426Y90326D02*
X31550Y90450D01*
X31000Y90326D02*
X31426D01*
X31550Y90950D02*
X32176D01*
X31000Y91074D02*
X31426D01*
X31550Y90950D01*
X35751Y92500D02*
X36400D01*
X34224Y91724D02*
X34649Y92149D01*
Y92500D01*
X34224Y91450D02*
Y91724D01*
X33550Y90450D02*
X34224D01*
X35551Y88651D02*
Y89100D01*
X34224Y89776D02*
X34449Y89551D01*
X34224Y89776D02*
Y89950D01*
X34449Y89100D02*
Y89551D01*
D45*
X49850Y61250D02*
Y62050D01*
X36000Y63050D02*
X37150D01*
X37100Y62800D02*
Y63050D01*
X36900Y62600D02*
X37100Y62800D01*
X40800Y57800D02*
Y59400D01*
X40000Y71400D02*
Y74113D01*
X37063Y77050D02*
X40000Y74113D01*
X54200Y37200D02*
X58626D01*
X59226Y37800D01*
X54400Y63900D02*
X55026D01*
X56926Y62000D01*
X30449Y35849D02*
Y36400D01*
X30900Y35000D02*
X31449D01*
X41800Y36300D02*
Y36849D01*
X37760Y33400D02*
X38600D01*
X37760Y32240D02*
Y33400D01*
X34400D02*
X35240D01*
X36260Y40260D02*
Y42260D01*
X33740Y41200D02*
Y42360D01*
Y41200D02*
X34500D01*
X41849Y45149D02*
Y45700D01*
X45260Y51900D02*
X46000D01*
X41900D02*
X42740D01*
Y50840D02*
Y51900D01*
X38060D02*
Y52940D01*
X37300Y51900D02*
X39000D01*
X34800D02*
X35540D01*
X36660Y44900D02*
X37500D01*
X34140D02*
Y45940D01*
X33300Y44900D02*
X34140D01*
X46200Y49960D02*
X47340D01*
X46200D02*
Y50700D01*
X45140Y47440D02*
X47260D01*
X34807Y50807D02*
X35500Y51500D01*
X34807Y50493D02*
Y50807D01*
X69650Y36550D02*
X70048D01*
X68800Y35700D02*
X69650Y36550D01*
X37150Y63050D02*
X40800Y59400D01*
X68900Y60500D02*
Y61049D01*
X68749Y72449D02*
Y73000D01*
X66000Y89600D02*
X66850Y90450D01*
X67248D01*
X61461Y96150D02*
X62150D01*
X63100Y95200D01*
X73500Y36726D02*
X74326D01*
X72800Y41700D02*
Y44200D01*
X74326Y36726D02*
X74700Y37100D01*
Y39800D01*
X72800Y41700D02*
X74700Y39800D01*
X51300Y46800D02*
X53800D01*
X44200Y48874D02*
X49226D01*
X51300Y46800D01*
X56800Y54800D02*
Y62000D01*
X54500Y91700D02*
X56426D01*
X40000Y85000D02*
Y87800D01*
X37600Y90200D02*
Y91000D01*
Y90200D02*
X40000Y87800D01*
X57549Y60049D02*
Y60600D01*
X58000Y59200D02*
X58549D01*
X63960Y57600D02*
X64800D01*
X63960Y56440D02*
Y57600D01*
X60600D02*
X61440D01*
X60840Y65400D02*
Y66560D01*
Y65400D02*
X61600D01*
X63360Y64460D02*
Y66460D01*
X72160Y79200D02*
X72900D01*
X68800D02*
X69640D01*
Y78140D02*
Y79200D01*
X64200D02*
X65900D01*
X64960D02*
Y80240D01*
X61700Y79200D02*
X62440D01*
X63560Y72200D02*
X64400D01*
X61040D02*
Y73240D01*
X60200Y72200D02*
X61040D01*
X73100Y77260D02*
Y78000D01*
Y77260D02*
X74240D01*
X72040Y74740D02*
X74160D01*
X61707Y78107D02*
X62400Y78800D01*
X61707Y77793D02*
Y78107D01*
D46*
X45900Y43400D02*
X55700Y33600D01*
X45500Y43400D02*
X45900D01*
X49298Y40002D02*
X49902D01*
X40600Y40400D02*
X40700Y40500D01*
X37626Y42000D02*
Y42526D01*
X44200Y48874D02*
X46926D01*
X66000Y84000D02*
Y89700D01*
X73300Y80700D02*
X75500Y78500D01*
X64400Y95200D02*
X66100Y93500D01*
X63100Y95200D02*
X64400D01*
X66000Y84000D02*
X69300Y80700D01*
X73300D01*
X72500Y69300D02*
Y73000D01*
X71300Y68100D02*
X72500Y69300D01*
X70700Y59800D02*
Y62600D01*
X67700Y64600D02*
X67800Y64700D01*
X66800Y55900D02*
X70700Y59800D01*
X67800Y64700D02*
X68600D01*
X70700Y62600D01*
X74200Y60100D02*
Y62000D01*
X69800Y65700D02*
Y66800D01*
Y65700D02*
X70500D01*
X64726Y66200D02*
Y66726D01*
X70500Y65700D02*
X74200Y62000D01*
X63200Y55900D02*
X66800D01*
X61100Y53800D02*
X63200Y55900D01*
X61100Y44100D02*
Y53800D01*
X58600Y41600D02*
X61100Y44100D01*
X51500Y41600D02*
X58600D01*
X49902Y40002D02*
X51500Y41600D01*
X66500Y33600D02*
X69450Y36550D01*
X55700Y33600D02*
X66500D01*
X64200Y43300D02*
Y44619D01*
X64000Y50700D02*
Y52019D01*
Y54400D02*
X67710D01*
Y53410D02*
Y54400D01*
Y49800D02*
Y50990D01*
X67500Y48700D02*
Y49800D01*
X66819Y49600D02*
X67800D01*
X64200Y46981D02*
X66819Y49600D01*
X63900Y54500D02*
X64000Y54400D01*
X71107Y49493D02*
X73600D01*
X71144Y54454D02*
X73600D01*
X71090Y54400D02*
X71144Y54454D01*
X75000Y69200D02*
Y75000D01*
X74200Y68400D02*
X75000Y69200D01*
X71100Y76174D02*
X73826D01*
X75000Y75000D01*
X64726Y66726D02*
X65700Y67700D01*
X68900D01*
X69800Y66800D01*
X44100Y40800D02*
X46200D01*
X37626Y42726D02*
X38500Y43600D01*
X41300D01*
X44100Y40800D01*
D47*
X37400Y91600D02*
X39265D01*
X37600Y91000D02*
Y91600D01*
X34224Y90950D02*
X36750D01*
X37400Y91600D01*
D48*
X25200Y37800D02*
X29726D01*
D49*
X27700Y47300D02*
D03*
X22700D02*
D03*
Y52300D02*
D03*
X27700D02*
D03*
X25200Y49800D02*
D03*
X76700Y70900D02*
D03*
X71700D02*
D03*
Y65900D02*
D03*
X76700D02*
D03*
X74200Y68400D02*
D03*
X58500Y71300D02*
D03*
X53500D02*
D03*
Y66300D02*
D03*
X58500D02*
D03*
X56000Y68800D02*
D03*
X42500Y73700D02*
D03*
X37500D02*
D03*
Y68700D02*
D03*
X42500D02*
D03*
X40000Y71200D02*
D03*
X76700Y62500D02*
D03*
X71700D02*
D03*
Y57500D02*
D03*
X76700D02*
D03*
X74200Y60000D02*
D03*
X59300Y57300D02*
D03*
X54300D02*
D03*
Y52300D02*
D03*
X59300D02*
D03*
X56800Y54800D02*
D03*
X43300Y60500D02*
D03*
X38300D02*
D03*
Y55500D02*
D03*
X43300D02*
D03*
X40800Y58000D02*
D03*
X76100Y87900D02*
D03*
X71100D02*
D03*
Y82900D02*
D03*
X76100D02*
D03*
X73600Y85400D02*
D03*
X60300Y86500D02*
D03*
X55300D02*
D03*
Y81500D02*
D03*
X60300D02*
D03*
X57800Y84000D02*
D03*
X42500Y87500D02*
D03*
X37500D02*
D03*
Y82500D02*
D03*
X42500D02*
D03*
X40000Y85000D02*
D03*
X56300Y49300D02*
D03*
X51300D02*
D03*
Y44300D02*
D03*
X56300D02*
D03*
X53800Y46800D02*
D03*
X48700Y43300D02*
D03*
X43700D02*
D03*
Y38300D02*
D03*
X48700D02*
D03*
X46200Y40800D02*
D03*
X27700Y40300D02*
D03*
X22700D02*
D03*
Y35300D02*
D03*
X27700D02*
D03*
X25200Y37800D02*
D03*
X75300Y46700D02*
D03*
X70300D02*
D03*
Y41700D02*
D03*
X75300D02*
D03*
X72800Y44200D02*
D03*
X56700Y39700D02*
D03*
X51700D02*
D03*
Y34700D02*
D03*
X56700D02*
D03*
X54200Y37200D02*
D03*
D50*
X76474Y49493D02*
D03*
Y54454D02*
D03*
D51*
X73600Y49493D02*
D03*
Y51146D02*
D03*
Y54454D02*
D03*
Y52800D02*
D03*
X52189Y108235D02*
D03*
X50535D02*
D03*
X48882D02*
D03*
X47228D02*
D03*
X45575D02*
D03*
X43921D02*
D03*
X42268D02*
D03*
X40614D02*
D03*
X38961D02*
D03*
X37307D02*
D03*
X35654D02*
D03*
X34000D02*
D03*
X52189Y110400D02*
D03*
X50535D02*
D03*
X48882D02*
D03*
X47228D02*
D03*
X45575D02*
D03*
X43921D02*
D03*
X42268D02*
D03*
X40614D02*
D03*
X38961D02*
D03*
X37307D02*
D03*
X35654D02*
D03*
X34000D02*
D03*
D52*
X62400Y108900D02*
D03*
X65920Y102600D02*
D03*
X70240Y101400D02*
D03*
X75600Y106900D02*
D03*
D53*
X61600Y106250D02*
D03*
X62400D02*
D03*
X61800Y105600D02*
D03*
X62200D02*
D03*
X61800Y105200D02*
D03*
X62200D02*
D03*
X61800Y104800D02*
D03*
X62200D02*
D03*
X61600Y104200D02*
D03*
X62400D02*
D03*
D54*
X38600Y103600D02*
D03*
X51300Y74800D02*
D03*
Y60300D02*
D03*
X51400Y88100D02*
D03*
X65900Y73000D02*
D03*
Y74400D02*
D03*
X60500Y79600D02*
D03*
X58700Y74000D02*
D03*
X73500Y73000D02*
D03*
X67700Y64600D02*
D03*
X46600Y45700D02*
D03*
X40600Y40400D02*
D03*
X39000Y45700D02*
D03*
Y47100D02*
D03*
X33600Y52300D02*
D03*
X31800Y46700D02*
D03*
D55*
X37600Y103600D02*
D03*
X47300Y73800D02*
D03*
Y74800D02*
D03*
X48300Y73800D02*
D03*
Y74800D02*
D03*
X49300Y73800D02*
D03*
Y74800D02*
D03*
X50300Y73800D02*
D03*
Y74800D02*
D03*
X51300Y73800D02*
D03*
X47300Y59300D02*
D03*
Y60300D02*
D03*
X48300Y59300D02*
D03*
Y60300D02*
D03*
X49300Y59300D02*
D03*
Y60300D02*
D03*
X50300Y59300D02*
D03*
Y60300D02*
D03*
X51300Y59300D02*
D03*
X47400Y87100D02*
D03*
Y88100D02*
D03*
X48400Y87100D02*
D03*
Y88100D02*
D03*
X49400Y87100D02*
D03*
Y88100D02*
D03*
X50400Y87100D02*
D03*
Y88100D02*
D03*
X51400Y87100D02*
D03*
X66900Y73000D02*
D03*
Y74400D02*
D03*
X60500Y78600D02*
D03*
X59700Y74000D02*
D03*
X71500Y73000D02*
D03*
X72500D02*
D03*
X67700Y66600D02*
D03*
Y65600D02*
D03*
X45600Y45700D02*
D03*
X40600Y41400D02*
D03*
X40000Y45700D02*
D03*
Y47100D02*
D03*
X33600Y51300D02*
D03*
X32800Y46700D02*
D03*
X44600Y45700D02*
D03*
X40600Y42400D02*
D03*
D56*
X49800Y61400D02*
D03*
X36800Y62600D02*
D03*
X50000Y76000D02*
D03*
X37000Y76400D02*
D03*
X37600Y91000D02*
D03*
X49900Y89500D02*
D03*
D57*
X22400Y112000D02*
D03*
X23200Y32720D02*
D03*
X75520Y34600D02*
D03*
X76600Y112600D02*
D03*
D58*
X23400Y78700D02*
D03*
X21400Y75700D02*
D03*
X26650Y77200D02*
D03*
X25150Y78700D02*
D03*
X24900Y75700D02*
D03*
X23500Y63500D02*
D03*
X21500Y60500D02*
D03*
X26750Y62000D02*
D03*
X25250Y63500D02*
D03*
X25000Y60500D02*
D03*
X23500Y92400D02*
D03*
X21500Y89400D02*
D03*
X26750Y90900D02*
D03*
X25250Y92400D02*
D03*
X25000Y89400D02*
D03*
D59*
X58600Y100800D02*
D03*
X42700Y40500D02*
D03*
X30449Y35849D02*
D03*
X30900Y35000D02*
D03*
X40700Y35200D02*
D03*
X41800Y36300D02*
D03*
X38600Y33400D02*
D03*
X37760Y32240D02*
D03*
X34400Y33400D02*
D03*
X36260Y42260D02*
D03*
Y40260D02*
D03*
X34500Y41200D02*
D03*
X33740Y42360D02*
D03*
X40600Y37800D02*
D03*
X39826Y37174D02*
D03*
X33900Y38300D02*
D03*
X32800D02*
D03*
X34300Y38200D02*
D03*
X35600Y38400D02*
D03*
X38200Y38600D02*
D03*
X37600Y38400D02*
D03*
X36444Y38144D02*
D03*
X42600Y50000D02*
D03*
X33200Y50500D02*
D03*
X30600Y47200D02*
D03*
X36951Y46749D02*
D03*
X41849Y45149D02*
D03*
X46000Y51900D02*
D03*
X41900D02*
D03*
X42740Y50840D02*
D03*
X38060Y52940D02*
D03*
X39000Y51900D02*
D03*
X37300D02*
D03*
X34800D02*
D03*
X37500Y44900D02*
D03*
X34140Y45940D02*
D03*
X33300Y44900D02*
D03*
X47340Y49960D02*
D03*
X46200Y50700D02*
D03*
X47260Y47440D02*
D03*
X45140D02*
D03*
X33600Y48400D02*
D03*
X33700Y49700D02*
D03*
X32600Y49300D02*
D03*
X34807Y50493D02*
D03*
X36700Y48600D02*
D03*
X35400Y49000D02*
D03*
X34400D02*
D03*
X40700Y48600D02*
D03*
Y48000D02*
D03*
X43000Y49200D02*
D03*
X44500Y49500D02*
D03*
X44200Y47100D02*
D03*
X43700Y48500D02*
D03*
X43600Y46400D02*
D03*
X42899Y47699D02*
D03*
X42300Y47700D02*
D03*
X42100Y46500D02*
D03*
X72900Y36300D02*
D03*
X70935Y35465D02*
D03*
X68465Y37035D02*
D03*
X68800Y35800D02*
D03*
X69800Y35700D02*
D03*
X71800Y37200D02*
D03*
X64700Y36800D02*
D03*
Y37600D02*
D03*
X65600Y38900D02*
D03*
X62911Y36411D02*
D03*
X62300Y36900D02*
D03*
X63700Y37700D02*
D03*
X63596Y38496D02*
D03*
X53400Y62700D02*
D03*
X53900Y62300D02*
D03*
X53800Y58800D02*
D03*
X53900Y58200D02*
D03*
X52300Y62900D02*
D03*
X54400Y63900D02*
D03*
X52800Y63600D02*
D03*
X53400Y77200D02*
D03*
X53900Y76800D02*
D03*
X53800Y73300D02*
D03*
X53900Y72700D02*
D03*
X52300Y77400D02*
D03*
X54400Y78400D02*
D03*
X52800Y78100D02*
D03*
X68900Y60500D02*
D03*
X68749Y72449D02*
D03*
X66100Y93500D02*
D03*
X66000Y89700D02*
D03*
X75500Y78500D02*
D03*
X71300Y68100D02*
D03*
X45500Y43400D02*
D03*
X59800Y95700D02*
D03*
X62050Y96650D02*
D03*
X55802Y95402D02*
D03*
X53965Y98065D02*
D03*
X54200Y96700D02*
D03*
X54226Y96226D02*
D03*
X57300Y94600D02*
D03*
X64200Y43300D02*
D03*
X64000Y50700D02*
D03*
X64900Y54400D02*
D03*
X67710Y53410D02*
D03*
Y50990D02*
D03*
X67500Y48700D02*
D03*
X52900Y91400D02*
D03*
X54500Y91700D02*
D03*
X65665Y90935D02*
D03*
X70100Y90200D02*
D03*
X69000Y91100D02*
D03*
X67000Y89600D02*
D03*
X68135Y89365D02*
D03*
X59500Y90800D02*
D03*
X60796Y92396D02*
D03*
X60900Y91600D02*
D03*
X60111Y90311D02*
D03*
X62800Y92800D02*
D03*
X61900Y91500D02*
D03*
Y90700D02*
D03*
X65300Y62800D02*
D03*
X57549Y60049D02*
D03*
X58000Y59200D02*
D03*
X63960Y56440D02*
D03*
X64800Y57600D02*
D03*
X60600D02*
D03*
X60840Y66560D02*
D03*
X61600Y65400D02*
D03*
X63360Y66460D02*
D03*
Y64460D02*
D03*
X64700Y62600D02*
D03*
X63544Y62344D02*
D03*
X61400Y62400D02*
D03*
X62700Y62600D02*
D03*
X66926Y61374D02*
D03*
X67700Y62000D02*
D03*
X67800Y59400D02*
D03*
X59900Y62500D02*
D03*
X61000D02*
D03*
X69500Y77300D02*
D03*
X60100Y77800D02*
D03*
X59500Y76600D02*
D03*
X57500Y74500D02*
D03*
X63851Y74049D02*
D03*
X72900Y79200D02*
D03*
X69640Y78140D02*
D03*
X68800Y79200D02*
D03*
X64960Y80240D02*
D03*
X65900Y79200D02*
D03*
X64200D02*
D03*
X61700D02*
D03*
X64400Y72200D02*
D03*
X61040Y73240D02*
D03*
X60200Y72200D02*
D03*
X73100Y78000D02*
D03*
X74240Y77260D02*
D03*
X74160Y74740D02*
D03*
X72040D02*
D03*
X60500Y75700D02*
D03*
X60600Y77000D02*
D03*
X61707Y77793D02*
D03*
X63600Y75900D02*
D03*
X62300Y76300D02*
D03*
X61300D02*
D03*
X67600Y75900D02*
D03*
Y75300D02*
D03*
X69900Y76500D02*
D03*
X71400Y76800D02*
D03*
X71100Y74400D02*
D03*
X70600Y75800D02*
D03*
X70500Y73700D02*
D03*
X69799Y74999D02*
D03*
X69200Y75000D02*
D03*
X69000Y73800D02*
D03*
X54000Y86000D02*
D03*
X53900Y86600D02*
D03*
X53500Y90500D02*
D03*
X54000Y90100D02*
D03*
X52400Y90700D02*
D03*
D60*
X51365Y64635D02*
D03*
X50435D02*
D03*
X48500Y61500D02*
D03*
X51400Y57400D02*
D03*
X44600Y64900D02*
D03*
X42700Y62500D02*
D03*
X43700Y62800D02*
D03*
Y63600D02*
D03*
X53500Y64200D02*
D03*
X51800D02*
D03*
X51400Y64000D02*
D03*
X49000Y62400D02*
D03*
X47950Y63250D02*
D03*
X51365Y79135D02*
D03*
X50435D02*
D03*
X48500Y76000D02*
D03*
X51400Y71900D02*
D03*
X44600Y79400D02*
D03*
X42700Y77000D02*
D03*
X43700Y77300D02*
D03*
Y78100D02*
D03*
X53500Y78700D02*
D03*
X51800D02*
D03*
X51400Y78500D02*
D03*
X49000Y76900D02*
D03*
X47950Y77750D02*
D03*
X51465Y92435D02*
D03*
X51900Y92000D02*
D03*
X53600D02*
D03*
X51500Y85200D02*
D03*
X44700Y92700D02*
D03*
X43800Y90600D02*
D03*
X42800Y90300D02*
D03*
X43800Y91400D02*
D03*
X50535Y92435D02*
D03*
X51500Y91800D02*
D03*
X48600Y89300D02*
D03*
X49100Y90200D02*
D03*
X48050Y91050D02*
D03*
X33565Y64735D02*
D03*
X33635Y61065D02*
D03*
X36400Y64600D02*
D03*
X35551Y60751D02*
D03*
X34400Y64000D02*
D03*
X33550Y62550D02*
D03*
X34449Y61651D02*
D03*
X33465Y78735D02*
D03*
X33535Y75065D02*
D03*
X36300Y78600D02*
D03*
X35451Y74751D02*
D03*
X34300Y78000D02*
D03*
X33450Y76550D02*
D03*
X34349Y75651D02*
D03*
X36400Y92500D02*
D03*
X33565Y92635D02*
D03*
X34400Y91900D02*
D03*
X33550Y90450D02*
D03*
X35551Y88651D02*
D03*
X33635Y88965D02*
D03*
X34449Y89551D02*
D03*
M02*
