%FSLAX24Y24*%
%MOIN*%
G70*
G01*
G75*
%ADD10C,0.0080*%
%ADD11R,0.0600X0.0150*%
%ADD12R,0.0620X0.1010*%
%ADD13R,0.0360X0.2560*%
%ADD14R,0.0620X0.0775*%
%ADD15R,0.0394X0.0433*%
%ADD16R,0.1181X0.1969*%
%ADD17R,0.1417X0.0315*%
%ADD18R,0.0630X0.1063*%
%ADD19R,0.0150X0.0409*%
%ADD20O,0.0150X0.0409*%
%ADD21R,0.1614X0.1024*%
%ADD22R,0.0630X0.0118*%
%ADD23R,0.0630X0.0118*%
%ADD24R,0.0709X0.0630*%
%ADD25R,0.0846X0.0157*%
%ADD26R,0.0846X0.0157*%
%ADD27R,0.0630X0.0709*%
%ADD28R,0.0512X0.0591*%
%ADD29R,0.0591X0.0512*%
%ADD30R,0.0551X0.0236*%
%ADD31O,0.0480X0.0169*%
%ADD32R,0.0650X0.0118*%
%ADD33R,0.0787X0.0472*%
%ADD34R,0.0866X0.0236*%
%ADD35R,0.0866X0.0236*%
%ADD36R,0.0433X0.0394*%
%ADD37R,0.0610X0.0236*%
%ADD38R,0.1024X0.1614*%
%ADD39R,0.0480X0.0169*%
%ADD40R,0.0394X0.0236*%
%ADD41R,0.1240X0.1360*%
%ADD42R,0.0315X0.1417*%
%ADD43C,0.0100*%
%ADD44C,0.0160*%
%ADD45C,0.0200*%
%ADD46C,0.0300*%
%ADD47C,0.0250*%
%ADD48C,0.0400*%
%ADD49C,0.0700*%
%ADD50C,0.1575*%
%ADD51C,0.0866*%
%ADD52C,0.0866*%
%ADD53C,0.0200*%
%ADD54R,0.0591X0.0591*%
%ADD55C,0.0591*%
%ADD56C,0.0600*%
%ADD57C,0.1600*%
%ADD58C,0.0750*%
%ADD59C,0.0250*%
%ADD60C,0.0350*%
%ADD61C,0.0039*%
%ADD62C,0.0098*%
%ADD63C,0.0079*%
%ADD64C,0.0070*%
%ADD65R,0.0079X0.0197*%
%ADD66C,0.0020*%
%ADD67R,0.0079X0.0197*%
%ADD68R,0.0197X0.0079*%
%ADD69R,0.0157X0.0197*%
%ADD70R,0.0197X0.0079*%
%ADD71R,0.0197X0.0157*%
%ADD72R,0.0157X0.0197*%
%ADD73R,0.0680X0.0230*%
%ADD74R,0.0474X0.0513*%
%ADD75R,0.1261X0.2049*%
%ADD76R,0.1497X0.0395*%
%ADD77R,0.0710X0.1143*%
%ADD78R,0.0230X0.0489*%
%ADD79O,0.0230X0.0489*%
%ADD80R,0.1694X0.1104*%
%ADD81R,0.0710X0.0198*%
%ADD82R,0.0710X0.0198*%
%ADD83R,0.0789X0.0710*%
%ADD84R,0.0926X0.0237*%
%ADD85R,0.0926X0.0237*%
%ADD86R,0.0710X0.0789*%
%ADD87R,0.0592X0.0671*%
%ADD88R,0.0671X0.0592*%
%ADD89R,0.0631X0.0316*%
%ADD90O,0.0560X0.0249*%
%ADD91R,0.0730X0.0198*%
%ADD92R,0.0867X0.0552*%
%ADD93R,0.0946X0.0316*%
%ADD94R,0.0946X0.0316*%
%ADD95R,0.0513X0.0474*%
%ADD96R,0.0690X0.0316*%
%ADD97R,0.1104X0.1694*%
%ADD98R,0.0560X0.0249*%
%ADD99R,0.0474X0.0316*%
%ADD100R,0.1320X0.1440*%
%ADD101R,0.0395X0.1497*%
%ADD102C,0.0780*%
%ADD103C,0.1655*%
%ADD104C,0.0946*%
%ADD105C,0.0946*%
%ADD106R,0.0671X0.0671*%
%ADD107C,0.0671*%
%ADD108C,0.0680*%
%ADD109C,0.1680*%
%ADD110C,0.0830*%
%ADD111C,0.0330*%
%ADD112C,0.0430*%
D12*
X62000Y105200D02*
D03*
D73*
X60850Y106094D02*
D03*
X63150D02*
D03*
X60850Y105838D02*
D03*
Y105582D02*
D03*
Y105326D02*
D03*
Y105070D02*
D03*
Y104814D02*
D03*
Y104558D02*
D03*
Y104302D02*
D03*
X63150Y105838D02*
D03*
Y105582D02*
D03*
Y105326D02*
D03*
Y105070D02*
D03*
Y104814D02*
D03*
Y104558D02*
D03*
Y104302D02*
D03*
D74*
X64400Y106065D02*
D03*
Y106735D02*
D03*
X64200Y104065D02*
D03*
Y104735D02*
D03*
X58600Y104135D02*
D03*
Y103465D02*
D03*
Y101465D02*
D03*
Y102135D02*
D03*
D75*
X71729Y106000D02*
D03*
X67871D02*
D03*
D76*
X60381Y110200D02*
D03*
X58019D02*
D03*
D77*
X59249Y107400D02*
D03*
X60351D02*
D03*
D78*
X65000Y104600D02*
D03*
D79*
X65256D02*
D03*
X65512D02*
D03*
X65768D02*
D03*
X65000Y106269D02*
D03*
X65256D02*
D03*
X65512D02*
D03*
X65768D02*
D03*
D80*
X73800Y101540D02*
D03*
Y104060D02*
D03*
X73100Y77260D02*
D03*
Y74740D02*
D03*
X46200Y47440D02*
D03*
Y49960D02*
D03*
D81*
X60093Y77394D02*
D03*
X60093Y77197D02*
D03*
X60093Y77000D02*
D03*
Y76803D02*
D03*
Y76606D02*
D03*
X61707Y77197D02*
D03*
Y77000D02*
D03*
Y76803D02*
D03*
Y76606D02*
D03*
X33193Y50094D02*
D03*
X33193Y49897D02*
D03*
X33193Y49700D02*
D03*
Y49503D02*
D03*
Y49306D02*
D03*
X34807Y49897D02*
D03*
Y49700D02*
D03*
Y49503D02*
D03*
Y49306D02*
D03*
X68293Y76194D02*
D03*
X68293Y75997D02*
D03*
X68293Y75800D02*
D03*
Y75603D02*
D03*
Y75406D02*
D03*
X69907Y75997D02*
D03*
Y75800D02*
D03*
Y75603D02*
D03*
Y75406D02*
D03*
X43007Y48106D02*
D03*
X41393D02*
D03*
X43007Y48303D02*
D03*
Y48500D02*
D03*
Y48697D02*
D03*
X41393D02*
D03*
X41393Y48894D02*
D03*
X41393Y48500D02*
D03*
Y48303D02*
D03*
D82*
X61707Y77394D02*
D03*
X34807Y50094D02*
D03*
X69907Y76194D02*
D03*
X43007Y48894D02*
D03*
D83*
X68900Y61049D02*
D03*
Y62151D02*
D03*
X37400Y50051D02*
D03*
Y48949D02*
D03*
X64300Y77351D02*
D03*
Y76249D02*
D03*
X57500Y75049D02*
D03*
Y76151D02*
D03*
X64500Y74049D02*
D03*
Y75151D02*
D03*
X57300Y96351D02*
D03*
Y95249D02*
D03*
X37600Y47851D02*
D03*
X30600Y48851D02*
D03*
X41800Y37951D02*
D03*
X37600Y46749D02*
D03*
X30600Y47749D02*
D03*
X41800Y36849D02*
D03*
D84*
X62689Y90604D02*
D03*
Y90860D02*
D03*
Y91116D02*
D03*
Y91372D02*
D03*
Y91628D02*
D03*
Y91884D02*
D03*
Y92140D02*
D03*
Y92396D02*
D03*
X60111Y90604D02*
D03*
Y90860D02*
D03*
Y91116D02*
D03*
Y91372D02*
D03*
Y91628D02*
D03*
Y91884D02*
D03*
Y92140D02*
D03*
X62911Y37216D02*
D03*
X65489Y37728D02*
D03*
X62911D02*
D03*
X65489Y37216D02*
D03*
X62911Y38240D02*
D03*
X65489D02*
D03*
Y37984D02*
D03*
Y37472D02*
D03*
Y36960D02*
D03*
Y36704D02*
D03*
X62911Y36960D02*
D03*
Y37472D02*
D03*
Y37984D02*
D03*
Y36704D02*
D03*
X65489Y38496D02*
D03*
D85*
X60111Y92396D02*
D03*
X62911Y38496D02*
D03*
D86*
X65851Y60800D02*
D03*
X64749D02*
D03*
X32951Y48300D02*
D03*
X31849D02*
D03*
X59851Y75600D02*
D03*
X58749D02*
D03*
X68651Y77400D02*
D03*
X67549D02*
D03*
X70349D02*
D03*
X71451D02*
D03*
X63251Y74000D02*
D03*
X62149D02*
D03*
X68749Y73000D02*
D03*
X69851D02*
D03*
X60651Y63200D02*
D03*
X59549D02*
D03*
X63651Y60800D02*
D03*
X62549D02*
D03*
X64549Y64800D02*
D03*
X65651D02*
D03*
X57549Y60600D02*
D03*
X58651D02*
D03*
X58549Y59200D02*
D03*
X59651D02*
D03*
X67251Y59400D02*
D03*
X66149D02*
D03*
X55949Y98000D02*
D03*
X57051D02*
D03*
X42951Y45700D02*
D03*
X35249Y46700D02*
D03*
X44551Y50100D02*
D03*
X43449D02*
D03*
X40649D02*
D03*
X41751D02*
D03*
X39049Y35200D02*
D03*
X32551Y35000D02*
D03*
X31551Y36400D02*
D03*
X38551Y40600D02*
D03*
X37449D02*
D03*
X37649Y36600D02*
D03*
X38751D02*
D03*
X35449Y36600D02*
D03*
X36551D02*
D03*
X32449Y39000D02*
D03*
X33551D02*
D03*
X41849Y45700D02*
D03*
X36351Y46700D02*
D03*
X40151Y35200D02*
D03*
X31449Y35000D02*
D03*
X30449Y36400D02*
D03*
D87*
X32374Y37800D02*
D03*
X31626D02*
D03*
X57674Y62000D02*
D03*
X56926D02*
D03*
X57274Y77200D02*
D03*
X56526D02*
D03*
X68174Y92500D02*
D03*
X67426D02*
D03*
X66374D02*
D03*
X65626D02*
D03*
X64574D02*
D03*
X63826D02*
D03*
X57174Y91700D02*
D03*
X56426D02*
D03*
X64574Y91300D02*
D03*
X63826D02*
D03*
X58974Y91700D02*
D03*
X58226D02*
D03*
X58974Y90500D02*
D03*
X58226D02*
D03*
X61774Y89500D02*
D03*
X61026D02*
D03*
X58326Y78600D02*
D03*
X59074D02*
D03*
X66726Y78800D02*
D03*
X67474D02*
D03*
X59074Y77200D02*
D03*
X58326D02*
D03*
X63074Y75400D02*
D03*
X62326D02*
D03*
X67074Y76000D02*
D03*
X66326D02*
D03*
X66274Y77400D02*
D03*
X65526D02*
D03*
X70674Y74400D02*
D03*
X69926D02*
D03*
X68874Y74400D02*
D03*
X68126D02*
D03*
X58926Y64600D02*
D03*
X59674D02*
D03*
X62526Y59400D02*
D03*
X63274D02*
D03*
X67674Y60800D02*
D03*
X66926D02*
D03*
X65474Y66200D02*
D03*
X64726D02*
D03*
X59474Y62000D02*
D03*
X58726D02*
D03*
X61474Y59800D02*
D03*
X60726D02*
D03*
X65726Y62200D02*
D03*
X66474D02*
D03*
X65074Y59400D02*
D03*
X64326D02*
D03*
X65726Y63600D02*
D03*
X66474D02*
D03*
X63826Y35600D02*
D03*
X61774Y36600D02*
D03*
X66626Y37400D02*
D03*
X61774Y37800D02*
D03*
X64574Y35600D02*
D03*
X67374Y37400D02*
D03*
Y38600D02*
D03*
X61026Y36600D02*
D03*
Y37800D02*
D03*
X59974D02*
D03*
X66626Y38600D02*
D03*
X68426D02*
D03*
X59226Y37800D02*
D03*
X29826Y37800D02*
D03*
X29626Y49900D02*
D03*
X70226Y38600D02*
D03*
X69174D02*
D03*
X70974D02*
D03*
X43026Y47100D02*
D03*
X41974D02*
D03*
X39426Y48700D02*
D03*
X39374Y50100D02*
D03*
X39826Y51500D02*
D03*
X35426Y48100D02*
D03*
X31426Y49900D02*
D03*
X30374D02*
D03*
X31426Y51300D02*
D03*
X43774Y47100D02*
D03*
X40174Y48700D02*
D03*
X41226Y47100D02*
D03*
X40574Y51500D02*
D03*
X36174Y48100D02*
D03*
X38626Y50100D02*
D03*
X32174Y49900D02*
D03*
X32174Y51300D02*
D03*
X39374Y39401D02*
D03*
X38374Y42000D02*
D03*
X39374Y38001D02*
D03*
X37974Y35200D02*
D03*
X40574Y36600D02*
D03*
X33626Y35600D02*
D03*
X35426Y35201D02*
D03*
X30574Y37800D02*
D03*
X31826Y40401D02*
D03*
X38626Y39401D02*
D03*
X37626Y42000D02*
D03*
X38626Y38001D02*
D03*
X39826Y36600D02*
D03*
X34374Y35600D02*
D03*
X37226Y35200D02*
D03*
X36174Y35201D02*
D03*
X32574Y40401D02*
D03*
D88*
X34200Y48074D02*
D03*
Y47326D02*
D03*
X31000Y90326D02*
D03*
Y91074D02*
D03*
X70800Y90626D02*
D03*
Y91374D02*
D03*
X62900Y76626D02*
D03*
Y77374D02*
D03*
X71100Y75426D02*
D03*
Y76174D02*
D03*
X61100Y74626D02*
D03*
Y75374D02*
D03*
X46600Y85226D02*
D03*
Y85974D02*
D03*
X48000Y85226D02*
D03*
Y85974D02*
D03*
X49400Y85226D02*
D03*
Y85974D02*
D03*
X50800Y85226D02*
D03*
Y85974D02*
D03*
X52200Y85226D02*
D03*
Y85974D02*
D03*
X60700Y61026D02*
D03*
Y61774D02*
D03*
X67700Y63374D02*
D03*
Y62626D02*
D03*
X31000Y62426D02*
D03*
Y63174D02*
D03*
X30900Y76426D02*
D03*
Y77174D02*
D03*
X46500Y72674D02*
D03*
X47900D02*
D03*
X49300D02*
D03*
X50700D02*
D03*
X52100D02*
D03*
X46498Y58174D02*
D03*
X47901D02*
D03*
X49298D02*
D03*
X50698D02*
D03*
X52102D02*
D03*
X73600Y37474D02*
D03*
Y36726D02*
D03*
X44200Y48126D02*
D03*
X36000Y49326D02*
D03*
X44200Y48874D02*
D03*
X36000Y50074D02*
D03*
X40601Y39174D02*
D03*
X33601Y36826D02*
D03*
X40601Y38426D02*
D03*
X33601Y37574D02*
D03*
X46500Y71926D02*
D03*
X46498Y57426D02*
D03*
X47900Y71926D02*
D03*
X47901Y57426D02*
D03*
X49300Y71926D02*
D03*
X49298Y57426D02*
D03*
X50700Y71926D02*
D03*
X50698Y57426D02*
D03*
X52100Y71926D02*
D03*
X52102Y57426D02*
D03*
D89*
X48639Y91050D02*
D03*
Y92050D02*
D03*
Y91550D02*
D03*
Y90550D02*
D03*
X50961Y92050D02*
D03*
Y91550D02*
D03*
Y91050D02*
D03*
Y90550D02*
D03*
X59139Y97150D02*
D03*
Y96650D02*
D03*
Y96150D02*
D03*
Y95650D02*
D03*
X61461Y97150D02*
D03*
Y96650D02*
D03*
Y96150D02*
D03*
Y95650D02*
D03*
X48539Y78250D02*
D03*
Y63750D02*
D03*
X50861Y77750D02*
D03*
Y63250D02*
D03*
X48539Y77250D02*
D03*
Y62750D02*
D03*
X50861Y78250D02*
D03*
Y63750D02*
D03*
X48539Y77750D02*
D03*
Y63250D02*
D03*
Y78750D02*
D03*
X50861D02*
D03*
Y77250D02*
D03*
X48539Y64250D02*
D03*
X50861D02*
D03*
Y62750D02*
D03*
D90*
X52400Y91444D02*
D03*
Y91188D02*
D03*
Y90932D02*
D03*
X53432Y91700D02*
D03*
Y91444D02*
D03*
Y91188D02*
D03*
Y90932D02*
D03*
X52300Y77888D02*
D03*
Y63388D02*
D03*
X53331Y78144D02*
D03*
Y77888D02*
D03*
Y77632D02*
D03*
Y63644D02*
D03*
Y63388D02*
D03*
Y63132D02*
D03*
X52300Y77632D02*
D03*
Y63132D02*
D03*
X53331Y78400D02*
D03*
Y63900D02*
D03*
X52300Y78144D02*
D03*
Y63644D02*
D03*
D91*
X43107Y90604D02*
D03*
Y91116D02*
D03*
Y92396D02*
D03*
Y92140D02*
D03*
Y91884D02*
D03*
Y91628D02*
D03*
Y91372D02*
D03*
Y90860D02*
D03*
X45293Y92396D02*
D03*
Y92140D02*
D03*
Y91884D02*
D03*
Y91628D02*
D03*
Y91372D02*
D03*
Y91116D02*
D03*
Y90860D02*
D03*
Y90604D02*
D03*
X62007Y63368D02*
D03*
Y63112D02*
D03*
Y62856D02*
D03*
Y62600D02*
D03*
Y62344D02*
D03*
Y62088D02*
D03*
Y61832D02*
D03*
X64193Y63368D02*
D03*
Y63112D02*
D03*
Y62856D02*
D03*
Y62600D02*
D03*
Y62344D02*
D03*
Y62088D02*
D03*
Y61832D02*
D03*
X45193Y78328D02*
D03*
X43007Y78584D02*
D03*
X45193Y63828D02*
D03*
X43007Y64084D02*
D03*
Y78328D02*
D03*
Y63828D02*
D03*
Y78840D02*
D03*
Y64340D02*
D03*
Y78072D02*
D03*
Y63572D02*
D03*
Y79096D02*
D03*
Y64596D02*
D03*
X45193Y77816D02*
D03*
Y63316D02*
D03*
Y78840D02*
D03*
Y64340D02*
D03*
Y78584D02*
D03*
Y64084D02*
D03*
Y78072D02*
D03*
Y63572D02*
D03*
Y77304D02*
D03*
Y77560D02*
D03*
Y62804D02*
D03*
Y63060D02*
D03*
X37093Y38656D02*
D03*
Y38912D02*
D03*
Y39168D02*
D03*
Y37888D02*
D03*
Y37632D02*
D03*
X34907Y37888D02*
D03*
Y37632D02*
D03*
Y38912D02*
D03*
Y39168D02*
D03*
X37093Y38144D02*
D03*
X34907D02*
D03*
Y38656D02*
D03*
X43007Y77560D02*
D03*
Y63060D02*
D03*
X37093Y38400D02*
D03*
X45193Y79096D02*
D03*
Y64596D02*
D03*
X34907Y38400D02*
D03*
X43007Y77304D02*
D03*
Y77816D02*
D03*
Y62804D02*
D03*
Y63316D02*
D03*
D92*
X53351Y90100D02*
D03*
X52249Y92500D02*
D03*
X34649D02*
D03*
X35751D02*
D03*
X35551Y89100D02*
D03*
X34449D02*
D03*
X53351Y92500D02*
D03*
X52249Y90100D02*
D03*
X35551Y61200D02*
D03*
X35451Y75200D02*
D03*
X35751Y64600D02*
D03*
X35651Y78600D02*
D03*
X34449Y61200D02*
D03*
X34349Y75200D02*
D03*
X52149Y76800D02*
D03*
Y62300D02*
D03*
X34649Y64600D02*
D03*
X34549Y78600D02*
D03*
X53251Y79200D02*
D03*
Y64700D02*
D03*
Y76800D02*
D03*
Y62300D02*
D03*
X52149Y79200D02*
D03*
Y64700D02*
D03*
D93*
X32176Y90950D02*
D03*
Y90450D02*
D03*
Y89950D02*
D03*
X34224Y91450D02*
D03*
Y90950D02*
D03*
Y90450D02*
D03*
Y89950D02*
D03*
X32176Y62550D02*
D03*
Y63050D02*
D03*
X32076Y76550D02*
D03*
Y77050D02*
D03*
X32176Y62050D02*
D03*
X32076Y76050D02*
D03*
X34124Y77050D02*
D03*
X34224Y63050D02*
D03*
Y62550D02*
D03*
X34124Y76550D02*
D03*
X34224Y62050D02*
D03*
X34124Y76050D02*
D03*
X34224Y63550D02*
D03*
X34124Y77550D02*
D03*
D94*
X32176Y91450D02*
D03*
Y63550D02*
D03*
X32076Y77550D02*
D03*
D95*
X69265Y92600D02*
D03*
X69935D02*
D03*
X66335Y91300D02*
D03*
X65665D02*
D03*
X46665Y90900D02*
D03*
X47335D02*
D03*
X46665Y91900D02*
D03*
X47335D02*
D03*
X46665Y92900D02*
D03*
X47335D02*
D03*
X46665Y89900D02*
D03*
X47335D02*
D03*
X41935Y93100D02*
D03*
X41265D02*
D03*
X39265Y90100D02*
D03*
X39935D02*
D03*
X41935D02*
D03*
X41265D02*
D03*
X39265Y92100D02*
D03*
X39935D02*
D03*
X41935D02*
D03*
X41265D02*
D03*
X39265Y91100D02*
D03*
X39935D02*
D03*
X41935D02*
D03*
X41265D02*
D03*
X53965Y97600D02*
D03*
X54635D02*
D03*
X41835Y77800D02*
D03*
Y63300D02*
D03*
Y78800D02*
D03*
Y64300D02*
D03*
Y76800D02*
D03*
Y62300D02*
D03*
Y79800D02*
D03*
Y65300D02*
D03*
X46565Y76600D02*
D03*
Y62100D02*
D03*
Y79600D02*
D03*
Y65100D02*
D03*
Y78600D02*
D03*
Y64100D02*
D03*
Y77600D02*
D03*
X47235Y76600D02*
D03*
Y79600D02*
D03*
Y78600D02*
D03*
Y77600D02*
D03*
X46565Y63100D02*
D03*
X47235Y62100D02*
D03*
Y65100D02*
D03*
Y64100D02*
D03*
Y63100D02*
D03*
X69135Y37400D02*
D03*
X72065Y38700D02*
D03*
X72735D02*
D03*
X41165Y77800D02*
D03*
X39835D02*
D03*
X41165Y63300D02*
D03*
X39835D02*
D03*
X41165Y78800D02*
D03*
X39835D02*
D03*
X41165Y64300D02*
D03*
X39835D02*
D03*
X41165Y79800D02*
D03*
X39165Y77800D02*
D03*
Y78800D02*
D03*
Y76800D02*
D03*
X41165D02*
D03*
X39835D02*
D03*
X41165Y65300D02*
D03*
X39165Y63300D02*
D03*
Y64300D02*
D03*
Y62300D02*
D03*
X41165D02*
D03*
X39835D02*
D03*
X68465Y37400D02*
D03*
D96*
X67248Y91450D02*
D03*
Y90950D02*
D03*
Y90450D02*
D03*
Y89950D02*
D03*
X69552Y91450D02*
D03*
Y90950D02*
D03*
Y90450D02*
D03*
Y89950D02*
D03*
X70048Y36550D02*
D03*
Y37050D02*
D03*
X72352Y36550D02*
D03*
X70048Y36050D02*
D03*
X72352Y37050D02*
D03*
X70048Y37550D02*
D03*
X72352D02*
D03*
Y36050D02*
D03*
D97*
X64960Y79200D02*
D03*
X62440D02*
D03*
X72160D02*
D03*
X69640D02*
D03*
X63560Y72200D02*
D03*
X61040D02*
D03*
X63960Y57600D02*
D03*
X61440D02*
D03*
X63360Y65400D02*
D03*
X60840D02*
D03*
X34140Y44900D02*
D03*
X38060Y51900D02*
D03*
X45260D02*
D03*
X33740Y41200D02*
D03*
X37760Y33400D02*
D03*
X36660Y44900D02*
D03*
X36260Y41200D02*
D03*
X35540Y51900D02*
D03*
X42740D02*
D03*
X35240Y33400D02*
D03*
D98*
X52400Y91700D02*
D03*
X52300Y63900D02*
D03*
Y78400D02*
D03*
D99*
X55802Y95852D02*
D03*
Y96226D02*
D03*
Y96600D02*
D03*
X54700Y95852D02*
D03*
Y96226D02*
D03*
Y96600D02*
D03*
D100*
X67710Y49800D02*
D03*
X71090D02*
D03*
X67710Y54400D02*
D03*
X71090D02*
D03*
D101*
X64200Y44619D02*
D03*
Y46981D02*
D03*
X64000Y54381D02*
D03*
Y52019D02*
D03*
D102*
X27700Y47300D02*
D03*
X22700D02*
D03*
Y52300D02*
D03*
X27700D02*
D03*
X25200Y49800D02*
D03*
X76700Y70900D02*
D03*
X71700D02*
D03*
Y65900D02*
D03*
X76700D02*
D03*
X74200Y68400D02*
D03*
X58500Y71300D02*
D03*
X53500D02*
D03*
Y66300D02*
D03*
X58500D02*
D03*
X56000Y68800D02*
D03*
X42500Y73700D02*
D03*
X37500D02*
D03*
Y68700D02*
D03*
X42500D02*
D03*
X40000Y71200D02*
D03*
X76700Y62500D02*
D03*
X71700D02*
D03*
Y57500D02*
D03*
X76700D02*
D03*
X74200Y60000D02*
D03*
X59300Y57300D02*
D03*
X54300D02*
D03*
Y52300D02*
D03*
X59300D02*
D03*
X56800Y54800D02*
D03*
X43300Y60500D02*
D03*
X38300D02*
D03*
Y55500D02*
D03*
X43300D02*
D03*
X40800Y58000D02*
D03*
X76100Y87900D02*
D03*
X71100D02*
D03*
Y82900D02*
D03*
X76100D02*
D03*
X73600Y85400D02*
D03*
X60300Y86500D02*
D03*
X55300D02*
D03*
Y81500D02*
D03*
X60300D02*
D03*
X57800Y84000D02*
D03*
X42500Y87500D02*
D03*
X37500D02*
D03*
Y82500D02*
D03*
X42500D02*
D03*
X40000Y85000D02*
D03*
X56300Y49300D02*
D03*
X51300D02*
D03*
Y44300D02*
D03*
X56300D02*
D03*
X53800Y46800D02*
D03*
X48700Y43300D02*
D03*
X43700D02*
D03*
Y38300D02*
D03*
X48700D02*
D03*
X46200Y40800D02*
D03*
X27700Y40300D02*
D03*
X22700D02*
D03*
Y35300D02*
D03*
X27700D02*
D03*
X25200Y37800D02*
D03*
X75300Y46700D02*
D03*
X70300D02*
D03*
Y41700D02*
D03*
X75300D02*
D03*
X72800Y44200D02*
D03*
X56700Y39700D02*
D03*
X51700D02*
D03*
Y34700D02*
D03*
X56700D02*
D03*
X54200Y37200D02*
D03*
D103*
X76474Y49493D02*
D03*
Y54454D02*
D03*
D104*
X73600Y49493D02*
D03*
Y51146D02*
D03*
Y54454D02*
D03*
Y52800D02*
D03*
X52189Y108235D02*
D03*
X50535D02*
D03*
X48882D02*
D03*
X47228D02*
D03*
X45575D02*
D03*
X43921D02*
D03*
X42268D02*
D03*
X40614D02*
D03*
X38961D02*
D03*
X37307D02*
D03*
X35654D02*
D03*
X34000D02*
D03*
X52189Y110400D02*
D03*
X50535D02*
D03*
X48882D02*
D03*
X47228D02*
D03*
X45575D02*
D03*
X43921D02*
D03*
X42268D02*
D03*
X40614D02*
D03*
X38961D02*
D03*
X37307D02*
D03*
X35654D02*
D03*
X34000D02*
D03*
D105*
X62400Y108900D02*
D03*
X65920Y102600D02*
D03*
X70240Y101400D02*
D03*
X75600Y106900D02*
D03*
D106*
X38600Y103600D02*
D03*
X51300Y74800D02*
D03*
Y60300D02*
D03*
X51400Y88100D02*
D03*
X65900Y73000D02*
D03*
Y74400D02*
D03*
X60500Y79600D02*
D03*
X58700Y74000D02*
D03*
X73500Y73000D02*
D03*
X67700Y64600D02*
D03*
X46600Y45700D02*
D03*
X40600Y40400D02*
D03*
X39000Y45700D02*
D03*
Y47100D02*
D03*
X33600Y52300D02*
D03*
X31800Y46700D02*
D03*
D107*
X37600Y103600D02*
D03*
X47300Y73800D02*
D03*
Y74800D02*
D03*
X48300Y73800D02*
D03*
Y74800D02*
D03*
X49300Y73800D02*
D03*
Y74800D02*
D03*
X50300Y73800D02*
D03*
Y74800D02*
D03*
X51300Y73800D02*
D03*
X47300Y59300D02*
D03*
Y60300D02*
D03*
X48300Y59300D02*
D03*
Y60300D02*
D03*
X49300Y59300D02*
D03*
Y60300D02*
D03*
X50300Y59300D02*
D03*
Y60300D02*
D03*
X51300Y59300D02*
D03*
X47400Y87100D02*
D03*
Y88100D02*
D03*
X48400Y87100D02*
D03*
Y88100D02*
D03*
X49400Y87100D02*
D03*
Y88100D02*
D03*
X50400Y87100D02*
D03*
Y88100D02*
D03*
X51400Y87100D02*
D03*
X66900Y73000D02*
D03*
Y74400D02*
D03*
X60500Y78600D02*
D03*
X59700Y74000D02*
D03*
X71500Y73000D02*
D03*
X72500D02*
D03*
X67700Y66600D02*
D03*
Y65600D02*
D03*
X45600Y45700D02*
D03*
X40600Y41400D02*
D03*
X40000Y45700D02*
D03*
Y47100D02*
D03*
X33600Y51300D02*
D03*
X32800Y46700D02*
D03*
X44600Y45700D02*
D03*
X40600Y42400D02*
D03*
D108*
X49800Y61400D02*
D03*
X36800Y62600D02*
D03*
X50000Y76000D02*
D03*
X37000Y76400D02*
D03*
X37600Y91000D02*
D03*
X49900Y89500D02*
D03*
D109*
X22400Y112000D02*
D03*
X23200Y32720D02*
D03*
X75520Y34600D02*
D03*
X76600Y112600D02*
D03*
D110*
X23400Y78700D02*
D03*
X21400Y75700D02*
D03*
X26650Y77200D02*
D03*
X25150Y78700D02*
D03*
X24900Y75700D02*
D03*
X23500Y63500D02*
D03*
X21500Y60500D02*
D03*
X26750Y62000D02*
D03*
X25250Y63500D02*
D03*
X25000Y60500D02*
D03*
X23500Y92400D02*
D03*
X21500Y89400D02*
D03*
X26750Y90900D02*
D03*
X25250Y92400D02*
D03*
X25000Y89400D02*
D03*
D111*
X58600Y100800D02*
D03*
X42700Y40500D02*
D03*
X30449Y35849D02*
D03*
X30900Y35000D02*
D03*
X40700Y35200D02*
D03*
X41800Y36300D02*
D03*
X38600Y33400D02*
D03*
X37760Y32240D02*
D03*
X34400Y33400D02*
D03*
X36260Y42260D02*
D03*
Y40260D02*
D03*
X34500Y41200D02*
D03*
X33740Y42360D02*
D03*
X40600Y37800D02*
D03*
X39826Y37174D02*
D03*
X33900Y38300D02*
D03*
X32800D02*
D03*
X34300Y38200D02*
D03*
X35600Y38400D02*
D03*
X38200Y38600D02*
D03*
X37600Y38400D02*
D03*
X36444Y38144D02*
D03*
X42600Y50000D02*
D03*
X33200Y50500D02*
D03*
X30600Y47200D02*
D03*
X36951Y46749D02*
D03*
X41849Y45149D02*
D03*
X46000Y51900D02*
D03*
X41900D02*
D03*
X42740Y50840D02*
D03*
X38060Y52940D02*
D03*
X39000Y51900D02*
D03*
X37300D02*
D03*
X34800D02*
D03*
X37500Y44900D02*
D03*
X34140Y45940D02*
D03*
X33300Y44900D02*
D03*
X47340Y49960D02*
D03*
X46200Y50700D02*
D03*
X47260Y47440D02*
D03*
X45140D02*
D03*
X33600Y48400D02*
D03*
X33700Y49700D02*
D03*
X32600Y49300D02*
D03*
X34807Y50493D02*
D03*
X36700Y48600D02*
D03*
X35400Y49000D02*
D03*
X34400D02*
D03*
X40700Y48600D02*
D03*
Y48000D02*
D03*
X43000Y49200D02*
D03*
X44500Y49500D02*
D03*
X44200Y47100D02*
D03*
X43700Y48500D02*
D03*
X43600Y46400D02*
D03*
X42899Y47699D02*
D03*
X42300Y47700D02*
D03*
X42100Y46500D02*
D03*
X72900Y36300D02*
D03*
X70935Y35465D02*
D03*
X68465Y37035D02*
D03*
X68800Y35800D02*
D03*
X69800Y35700D02*
D03*
X71800Y37200D02*
D03*
X64700Y36800D02*
D03*
Y37600D02*
D03*
X65600Y38900D02*
D03*
X62911Y36411D02*
D03*
X62300Y36900D02*
D03*
X63700Y37700D02*
D03*
X63596Y38496D02*
D03*
X53400Y62700D02*
D03*
X53900Y62300D02*
D03*
X53800Y58800D02*
D03*
X53900Y58200D02*
D03*
X52300Y62900D02*
D03*
X54400Y63900D02*
D03*
X52800Y63600D02*
D03*
X53400Y77200D02*
D03*
X53900Y76800D02*
D03*
X53800Y73300D02*
D03*
X53900Y72700D02*
D03*
X52300Y77400D02*
D03*
X54400Y78400D02*
D03*
X52800Y78100D02*
D03*
X68900Y60500D02*
D03*
X68749Y72449D02*
D03*
X66100Y93500D02*
D03*
X66000Y89700D02*
D03*
X75500Y78500D02*
D03*
X71300Y68100D02*
D03*
X45500Y43400D02*
D03*
X59800Y95700D02*
D03*
X62050Y96650D02*
D03*
X55802Y95402D02*
D03*
X53965Y98065D02*
D03*
X54200Y96700D02*
D03*
X54226Y96226D02*
D03*
X57300Y94600D02*
D03*
X64200Y43300D02*
D03*
X64000Y50700D02*
D03*
X64900Y54400D02*
D03*
X67710Y53410D02*
D03*
Y50990D02*
D03*
X67500Y48700D02*
D03*
X52900Y91400D02*
D03*
X54500Y91700D02*
D03*
X65665Y90935D02*
D03*
X70100Y90200D02*
D03*
X69000Y91100D02*
D03*
X67000Y89600D02*
D03*
X68135Y89365D02*
D03*
X59500Y90800D02*
D03*
X60796Y92396D02*
D03*
X60900Y91600D02*
D03*
X60111Y90311D02*
D03*
X62800Y92800D02*
D03*
X61900Y91500D02*
D03*
Y90700D02*
D03*
X65300Y62800D02*
D03*
X57549Y60049D02*
D03*
X58000Y59200D02*
D03*
X63960Y56440D02*
D03*
X64800Y57600D02*
D03*
X60600D02*
D03*
X60840Y66560D02*
D03*
X61600Y65400D02*
D03*
X63360Y66460D02*
D03*
Y64460D02*
D03*
X64700Y62600D02*
D03*
X63544Y62344D02*
D03*
X61400Y62400D02*
D03*
X62700Y62600D02*
D03*
X66926Y61374D02*
D03*
X67700Y62000D02*
D03*
X67800Y59400D02*
D03*
X59900Y62500D02*
D03*
X61000D02*
D03*
X69500Y77300D02*
D03*
X60100Y77800D02*
D03*
X59500Y76600D02*
D03*
X57500Y74500D02*
D03*
X63851Y74049D02*
D03*
X72900Y79200D02*
D03*
X69640Y78140D02*
D03*
X68800Y79200D02*
D03*
X64960Y80240D02*
D03*
X65900Y79200D02*
D03*
X64200D02*
D03*
X61700D02*
D03*
X64400Y72200D02*
D03*
X61040Y73240D02*
D03*
X60200Y72200D02*
D03*
X73100Y78000D02*
D03*
X74240Y77260D02*
D03*
X74160Y74740D02*
D03*
X72040D02*
D03*
X60500Y75700D02*
D03*
X60600Y77000D02*
D03*
X61707Y77793D02*
D03*
X63600Y75900D02*
D03*
X62300Y76300D02*
D03*
X61300D02*
D03*
X67600Y75900D02*
D03*
Y75300D02*
D03*
X69900Y76500D02*
D03*
X71400Y76800D02*
D03*
X71100Y74400D02*
D03*
X70600Y75800D02*
D03*
X70500Y73700D02*
D03*
X69799Y74999D02*
D03*
X69200Y75000D02*
D03*
X69000Y73800D02*
D03*
X54000Y86000D02*
D03*
X53900Y86600D02*
D03*
X53500Y90500D02*
D03*
X54000Y90100D02*
D03*
X52400Y90700D02*
D03*
D112*
X51365Y64635D02*
D03*
X50435D02*
D03*
X48500Y61500D02*
D03*
X51400Y57400D02*
D03*
X44600Y64900D02*
D03*
X42700Y62500D02*
D03*
X43700Y62800D02*
D03*
Y63600D02*
D03*
X53500Y64200D02*
D03*
X51800D02*
D03*
X51400Y64000D02*
D03*
X49000Y62400D02*
D03*
X47950Y63250D02*
D03*
X51365Y79135D02*
D03*
X50435D02*
D03*
X48500Y76000D02*
D03*
X51400Y71900D02*
D03*
X44600Y79400D02*
D03*
X42700Y77000D02*
D03*
X43700Y77300D02*
D03*
Y78100D02*
D03*
X53500Y78700D02*
D03*
X51800D02*
D03*
X51400Y78500D02*
D03*
X49000Y76900D02*
D03*
X47950Y77750D02*
D03*
X51465Y92435D02*
D03*
X51900Y92000D02*
D03*
X53600D02*
D03*
X51500Y85200D02*
D03*
X44700Y92700D02*
D03*
X43800Y90600D02*
D03*
X42800Y90300D02*
D03*
X43800Y91400D02*
D03*
X50535Y92435D02*
D03*
X51500Y91800D02*
D03*
X48600Y89300D02*
D03*
X49100Y90200D02*
D03*
X48050Y91050D02*
D03*
X33565Y64735D02*
D03*
X33635Y61065D02*
D03*
X36400Y64600D02*
D03*
X35551Y60751D02*
D03*
X34400Y64000D02*
D03*
X33550Y62550D02*
D03*
X34449Y61651D02*
D03*
X33465Y78735D02*
D03*
X33535Y75065D02*
D03*
X36300Y78600D02*
D03*
X35451Y74751D02*
D03*
X34300Y78000D02*
D03*
X33450Y76550D02*
D03*
X34349Y75651D02*
D03*
X36400Y92500D02*
D03*
X33565Y92635D02*
D03*
X34400Y91900D02*
D03*
X33550Y90450D02*
D03*
X35551Y88651D02*
D03*
X33635Y88965D02*
D03*
X34449Y89551D02*
D03*
M02*
