%FSLAX24Y24*%
%MOIN*%
G70*
G01*
G75*
G04 Layer_Physical_Order=3*
%ADD10R,0.0866X0.0236*%
%ADD11R,0.0409X0.0150*%
%ADD12R,0.0236X0.0866*%
%ADD13R,0.0433X0.0394*%
%ADD14R,0.0787X0.0472*%
%ADD15R,0.0866X0.0236*%
%ADD16R,0.0591X0.0512*%
%ADD17R,0.0480X0.0169*%
%ADD18O,0.0480X0.0169*%
%ADD19R,0.1024X0.1614*%
%ADD20R,0.0394X0.0236*%
%ADD21R,0.1240X0.1360*%
%ADD22R,0.0315X0.1417*%
%ADD23R,0.0709X0.0630*%
%ADD24R,0.0394X0.0433*%
%ADD25R,0.0551X0.0236*%
%ADD26O,0.0409X0.0150*%
%ADD27R,0.0630X0.0709*%
%ADD28R,0.0512X0.0591*%
%ADD29R,0.0610X0.0236*%
%ADD30R,0.0150X0.0409*%
%ADD31O,0.0150X0.0409*%
%ADD32C,0.0160*%
%ADD33C,0.0100*%
%ADD34C,0.0300*%
%ADD35C,0.0200*%
%ADD36C,0.0120*%
%ADD37C,0.0591*%
%ADD38R,0.0591X0.0591*%
%ADD39C,0.0750*%
%ADD40C,0.0700*%
%ADD41C,0.0866*%
%ADD42C,0.1575*%
%ADD43C,0.0591*%
%ADD44C,0.0250*%
%ADD45C,0.0080*%
%ADD46C,0.0098*%
%ADD47C,0.0079*%
%ADD48C,0.0070*%
%ADD49C,0.0039*%
%ADD50C,0.0020*%
%ADD51R,0.0197X0.0079*%
%ADD52R,0.0157X0.0197*%
%ADD53R,0.0079X0.0197*%
%ADD54R,0.0197X0.0079*%
%ADD55R,0.0197X0.0157*%
%ADD56R,0.0946X0.0316*%
%ADD57R,0.0489X0.0230*%
%ADD58R,0.0316X0.0946*%
%ADD59R,0.0513X0.0474*%
%ADD60R,0.0867X0.0552*%
%ADD61R,0.0946X0.0316*%
%ADD62R,0.0671X0.0592*%
%ADD63R,0.0560X0.0249*%
%ADD64O,0.0560X0.0249*%
%ADD65R,0.1104X0.1694*%
%ADD66R,0.0474X0.0316*%
%ADD67R,0.1320X0.1440*%
%ADD68R,0.0395X0.1497*%
%ADD69R,0.0789X0.0710*%
%ADD70R,0.0474X0.0513*%
%ADD71R,0.0631X0.0316*%
%ADD72O,0.0489X0.0230*%
%ADD73R,0.0710X0.0789*%
%ADD74R,0.0592X0.0671*%
%ADD75R,0.0690X0.0316*%
%ADD76R,0.0230X0.0489*%
%ADD77O,0.0230X0.0489*%
%ADD78C,0.0671*%
%ADD79R,0.0671X0.0671*%
%ADD80C,0.0830*%
%ADD81C,0.0780*%
%ADD82C,0.0946*%
%ADD83C,0.1655*%
%ADD84C,0.0671*%
%ADD85C,0.0330*%
%ADD86C,0.0400*%
%ADD87C,0.0754*%
%AMTHD88*
7,0,0,0.0954,0.0754,0.0100,45*
%
%ADD88THD88*%
%AMTHD89*
7,0,0,0.1250,0.1050,0.0100,45*
%
%ADD89THD89*%
%ADD90C,0.1050*%
%ADD91C,0.0900*%
%AMTHD92*
7,0,0,0.1120,0.0920,0.0100,45*
%
%ADD92THD92*%
%ADD93C,0.0920*%
%AMTHD94*
7,0,0,0.1309,0.1109,0.0100,45*
%
%ADD94THD94*%
%ADD95C,0.1109*%
%ADD96C,0.1660*%
%AMTHD97*
7,0,0,0.0735,0.0535,0.0100,45*
%
%ADD97THD97*%
%ADD98C,0.0535*%
D36*
X83400Y38800D02*
Y37900D01*
X83914D01*
X84527Y38500D02*
Y37900D01*
Y38371D02*
X84441Y38457D01*
X84356Y38500D01*
X84227D01*
X84141Y38457D01*
X84056Y38371D01*
X84013Y38243D01*
Y38157D01*
X84056Y38029D01*
X84141Y37943D01*
X84227Y37900D01*
X84356D01*
X84441Y37943D01*
X84527Y38029D01*
X84810Y38500D02*
X85067Y37900D01*
X85324Y38500D02*
X85067Y37900D01*
X84981Y37729D01*
X84895Y37643D01*
X84810Y37600D01*
X84767D01*
X85474Y38243D02*
X85988D01*
Y38328D01*
X85945Y38414D01*
X85902Y38457D01*
X85817Y38500D01*
X85688D01*
X85602Y38457D01*
X85517Y38371D01*
X85474Y38243D01*
Y38157D01*
X85517Y38029D01*
X85602Y37943D01*
X85688Y37900D01*
X85817D01*
X85902Y37943D01*
X85988Y38029D01*
X86181Y38500D02*
Y37900D01*
Y38243D02*
X86224Y38371D01*
X86309Y38457D01*
X86395Y38500D01*
X86524D01*
X87398Y38800D02*
X87869D01*
X87612Y38457D01*
X87740D01*
X87826Y38414D01*
X87869Y38371D01*
X87912Y38243D01*
Y38157D01*
X87869Y38029D01*
X87783Y37943D01*
X87655Y37900D01*
X87526D01*
X87398Y37943D01*
X87355Y37986D01*
X87312Y38071D01*
D39*
X39600Y65600D02*
D03*
X42600Y77100D02*
D03*
X52500Y78800D02*
D03*
D86*
X20000Y30000D02*
Y90000D01*
X80000D01*
Y30000D02*
Y90000D01*
X20000Y30000D02*
X80000D01*
D87*
X51000Y64800D02*
D03*
Y65800D02*
D03*
X52000Y64800D02*
D03*
Y65800D02*
D03*
X53000Y64800D02*
D03*
Y65800D02*
D03*
X46200Y42200D02*
D03*
X47400Y65800D02*
D03*
X50700Y44900D02*
D03*
X51700D02*
D03*
X52700D02*
D03*
X45800Y80700D02*
D03*
X46800D02*
D03*
X47800D02*
D03*
X50700Y45900D02*
D03*
X51700D02*
D03*
X52700D02*
D03*
X45800Y81700D02*
D03*
X46800D02*
D03*
X47800D02*
D03*
D88*
X47200Y42200D02*
D03*
X48400Y65800D02*
D03*
D90*
X25000Y62700D02*
D03*
X25250Y65700D02*
D03*
X21500Y62700D02*
D03*
X23500Y65700D02*
D03*
X25000Y42700D02*
D03*
X25250Y45700D02*
D03*
X21500Y42700D02*
D03*
X23500Y45700D02*
D03*
X25000Y79500D02*
D03*
X25250Y82500D02*
D03*
X21500Y79500D02*
D03*
X23500Y82500D02*
D03*
D91*
X26750Y64200D02*
D03*
Y44200D02*
D03*
Y81000D02*
D03*
D93*
X57900Y58100D02*
D03*
X52900D02*
D03*
Y53100D02*
D03*
X57900D02*
D03*
X55400Y55600D02*
D03*
X48500Y58100D02*
D03*
X43500D02*
D03*
Y53100D02*
D03*
X48500D02*
D03*
X46000Y55600D02*
D03*
X38700Y58100D02*
D03*
X33700D02*
D03*
Y53100D02*
D03*
X38700D02*
D03*
X36200Y55600D02*
D03*
X77900Y45100D02*
D03*
X72900D02*
D03*
Y40100D02*
D03*
X77900D02*
D03*
X75400Y42600D02*
D03*
X59900Y38100D02*
D03*
X54900D02*
D03*
Y33100D02*
D03*
X59900D02*
D03*
X57400Y35600D02*
D03*
X38300Y37900D02*
D03*
X33300D02*
D03*
Y32900D02*
D03*
X38300D02*
D03*
X35800Y35400D02*
D03*
X48700Y37900D02*
D03*
X43700D02*
D03*
Y32900D02*
D03*
X48700D02*
D03*
X46200Y35400D02*
D03*
X75300Y82300D02*
D03*
X70300D02*
D03*
Y77300D02*
D03*
X75300D02*
D03*
X72800Y79800D02*
D03*
X55900Y73900D02*
D03*
X50900D02*
D03*
Y68900D02*
D03*
X55900D02*
D03*
X53400Y71400D02*
D03*
X47500Y73900D02*
D03*
X42500D02*
D03*
Y68900D02*
D03*
X47500D02*
D03*
X45000Y71400D02*
D03*
X74400Y62800D02*
D03*
X76900Y60300D02*
D03*
X71900D02*
D03*
Y65300D02*
D03*
X76900D02*
D03*
D95*
X73200Y54200D02*
D03*
Y55854D02*
D03*
Y52546D02*
D03*
Y50893D02*
D03*
D96*
X76074Y55854D02*
D03*
Y50893D02*
D03*
D97*
X66000Y59600D02*
D03*
X64000Y62000D02*
D03*
X54226Y64826D02*
D03*
X55674D02*
D03*
X57026D02*
D03*
X52432Y62931D02*
D03*
X46368Y61832D02*
D03*
X42200Y63600D02*
D03*
X35000Y64000D02*
D03*
Y44000D02*
D03*
Y81200D02*
D03*
X42800Y42100D02*
D03*
X41550Y43250D02*
D03*
X47231Y78832D02*
D03*
X49026Y80726D02*
D03*
X50474D02*
D03*
X51826D02*
D03*
X52132Y43032D02*
D03*
X53926Y44926D02*
D03*
X55374D02*
D03*
X56726D02*
D03*
X61600Y76200D02*
D03*
X59600Y78600D02*
D03*
X66900Y39300D02*
D03*
X64900Y41700D02*
D03*
X42100Y80700D02*
D03*
X63519Y49819D02*
D03*
X65200Y50800D02*
D03*
X67850Y72550D02*
D03*
X74648Y74748D02*
D03*
D98*
X66000Y67600D02*
D03*
X61800D02*
D03*
X61500Y59600D02*
D03*
X66100Y63800D02*
D03*
Y64800D02*
D03*
X63900Y65500D02*
D03*
X64500Y64100D02*
D03*
X63800Y66000D02*
D03*
X62500Y65500D02*
D03*
X69400Y64800D02*
D03*
X63500Y65500D02*
D03*
X58800Y64400D02*
D03*
X51900Y62100D02*
D03*
X53900Y62900D02*
D03*
X63400Y62000D02*
D03*
X50800Y62500D02*
D03*
X51400Y61500D02*
D03*
X52700Y61200D02*
D03*
X51200Y63200D02*
D03*
X44600Y65600D02*
D03*
X45856Y64544D02*
D03*
X46112Y62912D02*
D03*
X43135Y64335D02*
D03*
X40000Y62200D02*
D03*
X41200Y63000D02*
D03*
X33400Y63600D02*
D03*
X33865Y62335D02*
D03*
X32400Y64600D02*
D03*
X32600Y61000D02*
D03*
X35000Y61600D02*
D03*
X33400Y43600D02*
D03*
X33865Y42335D02*
D03*
X32400Y44600D02*
D03*
X32600Y41000D02*
D03*
X35000Y41600D02*
D03*
X33400Y80800D02*
D03*
X32400Y81800D02*
D03*
X32600Y78200D02*
D03*
X33865Y79535D02*
D03*
X35000Y78800D02*
D03*
X37426Y65174D02*
D03*
X44000Y43200D02*
D03*
X42300Y42500D02*
D03*
X44956Y42944D02*
D03*
X39100Y42300D02*
D03*
X38000Y42800D02*
D03*
X41565Y43735D02*
D03*
X45126Y44174D02*
D03*
X46000Y79100D02*
D03*
X46200Y77400D02*
D03*
X47500Y77100D02*
D03*
X45600Y78400D02*
D03*
X46700Y78000D02*
D03*
X48700Y78800D02*
D03*
X50900Y43300D02*
D03*
X51100Y41600D02*
D03*
X52400Y41300D02*
D03*
X50500Y42600D02*
D03*
X51600Y42200D02*
D03*
X53600Y43000D02*
D03*
X58100Y82100D02*
D03*
X59400Y82600D02*
D03*
X61700Y80400D02*
D03*
Y81400D02*
D03*
X59000Y78600D02*
D03*
X54400Y81000D02*
D03*
X65000Y81400D02*
D03*
X57100Y76200D02*
D03*
X61600Y84200D02*
D03*
X57400D02*
D03*
X60100Y80700D02*
D03*
X59500Y82100D02*
D03*
X59100Y82100D02*
D03*
X63400Y45200D02*
D03*
X64700Y45700D02*
D03*
X67000Y43500D02*
D03*
Y44500D02*
D03*
X64300Y41700D02*
D03*
X59700Y44100D02*
D03*
X70300Y44500D02*
D03*
X62400Y39300D02*
D03*
X66900Y47300D02*
D03*
X62700D02*
D03*
X65400Y43800D02*
D03*
X64800Y45200D02*
D03*
X64400Y45200D02*
D03*
X67089Y41789D02*
D03*
X35600Y43000D02*
D03*
X39248Y79048D02*
D03*
X38550Y79950D02*
D03*
X42065Y81335D02*
D03*
X61700Y78700D02*
D03*
X63481Y52181D02*
D03*
X63000Y53400D02*
D03*
Y57900D02*
D03*
X67510Y57110D02*
D03*
Y54590D02*
D03*
X74800Y71900D02*
D03*
Y70000D02*
D03*
X73400Y69900D02*
D03*
X71350Y73550D02*
D03*
X64800Y63600D02*
D03*
X66000Y66400D02*
D03*
X70300Y43500D02*
D03*
X68935Y63335D02*
D03*
X65100Y80400D02*
D03*
X76800Y74000D02*
D03*
X66215Y62115D02*
D03*
M02*
