;Layer_Color=15461320
M48
;FILE_FORMAT=2:4
INCH,LZ
;TYPE=PLATED
T1F00S00C0.0135
T2F00S00C0.0180
T3F00S00C0.0200
T4F00S00C0.0350
T5F00S00C0.0354
T6F00S00C0.0394
T7F00S00C0.0500
T8F00S00C0.0520
T9F00S00C0.0650
T10F00S00C0.0709
T11F00S00C0.1260
%
T01
X032Y0456
X0337Y04625
X039Y046
X039083Y046817
X050751Y046601
X05385Y0466
X07095Y04665
X0714Y0469
X0698Y0471
X06995Y04795
X068465Y048735
X067585Y047265
X06555Y048
X064603Y047203
X0642Y04705
X063Y04725
X07245Y0478
X074615Y047465
X0774Y05165
X07745Y061
X074615Y062465
X0714Y0619
X07095Y06165
X0698Y0621
X067585Y062265
X064603Y062203
X0642Y06205
X063Y06225
X05385Y0616
X050751Y061601
X0496Y06195
X04935Y0484
X049106Y047744
X0496Y04695
X050631Y048232
X0536Y049
X05385Y0476
X041383Y047817
X041298Y047148
X034224Y048524
X03435Y0494
X0326Y0488
X032Y0606
X0337Y06125
X03845Y06155
X0383Y0607
X04025
X0408Y0621
X042462Y061488
X0426Y0611
X04415Y062
X044994Y061744
X04375Y0626
X04125Y0644
X03435
X034224Y063524
X0326Y0638
X032Y0756
X0337Y07625
X0334Y07715
X04Y07695
X040148Y077852
X039026Y075826
X04425Y07675
X044888Y077288
X0453Y0781
X0464Y0776
X0476Y07735
X049406Y077744
X0499Y07695
X051051Y076601
X05415Y0766
Y0776
X06225Y07725
X0536Y064
X05385Y0626
X050631Y063232
X04935Y0634
X049106Y062744
X06555Y063
X068465Y063735
X06995Y06295
X07245Y0628
X07745Y06465
X07615Y07455
X073865Y077465
X0717Y0778
X07065Y0769
X0702Y07665
X06905Y0771
X0692Y07795
X066835Y077265
X0648Y078
X063853Y077203
X06345Y07705
X082426Y070624
X082603Y070097
X0827Y0694
X082Y0687
X0854Y07015
X085248Y070552
X09015Y07765
X09345
X09935Y07635
X0996Y0754
X09969Y07461
X1017Y07499
X10205Y07485
X1023Y0751
X1017Y0761
X1016Y0767
X1017Y07725
X10095Y07745
X1044Y0776
X104819Y077569
X10555Y0764
X10605Y07615
X10675Y07635
X1071Y0763
X10825Y076
X108409Y074591
X10825Y073
X1084Y07205
X108165Y071535
X108992Y071408
X108362Y070438
X10735Y07045
X10685Y0704
X1068Y07195
X10725Y0716
X105409Y071559
X104819Y071619
X104031Y071732
X10375Y0729
X104Y0734
Y07395
X1037Y07465
X1038Y0752
X104Y076
X104015Y076465
X10735Y0776
X10245Y07325
X10195Y07335
X1024Y07265
X1023Y0703
X10265Y06935
X103441Y067791
X10415Y06745
X103441Y066609
X1055Y06645
Y06795
X1075
Y06745
X1076Y0667
X10435Y07035
X1094Y0704
X1111Y0706
X111169Y070169
X112Y0714
X111802Y073448
X11005Y07335
X10975Y0732
X1096Y0724
X110465Y072215
Y074385
X11095Y07455
X1108Y07575
X111748Y075752
X1124Y07615
X112972Y074728
X11514Y07524
X115048Y073448
X1157Y0733
Y072
X1137Y07275
X1148Y0772
X1165Y07695
X1102Y0773
X10945Y0771
X10965Y0757
X1096Y0752
X11015Y067
X1102Y0661
X1109Y0659
X111191Y078909
X110009Y078959
X1094Y0796
X109382Y080282
X11Y0803
X1094Y0818
Y0822
X1095Y0838
X109894Y083794
X1119Y0796
X1086
X108614Y080214
X107991Y080291
X1068Y0802
X10625Y0796
X106809Y079009
X107991
X1086Y0818
X109
Y0822
X1086
X109Y0837
X1083Y08385
X107846Y083696
X107819Y085431
X10675Y0858
X1047Y0784
X1034Y0797
X0997Y07915
X0991Y07825
X0986Y07835
X09755Y0793
X0966Y07975
X0935Y08065
X0932Y0815
X090747Y081747
X090167Y080583
X0878Y0802
Y0792
X08755Y0782
X0871Y07985
X0865Y08095
X0906Y08375
X080309Y084791
X08045Y08675
X081Y087
X08135Y08805
X0789Y0871
X07845Y0908
X0832Y09235
X082Y09355
X0864Y093
X079533Y083217
X079Y0822
X077798Y082348
X07685Y08295
Y0834
X07775Y08405
X0774Y08505
X0758Y0866
X07665Y0876
X07675Y0884
X077Y09085
X074998Y090252
X074583Y089083
X07405Y08865
Y08815
X0746Y08735
X07385Y0864
X0707Y0888
X065965Y091415
X0637Y09175
X06395Y0925
X0633Y0924
X06315Y09
X062559Y090559
X067715Y078735
X0757Y07945
X0539Y079
X050932Y078232
X04965Y0784
X04775Y0801
X049201Y093601
X0523Y0936
X057759Y091241
Y089909
X0595Y09055
X05935Y09135
X0617Y0931
X0391Y093
X0337Y09325
X032Y0926
X0326Y0788
X034224Y078524
X03435Y0794
X04195Y07935
X041317Y078183
X044474Y078826
X041398Y094148
X041483Y094817
X039183Y093817
X0334Y09415
X034224Y095524
X03435Y0964
X0326Y0958
X032Y1076
X0337Y10825
X03835Y10855
X0382Y1077
X04015
X0407Y1091
X042362Y108488
X0425Y1081
X04405Y109
X044894Y108744
X04865Y10895
X049801Y108601
X0529Y1086
X057759Y106241
Y104909
X05955Y1056
X05935Y1064
X0617Y10815
X061285Y094515
X05975Y09515
X0523Y0946
X05205Y096
X049082Y095232
X0478Y0954
X047556Y094744
X04805Y09395
X0632Y0942
X064015Y095835
X06465Y09585
X0667Y09675
X0687Y101679
X06915Y10775
X065965Y106465
X063791Y106791
X06395Y10755
X0633Y10745
X0632Y10925
X06315Y105
X0707Y09375
X0827Y09425
X082603Y094947
X082426Y095474
X083124Y0954
X085248Y095402
X08535Y09505
X0864Y09475
X1024Y10855
X1027Y1103
X101981Y111981
X1024Y113
Y11625
X102831Y119581
X1024Y12055
X10711Y11809
Y11609
X10705Y1133
X107Y1113
X0667Y1118
X06465Y1109
X064015Y110885
X0632Y12
X0625Y1215
X0638Y12175
X064Y12255
X06335Y12245
X06325Y12425
X066015Y121465
X06175Y12315
X061335Y124565
X0594Y1214
X0596Y1206
X057809Y119991
Y121241
X05385Y1236
Y1246
X050751Y123601
X0496Y12395
X049106Y124744
X04745Y12435
X0484Y1104
X048156Y109744
X049682Y110232
X05265Y111
X0529Y1096
X05975Y1102
X061285Y109565
X04365Y1096
X04115Y1114
X03435
X034224Y110524
X0326Y1108
X032Y1226
X0337Y12325
X0334Y12415
X03985Y12395
X039998Y124852
X038876Y122826
X0441Y12375
X044738Y124288
X04625Y1246
X04515Y1251
X044324Y125826
X0418Y12635
X041167Y125183
X034224Y125524
X03435Y1264
X0326Y1258
X0476Y1271
X04935Y1254
X050631Y125232
X0536Y126
X0598Y1252
X064065Y125885
X0647Y1259
X06675Y1268
T02
X11005Y0816
Y0824
X108
Y0816
T03
X0302Y0422
X0327Y04215
X06095Y0422
X06205Y0448
X0595
X0601Y0466
X06265Y0422
X06365Y0424
X06545
X0657Y0447
X0682Y04475
X0666Y05315
X06495Y0532
X066Y0562
X06365
X0657Y0597
X0682Y05975
X0729Y0502
X0747Y04945
X0626Y0502
X06015
X0595Y0598
X0601Y0616
X06205Y0598
X05285Y05565
X0522Y0549
X0504Y0556
X039991Y071241
Y072659
X03815Y072
X05875Y0748
X05935Y0766
X0613Y0748
X06185Y0718
X06205Y069
X06215Y0674
X06015Y0652
X0626
X0639Y0674
Y069
X0643Y0718
X06495Y0747
X06745Y07475
X0729Y0652
X0747Y06445
X07395Y07945
X07215Y0802
X06185
X0594
X06045Y0834
X06195Y08335
X04645Y0962
X04405
T04
X1176Y065848
Y06685
Y06835
Y069352
T05
X0632Y0446
Y0456
X065
Y0446
X069
X07
X0722
X0732
X0754
Y0456
Y0466
Y0596
Y0606
Y0616
X0732Y0596
X0722
X07
X069
X065
Y0606
X0632
Y0596
X056Y062
X055
Y049
Y048
Y047
X056
Y048
Y049
X0451Y0644
X0441
X055Y064
Y063
X056
Y064
X0563Y077
X0553
Y078
X0563
X06245Y0756
Y0746
X06425
Y0756
X06825Y0746
X06925
X07145
X07245
X0746
Y0756
Y0766
X0956Y0836
Y0846
X0966
Y0836
X0976
Y0846
X0986
Y0836
X0996
Y0846
X1006
Y0836
X1016
Y0846
X1026
Y0836
X1036
Y0846
X1046
Y0836
X0563Y079
X0553
X04775Y0796
X04675
X05345Y094
Y095
Y096
X05445
Y095
Y094
X05405Y109
X05505
Y11
Y111
X05405
Y11
X055Y124
X056
X045Y1114
X044
X0466Y1266
X0476
X055Y126
Y125
X056
Y126
T06
X117813Y0722
Y072987
Y073775
Y074562
Y07535
Y076137
Y076924
X1186
Y07615
Y07535
Y074562
Y073775
Y072987
Y0722
T07
X02735Y046
Y061
Y076
Y093
Y108
Y123
T08
X0345Y0369
Y0419
X0395
X0439
Y0369
X0395
X037Y0394
X0464
X0489Y0419
X0529Y0421
X0579
Y0371
X0529
X0489Y0369
X0554Y0396
X0711Y0405
X0761
Y0355
X0711
X0736Y038
X0749Y0525
Y0575
X0699
Y0525
X0724Y055
X0597Y0575
X0547
Y0525
X0597
X0572Y055
X0483Y0529
Y0579
X0433
Y0529
X0458Y0554
X0375Y0575
X0325
Y0525
X0375
X035Y055
X0369Y0677
X0417Y0679
Y0729
X0467
Y0679
X0442Y0704
X0369Y0727
X0319
Y0677
X0344Y0702
X0519Y0681
Y0731
X0569
Y0681
X0544Y0706
X0693Y0727
X0743
Y0677
X0693
X0718Y0702
X0701Y0839
X0676Y0864
X0651Y0839
Y0889
X0701
X0553Y0899
X0503
Y0849
X0553
X0528Y0874
X0463Y0899
X0413
X0377
X0327
Y0849
X0377
X0413
X0463
X0438Y0874
X0352
X0373Y0997
X0413Y0999
Y1049
X0373Y1047
X0323
Y0997
X0348Y1022
X0438Y1024
X0463Y1049
Y0999
X0501Y1001
Y1051
X0551
Y1001
X0526Y1026
X0651Y1043
X0701
Y0993
X0651
X0676Y1018
X0657Y1143
Y1193
X0707
Y1143
X0682Y1168
X0551Y1147
Y1197
X0501
Y1147
X0526Y1172
X0463Y1197
X0413
X0381Y1195
X0331
Y1145
X0381
X0413Y1147
X0463
X0438Y1172
X0356Y117
T09
X0221Y0445
X0256
X02585Y0475
X0241
X0256Y0595
X0221
X0241Y0625
X02585
X0256Y0745
X02585Y0775
X0241
X0221Y0745
Y0915
X0256
X02585Y0945
X0241
X0256Y1065
X0221
X0241Y1095
X02585
X0256Y1215
X02585Y1245
X0241
X0221Y1215
T10
X1144Y079493
Y081146
Y0828
Y084454
Y112293
Y113946
Y1156
Y117254
T11
X117274Y079493
Y084454
Y112293
Y117254
M30
