%FSLAX24Y24*%
%MOIN*%
G70*
G01*
G75*
G04 Layer_Color=8388736*
G04 Layer_Color=8388736*
%ADD10R,0.0591X0.0906*%
%ADD11R,0.0787X0.0866*%
%ADD12R,0.0866X0.0787*%
%ADD13R,0.0394X0.0433*%
%ADD14R,0.0433X0.0394*%
%ADD15R,0.0236X0.0866*%
%ADD16O,0.0480X0.0169*%
%ADD17R,0.0480X0.0169*%
%ADD18R,0.0787X0.0472*%
%ADD19R,0.0512X0.0591*%
%ADD20R,0.0866X0.0236*%
%ADD21R,0.0866X0.0236*%
%ADD22R,0.0591X0.0512*%
%ADD23R,0.0630X0.0709*%
%ADD24R,0.0610X0.0236*%
%ADD25R,0.0409X0.0150*%
%ADD26O,0.0409X0.0150*%
%ADD27R,0.0709X0.0630*%
%ADD28R,0.0630X0.0118*%
%ADD29R,0.0630X0.0118*%
%ADD30R,0.1417X0.0315*%
%ADD31R,0.1240X0.1360*%
%ADD32R,0.0315X0.1417*%
%ADD33R,0.0610X0.0157*%
%ADD34R,0.0591X0.0138*%
%ADD35R,0.0571X0.0118*%
%ADD36R,0.0118X0.0630*%
%ADD37R,0.0807X0.0236*%
%ADD38R,0.0150X0.0600*%
%ADD39R,0.1010X0.0620*%
%ADD40R,0.2560X0.0360*%
%ADD41R,0.0775X0.0620*%
%ADD42C,0.0160*%
%ADD43C,0.0100*%
%ADD44C,0.0200*%
%ADD45C,0.0500*%
%ADD46C,0.0591*%
%ADD47R,0.0591X0.0591*%
%ADD48C,0.0866*%
%ADD49C,0.1575*%
%ADD50C,0.0700*%
%ADD51C,0.0750*%
%ADD52C,0.0500*%
%ADD53C,0.0200*%
%ADD54C,0.0350*%
%ADD55C,0.0250*%
%ADD56C,0.0098*%
%ADD57C,0.0070*%
%ADD58C,0.0079*%
%ADD59C,0.0039*%
%ADD60C,0.0080*%
%ADD61C,0.0280*%
%ADD62R,0.0671X0.0986*%
%ADD63R,0.0867X0.0946*%
%ADD64R,0.0946X0.0867*%
%ADD65R,0.0474X0.0513*%
%ADD66R,0.0513X0.0474*%
%ADD67R,0.0316X0.0946*%
%ADD68O,0.0560X0.0249*%
%ADD69R,0.0560X0.0249*%
%ADD70R,0.0867X0.0552*%
%ADD71R,0.0592X0.0671*%
%ADD72R,0.0946X0.0316*%
%ADD73R,0.0946X0.0316*%
%ADD74R,0.0671X0.0592*%
%ADD75R,0.0710X0.0789*%
%ADD76R,0.0690X0.0316*%
%ADD77R,0.0489X0.0230*%
%ADD78O,0.0489X0.0230*%
%ADD79R,0.0789X0.0710*%
%ADD80R,0.0710X0.0198*%
%ADD81R,0.0710X0.0198*%
%ADD82R,0.1497X0.0395*%
%ADD83R,0.1320X0.1440*%
%ADD84R,0.0395X0.1497*%
%ADD85R,0.0690X0.0237*%
%ADD86R,0.0671X0.0218*%
%ADD87R,0.0651X0.0198*%
%ADD88R,0.0198X0.0710*%
%ADD89R,0.0887X0.0316*%
%ADD90R,0.0230X0.0680*%
%ADD91C,0.0671*%
%ADD92R,0.0671X0.0671*%
%ADD93C,0.0946*%
%ADD94C,0.1655*%
%ADD95C,0.0780*%
%ADD96C,0.0830*%
%ADD97C,0.0580*%
%ADD98C,0.0430*%
%ADD99C,0.0330*%
D39*
X109000Y82000D02*
D03*
D62*
X109400Y65600D02*
D03*
X111400D02*
D03*
X109400Y67411D02*
D03*
X111400D02*
D03*
D63*
X57759Y105600D02*
D03*
X58941D02*
D03*
X57759Y90550D02*
D03*
X58941D02*
D03*
X57809Y120600D02*
D03*
X58991D02*
D03*
X31991Y42200D02*
D03*
X30809D02*
D03*
X51009Y55600D02*
D03*
X52191D02*
D03*
X64209Y56200D02*
D03*
X65391D02*
D03*
X38809Y72000D02*
D03*
X39991D02*
D03*
X44609Y96200D02*
D03*
X45791D02*
D03*
X62409Y71800D02*
D03*
X63591D02*
D03*
X111191Y79600D02*
D03*
X110009D02*
D03*
X106809D02*
D03*
X107991D02*
D03*
X76409Y86600D02*
D03*
X77591D02*
D03*
X67591Y44800D02*
D03*
X66409D02*
D03*
X67591Y59800D02*
D03*
X66409D02*
D03*
X66841Y74800D02*
D03*
X65659D02*
D03*
X74791Y50200D02*
D03*
X73609D02*
D03*
X74791Y65200D02*
D03*
X73609D02*
D03*
X74041Y80200D02*
D03*
X72859D02*
D03*
X61391Y44800D02*
D03*
X60209D02*
D03*
X61391Y59800D02*
D03*
X60209D02*
D03*
X60641Y74800D02*
D03*
X59459D02*
D03*
X60809Y50200D02*
D03*
X61991D02*
D03*
X60809Y65200D02*
D03*
X61991D02*
D03*
X61241Y80200D02*
D03*
X60059D02*
D03*
D64*
X63150Y105609D02*
D03*
Y106791D02*
D03*
Y90559D02*
D03*
Y91741D02*
D03*
X63200Y120609D02*
D03*
Y121791D02*
D03*
X102800Y66609D02*
D03*
Y67791D02*
D03*
X77600Y90791D02*
D03*
Y89609D02*
D03*
X81000Y84791D02*
D03*
Y83609D02*
D03*
D65*
X64550Y96415D02*
D03*
Y97085D02*
D03*
X59350Y107535D02*
D03*
Y106865D02*
D03*
X82000Y94685D02*
D03*
Y94015D02*
D03*
X62950Y111465D02*
D03*
Y112135D02*
D03*
X64550Y106735D02*
D03*
Y106065D02*
D03*
X65750Y111465D02*
D03*
Y112135D02*
D03*
X64550Y111465D02*
D03*
Y112135D02*
D03*
X66550Y108535D02*
D03*
Y107865D02*
D03*
X67550D02*
D03*
Y108535D02*
D03*
X59750Y111335D02*
D03*
Y110665D02*
D03*
X65550Y107135D02*
D03*
Y106465D02*
D03*
X78000Y88335D02*
D03*
Y87665D02*
D03*
X115600Y74065D02*
D03*
Y74735D02*
D03*
X90600Y83335D02*
D03*
Y82665D02*
D03*
X82000Y69835D02*
D03*
X66600Y122865D02*
D03*
X67600D02*
D03*
X65600Y122135D02*
D03*
X66550Y92815D02*
D03*
X67550D02*
D03*
X65550Y92085D02*
D03*
X65800Y127135D02*
D03*
X64600Y126465D02*
D03*
X65750Y97085D02*
D03*
X59800Y126335D02*
D03*
X59750Y96285D02*
D03*
X59400Y122535D02*
D03*
X59350Y92485D02*
D03*
X66600Y123535D02*
D03*
X64600Y121735D02*
D03*
Y121065D02*
D03*
X66550Y93485D02*
D03*
X64550Y91685D02*
D03*
Y91015D02*
D03*
X65800Y126465D02*
D03*
X67600Y123535D02*
D03*
X65750Y96415D02*
D03*
X67550Y93485D02*
D03*
X63000Y126465D02*
D03*
X64600Y127135D02*
D03*
X63000D02*
D03*
X62950Y96415D02*
D03*
Y97085D02*
D03*
X82000Y69165D02*
D03*
X65600Y121465D02*
D03*
X65550Y91415D02*
D03*
X59800Y125665D02*
D03*
X59750Y95615D02*
D03*
X59400Y121865D02*
D03*
X59350Y91815D02*
D03*
X72600Y48465D02*
D03*
Y49135D02*
D03*
Y63465D02*
D03*
Y64135D02*
D03*
X71850Y78465D02*
D03*
Y79135D02*
D03*
X65600Y48665D02*
D03*
Y49335D02*
D03*
Y63665D02*
D03*
Y64335D02*
D03*
X64850Y78665D02*
D03*
Y79335D02*
D03*
X73200Y48135D02*
D03*
Y47465D02*
D03*
Y63135D02*
D03*
Y62465D02*
D03*
X72450Y78135D02*
D03*
Y77465D02*
D03*
X66200Y48335D02*
D03*
Y47665D02*
D03*
Y63335D02*
D03*
Y62665D02*
D03*
X65450Y78335D02*
D03*
Y77665D02*
D03*
X74200Y48135D02*
D03*
Y47465D02*
D03*
Y63135D02*
D03*
Y62465D02*
D03*
X73450Y78135D02*
D03*
Y77465D02*
D03*
X67200Y47935D02*
D03*
Y47265D02*
D03*
Y62935D02*
D03*
Y62265D02*
D03*
X66450Y77935D02*
D03*
Y77265D02*
D03*
D66*
X60265Y122800D02*
D03*
X60935D02*
D03*
X59085Y109000D02*
D03*
X58415D02*
D03*
X81135Y94750D02*
D03*
X80465D02*
D03*
X60215Y106600D02*
D03*
X60885D02*
D03*
X61015Y112200D02*
D03*
X61685D02*
D03*
X67015Y110800D02*
D03*
X67685D02*
D03*
X67085Y106000D02*
D03*
X66415D02*
D03*
X60215Y107800D02*
D03*
X60885D02*
D03*
X67015Y110000D02*
D03*
X67685D02*
D03*
X60885Y109000D02*
D03*
X60215D02*
D03*
X61685Y111200D02*
D03*
X61015D02*
D03*
X60615Y110200D02*
D03*
X61285D02*
D03*
X61535Y83400D02*
D03*
X60865D02*
D03*
X66135Y53200D02*
D03*
X65465D02*
D03*
X78865Y89600D02*
D03*
X79535D02*
D03*
Y90800D02*
D03*
X78865D02*
D03*
X74265Y86400D02*
D03*
X74935D02*
D03*
X115265Y77200D02*
D03*
X115935D02*
D03*
X112465Y72200D02*
D03*
X113135D02*
D03*
X110465Y75000D02*
D03*
X111135D02*
D03*
X110465Y72600D02*
D03*
X111135D02*
D03*
X110465Y74000D02*
D03*
X111135D02*
D03*
X88935Y80200D02*
D03*
X88265D02*
D03*
X88935Y79200D02*
D03*
X88265D02*
D03*
X88935Y78200D02*
D03*
X88265D02*
D03*
X114135Y68400D02*
D03*
X113465D02*
D03*
X114135Y66600D02*
D03*
X113465D02*
D03*
X80465Y69900D02*
D03*
X58415Y93950D02*
D03*
X58465Y124000D02*
D03*
X81135Y69900D02*
D03*
X67135Y121000D02*
D03*
X67085Y90950D02*
D03*
X67065Y125800D02*
D03*
X67015Y95750D02*
D03*
X67885Y96750D02*
D03*
X61065Y126200D02*
D03*
X60665Y125200D02*
D03*
X61065Y127200D02*
D03*
X61015Y96150D02*
D03*
X60615Y95150D02*
D03*
X61015Y97150D02*
D03*
X60265Y124000D02*
D03*
X59135D02*
D03*
X60265Y121600D02*
D03*
X60215Y93950D02*
D03*
X59085D02*
D03*
X60215Y91550D02*
D03*
X66465Y121000D02*
D03*
X66415Y90950D02*
D03*
X67065Y125000D02*
D03*
X67735Y125800D02*
D03*
Y125000D02*
D03*
X67015Y94950D02*
D03*
X67685Y95750D02*
D03*
Y94950D02*
D03*
X61735Y126200D02*
D03*
Y127200D02*
D03*
X61685Y96150D02*
D03*
Y97150D02*
D03*
X60935Y124000D02*
D03*
X61335Y125200D02*
D03*
X60935Y121600D02*
D03*
X60885Y93950D02*
D03*
X60215Y92750D02*
D03*
X61285Y95150D02*
D03*
X60885Y91550D02*
D03*
Y92750D02*
D03*
X62665Y67400D02*
D03*
X64265Y42400D02*
D03*
X63335Y69000D02*
D03*
X62135Y42200D02*
D03*
X63335Y67400D02*
D03*
X64935Y42400D02*
D03*
X62665Y69000D02*
D03*
X61465Y42200D02*
D03*
X67215Y96750D02*
D03*
X71735Y49400D02*
D03*
X71065D02*
D03*
X71735Y64400D02*
D03*
X71065D02*
D03*
X70985Y79400D02*
D03*
X70315D02*
D03*
X69135Y47200D02*
D03*
X68465D02*
D03*
X69135Y62200D02*
D03*
X68465D02*
D03*
X68385Y77200D02*
D03*
X67715D02*
D03*
X69135Y46400D02*
D03*
X68465D02*
D03*
X69135Y61400D02*
D03*
X68465D02*
D03*
X68385Y76400D02*
D03*
X67715D02*
D03*
X64735Y49000D02*
D03*
X64065D02*
D03*
X64735Y64000D02*
D03*
X64065D02*
D03*
X63985Y79000D02*
D03*
X63315D02*
D03*
X62535Y47400D02*
D03*
X61865D02*
D03*
X62535Y62400D02*
D03*
X61865D02*
D03*
X61785Y77400D02*
D03*
X61115D02*
D03*
X60535Y47400D02*
D03*
X59865D02*
D03*
X60535Y62400D02*
D03*
X59865D02*
D03*
X59785Y77400D02*
D03*
X59115D02*
D03*
X69265Y49400D02*
D03*
X69935D02*
D03*
X69265Y64400D02*
D03*
X69935D02*
D03*
X68515Y79400D02*
D03*
X69185D02*
D03*
X60265Y48600D02*
D03*
X60935D02*
D03*
X60265Y63600D02*
D03*
X60935D02*
D03*
X59515Y78600D02*
D03*
X60185D02*
D03*
X69135Y48200D02*
D03*
X68465D02*
D03*
X69135Y63200D02*
D03*
X68465D02*
D03*
X68385Y78200D02*
D03*
X67715D02*
D03*
X61335Y46600D02*
D03*
X60665D02*
D03*
X61335Y61600D02*
D03*
X60665D02*
D03*
X60585Y76600D02*
D03*
X59915D02*
D03*
X72865Y46400D02*
D03*
X73535D02*
D03*
X72865Y61400D02*
D03*
X73535D02*
D03*
X72115Y76400D02*
D03*
X72785D02*
D03*
X70935Y48400D02*
D03*
X70265D02*
D03*
X70935Y63400D02*
D03*
X70265D02*
D03*
X70185Y78400D02*
D03*
X69515D02*
D03*
X65865Y46400D02*
D03*
X66535D02*
D03*
X65865Y61400D02*
D03*
X66535D02*
D03*
X65115Y76400D02*
D03*
X65785D02*
D03*
X62065Y48600D02*
D03*
X62735D02*
D03*
X62065Y63600D02*
D03*
X62735D02*
D03*
X61315Y78600D02*
D03*
X61985D02*
D03*
X67265Y126800D02*
D03*
X67935D02*
D03*
X67215Y111800D02*
D03*
X67885D02*
D03*
D67*
X65500Y123176D02*
D03*
X65000D02*
D03*
X64500D02*
D03*
X65450Y110224D02*
D03*
X64950D02*
D03*
X64450D02*
D03*
X63950D02*
D03*
X63450D02*
D03*
X62950D02*
D03*
X62450D02*
D03*
X65450Y108176D02*
D03*
X64950D02*
D03*
X64450D02*
D03*
X63950D02*
D03*
X63450D02*
D03*
X62950D02*
D03*
X62450D02*
D03*
X65000Y125224D02*
D03*
X65500D02*
D03*
X64950Y95174D02*
D03*
X65450D02*
D03*
X63000Y125224D02*
D03*
X62500D02*
D03*
X62950Y95174D02*
D03*
X62450D02*
D03*
X63000Y123176D02*
D03*
X62500D02*
D03*
X62950Y93126D02*
D03*
X62450D02*
D03*
X64000Y125224D02*
D03*
X63950Y95174D02*
D03*
X64000Y123176D02*
D03*
X63950Y93126D02*
D03*
X63500Y125224D02*
D03*
X64500D02*
D03*
X63500Y123176D02*
D03*
X63450Y95174D02*
D03*
X64450D02*
D03*
X63450Y93126D02*
D03*
X65450D02*
D03*
X64950D02*
D03*
X64450D02*
D03*
D68*
X49682Y109232D02*
D03*
Y109488D02*
D03*
Y109744D02*
D03*
Y110000D02*
D03*
X48650Y109232D02*
D03*
Y109488D02*
D03*
Y109744D02*
D03*
X50932Y77744D02*
D03*
Y77488D02*
D03*
Y77232D02*
D03*
X50631Y47744D02*
D03*
Y47488D02*
D03*
Y47232D02*
D03*
Y62744D02*
D03*
Y62488D02*
D03*
Y62232D02*
D03*
Y124744D02*
D03*
Y124488D02*
D03*
Y124232D02*
D03*
X49082Y94744D02*
D03*
Y94488D02*
D03*
Y94232D02*
D03*
X49600Y47488D02*
D03*
Y62488D02*
D03*
X49900Y77488D02*
D03*
X48050Y94488D02*
D03*
X49600Y124488D02*
D03*
X49900Y77232D02*
D03*
X49600Y47232D02*
D03*
Y62232D02*
D03*
Y124232D02*
D03*
X48050Y94232D02*
D03*
X50932Y78000D02*
D03*
X50631Y48000D02*
D03*
Y63000D02*
D03*
Y125000D02*
D03*
X49082Y95000D02*
D03*
X49900Y77744D02*
D03*
X49600Y47744D02*
D03*
Y62744D02*
D03*
Y124744D02*
D03*
X48050Y94744D02*
D03*
D69*
X48650Y110000D02*
D03*
X49600Y48000D02*
D03*
Y63000D02*
D03*
X49900Y78000D02*
D03*
X48050Y95000D02*
D03*
X49600Y125000D02*
D03*
D70*
X48699Y110800D02*
D03*
X49801D02*
D03*
X48699Y108200D02*
D03*
X49801D02*
D03*
X32649Y111400D02*
D03*
X33751D02*
D03*
Y107600D02*
D03*
X32649D02*
D03*
X49949Y76200D02*
D03*
X49649Y46200D02*
D03*
Y61200D02*
D03*
Y123200D02*
D03*
X48099Y93200D02*
D03*
X33751Y45600D02*
D03*
Y75600D02*
D03*
Y60600D02*
D03*
Y92600D02*
D03*
Y122600D02*
D03*
X51051Y78800D02*
D03*
X50751Y48800D02*
D03*
Y63800D02*
D03*
Y125800D02*
D03*
X49201Y95800D02*
D03*
X33751Y49400D02*
D03*
Y79400D02*
D03*
Y64400D02*
D03*
Y96400D02*
D03*
Y126400D02*
D03*
X51051Y76200D02*
D03*
X50751Y46200D02*
D03*
Y61200D02*
D03*
Y123200D02*
D03*
X49201Y93200D02*
D03*
X49949Y78800D02*
D03*
X49649Y48800D02*
D03*
Y63800D02*
D03*
Y125800D02*
D03*
X48099Y95800D02*
D03*
X32649Y45600D02*
D03*
Y75600D02*
D03*
Y60600D02*
D03*
Y92600D02*
D03*
Y122600D02*
D03*
Y49400D02*
D03*
Y79400D02*
D03*
Y64400D02*
D03*
Y96400D02*
D03*
Y126400D02*
D03*
D71*
X52224Y111000D02*
D03*
X51476D02*
D03*
X52424Y109600D02*
D03*
X51676D02*
D03*
X52424Y108600D02*
D03*
X51676D02*
D03*
X36774Y95000D02*
D03*
X36026D02*
D03*
X36374Y109400D02*
D03*
X35626D02*
D03*
X42374Y111400D02*
D03*
X41626D02*
D03*
X39626Y126800D02*
D03*
X40374D02*
D03*
X83174Y95950D02*
D03*
X82426D02*
D03*
X52726Y79000D02*
D03*
X52926Y77600D02*
D03*
Y76600D02*
D03*
X52426Y49000D02*
D03*
X52626Y47600D02*
D03*
Y46600D02*
D03*
X52426Y64000D02*
D03*
X52626Y62600D02*
D03*
Y61600D02*
D03*
X52426Y126000D02*
D03*
X52626Y124600D02*
D03*
Y123600D02*
D03*
X50876Y96000D02*
D03*
X51076Y94600D02*
D03*
Y93600D02*
D03*
X42474Y64400D02*
D03*
X35926Y48000D02*
D03*
X35726Y62400D02*
D03*
X36674Y48000D02*
D03*
X36474Y62400D02*
D03*
X39776Y79800D02*
D03*
X40524D02*
D03*
X83174Y71100D02*
D03*
X53474Y79000D02*
D03*
X53174Y49000D02*
D03*
Y64000D02*
D03*
Y126000D02*
D03*
X51624Y96000D02*
D03*
X53674Y77600D02*
D03*
X53374Y47600D02*
D03*
Y62600D02*
D03*
Y124600D02*
D03*
X51824Y94600D02*
D03*
X53674Y76600D02*
D03*
X53374Y46600D02*
D03*
Y61600D02*
D03*
Y123600D02*
D03*
X51824Y93600D02*
D03*
X41726Y64400D02*
D03*
X82426Y71100D02*
D03*
D72*
X32176Y109650D02*
D03*
Y109150D02*
D03*
Y108650D02*
D03*
X34224Y110150D02*
D03*
Y109650D02*
D03*
Y109150D02*
D03*
Y108650D02*
D03*
X106824Y66950D02*
D03*
Y67450D02*
D03*
Y67950D02*
D03*
X104776Y66450D02*
D03*
Y66950D02*
D03*
Y67450D02*
D03*
Y67950D02*
D03*
X34224Y62150D02*
D03*
X32176Y47150D02*
D03*
Y47650D02*
D03*
Y77150D02*
D03*
Y77650D02*
D03*
Y62150D02*
D03*
Y62650D02*
D03*
Y94150D02*
D03*
Y94650D02*
D03*
Y124150D02*
D03*
Y124650D02*
D03*
X34224Y47650D02*
D03*
X32176Y46650D02*
D03*
X34224Y62650D02*
D03*
X32176Y61650D02*
D03*
Y76650D02*
D03*
X34224Y94650D02*
D03*
X32176Y93650D02*
D03*
Y123650D02*
D03*
X34224Y47150D02*
D03*
Y94150D02*
D03*
Y77650D02*
D03*
Y124650D02*
D03*
Y46650D02*
D03*
Y76650D02*
D03*
Y61650D02*
D03*
Y93650D02*
D03*
Y123650D02*
D03*
Y48150D02*
D03*
Y78150D02*
D03*
Y63150D02*
D03*
Y95150D02*
D03*
Y125150D02*
D03*
Y77150D02*
D03*
Y124150D02*
D03*
D73*
X32176Y110150D02*
D03*
X106824Y66450D02*
D03*
X32176Y48150D02*
D03*
Y63150D02*
D03*
Y78150D02*
D03*
Y95150D02*
D03*
Y125150D02*
D03*
D74*
X30800Y109026D02*
D03*
Y109774D02*
D03*
X38400Y123574D02*
D03*
Y122826D02*
D03*
X44800Y126574D02*
D03*
Y125826D02*
D03*
X30800Y47026D02*
D03*
Y47774D02*
D03*
Y77026D02*
D03*
Y77774D02*
D03*
Y62026D02*
D03*
Y62774D02*
D03*
Y94026D02*
D03*
Y94774D02*
D03*
Y124026D02*
D03*
Y124774D02*
D03*
X44950Y79574D02*
D03*
X38550Y76574D02*
D03*
X44950Y78826D02*
D03*
X38550Y75826D02*
D03*
D75*
X35849Y93400D02*
D03*
X36951D02*
D03*
X40049Y123200D02*
D03*
X41151D02*
D03*
X37249Y124600D02*
D03*
X38351D02*
D03*
X76151Y117000D02*
D03*
X75049D02*
D03*
X76151Y109000D02*
D03*
X75049D02*
D03*
X76151Y93600D02*
D03*
X75049D02*
D03*
X79951Y77600D02*
D03*
X78849D02*
D03*
X80151Y63400D02*
D03*
X79049D02*
D03*
X80151Y51200D02*
D03*
X79049D02*
D03*
X35749Y46400D02*
D03*
X36851D02*
D03*
X37399Y77600D02*
D03*
X38501D02*
D03*
X40199Y76200D02*
D03*
X41301D02*
D03*
D76*
X38648Y94750D02*
D03*
Y94250D02*
D03*
Y93750D02*
D03*
Y93250D02*
D03*
X40952Y94750D02*
D03*
Y94250D02*
D03*
Y93750D02*
D03*
Y93250D02*
D03*
X37848Y109550D02*
D03*
Y109050D02*
D03*
Y108550D02*
D03*
Y108050D02*
D03*
X40152Y109550D02*
D03*
Y109050D02*
D03*
Y108550D02*
D03*
Y108050D02*
D03*
X40852Y46750D02*
D03*
X38548Y47250D02*
D03*
X40252Y61550D02*
D03*
X37948Y62050D02*
D03*
X39598Y78250D02*
D03*
X41902Y77750D02*
D03*
X38548Y46250D02*
D03*
X37948Y61050D02*
D03*
X39598Y77250D02*
D03*
X40852Y47250D02*
D03*
X40252Y62050D02*
D03*
X41902Y78250D02*
D03*
X38548Y46750D02*
D03*
X37948Y61550D02*
D03*
X39598Y77750D02*
D03*
X38548Y47750D02*
D03*
X40852D02*
D03*
Y46250D02*
D03*
X37948Y62550D02*
D03*
X40252D02*
D03*
Y61050D02*
D03*
X39598Y78750D02*
D03*
X41902D02*
D03*
Y77250D02*
D03*
X41752Y124250D02*
D03*
Y124750D02*
D03*
Y125250D02*
D03*
Y125750D02*
D03*
X39448Y124250D02*
D03*
Y124750D02*
D03*
Y125250D02*
D03*
Y125750D02*
D03*
D77*
X42800Y109000D02*
D03*
X42900Y62000D02*
D03*
X44350Y77800D02*
D03*
X44200Y124800D02*
D03*
D78*
X42800Y108744D02*
D03*
Y108488D02*
D03*
Y108232D02*
D03*
X44469Y109000D02*
D03*
Y108744D02*
D03*
Y108488D02*
D03*
Y108232D02*
D03*
X44569Y61488D02*
D03*
X46019Y77288D02*
D03*
X42900Y61744D02*
D03*
X46019Y77800D02*
D03*
X44350Y77544D02*
D03*
X44569Y61744D02*
D03*
X46019Y77544D02*
D03*
X42900Y61232D02*
D03*
X44350Y77032D02*
D03*
X44569Y62000D02*
D03*
X42900Y61488D02*
D03*
X44350Y77288D02*
D03*
X44569Y61232D02*
D03*
X46019Y77032D02*
D03*
X45869Y124032D02*
D03*
Y124288D02*
D03*
Y124544D02*
D03*
Y124800D02*
D03*
X44200Y124032D02*
D03*
Y124288D02*
D03*
Y124544D02*
D03*
D79*
X36400Y107249D02*
D03*
Y108351D02*
D03*
X38400Y125649D02*
D03*
Y126751D02*
D03*
X83200Y90649D02*
D03*
Y91751D02*
D03*
X82800Y77151D02*
D03*
Y76049D02*
D03*
X36500Y60249D02*
D03*
Y61351D02*
D03*
X38550Y79751D02*
D03*
Y78649D02*
D03*
D80*
X84807Y94356D02*
D03*
Y94553D02*
D03*
Y94750D02*
D03*
X83193Y94356D02*
D03*
Y94553D02*
D03*
Y94750D02*
D03*
X83193Y94947D02*
D03*
X83193Y95144D02*
D03*
X62843Y77794D02*
D03*
X62843Y77597D02*
D03*
X62843Y77400D02*
D03*
Y77203D02*
D03*
Y77006D02*
D03*
X64457Y77597D02*
D03*
Y77400D02*
D03*
Y77203D02*
D03*
Y77006D02*
D03*
X69643Y77594D02*
D03*
X69643Y77397D02*
D03*
X69643Y77200D02*
D03*
Y77003D02*
D03*
Y76806D02*
D03*
X71257Y77397D02*
D03*
Y77200D02*
D03*
Y77003D02*
D03*
Y76806D02*
D03*
X108992Y71638D02*
D03*
Y71835D02*
D03*
Y72031D02*
D03*
Y72228D02*
D03*
Y72425D02*
D03*
Y72622D02*
D03*
Y72819D02*
D03*
Y73016D02*
D03*
Y73213D02*
D03*
Y73409D02*
D03*
Y73606D02*
D03*
Y73803D02*
D03*
Y74000D02*
D03*
Y74197D02*
D03*
Y74394D02*
D03*
Y74591D02*
D03*
Y74787D02*
D03*
Y74984D02*
D03*
Y75181D02*
D03*
Y75378D02*
D03*
Y75575D02*
D03*
Y75772D02*
D03*
Y75968D02*
D03*
Y76165D02*
D03*
Y76362D02*
D03*
X103008Y71638D02*
D03*
Y71835D02*
D03*
Y72031D02*
D03*
Y72228D02*
D03*
Y72425D02*
D03*
Y72622D02*
D03*
Y72819D02*
D03*
Y73016D02*
D03*
Y73213D02*
D03*
Y73409D02*
D03*
Y73606D02*
D03*
Y73803D02*
D03*
Y74000D02*
D03*
Y74197D02*
D03*
Y74394D02*
D03*
Y74591D02*
D03*
Y74787D02*
D03*
Y74984D02*
D03*
Y75181D02*
D03*
Y75378D02*
D03*
Y75575D02*
D03*
Y75772D02*
D03*
Y75968D02*
D03*
Y76165D02*
D03*
Y76362D02*
D03*
X72007Y46806D02*
D03*
Y61806D02*
D03*
X70393Y46806D02*
D03*
Y61806D02*
D03*
X65207Y47006D02*
D03*
Y62006D02*
D03*
X63593Y47006D02*
D03*
Y62006D02*
D03*
X84807Y69703D02*
D03*
Y69506D02*
D03*
Y69900D02*
D03*
X72007Y47003D02*
D03*
Y62003D02*
D03*
X83193Y69900D02*
D03*
Y70294D02*
D03*
X72007Y47200D02*
D03*
Y47397D02*
D03*
Y62200D02*
D03*
Y62397D02*
D03*
X70393Y47397D02*
D03*
X70393Y47594D02*
D03*
X70393Y62397D02*
D03*
X70393Y62594D02*
D03*
X65207Y47400D02*
D03*
Y47597D02*
D03*
Y62400D02*
D03*
Y62597D02*
D03*
X63593Y47597D02*
D03*
X63593Y47794D02*
D03*
X63593Y62597D02*
D03*
X63593Y62794D02*
D03*
X70393Y47003D02*
D03*
Y62003D02*
D03*
X63593Y47203D02*
D03*
Y62203D02*
D03*
X83193Y70097D02*
D03*
X83193Y69506D02*
D03*
Y69703D02*
D03*
X70393Y47200D02*
D03*
Y62200D02*
D03*
X65207Y47203D02*
D03*
X63593Y47400D02*
D03*
X65207Y62203D02*
D03*
X63593Y62400D02*
D03*
X84807Y94947D02*
D03*
Y70097D02*
D03*
D81*
Y95144D02*
D03*
X64457Y77794D02*
D03*
X71257Y77594D02*
D03*
X84807Y70294D02*
D03*
X72007Y47594D02*
D03*
Y62594D02*
D03*
X65207Y47794D02*
D03*
Y62794D02*
D03*
D82*
X107819Y85800D02*
D03*
X110181D02*
D03*
D83*
X110490Y112200D02*
D03*
X107110D02*
D03*
X110490Y117000D02*
D03*
X107110D02*
D03*
D84*
X102400Y109619D02*
D03*
Y111981D02*
D03*
Y117219D02*
D03*
Y119581D02*
D03*
D85*
X79183Y88184D02*
D03*
Y87928D02*
D03*
Y87672D02*
D03*
Y87416D02*
D03*
X80817Y88184D02*
D03*
Y87928D02*
D03*
Y87672D02*
D03*
Y87416D02*
D03*
D86*
X79017Y82816D02*
D03*
Y83072D02*
D03*
Y83328D02*
D03*
Y83584D02*
D03*
X77383Y82816D02*
D03*
Y83072D02*
D03*
Y83328D02*
D03*
Y83584D02*
D03*
X74583Y88784D02*
D03*
Y88528D02*
D03*
Y88272D02*
D03*
Y88016D02*
D03*
X76217Y88784D02*
D03*
Y88528D02*
D03*
Y88272D02*
D03*
Y88016D02*
D03*
D87*
X114512Y73448D02*
D03*
Y73704D02*
D03*
Y73960D02*
D03*
Y74216D02*
D03*
Y74472D02*
D03*
Y74728D02*
D03*
Y74984D02*
D03*
Y75240D02*
D03*
Y75496D02*
D03*
Y75752D02*
D03*
X112288Y73448D02*
D03*
Y73704D02*
D03*
Y73960D02*
D03*
Y74216D02*
D03*
Y74472D02*
D03*
Y74728D02*
D03*
Y74984D02*
D03*
Y75240D02*
D03*
Y75496D02*
D03*
Y75752D02*
D03*
D88*
X103638Y71008D02*
D03*
X103835D02*
D03*
X104031D02*
D03*
X104228D02*
D03*
X104425D02*
D03*
X104622D02*
D03*
X104819D02*
D03*
X105016D02*
D03*
X105213D02*
D03*
X105409D02*
D03*
X105606D02*
D03*
X105803D02*
D03*
X106000D02*
D03*
X106197D02*
D03*
X106394D02*
D03*
X106591D02*
D03*
X106787D02*
D03*
X106984D02*
D03*
X107181D02*
D03*
X107378D02*
D03*
X107575D02*
D03*
X107772D02*
D03*
X107969D02*
D03*
X108165D02*
D03*
X108362D02*
D03*
X103638Y76992D02*
D03*
X103835D02*
D03*
X104031D02*
D03*
X104228D02*
D03*
X104425D02*
D03*
X104622D02*
D03*
X104819D02*
D03*
X105016D02*
D03*
X105213D02*
D03*
X105409D02*
D03*
X105606D02*
D03*
X105803D02*
D03*
X106000D02*
D03*
X106197D02*
D03*
X106394D02*
D03*
X106591D02*
D03*
X106787D02*
D03*
X106984D02*
D03*
X107181D02*
D03*
X107378D02*
D03*
X107575D02*
D03*
X107772D02*
D03*
X107969D02*
D03*
X108165D02*
D03*
X108362D02*
D03*
D89*
X90747Y81150D02*
D03*
Y80650D02*
D03*
Y80150D02*
D03*
Y79650D02*
D03*
Y79150D02*
D03*
Y78650D02*
D03*
Y78150D02*
D03*
Y77650D02*
D03*
X92853Y81150D02*
D03*
Y80650D02*
D03*
Y80150D02*
D03*
Y79650D02*
D03*
Y79150D02*
D03*
Y78650D02*
D03*
Y78150D02*
D03*
Y77650D02*
D03*
D90*
X107846Y80850D02*
D03*
Y83150D02*
D03*
X110150D02*
D03*
Y80850D02*
D03*
X109894Y83150D02*
D03*
Y80850D02*
D03*
X109638Y83150D02*
D03*
X109382D02*
D03*
X109126D02*
D03*
X108870D02*
D03*
X108614D02*
D03*
X108358D02*
D03*
X108102D02*
D03*
X109638Y80850D02*
D03*
X109382D02*
D03*
X109126D02*
D03*
X108870D02*
D03*
X108614D02*
D03*
X108358D02*
D03*
X108102D02*
D03*
D91*
X54050Y111000D02*
D03*
X55050D02*
D03*
X54050Y110000D02*
D03*
X55050D02*
D03*
X54050Y109000D02*
D03*
X45000Y111400D02*
D03*
X47600Y126600D02*
D03*
X71450Y74600D02*
D03*
X68250D02*
D03*
X64250Y75600D02*
D03*
X62450D02*
D03*
X74600D02*
D03*
Y76600D02*
D03*
X117813Y76924D02*
D03*
X118600D02*
D03*
X117813Y76137D02*
D03*
X118600Y76150D02*
D03*
X117813Y75350D02*
D03*
X118600D02*
D03*
X117813Y74562D02*
D03*
X118600D02*
D03*
X117813Y73775D02*
D03*
X118600D02*
D03*
X117813Y72987D02*
D03*
X118600D02*
D03*
X117813Y72200D02*
D03*
X118600D02*
D03*
X95600Y83600D02*
D03*
Y84600D02*
D03*
X96600Y83600D02*
D03*
Y84600D02*
D03*
X97600Y83600D02*
D03*
Y84600D02*
D03*
X98600Y83600D02*
D03*
Y84600D02*
D03*
X99600Y83600D02*
D03*
Y84600D02*
D03*
X100600Y83600D02*
D03*
Y84600D02*
D03*
X101600Y83600D02*
D03*
Y84600D02*
D03*
X102600Y83600D02*
D03*
Y84600D02*
D03*
X103600Y83600D02*
D03*
Y84600D02*
D03*
X104600Y83600D02*
D03*
X75400Y45600D02*
D03*
Y60600D02*
D03*
X72200Y44600D02*
D03*
Y59600D02*
D03*
X69000Y44600D02*
D03*
Y59600D02*
D03*
X65000Y45600D02*
D03*
Y60600D02*
D03*
X63200Y45600D02*
D03*
Y60600D02*
D03*
X55300Y79000D02*
D03*
Y78000D02*
D03*
Y77000D02*
D03*
X55000Y49000D02*
D03*
Y48000D02*
D03*
Y47000D02*
D03*
Y64000D02*
D03*
Y63000D02*
D03*
Y62000D02*
D03*
Y126000D02*
D03*
Y125000D02*
D03*
Y124000D02*
D03*
X53450Y96000D02*
D03*
Y95000D02*
D03*
Y94000D02*
D03*
X45100Y64400D02*
D03*
X47750Y79600D02*
D03*
X56300Y79000D02*
D03*
Y78000D02*
D03*
X56000Y49000D02*
D03*
Y48000D02*
D03*
Y64000D02*
D03*
Y63000D02*
D03*
Y126000D02*
D03*
Y125000D02*
D03*
X54450Y96000D02*
D03*
Y95000D02*
D03*
X75400Y46600D02*
D03*
Y61600D02*
D03*
D92*
X55050Y109000D02*
D03*
X44000Y111400D02*
D03*
X46600Y126600D02*
D03*
X72450Y74600D02*
D03*
X69250D02*
D03*
X64250D02*
D03*
X62450D02*
D03*
X74600D02*
D03*
X104600Y84600D02*
D03*
X44100Y64400D02*
D03*
X46750Y79600D02*
D03*
X75400Y44600D02*
D03*
Y59600D02*
D03*
X73200Y44600D02*
D03*
Y59600D02*
D03*
X70000Y44600D02*
D03*
Y59600D02*
D03*
X65000Y44600D02*
D03*
Y59600D02*
D03*
X63200Y44600D02*
D03*
Y59600D02*
D03*
X56300Y77000D02*
D03*
X56000Y47000D02*
D03*
Y62000D02*
D03*
Y124000D02*
D03*
X54450Y94000D02*
D03*
D93*
X114400Y82800D02*
D03*
Y84454D02*
D03*
Y81146D02*
D03*
Y79493D02*
D03*
Y115600D02*
D03*
Y117254D02*
D03*
Y113946D02*
D03*
Y112293D02*
D03*
D94*
X117274Y84454D02*
D03*
Y79493D02*
D03*
Y117254D02*
D03*
Y112293D02*
D03*
D95*
X70700Y119300D02*
D03*
X65700D02*
D03*
Y114300D02*
D03*
X70700D02*
D03*
X68200Y116800D02*
D03*
X55100Y119700D02*
D03*
X50100D02*
D03*
Y114700D02*
D03*
X55100D02*
D03*
X52600Y117200D02*
D03*
X46300Y119700D02*
D03*
X41300D02*
D03*
Y114700D02*
D03*
X46300D02*
D03*
X43800Y117200D02*
D03*
X38100Y119500D02*
D03*
X33100D02*
D03*
Y114500D02*
D03*
X38100D02*
D03*
X35600Y117000D02*
D03*
X70100Y104300D02*
D03*
X65100D02*
D03*
Y99300D02*
D03*
X70100D02*
D03*
X67600Y101800D02*
D03*
X55100Y105100D02*
D03*
X50100D02*
D03*
Y100100D02*
D03*
X55100D02*
D03*
X52600Y102600D02*
D03*
X46300Y104900D02*
D03*
X41300D02*
D03*
Y99900D02*
D03*
X46300D02*
D03*
X43800Y102400D02*
D03*
X37300Y104700D02*
D03*
X32300D02*
D03*
Y99700D02*
D03*
X37300D02*
D03*
X34800Y102200D02*
D03*
X55300Y89900D02*
D03*
X50300D02*
D03*
Y84900D02*
D03*
X55300D02*
D03*
X52800Y87400D02*
D03*
X46300Y89900D02*
D03*
X41300D02*
D03*
Y84900D02*
D03*
X46300D02*
D03*
X43800Y87400D02*
D03*
X37700Y89900D02*
D03*
X32700D02*
D03*
Y84900D02*
D03*
X37700D02*
D03*
X35200Y87400D02*
D03*
X74300Y72700D02*
D03*
X69300D02*
D03*
Y67700D02*
D03*
X74300D02*
D03*
X71800Y70200D02*
D03*
X56900Y73100D02*
D03*
X51900D02*
D03*
Y68100D02*
D03*
X56900D02*
D03*
X54400Y70600D02*
D03*
X46700Y72900D02*
D03*
X41700D02*
D03*
Y67900D02*
D03*
X46700D02*
D03*
X44200Y70400D02*
D03*
X36900Y72700D02*
D03*
X31900D02*
D03*
Y67700D02*
D03*
X36900D02*
D03*
X34400Y70200D02*
D03*
X74900Y57500D02*
D03*
X69900D02*
D03*
Y52500D02*
D03*
X74900D02*
D03*
X72400Y55000D02*
D03*
X59700Y57500D02*
D03*
X54700D02*
D03*
Y52500D02*
D03*
X59700D02*
D03*
X57200Y55000D02*
D03*
X48300Y57900D02*
D03*
X43300D02*
D03*
Y52900D02*
D03*
X48300D02*
D03*
X45800Y55400D02*
D03*
X37500Y57500D02*
D03*
X32500D02*
D03*
Y52500D02*
D03*
X37500D02*
D03*
X35000Y55000D02*
D03*
X76100Y40500D02*
D03*
X71100D02*
D03*
Y35500D02*
D03*
X76100D02*
D03*
X73600Y38000D02*
D03*
X57900Y42100D02*
D03*
X52900D02*
D03*
Y37100D02*
D03*
X57900D02*
D03*
X55400Y39600D02*
D03*
X48900Y41900D02*
D03*
X43900D02*
D03*
Y36900D02*
D03*
X48900D02*
D03*
X46400Y39400D02*
D03*
X39500Y41900D02*
D03*
X34500D02*
D03*
Y36900D02*
D03*
X39500D02*
D03*
X37000Y39400D02*
D03*
X67600Y86400D02*
D03*
X70100Y83900D02*
D03*
X65100D02*
D03*
Y88900D02*
D03*
X70100D02*
D03*
D96*
X24100Y124500D02*
D03*
X22100Y121500D02*
D03*
X27350Y123000D02*
D03*
X25850Y124500D02*
D03*
X25600Y121500D02*
D03*
X24100Y109500D02*
D03*
X22100Y106500D02*
D03*
X27350Y108000D02*
D03*
X25850Y109500D02*
D03*
X25600Y106500D02*
D03*
X24100Y94500D02*
D03*
X22100Y91500D02*
D03*
X27350Y93000D02*
D03*
X25850Y94500D02*
D03*
X25600Y91500D02*
D03*
X24100Y77500D02*
D03*
X22100Y74500D02*
D03*
X27350Y76000D02*
D03*
X25850Y77500D02*
D03*
X25600Y74500D02*
D03*
X24100Y62500D02*
D03*
X22100Y59500D02*
D03*
X27350Y61000D02*
D03*
X25850Y62500D02*
D03*
X25600Y59500D02*
D03*
X24100Y47500D02*
D03*
X22100Y44500D02*
D03*
X27350Y46000D02*
D03*
X25850Y47500D02*
D03*
X25600Y44500D02*
D03*
D97*
X117600Y68350D02*
D03*
Y69352D02*
D03*
Y66850D02*
D03*
Y65848D02*
D03*
D98*
X63650Y56200D02*
D03*
X66000D02*
D03*
X64950Y53200D02*
D03*
X66600Y53150D02*
D03*
X60950Y42200D02*
D03*
X62650D02*
D03*
X63650Y42400D02*
D03*
X65450D02*
D03*
X62050Y69000D02*
D03*
X63900D02*
D03*
X62150Y67400D02*
D03*
X63900D02*
D03*
X61850Y71800D02*
D03*
X64300D02*
D03*
X60450Y83400D02*
D03*
X61950Y83350D02*
D03*
X44050Y96200D02*
D03*
X46450D02*
D03*
X30200Y42200D02*
D03*
X32700Y42150D02*
D03*
X52200Y54900D02*
D03*
X50400Y55600D02*
D03*
X52850Y55650D02*
D03*
X38150Y72000D02*
D03*
X39991Y72659D02*
D03*
Y71241D02*
D03*
X62600Y50200D02*
D03*
X60150D02*
D03*
X62050Y44800D02*
D03*
X59500D02*
D03*
X60100Y46600D02*
D03*
X65700Y44700D02*
D03*
X68200Y44750D02*
D03*
X72900Y50200D02*
D03*
X74700Y49450D02*
D03*
X59350Y76600D02*
D03*
X58750Y74800D02*
D03*
X61300D02*
D03*
X72150Y80200D02*
D03*
X73950Y79450D02*
D03*
X61850Y80200D02*
D03*
X59400D02*
D03*
X64950Y74700D02*
D03*
X67450Y74750D02*
D03*
X60100Y61600D02*
D03*
X59500Y59800D02*
D03*
X62050D02*
D03*
X72900Y65200D02*
D03*
X74700Y64450D02*
D03*
X62600Y65200D02*
D03*
X60150D02*
D03*
X65700Y59700D02*
D03*
X68200Y59750D02*
D03*
D99*
X102400Y116250D02*
D03*
X87800Y79200D02*
D03*
X86500Y80950D02*
D03*
X86400Y93000D02*
D03*
Y94750D02*
D03*
X87800Y80200D02*
D03*
X87100Y79850D02*
D03*
X87550Y78200D02*
D03*
X73850Y86400D02*
D03*
X75800Y86600D02*
D03*
X77400Y51650D02*
D03*
X77450Y61000D02*
D03*
Y64650D02*
D03*
X76150Y74550D02*
D03*
X75700Y79450D02*
D03*
X70700Y93750D02*
D03*
Y88800D02*
D03*
X83124Y95400D02*
D03*
X83200Y92350D02*
D03*
X81350Y88050D02*
D03*
X81000Y87000D02*
D03*
X80450Y86750D02*
D03*
X78900Y87100D02*
D03*
X78450Y90800D02*
D03*
X77000Y90850D02*
D03*
X76650Y87600D02*
D03*
X76750Y88400D02*
D03*
X74998Y90252D02*
D03*
X74583Y89083D02*
D03*
X74050Y88650D02*
D03*
Y88150D02*
D03*
X74600Y87350D02*
D03*
X80309Y84791D02*
D03*
X79000Y82200D02*
D03*
X79533Y83217D02*
D03*
X76850Y83400D02*
D03*
Y82950D02*
D03*
X77798Y82348D02*
D03*
X77400Y85050D02*
D03*
X77750Y84050D02*
D03*
X62559Y90559D02*
D03*
X63150Y90000D02*
D03*
X63700Y91750D02*
D03*
X57759Y89909D02*
D03*
X59500Y90550D02*
D03*
X57759Y91241D02*
D03*
X63791Y106791D02*
D03*
X63150Y105000D02*
D03*
X57759Y104909D02*
D03*
Y106241D02*
D03*
X59550Y105600D02*
D03*
X57809Y119991D02*
D03*
Y121241D02*
D03*
X59600Y120600D02*
D03*
X63200Y120000D02*
D03*
X63800Y121750D02*
D03*
X62500Y121500D02*
D03*
X102831Y119581D02*
D03*
X102400Y120550D02*
D03*
X102700Y110300D02*
D03*
X102400Y108550D02*
D03*
X101981Y111981D02*
D03*
X102400Y113000D02*
D03*
X107050Y113300D02*
D03*
X107000Y111300D02*
D03*
X107110Y118090D02*
D03*
Y116090D02*
D03*
X110050Y73350D02*
D03*
X109400Y70400D02*
D03*
X110200Y66100D02*
D03*
X110150Y67000D02*
D03*
X110900Y65900D02*
D03*
X103441Y66609D02*
D03*
Y67791D02*
D03*
X105500Y67950D02*
D03*
X104150Y67450D02*
D03*
X105500Y66450D02*
D03*
X107600Y66700D02*
D03*
X107500Y67450D02*
D03*
Y67950D02*
D03*
X102650Y69350D02*
D03*
X102300Y70300D02*
D03*
X103700Y74650D02*
D03*
X102050Y74850D02*
D03*
X101700Y74990D02*
D03*
X101950Y73350D02*
D03*
X102300Y75100D02*
D03*
X106750Y76350D02*
D03*
X108250Y73000D02*
D03*
X109750Y73200D02*
D03*
X105409Y71559D02*
D03*
X104819Y71619D02*
D03*
X108992Y71408D02*
D03*
X112000Y71400D02*
D03*
X101600Y76700D02*
D03*
X101700Y76100D02*
D03*
X99690Y74610D02*
D03*
X99600Y75400D02*
D03*
X99350Y76350D02*
D03*
X99700Y79150D02*
D03*
X99100Y78250D02*
D03*
X98600Y78350D02*
D03*
X104700Y78400D02*
D03*
X106050Y76150D02*
D03*
X103400Y79700D02*
D03*
X104000Y76000D02*
D03*
X90600Y83750D02*
D03*
X90747Y81747D02*
D03*
X90167Y80583D02*
D03*
X90150Y77650D02*
D03*
X93450D02*
D03*
X93200Y81500D02*
D03*
X93500Y80650D02*
D03*
X96600Y79750D02*
D03*
X97550Y79300D02*
D03*
X114800Y77200D02*
D03*
X116500Y76950D02*
D03*
X111100Y70600D02*
D03*
X111169Y70169D02*
D03*
X115700Y73300D02*
D03*
Y72000D02*
D03*
X109450Y77100D02*
D03*
X110200Y77300D02*
D03*
X112400Y76150D02*
D03*
X111802Y73448D02*
D03*
X110465Y72215D02*
D03*
Y74385D02*
D03*
X110800Y75750D02*
D03*
X111748Y75752D02*
D03*
X107819Y85431D02*
D03*
X106750Y85800D02*
D03*
X106809Y79009D02*
D03*
X106250Y79600D02*
D03*
X106800Y80200D02*
D03*
X107991Y79009D02*
D03*
X108600Y79600D02*
D03*
X108614Y80214D02*
D03*
X107991Y80291D02*
D03*
X111191Y78909D02*
D03*
X111900Y79600D02*
D03*
X109400D02*
D03*
X110009Y78959D02*
D03*
X110000Y80300D02*
D03*
X109382Y80282D02*
D03*
X109000Y83700D02*
D03*
X107846Y83696D02*
D03*
X108300Y83850D02*
D03*
X109500Y83800D02*
D03*
X109894Y83794D02*
D03*
X113700Y72750D02*
D03*
X112972Y74728D02*
D03*
X115048Y73448D02*
D03*
X115140Y75240D02*
D03*
X64000Y122550D02*
D03*
X63350Y122450D02*
D03*
X63250Y124250D02*
D03*
X64065Y125885D02*
D03*
X64700Y125900D02*
D03*
X66015Y121465D02*
D03*
X66750Y126800D02*
D03*
X59800Y125200D02*
D03*
X61750Y123150D02*
D03*
X61335Y124565D02*
D03*
X59400Y121400D02*
D03*
X45150Y125100D02*
D03*
X47450Y124350D02*
D03*
X50751Y123601D02*
D03*
X49600Y123950D02*
D03*
X49106Y124744D02*
D03*
X49350Y125400D02*
D03*
X50631Y125232D02*
D03*
X53850Y123600D02*
D03*
Y124600D02*
D03*
X53600Y126000D02*
D03*
X47600Y127100D02*
D03*
X44324Y125826D02*
D03*
X44738Y124288D02*
D03*
X44100Y123750D02*
D03*
X38876Y122826D02*
D03*
X39998Y124852D02*
D03*
X39850Y123950D02*
D03*
X41800Y126350D02*
D03*
X41167Y125183D02*
D03*
X34350Y126400D02*
D03*
X32600Y125800D02*
D03*
X34224Y125524D02*
D03*
X33400Y124150D02*
D03*
X33700Y123250D02*
D03*
X32000Y122600D02*
D03*
X32600Y110800D02*
D03*
X34350Y111400D02*
D03*
X32000Y107600D02*
D03*
X33700Y108250D02*
D03*
X34224Y110524D02*
D03*
X32600Y95800D02*
D03*
X34350Y96400D02*
D03*
X32000Y92600D02*
D03*
X33700Y93250D02*
D03*
X33400Y94150D02*
D03*
X34224Y95524D02*
D03*
X32600Y63800D02*
D03*
X34350Y64400D02*
D03*
X32000Y60600D02*
D03*
X33700Y61250D02*
D03*
X34224Y63524D02*
D03*
X32600Y78800D02*
D03*
X34350Y79400D02*
D03*
X32000Y75600D02*
D03*
X33700Y76250D02*
D03*
X33400Y77150D02*
D03*
X34224Y78524D02*
D03*
X32600Y48800D02*
D03*
X34350Y49400D02*
D03*
X32000Y45600D02*
D03*
X33700Y46250D02*
D03*
X34224Y48524D02*
D03*
X38200Y107700D02*
D03*
X38350Y108550D02*
D03*
X40700Y109100D02*
D03*
X40150Y107700D02*
D03*
X44894Y108744D02*
D03*
X44050Y109000D02*
D03*
X42362Y108488D02*
D03*
X42500Y108100D02*
D03*
X41150Y111400D02*
D03*
X48400Y110400D02*
D03*
X49682Y110232D02*
D03*
X49801Y108601D02*
D03*
X48650Y108950D02*
D03*
X52900Y108600D02*
D03*
Y109600D02*
D03*
X52650Y111000D02*
D03*
X48156Y109744D02*
D03*
X47800Y95400D02*
D03*
X49082Y95232D02*
D03*
X49201Y93601D02*
D03*
X48050Y93950D02*
D03*
X52300Y93600D02*
D03*
Y94600D02*
D03*
X52050Y96000D02*
D03*
X47556Y94744D02*
D03*
X49350Y63400D02*
D03*
X50631Y63232D02*
D03*
X50751Y61601D02*
D03*
X49600Y61950D02*
D03*
X53850Y61600D02*
D03*
Y62600D02*
D03*
X53600Y64000D02*
D03*
X49106Y62744D02*
D03*
X49350Y48400D02*
D03*
X50631Y48232D02*
D03*
X50751Y46601D02*
D03*
X49600Y46950D02*
D03*
X53850Y46600D02*
D03*
Y47600D02*
D03*
X53600Y49000D02*
D03*
X49106Y47744D02*
D03*
X49650Y78400D02*
D03*
X50932Y78232D02*
D03*
X51051Y76601D02*
D03*
X49900Y76950D02*
D03*
X54150Y76600D02*
D03*
Y77600D02*
D03*
X53900Y79000D02*
D03*
X49406Y77744D02*
D03*
X43650Y109600D02*
D03*
X61285Y109565D02*
D03*
X61700Y108150D02*
D03*
X59350Y106400D02*
D03*
X59750Y110200D02*
D03*
X65965Y106465D02*
D03*
X63300Y107450D02*
D03*
X64650Y110900D02*
D03*
X63200Y109250D02*
D03*
X63950Y107550D02*
D03*
X64015Y110885D02*
D03*
X61285Y94515D02*
D03*
X61700Y93100D02*
D03*
X59350Y91350D02*
D03*
X59750Y95150D02*
D03*
X66700Y96750D02*
D03*
X65965Y91415D02*
D03*
X63300Y92400D02*
D03*
X64650Y95850D02*
D03*
X63200Y94200D02*
D03*
X63950Y92500D02*
D03*
X64015Y95835D02*
D03*
X39183Y93817D02*
D03*
X39100Y93000D02*
D03*
X41398Y94148D02*
D03*
X41483Y94817D02*
D03*
X47750Y80100D02*
D03*
X39026Y75826D02*
D03*
X44474Y78826D02*
D03*
X41317Y78183D02*
D03*
X40000Y76950D02*
D03*
X40148Y77852D02*
D03*
X44250Y76750D02*
D03*
X44888Y77288D02*
D03*
X45300Y78100D02*
D03*
X47600Y77350D02*
D03*
X41950Y79350D02*
D03*
X43750Y62600D02*
D03*
X41250Y64400D02*
D03*
X44994Y61744D02*
D03*
X44150Y62000D02*
D03*
X42600Y61100D02*
D03*
X42462Y61488D02*
D03*
X40800Y62100D02*
D03*
X38300Y60700D02*
D03*
X38450Y61550D02*
D03*
X40250Y60700D02*
D03*
X41298Y47148D02*
D03*
X39000Y46000D02*
D03*
X39083Y46817D02*
D03*
X41383Y47817D02*
D03*
X67585Y47265D02*
D03*
X65550Y48000D02*
D03*
X64603Y47203D02*
D03*
X63000Y47250D02*
D03*
X64200Y47050D02*
D03*
X74615Y47465D02*
D03*
X72450Y47800D02*
D03*
X71400Y46900D02*
D03*
X69800Y47100D02*
D03*
X69950Y47950D02*
D03*
X70950Y46650D02*
D03*
X68465Y48735D02*
D03*
X66835Y77265D02*
D03*
X67715Y78735D02*
D03*
X73865Y77465D02*
D03*
X62250Y77250D02*
D03*
X63853Y77203D02*
D03*
X64800Y78000D02*
D03*
X63450Y77050D02*
D03*
X69050Y77100D02*
D03*
X71700Y77800D02*
D03*
X70200Y76650D02*
D03*
X70650Y76900D02*
D03*
X69200Y77950D02*
D03*
X67585Y62265D02*
D03*
X68465Y63735D02*
D03*
X74615Y62465D02*
D03*
X63000Y62250D02*
D03*
X64603Y62203D02*
D03*
X65550Y63000D02*
D03*
X64200Y62050D02*
D03*
X69800Y62100D02*
D03*
X72450Y62800D02*
D03*
X70950Y61650D02*
D03*
X71400Y61900D02*
D03*
X69950Y62950D02*
D03*
X82603Y94947D02*
D03*
X82000Y93550D02*
D03*
X82700Y94250D02*
D03*
X82426Y95474D02*
D03*
X85248Y95402D02*
D03*
X85350Y95050D02*
D03*
X82426Y70624D02*
D03*
X82000Y68700D02*
D03*
X82603Y70097D02*
D03*
X82700Y69400D02*
D03*
X85248Y70552D02*
D03*
X85400Y70150D02*
D03*
X103800Y75200D02*
D03*
X102450Y73250D02*
D03*
X104000Y73400D02*
D03*
X102400Y72650D02*
D03*
X103750Y72900D02*
D03*
X104350Y70350D02*
D03*
X106850Y70400D02*
D03*
X106800Y71950D02*
D03*
X107250Y71600D02*
D03*
X107350Y70450D02*
D03*
X108362Y70438D02*
D03*
X108165Y71535D02*
D03*
X108400Y72050D02*
D03*
X109600Y72400D02*
D03*
X108409Y74591D02*
D03*
X109600Y75200D02*
D03*
X109650Y75700D02*
D03*
X108250Y76000D02*
D03*
X107350Y77600D02*
D03*
X107100Y76300D02*
D03*
X105550Y76400D02*
D03*
X104819Y77569D02*
D03*
X104400Y77600D02*
D03*
X104015Y76465D02*
D03*
X104000Y73950D02*
D03*
X69150Y107750D02*
D03*
X68700Y101679D02*
D03*
X101700Y77250D02*
D03*
X110950Y74550D02*
D03*
X100950Y77450D02*
D03*
X104031Y71732D02*
D03*
X66700Y111800D02*
D03*
X46250Y124600D02*
D03*
X46400Y77600D02*
D03*
M02*
