%FSLAX24Y24*%
%MOIN*%
G70*
G01*
G75*
G04 Layer_Physical_Order=1*
G04 Layer_Color=255*
G36*
X102721Y76906D02*
X102761Y76879D01*
X102808Y76870D01*
X103509D01*
Y76607D01*
X103823D01*
X103846Y76563D01*
X103832Y76541D01*
X103817Y76465D01*
X103832Y76389D01*
X103875Y76325D01*
X103939Y76282D01*
X104015Y76267D01*
X104028Y76269D01*
X104046Y76236D01*
X104017Y76196D01*
X104000Y76199D01*
X103924Y76184D01*
X103859Y76141D01*
X103816Y76076D01*
X103801Y76000D01*
X103816Y75924D01*
X103859Y75859D01*
X103924Y75816D01*
X104000Y75801D01*
X104076Y75816D01*
X104141Y75859D01*
X104184Y75924D01*
X104199Y76000D01*
X104195Y76022D01*
X104512Y76339D01*
X104538Y76378D01*
X104548Y76425D01*
Y76607D01*
X104893D01*
Y76484D01*
X104903Y76437D01*
X104929Y76398D01*
X105263Y76063D01*
X105303Y76037D01*
X105350Y76028D01*
X105897D01*
X105909Y76009D01*
X105974Y75966D01*
X106050Y75951D01*
X106126Y75966D01*
X106191Y76009D01*
X106234Y76074D01*
X106249Y76150D01*
X106234Y76226D01*
X106191Y76291D01*
X106126Y76334D01*
X106050Y76349D01*
X105974Y76334D01*
X105909Y76291D01*
X105897Y76272D01*
X105752D01*
X105729Y76316D01*
X105734Y76324D01*
X105749Y76400D01*
X105734Y76476D01*
X105691Y76541D01*
X105626Y76584D01*
X105550Y76599D01*
X105558Y76607D01*
X106934D01*
Y76992D01*
X107034D01*
Y76607D01*
X107169D01*
X107188Y76561D01*
X107122Y76495D01*
X107100Y76499D01*
X107024Y76484D01*
X106959Y76441D01*
X106916Y76376D01*
X106901Y76300D01*
X106916Y76224D01*
X106959Y76159D01*
X107024Y76116D01*
X107100Y76101D01*
X107176Y76116D01*
X107241Y76159D01*
X107284Y76224D01*
X107299Y76300D01*
X107295Y76322D01*
X107464Y76491D01*
X107491Y76531D01*
X107500Y76578D01*
Y76607D01*
X108491D01*
Y76870D01*
X109342D01*
X109389Y76879D01*
X109428Y76905D01*
X109450Y76901D01*
X109526Y76916D01*
X109591Y76959D01*
X109634Y77024D01*
X109649Y77100D01*
X109646Y77113D01*
X109690Y77137D01*
X110050Y76777D01*
Y76091D01*
X109377D01*
Y76098D01*
Y76233D01*
Y76491D01*
X108607D01*
Y76233D01*
Y76036D01*
Y75839D01*
Y75643D01*
Y75446D01*
Y75249D01*
Y75052D01*
Y74855D01*
Y74732D01*
X108559Y74717D01*
X108550Y74731D01*
X108486Y74774D01*
X108409Y74789D01*
X108333Y74774D01*
X108269Y74731D01*
X108226Y74667D01*
X108211Y74591D01*
X108226Y74514D01*
X108269Y74450D01*
X108333Y74407D01*
X108409Y74392D01*
X108486Y74407D01*
X108550Y74450D01*
X108559Y74464D01*
X108607Y74449D01*
Y74265D01*
Y74068D01*
Y73871D01*
Y73674D01*
Y73477D01*
Y73280D01*
Y73084D01*
Y73066D01*
X109377D01*
Y73084D01*
Y73280D01*
Y73477D01*
Y73674D01*
Y73785D01*
X109423Y73804D01*
X109787Y73440D01*
X109763Y73396D01*
X109750Y73399D01*
X109674Y73384D01*
X109609Y73341D01*
X109566Y73276D01*
X109551Y73200D01*
X109566Y73124D01*
X109609Y73059D01*
X109674Y73016D01*
X109750Y73001D01*
X109826Y73016D01*
X109891Y73059D01*
X109934Y73124D01*
X109939Y73152D01*
X109974Y73166D01*
X110050Y73151D01*
Y72688D01*
X110004Y72669D01*
X109768Y72905D01*
X109728Y72932D01*
X109681Y72941D01*
X109377D01*
Y72948D01*
Y72966D01*
X108607D01*
Y72887D01*
Y72690D01*
Y72493D01*
Y72357D01*
Y72351D01*
X108578D01*
X108532Y72341D01*
X108492Y72315D01*
X108422Y72245D01*
X108400Y72249D01*
X108324Y72234D01*
X108259Y72191D01*
X108216Y72126D01*
X108201Y72050D01*
X108216Y71974D01*
X108259Y71909D01*
X108324Y71866D01*
X108400Y71851D01*
X108476Y71866D01*
X108541Y71909D01*
X108559Y71937D01*
X108607Y71923D01*
Y71902D01*
Y71706D01*
Y71509D01*
X108774D01*
X108806Y71470D01*
X108793Y71408D01*
X108808Y71332D01*
X108852Y71267D01*
X108916Y71224D01*
X108992Y71209D01*
X109068Y71224D01*
X109133Y71267D01*
X109176Y71332D01*
X109191Y71408D01*
X109176Y71484D01*
X109189Y71509D01*
X109377D01*
Y71706D01*
Y71902D01*
Y71909D01*
X109468D01*
X109528Y71849D01*
Y70602D01*
X109484Y70579D01*
X109476Y70584D01*
X109400Y70599D01*
X109324Y70584D01*
X109259Y70541D01*
X109216Y70476D01*
X109201Y70400D01*
X109216Y70324D01*
X109259Y70259D01*
X109324Y70216D01*
X109400Y70201D01*
X109422Y70205D01*
X110050Y69577D01*
Y67338D01*
X110004Y67319D01*
X109825Y67498D01*
X109786Y67524D01*
X109765Y67528D01*
Y67934D01*
X109035D01*
Y66888D01*
X109765D01*
Y67146D01*
X109811Y67165D01*
X109955Y67022D01*
X109951Y67000D01*
X109966Y66924D01*
X110009Y66859D01*
X110050Y66832D01*
Y66300D01*
X108900D01*
X108902Y66299D01*
X108894Y66250D01*
X107327D01*
Y66250D01*
Y66262D01*
X107327Y66285D01*
X107327D01*
D01*
Y66285D01*
D01*
X107327Y66328D01*
X107350D01*
X107397Y66337D01*
X107437Y66363D01*
X107578Y66505D01*
X107600Y66501D01*
X107676Y66516D01*
X107741Y66559D01*
X107784Y66624D01*
X107799Y66700D01*
X107784Y66776D01*
X107741Y66841D01*
X107676Y66884D01*
X107600Y66899D01*
X107578Y66895D01*
X107437Y67037D01*
X107397Y67063D01*
X107350Y67072D01*
X107327D01*
Y67138D01*
X106321D01*
Y66762D01*
X107327D01*
X107327Y66762D01*
Y66762D01*
X107354Y66773D01*
X107405Y66722D01*
X107401Y66700D01*
X107405Y66678D01*
X107354Y66627D01*
X107327Y66638D01*
Y66638D01*
X107327Y66638D01*
X106321D01*
Y66285D01*
X106321Y66285D01*
X106321D01*
X106321Y66262D01*
X106309Y66250D01*
X105638D01*
X105623Y66298D01*
X105641Y66309D01*
X105684Y66374D01*
X105699Y66450D01*
X105684Y66526D01*
X105641Y66591D01*
X105576Y66634D01*
X105500Y66649D01*
X105424Y66634D01*
X105359Y66591D01*
X105347Y66572D01*
X105279D01*
Y66638D01*
X104273D01*
Y66285D01*
X104273Y66285D01*
X104273D01*
X104273Y66262D01*
X104261Y66250D01*
X103303D01*
Y66414D01*
X103347Y66437D01*
X103364Y66426D01*
X103441Y66411D01*
X103517Y66426D01*
X103581Y66469D01*
X103624Y66533D01*
X103639Y66609D01*
X103624Y66686D01*
X103581Y66750D01*
X103517Y66793D01*
X103441Y66808D01*
X103364Y66793D01*
X103347Y66782D01*
X103303Y66805D01*
Y67073D01*
X102297D01*
Y66250D01*
X101150D01*
Y73228D01*
X101797D01*
X101809Y73209D01*
X101874Y73166D01*
X101950Y73151D01*
X102026Y73166D01*
X102091Y73209D01*
X102134Y73274D01*
X102149Y73350D01*
X102134Y73426D01*
X102091Y73491D01*
X102026Y73534D01*
X101950Y73549D01*
X101874Y73534D01*
X101809Y73491D01*
X101797Y73472D01*
X101150D01*
Y73651D01*
X101189Y73682D01*
X101197Y73681D01*
X102623D01*
Y73674D01*
Y73477D01*
Y73422D01*
X102579Y73398D01*
X102526Y73434D01*
X102450Y73449D01*
X102374Y73434D01*
X102309Y73391D01*
X102266Y73326D01*
X102251Y73250D01*
X102266Y73174D01*
X102309Y73109D01*
X102374Y73066D01*
X102420Y73057D01*
X102508Y72969D01*
X102503Y72919D01*
X102482Y72905D01*
X102422Y72845D01*
X102400Y72849D01*
X102324Y72834D01*
X102259Y72791D01*
X102216Y72726D01*
X102201Y72650D01*
X102216Y72574D01*
X102259Y72509D01*
X102324Y72466D01*
X102400Y72451D01*
X102476Y72466D01*
X102541Y72509D01*
X102575Y72561D01*
X102623Y72547D01*
Y72493D01*
Y72296D01*
Y72099D01*
Y71964D01*
Y71957D01*
X102485D01*
X102438Y71948D01*
X102398Y71921D01*
X102213Y71737D01*
X102187Y71697D01*
X102178Y71650D01*
Y70453D01*
X102159Y70441D01*
X102116Y70376D01*
X102101Y70300D01*
X102116Y70224D01*
X102159Y70159D01*
X102224Y70116D01*
X102300Y70101D01*
X102376Y70116D01*
X102441Y70159D01*
X102480Y70218D01*
X102528Y70204D01*
Y69503D01*
X102509Y69491D01*
X102466Y69426D01*
X102451Y69350D01*
X102466Y69274D01*
X102509Y69209D01*
X102574Y69166D01*
X102650Y69151D01*
X102726Y69166D01*
X102791Y69209D01*
X102834Y69274D01*
X102849Y69350D01*
X102834Y69426D01*
X102791Y69491D01*
X102772Y69503D01*
Y71229D01*
X103052Y71509D01*
X103393D01*
Y71706D01*
Y71902D01*
Y72099D01*
Y72296D01*
Y72493D01*
Y72500D01*
X103472D01*
X103519Y72509D01*
X103559Y72536D01*
X103728Y72705D01*
X103750Y72701D01*
X103826Y72716D01*
X103891Y72759D01*
X103934Y72824D01*
X103949Y72900D01*
X103934Y72976D01*
X103891Y73041D01*
X103826Y73084D01*
X103750Y73099D01*
X103674Y73084D01*
X103609Y73041D01*
X103566Y72976D01*
X103551Y72900D01*
X103555Y72878D01*
X103439Y72762D01*
X103393Y72781D01*
Y72887D01*
Y73084D01*
Y73090D01*
X103513D01*
X103559Y73100D01*
X103599Y73126D01*
X103781Y73308D01*
X103798Y73306D01*
X103853Y73269D01*
X103859Y73259D01*
X103924Y73216D01*
X104000Y73201D01*
X104076Y73216D01*
X104141Y73259D01*
X104184Y73324D01*
X104199Y73400D01*
X104184Y73476D01*
X104141Y73541D01*
X104076Y73584D01*
X104000Y73599D01*
X103924Y73584D01*
X103866Y73545D01*
X103822Y73569D01*
Y73599D01*
X103978Y73755D01*
X104000Y73751D01*
X104076Y73766D01*
X104141Y73809D01*
X104184Y73874D01*
X104199Y73950D01*
X104184Y74026D01*
X104141Y74091D01*
X104076Y74134D01*
X104000Y74149D01*
X103924Y74134D01*
X103859Y74091D01*
X103816Y74026D01*
X103801Y73950D01*
X103805Y73928D01*
X103613Y73737D01*
X103587Y73697D01*
X103578Y73650D01*
Y73451D01*
X103462Y73335D01*
X103393D01*
Y73342D01*
Y73477D01*
Y73674D01*
Y73871D01*
Y74068D01*
Y74265D01*
Y74461D01*
Y74658D01*
Y74737D01*
X103008D01*
Y74837D01*
X103393D01*
Y74855D01*
Y75052D01*
Y75060D01*
X103652Y75071D01*
X103659Y75059D01*
X103724Y75016D01*
X103800Y75001D01*
X103876Y75016D01*
X103941Y75059D01*
X103984Y75124D01*
X103999Y75200D01*
X103984Y75276D01*
X103941Y75341D01*
X103876Y75384D01*
X103800Y75399D01*
X103724Y75384D01*
X103659Y75341D01*
X103643Y75316D01*
X103429Y75306D01*
Y75306D01*
X103429D01*
X103422Y75313D01*
X103393Y75341D01*
Y75446D01*
Y75643D01*
Y75839D01*
Y76036D01*
Y76233D01*
Y76491D01*
X102832D01*
X102422Y76901D01*
Y77139D01*
X102469Y77158D01*
X102721Y76906D02*
G37*
G36*
X101503Y77261D02*
X101501Y77250D01*
X101516Y77174D01*
X101559Y77109D01*
X101624Y77066D01*
X101700Y77051D01*
X101722Y77055D01*
X101828Y76949D01*
Y76796D01*
X101780Y76782D01*
X101741Y76841D01*
X101676Y76884D01*
X101600Y76899D01*
X101524Y76884D01*
X101459Y76841D01*
X101416Y76776D01*
X101401Y76700D01*
X101416Y76624D01*
X101372Y76601D01*
X101150Y76823D01*
Y77300D01*
X101472D01*
X101503Y77261D02*
G37*
G36*
X110050Y74478D02*
X110002Y74463D01*
X109987Y74487D01*
X109599Y74874D01*
X109559Y74900D01*
X109513Y74910D01*
X109377D01*
Y74916D01*
Y75052D01*
Y75097D01*
X109425Y75111D01*
X109459Y75059D01*
X109524Y75016D01*
X109600Y75001D01*
X109676Y75016D01*
X109741Y75059D01*
X109784Y75124D01*
X109799Y75200D01*
X109784Y75276D01*
X109741Y75341D01*
X109676Y75384D01*
X109600Y75399D01*
X109578Y75395D01*
X109524Y75449D01*
X109525Y75452D01*
X109572Y75462D01*
X109611Y75488D01*
X109628Y75505D01*
X109650Y75501D01*
X109726Y75516D01*
X109791Y75559D01*
X109834Y75624D01*
X109849Y75700D01*
X109834Y75776D01*
X109791Y75841D01*
X109792Y75846D01*
X110050D01*
Y74478D02*
G37*
G36*
X109878Y72449D02*
Y70700D01*
X109887Y70653D01*
X109913Y70613D01*
X110045Y70481D01*
X110036Y70432D01*
X110004Y70419D01*
X109772Y70651D01*
Y71900D01*
X109763Y71947D01*
X109737Y71987D01*
X109605Y72118D01*
X109565Y72145D01*
X109518Y72154D01*
X109377D01*
Y72161D01*
Y72296D01*
Y72297D01*
X109425Y72311D01*
X109459Y72259D01*
X109524Y72216D01*
X109600Y72201D01*
X109676Y72216D01*
X109741Y72259D01*
X109784Y72324D01*
X109799Y72400D01*
X109784Y72476D01*
X109828Y72499D01*
X109878Y72449D02*
G37*
G36*
X101417Y74110D02*
X101440Y74094D01*
X101456Y74084D01*
X101503Y74075D01*
X102623D01*
Y74068D01*
Y73932D01*
Y73926D01*
X101248D01*
X101150Y74023D01*
Y74312D01*
X101196Y74331D01*
X101417Y74110D02*
G37*
G36*
X119378Y78200D02*
X112118D01*
Y82500D01*
X110350D01*
Y82740D01*
X110295D01*
Y82780D01*
X110295D01*
Y83520D01*
X109944D01*
Y83150D01*
X109844D01*
Y83520D01*
X109688D01*
Y83150D01*
X109588D01*
Y83520D01*
X109248D01*
Y83574D01*
X109239Y83621D01*
X109213Y83661D01*
X109195Y83678D01*
X109199Y83700D01*
X109184Y83776D01*
X109141Y83841D01*
X109076Y83884D01*
X109000Y83899D01*
X108924Y83884D01*
X108859Y83841D01*
X108847Y83822D01*
X108500D01*
X108453Y83813D01*
X108413Y83787D01*
X108271Y83645D01*
X108245Y83605D01*
X108236Y83558D01*
Y83520D01*
X108152D01*
Y83150D01*
X108052D01*
Y83520D01*
X107896D01*
Y83150D01*
X107846D01*
Y83100D01*
X107701D01*
Y82780D01*
D01*
Y82780D01*
X107661Y82740D01*
X107650D01*
Y82500D01*
X106950D01*
Y85678D01*
X107040D01*
Y85573D01*
X107615D01*
X107644Y85520D01*
X107635Y85507D01*
X107620Y85431D01*
X107635Y85355D01*
X107678Y85291D01*
X107743Y85247D01*
X107819Y85232D01*
X107895Y85247D01*
X107959Y85291D01*
X108003Y85355D01*
X108018Y85431D01*
X108003Y85507D01*
X107959Y85572D01*
X107960Y85573D01*
X108598D01*
Y86027D01*
X107040D01*
Y85922D01*
X106950D01*
Y86250D01*
X119378D01*
Y78200D02*
G37*
%LPC*%
G36*
X103303Y68254D02*
X102850D01*
Y67841D01*
X103303D01*
Y68254D02*
G37*
G36*
X102750D02*
X102297D01*
Y67841D01*
X102750D01*
Y68254D02*
G37*
G36*
X105279Y67900D02*
X104826D01*
Y67762D01*
X105279D01*
Y67900D02*
G37*
G36*
X107500Y68149D02*
X107424Y68134D01*
X107371Y68098D01*
X107327Y68122D01*
Y68138D01*
X106321D01*
Y67762D01*
X107327D01*
Y67778D01*
X107371Y67802D01*
X107424Y67766D01*
X107500Y67751D01*
X107576Y67766D01*
X107641Y67809D01*
X107684Y67874D01*
X107699Y67950D01*
X107684Y68026D01*
X107641Y68091D01*
X107576Y68134D01*
X107500Y68149D02*
G37*
G36*
X104031Y71930D02*
X103955Y71915D01*
X103891Y71872D01*
X103848Y71808D01*
X103833Y71732D01*
X103848Y71655D01*
X103891Y71591D01*
X103909Y71579D01*
Y71393D01*
X103509D01*
Y70623D01*
X104385D01*
X104401Y70584D01*
X104369Y70545D01*
X104350Y70549D01*
X104274Y70534D01*
X104209Y70491D01*
X104166Y70426D01*
X104151Y70350D01*
X104166Y70274D01*
X104209Y70209D01*
X104274Y70166D01*
X104350Y70151D01*
X104426Y70166D01*
X104491Y70209D01*
X104534Y70274D01*
X104549Y70350D01*
X104545Y70372D01*
X104709Y70536D01*
X104735Y70575D01*
X104744Y70622D01*
Y70623D01*
X104769D01*
Y71008D01*
Y71393D01*
X104154D01*
Y71579D01*
X104172Y71591D01*
X104215Y71655D01*
X104230Y71732D01*
X104215Y71808D01*
X104172Y71872D01*
X104108Y71915D01*
X104031Y71930D02*
G37*
G36*
X104726Y68138D02*
X104273D01*
Y68000D01*
X104726D01*
Y68138D02*
G37*
G36*
X105279D02*
X104826D01*
Y68000D01*
X105279D01*
Y68138D02*
G37*
G36*
X104726Y67900D02*
X104273D01*
Y67762D01*
X104726D01*
Y67900D02*
G37*
G36*
X105279Y67400D02*
X104826D01*
Y67262D01*
X105279D01*
Y67400D02*
G37*
G36*
X102750Y67741D02*
X102297D01*
Y67327D01*
X102750D01*
Y67741D02*
G37*
G36*
X105279Y67138D02*
X104273D01*
Y66762D01*
X105279D01*
Y67138D02*
G37*
G36*
X104726Y67400D02*
X104273D01*
Y67262D01*
X104726D01*
Y67400D02*
G37*
G36*
X105279Y67638D02*
X104826D01*
Y67500D01*
X105279D01*
Y67638D02*
G37*
G36*
X107500Y67649D02*
X107424Y67634D01*
X107371Y67598D01*
X107327Y67622D01*
Y67638D01*
X106321D01*
Y67262D01*
X107327D01*
Y67278D01*
X107371Y67302D01*
X107424Y67266D01*
X107500Y67251D01*
X107576Y67266D01*
X107641Y67309D01*
X107684Y67374D01*
X107699Y67450D01*
X107684Y67526D01*
X107641Y67591D01*
X107576Y67634D01*
X107500Y67649D02*
G37*
G36*
X103303Y67741D02*
X102850D01*
Y67327D01*
X103303D01*
Y67741D02*
G37*
G36*
X104726Y67638D02*
X104273D01*
Y67500D01*
X104726D01*
Y67638D02*
G37*
G36*
X107250Y71799D02*
X107174Y71784D01*
X107109Y71741D01*
X107066Y71676D01*
X107051Y71600D01*
X107066Y71524D01*
X107109Y71459D01*
X107137Y71441D01*
X107123Y71393D01*
X105586D01*
X105562Y71437D01*
X105593Y71483D01*
X105608Y71559D01*
X105593Y71636D01*
X105550Y71700D01*
X105486Y71743D01*
X105409Y71758D01*
X105333Y71743D01*
X105269Y71700D01*
X105226Y71636D01*
X105211Y71559D01*
X105226Y71483D01*
X105257Y71437D01*
X105233Y71393D01*
X104869D01*
Y71008D01*
Y70623D01*
X106747D01*
X106761Y70575D01*
X106709Y70541D01*
X106666Y70476D01*
X106651Y70400D01*
X106666Y70324D01*
X106709Y70259D01*
X106774Y70216D01*
X106850Y70201D01*
X106926Y70216D01*
X106991Y70259D01*
X107034Y70324D01*
X107049Y70400D01*
X107045Y70422D01*
X107071Y70448D01*
X107092Y70480D01*
X107142Y70485D01*
D01*
X107151Y70450D01*
D01*
X107166Y70374D01*
X107209Y70309D01*
X107274Y70266D01*
X107350Y70251D01*
X107426Y70266D01*
X107491Y70309D01*
X107534Y70374D01*
X107549Y70450D01*
X107534Y70526D01*
X107491Y70591D01*
X107500Y70623D01*
X108192D01*
X108222Y70578D01*
X108179Y70514D01*
X108163Y70438D01*
X108179Y70362D01*
X108222Y70297D01*
X108286Y70254D01*
X108362Y70239D01*
X108438Y70254D01*
X108503Y70297D01*
X108546Y70362D01*
X108561Y70438D01*
X108546Y70514D01*
X108503Y70578D01*
X108485Y70591D01*
Y70623D01*
X108491D01*
Y71393D01*
X108358D01*
X108335Y71437D01*
X108349Y71459D01*
X108364Y71535D01*
X108349Y71611D01*
X108306Y71675D01*
X108241Y71718D01*
X108165Y71733D01*
X108089Y71718D01*
X108025Y71675D01*
X107982Y71611D01*
X107967Y71535D01*
X107982Y71459D01*
X107996Y71437D01*
X107973Y71393D01*
X107500D01*
Y71522D01*
X107491Y71569D01*
X107464Y71609D01*
X107443Y71630D01*
X107434Y71676D01*
X107391Y71741D01*
X107326Y71784D01*
X107250Y71799D02*
G37*
G36*
X114450Y79994D02*
Y79543D01*
X114901D01*
X114890Y79624D01*
X114839Y79747D01*
X114759Y79852D01*
X114654Y79932D01*
X114531Y79983D01*
X114450Y79994D02*
G37*
G36*
X114400Y81654D02*
X114269Y81637D01*
X114146Y81586D01*
X114041Y81505D01*
X113961Y81400D01*
X113910Y81278D01*
X113893Y81146D01*
X113910Y81015D01*
X113961Y80893D01*
X114041Y80788D01*
X114146Y80707D01*
X114269Y80656D01*
X114400Y80639D01*
X114531Y80656D01*
X114654Y80707D01*
X114759Y80788D01*
X114839Y80893D01*
X114890Y81015D01*
X114907Y81146D01*
X114890Y81278D01*
X114839Y81400D01*
X114759Y81505D01*
X114654Y81586D01*
X114531Y81637D01*
X114400Y81654D02*
G37*
G36*
X114901Y79443D02*
X114450D01*
Y78992D01*
X114531Y79003D01*
X114654Y79053D01*
X114759Y79134D01*
X114839Y79239D01*
X114890Y79362D01*
X114901Y79443D02*
G37*
G36*
X114350Y79994D02*
X114269Y79983D01*
X114146Y79932D01*
X114041Y79852D01*
X113961Y79747D01*
X113910Y79624D01*
X113899Y79543D01*
X114350D01*
Y79994D02*
G37*
G36*
X117274Y85315D02*
X117106Y85299D01*
X116944Y85250D01*
X116795Y85170D01*
X116665Y85063D01*
X116558Y84932D01*
X116478Y84783D01*
X116429Y84622D01*
X116412Y84454D01*
X116429Y84285D01*
X116478Y84124D01*
X116558Y83975D01*
X116665Y83844D01*
X116795Y83737D01*
X116944Y83658D01*
X117106Y83609D01*
X117274Y83592D01*
X117442Y83609D01*
X117604Y83658D01*
X117753Y83737D01*
X117883Y83844D01*
X117990Y83975D01*
X118070Y84124D01*
X118119Y84285D01*
X118136Y84454D01*
X118119Y84622D01*
X118070Y84783D01*
X117990Y84932D01*
X117883Y85063D01*
X117753Y85170D01*
X117604Y85250D01*
X117442Y85299D01*
X117274Y85315D02*
G37*
G36*
X114400Y84961D02*
X114269Y84944D01*
X114146Y84893D01*
X114041Y84812D01*
X113961Y84707D01*
X113910Y84585D01*
X113893Y84454D01*
X113910Y84322D01*
X113961Y84200D01*
X114041Y84095D01*
X114146Y84014D01*
X114269Y83963D01*
X114400Y83946D01*
X114531Y83963D01*
X114654Y84014D01*
X114759Y84095D01*
X114839Y84200D01*
X114890Y84322D01*
X114907Y84454D01*
X114890Y84585D01*
X114839Y84707D01*
X114759Y84812D01*
X114654Y84893D01*
X114531Y84944D01*
X114400Y84961D02*
G37*
G36*
Y83307D02*
X114269Y83290D01*
X114146Y83239D01*
X114041Y83159D01*
X113961Y83054D01*
X113910Y82931D01*
X113893Y82800D01*
X113910Y82669D01*
X113961Y82546D01*
X114041Y82441D01*
X114146Y82361D01*
X114269Y82310D01*
X114400Y82293D01*
X114531Y82310D01*
X114654Y82361D01*
X114759Y82441D01*
X114839Y82546D01*
X114890Y82669D01*
X114907Y82800D01*
X114890Y82931D01*
X114839Y83054D01*
X114759Y83159D01*
X114654Y83239D01*
X114531Y83290D01*
X114400Y83307D02*
G37*
G36*
X107796Y83520D02*
X107701D01*
Y83200D01*
X107796D01*
Y83520D02*
G37*
G36*
X110131Y86027D02*
X109402D01*
Y85850D01*
X110131D01*
Y86027D02*
G37*
G36*
X110960Y85750D02*
X110231D01*
Y85573D01*
X110960D01*
Y85750D02*
G37*
G36*
X106800Y72149D02*
X106724Y72134D01*
X106659Y72091D01*
X106616Y72026D01*
X106601Y71950D01*
X106616Y71874D01*
X106659Y71809D01*
X106724Y71766D01*
X106800Y71751D01*
X106876Y71766D01*
X106941Y71809D01*
X106984Y71874D01*
X106999Y71950D01*
X106984Y72026D01*
X106941Y72091D01*
X106876Y72134D01*
X106800Y72149D02*
G37*
G36*
X110960Y86027D02*
X110231D01*
Y85850D01*
X110960D01*
Y86027D02*
G37*
G36*
X117274Y80354D02*
X117106Y80338D01*
X116944Y80289D01*
X116795Y80209D01*
X116665Y80102D01*
X116558Y79972D01*
X116478Y79823D01*
X116429Y79661D01*
X116412Y79493D01*
X116429Y79325D01*
X116478Y79163D01*
X116558Y79014D01*
X116665Y78884D01*
X116795Y78777D01*
X116944Y78697D01*
X117106Y78648D01*
X117274Y78631D01*
X117442Y78648D01*
X117604Y78697D01*
X117753Y78777D01*
X117883Y78884D01*
X117990Y79014D01*
X118070Y79163D01*
X118119Y79325D01*
X118136Y79493D01*
X118119Y79661D01*
X118070Y79823D01*
X117990Y79972D01*
X117883Y80102D01*
X117753Y80209D01*
X117604Y80289D01*
X117442Y80338D01*
X117274Y80354D02*
G37*
G36*
X114350Y79443D02*
X113899D01*
X113910Y79362D01*
X113961Y79239D01*
X114041Y79134D01*
X114146Y79053D01*
X114269Y79003D01*
X114350Y78992D01*
Y79443D02*
G37*
G36*
X108250Y76199D02*
X108174Y76184D01*
X108109Y76141D01*
X108066Y76076D01*
X108051Y76000D01*
X108066Y75924D01*
X108109Y75859D01*
X108174Y75816D01*
X108250Y75801D01*
X108326Y75816D01*
X108391Y75859D01*
X108434Y75924D01*
X108449Y76000D01*
X108434Y76076D01*
X108391Y76141D01*
X108326Y76184D01*
X108250Y76199D02*
G37*
G36*
X110131Y85750D02*
X109402D01*
Y85573D01*
X110131D01*
Y85750D02*
G37*
%LPD*%
%ADD10R,0.0591X0.0906*%
%ADD11R,0.0787X0.0866*%
%ADD12R,0.0866X0.0787*%
%ADD13R,0.0394X0.0433*%
%ADD14R,0.0433X0.0394*%
%ADD15R,0.0236X0.0866*%
%ADD16O,0.0480X0.0169*%
%ADD17R,0.0480X0.0169*%
%ADD18R,0.0787X0.0472*%
%ADD19R,0.0512X0.0591*%
%ADD20R,0.0866X0.0236*%
%ADD21R,0.0866X0.0236*%
%ADD22R,0.0591X0.0512*%
%ADD23R,0.0630X0.0709*%
%ADD24R,0.0610X0.0236*%
%ADD25R,0.0409X0.0150*%
%ADD26O,0.0409X0.0150*%
%ADD27R,0.0709X0.0630*%
%ADD28R,0.0630X0.0118*%
%ADD29R,0.0630X0.0118*%
%ADD30R,0.1417X0.0315*%
%ADD31R,0.1240X0.1360*%
%ADD32R,0.0315X0.1417*%
%ADD33R,0.0610X0.0157*%
%ADD34R,0.0591X0.0138*%
%ADD35R,0.0571X0.0118*%
%ADD36R,0.0118X0.0630*%
%ADD37R,0.0807X0.0236*%
%ADD38R,0.0150X0.0600*%
%ADD39R,0.1010X0.0620*%
%ADD40R,0.2560X0.0360*%
%ADD41R,0.0775X0.0620*%
%ADD42C,0.0160*%
%ADD43C,0.0100*%
%ADD44C,0.0200*%
%ADD45C,0.0500*%
%ADD46C,0.0591*%
%ADD47R,0.0591X0.0591*%
%ADD48C,0.0866*%
%ADD49C,0.1575*%
%ADD50C,0.0700*%
%ADD51C,0.0750*%
%ADD52C,0.0500*%
%ADD53C,0.0200*%
%ADD54C,0.0350*%
%ADD55C,0.0250*%
D10*
X109400Y65600D02*
D03*
X111400D02*
D03*
X109400Y67411D02*
D03*
X111400D02*
D03*
D11*
X57759Y105600D02*
D03*
X58941D02*
D03*
X57759Y90550D02*
D03*
X58941D02*
D03*
X57809Y120600D02*
D03*
X58991D02*
D03*
X31991Y42200D02*
D03*
X30809D02*
D03*
X51009Y55600D02*
D03*
X52191D02*
D03*
X64209Y56200D02*
D03*
X65391D02*
D03*
X38809Y72000D02*
D03*
X39991D02*
D03*
X44609Y96200D02*
D03*
X45791D02*
D03*
X62409Y71800D02*
D03*
X63591D02*
D03*
X111191Y79600D02*
D03*
X110009D02*
D03*
X106809D02*
D03*
X107991D02*
D03*
X76409Y86600D02*
D03*
X77591D02*
D03*
X67591Y44800D02*
D03*
X66409D02*
D03*
X67591Y59800D02*
D03*
X66409D02*
D03*
X66841Y74800D02*
D03*
X65659D02*
D03*
X74791Y50200D02*
D03*
X73609D02*
D03*
X74791Y65200D02*
D03*
X73609D02*
D03*
X74041Y80200D02*
D03*
X72859D02*
D03*
X61391Y44800D02*
D03*
X60209D02*
D03*
X61391Y59800D02*
D03*
X60209D02*
D03*
X60641Y74800D02*
D03*
X59459D02*
D03*
X60809Y50200D02*
D03*
X61991D02*
D03*
X60809Y65200D02*
D03*
X61991D02*
D03*
X61241Y80200D02*
D03*
X60059D02*
D03*
D12*
X63150Y105609D02*
D03*
Y106791D02*
D03*
Y90559D02*
D03*
Y91741D02*
D03*
X63200Y120609D02*
D03*
Y121791D02*
D03*
X102800Y66609D02*
D03*
Y67791D02*
D03*
X77600Y90791D02*
D03*
Y89609D02*
D03*
X81000Y84791D02*
D03*
Y83609D02*
D03*
D13*
X64550Y96415D02*
D03*
Y97085D02*
D03*
X59350Y107535D02*
D03*
Y106865D02*
D03*
X82000Y94685D02*
D03*
Y94015D02*
D03*
X62950Y111465D02*
D03*
Y112135D02*
D03*
X64550Y106735D02*
D03*
Y106065D02*
D03*
X65750Y111465D02*
D03*
Y112135D02*
D03*
X64550Y111465D02*
D03*
Y112135D02*
D03*
X66550Y108535D02*
D03*
Y107865D02*
D03*
X67550D02*
D03*
Y108535D02*
D03*
X59750Y111335D02*
D03*
Y110665D02*
D03*
X65550Y107135D02*
D03*
Y106465D02*
D03*
X78000Y88335D02*
D03*
Y87665D02*
D03*
X115600Y74065D02*
D03*
Y74735D02*
D03*
X90600Y83335D02*
D03*
Y82665D02*
D03*
X82000Y69835D02*
D03*
X66600Y122865D02*
D03*
X67600D02*
D03*
X65600Y122135D02*
D03*
X66550Y92815D02*
D03*
X67550D02*
D03*
X65550Y92085D02*
D03*
X65800Y127135D02*
D03*
X64600Y126465D02*
D03*
X65750Y97085D02*
D03*
X59800Y126335D02*
D03*
X59750Y96285D02*
D03*
X59400Y122535D02*
D03*
X59350Y92485D02*
D03*
X66600Y123535D02*
D03*
X64600Y121735D02*
D03*
Y121065D02*
D03*
X66550Y93485D02*
D03*
X64550Y91685D02*
D03*
Y91015D02*
D03*
X65800Y126465D02*
D03*
X67600Y123535D02*
D03*
X65750Y96415D02*
D03*
X67550Y93485D02*
D03*
X63000Y126465D02*
D03*
X64600Y127135D02*
D03*
X63000D02*
D03*
X62950Y96415D02*
D03*
Y97085D02*
D03*
X82000Y69165D02*
D03*
X65600Y121465D02*
D03*
X65550Y91415D02*
D03*
X59800Y125665D02*
D03*
X59750Y95615D02*
D03*
X59400Y121865D02*
D03*
X59350Y91815D02*
D03*
X72600Y48465D02*
D03*
Y49135D02*
D03*
Y63465D02*
D03*
Y64135D02*
D03*
X71850Y78465D02*
D03*
Y79135D02*
D03*
X65600Y48665D02*
D03*
Y49335D02*
D03*
Y63665D02*
D03*
Y64335D02*
D03*
X64850Y78665D02*
D03*
Y79335D02*
D03*
X73200Y48135D02*
D03*
Y47465D02*
D03*
Y63135D02*
D03*
Y62465D02*
D03*
X72450Y78135D02*
D03*
Y77465D02*
D03*
X66200Y48335D02*
D03*
Y47665D02*
D03*
Y63335D02*
D03*
Y62665D02*
D03*
X65450Y78335D02*
D03*
Y77665D02*
D03*
X74200Y48135D02*
D03*
Y47465D02*
D03*
Y63135D02*
D03*
Y62465D02*
D03*
X73450Y78135D02*
D03*
Y77465D02*
D03*
X67200Y47935D02*
D03*
Y47265D02*
D03*
Y62935D02*
D03*
Y62265D02*
D03*
X66450Y77935D02*
D03*
Y77265D02*
D03*
D14*
X60265Y122800D02*
D03*
X60935D02*
D03*
X59085Y109000D02*
D03*
X58415D02*
D03*
X81135Y94750D02*
D03*
X80465D02*
D03*
X60215Y106600D02*
D03*
X60885D02*
D03*
X61015Y112200D02*
D03*
X61685D02*
D03*
X67015Y110800D02*
D03*
X67685D02*
D03*
X67085Y106000D02*
D03*
X66415D02*
D03*
X60215Y107800D02*
D03*
X60885D02*
D03*
X67015Y110000D02*
D03*
X67685D02*
D03*
X60885Y109000D02*
D03*
X60215D02*
D03*
X61685Y111200D02*
D03*
X61015D02*
D03*
X60615Y110200D02*
D03*
X61285D02*
D03*
X61535Y83400D02*
D03*
X60865D02*
D03*
X66135Y53200D02*
D03*
X65465D02*
D03*
X78865Y89600D02*
D03*
X79535D02*
D03*
Y90800D02*
D03*
X78865D02*
D03*
X74265Y86400D02*
D03*
X74935D02*
D03*
X115265Y77200D02*
D03*
X115935D02*
D03*
X112465Y72200D02*
D03*
X113135D02*
D03*
X110465Y75000D02*
D03*
X111135D02*
D03*
X110465Y72600D02*
D03*
X111135D02*
D03*
X110465Y74000D02*
D03*
X111135D02*
D03*
X88935Y80200D02*
D03*
X88265D02*
D03*
X88935Y79200D02*
D03*
X88265D02*
D03*
X88935Y78200D02*
D03*
X88265D02*
D03*
X114135Y68400D02*
D03*
X113465D02*
D03*
X114135Y66600D02*
D03*
X113465D02*
D03*
X80465Y69900D02*
D03*
X58415Y93950D02*
D03*
X58465Y124000D02*
D03*
X81135Y69900D02*
D03*
X67135Y121000D02*
D03*
X67085Y90950D02*
D03*
X67065Y125800D02*
D03*
X67015Y95750D02*
D03*
X67885Y96750D02*
D03*
X61065Y126200D02*
D03*
X60665Y125200D02*
D03*
X61065Y127200D02*
D03*
X61015Y96150D02*
D03*
X60615Y95150D02*
D03*
X61015Y97150D02*
D03*
X60265Y124000D02*
D03*
X59135D02*
D03*
X60265Y121600D02*
D03*
X60215Y93950D02*
D03*
X59085D02*
D03*
X60215Y91550D02*
D03*
X66465Y121000D02*
D03*
X66415Y90950D02*
D03*
X67065Y125000D02*
D03*
X67735Y125800D02*
D03*
Y125000D02*
D03*
X67015Y94950D02*
D03*
X67685Y95750D02*
D03*
Y94950D02*
D03*
X61735Y126200D02*
D03*
Y127200D02*
D03*
X61685Y96150D02*
D03*
Y97150D02*
D03*
X60935Y124000D02*
D03*
X61335Y125200D02*
D03*
X60935Y121600D02*
D03*
X60885Y93950D02*
D03*
X60215Y92750D02*
D03*
X61285Y95150D02*
D03*
X60885Y91550D02*
D03*
Y92750D02*
D03*
X62665Y67400D02*
D03*
X64265Y42400D02*
D03*
X63335Y69000D02*
D03*
X62135Y42200D02*
D03*
X63335Y67400D02*
D03*
X64935Y42400D02*
D03*
X62665Y69000D02*
D03*
X61465Y42200D02*
D03*
X67215Y96750D02*
D03*
X71735Y49400D02*
D03*
X71065D02*
D03*
X71735Y64400D02*
D03*
X71065D02*
D03*
X70985Y79400D02*
D03*
X70315D02*
D03*
X69135Y47200D02*
D03*
X68465D02*
D03*
X69135Y62200D02*
D03*
X68465D02*
D03*
X68385Y77200D02*
D03*
X67715D02*
D03*
X69135Y46400D02*
D03*
X68465D02*
D03*
X69135Y61400D02*
D03*
X68465D02*
D03*
X68385Y76400D02*
D03*
X67715D02*
D03*
X64735Y49000D02*
D03*
X64065D02*
D03*
X64735Y64000D02*
D03*
X64065D02*
D03*
X63985Y79000D02*
D03*
X63315D02*
D03*
X62535Y47400D02*
D03*
X61865D02*
D03*
X62535Y62400D02*
D03*
X61865D02*
D03*
X61785Y77400D02*
D03*
X61115D02*
D03*
X60535Y47400D02*
D03*
X59865D02*
D03*
X60535Y62400D02*
D03*
X59865D02*
D03*
X59785Y77400D02*
D03*
X59115D02*
D03*
X69265Y49400D02*
D03*
X69935D02*
D03*
X69265Y64400D02*
D03*
X69935D02*
D03*
X68515Y79400D02*
D03*
X69185D02*
D03*
X60265Y48600D02*
D03*
X60935D02*
D03*
X60265Y63600D02*
D03*
X60935D02*
D03*
X59515Y78600D02*
D03*
X60185D02*
D03*
X69135Y48200D02*
D03*
X68465D02*
D03*
X69135Y63200D02*
D03*
X68465D02*
D03*
X68385Y78200D02*
D03*
X67715D02*
D03*
X61335Y46600D02*
D03*
X60665D02*
D03*
X61335Y61600D02*
D03*
X60665D02*
D03*
X60585Y76600D02*
D03*
X59915D02*
D03*
X72865Y46400D02*
D03*
X73535D02*
D03*
X72865Y61400D02*
D03*
X73535D02*
D03*
X72115Y76400D02*
D03*
X72785D02*
D03*
X70935Y48400D02*
D03*
X70265D02*
D03*
X70935Y63400D02*
D03*
X70265D02*
D03*
X70185Y78400D02*
D03*
X69515D02*
D03*
X65865Y46400D02*
D03*
X66535D02*
D03*
X65865Y61400D02*
D03*
X66535D02*
D03*
X65115Y76400D02*
D03*
X65785D02*
D03*
X62065Y48600D02*
D03*
X62735D02*
D03*
X62065Y63600D02*
D03*
X62735D02*
D03*
X61315Y78600D02*
D03*
X61985D02*
D03*
X67265Y126800D02*
D03*
X67935D02*
D03*
X67215Y111800D02*
D03*
X67885D02*
D03*
D15*
X65500Y123176D02*
D03*
X65000D02*
D03*
X64500D02*
D03*
X65450Y110224D02*
D03*
X64950D02*
D03*
X64450D02*
D03*
X63950D02*
D03*
X63450D02*
D03*
X62950D02*
D03*
X62450D02*
D03*
X65450Y108176D02*
D03*
X64950D02*
D03*
X64450D02*
D03*
X63950D02*
D03*
X63450D02*
D03*
X62950D02*
D03*
X62450D02*
D03*
X65000Y125224D02*
D03*
X65500D02*
D03*
X64950Y95174D02*
D03*
X65450D02*
D03*
X63000Y125224D02*
D03*
X62500D02*
D03*
X62950Y95174D02*
D03*
X62450D02*
D03*
X63000Y123176D02*
D03*
X62500D02*
D03*
X62950Y93126D02*
D03*
X62450D02*
D03*
X64000Y125224D02*
D03*
X63950Y95174D02*
D03*
X64000Y123176D02*
D03*
X63950Y93126D02*
D03*
X63500Y125224D02*
D03*
X64500D02*
D03*
X63500Y123176D02*
D03*
X63450Y95174D02*
D03*
X64450D02*
D03*
X63450Y93126D02*
D03*
X65450D02*
D03*
X64950D02*
D03*
X64450D02*
D03*
D16*
X49682Y109232D02*
D03*
Y109488D02*
D03*
Y109744D02*
D03*
Y110000D02*
D03*
X48650Y109232D02*
D03*
Y109488D02*
D03*
Y109744D02*
D03*
X50932Y77744D02*
D03*
Y77488D02*
D03*
Y77232D02*
D03*
X50631Y47744D02*
D03*
Y47488D02*
D03*
Y47232D02*
D03*
Y62744D02*
D03*
Y62488D02*
D03*
Y62232D02*
D03*
Y124744D02*
D03*
Y124488D02*
D03*
Y124232D02*
D03*
X49082Y94744D02*
D03*
Y94488D02*
D03*
Y94232D02*
D03*
X49600Y47488D02*
D03*
Y62488D02*
D03*
X49900Y77488D02*
D03*
X48050Y94488D02*
D03*
X49600Y124488D02*
D03*
X49900Y77232D02*
D03*
X49600Y47232D02*
D03*
Y62232D02*
D03*
Y124232D02*
D03*
X48050Y94232D02*
D03*
X50932Y78000D02*
D03*
X50631Y48000D02*
D03*
Y63000D02*
D03*
Y125000D02*
D03*
X49082Y95000D02*
D03*
X49900Y77744D02*
D03*
X49600Y47744D02*
D03*
Y62744D02*
D03*
Y124744D02*
D03*
X48050Y94744D02*
D03*
D17*
X48650Y110000D02*
D03*
X49600Y48000D02*
D03*
Y63000D02*
D03*
X49900Y78000D02*
D03*
X48050Y95000D02*
D03*
X49600Y125000D02*
D03*
D18*
X48699Y110800D02*
D03*
X49801D02*
D03*
X48699Y108200D02*
D03*
X49801D02*
D03*
X32649Y111400D02*
D03*
X33751D02*
D03*
Y107600D02*
D03*
X32649D02*
D03*
X49949Y76200D02*
D03*
X49649Y46200D02*
D03*
Y61200D02*
D03*
Y123200D02*
D03*
X48099Y93200D02*
D03*
X33751Y45600D02*
D03*
Y75600D02*
D03*
Y60600D02*
D03*
Y92600D02*
D03*
Y122600D02*
D03*
X51051Y78800D02*
D03*
X50751Y48800D02*
D03*
Y63800D02*
D03*
Y125800D02*
D03*
X49201Y95800D02*
D03*
X33751Y49400D02*
D03*
Y79400D02*
D03*
Y64400D02*
D03*
Y96400D02*
D03*
Y126400D02*
D03*
X51051Y76200D02*
D03*
X50751Y46200D02*
D03*
Y61200D02*
D03*
Y123200D02*
D03*
X49201Y93200D02*
D03*
X49949Y78800D02*
D03*
X49649Y48800D02*
D03*
Y63800D02*
D03*
Y125800D02*
D03*
X48099Y95800D02*
D03*
X32649Y45600D02*
D03*
Y75600D02*
D03*
Y60600D02*
D03*
Y92600D02*
D03*
Y122600D02*
D03*
Y49400D02*
D03*
Y79400D02*
D03*
Y64400D02*
D03*
Y96400D02*
D03*
Y126400D02*
D03*
D19*
X52224Y111000D02*
D03*
X51476D02*
D03*
X52424Y109600D02*
D03*
X51676D02*
D03*
X52424Y108600D02*
D03*
X51676D02*
D03*
X36774Y95000D02*
D03*
X36026D02*
D03*
X36374Y109400D02*
D03*
X35626D02*
D03*
X42374Y111400D02*
D03*
X41626D02*
D03*
X39626Y126800D02*
D03*
X40374D02*
D03*
X83174Y95950D02*
D03*
X82426D02*
D03*
X52726Y79000D02*
D03*
X52926Y77600D02*
D03*
Y76600D02*
D03*
X52426Y49000D02*
D03*
X52626Y47600D02*
D03*
Y46600D02*
D03*
X52426Y64000D02*
D03*
X52626Y62600D02*
D03*
Y61600D02*
D03*
X52426Y126000D02*
D03*
X52626Y124600D02*
D03*
Y123600D02*
D03*
X50876Y96000D02*
D03*
X51076Y94600D02*
D03*
Y93600D02*
D03*
X42474Y64400D02*
D03*
X35926Y48000D02*
D03*
X35726Y62400D02*
D03*
X36674Y48000D02*
D03*
X36474Y62400D02*
D03*
X39776Y79800D02*
D03*
X40524D02*
D03*
X83174Y71100D02*
D03*
X53474Y79000D02*
D03*
X53174Y49000D02*
D03*
Y64000D02*
D03*
Y126000D02*
D03*
X51624Y96000D02*
D03*
X53674Y77600D02*
D03*
X53374Y47600D02*
D03*
Y62600D02*
D03*
Y124600D02*
D03*
X51824Y94600D02*
D03*
X53674Y76600D02*
D03*
X53374Y46600D02*
D03*
Y61600D02*
D03*
Y123600D02*
D03*
X51824Y93600D02*
D03*
X41726Y64400D02*
D03*
X82426Y71100D02*
D03*
D20*
X32176Y109650D02*
D03*
Y109150D02*
D03*
Y108650D02*
D03*
X34224Y110150D02*
D03*
Y109650D02*
D03*
Y109150D02*
D03*
Y108650D02*
D03*
X106824Y66950D02*
D03*
Y67450D02*
D03*
Y67950D02*
D03*
X104776Y66450D02*
D03*
Y66950D02*
D03*
Y67450D02*
D03*
Y67950D02*
D03*
X34224Y62150D02*
D03*
X32176Y47150D02*
D03*
Y47650D02*
D03*
Y77150D02*
D03*
Y77650D02*
D03*
Y62150D02*
D03*
Y62650D02*
D03*
Y94150D02*
D03*
Y94650D02*
D03*
Y124150D02*
D03*
Y124650D02*
D03*
X34224Y47650D02*
D03*
X32176Y46650D02*
D03*
X34224Y62650D02*
D03*
X32176Y61650D02*
D03*
Y76650D02*
D03*
X34224Y94650D02*
D03*
X32176Y93650D02*
D03*
Y123650D02*
D03*
X34224Y47150D02*
D03*
Y94150D02*
D03*
Y77650D02*
D03*
Y124650D02*
D03*
Y46650D02*
D03*
Y76650D02*
D03*
Y61650D02*
D03*
Y93650D02*
D03*
Y123650D02*
D03*
Y48150D02*
D03*
Y78150D02*
D03*
Y63150D02*
D03*
Y95150D02*
D03*
Y125150D02*
D03*
Y77150D02*
D03*
Y124150D02*
D03*
D21*
X32176Y110150D02*
D03*
X106824Y66450D02*
D03*
X32176Y48150D02*
D03*
Y63150D02*
D03*
Y78150D02*
D03*
Y95150D02*
D03*
Y125150D02*
D03*
D22*
X30800Y109026D02*
D03*
Y109774D02*
D03*
X38400Y123574D02*
D03*
Y122826D02*
D03*
X44800Y126574D02*
D03*
Y125826D02*
D03*
X30800Y47026D02*
D03*
Y47774D02*
D03*
Y77026D02*
D03*
Y77774D02*
D03*
Y62026D02*
D03*
Y62774D02*
D03*
Y94026D02*
D03*
Y94774D02*
D03*
Y124026D02*
D03*
Y124774D02*
D03*
X44950Y79574D02*
D03*
X38550Y76574D02*
D03*
X44950Y78826D02*
D03*
X38550Y75826D02*
D03*
D23*
X35849Y93400D02*
D03*
X36951D02*
D03*
X40049Y123200D02*
D03*
X41151D02*
D03*
X37249Y124600D02*
D03*
X38351D02*
D03*
X76151Y117000D02*
D03*
X75049D02*
D03*
X76151Y109000D02*
D03*
X75049D02*
D03*
X76151Y93600D02*
D03*
X75049D02*
D03*
X79951Y77600D02*
D03*
X78849D02*
D03*
X80151Y63400D02*
D03*
X79049D02*
D03*
X80151Y51200D02*
D03*
X79049D02*
D03*
X35749Y46400D02*
D03*
X36851D02*
D03*
X37399Y77600D02*
D03*
X38501D02*
D03*
X40199Y76200D02*
D03*
X41301D02*
D03*
D24*
X38648Y94750D02*
D03*
Y94250D02*
D03*
Y93750D02*
D03*
Y93250D02*
D03*
X40952Y94750D02*
D03*
Y94250D02*
D03*
Y93750D02*
D03*
Y93250D02*
D03*
X37848Y109550D02*
D03*
Y109050D02*
D03*
Y108550D02*
D03*
Y108050D02*
D03*
X40152Y109550D02*
D03*
Y109050D02*
D03*
Y108550D02*
D03*
Y108050D02*
D03*
X40852Y46750D02*
D03*
X38548Y47250D02*
D03*
X40252Y61550D02*
D03*
X37948Y62050D02*
D03*
X39598Y78250D02*
D03*
X41902Y77750D02*
D03*
X38548Y46250D02*
D03*
X37948Y61050D02*
D03*
X39598Y77250D02*
D03*
X40852Y47250D02*
D03*
X40252Y62050D02*
D03*
X41902Y78250D02*
D03*
X38548Y46750D02*
D03*
X37948Y61550D02*
D03*
X39598Y77750D02*
D03*
X38548Y47750D02*
D03*
X40852D02*
D03*
Y46250D02*
D03*
X37948Y62550D02*
D03*
X40252D02*
D03*
Y61050D02*
D03*
X39598Y78750D02*
D03*
X41902D02*
D03*
Y77250D02*
D03*
X41752Y124250D02*
D03*
Y124750D02*
D03*
Y125250D02*
D03*
Y125750D02*
D03*
X39448Y124250D02*
D03*
Y124750D02*
D03*
Y125250D02*
D03*
Y125750D02*
D03*
D25*
X42800Y109000D02*
D03*
X42900Y62000D02*
D03*
X44350Y77800D02*
D03*
X44200Y124800D02*
D03*
D26*
X42800Y108744D02*
D03*
Y108488D02*
D03*
Y108232D02*
D03*
X44469Y109000D02*
D03*
Y108744D02*
D03*
Y108488D02*
D03*
Y108232D02*
D03*
X44569Y61488D02*
D03*
X46019Y77288D02*
D03*
X42900Y61744D02*
D03*
X46019Y77800D02*
D03*
X44350Y77544D02*
D03*
X44569Y61744D02*
D03*
X46019Y77544D02*
D03*
X42900Y61232D02*
D03*
X44350Y77032D02*
D03*
X44569Y62000D02*
D03*
X42900Y61488D02*
D03*
X44350Y77288D02*
D03*
X44569Y61232D02*
D03*
X46019Y77032D02*
D03*
X45869Y124032D02*
D03*
Y124288D02*
D03*
Y124544D02*
D03*
Y124800D02*
D03*
X44200Y124032D02*
D03*
Y124288D02*
D03*
Y124544D02*
D03*
D27*
X36400Y107249D02*
D03*
Y108351D02*
D03*
X38400Y125649D02*
D03*
Y126751D02*
D03*
X83200Y90649D02*
D03*
Y91751D02*
D03*
X82800Y77151D02*
D03*
Y76049D02*
D03*
X36500Y60249D02*
D03*
Y61351D02*
D03*
X38550Y79751D02*
D03*
Y78649D02*
D03*
D28*
X84807Y94356D02*
D03*
Y94553D02*
D03*
Y94750D02*
D03*
X83193Y94356D02*
D03*
Y94553D02*
D03*
Y94750D02*
D03*
X83193Y94947D02*
D03*
X83193Y95144D02*
D03*
X62843Y77794D02*
D03*
X62843Y77597D02*
D03*
X62843Y77400D02*
D03*
Y77203D02*
D03*
Y77006D02*
D03*
X64457Y77597D02*
D03*
Y77400D02*
D03*
Y77203D02*
D03*
Y77006D02*
D03*
X69643Y77594D02*
D03*
X69643Y77397D02*
D03*
X69643Y77200D02*
D03*
Y77003D02*
D03*
Y76806D02*
D03*
X71257Y77397D02*
D03*
Y77200D02*
D03*
Y77003D02*
D03*
Y76806D02*
D03*
X108992Y71638D02*
D03*
Y71835D02*
D03*
Y72031D02*
D03*
Y72228D02*
D03*
Y72425D02*
D03*
Y72622D02*
D03*
Y72819D02*
D03*
Y73016D02*
D03*
Y73213D02*
D03*
Y73409D02*
D03*
Y73606D02*
D03*
Y73803D02*
D03*
Y74000D02*
D03*
Y74197D02*
D03*
Y74394D02*
D03*
Y74591D02*
D03*
Y74787D02*
D03*
Y74984D02*
D03*
Y75181D02*
D03*
Y75378D02*
D03*
Y75575D02*
D03*
Y75772D02*
D03*
Y75968D02*
D03*
Y76165D02*
D03*
Y76362D02*
D03*
X103008Y71638D02*
D03*
Y71835D02*
D03*
Y72031D02*
D03*
Y72228D02*
D03*
Y72425D02*
D03*
Y72622D02*
D03*
Y72819D02*
D03*
Y73016D02*
D03*
Y73213D02*
D03*
Y73409D02*
D03*
Y73606D02*
D03*
Y73803D02*
D03*
Y74000D02*
D03*
Y74197D02*
D03*
Y74394D02*
D03*
Y74591D02*
D03*
Y74787D02*
D03*
Y74984D02*
D03*
Y75181D02*
D03*
Y75378D02*
D03*
Y75575D02*
D03*
Y75772D02*
D03*
Y75968D02*
D03*
Y76165D02*
D03*
Y76362D02*
D03*
X72007Y46806D02*
D03*
Y61806D02*
D03*
X70393Y46806D02*
D03*
Y61806D02*
D03*
X65207Y47006D02*
D03*
Y62006D02*
D03*
X63593Y47006D02*
D03*
Y62006D02*
D03*
X84807Y69703D02*
D03*
Y69506D02*
D03*
Y69900D02*
D03*
X72007Y47003D02*
D03*
Y62003D02*
D03*
X83193Y69900D02*
D03*
Y70294D02*
D03*
X72007Y47200D02*
D03*
Y47397D02*
D03*
Y62200D02*
D03*
Y62397D02*
D03*
X70393Y47397D02*
D03*
X70393Y47594D02*
D03*
X70393Y62397D02*
D03*
X70393Y62594D02*
D03*
X65207Y47400D02*
D03*
Y47597D02*
D03*
Y62400D02*
D03*
Y62597D02*
D03*
X63593Y47597D02*
D03*
X63593Y47794D02*
D03*
X63593Y62597D02*
D03*
X63593Y62794D02*
D03*
X70393Y47003D02*
D03*
Y62003D02*
D03*
X63593Y47203D02*
D03*
Y62203D02*
D03*
X83193Y70097D02*
D03*
X83193Y69506D02*
D03*
Y69703D02*
D03*
X70393Y47200D02*
D03*
Y62200D02*
D03*
X65207Y47203D02*
D03*
X63593Y47400D02*
D03*
X65207Y62203D02*
D03*
X63593Y62400D02*
D03*
X84807Y94947D02*
D03*
Y70097D02*
D03*
D29*
Y95144D02*
D03*
X64457Y77794D02*
D03*
X71257Y77594D02*
D03*
X84807Y70294D02*
D03*
X72007Y47594D02*
D03*
Y62594D02*
D03*
X65207Y47794D02*
D03*
Y62794D02*
D03*
D30*
X107819Y85800D02*
D03*
X110181D02*
D03*
D31*
X110490Y112200D02*
D03*
X107110D02*
D03*
X110490Y117000D02*
D03*
X107110D02*
D03*
D32*
X102400Y109619D02*
D03*
Y111981D02*
D03*
Y117219D02*
D03*
Y119581D02*
D03*
D33*
X79183Y88184D02*
D03*
Y87928D02*
D03*
Y87672D02*
D03*
Y87416D02*
D03*
X80817Y88184D02*
D03*
Y87928D02*
D03*
Y87672D02*
D03*
Y87416D02*
D03*
D34*
X79017Y82816D02*
D03*
Y83072D02*
D03*
Y83328D02*
D03*
Y83584D02*
D03*
X77383Y82816D02*
D03*
Y83072D02*
D03*
Y83328D02*
D03*
Y83584D02*
D03*
X74583Y88784D02*
D03*
Y88528D02*
D03*
Y88272D02*
D03*
Y88016D02*
D03*
X76217Y88784D02*
D03*
Y88528D02*
D03*
Y88272D02*
D03*
Y88016D02*
D03*
D35*
X114512Y73448D02*
D03*
Y73704D02*
D03*
Y73960D02*
D03*
Y74216D02*
D03*
Y74472D02*
D03*
Y74728D02*
D03*
Y74984D02*
D03*
Y75240D02*
D03*
Y75496D02*
D03*
Y75752D02*
D03*
X112288Y73448D02*
D03*
Y73704D02*
D03*
Y73960D02*
D03*
Y74216D02*
D03*
Y74472D02*
D03*
Y74728D02*
D03*
Y74984D02*
D03*
Y75240D02*
D03*
Y75496D02*
D03*
Y75752D02*
D03*
D36*
X103638Y71008D02*
D03*
X103835D02*
D03*
X104031D02*
D03*
X104228D02*
D03*
X104425D02*
D03*
X104622D02*
D03*
X104819D02*
D03*
X105016D02*
D03*
X105213D02*
D03*
X105409D02*
D03*
X105606D02*
D03*
X105803D02*
D03*
X106000D02*
D03*
X106197D02*
D03*
X106394D02*
D03*
X106591D02*
D03*
X106787D02*
D03*
X106984D02*
D03*
X107181D02*
D03*
X107378D02*
D03*
X107575D02*
D03*
X107772D02*
D03*
X107969D02*
D03*
X108165D02*
D03*
X108362D02*
D03*
X103638Y76992D02*
D03*
X103835D02*
D03*
X104031D02*
D03*
X104228D02*
D03*
X104425D02*
D03*
X104622D02*
D03*
X104819D02*
D03*
X105016D02*
D03*
X105213D02*
D03*
X105409D02*
D03*
X105606D02*
D03*
X105803D02*
D03*
X106000D02*
D03*
X106197D02*
D03*
X106394D02*
D03*
X106591D02*
D03*
X106787D02*
D03*
X106984D02*
D03*
X107181D02*
D03*
X107378D02*
D03*
X107575D02*
D03*
X107772D02*
D03*
X107969D02*
D03*
X108165D02*
D03*
X108362D02*
D03*
D37*
X90747Y81150D02*
D03*
Y80650D02*
D03*
Y80150D02*
D03*
Y79650D02*
D03*
Y79150D02*
D03*
Y78650D02*
D03*
Y78150D02*
D03*
Y77650D02*
D03*
X92853Y81150D02*
D03*
Y80650D02*
D03*
Y80150D02*
D03*
Y79650D02*
D03*
Y79150D02*
D03*
Y78650D02*
D03*
Y78150D02*
D03*
Y77650D02*
D03*
D38*
X107846Y80850D02*
D03*
Y83150D02*
D03*
X110150D02*
D03*
Y80850D02*
D03*
X109894Y83150D02*
D03*
Y80850D02*
D03*
X109638Y83150D02*
D03*
X109382D02*
D03*
X109126D02*
D03*
X108870D02*
D03*
X108614D02*
D03*
X108358D02*
D03*
X108102D02*
D03*
X109638Y80850D02*
D03*
X109382D02*
D03*
X109126D02*
D03*
X108870D02*
D03*
X108614D02*
D03*
X108358D02*
D03*
X108102D02*
D03*
D39*
X109000Y82000D02*
D03*
D40*
Y81510D02*
D03*
Y82490D02*
D03*
D41*
X109890Y82000D02*
D03*
X108110D02*
D03*
D42*
X63650Y56200D02*
X64209D01*
X65350D02*
X66000D01*
X64950Y53200D02*
X65465D01*
X66150Y53150D02*
X66600D01*
X60950Y42200D02*
X61465D01*
X62135D02*
X62650D01*
X63650Y42400D02*
X64265D01*
X64935D02*
X65450D01*
X54400Y70500D02*
Y73950D01*
X51400Y76950D02*
X54400Y73950D01*
X59000Y77050D02*
Y77400D01*
X52950Y75400D02*
X57350D01*
X62050Y69000D02*
X62665D01*
X63335D02*
X63900D01*
X62150Y67400D02*
X62665D01*
X63335D02*
X63900D01*
X61850Y71800D02*
X62409D01*
X63500D02*
X64300D01*
X60450Y83400D02*
X60865D01*
X61550Y83350D02*
X61950D01*
X44050Y96200D02*
X44609D01*
X45791D02*
X46450D01*
X26800Y125400D02*
X31450D01*
X25850Y124450D02*
X26800Y125400D01*
X27500Y123000D02*
X31400D01*
X30200Y42200D02*
X30809D01*
X32050Y42150D02*
X32700D01*
X52200Y54900D02*
Y55600D01*
X50400D02*
X51009D01*
X52250Y55650D02*
X52850D01*
X38150Y72000D02*
X38809D01*
X39991Y71241D02*
Y72659D01*
X25850Y77500D02*
X26750Y78400D01*
X31450D01*
X27450Y76000D02*
X31400D01*
X25950Y62500D02*
X26850Y63400D01*
X31450D01*
X27350Y61000D02*
X31400D01*
X27500Y46000D02*
X31400D01*
X25850Y47500D02*
X26750Y48400D01*
X31450D01*
X70000Y117050D02*
X75150D01*
X66465Y120285D02*
X68300Y118450D01*
X66871Y119879D02*
X67171D01*
X70000Y117050D01*
X51100Y123950D02*
X52650Y122400D01*
X52600Y117300D02*
Y122450D01*
X47450Y123250D02*
Y124350D01*
X43800Y119600D02*
X47450Y123250D01*
X43800Y117200D02*
Y119600D01*
X37249Y122251D02*
X37800Y121700D01*
X35600Y120458D02*
X37321Y122179D01*
X35600Y117000D02*
Y120458D01*
X46350Y39400D02*
X46500Y39550D01*
X37000Y39400D02*
X46350D01*
X42400Y48750D02*
X46400Y44750D01*
X43800Y47350D02*
X49150D01*
X46400Y39400D02*
Y44750D01*
X51100Y46950D02*
X55400Y42650D01*
Y39600D02*
Y42650D01*
X52650Y60400D02*
X57550D01*
X54450D02*
X57200Y57650D01*
Y55000D02*
Y57650D01*
X45500Y62350D02*
X49150D01*
X36200Y63250D02*
X44600D01*
X45500Y62350D01*
X45550D02*
X45850Y62050D01*
X45350Y55000D02*
X45850Y55500D01*
Y62050D01*
X35000Y55000D02*
X45350D01*
X34400Y72252D02*
X37399Y75251D01*
X34400Y70200D02*
Y72252D01*
X47600Y75900D02*
Y77350D01*
X44200Y72500D02*
X47600Y75900D01*
X44200Y70400D02*
Y72500D01*
X42500Y95750D02*
X43900Y94350D01*
X43800Y87400D02*
Y94450D01*
X35200Y87400D02*
X43800D01*
X49550Y93950D02*
X52800Y90700D01*
X51100Y92400D02*
X56100D01*
X52800Y87400D02*
Y90700D01*
X50150Y108950D02*
X52600Y106500D01*
Y102600D02*
Y106500D01*
X44700Y110250D02*
X45600Y109350D01*
X43650Y102300D02*
X45350Y104000D01*
Y109286D02*
X45507Y109443D01*
X45350Y104000D02*
Y109286D01*
X34850Y102300D02*
X43650D01*
X64000Y122550D02*
Y123176D01*
X63350Y122450D02*
X63500Y122600D01*
Y123176D01*
X63250Y124250D02*
X63500Y124500D01*
Y125224D01*
X64000D02*
Y125819D01*
X64065Y125885D01*
X64500Y125700D02*
X64700Y125900D01*
X64500Y125224D02*
Y125700D01*
X65600Y121465D02*
X66015D01*
X64800Y121065D02*
X65250Y121515D01*
Y122450D01*
X65500Y122700D01*
Y123176D01*
X64750Y121000D02*
X66465D01*
X65600Y122135D02*
X66331Y122865D01*
X64800Y121735D02*
X65000Y121935D01*
Y123750D02*
X65300Y124050D01*
X65850D01*
X66365Y123535D01*
X66600D01*
X67500Y124450D02*
X67600Y124350D01*
Y123535D02*
Y124350D01*
X66750Y126800D02*
X67265D01*
X65500Y125224D02*
X65524Y125200D01*
X65700D01*
X66450Y124450D01*
X67500D01*
X67735Y124685D01*
X65800Y126465D02*
X65885D01*
X65900Y126450D01*
Y125850D02*
Y126450D01*
Y125850D02*
X66750Y125000D01*
X67065D01*
X64915Y126465D02*
X65585Y127135D01*
X64600Y126465D02*
X64915D01*
X67065Y125915D02*
X67935Y126785D01*
X67700Y127400D02*
X67935Y127165D01*
X66850Y127400D02*
X67700D01*
X66585Y127135D02*
X66850Y127400D01*
X65000Y125665D02*
X65800Y126465D01*
X65000Y125224D02*
Y125665D01*
X62900Y124500D02*
X63000Y124600D01*
X62200Y124500D02*
X62900D01*
X62050Y124650D02*
X62200Y124500D01*
X62050Y124650D02*
Y125600D01*
X61700Y125950D02*
X62050Y125600D01*
X59800Y125200D02*
Y125665D01*
X61065Y126200D02*
Y127200D01*
X60665Y125800D02*
X61065Y126200D01*
X60665Y125200D02*
Y125800D01*
X61335Y124565D02*
Y125200D01*
X62100Y127200D02*
X62500Y126800D01*
X61735Y127200D02*
X62100D01*
X52650Y122400D02*
X56100D01*
X49600Y125000D02*
X50000D01*
X50150Y124850D01*
Y124100D02*
Y124850D01*
Y124100D02*
X50300Y123950D01*
X51100D01*
X56100Y122400D02*
X57700Y124000D01*
X58465D01*
X59400Y121400D02*
Y121865D01*
X60250Y122900D02*
Y123250D01*
X60950Y123950D01*
X62750D01*
X63000Y123700D01*
Y123176D02*
Y123700D01*
X61950Y121600D02*
X62450Y122100D01*
X62400D02*
X62500Y122200D01*
X62400Y122100D02*
X62450D01*
X61700Y122800D02*
X62400Y122100D01*
X60935Y121600D02*
X61950D01*
X59150Y122785D02*
X59400Y122535D01*
X59615D01*
X60265Y121885D01*
Y121600D02*
Y121885D01*
X44200Y124800D02*
X44850D01*
X45150Y125100D01*
X47450Y124350D02*
X49150D01*
X49288Y124488D01*
X49600D01*
X50751Y123200D02*
Y123601D01*
X49649Y123200D02*
Y123901D01*
X49600Y123950D02*
Y124232D01*
X49106Y124744D02*
X49600D01*
X49350Y125400D02*
X49649Y125699D01*
Y125800D01*
X50751Y125351D02*
Y125800D01*
X50631Y125000D02*
Y125232D01*
X53374Y123600D02*
X53850D01*
X53374Y124600D02*
X53850D01*
X53174Y126000D02*
X53600D01*
X54500Y125500D02*
X55000Y126000D01*
X52750Y125500D02*
X54500D01*
X52426Y125824D02*
X52750Y125500D01*
X52426Y125824D02*
Y126000D01*
X54900Y125150D02*
X55000Y125050D01*
X52900Y125150D02*
X54900D01*
X52626Y124876D02*
X52900Y125150D01*
X52626Y124600D02*
Y124876D01*
X52750Y124100D02*
X54900D01*
X52626Y123976D02*
X52750Y124100D01*
X52626Y123600D02*
Y123976D01*
X51668Y124232D02*
X52300Y123600D01*
X50631Y124232D02*
X51668D01*
X50631Y124488D02*
X52538D01*
X50631Y124744D02*
X51144D01*
X44826Y126600D02*
X46600D01*
Y124450D02*
Y126550D01*
X46438Y124288D02*
X46600Y124450D01*
X45869Y124288D02*
X46438D01*
X44324Y125826D02*
X44800D01*
X37249Y122251D02*
Y124600D01*
X37800Y121700D02*
X43300D01*
X45250Y123650D01*
Y124600D01*
X45450Y124800D01*
X45869D01*
X44200Y124288D02*
X44738D01*
X42950Y124750D02*
X43156Y124544D01*
X44200D01*
X41000Y123351D02*
Y124750D01*
Y123351D02*
X41151Y123200D01*
X39649Y123600D02*
X40049Y123200D01*
X38400Y122826D02*
X38876D01*
X40374Y126800D02*
X40600Y126574D01*
Y125150D02*
Y126574D01*
Y125150D02*
X41000Y124750D01*
X39626Y126424D02*
X40150Y125900D01*
Y125400D02*
Y125900D01*
X40000Y125250D02*
X40150Y125400D01*
X39448Y125250D02*
X40000D01*
X38400Y126751D02*
X39577D01*
X34224Y124650D02*
X37199D01*
X39448Y124750D02*
X39896D01*
X39998Y124852D01*
X39550Y124250D02*
X39850Y123950D01*
X39448Y124250D02*
X39550D01*
X41234Y125250D02*
X41752D01*
X41167Y125183D02*
X41234Y125250D01*
X32600Y125800D02*
Y126351D01*
X34224Y125150D02*
Y125524D01*
X33400Y124150D02*
X34224D01*
X33700Y123250D02*
X34100Y123650D01*
X34224D01*
X32000Y122600D02*
X32649D01*
X31450Y125400D02*
X31700Y125150D01*
X32176D01*
X31400Y123000D02*
X32050Y123650D01*
X32176D01*
X30924Y124150D02*
X32176D01*
X30800Y124774D02*
X30924Y124650D01*
X32176D01*
X32600Y110800D02*
Y111351D01*
X32000Y107600D02*
X32649D01*
X33700Y108250D02*
X34100Y108650D01*
X30800Y109774D02*
X30924Y109650D01*
X32176D01*
X30924Y109150D02*
X32176D01*
X34224Y110150D02*
Y110524D01*
X34100Y108650D02*
X34224D01*
X31700Y110150D02*
X32176D01*
X31450Y110400D02*
X31700Y110150D01*
X31400Y108000D02*
X32050Y108650D01*
X32176D01*
X32600Y95800D02*
Y96351D01*
X32000Y92600D02*
X32649D01*
X33700Y93250D02*
X34100Y93650D01*
X30800Y94774D02*
X30924Y94650D01*
X32176D01*
X30924Y94150D02*
X32176D01*
X34224Y95150D02*
Y95524D01*
X34100Y93650D02*
X34224D01*
X31700Y95150D02*
X32176D01*
X31450Y95400D02*
X31700Y95150D01*
X31400Y93000D02*
X32050Y93650D01*
X32176D01*
X32600Y63800D02*
Y64351D01*
X32000Y60600D02*
X32649D01*
X33700Y61250D02*
X34100Y61650D01*
X30800Y62774D02*
X30924Y62650D01*
X32176D01*
X30924Y62150D02*
X32176D01*
X34224Y63150D02*
Y63524D01*
X34100Y61650D02*
X34224D01*
X31700Y63150D02*
X32176D01*
X31450Y63400D02*
X31700Y63150D01*
X31400Y61000D02*
X32050Y61650D01*
X32176D01*
X32600Y78800D02*
Y79351D01*
X32000Y75600D02*
X32649D01*
X33700Y76250D02*
X34100Y76650D01*
X30800Y77774D02*
X30924Y77650D01*
X32176D01*
X30924Y77150D02*
X32176D01*
X33400D02*
X34224D01*
Y78150D02*
Y78524D01*
X34100Y76650D02*
X34224D01*
X31700Y78150D02*
X32176D01*
X31450Y78400D02*
X31700Y78150D01*
X31400Y76000D02*
X32050Y76650D01*
X32176D01*
X32600Y48800D02*
Y49351D01*
X32000Y45600D02*
X32649D01*
X33700Y46250D02*
X34100Y46650D01*
X30800Y47774D02*
X30924Y47650D01*
X32176D01*
X30924Y47150D02*
X32176D01*
X34224Y48150D02*
Y48524D01*
X34100Y46650D02*
X34224D01*
X31700Y48150D02*
X32176D01*
X31450Y48400D02*
X31700Y48150D01*
X31400Y46000D02*
X32050Y46650D01*
X32176D01*
X26750Y110400D02*
X31450D01*
X25850Y109500D02*
X26750Y110400D01*
X67135Y122400D02*
X67600Y122865D01*
X67135Y121000D02*
Y122400D01*
X37848Y108050D02*
X37850D01*
X38200Y107700D01*
X37848Y108550D02*
X38350D01*
X40202Y109100D02*
X40700D01*
X40152Y109050D02*
X40202Y109100D01*
X34224Y109650D02*
X35376D01*
X35626Y109400D01*
X37300Y109050D02*
X37848D01*
X36950Y109400D02*
X37300Y109050D01*
X36400Y108351D02*
Y109350D01*
X38199Y107249D02*
X39500Y108550D01*
X36400Y107249D02*
X38199D01*
X34224Y109150D02*
X34850D01*
X35250Y108750D01*
Y107050D02*
Y108750D01*
Y107050D02*
X35950Y106350D01*
X40450D01*
X44469Y108744D02*
X44894D01*
X44050Y109000D02*
X44469D01*
X41850Y107750D02*
X43100D01*
X43350Y108000D01*
Y108800D01*
X43150Y109000D02*
X43350Y108800D01*
X42800Y109000D02*
X43150D01*
X40450Y106350D02*
X41850Y107750D01*
X42506Y108744D02*
X42800D01*
X42350Y108900D02*
X42506Y108744D01*
X41700Y108900D02*
X42350D01*
X41350Y108550D02*
X41700Y108900D01*
X42632Y108232D02*
X42800D01*
X42500Y108100D02*
X42632Y108232D01*
X43950Y108500D02*
X44450D01*
X43650Y108800D02*
X43950Y108500D01*
X44000Y111300D02*
Y111400D01*
X41150D02*
X41626D01*
X51144Y124744D02*
X52450Y126050D01*
X42250Y111400D02*
X44000D01*
X27300Y108000D02*
X31400D01*
X39500Y108550D02*
X41350D01*
X36350Y109400D02*
X36950D01*
X36350D02*
X36400Y109350D01*
X38400Y123600D02*
X39649D01*
X38351Y123623D02*
Y125701D01*
X41000Y124750D02*
X42950D01*
X66600Y122865D02*
X67600D01*
X66331D02*
X66600D01*
X67935Y126785D02*
Y127165D01*
X65585Y127135D02*
X66585D01*
X59750Y126400D02*
X60865D01*
X59135Y124000D02*
X60265D01*
X59150Y122785D02*
Y124100D01*
X65000Y123176D02*
Y123750D01*
Y121935D02*
Y123176D01*
X67735Y125000D02*
Y125800D01*
Y124685D02*
Y125000D01*
X63000Y124600D02*
Y126600D01*
X61700Y125950D02*
Y126200D01*
X62915Y127135D02*
X64600D01*
X62500Y126635D02*
X63000Y127135D01*
X62500Y125224D02*
Y126800D01*
Y122200D02*
Y123300D01*
X61400Y122800D02*
X61750Y123150D01*
X60935Y122800D02*
X61700D01*
X33700Y45600D02*
Y46250D01*
Y75600D02*
Y76250D01*
Y60600D02*
Y61250D01*
Y122600D02*
Y123250D01*
Y107600D02*
Y108250D01*
Y79400D02*
X34350D01*
X33700Y49400D02*
X34350D01*
X33700Y96400D02*
X34350D01*
X33700Y64400D02*
X34350D01*
X33700Y126400D02*
X34350D01*
X44100Y123750D02*
Y124050D01*
X33700Y111400D02*
X34350D01*
X42374Y108500D02*
X42800D01*
X48400Y110400D02*
X48699Y110699D01*
Y110800D01*
X49682Y110000D02*
Y110232D01*
X49801Y110351D02*
Y110800D01*
Y108200D02*
Y108601D01*
X48699Y108200D02*
Y108901D01*
X48650Y108950D02*
Y109232D01*
X51676Y108600D02*
Y108976D01*
X51800Y109100D01*
X53950D01*
X51676Y109876D02*
X51950Y110150D01*
X53950D01*
X54050Y110050D01*
X51476Y110824D02*
X51800Y110500D01*
X53550D01*
X54050Y111000D01*
X52424Y108600D02*
X52900D01*
X50718Y109232D02*
X51350Y108600D01*
X49682Y109232D02*
X50718D01*
X52424Y109600D02*
X52900D01*
X49682Y109488D02*
X51588D01*
X51676Y109600D02*
Y109876D01*
X52224Y111000D02*
X52650D01*
X49682Y109744D02*
X50194D01*
X51500Y111050D01*
X51476Y110824D02*
Y111000D01*
X48156Y109744D02*
X48650D01*
X48200Y109350D02*
X48338Y109488D01*
X48650D01*
X49200Y109100D02*
Y109850D01*
X49350Y108950D02*
X50150D01*
X49200Y109100D02*
X49350Y108950D01*
X48650Y110000D02*
X49050D01*
X49200Y109850D01*
X47800Y95400D02*
X48099Y95699D01*
Y95800D01*
X49082Y95000D02*
Y95232D01*
X49201Y95351D02*
Y95800D01*
Y93200D02*
Y93601D01*
X48099Y93200D02*
Y93901D01*
X48050Y93950D02*
Y94232D01*
X51076Y93600D02*
Y93976D01*
X51200Y94100D01*
X53350D01*
X51076Y94876D02*
X51350Y95150D01*
X53350D01*
X53450Y95050D01*
X50876Y95824D02*
X51200Y95500D01*
X52950D01*
X53450Y96000D01*
X51824Y93600D02*
X52300D01*
X50118Y94232D02*
X50750Y93600D01*
X49082Y94232D02*
X50118D01*
X51824Y94600D02*
X52300D01*
X49082Y94488D02*
X50988D01*
X51076Y94600D02*
Y94876D01*
X51624Y96000D02*
X52050D01*
X49082Y94744D02*
X49594D01*
X50900Y96050D01*
X50876Y95824D02*
Y96000D01*
X47556Y94744D02*
X48050D01*
X47600Y94350D02*
X47738Y94488D01*
X48050D01*
X48600Y94100D02*
Y94850D01*
X48750Y93950D02*
X49550D01*
X48600Y94100D02*
X48750Y93950D01*
X48050Y95000D02*
X48450D01*
X48600Y94850D01*
X49350Y63400D02*
X49649Y63699D01*
Y63800D01*
X50631Y63000D02*
Y63232D01*
X50751Y63351D02*
Y63800D01*
Y61200D02*
Y61601D01*
X49649Y61200D02*
Y61901D01*
X49600Y61950D02*
Y62232D01*
X52626Y61600D02*
Y61976D01*
X52750Y62100D01*
X54900D01*
X52626Y62876D02*
X52900Y63150D01*
X54900D01*
X55000Y63050D01*
X52426Y63824D02*
X52750Y63500D01*
X54500D01*
X55000Y64000D01*
X53374Y61600D02*
X53850D01*
X51668Y62232D02*
X52300Y61600D01*
X50631Y62232D02*
X51668D01*
X53374Y62600D02*
X53850D01*
X50631Y62488D02*
X52538D01*
X52626Y62600D02*
Y62876D01*
X53174Y64000D02*
X53600D01*
X50631Y62744D02*
X51144D01*
X52450Y64050D01*
X52426Y63824D02*
Y64000D01*
X49106Y62744D02*
X49600D01*
X49150Y62350D02*
X49288Y62488D01*
X49600D01*
X50150Y62100D02*
Y62850D01*
X50300Y61950D02*
X51100D01*
X50150Y62100D02*
X50300Y61950D01*
X49600Y63000D02*
X50000D01*
X50150Y62850D01*
X51100Y61950D02*
X52650Y60400D01*
X49350Y48400D02*
X49649Y48699D01*
Y48800D01*
X50631Y48000D02*
Y48232D01*
X50751Y48351D02*
Y48800D01*
Y46200D02*
Y46601D01*
X49649Y46200D02*
Y46901D01*
X49600Y46950D02*
Y47232D01*
X52626Y46600D02*
Y46976D01*
X52750Y47100D01*
X54900D01*
X52626Y47876D02*
X52900Y48150D01*
X54900D01*
X55000Y48050D01*
X52426Y48824D02*
X52750Y48500D01*
X54500D01*
X55000Y49000D01*
X53374Y46600D02*
X53850D01*
X51668Y47232D02*
X52300Y46600D01*
X50631Y47232D02*
X51668D01*
X53374Y47600D02*
X53850D01*
X50631Y47488D02*
X52538D01*
X52626Y47600D02*
Y47876D01*
X53174Y49000D02*
X53600D01*
X50631Y47744D02*
X51144D01*
X52450Y49050D01*
X52426Y48824D02*
Y49000D01*
X49106Y47744D02*
X49600D01*
X49150Y47350D02*
X49288Y47488D01*
X49600D01*
X50150Y47100D02*
Y47850D01*
X50300Y46950D02*
X51100D01*
X50150Y47100D02*
X50300Y46950D01*
X49600Y48000D02*
X50000D01*
X50150Y47850D01*
X49650Y78400D02*
X49949Y78699D01*
Y78800D01*
X50932Y78000D02*
Y78232D01*
X51051Y78351D02*
Y78800D01*
Y76200D02*
Y76601D01*
X49949Y76200D02*
Y76901D01*
X49900Y76950D02*
Y77232D01*
X52926Y76600D02*
Y76976D01*
X53050Y77100D01*
X55200D01*
X52926Y77876D02*
X53200Y78150D01*
X55200D01*
X55300Y78050D01*
X52726Y78824D02*
X53050Y78500D01*
X54800D01*
X55300Y79000D01*
X53674Y76600D02*
X54150D01*
X51968Y77232D02*
X52600Y76600D01*
X50932Y77232D02*
X51968D01*
X53674Y77600D02*
X54150D01*
X50932Y77488D02*
X52838D01*
X52926Y77600D02*
Y77876D01*
X53474Y79000D02*
X53900D01*
X50932Y77744D02*
X51444D01*
X52750Y79050D01*
X52726Y78824D02*
Y79000D01*
X49406Y77744D02*
X49900D01*
X49450Y77350D02*
X49588Y77488D01*
X49900D01*
X50450Y77100D02*
Y77850D01*
X50600Y76950D02*
X51400D01*
X50450Y77100D02*
X50600Y76950D01*
X49900Y78000D02*
X50300D01*
X50450Y77850D01*
X45600Y109350D02*
X48200D01*
X36100Y110250D02*
X44700D01*
X35550Y109700D02*
X36100Y110250D01*
X35550Y109300D02*
Y109700D01*
X43650Y108800D02*
Y109600D01*
X60885Y106600D02*
X61900D01*
X60885Y107800D02*
X61650D01*
X61285Y109565D02*
Y110200D01*
X61900Y106600D02*
X62400Y107100D01*
X61650Y107800D02*
X62350Y107100D01*
X62400D01*
X62350D02*
X62450Y107200D01*
X61350Y107800D02*
X61700Y108150D01*
X62450Y107200D02*
Y108300D01*
X60200Y107900D02*
Y108250D01*
X60900Y108950D01*
X62050Y112200D02*
X62450Y111800D01*
X61685Y112200D02*
X62050D01*
X62450Y110224D02*
Y111800D01*
Y111635D02*
X62950Y112135D01*
X62865D02*
X64550D01*
X62000Y109650D02*
Y110600D01*
Y109650D02*
X62150Y109500D01*
X61650Y110950D02*
X62000Y110600D01*
X62150Y109500D02*
X62850D01*
X62950Y109600D01*
Y111600D01*
X65850Y110850D02*
X66700Y110000D01*
X65850Y110850D02*
Y111450D01*
X66700Y110000D02*
X67015D01*
X64700Y106000D02*
X66415D01*
X64750Y106065D02*
X65200Y106515D01*
Y107450D01*
X65450Y107700D01*
X64750Y106735D02*
X64950Y106935D01*
Y108176D01*
X59350Y106400D02*
Y106865D01*
X59100Y107785D02*
X59350Y107535D01*
X59100Y107785D02*
Y109100D01*
X60215Y106600D02*
Y106885D01*
X59350Y107535D02*
X59565D01*
X60215Y106885D01*
X59750Y110200D02*
Y110665D01*
X59700Y111400D02*
X60815D01*
X65535Y112135D02*
X66535D01*
X66800Y112400D01*
X67015Y110915D02*
X67885Y111785D01*
X66800Y112400D02*
X67650D01*
X67885Y111785D02*
Y112165D01*
X67650Y112400D02*
X67885Y112165D01*
X65550Y106465D02*
X65965D01*
X65550Y107135D02*
X66281Y107865D01*
X61015Y111200D02*
Y112200D01*
X67085Y106000D02*
Y107400D01*
X67550Y107865D01*
X59085Y109000D02*
X60215D01*
X57650D02*
X58415D01*
X62950Y108176D02*
Y108700D01*
X60900Y108950D02*
X62700D01*
X62950Y108700D01*
X60615Y110800D02*
X61015Y111200D01*
X60615Y110200D02*
Y110800D01*
X61650Y110950D02*
Y111200D01*
X64550Y111465D02*
X64865D01*
X65535Y112135D01*
X64950Y110665D02*
X65750Y111465D01*
X65835D01*
X65850Y111450D01*
X66550Y107865D02*
X67550D01*
X64950Y108176D02*
Y108750D01*
X65250Y109050D01*
X65800D01*
X66315Y108535D02*
X66550D01*
X65800Y109050D02*
X66315Y108535D01*
X66281Y107865D02*
X66550D01*
X63300Y107450D02*
X63450Y107600D01*
Y108176D01*
X64450Y110224D02*
Y110700D01*
X64650Y110900D01*
X63200Y109250D02*
X63450Y109500D01*
Y110224D01*
X63950Y107550D02*
Y108176D01*
Y110224D02*
Y110819D01*
X64015Y110885D01*
X64950Y110224D02*
Y110665D01*
X65450Y107700D02*
Y108176D01*
X60885Y91550D02*
X61900D01*
X60885Y92750D02*
X61650D01*
X61285Y94515D02*
Y95150D01*
X61900Y91550D02*
X62400Y92050D01*
X61650Y92750D02*
X62350Y92050D01*
X62400D01*
X62350D02*
X62450Y92150D01*
X61350Y92750D02*
X61700Y93100D01*
X62450Y92150D02*
Y93250D01*
X60200Y92850D02*
Y93200D01*
X60900Y93900D01*
X62050Y97150D02*
X62450Y96750D01*
X61685Y97150D02*
X62050D01*
X62450Y95174D02*
Y96750D01*
Y96585D02*
X62950Y97085D01*
X62865D02*
X64550D01*
X62000Y94600D02*
Y95550D01*
Y94600D02*
X62150Y94450D01*
X61650Y95900D02*
X62000Y95550D01*
X62150Y94450D02*
X62850D01*
X62950Y94550D01*
Y96550D01*
X65650Y95150D02*
X66400Y94400D01*
X67450D01*
X65474Y95150D02*
X65650D01*
X67550Y93485D02*
Y94300D01*
X67450Y94400D02*
X67550Y94300D01*
X67450Y94400D02*
X67685Y94635D01*
Y94950D01*
Y95750D01*
X65850Y95800D02*
X66700Y94950D01*
X65850Y95800D02*
Y96400D01*
X66700Y94950D02*
X67015D01*
X64700Y90950D02*
X66415D01*
X64750Y91015D02*
X65200Y91465D01*
Y92400D01*
X65450Y92650D01*
X64750Y91685D02*
X64950Y91885D01*
Y93126D01*
X59350Y91350D02*
Y91815D01*
X59100Y92735D02*
X59350Y92485D01*
X59100Y92735D02*
Y94050D01*
X60215Y91550D02*
Y91835D01*
X59350Y92485D02*
X59565D01*
X60215Y91835D01*
X59750Y95150D02*
Y95615D01*
X59700Y96350D02*
X60815D01*
X66700Y96750D02*
X67215D01*
X65535Y97085D02*
X66535D01*
X66800Y97350D01*
X67015Y95865D02*
X67885Y96735D01*
X66800Y97350D02*
X67650D01*
X67885Y96735D02*
Y97115D01*
X67650Y97350D02*
X67885Y97115D01*
X65550Y91415D02*
X65965D01*
X65550Y92085D02*
X66281Y92815D01*
X61015Y96150D02*
Y97150D01*
X67085Y90950D02*
Y92350D01*
X67550Y92815D01*
X59085Y93950D02*
X60215D01*
X57650D02*
X58415D01*
X62950Y93126D02*
Y93650D01*
X60900Y93900D02*
X62700D01*
X62950Y93650D01*
X60615Y95750D02*
X61015Y96150D01*
X60615Y95150D02*
Y95750D01*
X61650Y95900D02*
Y96150D01*
X64550Y96415D02*
X64865D01*
X65535Y97085D01*
X64950Y95615D02*
X65750Y96415D01*
X65835D01*
X65850Y96400D01*
X66550Y92815D02*
X67550D01*
X64950Y93126D02*
Y93700D01*
X65250Y94000D01*
X65800D01*
X66315Y93485D02*
X66550D01*
X65800Y94000D02*
X66315Y93485D01*
X66281Y92815D02*
X66550D01*
X63300Y92400D02*
X63450Y92550D01*
Y93126D01*
X64450Y95174D02*
Y95650D01*
X64650Y95850D01*
X63200Y94200D02*
X63450Y94450D01*
Y95174D01*
X63950Y92500D02*
Y93126D01*
Y95174D02*
Y95769D01*
X64015Y95835D01*
X65450Y95174D02*
X65474Y95150D01*
X64950Y95174D02*
Y95615D01*
X65450Y92650D02*
Y93126D01*
X67550Y109400D02*
X67685Y109535D01*
X66450Y109250D02*
X67350D01*
X65476Y110224D02*
X66450Y109250D01*
X65450Y110224D02*
X65476D01*
X67350Y109250D02*
X67550Y109050D01*
Y108535D02*
Y109400D01*
X67685Y109535D02*
Y110800D01*
X56050Y107400D02*
X57650Y109000D01*
X51700Y107400D02*
X56050D01*
X33700Y92600D02*
Y93250D01*
X26700Y95400D02*
X31450D01*
X25900Y94600D02*
X26700Y95400D01*
X27250Y92950D02*
X31350D01*
X39116Y93750D02*
X39183Y93817D01*
X38648Y93750D02*
X39116D01*
X38648Y93250D02*
X38850D01*
X39100Y93000D01*
X41296Y94250D02*
X41398Y94148D01*
X40952Y94250D02*
X41296D01*
X37801D02*
X38648D01*
X36951Y93400D02*
X37801Y94250D01*
X36951Y93400D02*
Y94823D01*
X36774Y95000D02*
X36951Y94823D01*
X35849Y93400D02*
Y93501D01*
X35200Y94150D02*
X35849Y93501D01*
X33400Y94150D02*
X35200D01*
X35800Y95000D02*
X36026D01*
X35450Y94650D02*
X35800Y95000D01*
X34224Y94650D02*
X35450D01*
X40250Y93750D02*
X40952D01*
X39800Y93300D02*
X40250Y93750D01*
X39800Y93000D02*
Y93300D01*
X39250Y92450D02*
X39800Y93000D01*
X36350Y92450D02*
X39250D01*
X35750Y93050D02*
X36350Y92450D01*
X35750Y93050D02*
Y93450D01*
X43900Y94350D02*
X47600D01*
X36400Y95750D02*
X42500D01*
X36026Y95376D02*
X36400Y95750D01*
X36026Y95000D02*
Y95376D01*
X56100Y92400D02*
X57650Y93950D01*
X41150Y76351D02*
Y77750D01*
X40750Y78150D02*
X41150Y77750D01*
X40750Y78150D02*
Y79574D01*
X41150Y76351D02*
X41301Y76200D01*
X43100Y77750D02*
X43306Y77544D01*
X44350D01*
X41150Y77750D02*
X43100D01*
X39799Y76600D02*
X40199Y76200D01*
X38550Y76600D02*
X39799D01*
X38501Y76623D02*
Y78701D01*
X37399Y75251D02*
X37950Y74700D01*
X37399Y75251D02*
Y77600D01*
X37950Y74700D02*
X43450D01*
X45400Y76650D01*
Y77600D01*
X45600Y77800D01*
X46019D01*
X38550Y79751D02*
X39727D01*
X44976Y79600D02*
X46750D01*
X46019Y77288D02*
X46588D01*
X46750Y77450D01*
Y79550D01*
X40524Y79800D02*
X40750Y79574D01*
X38550Y75826D02*
X39026D01*
X44474Y78826D02*
X44950D01*
X41317Y78183D02*
X41384Y78250D01*
X41902D01*
X39700Y77250D02*
X40000Y76950D01*
X39598Y77250D02*
X39700D01*
X39598Y77750D02*
X40046D01*
X40148Y77852D01*
X39598Y78250D02*
X40150D01*
X40300Y78400D01*
Y78900D01*
X39776Y79424D02*
X40300Y78900D01*
X44250Y76750D02*
Y77050D01*
X44350Y77288D02*
X44888D01*
X44350Y77800D02*
X45000D01*
X45300Y78100D01*
X34274Y77600D02*
X37399D01*
X34224Y77650D02*
X34274Y77600D01*
X39776Y79424D02*
Y79702D01*
X36500Y61351D02*
Y62350D01*
Y60249D02*
X38299D01*
X39600Y61550D01*
X41450D01*
X41800Y61900D01*
X42450D01*
X42606Y61744D02*
X42900D01*
X42450Y61900D02*
X42606Y61744D01*
X43750Y61800D02*
Y62600D01*
Y61800D02*
X44050Y61500D01*
X42350Y64400D02*
X44100D01*
X44050Y61500D02*
X44550D01*
X44100Y64300D02*
Y64400D01*
X35650Y62700D02*
X36200Y63250D01*
X36450Y62400D02*
X36500Y62350D01*
X36450Y62400D02*
X37050D01*
X37400Y62050D01*
X37948D01*
X41250Y64400D02*
X41726D01*
X44569Y61744D02*
X44994D01*
X44150Y62000D02*
X44569D01*
X42600Y61100D02*
X42732Y61232D01*
X42900D01*
X42474Y61500D02*
X42900D01*
X35350Y60050D02*
Y61750D01*
X36050Y59350D02*
X40550D01*
X35350Y60050D02*
X36050Y59350D01*
X40550D02*
X41950Y60750D01*
X43200D01*
X43450Y61000D01*
X42900Y62000D02*
X43250D01*
X43450Y61000D02*
Y61800D01*
X43250Y62000D02*
X43450Y61800D01*
X40252Y62050D02*
X40302Y62100D01*
X40800D01*
X37948Y61050D02*
X37950D01*
X38300Y60700D01*
X37948Y61550D02*
X38450D01*
X36851Y46400D02*
Y47823D01*
Y46400D02*
X37701Y47250D01*
X38548D01*
X35650Y46050D02*
Y46450D01*
Y46050D02*
X36250Y45450D01*
X39150D01*
X39700Y46000D01*
Y46300D01*
X40150Y46750D01*
X40852D01*
X35350Y47650D02*
X35700Y48000D01*
X35926D01*
Y48376D01*
X36300Y48750D01*
X42400D01*
X36674Y48000D02*
X36851Y47823D01*
X40852Y47250D02*
X41196D01*
X41298Y47148D01*
X38750Y46250D02*
X39000Y46000D01*
X38548Y46250D02*
X38750D01*
X38548Y46750D02*
X39016D01*
X39083Y46817D01*
X34224Y47650D02*
X35350D01*
X35749Y46400D02*
Y46751D01*
X35350Y47150D02*
X35749Y46751D01*
X34224Y47150D02*
X35350D01*
X34950Y62150D02*
X35350Y61750D01*
X34224Y62150D02*
X34950D01*
X35550Y62650D02*
X35650Y62550D01*
X34224Y62650D02*
X35550D01*
X35613Y62513D02*
X35726Y62400D01*
X35650Y62476D02*
Y62700D01*
X47600Y77350D02*
X49450D01*
X60535Y47400D02*
Y48331D01*
X60265Y48600D02*
X60535Y48331D01*
Y47400D02*
X61865D01*
X61250Y46650D02*
Y46785D01*
X61865Y47400D01*
X61991Y50200D02*
X62600D01*
X60150D02*
X60809D01*
X61391Y44800D02*
X62050D01*
X59500D02*
X60209D01*
X60100Y46600D02*
X60665D01*
X65700Y44700D02*
X66350D01*
X67600Y44750D02*
X68200D01*
X72900Y50200D02*
X73609D01*
X74700Y49450D02*
Y50200D01*
X68465Y48200D02*
Y48735D01*
X59350Y76600D02*
X59915D01*
X60500Y76650D02*
Y76785D01*
X61115Y77400D01*
X67715Y78200D02*
Y78735D01*
X58750Y74800D02*
X59459D01*
X60641D02*
X61300D01*
X72150Y80200D02*
X72859D01*
X73950Y79450D02*
Y80200D01*
X61241D02*
X61850D01*
X59400D02*
X60059D01*
X64950Y74700D02*
X65600D01*
X66850Y74750D02*
X67450D01*
X59515Y78600D02*
X59785Y78331D01*
Y77400D02*
Y78331D01*
Y77400D02*
X61115D01*
X60100Y61600D02*
X60665D01*
X61250Y61650D02*
Y61785D01*
X61865Y62400D01*
X68465Y63200D02*
Y63735D01*
X59500Y59800D02*
X60209D01*
X61391D02*
X62050D01*
X72900Y65200D02*
X73609D01*
X74700Y64450D02*
Y65200D01*
X61991D02*
X62600D01*
X60150D02*
X60809D01*
X65700Y59700D02*
X66350D01*
X67600Y59750D02*
X68200D01*
X60265Y63600D02*
X60535Y63331D01*
Y62400D02*
Y63331D01*
Y62400D02*
X61865D01*
X57200Y45400D02*
X59200Y47400D01*
X59865D01*
X52650Y45400D02*
X57200D01*
X57550Y60400D02*
X59550Y62400D01*
X59865D01*
X57350Y75400D02*
X59000Y77050D01*
X66415Y102985D02*
X67600Y101800D01*
X71900Y109000D02*
X75049D01*
X67650Y104750D02*
X71900Y109000D01*
X66415Y104750D02*
X67650D01*
X66415Y102985D02*
Y106000D01*
X68300Y116900D02*
Y118450D01*
X66465Y120285D02*
Y121000D01*
X67600Y86400D02*
Y88450D01*
X66415Y89635D02*
Y90950D01*
X72200Y93600D02*
X75049D01*
X67797Y89197D02*
X72200Y93600D01*
X66853Y89197D02*
X67797D01*
X66415Y89635D02*
X67600Y88450D01*
X73650Y76400D02*
X74950Y77700D01*
X73600Y70250D02*
X75400Y72050D01*
X71850Y70250D02*
X73600D01*
X71800Y70200D02*
X71850Y70250D01*
X77800Y94750D02*
X80465D01*
X76151Y96399D02*
X77800Y94750D01*
X76150Y117000D02*
X76151Y93600D01*
X75400Y72050D02*
Y77700D01*
X72700Y76400D02*
X73650D01*
X74950Y77700D02*
X78749D01*
X80151Y69651D02*
X80400Y69900D01*
Y77050D01*
X79900Y77550D02*
X80400Y77050D01*
X80151Y51200D02*
Y69651D01*
X74350Y61400D02*
X76300Y63350D01*
X73535Y61400D02*
X74350D01*
X76300Y57000D02*
Y63350D01*
X74350Y55050D02*
X76300Y57000D01*
X72450Y55050D02*
X74350D01*
X72400Y55000D02*
X72450Y55050D01*
X76300Y63350D02*
X79300D01*
X76050Y48600D02*
X78650Y51200D01*
X76050Y48150D02*
Y48600D01*
X74300Y46400D02*
X76050Y48150D01*
X73535Y46400D02*
X74300D01*
X73600Y38000D02*
Y40900D01*
X76900Y44200D01*
Y47300D01*
X76050Y48150D02*
X76900Y47300D01*
X78650Y51200D02*
X79150D01*
X64500Y122500D02*
Y123150D01*
X64100Y122100D02*
X64500Y122500D01*
X64100Y118000D02*
Y122100D01*
Y118000D02*
X69150Y112950D01*
Y107750D02*
Y112950D01*
X66736Y99714D02*
X68700Y101679D01*
D43*
X102400Y116250D02*
Y117219D01*
X86000Y80450D02*
X86500Y80950D01*
X86000Y70250D02*
Y80450D01*
X85650Y69900D02*
X86000Y70250D01*
X84807Y69900D02*
X85650D01*
X85347Y70097D02*
X85400Y70150D01*
X84807Y70097D02*
X85347D01*
X87800Y79200D02*
X88265D01*
X86500Y80950D02*
Y92900D01*
X86400Y93000D02*
X86500Y92900D01*
X84807Y94750D02*
X86400D01*
X85247Y94947D02*
X85350Y95050D01*
X84807Y94947D02*
X85247D01*
X88950Y80150D02*
Y91600D01*
X84807Y94553D02*
X85997D01*
X88950Y91600D01*
X87800Y80200D02*
X88265D01*
X84807Y94356D02*
X85644D01*
X87100Y92900D01*
Y79850D02*
Y92900D01*
X87550Y78200D02*
X88265D01*
X88935D02*
X89385Y78650D01*
X90747D01*
X88150Y71050D02*
Y78250D01*
X84807Y69506D02*
X86606D01*
X88150Y71050D01*
X84807Y69703D02*
X85753D01*
X86650Y70600D01*
Y78700D01*
X87600Y79650D01*
X90747D01*
X88985Y79150D02*
X90747D01*
X88985Y80150D02*
X90747D01*
X73850Y86400D02*
X74265D01*
X77550Y86550D02*
Y87215D01*
X78000Y87665D01*
X75750Y87250D02*
X77515D01*
X74935Y86435D02*
X75750Y87250D01*
X74935Y86400D02*
Y86435D01*
X75800Y86600D02*
X76409D01*
X78015Y87650D02*
X79200D01*
X77400Y51650D02*
Y60950D01*
X77450Y61000D01*
X64450Y107400D02*
Y108176D01*
X76200Y65900D02*
X77450Y64650D01*
X76200Y65900D02*
Y74500D01*
X76150Y74550D02*
X76200Y74500D01*
X75700Y79450D02*
Y84750D01*
X64150Y107100D02*
X64450Y107400D01*
X64150Y102300D02*
Y107100D01*
X69300Y95150D02*
Y97150D01*
Y95150D02*
X70700Y93750D01*
X64450Y92200D02*
Y93126D01*
X64000Y91750D02*
X64450Y92200D01*
X64000Y87300D02*
Y91750D01*
Y87300D02*
X65650Y85650D01*
X69150D01*
X69300Y85800D01*
X78800D02*
X80050Y87050D01*
X83174Y70313D02*
Y75675D01*
X82800Y76049D02*
X83174Y75675D01*
X79925Y83609D02*
X82259D01*
X82850Y77050D02*
Y81759D01*
X79422Y83328D02*
X79550Y83200D01*
X79388Y83072D02*
X79925Y83609D01*
X81000D02*
X82850Y81759D01*
X83174Y95163D02*
Y95950D01*
X83200Y91751D02*
Y92350D01*
Y84550D02*
Y90649D01*
X82259Y83609D02*
X83200Y84550D01*
X79535Y89435D02*
Y90800D01*
X78435Y88335D02*
X79535Y89435D01*
X78000Y88335D02*
X78435D01*
X79183Y87928D02*
X79922D01*
X80178Y87672D02*
X80817D01*
X81228Y87928D02*
X81350Y88050D01*
X80817Y87928D02*
X81228D01*
X78900Y87133D02*
X79183Y87416D01*
X78900Y87100D02*
Y87133D01*
X78450Y90800D02*
X78865D01*
X77600Y88800D02*
Y89609D01*
X77609Y89600D02*
X78865D01*
X77000Y90850D02*
X77600D01*
X76750Y88400D02*
X77200D01*
X77600Y88800D01*
X76622Y88272D02*
X76750Y88400D01*
X76217Y88272D02*
X76622D01*
X76622Y88528D02*
X76750Y88400D01*
X76217Y88528D02*
X76622D01*
X74583Y88784D02*
Y89083D01*
X74050Y88650D02*
X74172Y88528D01*
X74583D01*
X74050Y88150D02*
X74172Y88272D01*
X74583D01*
X80309Y84791D02*
X81000D01*
X79017Y83072D02*
X79388D01*
X79017Y83328D02*
X79422D01*
X76850Y83400D02*
X76922Y83328D01*
X77383D01*
X76850Y82950D02*
X76984Y82816D01*
X77383D01*
X76850Y82950D02*
X76972Y83072D01*
X77383D01*
Y83683D02*
X77750Y84050D01*
X77383Y83584D02*
Y83683D01*
X108992Y74000D02*
X109400D01*
X110050Y73350D01*
X109400Y70400D02*
X111400Y68400D01*
Y67411D02*
Y68400D01*
X109700Y65600D02*
X110200Y66100D01*
X109400Y65600D02*
X109700D01*
X109400Y67411D02*
X109739D01*
X110150Y67000D01*
X110900Y65900D02*
X111200Y65600D01*
X111400D01*
X102800Y66609D02*
X103441D01*
X102800Y67791D02*
X103441D01*
X104776Y67950D02*
X105500D01*
X104150Y67450D02*
X104776D01*
Y66450D02*
X105500D01*
X107350D02*
X107600Y66700D01*
X106824Y66450D02*
X107350D01*
Y66950D02*
X107600Y66700D01*
X106824Y66950D02*
X107350D01*
X106824Y67450D02*
X107500D01*
X106824Y67950D02*
X107500D01*
X102650Y71280D02*
X103008Y71638D01*
X102650Y69350D02*
Y71280D01*
X111716Y74216D02*
X112884D01*
X102300Y70300D02*
Y71650D01*
X103563Y74787D02*
X103700Y74650D01*
X103008Y74787D02*
X103563D01*
X101859Y74591D02*
X103008D01*
X97650Y80150D02*
X101700Y76100D01*
X99700Y78100D02*
Y79150D01*
X101700Y74750D02*
Y74990D01*
Y74750D02*
X101859Y74591D01*
X101806Y74394D02*
X103008D01*
X97550Y78650D02*
X101806Y74394D01*
X101503Y74197D02*
X103008D01*
X101197Y73803D02*
X103008D01*
X100950Y73350D02*
X101950D01*
X106750Y76350D02*
X106984Y76584D01*
Y76992D01*
X108266Y73016D02*
X108992D01*
X105409Y71008D02*
Y71559D01*
X104819Y71008D02*
Y71619D01*
X108992Y71408D02*
Y71638D01*
X113150Y72200D02*
X113700Y72750D01*
X113135Y72200D02*
X113150D01*
X112465Y71865D02*
Y72200D01*
X112000Y71400D02*
X112465Y71865D01*
X101600Y76700D02*
X102331Y75968D01*
X103008D01*
X92853Y79150D02*
X95850D01*
X99100Y78250D02*
X101578Y75772D01*
X98600Y78350D02*
X101375Y75575D01*
X105803Y76992D02*
Y80197D01*
X103600Y82400D02*
Y83700D01*
Y82400D02*
X105803Y80197D01*
X105606Y76992D02*
Y79644D01*
X102600Y82650D02*
Y83600D01*
Y82650D02*
X105606Y79644D01*
X105213Y76992D02*
Y79437D01*
X101600Y83050D02*
X105213Y79437D01*
X101600Y83050D02*
Y83600D01*
X100600Y83100D02*
Y83600D01*
Y83100D02*
X104700Y79000D01*
Y78400D02*
Y79000D01*
X105350Y76150D02*
X106050D01*
X105016Y76484D02*
X105350Y76150D01*
X105016Y76484D02*
Y76992D01*
X99550Y83550D02*
X103400Y79700D01*
X104000Y76000D02*
X104425Y76425D01*
Y76992D01*
X90600Y83335D02*
Y83750D01*
X90234Y80650D02*
X90747D01*
X90150Y77650D02*
X90747D01*
X92853D02*
X93450D01*
X92853Y81153D02*
X93200Y81500D01*
X92853Y81150D02*
Y81153D01*
Y80650D02*
X93500D01*
X96600Y79750D02*
X97600D01*
X98150Y79200D01*
Y78400D02*
Y79200D01*
Y78400D02*
X101172Y75378D01*
X103008D01*
X97550Y78650D02*
Y79300D01*
X92853Y79650D02*
X96050D01*
X101375Y75575D02*
X103008D01*
X101578Y75772D02*
X103008D01*
X115650Y76750D02*
X115935Y77035D01*
Y77200D01*
X114800D02*
X115265D01*
X115935D02*
X116250D01*
X116500Y76950D01*
X111100Y70600D02*
Y71550D01*
X112450Y72900D01*
X112650D01*
X113150Y73400D01*
Y73950D01*
X112884Y74216D02*
X113150Y73950D01*
X111628Y74472D02*
X113078D01*
X113950Y73150D02*
Y73600D01*
Y73150D02*
X114250Y72850D01*
X113078Y74472D02*
X113950Y73600D01*
X102300Y71650D02*
X102485Y71835D01*
X103008D01*
X109650Y70600D02*
X113465Y66785D01*
X109650Y70600D02*
Y71900D01*
X113465Y66600D02*
Y66785D01*
X111650Y70650D02*
X114350D01*
X111169Y70169D02*
X111650Y70650D01*
X112300Y68400D02*
X113465D01*
X110000Y70700D02*
Y72500D01*
Y70700D02*
X112300Y68400D01*
X115600Y73400D02*
Y74065D01*
Y73400D02*
X115700Y73300D01*
X114350Y70650D02*
X115700Y72000D01*
X108362Y76992D02*
X109342D01*
X109450Y77100D01*
X110200Y77300D02*
X111250D01*
X112400Y76150D01*
X111802Y73448D02*
X112288D01*
X109518Y72031D02*
X109650Y71900D01*
X108992Y72031D02*
X109518D01*
X108992Y72819D02*
X109681D01*
X110000Y72500D01*
X114135Y66600D02*
X114887Y65848D01*
X117600D01*
X114135Y68400D02*
X114185Y68350D01*
X117600D01*
X115351Y74984D02*
X115600Y74735D01*
X114512Y74984D02*
X115351D01*
X111135Y74965D02*
Y75000D01*
Y74965D02*
X111628Y74472D01*
X110465Y72215D02*
Y72600D01*
X111150Y73250D02*
X111860Y73960D01*
X111150Y72650D02*
Y73250D01*
X110465Y74000D02*
Y74385D01*
X108992Y74787D02*
X109513D01*
X109900Y74400D01*
Y73900D02*
Y74400D01*
Y73900D02*
X110200Y73600D01*
X111500D01*
X111860Y73960D02*
X112288D01*
X111135Y74000D02*
X111500D01*
X111716Y74216D01*
X108992Y75968D02*
X110582D01*
X110800Y75750D01*
X111748Y75752D02*
X112288D01*
X108165Y76992D02*
Y77465D01*
X108400Y77700D01*
X109300D01*
X111760Y75240D01*
X112288D01*
X98600Y83350D02*
X102350Y79600D01*
X98600Y83350D02*
Y83600D01*
X97600Y83400D02*
X102250Y78750D01*
X97600Y83400D02*
Y83600D01*
X96600Y83200D02*
X102808Y76992D01*
X96600Y83200D02*
Y83600D01*
X106750Y85800D02*
X107850D01*
X107819Y85431D02*
Y85800D01*
X106250Y79600D02*
X106809D01*
X106800D02*
Y80200D01*
X106809Y79009D02*
Y79600D01*
X107991Y79009D02*
Y80291D01*
Y79600D02*
X108600D01*
X108614Y80214D02*
Y80850D01*
X107991Y80291D02*
X108291D01*
X108358Y80358D01*
Y80850D01*
X108102Y80402D02*
Y80850D01*
X111191Y78909D02*
Y79600D01*
X111900D01*
X110009Y78959D02*
Y79991D01*
X109400Y79600D02*
X110009D01*
X109894Y80406D02*
X110000Y80300D01*
X109894Y80406D02*
Y80850D01*
X109638Y80362D02*
X110009Y79991D01*
X109638Y80362D02*
Y80850D01*
X109382Y80282D02*
Y80850D01*
X109000Y83700D02*
X109126Y83574D01*
Y83150D02*
Y83574D01*
X107846Y83150D02*
Y83696D01*
X108102Y83652D02*
X108300Y83850D01*
X108102Y83150D02*
Y83652D01*
X109500Y83800D02*
X109638Y83662D01*
Y83150D02*
Y83662D01*
X109894Y83150D02*
Y83794D01*
X117187Y72987D02*
X117813D01*
X116600Y72400D02*
X117187Y72987D01*
X114050Y72400D02*
X116600D01*
X113700Y72750D02*
X114050Y72400D01*
X112288Y74728D02*
X112972D01*
X114250Y72850D02*
X115850D01*
X116775Y73775D01*
X117813D01*
X112288Y74984D02*
X112784D01*
X114350Y76550D01*
X115900D01*
X117100Y75350D01*
X117813D01*
X114512Y73448D02*
X115048D01*
X115140Y75240D02*
Y75660D01*
X115004Y75496D02*
X115140Y75360D01*
X115048Y75752D02*
X115140Y75660D01*
X114512Y75752D02*
X115048D01*
X114512Y75496D02*
X115004D01*
X114512Y75240D02*
X115140D01*
X62735Y48215D02*
Y48600D01*
Y48215D02*
X63156Y47794D01*
X63593D01*
X62065Y48335D02*
Y48600D01*
X62803Y47597D02*
X63593D01*
X62535Y47400D02*
Y47865D01*
X62065Y48335D02*
X62803Y47597D01*
X60935Y48600D02*
X61100D01*
X61500Y49000D01*
X62335D01*
X62735Y48600D01*
X63135Y49000D02*
X64265D01*
X62735Y48600D02*
X63135Y49000D01*
X66200Y48335D02*
Y48865D01*
Y48335D02*
X66600Y47935D01*
X67200D01*
Y47265D02*
X67585D01*
X65207Y47597D02*
X66131D01*
X66535Y46400D02*
Y47331D01*
X66200Y47665D02*
X66535Y47331D01*
X64735Y49000D02*
X64900D01*
X65235Y49335D01*
X65731D01*
X66200Y48865D01*
X65365Y48665D02*
X65600D01*
X64600Y47900D02*
X65365Y48665D01*
X64600Y47600D02*
Y47900D01*
Y47600D02*
X64800Y47400D01*
X65700D02*
X65865Y47235D01*
Y46400D02*
Y47235D01*
X64800Y47400D02*
X65700D01*
X65207Y47794D02*
X65344D01*
X65550Y48000D01*
X64603Y47203D02*
X65207D01*
X63150Y47400D02*
X63593D01*
X63000Y47250D02*
X63150Y47400D01*
X63593Y47203D02*
X64047D01*
X64200Y47050D01*
X65000Y45600D02*
Y46799D01*
X65207Y47006D01*
X63593Y45993D02*
Y47006D01*
X63200Y45600D02*
X63593Y45993D01*
X66535Y46400D02*
X68465D01*
X69135D02*
Y46531D01*
X68450Y47215D02*
X69135Y46531D01*
X68450Y47215D02*
Y47350D01*
X69135Y48035D01*
Y49269D01*
X69265Y49400D01*
X69135Y47200D02*
X69500D01*
X69697Y47397D01*
X70797D02*
X71000Y47600D01*
Y48335D01*
X70935Y48400D02*
X71000Y48335D01*
X69697Y47397D02*
X70797D01*
X70393Y47594D02*
Y48272D01*
X69950Y48715D02*
Y49500D01*
X69935Y49400D02*
X71100D01*
X69950Y48715D02*
X70393Y48272D01*
X71735Y49400D02*
X72335D01*
X73200Y48050D02*
X73250Y48100D01*
X72335Y49400D02*
X73200Y48535D01*
Y48050D02*
Y48535D01*
X73250Y48100D02*
X74300D01*
X72815Y47465D02*
X73200D01*
X72747Y47397D02*
X72815Y47465D01*
X72007Y47397D02*
X72747D01*
X73535Y46400D02*
Y47131D01*
X73200Y47465D02*
X73535Y47131D01*
X72865Y46400D02*
Y46935D01*
X72600Y47200D02*
X72865Y46935D01*
X71300Y47300D02*
X71400Y47200D01*
X71300Y47300D02*
Y47700D01*
X72065Y48465D01*
X72600D01*
X71400Y47200D02*
X72600D01*
X74200Y47465D02*
X74615D01*
X72007Y47594D02*
X72244D01*
X72450Y47800D01*
X69900Y47200D02*
X70393D01*
X69800Y47100D02*
X69900Y47200D01*
X70393Y47003D02*
X70797D01*
X70950Y46850D01*
Y46650D02*
Y46850D01*
X69000Y44600D02*
Y44800D01*
X70393Y46193D01*
Y46806D01*
X72007Y44793D02*
Y46806D01*
Y44793D02*
X72200Y44600D01*
X60350Y78600D02*
X60750Y79000D01*
X61585D01*
X61985Y78600D01*
Y78215D02*
X62406Y77794D01*
X62843D01*
X61985Y78215D02*
Y78600D01*
X62385Y79000D01*
X63515D01*
X61315Y78335D02*
X62053Y77597D01*
X61315Y78335D02*
Y78600D01*
X62053Y77597D02*
X62843D01*
X65450Y77665D02*
X65785Y77331D01*
Y76400D02*
Y77331D01*
Y76400D02*
X67715D01*
X63850Y77600D02*
X64050Y77400D01*
X63850Y77600D02*
Y77900D01*
X64050Y77400D02*
X64950D01*
X63850Y77900D02*
X64615Y78665D01*
X65115Y76400D02*
Y77235D01*
X64950Y77400D02*
X65115Y77235D01*
X69200Y78715D02*
Y79500D01*
Y78715D02*
X69643Y78272D01*
Y77594D02*
Y78272D01*
X68385Y77200D02*
X68750D01*
X68947Y77397D01*
X70047D01*
X70250Y77600D01*
Y78335D01*
X70185Y78400D02*
X70250Y78335D01*
X72450Y77465D02*
X72785Y77131D01*
Y76400D02*
Y77131D01*
X70550Y77300D02*
X70650Y77200D01*
X70550Y77300D02*
Y77700D01*
X70650Y77200D02*
X71850D01*
X70550Y77700D02*
X71315Y78465D01*
X72115Y76400D02*
Y76935D01*
X71315Y78465D02*
X71850D01*
Y77200D02*
X72115Y76935D01*
X66450Y77265D02*
X66835D01*
X65450Y78335D02*
X65850Y77935D01*
X66450D01*
X67700Y77350D02*
X68385Y78035D01*
Y79269D01*
X73450Y77465D02*
X73865D01*
X72500Y78100D02*
X73550D01*
X62450Y75600D02*
X62843Y75993D01*
Y77006D01*
X64250Y75600D02*
Y76799D01*
X64457Y77006D01*
X68250Y74600D02*
Y74800D01*
X69643Y76193D01*
Y76806D01*
X71257Y74793D02*
X71450Y74600D01*
X71257Y74793D02*
Y76806D01*
X60185Y78600D02*
X60350D01*
X64457Y77597D02*
X65381D01*
X65450Y78335D02*
Y78865D01*
X64981Y79335D02*
X65450Y78865D01*
X69185Y79400D02*
X70350D01*
X68385Y79269D02*
X68515Y79400D01*
X71257Y77397D02*
X71997D01*
X72065Y77465D01*
X72450D01*
X71585Y79400D02*
X72450Y78535D01*
X70985Y79400D02*
X71585D01*
X72450Y78050D02*
Y78535D01*
Y78050D02*
X72500Y78100D01*
X61785Y77400D02*
Y77865D01*
X63985Y79000D02*
X64150D01*
X64485Y79335D01*
X64981D01*
X64615Y78665D02*
X64850D01*
X67700Y77215D02*
X68385Y76531D01*
Y76400D02*
Y76531D01*
X67700Y77215D02*
Y77350D01*
X62250Y77250D02*
X62400Y77400D01*
X62843D01*
X63853Y77203D02*
X64457D01*
X64457Y77794D02*
X64594D01*
X64800Y78000D01*
X62843Y77203D02*
X63297D01*
X63450Y77050D01*
X69050Y77100D02*
X69150Y77200D01*
X69643D01*
X71257Y77594D02*
X71494D01*
X71700Y77800D01*
X70200Y76650D02*
Y76850D01*
X69643Y77003D02*
X70047D01*
X70200Y76850D01*
X61100Y63600D02*
X61500Y64000D01*
X62335D01*
X62735Y63600D01*
Y63215D02*
X63156Y62794D01*
X63593D01*
X62735Y63215D02*
Y63600D01*
X63135Y64000D01*
X64265D01*
X62065Y63335D02*
X62803Y62597D01*
X62065Y63335D02*
Y63600D01*
X62803Y62597D02*
X63593D01*
X66200Y62665D02*
X66535Y62331D01*
Y61400D02*
Y62331D01*
Y61400D02*
X68465D01*
X64600Y62600D02*
X64800Y62400D01*
X64600Y62600D02*
Y62900D01*
X64800Y62400D02*
X65700D01*
X64600Y62900D02*
X65365Y63665D01*
X65865Y61400D02*
Y62235D01*
X65700Y62400D02*
X65865Y62235D01*
X69950Y63715D02*
Y64500D01*
Y63715D02*
X70393Y63272D01*
Y62594D02*
Y63272D01*
X69135Y62200D02*
X69500D01*
X69697Y62397D01*
X70797D01*
X71000Y62600D01*
Y63335D01*
X70935Y63400D02*
X71000Y63335D01*
X73200Y62465D02*
X73535Y62131D01*
Y61400D02*
Y62131D01*
X71300Y62300D02*
X71400Y62200D01*
X71300Y62300D02*
Y62700D01*
X71400Y62200D02*
X72600D01*
X71300Y62700D02*
X72065Y63465D01*
X72865Y61400D02*
Y61935D01*
X72065Y63465D02*
X72600D01*
Y62200D02*
X72865Y61935D01*
X67200Y62265D02*
X67585D01*
X66200Y63335D02*
X66600Y62935D01*
X67200D01*
X68450Y62350D02*
X69135Y63035D01*
Y64269D01*
X74200Y62465D02*
X74615D01*
X73250Y63100D02*
X74300D01*
X63200Y60600D02*
X63593Y60993D01*
Y62006D01*
X65000Y60600D02*
Y61799D01*
X65207Y62006D01*
X69000Y59600D02*
Y59800D01*
X70393Y61193D01*
Y61806D01*
X72007Y59793D02*
X72200Y59600D01*
X72007Y59793D02*
Y61806D01*
X60935Y63600D02*
X61100D01*
X65207Y62597D02*
X66131D01*
X66200Y63335D02*
Y63865D01*
X65731Y64335D02*
X66200Y63865D01*
X69935Y64400D02*
X71100D01*
X69135Y64269D02*
X69265Y64400D01*
X72007Y62397D02*
X72747D01*
X72815Y62465D01*
X73200D01*
X72335Y64400D02*
X73200Y63535D01*
X71735Y64400D02*
X72335D01*
X73200Y63050D02*
Y63535D01*
Y63050D02*
X73250Y63100D01*
X62535Y62400D02*
Y62865D01*
X64735Y64000D02*
X64900D01*
X65235Y64335D01*
X65731D01*
X65365Y63665D02*
X65600D01*
X68450Y62215D02*
X69135Y61531D01*
Y61400D02*
Y61531D01*
X68450Y62215D02*
Y62350D01*
X63000Y62250D02*
X63150Y62400D01*
X63593D01*
X64603Y62203D02*
X65207D01*
X65207Y62794D02*
X65344D01*
X65550Y63000D01*
X63593Y62203D02*
X64047D01*
X64200Y62050D01*
X69800Y62100D02*
X69900Y62200D01*
X70393D01*
X72007Y62594D02*
X72244D01*
X72450Y62800D01*
X70950Y61650D02*
Y61850D01*
X70393Y62003D02*
X70797D01*
X70950Y61850D01*
X72200Y75600D02*
X74600D01*
X71750Y76050D02*
X72200Y75600D01*
X71750Y76050D02*
Y76950D01*
X71697Y77003D02*
X71750Y76950D01*
X71257Y77003D02*
X71697D01*
X73000Y60600D02*
X75400D01*
X72500Y61100D02*
X73000Y60600D01*
X72500Y61100D02*
Y61900D01*
X72397Y62003D02*
X72500Y61900D01*
X72007Y62003D02*
X72397D01*
X72900Y45600D02*
X75400D01*
X72450Y46050D02*
X72900Y45600D01*
X72450Y46050D02*
Y46950D01*
X72397Y47003D02*
X72450Y46950D01*
X72007Y47003D02*
X72397D01*
X82603Y94947D02*
X83193D01*
X82800Y94750D02*
X83193D01*
X82735Y94685D02*
X82800Y94750D01*
X81135D02*
X81200Y94685D01*
X82735D01*
X82000Y93550D02*
Y94015D01*
X82853Y94553D02*
X83193D01*
X82700Y94400D02*
X82853Y94553D01*
X82706Y94356D02*
X83193D01*
X82700Y94250D02*
Y94400D01*
X82426Y95474D02*
Y95950D01*
X84989Y95144D02*
X85248Y95402D01*
X84807Y95144D02*
X84989D01*
X82426Y70624D02*
Y71100D01*
X82000Y68700D02*
Y69165D01*
X81200Y69835D02*
X82735D01*
X82800Y69900D01*
X83193D01*
X81135D02*
X81200Y69835D01*
X82603Y70097D02*
X83193D01*
X82700Y69400D02*
Y69550D01*
X82706Y69506D02*
X83193D01*
X82700Y69550D02*
X82853Y69703D01*
X83193D01*
X84807Y70294D02*
X84989D01*
X85248Y70552D01*
X103008Y75181D02*
X103369D01*
X103800Y75200D01*
X102366Y74984D02*
X103008D01*
X102634Y73016D02*
X103008D01*
X102450Y73200D02*
X102634Y73016D01*
X102450Y73200D02*
Y73250D01*
X102569Y72819D02*
X103008D01*
X102400Y72650D02*
X102569Y72819D01*
X103008Y72622D02*
X103472D01*
X103750Y72900D01*
X104622Y70622D02*
Y71008D01*
X104350Y70350D02*
X104622Y70622D01*
X106984Y70534D02*
Y71008D01*
X106850Y70400D02*
X106984Y70534D01*
X107250Y71600D02*
X107300D01*
X107378Y71522D01*
Y71008D02*
Y71522D01*
X107181Y70619D02*
Y71008D01*
Y70619D02*
X107350Y70450D01*
X108362Y70438D02*
Y71008D01*
X108165D02*
Y71535D01*
X108578Y72228D02*
X108992D01*
X108400Y72050D02*
X108578Y72228D01*
X108992Y72622D02*
X109378D01*
X109600Y72400D01*
X108409Y74591D02*
X108992D01*
Y75378D02*
X109422D01*
X109600Y75200D01*
X108992Y75575D02*
X109525D01*
X109650Y75700D01*
X107181Y76992D02*
Y77431D01*
X107350Y77600D01*
X107378Y76578D02*
Y76992D01*
X107100Y76300D02*
X107378Y76578D01*
X105409Y76541D02*
Y76992D01*
Y76541D02*
X105550Y76400D01*
X104819Y76992D02*
Y77569D01*
X104400Y77600D02*
X104622Y77378D01*
X104015Y76465D02*
X104031Y76481D01*
Y76992D01*
X92853Y78650D02*
X95650D01*
X103700Y73650D02*
X104000Y73950D01*
X103700Y73400D02*
Y73650D01*
X103513Y73213D02*
X103700Y73400D01*
X103008Y73213D02*
X103513D01*
X92853Y80150D02*
X97650D01*
X102808Y76992D02*
X103638D01*
X103835D02*
Y77665D01*
X102750Y78750D02*
X103835Y77665D01*
X102250Y78750D02*
X102750D01*
X104228Y76992D02*
Y77422D01*
X104050Y77600D02*
X104228Y77422D01*
X104050Y77600D02*
Y78200D01*
X102650Y79600D02*
X104050Y78200D01*
X102350Y79600D02*
X102650D01*
X90747Y81150D02*
Y82519D01*
X70700Y88800D02*
X73700Y85800D01*
X75700Y84750D02*
X76750Y85800D01*
X80050Y87050D02*
Y87800D01*
X69300Y85800D02*
X78800D01*
X64150Y102300D02*
X69300Y97150D01*
X79922Y87928D02*
X80178Y87672D01*
X104622Y76992D02*
Y77378D01*
X96050Y79650D02*
X101503Y74197D01*
X95850Y79150D02*
X101197Y73803D01*
X95650Y78650D02*
X100950Y73350D01*
X102465Y76165D02*
X103008D01*
X101950Y76681D02*
X102465Y76165D01*
X101950Y76681D02*
Y77000D01*
X101700Y77250D02*
X101950Y77000D01*
X110915Y74550D02*
X110950D01*
X110465Y75000D02*
X110915Y74550D01*
X102788Y76362D02*
X103008D01*
X102300Y76850D02*
X102788Y76362D01*
X102300Y76850D02*
Y77200D01*
X101750Y77750D02*
X102300Y77200D01*
X101250Y77750D02*
X101750D01*
X100950Y77450D02*
X101250Y77750D01*
X104031Y71008D02*
Y71732D01*
X39626Y126424D02*
Y126800D01*
X74184Y88016D02*
X74583D01*
X74050Y88150D02*
X74184Y88016D01*
X66700Y111800D02*
X67215D01*
X108358Y83558D02*
X108500Y83700D01*
X109000D01*
X108358Y82458D02*
Y83558D01*
X108870Y82430D02*
Y83570D01*
X45869Y124544D02*
X46194D01*
X46250Y124600D01*
X46019Y77544D02*
X46344D01*
X46400Y77600D01*
X122750Y43900D02*
Y43300D01*
X123093D01*
X123501Y43700D02*
Y43300D01*
Y43614D02*
X123444Y43671D01*
X123387Y43700D01*
X123301D01*
X123244Y43671D01*
X123187Y43614D01*
X123158Y43529D01*
Y43471D01*
X123187Y43386D01*
X123244Y43329D01*
X123301Y43300D01*
X123387D01*
X123444Y43329D01*
X123501Y43386D01*
X123690Y43700D02*
X123861Y43300D01*
X124033Y43700D02*
X123861Y43300D01*
X123804Y43186D01*
X123747Y43129D01*
X123690Y43100D01*
X123661D01*
X124133Y43529D02*
X124475D01*
Y43586D01*
X124447Y43643D01*
X124418Y43671D01*
X124361Y43700D01*
X124275D01*
X124218Y43671D01*
X124161Y43614D01*
X124133Y43529D01*
Y43471D01*
X124161Y43386D01*
X124218Y43329D01*
X124275Y43300D01*
X124361D01*
X124418Y43329D01*
X124475Y43386D01*
X124604Y43700D02*
Y43300D01*
Y43529D02*
X124632Y43614D01*
X124690Y43671D01*
X124747Y43700D01*
X124832D01*
X125358Y43786D02*
X125415Y43814D01*
X125501Y43900D01*
Y43300D01*
D44*
X62559Y90559D02*
X63150D01*
Y90000D02*
Y90559D01*
X63100Y91750D02*
X63700D01*
X57759Y89909D02*
Y91241D01*
X59000Y90550D02*
X59500D01*
X63150Y106791D02*
X63791D01*
X63150Y105000D02*
Y105609D01*
X57759Y104909D02*
Y106241D01*
X58941Y105600D02*
X59550D01*
X57809Y119991D02*
Y121241D01*
X58991Y120600D02*
X59600D01*
X63200Y120000D02*
Y120550D01*
X62750Y121750D02*
X63800D01*
X62500Y121500D02*
X62750Y121750D01*
X102400Y119581D02*
X102831D01*
X102400D02*
Y120550D01*
Y108550D02*
Y110000D01*
X102700Y110300D01*
X101981Y111981D02*
X102400D01*
Y112050D02*
Y113000D01*
X102619Y112200D02*
X107110D01*
X107050D02*
Y113300D01*
X107000Y111300D02*
Y112200D01*
X102400Y111981D02*
X102619Y112200D01*
X107110Y116090D02*
Y118090D01*
X102619Y117000D02*
X107110D01*
X102400Y117219D02*
X102619Y117000D01*
D45*
X110583Y112293D02*
X114400D01*
X110490Y117000D02*
X110744Y117254D01*
X114400D01*
D46*
X54050Y111000D02*
D03*
X55050D02*
D03*
X54050Y110000D02*
D03*
X55050D02*
D03*
X54050Y109000D02*
D03*
X45000Y111400D02*
D03*
X47600Y126600D02*
D03*
X71450Y74600D02*
D03*
X68250D02*
D03*
X64250Y75600D02*
D03*
X62450D02*
D03*
X74600D02*
D03*
Y76600D02*
D03*
X117813Y76924D02*
D03*
X118600D02*
D03*
X117813Y76137D02*
D03*
X118600Y76150D02*
D03*
X117813Y75350D02*
D03*
X118600D02*
D03*
X117813Y74562D02*
D03*
X118600D02*
D03*
X117813Y73775D02*
D03*
X118600D02*
D03*
X117813Y72987D02*
D03*
X118600D02*
D03*
X117813Y72200D02*
D03*
X118600D02*
D03*
X95600Y83600D02*
D03*
Y84600D02*
D03*
X96600Y83600D02*
D03*
Y84600D02*
D03*
X97600Y83600D02*
D03*
Y84600D02*
D03*
X98600Y83600D02*
D03*
Y84600D02*
D03*
X99600Y83600D02*
D03*
Y84600D02*
D03*
X100600Y83600D02*
D03*
Y84600D02*
D03*
X101600Y83600D02*
D03*
Y84600D02*
D03*
X102600Y83600D02*
D03*
Y84600D02*
D03*
X103600Y83600D02*
D03*
Y84600D02*
D03*
X104600Y83600D02*
D03*
X75400Y45600D02*
D03*
Y60600D02*
D03*
X72200Y44600D02*
D03*
Y59600D02*
D03*
X69000Y44600D02*
D03*
Y59600D02*
D03*
X65000Y45600D02*
D03*
Y60600D02*
D03*
X63200Y45600D02*
D03*
Y60600D02*
D03*
X55300Y79000D02*
D03*
Y78000D02*
D03*
Y77000D02*
D03*
X55000Y49000D02*
D03*
Y48000D02*
D03*
Y47000D02*
D03*
Y64000D02*
D03*
Y63000D02*
D03*
Y62000D02*
D03*
Y126000D02*
D03*
Y125000D02*
D03*
Y124000D02*
D03*
X53450Y96000D02*
D03*
Y95000D02*
D03*
Y94000D02*
D03*
X45100Y64400D02*
D03*
X47750Y79600D02*
D03*
X56300Y79000D02*
D03*
Y78000D02*
D03*
X56000Y49000D02*
D03*
Y48000D02*
D03*
Y64000D02*
D03*
Y63000D02*
D03*
Y126000D02*
D03*
Y125000D02*
D03*
X54450Y96000D02*
D03*
Y95000D02*
D03*
X75400Y46600D02*
D03*
Y61600D02*
D03*
D47*
X55050Y109000D02*
D03*
X44000Y111400D02*
D03*
X46600Y126600D02*
D03*
X72450Y74600D02*
D03*
X69250D02*
D03*
X64250D02*
D03*
X62450D02*
D03*
X74600D02*
D03*
X104600Y84600D02*
D03*
X44100Y64400D02*
D03*
X46750Y79600D02*
D03*
X75400Y44600D02*
D03*
Y59600D02*
D03*
X73200Y44600D02*
D03*
Y59600D02*
D03*
X70000Y44600D02*
D03*
Y59600D02*
D03*
X65000Y44600D02*
D03*
Y59600D02*
D03*
X63200Y44600D02*
D03*
Y59600D02*
D03*
X56300Y77000D02*
D03*
X56000Y47000D02*
D03*
Y62000D02*
D03*
Y124000D02*
D03*
X54450Y94000D02*
D03*
D48*
X114400Y82800D02*
D03*
Y84454D02*
D03*
Y81146D02*
D03*
Y79493D02*
D03*
Y115600D02*
D03*
Y117254D02*
D03*
Y113946D02*
D03*
Y112293D02*
D03*
D49*
X117274Y84454D02*
D03*
Y79493D02*
D03*
Y117254D02*
D03*
Y112293D02*
D03*
D50*
X70700Y119300D02*
D03*
X65700D02*
D03*
Y114300D02*
D03*
X70700D02*
D03*
X68200Y116800D02*
D03*
X55100Y119700D02*
D03*
X50100D02*
D03*
Y114700D02*
D03*
X55100D02*
D03*
X52600Y117200D02*
D03*
X46300Y119700D02*
D03*
X41300D02*
D03*
Y114700D02*
D03*
X46300D02*
D03*
X43800Y117200D02*
D03*
X38100Y119500D02*
D03*
X33100D02*
D03*
Y114500D02*
D03*
X38100D02*
D03*
X35600Y117000D02*
D03*
X70100Y104300D02*
D03*
X65100D02*
D03*
Y99300D02*
D03*
X70100D02*
D03*
X67600Y101800D02*
D03*
X55100Y105100D02*
D03*
X50100D02*
D03*
Y100100D02*
D03*
X55100D02*
D03*
X52600Y102600D02*
D03*
X46300Y104900D02*
D03*
X41300D02*
D03*
Y99900D02*
D03*
X46300D02*
D03*
X43800Y102400D02*
D03*
X37300Y104700D02*
D03*
X32300D02*
D03*
Y99700D02*
D03*
X37300D02*
D03*
X34800Y102200D02*
D03*
X55300Y89900D02*
D03*
X50300D02*
D03*
Y84900D02*
D03*
X55300D02*
D03*
X52800Y87400D02*
D03*
X46300Y89900D02*
D03*
X41300D02*
D03*
Y84900D02*
D03*
X46300D02*
D03*
X43800Y87400D02*
D03*
X37700Y89900D02*
D03*
X32700D02*
D03*
Y84900D02*
D03*
X37700D02*
D03*
X35200Y87400D02*
D03*
X74300Y72700D02*
D03*
X69300D02*
D03*
Y67700D02*
D03*
X74300D02*
D03*
X71800Y70200D02*
D03*
X56900Y73100D02*
D03*
X51900D02*
D03*
Y68100D02*
D03*
X56900D02*
D03*
X54400Y70600D02*
D03*
X46700Y72900D02*
D03*
X41700D02*
D03*
Y67900D02*
D03*
X46700D02*
D03*
X44200Y70400D02*
D03*
X36900Y72700D02*
D03*
X31900D02*
D03*
Y67700D02*
D03*
X36900D02*
D03*
X34400Y70200D02*
D03*
X74900Y57500D02*
D03*
X69900D02*
D03*
Y52500D02*
D03*
X74900D02*
D03*
X72400Y55000D02*
D03*
X59700Y57500D02*
D03*
X54700D02*
D03*
Y52500D02*
D03*
X59700D02*
D03*
X57200Y55000D02*
D03*
X48300Y57900D02*
D03*
X43300D02*
D03*
Y52900D02*
D03*
X48300D02*
D03*
X45800Y55400D02*
D03*
X37500Y57500D02*
D03*
X32500D02*
D03*
Y52500D02*
D03*
X37500D02*
D03*
X35000Y55000D02*
D03*
X76100Y40500D02*
D03*
X71100D02*
D03*
Y35500D02*
D03*
X76100D02*
D03*
X73600Y38000D02*
D03*
X57900Y42100D02*
D03*
X52900D02*
D03*
Y37100D02*
D03*
X57900D02*
D03*
X55400Y39600D02*
D03*
X48900Y41900D02*
D03*
X43900D02*
D03*
Y36900D02*
D03*
X48900D02*
D03*
X46400Y39400D02*
D03*
X39500Y41900D02*
D03*
X34500D02*
D03*
Y36900D02*
D03*
X39500D02*
D03*
X37000Y39400D02*
D03*
X67600Y86400D02*
D03*
X70100Y83900D02*
D03*
X65100D02*
D03*
Y88900D02*
D03*
X70100D02*
D03*
D51*
X24100Y124500D02*
D03*
X22100Y121500D02*
D03*
X27350Y123000D02*
D03*
X25850Y124500D02*
D03*
X25600Y121500D02*
D03*
X24100Y109500D02*
D03*
X22100Y106500D02*
D03*
X27350Y108000D02*
D03*
X25850Y109500D02*
D03*
X25600Y106500D02*
D03*
X24100Y94500D02*
D03*
X22100Y91500D02*
D03*
X27350Y93000D02*
D03*
X25850Y94500D02*
D03*
X25600Y91500D02*
D03*
X24100Y77500D02*
D03*
X22100Y74500D02*
D03*
X27350Y76000D02*
D03*
X25850Y77500D02*
D03*
X25600Y74500D02*
D03*
X24100Y62500D02*
D03*
X22100Y59500D02*
D03*
X27350Y61000D02*
D03*
X25850Y62500D02*
D03*
X25600Y59500D02*
D03*
X24100Y47500D02*
D03*
X22100Y44500D02*
D03*
X27350Y46000D02*
D03*
X25850Y47500D02*
D03*
X25600Y44500D02*
D03*
D52*
X117600Y68350D02*
D03*
Y69352D02*
D03*
Y66850D02*
D03*
Y65848D02*
D03*
D53*
X110050Y82400D02*
D03*
Y81600D02*
D03*
X109400Y82200D02*
D03*
Y81800D02*
D03*
X109000Y82200D02*
D03*
Y81800D02*
D03*
X108600Y82200D02*
D03*
Y81800D02*
D03*
X108000Y82400D02*
D03*
Y81600D02*
D03*
D54*
X63650Y56200D02*
D03*
X66000D02*
D03*
X64950Y53200D02*
D03*
X66600Y53150D02*
D03*
X60950Y42200D02*
D03*
X62650D02*
D03*
X63650Y42400D02*
D03*
X65450D02*
D03*
X62050Y69000D02*
D03*
X63900D02*
D03*
X62150Y67400D02*
D03*
X63900D02*
D03*
X61850Y71800D02*
D03*
X64300D02*
D03*
X60450Y83400D02*
D03*
X61950Y83350D02*
D03*
X44050Y96200D02*
D03*
X46450D02*
D03*
X30200Y42200D02*
D03*
X32700Y42150D02*
D03*
X52200Y54900D02*
D03*
X50400Y55600D02*
D03*
X52850Y55650D02*
D03*
X38150Y72000D02*
D03*
X39991Y72659D02*
D03*
Y71241D02*
D03*
X62600Y50200D02*
D03*
X60150D02*
D03*
X62050Y44800D02*
D03*
X59500D02*
D03*
X60100Y46600D02*
D03*
X65700Y44700D02*
D03*
X68200Y44750D02*
D03*
X72900Y50200D02*
D03*
X74700Y49450D02*
D03*
X59350Y76600D02*
D03*
X58750Y74800D02*
D03*
X61300D02*
D03*
X72150Y80200D02*
D03*
X73950Y79450D02*
D03*
X61850Y80200D02*
D03*
X59400D02*
D03*
X64950Y74700D02*
D03*
X67450Y74750D02*
D03*
X60100Y61600D02*
D03*
X59500Y59800D02*
D03*
X62050D02*
D03*
X72900Y65200D02*
D03*
X74700Y64450D02*
D03*
X62600Y65200D02*
D03*
X60150D02*
D03*
X65700Y59700D02*
D03*
X68200Y59750D02*
D03*
D55*
X102400Y116250D02*
D03*
X87800Y79200D02*
D03*
X86500Y80950D02*
D03*
X86400Y93000D02*
D03*
Y94750D02*
D03*
X87800Y80200D02*
D03*
X87100Y79850D02*
D03*
X87550Y78200D02*
D03*
X73850Y86400D02*
D03*
X75800Y86600D02*
D03*
X77400Y51650D02*
D03*
X77450Y61000D02*
D03*
Y64650D02*
D03*
X76150Y74550D02*
D03*
X75700Y79450D02*
D03*
X70700Y93750D02*
D03*
Y88800D02*
D03*
X83124Y95400D02*
D03*
X83200Y92350D02*
D03*
X81350Y88050D02*
D03*
X81000Y87000D02*
D03*
X80450Y86750D02*
D03*
X78900Y87100D02*
D03*
X78450Y90800D02*
D03*
X77000Y90850D02*
D03*
X76650Y87600D02*
D03*
X76750Y88400D02*
D03*
X74998Y90252D02*
D03*
X74583Y89083D02*
D03*
X74050Y88650D02*
D03*
Y88150D02*
D03*
X74600Y87350D02*
D03*
X80309Y84791D02*
D03*
X79000Y82200D02*
D03*
X79533Y83217D02*
D03*
X76850Y83400D02*
D03*
Y82950D02*
D03*
X77798Y82348D02*
D03*
X77400Y85050D02*
D03*
X77750Y84050D02*
D03*
X62559Y90559D02*
D03*
X63150Y90000D02*
D03*
X63700Y91750D02*
D03*
X57759Y89909D02*
D03*
X59500Y90550D02*
D03*
X57759Y91241D02*
D03*
X63791Y106791D02*
D03*
X63150Y105000D02*
D03*
X57759Y104909D02*
D03*
Y106241D02*
D03*
X59550Y105600D02*
D03*
X57809Y119991D02*
D03*
Y121241D02*
D03*
X59600Y120600D02*
D03*
X63200Y120000D02*
D03*
X63800Y121750D02*
D03*
X62500Y121500D02*
D03*
X102831Y119581D02*
D03*
X102400Y120550D02*
D03*
X102700Y110300D02*
D03*
X102400Y108550D02*
D03*
X101981Y111981D02*
D03*
X102400Y113000D02*
D03*
X107050Y113300D02*
D03*
X107000Y111300D02*
D03*
X107110Y118090D02*
D03*
Y116090D02*
D03*
X110050Y73350D02*
D03*
X109400Y70400D02*
D03*
X110200Y66100D02*
D03*
X110150Y67000D02*
D03*
X110900Y65900D02*
D03*
X103441Y66609D02*
D03*
Y67791D02*
D03*
X105500Y67950D02*
D03*
X104150Y67450D02*
D03*
X105500Y66450D02*
D03*
X107600Y66700D02*
D03*
X107500Y67450D02*
D03*
Y67950D02*
D03*
X102650Y69350D02*
D03*
X102300Y70300D02*
D03*
X103700Y74650D02*
D03*
X102050Y74850D02*
D03*
X101700Y74990D02*
D03*
X101950Y73350D02*
D03*
X102300Y75100D02*
D03*
X106750Y76350D02*
D03*
X108250Y73000D02*
D03*
X109750Y73200D02*
D03*
X105409Y71559D02*
D03*
X104819Y71619D02*
D03*
X108992Y71408D02*
D03*
X112000Y71400D02*
D03*
X101600Y76700D02*
D03*
X101700Y76100D02*
D03*
X99690Y74610D02*
D03*
X99600Y75400D02*
D03*
X99350Y76350D02*
D03*
X99700Y79150D02*
D03*
X99100Y78250D02*
D03*
X98600Y78350D02*
D03*
X104700Y78400D02*
D03*
X106050Y76150D02*
D03*
X103400Y79700D02*
D03*
X104000Y76000D02*
D03*
X90600Y83750D02*
D03*
X90747Y81747D02*
D03*
X90167Y80583D02*
D03*
X90150Y77650D02*
D03*
X93450D02*
D03*
X93200Y81500D02*
D03*
X93500Y80650D02*
D03*
X96600Y79750D02*
D03*
X97550Y79300D02*
D03*
X114800Y77200D02*
D03*
X116500Y76950D02*
D03*
X111100Y70600D02*
D03*
X111169Y70169D02*
D03*
X115700Y73300D02*
D03*
Y72000D02*
D03*
X109450Y77100D02*
D03*
X110200Y77300D02*
D03*
X112400Y76150D02*
D03*
X111802Y73448D02*
D03*
X110465Y72215D02*
D03*
Y74385D02*
D03*
X110800Y75750D02*
D03*
X111748Y75752D02*
D03*
X107819Y85431D02*
D03*
X106750Y85800D02*
D03*
X106809Y79009D02*
D03*
X106250Y79600D02*
D03*
X106800Y80200D02*
D03*
X107991Y79009D02*
D03*
X108600Y79600D02*
D03*
X108614Y80214D02*
D03*
X107991Y80291D02*
D03*
X111191Y78909D02*
D03*
X111900Y79600D02*
D03*
X109400D02*
D03*
X110009Y78959D02*
D03*
X110000Y80300D02*
D03*
X109382Y80282D02*
D03*
X109000Y83700D02*
D03*
X107846Y83696D02*
D03*
X108300Y83850D02*
D03*
X109500Y83800D02*
D03*
X109894Y83794D02*
D03*
X113700Y72750D02*
D03*
X112972Y74728D02*
D03*
X115048Y73448D02*
D03*
X115140Y75240D02*
D03*
X64000Y122550D02*
D03*
X63350Y122450D02*
D03*
X63250Y124250D02*
D03*
X64065Y125885D02*
D03*
X64700Y125900D02*
D03*
X66015Y121465D02*
D03*
X66750Y126800D02*
D03*
X59800Y125200D02*
D03*
X61750Y123150D02*
D03*
X61335Y124565D02*
D03*
X59400Y121400D02*
D03*
X45150Y125100D02*
D03*
X47450Y124350D02*
D03*
X50751Y123601D02*
D03*
X49600Y123950D02*
D03*
X49106Y124744D02*
D03*
X49350Y125400D02*
D03*
X50631Y125232D02*
D03*
X53850Y123600D02*
D03*
Y124600D02*
D03*
X53600Y126000D02*
D03*
X47600Y127100D02*
D03*
X44324Y125826D02*
D03*
X44738Y124288D02*
D03*
X44100Y123750D02*
D03*
X38876Y122826D02*
D03*
X39998Y124852D02*
D03*
X39850Y123950D02*
D03*
X41800Y126350D02*
D03*
X41167Y125183D02*
D03*
X34350Y126400D02*
D03*
X32600Y125800D02*
D03*
X34224Y125524D02*
D03*
X33400Y124150D02*
D03*
X33700Y123250D02*
D03*
X32000Y122600D02*
D03*
X32600Y110800D02*
D03*
X34350Y111400D02*
D03*
X32000Y107600D02*
D03*
X33700Y108250D02*
D03*
X34224Y110524D02*
D03*
X32600Y95800D02*
D03*
X34350Y96400D02*
D03*
X32000Y92600D02*
D03*
X33700Y93250D02*
D03*
X33400Y94150D02*
D03*
X34224Y95524D02*
D03*
X32600Y63800D02*
D03*
X34350Y64400D02*
D03*
X32000Y60600D02*
D03*
X33700Y61250D02*
D03*
X34224Y63524D02*
D03*
X32600Y78800D02*
D03*
X34350Y79400D02*
D03*
X32000Y75600D02*
D03*
X33700Y76250D02*
D03*
X33400Y77150D02*
D03*
X34224Y78524D02*
D03*
X32600Y48800D02*
D03*
X34350Y49400D02*
D03*
X32000Y45600D02*
D03*
X33700Y46250D02*
D03*
X34224Y48524D02*
D03*
X38200Y107700D02*
D03*
X38350Y108550D02*
D03*
X40700Y109100D02*
D03*
X40150Y107700D02*
D03*
X44894Y108744D02*
D03*
X44050Y109000D02*
D03*
X42362Y108488D02*
D03*
X42500Y108100D02*
D03*
X41150Y111400D02*
D03*
X48400Y110400D02*
D03*
X49682Y110232D02*
D03*
X49801Y108601D02*
D03*
X48650Y108950D02*
D03*
X52900Y108600D02*
D03*
Y109600D02*
D03*
X52650Y111000D02*
D03*
X48156Y109744D02*
D03*
X47800Y95400D02*
D03*
X49082Y95232D02*
D03*
X49201Y93601D02*
D03*
X48050Y93950D02*
D03*
X52300Y93600D02*
D03*
Y94600D02*
D03*
X52050Y96000D02*
D03*
X47556Y94744D02*
D03*
X49350Y63400D02*
D03*
X50631Y63232D02*
D03*
X50751Y61601D02*
D03*
X49600Y61950D02*
D03*
X53850Y61600D02*
D03*
Y62600D02*
D03*
X53600Y64000D02*
D03*
X49106Y62744D02*
D03*
X49350Y48400D02*
D03*
X50631Y48232D02*
D03*
X50751Y46601D02*
D03*
X49600Y46950D02*
D03*
X53850Y46600D02*
D03*
Y47600D02*
D03*
X53600Y49000D02*
D03*
X49106Y47744D02*
D03*
X49650Y78400D02*
D03*
X50932Y78232D02*
D03*
X51051Y76601D02*
D03*
X49900Y76950D02*
D03*
X54150Y76600D02*
D03*
Y77600D02*
D03*
X53900Y79000D02*
D03*
X49406Y77744D02*
D03*
X43650Y109600D02*
D03*
X61285Y109565D02*
D03*
X61700Y108150D02*
D03*
X59350Y106400D02*
D03*
X59750Y110200D02*
D03*
X65965Y106465D02*
D03*
X63300Y107450D02*
D03*
X64650Y110900D02*
D03*
X63200Y109250D02*
D03*
X63950Y107550D02*
D03*
X64015Y110885D02*
D03*
X61285Y94515D02*
D03*
X61700Y93100D02*
D03*
X59350Y91350D02*
D03*
X59750Y95150D02*
D03*
X66700Y96750D02*
D03*
X65965Y91415D02*
D03*
X63300Y92400D02*
D03*
X64650Y95850D02*
D03*
X63200Y94200D02*
D03*
X63950Y92500D02*
D03*
X64015Y95835D02*
D03*
X39183Y93817D02*
D03*
X39100Y93000D02*
D03*
X41398Y94148D02*
D03*
X41483Y94817D02*
D03*
X47750Y80100D02*
D03*
X39026Y75826D02*
D03*
X44474Y78826D02*
D03*
X41317Y78183D02*
D03*
X40000Y76950D02*
D03*
X40148Y77852D02*
D03*
X44250Y76750D02*
D03*
X44888Y77288D02*
D03*
X45300Y78100D02*
D03*
X47600Y77350D02*
D03*
X41950Y79350D02*
D03*
X43750Y62600D02*
D03*
X41250Y64400D02*
D03*
X44994Y61744D02*
D03*
X44150Y62000D02*
D03*
X42600Y61100D02*
D03*
X42462Y61488D02*
D03*
X40800Y62100D02*
D03*
X38300Y60700D02*
D03*
X38450Y61550D02*
D03*
X40250Y60700D02*
D03*
X41298Y47148D02*
D03*
X39000Y46000D02*
D03*
X39083Y46817D02*
D03*
X41383Y47817D02*
D03*
X67585Y47265D02*
D03*
X65550Y48000D02*
D03*
X64603Y47203D02*
D03*
X63000Y47250D02*
D03*
X64200Y47050D02*
D03*
X74615Y47465D02*
D03*
X72450Y47800D02*
D03*
X71400Y46900D02*
D03*
X69800Y47100D02*
D03*
X69950Y47950D02*
D03*
X70950Y46650D02*
D03*
X68465Y48735D02*
D03*
X66835Y77265D02*
D03*
X67715Y78735D02*
D03*
X73865Y77465D02*
D03*
X62250Y77250D02*
D03*
X63853Y77203D02*
D03*
X64800Y78000D02*
D03*
X63450Y77050D02*
D03*
X69050Y77100D02*
D03*
X71700Y77800D02*
D03*
X70200Y76650D02*
D03*
X70650Y76900D02*
D03*
X69200Y77950D02*
D03*
X67585Y62265D02*
D03*
X68465Y63735D02*
D03*
X74615Y62465D02*
D03*
X63000Y62250D02*
D03*
X64603Y62203D02*
D03*
X65550Y63000D02*
D03*
X64200Y62050D02*
D03*
X69800Y62100D02*
D03*
X72450Y62800D02*
D03*
X70950Y61650D02*
D03*
X71400Y61900D02*
D03*
X69950Y62950D02*
D03*
X82603Y94947D02*
D03*
X82000Y93550D02*
D03*
X82700Y94250D02*
D03*
X82426Y95474D02*
D03*
X85248Y95402D02*
D03*
X85350Y95050D02*
D03*
X82426Y70624D02*
D03*
X82000Y68700D02*
D03*
X82603Y70097D02*
D03*
X82700Y69400D02*
D03*
X85248Y70552D02*
D03*
X85400Y70150D02*
D03*
X103800Y75200D02*
D03*
X102450Y73250D02*
D03*
X104000Y73400D02*
D03*
X102400Y72650D02*
D03*
X103750Y72900D02*
D03*
X104350Y70350D02*
D03*
X106850Y70400D02*
D03*
X106800Y71950D02*
D03*
X107250Y71600D02*
D03*
X107350Y70450D02*
D03*
X108362Y70438D02*
D03*
X108165Y71535D02*
D03*
X108400Y72050D02*
D03*
X109600Y72400D02*
D03*
X108409Y74591D02*
D03*
X109600Y75200D02*
D03*
X109650Y75700D02*
D03*
X108250Y76000D02*
D03*
X107350Y77600D02*
D03*
X107100Y76300D02*
D03*
X105550Y76400D02*
D03*
X104819Y77569D02*
D03*
X104400Y77600D02*
D03*
X104015Y76465D02*
D03*
X104000Y73950D02*
D03*
X69150Y107750D02*
D03*
X68700Y101679D02*
D03*
X101700Y77250D02*
D03*
X110950Y74550D02*
D03*
X100950Y77450D02*
D03*
X104031Y71732D02*
D03*
X66700Y111800D02*
D03*
X46250Y124600D02*
D03*
X46400Y77600D02*
D03*
M02*
