%FSLAX24Y24*%
%MOIN*%
G70*
G01*
G75*
G04 Layer_Physical_Order=2*
%ADD10C,0.0160*%
%ADD11C,0.0100*%
%ADD12C,0.0750*%
%ADD13C,0.0700*%
%ADD14C,0.0591*%
%ADD15R,0.0591X0.0591*%
%ADD16C,0.0080*%
D11*
X25600Y42245D02*
Y42700D01*
X25145D02*
X25600D01*
X26055D01*
X25600D02*
Y43155D01*
Y54045D02*
Y54500D01*
X25145D02*
X25600D01*
X26055D01*
X25600D02*
Y54955D01*
X21700Y62870D02*
Y63300D01*
X21270D02*
X21700D01*
X22130D01*
X21700D02*
Y63730D01*
Y67870D02*
Y68300D01*
X21270D02*
X21700D01*
Y68730D01*
Y68300D02*
X22130D01*
X26700Y62870D02*
Y63300D01*
X26270D02*
X26700D01*
Y63730D01*
Y63300D02*
X27130D01*
X26700Y67870D02*
Y68300D01*
X26270D02*
X26700D01*
X27130D01*
X26700D02*
Y68730D01*
X36425Y48400D02*
X36800D01*
Y48025D02*
Y48400D01*
Y48775D01*
Y48400D02*
X37175D01*
X37425D02*
X37800D01*
Y48025D02*
Y48400D01*
Y48775D01*
Y48400D02*
X38175D01*
X28900Y62870D02*
Y63300D01*
X33900Y62870D02*
Y63300D01*
X28470D02*
X28900D01*
X29330D01*
X28900D02*
Y63730D01*
X33470Y63300D02*
X33900D01*
X34330D01*
X33900D02*
Y63730D01*
X36800Y57025D02*
Y57400D01*
X36425D02*
X36800D01*
Y57775D01*
X28900Y67870D02*
Y68300D01*
X28470D02*
X28900D01*
Y68730D01*
Y68300D02*
X29330D01*
X33470D02*
X33900D01*
Y67870D02*
Y68300D01*
Y68730D01*
Y68300D02*
X34330D01*
X36800Y57400D02*
X37175D01*
X37800Y57025D02*
Y57400D01*
X37425D02*
X37800D01*
X38175D01*
X37800D02*
Y57775D01*
X39700Y46600D02*
Y46000D01*
X40043D01*
X40451Y46400D02*
Y46000D01*
Y46314D02*
X40394Y46371D01*
X40337Y46400D01*
X40251D01*
X40194Y46371D01*
X40137Y46314D01*
X40108Y46229D01*
Y46171D01*
X40137Y46086D01*
X40194Y46029D01*
X40251Y46000D01*
X40337D01*
X40394Y46029D01*
X40451Y46086D01*
X40640Y46400D02*
X40811Y46000D01*
X40983Y46400D02*
X40811Y46000D01*
X40754Y45886D01*
X40697Y45829D01*
X40640Y45800D01*
X40611D01*
X41083Y46229D02*
X41425D01*
Y46286D01*
X41397Y46343D01*
X41368Y46371D01*
X41311Y46400D01*
X41225D01*
X41168Y46371D01*
X41111Y46314D01*
X41083Y46229D01*
Y46171D01*
X41111Y46086D01*
X41168Y46029D01*
X41225Y46000D01*
X41311D01*
X41368Y46029D01*
X41425Y46086D01*
X41554Y46400D02*
Y46000D01*
Y46229D02*
X41582Y46314D01*
X41640Y46371D01*
X41697Y46400D01*
X41782D01*
X42337Y46457D02*
Y46486D01*
X42365Y46543D01*
X42394Y46571D01*
X42451Y46600D01*
X42565D01*
X42622Y46571D01*
X42651Y46543D01*
X42679Y46486D01*
Y46428D01*
X42651Y46371D01*
X42594Y46286D01*
X42308Y46000D01*
X42708D01*
D12*
X24100Y45700D02*
D03*
X22100Y42700D02*
D03*
X27350Y44200D02*
D03*
X25850Y45700D02*
D03*
X25600Y42700D02*
D03*
X24100Y57500D02*
D03*
X22100Y54500D02*
D03*
X27350Y56000D02*
D03*
X25850Y57500D02*
D03*
X25600Y54500D02*
D03*
D13*
X24200Y65800D02*
D03*
X26700Y63300D02*
D03*
X21700D02*
D03*
Y68300D02*
D03*
X26700D02*
D03*
X31400Y65800D02*
D03*
X33900Y63300D02*
D03*
X28900D02*
D03*
Y68300D02*
D03*
X33900D02*
D03*
D14*
X37800Y48400D02*
D03*
X36800D02*
D03*
X37800Y49400D02*
D03*
X36800D02*
D03*
X37800Y50400D02*
D03*
X36800D02*
D03*
X37800Y51400D02*
D03*
X36800D02*
D03*
X37800Y52400D02*
D03*
X36800D02*
D03*
X37800Y53400D02*
D03*
X36800D02*
D03*
X37800Y54400D02*
D03*
X36800D02*
D03*
X37800Y55400D02*
D03*
X36800D02*
D03*
X37800Y56400D02*
D03*
X36800D02*
D03*
X37800Y57400D02*
D03*
D15*
X36800D02*
D03*
D16*
X22595Y42700D02*
G03*
X22595Y42700I-495J0D01*
G01*
X26095D02*
G03*
X26095Y42700I-495J0D01*
G01*
X22595Y54500D02*
G03*
X22595Y54500I-495J0D01*
G01*
X24595Y45700D02*
G03*
X24595Y45700I-495J0D01*
G01*
X26095Y54500D02*
G03*
X26095Y54500I-495J0D01*
G01*
X26345Y45700D02*
G03*
X26345Y45700I-495J0D01*
G01*
X27845Y44200D02*
G03*
X27845Y44200I-495J0D01*
G01*
X22170Y63300D02*
G03*
X22170Y63300I-470J0D01*
G01*
X24595Y57500D02*
G03*
X24595Y57500I-495J0D01*
G01*
X26345D02*
G03*
X26345Y57500I-495J0D01*
G01*
X22170Y68300D02*
G03*
X22170Y68300I-470J0D01*
G01*
X24670Y65800D02*
G03*
X24670Y65800I-470J0D01*
G01*
X27845Y56000D02*
G03*
X27845Y56000I-495J0D01*
G01*
X27170Y63300D02*
G03*
X27170Y63300I-470J0D01*
G01*
Y68300D02*
G03*
X27170Y68300I-470J0D01*
G01*
X37215Y48400D02*
G03*
X37215Y48400I-415J0D01*
G01*
Y49400D02*
G03*
X37215Y49400I-415J0D01*
G01*
Y50400D02*
G03*
X37215Y50400I-415J0D01*
G01*
Y51400D02*
G03*
X37215Y51400I-415J0D01*
G01*
X38215Y48400D02*
G03*
X38215Y48400I-415J0D01*
G01*
Y49400D02*
G03*
X38215Y49400I-415J0D01*
G01*
Y50400D02*
G03*
X38215Y50400I-415J0D01*
G01*
Y51400D02*
G03*
X38215Y51400I-415J0D01*
G01*
X37215Y52400D02*
G03*
X37215Y52400I-415J0D01*
G01*
Y53400D02*
G03*
X37215Y53400I-415J0D01*
G01*
X38215Y52400D02*
G03*
X38215Y52400I-415J0D01*
G01*
Y53400D02*
G03*
X38215Y53400I-415J0D01*
G01*
X29370Y63300D02*
G03*
X29370Y63300I-470J0D01*
G01*
X34370D02*
G03*
X34370Y63300I-470J0D01*
G01*
X37215Y54400D02*
G03*
X37215Y54400I-415J0D01*
G01*
X31870Y65800D02*
G03*
X31870Y65800I-470J0D01*
G01*
X37215Y55400D02*
G03*
X37215Y55400I-415J0D01*
G01*
Y56400D02*
G03*
X37215Y56400I-415J0D01*
G01*
X29370Y68300D02*
G03*
X29370Y68300I-470J0D01*
G01*
X34370D02*
G03*
X34370Y68300I-470J0D01*
G01*
X38215Y54400D02*
G03*
X38215Y54400I-415J0D01*
G01*
Y55400D02*
G03*
X38215Y55400I-415J0D01*
G01*
Y56400D02*
G03*
X38215Y56400I-415J0D01*
G01*
Y57400D02*
G03*
X38215Y57400I-415J0D01*
G01*
X21840Y40000D02*
Y42279D01*
X21920Y40000D02*
Y42239D01*
X20670Y42240D02*
X21917D01*
X22000Y40000D02*
Y42215D01*
X22080Y40000D02*
Y42205D01*
X22160Y40000D02*
Y42209D01*
X20670Y42320D02*
X21783D01*
X20670Y42480D02*
X21657D01*
X20670Y42400D02*
X21706D01*
X21680Y40000D02*
Y42438D01*
X20670Y42560D02*
X21625D01*
X21760Y40000D02*
Y42340D01*
X22240Y40000D02*
Y42225D01*
X22320Y40000D02*
Y42257D01*
X22283Y42240D02*
X25417D01*
X22400Y40000D02*
Y42306D01*
X22480Y40000D02*
Y42383D01*
X22417Y42320D02*
X25283D01*
X22543Y42480D02*
X25157D01*
X22494Y42400D02*
X25206D01*
X22560Y40000D02*
Y42517D01*
X23680Y40000D02*
Y45438D01*
X23760Y40000D02*
Y45340D01*
X20670Y42640D02*
X21609D01*
X20670Y42720D02*
X21605D01*
X20670Y42800D02*
X21615D01*
X20670Y42880D02*
X21639D01*
X20670Y42960D02*
X21679D01*
X20670Y43040D02*
X21740D01*
X20670Y43120D02*
X21838D01*
X20670Y45600D02*
X23615D01*
X20670Y45520D02*
X23639D01*
X20670Y45680D02*
X23605D01*
X20670Y45760D02*
X23609D01*
X20670Y45840D02*
X23625D01*
X22575Y42560D02*
X25125D01*
X22561Y42880D02*
X25139D01*
X22521Y42960D02*
X25179D01*
X22591Y42640D02*
X25109D01*
X22595Y42720D02*
X25105D01*
X22585Y42800D02*
X25115D01*
X20670Y45280D02*
X23838D01*
X20670Y45440D02*
X23679D01*
X20670Y45360D02*
X23740D01*
X22460Y43040D02*
X25240D01*
X22362Y43120D02*
X25338D01*
X20670Y45920D02*
X23657D01*
X20670Y46000D02*
X23706D01*
X23920Y40000D02*
Y45239D01*
X24000Y40000D02*
Y45215D01*
X24080Y40000D02*
Y45205D01*
X24160Y40000D02*
Y45209D01*
X25120Y40000D02*
Y42579D01*
X25200Y40000D02*
Y42408D01*
X23840Y40000D02*
Y45279D01*
X24240Y40000D02*
Y45225D01*
X24320Y40000D02*
Y45257D01*
X24400Y40000D02*
Y45306D01*
X24480Y40000D02*
Y45383D01*
X24560Y40000D02*
Y45517D01*
X25360Y40000D02*
Y42267D01*
X25440Y40000D02*
Y42232D01*
X25520Y40000D02*
Y42212D01*
X25600Y40000D02*
Y42205D01*
X25680Y40000D02*
Y42212D01*
X25760Y40000D02*
Y42232D01*
X25280Y40000D02*
Y42322D01*
X25840Y40000D02*
Y42267D01*
X25920Y40000D02*
Y42322D01*
X26000Y40000D02*
Y42408D01*
X26080Y40000D02*
Y42579D01*
X26160Y40000D02*
Y45314D01*
X26240Y40000D02*
Y45395D01*
X24460Y45360D02*
X25490D01*
X24561Y45520D02*
X25389D01*
X24521Y45440D02*
X25429D01*
X25440Y43168D02*
Y45423D01*
X24585Y45600D02*
X25365D01*
X25520Y43188D02*
Y45331D01*
X24575Y45840D02*
X25375D01*
X24543Y45920D02*
X25407D01*
X24494Y46000D02*
X25456D01*
X25360Y43133D02*
Y45630D01*
X24595Y45680D02*
X25355D01*
X24591Y45760D02*
X25359D01*
X25840Y43133D02*
Y45205D01*
X25600Y43195D02*
Y45273D01*
X24362Y45280D02*
X25588D01*
X25680Y43188D02*
Y45235D01*
X26000Y42992D02*
Y45228D01*
X26080Y42821D02*
Y45262D01*
X25760Y43168D02*
Y45213D01*
X25920Y43078D02*
Y45210D01*
X20670Y40000D02*
Y69330D01*
X20720Y40000D02*
Y69330D01*
X21280Y40000D02*
Y63089D01*
X21360Y40000D02*
Y62976D01*
X21440Y40000D02*
Y62908D01*
X21520Y40000D02*
Y62866D01*
X20800Y40000D02*
Y69330D01*
X20880Y40000D02*
Y69330D01*
X20960Y40000D02*
Y69330D01*
X21040Y40000D02*
Y69330D01*
X21120Y40000D02*
Y69330D01*
X21200Y40000D02*
Y69330D01*
X21680Y42962D02*
Y54238D01*
X21760Y43060D02*
Y54140D01*
X21840Y43121D02*
Y54079D01*
X22560Y42883D02*
Y54317D01*
X22400Y43094D02*
Y54106D01*
X22480Y43017D02*
Y54183D01*
X21600Y40000D02*
Y62841D01*
X22640Y40000D02*
Y69330D01*
X22720Y40000D02*
Y69330D01*
X22800Y40000D02*
Y69330D01*
X22880Y40000D02*
Y69330D01*
X22960Y40000D02*
Y69330D01*
X23040Y40000D02*
Y69330D01*
X21920Y43161D02*
Y54039D01*
X20670Y54160D02*
X21740D01*
X20670Y54080D02*
X21838D01*
X22000Y43185D02*
Y54015D01*
X22080Y43195D02*
Y54005D01*
X22160Y43191D02*
Y54009D01*
X20670Y54240D02*
X21679D01*
X20670Y54400D02*
X21615D01*
X20670Y54320D02*
X21639D01*
X20670Y54480D02*
X21605D01*
X20670Y54560D02*
X21609D01*
X20670Y54640D02*
X21625D01*
X22240Y43175D02*
Y54025D01*
X20670Y46080D02*
X23783D01*
X20670Y46160D02*
X23917D01*
X22320Y43143D02*
Y54057D01*
X22460Y54160D02*
X25240D01*
X22362Y54080D02*
X25338D01*
X22561Y54320D02*
X25139D01*
X22521Y54240D02*
X25179D01*
X22585Y54400D02*
X25115D01*
X22595Y54480D02*
X25105D01*
X22591Y54560D02*
X25109D01*
X22575Y54640D02*
X25125D01*
X23120Y40000D02*
Y69330D01*
X23680Y45962D02*
Y57238D01*
X24560Y45883D02*
Y57317D01*
X23760Y46060D02*
Y57140D01*
X24480Y46017D02*
Y57183D01*
X23200Y40000D02*
Y69330D01*
X23280Y40000D02*
Y69330D01*
X23360Y40000D02*
Y69330D01*
X23440Y40000D02*
Y69330D01*
X23520Y40000D02*
Y69330D01*
X23600Y40000D02*
Y69330D01*
X25120Y42821D02*
Y54379D01*
X25200Y42992D02*
Y54208D01*
X25280Y43078D02*
Y54122D01*
X25360Y45770D02*
Y54067D01*
X25440Y45977D02*
Y54032D01*
X25520Y46069D02*
Y54012D01*
X24640Y40000D02*
Y65635D01*
X24720Y40000D02*
Y69330D01*
X24800Y40000D02*
Y69330D01*
X24880Y40000D02*
Y69330D01*
X24960Y40000D02*
Y69330D01*
X25040Y40000D02*
Y69330D01*
X26240Y46005D02*
Y57195D01*
X23920Y46161D02*
Y57039D01*
X24080Y46195D02*
Y57005D01*
X24160Y46191D02*
Y57009D01*
X24417Y46080D02*
X25533D01*
X25600Y46127D02*
Y54005D01*
X23840Y46121D02*
Y57079D01*
X24000Y46185D02*
Y57015D01*
X24240Y46175D02*
Y57025D01*
X24400Y46094D02*
Y57106D01*
X24320Y46143D02*
Y57057D01*
X25120Y54621D02*
Y69330D01*
X24283Y46160D02*
X25667D01*
X25680Y46165D02*
Y54012D01*
X25760Y46187D02*
Y54032D01*
X26000Y46172D02*
Y54208D01*
X25840Y46195D02*
Y54067D01*
X25920Y46190D02*
Y54122D01*
X26080Y46138D02*
Y54379D01*
X26160Y46086D02*
Y57114D01*
X26080Y54621D02*
Y57062D01*
X20670Y40000D02*
X38400D01*
X20670Y40080D02*
X38400D01*
X20670Y40160D02*
X38400D01*
X20670Y40240D02*
X38400D01*
X20670Y40320D02*
X38400D01*
X20670Y40400D02*
X38400D01*
X20670Y40480D02*
X38400D01*
X20670Y40560D02*
X38400D01*
X20670Y40640D02*
X38400D01*
X20670Y40720D02*
X38400D01*
X20670Y40800D02*
X38400D01*
X20670Y40880D02*
X38400D01*
X20670Y40960D02*
X38400D01*
X20670Y41040D02*
X38400D01*
X20670Y41120D02*
X38400D01*
X20670Y41200D02*
X38400D01*
X20670Y41280D02*
X38400D01*
X20670Y41360D02*
X38400D01*
X20670Y41440D02*
X38400D01*
X20670Y41520D02*
X38400D01*
X20670Y41600D02*
X38400D01*
X20670Y41680D02*
X38400D01*
X20670Y41760D02*
X38400D01*
X20670Y41840D02*
X38400D01*
X20670Y41920D02*
X38400D01*
X20670Y43760D02*
X27123D01*
X20670Y43920D02*
X26942D01*
X20670Y43840D02*
X27010D01*
X20670Y44000D02*
X26897D01*
X20670Y44160D02*
X26857D01*
X20670Y44080D02*
X26870D01*
X20670Y44240D02*
X26857D01*
X20670Y44320D02*
X26870D01*
X20670Y44400D02*
X26897D01*
X20670Y44480D02*
X26942D01*
X20670Y44560D02*
X27010D01*
X20670Y44640D02*
X27123D01*
X20670Y42000D02*
X38400D01*
X20670Y42080D02*
X38400D01*
X20670Y42160D02*
X38400D01*
X20670Y43200D02*
X38400D01*
X20670Y43280D02*
X38400D01*
X20670Y43360D02*
X38400D01*
X20670Y43440D02*
X38400D01*
X20670Y43520D02*
X38400D01*
X20670Y43600D02*
X38400D01*
X20670Y43680D02*
X38400D01*
X20670Y44720D02*
X38400D01*
X20670Y44800D02*
X38400D01*
X20670Y44880D02*
X38400D01*
X25783Y42240D02*
X38400D01*
X25917Y42320D02*
X38400D01*
X25994Y42400D02*
X38400D01*
X26043Y42480D02*
X38400D01*
X26075Y42560D02*
X38400D01*
X26091Y42640D02*
X38400D01*
X26320Y40000D02*
Y45545D01*
X26880Y40000D02*
Y44045D01*
X26960Y40000D02*
Y43895D01*
X27040Y40000D02*
Y43814D01*
X26021Y42960D02*
X38400D01*
X25960Y43040D02*
X38400D01*
X25862Y43120D02*
X38400D01*
X26095Y42720D02*
X38400D01*
X26085Y42800D02*
X38400D01*
X26061Y42880D02*
X38400D01*
X20670Y44960D02*
X38400D01*
X20670Y45040D02*
X38400D01*
X20670Y45120D02*
X38400D01*
X20670Y45200D02*
X38400D01*
X26112Y45280D02*
X38400D01*
X26210Y45360D02*
X38400D01*
X26271Y45440D02*
X38400D01*
X26311Y45520D02*
X38400D01*
X26335Y45600D02*
X38400D01*
X26293Y45920D02*
X38400D01*
X26345Y45680D02*
X38400D01*
X26341Y45760D02*
X38400D01*
X26325Y45840D02*
X38400D01*
X20670Y46240D02*
X38400D01*
X20670Y46320D02*
X38400D01*
X20670Y46400D02*
X38400D01*
X26244Y46000D02*
X38400D01*
X26167Y46080D02*
X38400D01*
X26033Y46160D02*
X38400D01*
X20670Y46480D02*
X38400D01*
X20670Y46560D02*
X38400D01*
X20670Y46640D02*
X38400D01*
X20670Y46720D02*
X38400D01*
X20670Y46800D02*
X38400D01*
X20670Y46880D02*
X38400D01*
X20670Y46960D02*
X38400D01*
X20670Y47040D02*
X38400D01*
X20670Y47120D02*
X38400D01*
X20670Y47200D02*
X38400D01*
X20670Y47280D02*
X38400D01*
X20670Y47360D02*
X38400D01*
X20670Y47440D02*
X38400D01*
X20670Y48160D02*
X36461D01*
X20670Y48320D02*
X36393D01*
X20670Y48240D02*
X36417D01*
X20670Y48400D02*
X36385D01*
X20670Y48480D02*
X36393D01*
X20670Y48560D02*
X36417D01*
X20670Y48640D02*
X36461D01*
X20670Y49200D02*
X36436D01*
X20670Y49120D02*
X36493D01*
X20670Y49280D02*
X36402D01*
X20670Y49360D02*
X36387D01*
X20670Y49440D02*
X36387D01*
X20670Y47520D02*
X38400D01*
X20670Y47600D02*
X38400D01*
X20670Y47680D02*
X38400D01*
X20670Y47760D02*
X38400D01*
X20670Y47840D02*
X38400D01*
X20670Y47920D02*
X38400D01*
X20670Y48000D02*
X36688D01*
X20670Y48080D02*
X36535D01*
X20670Y48720D02*
X36535D01*
X20670Y48800D02*
X36688D01*
X20670Y48880D02*
X38400D01*
X20670Y49040D02*
X36593D01*
X20670Y48960D02*
X38400D01*
X20670Y49520D02*
X36402D01*
X20670Y49600D02*
X36436D01*
X20670Y50160D02*
X36461D01*
X20670Y50240D02*
X36417D01*
X20670Y50320D02*
X36393D01*
X20670Y50400D02*
X36385D01*
X20670Y50480D02*
X36393D01*
X20670Y50560D02*
X36417D01*
X20670Y50640D02*
X36461D01*
X20670Y51280D02*
X36402D01*
X20670Y51360D02*
X36387D01*
X20670Y51440D02*
X36387D01*
X20670Y49680D02*
X36493D01*
X20670Y49760D02*
X36593D01*
X20670Y49840D02*
X38400D01*
X20670Y49920D02*
X38400D01*
X20670Y50080D02*
X36535D01*
X20670Y50000D02*
X36688D01*
X20670Y50720D02*
X36535D01*
X20670Y50800D02*
X36688D01*
X20670Y50880D02*
X38400D01*
X20670Y51040D02*
X36593D01*
X20670Y50960D02*
X38400D01*
X20670Y51200D02*
X36436D01*
X20670Y51120D02*
X36493D01*
X26320Y45855D02*
Y57345D01*
X20670Y52320D02*
X36393D01*
X20670Y52400D02*
X36385D01*
X26880Y44355D02*
Y55845D01*
X26960Y44505D02*
Y55695D01*
X27040Y44586D02*
Y55614D01*
X26400Y40000D02*
Y62938D01*
X26480Y40000D02*
Y62885D01*
X26560Y40000D02*
Y62851D01*
X26640Y40000D02*
Y62834D01*
X26720Y40000D02*
Y62830D01*
X26800Y40000D02*
Y62841D01*
X20670Y51520D02*
X36402D01*
X20670Y51600D02*
X36436D01*
X20670Y51680D02*
X36493D01*
X20670Y51760D02*
X36593D01*
X20670Y51840D02*
X38400D01*
X20670Y51920D02*
X38400D01*
X20670Y52000D02*
X36688D01*
X20670Y52160D02*
X36461D01*
X20670Y52080D02*
X36535D01*
X20670Y52480D02*
X36393D01*
X20670Y52240D02*
X36417D01*
X20670Y52560D02*
X36417D01*
X20670Y52640D02*
X36461D01*
X20670Y53200D02*
X36436D01*
X20670Y53360D02*
X36387D01*
X20670Y53280D02*
X36402D01*
X20670Y53440D02*
X36387D01*
X20670Y53520D02*
X36402D01*
X20670Y53600D02*
X36436D01*
X25960Y54160D02*
X36461D01*
X26061Y54320D02*
X36393D01*
X26021Y54240D02*
X36417D01*
X26085Y54400D02*
X36385D01*
X26095Y54480D02*
X36393D01*
X26091Y54560D02*
X36417D01*
X20670Y52720D02*
X36535D01*
X20670Y52800D02*
X36688D01*
X20670Y52880D02*
X38400D01*
X20670Y52960D02*
X38400D01*
X20670Y53120D02*
X36493D01*
X20670Y53040D02*
X36593D01*
X20670Y53680D02*
X36493D01*
X20670Y53760D02*
X36593D01*
X20670Y53840D02*
X38400D01*
X20670Y54000D02*
X36688D01*
X20670Y53920D02*
X38400D01*
X26075Y54640D02*
X36461D01*
X25862Y54080D02*
X36535D01*
X20670Y54720D02*
X21657D01*
X20670Y54800D02*
X21706D01*
X20670Y54880D02*
X21783D01*
X21680Y54762D02*
Y62830D01*
X21760Y54860D02*
Y62834D01*
X20670Y54960D02*
X21917D01*
X20670Y62880D02*
X21489D01*
X21840Y54921D02*
Y62851D01*
X21920Y54961D02*
Y62885D01*
X22000Y54985D02*
Y62938D01*
X20670Y57040D02*
X23917D01*
X20670Y57200D02*
X23706D01*
X20670Y57120D02*
X23783D01*
X20670Y57280D02*
X23657D01*
X20670Y57440D02*
X23609D01*
X20670Y57360D02*
X23625D01*
X20670Y57520D02*
X23605D01*
X20670Y57600D02*
X23615D01*
X20670Y57680D02*
X23639D01*
X20670Y57760D02*
X23679D01*
X20670Y57840D02*
X23740D01*
X20670Y57920D02*
X23838D01*
X20670Y62960D02*
X21376D01*
X20670Y63120D02*
X21266D01*
X20670Y63040D02*
X21308D01*
X20670Y63200D02*
X21241D01*
X20670Y63280D02*
X21230D01*
X20670Y63360D02*
X21234D01*
X20670Y63440D02*
X21251D01*
X20670Y63520D02*
X21285D01*
X20670Y63600D02*
X21338D01*
X20670Y63680D02*
X21423D01*
X20670Y63760D02*
X21604D01*
X21796D02*
X26604D01*
X21911Y62880D02*
X26489D01*
X22025Y62960D02*
X26376D01*
X21977Y63680D02*
X26423D01*
X20670Y65360D02*
X24035D01*
X20670Y65520D02*
X23823D01*
X20670Y65440D02*
X23898D01*
X20670Y65680D02*
X23746D01*
X20670Y65600D02*
X23775D01*
X20670Y65760D02*
X23732D01*
X20670Y65840D02*
X23732D01*
X22494Y54800D02*
X25206D01*
X22417Y54880D02*
X25283D01*
X22283Y54960D02*
X25417D01*
X22543Y54720D02*
X25157D01*
X25360Y54933D02*
Y57430D01*
X24575Y57360D02*
X25375D01*
X22160Y54991D02*
Y63204D01*
X22080Y54995D02*
Y63023D01*
X24591Y57440D02*
X25359D01*
X24595Y57520D02*
X25355D01*
X24585Y57600D02*
X25365D01*
X25680Y54988D02*
Y57035D01*
X24283Y57040D02*
X25667D01*
X25760Y54968D02*
Y57013D01*
X26000Y54792D02*
Y57028D01*
X25840Y54933D02*
Y57005D01*
X25920Y54878D02*
Y57010D01*
X24417Y57120D02*
X25533D01*
X24543Y57280D02*
X25407D01*
X24494Y57200D02*
X25456D01*
X25440Y54968D02*
Y57223D01*
X25520Y54988D02*
Y57131D01*
X25600Y54995D02*
Y57073D01*
X24000Y57985D02*
Y65375D01*
X24080Y57995D02*
Y65346D01*
X24160Y57991D02*
Y65332D01*
X24561Y57680D02*
X25389D01*
X24240Y57975D02*
Y65332D01*
X24320Y57943D02*
Y65346D01*
X23760Y57860D02*
Y65635D01*
X23840Y57921D02*
Y65498D01*
X23920Y57961D02*
Y65423D01*
X24560Y57683D02*
Y65498D01*
X24400Y57894D02*
Y65375D01*
X24480Y57817D02*
Y65423D01*
X24362Y57920D02*
X25588D01*
X22134Y63120D02*
X26266D01*
X22092Y63040D02*
X26308D01*
X26320Y57655D02*
Y63023D01*
X24521Y57760D02*
X25429D01*
X24460Y57840D02*
X25490D01*
X22149Y63440D02*
X26251D01*
X22115Y63520D02*
X26285D01*
X22062Y63600D02*
X26338D01*
X26240Y57805D02*
Y63204D01*
X22159Y63200D02*
X26241D01*
X22170Y63280D02*
X26230D01*
X22166Y63360D02*
X26234D01*
X21440Y63692D02*
Y67908D01*
X21520Y63734D02*
Y67866D01*
X20670Y67840D02*
X21604D01*
X21600Y63759D02*
Y67841D01*
X21680Y63770D02*
Y67830D01*
X21760Y63766D02*
Y67834D01*
X20670Y67920D02*
X21423D01*
X20670Y68080D02*
X21285D01*
X20670Y68000D02*
X21338D01*
X21280Y63511D02*
Y68089D01*
X21360Y63625D02*
Y67976D01*
X20670Y65920D02*
X23746D01*
X20670Y66000D02*
X23775D01*
X20670Y66080D02*
X23823D01*
X21840Y63749D02*
Y67851D01*
X20670Y66160D02*
X23898D01*
X20670Y66240D02*
X24035D01*
X21920Y63715D02*
Y67885D01*
X21796Y67840D02*
X26604D01*
X22000Y63662D02*
Y67938D01*
X22080Y63577D02*
Y68023D01*
X22062Y68000D02*
X26338D01*
X21977Y67920D02*
X26423D01*
X20670Y68160D02*
X21251D01*
X20670Y68240D02*
X21234D01*
X20670Y68320D02*
X21230D01*
X20670Y68400D02*
X21241D01*
X20670Y68480D02*
X21266D01*
X20670Y68560D02*
X21308D01*
X21280Y68511D02*
Y69330D01*
X20670Y68640D02*
X21376D01*
X20670Y68720D02*
X21489D01*
X21360Y68625D02*
Y69330D01*
X21440Y68692D02*
Y69330D01*
X21520Y68734D02*
Y69330D01*
X22092Y68560D02*
X26308D01*
X22025Y68640D02*
X26376D01*
X21911Y68720D02*
X26489D01*
X21600Y68759D02*
Y69330D01*
X21680Y68770D02*
Y69330D01*
X21760Y68766D02*
Y69330D01*
X22000Y68662D02*
Y69330D01*
X22080Y68577D02*
Y69330D01*
X21840Y68749D02*
Y69330D01*
X21920Y68715D02*
Y69330D01*
X22320Y54943D02*
Y69330D01*
X22160Y63396D02*
Y68204D01*
X22240Y54975D02*
Y69330D01*
X22560Y54683D02*
Y69330D01*
X22400Y54894D02*
Y69330D01*
X22480Y54817D02*
Y69330D01*
X25200Y54792D02*
Y69330D01*
X23680Y57762D02*
Y69330D01*
X25280Y54878D02*
Y69330D01*
X25360Y57570D02*
Y69330D01*
X25440Y57777D02*
Y69330D01*
X25520Y57869D02*
Y69330D01*
X25600Y57927D02*
Y69330D01*
X26240Y63396D02*
Y68204D01*
X26320Y63577D02*
Y68023D01*
X26400Y63662D02*
Y67938D01*
X26480Y63715D02*
Y67885D01*
X26560Y63749D02*
Y67851D01*
X25680Y57965D02*
Y69330D01*
X25760Y57987D02*
Y69330D01*
X25840Y57995D02*
Y69330D01*
X26080Y57938D02*
Y69330D01*
X26160Y57886D02*
Y69330D01*
X25920Y57990D02*
Y69330D01*
X26000Y57972D02*
Y69330D01*
X23760Y65965D02*
Y69330D01*
X22160Y68396D02*
Y69330D01*
X23840Y66102D02*
Y69330D01*
X23920Y66177D02*
Y69330D01*
X24000Y66225D02*
Y69330D01*
X24080Y66254D02*
Y69330D01*
X24320Y66254D02*
Y69330D01*
X24160Y66268D02*
Y69330D01*
X24240Y66268D02*
Y69330D01*
X24560Y66102D02*
Y69330D01*
X24400Y66225D02*
Y69330D01*
X24480Y66177D02*
Y69330D01*
X22115Y68080D02*
X26285D01*
X22166Y68240D02*
X26234D01*
X22149Y68160D02*
X26251D01*
X22170Y68320D02*
X26230D01*
X22159Y68400D02*
X26241D01*
X24640Y65965D02*
Y69330D01*
X26240Y68396D02*
Y69330D01*
X22134Y68480D02*
X26266D01*
X26320Y68577D02*
Y69330D01*
X26400Y68662D02*
Y69330D01*
X26480Y68715D02*
Y69330D01*
X26560Y68749D02*
Y69330D01*
X20670Y55520D02*
X27229D01*
X20670Y55680D02*
X26972D01*
X20670Y55600D02*
X27058D01*
X20670Y55760D02*
X26917D01*
X20670Y55920D02*
X26862D01*
X20670Y55840D02*
X26882D01*
X20670Y56000D02*
X26855D01*
X20670Y56080D02*
X26862D01*
X20670Y56160D02*
X26882D01*
X20670Y56240D02*
X26917D01*
X20670Y56320D02*
X26972D01*
X20670Y56400D02*
X27058D01*
X20670Y55040D02*
X36593D01*
X20670Y55200D02*
X36436D01*
X20670Y55120D02*
X36493D01*
X20670Y55280D02*
X36402D01*
X20670Y55360D02*
X36387D01*
X20670Y55440D02*
X36387D01*
X20670Y56480D02*
X27229D01*
X20670Y56560D02*
X36417D01*
X20670Y56640D02*
X36461D01*
X20670Y56720D02*
X36535D01*
X20670Y56800D02*
X36688D01*
X20670Y56880D02*
X38400D01*
X20670Y56960D02*
X38400D01*
X20670Y58000D02*
X38400D01*
X20670Y58080D02*
X38400D01*
X20670Y58160D02*
X38400D01*
X20670Y58240D02*
X38400D01*
X20670Y58320D02*
X38400D01*
X20670Y58400D02*
X38400D01*
X20670Y58480D02*
X38400D01*
X20670Y58560D02*
X38400D01*
X20670Y58640D02*
X38400D01*
X20670Y58720D02*
X38400D01*
X20670Y58800D02*
X38400D01*
X20670Y58880D02*
X38400D01*
X20670Y58960D02*
X38400D01*
X20670Y59040D02*
X38400D01*
X20670Y59120D02*
X38400D01*
X20670Y59200D02*
X38400D01*
X20670Y59280D02*
X38400D01*
X20670Y59360D02*
X38400D01*
X20670Y59440D02*
X38400D01*
X20670Y59520D02*
X38400D01*
X20670Y59600D02*
X38400D01*
X20670Y59680D02*
X38400D01*
X20670Y59760D02*
X38400D01*
X20670Y59840D02*
X38400D01*
X20670Y59920D02*
X38400D01*
X26043Y54720D02*
X36535D01*
X26033Y57040D02*
X36385D01*
X26167Y57120D02*
X36385D01*
X26244Y57200D02*
X36385D01*
X26293Y57280D02*
X36385D01*
X26325Y57360D02*
X36385D01*
X26311Y57680D02*
X36385D01*
X26271Y57760D02*
X36385D01*
X26341Y57440D02*
X36385D01*
X26345Y57520D02*
X36385D01*
X26335Y57600D02*
X36385D01*
X25917Y54880D02*
X38400D01*
X25783Y54960D02*
X38400D01*
X20670Y60000D02*
X38400D01*
X25994Y54800D02*
X36688D01*
X26210Y57840D02*
X38400D01*
X26112Y57920D02*
X38400D01*
X20670Y60080D02*
X38400D01*
X20670Y60160D02*
X38400D01*
X20670Y60240D02*
X38400D01*
X20670Y60320D02*
X38400D01*
X20670Y60400D02*
X38400D01*
X20670Y60480D02*
X38400D01*
X20670Y60560D02*
X38400D01*
X20670Y60640D02*
X38400D01*
X20670Y60720D02*
X38400D01*
X20670Y60800D02*
X38400D01*
X20670Y60880D02*
X38400D01*
X20670Y60960D02*
X38400D01*
X20670Y61040D02*
X38400D01*
X20670Y61120D02*
X38400D01*
X20670Y61200D02*
X38400D01*
X20670Y61280D02*
X38400D01*
X20670Y61360D02*
X38400D01*
X20670Y61440D02*
X38400D01*
X20670Y61520D02*
X38400D01*
X20670Y61600D02*
X38400D01*
X20670Y61680D02*
X38400D01*
X20670Y61760D02*
X38400D01*
X20670Y61840D02*
X38400D01*
X20670Y61920D02*
X38400D01*
X20670Y62000D02*
X38400D01*
X20670Y62080D02*
X38400D01*
X20670Y62160D02*
X38400D01*
X20670Y62240D02*
X38400D01*
X20670Y62320D02*
X38400D01*
X20670Y62400D02*
X38400D01*
X20670Y62480D02*
X38400D01*
X20670Y62560D02*
X38400D01*
X20670Y62640D02*
X38400D01*
X20670Y62720D02*
X38400D01*
X20670Y62800D02*
X38400D01*
X20670Y63840D02*
X38400D01*
X20670Y63920D02*
X38400D01*
X20670Y64000D02*
X38400D01*
X20670Y64080D02*
X38400D01*
X20670Y64160D02*
X38400D01*
X20670Y64240D02*
X38400D01*
X20670Y64320D02*
X38400D01*
X24365Y65360D02*
X31235D01*
X20670Y64400D02*
X38400D01*
X20670Y64480D02*
X38400D01*
X20670Y64560D02*
X38400D01*
X20670Y64640D02*
X38400D01*
X20670Y64720D02*
X38400D01*
X20670Y64800D02*
X38400D01*
X20670Y64880D02*
X38400D01*
X20670Y64960D02*
X38400D01*
X20670Y65040D02*
X38400D01*
X20670Y65120D02*
X38400D01*
X20670Y65200D02*
X38400D01*
X20670Y65280D02*
X38400D01*
X20670Y66320D02*
X38400D01*
X20670Y66400D02*
X38400D01*
X20670Y66480D02*
X38400D01*
X20670Y66560D02*
X38400D01*
X20670Y66640D02*
X38400D01*
X20670Y66720D02*
X38400D01*
X20670Y66800D02*
X38400D01*
X20670Y66880D02*
X38400D01*
X20670Y66960D02*
X38400D01*
X20670Y67040D02*
X38400D01*
X20670Y67120D02*
X38400D01*
X20670Y67200D02*
X38400D01*
X20670Y67280D02*
X38400D01*
X20670Y67360D02*
X38400D01*
X20670Y67440D02*
X38400D01*
X20670Y67520D02*
X38400D01*
X20670Y67600D02*
X38400D01*
X20670Y67680D02*
X38400D01*
X20670Y67760D02*
X38400D01*
X20670Y68800D02*
X38400D01*
X20670Y68880D02*
X38400D01*
X20670Y68960D02*
X38400D01*
X20670Y69040D02*
X38400D01*
X20670Y69120D02*
X38400D01*
X20670Y69200D02*
X38400D01*
X20670Y69280D02*
X38400D01*
X20670Y69330D02*
X38400D01*
X26880Y56155D02*
Y62866D01*
X26960Y56305D02*
Y62908D01*
X27040Y56386D02*
Y62976D01*
X26640Y63766D02*
Y67834D01*
X26720Y63770D02*
Y67830D01*
X26800Y63759D02*
Y67841D01*
X27040Y63625D02*
Y67976D01*
X26880Y63734D02*
Y67866D01*
X26960Y63692D02*
Y67908D01*
X26911Y62880D02*
X28689D01*
X26977Y63680D02*
X28623D01*
X27025Y62960D02*
X28575D01*
X27092Y63040D02*
X28508D01*
X27062Y63600D02*
X28538D01*
X24502Y65440D02*
X31098D01*
X24625Y65600D02*
X30975D01*
X24577Y65520D02*
X31023D01*
X26796Y63760D02*
X28804D01*
X24654Y65680D02*
X30946D01*
X24668Y65760D02*
X30932D01*
X27134Y68480D02*
X28466D01*
X26640Y68766D02*
Y69330D01*
X26720Y68770D02*
Y69330D01*
X26800Y68759D02*
Y69330D01*
X27040Y68625D02*
Y69330D01*
X26880Y68734D02*
Y69330D01*
X26960Y68692D02*
Y69330D01*
X24577Y66080D02*
X31023D01*
X24502Y66160D02*
X31098D01*
X24365Y66240D02*
X31235D01*
X24668Y65840D02*
X30932D01*
X24654Y65920D02*
X30946D01*
X24625Y66000D02*
X30975D01*
X26796Y67840D02*
X28804D01*
X26977Y67920D02*
X28623D01*
X26911Y68720D02*
X28689D01*
X27115Y68080D02*
X28485D01*
X27062Y68000D02*
X28538D01*
X27092Y68560D02*
X28508D01*
X27025Y68640D02*
X28575D01*
X27120Y40000D02*
Y43762D01*
X27200Y40000D02*
Y43728D01*
X27280Y40000D02*
Y43710D01*
X27360Y40000D02*
Y43705D01*
X27440Y40000D02*
Y43713D01*
X27520Y40000D02*
Y43735D01*
X27600Y40000D02*
Y43773D01*
X27120Y44638D02*
Y55562D01*
X27600Y44627D02*
Y55573D01*
X27680Y40000D02*
Y43831D01*
Y44569D02*
Y55631D01*
X27760Y40000D02*
Y43923D01*
X27840Y40000D02*
Y44130D01*
X27760Y44477D02*
Y55723D01*
X27840Y44270D02*
Y55930D01*
X36400Y40000D02*
Y48288D01*
X36480Y40000D02*
Y48135D01*
X36560Y40000D02*
Y48061D01*
X28800Y40000D02*
Y62841D01*
X28880Y40000D02*
Y62830D01*
X28960Y40000D02*
Y62834D01*
X33840Y40000D02*
Y62834D01*
X33920Y40000D02*
Y62830D01*
X34000Y40000D02*
Y62841D01*
X36400Y48512D02*
Y49288D01*
Y49512D02*
Y50288D01*
Y50512D02*
Y51288D01*
X36480Y48665D02*
Y49135D01*
X36400Y51512D02*
Y52288D01*
X36480Y49665D02*
Y50135D01*
X27200Y44672D02*
Y55528D01*
X27280Y44690D02*
Y55510D01*
X27360Y44695D02*
Y55505D01*
X27520Y44665D02*
Y55535D01*
X27440Y44687D02*
Y55513D01*
X36400Y52512D02*
Y53288D01*
X36560Y48739D02*
Y49061D01*
Y49739D02*
Y50061D01*
X36480Y50665D02*
Y51135D01*
Y51665D02*
Y52135D01*
X36560Y50739D02*
Y51061D01*
Y51739D02*
Y52061D01*
X36480Y52665D02*
Y53135D01*
X36560Y52739D02*
Y53061D01*
X36640Y40000D02*
Y48017D01*
X36720Y40000D02*
Y47993D01*
X36800Y40000D02*
Y47985D01*
X36880Y40000D02*
Y47993D01*
X36640Y48783D02*
Y49017D01*
Y49783D02*
Y50017D01*
X36720Y48808D02*
Y48993D01*
X36800Y48815D02*
Y48985D01*
X36720Y49808D02*
Y49992D01*
X36880Y48808D02*
Y48993D01*
X36960Y40000D02*
Y48017D01*
Y48783D02*
Y49017D01*
X37040Y40000D02*
Y48061D01*
X37120Y40000D02*
Y48135D01*
X37200Y40000D02*
Y48288D01*
X37040Y48739D02*
Y49061D01*
X36880Y49808D02*
Y49992D01*
X37040Y49739D02*
Y50061D01*
X37120Y48665D02*
Y49135D01*
X37200Y48512D02*
Y49288D01*
X37120Y49665D02*
Y50135D01*
X37200Y49512D02*
Y50288D01*
X36640Y50783D02*
Y51017D01*
X36720Y50807D02*
Y50992D01*
Y51807D02*
Y51993D01*
X36800Y49815D02*
Y49985D01*
Y50815D02*
Y50985D01*
X36880Y50807D02*
Y50992D01*
X36640Y51783D02*
Y52017D01*
Y52783D02*
Y53017D01*
X36720Y52807D02*
Y52993D01*
X36880Y51807D02*
Y51993D01*
X36800Y51815D02*
Y51985D01*
Y52815D02*
Y52985D01*
X36960Y49783D02*
Y50017D01*
Y50783D02*
Y51017D01*
Y51783D02*
Y52017D01*
X37200Y50512D02*
Y51288D01*
X37040Y50739D02*
Y51061D01*
X37120Y50665D02*
Y51135D01*
X37040Y51739D02*
Y52061D01*
X36880Y52807D02*
Y52993D01*
X36960Y52783D02*
Y53017D01*
X37120Y51665D02*
Y52135D01*
X37200Y51512D02*
Y52288D01*
X37040Y52739D02*
Y53061D01*
X37120Y52665D02*
Y53135D01*
X27920Y40000D02*
Y69330D01*
X28480Y40000D02*
Y63089D01*
X28560Y40000D02*
Y62976D01*
X28640Y40000D02*
Y62908D01*
X28720Y40000D02*
Y62866D01*
X29040Y40000D02*
Y62851D01*
X28000Y40000D02*
Y69330D01*
X28080Y40000D02*
Y69330D01*
X28160Y40000D02*
Y69330D01*
X28240Y40000D02*
Y69330D01*
X28320Y40000D02*
Y69330D01*
X28400Y40000D02*
Y69330D01*
X29120Y40000D02*
Y62885D01*
X29200Y40000D02*
Y62938D01*
X29280Y40000D02*
Y63023D01*
X29360Y40000D02*
Y63204D01*
X29440Y40000D02*
Y69330D01*
X29520Y40000D02*
Y69330D01*
X29600Y40000D02*
Y69330D01*
X29680Y40000D02*
Y69330D01*
X29760Y40000D02*
Y69330D01*
X29840Y40000D02*
Y69330D01*
X29920Y40000D02*
Y69330D01*
X30000Y40000D02*
Y69330D01*
X30080Y40000D02*
Y69330D01*
X30160Y40000D02*
Y69330D01*
X30240Y40000D02*
Y69330D01*
X30320Y40000D02*
Y69330D01*
X30400Y40000D02*
Y69330D01*
X30960Y40000D02*
Y65635D01*
X31040Y40000D02*
Y65498D01*
X30480Y40000D02*
Y69330D01*
X30560Y40000D02*
Y69330D01*
X30640Y40000D02*
Y69330D01*
X30720Y40000D02*
Y69330D01*
X30800Y40000D02*
Y69330D01*
X30880Y40000D02*
Y69330D01*
X31200Y40000D02*
Y65375D01*
X31280Y40000D02*
Y65346D01*
X31360Y40000D02*
Y65332D01*
X31440Y40000D02*
Y65332D01*
X31520Y40000D02*
Y65346D01*
X31600Y40000D02*
Y65375D01*
X31120Y40000D02*
Y65423D01*
X31680Y40000D02*
Y65423D01*
X31760Y40000D02*
Y65498D01*
X31840Y40000D02*
Y65635D01*
X31920Y40000D02*
Y69330D01*
X32000Y40000D02*
Y69330D01*
X32080Y40000D02*
Y69330D01*
X32160Y40000D02*
Y69330D01*
X32240Y40000D02*
Y69330D01*
X32320Y40000D02*
Y69330D01*
X32400Y40000D02*
Y69330D01*
X32480Y40000D02*
Y69330D01*
X32560Y40000D02*
Y69330D01*
X32640Y40000D02*
Y69330D01*
X32720Y40000D02*
Y69330D01*
X32800Y40000D02*
Y69330D01*
X32880Y40000D02*
Y69330D01*
X32960Y40000D02*
Y69330D01*
X33040Y40000D02*
Y69330D01*
X33600Y40000D02*
Y62938D01*
X33680Y40000D02*
Y62885D01*
X33760Y40000D02*
Y62851D01*
X34080Y40000D02*
Y62866D01*
X34160Y40000D02*
Y62908D01*
X34240Y40000D02*
Y62976D01*
X33120Y40000D02*
Y69330D01*
X33200Y40000D02*
Y69330D01*
X33280Y40000D02*
Y69330D01*
X33360Y40000D02*
Y69330D01*
X33440Y40000D02*
Y63204D01*
X33520Y40000D02*
Y63023D01*
X34320Y40000D02*
Y63089D01*
X34400Y40000D02*
Y69330D01*
X34480Y40000D02*
Y69330D01*
X34560Y40000D02*
Y69330D01*
X34640Y40000D02*
Y69330D01*
X34720Y40000D02*
Y69330D01*
X34800Y40000D02*
Y69330D01*
X34880Y40000D02*
Y69330D01*
X34960Y40000D02*
Y69330D01*
X35040Y40000D02*
Y69330D01*
X35120Y40000D02*
Y69330D01*
X35200Y40000D02*
Y69330D01*
X35280Y40000D02*
Y69330D01*
X35360Y40000D02*
Y69330D01*
X35440Y40000D02*
Y69330D01*
X35520Y40000D02*
Y69330D01*
X35600Y40000D02*
Y69330D01*
X35680Y40000D02*
Y69330D01*
X35760Y40000D02*
Y69330D01*
X35840Y40000D02*
Y69330D01*
X35920Y40000D02*
Y69330D01*
X36000Y40000D02*
Y69330D01*
X36080Y40000D02*
Y69330D01*
X36160Y40000D02*
Y69330D01*
X36240Y40000D02*
Y69330D01*
X36320Y40000D02*
Y69330D01*
X36912Y48000D02*
X37688D01*
X37139Y48160D02*
X37461D01*
X37065Y48080D02*
X37535D01*
X37440Y40000D02*
Y48193D01*
X37520Y40000D02*
Y48093D01*
X37600Y40000D02*
Y48036D01*
X37183Y48240D02*
X37417D01*
X37208Y48320D02*
X37392D01*
X37183Y48560D02*
X37417D01*
X37215Y48400D02*
X37385D01*
X37208Y48480D02*
X37392D01*
X27577Y43760D02*
X38400D01*
X27690Y43840D02*
X38400D01*
X27758Y43920D02*
X38400D01*
X27803Y44000D02*
X38400D01*
X27830Y44080D02*
X38400D01*
X27843Y44160D02*
X38400D01*
X27758Y44480D02*
X38400D01*
X27690Y44560D02*
X38400D01*
X27577Y44640D02*
X38400D01*
X27843Y44240D02*
X38400D01*
X27830Y44320D02*
X38400D01*
X27803Y44400D02*
X38400D01*
X37139Y48640D02*
X37461D01*
X37198Y49280D02*
X37402D01*
X37164Y49200D02*
X37436D01*
X37440Y48607D02*
Y49193D01*
X37213Y49360D02*
X37387D01*
X37213Y49440D02*
X37387D01*
X37198Y49520D02*
X37402D01*
X37164Y49600D02*
X37436D01*
X37139Y50160D02*
X37461D01*
X37440Y49607D02*
Y50193D01*
X37208Y50320D02*
X37392D01*
X37183Y50240D02*
X37417D01*
X37065Y48720D02*
X37535D01*
X37007Y49040D02*
X37593D01*
X36912Y48800D02*
X37688D01*
X37520Y48707D02*
Y49093D01*
X37107Y49120D02*
X37493D01*
X37600Y48764D02*
Y49036D01*
X37007Y49760D02*
X37593D01*
X37065Y50080D02*
X37535D01*
X36912Y50000D02*
X37688D01*
X37107Y49680D02*
X37493D01*
X37520Y49707D02*
Y50093D01*
X37600Y49764D02*
Y50036D01*
X37680Y40000D02*
Y48002D01*
X37760Y40000D02*
Y47987D01*
X37840Y40000D02*
Y47987D01*
X37920Y40000D02*
Y48002D01*
X38000Y40000D02*
Y48036D01*
X38080Y40000D02*
Y48093D01*
X37680Y48798D02*
Y49002D01*
X38080Y48707D02*
Y49093D01*
X37920Y48798D02*
Y49002D01*
X38000Y48764D02*
Y49036D01*
X37912Y48000D02*
X38400D01*
X38065Y48080D02*
X38400D01*
X38139Y48160D02*
X38400D01*
X38160Y40000D02*
Y48193D01*
X38183Y48240D02*
X38400D01*
X38207Y48320D02*
X38400D01*
X38139Y48640D02*
X38400D01*
X38065Y48720D02*
X38400D01*
X38215Y48400D02*
X38400D01*
X38207Y48480D02*
X38400D01*
X38160Y48607D02*
Y49193D01*
X38183Y48560D02*
X38400D01*
X37760Y48813D02*
Y48987D01*
Y49813D02*
Y49987D01*
X37840Y48813D02*
Y48987D01*
X37912Y48800D02*
X38400D01*
X38007Y49040D02*
X38400D01*
X38107Y49120D02*
X38400D01*
X37680Y49798D02*
Y50002D01*
X37840Y49813D02*
Y49987D01*
X37920Y49798D02*
Y50002D01*
X38160Y49607D02*
Y50193D01*
X38000Y49764D02*
Y50036D01*
X38080Y49707D02*
Y50093D01*
X38164Y49200D02*
X38400D01*
X38198Y49280D02*
X38400D01*
X38164Y49600D02*
X38400D01*
X38213Y49360D02*
X38400D01*
X38213Y49440D02*
X38400D01*
X38198Y49520D02*
X38400D01*
X38007Y49760D02*
X38400D01*
X37912Y50000D02*
X38400D01*
X38065Y50080D02*
X38400D01*
X38107Y49680D02*
X38400D01*
X38139Y50160D02*
X38400D01*
X38183Y50240D02*
X38400D01*
X38207Y50320D02*
X38400D01*
X37183Y50560D02*
X37417D01*
X37198Y51280D02*
X37402D01*
X37164Y51200D02*
X37436D01*
X37215Y50400D02*
X37385D01*
X37208Y50480D02*
X37392D01*
X37440Y50607D02*
Y51193D01*
X37213Y51360D02*
X37387D01*
X37198Y51520D02*
X37402D01*
X37164Y51600D02*
X37436D01*
X37280Y40000D02*
Y69330D01*
X37360Y40000D02*
Y69330D01*
X37213Y51440D02*
X37387D01*
X37139Y50640D02*
X37461D01*
X37065Y50720D02*
X37535D01*
X36912Y50800D02*
X37688D01*
X37600Y50764D02*
Y51036D01*
X37680Y50798D02*
Y51002D01*
X37007Y51040D02*
X37593D01*
X37107Y51120D02*
X37493D01*
X37107Y51680D02*
X37493D01*
X37520Y50707D02*
Y51093D01*
X37440Y51607D02*
Y52193D01*
X37520Y51707D02*
Y52093D01*
X37139Y52160D02*
X37461D01*
X37183Y52240D02*
X37417D01*
X37183Y52560D02*
X37417D01*
X37208Y52320D02*
X37392D01*
X37215Y52400D02*
X37385D01*
X37208Y52480D02*
X37392D01*
X37107Y53120D02*
X37493D01*
X37200Y52512D02*
Y53288D01*
X37440Y52607D02*
Y53193D01*
X37139Y52640D02*
X37461D01*
X37007Y51760D02*
X37593D01*
X37065Y52080D02*
X37535D01*
X36912Y52000D02*
X37688D01*
X37600Y51764D02*
Y52036D01*
X37065Y52720D02*
X37535D01*
X37680Y51798D02*
Y52002D01*
X37007Y53040D02*
X37593D01*
X36912Y52800D02*
X37688D01*
X37520Y52707D02*
Y53093D01*
X37600Y52764D02*
Y53036D01*
X37680Y52798D02*
Y53002D01*
X37920Y50798D02*
Y51002D01*
X37760Y50813D02*
Y50987D01*
X37840Y50813D02*
Y50987D01*
X38215Y50400D02*
X38400D01*
X38000Y50764D02*
Y51036D01*
X38207Y50480D02*
X38400D01*
X38160Y50607D02*
Y51193D01*
X38080Y50707D02*
Y51093D01*
X38160Y51607D02*
Y52193D01*
X38240Y40000D02*
Y69330D01*
X38320Y40000D02*
Y69330D01*
X38400Y40000D02*
Y69330D01*
X38065Y50720D02*
X38400D01*
X37912Y50800D02*
X38400D01*
X38007Y51040D02*
X38400D01*
X38183Y50560D02*
X38400D01*
X38139Y50640D02*
X38400D01*
X38107Y51120D02*
X38400D01*
X38164Y51200D02*
X38400D01*
X38164Y51600D02*
X38400D01*
X38107Y51680D02*
X38400D01*
X38198Y51280D02*
X38400D01*
X38213Y51360D02*
X38400D01*
X38213Y51440D02*
X38400D01*
X38198Y51520D02*
X38400D01*
X37760Y51813D02*
Y51987D01*
X37840Y51813D02*
Y51987D01*
X37920Y51798D02*
Y52002D01*
X38080Y51707D02*
Y52093D01*
X38000Y51764D02*
Y52036D01*
X38007Y51760D02*
X38400D01*
X37760Y52813D02*
Y52987D01*
X37840Y52813D02*
Y52987D01*
X37920Y52798D02*
Y53002D01*
X38160Y52607D02*
Y53193D01*
X38000Y52764D02*
Y53036D01*
X38080Y52707D02*
Y53093D01*
X37912Y52000D02*
X38400D01*
X38065Y52080D02*
X38400D01*
X38139Y52160D02*
X38400D01*
X38183Y52240D02*
X38400D01*
X38207Y52320D02*
X38400D01*
X38215Y52400D02*
X38400D01*
X38065Y52720D02*
X38400D01*
X37912Y52800D02*
X38400D01*
X38007Y53040D02*
X38400D01*
X38207Y52480D02*
X38400D01*
X38183Y52560D02*
X38400D01*
X38139Y52640D02*
X38400D01*
X38107Y53120D02*
X38400D01*
X27120Y56438D02*
Y63089D01*
X27134Y63120D02*
X28466D01*
X29111Y62880D02*
X33689D01*
X29225Y62960D02*
X33575D01*
X29334Y63120D02*
X33466D01*
X29292Y63040D02*
X33508D01*
X27159Y63200D02*
X28441D01*
X29359D02*
X33441D01*
X27471Y55520D02*
X36402D01*
X27642Y55600D02*
X36436D01*
X27728Y55680D02*
X36493D01*
X36400Y53512D02*
Y54288D01*
X27783Y55760D02*
X36593D01*
X27728Y56320D02*
X36393D01*
X27642Y56400D02*
X36385D01*
X27471Y56480D02*
X36393D01*
X27838Y56080D02*
X36535D01*
X27845Y56000D02*
X36688D01*
X27783Y56240D02*
X36417D01*
X27818Y56160D02*
X36461D01*
X27170Y63280D02*
X28430D01*
X27166Y63360D02*
X28434D01*
X27115Y63520D02*
X28485D01*
X27149Y63440D02*
X28451D01*
X28800Y63759D02*
Y67841D01*
X28880Y63770D02*
Y67830D01*
X28960Y63766D02*
Y67834D01*
X29040Y63749D02*
Y67851D01*
X29366Y63360D02*
X33434D01*
X29349Y63440D02*
X33451D01*
X29315Y63520D02*
X33485D01*
X29370Y63280D02*
X33430D01*
X29177Y63680D02*
X33623D01*
X28996Y63760D02*
X33804D01*
X28996Y67840D02*
X33804D01*
X29262Y63600D02*
X33538D01*
X33760Y63749D02*
Y67851D01*
X33840Y63766D02*
Y67834D01*
X36480Y53665D02*
Y54135D01*
X36560Y53739D02*
Y54061D01*
X36640Y53783D02*
Y54017D01*
X36720Y53808D02*
Y53993D01*
Y54808D02*
Y54992D01*
X36800Y53815D02*
Y53985D01*
X36400Y54512D02*
Y55288D01*
Y55512D02*
Y56288D01*
X36480Y54665D02*
Y55135D01*
X36560Y54739D02*
Y55061D01*
X36480Y55665D02*
Y56135D01*
X36640Y54783D02*
Y55017D01*
X36880Y53808D02*
Y53993D01*
X36800Y54815D02*
Y54985D01*
X36960Y53783D02*
Y54017D01*
X37200Y53512D02*
Y54288D01*
X37040Y53739D02*
Y54061D01*
X37120Y53665D02*
Y54135D01*
X36960Y54783D02*
Y55017D01*
X36880Y54808D02*
Y54992D01*
X37120Y54665D02*
Y55135D01*
X37200Y54512D02*
Y55288D01*
X37040Y54739D02*
Y55061D01*
X37200Y55512D02*
Y56288D01*
X36560Y55739D02*
Y56061D01*
X36400Y56512D02*
Y56985D01*
X36480Y56665D02*
Y56985D01*
X36640Y55783D02*
Y56017D01*
X36720Y55807D02*
Y55992D01*
X36800Y55815D02*
Y55985D01*
X36560Y56739D02*
Y56985D01*
X36385D02*
Y57815D01*
X36640Y56783D02*
Y56985D01*
X36720Y56807D02*
Y56985D01*
X36800Y56815D02*
Y56985D01*
X36880Y55807D02*
Y55992D01*
Y56807D02*
Y56985D01*
X37120Y55665D02*
Y56135D01*
X36960Y55783D02*
Y56017D01*
X37040Y55739D02*
Y56061D01*
X36385Y56985D02*
X37215D01*
X37120Y56665D02*
Y56985D01*
X37200Y56512D02*
Y56985D01*
X36960Y56783D02*
Y56985D01*
X37040Y56739D02*
Y56985D01*
X27200Y56472D02*
Y69330D01*
X27120Y63511D02*
Y68089D01*
X27149Y68160D02*
X28451D01*
X27280Y56490D02*
Y69330D01*
X27360Y56495D02*
Y69330D01*
X28480Y63511D02*
Y68089D01*
X27600Y56427D02*
Y69330D01*
X27440Y56487D02*
Y69330D01*
X27520Y56465D02*
Y69330D01*
X27840Y56070D02*
Y69330D01*
X27680Y56369D02*
Y69330D01*
X27760Y56277D02*
Y69330D01*
X28560Y63625D02*
Y67976D01*
X28640Y63692D02*
Y67908D01*
X28720Y63734D02*
Y67866D01*
X29200Y63662D02*
Y67938D01*
X29120Y63715D02*
Y67885D01*
X29177Y67920D02*
X33623D01*
X29262Y68000D02*
X33538D01*
X29280Y63577D02*
Y68023D01*
X29360Y63396D02*
Y68204D01*
X29349Y68160D02*
X33451D01*
X29315Y68080D02*
X33485D01*
X27166Y68240D02*
X28434D01*
X27120Y68511D02*
Y69330D01*
X27170Y68320D02*
X28430D01*
X27159Y68400D02*
X28441D01*
X28480Y68511D02*
Y69330D01*
X28560Y68625D02*
Y69330D01*
X28640Y68692D02*
Y69330D01*
X28720Y68734D02*
Y69330D01*
X28800Y68759D02*
Y69330D01*
X28880Y68770D02*
Y69330D01*
X29292Y68560D02*
X33508D01*
X29225Y68640D02*
X33575D01*
X29366Y68240D02*
X33434D01*
X29359Y68400D02*
X33441D01*
X29334Y68480D02*
X33466D01*
X29111Y68720D02*
X33689D01*
X28960Y68766D02*
Y69330D01*
X29040Y68749D02*
Y69330D01*
X29280Y68577D02*
Y69330D01*
X29360Y68396D02*
Y69330D01*
X29120Y68715D02*
Y69330D01*
X29200Y68662D02*
Y69330D01*
X33520Y63577D02*
Y68023D01*
X33600Y63662D02*
Y67938D01*
X33680Y63715D02*
Y67885D01*
X34080Y63734D02*
Y67866D01*
X33920Y63770D02*
Y67830D01*
X34000Y63759D02*
Y67841D01*
X30960Y65965D02*
Y69330D01*
X31040Y66102D02*
Y69330D01*
X31120Y66177D02*
Y69330D01*
X33440Y63396D02*
Y68204D01*
X31760Y66102D02*
Y69330D01*
X31840Y65965D02*
Y69330D01*
X34320Y63511D02*
Y68089D01*
X34160Y63692D02*
Y67908D01*
X34240Y63625D02*
Y67976D01*
X36400Y57815D02*
Y69330D01*
X36480Y57815D02*
Y69330D01*
X36560Y57815D02*
Y69330D01*
X36640Y57815D02*
Y69330D01*
X36720Y57815D02*
Y69330D01*
X36800Y57815D02*
Y69330D01*
X36880Y57815D02*
Y69330D01*
X36960Y57815D02*
Y69330D01*
X37040Y57815D02*
Y69330D01*
X37120Y57815D02*
Y69330D01*
X31200Y66225D02*
Y69330D01*
X31280Y66254D02*
Y69330D01*
X29370Y68320D02*
X33430D01*
X31520Y66254D02*
Y69330D01*
X31360Y66268D02*
Y69330D01*
X31440Y66268D02*
Y69330D01*
X31680Y66177D02*
Y69330D01*
X31600Y66225D02*
Y69330D01*
X33440Y68396D02*
Y69330D01*
X33520Y68577D02*
Y69330D01*
X33600Y68662D02*
Y69330D01*
X33680Y68715D02*
Y69330D01*
X33760Y68749D02*
Y69330D01*
X33840Y68766D02*
Y69330D01*
X33920Y68770D02*
Y69330D01*
X34000Y68759D02*
Y69330D01*
X34240Y68625D02*
Y69330D01*
X34320Y68511D02*
Y69330D01*
X34080Y68734D02*
Y69330D01*
X34160Y68692D02*
Y69330D01*
X37164Y53200D02*
X37436D01*
X37198Y53280D02*
X37402D01*
X37164Y53600D02*
X37436D01*
X37213Y53360D02*
X37387D01*
X37213Y53440D02*
X37387D01*
X37198Y53520D02*
X37402D01*
X37183Y54240D02*
X37417D01*
X37208Y54320D02*
X37392D01*
X37183Y54560D02*
X37417D01*
X37440Y53607D02*
Y54193D01*
X37215Y54400D02*
X37385D01*
X37208Y54480D02*
X37392D01*
X37107Y53680D02*
X37493D01*
X37007Y53760D02*
X37593D01*
X36912Y54000D02*
X37688D01*
X37600Y53764D02*
Y54036D01*
X37680Y53798D02*
Y54002D01*
X37760Y53813D02*
Y53987D01*
X37065Y54080D02*
X37535D01*
X37139Y54160D02*
X37461D01*
X37065Y54720D02*
X37535D01*
X37520Y53707D02*
Y54093D01*
X37440Y54607D02*
Y55193D01*
X37139Y54640D02*
X37461D01*
X37107Y55120D02*
X37493D01*
X37198Y55280D02*
X37402D01*
X37164Y55200D02*
X37436D01*
X37520Y54707D02*
Y55093D01*
X37213Y55360D02*
X37387D01*
X37213Y55440D02*
X37387D01*
X37164Y55600D02*
X37436D01*
X37139Y56160D02*
X37461D01*
X37107Y55680D02*
X37493D01*
X37198Y55520D02*
X37402D01*
X37440Y55607D02*
Y56193D01*
X37183Y56240D02*
X37417D01*
X36912Y54800D02*
X37688D01*
X37007Y55040D02*
X37593D01*
X37007Y55760D02*
X37593D01*
X37600Y54764D02*
Y55036D01*
X37680Y54798D02*
Y55002D01*
X27818Y55840D02*
X38400D01*
X36912Y56000D02*
X37688D01*
X27838Y55920D02*
X38400D01*
X37520Y55707D02*
Y56093D01*
X37600Y55764D02*
Y56036D01*
X37065Y56080D02*
X37535D01*
X37680Y55798D02*
Y56002D01*
X38164Y53200D02*
X38400D01*
X37840Y53813D02*
Y53987D01*
X38198Y53280D02*
X38400D01*
X38213Y53360D02*
X38400D01*
X38213Y53440D02*
X38400D01*
X38198Y53520D02*
X38400D01*
X38080Y53707D02*
Y54093D01*
X37920Y53798D02*
Y54002D01*
X38000Y53764D02*
Y54036D01*
X38160Y53607D02*
Y54193D01*
X38080Y54707D02*
Y55093D01*
X38160Y54607D02*
Y55193D01*
X38007Y53760D02*
X38400D01*
X37912Y54000D02*
X38400D01*
X38065Y54080D02*
X38400D01*
X38164Y53600D02*
X38400D01*
X38107Y53680D02*
X38400D01*
X38139Y54160D02*
X38400D01*
X38183Y54240D02*
X38400D01*
X38139Y54640D02*
X38400D01*
X38065Y54720D02*
X38400D01*
X38207Y54320D02*
X38400D01*
X38215Y54400D02*
X38400D01*
X38207Y54480D02*
X38400D01*
X38183Y54560D02*
X38400D01*
X37760Y54813D02*
Y54987D01*
X37840Y54813D02*
Y54987D01*
X37912Y54800D02*
X38400D01*
X38000Y54764D02*
Y55036D01*
X37920Y54798D02*
Y55002D01*
X38007Y55040D02*
X38400D01*
X37920Y55798D02*
Y56002D01*
X37760Y55813D02*
Y55987D01*
X37840Y55813D02*
Y55987D01*
X38160Y55607D02*
Y56193D01*
X38000Y55764D02*
Y56036D01*
X38080Y55707D02*
Y56093D01*
X38107Y55120D02*
X38400D01*
X38164Y55200D02*
X38400D01*
X38198Y55280D02*
X38400D01*
X38213Y55360D02*
X38400D01*
X38213Y55440D02*
X38400D01*
X38198Y55520D02*
X38400D01*
X38007Y55760D02*
X38400D01*
X37912Y56000D02*
X38400D01*
X38065Y56080D02*
X38400D01*
X38164Y55600D02*
X38400D01*
X38107Y55680D02*
X38400D01*
X38139Y56160D02*
X38400D01*
X38183Y56240D02*
X38400D01*
X37183Y56560D02*
X37417D01*
X37139Y56640D02*
X37461D01*
X37065Y56720D02*
X37535D01*
X37208Y56320D02*
X37392D01*
X37215Y56400D02*
X37385D01*
X37208Y56480D02*
X37392D01*
X37215Y57120D02*
X37493D01*
X36385Y57815D02*
X37215D01*
Y57200D02*
X37436D01*
X37215Y57280D02*
X37402D01*
X37215Y57360D02*
X37387D01*
X34111Y62880D02*
X38400D01*
X34225Y62960D02*
X38400D01*
X34292Y63040D02*
X38400D01*
X36912Y56800D02*
X37688D01*
X37215Y57040D02*
X37593D01*
X34334Y63120D02*
X38400D01*
X34315Y63520D02*
X38400D01*
X34262Y63600D02*
X38400D01*
X34177Y63680D02*
X38400D01*
X34359Y63200D02*
X38400D01*
X34370Y63280D02*
X38400D01*
X34366Y63360D02*
X38400D01*
X34349Y63440D02*
X38400D01*
X31565Y65360D02*
X38400D01*
X31702Y65440D02*
X38400D01*
X31777Y65520D02*
X38400D01*
X33996Y63760D02*
X38400D01*
X31825Y65600D02*
X38400D01*
X31854Y65680D02*
X38400D01*
X31854Y65920D02*
X38400D01*
X31777Y66080D02*
X38400D01*
X31702Y66160D02*
X38400D01*
X31868Y65760D02*
X38400D01*
X31868Y65840D02*
X38400D01*
X31825Y66000D02*
X38400D01*
X31565Y66240D02*
X38400D01*
X33996Y67840D02*
X38400D01*
X34177Y67920D02*
X38400D01*
X34262Y68000D02*
X38400D01*
X34315Y68080D02*
X38400D01*
X34349Y68160D02*
X38400D01*
X34292Y68560D02*
X38400D01*
X34225Y68640D02*
X38400D01*
X34111Y68720D02*
X38400D01*
X34366Y68240D02*
X38400D01*
X34370Y68320D02*
X38400D01*
X34359Y68400D02*
X38400D01*
X34334Y68480D02*
X38400D01*
X37600Y56764D02*
Y57036D01*
X37680Y56798D02*
Y57002D01*
X37760Y56813D02*
Y56987D01*
X38000Y56764D02*
Y57036D01*
X37840Y56813D02*
Y56987D01*
X37920Y56798D02*
Y57002D01*
X37440Y56607D02*
Y57193D01*
X37215Y56985D02*
Y57815D01*
X37520Y56707D02*
Y57093D01*
X38160Y56607D02*
Y57193D01*
X38080Y56707D02*
Y57093D01*
X38207Y56320D02*
X38400D01*
X38139Y56640D02*
X38400D01*
X38065Y56720D02*
X38400D01*
X38215Y56400D02*
X38400D01*
X38207Y56480D02*
X38400D01*
X38183Y56560D02*
X38400D01*
X37912Y56800D02*
X38400D01*
X38007Y57040D02*
X38400D01*
X38107Y57120D02*
X38400D01*
X38164Y57200D02*
X38400D01*
X38198Y57280D02*
X38400D01*
X37215Y57440D02*
X37387D01*
X37215Y57520D02*
X37402D01*
X37215Y57600D02*
X37436D01*
X37215Y57680D02*
X37493D01*
X37215Y57760D02*
X37593D01*
X37440Y57607D02*
Y69330D01*
X37200Y57815D02*
Y69330D01*
X37520Y57707D02*
Y69330D01*
X37600Y57764D02*
Y69330D01*
X37680Y57798D02*
Y69330D01*
X37760Y57813D02*
Y69330D01*
X38164Y57600D02*
X38400D01*
X38107Y57680D02*
X38400D01*
X38213Y57360D02*
X38400D01*
X38213Y57440D02*
X38400D01*
X38198Y57520D02*
X38400D01*
X37840Y57813D02*
Y69330D01*
X37920Y57798D02*
Y69330D01*
X38080Y57707D02*
Y69330D01*
X38160Y57607D02*
Y69330D01*
X38000Y57764D02*
Y69330D01*
X38007Y57760D02*
X38400D01*
M02*
