%FSLAX24Y24*%
%MOIN*%
G70*
G01*
G75*
G04 Layer_Color=8388736*
G04 Layer_Color=8388736*
%ADD10R,0.0354X0.0276*%
%ADD11C,0.0160*%
%ADD12C,0.0100*%
%ADD13C,0.0591*%
%ADD14C,0.0750*%
%ADD15C,0.0700*%
%ADD16R,0.0591X0.0591*%
%ADD17C,0.0500*%
%ADD18C,0.0080*%
%ADD19C,0.0079*%
%ADD20C,0.0070*%
%ADD21R,0.0434X0.0356*%
%ADD22C,0.0671*%
%ADD23C,0.0830*%
%ADD24C,0.0780*%
%ADD25R,0.0671X0.0671*%
%ADD26C,0.0580*%
D21*
X35144Y56400D02*
D03*
X35656D02*
D03*
X38944D02*
D03*
X39456D02*
D03*
X35144Y55400D02*
D03*
X35656D02*
D03*
X38944D02*
D03*
X39456D02*
D03*
X35144Y54400D02*
D03*
X35656D02*
D03*
X38944D02*
D03*
X39456D02*
D03*
X35144Y53400D02*
D03*
X35656D02*
D03*
X38944D02*
D03*
X39456D02*
D03*
X35144Y52400D02*
D03*
X35656D02*
D03*
X38944D02*
D03*
X39456D02*
D03*
X35144Y51400D02*
D03*
X35656D02*
D03*
X38944D02*
D03*
X39456D02*
D03*
X35144Y50400D02*
D03*
X35656D02*
D03*
X38944D02*
D03*
X39456D02*
D03*
X35144Y49400D02*
D03*
X35656D02*
D03*
X38944D02*
D03*
X39456D02*
D03*
D22*
X37800D02*
D03*
X36800D02*
D03*
X37800Y50400D02*
D03*
X36800D02*
D03*
X37800Y51400D02*
D03*
X36800D02*
D03*
X37800Y52400D02*
D03*
X36800D02*
D03*
X37800Y53400D02*
D03*
X36800D02*
D03*
X37800Y54400D02*
D03*
X36800D02*
D03*
X37800Y55400D02*
D03*
X36800D02*
D03*
X37800Y56400D02*
D03*
X36800D02*
D03*
X37800Y48400D02*
D03*
X36800D02*
D03*
X37800Y57400D02*
D03*
D23*
X27350Y44200D02*
D03*
X25850Y45700D02*
D03*
X27350Y56000D02*
D03*
X25850Y57500D02*
D03*
X24100Y45700D02*
D03*
X22100Y42700D02*
D03*
X25600D02*
D03*
X24100Y57500D02*
D03*
X22100Y54500D02*
D03*
X25600D02*
D03*
D24*
X24200Y65800D02*
D03*
X31400D02*
D03*
X26700Y63300D02*
D03*
X21700D02*
D03*
Y68300D02*
D03*
X26700D02*
D03*
X33900Y63300D02*
D03*
X28900D02*
D03*
Y68300D02*
D03*
X33900D02*
D03*
D25*
X36800Y57400D02*
D03*
D26*
X34800Y57900D02*
D03*
M02*
