%FSLAX24Y24*%
%MOIN*%
G70*
G01*
G75*
G04 Layer_Color=65535*
%ADD10R,0.0354X0.0276*%
%ADD11C,0.0160*%
%ADD12C,0.0100*%
%ADD13C,0.0591*%
%ADD14C,0.0750*%
%ADD15C,0.0700*%
%ADD16R,0.0591X0.0591*%
%ADD17C,0.0500*%
%ADD18C,0.0080*%
%ADD19C,0.0079*%
%ADD20C,0.0070*%
D12*
X20600Y47200D02*
X20975D01*
X21100Y47075D01*
Y40950D02*
Y47075D01*
X20975Y40825D02*
X21100Y40950D01*
X20600Y40825D02*
X20975D01*
X20600Y49200D02*
X28850D01*
Y39200D02*
Y49200D01*
X20600Y39200D02*
X28850D01*
X20600D02*
Y49200D01*
Y59000D02*
X20975D01*
X21100Y58875D01*
Y52750D02*
Y58875D01*
X20975Y52625D02*
X21100Y52750D01*
X20600Y52625D02*
X20975D01*
X20600Y61000D02*
X28850D01*
Y51000D02*
Y61000D01*
X20600Y51000D02*
X28850D01*
X20600D02*
Y61000D01*
X20750Y69250D02*
X27650D01*
X20750Y62350D02*
Y69250D01*
Y62350D02*
X27650D01*
Y69250D01*
X27950D02*
X34850D01*
X27950Y62350D02*
Y69250D01*
Y62350D02*
X34850D01*
Y69250D01*
D18*
X37600Y58067D02*
Y58400D01*
X37933Y58067D01*
X38017D01*
X38100Y58150D01*
Y58317D01*
X38017Y58400D01*
X36600D02*
Y58233D01*
Y58317D01*
X37100D01*
X37017Y58400D01*
X36600Y47800D02*
Y47633D01*
Y47717D01*
X37100D01*
X37017Y47800D01*
X36683Y47383D02*
X36600Y47300D01*
Y47134D01*
X36683Y47050D01*
X37017D01*
X37100Y47134D01*
Y47300D01*
X37017Y47383D01*
X36933D01*
X36850Y47300D01*
Y47050D01*
X37600Y47467D02*
Y47800D01*
X37933Y47467D01*
X38017D01*
X38100Y47550D01*
Y47717D01*
X38017Y47800D01*
Y47300D02*
X38100Y47217D01*
Y47050D01*
X38017Y46967D01*
X37683D01*
X37600Y47050D01*
Y47217D01*
X37683Y47300D01*
X38017D01*
D19*
X36300Y47900D02*
Y57150D01*
X38300Y47900D02*
Y57150D01*
Y57900D01*
X36300D02*
X38300D01*
X36300Y57150D02*
Y57900D01*
Y47900D02*
X38300D01*
D20*
X35000Y56700D02*
Y57000D01*
X35150D01*
X35200Y56950D01*
Y56850D01*
X35150Y56800D01*
X35000D01*
X35100D02*
X35200Y56700D01*
X35500D02*
X35300D01*
X35500Y56900D01*
Y56950D01*
X35450Y57000D01*
X35350D01*
X35300Y56950D01*
X38800Y56700D02*
Y57000D01*
X38950D01*
X39000Y56950D01*
Y56850D01*
X38950Y56800D01*
X38800D01*
X38900D02*
X39000Y56700D01*
X39100D02*
X39200D01*
X39150D01*
Y57000D01*
X39100Y56950D01*
X35000Y55700D02*
Y56000D01*
X35150D01*
X35200Y55950D01*
Y55850D01*
X35150Y55800D01*
X35000D01*
X35100D02*
X35200Y55700D01*
X35450D02*
Y56000D01*
X35300Y55850D01*
X35500D01*
X38800Y55700D02*
Y56000D01*
X38950D01*
X39000Y55950D01*
Y55850D01*
X38950Y55800D01*
X38800D01*
X38900D02*
X39000Y55700D01*
X39100Y55950D02*
X39150Y56000D01*
X39250D01*
X39300Y55950D01*
Y55900D01*
X39250Y55850D01*
X39200D01*
X39250D01*
X39300Y55800D01*
Y55750D01*
X39250Y55700D01*
X39150D01*
X39100Y55750D01*
X35000Y54700D02*
Y55000D01*
X35150D01*
X35200Y54950D01*
Y54850D01*
X35150Y54800D01*
X35000D01*
X35100D02*
X35200Y54700D01*
X35500Y55000D02*
X35400Y54950D01*
X35300Y54850D01*
Y54750D01*
X35350Y54700D01*
X35450D01*
X35500Y54750D01*
Y54800D01*
X35450Y54850D01*
X35300D01*
X38800Y54700D02*
Y55000D01*
X38950D01*
X39000Y54950D01*
Y54850D01*
X38950Y54800D01*
X38800D01*
X38900D02*
X39000Y54700D01*
X39300Y55000D02*
X39100D01*
Y54850D01*
X39200Y54900D01*
X39250D01*
X39300Y54850D01*
Y54750D01*
X39250Y54700D01*
X39150D01*
X39100Y54750D01*
X35000Y53700D02*
Y54000D01*
X35150D01*
X35200Y53950D01*
Y53850D01*
X35150Y53800D01*
X35000D01*
X35100D02*
X35200Y53700D01*
X35300Y53950D02*
X35350Y54000D01*
X35450D01*
X35500Y53950D01*
Y53900D01*
X35450Y53850D01*
X35500Y53800D01*
Y53750D01*
X35450Y53700D01*
X35350D01*
X35300Y53750D01*
Y53800D01*
X35350Y53850D01*
X35300Y53900D01*
Y53950D01*
X35350Y53850D02*
X35450D01*
X38800Y53700D02*
Y54000D01*
X38950D01*
X39000Y53950D01*
Y53850D01*
X38950Y53800D01*
X38800D01*
X38900D02*
X39000Y53700D01*
X39100Y54000D02*
X39300D01*
Y53950D01*
X39100Y53750D01*
Y53700D01*
X35000Y52700D02*
Y53000D01*
X35150D01*
X35200Y52950D01*
Y52850D01*
X35150Y52800D01*
X35000D01*
X35100D02*
X35200Y52700D01*
X35300D02*
X35400D01*
X35350D01*
Y53000D01*
X35300Y52950D01*
X35550D02*
X35600Y53000D01*
X35700D01*
X35750Y52950D01*
Y52750D01*
X35700Y52700D01*
X35600D01*
X35550Y52750D01*
Y52950D01*
X38700Y52700D02*
Y53000D01*
X38850D01*
X38900Y52950D01*
Y52850D01*
X38850Y52800D01*
X38700D01*
X38800D02*
X38900Y52700D01*
X39000Y52750D02*
X39050Y52700D01*
X39150D01*
X39200Y52750D01*
Y52950D01*
X39150Y53000D01*
X39050D01*
X39000Y52950D01*
Y52900D01*
X39050Y52850D01*
X39200D01*
X35000Y51700D02*
Y52000D01*
X35150D01*
X35200Y51950D01*
Y51850D01*
X35150Y51800D01*
X35000D01*
X35100D02*
X35200Y51700D01*
X35300D02*
X35400D01*
X35350D01*
Y52000D01*
X35300Y51950D01*
X35750Y51700D02*
X35550D01*
X35750Y51900D01*
Y51950D01*
X35700Y52000D01*
X35600D01*
X35550Y51950D01*
X38800Y51700D02*
Y52000D01*
X38950D01*
X39000Y51950D01*
Y51850D01*
X38950Y51800D01*
X38800D01*
X38900D02*
X39000Y51700D01*
X39100D02*
X39200D01*
X39150D01*
Y52000D01*
X39100Y51950D01*
X39350Y51700D02*
X39450D01*
X39400D01*
Y52000D01*
X39350Y51950D01*
X35000Y50700D02*
Y51000D01*
X35150D01*
X35200Y50950D01*
Y50850D01*
X35150Y50800D01*
X35000D01*
X35100D02*
X35200Y50700D01*
X35300D02*
X35400D01*
X35350D01*
Y51000D01*
X35300Y50950D01*
X35700Y50700D02*
Y51000D01*
X35550Y50850D01*
X35750D01*
X38800Y50700D02*
Y51000D01*
X38950D01*
X39000Y50950D01*
Y50850D01*
X38950Y50800D01*
X38800D01*
X38900D02*
X39000Y50700D01*
X39100D02*
X39200D01*
X39150D01*
Y51000D01*
X39100Y50950D01*
X39350D02*
X39400Y51000D01*
X39500D01*
X39550Y50950D01*
Y50900D01*
X39500Y50850D01*
X39450D01*
X39500D01*
X39550Y50800D01*
Y50750D01*
X39500Y50700D01*
X39400D01*
X39350Y50750D01*
X35000Y49700D02*
Y50000D01*
X35150D01*
X35200Y49950D01*
Y49850D01*
X35150Y49800D01*
X35000D01*
X35100D02*
X35200Y49700D01*
X35300D02*
X35400D01*
X35350D01*
Y50000D01*
X35300Y49950D01*
X35750Y50000D02*
X35650Y49950D01*
X35550Y49850D01*
Y49750D01*
X35600Y49700D01*
X35700D01*
X35750Y49750D01*
Y49800D01*
X35700Y49850D01*
X35550D01*
X38800Y49700D02*
Y50000D01*
X38950D01*
X39000Y49950D01*
Y49850D01*
X38950Y49800D01*
X38800D01*
X38900D02*
X39000Y49700D01*
X39100D02*
X39200D01*
X39150D01*
Y50000D01*
X39100Y49950D01*
X39550Y50000D02*
X39350D01*
Y49850D01*
X39450Y49900D01*
X39500D01*
X39550Y49850D01*
Y49750D01*
X39500Y49700D01*
X39400D01*
X39350Y49750D01*
X34500Y61540D02*
X34600D01*
X34550D01*
Y61790D01*
X34600Y61840D01*
X34650D01*
X34700Y61790D01*
X34400Y61840D02*
X34300D01*
X34350D01*
Y61540D01*
X34400Y61590D01*
X27200Y61620D02*
X27300D01*
X27250D01*
Y61870D01*
X27300Y61920D01*
X27350D01*
X27400Y61870D01*
X26900Y61920D02*
X27100D01*
X26900Y61720D01*
Y61670D01*
X26950Y61620D01*
X27050D01*
X27100Y61670D01*
X20820Y61620D02*
X20720D01*
X20770D01*
Y61370D01*
X20720Y61320D01*
X20670D01*
X20620Y61370D01*
X20920Y61570D02*
X20970Y61620D01*
X21070D01*
X21120Y61570D01*
Y61520D01*
X21070Y61470D01*
X21020D01*
X21070D01*
X21120Y61420D01*
Y61370D01*
X21070Y61320D01*
X20970D01*
X20920Y61370D01*
X20820Y49820D02*
X20720D01*
X20770D01*
Y49570D01*
X20720Y49520D01*
X20670D01*
X20620Y49570D01*
X21070Y49520D02*
Y49820D01*
X20920Y49670D01*
X21120D01*
X36530Y59050D02*
X36430D01*
X36480D01*
Y58800D01*
X36430Y58750D01*
X36380D01*
X36330Y58800D01*
X36630Y58750D02*
Y59050D01*
X36780D01*
X36830Y59000D01*
Y58900D01*
X36780Y58850D01*
X36630D01*
X36930Y58750D02*
X37030D01*
X36980D01*
Y59050D01*
X36930Y59000D01*
M02*
