%FSLAX23Y23*%
%MOIN*%
G70*
G01*
G75*
G04 Layer_Physical_Order=1*
G04 Layer_Color=255*
G36*
X5553Y7838D02*
X5590D01*
Y7833D01*
X5595D01*
Y7800D01*
X5627D01*
D01*
X5627D01*
X5630Y7797D01*
Y7730D01*
X5610Y7710D01*
X5598D01*
Y7714D01*
X5521D01*
Y7724D01*
X5515Y7723D01*
X5514Y7724D01*
X5508Y7728D01*
X5500Y7730D01*
X5492Y7728D01*
X5486Y7724D01*
X5482Y7728D01*
Y7767D01*
X5443D01*
X5440Y7770D01*
Y7785D01*
X5443D01*
Y7820D01*
D01*
Y7820D01*
X5443Y7820D01*
Y7822D01*
X5443D01*
Y7843D01*
X5460Y7860D01*
X5489D01*
X5501Y7847D01*
X5502Y7842D01*
X5506Y7836D01*
X5512Y7832D01*
X5520Y7830D01*
X5528Y7832D01*
X5534Y7836D01*
X5538Y7842D01*
X5540Y7850D01*
X5538Y7858D01*
X5540Y7860D01*
X5553D01*
Y7838D02*
G37*
%LPC*%
G36*
X5487Y7798D02*
X5457D01*
Y7785D01*
X5487D01*
Y7798D02*
G37*
G36*
X5598Y7732D02*
X5564D01*
Y7724D01*
X5598D01*
Y7732D02*
G37*
G36*
X5554D02*
X5521D01*
Y7724D01*
X5554D01*
Y7732D02*
G37*
G36*
X5528Y7798D02*
X5497D01*
Y7785D01*
X5528D01*
Y7798D02*
G37*
G36*
Y7820D02*
X5497D01*
Y7808D01*
X5528D01*
Y7820D02*
G37*
G36*
X5487D02*
X5457D01*
Y7808D01*
X5487D01*
Y7820D02*
G37*
G36*
X5585Y7828D02*
X5553D01*
Y7800D01*
X5585D01*
Y7828D02*
G37*
%LPD*%
%ADD10C,0.008*%
%ADD11R,0.024X0.087*%
%ADD12R,0.063X0.012*%
%ADD13R,0.063X0.012*%
%ADD14R,0.043X0.039*%
%ADD15R,0.039X0.043*%
%ADD16R,0.059X0.051*%
%ADD17R,0.057X0.022*%
%ADD18R,0.081X0.024*%
%ADD19R,0.014X0.059*%
%ADD20R,0.087X0.079*%
%ADD21R,0.061X0.012*%
%ADD22R,0.057X0.012*%
%ADD23R,0.078X0.062*%
%ADD24R,0.256X0.036*%
%ADD25R,0.015X0.060*%
%ADD26R,0.101X0.062*%
%ADD27R,0.016X0.085*%
%ADD28R,0.016X0.085*%
%ADD29R,0.087X0.024*%
%ADD30R,0.087X0.024*%
%ADD31R,0.048X0.017*%
%ADD32O,0.048X0.017*%
%ADD33R,0.061X0.016*%
%ADD34R,0.041X0.015*%
%ADD35O,0.041X0.015*%
%ADD36R,0.079X0.047*%
%ADD37R,0.031X0.142*%
%ADD38R,0.079X0.087*%
%ADD39R,0.124X0.136*%
%ADD40R,0.024X0.081*%
%ADD41R,0.012X0.061*%
%ADD42R,0.073X0.024*%
%ADD43R,0.085X0.016*%
%ADD44R,0.016X0.061*%
%ADD45R,0.091X0.059*%
%ADD46C,0.012*%
%ADD47C,0.010*%
%ADD48C,0.016*%
%ADD49C,0.050*%
%ADD50C,0.025*%
%ADD51C,0.157*%
%ADD52C,0.087*%
%ADD53C,0.020*%
%ADD54C,0.060*%
%ADD55C,0.059*%
%ADD56R,0.059X0.059*%
%ADD57C,0.170*%
%ADD58C,0.050*%
%ADD59C,0.025*%
%ADD60C,0.040*%
D10*
X7590Y4463D02*
G03*
X7592Y4431I18J-15D01*
G01*
X7611Y4331D02*
G03*
X7615Y4320I17J2D01*
G01*
X7611Y4331D02*
G03*
X7615Y4320I17J2D01*
G01*
X7614Y4300D02*
G03*
X7604Y4319I-23J0D01*
G01*
X7548Y4500D02*
G03*
X7576Y4463I12J-20D01*
G01*
X7572Y4315D02*
G03*
X7614Y4300I18J-15D01*
G01*
X7627Y4309D02*
G03*
X7656Y4287I23J1D01*
G01*
X7723Y4250D02*
G03*
X7701Y4227I-23J0D01*
G01*
X7704Y4223D02*
G03*
X7722Y4192I-4J-23D01*
G01*
X7622Y4253D02*
G03*
X7643Y4230I-2J-23D01*
G01*
X7499Y4500D02*
G03*
X7541Y4500I21J10D01*
G01*
X7534Y4450D02*
G03*
X7534Y4450I-23J0D01*
G01*
X7447Y4414D02*
G03*
X7453Y4430I-17J16D01*
G01*
X7364Y4450D02*
G03*
X7329Y4471I-23J0D01*
G01*
X7453Y4430D02*
G03*
X7407Y4429I-23J0D01*
G01*
X7329Y4429D02*
G03*
X7364Y4450I11J21D01*
G01*
X7400Y4422D02*
G03*
X7395Y4414I11J-11D01*
G01*
X7400Y4422D02*
G03*
X7395Y4414I11J-11D01*
G01*
X7393Y4300D02*
G03*
X7371Y4323I-23J0D01*
G01*
X7350Y4288D02*
G03*
X7393Y4300I20J12D01*
G01*
X7315Y4318D02*
G03*
X7350Y4288I15J-18D01*
G01*
X7704Y3917D02*
G03*
X7708Y3916I4J15D01*
G01*
X7704Y3917D02*
G03*
X7708Y3916I4J15D01*
G01*
X7722Y3948D02*
G03*
X7704Y3917I-22J-8D01*
G01*
X7713Y3850D02*
G03*
X7677Y3829I-13J-20D01*
G01*
X7675Y3828D02*
G03*
X7671Y3817I11J-11D01*
G01*
X7675Y3828D02*
G03*
X7671Y3817I11J-11D01*
G01*
X7634Y3830D02*
G03*
X7587Y3829I-23J0D01*
G01*
X7621Y3809D02*
G03*
X7634Y3830I-11J21D01*
G01*
X7583D02*
G03*
X7549Y3809I-23J0D01*
G01*
X7348D02*
G03*
X7344Y3819I-16J-2D01*
G01*
X7348Y3809D02*
G03*
X7344Y3819I-16J-2D01*
G01*
X7324Y3681D02*
G03*
X7329Y3693I-11J11D01*
G01*
X7324Y3681D02*
G03*
X7329Y3693I-11J11D01*
G01*
X7183Y4410D02*
G03*
X7191Y4428I-15J18D01*
G01*
X7285Y4321D02*
G03*
X7290Y4331I-12J12D01*
G01*
X7285Y4321D02*
G03*
X7290Y4331I-12J12D01*
G01*
X7239D02*
G03*
X7273Y4309I11J-21D01*
G01*
X7191Y4428D02*
G03*
X7153Y4410I-23J0D01*
G01*
X7264Y4180D02*
G03*
X7217Y4184I-23J0D01*
G01*
X7239Y4157D02*
G03*
X7264Y4180I1J23D01*
G01*
X7228Y4152D02*
G03*
X7239Y4157I0J16D01*
G01*
X7228Y4152D02*
G03*
X7239Y4157I0J16D01*
G01*
X7123Y4430D02*
G03*
X7083Y4446I-23J0D01*
G01*
G03*
X7083Y4450I-23J4D01*
G01*
X7115Y4412D02*
G03*
X7123Y4430I-15J18D01*
G01*
X7083Y4450D02*
G03*
X7045Y4432I-23J0D01*
G01*
X7094Y4243D02*
G03*
X7091Y4197I-4J-23D01*
G01*
X7111Y4177D02*
G03*
X7122Y4172I11J11D01*
G01*
X7111Y4177D02*
G03*
X7122Y4172I11J11D01*
G01*
X7233Y3960D02*
G03*
X7244Y3980I-13J20D01*
G01*
X7264Y3930D02*
G03*
X7239Y3953I-23J0D01*
G01*
X7217Y3931D02*
G03*
X7264Y3930I23J-1D01*
G01*
X7267Y3853D02*
G03*
X7225Y3868I-23J0D01*
G01*
X7244Y3980D02*
G03*
X7209Y4001I-23J0D01*
G01*
X7333Y3830D02*
G03*
X7299Y3809I-23J0D01*
G01*
X7260Y3624D02*
G03*
X7271Y3629I0J16D01*
G01*
X7260Y3624D02*
G03*
X7271Y3629I0J16D01*
G01*
X7225Y3838D02*
G03*
X7267Y3853I18J15D01*
G01*
X6996Y3823D02*
G03*
X7006Y3819I11J11D01*
G01*
X6996Y3823D02*
G03*
X7006Y3819I11J11D01*
G01*
X7120Y3716D02*
G03*
X7109Y3711I0J-16D01*
G01*
X7120Y3716D02*
G03*
X7109Y3711I0J-16D01*
G01*
X7170Y3616D02*
G03*
X7159Y3611I0J-16D01*
G01*
X7170Y3616D02*
G03*
X7159Y3611I0J-16D01*
G01*
X7594Y5651D02*
G03*
X7603Y5669I-15J18D01*
G01*
G03*
X7556Y5667I-23J0D01*
G01*
X7543Y5654D02*
G03*
X7539Y5646I11J-11D01*
G01*
X7543Y5654D02*
G03*
X7539Y5646I11J-11D01*
G01*
X7441Y5826D02*
G03*
X7441Y5794I-17J-16D01*
G01*
X7413Y5670D02*
G03*
X7367Y5668I-23J0D01*
G01*
X7415Y5660D02*
G03*
X7413Y5667I-15J0D01*
G01*
X7415Y5660D02*
G03*
X7413Y5667I-15J0D01*
G01*
X7364Y5665D02*
G03*
X7360Y5655I11J-11D01*
G01*
X7364Y5665D02*
G03*
X7360Y5655I11J-11D01*
G01*
X5850Y3110D02*
X6070D01*
X6210Y3250D02*
Y3400D01*
X6070Y3110D02*
X6210Y3250D01*
X6240Y6980D02*
X6560D01*
X5370Y5850D02*
X5410D01*
X6635Y4615D02*
X7125D01*
X7293Y4447D01*
Y4372D02*
Y4447D01*
X6635Y4665D02*
X7135D01*
X7313Y4487D01*
Y4372D02*
Y4487D01*
X6040Y7500D02*
X6410D01*
X6560Y6979D02*
Y7010D01*
Y6979D02*
X6749D01*
X6130Y6870D02*
X6240Y6980D01*
X6783Y6983D02*
Y7077D01*
X6560Y7010D02*
X6650Y7100D01*
X6760D01*
X6783Y7077D01*
X6749Y6979D02*
X6757Y6987D01*
Y7032D01*
X6245Y3555D02*
X6425D01*
X3898Y4468D02*
Y4788D01*
X3888Y6452D02*
Y6792D01*
X3878Y5692D02*
Y6138D01*
Y5162D02*
Y5498D01*
X3873Y4573D02*
Y4747D01*
X3850Y5810D02*
Y5880D01*
X3853Y5243D02*
Y5417D01*
X6245Y3505D02*
X6425D01*
X6180Y3570D02*
Y3630D01*
Y3570D02*
X6245Y3505D01*
X6355Y3605D02*
X6425D01*
X3940Y3240D02*
X3970Y3270D01*
X3812Y3588D02*
Y3659D01*
X3940Y3160D02*
X4020Y3080D01*
X7930Y4920D02*
X7950D01*
X7857Y4190D02*
X8050D01*
X7772Y4149D02*
X7816D01*
X7700Y4960D02*
X7750Y5010D01*
X7840D01*
X7930Y4920D01*
X7816Y4149D02*
X7857Y4190D01*
X7755Y4344D02*
X7760D01*
Y4323D02*
Y4349D01*
X7747Y4336D02*
X7760D01*
X7752Y4323D02*
Y4341D01*
X7739Y4328D02*
X7760D01*
X7744Y4323D02*
Y4333D01*
X7605Y4331D02*
X7611D01*
X7604Y4328D02*
X7611D01*
X7584Y4414D02*
Y4463D01*
X7576D02*
X7590D01*
X7576Y4414D02*
Y4463D01*
X7592Y4414D02*
Y4431D01*
X7585Y4414D02*
X7591D01*
X7571D02*
X7585D01*
X7571D02*
X7585D01*
X7734Y4323D02*
X7760Y4349D01*
X7734Y4323D02*
X7760D01*
X7731Y4319D02*
X7734Y4323D01*
X7731Y4303D02*
Y4319D01*
X7723Y4312D02*
X7731D01*
X7728Y4245D02*
Y4317D01*
X7615Y4320D02*
X7627Y4309D01*
X7643Y4232D02*
X7731Y4319D01*
X7604Y4319D02*
Y4331D01*
X7608Y4315D02*
Y4331D01*
X7604Y4320D02*
X7616D01*
X7616Y4253D02*
Y4320D01*
X7572Y4315D02*
Y4331D01*
X7533Y4456D02*
X7586D01*
X7533Y4448D02*
X7584D01*
X7531Y4440D02*
X7586D01*
X7525Y4432D02*
X7590D01*
X7566Y4414D02*
X7571D01*
X7453Y4424D02*
X7592D01*
X7449Y4416D02*
X7592D01*
X7541Y4500D02*
X7548D01*
X7568Y4414D02*
Y4458D01*
X7539Y4496D02*
X7543D01*
X7529Y4464D02*
X7543D01*
X7560Y4414D02*
Y4457D01*
X7552Y4414D02*
Y4458D01*
X7552Y4414D02*
X7566D01*
X7552D02*
X7566D01*
Y4331D02*
X7571D01*
X7369Y4328D02*
X7572D01*
X7552Y4331D02*
X7566D01*
X7552D02*
X7566D01*
X7382Y4320D02*
X7572D01*
X7546Y4414D02*
X7552D01*
X7568Y4308D02*
Y4331D01*
X7532Y4414D02*
X7546D01*
X7532D02*
X7546D01*
Y4331D02*
X7552D01*
X7532D02*
X7546D01*
X7532D02*
X7546D01*
X7731Y4289D02*
Y4303D01*
Y4289D02*
Y4303D01*
X7715Y4304D02*
X7731D01*
X7707Y4296D02*
X7731D01*
Y4284D02*
Y4289D01*
X7708Y4272D02*
X7731D01*
X7699Y4288D02*
X7731D01*
X7691Y4280D02*
X7731D01*
Y4270D02*
Y4284D01*
Y4270D02*
Y4284D01*
X7704Y4273D02*
Y4293D01*
X7712Y4270D02*
Y4301D01*
X7731Y4264D02*
Y4270D01*
X7719Y4264D02*
X7731D01*
X7696Y4273D02*
Y4285D01*
X7688Y4270D02*
Y4277D01*
X7731Y4250D02*
Y4264D01*
Y4250D02*
Y4264D01*
X7723Y4256D02*
X7731D01*
Y4244D02*
Y4250D01*
X7725Y4248D02*
X7731D01*
Y4185D02*
Y4191D01*
X7722Y4192D02*
X7731D01*
X7717Y4184D02*
X7731D01*
X7720Y4262D02*
Y4309D01*
X7723Y4249D02*
X7729Y4243D01*
X7701Y4227D02*
X7704Y4223D01*
X7688Y4220D02*
Y4230D01*
X7731Y4171D02*
Y4185D01*
Y4171D02*
Y4185D01*
X7696Y4223D02*
Y4227D01*
X7731Y4166D02*
Y4171D01*
X7648Y4279D02*
Y4287D01*
X7640Y4271D02*
Y4289D01*
X7610Y4288D02*
X7642D01*
X7683Y4272D02*
X7692D01*
X7680Y4262D02*
Y4269D01*
X7602Y4280D02*
X7649D01*
X7675Y4264D02*
X7681D01*
X7610Y4312D02*
X7624D01*
X7613Y4304D02*
X7627D01*
X7390Y4312D02*
X7570D01*
X7393Y4304D02*
X7567D01*
X7613Y4296D02*
X7631D01*
X7393D02*
X7567D01*
X7390Y4288D02*
X7570D01*
X7382Y4280D02*
X7578D01*
X7680Y4212D02*
Y4238D01*
X7667Y4256D02*
X7677D01*
X7651Y4240D02*
X7679D01*
X7643Y4224D02*
X7703D01*
X7639Y4216D02*
X7683D01*
X7628Y4208D02*
X7678D01*
X7632Y4263D02*
Y4295D01*
X7624Y4255D02*
Y4312D01*
X7622Y4253D02*
X7656Y4287D01*
X7608Y4250D02*
Y4285D01*
X7659Y4248D02*
X7677D01*
X7600Y4242D02*
Y4279D01*
X7528Y4488D02*
X7538D01*
X7504Y4473D02*
Y4493D01*
X7496Y4469D02*
Y4500D01*
X7520Y4471D02*
Y4486D01*
X7528Y4465D02*
Y4488D01*
X7518Y4472D02*
X7538D01*
X7512Y4473D02*
Y4488D01*
X7488Y4458D02*
Y4500D01*
X7448Y4445D02*
Y4500D01*
X7440Y4451D02*
Y4500D01*
X7432Y4453D02*
Y4500D01*
X7445Y4448D02*
X7487D01*
X7451Y4440D02*
X7489D01*
X7424Y4453D02*
Y4500D01*
X7416Y4449D02*
Y4500D01*
X7544Y4414D02*
Y4463D01*
X7536Y4414D02*
Y4493D01*
X7528Y4414D02*
Y4435D01*
X7520Y4414D02*
Y4429D01*
X7512Y4414D02*
Y4427D01*
X7453Y4432D02*
X7495D01*
X7504Y4414D02*
Y4427D01*
X7480Y4414D02*
Y4500D01*
X7472Y4414D02*
Y4500D01*
X7464Y4414D02*
Y4500D01*
X7456Y4414D02*
Y4500D01*
X7496Y4414D02*
Y4431D01*
X7488Y4414D02*
Y4442D01*
X7408Y4438D02*
Y4500D01*
X7329D02*
X7499D01*
X7329Y4496D02*
X7501D01*
X7329Y4488D02*
X7512D01*
X7329Y4480D02*
X7536D01*
X7363Y4456D02*
X7487D01*
X7363Y4448D02*
X7415D01*
X7348Y4472D02*
X7502D01*
X7359Y4464D02*
X7491D01*
X7352Y4470D02*
Y4500D01*
X7360Y4462D02*
Y4500D01*
X7344Y4473D02*
Y4500D01*
X7336Y4473D02*
Y4500D01*
X7329Y4471D02*
Y4500D01*
X7361Y4440D02*
X7409D01*
X7329Y4472D02*
X7332D01*
X7400Y4423D02*
Y4500D01*
X7392Y4414D02*
Y4500D01*
X7384Y4414D02*
Y4500D01*
X7376Y4414D02*
Y4500D01*
X7400Y4422D02*
X7407Y4429D01*
X7355Y4432D02*
X7407D01*
X7329Y4424D02*
X7401D01*
X7368Y4414D02*
Y4500D01*
X7360Y4414D02*
Y4438D01*
X7352Y4414D02*
Y4430D01*
X7344Y4414D02*
Y4427D01*
X7336Y4414D02*
Y4427D01*
X7329Y4414D02*
Y4429D01*
X7526Y4414D02*
X7532D01*
X7512D02*
X7526D01*
X7512D02*
X7526D01*
X7507D02*
X7512D01*
X7526Y4331D02*
X7532D01*
X7512D02*
X7526D01*
X7492Y4414D02*
X7507D01*
X7512Y4331D02*
X7526D01*
X7492Y4414D02*
X7507D01*
X7487D02*
X7492D01*
X7473D02*
X7487D01*
X7473D02*
X7487D01*
X7467D02*
X7473D01*
X7453D02*
X7467D01*
X7453D02*
X7467D01*
X7448D02*
X7453D01*
X7507Y4331D02*
X7512D01*
X7492D02*
X7507D01*
X7492D02*
X7507D01*
X7487D02*
X7492D01*
X7473D02*
X7487D01*
X7473D02*
X7487D01*
X7467D02*
X7473D01*
X7453D02*
X7467D01*
X7453D02*
X7467D01*
X7448D02*
X7453D01*
X7433D02*
X7448D01*
X7433D02*
X7448D01*
X7428D02*
X7433D01*
X7414D02*
X7428D01*
X7414D02*
X7428D01*
X7329Y4416D02*
X7396D01*
X7388Y4414D02*
X7394D01*
X7408Y4331D02*
X7414D01*
X7394D02*
X7408D01*
X7374Y4414D02*
X7388D01*
X7394Y4331D02*
X7408D01*
X7374Y4414D02*
X7388D01*
X7369D02*
X7374D01*
X7355D02*
X7369D01*
X7355D02*
X7369D01*
X7349D02*
X7355D01*
X7335D02*
X7349D01*
X7335D02*
X7349D01*
X7329D02*
X7335D01*
X7388Y4331D02*
X7394D01*
X7392Y4308D02*
Y4331D01*
X7374D02*
X7388D01*
X7374D02*
X7388D01*
X7376Y4323D02*
Y4331D01*
X7384Y4319D02*
Y4331D01*
X7369D02*
X7374D01*
X7369Y4325D02*
Y4331D01*
X7310D02*
X7315D01*
Y4318D02*
Y4331D01*
X7312Y4315D02*
Y4331D01*
X7342Y4280D02*
X7358D01*
X7731Y4152D02*
Y4166D01*
Y4152D02*
Y4166D01*
Y4146D02*
Y4152D01*
Y4132D02*
Y4146D01*
Y4132D02*
Y4146D01*
Y4126D02*
Y4132D01*
Y4112D02*
Y4126D01*
Y4112D02*
Y4126D01*
Y4107D02*
Y4112D01*
Y4092D02*
Y4107D01*
Y4092D02*
Y4107D01*
Y4087D02*
Y4092D01*
Y4073D02*
Y4087D01*
Y4073D02*
Y4087D01*
Y4067D02*
Y4073D01*
Y4053D02*
Y4067D01*
Y4053D02*
Y4067D01*
Y4048D02*
Y4053D01*
Y4033D02*
Y4048D01*
Y4033D02*
Y4048D01*
Y4028D02*
Y4033D01*
Y4014D02*
Y4028D01*
Y4014D02*
Y4028D01*
Y4008D02*
Y4014D01*
X7728Y3948D02*
Y4192D01*
X7731Y3994D02*
Y4008D01*
Y3994D02*
Y4008D01*
Y3988D02*
Y3994D01*
Y3974D02*
Y3988D01*
Y3974D02*
Y3988D01*
Y3969D02*
Y3974D01*
Y3955D02*
Y3969D01*
Y3955D02*
Y3969D01*
X7712Y3960D02*
X7731D01*
X7720Y3952D02*
Y4188D01*
X7731Y3949D02*
Y3955D01*
X7722Y3948D02*
X7731D01*
X7720Y3952D02*
X7731D01*
X7708Y3916D02*
X7731D01*
X7704Y3963D02*
Y4177D01*
X7712Y3960D02*
Y4180D01*
X7688Y3960D02*
Y4180D01*
X7680Y3952D02*
Y4188D01*
X7696Y3963D02*
Y4177D01*
X7731Y3910D02*
Y3915D01*
X7728Y3850D02*
Y3916D01*
X7720Y3850D02*
Y3916D01*
X7688Y3850D02*
Y3920D01*
X7731Y3896D02*
Y3910D01*
X7712Y3850D02*
Y3916D01*
X7704Y3853D02*
Y3917D01*
X7696Y3853D02*
Y3917D01*
X7672Y3823D02*
Y4261D01*
X7664Y3809D02*
Y4253D01*
X7656Y3809D02*
Y4245D01*
X7648Y3809D02*
Y4237D01*
X7680Y3842D02*
Y3928D01*
X7640Y3809D02*
Y4218D01*
X7632Y3838D02*
Y4210D01*
X7731Y3896D02*
Y3910D01*
Y3890D02*
Y3896D01*
Y3876D02*
Y3890D01*
Y3817D02*
X7760D01*
X7722Y3816D02*
X7760D01*
X7723Y3808D02*
X7760D01*
X7723Y3800D02*
X7760D01*
X7723Y3792D02*
X7760D01*
X7731Y3876D02*
Y3890D01*
Y3870D02*
Y3876D01*
Y3856D02*
Y3870D01*
Y3856D02*
Y3870D01*
Y3851D02*
Y3856D01*
X7722Y3818D02*
X7731D01*
X7713Y3850D02*
X7731D01*
X7722Y3809D02*
Y3818D01*
X7723Y3784D02*
X7760D01*
X7723Y3776D02*
X7760D01*
X7723Y3768D02*
X7760D01*
X7723Y3760D02*
X7760D01*
X7723Y3752D02*
X7760D01*
X7723Y3744D02*
X7760D01*
X7723Y3736D02*
X7760D01*
X7723Y3728D02*
X7760D01*
Y3685D02*
Y3817D01*
X7752Y3685D02*
Y3817D01*
X7744Y3685D02*
Y3817D01*
X7736Y3685D02*
Y3817D01*
X7723Y3726D02*
Y3809D01*
X7728Y3685D02*
Y3818D01*
X7720Y3685D02*
Y3726D01*
X7712Y3685D02*
Y3726D01*
X7633Y3832D02*
X7677D01*
X7625Y3848D02*
X7685D01*
X7631Y3840D02*
X7679D01*
X7633Y3824D02*
X7672D01*
X7629Y3816D02*
X7671D01*
Y3809D02*
Y3817D01*
X7664Y3809D02*
X7670D01*
X7650D02*
X7664D01*
X7650D02*
X7664D01*
X7644D02*
X7650D01*
X7630D02*
X7644D01*
X7630D02*
X7644D01*
X7703Y3726D02*
X7723D01*
X7689D02*
X7703D01*
X7682Y3720D02*
X7760D01*
X7682Y3712D02*
X7760D01*
X7703Y3688D02*
X7760D01*
X7706Y3685D02*
X7760D01*
X7687Y3704D02*
X7760D01*
X7695Y3696D02*
X7760D01*
X7696Y3695D02*
Y3726D01*
X7704Y3687D02*
Y3726D01*
X7689D02*
X7703D01*
X7684D02*
X7689D01*
X7682Y3709D02*
Y3726D01*
X7688Y3703D02*
Y3726D01*
X7682Y3709D02*
X7706Y3685D01*
X7616Y3853D02*
Y4207D01*
X7624Y3849D02*
Y4207D01*
X7600Y3851D02*
Y4218D01*
X7592Y3845D02*
Y4277D01*
X7608Y3853D02*
Y4210D01*
X7632Y3809D02*
Y3822D01*
X7575Y3848D02*
X7595D01*
X7581Y3840D02*
X7589D01*
X7568Y3852D02*
Y4292D01*
X7560Y3853D02*
Y4331D01*
X7552Y3852D02*
Y4331D01*
X7544Y3847D02*
Y4331D01*
X7583Y3832D02*
X7587D01*
X7584Y3827D02*
Y4277D01*
X7576Y3847D02*
Y4281D01*
X7584Y3826D02*
X7587Y3829D01*
X7625Y3809D02*
X7630D01*
X7544D02*
Y3813D01*
X7621Y3809D02*
X7625D01*
X7621D02*
X7625D01*
X7532D02*
X7546D01*
X7532D02*
X7546D01*
X7536D02*
Y4331D01*
X7528Y3809D02*
Y4331D01*
X7520Y3809D02*
Y4331D01*
X7512Y3809D02*
Y4331D01*
X7504Y3809D02*
Y4331D01*
X7496Y3809D02*
Y4331D01*
X7488Y3809D02*
Y4331D01*
X7480Y3809D02*
Y4331D01*
X7472Y3809D02*
Y4331D01*
X7464Y3809D02*
Y4331D01*
X7325Y3848D02*
X7545D01*
X7456Y3809D02*
Y4331D01*
X7339Y3824D02*
X7537D01*
X7346Y3816D02*
X7541D01*
X7331Y3840D02*
X7539D01*
X7333Y3832D02*
X7537D01*
X7312Y3853D02*
Y4285D01*
X7344Y3819D02*
Y4281D01*
X7304Y3853D02*
Y4331D01*
X7296Y3849D02*
Y4331D01*
X7336Y3827D02*
Y4277D01*
X7333Y3829D02*
X7344Y3819D01*
X7320Y3851D02*
Y4279D01*
X7328Y3845D02*
Y4277D01*
X7448Y3809D02*
Y4331D01*
X7440Y3809D02*
Y4331D01*
X7432Y3809D02*
Y4331D01*
X7424Y3809D02*
Y4331D01*
X7416Y3809D02*
Y4331D01*
X7408Y3809D02*
Y4331D01*
X7400Y3809D02*
Y4331D01*
X7392Y3809D02*
Y4292D01*
X7384Y3809D02*
Y4281D01*
X7376Y3809D02*
Y4277D01*
X7368Y3809D02*
Y4277D01*
X7352Y3809D02*
Y4285D01*
X7360Y3809D02*
Y4279D01*
X7526Y3809D02*
X7532D01*
X7512D02*
X7526D01*
X7512D02*
X7526D01*
X7507D02*
X7512D01*
X7492D02*
X7507D01*
X7492D02*
X7507D01*
X7487D02*
X7492D01*
X7473D02*
X7487D01*
X7473D02*
X7487D01*
X7467D02*
X7473D01*
X7453D02*
X7467D01*
X7453D02*
X7467D01*
X7448D02*
X7453D01*
X7433D02*
X7448D01*
X7433D02*
X7448D01*
X7428D02*
X7433D01*
X7414D02*
X7428D01*
X7414D02*
X7428D01*
X7408D02*
X7414D01*
X7394D02*
X7408D01*
X7394D02*
X7408D01*
X7388D02*
X7394D01*
X7374D02*
X7388D01*
X7374D02*
X7388D01*
X7369D02*
X7374D01*
X7369Y3726D02*
X7374D01*
X7355Y3809D02*
X7369D01*
X7355D02*
X7369D01*
X7375Y3675D02*
Y3726D01*
X7368Y3668D02*
Y3726D01*
X7360Y3660D02*
Y3726D01*
X7355D02*
X7369D01*
X7355D02*
X7369D01*
X7349Y3809D02*
X7355D01*
X7329Y3720D02*
X7375D01*
X7329Y3712D02*
X7375D01*
X7329Y3704D02*
X7375D01*
X7329Y3696D02*
X7375D01*
X7328Y3688D02*
X7375D01*
X7296Y3809D02*
X7299D01*
X7349Y3726D02*
X7355D01*
X7335D02*
X7349D01*
X7335D02*
X7349D01*
X7329D02*
X7335D01*
X7329Y3693D02*
Y3726D01*
X7352Y3652D02*
Y3726D01*
X7344Y3644D02*
Y3726D01*
X7323Y3680D02*
X7375D01*
X7336Y3636D02*
Y3726D01*
X7315Y3672D02*
X7372D01*
X7316Y3616D02*
X7375Y3675D01*
X7307Y3664D02*
X7364D01*
X7299Y3656D02*
X7356D01*
X7328Y3628D02*
Y3688D01*
X7320Y3620D02*
Y3677D01*
X7312Y3616D02*
Y3669D01*
X7304Y3616D02*
Y3661D01*
X7296Y3616D02*
Y3653D01*
X7296Y4331D02*
X7310D01*
X7289Y4328D02*
X7315D01*
X7188Y4440D02*
X7218D01*
X7191Y4432D02*
X7218D01*
X7296Y4331D02*
X7310D01*
X7290D02*
X7296D01*
X7217D02*
X7237D01*
X7232Y4325D02*
Y4331D01*
X7218Y4414D02*
Y4460D01*
X7208Y4323D02*
Y4469D01*
X7184Y4445D02*
Y4493D01*
X7191Y4424D02*
X7218D01*
X7217Y4331D02*
Y4414D01*
X7188Y4416D02*
X7218D01*
X7183Y4408D02*
X7217D01*
X7284Y4320D02*
X7315D01*
X7276Y4312D02*
X7310D01*
X7273Y4309D02*
X7285Y4321D01*
X7209Y4320D02*
X7229D01*
X7273Y4304D02*
X7307D01*
X7200Y4323D02*
Y4477D01*
X7216Y4184D02*
Y4461D01*
X7192Y4323D02*
Y4485D01*
X7184Y4323D02*
Y4411D01*
X7209Y4303D02*
Y4323D01*
X7224Y4197D02*
Y4331D01*
X7209Y4312D02*
X7227D01*
X7209Y4304D02*
X7227D01*
X7068Y4472D02*
X7205D01*
X7177Y4500D02*
X7218Y4460D01*
X6990Y4488D02*
X7189D01*
X6990Y4480D02*
X7197D01*
X7180Y4448D02*
X7218D01*
X7183Y4400D02*
X7217D01*
X7079Y4464D02*
X7213D01*
X7083Y4456D02*
X7218D01*
X7168Y4451D02*
Y4500D01*
X7176Y4450D02*
Y4500D01*
X6990D02*
X7177D01*
X7160Y4450D02*
Y4500D01*
X7115Y4448D02*
X7156D01*
X6990Y4496D02*
X7181D01*
X7115Y4408D02*
X7153D01*
X7183Y4392D02*
X7217D01*
X7183Y4384D02*
X7217D01*
X7183Y4376D02*
X7217D01*
X7183Y4368D02*
X7217D01*
X7183Y4360D02*
X7217D01*
X7183Y4352D02*
X7217D01*
X7183Y4344D02*
X7217D01*
X7183Y4328D02*
X7235D01*
X7115Y4400D02*
X7153D01*
X7183Y4323D02*
Y4410D01*
X7115Y4392D02*
X7153D01*
X7115Y4384D02*
X7153D01*
X7183Y4336D02*
X7217D01*
X7183Y4323D02*
X7209D01*
X7115Y4376D02*
X7153D01*
X7269Y4296D02*
X7307D01*
X7258Y4288D02*
X7310D01*
X7209Y4296D02*
X7231D01*
X7209Y4288D02*
X7242D01*
X7209Y4280D02*
X7318D01*
X7209Y4272D02*
X7641D01*
X7209Y4264D02*
X7633D01*
X7209Y4256D02*
X7625D01*
X7209Y4289D02*
Y4303D01*
Y4289D02*
Y4303D01*
Y4284D02*
Y4289D01*
Y4270D02*
Y4284D01*
Y4270D02*
Y4284D01*
Y4264D02*
Y4270D01*
Y4250D02*
Y4264D01*
Y4250D02*
Y4264D01*
X7252Y4200D02*
X7676D01*
X7260Y4192D02*
X7678D01*
X7209Y4248D02*
X7605D01*
X7263Y4184D02*
X7683D01*
X7263Y4176D02*
X7731D01*
X7260Y4168D02*
X7731D01*
X7252Y4160D02*
X7731D01*
X7248Y4202D02*
Y4287D01*
X7256Y4197D02*
Y4287D01*
X7240Y4203D02*
Y4289D01*
X7232Y4202D02*
Y4295D01*
X7209Y4244D02*
Y4250D01*
Y4240D02*
X7599D01*
X7209Y4230D02*
Y4244D01*
Y4232D02*
X7597D01*
X7209Y4224D02*
X7597D01*
X7209Y4216D02*
X7601D01*
X7209Y4208D02*
X7612D01*
X7209Y4200D02*
X7228D01*
X7209Y4192D02*
X7220D01*
X7209Y4230D02*
Y4244D01*
Y4225D02*
Y4230D01*
Y4211D02*
Y4225D01*
Y4211D02*
Y4225D01*
Y4205D02*
Y4211D01*
Y4191D02*
Y4205D01*
Y4191D02*
Y4205D01*
Y4185D02*
Y4191D01*
Y4184D02*
X7217D01*
X7209Y4152D02*
X7228D01*
X7209Y4146D02*
Y4152D01*
Y4144D02*
X7731D01*
X7209Y4136D02*
X7731D01*
X7209Y4128D02*
X7731D01*
X7209Y4120D02*
X7731D01*
X7209Y4112D02*
X7731D01*
X7209Y4132D02*
Y4146D01*
Y4132D02*
Y4146D01*
Y4126D02*
Y4132D01*
Y4112D02*
Y4126D01*
Y4112D02*
Y4126D01*
X7152Y4445D02*
Y4500D01*
X7120Y4442D02*
Y4500D01*
X7104Y4453D02*
Y4500D01*
X7112Y4450D02*
Y4500D01*
X7121Y4440D02*
X7148D01*
X7123Y4432D02*
X7145D01*
X7096Y4453D02*
Y4500D01*
X7080Y4462D02*
Y4500D01*
X7088Y4450D02*
Y4500D01*
X7064Y4473D02*
Y4500D01*
X7072Y4470D02*
Y4500D01*
X7056Y4473D02*
Y4500D01*
X7048Y4470D02*
Y4500D01*
X7040Y4462D02*
Y4500D01*
X7152Y4323D02*
Y4410D01*
X7153Y4323D02*
Y4410D01*
X7123Y4424D02*
X7145D01*
X7119Y4416D02*
X7148D01*
X7115Y4368D02*
X7153D01*
X7115Y4360D02*
X7153D01*
X7115Y4352D02*
X7153D01*
X7115Y4344D02*
X7153D01*
X7144Y4323D02*
Y4500D01*
X7136Y4323D02*
Y4500D01*
X7040Y4343D02*
Y4438D01*
X7128Y4323D02*
Y4500D01*
X7120Y4311D02*
Y4418D01*
X7045Y4338D02*
Y4432D01*
X7115Y4316D02*
Y4412D01*
X6990Y4472D02*
X7052D01*
X6990Y4432D02*
X7045D01*
X6990Y4424D02*
X7045D01*
X6990Y4416D02*
X7045D01*
X6991Y4392D02*
X7045D01*
X6990Y4408D02*
X7045D01*
X6990Y4400D02*
X7045D01*
X6992Y4391D02*
Y4500D01*
X7000Y4383D02*
Y4500D01*
X6990Y4484D02*
Y4500D01*
Y4393D02*
Y4484D01*
Y4464D02*
X7041D01*
X6990Y4456D02*
X7037D01*
X6990Y4448D02*
X7037D01*
X6990Y4440D02*
X7039D01*
X7007Y4376D02*
X7045D01*
X7015Y4368D02*
X7045D01*
X6999Y4384D02*
X7045D01*
X6990Y4393D02*
X7045Y4338D01*
X7031Y4352D02*
X7045D01*
X7039Y4344D02*
X7045D01*
X7023Y4360D02*
X7045D01*
X6990Y4347D02*
X7094Y4243D01*
X7024Y4359D02*
Y4500D01*
X7032Y4351D02*
Y4500D01*
X7008Y4375D02*
Y4500D01*
X7016Y4367D02*
Y4500D01*
X6990Y4203D02*
Y4347D01*
X6992Y4201D02*
Y4345D01*
X6990Y4344D02*
X6993D01*
X7126Y4323D02*
X7153D01*
X7126Y4305D02*
Y4323D01*
X7115Y4336D02*
X7153D01*
X7115Y4328D02*
X7153D01*
X7119Y4312D02*
X7126D01*
X7122Y4172D02*
X7126D01*
X7115Y4320D02*
X7126D01*
X7115Y4316D02*
X7126Y4305D01*
X7088Y4243D02*
Y4249D01*
X7080Y4241D02*
Y4257D01*
X7072Y4235D02*
Y4265D01*
X7126Y4166D02*
Y4171D01*
X7091Y4197D02*
X7111Y4177D01*
X7126Y4152D02*
Y4166D01*
Y4152D02*
Y4166D01*
Y4146D02*
Y4152D01*
Y4132D02*
Y4146D01*
Y4132D02*
Y4146D01*
Y4126D02*
Y4132D01*
X7057Y4136D02*
X7126D01*
X7065Y4128D02*
X7126D01*
X7064Y4129D02*
Y4273D01*
X7072Y4121D02*
Y4205D01*
X7048Y4145D02*
Y4289D01*
X7056Y4137D02*
Y4281D01*
X7126Y4112D02*
Y4126D01*
Y4112D02*
Y4126D01*
X7073Y4120D02*
X7126D01*
X6990Y4272D02*
X7065D01*
X6990Y4264D02*
X7073D01*
X6990Y4256D02*
X7081D01*
X6990Y4248D02*
X7089D01*
X6990Y4240D02*
X7078D01*
X6990Y4232D02*
X7070D01*
X6990Y4224D02*
X7067D01*
X6990Y4216D02*
X7067D01*
X6990Y4336D02*
X7001D01*
X6990Y4328D02*
X7009D01*
X6990Y4320D02*
X7017D01*
X6990Y4312D02*
X7025D01*
X6990Y4304D02*
X7033D01*
X6990Y4296D02*
X7041D01*
X6990Y4288D02*
X7049D01*
X6990Y4280D02*
X7057D01*
X7009Y4184D02*
X7103D01*
X7017Y4176D02*
X7111D01*
X6993Y4200D02*
X7078D01*
X7001Y4192D02*
X7095D01*
X7041Y4152D02*
X7126D01*
X7049Y4144D02*
X7126D01*
X7025Y4168D02*
X7126D01*
X7033Y4160D02*
X7126D01*
X7016Y4177D02*
Y4321D01*
X7024Y4169D02*
Y4313D01*
X7000Y4193D02*
Y4337D01*
X7008Y4185D02*
Y4329D01*
X7032Y4161D02*
Y4305D01*
X7040Y4153D02*
Y4297D01*
X6990Y4208D02*
X7070D01*
X7243Y3984D02*
X7731D01*
X7243Y3976D02*
X7731D01*
X7232Y4000D02*
X7731D01*
X7240Y3992D02*
X7731D01*
X7248Y3952D02*
X7680D01*
X7259Y3944D02*
X7677D01*
X7240Y3968D02*
X7731D01*
X7233Y3960D02*
X7688D01*
X7248Y3952D02*
Y4158D01*
X7256Y3947D02*
Y4163D01*
X7232Y4000D02*
Y4153D01*
X7240Y3992D02*
Y4156D01*
Y3954D02*
Y3968D01*
X7224Y4003D02*
Y4152D01*
X7233Y3960D02*
X7239Y3953D01*
X7288Y3838D02*
Y4325D01*
X7280Y3809D02*
Y4316D01*
X7264Y3865D02*
Y4291D01*
X7272Y3809D02*
Y4302D01*
X7263Y3936D02*
X7677D01*
X7263Y3928D02*
X7680D01*
X7261Y3920D02*
X7688D01*
X7255Y3912D02*
X7731D01*
X7256Y3873D02*
Y3913D01*
X7224Y3868D02*
Y3913D01*
X7248Y3877D02*
Y3908D01*
X7240Y3877D02*
Y3907D01*
X7232Y3874D02*
Y3908D01*
X7209Y4104D02*
X7731D01*
X7209Y4096D02*
X7731D01*
X7209Y4088D02*
X7731D01*
X7209Y4080D02*
X7731D01*
X7209Y4072D02*
X7731D01*
X7209Y4064D02*
X7731D01*
X7209Y4056D02*
X7731D01*
X7209Y4048D02*
X7731D01*
X7209Y4107D02*
Y4112D01*
Y4092D02*
Y4107D01*
Y4092D02*
Y4107D01*
Y4087D02*
Y4092D01*
Y4073D02*
Y4087D01*
Y4073D02*
Y4087D01*
Y4067D02*
Y4073D01*
Y4040D02*
X7731D01*
X7209Y4032D02*
X7731D01*
X7209Y4024D02*
X7731D01*
X7209Y4016D02*
X7731D01*
X7209Y4008D02*
X7731D01*
X7209Y3904D02*
X7731D01*
X7209Y3896D02*
X7731D01*
X7209Y3888D02*
X7731D01*
X7209Y3880D02*
X7731D01*
X7216Y4003D02*
Y4152D01*
Y3868D02*
Y3931D01*
X7211Y3936D02*
X7217Y3931D01*
X7209Y3928D02*
X7217D01*
X7209Y3920D02*
X7219D01*
X7209Y3912D02*
X7225D01*
X7267Y3856D02*
X7731D01*
X7258Y3872D02*
X7731D01*
X7264Y3864D02*
X7731D01*
X7296Y3809D02*
X7299D01*
X7290D02*
X7296D01*
X7266Y3848D02*
X7295D01*
X7263Y3840D02*
X7289D01*
X7288Y3809D02*
Y3822D01*
X7264Y3809D02*
Y3842D01*
X7253Y3832D02*
X7287D01*
X7256Y3809D02*
Y3834D01*
X7276Y3809D02*
X7290D01*
X7276D02*
X7290D01*
X7270D02*
X7276D01*
X7256D02*
X7270D01*
X7291Y3648D02*
X7348D01*
X7288Y3616D02*
Y3645D01*
X7283Y3640D02*
X7340D01*
X7271Y3629D02*
X7324Y3681D01*
X7275Y3632D02*
X7332D01*
X7280Y3616D02*
Y3637D01*
X7260Y3624D02*
X7324D01*
X7256Y3809D02*
X7270D01*
X7251D02*
X7256D01*
X7248D02*
Y3830D01*
X7272Y3616D02*
Y3629D01*
X7264Y3616D02*
Y3625D01*
X7256Y3616D02*
Y3624D01*
X7248Y3616D02*
Y3624D01*
X7240Y3809D02*
Y3830D01*
X7209Y3832D02*
X7234D01*
X7209Y3824D02*
X7287D01*
X7237Y3809D02*
X7251D01*
X7237D02*
X7251D01*
X6990Y3816D02*
X7291D01*
X7217Y3809D02*
X7237D01*
X7209Y3872D02*
X7229D01*
X7224Y3809D02*
Y3838D01*
X7209Y3868D02*
X7225D01*
X7209Y3838D02*
X7225D01*
X7232Y3809D02*
Y3833D01*
X6999Y3792D02*
X7217D01*
X6990Y3808D02*
X7217D01*
X6990Y3800D02*
X7217D01*
X7157Y3624D02*
X7260D01*
X7240Y3616D02*
Y3624D01*
X6999Y3784D02*
X7217D01*
X7157Y3624D02*
X7260D01*
X7232Y3616D02*
Y3624D01*
X7224Y3616D02*
Y3624D01*
X7170Y3616D02*
X7316D01*
X7170D02*
X7316D01*
X7217Y3760D02*
Y3809D01*
X7216Y3759D02*
Y3838D01*
X6999Y3776D02*
X7217D01*
X6999Y3768D02*
X7217D01*
X7173Y3716D02*
X7217Y3760D01*
X7216Y3616D02*
Y3624D01*
X6999Y3760D02*
X7217D01*
X7209Y4053D02*
Y4067D01*
Y4053D02*
Y4067D01*
Y4048D02*
Y4053D01*
Y4033D02*
Y4048D01*
Y4033D02*
Y4048D01*
Y4028D02*
Y4033D01*
Y4014D02*
Y4028D01*
Y4014D02*
Y4028D01*
Y4008D02*
Y4014D01*
Y4001D02*
Y4008D01*
Y4001D02*
Y4008D01*
Y3929D02*
Y3935D01*
Y3915D02*
Y3929D01*
Y3915D02*
Y3929D01*
Y3910D02*
Y3915D01*
Y3896D02*
Y3910D01*
Y3896D02*
Y3910D01*
Y3890D02*
Y3896D01*
Y3876D02*
Y3890D01*
Y3876D02*
Y3890D01*
Y3870D02*
Y3876D01*
Y3817D02*
Y3837D01*
X7208Y3751D02*
Y3817D01*
X7200Y3743D02*
Y3817D01*
X7192Y3735D02*
Y3817D01*
X7184Y3727D02*
Y3817D01*
X7176Y3719D02*
Y3817D01*
X7168Y3716D02*
Y3817D01*
X7160Y3716D02*
Y3817D01*
X7152Y3716D02*
Y3817D01*
X7144Y3716D02*
Y3817D01*
X7136Y3716D02*
Y3817D01*
X7126Y4107D02*
Y4112D01*
Y4092D02*
Y4107D01*
X7081Y4112D02*
X7126D01*
Y4092D02*
Y4107D01*
Y4087D02*
Y4092D01*
X7105Y4088D02*
X7126D01*
X7089Y4104D02*
X7126D01*
X7097Y4096D02*
X7126D01*
X7096Y4097D02*
Y4191D01*
X7104Y4089D02*
Y4183D01*
X7080Y4113D02*
Y4199D01*
X7088Y4105D02*
Y4197D01*
X7126Y4073D02*
Y4087D01*
Y4073D02*
Y4087D01*
X7112Y4081D02*
Y4176D01*
X7113Y4080D02*
X7126D01*
X7120Y4073D02*
Y4172D01*
X7126Y4067D02*
Y4073D01*
X7121Y4072D02*
X7126D01*
X6990Y4203D02*
X7126Y4066D01*
X7126Y3817D02*
X7209D01*
X7128Y3716D02*
Y3817D01*
X7006Y3819D02*
X7126D01*
X7120Y3716D02*
Y3819D01*
X6990Y3829D02*
X6996Y3823D01*
X6992Y3794D02*
Y3827D01*
X6990Y3824D02*
X6995D01*
X6990Y3794D02*
Y3829D01*
X7000Y3621D02*
Y3820D01*
X7120Y3716D02*
X7173D01*
X7208Y3616D02*
Y3624D01*
X7200Y3616D02*
Y3624D01*
X7192Y3616D02*
Y3624D01*
X7184Y3616D02*
Y3624D01*
X7176Y3616D02*
Y3624D01*
X7112Y3714D02*
Y3819D01*
X7104Y3707D02*
Y3819D01*
X7096Y3699D02*
Y3819D01*
X7088Y3691D02*
Y3819D01*
X7080Y3683D02*
Y3819D01*
X7072Y3675D02*
Y3819D01*
X7064Y3667D02*
Y3819D01*
X7056Y3659D02*
Y3819D01*
X7168Y3616D02*
Y3624D01*
X7160Y3612D02*
Y3624D01*
X7149Y3616D02*
X7170D01*
X7123Y3590D02*
X7157Y3624D01*
X7141Y3608D02*
X7155D01*
X7137Y3590D02*
X7159Y3611D01*
X7152Y3605D02*
Y3619D01*
X7144Y3597D02*
Y3611D01*
X7133Y3600D02*
X7147D01*
X7136Y3590D02*
Y3603D01*
X7128Y3590D02*
Y3595D01*
X7125Y3592D02*
X7139D01*
X7123Y3590D02*
X7137D01*
X6999Y3752D02*
X7209D01*
X6999Y3744D02*
X7201D01*
X6999Y3736D02*
X7193D01*
X6999Y3728D02*
X7185D01*
X6999Y3720D02*
X7177D01*
X6999Y3712D02*
X7109D01*
X6999Y3704D02*
X7101D01*
X6999Y3696D02*
X7093D01*
X6999Y3688D02*
X7085D01*
X6999Y3686D02*
Y3794D01*
X6990D02*
X6999D01*
X6990Y3686D02*
X6999D01*
X6990Y3680D02*
X7077D01*
X6990Y3672D02*
X7069D01*
X6990Y3664D02*
X7061D01*
X7048Y3651D02*
Y3819D01*
X7040Y3643D02*
Y3819D01*
X7032Y3635D02*
Y3819D01*
X7018Y3621D02*
X7109Y3711D01*
X6990Y3656D02*
X7053D01*
X6990Y3648D02*
X7045D01*
X6990Y3640D02*
X7037D01*
X6990Y3632D02*
X7029D01*
X7024Y3627D02*
Y3819D01*
X7016Y3621D02*
Y3819D01*
X7008Y3621D02*
Y3819D01*
X6992Y3621D02*
Y3686D01*
X6990Y3624D02*
X7021D01*
X6990Y3621D02*
Y3686D01*
Y3621D02*
X7018D01*
X8060Y4510D02*
X8230Y4340D01*
X7578Y5840D02*
X7740D01*
X7578Y5832D02*
X7740D01*
X7578Y5824D02*
X7740D01*
X7578Y5779D02*
Y5841D01*
Y5816D02*
X7740D01*
X7616Y5646D02*
Y5960D01*
X7608Y5646D02*
Y5960D01*
X7600Y5681D02*
Y5960D01*
X7592Y5689D02*
Y5960D01*
X7584Y5692D02*
Y5960D01*
X7576Y5841D02*
Y5960D01*
X7568Y5841D02*
Y5960D01*
X7513Y5841D02*
X7578D01*
X7560D02*
Y5960D01*
X7552Y5841D02*
Y5960D01*
X7578Y5808D02*
X7740D01*
X7578Y5800D02*
X7740D01*
X7578Y5792D02*
X7740D01*
X7600Y5680D02*
X7740D01*
X7594Y5688D02*
X7740D01*
X7603Y5672D02*
X7740D01*
X7602Y5664D02*
X7740D01*
X7599Y5656D02*
X7740D01*
X7594Y5648D02*
X7740D01*
X7598Y5646D02*
X7623D01*
X7600D02*
Y5658D01*
X7594Y5646D02*
Y5651D01*
X7578Y5784D02*
X7740D01*
X7513Y5779D02*
X7578D01*
X7576Y5693D02*
Y5779D01*
X7568Y5690D02*
Y5779D01*
X7560Y5683D02*
Y5779D01*
X7594Y5646D02*
X7598D01*
X7594D02*
X7598D01*
X7552Y5663D02*
Y5779D01*
X7543Y5654D02*
X7556Y5667D01*
X7544Y5841D02*
Y5960D01*
X7536Y5841D02*
Y5960D01*
X7528Y5841D02*
Y5960D01*
X7520Y5841D02*
Y5960D01*
X7504Y5841D02*
Y5960D01*
X7513Y5779D02*
Y5841D01*
X7511Y5779D02*
Y5841D01*
X7512Y5646D02*
Y5960D01*
X7496Y5841D02*
Y5960D01*
X7488Y5841D02*
Y5960D01*
X7480Y5841D02*
Y5960D01*
X7472Y5841D02*
Y5960D01*
X7464Y5841D02*
Y5960D01*
X7456Y5841D02*
Y5960D01*
X7448Y5841D02*
Y5960D01*
X7446Y5841D02*
X7511D01*
X7446Y5826D02*
Y5841D01*
X7440Y5827D02*
Y5960D01*
X7441Y5826D02*
X7446D01*
X7544Y5655D02*
Y5779D01*
X7536Y5646D02*
Y5779D01*
X7535Y5646D02*
X7539D01*
X7535D02*
X7539D01*
X7521D02*
X7535D01*
X7528D02*
Y5779D01*
X7520Y5646D02*
Y5779D01*
X7446D02*
X7511D01*
X7441Y5794D02*
X7446D01*
X7510Y5646D02*
X7521D01*
X7446Y5779D02*
Y5794D01*
X7439Y5792D02*
X7446D01*
X7510Y5646D02*
X7521D01*
X7504D02*
Y5779D01*
X7496Y5646D02*
X7510D01*
X7496D02*
Y5779D01*
X7488Y5646D02*
Y5779D01*
X7629Y5568D02*
X7740D01*
X7629Y5560D02*
X7740D01*
X7629Y5552D02*
X7740D01*
X7629Y5544D02*
X7740D01*
X7629Y5536D02*
X7740D01*
Y5360D02*
Y5960D01*
X7736Y5360D02*
Y5960D01*
X7629Y5528D02*
X7740D01*
X7728Y5360D02*
Y5960D01*
X7720Y5360D02*
Y5960D01*
X7623Y5640D02*
X7740D01*
X7623Y5632D02*
X7740D01*
X7623Y5624D02*
X7740D01*
X7623Y5616D02*
X7740D01*
X7623Y5608D02*
X7740D01*
X7623Y5600D02*
X7740D01*
X7623Y5592D02*
X7740D01*
X7623Y5584D02*
X7740D01*
X7623Y5576D02*
X7740D01*
X7629Y5520D02*
X7740D01*
X7629Y5512D02*
X7740D01*
X7629Y5504D02*
X7740D01*
X7629Y5496D02*
X7740D01*
X7629Y5488D02*
X7740D01*
X7629Y5480D02*
X7740D01*
X7629Y5472D02*
X7740D01*
X7629Y5464D02*
X7740D01*
X7629Y5456D02*
X7740D01*
X7629Y5448D02*
X7740D01*
X7629Y5440D02*
X7740D01*
X7629Y5432D02*
X7740D01*
X7629Y5424D02*
X7740D01*
X7629Y5416D02*
X7740D01*
X7623Y5408D02*
X7740D01*
X7623Y5400D02*
X7740D01*
X7623Y5392D02*
X7740D01*
X7623Y5384D02*
X7740D01*
X7623Y5376D02*
X7740D01*
X7623Y5368D02*
X7740D01*
X7623Y5360D02*
X7740D01*
X7712D02*
Y5960D01*
X7704Y5360D02*
Y5960D01*
X7696Y5360D02*
Y5960D01*
X7688Y5360D02*
Y5960D01*
X7680Y5360D02*
Y5960D01*
X7672Y5360D02*
Y5960D01*
X7664Y5360D02*
Y5960D01*
X7656Y5360D02*
Y5960D01*
X7648Y5360D02*
Y5960D01*
X7640Y5360D02*
Y5960D01*
X7480Y5646D02*
Y5779D01*
X7472Y5646D02*
Y5779D01*
X7464Y5646D02*
Y5779D01*
X7456Y5646D02*
Y5779D01*
X7448Y5646D02*
Y5779D01*
X7632Y5360D02*
Y5960D01*
X7624Y5568D02*
Y5960D01*
X7623Y5568D02*
Y5646D01*
X7440D02*
Y5793D01*
X7432Y5646D02*
Y5788D01*
X7623Y5568D02*
X7629D01*
X7623D02*
X7629D01*
Y5510D02*
Y5568D01*
X7629Y5470D02*
Y5510D01*
X7629Y5412D02*
Y5470D01*
X7623Y5412D02*
X7629D01*
X7624Y5360D02*
Y5412D01*
X7623Y5360D02*
Y5412D01*
X7484Y5646D02*
X7496D01*
X7484D02*
X7496D01*
X7470D02*
X7484D01*
X7458D02*
X7470D01*
X7458D02*
X7470D01*
X7444D02*
X7458D01*
X7433D02*
X7444D01*
X7433D02*
X7444D01*
X7060Y5960D02*
X7740D01*
X7060Y5952D02*
X7740D01*
X7060Y5944D02*
X7740D01*
X7060Y5936D02*
X7740D01*
X7060Y5928D02*
X7740D01*
X7432Y5832D02*
X7446D01*
X7060Y5920D02*
X7740D01*
X7432Y5832D02*
Y5960D01*
X7424Y5833D02*
Y5960D01*
X7060Y5912D02*
X7740D01*
X7060Y5904D02*
X7740D01*
X7060Y5896D02*
X7740D01*
X7060Y5888D02*
X7740D01*
X7060Y5880D02*
X7740D01*
X7060Y5872D02*
X7740D01*
X7060Y5864D02*
X7740D01*
X7060Y5856D02*
X7740D01*
X7060Y5848D02*
X7740D01*
X7060Y5840D02*
X7446D01*
X7405Y5688D02*
X7565D01*
X7060Y5776D02*
X7740D01*
X7411Y5680D02*
X7558D01*
X7060Y5784D02*
X7446D01*
X7413Y5672D02*
X7556D01*
X7415Y5664D02*
X7553D01*
X7415Y5656D02*
X7545D01*
X7415Y5648D02*
X7539D01*
X7424Y5646D02*
Y5786D01*
X7419Y5646D02*
X7433D01*
X7060Y5768D02*
X7740D01*
X7060Y5760D02*
X7740D01*
X7060Y5752D02*
X7740D01*
X7060Y5744D02*
X7740D01*
X7060Y5736D02*
X7740D01*
X7060Y5728D02*
X7740D01*
X7060Y5720D02*
X7740D01*
X7060Y5712D02*
X7740D01*
X7060Y5704D02*
X7740D01*
X7060Y5696D02*
X7740D01*
X7416Y5832D02*
Y5960D01*
X7408Y5827D02*
Y5960D01*
X7400Y5691D02*
Y5960D01*
X7392Y5693D02*
Y5960D01*
X7384Y5693D02*
Y5960D01*
X7416Y5646D02*
Y5788D01*
X7408Y5685D02*
Y5793D01*
X7376Y5689D02*
Y5960D01*
X7368Y5678D02*
Y5960D01*
X7060Y5832D02*
X7416D01*
X7060Y5824D02*
X7405D01*
X7060Y5800D02*
X7403D01*
X7060Y5816D02*
X7401D01*
X7060Y5808D02*
X7401D01*
X7060Y5792D02*
X7409D01*
X7060Y5688D02*
X7375D01*
X7060Y5680D02*
X7369D01*
X7360Y5658D02*
Y5960D01*
X7060Y5672D02*
X7367D01*
X7364Y5665D02*
X7367Y5668D01*
X7415Y5646D02*
Y5660D01*
Y5646D02*
X7419D01*
X7415D02*
X7419D01*
X7360D02*
Y5655D01*
X7356Y5646D02*
X7360D01*
X7060Y5664D02*
X7363D01*
X7060Y5656D02*
X7360D01*
X7060Y5648D02*
X7360D01*
X7060Y5640D02*
X7356D01*
X7060Y5632D02*
X7356D01*
X7060Y5624D02*
X7356D01*
X7060Y5616D02*
X7356D01*
X7060Y5608D02*
X7356D01*
X7060Y5600D02*
X7356D01*
X7060Y5592D02*
X7356D01*
Y5568D02*
Y5646D01*
X7060Y5584D02*
X7356D01*
X7060Y5576D02*
X7356D01*
X7352Y5568D02*
Y5960D01*
X7351Y5568D02*
X7356D01*
X7351D02*
X7356D01*
X7351Y5510D02*
Y5568D01*
X7351Y5470D02*
Y5510D01*
X7060Y5568D02*
X7351D01*
X7060Y5560D02*
X7351D01*
X7060Y5552D02*
X7351D01*
X7060Y5544D02*
X7351D01*
X7060Y5536D02*
X7351D01*
X7060Y5528D02*
X7351D01*
X7060Y5520D02*
X7351D01*
X7060Y5512D02*
X7351D01*
X7060Y5504D02*
X7351D01*
X7060Y5496D02*
X7351D01*
X7060Y5488D02*
X7351D01*
X7060Y5480D02*
X7351D01*
X7060Y5472D02*
X7351D01*
X7060Y5464D02*
X7351D01*
X7060Y5456D02*
X7351D01*
Y5412D02*
X7356D01*
Y5360D02*
Y5412D01*
X7060Y5448D02*
X7351D01*
X7060Y5440D02*
X7351D01*
X7060Y5432D02*
X7351D01*
X7060Y5408D02*
X7356D01*
X7060Y5400D02*
X7356D01*
X7060Y5424D02*
X7351D01*
X7060Y5416D02*
X7351D01*
X7060Y5392D02*
X7356D01*
X7060Y5384D02*
X7356D01*
X7060Y5376D02*
X7356D01*
X7060Y5368D02*
X7356D01*
X7060Y5360D02*
X7356D01*
X7344D02*
Y5960D01*
X7336Y5360D02*
Y5960D01*
X7328Y5360D02*
Y5960D01*
X7320Y5360D02*
Y5960D01*
X7312Y5360D02*
Y5960D01*
X7304Y5360D02*
Y5960D01*
X7296Y5360D02*
Y5960D01*
X7288Y5360D02*
Y5960D01*
X7280Y5360D02*
Y5960D01*
X7272Y5360D02*
Y5960D01*
X7264Y5360D02*
Y5960D01*
X7256Y5360D02*
Y5960D01*
X7248Y5360D02*
Y5960D01*
X7240Y5360D02*
Y5960D01*
X7232Y5360D02*
Y5960D01*
X7224Y5360D02*
Y5960D01*
X7216Y5360D02*
Y5960D01*
X7208Y5360D02*
Y5960D01*
X7200Y5360D02*
Y5960D01*
X7192Y5360D02*
Y5960D01*
X7351Y5412D02*
Y5470D01*
X7184Y5360D02*
Y5960D01*
X7352Y5360D02*
Y5412D01*
X7176Y5360D02*
Y5960D01*
X7168Y5360D02*
Y5960D01*
X7160Y5360D02*
Y5960D01*
X7152Y5360D02*
Y5960D01*
X7144Y5360D02*
Y5960D01*
X7136Y5360D02*
Y5960D01*
X7128Y5360D02*
Y5960D01*
X7120Y5360D02*
Y5960D01*
X7112Y5360D02*
Y5960D01*
X7104Y5360D02*
Y5960D01*
X7096Y5360D02*
Y5960D01*
X7088Y5360D02*
Y5960D01*
X7080Y5360D02*
Y5960D01*
X7072Y5360D02*
Y5960D01*
X7064Y5360D02*
Y5960D01*
X7060Y5360D02*
Y5960D01*
X3840Y5710D02*
X3853Y5697D01*
Y5611D02*
Y5697D01*
X2541Y5653D02*
X2637D01*
X3710Y5420D02*
X3730D01*
X3827Y5611D02*
Y5683D01*
X3800Y5710D02*
X3827Y5683D01*
X2799Y5653D02*
X2932Y5520D01*
X3690D02*
X3760Y5450D01*
X3802Y5611D02*
Y5668D01*
X3583Y5774D02*
X3696D01*
X3802Y5668D01*
X3776Y5611D02*
Y5664D01*
X3583Y5749D02*
X3691D01*
X3776Y5664D01*
X3583Y5723D02*
X3677D01*
X3750Y5611D02*
Y5650D01*
X3677Y5723D02*
X3750Y5650D01*
X2474Y5184D02*
X2531D01*
X2460Y5110D02*
X2490Y5080D01*
X2460Y5110D02*
Y5170D01*
X2474Y5184D01*
X3900Y4880D02*
Y4960D01*
X3888Y6452D02*
X3890Y6450D01*
Y4460D02*
X3898Y4468D01*
X3888Y7432D02*
X3890Y7430D01*
Y6880D02*
Y7120D01*
X3888Y7432D02*
Y7609D01*
X3878Y5692D02*
X3880Y5690D01*
X3878Y5162D02*
X3900Y5140D01*
X3888Y3908D02*
Y4138D01*
Y3659D02*
Y3818D01*
X2581Y5159D02*
X2610Y5130D01*
X2531Y5159D02*
X2581D01*
X2736Y5184D02*
X2789D01*
X2690Y5230D02*
X2736Y5184D01*
X2721Y5159D02*
X2789D01*
X2700Y5180D02*
X2721Y5159D01*
X3750Y5061D02*
Y5113D01*
X3670Y5193D02*
X3750Y5113D01*
X3583Y5193D02*
X3670D01*
X3583Y5244D02*
X3676D01*
X3802Y5061D02*
Y5118D01*
X3676Y5244D02*
X3802Y5118D01*
X3776Y5061D02*
Y5113D01*
X3583Y5219D02*
X3670D01*
X3776Y5113D01*
X3802Y5248D02*
Y5319D01*
X3950Y4840D02*
Y4960D01*
X3950Y4639D02*
Y4740D01*
X3802Y5248D02*
X3840Y5210D01*
Y5180D02*
Y5210D01*
X2800Y5490D02*
X3640D01*
X3710Y5420D01*
X2932Y5520D02*
X3690D01*
X3930Y5319D02*
Y5490D01*
X3800Y5780D02*
X3830Y5750D01*
X2637Y5653D02*
X2800Y5490D01*
X3940Y3320D02*
Y3401D01*
X3760Y3659D02*
Y3730D01*
X3837Y3659D02*
Y3733D01*
X3914Y3596D02*
X3930Y3580D01*
X3914Y3596D02*
Y3659D01*
X3950Y4340D02*
Y4381D01*
Y4340D02*
X3970Y4320D01*
X3847Y4639D02*
Y4703D01*
X3830Y4720D02*
X3847Y4703D01*
X3770Y4639D02*
Y4700D01*
X3750Y4720D02*
X3770Y4700D01*
X3940Y4570D02*
X3970D01*
X3924Y4586D02*
Y4639D01*
Y4586D02*
X3940Y4570D01*
X3930Y5061D02*
X3969D01*
X3827Y5319D02*
Y5383D01*
X3810Y5400D02*
X3827Y5383D01*
X3750Y5319D02*
Y5360D01*
X3730Y5380D02*
X3750Y5360D01*
X3904Y5256D02*
Y5319D01*
Y5256D02*
X3930Y5230D01*
X3939Y5611D02*
X3960Y5590D01*
X3930Y5611D02*
X3939D01*
X3827Y5869D02*
Y5953D01*
X3800Y5980D02*
X3827Y5953D01*
X3750Y5890D02*
Y5920D01*
X3730Y5940D02*
X3750Y5920D01*
X3904Y5806D02*
Y5869D01*
Y5806D02*
X3930Y5780D01*
X3940Y6320D02*
X3950Y6310D01*
X3940Y6320D02*
Y6371D01*
X3837Y6629D02*
Y6703D01*
X3760Y6629D02*
Y6700D01*
X3914Y6566D02*
X3930Y6550D01*
X3914Y6566D02*
Y6629D01*
X3940Y7280D02*
Y7351D01*
Y7280D02*
X3940Y7280D01*
X3914Y7609D02*
Y7676D01*
X3760Y7609D02*
Y7690D01*
X3837Y7609D02*
Y7677D01*
X3863Y6563D02*
Y6757D01*
Y7543D02*
Y7609D01*
X3840Y7520D02*
X3863Y7543D01*
X3800Y6900D02*
Y7070D01*
Y6820D02*
X3863Y6757D01*
X3853Y5869D02*
Y5997D01*
X3720Y7270D02*
Y7420D01*
X3770Y6080D02*
X3853Y5997D01*
X3710Y6400D02*
X3730Y6420D01*
X3710Y6290D02*
Y6400D01*
X3980Y7230D02*
Y7430D01*
X3960Y7210D02*
X3980Y7230D01*
X3940Y6840D02*
Y7120D01*
X3940Y6629D02*
Y6740D01*
X3810Y7500D02*
X3840Y7470D01*
X3810Y7500D02*
Y7600D01*
X3930Y6490D02*
X3980Y6440D01*
X3930Y6210D02*
X3980Y6260D01*
X3930Y5869D02*
Y6140D01*
X3812Y6568D02*
Y6629D01*
X3820Y6520D02*
X3850Y6490D01*
X3812Y6568D02*
X3820Y6560D01*
Y6520D02*
Y6560D01*
X3980Y6260D02*
Y6440D01*
X3800Y5867D02*
X3802Y5869D01*
X3800Y5780D02*
Y5867D01*
X7390Y5670D02*
X7400Y5660D01*
Y5605D02*
Y5660D01*
X7375Y5655D02*
X7390Y5670D01*
X7375Y5605D02*
Y5655D01*
X7426Y5605D02*
Y5666D01*
X7490Y5670D02*
X7503Y5657D01*
Y5605D02*
Y5657D01*
X7477Y5657D02*
X7490Y5670D01*
X7477Y5605D02*
Y5657D01*
X7579Y5605D02*
Y5669D01*
X7554Y5644D02*
X7579Y5669D01*
X7554Y5605D02*
Y5644D01*
X7547Y4597D02*
Y4640D01*
X7410Y4600D02*
X7420Y4590D01*
X7278Y4600D02*
X7410D01*
X7123Y4287D02*
X7168D01*
X7100Y4310D02*
Y4430D01*
X7387Y4640D02*
Y4653D01*
X7116Y4267D02*
X7168D01*
X7060Y4323D02*
Y4450D01*
X7975Y4765D02*
Y5465D01*
X8090Y4620D02*
Y4650D01*
X7975Y4765D02*
X8090Y4650D01*
X8060Y4510D02*
Y4630D01*
X7910Y4780D02*
X8060Y4630D01*
X7200Y4903D02*
Y4960D01*
X7006Y3834D02*
X7168D01*
X6940Y3900D02*
X7006Y3834D01*
X7727Y4607D02*
Y4823D01*
X7612Y4918D02*
X7630Y4900D01*
X7620Y4230D02*
X7750Y4360D01*
X7541Y4918D02*
X7612D01*
X7168Y3853D02*
X7243D01*
X7750Y4360D02*
Y4450D01*
X7695Y4505D02*
X7750Y4450D01*
X7695Y4505D02*
Y4575D01*
X7727Y4607D01*
X7060Y4323D02*
X7116Y4267D01*
X7100Y4310D02*
X7123Y4287D01*
X7613Y4640D02*
X7630Y4657D01*
X7208Y4842D02*
X7319D01*
X7200Y4833D02*
X7208Y4842D01*
X7687Y4372D02*
Y4443D01*
X7506Y4816D02*
X7541D01*
X7480Y4790D02*
X7506Y4816D01*
X7480Y4740D02*
Y4790D01*
Y4740D02*
X7500Y4720D01*
Y4600D02*
Y4720D01*
Y4600D02*
X7540Y4560D01*
X7570D01*
X7687Y4443D01*
X7680Y4490D02*
Y4890D01*
X7706Y4372D02*
Y4464D01*
X7541Y4995D02*
X7625D01*
X7680Y4490D02*
X7706Y4464D01*
X7541Y4893D02*
X7597D01*
X7630Y4657D02*
Y4860D01*
X7597Y4893D02*
X7630Y4860D01*
X7453Y4813D02*
X7507Y4867D01*
X7773Y4950D02*
X7820D01*
X7640D02*
X7707D01*
X7634Y4944D02*
X7640Y4950D01*
X7541Y4944D02*
X7634D01*
X7319Y4995D02*
X7375D01*
X7354Y4816D02*
X7380Y4790D01*
X7319Y4790D02*
X7380D01*
X7319Y4816D02*
X7354D01*
X7355Y4765D02*
X7380Y4790D01*
X7319Y4765D02*
X7355D01*
X7793Y4640D02*
X7877D01*
X8369Y3475D02*
X8425D01*
X7667Y3703D02*
Y3768D01*
Y3703D02*
X7700Y3670D01*
X8430D01*
X8460Y3640D01*
Y3510D02*
Y3640D01*
X8425Y3475D02*
X8460Y3510D01*
X8369Y3525D02*
X8374Y3520D01*
X7647Y3693D02*
Y3768D01*
X8374Y3520D02*
X8410D01*
X8430Y3540D01*
Y3640D01*
X8420Y3650D02*
X8430Y3640D01*
X7690Y3650D02*
X8420D01*
X7647Y3693D02*
X7690Y3650D01*
X8070Y3580D02*
X8160D01*
X7470Y3680D02*
Y3768D01*
X8050Y3600D02*
X8070Y3580D01*
X7550Y3600D02*
X8050D01*
X7470Y3680D02*
X7550Y3600D01*
X7605Y3625D02*
X8151D01*
X7529Y3721D02*
Y3768D01*
Y3721D02*
X7550Y3700D01*
Y3680D02*
Y3700D01*
Y3680D02*
X7605Y3625D01*
X3700Y7510D02*
X3760Y7450D01*
X3700Y7510D02*
Y7630D01*
X3647Y7683D02*
X3700Y7630D01*
X3603Y7683D02*
X3647D01*
X3760Y7351D02*
Y7450D01*
X3720Y7520D02*
X3786Y7454D01*
X3720Y7520D02*
Y7640D01*
X3651Y7709D02*
X3720Y7640D01*
X3603Y7709D02*
X3651D01*
X3786Y7351D02*
Y7454D01*
X3740Y7530D02*
X3812Y7458D01*
X3740Y7530D02*
Y7660D01*
X3666Y7734D02*
X3740Y7660D01*
X3603Y7734D02*
X3666D01*
X3812Y7351D02*
Y7458D01*
X3470Y7510D02*
X3500Y7480D01*
X3470Y7510D02*
Y7550D01*
X3451Y7569D02*
X3470Y7550D01*
X3500Y7480D02*
X3670D01*
X3427Y7569D02*
X3451D01*
X3786Y7536D02*
Y7609D01*
X3784Y7244D02*
X3837Y7297D01*
X3603Y7244D02*
X3784D01*
X3837Y7297D02*
Y7351D01*
X3799Y7219D02*
X3863Y7283D01*
X3603Y7219D02*
X3799D01*
X3863Y7283D02*
Y7351D01*
X3823Y7193D02*
X3888Y7258D01*
X3603Y7193D02*
X3823D01*
X3888Y7258D02*
Y7351D01*
X3690Y7030D02*
X3790Y7130D01*
X3470Y7030D02*
X3690D01*
X3460Y7040D02*
X3470Y7030D01*
X3460Y7040D02*
Y7070D01*
X3451Y7079D02*
X3460Y7070D01*
X3427Y7079D02*
X3451D01*
X3790Y7130D02*
X3800D01*
X3860Y7190D02*
X3914Y7244D01*
Y7351D01*
X3647Y6703D02*
X3700Y6650D01*
X3451Y6589D02*
X3470Y6570D01*
X3460Y6060D02*
X3470Y6050D01*
X3460Y6060D02*
Y6090D01*
X3451Y6099D02*
X3460Y6090D01*
X3700Y6490D02*
X3760Y6430D01*
X3603Y6703D02*
X3647D01*
X3760Y6371D02*
Y6430D01*
X3700Y6490D02*
Y6650D01*
X3720Y6510D02*
X3786Y6444D01*
X3720Y6510D02*
Y6660D01*
X3651Y6729D02*
X3720Y6660D01*
X3603Y6729D02*
X3651D01*
X3786Y6371D02*
Y6444D01*
X3740Y6530D02*
Y6680D01*
Y6530D02*
X3812Y6458D01*
X3666Y6754D02*
X3740Y6680D01*
X3603Y6754D02*
X3666D01*
X3812Y6371D02*
Y6458D01*
X3500Y6500D02*
X3640D01*
X3470Y6530D02*
X3500Y6500D01*
X3427Y6589D02*
X3451D01*
X3470Y6530D02*
Y6570D01*
X3786Y6546D02*
Y6629D01*
X3784Y6264D02*
X3837Y6317D01*
X3603Y6264D02*
X3784D01*
X3837Y6317D02*
Y6371D01*
X3790Y6240D02*
X3863Y6313D01*
Y6371D01*
X3590Y6240D02*
X3790D01*
X3803Y6213D02*
X3888Y6298D01*
X3603Y6213D02*
X3803D01*
X3888Y6298D02*
Y6371D01*
X3470Y6050D02*
X3690D01*
X3427Y6099D02*
X3451D01*
X3690Y6050D02*
X3780Y6140D01*
X3850Y6210D02*
X3914Y6274D01*
Y6371D01*
X3647Y4703D02*
X3700Y4650D01*
X3451Y4589D02*
X3470Y4570D01*
X3451Y3609D02*
X3470Y3590D01*
X3460Y4060D02*
X3470Y4050D01*
X3460Y4060D02*
Y4090D01*
X3451Y4099D02*
X3460Y4090D01*
Y3080D02*
X3470Y3070D01*
X3460Y3080D02*
Y3110D01*
X3451Y3119D02*
X3460Y3110D01*
X3603Y4703D02*
X3647D01*
X3700Y4530D02*
Y4650D01*
X3770Y4381D02*
Y4460D01*
X3700Y4530D02*
X3770Y4460D01*
X3720Y4540D02*
X3796Y4464D01*
X3720Y4540D02*
Y4660D01*
X3651Y4729D02*
X3720Y4660D01*
X3603Y4729D02*
X3651D01*
X3796Y4381D02*
Y4464D01*
X3740Y4550D02*
Y4680D01*
Y4550D02*
X3822Y4468D01*
X3666Y4754D02*
X3740Y4680D01*
X3603Y4754D02*
X3666D01*
X3822Y4381D02*
Y4468D01*
X3500Y4500D02*
X3650D01*
X3470Y4530D02*
X3500Y4500D01*
X3427Y4589D02*
X3451D01*
X3470Y4530D02*
Y4570D01*
X3796Y4554D02*
Y4639D01*
X3804Y4264D02*
X3847Y4307D01*
X3603Y4264D02*
X3804D01*
X3847Y4307D02*
Y4381D01*
X3819Y4239D02*
X3873Y4293D01*
X3603Y4239D02*
X3819D01*
X3873Y4293D02*
Y4381D01*
X3823Y4213D02*
X3898Y4288D01*
X3603Y4213D02*
X3823D01*
X3898Y4288D02*
Y4381D01*
X3637Y3723D02*
X3700Y3660D01*
Y3520D02*
Y3660D01*
Y3520D02*
X3760Y3460D01*
X3603Y3723D02*
X3637D01*
X3760Y3401D02*
Y3460D01*
X3715Y3535D02*
X3786Y3464D01*
X3715Y3535D02*
Y3685D01*
X3651Y3749D02*
X3715Y3685D01*
X3603Y3749D02*
X3651D01*
X3786Y3401D02*
Y3464D01*
X3666Y3774D02*
X3730Y3710D01*
Y3550D02*
Y3710D01*
Y3550D02*
X3812Y3468D01*
Y3401D02*
Y3468D01*
X3603Y3774D02*
X3666D01*
X3784Y3284D02*
X3837Y3337D01*
X3603Y3284D02*
X3784D01*
X3837Y3337D02*
Y3401D01*
X3789Y3259D02*
X3863Y3333D01*
X3603Y3259D02*
X3789D01*
X3863Y3333D02*
Y3401D01*
X3793Y3233D02*
X3888Y3328D01*
X3603Y3233D02*
X3793D01*
X3888Y3328D02*
Y3401D01*
X3470Y3070D02*
X3690D01*
X3770Y3150D01*
X3427Y3119D02*
X3451D01*
X3770Y3150D02*
Y3170D01*
X3830Y3230D02*
X3914Y3314D01*
Y3401D01*
X3500Y3520D02*
X3670D01*
X3470Y3550D02*
X3500Y3520D01*
X3427Y3609D02*
X3451D01*
X3470Y3550D02*
Y3590D01*
X3760Y3570D02*
X3786Y3596D01*
Y3659D01*
X3470Y4050D02*
X3690D01*
X3780Y4140D01*
X3427Y4099D02*
X3451D01*
X3780Y4140D02*
X3790D01*
X3860Y4210D02*
X3924Y4274D01*
Y4381D01*
X3450Y5560D02*
X3460Y5550D01*
X3450Y5560D02*
Y5590D01*
X3431Y5609D02*
X3450Y5590D01*
X3460Y5550D02*
X3600D01*
X3407Y5609D02*
X3431D01*
X3776Y5796D02*
Y5869D01*
X3440Y5050D02*
X3470Y5020D01*
X3440Y5050D02*
Y5070D01*
X3431Y5079D02*
X3440Y5070D01*
X3470Y5020D02*
X3610D01*
X3407Y5079D02*
X3431D01*
X3776Y5246D02*
Y5319D01*
X4020Y4300D02*
Y4450D01*
X3822Y4578D02*
Y4639D01*
Y4578D02*
X3870Y4530D01*
X3940Y3659D02*
Y3770D01*
X3940Y3870D02*
Y4140D01*
Y4220D02*
X4020Y4300D01*
X3940Y4530D02*
X4020Y4450D01*
X3970Y3270D02*
Y3470D01*
X3890Y3550D02*
X3970Y3470D01*
X3850Y3550D02*
X3890D01*
X3812Y3588D02*
X3850Y3550D01*
X2760Y5040D02*
X2830Y4970D01*
X2760Y5040D02*
Y5060D01*
X2810Y5110D01*
X3640Y4970D02*
X3660Y4990D01*
X3780Y5200D02*
X3827Y5153D01*
Y5061D02*
Y5153D01*
X2830Y4970D02*
X3640D01*
X2810Y5110D02*
Y5140D01*
X2531Y5079D02*
X2660Y4950D01*
X3750D02*
X3780Y4920D01*
X2531Y5079D02*
Y5136D01*
X2660Y4950D02*
X3750D01*
X3853Y5061D02*
Y5133D01*
X7772Y4267D02*
X7983D01*
X7541Y4765D02*
X7589D01*
X7983Y4267D02*
X8020Y4230D01*
X7780Y4720D02*
X7930D01*
X8000Y4650D01*
X3770Y3970D02*
Y4090D01*
X3740Y4290D02*
Y4440D01*
X3840Y3840D02*
X3863Y3817D01*
X3770Y3970D02*
X3840Y3900D01*
X3810Y4810D02*
X3873Y4747D01*
X3810Y4880D02*
Y4950D01*
X3770Y5500D02*
X3853Y5417D01*
X3830Y5790D02*
X3850Y5810D01*
X3863Y3659D02*
Y3817D01*
X3870Y4570D02*
X3873Y4573D01*
X6475Y4565D02*
X6490Y4550D01*
Y4347D02*
Y4550D01*
X6425Y4565D02*
X6475D01*
X6443Y4300D02*
X6490Y4347D01*
X8891Y4421D02*
X8930Y4460D01*
Y4550D01*
X8840Y4640D02*
X8930Y4550D01*
X8720Y4640D02*
X8840D01*
X8710Y4010D02*
Y4100D01*
Y4010D02*
X8770Y3950D01*
X8910D01*
X8930Y3970D01*
Y4310D01*
X7541Y4842D02*
X7588D01*
X7600Y4830D01*
X7770Y4780D02*
X7910D01*
X8230Y4340D02*
X8690D01*
X7168Y4306D02*
Y4428D01*
X7350Y4540D02*
X7450D01*
X7860Y4560D02*
X7910D01*
X8666Y4266D02*
X8740Y4340D01*
X7943Y4527D02*
Y4640D01*
X7910Y4560D02*
X8204Y4266D01*
X8666D01*
X8130Y4230D02*
X8580D01*
X7613Y4587D02*
X7640Y4560D01*
X7613Y4587D02*
Y4640D01*
X7720Y4560D02*
X7800D01*
X8130Y4230D01*
X8580D02*
X8710Y4100D01*
X8890Y4350D02*
X8930Y4310D01*
X8100Y4190D02*
X8550D01*
X7453Y4577D02*
X7520Y4510D01*
X7507Y4867D02*
X7541D01*
X8632Y4552D02*
X8720Y4640D01*
X7780Y4510D02*
X8100Y4190D01*
X7453Y4577D02*
Y4813D01*
D11*
X4510Y5658D02*
D03*
X4560D02*
D03*
X4610D02*
D03*
X4660D02*
D03*
X4710D02*
D03*
X4760D02*
D03*
X4810D02*
D03*
X4510Y5862D02*
D03*
X4560D02*
D03*
X4610D02*
D03*
X4660D02*
D03*
X4710D02*
D03*
X4760D02*
D03*
X4810D02*
D03*
Y3372D02*
D03*
X4760D02*
D03*
X4710D02*
D03*
X4660D02*
D03*
X4610D02*
D03*
X4560D02*
D03*
X4510D02*
D03*
X4810Y3168D02*
D03*
X4760D02*
D03*
X4710D02*
D03*
X4660D02*
D03*
X4610D02*
D03*
X4560D02*
D03*
X4510D02*
D03*
X4810Y3862D02*
D03*
X4760D02*
D03*
X4710D02*
D03*
X4660D02*
D03*
X4610D02*
D03*
X4560D02*
D03*
X4510D02*
D03*
X4810Y3658D02*
D03*
X4760D02*
D03*
X4710D02*
D03*
X4660D02*
D03*
X4610D02*
D03*
X4560D02*
D03*
X4510D02*
D03*
X4810Y4352D02*
D03*
X4760D02*
D03*
X4710D02*
D03*
X4660D02*
D03*
X4610D02*
D03*
X4560D02*
D03*
X4510D02*
D03*
X4810Y4148D02*
D03*
X4760D02*
D03*
X4710D02*
D03*
X4660D02*
D03*
X4610D02*
D03*
X4560D02*
D03*
X4510D02*
D03*
X4810Y4842D02*
D03*
X4760D02*
D03*
X4710D02*
D03*
X4660D02*
D03*
X4610D02*
D03*
X4560D02*
D03*
X4510D02*
D03*
X4810Y4638D02*
D03*
X4760D02*
D03*
X4710D02*
D03*
X4660D02*
D03*
X4610D02*
D03*
X4560D02*
D03*
X4510D02*
D03*
X4810Y5332D02*
D03*
X4760D02*
D03*
X4710D02*
D03*
X4660D02*
D03*
X4610D02*
D03*
X4560D02*
D03*
X4510D02*
D03*
X4810Y5128D02*
D03*
X4760D02*
D03*
X4710D02*
D03*
X4660D02*
D03*
X4610D02*
D03*
X4560D02*
D03*
X4510D02*
D03*
X4810Y6352D02*
D03*
X4760D02*
D03*
X4710D02*
D03*
X4660D02*
D03*
X4610D02*
D03*
X4560D02*
D03*
X4510D02*
D03*
X4810Y6148D02*
D03*
X4760D02*
D03*
X4710D02*
D03*
X4660D02*
D03*
X4610D02*
D03*
X4560D02*
D03*
X4510D02*
D03*
X4810Y7332D02*
D03*
X4760D02*
D03*
X4710D02*
D03*
X4660D02*
D03*
X4610D02*
D03*
X4560D02*
D03*
X4510D02*
D03*
X4810Y7128D02*
D03*
X4760D02*
D03*
X4710D02*
D03*
X4660D02*
D03*
X4610D02*
D03*
X4560D02*
D03*
X4510D02*
D03*
Y7618D02*
D03*
X4560D02*
D03*
X4610D02*
D03*
X4660D02*
D03*
X4710D02*
D03*
X4760D02*
D03*
X4810D02*
D03*
X4510Y7822D02*
D03*
X4560D02*
D03*
X4610D02*
D03*
X4660D02*
D03*
X4710D02*
D03*
X4760D02*
D03*
X4810D02*
D03*
X4510Y6638D02*
D03*
X4560D02*
D03*
X4610D02*
D03*
X4660D02*
D03*
X4710D02*
D03*
X4760D02*
D03*
X4810D02*
D03*
X4510Y6842D02*
D03*
X4560D02*
D03*
X4610D02*
D03*
X4660D02*
D03*
X4710D02*
D03*
X4760D02*
D03*
X4810D02*
D03*
D12*
X5721Y5681D02*
D03*
Y5700D02*
D03*
Y5720D02*
D03*
Y5740D02*
D03*
X5559Y5681D02*
D03*
Y5700D02*
D03*
Y5720D02*
D03*
X5559Y5740D02*
D03*
X5559Y5759D02*
D03*
X5721Y3191D02*
D03*
Y3210D02*
D03*
Y3230D02*
D03*
Y3250D02*
D03*
X5559Y3191D02*
D03*
Y3210D02*
D03*
Y3230D02*
D03*
X5559Y3250D02*
D03*
X5559Y3269D02*
D03*
X5721Y3681D02*
D03*
Y3700D02*
D03*
Y3720D02*
D03*
Y3740D02*
D03*
X5559Y3681D02*
D03*
Y3700D02*
D03*
Y3720D02*
D03*
X5559Y3740D02*
D03*
X5559Y3759D02*
D03*
X5721Y4171D02*
D03*
Y4190D02*
D03*
Y4210D02*
D03*
Y4230D02*
D03*
X5559Y4171D02*
D03*
Y4190D02*
D03*
Y4210D02*
D03*
X5559Y4230D02*
D03*
X5559Y4249D02*
D03*
X5721Y4661D02*
D03*
Y4680D02*
D03*
Y4700D02*
D03*
Y4720D02*
D03*
X5559Y4661D02*
D03*
Y4680D02*
D03*
Y4700D02*
D03*
X5559Y4720D02*
D03*
X5559Y4739D02*
D03*
X5721Y5151D02*
D03*
Y5170D02*
D03*
Y5190D02*
D03*
Y5210D02*
D03*
X5559Y5151D02*
D03*
Y5170D02*
D03*
Y5190D02*
D03*
X5559Y5210D02*
D03*
X5559Y5229D02*
D03*
X5721Y6171D02*
D03*
Y6190D02*
D03*
Y6210D02*
D03*
Y6230D02*
D03*
X5559Y6171D02*
D03*
Y6190D02*
D03*
Y6210D02*
D03*
X5559Y6230D02*
D03*
X5559Y6249D02*
D03*
X5721Y6661D02*
D03*
Y6680D02*
D03*
Y6700D02*
D03*
Y6720D02*
D03*
X5559Y6661D02*
D03*
Y6680D02*
D03*
Y6700D02*
D03*
X5559Y6720D02*
D03*
X5559Y6739D02*
D03*
X5721Y7151D02*
D03*
Y7170D02*
D03*
Y7190D02*
D03*
Y7210D02*
D03*
X5559Y7151D02*
D03*
Y7170D02*
D03*
Y7190D02*
D03*
X5559Y7210D02*
D03*
X5559Y7229D02*
D03*
X5721Y7641D02*
D03*
Y7660D02*
D03*
Y7680D02*
D03*
Y7700D02*
D03*
X5559Y7641D02*
D03*
Y7660D02*
D03*
Y7680D02*
D03*
X5559Y7700D02*
D03*
X5559Y7719D02*
D03*
D13*
X5721Y5759D02*
D03*
Y3269D02*
D03*
Y3759D02*
D03*
Y4249D02*
D03*
Y4739D02*
D03*
Y5229D02*
D03*
Y6249D02*
D03*
Y6739D02*
D03*
Y7229D02*
D03*
Y7719D02*
D03*
D14*
X5463Y5680D02*
D03*
X5397D02*
D03*
X5453Y3290D02*
D03*
X5387D02*
D03*
X5463Y3190D02*
D03*
X5397D02*
D03*
X5453Y3780D02*
D03*
X5387D02*
D03*
X5463Y3680D02*
D03*
X5397D02*
D03*
X5453Y4270D02*
D03*
X5387D02*
D03*
X5463Y4170D02*
D03*
X5397D02*
D03*
X5453Y4760D02*
D03*
X5387D02*
D03*
X5463Y4660D02*
D03*
X5397D02*
D03*
X5453Y5250D02*
D03*
X5387D02*
D03*
X5463Y5150D02*
D03*
X5397D02*
D03*
X5453Y5780D02*
D03*
X5387D02*
D03*
X5453Y6270D02*
D03*
X5387D02*
D03*
X5463Y6170D02*
D03*
X5397D02*
D03*
X5453Y6760D02*
D03*
X5387D02*
D03*
X5463Y6660D02*
D03*
X5397D02*
D03*
X5453Y7250D02*
D03*
X5387D02*
D03*
X5463Y7150D02*
D03*
X5397D02*
D03*
X5453Y7740D02*
D03*
X5387D02*
D03*
X5463Y7640D02*
D03*
X5397D02*
D03*
X6177Y4480D02*
D03*
X6377Y4300D02*
D03*
X6423Y3250D02*
D03*
X6357D02*
D03*
X6443Y4300D02*
D03*
X6243Y4480D02*
D03*
X6257Y3450D02*
D03*
X6323D02*
D03*
X8283Y5050D02*
D03*
X8217D02*
D03*
X6697Y7250D02*
D03*
X3013Y3270D02*
D03*
X2947D02*
D03*
X3013Y3760D02*
D03*
X2947D02*
D03*
X3013Y4250D02*
D03*
X2947D02*
D03*
X3013Y4740D02*
D03*
X2947D02*
D03*
X2993Y5230D02*
D03*
X2927D02*
D03*
X2993Y5760D02*
D03*
X2927D02*
D03*
X3013Y6250D02*
D03*
X2947D02*
D03*
X3013Y6740D02*
D03*
X2947D02*
D03*
X3013Y7230D02*
D03*
X2947D02*
D03*
X3013Y7720D02*
D03*
X2947D02*
D03*
X4393Y3210D02*
D03*
X4327D02*
D03*
X4233Y3430D02*
D03*
X4167D02*
D03*
X4393Y3110D02*
D03*
X4327D02*
D03*
X4393Y3430D02*
D03*
X4327D02*
D03*
X4187Y3210D02*
D03*
X4253D02*
D03*
X4347Y3330D02*
D03*
X4413D02*
D03*
X4233D02*
D03*
X4167D02*
D03*
X4233Y3110D02*
D03*
X4167D02*
D03*
X5087Y3430D02*
D03*
X5153D02*
D03*
X4927Y3230D02*
D03*
X4993D02*
D03*
X4973Y3330D02*
D03*
X4907D02*
D03*
X4927Y3130D02*
D03*
X4993D02*
D03*
X5133Y3330D02*
D03*
X5067D02*
D03*
X4927Y3430D02*
D03*
X4993D02*
D03*
X5087Y3130D02*
D03*
X5153D02*
D03*
X5087Y3230D02*
D03*
X5153D02*
D03*
X4393Y3700D02*
D03*
X4327D02*
D03*
X4233Y3920D02*
D03*
X4167D02*
D03*
X4393Y3600D02*
D03*
X4327D02*
D03*
X4393Y3920D02*
D03*
X4327D02*
D03*
X4187Y3700D02*
D03*
X4253D02*
D03*
X4347Y3820D02*
D03*
X4413D02*
D03*
X4233D02*
D03*
X4167D02*
D03*
X4233Y3600D02*
D03*
X4167D02*
D03*
X5087Y3920D02*
D03*
X5153D02*
D03*
X4927Y3720D02*
D03*
X4993D02*
D03*
X4973Y3820D02*
D03*
X4907D02*
D03*
X4927Y3620D02*
D03*
X4993D02*
D03*
X5133Y3820D02*
D03*
X5067D02*
D03*
X4927Y3920D02*
D03*
X4993D02*
D03*
X5087Y3620D02*
D03*
X5153D02*
D03*
X5087Y3720D02*
D03*
X5153D02*
D03*
X4393Y4190D02*
D03*
X4327D02*
D03*
X4233Y4410D02*
D03*
X4167D02*
D03*
X4393Y4090D02*
D03*
X4327D02*
D03*
X4393Y4410D02*
D03*
X4327D02*
D03*
X4187Y4190D02*
D03*
X4253D02*
D03*
X4347Y4310D02*
D03*
X4413D02*
D03*
X4233D02*
D03*
X4167D02*
D03*
X4233Y4090D02*
D03*
X4167D02*
D03*
X5087Y4410D02*
D03*
X5153D02*
D03*
X4927Y4210D02*
D03*
X4993D02*
D03*
X4973Y4310D02*
D03*
X4907D02*
D03*
X4927Y4110D02*
D03*
X4993D02*
D03*
X5133Y4310D02*
D03*
X5067D02*
D03*
X4927Y4410D02*
D03*
X4993D02*
D03*
X5087Y4110D02*
D03*
X5153D02*
D03*
X5087Y4210D02*
D03*
X5153D02*
D03*
X4393Y4680D02*
D03*
X4327D02*
D03*
X4233Y4900D02*
D03*
X4167D02*
D03*
X4393Y4580D02*
D03*
X4327D02*
D03*
X4393Y4900D02*
D03*
X4327D02*
D03*
X4187Y4680D02*
D03*
X4253D02*
D03*
X4347Y4800D02*
D03*
X4413D02*
D03*
X4233D02*
D03*
X4167D02*
D03*
X4233Y4580D02*
D03*
X4167D02*
D03*
X5087Y4900D02*
D03*
X5153D02*
D03*
X4927Y4700D02*
D03*
X4993D02*
D03*
X4973Y4800D02*
D03*
X4907D02*
D03*
X4927Y4600D02*
D03*
X4993D02*
D03*
X5133Y4800D02*
D03*
X5067D02*
D03*
X4927Y4900D02*
D03*
X4993D02*
D03*
X5087Y4600D02*
D03*
X5153D02*
D03*
X5087Y4700D02*
D03*
X5153D02*
D03*
X4393Y5170D02*
D03*
X4327D02*
D03*
X4233Y5390D02*
D03*
X4167D02*
D03*
X4393Y5070D02*
D03*
X4327D02*
D03*
X4393Y5390D02*
D03*
X4327D02*
D03*
X4187Y5170D02*
D03*
X4253D02*
D03*
X4347Y5290D02*
D03*
X4413D02*
D03*
X4233D02*
D03*
X4167D02*
D03*
X4233Y5070D02*
D03*
X4167D02*
D03*
X5087Y5390D02*
D03*
X5153D02*
D03*
X4927Y5190D02*
D03*
X4993D02*
D03*
X4973Y5290D02*
D03*
X4907D02*
D03*
X4927Y5090D02*
D03*
X4993D02*
D03*
X5133Y5290D02*
D03*
X5067D02*
D03*
X4927Y5390D02*
D03*
X4993D02*
D03*
X5087Y5090D02*
D03*
X5153D02*
D03*
X5087Y5190D02*
D03*
X5153D02*
D03*
X4393Y5700D02*
D03*
X4327D02*
D03*
X4233Y5920D02*
D03*
X4167D02*
D03*
X4393Y5600D02*
D03*
X4327D02*
D03*
X4393Y5920D02*
D03*
X4327D02*
D03*
X4187Y5700D02*
D03*
X4253D02*
D03*
X4347Y5820D02*
D03*
X4413D02*
D03*
X4233D02*
D03*
X4167D02*
D03*
X4233Y5600D02*
D03*
X4167D02*
D03*
X5087Y5920D02*
D03*
X5153D02*
D03*
X4927Y5720D02*
D03*
X4993D02*
D03*
X4973Y5820D02*
D03*
X4907D02*
D03*
X4927Y5620D02*
D03*
X4993D02*
D03*
X5133Y5820D02*
D03*
X5067D02*
D03*
X4927Y5920D02*
D03*
X4993D02*
D03*
X5087Y5620D02*
D03*
X5153D02*
D03*
X5087Y5720D02*
D03*
X5153D02*
D03*
X4393Y6190D02*
D03*
X4327D02*
D03*
X4233Y6410D02*
D03*
X4167D02*
D03*
X4393Y6090D02*
D03*
X4327D02*
D03*
X4393Y6410D02*
D03*
X4327D02*
D03*
X4187Y6190D02*
D03*
X4253D02*
D03*
X4347Y6310D02*
D03*
X4413D02*
D03*
X4233D02*
D03*
X4167D02*
D03*
X4233Y6090D02*
D03*
X4167D02*
D03*
X5087Y6410D02*
D03*
X5153D02*
D03*
X4927Y6210D02*
D03*
X4993D02*
D03*
X4973Y6310D02*
D03*
X4907D02*
D03*
X4927Y6110D02*
D03*
X4993D02*
D03*
X5133Y6310D02*
D03*
X5067D02*
D03*
X4927Y6410D02*
D03*
X4993D02*
D03*
X5087Y6110D02*
D03*
X5153D02*
D03*
X5087Y6210D02*
D03*
X5153D02*
D03*
X4393Y6680D02*
D03*
X4327D02*
D03*
X4393Y6580D02*
D03*
X4327D02*
D03*
X4393Y6900D02*
D03*
X4327D02*
D03*
X4187Y6680D02*
D03*
X4253D02*
D03*
X4347Y6800D02*
D03*
X4413D02*
D03*
X4233D02*
D03*
X4167D02*
D03*
X4233Y6580D02*
D03*
X4167D02*
D03*
X5087Y6900D02*
D03*
X5153D02*
D03*
X4927Y6700D02*
D03*
X4993D02*
D03*
X4973Y6800D02*
D03*
X4907D02*
D03*
X4927Y6600D02*
D03*
X4993D02*
D03*
X5133Y6800D02*
D03*
X5067D02*
D03*
X4927Y6900D02*
D03*
X4993D02*
D03*
X5087Y6600D02*
D03*
X5153D02*
D03*
X5087Y6700D02*
D03*
X5153D02*
D03*
X4393Y7070D02*
D03*
X4327D02*
D03*
X4393Y7390D02*
D03*
X4327D02*
D03*
X4187Y7170D02*
D03*
X4253D02*
D03*
X4347Y7290D02*
D03*
X4413D02*
D03*
X4233D02*
D03*
X4167D02*
D03*
X4233Y7070D02*
D03*
X4167D02*
D03*
X5087Y7390D02*
D03*
X5153D02*
D03*
X4927Y7190D02*
D03*
X4993D02*
D03*
X4973Y7290D02*
D03*
X4907D02*
D03*
X4927Y7090D02*
D03*
X4993D02*
D03*
X5133Y7290D02*
D03*
X5067D02*
D03*
X4927Y7390D02*
D03*
X4993D02*
D03*
X5087Y7090D02*
D03*
X5153D02*
D03*
X5087Y7190D02*
D03*
X5153D02*
D03*
X4233Y7880D02*
D03*
X4167D02*
D03*
X4393Y7560D02*
D03*
X4327D02*
D03*
X4393Y7880D02*
D03*
X4327D02*
D03*
X4187Y7660D02*
D03*
X4253D02*
D03*
X4233Y7780D02*
D03*
X4167D02*
D03*
X4233Y7560D02*
D03*
X4167D02*
D03*
X5087Y7880D02*
D03*
X5153D02*
D03*
X4927Y7680D02*
D03*
X4993D02*
D03*
X4973Y7780D02*
D03*
X4907D02*
D03*
X4927Y7580D02*
D03*
X4993D02*
D03*
X5133Y7780D02*
D03*
X5067D02*
D03*
X4927Y7880D02*
D03*
X4993D02*
D03*
X5087Y7580D02*
D03*
X5153D02*
D03*
X5087Y7680D02*
D03*
X5153D02*
D03*
X7479Y5810D02*
D03*
X7545D02*
D03*
X6537Y7800D02*
D03*
X7943Y4640D02*
D03*
X7877D02*
D03*
X7453D02*
D03*
X7387D02*
D03*
X7613D02*
D03*
X7547D02*
D03*
X7707Y4950D02*
D03*
X7773D02*
D03*
X7727Y4640D02*
D03*
X7793D02*
D03*
X7843Y5400D02*
D03*
X7777D02*
D03*
X8217Y5190D02*
D03*
X8283D02*
D03*
X8263Y4940D02*
D03*
X8197D02*
D03*
X7897Y3440D02*
D03*
X7963D02*
D03*
X7667D02*
D03*
X7733D02*
D03*
X4413Y7780D02*
D03*
X4347D02*
D03*
X4327Y7170D02*
D03*
X4393D02*
D03*
X4167Y6900D02*
D03*
X4233D02*
D03*
X4327Y7660D02*
D03*
X4393D02*
D03*
X4167Y7390D02*
D03*
X4233D02*
D03*
X6763Y7250D02*
D03*
X6603Y7800D02*
D03*
D15*
X6220Y4773D02*
D03*
Y4707D02*
D03*
X5850Y7807D02*
D03*
Y7873D02*
D03*
X5780Y5357D02*
D03*
Y5423D02*
D03*
X5850Y7437D02*
D03*
Y7503D02*
D03*
X5840Y6947D02*
D03*
Y7013D02*
D03*
Y6457D02*
D03*
Y6523D02*
D03*
Y5977D02*
D03*
Y6043D02*
D03*
Y4917D02*
D03*
Y4983D02*
D03*
Y4467D02*
D03*
Y4533D02*
D03*
Y3977D02*
D03*
Y4043D02*
D03*
Y3487D02*
D03*
Y3553D02*
D03*
X6420Y4877D02*
D03*
Y4943D02*
D03*
X3160Y3157D02*
D03*
Y3223D02*
D03*
Y3647D02*
D03*
Y3713D02*
D03*
Y4137D02*
D03*
Y4203D02*
D03*
Y4627D02*
D03*
Y4693D02*
D03*
X3140Y5117D02*
D03*
Y5183D02*
D03*
Y5647D02*
D03*
Y5713D02*
D03*
X3160Y6137D02*
D03*
Y6203D02*
D03*
Y6627D02*
D03*
Y6693D02*
D03*
Y7117D02*
D03*
Y7183D02*
D03*
Y7607D02*
D03*
Y7673D02*
D03*
X2440Y3303D02*
D03*
Y3237D02*
D03*
Y3793D02*
D03*
Y3727D02*
D03*
Y4283D02*
D03*
Y4217D02*
D03*
Y4773D02*
D03*
Y4707D02*
D03*
Y6283D02*
D03*
Y6217D02*
D03*
Y6773D02*
D03*
Y6707D02*
D03*
Y7263D02*
D03*
Y7197D02*
D03*
Y7753D02*
D03*
Y7687D02*
D03*
X4060Y3203D02*
D03*
Y3137D02*
D03*
Y3403D02*
D03*
Y3337D02*
D03*
X5260Y3357D02*
D03*
Y3423D02*
D03*
Y3137D02*
D03*
Y3203D02*
D03*
X4060Y3693D02*
D03*
Y3627D02*
D03*
Y3893D02*
D03*
Y3827D02*
D03*
X5255Y3852D02*
D03*
Y3918D02*
D03*
X5260Y3627D02*
D03*
Y3693D02*
D03*
X4060Y4183D02*
D03*
Y4117D02*
D03*
Y4383D02*
D03*
Y4317D02*
D03*
X5255Y4352D02*
D03*
Y4418D02*
D03*
X5260Y4117D02*
D03*
Y4183D02*
D03*
X4060Y4673D02*
D03*
Y4607D02*
D03*
Y4873D02*
D03*
Y4807D02*
D03*
X5255Y4827D02*
D03*
Y4893D02*
D03*
X5260Y4607D02*
D03*
Y4673D02*
D03*
X4060Y5163D02*
D03*
Y5097D02*
D03*
Y5363D02*
D03*
Y5297D02*
D03*
X5250Y5342D02*
D03*
Y5408D02*
D03*
X5260Y5097D02*
D03*
Y5163D02*
D03*
X4060Y5693D02*
D03*
Y5627D02*
D03*
Y5893D02*
D03*
Y5827D02*
D03*
X5250Y5867D02*
D03*
Y5933D02*
D03*
X5260Y5627D02*
D03*
Y5693D02*
D03*
X4060Y6183D02*
D03*
Y6117D02*
D03*
Y6383D02*
D03*
Y6317D02*
D03*
X5245Y6362D02*
D03*
Y6428D02*
D03*
X5260Y6117D02*
D03*
Y6183D02*
D03*
X4060Y6673D02*
D03*
Y6607D02*
D03*
Y6873D02*
D03*
Y6807D02*
D03*
X5255Y6847D02*
D03*
Y6913D02*
D03*
X5260Y6607D02*
D03*
Y6673D02*
D03*
X4060Y7163D02*
D03*
Y7097D02*
D03*
Y7363D02*
D03*
Y7297D02*
D03*
X5245Y7327D02*
D03*
Y7393D02*
D03*
X5260Y7097D02*
D03*
Y7163D02*
D03*
X4060Y7653D02*
D03*
Y7587D02*
D03*
Y7853D02*
D03*
Y7787D02*
D03*
X5260Y7807D02*
D03*
Y7873D02*
D03*
X7200Y4837D02*
D03*
Y4903D02*
D03*
X8250Y5707D02*
D03*
Y5773D02*
D03*
Y5357D02*
D03*
Y5423D02*
D03*
X5260Y7653D02*
D03*
Y7587D02*
D03*
X6770Y7517D02*
D03*
Y7583D02*
D03*
Y7347D02*
D03*
Y7413D02*
D03*
D16*
X5590Y7833D02*
D03*
Y7907D02*
D03*
Y3383D02*
D03*
Y3457D02*
D03*
Y3873D02*
D03*
Y3947D02*
D03*
Y4363D02*
D03*
Y4437D02*
D03*
Y4853D02*
D03*
Y4927D02*
D03*
Y5343D02*
D03*
Y5417D02*
D03*
Y5873D02*
D03*
Y5947D02*
D03*
Y6363D02*
D03*
Y6437D02*
D03*
Y6853D02*
D03*
Y6927D02*
D03*
Y7343D02*
D03*
Y7417D02*
D03*
D17*
X5492Y3427D02*
D03*
Y3353D02*
D03*
X5408D02*
D03*
Y3390D02*
D03*
Y3427D02*
D03*
X5492Y3917D02*
D03*
Y3843D02*
D03*
X5408D02*
D03*
Y3880D02*
D03*
Y3917D02*
D03*
X5492Y4407D02*
D03*
Y4333D02*
D03*
X5408D02*
D03*
Y4370D02*
D03*
Y4407D02*
D03*
X5492Y4897D02*
D03*
Y4823D02*
D03*
X5408D02*
D03*
Y4860D02*
D03*
Y4897D02*
D03*
X5492Y5387D02*
D03*
Y5313D02*
D03*
X5408D02*
D03*
Y5350D02*
D03*
Y5387D02*
D03*
X5492Y5917D02*
D03*
Y5843D02*
D03*
X5408D02*
D03*
Y5880D02*
D03*
Y5917D02*
D03*
X5492Y6407D02*
D03*
Y6333D02*
D03*
X5408D02*
D03*
Y6370D02*
D03*
Y6407D02*
D03*
X5492Y6897D02*
D03*
Y6823D02*
D03*
X5408D02*
D03*
Y6860D02*
D03*
Y6897D02*
D03*
X5492Y7387D02*
D03*
Y7313D02*
D03*
X5408D02*
D03*
Y7350D02*
D03*
Y7387D02*
D03*
X5492Y7877D02*
D03*
Y7803D02*
D03*
X5408D02*
D03*
Y7840D02*
D03*
Y7877D02*
D03*
D18*
X6425Y4615D02*
D03*
Y4665D02*
D03*
X6635D02*
D03*
Y4615D02*
D03*
X6425Y3455D02*
D03*
Y4515D02*
D03*
Y4565D02*
D03*
Y3355D02*
D03*
Y4765D02*
D03*
X6635Y4415D02*
D03*
Y4465D02*
D03*
Y4515D02*
D03*
Y4565D02*
D03*
Y4715D02*
D03*
Y4765D02*
D03*
X6425Y4415D02*
D03*
Y4465D02*
D03*
Y4715D02*
D03*
Y3705D02*
D03*
Y3655D02*
D03*
Y3605D02*
D03*
Y3555D02*
D03*
Y3505D02*
D03*
Y3405D02*
D03*
X6635Y3705D02*
D03*
Y3655D02*
D03*
Y3605D02*
D03*
Y3555D02*
D03*
Y3505D02*
D03*
Y3455D02*
D03*
Y3405D02*
D03*
Y3355D02*
D03*
D19*
X6757Y7032D02*
D03*
X6783D02*
D03*
X6808D02*
D03*
X6732D02*
D03*
X6808Y6868D02*
D03*
X6783D02*
D03*
X6757D02*
D03*
X6732D02*
D03*
X6922Y7578D02*
D03*
X6947D02*
D03*
X6973D02*
D03*
X6998D02*
D03*
X6922Y7742D02*
D03*
X6947D02*
D03*
X6973D02*
D03*
X6998D02*
D03*
D20*
X6560Y6979D02*
D03*
Y6861D02*
D03*
X6920Y7331D02*
D03*
Y7449D02*
D03*
X6770Y7829D02*
D03*
Y7711D02*
D03*
D21*
X7772Y4149D02*
D03*
Y4267D02*
D03*
Y3834D02*
D03*
Y3853D02*
D03*
Y3873D02*
D03*
Y3893D02*
D03*
Y3913D02*
D03*
Y3932D02*
D03*
Y3952D02*
D03*
Y3972D02*
D03*
Y3991D02*
D03*
Y4011D02*
D03*
Y4031D02*
D03*
Y4050D02*
D03*
Y4070D02*
D03*
Y4090D02*
D03*
Y4109D02*
D03*
Y4129D02*
D03*
Y4168D02*
D03*
Y4188D02*
D03*
Y4208D02*
D03*
Y4227D02*
D03*
Y4247D02*
D03*
Y4287D02*
D03*
Y4306D02*
D03*
X7168Y3834D02*
D03*
Y3853D02*
D03*
Y3873D02*
D03*
Y3893D02*
D03*
Y3913D02*
D03*
Y3932D02*
D03*
Y3952D02*
D03*
Y3972D02*
D03*
Y3991D02*
D03*
Y4011D02*
D03*
Y4031D02*
D03*
Y4050D02*
D03*
Y4070D02*
D03*
Y4090D02*
D03*
Y4109D02*
D03*
Y4129D02*
D03*
Y4149D02*
D03*
Y4168D02*
D03*
Y4188D02*
D03*
Y4208D02*
D03*
Y4227D02*
D03*
Y4247D02*
D03*
Y4267D02*
D03*
Y4287D02*
D03*
Y4306D02*
D03*
D22*
X7541Y4765D02*
D03*
X7319Y4995D02*
D03*
Y4970D02*
D03*
Y4944D02*
D03*
Y4918D02*
D03*
Y4893D02*
D03*
Y4867D02*
D03*
Y4842D02*
D03*
Y4816D02*
D03*
Y4790D02*
D03*
X7319Y4765D02*
D03*
X7541Y4995D02*
D03*
Y4970D02*
D03*
Y4944D02*
D03*
Y4918D02*
D03*
Y4893D02*
D03*
Y4867D02*
D03*
Y4842D02*
D03*
Y4816D02*
D03*
Y4790D02*
D03*
D23*
X7401Y5490D02*
D03*
X7579D02*
D03*
D24*
X7490Y5539D02*
D03*
Y5441D02*
D03*
D25*
X7400Y5375D02*
D03*
X7426D02*
D03*
X7451D02*
D03*
X7477D02*
D03*
X7503D02*
D03*
X7528D02*
D03*
X7554D02*
D03*
X7400Y5605D02*
D03*
X7426D02*
D03*
X7451D02*
D03*
X7477D02*
D03*
X7503D02*
D03*
X7528D02*
D03*
X7554D02*
D03*
X7579Y5375D02*
D03*
Y5605D02*
D03*
X7605Y5375D02*
D03*
Y5605D02*
D03*
X7375D02*
D03*
Y5375D02*
D03*
D26*
X7490Y5490D02*
D03*
D27*
X3750Y5611D02*
D03*
X3770Y4381D02*
D03*
X3760Y3401D02*
D03*
Y6371D02*
D03*
X3750Y5061D02*
D03*
X3760Y7351D02*
D03*
D28*
X3776Y5611D02*
D03*
X3802D02*
D03*
X3827D02*
D03*
X3853D02*
D03*
X3878D02*
D03*
X3904D02*
D03*
X3930D02*
D03*
X3750Y5869D02*
D03*
X3776D02*
D03*
X3802D02*
D03*
X3827D02*
D03*
X3853D02*
D03*
X3878D02*
D03*
X3904D02*
D03*
X3930D02*
D03*
X3950Y4639D02*
D03*
X3924D02*
D03*
X3898D02*
D03*
X3873D02*
D03*
X3847D02*
D03*
X3822D02*
D03*
X3796D02*
D03*
X3770D02*
D03*
X3950Y4381D02*
D03*
X3924D02*
D03*
X3898D02*
D03*
X3873D02*
D03*
X3847D02*
D03*
X3822D02*
D03*
X3796D02*
D03*
X3940Y3659D02*
D03*
X3914D02*
D03*
X3888D02*
D03*
X3863D02*
D03*
X3837D02*
D03*
X3812D02*
D03*
X3786D02*
D03*
X3760D02*
D03*
X3940Y3401D02*
D03*
X3812D02*
D03*
X3786D02*
D03*
X3940Y6629D02*
D03*
X3914D02*
D03*
X3888D02*
D03*
X3863D02*
D03*
X3837D02*
D03*
X3812D02*
D03*
X3786D02*
D03*
X3760D02*
D03*
X3940Y6371D02*
D03*
X3812D02*
D03*
X3786D02*
D03*
X3776Y5061D02*
D03*
X3802D02*
D03*
X3827D02*
D03*
X3853D02*
D03*
X3878D02*
D03*
X3904D02*
D03*
X3930D02*
D03*
X3750Y5319D02*
D03*
X3776D02*
D03*
X3802D02*
D03*
X3827D02*
D03*
X3853D02*
D03*
X3878D02*
D03*
X3904D02*
D03*
X3930D02*
D03*
X3786Y7351D02*
D03*
X3812D02*
D03*
X3837D02*
D03*
X3863D02*
D03*
X3888D02*
D03*
X3914D02*
D03*
X3940D02*
D03*
X3760Y7609D02*
D03*
X3786D02*
D03*
X3812D02*
D03*
X3837D02*
D03*
X3863D02*
D03*
X3888D02*
D03*
X3914D02*
D03*
X3940D02*
D03*
X3837Y6371D02*
D03*
X3863D02*
D03*
X3888D02*
D03*
X3914D02*
D03*
X3837Y3401D02*
D03*
X3863D02*
D03*
X3888D02*
D03*
X3914D02*
D03*
D29*
X7422Y3405D02*
D03*
X2578Y3345D02*
D03*
Y3835D02*
D03*
Y4325D02*
D03*
Y4815D02*
D03*
Y6325D02*
D03*
Y6815D02*
D03*
Y7305D02*
D03*
Y7795D02*
D03*
D30*
X7218Y3555D02*
D03*
Y3505D02*
D03*
Y3455D02*
D03*
Y3405D02*
D03*
X7422Y3555D02*
D03*
Y3505D02*
D03*
Y3455D02*
D03*
X2578Y3295D02*
D03*
Y3245D02*
D03*
Y3195D02*
D03*
X2782Y3345D02*
D03*
Y3295D02*
D03*
Y3245D02*
D03*
Y3195D02*
D03*
X2578Y3785D02*
D03*
Y3735D02*
D03*
Y3685D02*
D03*
X2782Y3835D02*
D03*
Y3785D02*
D03*
Y3735D02*
D03*
Y3685D02*
D03*
X2578Y4275D02*
D03*
Y4225D02*
D03*
Y4175D02*
D03*
X2782Y4325D02*
D03*
Y4275D02*
D03*
Y4225D02*
D03*
Y4175D02*
D03*
X2578Y4765D02*
D03*
Y4715D02*
D03*
Y4665D02*
D03*
X2782Y4815D02*
D03*
Y4765D02*
D03*
Y4715D02*
D03*
Y4665D02*
D03*
X2578Y6275D02*
D03*
Y6225D02*
D03*
Y6175D02*
D03*
X2782Y6325D02*
D03*
Y6275D02*
D03*
Y6225D02*
D03*
Y6175D02*
D03*
X2578Y6765D02*
D03*
Y6715D02*
D03*
Y6665D02*
D03*
X2782Y6815D02*
D03*
Y6765D02*
D03*
Y6715D02*
D03*
Y6665D02*
D03*
X2578Y7255D02*
D03*
Y7205D02*
D03*
Y7155D02*
D03*
X2782Y7305D02*
D03*
Y7255D02*
D03*
Y7205D02*
D03*
Y7155D02*
D03*
X2578Y7745D02*
D03*
Y7695D02*
D03*
Y7645D02*
D03*
X2782Y7795D02*
D03*
Y7745D02*
D03*
Y7695D02*
D03*
Y7645D02*
D03*
D31*
X3500Y3310D02*
D03*
Y3800D02*
D03*
Y4290D02*
D03*
Y4780D02*
D03*
X3480Y5270D02*
D03*
Y5800D02*
D03*
X3500Y6290D02*
D03*
Y6780D02*
D03*
Y7270D02*
D03*
Y7760D02*
D03*
D32*
Y3284D02*
D03*
Y3259D02*
D03*
Y3233D02*
D03*
X3603Y3310D02*
D03*
Y3284D02*
D03*
Y3259D02*
D03*
Y3233D02*
D03*
X3500Y3774D02*
D03*
Y3749D02*
D03*
Y3723D02*
D03*
X3603Y3800D02*
D03*
Y3774D02*
D03*
Y3749D02*
D03*
Y3723D02*
D03*
X3500Y4264D02*
D03*
Y4239D02*
D03*
Y4213D02*
D03*
X3603Y4290D02*
D03*
Y4264D02*
D03*
Y4239D02*
D03*
Y4213D02*
D03*
X3500Y4754D02*
D03*
Y4729D02*
D03*
Y4703D02*
D03*
X3603Y4780D02*
D03*
Y4754D02*
D03*
Y4729D02*
D03*
Y4703D02*
D03*
X3480Y5244D02*
D03*
Y5219D02*
D03*
Y5193D02*
D03*
X3583Y5270D02*
D03*
Y5244D02*
D03*
Y5219D02*
D03*
Y5193D02*
D03*
X3480Y5774D02*
D03*
Y5749D02*
D03*
Y5723D02*
D03*
X3583Y5800D02*
D03*
Y5774D02*
D03*
Y5749D02*
D03*
Y5723D02*
D03*
X3500Y6264D02*
D03*
Y6239D02*
D03*
Y6213D02*
D03*
X3603Y6290D02*
D03*
Y6264D02*
D03*
Y6239D02*
D03*
Y6213D02*
D03*
X3500Y6754D02*
D03*
Y6729D02*
D03*
Y6703D02*
D03*
X3603Y6780D02*
D03*
Y6754D02*
D03*
Y6729D02*
D03*
Y6703D02*
D03*
X3500Y7244D02*
D03*
Y7219D02*
D03*
Y7193D02*
D03*
X3603Y7270D02*
D03*
Y7244D02*
D03*
Y7219D02*
D03*
Y7193D02*
D03*
X3500Y7734D02*
D03*
Y7709D02*
D03*
Y7683D02*
D03*
X3603Y7760D02*
D03*
Y7734D02*
D03*
Y7709D02*
D03*
Y7683D02*
D03*
D33*
X3198Y3408D02*
D03*
Y3383D02*
D03*
Y3357D02*
D03*
Y3332D02*
D03*
X3362Y3408D02*
D03*
Y3383D02*
D03*
Y3357D02*
D03*
Y3332D02*
D03*
X3198Y3898D02*
D03*
Y3873D02*
D03*
Y3847D02*
D03*
Y3822D02*
D03*
X3362Y3898D02*
D03*
Y3873D02*
D03*
Y3847D02*
D03*
Y3822D02*
D03*
X3198Y4388D02*
D03*
Y4363D02*
D03*
Y4337D02*
D03*
Y4312D02*
D03*
X3362Y4388D02*
D03*
Y4363D02*
D03*
Y4337D02*
D03*
Y4312D02*
D03*
X3198Y4878D02*
D03*
Y4853D02*
D03*
Y4827D02*
D03*
Y4802D02*
D03*
X3362Y4878D02*
D03*
Y4853D02*
D03*
Y4827D02*
D03*
Y4802D02*
D03*
X3178Y5368D02*
D03*
Y5343D02*
D03*
Y5317D02*
D03*
Y5292D02*
D03*
X3342Y5368D02*
D03*
Y5343D02*
D03*
Y5317D02*
D03*
Y5292D02*
D03*
X3178Y5898D02*
D03*
Y5873D02*
D03*
Y5847D02*
D03*
Y5822D02*
D03*
X3342Y5898D02*
D03*
Y5873D02*
D03*
Y5847D02*
D03*
Y5822D02*
D03*
X3198Y6388D02*
D03*
Y6363D02*
D03*
Y6337D02*
D03*
Y6312D02*
D03*
X3362Y6388D02*
D03*
Y6363D02*
D03*
Y6337D02*
D03*
Y6312D02*
D03*
X3198Y6878D02*
D03*
Y6853D02*
D03*
Y6827D02*
D03*
Y6802D02*
D03*
X3362Y6878D02*
D03*
Y6853D02*
D03*
Y6827D02*
D03*
Y6802D02*
D03*
X3198Y7368D02*
D03*
Y7343D02*
D03*
Y7317D02*
D03*
Y7292D02*
D03*
X3362Y7368D02*
D03*
Y7343D02*
D03*
Y7317D02*
D03*
Y7292D02*
D03*
X3198Y7858D02*
D03*
Y7833D02*
D03*
Y7807D02*
D03*
Y7782D02*
D03*
X3362Y7858D02*
D03*
Y7833D02*
D03*
Y7807D02*
D03*
Y7782D02*
D03*
D34*
X3260Y3170D02*
D03*
Y3660D02*
D03*
Y4150D02*
D03*
Y4640D02*
D03*
X3240Y5130D02*
D03*
Y5660D02*
D03*
X3260Y6150D02*
D03*
Y6640D02*
D03*
Y7130D02*
D03*
Y7620D02*
D03*
D35*
Y3144D02*
D03*
Y3119D02*
D03*
Y3093D02*
D03*
X3427Y3170D02*
D03*
Y3144D02*
D03*
Y3119D02*
D03*
Y3093D02*
D03*
X3260Y3634D02*
D03*
Y3609D02*
D03*
Y3583D02*
D03*
X3427Y3660D02*
D03*
Y3634D02*
D03*
Y3609D02*
D03*
Y3583D02*
D03*
X3260Y4124D02*
D03*
Y4099D02*
D03*
Y4073D02*
D03*
X3427Y4150D02*
D03*
Y4124D02*
D03*
Y4099D02*
D03*
Y4073D02*
D03*
X3260Y4614D02*
D03*
Y4589D02*
D03*
Y4563D02*
D03*
X3427Y4640D02*
D03*
Y4614D02*
D03*
Y4589D02*
D03*
Y4563D02*
D03*
X3240Y5104D02*
D03*
Y5079D02*
D03*
Y5053D02*
D03*
X3407Y5130D02*
D03*
Y5104D02*
D03*
Y5079D02*
D03*
Y5053D02*
D03*
X3240Y5634D02*
D03*
Y5609D02*
D03*
Y5583D02*
D03*
X3407Y5660D02*
D03*
Y5634D02*
D03*
Y5609D02*
D03*
Y5583D02*
D03*
X3260Y6124D02*
D03*
Y6099D02*
D03*
Y6073D02*
D03*
X3427Y6150D02*
D03*
Y6124D02*
D03*
Y6099D02*
D03*
Y6073D02*
D03*
X3260Y6614D02*
D03*
Y6589D02*
D03*
Y6563D02*
D03*
X3427Y6640D02*
D03*
Y6614D02*
D03*
Y6589D02*
D03*
Y6563D02*
D03*
X3260Y7104D02*
D03*
Y7079D02*
D03*
Y7053D02*
D03*
X3427Y7130D02*
D03*
Y7104D02*
D03*
Y7079D02*
D03*
Y7053D02*
D03*
X3260Y7594D02*
D03*
Y7569D02*
D03*
Y7543D02*
D03*
X3427Y7620D02*
D03*
Y7594D02*
D03*
Y7569D02*
D03*
Y7543D02*
D03*
D36*
X3615Y3430D02*
D03*
X3505D02*
D03*
X3635Y3110D02*
D03*
X3525D02*
D03*
X3615Y3920D02*
D03*
X3505D02*
D03*
X3635Y3600D02*
D03*
X3525D02*
D03*
X3615Y4410D02*
D03*
X3505D02*
D03*
X3635Y4090D02*
D03*
X3525D02*
D03*
X3615Y4900D02*
D03*
X3505D02*
D03*
X3635Y4580D02*
D03*
X3525D02*
D03*
X3595Y5390D02*
D03*
X3485D02*
D03*
X3615Y5070D02*
D03*
X3505D02*
D03*
X3595Y5920D02*
D03*
X3485D02*
D03*
X3615Y5600D02*
D03*
X3505D02*
D03*
X3615Y6410D02*
D03*
X3505D02*
D03*
X3635Y6090D02*
D03*
X3525D02*
D03*
X3615Y6900D02*
D03*
X3505D02*
D03*
X3635Y6580D02*
D03*
X3525D02*
D03*
X3615Y7390D02*
D03*
X3505D02*
D03*
X3635Y7070D02*
D03*
X3525D02*
D03*
X3615Y7880D02*
D03*
X3505D02*
D03*
X3635Y7560D02*
D03*
X3525D02*
D03*
X2945Y3410D02*
D03*
X3055D02*
D03*
X3035Y3130D02*
D03*
X2925D02*
D03*
X2945Y3900D02*
D03*
X3055D02*
D03*
X3035Y3620D02*
D03*
X2925D02*
D03*
X2945Y4390D02*
D03*
X3055D02*
D03*
X3035Y4110D02*
D03*
X2925D02*
D03*
X2945Y4880D02*
D03*
X3055D02*
D03*
X3035Y4600D02*
D03*
X2925D02*
D03*
X2945Y6390D02*
D03*
X3055D02*
D03*
X3035Y6110D02*
D03*
X2925D02*
D03*
X2945Y6880D02*
D03*
X3055D02*
D03*
X3035Y6600D02*
D03*
X2925D02*
D03*
X2945Y7370D02*
D03*
X3055D02*
D03*
X3035Y7090D02*
D03*
X2925D02*
D03*
X2945Y7860D02*
D03*
X3055D02*
D03*
X3035Y7580D02*
D03*
X2925D02*
D03*
D37*
X7910Y6368D02*
D03*
Y6132D02*
D03*
X7340Y7072D02*
D03*
Y7308D02*
D03*
Y7512D02*
D03*
Y7748D02*
D03*
D38*
X7719Y5180D02*
D03*
X7601D02*
D03*
X6831Y3740D02*
D03*
X6949D02*
D03*
X7291Y5180D02*
D03*
X7409D02*
D03*
X8039Y5870D02*
D03*
X7921D02*
D03*
D39*
X7741Y7120D02*
D03*
X8079D02*
D03*
X7741Y7650D02*
D03*
X8079D02*
D03*
D40*
X8075Y5675D02*
D03*
X8025D02*
D03*
X7975D02*
D03*
X7925D02*
D03*
X8075Y5465D02*
D03*
X8025D02*
D03*
X7975D02*
D03*
X7925D02*
D03*
D41*
X7234Y3768D02*
D03*
X7253D02*
D03*
X7273D02*
D03*
X7293D02*
D03*
X7313D02*
D03*
X7332D02*
D03*
X7352D02*
D03*
X7372D02*
D03*
X7391D02*
D03*
X7411D02*
D03*
X7431D02*
D03*
X7450D02*
D03*
X7470D02*
D03*
X7490D02*
D03*
X7509D02*
D03*
X7529D02*
D03*
X7549D02*
D03*
X7568D02*
D03*
X7588D02*
D03*
X7608D02*
D03*
X7627D02*
D03*
X7647D02*
D03*
X7667D02*
D03*
X7687D02*
D03*
X7706D02*
D03*
X7234Y4372D02*
D03*
X7253D02*
D03*
X7273D02*
D03*
X7293D02*
D03*
X7313D02*
D03*
X7332D02*
D03*
X7352D02*
D03*
X7372D02*
D03*
X7391D02*
D03*
X7411D02*
D03*
X7431D02*
D03*
X7450D02*
D03*
X7470D02*
D03*
X7490D02*
D03*
X7509D02*
D03*
X7529D02*
D03*
X7549D02*
D03*
X7568D02*
D03*
X7588D02*
D03*
X7608D02*
D03*
X7627D02*
D03*
X7647D02*
D03*
X7667D02*
D03*
X7687D02*
D03*
X7706D02*
D03*
D42*
X8151Y3625D02*
D03*
X8151Y3575D02*
D03*
Y3525D02*
D03*
Y3475D02*
D03*
X8369Y3625D02*
D03*
Y3575D02*
D03*
Y3525D02*
D03*
Y3475D02*
D03*
D43*
X2799Y5781D02*
D03*
X2541Y5653D02*
D03*
X2799D02*
D03*
X2541Y5756D02*
D03*
Y5730D02*
D03*
X2799Y5756D02*
D03*
Y5730D02*
D03*
Y5704D02*
D03*
X2541D02*
D03*
X2799Y5679D02*
D03*
X2541D02*
D03*
X2799Y5807D02*
D03*
X2541Y5781D02*
D03*
Y5807D02*
D03*
X2531Y5290D02*
D03*
Y5264D02*
D03*
Y5239D02*
D03*
Y5213D02*
D03*
Y5187D02*
D03*
Y5162D02*
D03*
Y5136D02*
D03*
X2789Y5290D02*
D03*
Y5264D02*
D03*
Y5239D02*
D03*
Y5213D02*
D03*
Y5187D02*
D03*
Y5162D02*
D03*
Y5136D02*
D03*
D44*
X6512Y7478D02*
D03*
X6537D02*
D03*
X6563D02*
D03*
X6588D02*
D03*
X6512Y7642D02*
D03*
X6537D02*
D03*
X6563D02*
D03*
X6588D02*
D03*
D45*
X8150Y4120D02*
D03*
Y3920D02*
D03*
X8331Y4120D02*
D03*
Y3920D02*
D03*
D46*
X4468Y5700D02*
X4510Y5658D01*
X5463Y5747D02*
X5489Y5721D01*
X5463Y5747D02*
Y5780D01*
X5471Y5721D02*
X5481D01*
X5343Y7313D02*
X5408D01*
X5343Y6823D02*
X5408D01*
X5343Y6333D02*
X5408D01*
X5347Y5843D02*
X5408D01*
X5330Y7330D02*
X5347Y7313D01*
X5330Y6840D02*
X5347Y6823D01*
X5330Y6350D02*
X5347Y6333D01*
X5330Y5820D02*
X5353Y5843D01*
X5320Y5670D02*
X5331Y5681D01*
X5320Y5335D02*
Y5670D01*
Y5335D02*
X5343Y5313D01*
X5330Y5800D02*
Y5820D01*
Y5860D02*
Y6230D01*
Y5860D02*
X5347Y5843D01*
X4950Y3760D02*
X5320D01*
X5340Y3780D01*
X5387D01*
X5300Y6800D02*
Y7210D01*
Y6330D02*
Y6710D01*
Y5820D02*
Y6210D01*
Y5310D02*
Y5710D01*
Y4780D02*
Y5200D01*
Y4330D02*
Y4650D01*
Y3800D02*
Y4210D01*
X4750Y7480D02*
X5250D01*
X5240Y7000D02*
X5300Y6940D01*
X5240Y6500D02*
X5300Y6440D01*
X5250Y6010D02*
X5300Y5960D01*
X5250Y5510D02*
X5300Y5460D01*
X5260Y4990D02*
X5300Y4950D01*
X5250Y4500D02*
X5300Y4450D01*
X5260Y4020D02*
X5300Y3980D01*
X5330Y6350D02*
Y6680D01*
X5347Y5353D02*
X5408D01*
X5330Y4840D02*
Y5150D01*
X5345Y4820D02*
X5410D01*
X5350Y4330D02*
X5410D01*
X5343Y4333D02*
X5408D01*
X5332Y4347D02*
X5350Y4330D01*
X5343Y3843D02*
X5408D01*
X5330Y3860D02*
X5347Y3843D01*
X5332Y4347D02*
Y4680D01*
X5250Y4270D02*
X5387D01*
X5330Y3370D02*
Y3680D01*
X4820Y3520D02*
X5270D01*
X5300Y3550D01*
Y3730D01*
X5330Y3370D02*
X5347Y3353D01*
X5408D01*
X5330Y3860D02*
Y4230D01*
X5343Y5313D02*
X5408D01*
X5330Y4840D02*
X5347Y4823D01*
X5408D01*
X5330Y6840D02*
Y7210D01*
Y7330D02*
Y7700D01*
X5343Y7803D02*
X5408D01*
X6425Y4615D02*
X6485D01*
X6510Y4590D01*
Y4220D02*
Y4590D01*
X6140Y3850D02*
X6510Y4220D01*
X6140Y3330D02*
Y3850D01*
X6020Y3210D02*
X6140Y3330D01*
X5721Y3210D02*
X6020D01*
X6220Y4773D02*
Y4810D01*
X6030Y4897D02*
X6267Y4660D01*
X6430D01*
X6030Y4897D02*
Y5490D01*
X5820Y5700D02*
X5900Y5620D01*
X5721Y5700D02*
X5820D01*
X5950Y3280D02*
Y7630D01*
X6120Y4480D02*
X6180D01*
X5900Y4700D02*
X6120Y4480D01*
X5890Y7190D02*
X5950Y7130D01*
X5890Y6700D02*
X5950Y6640D01*
X5890Y6210D02*
X5950Y6150D01*
X5870Y5720D02*
X5950Y5640D01*
X5880Y5190D02*
X5950Y5120D01*
X5870Y4210D02*
X5950Y4130D01*
X5860Y3720D02*
X5950Y3630D01*
X6243Y4480D02*
X6350D01*
X5790Y6800D02*
Y7130D01*
X5759Y5681D02*
X5830Y5610D01*
X6130Y4300D02*
X6377D01*
X5790Y7270D02*
Y7620D01*
X5769Y7641D02*
X5790Y7620D01*
X5721Y7641D02*
X5769D01*
Y7151D02*
X5790Y7130D01*
X5721Y7151D02*
X5769D01*
X5790Y6290D02*
Y6640D01*
X5769Y6661D02*
X5790Y6640D01*
X5721Y6661D02*
X5769D01*
X5790Y5830D02*
Y6140D01*
X5759Y6171D02*
X5790Y6140D01*
X5721Y6171D02*
X5759D01*
X5721Y5681D02*
X5759D01*
X5830Y5280D02*
Y5610D01*
X5721Y5151D02*
X5759D01*
X5800Y5110D01*
Y4770D02*
Y5110D01*
Y3790D02*
Y4130D01*
Y4290D02*
Y4640D01*
X5779Y4661D02*
X5800Y4640D01*
X5721Y4661D02*
X5779D01*
X5759Y4171D02*
X5800Y4130D01*
X5721Y4171D02*
X5759D01*
X5769Y3191D02*
X5800Y3160D01*
X5721Y3191D02*
X5769D01*
X5800Y3340D02*
Y3650D01*
X5769Y3681D02*
X5800Y3650D01*
X5721Y3681D02*
X5769D01*
X5721Y4210D02*
X5870D01*
X5721Y3720D02*
X5860D01*
X5721Y6700D02*
X5890D01*
X5721Y6210D02*
X5890D01*
X5721Y3230D02*
X5900D01*
X5950Y3280D01*
X5721Y7190D02*
X5890D01*
X5721Y5720D02*
X5870D01*
X5721Y4700D02*
X5900D01*
X5721Y5190D02*
X5880D01*
X5900Y7680D02*
X5950Y7630D01*
X5721Y7680D02*
X5900D01*
X5763Y7863D02*
X5840D01*
X5850Y7770D02*
Y7807D01*
X5780Y7700D02*
X5850Y7770D01*
X5721Y7700D02*
X5780D01*
X5721Y7660D02*
X5800D01*
X5850Y7610D01*
Y7503D02*
Y7610D01*
Y7260D02*
Y7430D01*
X5800Y7210D02*
X5850Y7260D01*
X5721Y7210D02*
X5800D01*
X5721Y7170D02*
X5800D01*
X5840Y7130D01*
Y7013D02*
Y7130D01*
Y6770D02*
Y6947D01*
X5790Y6720D02*
X5840Y6770D01*
X5721Y6720D02*
X5790D01*
X5721Y6680D02*
X5790D01*
X5840Y6630D01*
Y6523D02*
Y6630D01*
Y6290D02*
Y6457D01*
X5780Y6230D02*
X5840Y6290D01*
X5721Y6230D02*
X5780D01*
X5721Y6190D02*
X5790D01*
X5840Y6140D01*
Y6043D02*
Y6140D01*
Y5790D02*
Y5977D01*
X5790Y5740D02*
X5840Y5790D01*
X5721Y5740D02*
X5790D01*
X5780Y5230D02*
Y5357D01*
X5760Y5210D02*
X5780Y5230D01*
X5721Y5210D02*
X5760D01*
X5721Y5170D02*
X5780D01*
X5840Y5110D01*
Y4983D02*
Y5110D01*
Y4760D02*
Y4917D01*
X5800Y4720D02*
X5840Y4760D01*
X5721Y4720D02*
X5800D01*
X5721Y4680D02*
X5800D01*
X5840Y4640D01*
Y4533D02*
Y4640D01*
Y4280D02*
Y4467D01*
X5790Y4230D02*
X5840Y4280D01*
X5721Y4230D02*
X5790D01*
X5721Y4190D02*
X5790D01*
X5840Y4140D01*
Y4043D02*
Y4140D01*
Y3770D02*
Y3977D01*
X5810Y3740D02*
X5840Y3770D01*
X5721Y3740D02*
X5810D01*
X5721Y3700D02*
X5800D01*
X5840Y3660D01*
Y3553D02*
Y3660D01*
Y3310D02*
Y3487D01*
X5780Y3250D02*
X5840Y3310D01*
X5721Y3250D02*
X5780D01*
X5743Y5423D02*
X5780D01*
X5177Y5317D02*
X5225D01*
X5250Y5342D01*
X4950Y3270D02*
X5250D01*
X5270Y3290D01*
X5387D01*
X5540Y4440D02*
X5590D01*
X5540Y3950D02*
X5590D01*
X5540Y3460D02*
X5590D01*
X5543Y4927D02*
X5590D01*
X5547Y5417D02*
X5590D01*
X5543Y5947D02*
X5590D01*
X5543Y6437D02*
X5590D01*
X5547Y6927D02*
X5590D01*
X5543Y7417D02*
X5590D01*
X5547Y7907D02*
X5590D01*
X4950Y7720D02*
X5270D01*
X5290Y7740D01*
X5387D01*
X5270Y7260D02*
X5377D01*
X5387Y7250D01*
X4950Y6740D02*
X5260D01*
X5270Y6750D01*
X5377D02*
X5387Y6760D01*
X5270Y6750D02*
X5377D01*
X5260Y6270D02*
X5387D01*
X4950Y5760D02*
X5330D01*
X5350Y5780D01*
X5387D01*
X4950Y5230D02*
X5340D01*
X5360Y5250D01*
X5387D01*
X4950Y4740D02*
X5330D01*
X5350Y4760D01*
X5387D01*
X5720Y3160D02*
X5720Y3160D01*
X5397Y3153D02*
Y3190D01*
X5543Y3383D02*
X5590D01*
X5513Y3353D02*
X5543Y3383D01*
X5492Y3353D02*
X5513D01*
X5433Y3427D02*
X5492Y3368D01*
X5408Y3427D02*
X5433D01*
X5729Y3269D02*
X5750Y3290D01*
X5721Y3269D02*
X5729D01*
X5520Y3210D02*
X5559D01*
X5510Y3200D02*
X5520Y3210D01*
X5510Y3170D02*
Y3200D01*
X5511Y3191D02*
X5559D01*
X5510Y3190D02*
X5511Y3191D01*
X5470Y3230D02*
X5559D01*
X5463Y3223D02*
X5470Y3230D01*
X5463Y3190D02*
Y3223D01*
Y3257D02*
Y3290D01*
Y3257D02*
X5490Y3230D01*
X5500Y3260D02*
X5510Y3250D01*
X5559D01*
X5551Y3269D02*
X5559D01*
X5492Y3328D02*
X5551Y3269D01*
X5492Y3328D02*
Y3368D01*
X5720Y3650D02*
X5720Y3650D01*
X5397Y3643D02*
Y3680D01*
X5543Y3873D02*
X5590D01*
X5513Y3843D02*
X5543Y3873D01*
X5492Y3843D02*
X5513D01*
X5433Y3917D02*
X5492Y3858D01*
X5408Y3917D02*
X5433D01*
X5729Y3759D02*
X5750Y3780D01*
X5721Y3759D02*
X5729D01*
X5520Y3700D02*
X5559D01*
X5510Y3690D02*
X5520Y3700D01*
X5510Y3660D02*
Y3690D01*
X5511Y3681D02*
X5559D01*
X5510Y3680D02*
X5511Y3681D01*
X5470Y3720D02*
X5559D01*
X5463Y3713D02*
X5470Y3720D01*
X5463Y3680D02*
Y3713D01*
Y3747D02*
Y3780D01*
Y3747D02*
X5490Y3720D01*
X5500Y3750D02*
X5510Y3740D01*
X5559D01*
X5551Y3759D02*
X5559D01*
X5492Y3818D02*
X5551Y3759D01*
X5492Y3818D02*
Y3858D01*
X5720Y4140D02*
X5720Y4140D01*
X5397Y4133D02*
Y4170D01*
X5377Y4250D02*
X5397Y4270D01*
X5543Y4363D02*
X5590D01*
X5513Y4333D02*
X5543Y4363D01*
X5492Y4333D02*
X5513D01*
X5433Y4407D02*
X5492Y4348D01*
X5408Y4407D02*
X5433D01*
X5729Y4249D02*
X5750Y4270D01*
X5721Y4249D02*
X5729D01*
X5520Y4190D02*
X5559D01*
X5510Y4180D02*
X5520Y4190D01*
X5510Y4150D02*
Y4180D01*
X5511Y4171D02*
X5559D01*
X5510Y4170D02*
X5511Y4171D01*
X5470Y4210D02*
X5559D01*
X5463Y4203D02*
X5470Y4210D01*
X5463Y4170D02*
Y4203D01*
Y4237D02*
Y4270D01*
Y4237D02*
X5490Y4210D01*
X5500Y4240D02*
X5510Y4230D01*
X5559D01*
X5551Y4249D02*
X5559D01*
X5492Y4308D02*
X5551Y4249D01*
X5492Y4308D02*
Y4348D01*
X5720Y4630D02*
X5720Y4630D01*
X5397Y4623D02*
Y4660D01*
X5377Y4740D02*
X5397Y4760D01*
X5543Y4853D02*
X5590D01*
X5513Y4823D02*
X5543Y4853D01*
X5492Y4823D02*
X5513D01*
X5433Y4897D02*
X5492Y4838D01*
X5408Y4897D02*
X5433D01*
X5729Y4739D02*
X5750Y4760D01*
X5721Y4739D02*
X5729D01*
X5520Y4680D02*
X5559D01*
X5510Y4670D02*
X5520Y4680D01*
X5510Y4640D02*
Y4670D01*
X5511Y4661D02*
X5559D01*
X5510Y4660D02*
X5511Y4661D01*
X5470Y4700D02*
X5559D01*
X5463Y4693D02*
X5470Y4700D01*
X5463Y4660D02*
Y4693D01*
Y4727D02*
Y4760D01*
Y4727D02*
X5490Y4700D01*
X5500Y4730D02*
X5510Y4720D01*
X5559D01*
X5551Y4739D02*
X5559D01*
X5492Y4798D02*
X5551Y4739D01*
X5492Y4798D02*
Y4838D01*
X5720Y5120D02*
X5720Y5120D01*
X5397Y5113D02*
Y5150D01*
X5377Y5230D02*
X5397Y5250D01*
X5543Y5343D02*
X5590D01*
X5513Y5313D02*
X5543Y5343D01*
X5492Y5313D02*
X5513D01*
X5433Y5387D02*
X5492Y5328D01*
X5408Y5387D02*
X5433D01*
X5729Y5229D02*
X5750Y5250D01*
X5721Y5229D02*
X5729D01*
X5520Y5170D02*
X5559D01*
X5510Y5160D02*
X5520Y5170D01*
X5510Y5130D02*
Y5160D01*
X5511Y5151D02*
X5559D01*
X5510Y5150D02*
X5511Y5151D01*
X5470Y5190D02*
X5559D01*
X5463Y5183D02*
X5470Y5190D01*
X5463Y5150D02*
Y5183D01*
Y5217D02*
Y5250D01*
Y5217D02*
X5490Y5190D01*
X5500Y5220D02*
X5510Y5210D01*
X5559D01*
X5551Y5229D02*
X5559D01*
X5492Y5288D02*
X5551Y5229D01*
X5492Y5288D02*
Y5328D01*
X5720Y5650D02*
X5720Y5650D01*
X5397Y5643D02*
Y5680D01*
X5377Y5760D02*
X5397Y5780D01*
X5543Y5873D02*
X5590D01*
X5513Y5843D02*
X5543Y5873D01*
X5492Y5843D02*
X5513D01*
X5433Y5917D02*
X5492Y5858D01*
X5408Y5917D02*
X5433D01*
X5729Y5759D02*
X5750Y5780D01*
X5721Y5759D02*
X5729D01*
X5520Y5700D02*
X5559D01*
X5510Y5690D02*
X5520Y5700D01*
X5510Y5660D02*
Y5690D01*
X5511Y5681D02*
X5559D01*
X5510Y5680D02*
X5511Y5681D01*
X5463Y5713D02*
X5470Y5720D01*
X5463Y5680D02*
Y5713D01*
X5551Y5759D02*
X5559D01*
X5492Y5818D02*
X5551Y5759D01*
X5492Y5818D02*
Y5858D01*
X5720Y6140D02*
X5720Y6140D01*
X5397Y6133D02*
Y6170D01*
X5543Y6363D02*
X5590D01*
X5513Y6333D02*
X5543Y6363D01*
X5492Y6333D02*
X5513D01*
X5433Y6407D02*
X5492Y6348D01*
X5408Y6407D02*
X5433D01*
X5729Y6249D02*
X5750Y6270D01*
X5721Y6249D02*
X5729D01*
X5520Y6190D02*
X5559D01*
X5510Y6180D02*
X5520Y6190D01*
X5510Y6150D02*
Y6180D01*
X5511Y6171D02*
X5559D01*
X5510Y6170D02*
X5511Y6171D01*
X5470Y6210D02*
X5559D01*
X5463Y6203D02*
X5470Y6210D01*
X5463Y6170D02*
Y6203D01*
Y6237D02*
Y6270D01*
Y6237D02*
X5490Y6210D01*
X5500Y6240D02*
X5510Y6230D01*
X5559D01*
X5551Y6249D02*
X5559D01*
X5492Y6308D02*
X5551Y6249D01*
X5492Y6308D02*
Y6348D01*
X5720Y6630D02*
X5720Y6630D01*
X5397Y6623D02*
Y6660D01*
X5543Y6853D02*
X5590D01*
X5513Y6823D02*
X5543Y6853D01*
X5492Y6823D02*
X5513D01*
X5433Y6897D02*
X5492Y6838D01*
X5408Y6897D02*
X5433D01*
X5729Y6739D02*
X5750Y6760D01*
X5721Y6739D02*
X5729D01*
X5520Y6680D02*
X5559D01*
X5510Y6670D02*
X5520Y6680D01*
X5510Y6640D02*
Y6670D01*
X5511Y6661D02*
X5559D01*
X5510Y6660D02*
X5511Y6661D01*
X5470Y6700D02*
X5559D01*
X5463Y6693D02*
X5470Y6700D01*
X5463Y6660D02*
Y6693D01*
Y6727D02*
Y6760D01*
Y6727D02*
X5490Y6700D01*
X5500Y6730D02*
X5510Y6720D01*
X5559D01*
X5551Y6739D02*
X5559D01*
X5492Y6798D02*
X5551Y6739D01*
X5492Y6798D02*
Y6838D01*
X5720Y7120D02*
X5720Y7120D01*
X5397Y7113D02*
Y7150D01*
X5543Y7343D02*
X5590D01*
X5513Y7313D02*
X5543Y7343D01*
X5492Y7313D02*
X5513D01*
X5433Y7387D02*
X5492Y7328D01*
X5408Y7387D02*
X5433D01*
X5729Y7229D02*
X5750Y7250D01*
X5721Y7229D02*
X5729D01*
X5520Y7170D02*
X5559D01*
X5510Y7160D02*
X5520Y7170D01*
X5510Y7130D02*
Y7160D01*
X5511Y7151D02*
X5559D01*
X5510Y7150D02*
X5511Y7151D01*
X5470Y7190D02*
X5559D01*
X5463Y7183D02*
X5470Y7190D01*
X5463Y7150D02*
Y7183D01*
Y7217D02*
Y7250D01*
Y7217D02*
X5490Y7190D01*
X5500Y7220D02*
X5510Y7210D01*
X5559D01*
X5551Y7229D02*
X5559D01*
X5492Y7288D02*
X5551Y7229D01*
X5492Y7288D02*
Y7328D01*
X5720Y7610D02*
X5720Y7610D01*
X5729Y7719D02*
X5750Y7740D01*
X5721Y7719D02*
X5729D01*
X5397Y7603D02*
Y7640D01*
X5492Y7778D02*
Y7818D01*
Y7778D02*
X5551Y7719D01*
X5559D01*
X5492Y7803D02*
X5513D01*
X5543Y7833D01*
X5590D01*
X5433Y7877D02*
X5492Y7818D01*
X5408Y7877D02*
X5433D01*
X5500Y7710D02*
X5510Y7700D01*
X5559D01*
X5510Y7620D02*
Y7650D01*
Y7640D02*
X5511Y7641D01*
X5559D01*
X5510Y7650D02*
X5520Y7660D01*
X5559D01*
X5470Y7680D02*
X5559D01*
X5463Y7673D02*
X5470Y7680D01*
X5463Y7640D02*
Y7673D01*
Y7707D02*
Y7740D01*
Y7707D02*
X5490Y7680D01*
X5290Y7310D02*
Y7440D01*
Y7220D02*
X5300Y7210D01*
X5280Y6780D02*
X5300Y6800D01*
X5280Y6310D02*
X5300Y6330D01*
X5280Y6230D02*
X5300Y6210D01*
X5290Y5300D02*
X5300Y5310D01*
X5290Y4770D02*
X5300Y4780D01*
X5280Y4230D02*
X5300Y4210D01*
X4770Y7000D02*
X5240D01*
X4710Y7520D02*
Y7618D01*
Y7060D02*
Y7128D01*
Y6570D02*
Y6638D01*
Y6080D02*
Y6148D01*
Y5550D02*
Y5658D01*
X4790Y3550D02*
X4820Y3520D01*
X4710Y5040D02*
Y5128D01*
Y4540D02*
Y4638D01*
Y4060D02*
Y4148D01*
Y3600D02*
Y3658D01*
Y3230D02*
X4740Y3260D01*
X4710Y3168D02*
Y3230D01*
Y7060D02*
X4770Y7000D01*
X4780Y6500D02*
X5240D01*
X4710Y6570D02*
X4780Y6500D01*
Y6010D02*
X5250D01*
X4710Y6080D02*
X4780Y6010D01*
X4750Y5510D02*
X5250D01*
X4710Y5550D02*
X4750Y5510D01*
X4710Y5040D02*
X4760Y4990D01*
X5260D01*
X4710Y4540D02*
X4750Y4500D01*
X5250D01*
X4750Y4020D02*
X5260D01*
X4710Y4060D02*
X4750Y4020D01*
X4760Y3550D02*
X4790D01*
X4710Y3600D02*
X4760Y3550D01*
X5250Y7480D02*
X5290Y7440D01*
X4710Y7520D02*
X4750Y7480D01*
X3635Y7070D02*
Y7125D01*
Y6090D02*
Y6145D01*
X3615Y5600D02*
Y5655D01*
X3635Y4090D02*
Y4145D01*
Y3110D02*
Y3165D01*
X2782Y4275D02*
X2875D01*
X2890Y4490D02*
X2950D01*
X2875Y4275D02*
Y4335D01*
X3390Y4150D02*
X3427D01*
X2875Y4275D02*
X2900Y4250D01*
X2870Y4180D02*
Y4275D01*
X2900Y4250D02*
X2947D01*
X2620Y5190D02*
X2710Y5100D01*
X2531Y5236D02*
X2604D01*
X2620Y5220D01*
Y5190D02*
Y5220D01*
X2840Y4440D02*
X2890Y4490D01*
X2840Y4370D02*
Y4440D01*
Y4370D02*
X2875Y4335D01*
X2993Y5230D02*
X3093D01*
X3040D02*
X3127Y5317D01*
X3178D01*
X3060Y5230D02*
Y5240D01*
X3093Y5230D02*
X3140Y5183D01*
X2782Y4765D02*
X2875D01*
X2900Y4740D01*
X2947D01*
X2875Y4765D02*
Y4815D01*
X2870Y4670D02*
Y4765D01*
X3390Y4640D02*
X3427D01*
X2460Y5210D02*
X2531D01*
X2430Y5180D02*
X2460Y5210D01*
X2430Y5060D02*
Y5180D01*
Y5060D02*
X2560Y4930D01*
X2760D01*
X2875Y4815D01*
X2782Y3785D02*
X2875D01*
X2860Y5040D02*
X2892Y5072D01*
X2850Y3785D02*
Y3980D01*
X3390Y3660D02*
X3427D01*
X2870Y3690D02*
Y3785D01*
X2900Y3760D02*
X2947D01*
X2789Y5236D02*
X2864D01*
X2892Y5072D02*
Y5208D01*
X2864Y5236D02*
X2892Y5208D01*
X2870Y3200D02*
Y3350D01*
X2782Y3295D02*
X2875D01*
X2900Y3270D02*
X2947D01*
X3390Y3170D02*
X3427D01*
X2789Y5210D02*
X2850D01*
X2810Y5040D02*
X2870Y5100D01*
X2810Y3410D02*
X2870Y3350D01*
X2850Y5210D02*
X2870Y5190D01*
Y5100D02*
Y5190D01*
X2880Y4390D02*
X2945D01*
X3055D02*
X3120D01*
X2870Y4880D02*
X2945D01*
X3055D02*
X3120D01*
X2870Y6390D02*
X2945D01*
X3055D02*
X3120D01*
X2945Y7370D02*
Y7425D01*
X3055Y7370D02*
X3120D01*
X3055Y6880D02*
X3130D01*
X2860D02*
X2945D01*
X2461Y5679D02*
X2541D01*
Y5704D02*
X2626D01*
X2734D02*
X2799D01*
X2710Y5680D02*
X2734Y5704D01*
X2799Y5679D02*
X2869D01*
X2782Y6275D02*
X2875D01*
X2760Y6070D02*
X2870Y6180D01*
X2900Y6250D02*
X2947D01*
X3390Y6150D02*
X3427D01*
X2870Y6180D02*
Y6275D01*
X2810Y6090D02*
Y6120D01*
X2680Y6070D02*
X2760D01*
X2541Y5756D02*
X2596D01*
X2640Y5800D01*
Y6030D01*
X2680Y6070D01*
X2782Y6765D02*
X2875D01*
X2850Y6540D02*
X3290D01*
X2900Y6740D02*
X2947D01*
X3390Y6640D02*
X3427D01*
X2870Y6670D02*
Y6765D01*
X3000Y6470D02*
Y6540D01*
X2510Y5870D02*
X2590D01*
X2470Y5730D02*
X2541D01*
X2850Y7520D02*
X3290D01*
X2782Y7745D02*
X2875D01*
X3390Y7620D02*
X3427D01*
X2870Y7650D02*
Y7745D01*
X2900Y7720D02*
X2947D01*
X2870Y7470D02*
X2920Y7520D01*
X2870Y7310D02*
X2900Y7280D01*
X2720Y5730D02*
X2799D01*
X2690Y5760D02*
Y6020D01*
X2450Y5750D02*
X2470Y5730D01*
X2450Y5750D02*
Y5810D01*
X2510Y5870D01*
X2690Y5760D02*
X2720Y5730D01*
X2850Y7030D02*
X3290D01*
X2782Y7255D02*
X2875D01*
X2900Y7230D02*
X2947D01*
X3390Y7130D02*
X3427D01*
X2870Y7160D02*
Y7255D01*
X2950Y6990D02*
Y7030D01*
X2754Y5756D02*
X2799D01*
X2740Y5950D02*
X2780Y5990D01*
X2740Y5770D02*
X2754Y5756D01*
X2740Y5770D02*
Y5950D01*
X2870Y7310D02*
Y7470D01*
X7350Y4690D02*
X7387Y4653D01*
X7300Y4690D02*
X7350D01*
X7250Y4640D02*
X7300Y4690D01*
X7270Y5180D02*
X7291D01*
Y5101D02*
Y5180D01*
X7220Y5230D02*
X7270Y5180D01*
X7409D02*
X7480D01*
X7426Y5326D02*
Y5375D01*
X7409Y5180D02*
Y5309D01*
X7400Y5320D02*
Y5375D01*
X7360Y5280D02*
X7400Y5320D01*
X7409Y5309D02*
X7426Y5326D01*
X7451Y5311D02*
Y5375D01*
X7719Y5180D02*
X7790D01*
X7719D02*
Y5251D01*
X7601Y5101D02*
Y5259D01*
X7579Y5281D02*
Y5375D01*
X7528Y5318D02*
Y5375D01*
X7490Y5280D02*
X7528Y5318D01*
X7554Y5304D02*
Y5375D01*
X7579Y5281D02*
X7601Y5259D01*
X7627Y4333D02*
X7650Y4310D01*
X7627Y4333D02*
Y4372D01*
X8160Y5190D02*
X8217D01*
X8090Y4690D02*
Y5120D01*
X7560Y4480D02*
X7620D01*
X7667Y4372D02*
Y4433D01*
X7620Y4480D02*
X7667Y4433D01*
X8090Y5120D02*
X8160Y5190D01*
X8197Y4883D02*
Y4940D01*
X8270D02*
Y5037D01*
X8400Y5110D02*
X8580D01*
X8283Y5050D02*
X8340D01*
X8270Y5037D02*
X8283Y5050D01*
X7777Y5363D02*
Y5400D01*
X7925Y5395D02*
Y5465D01*
X7843Y5400D02*
X7920D01*
X8217Y5050D02*
Y5097D01*
X8340Y5050D02*
X8400Y5110D01*
X8470Y5310D02*
X8580D01*
X8290Y5190D02*
X8350D01*
X8470Y5310D01*
X8250Y5423D02*
Y5490D01*
X8025Y5355D02*
Y5525D01*
X8110Y5610D02*
X8580D01*
X8233Y5340D02*
X8250Y5357D01*
X8040Y5340D02*
X8233D01*
X8025Y5355D02*
X8040Y5340D01*
X7840Y5870D02*
X7930D01*
X8039D02*
X8130D01*
X8250Y5773D02*
X8313D01*
X8240Y5700D02*
X8250Y5710D01*
X8580D01*
X7925Y5675D02*
Y5755D01*
X8000Y5760D02*
X8025Y5735D01*
Y5675D02*
Y5735D01*
X7975D02*
X8000Y5760D01*
X7975Y5675D02*
Y5735D01*
X8075Y5395D02*
Y5465D01*
X8025Y5525D02*
X8110Y5610D01*
X7352Y4318D02*
X7370Y4300D01*
X7352Y4318D02*
Y4372D01*
X7332Y4302D02*
Y4372D01*
X7330Y4300D02*
X7332Y4302D01*
X7273Y4333D02*
Y4372D01*
X7250Y4310D02*
X7273Y4333D01*
X3290Y7030D02*
X3390Y7130D01*
X2810Y7070D02*
X2850Y7030D01*
X3615Y7390D02*
X3680D01*
X3500Y7070D02*
X3525D01*
X3137Y7117D02*
X3160D01*
X3110Y7090D02*
X3137Y7117D01*
X3035Y7090D02*
X3110D01*
X3318Y7350D02*
X3321Y7347D01*
X3310Y7350D02*
X3318D01*
X3317Y7343D02*
X3362D01*
X3198Y7292D02*
X3228D01*
X3250Y7270D01*
X3147Y7317D02*
X3198D01*
X3113Y7230D02*
X3160Y7183D01*
X3060Y7230D02*
X3147Y7317D01*
X3013Y7230D02*
X3113D01*
X3603Y7270D02*
Y7307D01*
X3507Y7193D02*
X3540Y7160D01*
X3500Y7193D02*
X3507D01*
X3466Y7104D02*
X3500Y7070D01*
X3427Y7104D02*
X3466D01*
X3210Y7070D02*
X3227Y7053D01*
X3260D01*
X3289Y7079D02*
X3310Y7100D01*
X3260Y7079D02*
X3289D01*
X3293Y7317D02*
X3362D01*
X3267Y7343D02*
X3293Y7317D01*
Y7263D02*
Y7317D01*
X3226Y7104D02*
X3260D01*
X3198Y7343D02*
X3267D01*
X3220Y7190D02*
X3293Y7263D01*
X3220Y7110D02*
X3226Y7104D01*
X3220Y7110D02*
Y7190D01*
X3419Y7219D02*
X3500D01*
X3330Y7130D02*
X3419Y7219D01*
X3260Y7130D02*
X3330D01*
X2860Y7090D02*
X2925D01*
X2440Y7263D02*
X2448Y7255D01*
X2782Y7152D02*
Y7155D01*
X2750Y7120D02*
X2782Y7152D01*
X2680Y7230D02*
X2705Y7205D01*
X2782D01*
X2875Y7255D02*
X2900Y7230D01*
X2810Y7100D02*
X2870Y7160D01*
X2810Y7070D02*
Y7100D01*
X2730Y7340D02*
X2747D01*
X2782Y7305D01*
X2495Y7205D02*
X2578D01*
X2487Y7197D02*
X2495Y7205D01*
X2440Y7197D02*
X2487D01*
X2448Y7255D02*
X2578D01*
X4140Y7587D02*
X4167Y7560D01*
X4080Y7587D02*
X4140D01*
X4260Y7650D02*
X4327Y7583D01*
X4250Y7650D02*
X4260D01*
X4300Y7700D02*
X4327Y7673D01*
X4227Y7700D02*
X4300D01*
X4167Y7560D02*
Y7637D01*
X4187Y7660D02*
X4227Y7700D01*
X4327Y7660D02*
Y7673D01*
X4167Y7637D02*
X4190Y7660D01*
X4327Y7543D02*
X4350Y7520D01*
X4327Y7543D02*
Y7583D01*
X4360Y7730D02*
X4393Y7697D01*
X4283Y7730D02*
X4360D01*
X4413Y7777D02*
X4450Y7740D01*
X4233Y7883D02*
X4280Y7930D01*
X4370D01*
X4393Y7907D01*
X4233Y7880D02*
Y7883D01*
X4327Y7843D02*
X4340Y7830D01*
X4390D01*
X4413Y7807D01*
X4327Y7843D02*
Y7880D01*
X4413Y7777D02*
Y7807D01*
X4280Y7820D02*
X4320Y7780D01*
X4180Y7820D02*
X4280D01*
X4060Y7787D02*
X4067Y7780D01*
X4167D01*
Y7807D02*
X4180Y7820D01*
X4320Y7780D02*
X4347D01*
X4167D02*
Y7880D01*
X4233Y7780D02*
X4283Y7730D01*
X4393Y7560D02*
Y7697D01*
X4468Y7660D02*
X4510Y7618D01*
X4400Y7660D02*
X4468D01*
X4530Y7520D02*
X4560Y7550D01*
Y7610D01*
X4350Y7520D02*
X4530D01*
X4480Y7880D02*
X4510Y7850D01*
Y7822D02*
Y7850D01*
X4540Y7740D02*
X4560Y7760D01*
Y7822D01*
X4450Y7740D02*
X4540D01*
X4440Y7930D02*
X4877D01*
X4393Y7880D02*
X4480D01*
X4393Y7883D02*
X4440Y7930D01*
X4877D02*
X4917Y7890D01*
X4393Y7880D02*
Y7907D01*
X4993Y7913D02*
X5010Y7930D01*
X5110D01*
X5133Y7907D01*
X5067Y7877D02*
Y7880D01*
X4790Y7740D02*
X4860D01*
X4760Y7770D02*
X4790Y7740D01*
X4900Y7780D02*
X4907D01*
X4810Y7822D02*
X4938D01*
X4970Y7790D01*
X5010Y7740D02*
X5047Y7777D01*
X4924Y7740D02*
X5010D01*
X4760Y7770D02*
Y7822D01*
X5047Y7777D02*
Y7780D01*
X4860Y7740D02*
X4900Y7780D01*
X4894Y7770D02*
X4924Y7740D01*
X4993Y7880D02*
Y7913D01*
X5133Y7880D02*
Y7907D01*
Y7880D02*
X5140Y7873D01*
X5177Y7807D02*
X5240D01*
X4233Y7560D02*
Y7603D01*
X5133Y7780D02*
Y7847D01*
X5160Y7873D01*
X5140D02*
X5240D01*
X4828Y7618D02*
X4890Y7680D01*
X5087Y7580D02*
Y7583D01*
X4993Y7677D02*
X5087Y7583D01*
X4993Y7677D02*
Y7680D01*
X4760Y7560D02*
X4790Y7530D01*
X5120D02*
X5153Y7563D01*
X4760Y7560D02*
Y7618D01*
X4970Y7530D02*
X4993Y7553D01*
Y7580D01*
X5153Y7563D02*
Y7580D01*
X4790Y7530D02*
X5120D01*
X5087Y7580D02*
X5153Y7647D01*
Y7680D01*
X5180Y7653D01*
X5240D01*
X5260Y7540D02*
Y7587D01*
X5040Y7680D02*
X5087D01*
Y7683D01*
X4970Y7780D02*
X5067Y7877D01*
X4927Y7697D02*
X4950Y7720D01*
X4810Y7618D02*
X4828D01*
X4890Y7680D02*
X4927D01*
Y7580D02*
Y7697D01*
X2440Y7753D02*
X2448Y7745D01*
X2578D01*
X2487Y7687D02*
X2495Y7695D01*
X2440Y7687D02*
X2487D01*
X2495Y7695D02*
X2578D01*
X2680Y7720D02*
X2705Y7695D01*
X2782D01*
X2730Y7830D02*
X2747D01*
X2782Y7795D01*
X2750Y7610D02*
X2782Y7642D01*
Y7645D01*
X2860Y7580D02*
X2925D01*
X3035D02*
X3110D01*
X3137Y7607D01*
X3160D01*
X2875Y7745D02*
X2900Y7720D01*
X2870Y7860D02*
X2945D01*
X3055D02*
X3120D01*
X3060Y7720D02*
X3147Y7807D01*
X3113Y7720D02*
X3160Y7673D01*
X3147Y7807D02*
X3198D01*
X3013Y7720D02*
X3113D01*
X3198Y7782D02*
X3228D01*
X3250Y7760D01*
X3318Y7840D02*
X3321Y7837D01*
X3310Y7840D02*
X3318D01*
X3317Y7833D02*
X3362D01*
X3220Y7600D02*
X3226Y7594D01*
X3220Y7600D02*
Y7680D01*
X3293Y7753D01*
X3226Y7594D02*
X3260D01*
X3198Y7833D02*
X3267D01*
X3293Y7753D02*
Y7807D01*
X3267Y7833D02*
X3293Y7807D01*
X3362D01*
X3330Y7620D02*
X3419Y7709D01*
X3260Y7620D02*
X3330D01*
X3419Y7709D02*
X3500D01*
X3290Y7520D02*
X3390Y7620D01*
X2810Y7560D02*
X2850Y7520D01*
X2810Y7560D02*
Y7590D01*
X2870Y7650D01*
X3500Y7560D02*
X3525D01*
X3427Y7594D02*
X3466D01*
X3500Y7560D01*
X3260Y7569D02*
X3289D01*
X3310Y7590D01*
X3210Y7560D02*
X3227Y7543D01*
X3260D01*
X3500Y7683D02*
X3507D01*
X3540Y7650D01*
X3526Y7734D02*
X3550Y7710D01*
X3500Y7734D02*
X3526D01*
X3550Y7700D02*
Y7710D01*
X3603Y7760D02*
Y7797D01*
X3409Y7751D02*
X3410Y7750D01*
X3615Y7880D02*
X3680D01*
X3440D02*
X3505D01*
X4060Y7853D02*
X4107D01*
X4695Y7900D02*
X4710Y7885D01*
X4610Y7822D02*
Y7900D01*
Y7900D02*
X4695D01*
X4710Y7822D02*
Y7885D01*
X4710Y7900D02*
X4713Y7897D01*
X4660Y7745D02*
Y7822D01*
X4602Y7548D02*
X4610Y7556D01*
Y7618D01*
X4660D02*
Y7690D01*
X2573Y7640D02*
X2578Y7645D01*
X2340Y7740D02*
X2395Y7795D01*
X2340Y7610D02*
Y7740D01*
X2170Y5890D02*
X2210Y5850D01*
X2220D01*
X2370Y7640D02*
X2573D01*
X2395Y7795D02*
X2578D01*
X2170Y5890D02*
Y7440D01*
X2340Y7610D01*
X3635Y7560D02*
Y7615D01*
X4327Y7053D02*
X4350Y7030D01*
X4260Y7160D02*
X4327Y7093D01*
X4350Y7030D02*
X4530D01*
X4560Y7060D01*
X4327Y7053D02*
Y7093D01*
X4560Y7060D02*
Y7120D01*
X4360Y7240D02*
X4393Y7207D01*
X4283Y7240D02*
X4360D01*
X4233Y7290D02*
X4283Y7240D01*
X4393Y7070D02*
Y7207D01*
X4327Y7353D02*
X4340Y7340D01*
X4390D02*
X4413Y7317D01*
X4327Y7353D02*
Y7390D01*
X4340Y7340D02*
X4390D01*
X4413Y7287D02*
Y7317D01*
X4233Y7393D02*
X4280Y7440D01*
X4370D01*
X4393Y7390D02*
X4480D01*
X4370Y7440D02*
X4393Y7417D01*
X4480Y7390D02*
X4510Y7360D01*
X4393Y7390D02*
Y7417D01*
Y7393D02*
X4440Y7440D01*
X4877D01*
X4917Y7400D01*
X4140Y7097D02*
X4167Y7070D01*
Y7147D01*
X4080Y7097D02*
X4140D01*
X4233Y7070D02*
Y7113D01*
X4060Y7297D02*
X4067Y7290D01*
X4167D01*
X4060Y7363D02*
X4107D01*
X4760Y7280D02*
X4790Y7250D01*
X4860D01*
X4900Y7290D01*
X4760Y7280D02*
Y7332D01*
X4894Y7280D02*
X4924Y7250D01*
X5010D01*
X5047Y7287D01*
X4900Y7290D02*
X4907D01*
X4970D02*
X5067Y7387D01*
X4810Y7332D02*
X4938D01*
X4970Y7300D01*
X5040Y7190D02*
X5087D01*
X4760Y7070D02*
X4790Y7040D01*
X5120D01*
X4760Y7070D02*
Y7128D01*
X4970Y7040D02*
X4993Y7063D01*
Y7090D01*
X5120Y7040D02*
X5153Y7073D01*
X4927Y7090D02*
Y7207D01*
X5140Y7383D02*
X5240D01*
X5177Y7317D02*
X5240D01*
X5260Y7050D02*
Y7097D01*
X5180Y7163D02*
X5240D01*
X5153Y7190D02*
X5180Y7163D01*
X4187Y7170D02*
X4227Y7210D01*
X4300D01*
X4327Y7170D02*
Y7183D01*
X4300Y7210D02*
X4327Y7183D01*
X4400Y7170D02*
X4468D01*
X4510Y7128D01*
X4167Y7290D02*
Y7390D01*
X4280Y7330D02*
X4320Y7290D01*
X4167Y7317D02*
X4180Y7330D01*
X4280D01*
X4233Y7390D02*
Y7393D01*
X4250Y7160D02*
X4260D01*
X4167Y7147D02*
X4190Y7170D01*
X4320Y7290D02*
X4347D01*
X4413Y7287D02*
X4450Y7250D01*
X4540D01*
X4560Y7270D01*
Y7332D01*
X4993Y7390D02*
Y7423D01*
X5010Y7440D01*
X5110D01*
X5133Y7417D01*
X5133Y7290D02*
Y7357D01*
X5160Y7383D01*
X5133Y7390D02*
X5140Y7383D01*
X5133Y7390D02*
Y7417D01*
X5067Y7387D02*
Y7390D01*
X4993Y7187D02*
Y7190D01*
Y7187D02*
X5087Y7093D01*
X4828Y7128D02*
X4890Y7190D01*
X4927Y7207D02*
X4950Y7230D01*
X5047Y7287D02*
Y7290D01*
X5087Y7090D02*
X5153Y7157D01*
Y7190D01*
X5087D02*
Y7193D01*
X5153Y7073D02*
Y7090D01*
X5087D02*
Y7093D01*
X4710Y7332D02*
Y7395D01*
X4610Y7332D02*
Y7410D01*
X4695Y7410D02*
X4710Y7395D01*
X4610Y7410D02*
X4695D01*
X4710D02*
X4713Y7407D01*
X4660Y7255D02*
Y7332D01*
X4510Y7332D02*
Y7360D01*
X4660Y7128D02*
Y7200D01*
X4602Y7058D02*
X4610Y7066D01*
Y7128D01*
X3439Y7261D02*
X3456Y7244D01*
X3409Y7261D02*
X3410Y7260D01*
X3409Y7261D02*
X3439D01*
X3456Y7244D02*
X3500D01*
X3540Y7270D02*
X3550Y7260D01*
Y7190D02*
Y7260D01*
Y7190D02*
X3580Y7160D01*
X3750D01*
X3500Y7270D02*
X3540D01*
X3750Y7160D02*
X3753Y7163D01*
X4060D01*
X3440Y7390D02*
X3505D01*
X2270Y5800D02*
Y7180D01*
X2220Y5750D02*
X2270Y5800D01*
Y7180D02*
X2395Y7305D01*
X2578D01*
X2300Y7090D02*
X2365Y7155D01*
X2573Y7150D02*
X2578Y7155D01*
X2365D02*
X2578D01*
X2860Y6600D02*
X2925D01*
X2440Y6707D02*
X2487D01*
X2495Y6715D01*
X2578D01*
X2440Y6773D02*
X2448Y6765D01*
X2578D01*
X2750Y6630D02*
X2782Y6662D01*
Y6665D01*
X2680Y6740D02*
X2705Y6715D01*
X2782D01*
X2810Y6580D02*
Y6610D01*
X2870Y6670D01*
X2875Y6765D02*
X2900Y6740D01*
X2730Y6850D02*
X2747D01*
X2782Y6815D01*
X3013Y6740D02*
X3113D01*
X3060D02*
X3147Y6827D01*
X3113Y6740D02*
X3160Y6693D01*
X3147Y6827D02*
X3198D01*
X3440Y6900D02*
X3505D01*
X3615D02*
X3680D01*
X3466Y6614D02*
X3500Y6580D01*
X3525D01*
X3427Y6614D02*
X3466D01*
X3635Y6580D02*
Y6635D01*
X3035Y6600D02*
X3110D01*
X3137Y6627D01*
X3160D01*
X3220Y6620D02*
Y6700D01*
Y6620D02*
X3226Y6614D01*
X3220Y6700D02*
X3293Y6773D01*
X3198Y6853D02*
X3267D01*
X3226Y6614D02*
X3260D01*
X3293Y6773D02*
Y6827D01*
X3267Y6853D02*
X3293Y6827D01*
X3362D01*
X3310Y6860D02*
X3318D01*
X3317Y6853D02*
X3362D01*
X3318Y6860D02*
X3321Y6857D01*
X3198Y6802D02*
X3228D01*
X3250Y6780D01*
X3603D02*
Y6817D01*
X3507Y6703D02*
X3540Y6670D01*
X3500Y6703D02*
X3507D01*
X3260Y6640D02*
X3330D01*
X3419Y6729D01*
X3500D01*
Y6754D02*
X3526D01*
X3550Y6720D02*
Y6730D01*
X3526Y6754D02*
X3550Y6730D01*
X3210Y6580D02*
X3227Y6563D01*
X3260D01*
Y6589D02*
X3289D01*
X3310Y6610D01*
X3409Y6771D02*
X3410Y6770D01*
X2860Y6110D02*
X2925D01*
X2440Y6217D02*
X2487D01*
X2495Y6225D01*
X2578D01*
X2440Y6283D02*
X2448Y6275D01*
X2578D01*
X2750Y6140D02*
X2782Y6172D01*
Y6175D01*
X2680Y6250D02*
X2705Y6225D01*
X2782D01*
X2875Y6275D02*
X2900Y6250D01*
X2747Y6360D02*
X2782Y6325D01*
X2730Y6360D02*
X2747D01*
X3013Y6250D02*
X3113D01*
X3060D02*
X3147Y6337D01*
X3113Y6250D02*
X3160Y6203D01*
X3147Y6337D02*
X3198D01*
X3440Y6410D02*
X3505D01*
X3615D02*
X3680D01*
X3427Y6124D02*
X3466D01*
X3500Y6090D01*
X3525D01*
X3035Y6110D02*
X3110D01*
X3137Y6137D01*
X3160D01*
X3220Y6130D02*
Y6210D01*
Y6130D02*
X3226Y6124D01*
X3220Y6210D02*
X3293Y6283D01*
X3198Y6363D02*
X3267D01*
X3226Y6124D02*
X3260D01*
X3293Y6283D02*
Y6337D01*
X3267Y6363D02*
X3293Y6337D01*
X3362D01*
X3310Y6370D02*
X3318D01*
X3317Y6363D02*
X3362D01*
X3318Y6370D02*
X3321Y6367D01*
X3198Y6312D02*
X3228D01*
X3250Y6290D01*
X3603D02*
Y6327D01*
X3500Y6213D02*
X3507D01*
X3540Y6180D01*
X3260Y6150D02*
X3330D01*
X3419Y6239D01*
X3500D01*
X3409Y6281D02*
X3410Y6280D01*
X3456Y6264D02*
X3500D01*
X3409Y6281D02*
X3439D01*
X3456Y6264D01*
X3540Y6290D02*
X3550Y6280D01*
Y6210D02*
Y6280D01*
X3227Y6073D02*
X3260D01*
X3210Y6090D02*
X3227Y6073D01*
X3260Y6099D02*
X3289D01*
X3310Y6120D01*
X4327Y6563D02*
X4350Y6540D01*
X4260Y6670D02*
X4327Y6603D01*
X4350Y6540D02*
X4530D01*
X4560Y6570D01*
X4327Y6563D02*
Y6603D01*
X4560Y6570D02*
Y6630D01*
X4360Y6750D02*
X4393Y6717D01*
X4283Y6750D02*
X4360D01*
X4233Y6800D02*
X4283Y6750D01*
X4393Y6580D02*
Y6717D01*
X4327Y6863D02*
X4340Y6850D01*
X4390D02*
X4413Y6827D01*
X4327Y6863D02*
Y6900D01*
X4340Y6850D02*
X4390D01*
X4413Y6797D02*
Y6827D01*
X4233Y6903D02*
X4280Y6950D01*
X4370D01*
X4393Y6900D02*
X4480D01*
X4370Y6950D02*
X4393Y6927D01*
X4480Y6900D02*
X4510Y6870D01*
X4393Y6900D02*
Y6927D01*
Y6903D02*
X4440Y6950D01*
X4877D01*
X4917Y6910D01*
X4140Y6607D02*
X4167Y6580D01*
Y6657D01*
X4080Y6607D02*
X4140D01*
X4233Y6580D02*
Y6623D01*
X4060Y6807D02*
X4067Y6800D01*
X4167D01*
X4060Y6873D02*
X4107D01*
X4760Y6790D02*
X4790Y6760D01*
X4860D01*
X4900Y6800D01*
X4760Y6790D02*
Y6842D01*
X4894Y6790D02*
X4924Y6760D01*
X5010D01*
X5047Y6797D01*
X4900Y6800D02*
X4907D01*
X4970D02*
X5067Y6897D01*
X4810Y6842D02*
X4938D01*
X4970Y6810D01*
X5040Y6700D02*
X5087D01*
X4760Y6580D02*
X4790Y6550D01*
X5120D01*
X4760Y6580D02*
Y6638D01*
X4970Y6550D02*
X4993Y6573D01*
Y6600D01*
X5120Y6550D02*
X5153Y6583D01*
X4927Y6600D02*
Y6717D01*
X5177Y6827D02*
X5240D01*
X5260Y6560D02*
Y6607D01*
X5180Y6673D02*
X5240D01*
X5153Y6700D02*
X5180Y6673D01*
X4187Y6680D02*
X4227Y6720D01*
X4300D01*
X4327Y6680D02*
Y6693D01*
X4300Y6720D02*
X4327Y6693D01*
X4400Y6680D02*
X4468D01*
X4510Y6638D01*
X4167Y6800D02*
Y6900D01*
X4280Y6840D02*
X4320Y6800D01*
X4167Y6827D02*
X4180Y6840D01*
X4280D01*
X4233Y6900D02*
Y6903D01*
X4250Y6670D02*
X4260D01*
X4167Y6657D02*
X4190Y6680D01*
X4320Y6800D02*
X4347D01*
X4413Y6797D02*
X4450Y6760D01*
X4540D01*
X4560Y6780D01*
Y6842D01*
X4993Y6933D02*
X5010Y6950D01*
X5133Y6800D02*
Y6867D01*
X5160Y6893D01*
X5067Y6897D02*
Y6900D01*
X4993Y6697D02*
Y6700D01*
Y6697D02*
X5087Y6603D01*
X4828Y6638D02*
X4890Y6700D01*
X4927D01*
Y6717D02*
X4950Y6740D01*
X5047Y6797D02*
Y6800D01*
X5087Y6600D02*
X5153Y6667D01*
Y6700D01*
X5087D02*
Y6703D01*
X5153Y6583D02*
Y6600D01*
X5087D02*
Y6603D01*
X4610Y6842D02*
Y6920D01*
X4710Y6842D02*
Y6905D01*
X4610Y6920D02*
X4695D01*
X4710Y6905D01*
X4710Y6920D02*
X4713Y6917D01*
X4660Y6765D02*
Y6842D01*
X4510Y6842D02*
Y6870D01*
X4810Y6638D02*
X4828D01*
X4660D02*
Y6710D01*
X4602Y6568D02*
X4610Y6576D01*
Y6638D01*
X4327Y6073D02*
X4350Y6050D01*
X4260Y6180D02*
X4327Y6113D01*
X4350Y6050D02*
X4530D01*
X4560Y6080D01*
X4327Y6073D02*
Y6113D01*
X4560Y6080D02*
Y6140D01*
X4360Y6260D02*
X4393Y6227D01*
X4283Y6260D02*
X4360D01*
X4233Y6310D02*
X4283Y6260D01*
X4393Y6090D02*
Y6227D01*
X4327Y6373D02*
X4340Y6360D01*
X4390D02*
X4413Y6337D01*
X4327Y6373D02*
Y6410D01*
X4340Y6360D02*
X4390D01*
X4413Y6307D02*
Y6337D01*
X4233Y6413D02*
X4280Y6460D01*
X4370D01*
X4393Y6410D02*
X4480D01*
X4370Y6460D02*
X4393Y6437D01*
X4480Y6410D02*
X4510Y6380D01*
X4393Y6410D02*
Y6437D01*
Y6413D02*
X4440Y6460D01*
X4877D01*
X4917Y6420D01*
X4140Y6117D02*
X4167Y6090D01*
Y6167D01*
X4080Y6117D02*
X4140D01*
X4233Y6090D02*
Y6133D01*
X4060Y6317D02*
X4067Y6310D01*
X4167D01*
X4060Y6383D02*
X4107D01*
X4760Y6300D02*
X4790Y6270D01*
X4860D01*
X4900Y6310D01*
X4760Y6300D02*
Y6352D01*
X4894Y6300D02*
X4924Y6270D01*
X5010D01*
X5047Y6307D01*
X4900Y6310D02*
X4907D01*
X4970D02*
X5067Y6407D01*
X4810Y6352D02*
X4938D01*
X4970Y6320D01*
X5040Y6210D02*
X5087D01*
X4760Y6090D02*
X4790Y6060D01*
X5120D01*
X4760Y6090D02*
Y6148D01*
X4970Y6060D02*
X4993Y6083D01*
Y6110D01*
X5120Y6060D02*
X5153Y6093D01*
X4927Y6110D02*
Y6227D01*
X5180Y6183D02*
X5240D01*
X5153Y6210D02*
X5180Y6183D01*
X5260Y6070D02*
Y6117D01*
X4187Y6190D02*
X4227Y6230D01*
X4300D01*
X4327Y6190D02*
Y6203D01*
X4300Y6230D02*
X4327Y6203D01*
X4400Y6190D02*
X4468D01*
X4510Y6148D01*
X4167Y6310D02*
Y6410D01*
X4280Y6350D02*
X4320Y6310D01*
X4167Y6337D02*
X4180Y6350D01*
X4280D01*
X4233Y6410D02*
Y6413D01*
X4250Y6180D02*
X4260D01*
X4167Y6167D02*
X4190Y6190D01*
X4413Y6307D02*
X4450Y6270D01*
X4540D01*
X4560Y6290D01*
Y6352D01*
X4320Y6310D02*
X4347D01*
X4993Y6410D02*
Y6443D01*
X5010Y6460D01*
X5110D01*
X5133Y6437D01*
X5133Y6310D02*
Y6377D01*
X5160Y6403D01*
X5133Y6410D02*
X5140Y6403D01*
X5133Y6410D02*
Y6437D01*
X5067Y6407D02*
Y6410D01*
X4993Y6207D02*
Y6210D01*
Y6207D02*
X5087Y6113D01*
X4828Y6148D02*
X4890Y6210D01*
X4927D01*
Y6227D02*
X4950Y6250D01*
X5047Y6307D02*
Y6310D01*
X5087Y6110D02*
X5153Y6177D01*
Y6210D01*
X5087D02*
Y6213D01*
X5153Y6093D02*
Y6110D01*
X5087D02*
Y6113D01*
X4602Y6078D02*
X4610Y6086D01*
Y6148D01*
X4660D02*
Y6220D01*
X4810Y6148D02*
X4828D01*
X4510Y6352D02*
Y6380D01*
X4610Y6352D02*
Y6430D01*
X4710Y6352D02*
Y6415D01*
X4695Y6430D02*
X4710Y6415D01*
X4610Y6430D02*
X4695D01*
X4710D02*
X4713Y6427D01*
X4660Y6275D02*
Y6352D01*
X2810Y6090D02*
X2850Y6050D01*
X3290D01*
X3390Y6150D01*
X3500Y6780D02*
X3570Y6850D01*
X3883D02*
X4060Y6673D01*
X3570Y6850D02*
X3883D01*
X2810Y6580D02*
X2850Y6540D01*
X3290D02*
X3390Y6640D01*
X3550Y6210D02*
X3580Y6180D01*
X3500Y6290D02*
X3540D01*
X3580Y6180D02*
X4057D01*
X2310Y5740D02*
Y6730D01*
X2220Y5650D02*
X2310Y5740D01*
Y6730D02*
X2395Y6815D01*
X2578D01*
X2350Y6590D02*
X2425Y6665D01*
X2573Y6660D02*
X2578Y6665D01*
X2425D02*
X2578D01*
X2430Y6120D02*
X2485Y6175D01*
X2573Y6170D02*
X2578Y6175D01*
X2485D02*
X2578D01*
X2380Y5700D02*
Y6300D01*
X2280Y5600D02*
X2380Y5700D01*
X2270Y5600D02*
X2280D01*
X2220Y5550D02*
X2270Y5600D01*
X2380Y6300D02*
X2405Y6325D01*
X2578D01*
X2860Y4600D02*
X2925D01*
X2440Y4707D02*
X2487D01*
X2495Y4715D01*
X2578D01*
X2440Y4773D02*
X2448Y4765D01*
X2578D01*
X2750Y4630D02*
X2782Y4662D01*
Y4665D01*
X2705Y4715D02*
X2782D01*
X2680Y4740D02*
X2705Y4715D01*
X2810Y4580D02*
Y4610D01*
X2870Y4670D01*
X2747Y4850D02*
X2782Y4815D01*
X2730Y4850D02*
X2747D01*
X2860Y3620D02*
X2925D01*
X2440Y3727D02*
X2487D01*
X2495Y3735D01*
X2578D01*
X2440Y3793D02*
X2448Y3785D01*
X2578D01*
X2750Y3650D02*
X2782Y3682D01*
Y3685D01*
X2680Y3760D02*
X2705Y3735D01*
X2782D01*
X2810Y3600D02*
Y3630D01*
X2870Y3690D01*
X2875Y3785D02*
X2900Y3760D01*
X2747Y3870D02*
X2782Y3835D01*
X2730Y3870D02*
X2747D01*
X2860Y4110D02*
X2925D01*
X2440Y4217D02*
X2487D01*
X2495Y4225D01*
X2578D01*
X2440Y4283D02*
X2448Y4275D01*
X2578D01*
X2750Y4140D02*
X2782Y4172D01*
Y4175D01*
X2680Y4250D02*
X2705Y4225D01*
X2782D01*
X2810Y4090D02*
Y4120D01*
X2870Y4180D01*
X2730Y4360D02*
X2747D01*
X2782Y4325D01*
X2860Y3130D02*
X2925D01*
X2440Y3237D02*
X2487D01*
X2495Y3245D01*
X2578D01*
X2440Y3303D02*
X2448Y3295D01*
X2578D01*
X2750Y3160D02*
X2782Y3192D01*
Y3195D01*
X2680Y3270D02*
X2705Y3245D01*
X2782D01*
X2810Y3110D02*
Y3140D01*
X2870Y3200D01*
X2875Y3295D02*
X2900Y3270D01*
X2730Y3380D02*
X2747D01*
X2782Y3345D01*
X3013Y4740D02*
X3113D01*
X3060D02*
X3147Y4827D01*
X3113Y4740D02*
X3160Y4693D01*
X3147Y4827D02*
X3198D01*
X3440Y4900D02*
X3505D01*
X3615D02*
X3680D01*
X3466Y4614D02*
X3500Y4580D01*
X3525D01*
X3427Y4614D02*
X3466D01*
X3635Y4580D02*
Y4635D01*
X3035Y4600D02*
X3110D01*
X3137Y4627D01*
X3160D01*
X3220Y4620D02*
Y4700D01*
Y4620D02*
X3226Y4614D01*
X3220Y4700D02*
X3293Y4773D01*
X3198Y4853D02*
X3267D01*
X3226Y4614D02*
X3260D01*
X3293Y4773D02*
Y4827D01*
X3267Y4853D02*
X3293Y4827D01*
X3362D01*
X3310Y4860D02*
X3318D01*
X3321Y4857D01*
X3317Y4853D02*
X3362D01*
X3198Y4802D02*
X3228D01*
X3250Y4780D01*
X3603D02*
Y4817D01*
X3500Y4703D02*
X3507D01*
X3540Y4670D01*
X3260Y4640D02*
X3330D01*
X3419Y4729D01*
X3500D01*
Y4754D02*
X3526D01*
X3550Y4730D01*
Y4720D02*
Y4730D01*
X3210Y4580D02*
X3227Y4563D01*
X3260D01*
Y4589D02*
X3289D01*
X3310Y4610D01*
X3409Y4771D02*
X3410Y4770D01*
X3013Y3760D02*
X3113D01*
X3060D02*
X3147Y3847D01*
X3113Y3760D02*
X3160Y3713D01*
X3147Y3847D02*
X3198D01*
X3440Y3920D02*
X3505D01*
X3615D02*
X3680D01*
X3427Y3634D02*
X3466D01*
X3500Y3600D01*
X3525D01*
X3635D02*
Y3655D01*
X3035Y3620D02*
X3110D01*
X3137Y3647D01*
X3160D01*
X3220Y3640D02*
Y3720D01*
Y3640D02*
X3226Y3634D01*
X3220Y3720D02*
X3293Y3793D01*
X3198Y3873D02*
X3267D01*
X3226Y3634D02*
X3260D01*
X3293Y3793D02*
Y3847D01*
X3267Y3873D02*
X3293Y3847D01*
X3362D01*
X3310Y3880D02*
X3318D01*
X3321Y3877D01*
X3317Y3873D02*
X3362D01*
X3198Y3822D02*
X3228D01*
X3250Y3800D01*
X3603D02*
Y3837D01*
X3500Y3723D02*
X3507D01*
X3540Y3690D01*
X3260Y3660D02*
X3330D01*
X3419Y3749D01*
X3500D01*
Y3774D02*
X3526D01*
X3550Y3740D02*
Y3750D01*
X3526Y3774D02*
X3550Y3750D01*
X3210Y3600D02*
X3227Y3583D01*
X3260D01*
Y3609D02*
X3289D01*
X3310Y3630D01*
X3409Y3791D02*
X3410Y3790D01*
X3013Y4250D02*
X3113D01*
X3060D02*
X3147Y4337D01*
X3113Y4250D02*
X3160Y4203D01*
X3147Y4337D02*
X3198D01*
X3440Y4410D02*
X3505D01*
X3615D02*
X3680D01*
X3427Y4124D02*
X3466D01*
X3500Y4090D01*
X3525D01*
X3035Y4110D02*
X3110D01*
X3137Y4137D01*
X3160D01*
X3220Y4130D02*
Y4210D01*
Y4130D02*
X3226Y4124D01*
X3220Y4210D02*
X3293Y4283D01*
X3198Y4363D02*
X3267D01*
X3226Y4124D02*
X3260D01*
X3293Y4283D02*
Y4337D01*
X3267Y4363D02*
X3293Y4337D01*
X3362D01*
X3310Y4370D02*
X3318D01*
X3317Y4363D02*
X3362D01*
X3318Y4370D02*
X3321Y4367D01*
X3198Y4312D02*
X3228D01*
X3250Y4290D01*
X3603D02*
Y4327D01*
X3500Y4213D02*
X3507D01*
X3540Y4180D01*
X3260Y4150D02*
X3330D01*
X3419Y4239D01*
X3500D01*
X3409Y4281D02*
X3410Y4280D01*
X3409Y4281D02*
X3439D01*
X3456Y4264D01*
X3500D01*
X3540Y4290D02*
X3550Y4280D01*
Y4210D02*
Y4280D01*
X3227Y4073D02*
X3260D01*
X3210Y4090D02*
X3227Y4073D01*
X3260Y4099D02*
X3289D01*
X3310Y4120D01*
X3013Y3270D02*
X3113D01*
X3060D02*
X3147Y3357D01*
X3113Y3270D02*
X3160Y3223D01*
X3147Y3357D02*
X3198D01*
X3440Y3430D02*
X3505D01*
X3615D02*
X3680D01*
X3427Y3144D02*
X3466D01*
X3500Y3110D01*
X3525D01*
X3035Y3130D02*
X3110D01*
X3137Y3157D01*
X3160D01*
X3220Y3150D02*
Y3230D01*
Y3150D02*
X3226Y3144D01*
X3220Y3230D02*
X3293Y3303D01*
X3198Y3383D02*
X3267D01*
X3226Y3144D02*
X3260D01*
X3293Y3303D02*
Y3357D01*
X3267Y3383D02*
X3293Y3357D01*
X3362D01*
X3310Y3390D02*
X3318D01*
X3321Y3387D01*
X3317Y3383D02*
X3362D01*
X3228Y3332D02*
X3250Y3310D01*
X3198Y3332D02*
X3228D01*
X3603Y3310D02*
Y3347D01*
X3500Y3233D02*
X3507D01*
X3540Y3200D01*
X3260Y3170D02*
X3330D01*
X3419Y3259D01*
X3500D01*
X3409Y3301D02*
X3410Y3300D01*
X3439Y3301D02*
X3456Y3284D01*
X3409Y3301D02*
X3439D01*
X3456Y3284D02*
X3500D01*
X3540Y3310D02*
X3550Y3300D01*
Y3230D02*
Y3300D01*
X3227Y3093D02*
X3260D01*
X3210Y3110D02*
X3227Y3093D01*
X3260Y3119D02*
X3289D01*
X3310Y3140D01*
X2810Y4090D02*
X2850Y4050D01*
X3290D01*
X3390Y4150D01*
X2810Y4580D02*
X2850Y4540D01*
X3290D01*
X3390Y4640D01*
X2810Y3110D02*
X2850Y3070D01*
X3290D01*
X3390Y3170D01*
X4327Y4073D02*
X4350Y4050D01*
X4260Y4180D02*
X4327Y4113D01*
X4350Y4050D02*
X4530D01*
X4560Y4080D01*
X4327Y4073D02*
Y4113D01*
X4560Y4080D02*
Y4140D01*
X4360Y4260D02*
X4393Y4227D01*
X4283Y4260D02*
X4360D01*
X4233Y4310D02*
X4283Y4260D01*
X4393Y4090D02*
Y4227D01*
X4327Y4373D02*
X4340Y4360D01*
X4390D02*
X4413Y4337D01*
X4327Y4373D02*
Y4410D01*
X4340Y4360D02*
X4390D01*
X4413Y4307D02*
Y4337D01*
X4233Y4413D02*
X4280Y4460D01*
X4370D01*
X4393Y4410D02*
X4480D01*
X4370Y4460D02*
X4393Y4437D01*
X4480Y4410D02*
X4510Y4380D01*
X4393Y4410D02*
Y4437D01*
Y4413D02*
X4440Y4460D01*
X4877D01*
X4917Y4420D01*
X4140Y4117D02*
X4167Y4090D01*
Y4167D01*
X4080Y4117D02*
X4140D01*
X4233Y4090D02*
Y4133D01*
X4060Y4317D02*
X4067Y4310D01*
X4167D01*
X4060Y4383D02*
X4107D01*
X4760Y4300D02*
X4790Y4270D01*
X4860D01*
X4900Y4310D01*
X4760Y4300D02*
Y4352D01*
X4894Y4300D02*
X4924Y4270D01*
X5010D01*
X5047Y4307D01*
X4900Y4310D02*
X4907D01*
X4970D02*
X5067Y4407D01*
X4810Y4352D02*
X4938D01*
X4970Y4320D01*
X5040Y4210D02*
X5087D01*
X4760Y4090D02*
X4790Y4060D01*
X5120D01*
X4760Y4090D02*
Y4148D01*
X4970Y4060D02*
X4993Y4083D01*
Y4110D01*
X5120Y4060D02*
X5153Y4093D01*
X4927Y4110D02*
Y4227D01*
X5140Y4403D02*
X5240D01*
X5177Y4337D02*
X5240D01*
X5260Y4070D02*
Y4117D01*
X5180Y4183D02*
X5240D01*
X5153Y4210D02*
X5180Y4183D01*
X4187Y4190D02*
X4227Y4230D01*
X4300D01*
X4327Y4190D02*
Y4203D01*
X4300Y4230D02*
X4327Y4203D01*
X4400Y4190D02*
X4468D01*
X4510Y4148D01*
X4167Y4310D02*
Y4410D01*
X4280Y4350D02*
X4320Y4310D01*
X4167Y4337D02*
X4180Y4350D01*
X4280D01*
X4233Y4410D02*
Y4413D01*
X4250Y4180D02*
X4260D01*
X4167Y4167D02*
X4190Y4190D01*
X4320Y4310D02*
X4347D01*
X4413Y4307D02*
X4450Y4270D01*
X4540D01*
X4560Y4290D01*
Y4352D01*
X4993Y4410D02*
Y4443D01*
X5010Y4460D01*
X5110D01*
X5133Y4437D01*
X5133Y4310D02*
Y4377D01*
X5160Y4403D01*
X5133Y4410D02*
X5140Y4403D01*
X5133Y4410D02*
Y4437D01*
X5067Y4407D02*
Y4410D01*
X4993Y4207D02*
Y4210D01*
Y4207D02*
X5087Y4113D01*
X4828Y4148D02*
X4890Y4210D01*
X4927D01*
Y4227D02*
X4950Y4250D01*
X5047Y4307D02*
Y4310D01*
X5087Y4110D02*
X5153Y4177D01*
Y4210D01*
X5087D02*
Y4213D01*
X5153Y4093D02*
Y4110D01*
X5087D02*
Y4113D01*
X4610Y4352D02*
Y4430D01*
X4710Y4352D02*
Y4415D01*
X4610Y4430D02*
X4695D01*
X4710Y4415D01*
X4710Y4430D02*
X4713Y4427D01*
X4660Y4275D02*
Y4352D01*
X4510Y4352D02*
Y4380D01*
X4810Y4148D02*
X4828D01*
X4660D02*
Y4220D01*
X4602Y4078D02*
X4610Y4086D01*
Y4148D01*
X4327Y4563D02*
X4350Y4540D01*
X4260Y4670D02*
X4327Y4603D01*
X4350Y4540D02*
X4530D01*
X4560Y4570D01*
X4327Y4563D02*
Y4603D01*
X4560Y4570D02*
Y4630D01*
X4360Y4750D02*
X4393Y4717D01*
X4283Y4750D02*
X4360D01*
X4233Y4800D02*
X4283Y4750D01*
X4393Y4580D02*
Y4717D01*
X4327Y4863D02*
X4340Y4850D01*
X4390D02*
X4413Y4827D01*
X4327Y4863D02*
Y4900D01*
X4340Y4850D02*
X4390D01*
X4413Y4797D02*
Y4827D01*
X4233Y4903D02*
X4280Y4950D01*
X4370D01*
X4393Y4900D02*
X4480D01*
X4370Y4950D02*
X4393Y4927D01*
X4480Y4900D02*
X4510Y4870D01*
X4393Y4900D02*
Y4927D01*
Y4903D02*
X4440Y4950D01*
X4877D01*
X4917Y4910D01*
X4140Y4607D02*
X4167Y4580D01*
Y4657D01*
X4080Y4607D02*
X4140D01*
X4233Y4580D02*
Y4623D01*
X4060Y4807D02*
X4067Y4800D01*
X4167D01*
X4060Y4873D02*
X4107D01*
X4760Y4790D02*
X4790Y4760D01*
X4860D01*
X4900Y4800D01*
X4760Y4790D02*
Y4842D01*
X4894Y4790D02*
X4924Y4760D01*
X5010D01*
X5047Y4797D01*
X4900Y4800D02*
X4907D01*
X4970D02*
X5067Y4897D01*
X4810Y4842D02*
X4938D01*
X4970Y4810D01*
X5040Y4700D02*
X5087D01*
X4760Y4580D02*
X4790Y4550D01*
X5120D01*
X4760Y4580D02*
Y4638D01*
X4970Y4550D02*
X4993Y4573D01*
Y4600D01*
X5120Y4550D02*
X5153Y4583D01*
X4927Y4600D02*
Y4717D01*
X5140Y4893D02*
X5240D01*
X5177Y4827D02*
X5240D01*
X5260Y4560D02*
Y4607D01*
X5180Y4673D02*
X5240D01*
X5153Y4700D02*
X5180Y4673D01*
X4187Y4680D02*
X4227Y4720D01*
X4300D01*
X4327Y4680D02*
Y4693D01*
X4300Y4720D02*
X4327Y4693D01*
X4400Y4680D02*
X4468D01*
X4510Y4638D01*
X4167Y4800D02*
Y4900D01*
X4280Y4840D02*
X4320Y4800D01*
X4167Y4827D02*
X4180Y4840D01*
X4280D01*
X4233Y4900D02*
Y4903D01*
X4250Y4670D02*
X4260D01*
X4167Y4657D02*
X4190Y4680D01*
X4320Y4800D02*
X4347D01*
X4413Y4797D02*
X4450Y4760D01*
X4540D01*
X4560Y4780D01*
Y4842D01*
X4993Y4900D02*
Y4933D01*
X5010Y4950D01*
X5110D01*
X5133Y4927D01*
X5133Y4800D02*
Y4867D01*
X5160Y4893D01*
X5133Y4900D02*
X5140Y4893D01*
X5133Y4900D02*
Y4927D01*
X5067Y4897D02*
Y4900D01*
X4993Y4697D02*
Y4700D01*
Y4697D02*
X5087Y4603D01*
X4828Y4638D02*
X4890Y4700D01*
X4927D01*
Y4717D02*
X4950Y4740D01*
X5047Y4797D02*
Y4800D01*
X5087Y4600D02*
X5153Y4667D01*
Y4700D01*
X5087D02*
Y4703D01*
X5153Y4583D02*
Y4600D01*
X5087D02*
Y4603D01*
X4610Y4842D02*
Y4920D01*
X4710Y4842D02*
Y4905D01*
X4695Y4920D02*
X4710Y4905D01*
X4610Y4920D02*
X4695D01*
X4710D02*
X4713Y4917D01*
X4660Y4765D02*
Y4842D01*
X4510Y4842D02*
Y4870D01*
X4810Y4638D02*
X4828D01*
X4660D02*
Y4710D01*
X4602Y4568D02*
X4610Y4576D01*
Y4638D01*
X4327Y3583D02*
X4350Y3560D01*
X4260Y3690D02*
X4327Y3623D01*
X4350Y3560D02*
X4530D01*
X4560Y3590D01*
X4327Y3583D02*
Y3623D01*
X4560Y3590D02*
Y3650D01*
X4360Y3770D02*
X4393Y3737D01*
X4283Y3770D02*
X4360D01*
X4233Y3820D02*
X4283Y3770D01*
X4393Y3600D02*
Y3737D01*
X4327Y3883D02*
X4340Y3870D01*
X4390D02*
X4413Y3847D01*
X4327Y3883D02*
Y3920D01*
X4340Y3870D02*
X4390D01*
X4413Y3817D02*
Y3847D01*
X4233Y3923D02*
X4280Y3970D01*
X4370D01*
X4393Y3920D02*
X4480D01*
X4370Y3970D02*
X4393Y3947D01*
X4480Y3920D02*
X4510Y3890D01*
X4393Y3920D02*
Y3947D01*
Y3923D02*
X4440Y3970D01*
X4877D01*
X4917Y3930D01*
X4140Y3627D02*
X4167Y3600D01*
Y3677D01*
X4080Y3627D02*
X4140D01*
X4233Y3600D02*
Y3643D01*
X4060Y3827D02*
X4067Y3820D01*
X4167D01*
X4060Y3893D02*
X4107D01*
X4760Y3810D02*
X4790Y3780D01*
X4860D01*
X4760Y3810D02*
Y3862D01*
X4894Y3810D02*
X4924Y3780D01*
X5010D01*
X5047Y3817D01*
X4900Y3820D02*
X4907D01*
X4970D02*
X5067Y3917D01*
X4810Y3862D02*
X4938D01*
X4970Y3830D01*
X5040Y3720D02*
X5087D01*
X4760Y3600D02*
X4790Y3570D01*
X5120D01*
X4760Y3600D02*
Y3658D01*
X4970Y3570D02*
X4993Y3593D01*
Y3620D01*
X5120Y3570D02*
X5153Y3603D01*
X4927Y3620D02*
Y3737D01*
X5140Y3913D02*
X5240D01*
X5177Y3847D02*
X5240D01*
X5260Y3580D02*
Y3627D01*
X5180Y3693D02*
X5240D01*
X5153Y3720D02*
X5180Y3693D01*
X4187Y3700D02*
X4227Y3740D01*
X4300D01*
X4327Y3700D02*
Y3713D01*
X4300Y3740D02*
X4327Y3713D01*
X4400Y3700D02*
X4468D01*
X4510Y3658D01*
X4167Y3820D02*
Y3920D01*
X4280Y3860D02*
X4320Y3820D01*
X4167Y3847D02*
X4180Y3860D01*
X4280D01*
X4233Y3920D02*
Y3923D01*
X4250Y3690D02*
X4260D01*
X4167Y3677D02*
X4190Y3700D01*
X4320Y3820D02*
X4347D01*
X4413Y3817D02*
X4450Y3780D01*
X4540D01*
X4560Y3800D01*
Y3862D01*
X4993Y3920D02*
Y3953D01*
X5010Y3970D01*
X5110D01*
X5133Y3947D01*
X5133Y3820D02*
Y3887D01*
X5160Y3913D01*
X5133Y3920D02*
X5140Y3913D01*
X5133Y3920D02*
Y3947D01*
X5067Y3917D02*
Y3920D01*
X4993Y3717D02*
Y3720D01*
Y3717D02*
X5087Y3623D01*
X4828Y3658D02*
X4890Y3720D01*
X4927D01*
Y3737D02*
X4950Y3760D01*
X5047Y3817D02*
Y3820D01*
X5087Y3620D02*
X5153Y3687D01*
Y3720D01*
X5087D02*
Y3723D01*
X5153Y3603D02*
Y3620D01*
X5087D02*
Y3623D01*
X4610Y3862D02*
Y3940D01*
Y3940D02*
X4695D01*
X4710Y3925D01*
Y3862D02*
Y3925D01*
X4710Y3940D02*
X4713Y3937D01*
X4660Y3785D02*
Y3862D01*
X4510Y3862D02*
Y3890D01*
X4810Y3658D02*
X4828D01*
X4660D02*
Y3730D01*
X4602Y3588D02*
X4610Y3596D01*
Y3658D01*
X4327Y3093D02*
X4350Y3070D01*
X4260Y3200D02*
X4327Y3133D01*
X4350Y3070D02*
X4530D01*
X4560Y3100D01*
X4327Y3093D02*
Y3133D01*
X4560Y3100D02*
Y3160D01*
X4360Y3280D02*
X4393Y3247D01*
X4283Y3280D02*
X4360D01*
X4233Y3330D02*
X4283Y3280D01*
X4393Y3110D02*
Y3247D01*
X4327Y3393D02*
X4340Y3380D01*
X4390D02*
X4413Y3357D01*
X4327Y3393D02*
Y3430D01*
X4340Y3380D02*
X4390D01*
X4413Y3327D02*
Y3357D01*
X4233Y3433D02*
X4280Y3480D01*
X4370D01*
X4393Y3430D02*
X4480D01*
X4370Y3480D02*
X4393Y3457D01*
X4480Y3430D02*
X4510Y3400D01*
X4393Y3430D02*
Y3457D01*
Y3433D02*
X4440Y3480D01*
X4877D01*
X4917Y3440D01*
X4140Y3137D02*
X4167Y3110D01*
Y3187D01*
X4080Y3137D02*
X4140D01*
X4233Y3110D02*
Y3153D01*
X4060Y3337D02*
X4067Y3330D01*
X4167D01*
X4060Y3403D02*
X4107D01*
X4760Y3320D02*
X4790Y3290D01*
X4860D01*
X4900Y3330D01*
X4760Y3320D02*
Y3372D01*
X4894Y3320D02*
X4924Y3290D01*
X5010D01*
X5047Y3327D01*
X4900Y3330D02*
X4907D01*
X4970D02*
X5067Y3427D01*
X4810Y3372D02*
X4938D01*
X4970Y3340D01*
X5040Y3230D02*
X5087D01*
X4760Y3110D02*
X4790Y3080D01*
X5120D01*
X4760Y3110D02*
Y3168D01*
X4970Y3080D02*
X4993Y3103D01*
Y3130D01*
X5120Y3080D02*
X5153Y3113D01*
X4927Y3130D02*
Y3247D01*
X5140Y3423D02*
X5240D01*
X5177Y3357D02*
X5240D01*
X5260Y3090D02*
Y3137D01*
X5180Y3203D02*
X5240D01*
X5153Y3230D02*
X5180Y3203D01*
X4187Y3210D02*
X4227Y3250D01*
X4300D01*
X4327Y3210D02*
Y3223D01*
X4300Y3250D02*
X4327Y3223D01*
X4400Y3210D02*
X4468D01*
X4510Y3168D01*
X4167Y3330D02*
Y3430D01*
X4280Y3370D02*
X4320Y3330D01*
X4167Y3357D02*
X4180Y3370D01*
X4280D01*
X4233Y3430D02*
Y3433D01*
X4250Y3200D02*
X4260D01*
X4167Y3187D02*
X4190Y3210D01*
X4320Y3330D02*
X4347D01*
X4413Y3327D02*
X4450Y3290D01*
X4540D01*
X4560Y3310D01*
Y3372D01*
X4993Y3430D02*
Y3463D01*
X5010Y3480D01*
X5110D01*
X5133Y3457D01*
X5133Y3330D02*
Y3397D01*
X5160Y3423D01*
X5133Y3430D02*
X5140Y3423D01*
X5133Y3430D02*
Y3457D01*
X5067Y3427D02*
Y3430D01*
X4993Y3227D02*
Y3230D01*
Y3227D02*
X5087Y3133D01*
X4828Y3168D02*
X4890Y3230D01*
X4927D01*
Y3247D02*
X4950Y3270D01*
X5047Y3327D02*
Y3330D01*
X5087Y3130D02*
X5153Y3197D01*
Y3230D01*
X5087D02*
Y3233D01*
X5153Y3113D02*
Y3130D01*
X5087D02*
Y3133D01*
X4610Y3372D02*
Y3450D01*
Y3450D02*
X4695D01*
X4710Y3372D02*
Y3435D01*
X4695Y3450D02*
X4710Y3435D01*
X4710Y3450D02*
X4713Y3447D01*
X4660Y3295D02*
Y3372D01*
X4510Y3372D02*
Y3400D01*
X4810Y3168D02*
X4828D01*
X4660D02*
Y3240D01*
X4602Y3098D02*
X4610Y3106D01*
Y3168D01*
X3550Y4210D02*
X3580Y4180D01*
X3500Y4290D02*
X3540D01*
X3580Y4180D02*
X4057D01*
X4060Y4183D01*
X3500Y4780D02*
X3570Y4850D01*
X3883D01*
X4060Y4673D01*
X3500Y3800D02*
X3570Y3870D01*
X3883D01*
X4060Y3693D01*
X3550Y3230D02*
X3580Y3200D01*
X3500Y3310D02*
X3540D01*
X3580Y3200D02*
X4057D01*
X4060Y3203D01*
X2993Y5760D02*
X3093D01*
X3040D02*
X3127Y5847D01*
X3093Y5760D02*
X3140Y5713D01*
X3127Y5847D02*
X3178D01*
X3420Y5920D02*
X3485D01*
X3595D02*
X3660D01*
X3407Y5634D02*
X3446D01*
X3480Y5600D01*
X3505D01*
X3015Y5620D02*
X3090D01*
X3117Y5647D01*
X3140D01*
X3200Y5640D02*
Y5720D01*
Y5640D02*
X3206Y5634D01*
X3200Y5720D02*
X3273Y5793D01*
X3178Y5873D02*
X3247D01*
X3206Y5634D02*
X3240D01*
X3273Y5793D02*
Y5847D01*
X3247Y5873D02*
X3273Y5847D01*
X3342D01*
X3297Y5873D02*
X3342D01*
X3290Y5880D02*
X3298D01*
X3301Y5877D01*
X3208Y5822D02*
X3230Y5800D01*
X3178Y5822D02*
X3208D01*
X3583Y5800D02*
Y5837D01*
X3480Y5723D02*
X3487D01*
X3520Y5690D01*
X3240Y5660D02*
X3310D01*
X3399Y5749D01*
X3480D01*
X3389Y5791D02*
X3390Y5790D01*
X3436Y5774D02*
X3480D01*
X3419Y5791D02*
X3436Y5774D01*
X3389Y5791D02*
X3419D01*
X3520Y5800D02*
X3530Y5790D01*
X3207Y5583D02*
X3240D01*
X3190Y5600D02*
X3207Y5583D01*
X3240Y5609D02*
X3269D01*
X3290Y5630D01*
X3420Y5390D02*
X3485D01*
X3595D02*
X3660D01*
X3407Y5104D02*
X3446D01*
X3480Y5070D01*
X3505D01*
X3615D02*
Y5125D01*
X3090Y5090D02*
X3117Y5117D01*
X3140D01*
X3200Y5110D02*
Y5190D01*
Y5110D02*
X3206Y5104D01*
X3200Y5190D02*
X3273Y5263D01*
X3178Y5343D02*
X3247D01*
X3206Y5104D02*
X3240D01*
X3273Y5263D02*
Y5317D01*
X3247Y5343D02*
X3273Y5317D01*
X3342D01*
X3298Y5350D02*
X3301Y5347D01*
X3297Y5343D02*
X3342D01*
X3290Y5350D02*
X3298D01*
X3208Y5292D02*
X3230Y5270D01*
X3178Y5292D02*
X3208D01*
X3583Y5270D02*
Y5307D01*
X3480Y5193D02*
X3487D01*
X3520Y5160D01*
X3240Y5130D02*
X3310D01*
X3399Y5219D01*
X3480D01*
X3389Y5261D02*
X3390Y5260D01*
X3436Y5244D02*
X3480D01*
X3419Y5261D02*
X3436Y5244D01*
X3389Y5261D02*
X3419D01*
X3520Y5270D02*
X3530Y5260D01*
X3207Y5053D02*
X3240D01*
X3190Y5070D02*
X3207Y5053D01*
X3240Y5079D02*
X3269D01*
X3290Y5100D01*
X4327Y5583D02*
X4350Y5560D01*
X4260Y5690D02*
X4327Y5623D01*
X4350Y5560D02*
X4530D01*
X4560Y5590D01*
X4327Y5583D02*
Y5623D01*
X4560Y5590D02*
Y5650D01*
X4360Y5770D02*
X4393Y5737D01*
X4283Y5770D02*
X4360D01*
X4233Y5820D02*
X4283Y5770D01*
X4393Y5600D02*
Y5737D01*
X4327Y5883D02*
X4340Y5870D01*
X4390D02*
X4413Y5847D01*
X4327Y5883D02*
Y5920D01*
X4340Y5870D02*
X4390D01*
X4413Y5817D02*
Y5847D01*
X4233Y5923D02*
X4280Y5970D01*
X4370D01*
X4393Y5920D02*
X4480D01*
X4370Y5970D02*
X4393Y5947D01*
X4480Y5920D02*
X4510Y5890D01*
X4393Y5920D02*
Y5947D01*
Y5923D02*
X4440Y5970D01*
X4877D01*
X4917Y5930D01*
X4140Y5627D02*
X4167Y5600D01*
Y5677D01*
X4080Y5627D02*
X4140D01*
X4233Y5600D02*
Y5643D01*
X4060Y5827D02*
X4067Y5820D01*
X4167D01*
X4060Y5893D02*
X4107D01*
X4760Y5810D02*
X4790Y5780D01*
X4860D01*
X4900Y5820D01*
X4760Y5810D02*
Y5862D01*
X4894Y5810D02*
X4924Y5780D01*
X5010D01*
X5047Y5817D01*
X4900Y5820D02*
X4907D01*
X4970D02*
X5067Y5917D01*
X4810Y5862D02*
X4938D01*
X4970Y5830D01*
X5040Y5720D02*
X5087D01*
X4760Y5600D02*
X4790Y5570D01*
X5120D01*
X4760Y5600D02*
Y5658D01*
X4970Y5570D02*
X4993Y5593D01*
Y5620D01*
X5120Y5570D02*
X5153Y5603D01*
X4927Y5620D02*
Y5737D01*
X5140Y5913D02*
X5240D01*
X5177Y5847D02*
X5240D01*
X5180Y5693D02*
X5240D01*
X5153Y5720D02*
X5180Y5693D01*
X5260Y5580D02*
Y5627D01*
X4187Y5700D02*
X4227Y5740D01*
X4300D01*
X4327Y5700D02*
Y5713D01*
X4300Y5740D02*
X4327Y5713D01*
X4400Y5700D02*
X4468D01*
X4167Y5820D02*
Y5920D01*
X4280Y5860D02*
X4320Y5820D01*
X4167Y5847D02*
X4180Y5860D01*
X4280D01*
X4233Y5920D02*
Y5923D01*
X4250Y5690D02*
X4260D01*
X4167Y5677D02*
X4190Y5700D01*
X4413Y5817D02*
X4450Y5780D01*
X4540D01*
X4560Y5800D01*
Y5862D01*
X4320Y5820D02*
X4347D01*
X4993Y5920D02*
Y5953D01*
X5010Y5970D01*
X5110D01*
X5133Y5947D01*
X5133Y5820D02*
Y5887D01*
X5160Y5913D01*
X5133Y5920D02*
X5140Y5913D01*
X5133Y5920D02*
Y5947D01*
X5067Y5917D02*
Y5920D01*
X4993Y5717D02*
Y5720D01*
Y5717D02*
X5087Y5623D01*
X4828Y5658D02*
X4890Y5720D01*
X4927D01*
Y5737D02*
X4950Y5760D01*
X5047Y5817D02*
Y5820D01*
X5087Y5620D02*
X5153Y5687D01*
Y5720D01*
X5087D02*
Y5723D01*
X5153Y5603D02*
Y5620D01*
X5087D02*
Y5623D01*
X4602Y5588D02*
X4610Y5596D01*
Y5658D01*
X4660D02*
Y5730D01*
X4810Y5658D02*
X4828D01*
X4510Y5862D02*
Y5890D01*
X4610Y5862D02*
Y5940D01*
Y5940D02*
X4695D01*
X4710Y5925D01*
Y5862D02*
Y5925D01*
X4710Y5940D02*
X4713Y5937D01*
X4660Y5785D02*
Y5862D01*
X4327Y5053D02*
X4350Y5030D01*
X4260Y5160D02*
X4327Y5093D01*
X4350Y5030D02*
X4530D01*
X4560Y5060D01*
X4327Y5053D02*
Y5093D01*
X4560Y5060D02*
Y5120D01*
X4360Y5240D02*
X4393Y5207D01*
X4283Y5240D02*
X4360D01*
X4233Y5290D02*
X4283Y5240D01*
X4393Y5070D02*
Y5207D01*
X4327Y5353D02*
X4340Y5340D01*
X4390D02*
X4413Y5317D01*
X4327Y5353D02*
Y5390D01*
X4340Y5340D02*
X4390D01*
X4413Y5287D02*
Y5317D01*
X4233Y5393D02*
X4280Y5440D01*
X4370D01*
X4393Y5390D02*
X4480D01*
X4370Y5440D02*
X4393Y5417D01*
X4480Y5390D02*
X4510Y5360D01*
X4393Y5390D02*
Y5417D01*
Y5393D02*
X4440Y5440D01*
X4877D01*
X4917Y5400D01*
X4140Y5097D02*
X4167Y5070D01*
Y5147D01*
X4080Y5097D02*
X4140D01*
X4233Y5070D02*
Y5113D01*
X4060Y5297D02*
X4067Y5290D01*
X4167D01*
X4060Y5363D02*
X4107D01*
X4760Y5280D02*
X4790Y5250D01*
X4860D01*
X4900Y5290D01*
X4760Y5280D02*
Y5332D01*
X4894Y5280D02*
X4924Y5250D01*
X5010D01*
X5047Y5287D01*
X4900Y5290D02*
X4907D01*
X4970D02*
X5067Y5387D01*
X4810Y5332D02*
X4938D01*
X4970Y5300D01*
X5040Y5190D02*
X5087D01*
X4760Y5070D02*
X4790Y5040D01*
X5120D01*
X4760Y5070D02*
Y5128D01*
X4970Y5040D02*
X4993Y5063D01*
Y5090D01*
X5120Y5040D02*
X5153Y5073D01*
X4927Y5090D02*
Y5207D01*
X5180Y5163D02*
X5240D01*
X5153Y5190D02*
X5180Y5163D01*
X5260Y5050D02*
Y5097D01*
X4187Y5170D02*
X4227Y5210D01*
X4300D01*
X4327Y5170D02*
Y5183D01*
X4300Y5210D02*
X4327Y5183D01*
X4400Y5170D02*
X4468D01*
X4510Y5128D01*
X4167Y5290D02*
Y5390D01*
X4280Y5330D02*
X4320Y5290D01*
X4167Y5317D02*
X4180Y5330D01*
X4280D01*
X4233Y5390D02*
Y5393D01*
X4250Y5160D02*
X4260D01*
X4167Y5147D02*
X4190Y5170D01*
X4413Y5287D02*
X4450Y5250D01*
X4540D01*
X4560Y5270D01*
Y5332D01*
X4320Y5290D02*
X4347D01*
X4993Y5423D02*
X5010Y5440D01*
X5110D01*
X5133Y5290D02*
Y5357D01*
X5160Y5383D01*
X5133Y5390D02*
X5140Y5383D01*
X5067Y5387D02*
Y5390D01*
X4993Y5187D02*
Y5190D01*
Y5187D02*
X5087Y5093D01*
X4828Y5128D02*
X4890Y5190D01*
X4927D01*
Y5207D02*
X4950Y5230D01*
X5047Y5287D02*
Y5290D01*
X5087Y5090D02*
X5153Y5157D01*
Y5190D01*
X5087D02*
Y5193D01*
X5153Y5073D02*
Y5090D01*
X5087D02*
Y5093D01*
X4602Y5058D02*
X4610Y5066D01*
Y5128D01*
X4660D02*
Y5200D01*
X4810Y5128D02*
X4828D01*
X4510Y5332D02*
Y5360D01*
X4610Y5332D02*
Y5410D01*
Y5410D02*
X4695D01*
X4710Y5395D01*
Y5332D02*
Y5395D01*
X4710Y5410D02*
X4713Y5407D01*
X4660Y5255D02*
Y5332D01*
X2170Y3570D02*
Y5100D01*
Y3570D02*
X2395Y3345D01*
X2170Y5100D02*
X2220Y5150D01*
X2395Y3345D02*
X2578D01*
X2573Y3190D02*
X2578Y3195D01*
X2405D02*
X2578D01*
X2290Y3930D02*
X2385Y3835D01*
X2290Y3930D02*
Y5180D01*
X2220Y5250D02*
X2290Y5180D01*
X2385Y3835D02*
X2578D01*
X2390Y3680D02*
X2573D01*
X2578Y3685D01*
X2340Y4430D02*
Y5230D01*
X2220Y5350D02*
X2340Y5230D01*
Y4430D02*
X2445Y4325D01*
X2578D01*
X2480Y4150D02*
X2505Y4175D01*
X2440Y4150D02*
X2480D01*
X2573Y4170D02*
X2578Y4175D01*
X2505D02*
X2578D01*
X2380Y4880D02*
Y5340D01*
X2270Y5450D02*
X2380Y5340D01*
X2220Y5450D02*
X2270D01*
X2380Y4880D02*
X2450Y4810D01*
X2590D01*
X2490Y4650D02*
X2505Y4665D01*
X2450Y4650D02*
X2490D01*
X2573Y4660D02*
X2578Y4665D01*
X2505D02*
X2578D01*
X2799Y5781D02*
X2905D01*
X2927Y5123D02*
X3020Y5030D01*
X2895Y5261D02*
X2927Y5230D01*
X2789Y5261D02*
X2895D01*
X3020Y5030D02*
X3270D01*
X3370Y5130D01*
X2927Y5123D02*
Y5230D01*
X3370Y5130D02*
X3407D01*
X2927Y5643D02*
X3010Y5560D01*
X2927Y5643D02*
Y5760D01*
X3010Y5560D02*
X3270D01*
X3370Y5660D01*
X3407D01*
X3560Y5690D02*
X3660D01*
X3700Y5650D01*
Y5560D02*
Y5650D01*
Y5560D02*
X3730Y5530D01*
X3970D01*
X4000Y5560D01*
Y5660D01*
X4033Y5693D01*
X3530Y5720D02*
X3560Y5690D01*
X3480Y5800D02*
X3520D01*
X3530Y5720D02*
Y5790D01*
X4033Y5693D02*
X4060D01*
X3560Y5160D02*
X3670D01*
X3710Y5120D01*
Y5000D02*
Y5120D01*
Y5000D02*
X3720Y4990D01*
X3970D01*
X4000Y5020D01*
Y5130D01*
X4033Y5163D01*
X3530Y5190D02*
X3560Y5160D01*
X3480Y5270D02*
X3520D01*
X3530Y5190D02*
Y5260D01*
X4033Y5163D02*
X4060D01*
X6635Y4715D02*
X6685D01*
X6690Y4720D01*
X6655Y4765D02*
X6690Y4800D01*
X6635Y4765D02*
X6655D01*
X6365Y4715D02*
X6425D01*
X6635Y4415D02*
X6705D01*
X6635Y3705D02*
X6705D01*
X6345D02*
X6425D01*
X6355Y3405D02*
X6425D01*
X6635D02*
X6705D01*
X6635Y3355D02*
X6685D01*
X6700Y3340D01*
X2810Y3600D02*
X2850Y3560D01*
X3290D01*
X3390Y3660D01*
X3055Y3900D02*
X3110D01*
X2880D02*
X2945D01*
X2870Y3410D02*
X2945D01*
X3055D02*
X3120D01*
X3900Y7830D02*
X4060Y7670D01*
X3500Y7760D02*
X3570Y7830D01*
X4060Y7653D02*
Y7670D01*
X3570Y7830D02*
X3900D01*
X4860Y3780D02*
X4900Y3820D01*
X4993Y5390D02*
Y5423D01*
X5110Y5440D02*
X5133Y5417D01*
Y5410D02*
X5148Y5395D01*
X5133Y5410D02*
Y5417D01*
X5148Y5395D02*
X5235D01*
X5153Y6410D02*
X5227D01*
X5245Y6428D01*
X5225Y6300D02*
Y6342D01*
X5245Y6362D01*
X5220Y6900D02*
X5233Y6913D01*
X5153Y6900D02*
X5220D01*
X5233Y6913D02*
X5255D01*
X4993Y6900D02*
Y6933D01*
X5120Y6950D02*
X5160Y6910D01*
X5010Y6950D02*
X5120D01*
X4820Y7128D02*
X4828D01*
X4890Y7190D02*
X4927D01*
X6425Y4385D02*
Y4415D01*
X6350Y4480D02*
X6385Y4515D01*
X6425D01*
X6328Y3455D02*
X6425D01*
X6250Y3450D02*
X6257D01*
X8730Y3705D02*
X8790D01*
X8730Y3455D02*
X8790D01*
X6467Y7557D02*
X6537D01*
X6410Y7500D02*
X6467Y7557D01*
X6757Y6827D02*
Y6868D01*
X6720Y6790D02*
X6757Y6827D01*
X6783Y6797D02*
X6790Y6790D01*
X6783Y6923D02*
X6800Y6940D01*
X6732Y6868D02*
Y6918D01*
X6710Y6940D02*
X6732Y6918D01*
X6560Y6800D02*
Y6861D01*
X6623Y7347D02*
X6770D01*
X6563Y7407D02*
X6623Y7347D01*
X6563Y7407D02*
Y7478D01*
X6537Y7777D02*
Y7800D01*
X6510Y7750D02*
X6537Y7777D01*
X6783Y6797D02*
Y6923D01*
X5240Y7230D02*
X5270Y7260D01*
X4950Y7230D02*
X5240D01*
Y6250D02*
X5260Y6270D01*
X4950Y6250D02*
X5240D01*
X5230Y4250D02*
X5250Y4270D01*
X4950Y4250D02*
X5230D01*
D47*
X5481Y5720D02*
X5559D01*
X5500Y5750D02*
X5510Y5740D01*
X5559D01*
X7568Y4372D02*
Y4410D01*
Y4335D02*
Y4372D01*
X7735Y3972D02*
X7772D01*
X7352Y3768D02*
Y3805D01*
Y3730D02*
Y3768D01*
X7168Y4149D02*
X7205D01*
X7130D02*
X7168D01*
X6949Y3740D02*
X6995D01*
X7545Y5810D02*
Y5837D01*
Y5810D02*
X7574D01*
X7517D02*
X7545D01*
Y5783D02*
Y5810D01*
X7345Y3555D02*
X7422D01*
X7545Y5810D02*
X7594D01*
X7424D02*
X7479D01*
X7910Y6368D02*
Y6480D01*
Y6010D02*
Y6132D01*
X6635Y3455D02*
X7025D01*
X7391Y3669D02*
Y3768D01*
X7323Y3600D02*
X7391Y3669D01*
X7170Y3600D02*
X7323D01*
X7025Y3455D02*
X7170Y3600D01*
X6635Y3505D02*
X7015D01*
X7313Y3693D02*
Y3768D01*
X7150Y3640D02*
X7260D01*
X7313Y3693D01*
X7015Y3505D02*
X7150Y3640D01*
X6635Y3555D02*
X7025D01*
X7253Y3733D02*
Y3768D01*
X7138Y3668D02*
X7188D01*
X7253Y3733D01*
X7025Y3555D02*
X7138Y3668D01*
X6635Y3605D02*
X7025D01*
X7120Y3700D02*
X7180D01*
X7234Y3754D01*
X7025Y3605D02*
X7120Y3700D01*
X7165Y3555D02*
X7218D01*
X7140Y3530D02*
X7165Y3555D01*
X7218Y3505D02*
X7285D01*
X7422Y3455D02*
X7495D01*
X7145Y3405D02*
X7218D01*
X7422D02*
X7485D01*
X6630Y3500D02*
X6635Y3505D01*
X8369Y3571D02*
Y3625D01*
Y3571D02*
X8370Y3570D01*
X8315Y3575D02*
X8369D01*
X8265Y3525D02*
X8315Y3575D01*
X8151Y3525D02*
X8265D01*
X8075Y3475D02*
X8151D01*
X7813Y3360D02*
X8635D01*
X8570Y3460D02*
Y3545D01*
X8490Y3380D02*
X8570Y3460D01*
X8023Y3380D02*
X8490D01*
X7897Y3440D02*
Y3557D01*
X7772Y3952D02*
X7898D01*
X7772Y3873D02*
X7847D01*
X7870Y3850D01*
X7667Y3440D02*
Y3547D01*
X8331Y3920D02*
Y3969D01*
X7772Y4070D02*
X7980D01*
X8040Y4010D01*
X8290D01*
X8331Y3969D01*
X8150Y3920D02*
X8220D01*
X8150Y4120D02*
X8331D01*
X6870Y4300D02*
Y4440D01*
X6635Y4565D02*
X6745D01*
X7120Y4050D02*
X7168D01*
X6745Y4565D02*
X6870Y4440D01*
Y4300D02*
X7120Y4050D01*
X7069Y4011D02*
X7168D01*
X6635Y4515D02*
X6755D01*
X6840Y4430D01*
Y4240D02*
Y4430D01*
Y4240D02*
X7069Y4011D01*
X7234Y3754D02*
Y3768D01*
X7352Y3812D02*
X7370Y3830D01*
X7352Y3768D02*
Y3812D01*
X7411Y3729D02*
Y3768D01*
Y3729D02*
X7440Y3700D01*
X7273Y3713D02*
Y3768D01*
X7270Y3710D02*
X7273Y3713D01*
X7310Y3830D02*
X7332Y3808D01*
Y3768D02*
Y3808D01*
X7122Y3932D02*
X7168D01*
X7100Y3910D02*
X7122Y3932D01*
X7218Y3952D02*
X7240Y3930D01*
X7168Y3952D02*
X7218D01*
X7212Y3972D02*
X7220Y3980D01*
X7168Y3972D02*
X7212D01*
X7211Y4149D02*
X7230Y4130D01*
X7168Y4149D02*
X7211D01*
X7228Y4168D02*
X7240Y4180D01*
X7168Y4168D02*
X7228D01*
X7122Y4188D02*
X7168D01*
X7090Y4220D02*
X7122Y4188D01*
X7723Y4227D02*
X7772D01*
X7700Y4250D02*
X7723Y4227D01*
X7708Y4208D02*
X7772D01*
X7700Y4200D02*
X7708Y4208D01*
X7772Y4129D02*
X7829D01*
X7728Y3972D02*
X7772D01*
X7700Y4000D02*
X7728Y3972D01*
X7708Y3932D02*
X7772D01*
X7700Y3940D02*
X7708Y3932D01*
X7833Y3893D02*
X7850Y3910D01*
X7772Y3893D02*
X7833D01*
X7687Y3817D02*
X7704Y3834D01*
X7772D01*
X7700Y3830D02*
X7706Y3824D01*
Y3768D02*
Y3824D01*
X7687Y3768D02*
Y3817D01*
X7560Y3830D02*
X7568Y3822D01*
Y3768D02*
Y3822D01*
X7608Y3682D02*
Y3768D01*
X7588Y3808D02*
X7610Y3830D01*
X7588Y3768D02*
Y3808D01*
X7608Y4372D02*
Y4448D01*
X7588Y4302D02*
Y4372D01*
Y4302D02*
X7590Y4300D01*
X7568Y4338D02*
Y4372D01*
X7530Y4300D02*
X7568Y4338D01*
X7411Y4411D02*
X7430Y4430D01*
X7411Y4372D02*
Y4411D01*
X7963Y3440D02*
X8023Y3380D01*
X8570Y3545D02*
X8730Y3705D01*
X7733Y3440D02*
X7813Y3360D01*
X8635D02*
X8730Y3455D01*
X9400Y4810D02*
Y4750D01*
X9434D01*
X9475Y4790D02*
Y4750D01*
Y4781D02*
X9469Y4787D01*
X9464Y4790D01*
X9455D01*
X9449Y4787D01*
X9444Y4781D01*
X9441Y4773D01*
Y4767D01*
X9444Y4759D01*
X9449Y4753D01*
X9455Y4750D01*
X9464D01*
X9469Y4753D01*
X9475Y4759D01*
X9494Y4790D02*
X9511Y4750D01*
X9528Y4790D02*
X9511Y4750D01*
X9505Y4739D01*
X9500Y4733D01*
X9494Y4730D01*
X9491D01*
X9538Y4773D02*
X9573D01*
Y4779D01*
X9570Y4784D01*
X9567Y4787D01*
X9561Y4790D01*
X9553D01*
X9547Y4787D01*
X9541Y4781D01*
X9538Y4773D01*
Y4767D01*
X9541Y4759D01*
X9547Y4753D01*
X9553Y4750D01*
X9561D01*
X9567Y4753D01*
X9573Y4759D01*
X9585Y4790D02*
Y4750D01*
Y4773D02*
X9588Y4781D01*
X9594Y4787D01*
X9600Y4790D01*
X9608D01*
X9661Y4799D02*
X9667Y4801D01*
X9675Y4810D01*
Y4750D01*
D48*
X5520Y3400D02*
X5520D01*
X5492Y3427D02*
X5520Y3400D01*
X5360Y3390D02*
X5408D01*
X5360Y3390D02*
X5360Y3390D01*
X5520Y3890D02*
X5520D01*
X5492Y3917D02*
X5520Y3890D01*
X5360Y3880D02*
X5408D01*
X5360Y3880D02*
X5360Y3880D01*
X5520Y4380D02*
X5520D01*
X5492Y4407D02*
X5520Y4380D01*
X5360Y4370D02*
X5408D01*
X5360Y4370D02*
X5360Y4370D01*
X5520Y4870D02*
X5520D01*
X5492Y4897D02*
X5520Y4870D01*
X5360Y4860D02*
X5408D01*
X5360Y4860D02*
X5360Y4860D01*
X5520Y5360D02*
X5520D01*
X5492Y5387D02*
X5520Y5360D01*
X5360Y5350D02*
X5408D01*
X5360Y5350D02*
X5360Y5350D01*
X5520Y5890D02*
X5520D01*
X5492Y5917D02*
X5520Y5890D01*
X5360Y5880D02*
X5408D01*
X5360Y5880D02*
X5360Y5880D01*
X5520Y6380D02*
X5520D01*
X5492Y6407D02*
X5520Y6380D01*
X5360Y6370D02*
X5408D01*
X5360Y6370D02*
X5360Y6370D01*
X5520Y6870D02*
X5520D01*
X5492Y6897D02*
X5520Y6870D01*
X5360Y6860D02*
X5408D01*
X5360Y6860D02*
X5360Y6860D01*
X5520Y7360D02*
X5520D01*
X5492Y7387D02*
X5520Y7360D01*
X5360Y7350D02*
X5408D01*
X5360Y7350D02*
X5360Y7350D01*
X5492Y7877D02*
X5520Y7850D01*
X5520D01*
X5360Y7840D02*
X5408D01*
X5360Y7840D02*
X5360Y7840D01*
X6420Y4943D02*
Y4990D01*
X6425Y4765D02*
Y4835D01*
X6420Y4830D02*
Y4877D01*
Y4840D02*
X6425Y4835D01*
X6423Y3250D02*
Y3354D01*
X6425Y3355D01*
X6310Y3250D02*
X6357D01*
X6760Y3740D02*
X6831D01*
X7345Y3271D02*
Y3555D01*
X7495Y3505D02*
X7670Y3330D01*
X7422Y3505D02*
X7495D01*
X6922Y7578D02*
Y7588D01*
X6890Y7620D02*
X6922Y7588D01*
X7030Y7610D02*
Y7610D01*
X6998Y7578D02*
X7030Y7610D01*
X6973Y7527D02*
Y7578D01*
Y7527D02*
X6990Y7510D01*
X6947Y7537D02*
Y7578D01*
X6930Y7520D02*
X6947Y7537D01*
X6861Y7449D02*
X6999D01*
X6786Y7331D02*
X6920D01*
X6770Y7347D02*
X6786Y7331D01*
X6763Y7250D02*
Y7340D01*
X6770Y7413D02*
Y7517D01*
Y7590D02*
X6850Y7670D01*
X6697Y7203D02*
Y7297D01*
X6588Y7452D02*
Y7478D01*
Y7452D02*
X6610Y7430D01*
X6537Y7642D02*
Y7707D01*
X6640Y7650D02*
X6650Y7640D01*
X6563Y7583D02*
Y7642D01*
X6537Y7557D02*
X6563Y7583D01*
X6537Y7478D02*
Y7557D01*
X6603Y7797D02*
Y7800D01*
X6743Y7517D02*
X6770D01*
X6603Y7800D02*
X6682Y7721D01*
Y7578D02*
Y7721D01*
Y7578D02*
X6743Y7517D01*
X6770Y7583D02*
Y7711D01*
X6947Y7707D02*
Y7742D01*
X6950Y7670D02*
X6973Y7693D01*
X6770Y7829D02*
Y7880D01*
X6750Y7900D02*
X6770Y7880D01*
X6973Y7793D02*
X6990Y7810D01*
X6910Y7670D02*
X6947Y7707D01*
X6850Y7670D02*
X6950D01*
X6973Y7693D02*
Y7793D01*
X6808Y6868D02*
Y6932D01*
X6800Y6940D02*
X6808Y6932D01*
D49*
X7595Y5530D02*
X7612D01*
X7595Y5450D02*
X7612D01*
X7579Y5490D02*
X7625D01*
X7373Y5530D02*
X7390D01*
X7355Y5490D02*
X7401D01*
X7373Y5450D02*
X7390D01*
D50*
X8094Y7635D02*
X8535D01*
X8550Y7650D01*
X8090Y7130D02*
X8530D01*
X8550Y7150D01*
X8079Y7650D02*
X8094Y7635D01*
X8070Y7110D02*
X8090Y7130D01*
X7590Y7120D02*
X7741D01*
Y6991D02*
Y7259D01*
X7340Y6940D02*
Y7072D01*
Y7308D02*
Y7512D01*
Y7760D02*
Y7890D01*
X7610Y7650D02*
X7741D01*
Y7539D02*
Y7769D01*
D51*
X8847Y6109D02*
D03*
Y6605D02*
D03*
Y7149D02*
D03*
Y7645D02*
D03*
D52*
X8560Y6109D02*
D03*
Y6275D02*
D03*
Y6605D02*
D03*
Y6440D02*
D03*
Y7149D02*
D03*
Y7315D02*
D03*
Y7645D02*
D03*
Y7480D02*
D03*
D53*
X7390Y5450D02*
D03*
Y5530D02*
D03*
X7450Y5470D02*
D03*
Y5510D02*
D03*
X7490Y5470D02*
D03*
Y5510D02*
D03*
X7530Y5470D02*
D03*
Y5510D02*
D03*
X7595Y5450D02*
D03*
Y5530D02*
D03*
D54*
X8580Y5610D02*
D03*
Y5710D02*
D03*
Y5510D02*
D03*
Y5410D02*
D03*
X8880Y5710D02*
D03*
Y5410D02*
D03*
Y5010D02*
D03*
Y5310D02*
D03*
X8580Y5010D02*
D03*
Y5110D02*
D03*
Y5310D02*
D03*
Y5210D02*
D03*
D55*
X2220Y5050D02*
D03*
X2120D02*
D03*
X2220Y5150D02*
D03*
X2120D02*
D03*
X2220Y5250D02*
D03*
X2120D02*
D03*
X2220Y5350D02*
D03*
X2120D02*
D03*
X2220Y5450D02*
D03*
X2120D02*
D03*
X2220Y5550D02*
D03*
X2120D02*
D03*
X2220Y5650D02*
D03*
X2120D02*
D03*
X2220Y5750D02*
D03*
X2120D02*
D03*
X2220Y5850D02*
D03*
X2120D02*
D03*
X2220Y5950D02*
D03*
X8810Y4500D02*
D03*
X8889D02*
D03*
X8810Y4421D02*
D03*
X8889D02*
D03*
X8810Y4343D02*
D03*
X8889D02*
D03*
X8810Y4264D02*
D03*
X8889D02*
D03*
X8810Y4185D02*
D03*
X8889D02*
D03*
X8810Y4106D02*
D03*
X8889D02*
D03*
X8810Y4028D02*
D03*
X8889D02*
D03*
D56*
X2120Y5950D02*
D03*
D57*
X8750Y8000D02*
D03*
Y3250D02*
D03*
X2250D02*
D03*
Y8000D02*
D03*
D58*
X8790Y3705D02*
D03*
Y3805D02*
D03*
Y3555D02*
D03*
Y3455D02*
D03*
D59*
X5850Y3110D02*
D03*
X5331Y5681D02*
D03*
X5330Y5800D02*
D03*
X5240Y7480D02*
D03*
X6040Y7500D02*
D03*
X6130Y6870D02*
D03*
X6783Y6983D02*
D03*
X6245Y3555D02*
D03*
X6180Y3630D02*
D03*
X5330Y6680D02*
D03*
Y5150D02*
D03*
X5332Y4680D02*
D03*
X5330Y3680D02*
D03*
X5343Y3843D02*
D03*
Y4333D02*
D03*
X5330Y4230D02*
D03*
X5345Y4820D02*
D03*
X5343Y5313D02*
D03*
Y6333D02*
D03*
X5330Y6230D02*
D03*
X5343Y6823D02*
D03*
Y7313D02*
D03*
X5330Y7210D02*
D03*
Y7700D02*
D03*
X5343Y7803D02*
D03*
X6220Y4810D02*
D03*
X6030Y5490D02*
D03*
X5900Y5620D02*
D03*
X6130Y4300D02*
D03*
X5790Y7120D02*
D03*
Y7270D02*
D03*
Y6640D02*
D03*
Y6800D02*
D03*
Y6140D02*
D03*
Y6290D02*
D03*
Y5650D02*
D03*
Y5830D02*
D03*
X5830Y5280D02*
D03*
X5800Y5110D02*
D03*
Y4770D02*
D03*
Y4640D02*
D03*
Y3790D02*
D03*
Y4290D02*
D03*
Y3650D02*
D03*
Y4130D02*
D03*
Y3160D02*
D03*
Y3340D02*
D03*
X5743Y5423D02*
D03*
X5763Y7863D02*
D03*
X5540Y4440D02*
D03*
Y3950D02*
D03*
Y3460D02*
D03*
X5543Y4927D02*
D03*
X5547Y5417D02*
D03*
X5543Y5947D02*
D03*
Y6437D02*
D03*
X5547Y6927D02*
D03*
X5543Y7417D02*
D03*
X5547Y7907D02*
D03*
X5720Y3160D02*
D03*
X5397Y3153D02*
D03*
X5520Y3400D02*
D03*
X5360Y3390D02*
D03*
X5750Y3290D02*
D03*
X5510Y3170D02*
D03*
X5500Y3260D02*
D03*
X5720Y3650D02*
D03*
X5397Y3643D02*
D03*
X5520Y3890D02*
D03*
X5360Y3880D02*
D03*
X5750Y3780D02*
D03*
X5510Y3660D02*
D03*
X5500Y3750D02*
D03*
X5720Y4140D02*
D03*
X5397Y4133D02*
D03*
X5520Y4380D02*
D03*
X5360Y4370D02*
D03*
X5750Y4270D02*
D03*
X5510Y4150D02*
D03*
X5500Y4240D02*
D03*
X5720Y4630D02*
D03*
X5397Y4623D02*
D03*
X5520Y4870D02*
D03*
X5360Y4860D02*
D03*
X5750Y4760D02*
D03*
X5510Y4640D02*
D03*
X5500Y4730D02*
D03*
X5720Y5120D02*
D03*
X5397Y5113D02*
D03*
X5520Y5360D02*
D03*
X5360Y5350D02*
D03*
X5750Y5250D02*
D03*
X5510Y5130D02*
D03*
X5500Y5220D02*
D03*
X5720Y5650D02*
D03*
X5397Y5643D02*
D03*
X5520Y5890D02*
D03*
X5360Y5880D02*
D03*
X5750Y5780D02*
D03*
X5510Y5660D02*
D03*
X5500Y5750D02*
D03*
X5720Y6140D02*
D03*
X5397Y6133D02*
D03*
X5520Y6380D02*
D03*
X5360Y6370D02*
D03*
X5750Y6270D02*
D03*
X5510Y6150D02*
D03*
X5500Y6240D02*
D03*
X5720Y6630D02*
D03*
X5397Y6623D02*
D03*
X5520Y6870D02*
D03*
X5360Y6860D02*
D03*
X5750Y6760D02*
D03*
X5510Y6640D02*
D03*
X5500Y6730D02*
D03*
X5720Y7120D02*
D03*
X5397Y7113D02*
D03*
X5520Y7360D02*
D03*
X5360Y7350D02*
D03*
X5750Y7250D02*
D03*
X5510Y7130D02*
D03*
X5500Y7220D02*
D03*
X5720Y7610D02*
D03*
X5750Y7740D02*
D03*
X5397Y7603D02*
D03*
X5520Y7850D02*
D03*
X5360Y7840D02*
D03*
X5500Y7710D02*
D03*
X5510Y7620D02*
D03*
X6420Y4990D02*
D03*
Y4830D02*
D03*
X6423Y3297D02*
D03*
X6310Y3250D02*
D03*
X7589Y4765D02*
D03*
X7780Y4720D02*
D03*
X8000Y4650D02*
D03*
X8020Y4230D02*
D03*
X8050Y4190D02*
D03*
X7950Y4920D02*
D03*
X3840Y5710D02*
D03*
X3800D02*
D03*
X2490Y5080D02*
D03*
X6760Y3740D02*
D03*
X7345Y3271D02*
D03*
X7670Y3330D02*
D03*
X7594Y5810D02*
D03*
X7424D02*
D03*
X7910Y6480D02*
D03*
Y6010D02*
D03*
X5240Y7000D02*
D03*
X4740Y3260D02*
D03*
X4820Y3520D02*
D03*
X5300Y3730D02*
D03*
Y3800D02*
D03*
X5280Y4230D02*
D03*
X5300Y4330D02*
D03*
Y4650D02*
D03*
X5290Y4770D02*
D03*
X5300Y5200D02*
D03*
X5290Y5300D02*
D03*
X5300Y5710D02*
D03*
Y5820D02*
D03*
X5280Y6230D02*
D03*
Y6310D02*
D03*
X5300Y6710D02*
D03*
X5280Y6780D02*
D03*
X5290Y7220D02*
D03*
Y7310D02*
D03*
X2610Y5130D02*
D03*
X2690Y5230D02*
D03*
X2700Y5180D02*
D03*
X3780Y5200D02*
D03*
X3660Y4990D02*
D03*
X3730Y5420D02*
D03*
X3760Y5450D02*
D03*
X3830Y5750D02*
D03*
X2710Y5100D02*
D03*
X2950Y4490D02*
D03*
X2850Y3980D02*
D03*
X2860Y5040D02*
D03*
X2810D02*
D03*
Y3410D02*
D03*
X2880Y4390D02*
D03*
X3120D02*
D03*
X2870Y4880D02*
D03*
X3120D02*
D03*
X2870Y6390D02*
D03*
X3120D02*
D03*
X2945Y7425D02*
D03*
X3120Y7370D02*
D03*
X3130Y6880D02*
D03*
X2860D02*
D03*
X2461Y5679D02*
D03*
X2626Y5704D02*
D03*
X2710Y5680D02*
D03*
X2869Y5679D02*
D03*
X2590Y5870D02*
D03*
X2690Y6020D02*
D03*
X3000Y6470D02*
D03*
X2780Y5990D02*
D03*
X2950Y6990D02*
D03*
X2900Y7280D02*
D03*
X3780Y4920D02*
D03*
X3853Y5133D02*
D03*
X3940Y3320D02*
D03*
X3760Y3730D02*
D03*
X3837Y3733D02*
D03*
X3930Y3580D02*
D03*
X3970Y4320D02*
D03*
X3830Y4720D02*
D03*
X3750D02*
D03*
X3970Y4570D02*
D03*
X3969Y5061D02*
D03*
X3810Y5400D02*
D03*
X3730Y5380D02*
D03*
X3930Y5230D02*
D03*
X3960Y5590D02*
D03*
X3800Y5980D02*
D03*
X3730Y5940D02*
D03*
X3930Y5780D02*
D03*
X3950Y6310D02*
D03*
X3837Y6703D02*
D03*
X3760Y6700D02*
D03*
X3930Y6550D02*
D03*
X3940Y7280D02*
D03*
X3914Y7676D02*
D03*
X3760Y7690D02*
D03*
X3837Y7677D02*
D03*
X3840Y7520D02*
D03*
X3720Y7420D02*
D03*
Y7270D02*
D03*
X3800Y7070D02*
D03*
Y6900D02*
D03*
Y6820D02*
D03*
X3863Y6563D02*
D03*
X3730Y6420D02*
D03*
X3710Y6290D02*
D03*
X3770Y6080D02*
D03*
X3830Y5790D02*
D03*
X3770Y5500D02*
D03*
X3853Y5243D02*
D03*
X3810Y4950D02*
D03*
Y4880D02*
D03*
Y4810D02*
D03*
X3870Y4570D02*
D03*
X3740Y4440D02*
D03*
Y4290D02*
D03*
X3770Y4090D02*
D03*
X3840Y3900D02*
D03*
Y3840D02*
D03*
Y7470D02*
D03*
X3980Y7430D02*
D03*
X3960Y7210D02*
D03*
X3940Y7120D02*
D03*
Y6840D02*
D03*
X3940Y6740D02*
D03*
X3850Y6490D02*
D03*
X3930D02*
D03*
Y6210D02*
D03*
X3930Y6140D02*
D03*
Y5490D02*
D03*
X3840Y5180D02*
D03*
X3950Y4960D02*
D03*
Y4840D02*
D03*
X3950Y4740D02*
D03*
X7390Y5670D02*
D03*
X7426Y5666D02*
D03*
X7490Y5670D02*
D03*
X7579Y5669D02*
D03*
X7278Y4600D02*
D03*
X7420Y4590D02*
D03*
X7547Y4597D02*
D03*
X7450Y4540D02*
D03*
X7350D02*
D03*
X7250Y4640D02*
D03*
X7220Y5230D02*
D03*
X7291Y5101D02*
D03*
X7480Y5180D02*
D03*
X7360Y5280D02*
D03*
X7451Y5311D02*
D03*
X7719Y5251D02*
D03*
X7790Y5180D02*
D03*
X7601Y5101D02*
D03*
X7490Y5280D02*
D03*
X7554Y5304D02*
D03*
X8090Y4620D02*
D03*
X7650Y4310D02*
D03*
X7560Y4480D02*
D03*
X8090Y4690D02*
D03*
X8197Y4883D02*
D03*
X8270Y5000D02*
D03*
X7777Y5363D02*
D03*
X8217Y5097D02*
D03*
X8250Y5490D02*
D03*
X7840Y5870D02*
D03*
X8130D02*
D03*
X8313Y5773D02*
D03*
X7925Y5395D02*
D03*
Y5755D02*
D03*
X8000Y5760D02*
D03*
X8075Y5395D02*
D03*
X7140Y3530D02*
D03*
X7285Y3505D02*
D03*
X7345Y3555D02*
D03*
X7495Y3455D02*
D03*
X7145Y3405D02*
D03*
X7485D02*
D03*
X6940Y3900D02*
D03*
X7200Y4960D02*
D03*
X7243Y3853D02*
D03*
X7620Y4230D02*
D03*
X7060Y4450D02*
D03*
X7100Y4430D02*
D03*
X7860Y4560D02*
D03*
X7168Y4428D02*
D03*
X7520Y4510D02*
D03*
X7780D02*
D03*
X7640Y4560D02*
D03*
X7720D02*
D03*
X7600Y4830D02*
D03*
X7770Y4780D02*
D03*
X7630Y4900D02*
D03*
X7727Y4823D02*
D03*
X7680Y4890D02*
D03*
X7625Y4995D02*
D03*
X7820Y4950D02*
D03*
X7634Y4944D02*
D03*
X7375Y4995D02*
D03*
X7380Y4790D02*
D03*
X7830Y4640D02*
D03*
X8265Y3525D02*
D03*
X8075Y3475D02*
D03*
X7897Y3557D02*
D03*
X7898Y3952D02*
D03*
X7667Y3547D02*
D03*
X7870Y3850D02*
D03*
X8220Y3920D02*
D03*
X8230Y4120D02*
D03*
X7340Y4450D02*
D03*
X7370Y3830D02*
D03*
X7440Y3700D02*
D03*
X7270Y3710D02*
D03*
X7310Y3830D02*
D03*
X7100Y3910D02*
D03*
X7240Y3930D02*
D03*
X7220Y3980D02*
D03*
X7090Y4040D02*
D03*
X7230Y4130D02*
D03*
X7240Y4180D02*
D03*
X7090Y4220D02*
D03*
X7840Y4300D02*
D03*
X7700Y4250D02*
D03*
Y4200D02*
D03*
X7829Y4129D02*
D03*
X7850Y3980D02*
D03*
X7700Y4000D02*
D03*
Y3940D02*
D03*
X7850Y3910D02*
D03*
X7700Y3830D02*
D03*
X7520Y3680D02*
D03*
X7560Y3830D02*
D03*
X7608Y3682D02*
D03*
X7610Y3830D02*
D03*
X7510Y4450D02*
D03*
X7608Y4448D02*
D03*
X7590Y4300D02*
D03*
X7530D02*
D03*
X7430Y4430D02*
D03*
X7370Y4300D02*
D03*
X7330D02*
D03*
X7250Y4310D02*
D03*
X3230Y7400D02*
D03*
X3409Y7261D02*
D03*
X3680Y7390D02*
D03*
X3635Y7125D02*
D03*
X3110Y7090D02*
D03*
X3310Y7350D02*
D03*
X3250Y7270D02*
D03*
X3603Y7307D02*
D03*
X3540Y7160D02*
D03*
X3466Y7104D02*
D03*
X3210Y7070D02*
D03*
X3310Y7100D02*
D03*
X2719Y7379D02*
D03*
X2860Y7090D02*
D03*
X2750Y7120D02*
D03*
X2680Y7230D02*
D03*
X2730Y7340D02*
D03*
X5177Y7807D02*
D03*
X4233Y7603D02*
D03*
X5030Y7840D02*
D03*
X5260Y7540D02*
D03*
X5040Y7680D02*
D03*
X2680Y7720D02*
D03*
X2719Y7869D02*
D03*
X2730Y7830D02*
D03*
X2750Y7610D02*
D03*
X2860Y7580D02*
D03*
X3110D02*
D03*
X2870Y7860D02*
D03*
X3120D02*
D03*
X3250Y7760D02*
D03*
X3230Y7890D02*
D03*
X3409Y7751D02*
D03*
X3310Y7840D02*
D03*
X3466Y7594D02*
D03*
X3310Y7590D02*
D03*
X3210Y7560D02*
D03*
X3540Y7650D02*
D03*
X3550Y7700D02*
D03*
X3603Y7797D02*
D03*
X3680Y7880D02*
D03*
X3440D02*
D03*
X4107Y7853D02*
D03*
X4610Y7900D02*
D03*
X4713Y7897D02*
D03*
X4660Y7745D02*
D03*
X4602Y7548D02*
D03*
X4660Y7690D02*
D03*
X2370Y7640D02*
D03*
X3635Y7615D02*
D03*
X4233Y7113D02*
D03*
X4107Y7363D02*
D03*
X5030Y7350D02*
D03*
X5040Y7190D02*
D03*
X5177Y7317D02*
D03*
X5260Y7050D02*
D03*
X4610Y7410D02*
D03*
X4713Y7407D02*
D03*
X4660Y7255D02*
D03*
X4660Y7200D02*
D03*
X4602Y7058D02*
D03*
X3786Y7536D02*
D03*
X3670Y7480D02*
D03*
X3440Y7390D02*
D03*
X3860Y7190D02*
D03*
X3800Y7130D02*
D03*
X2300Y7090D02*
D03*
X2860Y6600D02*
D03*
X2750Y6630D02*
D03*
X2680Y6740D02*
D03*
X2730Y6850D02*
D03*
X2719Y6889D02*
D03*
X3440Y6900D02*
D03*
X3680D02*
D03*
X3466Y6614D02*
D03*
X3635Y6635D02*
D03*
X3110Y6600D02*
D03*
X3310Y6860D02*
D03*
X3250Y6780D02*
D03*
X3603Y6817D02*
D03*
X3540Y6670D02*
D03*
X3550Y6720D02*
D03*
X3210Y6580D02*
D03*
X3310Y6610D02*
D03*
X3409Y6771D02*
D03*
X3230Y6910D02*
D03*
X2860Y6110D02*
D03*
X2750Y6140D02*
D03*
X2680Y6250D02*
D03*
X2730Y6360D02*
D03*
X2719Y6399D02*
D03*
X3440Y6410D02*
D03*
X3680D02*
D03*
X3466Y6124D02*
D03*
X3635Y6145D02*
D03*
X3110Y6110D02*
D03*
X3310Y6370D02*
D03*
X3250Y6290D02*
D03*
X3603Y6327D02*
D03*
X3540Y6180D02*
D03*
X3409Y6281D02*
D03*
X3210Y6090D02*
D03*
X3310Y6120D02*
D03*
X3230Y6420D02*
D03*
X4233Y6623D02*
D03*
X4107Y6873D02*
D03*
X5030Y6860D02*
D03*
X5040Y6700D02*
D03*
X5177Y6827D02*
D03*
X5260Y6560D02*
D03*
X4610Y6920D02*
D03*
X4713Y6917D02*
D03*
X4660Y6765D02*
D03*
X4660Y6710D02*
D03*
X4602Y6568D02*
D03*
X4233Y6133D02*
D03*
X4107Y6383D02*
D03*
X5030Y6370D02*
D03*
X5040Y6210D02*
D03*
X5260Y6070D02*
D03*
X4602Y6078D02*
D03*
X4660Y6220D02*
D03*
X4610Y6430D02*
D03*
X4713Y6427D02*
D03*
X4660Y6275D02*
D03*
X3786Y6546D02*
D03*
X3640Y6500D02*
D03*
X3850Y6210D02*
D03*
X3780Y6140D02*
D03*
X2350Y6590D02*
D03*
X2430Y6120D02*
D03*
X2860Y4600D02*
D03*
X2750Y4630D02*
D03*
X2680Y4740D02*
D03*
X2730Y4850D02*
D03*
X2719Y4889D02*
D03*
X2860Y3620D02*
D03*
X2750Y3650D02*
D03*
X2680Y3760D02*
D03*
X2730Y3870D02*
D03*
X2719Y3909D02*
D03*
X2860Y4110D02*
D03*
X2750Y4140D02*
D03*
X2680Y4250D02*
D03*
X2730Y4360D02*
D03*
X2719Y4399D02*
D03*
X2860Y3130D02*
D03*
X2750Y3160D02*
D03*
X2680Y3270D02*
D03*
X2730Y3380D02*
D03*
X2719Y3419D02*
D03*
X3440Y4900D02*
D03*
X3680D02*
D03*
X3466Y4614D02*
D03*
X3635Y4635D02*
D03*
X3110Y4600D02*
D03*
X3310Y4860D02*
D03*
X3250Y4780D02*
D03*
X3603Y4817D02*
D03*
X3540Y4670D02*
D03*
X3550Y4720D02*
D03*
X3210Y4580D02*
D03*
X3310Y4610D02*
D03*
X3409Y4771D02*
D03*
X3230Y4910D02*
D03*
X3440Y3920D02*
D03*
X3680D02*
D03*
X3466Y3634D02*
D03*
X3635Y3655D02*
D03*
X3110Y3620D02*
D03*
X3310Y3880D02*
D03*
X3250Y3800D02*
D03*
X3603Y3837D02*
D03*
X3540Y3690D02*
D03*
X3550Y3740D02*
D03*
X3210Y3600D02*
D03*
X3310Y3630D02*
D03*
X3409Y3791D02*
D03*
X3230Y3930D02*
D03*
X3440Y4410D02*
D03*
X3680D02*
D03*
X3466Y4124D02*
D03*
X3635Y4145D02*
D03*
X3110Y4110D02*
D03*
X3310Y4370D02*
D03*
X3250Y4290D02*
D03*
X3603Y4327D02*
D03*
X3540Y4180D02*
D03*
X3409Y4281D02*
D03*
X3210Y4090D02*
D03*
X3310Y4120D02*
D03*
X3230Y4420D02*
D03*
X3440Y3430D02*
D03*
X3680D02*
D03*
X3466Y3144D02*
D03*
X3635Y3165D02*
D03*
X3110Y3130D02*
D03*
X3310Y3390D02*
D03*
X3250Y3310D02*
D03*
X3603Y3347D02*
D03*
X3540Y3200D02*
D03*
X3409Y3301D02*
D03*
X3210Y3110D02*
D03*
X3310Y3140D02*
D03*
X3230Y3440D02*
D03*
X4233Y4133D02*
D03*
X4107Y4383D02*
D03*
X5030Y4370D02*
D03*
X5040Y4210D02*
D03*
X5177Y4337D02*
D03*
X5260Y4070D02*
D03*
X4610Y4430D02*
D03*
X4713Y4427D02*
D03*
X4660Y4275D02*
D03*
X4660Y4220D02*
D03*
X4602Y4078D02*
D03*
X4233Y4623D02*
D03*
X4107Y4873D02*
D03*
X5030Y4860D02*
D03*
X5040Y4700D02*
D03*
X5177Y4827D02*
D03*
X5260Y4560D02*
D03*
X4610Y4920D02*
D03*
X4713Y4917D02*
D03*
X4660Y4765D02*
D03*
X4660Y4710D02*
D03*
X4602Y4568D02*
D03*
X4233Y3643D02*
D03*
X4107Y3893D02*
D03*
X5030Y3880D02*
D03*
X5040Y3720D02*
D03*
X5177Y3847D02*
D03*
X5260Y3580D02*
D03*
X4610Y3940D02*
D03*
X4713Y3937D02*
D03*
X4660Y3785D02*
D03*
X4660Y3730D02*
D03*
X4602Y3588D02*
D03*
X4233Y3153D02*
D03*
X4107Y3403D02*
D03*
X5030Y3390D02*
D03*
X5040Y3230D02*
D03*
X5177Y3357D02*
D03*
X5260Y3090D02*
D03*
X4610Y3450D02*
D03*
X4713Y3447D02*
D03*
X4660Y3295D02*
D03*
X4660Y3240D02*
D03*
X4602Y3098D02*
D03*
X3796Y4554D02*
D03*
X3650Y4500D02*
D03*
X3830Y3230D02*
D03*
X3770Y3170D02*
D03*
X3760Y3570D02*
D03*
X3670Y3520D02*
D03*
X3860Y4210D02*
D03*
X3790Y4140D02*
D03*
X3420Y5920D02*
D03*
X3660D02*
D03*
X3446Y5634D02*
D03*
X3615Y5655D02*
D03*
X3090Y5620D02*
D03*
X3290Y5880D02*
D03*
X3230Y5800D02*
D03*
X3583Y5837D02*
D03*
X3520Y5690D02*
D03*
X3389Y5791D02*
D03*
X3190Y5600D02*
D03*
X3290Y5630D02*
D03*
X3210Y5930D02*
D03*
X3420Y5390D02*
D03*
X3660D02*
D03*
X3446Y5104D02*
D03*
X3615Y5125D02*
D03*
X3090Y5090D02*
D03*
X3290Y5350D02*
D03*
X3230Y5270D02*
D03*
X3583Y5307D02*
D03*
X3520Y5160D02*
D03*
X3389Y5261D02*
D03*
X3190Y5070D02*
D03*
X3290Y5100D02*
D03*
X3210Y5400D02*
D03*
X4233Y5643D02*
D03*
X4107Y5893D02*
D03*
X5030Y5880D02*
D03*
X5040Y5720D02*
D03*
X5177Y5847D02*
D03*
X5260Y5580D02*
D03*
X4602Y5588D02*
D03*
X4660Y5730D02*
D03*
X4610Y5940D02*
D03*
X4713Y5937D02*
D03*
X4660Y5785D02*
D03*
X4233Y5113D02*
D03*
X4107Y5363D02*
D03*
X5030Y5350D02*
D03*
X5040Y5190D02*
D03*
X5177Y5317D02*
D03*
X5260Y5050D02*
D03*
X4602Y5058D02*
D03*
X4660Y5200D02*
D03*
X4610Y5410D02*
D03*
X4713Y5407D02*
D03*
X4660Y5255D02*
D03*
X2405Y3195D02*
D03*
X2390Y3680D02*
D03*
X2440Y4150D02*
D03*
X2450Y4650D02*
D03*
X3776Y5796D02*
D03*
X3600Y5550D02*
D03*
X3776Y5246D02*
D03*
X3610Y5020D02*
D03*
X6690Y4720D02*
D03*
Y4800D02*
D03*
X6365Y4715D02*
D03*
X6705Y4415D02*
D03*
Y3705D02*
D03*
X6345D02*
D03*
X6355Y3405D02*
D03*
X6705D02*
D03*
X6700Y3340D02*
D03*
X3110Y3900D02*
D03*
X2880D02*
D03*
X2870Y3410D02*
D03*
X3120D02*
D03*
X3888Y3818D02*
D03*
Y3908D02*
D03*
Y4138D02*
D03*
X3890Y4460D02*
D03*
X3898Y4788D02*
D03*
X3900Y4880D02*
D03*
Y4960D02*
D03*
Y5140D02*
D03*
X3878Y5498D02*
D03*
X3880Y5690D02*
D03*
X3878Y6138D02*
D03*
X3890Y6450D02*
D03*
X3888Y6792D02*
D03*
X3890Y6880D02*
D03*
Y7120D02*
D03*
Y7430D02*
D03*
X3940Y3770D02*
D03*
X3940Y3870D02*
D03*
Y4140D02*
D03*
Y4220D02*
D03*
Y4530D02*
D03*
X3870D02*
D03*
X6355Y3605D02*
D03*
X6210Y3400D02*
D03*
X4020Y3080D02*
D03*
X3940Y3160D02*
D03*
Y3240D02*
D03*
X5225Y6300D02*
D03*
X6425Y4385D02*
D03*
X8632Y4552D02*
D03*
X8690Y4340D02*
D03*
X8740D02*
D03*
X8550Y4190D02*
D03*
X7100Y7740D02*
D03*
X7050Y7660D02*
D03*
X6890Y7620D02*
D03*
X7030Y7610D02*
D03*
X6990Y7510D02*
D03*
X6999Y7449D02*
D03*
X6930Y7520D02*
D03*
X6861Y7449D02*
D03*
X6750Y7900D02*
D03*
X6697Y7297D02*
D03*
Y7203D02*
D03*
X6610Y7430D02*
D03*
X6480Y7480D02*
D03*
X6537Y7707D02*
D03*
X6640Y7650D02*
D03*
X6720Y6790D02*
D03*
X6790D02*
D03*
X6800Y6940D02*
D03*
X6710D02*
D03*
X6910Y7030D02*
D03*
X6560Y6800D02*
D03*
X6510Y7750D02*
D03*
X6990Y7810D02*
D03*
D60*
X7770Y3740D02*
D03*
X7570Y3480D02*
D03*
X7110Y3460D02*
D03*
X7020Y3740D02*
D03*
X7741Y7259D02*
D03*
Y6991D02*
D03*
X7590Y7120D02*
D03*
X7340Y6940D02*
D03*
Y7410D02*
D03*
Y7890D02*
D03*
X7741Y7539D02*
D03*
Y7769D02*
D03*
X7610Y7650D02*
D03*
M02*
