INCH,LZ
M48
T1F00S00C0.0135
T2F00S00C0.0180
T3F00S00C0.0200
T4F00S00C0.0350
T5F00S00C0.0354
T6F00S00C0.0394
T7F00S00C0.0400
T8F00S00C0.0709
T9F00S00C0.1000
T10F00S00C0.1260
%
T01
X0526Y0309
X0541Y0311
X0589Y0308
X046022Y030978
X0402Y0308
X0321Y0311
X0311Y0313
X0286
X0275Y0316
X0268Y0327
X0273Y0338
X027192Y034192
X0281Y0341
X0287
X0286Y0362
X0275Y0365
X0268Y0376
X0273Y0387
X027192Y039091
X0288Y039
X0285Y0398
X0286Y0411
X0275Y0414
X0268Y0425
X0273Y0436
X027192Y043991
X0288Y0439
X0295Y0449
X0286Y046
X0275Y0463
X0245Y0465
X0244Y0415
X0239Y0368
X02405Y03195
X0312Y0341
X0311Y0362
Y039
Y0411
X0312Y0439
X0311Y046
X0321Y0458
X0331Y0461
X034656Y046144
X0354Y0467
X036351Y046351
X0365Y045
X0368Y0441
X0374Y0444
Y0429
X036031Y043268
X0354Y0418
X034656Y041244
X0331Y0412
X0321Y0409
X0323Y0393
X0331Y0388
X0325Y038
X034091Y037908
X0344Y0392
X0368
X036031Y038368
X0355Y0374
X0354Y0369
X034656Y036344
X0331Y0363
X0321Y036
X0323Y0344
X0331Y0339
X0325Y0331
X034091Y033008
X0344Y0343
X0368
X0367Y0352
X0376Y0357
X037604Y037296
X038372Y037328
X0384Y0384
Y039
X038884Y039084
Y038184
X039396Y037704
X0394Y0387
X041065Y038935
X042335Y041335
X0394Y0414
X038884Y041384
X0386Y0421
X0394Y0422
X0397Y0432
X041065Y043835
X0389Y0446
X0387Y0453
Y0457
X03796Y04554
X0394Y0453
X0397Y0457
X042335Y046235
X046022Y045678
X0461Y0443
X0466Y04275
X0466Y0422
X046022Y040778
X0461Y0394
X0466Y03785
X0466Y0373
X046022Y035878
X0461Y0345
X0466Y03295
X0466Y0324
X042335Y031535
X0394Y0316
Y0324
X039396Y033204
X0383Y0323
X0377Y0317
X036351Y031651
X0354Y032
X034656Y031444
X0331Y0314
X036031Y033468
X036351Y036551
X0393Y0358
X041065Y034035
X042335Y036435
X0377Y0409
X0379Y0414
X036351Y041451
X034091Y042808
X0344Y0441
X0331Y0437
X0323Y0442
X0325Y0429
X047135Y044265
X0503Y0437
X0504Y0421
X0528Y0423
X0533Y0426
X053765Y043035
X053Y0433
X0533Y0438
X0545Y0435
X0546Y0443
X0545Y0448
X0547Y0451
X0546Y0457
X0544Y0461
X0542Y0466
X0533Y0467
X053Y0465
X0526Y0456
X051765Y043365
X0526Y0407
X0541Y0409
X055Y0391
X055209Y038209
X054122Y037922
X053Y038
Y0373
X0542Y0368
X0544Y0363
X0546Y0359
X0547Y0353
X0545Y035
X0546Y0345
X0545Y0337
X0549Y0331
X0553Y0328
X0556Y0325
X056605Y032605
X056978Y032622
X0579Y0327
X0577Y032206
X058514Y033414
X0598Y0335
X059089Y034211
X0592Y0349
X059395Y035195
X0586Y0368
X0577Y038
X056565Y038465
X0564Y0371
X0571Y0399
X058709Y040609
X059909Y041791
X0598Y0433
X058514Y043214
X0579Y0425
X0577Y042006
X056978Y042422
X056605Y042405
X0556Y0423
X0553Y0426
X0549Y0429
X059089Y044011
X0592Y0447
X059395Y044995
X0586Y0464
X0611Y0463
X0615Y0458
X0618Y0446
X0622Y0449
X0615Y0381
X0606
X0608Y0363
X0618Y0353
X0621Y034
X053765Y033235
X051765Y033565
X0503Y0339
X0504Y0323
X0474Y0326
X047135Y034465
X0482Y0352
X0504Y0372
X0503Y0388
X051765Y038465
X0526Y0358
X047135Y039365
X0631Y0392
X06345Y03705
X06355Y03605
X06315Y03555
X06355Y03505
X06265
X06355Y03405
X0635Y0333
X067Y0334
X06705Y03405
Y03705
X0676Y0374
X0694Y039
X071Y0391
X0709Y0404
Y0422
X0724Y0418
X0723Y0413
X0722Y0398
X0724Y0393
X072435Y038535
X0731Y0383
X0737
X0756
X0761
X077
Y0394
Y04
Y042
Y0425
X0762Y0423
X0759Y043
X0753
X0765Y0431
X076078Y044478
X0756Y0448
X0752Y0451
X0751Y0445
X0743Y0443
X0734Y0445
X0735Y0454
X0745
X0742Y0459
X075465Y045965
X0764Y0456
X0772
X0778Y0451
X072778Y046
X0725Y0464
X071678Y044278
X071Y0443
X0706Y0445
X0725Y0431
X0733Y043
X0737
X0744Y037
X0752Y0368
X076078Y036822
X076665Y035465
X0767Y0333
X07485Y03405
X07495Y03455
X07345Y03555
X07285Y03505
X0714Y0353
X07145Y03405
X07345Y03271
X0727Y0371
X06705Y04415
X06355
X06315Y04515
X06345Y04565
X06355Y04615
X0783Y0464
X0786Y0456
X0784Y043
X078291Y041291
X0785Y0398
Y0391
X0787Y0385
X078981Y039519
X0822Y0392
X0823Y0412
X08265Y03525
X08075Y03475
X078965Y035565
X0809Y0462
Y0469
X081965Y048835
X0827Y05
X082165Y050965
X0825Y0549
X08075Y05395
X07925
Y05755
X08Y0576
X0813Y0587
X083135Y057735
X0784Y0587
X0791Y0601
X0782Y0495
X07634Y04944
X0763Y049
X0768Y0489
X077265Y048235
X0777Y0478
X076Y0483
X076248Y049952
X076009Y051009
X0748Y0518
X0749Y0528
X074514Y053114
X075538Y053038
X0753Y0547
X0749
X0745
Y0551
X0749
X0753
X0749Y0567
X074258Y056658
X0739Y0567
X07424Y0581
X07594
X075794Y056694
X077765Y053635
X077191Y052509
X0779Y0518
X0736Y0528
X0722Y0523
X072909Y051009
X073752Y049952
X0738Y0479
X072Y0496
X0669Y048
Y0472
X06365Y04715
X0637Y0479
X0635Y0485
Y0523
X064247Y051947
X066353
X06705Y05535
X067Y0558
X0636Y056
X06365Y05535
X0628Y0559
X0633Y0567
X0628Y054
X0619Y0543
X0613Y0555
X0609Y056
Y057
X0587Y0564
X0577Y0576
X056565Y058065
X0564Y0567
X055209Y057809
X055Y0587
X054122Y057522
X0533Y0578
X053Y0582
Y0571
X0533Y0566
X0542Y0564
X0544Y0559
X0546Y0555
X0547Y0549
X0545Y0546
X0546Y0541
X0545Y0533
X0549Y0527
X0553Y0524
X0556Y0521
X056605Y052205
X056978Y052222
X0579Y0523
X0577Y051806
X058609Y051491
X059991
X0598Y0531
X058514Y053014
X059089Y053811
X0592Y0545
X059395Y054795
X0597Y0597
Y0623
X060491Y061591
X0577Y062006
X056978Y062422
X056605Y062405
X0556Y0623
X0528
X0526Y0607
X0541Y0609
X051765Y058465
X0503Y0588
X0504Y0572
X0526Y0558
X0529Y053
X0533Y0534
X053765Y052835
X0533Y0523
X053Y052
X0526Y0505
X0541Y0507
X055Y0489
X055209Y048009
X054122Y047722
X0533Y048
X0529Y0477
X051765Y048265
X0503Y0486
X0504Y047
Y0519
X0503Y0535
X051765Y053165
X047135Y054065
Y049165
Y059365
X0504Y0621
X056565Y048265
X0564Y0469
X0577Y0478
X0593Y0496
X0611Y0472
X0466Y0471
X0466Y04765
X0461Y0492
X046022Y050578
X0466Y052
X0466Y05255
X0461Y0541
X046022Y055878
X0466Y0573
X0466Y05785
X0461Y0594
X046022Y060778
X0466Y0622
X042335Y061335
X039296Y061396
X038784Y061384
X0385Y0621
X0393
X0378Y0614
X0377Y0608
X038Y0598
X0373Y0594
X0366Y0592
X035831Y058369
X0352Y0569
X034456Y056344
X0329Y0563
X0319Y056
X0321Y054
X0329Y0535
X0323Y0527
X033891Y052608
X0342Y0539
X0366
X0373Y0538
Y0542
X0376Y0545
X0377Y055
X038784Y054984
X039296Y054896
X0396Y0559
X0388Y0569
X0384Y0571
X038
X0383Y0575
Y0579
X03776Y05796
X0393Y0578
X041065Y058935
X042335Y056435
X041065Y053635
X0393Y0523
X038528Y052428
X0384Y0518
X038528Y051328
X039Y0514
X039689Y050611
X0395Y0496
X039
Y0488
X0381
X0378Y0492
X0381Y0495
Y0481
X0383Y0472
X0375
X0355
X036031Y048169
X0368Y049
X0366Y0499
X0361Y0502
X036151Y051251
X0352Y0516
X034456Y051044
X0329Y051
X0319Y0507
X0323Y0491
X0331Y0486
X0325Y0478
X034091Y047709
X0344Y049
X035831Y053068
X03776Y05246
X0378Y052
X0381Y054
X036Y0555
X036151Y056551
X033891Y057909
X0342Y0592
X0329Y0588
X0321Y0593
X0323Y058
X0321Y0609
X0331Y0612
X034656Y061244
X0354Y0618
X036351Y061451
X0395Y0484
X039496Y047396
X038984Y047884
X041065Y048735
X042335Y051135
X0309Y0509
X0312Y0488
X0287
X027192Y048892
X0273Y0485
X0268Y0474
X0271Y051
X027Y0518
X0269Y0523
X0261Y0513
X0249Y0508
X0281Y0504
X0286
X028688Y056788
X0271Y0568
X026256Y057044
X024612Y056788
X0259Y0587
X0269Y0602
X0278Y0599
X0275Y0614
X0286Y0611
X0311
X0309Y0562
X0243Y0612
X0268Y0625
X0273Y0636
X027192Y063991
X0287Y0639
X03Y0647
X0312Y0639
X0311Y066
X0286
X0275Y0663
X0268Y0674
X0273Y0685
X027192Y068892
X0286Y0688
X0295Y0699
X0286Y0709
X0275Y0712
X0268Y0723
X0273Y0734
X027192Y073791
X0275Y0761
X0286Y0758
X029449Y074251
X029Y0728
X0312Y0737
X0311Y0758
Y0709
X023
X0235Y0659
X0237Y0764
X0268Y0772
X0325Y0776
X034091Y077509
X0355Y077
X0354Y0765
X034656Y075944
X0331Y0759
X0321Y0756
X0323Y074
X0331Y0735
X0325Y0727
X034091Y072608
X0344Y0739
X0368
X0372Y0742
X0367Y0748
X036351Y076151
X037604Y076896
X038372Y076772
X03914Y07676
X0384Y0752
Y0747
X0389Y0743
X0398
X0394Y0728
X0396Y0721
X0394Y0712
X0389
X0386Y0719
X038Y0713
Y0707
Y069
Y0682
X038884Y067916
X0389Y0688
X0394Y0684
X039396Y067404
X038372Y067028
X037604Y066996
X03786Y06546
X038628Y065628
X0393Y0655
Y0649
X0385
X0389Y0645
X0373Y0642
X0368Y0641
X0364Y065
X036351Y066351
X0354Y0667
X0355Y0672
X036031Y068169
X0368Y069
X0344
X034091Y067709
X0325Y0678
X0331Y0686
X0323Y0691
X0313Y0688
X0321Y0707
X0331Y071
X034656Y071044
X0354Y0716
X036351Y071251
X036031Y073068
X0372Y0727
X03786Y07536
X036031Y077969
X042335Y076035
X041065Y073635
X042335Y071135
X041065Y068735
X042335Y066235
X041065Y063835
X0395Y0631
X0371Y0629
X036031Y063268
X034091Y062808
X0344Y0641
X0331Y0637
X0323Y0642
X0325Y0629
X0321Y0658
X0331Y0661
X034656Y066144
X046022Y065678
X0461Y0643
X0466Y06275
X0466Y0671
X0466Y06765
X0461Y0692
X046022Y070578
X0466Y072
X0466Y07255
X0461Y0741
X046022Y075478
X0466Y0769
X0466Y07745
X047135Y074065
X0503Y0735
X0504Y0719
X051765Y073165
X0529Y0731
X0533Y0735
X053765Y072835
X0533Y0723
X0529Y0722
X0526Y0705
X0524Y07
X0538Y0703
X0541Y0707
X055Y0689
X055209Y068009
X054122Y067722
X0533Y0678
X0528
X053Y0671
X0533Y0668
X0542Y0666
X0544Y0661
X0546Y0657
X0547Y0651
X0545Y0648
X0546Y0643
X0545Y0635
X0549Y0629
X0553Y0626
X053765Y063035
X0533Y0627
X0528Y0631
X0533Y0637
X051765Y063365
X0503Y0637
X0504Y067
X0503Y0686
X051765Y068265
X0526Y0656
X0564Y0669
X056565Y068265
X0577Y0678
X0583Y0683
X0588Y0664
X059395Y064995
X0592Y0647
X059089Y064011
X058514Y063214
X0579Y0625
X0598Y0633
X0613Y0635
X0616Y0656
X0613Y0662
X0609Y0672
X0607Y0683
X0608Y0704
X0606Y0713
X0598Y0731
X058514Y073014
X0579Y0723
X0577Y071806
X056978Y072222
X056605Y072205
X0556Y0721
X0553Y0724
X0549Y0727
X0545Y0733
X0546Y0741
X0545Y0746
X0547Y0749
X0546Y0755
X0544Y0759
X0542Y0764
X0533Y0767
Y0776
X054122Y077522
X055209Y077809
X056565Y078065
X0564Y0767
X0577Y0776
X0592Y0762
X059395Y074795
X0592Y0745
X059089Y073811
X0613Y074
Y0759
X0526Y0754
X051765Y078065
X0504Y0768
X047135Y069165
Y064265
X0628Y0652
X0633Y0658
X06384Y0678
X0648Y06852
X064849Y066851
X066774Y068826
X0682Y0689
X068351Y068349
Y067251
X069Y0678
X0689Y0701
X0682Y0716
X0677Y0712
X067148Y070948
X0669Y0722
X067Y0729
X0658Y0736
X0641Y0721
X063802Y070402
X0663Y0763
X0675Y0768
Y0756
X0791Y0648
X0674Y0786
X0663Y0792
X055Y0787
X0503Y0784
X047135Y078965
X0461Y079
X041065Y078535
X0368Y0788
X0344
X0331Y0784
X0323Y0789
X0312Y0786
X0287
X027192Y078692
X0273Y0783
T02
X0739Y0545
Y0553
X07595
Y0545
T03
X0711Y0346
X0702Y0374
X0777
X0757Y0348
X0759Y0712
X07741Y06991
Y07259
Y07539
Y07769
X0761Y0765
X0734Y0741
Y0694
Y0789
T04
X0873Y034548
Y03555
Y03705
Y038052
T05
X0212Y0505
X0222
Y0515
X0212
Y0525
X0222
Y0535
X0212
Y0545
X0222
Y0555
X0212
Y0565
X0222
Y0575
X0212
Y0585
X0222
Y0595
X0212
T06
X088113Y0403
Y041087
Y041875
Y042662
Y04345
Y044237
Y045024
X0889
Y044237
Y04345
Y042662
Y041875
Y041087
Y0403
T07
X0858Y0501
Y0511
Y0521
Y0531
Y0541
Y0551
Y0561
Y0571
X0888
Y0541
Y0531
Y0501
T08
X0856Y061093
Y062746
Y0644
Y066054
Y071493
Y073146
Y0748
Y076454
T09
X0225Y0325
X0875
Y08
X0225
T10
X088474Y061093
Y066054
Y071493
Y076454
M30
