%FSLAX24Y24*%
%MOIN*%
G70*
G01*
G75*
%ADD10R,0.0866X0.0236*%
%ADD11R,0.0409X0.0150*%
%ADD12R,0.0236X0.0866*%
%ADD13R,0.0433X0.0394*%
%ADD14R,0.0787X0.0472*%
%ADD15R,0.0866X0.0236*%
%ADD16R,0.0591X0.0512*%
%ADD17R,0.0480X0.0169*%
%ADD18O,0.0480X0.0169*%
%ADD19R,0.1024X0.1614*%
%ADD20R,0.0394X0.0236*%
%ADD21R,0.1240X0.1360*%
%ADD22R,0.0315X0.1417*%
%ADD23R,0.0709X0.0630*%
%ADD24R,0.0394X0.0433*%
%ADD25R,0.0551X0.0236*%
%ADD26O,0.0409X0.0150*%
%ADD27R,0.0630X0.0709*%
%ADD28R,0.0512X0.0591*%
%ADD29R,0.0610X0.0236*%
%ADD30R,0.0150X0.0409*%
%ADD31O,0.0150X0.0409*%
%ADD32C,0.0160*%
%ADD33C,0.0100*%
%ADD34C,0.0300*%
%ADD35C,0.0200*%
%ADD36C,0.0120*%
%ADD37C,0.0591*%
%ADD38R,0.0591X0.0591*%
%ADD39C,0.0750*%
%ADD40C,0.0700*%
%ADD41C,0.0866*%
%ADD42C,0.1575*%
%ADD43C,0.0591*%
%ADD44C,0.0250*%
%ADD45C,0.0080*%
%ADD46C,0.0098*%
%ADD47C,0.0079*%
%ADD48C,0.0070*%
%ADD49C,0.0039*%
%ADD50C,0.0020*%
%ADD51R,0.0197X0.0079*%
%ADD52R,0.0157X0.0197*%
%ADD53R,0.0079X0.0197*%
%ADD54R,0.0197X0.0079*%
%ADD55R,0.0197X0.0157*%
D47*
X63738Y65354D02*
X64309D01*
X63738Y64646D02*
X64309D01*
Y65354D01*
X62891Y64646D02*
Y65354D01*
X63462D01*
X62891Y64646D02*
X63462D01*
X63091Y62246D02*
X63662D01*
X63091Y62954D02*
X63662D01*
X63091Y62246D02*
Y62954D01*
X64509Y62246D02*
Y62954D01*
X63938Y62246D02*
X64509D01*
X63938Y62954D02*
X64509D01*
X52138Y61354D02*
X52709D01*
X52138Y60646D02*
X52709D01*
Y61354D01*
X51291Y60646D02*
Y61354D01*
X51862D01*
X51291Y60646D02*
X51862D01*
X52138Y63754D02*
X52709D01*
X52138Y63046D02*
X52709D01*
Y63754D01*
X51291Y63046D02*
Y63754D01*
X51862D01*
X51291Y63046D02*
X51862D01*
X40246Y62738D02*
Y63309D01*
X40954Y62738D02*
Y63309D01*
X40246D02*
X40954D01*
X40246Y61891D02*
X40954D01*
X40246D02*
Y62462D01*
X40954Y61891D02*
Y62462D01*
X42446Y64138D02*
Y64709D01*
X43154Y64138D02*
Y64709D01*
X42446D02*
X43154D01*
X42446Y63291D02*
X43154D01*
X42446D02*
Y63862D01*
X43154Y63291D02*
Y63862D01*
X34338Y63954D02*
X34909D01*
X34338Y63246D02*
X34909D01*
Y63954D01*
X33491Y63246D02*
Y63954D01*
X34062D01*
X33491Y63246D02*
X34062D01*
X34338Y62354D02*
X34909D01*
X34338Y61646D02*
X34909D01*
Y62354D01*
X33491Y61646D02*
Y62354D01*
X34062D01*
X33491Y61646D02*
X34062D01*
X34338Y43954D02*
X34909D01*
X34338Y43246D02*
X34909D01*
Y43954D01*
X33491Y43246D02*
Y43954D01*
X34062D01*
X33491Y43246D02*
X34062D01*
X34338Y42354D02*
X34909D01*
X34338Y41646D02*
X34909D01*
Y42354D01*
X33491Y41646D02*
Y42354D01*
X34062D01*
X33491Y41646D02*
X34062D01*
X33491Y78846D02*
X34062D01*
X33491Y79554D02*
X34062D01*
X33491Y78846D02*
Y79554D01*
X34909Y78846D02*
Y79554D01*
X34338Y78846D02*
X34909D01*
X34338Y79554D02*
X34909D01*
X33491Y80446D02*
X34062D01*
X33491Y81154D02*
X34062D01*
X33491Y80446D02*
Y81154D01*
X34909Y80446D02*
Y81154D01*
X34338Y80446D02*
X34909D01*
X34338Y81154D02*
X34909D01*
X40646Y43538D02*
Y44109D01*
X41354Y43538D02*
Y44109D01*
X40646D02*
X41354D01*
X40646Y42691D02*
X41354D01*
X40646D02*
Y43262D01*
X41354Y42691D02*
Y43262D01*
X38246Y42738D02*
Y43309D01*
X38954Y42738D02*
Y43309D01*
X38246D02*
X38954D01*
X38246Y41891D02*
X38954D01*
X38246D02*
Y42462D01*
X38954Y41891D02*
Y42462D01*
X46938Y79654D02*
X47509D01*
X46938Y78946D02*
X47509D01*
Y79654D01*
X46091Y78946D02*
Y79654D01*
X46662D01*
X46091Y78946D02*
X46662D01*
X46938Y77254D02*
X47509D01*
X46938Y76546D02*
X47509D01*
Y77254D01*
X46091Y76546D02*
Y77254D01*
X46662D01*
X46091Y76546D02*
X46662D01*
X51838Y43854D02*
X52409D01*
X51838Y43146D02*
X52409D01*
Y43854D01*
X50991Y43146D02*
Y43854D01*
X51562D01*
X50991Y43146D02*
X51562D01*
X51838Y41454D02*
X52409D01*
X51838Y40746D02*
X52409D01*
Y41454D01*
X50991Y40746D02*
Y41454D01*
X51562D01*
X50991Y40746D02*
X51562D01*
X58691Y78846D02*
X59262D01*
X58691Y79554D02*
X59262D01*
X58691Y78846D02*
Y79554D01*
X60109Y78846D02*
Y79554D01*
X59538Y78846D02*
X60109D01*
X59538Y79554D02*
X60109D01*
X59338Y81954D02*
X59909D01*
X59338Y81246D02*
X59909D01*
Y81954D01*
X58491Y81246D02*
Y81954D01*
X59062D01*
X58491Y81246D02*
X59062D01*
X63991Y41946D02*
X64562D01*
X63991Y42654D02*
X64562D01*
X63991Y41946D02*
Y42654D01*
X65409Y41946D02*
Y42654D01*
X64838Y41946D02*
X65409D01*
X64838Y42654D02*
X65409D01*
X64638Y45054D02*
X65209D01*
X64638Y44346D02*
X65209D01*
Y45054D01*
X63791Y44346D02*
Y45054D01*
X64362D01*
X63791Y44346D02*
X64362D01*
X41246Y81138D02*
Y81709D01*
X41954Y81138D02*
Y81709D01*
X41246D02*
X41954D01*
X41246Y80291D02*
X41954D01*
X41246D02*
Y80862D01*
X41954Y80291D02*
Y80862D01*
X38846Y79938D02*
Y80509D01*
X39554Y79938D02*
Y80509D01*
X38846D02*
X39554D01*
X38846Y79091D02*
X39554D01*
X38846D02*
Y79662D01*
X39554Y79091D02*
Y79662D01*
D50*
X63377Y63004D02*
Y63063D01*
X63554Y63063D01*
Y63004D01*
X63377Y63004D01*
X63393Y63020D02*
X63393Y63046D01*
X63538D01*
X63538Y63020D01*
X63393D01*
X63410Y63028D02*
X63521Y63038D01*
X63377Y62137D02*
Y62196D01*
X63554Y62196D01*
Y62137D01*
X63377Y62137D01*
X63393Y62154D02*
X63393Y62180D01*
X63538D01*
X63538Y62154D01*
X63393D01*
X63410Y62162D02*
X63521Y62172D01*
X58977Y79604D02*
Y79663D01*
X59154Y79663D01*
Y79604D01*
X58977Y79604D01*
X58993Y79620D02*
X58993Y79646D01*
X59138D01*
X59138Y79620D01*
X58993D01*
X59010Y79628D02*
X59121Y79638D01*
X58977Y78737D02*
Y78796D01*
X59154Y78796D01*
Y78737D01*
X58977Y78737D01*
X58993Y78754D02*
X58993Y78780D01*
X59138D01*
X59138Y78754D01*
X58993D01*
X59010Y78762D02*
X59121Y78772D01*
X64277Y42704D02*
Y42763D01*
X64454Y42763D01*
Y42704D01*
X64277Y42704D01*
X64293Y42720D02*
X64293Y42746D01*
X64438D01*
X64438Y42720D01*
X64293D01*
X64310Y42728D02*
X64421Y42738D01*
X64277Y41837D02*
Y41896D01*
X64454Y41896D01*
Y41837D01*
X64277Y41837D01*
X64293Y41854D02*
X64293Y41880D01*
X64438D01*
X64438Y41854D01*
X64293D01*
X64310Y41862D02*
X64421Y41872D01*
D51*
X63935Y64567D02*
D03*
Y65433D02*
D03*
X52335Y60567D02*
D03*
Y61433D02*
D03*
X52335Y62967D02*
D03*
Y63833D02*
D03*
X34535Y63167D02*
D03*
Y64033D02*
D03*
Y61567D02*
D03*
Y62433D02*
D03*
X34535Y43167D02*
D03*
Y44033D02*
D03*
Y41567D02*
D03*
Y42433D02*
D03*
Y79633D02*
D03*
Y78767D02*
D03*
Y81233D02*
D03*
Y80367D02*
D03*
X47135Y78867D02*
D03*
Y79733D02*
D03*
Y76467D02*
D03*
Y77333D02*
D03*
X52035Y43067D02*
D03*
Y43933D02*
D03*
Y40667D02*
D03*
Y41533D02*
D03*
X59535Y81167D02*
D03*
Y82033D02*
D03*
X64835Y44267D02*
D03*
Y45133D02*
D03*
D53*
X41033Y62265D02*
D03*
X40167D02*
D03*
X43233Y63665D02*
D03*
X42367Y63665D02*
D03*
X41433Y43735D02*
D03*
X40567Y43735D02*
D03*
X39033Y42935D02*
D03*
X38167D02*
D03*
X42033Y81335D02*
D03*
X41167D02*
D03*
X39633Y80135D02*
D03*
X38767D02*
D03*
M02*
