INCH,LZ
M48
T1F00S00C0.0135
T2F00S00C0.0350
T3F00S00C0.0354
T4F00S00C0.0500
T5F00S00C0.0520
T6F00S00C0.0650
T7F00S00C0.0709
T8F00S00C0.1260
%
T01
X0326Y041
X033865Y042335
X0334Y0436
X0324Y0446
X035Y044
X0356Y043
X035Y0416
X038Y0428
X0391Y0423
X0423Y0425
X0428Y0421
X044Y0432
X044956Y042944
X045126Y044174
X041565Y043735
X04155Y04325
X0509Y0433
X0505Y0426
X0516Y0422
X0511Y0416
X0524Y0413
X052132Y043032
X0536Y043
X053926Y044926
X055374
X056726
X0597Y0441
X0624Y0393
X0643Y0417
X0649
X067089Y041789
X067Y0435
Y0445
X0654Y0438
X0648Y0452
X0644Y0452
X0647Y0457
X0634Y0452
X0703Y0445
Y0435
X0669Y0393
Y0473
X0627
X063519Y049819
X063481Y052181
X063Y0534
Y0579
X0634Y062
X064
X066215Y062115
X066Y0596
X06751Y05711
Y05459
X0652Y0508
X0615Y0596
X0527Y0612
X0514Y0615
X0519Y0621
X046368Y061832
X04Y0622
X035Y0616
X033865Y062335
X0326Y061
X0334Y0636
X0324Y0646
X035Y064
X037426Y065174
X0412Y063
X0422Y0636
X043135Y064335
X0446Y0656
X045856Y064544
X046112Y062912
X0462Y0774
X0467Y078
X0475Y0771
X0571Y0762
X0616
X0618Y0676
X0588Y0644
X057026Y064826
X055674
X054226
X0539Y0629
X052432Y062931
X0512Y0632
X0508Y0625
X0625Y0655
X0635Y0655
X0639Y0655
X0638Y066
X0645Y0641
X0648Y0636
X0661Y0638
Y0648
X066Y0664
Y0676
X0694Y0648
X068935Y063335
X06785Y07255
X07135Y07355
X074648Y074748
X0768Y074
X0748Y0719
Y07
X0734Y0699
X0651Y0804
X065Y0814
X0617
Y0804
Y0787
X0596Y0786
X059
X0601Y0807
X0595Y0821
X0591Y0821
X0594Y0826
X0581Y0821
X0574Y0842
X0616
X0544Y081
X051826Y080726
X050474
X049026
X0487Y0788
X047231Y078832
X046Y0791
X0456Y0784
X0421Y0807
X042065Y081335
X03855Y07995
X039248Y079048
X035Y0788
X033865Y079535
X0334Y0808
X0324Y0818
X035Y0812
X0326Y0782
T02
X0396Y0656
X0426Y0771
X0525Y0788
T03
X0462Y0422
X0472
X0507Y0449
X0517
X0527
Y0459
X0517
X0507
X051Y0648
Y0658
X052
Y0648
X053
Y0658
X0484
X0474
X0478Y0807
Y0817
X0468
Y0807
X0458
Y0817
T04
X02675Y0442
Y0642
Y081
T05
X0333Y0329
Y0379
X0383
Y0329
X0358Y0354
X0437Y0379
Y0329
X0462Y0354
X0487Y0379
Y0329
X0549Y0331
Y0381
X0599
Y0331
X0574Y0356
X0729Y0401
Y0451
X0779
Y0401
X0754Y0426
X0769Y0603
X0719
X0579Y0581
X0529
X0485
Y0531
X0529
X0579
X0554Y0556
X046
X0435Y0581
X0387
X0337
Y0531
X0387
X0435
X0362Y0556
X0425Y0689
Y0739
X045Y0714
X0475Y0739
X0509
X0559
Y0689
X0509
X0475
X0534Y0714
X0703Y0773
X0753
X0769Y0653
X0744Y0628
X0719Y0653
X0728Y0798
X0753Y0823
X0703
T06
X0215Y0427
X025
X02525Y0457
X0235
X025Y0627
X02525Y0657
X0235
X0215Y0627
Y0795
X025
X02525Y0825
X0235
T07
X0732Y050893
Y052546
Y0542
Y055854
T08
X076074Y050893
Y055854
M30
