%FSLAX24Y24*%
%MOIN*%
G70*
G01*
G75*
%ADD10R,0.0866X0.0236*%
%ADD11R,0.0409X0.0150*%
%ADD12R,0.0236X0.0866*%
%ADD13R,0.0433X0.0394*%
%ADD14R,0.0787X0.0472*%
%ADD15R,0.0866X0.0236*%
%ADD16R,0.0591X0.0512*%
%ADD17R,0.0480X0.0169*%
%ADD18O,0.0480X0.0169*%
%ADD19R,0.1024X0.1614*%
%ADD20R,0.0394X0.0236*%
%ADD21R,0.1240X0.1360*%
%ADD22R,0.0315X0.1417*%
%ADD23R,0.0709X0.0630*%
%ADD24R,0.0394X0.0433*%
%ADD25R,0.0551X0.0236*%
%ADD26O,0.0409X0.0150*%
%ADD27R,0.0630X0.0709*%
%ADD28R,0.0512X0.0591*%
%ADD29R,0.0610X0.0236*%
%ADD30R,0.0150X0.0409*%
%ADD31O,0.0150X0.0409*%
%ADD32C,0.0160*%
%ADD33C,0.0100*%
%ADD34C,0.0300*%
%ADD35C,0.0200*%
%ADD36C,0.0120*%
%ADD37C,0.0591*%
%ADD38R,0.0591X0.0591*%
%ADD39C,0.0750*%
%ADD40C,0.0700*%
%ADD41C,0.0866*%
%ADD42C,0.1575*%
%ADD43C,0.0591*%
%ADD44C,0.0250*%
%ADD45C,0.0080*%
%ADD46C,0.0098*%
%ADD47C,0.0079*%
%ADD48C,0.0070*%
%ADD49C,0.0039*%
%ADD50C,0.0020*%
%ADD51R,0.0197X0.0079*%
%ADD52R,0.0157X0.0197*%
%ADD53R,0.0079X0.0197*%
%ADD54R,0.0197X0.0079*%
%ADD55R,0.0197X0.0157*%
D33*
X20000Y59200D02*
Y69200D01*
Y59200D02*
X28250D01*
Y69200D01*
X20000D02*
X28250D01*
X20000Y60825D02*
X20375D01*
X20500Y60950D01*
Y67075D01*
X20375Y67200D02*
X20500Y67075D01*
X20000Y67200D02*
X20375D01*
X58850Y52150D02*
Y59050D01*
X51950Y52150D02*
X58850D01*
X51950D02*
Y59050D01*
X58850D01*
X49450Y52150D02*
Y59050D01*
X42550Y52150D02*
X49450D01*
X42550D02*
Y59050D01*
X49450D01*
X39650Y52150D02*
Y59050D01*
X32750Y52150D02*
X39650D01*
X32750D02*
Y59050D01*
X39650D01*
X78850Y39150D02*
Y46050D01*
X71950Y39150D02*
X78850D01*
X71950D02*
Y46050D01*
X78850D01*
X20000Y39200D02*
Y49200D01*
Y39200D02*
X28250D01*
Y49200D01*
X20000D02*
X28250D01*
X20000Y40825D02*
X20375D01*
X20500Y40950D01*
Y47075D01*
X20375Y47200D02*
X20500Y47075D01*
X20000Y47200D02*
X20375D01*
X60850Y32150D02*
Y39050D01*
X53950Y32150D02*
X60850D01*
X53950D02*
Y39050D01*
X60850D01*
X39250Y31950D02*
Y38850D01*
X32350Y31950D02*
X39250D01*
X32350D02*
Y38850D01*
X39250D01*
X49650Y31950D02*
Y38850D01*
X42750Y31950D02*
X49650D01*
X42750D02*
Y38850D01*
X49650D01*
X76250Y76350D02*
Y83250D01*
X69350Y76350D02*
X76250D01*
X69350D02*
Y83250D01*
X76250D01*
X20000Y76000D02*
Y86000D01*
Y76000D02*
X28250D01*
Y86000D01*
X20000D02*
X28250D01*
X20000Y77625D02*
X20375D01*
X20500Y77750D01*
Y83875D01*
X20375Y84000D02*
X20500Y83875D01*
X20000Y84000D02*
X20375D01*
X56850Y67950D02*
Y74850D01*
X49950Y67950D02*
X56850D01*
X49950D02*
Y74850D01*
X56850D01*
X48450Y67950D02*
Y74850D01*
X41550Y67950D02*
X48450D01*
X41550D02*
Y74850D01*
X48450D01*
X71830Y49800D02*
Y50800D01*
X66570Y49800D02*
X71830D01*
X66570D02*
Y51800D01*
X71830D01*
Y50800D02*
Y51800D01*
X61386Y52811D02*
X62606D01*
X61386Y49583D02*
Y52811D01*
Y49583D02*
X61780Y49189D01*
X61780D02*
X62606D01*
X63394D02*
X64220D01*
X64654Y49622D01*
Y52811D01*
X63394D02*
X64654D01*
X73948Y49830D02*
X78791D01*
Y56917D01*
X73948D02*
X78791D01*
X73948Y49830D02*
Y56917D01*
X61386Y57411D02*
X62606D01*
X61386Y54183D02*
Y57411D01*
Y54183D02*
X61780Y53789D01*
X61780D02*
X62606D01*
X63394D02*
X64220D01*
X64654Y54222D01*
Y57411D01*
X63394D02*
X64654D01*
X71830Y54800D02*
Y55800D01*
X66570Y54800D02*
X71830D01*
X66570D02*
Y56800D01*
X71830D01*
Y55800D02*
Y56800D01*
X70950Y66250D02*
X77850D01*
X70950Y59350D02*
Y66250D01*
Y59350D02*
X77850D01*
Y66250D01*
D36*
X63486Y34800D02*
X63143Y35700D01*
X62800Y34800D01*
X62929Y35100D02*
X63357D01*
X63696Y35400D02*
Y34800D01*
Y35228D02*
X63824Y35357D01*
X63910Y35400D01*
X64038D01*
X64124Y35357D01*
X64167Y35228D01*
Y34800D01*
X64917Y35400D02*
Y34800D01*
Y35271D02*
X64831Y35357D01*
X64745Y35400D01*
X64617D01*
X64531Y35357D01*
X64445Y35271D01*
X64403Y35143D01*
Y35057D01*
X64445Y34929D01*
X64531Y34843D01*
X64617Y34800D01*
X64745D01*
X64831Y34843D01*
X64917Y34929D01*
X65157Y35700D02*
Y34800D01*
X65559Y35400D02*
X65474Y35357D01*
X65388Y35271D01*
X65345Y35143D01*
Y35057D01*
X65388Y34929D01*
X65474Y34843D01*
X65559Y34800D01*
X65688D01*
X65774Y34843D01*
X65859Y34929D01*
X65902Y35057D01*
Y35143D01*
X65859Y35271D01*
X65774Y35357D01*
X65688Y35400D01*
X65559D01*
X66613D02*
Y34714D01*
X66571Y34586D01*
X66528Y34543D01*
X66442Y34500D01*
X66314D01*
X66228Y34543D01*
X66613Y35271D02*
X66528Y35357D01*
X66442Y35400D01*
X66314D01*
X66228Y35357D01*
X66142Y35271D01*
X66099Y35143D01*
Y35057D01*
X66142Y34929D01*
X66228Y34843D01*
X66314Y34800D01*
X66442D01*
X66528Y34843D01*
X66613Y34929D01*
X67860Y35700D02*
Y34800D01*
X67560Y35700D02*
X68160D01*
X68267Y35143D02*
X68782D01*
Y35228D01*
X68739Y35314D01*
X68696Y35357D01*
X68610Y35400D01*
X68482D01*
X68396Y35357D01*
X68310Y35271D01*
X68267Y35143D01*
Y35057D01*
X68310Y34929D01*
X68396Y34843D01*
X68482Y34800D01*
X68610D01*
X68696Y34843D01*
X68782Y34929D01*
X69446Y35271D02*
X69403Y35357D01*
X69274Y35400D01*
X69146D01*
X69017Y35357D01*
X68974Y35271D01*
X69017Y35186D01*
X69103Y35143D01*
X69317Y35100D01*
X69403Y35057D01*
X69446Y34971D01*
Y34929D01*
X69403Y34843D01*
X69274Y34800D01*
X69146D01*
X69017Y34843D01*
X68974Y34929D01*
X69763Y35700D02*
Y34971D01*
X69806Y34843D01*
X69891Y34800D01*
X69977D01*
X69634Y35400D02*
X69934D01*
X70813Y35700D02*
Y34800D01*
Y35700D02*
X71198D01*
X71327Y35657D01*
X71370Y35614D01*
X71412Y35528D01*
Y35443D01*
X71370Y35357D01*
X71327Y35314D01*
X71198Y35271D01*
X70813D02*
X71198D01*
X71327Y35228D01*
X71370Y35186D01*
X71412Y35100D01*
Y34971D01*
X71370Y34886D01*
X71327Y34843D01*
X71198Y34800D01*
X70813D01*
X71828Y35400D02*
X71742Y35357D01*
X71657Y35271D01*
X71614Y35143D01*
Y35057D01*
X71657Y34929D01*
X71742Y34843D01*
X71828Y34800D01*
X71957D01*
X72042Y34843D01*
X72128Y34929D01*
X72171Y35057D01*
Y35143D01*
X72128Y35271D01*
X72042Y35357D01*
X71957Y35400D01*
X71828D01*
X72882D02*
Y34800D01*
Y35271D02*
X72796Y35357D01*
X72711Y35400D01*
X72582D01*
X72496Y35357D01*
X72411Y35271D01*
X72368Y35143D01*
Y35057D01*
X72411Y34929D01*
X72496Y34843D01*
X72582Y34800D01*
X72711D01*
X72796Y34843D01*
X72882Y34929D01*
X73122Y35400D02*
Y34800D01*
Y35143D02*
X73165Y35271D01*
X73251Y35357D01*
X73336Y35400D01*
X73465D01*
X74060Y35700D02*
Y34800D01*
Y35271D02*
X73975Y35357D01*
X73889Y35400D01*
X73761D01*
X73675Y35357D01*
X73589Y35271D01*
X73546Y35143D01*
Y35057D01*
X73589Y34929D01*
X73675Y34843D01*
X73761Y34800D01*
X73889D01*
X73975Y34843D01*
X74060Y34929D01*
X75050Y35486D02*
Y35528D01*
X75093Y35614D01*
X75136Y35657D01*
X75222Y35700D01*
X75393D01*
X75479Y35657D01*
X75522Y35614D01*
X75564Y35528D01*
Y35443D01*
X75522Y35357D01*
X75436Y35228D01*
X75007Y34800D01*
X75607D01*
D45*
X53800Y66000D02*
X53633D01*
X53717D01*
Y65500D01*
X53800Y65583D01*
X53667Y65000D02*
X54000D01*
X53667Y64667D01*
Y64583D01*
X53750Y64500D01*
X53917D01*
X54000Y64583D01*
X50067Y65500D02*
X50400D01*
Y65750D01*
X50233Y65667D01*
X50150D01*
X50067Y65750D01*
Y65917D01*
X50150Y66000D01*
X50317D01*
X50400Y65917D01*
X50067Y64500D02*
X50233Y64583D01*
X50400Y64750D01*
Y64917D01*
X50317Y65000D01*
X50150D01*
X50067Y64917D01*
Y64833D01*
X50150Y64750D01*
X50400D01*
X53500Y46100D02*
X53333D01*
X53417D01*
Y45600D01*
X53500Y45683D01*
X53367Y45100D02*
X53700D01*
X53367Y44767D01*
Y44683D01*
X53450Y44600D01*
X53617D01*
X53700Y44683D01*
X49767Y45600D02*
X50100D01*
Y45850D01*
X49933Y45767D01*
X49850D01*
X49767Y45850D01*
Y46017D01*
X49850Y46100D01*
X50017D01*
X50100Y46017D01*
X49767Y44600D02*
X49933Y44683D01*
X50100Y44850D01*
Y45017D01*
X50017Y45100D01*
X49850D01*
X49767Y45017D01*
Y44933D01*
X49850Y44850D01*
X50100D01*
X48600Y81900D02*
X48433D01*
X48517D01*
Y81400D01*
X48600Y81483D01*
X48467Y80900D02*
X48800D01*
X48467Y80567D01*
Y80483D01*
X48550Y80400D01*
X48717D01*
X48800Y80483D01*
X44867Y81400D02*
X45200D01*
Y81650D01*
X45033Y81567D01*
X44950D01*
X44867Y81650D01*
Y81817D01*
X44950Y81900D01*
X45117D01*
X45200Y81817D01*
X44867Y80400D02*
X45033Y80483D01*
X45200Y80650D01*
Y80817D01*
X45117Y80900D01*
X44950D01*
X44867Y80817D01*
Y80733D01*
X44950Y80650D01*
X45200D01*
D46*
X62215Y62776D02*
G03*
X62215Y62776I-49J0D01*
G01*
X57815Y79376D02*
G03*
X57815Y79376I-49J0D01*
G01*
X63115Y42476D02*
G03*
X63115Y42476I-49J0D01*
G01*
X32626Y81085D02*
G03*
X32626Y81085I-49J0D01*
G01*
X70811Y71715D02*
G03*
X70811Y71715I-49J0D01*
G01*
X40698Y64285D02*
G03*
X40698Y64285I-49J0D01*
G01*
X32626Y43885D02*
G03*
X32626Y43885I-49J0D01*
G01*
Y63885D02*
G03*
X32626Y63885I-49J0D01*
G01*
X38698Y44085D02*
G03*
X38698Y44085I-49J0D01*
G01*
X39298Y81285D02*
G03*
X39298Y81285I-49J0D01*
G01*
D47*
X62278Y63656D02*
G03*
X62278Y63944I0J144D01*
G01*
X57878Y80256D02*
G03*
X57878Y80544I0J144D01*
G01*
X63178Y43356D02*
G03*
X63178Y43644I0J144D01*
G01*
X33456Y80984D02*
G03*
X33744Y80984I144J0D01*
G01*
X75747Y73810D02*
G03*
X75560Y73810I-93J0D01*
G01*
X69843Y71796D02*
G03*
X69357Y71796I-243J0D01*
G01*
X41570Y64184D02*
G03*
X42030Y64184I230J0D01*
G01*
X33456Y43784D02*
G03*
X33744Y43784I144J0D01*
G01*
X33456Y63784D02*
G03*
X33744Y63784I144J0D01*
G01*
X39570Y43984D02*
G03*
X40030Y43984I230J0D01*
G01*
X40170Y81184D02*
G03*
X40630Y81184I230J0D01*
G01*
X61338Y61646D02*
X61909D01*
X61338Y62354D02*
X61909D01*
Y61646D02*
Y62354D01*
X60491Y61646D02*
Y62354D01*
Y61646D02*
X61062D01*
X60491Y62354D02*
X61062D01*
X59738Y63046D02*
X60309D01*
X59738Y63754D02*
X60309D01*
Y63046D02*
Y63754D01*
X58891Y63046D02*
Y63754D01*
Y63046D02*
X59462D01*
X58891Y63754D02*
X59462D01*
X60491Y63354D02*
X61062D01*
X60491Y62646D02*
X61062D01*
X60491D02*
Y63354D01*
X61909Y62646D02*
Y63354D01*
X61338D02*
X61909D01*
X61338Y62646D02*
X61909D01*
X56091Y79954D02*
X56662D01*
X56091Y79246D02*
X56662D01*
X56091D02*
Y79954D01*
X57509Y79246D02*
Y79954D01*
X56938D02*
X57509D01*
X56938Y79246D02*
X57509D01*
X61391Y43054D02*
X61962D01*
X61391Y42346D02*
X61962D01*
X61391D02*
Y43054D01*
X62809Y42346D02*
Y43054D01*
X62238D02*
X62809D01*
X62238Y42346D02*
X62809D01*
X62091Y66354D02*
X62662D01*
X62091Y65646D02*
X62662D01*
X62091D02*
Y66354D01*
X63509Y65646D02*
Y66354D01*
X62938D02*
X63509D01*
X62938Y65646D02*
X63509D01*
X57691Y82954D02*
X58262D01*
X57691Y82246D02*
X58262D01*
X57691D02*
Y82954D01*
X59109Y82246D02*
Y82954D01*
X58538D02*
X59109D01*
X58538Y82246D02*
X59109D01*
X62991Y46054D02*
X63562D01*
X62991Y45346D02*
X63562D01*
X62991D02*
Y46054D01*
X64409Y45346D02*
Y46054D01*
X63838D02*
X64409D01*
X63838Y45346D02*
X64409D01*
X66291Y65154D02*
X66862D01*
X66291Y64446D02*
X66862D01*
X66291D02*
Y65154D01*
X67709Y64446D02*
Y65154D01*
X67138D02*
X67709D01*
X67138Y64446D02*
X67709D01*
X61891Y81754D02*
X62462D01*
X61891Y81046D02*
X62462D01*
X61891D02*
Y81754D01*
X63309Y81046D02*
Y81754D01*
X62738D02*
X63309D01*
X62738Y81046D02*
X63309D01*
X67191Y44854D02*
X67762D01*
X67191Y44146D02*
X67762D01*
X67191D02*
Y44854D01*
X68609Y44146D02*
Y44854D01*
X68038D02*
X68609D01*
X68038Y44146D02*
X68609D01*
X65538Y61046D02*
X66109D01*
X65538Y61754D02*
X66109D01*
Y61046D02*
Y61754D01*
X64691Y61046D02*
Y61754D01*
Y61046D02*
X65262D01*
X64691Y61754D02*
X65262D01*
X61138Y77646D02*
X61709D01*
X61138Y78354D02*
X61709D01*
Y77646D02*
Y78354D01*
X60291Y77646D02*
Y78354D01*
Y77646D02*
X60862D01*
X60291Y78354D02*
X60862D01*
X66438Y40746D02*
X67009D01*
X66438Y41454D02*
X67009D01*
Y40746D02*
Y41454D01*
X65591Y40746D02*
Y41454D01*
Y40746D02*
X66162D01*
X65591Y41454D02*
X66162D01*
X63138Y61046D02*
X63709D01*
X63138Y61754D02*
X63709D01*
Y61046D02*
Y61754D01*
X62291Y61046D02*
Y61754D01*
Y61046D02*
X62862D01*
X62291Y61754D02*
X62862D01*
X58738Y77646D02*
X59309D01*
X58738Y78354D02*
X59309D01*
Y77646D02*
Y78354D01*
X57891Y77646D02*
Y78354D01*
Y77646D02*
X58462D01*
X57891Y78354D02*
X58462D01*
X64038Y40746D02*
X64609D01*
X64038Y41454D02*
X64609D01*
Y40746D02*
Y41454D01*
X63191Y40746D02*
Y41454D01*
Y40746D02*
X63762D01*
X63191Y41454D02*
X63762D01*
X58891Y64754D02*
X59462D01*
X58891Y64046D02*
X59462D01*
X58891D02*
Y64754D01*
X60309Y64046D02*
Y64754D01*
X59738D02*
X60309D01*
X59738Y64046D02*
X60309D01*
X54491Y81354D02*
X55062D01*
X54491Y80646D02*
X55062D01*
X54491D02*
Y81354D01*
X55909Y80646D02*
Y81354D01*
X55338D02*
X55909D01*
X55338Y80646D02*
X55909D01*
X59791Y44454D02*
X60362D01*
X59791Y43746D02*
X60362D01*
X59791D02*
Y44454D01*
X61209Y43746D02*
Y44454D01*
X60638D02*
X61209D01*
X60638Y43746D02*
X61209D01*
X68738Y64446D02*
X69309D01*
X68738Y65154D02*
X69309D01*
Y64446D02*
Y65154D01*
X67891Y64446D02*
Y65154D01*
Y64446D02*
X68462D01*
X67891Y65154D02*
X68462D01*
X64338Y81046D02*
X64909D01*
X64338Y81754D02*
X64909D01*
Y81046D02*
Y81754D01*
X63491Y81046D02*
Y81754D01*
Y81046D02*
X64062D01*
X63491Y81754D02*
X64062D01*
X69638Y44146D02*
X70209D01*
X69638Y44854D02*
X70209D01*
Y44146D02*
Y44854D01*
X68791Y44146D02*
Y44854D01*
Y44146D02*
X69362D01*
X68791Y44854D02*
X69362D01*
X68738Y63446D02*
X69309D01*
X68738Y64154D02*
X69309D01*
Y63446D02*
Y64154D01*
X67891Y63446D02*
Y64154D01*
Y63446D02*
X68462D01*
X67891Y64154D02*
X68462D01*
X64338Y80046D02*
X64909D01*
X64338Y80754D02*
X64909D01*
Y80046D02*
Y80754D01*
X63491Y80046D02*
Y80754D01*
Y80046D02*
X64062D01*
X63491Y80754D02*
X64062D01*
X69638Y43146D02*
X70209D01*
X69638Y43854D02*
X70209D01*
Y43146D02*
Y43854D01*
X68791Y43146D02*
Y43854D01*
Y43146D02*
X69362D01*
X68791Y43854D02*
X69362D01*
X59738Y62046D02*
X60309D01*
X59738Y62754D02*
X60309D01*
Y62046D02*
Y62754D01*
X58891Y62046D02*
Y62754D01*
Y62046D02*
X59462D01*
X58891Y62754D02*
X59462D01*
X55338Y78646D02*
X55909D01*
X55338Y79354D02*
X55909D01*
Y78646D02*
Y79354D01*
X54491Y78646D02*
Y79354D01*
Y78646D02*
X55062D01*
X54491Y79354D02*
X55062D01*
X60638Y41746D02*
X61209D01*
X60638Y42454D02*
X61209D01*
Y41746D02*
Y42454D01*
X59791Y41746D02*
Y42454D01*
Y41746D02*
X60362D01*
X59791Y42454D02*
X60362D01*
X61338Y65046D02*
X61909D01*
X61338Y65754D02*
X61909D01*
Y65046D02*
Y65754D01*
X60491Y65046D02*
Y65754D01*
Y65046D02*
X61062D01*
X60491Y65754D02*
X61062D01*
X56938Y81646D02*
X57509D01*
X56938Y82354D02*
X57509D01*
Y81646D02*
Y82354D01*
X56091Y81646D02*
Y82354D01*
Y81646D02*
X56662D01*
X56091Y82354D02*
X56662D01*
X62238Y44746D02*
X62809D01*
X62238Y45454D02*
X62809D01*
Y44746D02*
Y45454D01*
X61391Y44746D02*
Y45454D01*
Y44746D02*
X61962D01*
X61391Y45454D02*
X61962D01*
X67138Y65446D02*
X67709D01*
X67138Y66154D02*
X67709D01*
Y65446D02*
Y66154D01*
X66291Y65446D02*
Y66154D01*
Y65446D02*
X66862D01*
X66291Y66154D02*
X66862D01*
X62738Y82046D02*
X63309D01*
X62738Y82754D02*
X63309D01*
Y82046D02*
Y82754D01*
X61891Y82046D02*
Y82754D01*
Y82046D02*
X62462D01*
X61891Y82754D02*
X62462D01*
X68038Y45146D02*
X68609D01*
X68038Y45854D02*
X68609D01*
Y45146D02*
Y45854D01*
X67191Y45146D02*
Y45854D01*
Y45146D02*
X67762D01*
X67191Y45854D02*
X67762D01*
X66291Y63154D02*
X66862D01*
X66291Y62446D02*
X66862D01*
X66291D02*
Y63154D01*
X67709Y62446D02*
Y63154D01*
X67138D02*
X67709D01*
X67138Y62446D02*
X67709D01*
X61891Y79754D02*
X62462D01*
X61891Y79046D02*
X62462D01*
X61891D02*
Y79754D01*
X63309Y79046D02*
Y79754D01*
X62738D02*
X63309D01*
X62738Y79046D02*
X63309D01*
X67191Y42854D02*
X67762D01*
X67191Y42146D02*
X67762D01*
X67191D02*
Y42854D01*
X68609Y42146D02*
Y42854D01*
X68038D02*
X68609D01*
X68038Y42146D02*
X68609D01*
X54491Y80354D02*
X55062D01*
X54491Y79646D02*
X55062D01*
X54491D02*
Y80354D01*
X55909Y79646D02*
Y80354D01*
X55338D02*
X55909D01*
X55338Y79646D02*
X55909D01*
X59791Y43454D02*
X60362D01*
X59791Y42746D02*
X60362D01*
X59791D02*
Y43454D01*
X61209Y42746D02*
Y43454D01*
X60638D02*
X61209D01*
X60638Y42746D02*
X61209D01*
X56091Y78954D02*
X56662D01*
X56091Y78246D02*
X56662D01*
X56091D02*
Y78954D01*
X57509Y78246D02*
Y78954D01*
X56938D02*
X57509D01*
X56938Y78246D02*
X57509D01*
X61391Y42054D02*
X61962D01*
X61391Y41346D02*
X61962D01*
X61391D02*
Y42054D01*
X62809Y41346D02*
Y42054D01*
X62238D02*
X62809D01*
X62238Y41346D02*
X62809D01*
X61338Y63846D02*
X61909D01*
X61338Y64554D02*
X61909D01*
Y63846D02*
Y64554D01*
X60491Y63846D02*
Y64554D01*
Y63846D02*
X61062D01*
X60491Y64554D02*
X61062D01*
X56938Y80446D02*
X57509D01*
X56938Y81154D02*
X57509D01*
Y80446D02*
Y81154D01*
X56091Y80446D02*
Y81154D01*
Y80446D02*
X56662D01*
X56091Y81154D02*
X56662D01*
X62238Y43546D02*
X62809D01*
X62238Y44254D02*
X62809D01*
Y43546D02*
Y44254D01*
X61391Y43546D02*
Y44254D01*
Y43546D02*
X61962D01*
X61391Y44254D02*
X61962D01*
X58891Y65754D02*
X59462D01*
X58891Y65046D02*
X59462D01*
X58891D02*
Y65754D01*
X60309Y65046D02*
Y65754D01*
X59738D02*
X60309D01*
X59738Y65046D02*
X60309D01*
X54491Y82354D02*
X55062D01*
X54491Y81646D02*
X55062D01*
X54491D02*
Y82354D01*
X55909Y81646D02*
Y82354D01*
X55338D02*
X55909D01*
X55338Y81646D02*
X55909D01*
X59791Y45454D02*
X60362D01*
X59791Y44746D02*
X60362D01*
X59791D02*
Y45454D01*
X61209Y44746D02*
Y45454D01*
X60638D02*
X61209D01*
X60638Y44746D02*
X61209D01*
X63891Y66354D02*
X64462D01*
X63891Y65646D02*
X64462D01*
X63891D02*
Y66354D01*
X65309Y65646D02*
Y66354D01*
X64738D02*
X65309D01*
X64738Y65646D02*
X65309D01*
X59491Y82954D02*
X60062D01*
X59491Y82246D02*
X60062D01*
X59491D02*
Y82954D01*
X60909Y82246D02*
Y82954D01*
X60338D02*
X60909D01*
X60338Y82246D02*
X60909D01*
X64791Y46054D02*
X65362D01*
X64791Y45346D02*
X65362D01*
X64791D02*
Y46054D01*
X66209Y45346D02*
Y46054D01*
X65638D02*
X66209D01*
X65638Y45346D02*
X66209D01*
X68738Y65446D02*
X69309D01*
X68738Y66154D02*
X69309D01*
Y65446D02*
Y66154D01*
X67891Y65446D02*
Y66154D01*
Y65446D02*
X68462D01*
X67891Y66154D02*
X68462D01*
X64338Y82046D02*
X64909D01*
X64338Y82754D02*
X64909D01*
Y82046D02*
Y82754D01*
X63491Y82046D02*
Y82754D01*
Y82046D02*
X64062D01*
X63491Y82754D02*
X64062D01*
X69638Y45146D02*
X70209D01*
X69638Y45854D02*
X70209D01*
Y45146D02*
Y45854D01*
X68791Y45146D02*
Y45854D01*
Y45146D02*
X69362D01*
X68791Y45854D02*
X69362D01*
X66291Y64154D02*
X66862D01*
X66291Y63446D02*
X66862D01*
X66291D02*
Y64154D01*
X67709Y63446D02*
Y64154D01*
X67138D02*
X67709D01*
X67138Y63446D02*
X67709D01*
X61891Y80754D02*
X62462D01*
X61891Y80046D02*
X62462D01*
X61891D02*
Y80754D01*
X63309Y80046D02*
Y80754D01*
X62738D02*
X63309D01*
X62738Y80046D02*
X63309D01*
X67191Y43854D02*
X67762D01*
X67191Y43146D02*
X67762D01*
X67191D02*
Y43854D01*
X68609Y43146D02*
Y43854D01*
X68038D02*
X68609D01*
X68038Y43146D02*
X68609D01*
X67138Y61046D02*
X67709D01*
X67138Y61754D02*
X67709D01*
Y61046D02*
Y61754D01*
X66291Y61046D02*
Y61754D01*
Y61046D02*
X66862D01*
X66291Y61754D02*
X66862D01*
X62738Y77646D02*
X63309D01*
X62738Y78354D02*
X63309D01*
Y77646D02*
Y78354D01*
X61891Y77646D02*
Y78354D01*
Y77646D02*
X62462D01*
X61891Y78354D02*
X62462D01*
X68038Y40746D02*
X68609D01*
X68038Y41454D02*
X68609D01*
Y40746D02*
Y41454D01*
X67191Y40746D02*
Y41454D01*
Y40746D02*
X67762D01*
X67191Y41454D02*
X67762D01*
X62278Y63367D02*
Y63656D01*
Y63944D02*
Y64233D01*
X65722Y63367D02*
Y64233D01*
X62278Y63367D02*
X65722D01*
X62278Y64233D02*
X65722D01*
X57878Y79967D02*
Y80256D01*
Y80544D02*
Y80833D01*
X61322Y79967D02*
Y80833D01*
X57878Y79967D02*
X61322D01*
X57878Y80833D02*
X61322D01*
X63178Y43067D02*
Y43356D01*
Y43644D02*
Y43933D01*
X66622Y43067D02*
Y43933D01*
X63178Y43067D02*
X66622D01*
X63178Y43933D02*
X66622D01*
X32694Y81406D02*
X34702D01*
X32694Y82194D02*
X34702D01*
Y81406D02*
Y82194D01*
X33167Y80984D02*
X33456D01*
X33744D02*
X34033D01*
X33167Y79016D02*
X34033D01*
X33167D02*
Y80984D01*
X34033Y79016D02*
Y80984D01*
X30747Y79213D02*
Y79843D01*
X31653Y79213D02*
Y79843D01*
X30747Y79213D02*
X31653D01*
X30747Y80787D02*
X31653D01*
X30747Y80157D02*
Y80787D01*
X31653Y80157D02*
Y80787D01*
X32698Y78594D02*
X34706D01*
X32698Y77806D02*
X34706D01*
X32698D02*
Y78594D01*
X51094Y63206D02*
X53102D01*
X51094Y63994D02*
X53102D01*
Y63206D02*
Y63994D01*
X50894Y60406D02*
X52902D01*
X50894Y61194D02*
X52902D01*
Y60406D02*
Y61194D01*
X57147Y64413D02*
Y65043D01*
X58053Y64413D02*
Y65043D01*
X57147Y64413D02*
X58053D01*
X57147Y65987D02*
X58053D01*
X57147Y65357D02*
Y65987D01*
X58053Y65357D02*
Y65987D01*
X55747Y64413D02*
Y65043D01*
X56653Y64413D02*
Y65043D01*
X55747Y64413D02*
X56653D01*
X55747Y65987D02*
X56653D01*
X55747Y65357D02*
Y65987D01*
X56653Y65357D02*
Y65987D01*
X54347Y64413D02*
Y65043D01*
X55253Y64413D02*
Y65043D01*
X54347Y64413D02*
X55253D01*
X54347Y65987D02*
X55253D01*
X54347Y65357D02*
Y65987D01*
X55253Y65357D02*
Y65987D01*
X50500Y66300D02*
X52417D01*
X50500D02*
X53500D01*
X50500Y64300D02*
X53500D01*
Y66300D01*
X50500Y64300D02*
Y66300D01*
X65529Y58635D02*
Y60565D01*
X61868D02*
X65529D01*
X61868Y58635D02*
X65529D01*
X65729Y66635D02*
Y68565D01*
X62068D02*
X65729D01*
X62068Y66635D02*
X65729D01*
X75870Y73818D02*
Y74940D01*
X75430Y74930D02*
X75870D01*
X75430Y73820D02*
Y74942D01*
X75432Y73810D02*
X75500D01*
X75802D02*
X75870D01*
X72888Y74624D02*
X73912D01*
X72888Y72576D02*
X73912D01*
Y73324D01*
X72888Y72576D02*
Y73324D01*
X73912Y73876D02*
Y74624D01*
X72888Y73876D02*
Y74624D01*
X74446Y72091D02*
Y72662D01*
X75154Y72091D02*
Y72662D01*
X74446Y72091D02*
X75154D01*
X74446Y73509D02*
X75154D01*
X74446Y72938D02*
Y73509D01*
X75154Y72938D02*
Y73509D01*
X69843Y71796D02*
X70328D01*
X68872D02*
X69357D01*
X68872Y73804D02*
X70328D01*
Y71796D02*
Y73804D01*
X68872Y71796D02*
Y73804D01*
X72888Y72024D02*
X73912D01*
X72888Y69976D02*
X73912D01*
Y70724D01*
X72888Y69976D02*
Y70724D01*
X73912Y71276D02*
Y72024D01*
X72888Y71276D02*
Y72024D01*
X74446Y70091D02*
Y70662D01*
X75154Y70091D02*
Y70662D01*
X74446Y70091D02*
X75154D01*
X74446Y71509D02*
X75154D01*
X74446Y70938D02*
Y71509D01*
X75154Y70938D02*
Y71509D01*
X37076Y42512D02*
X37824D01*
X37076Y41488D02*
X37824D01*
X35776Y42512D02*
X36524D01*
X35776Y41488D02*
X36524D01*
X35776D02*
Y42512D01*
X37824Y41488D02*
Y42512D01*
X36957Y42947D02*
X37587D01*
X36957Y43853D02*
X37587D01*
Y42947D02*
Y43853D01*
X36013Y42947D02*
Y43853D01*
Y42947D02*
X36643D01*
X36013Y43853D02*
X36643D01*
X47700Y41700D02*
Y42700D01*
X45700Y41700D02*
X47700D01*
X45700D02*
Y42700D01*
X47700D01*
X45547Y43013D02*
Y43643D01*
X46453Y43013D02*
Y43643D01*
X45547Y43013D02*
X46453D01*
X45547Y44587D02*
X46453D01*
X45547Y43957D02*
Y44587D01*
X46453Y43957D02*
Y44587D01*
X38176Y60488D02*
X38924D01*
X38176Y61512D02*
X38924D01*
X39476Y60488D02*
X40224D01*
X39476Y61512D02*
X40224D01*
Y60488D02*
Y61512D01*
X38176Y60488D02*
Y61512D01*
X41013Y65853D02*
X41643D01*
X41013Y64947D02*
X41643D01*
X41013D02*
Y65853D01*
X42587Y64947D02*
Y65853D01*
X41957D02*
X42587D01*
X41957Y64947D02*
X42587D01*
X41111Y64184D02*
X41570D01*
X42030D02*
X42489D01*
X41111Y62216D02*
X42489D01*
X41111D02*
Y64184D01*
X42489Y62216D02*
Y64184D01*
X37976Y62688D02*
X38724D01*
X37976Y63712D02*
X38724D01*
X39276Y62688D02*
X40024D01*
X39276Y63712D02*
X40024D01*
Y62688D02*
Y63712D01*
X37976Y62688D02*
Y63712D01*
X35576Y62688D02*
X36324D01*
X35576Y63712D02*
X36324D01*
X36876Y62688D02*
X37624D01*
X36876Y63712D02*
X37624D01*
Y62688D02*
Y63712D01*
X35576Y62688D02*
Y63712D01*
X37747Y64013D02*
Y64643D01*
X38653Y64013D02*
Y64643D01*
X37747Y64013D02*
X38653D01*
X37747Y65587D02*
X38653D01*
X37747Y64957D02*
Y65587D01*
X38653Y64957D02*
Y65587D01*
X48900Y65300D02*
Y66300D01*
X46900Y65300D02*
X48900D01*
X46900D02*
Y66300D01*
X48900D01*
X45757Y65147D02*
X46387D01*
X45757Y66053D02*
X46387D01*
Y65147D02*
Y66053D01*
X44813Y65147D02*
Y66053D01*
Y65147D02*
X45443D01*
X44813Y66053D02*
X45443D01*
X33167Y43784D02*
X33456D01*
X33744D02*
X34033D01*
X33167Y41816D02*
X34033D01*
X33167D02*
Y43784D01*
X34033Y41816D02*
Y43784D01*
X33167Y63784D02*
X33456D01*
X33744D02*
X34033D01*
X33167Y61816D02*
X34033D01*
X33167D02*
Y63784D01*
X34033Y61816D02*
Y63784D01*
X30747Y42013D02*
Y42643D01*
X31653Y42013D02*
Y42643D01*
X30747Y42013D02*
X31653D01*
X30747Y43587D02*
X31653D01*
X30747Y42957D02*
Y43587D01*
X31653Y42957D02*
Y43587D01*
X30747Y62013D02*
Y62643D01*
X31653Y62013D02*
Y62643D01*
X30747Y62013D02*
X31653D01*
X30747Y63587D02*
X31653D01*
X30747Y62957D02*
Y63587D01*
X31653Y62957D02*
Y63587D01*
X56847Y44513D02*
Y45143D01*
X57753Y44513D02*
Y45143D01*
X56847Y44513D02*
X57753D01*
X56847Y46087D02*
X57753D01*
X56847Y45457D02*
Y46087D01*
X57753Y45457D02*
Y46087D01*
X51947Y80313D02*
Y80943D01*
X52853Y80313D02*
Y80943D01*
X51947Y80313D02*
X52853D01*
X51947Y81887D02*
X52853D01*
X51947Y81257D02*
Y81887D01*
X52853Y81257D02*
Y81887D01*
X55447Y44513D02*
Y45143D01*
X56353Y44513D02*
Y45143D01*
X55447Y44513D02*
X56353D01*
X55447Y46087D02*
X56353D01*
X55447Y45457D02*
Y46087D01*
X56353Y45457D02*
Y46087D01*
X50547Y80313D02*
Y80943D01*
X51453Y80313D02*
Y80943D01*
X50547Y80313D02*
X51453D01*
X50547Y81887D02*
X51453D01*
X50547Y81257D02*
Y81887D01*
X51453Y81257D02*
Y81887D01*
X54047Y44513D02*
Y45143D01*
X54953Y44513D02*
Y45143D01*
X54047Y44513D02*
X54953D01*
X54047Y46087D02*
X54953D01*
X54047Y45457D02*
Y46087D01*
X54953Y45457D02*
Y46087D01*
X49147Y80313D02*
Y80943D01*
X50053Y80313D02*
Y80943D01*
X49147Y80313D02*
X50053D01*
X49147Y81887D02*
X50053D01*
X49147Y81257D02*
Y81887D01*
X50053Y81257D02*
Y81887D01*
X50200Y46400D02*
X52117D01*
X50200D02*
X53200D01*
X50200Y44400D02*
X53200D01*
Y46400D01*
X50200Y44400D02*
Y46400D01*
X45300Y82200D02*
X47217D01*
X45300D02*
X48300D01*
X45300Y80200D02*
X48300D01*
Y82200D01*
X45300Y80200D02*
Y82200D01*
X32698Y41394D02*
X34706D01*
X32698Y40606D02*
X34706D01*
X32698D02*
Y41394D01*
Y61394D02*
X34706D01*
X32698Y60606D02*
X34706D01*
X32698D02*
Y61394D01*
X32694Y44206D02*
X34702D01*
X32694Y44994D02*
X34702D01*
Y44206D02*
Y44994D01*
X32694Y64206D02*
X34702D01*
X32694Y64994D02*
X34702D01*
Y64206D02*
Y64994D01*
X50594Y40506D02*
X52602D01*
X50594Y41294D02*
X52602D01*
Y40506D02*
Y41294D01*
X45694Y76306D02*
X47702D01*
X45694Y77094D02*
X47702D01*
Y76306D02*
Y77094D01*
X50794Y43306D02*
X52802D01*
X50794Y44094D02*
X52802D01*
Y43306D02*
Y44094D01*
X45894Y79106D02*
X47902D01*
X45894Y79894D02*
X47902D01*
Y79106D02*
Y79894D01*
X66629Y46335D02*
Y48265D01*
X62968D02*
X66629D01*
X62968Y46335D02*
X66629D01*
X61329Y83235D02*
Y85165D01*
X57668D02*
X61329D01*
X57668Y83235D02*
X61329D01*
X66429Y38335D02*
Y40265D01*
X62768D02*
X66429D01*
X62768Y38335D02*
X66429D01*
X61129Y75235D02*
Y77165D01*
X57468D02*
X61129D01*
X57468Y75235D02*
X61129D01*
X40489Y42016D02*
Y43984D01*
X39111Y42016D02*
Y43984D01*
Y42016D02*
X40489D01*
X40030Y43984D02*
X40489D01*
X39111D02*
X39570D01*
X41089Y79216D02*
Y81184D01*
X39711Y79216D02*
Y81184D01*
Y79216D02*
X41089D01*
X40630Y81184D02*
X41089D01*
X39711D02*
X40170D01*
X36213Y81453D02*
X36843D01*
X36213Y80547D02*
X36843D01*
X36213D02*
Y81453D01*
X37787Y80547D02*
Y81453D01*
X37157D02*
X37787D01*
X37157Y80547D02*
X37787D01*
X35976Y79088D02*
Y80112D01*
X38024Y79088D02*
Y80112D01*
X37276D02*
X38024D01*
X37276Y79088D02*
X38024D01*
X35976Y80112D02*
X36724D01*
X35976Y79088D02*
X36724D01*
D48*
X51863Y62698D02*
G03*
X51991Y62698I64J0D01*
G01*
X51563Y42798D02*
G03*
X51691Y42798I64J0D01*
G01*
X46663Y78598D02*
G03*
X46791Y78598I64J0D01*
G01*
X51754Y62698D02*
X51853Y62698D01*
X52000D02*
X52089Y62698D01*
X51754Y61675D02*
Y62698D01*
Y61675D02*
X52089Y61675D01*
X52089Y61675D02*
Y62698D01*
X51454Y42798D02*
X51553Y42798D01*
X51700D02*
X51789Y42798D01*
X51454Y41775D02*
Y42798D01*
Y41775D02*
X51789Y41775D01*
X51789Y41775D02*
Y42798D01*
X46554Y78598D02*
X46653Y78598D01*
X46800D02*
X46889Y78598D01*
X46554Y77575D02*
Y78598D01*
Y77575D02*
X46889Y77575D01*
X46889Y77575D02*
Y78598D01*
D49*
X43571Y43328D02*
G03*
X43699Y43328I64J0D01*
G01*
X45472Y63171D02*
G03*
X45472Y63299I0J64D01*
G01*
X43294Y43328D02*
X43571D01*
X43699D02*
X43975D01*
Y42304D02*
Y43328D01*
X43294Y42304D02*
X43975D01*
X43294D02*
Y43328D01*
X45472Y62894D02*
Y63171D01*
Y63299D02*
Y63575D01*
X46496D01*
Y62894D02*
Y63575D01*
X45472Y62894D02*
X46496D01*
X36347Y43907D02*
Y44025D01*
X36505D01*
Y43907D01*
X36347D01*
X36380Y43940D02*
X36380Y43992D01*
X36472Y43992D01*
X36472Y43940D01*
X36380Y43940D01*
X36413Y43961D02*
X36439Y43971D01*
X36347Y42770D02*
Y42888D01*
X36504D01*
Y42770D01*
X36347D01*
X36379Y42803D02*
X36379Y42855D01*
X36471Y42855D01*
X36471Y42803D01*
X36379Y42803D01*
X36412Y42824D02*
X36438Y42834D01*
X45147Y66107D02*
Y66225D01*
X45305D01*
Y66107D01*
X45147D01*
X45180Y66139D02*
X45180Y66192D01*
X45272Y66192D01*
X45272Y66139D01*
X45180Y66139D01*
X45213Y66161D02*
X45239Y66171D01*
X45146Y64970D02*
Y65088D01*
X45303D01*
Y64970D01*
X45146D01*
X45179Y65003D02*
X45179Y65056D01*
X45271Y65056D01*
X45271Y65003D01*
X45179Y65003D01*
X45212Y65024D02*
X45238Y65034D01*
X36546Y80370D02*
Y80488D01*
X36704D01*
Y80370D01*
X36546D01*
X36579Y80403D02*
X36579Y80455D01*
X36671Y80455D01*
X36671Y80403D01*
X36579Y80403D01*
X36612Y80424D02*
X36638Y80434D01*
X36547Y81507D02*
Y81625D01*
X36705D01*
Y81507D01*
X36547D01*
X36580Y81540D02*
X36580Y81592D01*
X36672Y81592D01*
X36672Y81540D01*
X36580Y81540D01*
X36613Y81561D02*
X36639Y81571D01*
D50*
X60777Y62404D02*
Y62463D01*
X60954Y62463D01*
Y62404D01*
X60777Y62404D01*
X60793Y62420D02*
X60793Y62446D01*
X60938D01*
X60938Y62420D01*
X60793D01*
X60810Y62428D02*
X60921Y62438D01*
X60777Y61537D02*
Y61596D01*
X60954Y61596D01*
Y61537D01*
X60777Y61537D01*
X60793Y61554D02*
X60793Y61580D01*
X60938D01*
X60938Y61554D01*
X60793D01*
X60810Y61562D02*
X60921Y61572D01*
X59177Y63804D02*
Y63863D01*
X59354Y63863D01*
Y63804D01*
X59177Y63804D01*
X59193Y63820D02*
X59193Y63846D01*
X59338D01*
X59338Y63820D01*
X59193D01*
X59210Y63828D02*
X59321Y63838D01*
X59177Y62937D02*
Y62996D01*
X59354Y62996D01*
Y62937D01*
X59177Y62937D01*
X59193Y62954D02*
X59193Y62980D01*
X59338D01*
X59338Y62954D01*
X59193D01*
X59210Y62962D02*
X59321Y62972D01*
X60777Y62537D02*
Y62596D01*
X60954Y62596D01*
Y62537D01*
X60777Y62537D01*
X60793Y62554D02*
X60793Y62580D01*
X60938D01*
X60938Y62554D01*
X60793D01*
X60810Y62562D02*
X60921Y62572D01*
X60777Y63404D02*
Y63463D01*
X60954Y63463D01*
Y63404D01*
X60777Y63404D01*
X60793Y63420D02*
X60793Y63446D01*
X60938D01*
X60938Y63420D01*
X60793D01*
X60810Y63428D02*
X60921Y63438D01*
X56377Y79137D02*
Y79196D01*
X56554Y79196D01*
Y79137D01*
X56377Y79137D01*
X56393Y79154D02*
X56393Y79180D01*
X56538D01*
X56538Y79154D01*
X56393D01*
X56410Y79162D02*
X56521Y79172D01*
X56377Y80004D02*
Y80063D01*
X56554Y80063D01*
Y80004D01*
X56377Y80004D01*
X56393Y80020D02*
X56393Y80046D01*
X56538D01*
X56538Y80020D01*
X56393D01*
X56410Y80028D02*
X56521Y80038D01*
X61677Y42237D02*
Y42296D01*
X61854Y42296D01*
Y42237D01*
X61677Y42237D01*
X61693Y42254D02*
X61693Y42280D01*
X61838D01*
X61838Y42254D01*
X61693D01*
X61710Y42262D02*
X61821Y42272D01*
X61677Y43104D02*
Y43163D01*
X61854Y43163D01*
Y43104D01*
X61677Y43104D01*
X61693Y43120D02*
X61693Y43146D01*
X61838D01*
X61838Y43120D01*
X61693D01*
X61710Y43128D02*
X61821Y43138D01*
X62377Y65537D02*
Y65596D01*
X62554Y65596D01*
Y65537D01*
X62377Y65537D01*
X62393Y65554D02*
X62393Y65580D01*
X62538D01*
X62538Y65554D01*
X62393D01*
X62410Y65562D02*
X62521Y65572D01*
X62377Y66404D02*
Y66463D01*
X62554Y66463D01*
Y66404D01*
X62377Y66404D01*
X62393Y66420D02*
X62393Y66446D01*
X62538D01*
X62538Y66420D01*
X62393D01*
X62410Y66428D02*
X62521Y66438D01*
X57977Y82137D02*
Y82196D01*
X58154Y82196D01*
Y82137D01*
X57977Y82137D01*
X57993Y82154D02*
X57993Y82180D01*
X58138D01*
X58138Y82154D01*
X57993D01*
X58010Y82162D02*
X58121Y82172D01*
X57977Y83004D02*
Y83063D01*
X58154Y83063D01*
Y83004D01*
X57977Y83004D01*
X57993Y83020D02*
X57993Y83046D01*
X58138D01*
X58138Y83020D01*
X57993D01*
X58010Y83028D02*
X58121Y83038D01*
X63277Y45237D02*
Y45296D01*
X63454Y45296D01*
Y45237D01*
X63277Y45237D01*
X63293Y45254D02*
X63293Y45280D01*
X63438D01*
X63438Y45254D01*
X63293D01*
X63310Y45262D02*
X63421Y45272D01*
X63277Y46104D02*
Y46163D01*
X63454Y46163D01*
Y46104D01*
X63277Y46104D01*
X63293Y46120D02*
X63293Y46146D01*
X63438D01*
X63438Y46120D01*
X63293D01*
X63310Y46128D02*
X63421Y46138D01*
X66577Y64337D02*
Y64396D01*
X66754Y64396D01*
Y64337D01*
X66577Y64337D01*
X66593Y64354D02*
X66593Y64380D01*
X66738D01*
X66738Y64354D01*
X66593D01*
X66610Y64362D02*
X66721Y64372D01*
X66577Y65204D02*
Y65263D01*
X66754Y65263D01*
Y65204D01*
X66577Y65204D01*
X66593Y65220D02*
X66593Y65246D01*
X66738D01*
X66738Y65220D01*
X66593D01*
X66610Y65228D02*
X66721Y65238D01*
X62177Y80937D02*
Y80996D01*
X62354Y80996D01*
Y80937D01*
X62177Y80937D01*
X62193Y80954D02*
X62193Y80980D01*
X62338D01*
X62338Y80954D01*
X62193D01*
X62210Y80962D02*
X62321Y80972D01*
X62177Y81804D02*
Y81863D01*
X62354Y81863D01*
Y81804D01*
X62177Y81804D01*
X62193Y81820D02*
X62193Y81846D01*
X62338D01*
X62338Y81820D01*
X62193D01*
X62210Y81828D02*
X62321Y81838D01*
X67477Y44037D02*
Y44096D01*
X67654Y44096D01*
Y44037D01*
X67477Y44037D01*
X67493Y44054D02*
Y44080D01*
X67638D01*
Y44054D01*
X67493D01*
X67510Y44062D02*
X67621Y44072D01*
X67477Y44904D02*
Y44963D01*
X67654Y44963D01*
Y44904D01*
X67477Y44904D01*
X67493Y44920D02*
Y44946D01*
X67638D01*
Y44920D01*
X67493D01*
X67510Y44928D02*
X67621Y44938D01*
X59177Y63937D02*
Y63996D01*
X59354Y63996D01*
Y63937D01*
X59177Y63937D01*
X59193Y63954D02*
X59193Y63980D01*
X59338D01*
X59338Y63954D01*
X59193D01*
X59210Y63962D02*
X59321Y63972D01*
X59177Y64804D02*
Y64863D01*
X59354Y64863D01*
Y64804D01*
X59177Y64804D01*
X59193Y64820D02*
X59193Y64846D01*
X59338D01*
X59338Y64820D01*
X59193D01*
X59210Y64828D02*
X59321Y64838D01*
X54777Y80537D02*
Y80596D01*
X54954Y80596D01*
Y80537D01*
X54777Y80537D01*
X54793Y80554D02*
X54793Y80580D01*
X54938D01*
X54938Y80554D01*
X54793D01*
X54810Y80562D02*
X54921Y80572D01*
X54777Y81404D02*
Y81463D01*
X54954Y81463D01*
Y81404D01*
X54777Y81404D01*
X54793Y81420D02*
X54793Y81446D01*
X54938D01*
X54938Y81420D01*
X54793D01*
X54810Y81428D02*
X54921Y81438D01*
X60077Y43637D02*
Y43696D01*
X60254Y43696D01*
Y43637D01*
X60077Y43637D01*
X60093Y43654D02*
X60093Y43680D01*
X60238D01*
X60238Y43654D01*
X60093D01*
X60110Y43662D02*
X60221Y43672D01*
X60077Y44504D02*
Y44563D01*
X60254Y44563D01*
Y44504D01*
X60077Y44504D01*
X60093Y44520D02*
X60093Y44546D01*
X60238D01*
X60238Y44520D01*
X60093D01*
X60110Y44528D02*
X60221Y44538D01*
X66577Y62337D02*
Y62396D01*
X66754Y62396D01*
Y62337D01*
X66577Y62337D01*
X66593Y62354D02*
X66593Y62380D01*
X66738D01*
X66738Y62354D01*
X66593D01*
X66610Y62362D02*
X66721Y62372D01*
X66577Y63204D02*
Y63263D01*
X66754Y63263D01*
Y63204D01*
X66577Y63204D01*
X66593Y63220D02*
X66593Y63246D01*
X66738D01*
X66738Y63220D01*
X66593D01*
X66610Y63228D02*
X66721Y63238D01*
X62177Y78937D02*
Y78996D01*
X62354Y78996D01*
Y78937D01*
X62177Y78937D01*
X62193Y78954D02*
X62193Y78980D01*
X62338D01*
X62338Y78954D01*
X62193D01*
X62210Y78962D02*
X62321Y78972D01*
X62177Y79804D02*
Y79863D01*
X62354Y79863D01*
Y79804D01*
X62177Y79804D01*
X62193Y79820D02*
X62193Y79846D01*
X62338D01*
X62338Y79820D01*
X62193D01*
X62210Y79828D02*
X62321Y79838D01*
X67477Y42037D02*
Y42096D01*
X67654Y42096D01*
Y42037D01*
X67477Y42037D01*
X67493Y42054D02*
Y42080D01*
X67638D01*
Y42054D01*
X67493D01*
X67510Y42062D02*
X67621Y42072D01*
X67477Y42904D02*
Y42963D01*
X67654Y42963D01*
Y42904D01*
X67477Y42904D01*
X67493Y42920D02*
Y42946D01*
X67638D01*
Y42920D01*
X67493D01*
X67510Y42928D02*
X67621Y42938D01*
X54777Y79537D02*
Y79596D01*
X54954Y79596D01*
Y79537D01*
X54777Y79537D01*
X54793Y79554D02*
X54793Y79580D01*
X54938D01*
X54938Y79554D01*
X54793D01*
X54810Y79562D02*
X54921Y79572D01*
X54777Y80404D02*
Y80463D01*
X54954Y80463D01*
Y80404D01*
X54777Y80404D01*
X54793Y80420D02*
X54793Y80446D01*
X54938D01*
X54938Y80420D01*
X54793D01*
X54810Y80428D02*
X54921Y80438D01*
X60077Y42637D02*
Y42696D01*
X60254Y42696D01*
Y42637D01*
X60077Y42637D01*
X60093Y42654D02*
X60093Y42680D01*
X60238D01*
X60238Y42654D01*
X60093D01*
X60110Y42662D02*
X60221Y42672D01*
X60077Y43504D02*
Y43563D01*
X60254Y43563D01*
Y43504D01*
X60077Y43504D01*
X60093Y43520D02*
X60093Y43546D01*
X60238D01*
X60238Y43520D01*
X60093D01*
X60110Y43528D02*
X60221Y43538D01*
X56377Y78137D02*
Y78196D01*
X56554Y78196D01*
Y78137D01*
X56377Y78137D01*
X56393Y78154D02*
X56393Y78180D01*
X56538D01*
X56538Y78154D01*
X56393D01*
X56410Y78162D02*
X56521Y78172D01*
X56377Y79004D02*
Y79063D01*
X56554Y79063D01*
Y79004D01*
X56377Y79004D01*
X56393Y79020D02*
X56393Y79046D01*
X56538D01*
X56538Y79020D01*
X56393D01*
X56410Y79028D02*
X56521Y79038D01*
X61677Y41237D02*
Y41296D01*
X61854Y41296D01*
Y41237D01*
X61677Y41237D01*
X61693Y41254D02*
X61693Y41280D01*
X61838D01*
X61838Y41254D01*
X61693D01*
X61710Y41262D02*
X61821Y41272D01*
X61677Y42104D02*
Y42163D01*
X61854Y42163D01*
Y42104D01*
X61677Y42104D01*
X61693Y42120D02*
X61693Y42146D01*
X61838D01*
X61838Y42120D01*
X61693D01*
X61710Y42128D02*
X61821Y42138D01*
X59177Y64937D02*
Y64996D01*
X59354Y64996D01*
Y64937D01*
X59177Y64937D01*
X59193Y64954D02*
X59193Y64980D01*
X59338D01*
X59338Y64954D01*
X59193D01*
X59210Y64962D02*
X59321Y64972D01*
X59177Y65804D02*
Y65863D01*
X59354Y65863D01*
Y65804D01*
X59177Y65804D01*
X59193Y65820D02*
X59193Y65846D01*
X59338D01*
X59338Y65820D01*
X59193D01*
X59210Y65828D02*
X59321Y65838D01*
X54777Y81537D02*
Y81596D01*
X54954Y81596D01*
Y81537D01*
X54777Y81537D01*
X54793Y81554D02*
X54793Y81580D01*
X54938D01*
X54938Y81554D01*
X54793D01*
X54810Y81562D02*
X54921Y81572D01*
X54777Y82404D02*
Y82463D01*
X54954Y82463D01*
Y82404D01*
X54777Y82404D01*
X54793Y82420D02*
X54793Y82446D01*
X54938D01*
X54938Y82420D01*
X54793D01*
X54810Y82428D02*
X54921Y82438D01*
X60077Y44637D02*
Y44696D01*
X60254Y44696D01*
Y44637D01*
X60077Y44637D01*
X60093Y44654D02*
X60093Y44680D01*
X60238D01*
X60238Y44654D01*
X60093D01*
X60110Y44662D02*
X60221Y44672D01*
X60077Y45504D02*
Y45563D01*
X60254Y45563D01*
Y45504D01*
X60077Y45504D01*
X60093Y45520D02*
X60093Y45546D01*
X60238D01*
X60238Y45520D01*
X60093D01*
X60110Y45528D02*
X60221Y45538D01*
X64177Y65537D02*
Y65596D01*
X64354Y65596D01*
Y65537D01*
X64177Y65537D01*
X64193Y65554D02*
X64193Y65580D01*
X64338D01*
X64338Y65554D01*
X64193D01*
X64210Y65562D02*
X64321Y65572D01*
X64177Y66404D02*
Y66463D01*
X64354Y66463D01*
Y66404D01*
X64177Y66404D01*
X64193Y66420D02*
X64193Y66446D01*
X64338D01*
X64338Y66420D01*
X64193D01*
X64210Y66428D02*
X64321Y66438D01*
X59777Y82137D02*
Y82196D01*
X59954Y82196D01*
Y82137D01*
X59777Y82137D01*
X59793Y82154D02*
X59793Y82180D01*
X59938D01*
X59938Y82154D01*
X59793D01*
X59810Y82162D02*
X59921Y82172D01*
X59777Y83004D02*
Y83063D01*
X59954Y83063D01*
Y83004D01*
X59777Y83004D01*
X59793Y83020D02*
X59793Y83046D01*
X59938D01*
X59938Y83020D01*
X59793D01*
X59810Y83028D02*
X59921Y83038D01*
X65077Y45237D02*
Y45296D01*
X65254Y45296D01*
Y45237D01*
X65077Y45237D01*
X65093Y45254D02*
X65093Y45280D01*
X65238D01*
X65238Y45254D01*
X65093D01*
X65110Y45262D02*
X65221Y45272D01*
X65077Y46104D02*
Y46163D01*
X65254Y46163D01*
Y46104D01*
X65077Y46104D01*
X65093Y46120D02*
X65093Y46146D01*
X65238D01*
X65238Y46120D01*
X65093D01*
X65110Y46128D02*
X65221Y46138D01*
X66577Y63337D02*
Y63396D01*
X66754Y63396D01*
Y63337D01*
X66577Y63337D01*
X66593Y63354D02*
X66593Y63380D01*
X66738D01*
X66738Y63354D01*
X66593D01*
X66610Y63362D02*
X66721Y63372D01*
X66577Y64204D02*
Y64263D01*
X66754Y64263D01*
Y64204D01*
X66577Y64204D01*
X66593Y64220D02*
X66593Y64246D01*
X66738D01*
X66738Y64220D01*
X66593D01*
X66610Y64228D02*
X66721Y64238D01*
X62177Y79937D02*
Y79996D01*
X62354Y79996D01*
Y79937D01*
X62177Y79937D01*
X62193Y79954D02*
X62193Y79980D01*
X62338D01*
X62338Y79954D01*
X62193D01*
X62210Y79962D02*
X62321Y79972D01*
X62177Y80804D02*
Y80863D01*
X62354Y80863D01*
Y80804D01*
X62177Y80804D01*
X62193Y80820D02*
X62193Y80846D01*
X62338D01*
X62338Y80820D01*
X62193D01*
X62210Y80828D02*
X62321Y80838D01*
X67477Y43037D02*
Y43096D01*
X67654Y43096D01*
Y43037D01*
X67477Y43037D01*
X67493Y43054D02*
Y43080D01*
X67638D01*
Y43054D01*
X67493D01*
X67510Y43062D02*
X67621Y43072D01*
X67477Y43904D02*
Y43963D01*
X67654Y43963D01*
Y43904D01*
X67477Y43904D01*
X67493Y43920D02*
Y43946D01*
X67638D01*
Y43920D01*
X67493D01*
X67510Y43928D02*
X67621Y43938D01*
X36161Y41380D02*
Y41439D01*
X36338Y41439D01*
Y41380D01*
X36161Y41380D01*
X36177Y41396D02*
Y41423D01*
X36322D01*
Y41396D01*
X36177D01*
X36194Y41404D02*
X36305Y41414D01*
X36161Y42561D02*
Y42620D01*
X36338Y42620D01*
Y42561D01*
X36161Y42561D01*
X36177Y42577D02*
Y42604D01*
X36322D01*
Y42577D01*
X36177D01*
X36194Y42586D02*
X36305Y42596D01*
D51*
X65735Y61833D02*
D03*
X65735Y60967D02*
D03*
X61335Y78433D02*
D03*
Y77567D02*
D03*
X66635Y41533D02*
D03*
Y40667D02*
D03*
X63335Y61833D02*
D03*
X63335Y60967D02*
D03*
X58935Y78433D02*
D03*
Y77567D02*
D03*
X64235Y41533D02*
D03*
Y40667D02*
D03*
X68935Y65233D02*
D03*
X68935Y64367D02*
D03*
X64535Y81833D02*
D03*
Y80967D02*
D03*
X69835Y44933D02*
D03*
Y44067D02*
D03*
X68935Y64233D02*
D03*
X68935Y63367D02*
D03*
X64535Y80833D02*
D03*
Y79967D02*
D03*
X69835Y43933D02*
D03*
Y43067D02*
D03*
X59935Y62833D02*
D03*
X59935Y61967D02*
D03*
X55535Y79433D02*
D03*
Y78567D02*
D03*
X60835Y42533D02*
D03*
Y41667D02*
D03*
X61535Y65833D02*
D03*
X61535Y64967D02*
D03*
X57135Y82433D02*
D03*
Y81567D02*
D03*
X62435Y45533D02*
D03*
Y44667D02*
D03*
X67335Y66233D02*
D03*
X67335Y65367D02*
D03*
X62935Y82833D02*
D03*
Y81967D02*
D03*
X68235Y45933D02*
D03*
Y45067D02*
D03*
X61535Y64633D02*
D03*
X61535Y63767D02*
D03*
X57135Y81233D02*
D03*
Y80367D02*
D03*
X62435Y44333D02*
D03*
Y43467D02*
D03*
X68935Y66233D02*
D03*
X68935Y65367D02*
D03*
X64535Y82833D02*
D03*
Y81967D02*
D03*
X69835Y45933D02*
D03*
Y45067D02*
D03*
X67335Y61833D02*
D03*
X67335Y60967D02*
D03*
X62935Y78433D02*
D03*
Y77567D02*
D03*
X68235Y41533D02*
D03*
Y40667D02*
D03*
D52*
X58166Y65574D02*
D03*
X57029Y65575D02*
D03*
X56766Y65574D02*
D03*
X55629Y65575D02*
D03*
X55366Y65574D02*
D03*
X54229Y65574D02*
D03*
X46566Y44174D02*
D03*
X45429Y44175D02*
D03*
X38766Y65174D02*
D03*
X37630Y65175D02*
D03*
X57867Y45675D02*
D03*
X56730Y45674D02*
D03*
X52967Y81477D02*
D03*
X51832Y81474D02*
D03*
X56467Y45674D02*
D03*
X55329Y45674D02*
D03*
X51567Y81477D02*
D03*
X50432Y81474D02*
D03*
X55067Y45674D02*
D03*
X53929Y45674D02*
D03*
X50167Y81474D02*
D03*
X49029Y81474D02*
D03*
D53*
X75233Y73135D02*
D03*
X74367D02*
D03*
X75233Y71135D02*
D03*
X74367D02*
D03*
D54*
X39750Y61591D02*
D03*
X39750Y60410D02*
D03*
X39550Y63791D02*
D03*
Y62610D02*
D03*
X37150Y63791D02*
D03*
X37150Y62610D02*
D03*
X37550Y79009D02*
D03*
Y80191D02*
D03*
D55*
X42174Y64834D02*
D03*
X42175Y65971D02*
D03*
M02*
