INCH,LZ
M48
T1F00S00C0.0135
T2F00S00C0.0180
T3F00S00C0.0200
T4F00S00C0.0354
T5F00S00C0.0400
T6F00S00C0.0420
T7F00S00C0.0500
T8F00S00C0.0520
T9F00S00C0.0650
T10F00S00C0.0709
T11F00S00C0.1260
T12F00S00C0.1400
%
T01
X0309Y035
X030449Y035849
X0328Y0383
X0339
X0343Y0382
X0356Y0384
X036444Y038144
X0376Y0384
X0382Y0386
X039826Y037174
X0406Y0378
X0407Y0352
X0418Y0363
X0427Y0405
X041849Y045149
X0421Y0465
X0436Y0464
X0455Y0434
X0375Y0449
X036951Y046749
X03414Y04594
X0333Y0449
X03374Y04236
X0345Y0412
X03626Y04026
Y04226
X0344Y0334
X0386
X03776Y03224
X0623Y0369
X062911Y036411
X0637Y0377
X063596Y038496
X0647Y0376
Y0368
X0656Y0389
X068465Y037035
X0688Y0358
X0698Y0357
X070935Y035465
X0718Y0372
X0729Y0363
X0642Y0433
X064Y0507
X06771Y05099
Y05341
X0649Y0544
X06396Y05644
X0648Y0576
X0678Y0594
X0689Y0605
X0677Y062
X066926Y061374
X063544Y062344
X0675Y0487
X0606Y0576
X058Y0592
X057549Y060049
X0538Y0588
X0539Y0582
Y0623
X0614Y0624
X04734Y04996
X04726Y04744
X04514
X0442Y0471
X0437Y0485
X043Y0492
X0426Y05
X04274Y05084
X0419Y0519
X039
X0373
X03806Y05294
X0348Y0519
X034807Y050493
X0332Y0505
X0337Y0497
X0336Y0484
X0344Y049
X0354
X0367Y0486
X0407
Y048
X0423Y0477
X042899Y047699
X0445Y0495
X0462Y0507
X046Y0519
X0326Y0493
X0306Y0472
X0523Y0629
X0528Y0636
X0534Y0627
X0544Y0639
X0599Y0625
X061
X0616Y0654
X06084Y06656
X0602Y0722
X06104Y07324
X0605Y0757
X0606Y077
X0601Y0778
X061707Y077793
X0613Y0763
X0623
X0595Y0766
X0575Y0745
X0538Y0733
X0539Y0727
Y0768
X0534Y0772
X0523Y0774
X0528Y0781
X0636Y0759
X063851Y074049
X0644Y0722
X068749Y072449
X069Y0738
X0692Y075
X069799Y074999
X0699Y0765
X0695Y0773
X0714Y0768
X0706Y0758
X0711Y0744
X07204Y07474
X07416
X07424Y07726
X0731Y078
X0705Y0737
X0676Y0753
Y0759
X0713Y0681
X06336Y06646
Y06446
X0627Y0626
X0647
X0653Y0628
X0659Y0792
X0642
X06496Y08024
X0688Y0792
X06964Y07814
X0729Y0792
X0755Y0785
X0701Y0902
X069Y0911
X068135Y089365
X067Y0896
X066Y0897
X065665Y090935
X0661Y0935
X0628Y0928
X0619Y0915
Y0907
X0609Y0916
X060796Y092396
X060111Y090311
X0595Y0908
X0545Y0917
X0529Y0914
X0524Y0907
X0535Y0905
X054Y0901
X0539Y0866
X054Y086
X0544Y0784
X0617Y0792
X06205Y09665
X0598Y0957
X0573Y0946
X055802Y095402
X054226Y096226
X0542Y0967
X053965Y098065
X0586Y1008
X0618Y1048
Y1052
Y1056
X0622
Y1052
Y1048
T02
X0616Y1042
X0624
Y10625
X0616
T03
X0514Y0574
X0485Y0615
X049Y0624
X035551Y060751
X034449Y061651
X033635Y061065
X03355Y06255
X033565Y064735
X0344Y064
X0364Y0646
X0437Y0636
Y0628
X0427Y0625
X0446Y0649
X0437Y0773
Y0781
X0427Y077
X0343Y078
X03345Y07655
X033535Y075065
X034349Y075651
X035451Y074751
X0485Y076
X049Y0769
X04795Y07775
X0514Y0719
X051365Y064635
X0514Y064
X0518Y0642
X0535
X050435Y064635
X04795Y06325
X050435Y079135
X051365
X0514Y0785
X0518Y0787
X0535
X0515Y0852
Y0918
X0519Y092
X051465Y092435
X050535
X0536Y092
X0491Y0902
X0486Y0893
X04805Y09105
X0438Y0914
Y0906
X0428Y0903
X0447Y0927
X0364Y0925
X0344Y0919
X033565Y092635
X03355Y09045
X033635Y088965
X034449Y089551
X035551Y088651
X0363Y0786
X033465Y078735
X0446Y0794
T04
X0318Y0467
X0328
X039Y0457
X04
X0406Y0424
Y0414
Y0404
X0446Y0457
X0456
X0466
X0473Y0593
Y0603
X0483
Y0593
X0493
Y0603
X0503
Y0593
X0513
Y0603
X04Y0471
X039
X0336Y0513
Y0523
X0473Y0738
Y0748
X0483
Y0738
X0493
Y0748
X0503
Y0738
X0513
Y0748
X0587Y074
X0597
X0659Y0744
X0669
Y073
X0659
X0715
X0725
X0735
X0677Y0666
Y0656
Y0646
X0605Y0786
Y0796
X0514Y0871
X0504
X0494
X0484
X0474
Y0881
X0484
X0494
X0504
X0514
X0386Y1036
X0376
T05
X0624Y1089
X06592Y1026
T06
X0498Y0614
X0368Y0626
X037Y0764
X05Y076
X0499Y0895
X0376Y091
T07
X02675Y062
X02665Y0772
X02675Y0909
T08
X0227Y0353
Y0403
X0277
Y0353
X0252Y0378
X0437Y0383
Y0433
X0462Y0408
X0487Y0433
X0513Y0443
X0563
X0538Y0468
X0517Y0397
X0487Y0383
X0517Y0347
X0567
Y0397
X0542Y0372
X0703Y0417
Y0467
X0753
Y0417
X0728Y0442
X0717Y0575
X0767
X0742Y06
X0593Y0573
X0543
Y0523
X0593
X0568Y0548
X0563Y0493
X0513
X0433Y0555
Y0605
X0383
Y0555
X0408Y058
X0277Y0523
Y0473
X0227
Y0523
X0252Y0498
X0375Y0687
Y0737
X0425
Y0687
X04Y0712
X0535Y0713
X0585
Y0663
X0535
X056Y0688
X0717Y0709
X0767
Y0659
Y0625
X0717
Y0659
X0742Y0684
X0761Y0829
Y0879
X0711
Y0829
X0736Y0854
X0603Y0865
X0553
Y0815
X0603
X0578Y084
X0425Y0825
Y0875
X0375
Y0825
X04Y085
T09
X0215Y0605
X025
X02525Y0635
X0235
X0249Y0757
X0214
X0234Y0787
X02515
X025Y0894
X02525Y0924
X0235
X0215Y0894
T10
X0736Y049493
Y051146
Y0528
Y054454
X045575Y108235
X043921
X042268
X040614
X038961
X037307
X035654
X034
X047228
X048882
X050535
X052189
X0756Y1069
X07024Y1014
X052189Y1104
X050535
X048882
X047228
X045575
X043921
X042268
X040614
X038961
X037307
X035654
X034
T11
X076474Y049493
Y054454
T12
X0232Y03272
X07552Y0346
X0766Y1126
X0224Y112
M30
