%FSLAX24Y24*%
%MOIN*%
G70*
G01*
G75*
G04 Layer_Physical_Order=2*
G04 Layer_Color=32768*
G04 Layer_Color=32768*
%ADD10C,0.0080*%
%ADD11C,0.0400*%
%ADD12R,0.0630X0.0709*%
%ADD13R,0.0787X0.0866*%
%ADD14R,0.0787X0.0472*%
%ADD15R,0.0472X0.0787*%
%ADD16R,0.0433X0.0394*%
%ADD17R,0.0394X0.0433*%
%ADD18R,0.0866X0.0236*%
%ADD19R,0.0236X0.0669*%
%ADD20R,0.0866X0.0236*%
%ADD21R,0.0480X0.0169*%
%ADD22R,0.0236X0.0866*%
%ADD23R,0.0846X0.0157*%
%ADD24R,0.0157X0.0610*%
%ADD25R,0.0157X0.0846*%
%ADD26R,0.0157X0.0846*%
%ADD27R,0.0728X0.0236*%
%ADD28R,0.0610X0.0118*%
%ADD29R,0.0118X0.0610*%
%ADD30R,0.0236X0.0807*%
%ADD31R,0.0571X0.0118*%
%ADD32R,0.0807X0.0236*%
%ADD33R,0.1240X0.1360*%
%ADD34R,0.0315X0.1417*%
%ADD35R,0.0610X0.0157*%
%ADD36O,0.0480X0.0169*%
%ADD37R,0.0630X0.0118*%
%ADD38R,0.0630X0.0118*%
%ADD39O,0.0409X0.0150*%
%ADD40R,0.0409X0.0150*%
%ADD41R,0.0512X0.0591*%
%ADD42R,0.0150X0.0600*%
%ADD43R,0.1010X0.0620*%
%ADD44R,0.0571X0.0217*%
%ADD45R,0.0571X0.0217*%
%ADD46R,0.0906X0.0591*%
%ADD47C,0.0120*%
%ADD48C,0.0100*%
%ADD49C,0.0500*%
%ADD50C,0.0160*%
%ADD51C,0.0250*%
%ADD52C,0.0591*%
%ADD53C,0.0500*%
%ADD54C,0.1800*%
%ADD55C,0.0866*%
%ADD56C,0.1575*%
%ADD57R,0.0591X0.0591*%
%ADD58C,0.0600*%
%ADD59C,0.0250*%
%ADD60C,0.0098*%
%ADD61C,0.0079*%
%ADD62C,0.0070*%
%ADD63C,0.0039*%
%ADD64C,0.0394*%
%ADD65C,0.0040*%
%ADD66C,0.1000*%
%ADD67R,0.0710X0.0789*%
%ADD68R,0.0867X0.0946*%
%ADD69R,0.0867X0.0552*%
%ADD70R,0.0552X0.0867*%
%ADD71R,0.0513X0.0474*%
%ADD72R,0.0474X0.0513*%
%ADD73R,0.0946X0.0316*%
%ADD74R,0.0316X0.0749*%
%ADD75R,0.0946X0.0316*%
%ADD76R,0.0560X0.0249*%
%ADD77R,0.0316X0.0946*%
%ADD78R,0.0926X0.0237*%
%ADD79R,0.0237X0.0690*%
%ADD80R,0.0237X0.0926*%
%ADD81R,0.0237X0.0926*%
%ADD82R,0.0808X0.0316*%
%ADD83R,0.0690X0.0198*%
%ADD84R,0.0198X0.0690*%
%ADD85R,0.0316X0.0887*%
%ADD86R,0.0651X0.0198*%
%ADD87R,0.0887X0.0316*%
%ADD88R,0.1320X0.1440*%
%ADD89R,0.0395X0.1497*%
%ADD90R,0.0690X0.0237*%
%ADD91O,0.0560X0.0249*%
%ADD92R,0.0710X0.0198*%
%ADD93R,0.0710X0.0198*%
%ADD94O,0.0489X0.0230*%
%ADD95R,0.0489X0.0230*%
%ADD96R,0.0592X0.0671*%
%ADD97R,0.0230X0.0680*%
%ADD98R,0.0651X0.0297*%
%ADD99R,0.0651X0.0297*%
%ADD100R,0.0986X0.0671*%
%ADD101C,0.0671*%
%ADD102C,0.0580*%
%ADD103C,0.1880*%
%ADD104C,0.0946*%
%ADD105C,0.1655*%
%ADD106R,0.0671X0.0671*%
%ADD107C,0.0680*%
%ADD108C,0.0480*%
%ADD109C,0.0330*%
%ADD110C,0.0200*%
%ADD111C,0.0400*%
%ADD112C,0.0874*%
%AMTHD113*
7,0,0,0.0994,0.0794,0.0200,45*
%
%ADD113THD113*%
%ADD114C,0.0830*%
%AMTHD115*
7,0,0,0.0950,0.0750,0.0200,45*
%
%ADD115THD115*%
%ADD116C,0.1980*%
%AMTHD117*
7,0,0,0.1309,0.1109,0.0200,45*
%
%ADD117THD117*%
%ADD118C,0.1189*%
%ADD119C,0.1740*%
%AMTHD120*
7,0,0,0.0954,0.0754,0.0200,45*
%
%ADD120THD120*%
%ADD121C,0.0834*%
%AMTHD122*
7,0,0,0.1000,0.0800,0.0200,45*
%
%ADD122THD122*%
%ADD123C,0.0880*%
%AMTHD124*
7,0,0,0.0850,0.0650,0.0200,45*
%
%ADD124THD124*%
%ADD125C,0.0615*%
%AMTHD126*
7,0,0,0.0735,0.0535,0.0200,45*
%
%ADD126THD126*%
%AMTHD127*
7,0,0,0.0800,0.0600,0.0200,45*
%
%ADD127THD127*%
D48*
X65300Y30500D02*
X89500D01*
Y67800D01*
X57000Y30500D02*
X65300D01*
Y60600D02*
Y68900D01*
X94000Y47100D02*
Y46500D01*
X94343D01*
X94751Y46900D02*
Y46500D01*
Y46814D02*
X94694Y46871D01*
X94637Y46900D01*
X94551D01*
X94494Y46871D01*
X94437Y46814D01*
X94408Y46729D01*
Y46671D01*
X94437Y46586D01*
X94494Y46529D01*
X94551Y46500D01*
X94637D01*
X94694Y46529D01*
X94751Y46586D01*
X94940Y46900D02*
X95111Y46500D01*
X95283Y46900D02*
X95111Y46500D01*
X95054Y46386D01*
X94997Y46329D01*
X94940Y46300D01*
X94911D01*
X95383Y46729D02*
X95725D01*
Y46786D01*
X95697Y46843D01*
X95668Y46871D01*
X95611Y46900D01*
X95525D01*
X95468Y46871D01*
X95411Y46814D01*
X95383Y46729D01*
Y46671D01*
X95411Y46586D01*
X95468Y46529D01*
X95525Y46500D01*
X95611D01*
X95668Y46529D01*
X95725Y46586D01*
X95854Y46900D02*
Y46500D01*
Y46729D02*
X95882Y46814D01*
X95940Y46871D01*
X95997Y46900D01*
X96082D01*
X96637Y46957D02*
Y46986D01*
X96665Y47043D01*
X96694Y47071D01*
X96751Y47100D01*
X96865D01*
X96922Y47071D01*
X96951Y47043D01*
X96979Y46986D01*
Y46928D01*
X96951Y46871D01*
X96894Y46786D01*
X96608Y46500D01*
X97008D01*
D60*
X65300Y62000D02*
Y68900D01*
X59200Y78200D02*
X65300Y68900D01*
X56700Y78200D02*
X59200D01*
X56400Y77900D02*
X56700Y78200D01*
X56400Y77300D02*
Y77900D01*
Y72600D02*
Y76300D01*
Y67700D02*
Y71200D01*
Y62800D02*
Y66400D01*
Y57900D02*
Y61500D01*
Y52600D02*
Y56500D01*
Y47700D02*
Y51200D01*
Y42800D02*
Y46300D01*
Y38200D02*
Y41600D01*
Y33100D02*
Y36500D01*
X57000Y30500D02*
X57600D01*
X56400Y31100D02*
X57000Y30500D01*
X56400Y31100D02*
Y31600D01*
D107*
X76100Y76500D02*
D03*
X77410Y77690D02*
D03*
Y75390D02*
D03*
X73400Y78900D02*
D03*
Y69400D02*
D03*
X75900Y71200D02*
D03*
X77410Y69910D02*
D03*
Y72590D02*
D03*
X70200Y37400D02*
D03*
X71100Y34600D02*
D03*
X75700Y34800D02*
D03*
X77700Y37400D02*
D03*
D110*
X65300Y30500D02*
Y65300D01*
X66600Y66600D01*
X80500D01*
X81700Y67800D01*
X89500D01*
D111*
X20000Y30000D02*
X90000D01*
Y82500D01*
X20000D02*
X90000D01*
X20000Y30000D02*
Y82500D01*
D112*
X88887Y40276D02*
D03*
Y41063D02*
D03*
Y41850D02*
D03*
Y42638D02*
D03*
Y43425D02*
D03*
Y44213D02*
D03*
Y45000D02*
D03*
D113*
X88100Y40276D02*
D03*
Y41063D02*
D03*
Y41850D02*
D03*
Y42638D02*
D03*
Y43425D02*
D03*
Y44213D02*
D03*
Y45000D02*
D03*
D114*
X87900Y34548D02*
D03*
Y37050D02*
D03*
D115*
Y35550D02*
D03*
Y38052D02*
D03*
D116*
X22500Y80000D02*
D03*
Y32500D02*
D03*
X87500D02*
D03*
Y80000D02*
D03*
D117*
X85600Y74800D02*
D03*
Y73146D02*
D03*
Y64400D02*
D03*
Y66054D02*
D03*
Y62746D02*
D03*
D118*
Y76454D02*
D03*
Y71493D02*
D03*
Y61093D02*
D03*
D119*
X88474Y76454D02*
D03*
Y71493D02*
D03*
Y66054D02*
D03*
Y61093D02*
D03*
D120*
X21200Y59500D02*
D03*
X22200D02*
D03*
X21200Y50500D02*
D03*
X22200D02*
D03*
D121*
X21200Y58500D02*
D03*
X22200D02*
D03*
X21200Y57500D02*
D03*
X22200D02*
D03*
X21200Y56500D02*
D03*
X22200D02*
D03*
X21200Y55500D02*
D03*
X22200D02*
D03*
X21200Y54500D02*
D03*
X22200D02*
D03*
X21200Y53500D02*
D03*
X22200D02*
D03*
X21200Y52500D02*
D03*
X22200D02*
D03*
X21200Y51500D02*
D03*
X22200D02*
D03*
D122*
X85800Y52100D02*
D03*
Y50100D02*
D03*
X88800Y53100D02*
D03*
Y50100D02*
D03*
Y54100D02*
D03*
Y57100D02*
D03*
X85800Y54100D02*
D03*
Y55100D02*
D03*
D123*
Y53100D02*
D03*
Y51100D02*
D03*
Y57100D02*
D03*
Y56100D02*
D03*
D124*
X73750Y54480D02*
D03*
X73760Y55250D02*
D03*
X75800Y54560D02*
D03*
X75840Y55300D02*
D03*
D125*
X67700Y67100D02*
D03*
X21700Y35100D02*
D03*
X22900Y37100D02*
D03*
X23400Y42600D02*
D03*
X23800Y47200D02*
D03*
X24200Y60500D02*
D03*
X23600Y65700D02*
D03*
X23500Y70800D02*
D03*
Y75600D02*
D03*
X37988Y31088D02*
D03*
X38884Y37284D02*
D03*
X38628Y37700D02*
D03*
X39700Y42500D02*
D03*
X39400Y41100D02*
D03*
X38884Y41084D02*
D03*
X39200Y47700D02*
D03*
X38728Y47328D02*
D03*
X38628Y67392D02*
D03*
X65372Y77072D02*
D03*
X66100Y74300D02*
D03*
X85500Y41900D02*
D03*
X87400Y43400D02*
D03*
X86900D02*
D03*
X86320Y45520D02*
D03*
X39400Y32400D02*
D03*
X62100Y34000D02*
D03*
X63550Y36050D02*
D03*
X38700Y45300D02*
D03*
X39400D02*
D03*
Y38700D02*
D03*
X39396Y37704D02*
D03*
X38900Y74300D02*
D03*
Y71200D02*
D03*
Y68800D02*
D03*
X38884Y67916D02*
D03*
X38900Y64500D02*
D03*
X38784Y61384D02*
D03*
X38800Y56900D02*
D03*
X38784Y54984D02*
D03*
X39000Y51400D02*
D03*
Y49600D02*
D03*
Y48800D02*
D03*
X38900Y44600D02*
D03*
X38884Y39084D02*
D03*
X28700Y34100D02*
D03*
X28800Y39000D02*
D03*
X67000Y33400D02*
D03*
X66900Y48000D02*
D03*
X36100Y50200D02*
D03*
X37760Y52460D02*
D03*
X36000Y55500D02*
D03*
X37760Y57960D02*
D03*
X46600Y52550D02*
D03*
X46600Y52000D02*
D03*
X50400Y51900D02*
D03*
X50300Y53500D02*
D03*
X46600Y57850D02*
D03*
X46600Y57300D02*
D03*
X50400Y57200D02*
D03*
X50300Y58800D02*
D03*
X31900Y50700D02*
D03*
X35200Y51600D02*
D03*
X35831Y53068D02*
D03*
X32300Y52700D02*
D03*
X32900Y53500D02*
D03*
X34456Y51044D02*
D03*
X36600Y53900D02*
D03*
X31900Y56000D02*
D03*
X35200Y56900D02*
D03*
X35831Y58369D02*
D03*
X32300Y58000D02*
D03*
X32900Y58800D02*
D03*
X34456Y56344D02*
D03*
X36600Y59200D02*
D03*
X37900Y41400D02*
D03*
X38600Y42100D02*
D03*
X36700Y35200D02*
D03*
X37600Y35700D02*
D03*
X38300Y32300D02*
D03*
X36500Y45000D02*
D03*
X37960Y45540D02*
D03*
X46600Y32400D02*
D03*
X46600Y32950D02*
D03*
X50400Y32300D02*
D03*
X50300Y33900D02*
D03*
X46600Y37300D02*
D03*
X46600Y37850D02*
D03*
X50400Y37200D02*
D03*
X50300Y38800D02*
D03*
X46600Y47100D02*
D03*
X46600Y47650D02*
D03*
X50400Y47000D02*
D03*
X50300Y48600D02*
D03*
X46600Y42200D02*
D03*
X46600Y42750D02*
D03*
X50400Y42100D02*
D03*
X50300Y43700D02*
D03*
X32100Y31100D02*
D03*
X35400Y32000D02*
D03*
X36031Y33468D02*
D03*
X32500Y33100D02*
D03*
X33100Y33900D02*
D03*
X34656Y31444D02*
D03*
X36800Y34300D02*
D03*
X32100Y40900D02*
D03*
X35400Y41800D02*
D03*
X36031Y43268D02*
D03*
X32500Y42900D02*
D03*
X33100Y43700D02*
D03*
X34656Y41244D02*
D03*
X36800Y44100D02*
D03*
X32100Y36000D02*
D03*
X35400Y36900D02*
D03*
X36031Y38368D02*
D03*
X32500Y38000D02*
D03*
X33100Y38800D02*
D03*
X34656Y36344D02*
D03*
X36800Y39200D02*
D03*
X32100Y45800D02*
D03*
X35400Y46700D02*
D03*
X36031Y48169D02*
D03*
X32500Y47800D02*
D03*
X33100Y48600D02*
D03*
X34656Y46144D02*
D03*
X36800Y49000D02*
D03*
X27300Y33800D02*
D03*
X27500Y31600D02*
D03*
X28600Y31300D02*
D03*
X27300Y43600D02*
D03*
X27500Y41400D02*
D03*
X28600Y41100D02*
D03*
X27300Y38700D02*
D03*
X27500Y36500D02*
D03*
X28600Y36200D02*
D03*
X27300Y48500D02*
D03*
X27500Y46300D02*
D03*
X28600Y46000D02*
D03*
X37800Y61400D02*
D03*
X38500Y62100D02*
D03*
X36400Y65000D02*
D03*
X37860Y65460D02*
D03*
X46600Y62750D02*
D03*
X46600Y62200D02*
D03*
X50400Y62100D02*
D03*
X50300Y63700D02*
D03*
X46600Y67100D02*
D03*
X46600Y67650D02*
D03*
X50400Y67000D02*
D03*
X50300Y68600D02*
D03*
X32100Y60900D02*
D03*
X35400Y61800D02*
D03*
X36031Y63268D02*
D03*
X32500Y62900D02*
D03*
X33100Y63700D02*
D03*
X34656Y61244D02*
D03*
X36800Y64100D02*
D03*
X27300Y63600D02*
D03*
X27500Y61400D02*
D03*
X28600Y61100D02*
D03*
X32100Y65800D02*
D03*
X35400Y66700D02*
D03*
X36031Y68169D02*
D03*
X32500Y67800D02*
D03*
X33100Y68600D02*
D03*
X34656Y66144D02*
D03*
X36800Y69000D02*
D03*
X27300Y68500D02*
D03*
X27500Y66300D02*
D03*
X28600Y66000D02*
D03*
X38000Y71300D02*
D03*
X38600Y71900D02*
D03*
X36700Y74800D02*
D03*
X37860Y75360D02*
D03*
X46600Y72000D02*
D03*
X46600Y72550D02*
D03*
X50400Y71900D02*
D03*
X50300Y73500D02*
D03*
X46600Y76900D02*
D03*
X46600Y77450D02*
D03*
X36800Y78800D02*
D03*
X36031Y77969D02*
D03*
X35400Y76500D02*
D03*
X32100Y75600D02*
D03*
X34656Y75944D02*
D03*
X33100Y78400D02*
D03*
X32500Y77600D02*
D03*
X28700Y78600D02*
D03*
X28600Y75800D02*
D03*
X27500Y76100D02*
D03*
X27300Y78300D02*
D03*
X50400Y76800D02*
D03*
X50300Y78400D02*
D03*
X27300Y73400D02*
D03*
X27500Y71200D02*
D03*
X28600Y70900D02*
D03*
X32100Y70700D02*
D03*
X34656Y71044D02*
D03*
X35400Y71600D02*
D03*
X36031Y73068D02*
D03*
X32500Y72700D02*
D03*
X33100Y73500D02*
D03*
X36800Y73900D02*
D03*
X73300Y43000D02*
D03*
X73700D02*
D03*
X75300D02*
D03*
X75900D02*
D03*
X76100Y38300D02*
D03*
X75600D02*
D03*
X77000Y39400D02*
D03*
Y40000D02*
D03*
Y42000D02*
D03*
Y42500D02*
D03*
X72400Y41800D02*
D03*
X72300Y41300D02*
D03*
X72200Y39800D02*
D03*
X72400Y39300D02*
D03*
X73100Y38300D02*
D03*
X73700D02*
D03*
X82300Y41200D02*
D03*
X78700Y38500D02*
D03*
X76665Y35465D02*
D03*
X78981Y39519D02*
D03*
X78965Y35565D02*
D03*
X82650Y35250D02*
D03*
X78300Y46400D02*
D03*
X73800Y47900D02*
D03*
X76340Y49440D02*
D03*
X78200Y49500D02*
D03*
X76248Y49952D02*
D03*
X76800Y48900D02*
D03*
X77265Y48235D02*
D03*
X76300Y49000D02*
D03*
X77700Y47800D02*
D03*
X76000Y48300D02*
D03*
X77200Y45600D02*
D03*
X76400D02*
D03*
X77800Y45100D02*
D03*
X75200D02*
D03*
X71678Y44278D02*
D03*
X78600Y45600D02*
D03*
X71000Y44300D02*
D03*
X70600Y44500D02*
D03*
X76200Y42300D02*
D03*
X72435Y38535D02*
D03*
X72000Y49600D02*
D03*
X69400Y39000D02*
D03*
X73450Y35550D02*
D03*
X72850Y35050D02*
D03*
X71400Y35300D02*
D03*
X79250Y57550D02*
D03*
Y53950D02*
D03*
X83135Y57735D02*
D03*
X78400Y58700D02*
D03*
X82500Y54900D02*
D03*
X82165Y50965D02*
D03*
X82700Y50000D02*
D03*
X80900Y46900D02*
D03*
X75600Y44800D02*
D03*
X76500Y43100D02*
D03*
X80900Y46200D02*
D03*
X75538Y53038D02*
D03*
X74900Y52800D02*
D03*
X76009Y51009D02*
D03*
X74514Y53114D02*
D03*
X73600Y52800D02*
D03*
X74800Y51800D02*
D03*
X72500Y46400D02*
D03*
X73500Y45400D02*
D03*
X74500D02*
D03*
X75465Y45965D02*
D03*
X74200Y45900D02*
D03*
X72778Y46000D02*
D03*
X75794Y56694D02*
D03*
X73900Y56700D02*
D03*
X39496Y47396D02*
D03*
X39500Y48400D02*
D03*
Y49600D02*
D03*
X38400Y51800D02*
D03*
X39296Y54896D02*
D03*
Y61396D02*
D03*
X39300Y62100D02*
D03*
Y64900D02*
D03*
X38500D02*
D03*
X39396Y67404D02*
D03*
X39400Y68400D02*
D03*
Y71200D02*
D03*
X39600Y72300D02*
D03*
X39800Y74300D02*
D03*
X38400Y74700D02*
D03*
Y39000D02*
D03*
X37700Y40900D02*
D03*
X37400Y42900D02*
D03*
Y44400D02*
D03*
X38700Y45700D02*
D03*
X38100Y48800D02*
D03*
Y49500D02*
D03*
X38528Y52428D02*
D03*
X37700Y55000D02*
D03*
X38300Y57900D02*
D03*
X37700Y60800D02*
D03*
X37100Y62900D02*
D03*
X37300Y64200D02*
D03*
X38628Y65628D02*
D03*
X38000Y69000D02*
D03*
Y70700D02*
D03*
X37200Y72700D02*
D03*
Y74200D02*
D03*
X38400Y75200D02*
D03*
X37604Y76896D02*
D03*
X39140Y76760D02*
D03*
X39300Y65500D02*
D03*
X37604Y66996D02*
D03*
X39300Y57800D02*
D03*
X37300Y59400D02*
D03*
X39300Y52300D02*
D03*
X37300Y53800D02*
D03*
X39700Y45700D02*
D03*
X37500Y47200D02*
D03*
X39300Y35800D02*
D03*
X37604Y37296D02*
D03*
X38528Y51328D02*
D03*
X37800Y49200D02*
D03*
X29000Y72800D02*
D03*
X29500Y69900D02*
D03*
X27800Y59900D02*
D03*
X30000Y64700D02*
D03*
X26900Y60200D02*
D03*
X25900Y58700D02*
D03*
X28688Y56788D02*
D03*
X27100Y56800D02*
D03*
X26256Y57044D02*
D03*
X28600Y68800D02*
D03*
X29449Y74251D02*
D03*
X28700Y63900D02*
D03*
Y48800D02*
D03*
X28800Y43900D02*
D03*
X28100Y34100D02*
D03*
Y50400D02*
D03*
X28600D02*
D03*
X28500Y39800D02*
D03*
X29500Y44900D02*
D03*
X27100Y51000D02*
D03*
X38300Y57500D02*
D03*
X37600Y54500D02*
D03*
X37300Y54200D02*
D03*
X36600Y49900D02*
D03*
X37800Y52000D02*
D03*
X27000Y51800D02*
D03*
X26900Y52300D02*
D03*
X52900Y73100D02*
D03*
Y72200D02*
D03*
X52800Y67800D02*
D03*
X53000Y67100D02*
D03*
X52800Y63100D02*
D03*
Y62300D02*
D03*
X53000Y58200D02*
D03*
Y57100D02*
D03*
X52900Y53000D02*
D03*
X53000Y52000D02*
D03*
X52900Y47700D02*
D03*
X53000Y46500D02*
D03*
Y43300D02*
D03*
X52800Y42300D02*
D03*
X53000Y38000D02*
D03*
Y37300D02*
D03*
X48200Y35200D02*
D03*
X47400Y32600D02*
D03*
X52400Y70000D02*
D03*
X79100Y64800D02*
D03*
X74240Y58100D02*
D03*
X76700Y33300D02*
D03*
X73450Y32710D02*
D03*
X24900Y50800D02*
D03*
X38000Y57100D02*
D03*
X38400D02*
D03*
X79500Y49200D02*
D03*
X80500Y41900D02*
D03*
X80200Y42300D02*
D03*
X80000Y46500D02*
D03*
X77800Y47200D02*
D03*
X75892Y47648D02*
D03*
X63100Y32500D02*
D03*
X64235Y32965D02*
D03*
X64200Y48300D02*
D03*
Y49900D02*
D03*
X55000Y77100D02*
D03*
X55200Y78500D02*
D03*
X57500Y77400D02*
D03*
X55000Y72200D02*
D03*
X57500Y72500D02*
D03*
X55200Y73600D02*
D03*
X55000Y67300D02*
D03*
X57500Y67600D02*
D03*
X55200Y68700D02*
D03*
X55000Y62400D02*
D03*
X57500Y62700D02*
D03*
X55200Y63800D02*
D03*
X55000Y57500D02*
D03*
X57500Y57800D02*
D03*
X55200Y58900D02*
D03*
X55000Y52200D02*
D03*
X57500Y52500D02*
D03*
X55200Y53600D02*
D03*
X55000Y47300D02*
D03*
X57500Y47600D02*
D03*
X55200Y48700D02*
D03*
X55000Y42400D02*
D03*
X57500Y42700D02*
D03*
X55200Y43800D02*
D03*
X55000Y37500D02*
D03*
X57500Y37800D02*
D03*
X55200Y38900D02*
D03*
X55000Y32600D02*
D03*
X57500Y32900D02*
D03*
X55200Y34000D02*
D03*
X58000Y33400D02*
D03*
Y31600D02*
D03*
Y41300D02*
D03*
Y36500D02*
D03*
Y42900D02*
D03*
Y37900D02*
D03*
Y46400D02*
D03*
Y47700D02*
D03*
Y51100D02*
D03*
X58300Y52800D02*
D03*
X57900Y58300D02*
D03*
Y56500D02*
D03*
Y62900D02*
D03*
Y61400D02*
D03*
Y68000D02*
D03*
Y66400D02*
D03*
Y72700D02*
D03*
Y71200D02*
D03*
X61300Y43000D02*
D03*
X59000Y56200D02*
D03*
X60300Y54900D02*
D03*
X53426Y78026D02*
D03*
X53300Y77000D02*
D03*
Y72100D02*
D03*
X53426Y73126D02*
D03*
Y68226D02*
D03*
X53300Y62300D02*
D03*
X53426Y63326D02*
D03*
Y53126D02*
D03*
X53449Y48200D02*
D03*
X53300Y42300D02*
D03*
X53426Y43326D02*
D03*
Y38426D02*
D03*
X53300Y36800D02*
D03*
X53323Y46800D02*
D03*
X53300Y51500D02*
D03*
Y66800D02*
D03*
X61800Y36300D02*
D03*
X62450Y35550D02*
D03*
X60400Y75000D02*
D03*
X52400Y74800D02*
D03*
X53300Y58000D02*
D03*
X53310Y56810D02*
D03*
X58500Y31100D02*
D03*
X68500Y71500D02*
D03*
X70300Y70500D02*
D03*
X66700Y70600D02*
D03*
X69800Y73900D02*
D03*
X29100Y52400D02*
D03*
X30000Y53350D02*
D03*
X28800Y57550D02*
D03*
X30200Y58550D02*
D03*
X65628Y74072D02*
D03*
X63880Y75620D02*
D03*
X63450Y78500D02*
D03*
X64350Y76400D02*
D03*
X68185Y75835D02*
D03*
D126*
X68100Y68500D02*
D03*
X26900Y30900D02*
D03*
X26500Y35600D02*
D03*
X26600Y40600D02*
D03*
X26135Y45365D02*
D03*
X25800Y59700D02*
D03*
X26800Y65400D02*
D03*
X26700Y70500D02*
D03*
X26840Y75500D02*
D03*
X66500Y69600D02*
D03*
X65100Y77500D02*
D03*
X66400Y76500D02*
D03*
X64800Y74800D02*
D03*
X67500Y79000D02*
D03*
X64247Y43853D02*
D03*
X52250Y63000D02*
D03*
X31200Y34100D02*
D03*
X31100Y39000D02*
D03*
X67050Y34050D02*
D03*
X63550D02*
D03*
X63450Y37050D02*
D03*
X67050D02*
D03*
Y44150D02*
D03*
X63650Y47150D02*
D03*
X66900Y47200D02*
D03*
X47135Y54065D02*
D03*
X46100Y54100D02*
D03*
X46022Y50578D02*
D03*
X52600Y50500D02*
D03*
X51765Y53165D02*
D03*
X41065Y53635D02*
D03*
X42335Y51135D02*
D03*
X47135Y59365D02*
D03*
X46100Y59400D02*
D03*
X46022Y55878D02*
D03*
X52600Y55800D02*
D03*
X51765Y58465D02*
D03*
X41065Y58935D02*
D03*
X42335Y56435D02*
D03*
X32100Y54000D02*
D03*
X32900Y51000D02*
D03*
X33891Y52608D02*
D03*
X30900Y50900D02*
D03*
X36151Y51251D02*
D03*
X34200Y53900D02*
D03*
X32100Y59300D02*
D03*
X32900Y56300D02*
D03*
X33891Y57909D02*
D03*
X30900Y56200D02*
D03*
X36151Y56551D02*
D03*
X34200Y59200D02*
D03*
X46022Y30978D02*
D03*
X47135Y34465D02*
D03*
X46100Y34500D02*
D03*
X52600Y30900D02*
D03*
X51765Y33565D02*
D03*
X41065Y34035D02*
D03*
X42335Y31535D02*
D03*
X46022Y35878D02*
D03*
X47135Y39365D02*
D03*
X46100Y39400D02*
D03*
X52600Y35800D02*
D03*
X51765Y38465D02*
D03*
X41065Y38935D02*
D03*
X42335Y36435D02*
D03*
X46022Y45678D02*
D03*
X47135Y49165D02*
D03*
X46100Y49200D02*
D03*
X52600Y45600D02*
D03*
X51765Y48265D02*
D03*
X41065Y48735D02*
D03*
X42335Y46235D02*
D03*
X46022Y40778D02*
D03*
X47135Y44265D02*
D03*
X46100Y44300D02*
D03*
X52600Y40700D02*
D03*
X51765Y43365D02*
D03*
X41065Y43835D02*
D03*
X42335Y41335D02*
D03*
X32300Y34400D02*
D03*
X33100Y31400D02*
D03*
X34091Y33008D02*
D03*
X31100Y31300D02*
D03*
X36351Y31651D02*
D03*
X34400Y34300D02*
D03*
X32300Y44200D02*
D03*
X33100Y41200D02*
D03*
X34091Y42808D02*
D03*
X31100Y41100D02*
D03*
X36351Y41451D02*
D03*
X34400Y44100D02*
D03*
X32300Y39300D02*
D03*
X34091Y37908D02*
D03*
X33100Y36300D02*
D03*
X35500Y37400D02*
D03*
X31100Y36200D02*
D03*
X36351Y36551D02*
D03*
X34400Y39200D02*
D03*
X32300Y49100D02*
D03*
X34091Y47709D02*
D03*
X33100Y46100D02*
D03*
X35500Y47200D02*
D03*
X31100Y46000D02*
D03*
X36351Y46351D02*
D03*
X34400Y49000D02*
D03*
X27192Y34192D02*
D03*
X26800Y32700D02*
D03*
X27192Y43991D02*
D03*
X26800Y42500D02*
D03*
X27192Y39091D02*
D03*
X26800Y37600D02*
D03*
X27192Y48892D02*
D03*
X26800Y47400D02*
D03*
X47135Y64265D02*
D03*
X46100Y64300D02*
D03*
X46022Y60778D02*
D03*
X52600Y60700D02*
D03*
X41065Y63835D02*
D03*
X42335Y61335D02*
D03*
X46022Y65678D02*
D03*
X47135Y69165D02*
D03*
X46100Y69200D02*
D03*
X52600Y65600D02*
D03*
X51765Y68265D02*
D03*
X41065Y68735D02*
D03*
X42335Y66235D02*
D03*
X32300Y64200D02*
D03*
X33100Y61200D02*
D03*
X34091Y62808D02*
D03*
X31100Y61100D02*
D03*
X36351Y61451D02*
D03*
X34400Y64100D02*
D03*
X27192Y63991D02*
D03*
X26800Y62500D02*
D03*
X32300Y69100D02*
D03*
X34091Y67709D02*
D03*
X33100Y66100D02*
D03*
X35500Y67200D02*
D03*
X31100Y66000D02*
D03*
X36351Y66351D02*
D03*
X34400Y69000D02*
D03*
X27192Y68892D02*
D03*
X26800Y67400D02*
D03*
X34400Y73900D02*
D03*
X46022Y70578D02*
D03*
X47135Y74065D02*
D03*
X46100Y74100D02*
D03*
X52600Y70500D02*
D03*
X51765Y73165D02*
D03*
X41065Y73635D02*
D03*
X42335Y71135D02*
D03*
X36351Y76151D02*
D03*
X46022Y75478D02*
D03*
X47135Y78965D02*
D03*
X46100Y79000D02*
D03*
X41065Y78535D02*
D03*
X34400Y78800D02*
D03*
X35500Y77000D02*
D03*
X33100Y75900D02*
D03*
X34091Y77509D02*
D03*
X32300Y78900D02*
D03*
X31200Y78600D02*
D03*
X31100Y75800D02*
D03*
X27192Y78692D02*
D03*
X26800Y77200D02*
D03*
X52600Y75400D02*
D03*
X42335Y76035D02*
D03*
X51765Y78065D02*
D03*
X26800Y72300D02*
D03*
X27192Y73791D02*
D03*
X33100Y71000D02*
D03*
X31100Y70900D02*
D03*
X36351Y71251D02*
D03*
X34091Y72608D02*
D03*
X32300Y74000D02*
D03*
X72500Y43100D02*
D03*
X74300Y44300D02*
D03*
X76078Y44478D02*
D03*
X75100Y44500D02*
D03*
X76078Y36822D02*
D03*
X75200Y36800D02*
D03*
X77000Y38300D02*
D03*
X78500Y39100D02*
D03*
Y39800D02*
D03*
X78291Y41291D02*
D03*
X78400Y43000D02*
D03*
X70900Y42200D02*
D03*
Y40400D02*
D03*
X71000Y39100D02*
D03*
X72700Y37100D02*
D03*
X74400Y37000D02*
D03*
X73400Y44500D02*
D03*
X82200Y39200D02*
D03*
X80750Y34750D02*
D03*
X73752Y49952D02*
D03*
X74850Y34050D02*
D03*
X71450D02*
D03*
X74950Y34550D02*
D03*
X80750Y53950D02*
D03*
X80000Y57600D02*
D03*
X81300Y58700D02*
D03*
X77765Y53635D02*
D03*
X81965Y48835D02*
D03*
X77900Y51800D02*
D03*
X77191Y52509D02*
D03*
X72909Y51009D02*
D03*
X72200Y52300D02*
D03*
X74900Y56700D02*
D03*
X74258Y56658D02*
D03*
X38372Y76772D02*
D03*
X39400Y72800D02*
D03*
X38372Y67028D02*
D03*
X39500Y63100D02*
D03*
X38000Y59800D02*
D03*
X39600Y55900D02*
D03*
X38100Y54000D02*
D03*
X39689Y50611D02*
D03*
X38300Y47200D02*
D03*
X39700Y43200D02*
D03*
X38372Y37328D02*
D03*
X39396Y33204D02*
D03*
X24612Y56788D02*
D03*
X31300Y68800D02*
D03*
X31200Y73700D02*
D03*
Y63900D02*
D03*
Y48800D02*
D03*
Y43900D02*
D03*
X26100Y51300D02*
D03*
X79100Y60100D02*
D03*
X75940Y58100D02*
D03*
X67600Y37400D02*
D03*
X55100Y76200D02*
D03*
X53600Y78400D02*
D03*
X53965Y76035D02*
D03*
X57200Y76100D02*
D03*
X55100Y71300D02*
D03*
X53600Y73500D02*
D03*
X53965Y71135D02*
D03*
X57200Y71200D02*
D03*
X55100Y66400D02*
D03*
X53600Y68600D02*
D03*
X53965Y66235D02*
D03*
X57200Y66300D02*
D03*
X55100Y61500D02*
D03*
X53600Y63700D02*
D03*
X53965Y61335D02*
D03*
X57200Y61400D02*
D03*
X55100Y56600D02*
D03*
X53600Y58800D02*
D03*
X53965Y56435D02*
D03*
X57200Y56500D02*
D03*
X55100Y51300D02*
D03*
X53600Y53500D02*
D03*
X53965Y51135D02*
D03*
X57200Y51200D02*
D03*
X55100Y46400D02*
D03*
X53600Y48600D02*
D03*
X53965Y46235D02*
D03*
X57200Y46300D02*
D03*
X55100Y41500D02*
D03*
X53600Y43700D02*
D03*
X53965Y41335D02*
D03*
X57200Y41400D02*
D03*
X55100Y36600D02*
D03*
X53600Y38800D02*
D03*
X53965Y36435D02*
D03*
X57200Y36500D02*
D03*
X55100Y31700D02*
D03*
X53600Y33900D02*
D03*
X53965Y31535D02*
D03*
X57200Y31600D02*
D03*
X55474Y79425D02*
D03*
X55526Y74474D02*
D03*
X55500Y69500D02*
D03*
X55426Y64574D02*
D03*
Y59974D02*
D03*
X55474Y54374D02*
D03*
X55426Y49974D02*
D03*
X55400Y34800D02*
D03*
Y39700D02*
D03*
X55500Y44900D02*
D03*
X57635Y78635D02*
D03*
X57435Y54235D02*
D03*
X62200Y48100D02*
D03*
X65000Y72600D02*
D03*
X65300Y71200D02*
D03*
X69709Y71891D02*
D03*
X71065Y69065D02*
D03*
X68100Y73900D02*
D03*
X29100Y54050D02*
D03*
X30100Y52450D02*
D03*
X29100Y59150D02*
D03*
X30250Y57500D02*
D03*
X62680Y77920D02*
D03*
X62750Y76150D02*
D03*
X69650Y75900D02*
D03*
D127*
X73400Y74100D02*
D03*
M02*
