%FSLAX24Y24*%
%MOIN*%
G70*
G01*
G75*
G04 Layer_Color=8421504*
G04 Layer_Color=8421504*
%ADD10C,0.0080*%
%ADD11R,0.0157X0.0610*%
%ADD12R,0.0394X0.0433*%
%ADD13R,0.0610X0.0157*%
%ADD14R,0.0846X0.0157*%
%ADD15O,0.0409X0.0150*%
%ADD16R,0.0409X0.0150*%
%ADD17R,0.0571X0.0217*%
%ADD18R,0.0236X0.0866*%
%ADD19R,0.0630X0.0118*%
%ADD20R,0.0630X0.0118*%
%ADD21R,0.0807X0.0236*%
%ADD22R,0.0610X0.0118*%
%ADD23R,0.0571X0.0118*%
%ADD24R,0.0157X0.0846*%
%ADD25R,0.0157X0.0846*%
%ADD26R,0.0866X0.0236*%
%ADD27R,0.0866X0.0236*%
%ADD28O,0.0480X0.0169*%
%ADD29R,0.0315X0.1417*%
%ADD30R,0.1240X0.1360*%
%ADD31R,0.0236X0.0807*%
%ADD32R,0.0118X0.0610*%
%ADD33R,0.0728X0.0236*%
%ADD34R,0.0906X0.0591*%
%ADD35R,0.0480X0.0169*%
%ADD36R,0.0236X0.0669*%
%ADD37R,0.0150X0.0600*%
%ADD38R,0.1010X0.0620*%
%ADD39R,0.0433X0.0394*%
%ADD40R,0.0472X0.0787*%
%ADD41R,0.0787X0.0472*%
%ADD42R,0.0787X0.0866*%
%ADD43R,0.0630X0.0709*%
%ADD44C,0.0160*%
%ADD45C,0.0120*%
%ADD46C,0.0100*%
%ADD47C,0.0250*%
%ADD48C,0.0500*%
%ADD49C,0.1575*%
%ADD50C,0.0866*%
%ADD51C,0.0600*%
%ADD52C,0.0591*%
%ADD53R,0.0591X0.0591*%
%ADD54C,0.1800*%
%ADD55C,0.0500*%
%ADD56C,0.0250*%
%ADD57C,0.0400*%
%ADD58C,0.0098*%
%ADD59C,0.0079*%
%ADD60C,0.0070*%
%ADD61C,0.0040*%
D11*
X63728Y76383D02*
D03*
X63216D02*
D03*
X63472D02*
D03*
X63984D02*
D03*
X63216Y78017D02*
D03*
X63472D02*
D03*
X63728D02*
D03*
X63984D02*
D03*
X65116Y74783D02*
D03*
X65372D02*
D03*
X65628D02*
D03*
X65884D02*
D03*
X65116Y76417D02*
D03*
X65372D02*
D03*
X65628D02*
D03*
X65884D02*
D03*
D12*
X64700Y73535D02*
D03*
X58400Y70135D02*
D03*
Y69465D02*
D03*
X58500Y78065D02*
D03*
Y78735D02*
D03*
X57800Y53565D02*
D03*
Y54235D02*
D03*
X58500Y74365D02*
D03*
Y75035D02*
D03*
X58400Y64565D02*
D03*
Y65235D02*
D03*
Y59765D02*
D03*
Y60435D02*
D03*
Y49165D02*
D03*
Y49835D02*
D03*
Y44665D02*
D03*
Y45335D02*
D03*
Y39765D02*
D03*
Y40435D02*
D03*
Y34865D02*
D03*
Y35535D02*
D03*
X64700Y72865D02*
D03*
X24400Y76865D02*
D03*
Y77535D02*
D03*
Y71965D02*
D03*
Y72635D02*
D03*
Y67065D02*
D03*
Y67735D02*
D03*
Y62165D02*
D03*
Y62835D02*
D03*
Y47065D02*
D03*
Y47735D02*
D03*
Y42165D02*
D03*
Y42835D02*
D03*
Y37265D02*
D03*
Y37935D02*
D03*
Y32365D02*
D03*
Y33035D02*
D03*
X25800Y60835D02*
D03*
Y60165D02*
D03*
X40600Y75865D02*
D03*
Y76535D02*
D03*
Y66065D02*
D03*
Y66735D02*
D03*
Y57035D02*
D03*
Y56365D02*
D03*
X40500Y51735D02*
D03*
Y51065D02*
D03*
X40800Y46065D02*
D03*
Y46735D02*
D03*
X40600Y36265D02*
D03*
Y36935D02*
D03*
Y31365D02*
D03*
Y32035D02*
D03*
X82500Y57735D02*
D03*
Y57065D02*
D03*
Y54235D02*
D03*
Y53565D02*
D03*
X72000Y49035D02*
D03*
Y48365D02*
D03*
X31600Y76735D02*
D03*
Y76065D02*
D03*
Y71835D02*
D03*
Y71165D02*
D03*
Y66935D02*
D03*
Y66265D02*
D03*
Y62035D02*
D03*
Y61365D02*
D03*
X31400Y57135D02*
D03*
Y56465D02*
D03*
Y51835D02*
D03*
Y51165D02*
D03*
X31600Y46935D02*
D03*
Y46265D02*
D03*
Y42035D02*
D03*
Y41365D02*
D03*
Y37135D02*
D03*
Y36465D02*
D03*
Y32235D02*
D03*
Y31565D02*
D03*
X67700Y74135D02*
D03*
Y73465D02*
D03*
Y75835D02*
D03*
Y75165D02*
D03*
X64200Y49435D02*
D03*
Y48765D02*
D03*
X62200Y47065D02*
D03*
Y47735D02*
D03*
X68900Y71535D02*
D03*
Y70865D02*
D03*
X68000Y70965D02*
D03*
Y71635D02*
D03*
X40600Y77865D02*
D03*
Y78535D02*
D03*
Y72965D02*
D03*
Y73635D02*
D03*
Y68065D02*
D03*
Y68735D02*
D03*
Y63165D02*
D03*
Y63835D02*
D03*
Y58265D02*
D03*
Y58935D02*
D03*
Y52965D02*
D03*
Y53635D02*
D03*
Y48065D02*
D03*
Y48735D02*
D03*
Y43165D02*
D03*
Y43835D02*
D03*
Y38265D02*
D03*
Y38935D02*
D03*
Y33365D02*
D03*
Y34035D02*
D03*
X52600Y78735D02*
D03*
Y78065D02*
D03*
X52450Y73935D02*
D03*
Y73265D02*
D03*
X52550Y69135D02*
D03*
Y68465D02*
D03*
X52450Y64285D02*
D03*
Y63615D02*
D03*
X52500Y59335D02*
D03*
Y58665D02*
D03*
Y54085D02*
D03*
Y53415D02*
D03*
X52550Y48935D02*
D03*
Y48265D02*
D03*
Y44185D02*
D03*
Y43515D02*
D03*
Y39185D02*
D03*
Y38515D02*
D03*
X52600Y34235D02*
D03*
Y33565D02*
D03*
Y76535D02*
D03*
Y75865D02*
D03*
Y71635D02*
D03*
Y70965D02*
D03*
Y66735D02*
D03*
Y66065D02*
D03*
Y61835D02*
D03*
Y61165D02*
D03*
Y56935D02*
D03*
Y56265D02*
D03*
Y51635D02*
D03*
Y50965D02*
D03*
Y46735D02*
D03*
Y46065D02*
D03*
Y41835D02*
D03*
Y41165D02*
D03*
Y36935D02*
D03*
Y36265D02*
D03*
Y32035D02*
D03*
Y31365D02*
D03*
D13*
X29083Y58684D02*
D03*
Y58428D02*
D03*
Y58172D02*
D03*
Y57916D02*
D03*
X30717Y58684D02*
D03*
Y58428D02*
D03*
Y58172D02*
D03*
Y57916D02*
D03*
X28983Y53484D02*
D03*
Y53228D02*
D03*
Y52972D02*
D03*
Y52716D02*
D03*
X30617Y53484D02*
D03*
Y53228D02*
D03*
Y52972D02*
D03*
Y52716D02*
D03*
X31983Y34084D02*
D03*
Y33828D02*
D03*
Y33572D02*
D03*
Y33316D02*
D03*
X33617Y34084D02*
D03*
Y33828D02*
D03*
Y33572D02*
D03*
Y33316D02*
D03*
X31983Y38984D02*
D03*
Y38728D02*
D03*
Y38472D02*
D03*
Y38216D02*
D03*
X33617Y38984D02*
D03*
Y38728D02*
D03*
Y38472D02*
D03*
Y38216D02*
D03*
X31983Y43884D02*
D03*
Y43628D02*
D03*
Y43372D02*
D03*
Y43116D02*
D03*
X33617Y43884D02*
D03*
Y43628D02*
D03*
Y43372D02*
D03*
Y43116D02*
D03*
X31983Y48784D02*
D03*
Y48528D02*
D03*
Y48272D02*
D03*
Y48016D02*
D03*
X33617Y48784D02*
D03*
Y48528D02*
D03*
Y48272D02*
D03*
Y48016D02*
D03*
X31783Y53684D02*
D03*
Y53428D02*
D03*
Y53172D02*
D03*
Y52916D02*
D03*
X33417Y53684D02*
D03*
Y53428D02*
D03*
Y53172D02*
D03*
Y52916D02*
D03*
X31783Y58984D02*
D03*
Y58728D02*
D03*
Y58472D02*
D03*
Y58216D02*
D03*
X33417Y58984D02*
D03*
Y58728D02*
D03*
Y58472D02*
D03*
Y58216D02*
D03*
X31983Y63884D02*
D03*
Y63628D02*
D03*
Y63372D02*
D03*
Y63116D02*
D03*
X33617Y63884D02*
D03*
Y63628D02*
D03*
Y63372D02*
D03*
Y63116D02*
D03*
X31983Y68784D02*
D03*
Y68528D02*
D03*
Y68272D02*
D03*
Y68016D02*
D03*
X33617Y68784D02*
D03*
Y68528D02*
D03*
Y68272D02*
D03*
Y68016D02*
D03*
X31983Y73684D02*
D03*
Y73428D02*
D03*
Y73172D02*
D03*
Y72916D02*
D03*
X33617Y73684D02*
D03*
Y73428D02*
D03*
Y73172D02*
D03*
Y72916D02*
D03*
X31983Y78584D02*
D03*
Y78328D02*
D03*
Y78072D02*
D03*
Y77816D02*
D03*
X33617Y78584D02*
D03*
Y78328D02*
D03*
Y78072D02*
D03*
Y77816D02*
D03*
D14*
X27889Y52642D02*
D03*
X27989Y57812D02*
D03*
X25411Y56532D02*
D03*
X27989D02*
D03*
X25411Y57556D02*
D03*
Y57300D02*
D03*
X27989Y57556D02*
D03*
Y57300D02*
D03*
Y57044D02*
D03*
X25411D02*
D03*
X27989Y56788D02*
D03*
X25411D02*
D03*
X27989Y58068D02*
D03*
X25411Y57812D02*
D03*
Y58068D02*
D03*
X25311Y52898D02*
D03*
Y52642D02*
D03*
Y52386D02*
D03*
Y52130D02*
D03*
Y51874D02*
D03*
Y51618D02*
D03*
Y51362D02*
D03*
X27889Y52898D02*
D03*
Y52386D02*
D03*
Y52130D02*
D03*
Y51874D02*
D03*
Y51618D02*
D03*
Y51362D02*
D03*
D15*
X34269Y75432D02*
D03*
Y75688D02*
D03*
Y75944D02*
D03*
Y76200D02*
D03*
X32600Y75432D02*
D03*
Y75688D02*
D03*
Y75944D02*
D03*
Y71044D02*
D03*
Y70788D02*
D03*
Y70532D02*
D03*
X34269Y71300D02*
D03*
Y71044D02*
D03*
Y70788D02*
D03*
Y70532D02*
D03*
Y65632D02*
D03*
Y65888D02*
D03*
Y66144D02*
D03*
Y66400D02*
D03*
X32600Y65632D02*
D03*
Y65888D02*
D03*
Y66144D02*
D03*
Y61244D02*
D03*
Y60988D02*
D03*
Y60732D02*
D03*
X34269Y61500D02*
D03*
Y61244D02*
D03*
Y60988D02*
D03*
Y60732D02*
D03*
X34069Y55832D02*
D03*
Y56088D02*
D03*
Y56344D02*
D03*
Y56600D02*
D03*
X32400Y55832D02*
D03*
Y56088D02*
D03*
Y56344D02*
D03*
Y51044D02*
D03*
Y50788D02*
D03*
Y50532D02*
D03*
X34069Y51300D02*
D03*
Y51044D02*
D03*
Y50788D02*
D03*
Y50532D02*
D03*
X34269Y45632D02*
D03*
Y45888D02*
D03*
Y46144D02*
D03*
Y46400D02*
D03*
X32600Y45632D02*
D03*
Y45888D02*
D03*
Y46144D02*
D03*
Y41244D02*
D03*
Y40988D02*
D03*
Y40732D02*
D03*
X34269Y41500D02*
D03*
Y41244D02*
D03*
Y40988D02*
D03*
Y40732D02*
D03*
Y35832D02*
D03*
Y36088D02*
D03*
Y36344D02*
D03*
Y36600D02*
D03*
X32600Y35832D02*
D03*
Y36088D02*
D03*
Y36344D02*
D03*
Y31444D02*
D03*
Y31188D02*
D03*
Y30932D02*
D03*
X34269Y31700D02*
D03*
Y31444D02*
D03*
Y31188D02*
D03*
Y30932D02*
D03*
D16*
X32600Y76200D02*
D03*
Y71300D02*
D03*
Y66400D02*
D03*
Y61500D02*
D03*
X32400Y56600D02*
D03*
Y51300D02*
D03*
X32600Y46400D02*
D03*
Y41500D02*
D03*
Y36600D02*
D03*
Y31700D02*
D03*
D17*
X69423Y74274D02*
D03*
Y73526D02*
D03*
X68577D02*
D03*
Y73900D02*
D03*
Y74274D02*
D03*
X54923Y34274D02*
D03*
Y33526D02*
D03*
X54077D02*
D03*
Y33900D02*
D03*
Y34274D02*
D03*
X54923Y39174D02*
D03*
Y38426D02*
D03*
X54077D02*
D03*
Y38800D02*
D03*
Y39174D02*
D03*
X54923Y44074D02*
D03*
Y43326D02*
D03*
X54077D02*
D03*
Y43700D02*
D03*
Y44074D02*
D03*
X54923Y48974D02*
D03*
Y48226D02*
D03*
X54077D02*
D03*
Y48600D02*
D03*
Y48974D02*
D03*
X54923Y53874D02*
D03*
Y53126D02*
D03*
X54077D02*
D03*
Y53500D02*
D03*
Y53874D02*
D03*
X54923Y59174D02*
D03*
Y58426D02*
D03*
X54077D02*
D03*
Y58800D02*
D03*
Y59174D02*
D03*
X54923Y64074D02*
D03*
Y63326D02*
D03*
X54077D02*
D03*
Y63700D02*
D03*
Y64074D02*
D03*
X54923Y68974D02*
D03*
Y68226D02*
D03*
X54077D02*
D03*
Y68600D02*
D03*
Y68974D02*
D03*
X54923Y73874D02*
D03*
Y73126D02*
D03*
X54077D02*
D03*
Y73500D02*
D03*
Y73874D02*
D03*
X54923Y78774D02*
D03*
Y78026D02*
D03*
X54077D02*
D03*
Y78400D02*
D03*
Y78774D02*
D03*
D18*
X45100Y56576D02*
D03*
X45600D02*
D03*
X46100D02*
D03*
X46600D02*
D03*
X47100D02*
D03*
X47600D02*
D03*
X48100D02*
D03*
X45100Y58624D02*
D03*
X45600D02*
D03*
X46100D02*
D03*
X46600D02*
D03*
X47100D02*
D03*
X47600D02*
D03*
X48100D02*
D03*
Y33724D02*
D03*
X47600D02*
D03*
X47100D02*
D03*
X46600D02*
D03*
X46100D02*
D03*
X45600D02*
D03*
X45100D02*
D03*
X48100Y31676D02*
D03*
X47600D02*
D03*
X47100D02*
D03*
X46600D02*
D03*
X46100D02*
D03*
X45600D02*
D03*
X45100D02*
D03*
X48100Y38624D02*
D03*
X47600D02*
D03*
X47100D02*
D03*
X46600D02*
D03*
X46100D02*
D03*
X45600D02*
D03*
X45100D02*
D03*
X48100Y36576D02*
D03*
X47600D02*
D03*
X47100D02*
D03*
X46600D02*
D03*
X46100D02*
D03*
X45600D02*
D03*
X45100D02*
D03*
X48100Y43524D02*
D03*
X47600D02*
D03*
X47100D02*
D03*
X46600D02*
D03*
X46100D02*
D03*
X45600D02*
D03*
X45100D02*
D03*
X48100Y41476D02*
D03*
X47600D02*
D03*
X47100D02*
D03*
X46600D02*
D03*
X46100D02*
D03*
X45600D02*
D03*
X45100D02*
D03*
X48100Y48424D02*
D03*
X47600D02*
D03*
X47100D02*
D03*
X46600D02*
D03*
X46100D02*
D03*
X45600D02*
D03*
X45100D02*
D03*
X48100Y46376D02*
D03*
X47600D02*
D03*
X47100D02*
D03*
X46600D02*
D03*
X46100D02*
D03*
X45600D02*
D03*
X45100D02*
D03*
X48100Y53324D02*
D03*
X47600D02*
D03*
X47100D02*
D03*
X46600D02*
D03*
X46100D02*
D03*
X45600D02*
D03*
X45100D02*
D03*
X48100Y51276D02*
D03*
X47600D02*
D03*
X47100D02*
D03*
X46600D02*
D03*
X46100D02*
D03*
X45600D02*
D03*
X45100D02*
D03*
X48100Y63524D02*
D03*
X47600D02*
D03*
X47100D02*
D03*
X46600D02*
D03*
X46100D02*
D03*
X45600D02*
D03*
X45100D02*
D03*
X48100Y61476D02*
D03*
X47600D02*
D03*
X47100D02*
D03*
X46600D02*
D03*
X46100D02*
D03*
X45600D02*
D03*
X45100D02*
D03*
X48100Y73324D02*
D03*
X47600D02*
D03*
X47100D02*
D03*
X46600D02*
D03*
X46100D02*
D03*
X45600D02*
D03*
X45100D02*
D03*
X48100Y71276D02*
D03*
X47600D02*
D03*
X47100D02*
D03*
X46600D02*
D03*
X46100D02*
D03*
X45600D02*
D03*
X45100D02*
D03*
Y76176D02*
D03*
X45600D02*
D03*
X46100D02*
D03*
X46600D02*
D03*
X47100D02*
D03*
X47600D02*
D03*
X48100D02*
D03*
X45100Y78224D02*
D03*
X45600D02*
D03*
X46100D02*
D03*
X46600D02*
D03*
X47100D02*
D03*
X47600D02*
D03*
X48100D02*
D03*
X45100Y66376D02*
D03*
X45600D02*
D03*
X46100D02*
D03*
X46600D02*
D03*
X47100D02*
D03*
X47600D02*
D03*
X48100D02*
D03*
X45100Y68424D02*
D03*
X45600D02*
D03*
X46100D02*
D03*
X46600D02*
D03*
X47100D02*
D03*
X47600D02*
D03*
X48100D02*
D03*
D19*
X57207Y56806D02*
D03*
Y57003D02*
D03*
Y57200D02*
D03*
Y57397D02*
D03*
X55593Y56806D02*
D03*
Y57003D02*
D03*
Y57200D02*
D03*
X55593Y57397D02*
D03*
X55593Y57594D02*
D03*
X57207Y31906D02*
D03*
Y32103D02*
D03*
Y32300D02*
D03*
Y32497D02*
D03*
X55593Y31906D02*
D03*
Y32103D02*
D03*
Y32300D02*
D03*
X55593Y32497D02*
D03*
X55593Y32694D02*
D03*
X57207Y36806D02*
D03*
Y37003D02*
D03*
Y37200D02*
D03*
Y37397D02*
D03*
X55593Y36806D02*
D03*
Y37003D02*
D03*
Y37200D02*
D03*
X55593Y37397D02*
D03*
X55593Y37594D02*
D03*
X57207Y41706D02*
D03*
Y41903D02*
D03*
Y42100D02*
D03*
Y42297D02*
D03*
X55593Y41706D02*
D03*
Y41903D02*
D03*
Y42100D02*
D03*
X55593Y42297D02*
D03*
X55593Y42494D02*
D03*
X57207Y46606D02*
D03*
Y46803D02*
D03*
Y47000D02*
D03*
Y47197D02*
D03*
X55593Y46606D02*
D03*
Y46803D02*
D03*
Y47000D02*
D03*
X55593Y47197D02*
D03*
X55593Y47394D02*
D03*
X57207Y51506D02*
D03*
Y51703D02*
D03*
Y51900D02*
D03*
Y52097D02*
D03*
X55593Y51506D02*
D03*
Y51703D02*
D03*
Y51900D02*
D03*
X55593Y52097D02*
D03*
X55593Y52294D02*
D03*
X57207Y61706D02*
D03*
Y61903D02*
D03*
Y62100D02*
D03*
Y62297D02*
D03*
X55593Y61706D02*
D03*
Y61903D02*
D03*
Y62100D02*
D03*
X55593Y62297D02*
D03*
X55593Y62494D02*
D03*
X57207Y66606D02*
D03*
Y66803D02*
D03*
Y67000D02*
D03*
Y67197D02*
D03*
X55593Y66606D02*
D03*
Y66803D02*
D03*
Y67000D02*
D03*
X55593Y67197D02*
D03*
X55593Y67394D02*
D03*
X57207Y71506D02*
D03*
Y71703D02*
D03*
Y71900D02*
D03*
Y72097D02*
D03*
X55593Y71506D02*
D03*
Y71703D02*
D03*
Y71900D02*
D03*
X55593Y72097D02*
D03*
X55593Y72294D02*
D03*
X57207Y76406D02*
D03*
Y76603D02*
D03*
Y76800D02*
D03*
Y76997D02*
D03*
X55593Y76406D02*
D03*
Y76603D02*
D03*
Y76800D02*
D03*
X55593Y76997D02*
D03*
X55593Y77194D02*
D03*
D20*
X57207Y57594D02*
D03*
Y32694D02*
D03*
Y37594D02*
D03*
Y42494D02*
D03*
Y47394D02*
D03*
Y52294D02*
D03*
Y62494D02*
D03*
Y67394D02*
D03*
Y72294D02*
D03*
Y77194D02*
D03*
D21*
X64247Y46150D02*
D03*
Y46650D02*
D03*
X66353D02*
D03*
Y46150D02*
D03*
X64247Y34550D02*
D03*
Y45150D02*
D03*
Y45650D02*
D03*
Y33550D02*
D03*
Y47650D02*
D03*
X66353Y44150D02*
D03*
Y44650D02*
D03*
Y45150D02*
D03*
Y45650D02*
D03*
Y47150D02*
D03*
Y47650D02*
D03*
X64247Y44150D02*
D03*
Y44650D02*
D03*
Y47150D02*
D03*
Y37050D02*
D03*
Y36550D02*
D03*
Y36050D02*
D03*
Y35550D02*
D03*
Y35050D02*
D03*
Y34050D02*
D03*
X66353Y37050D02*
D03*
Y36550D02*
D03*
Y36050D02*
D03*
Y35550D02*
D03*
Y35050D02*
D03*
Y34550D02*
D03*
Y34050D02*
D03*
Y33550D02*
D03*
D22*
X77722Y41487D02*
D03*
Y42668D02*
D03*
Y38338D02*
D03*
Y38535D02*
D03*
Y38732D02*
D03*
Y38928D02*
D03*
Y39125D02*
D03*
Y39322D02*
D03*
Y39519D02*
D03*
Y39716D02*
D03*
Y39913D02*
D03*
Y40109D02*
D03*
Y40306D02*
D03*
Y40503D02*
D03*
Y40700D02*
D03*
Y40897D02*
D03*
Y41094D02*
D03*
Y41291D02*
D03*
Y41684D02*
D03*
Y41881D02*
D03*
Y42078D02*
D03*
Y42275D02*
D03*
Y42472D02*
D03*
Y42865D02*
D03*
Y43062D02*
D03*
X71678Y38338D02*
D03*
Y38535D02*
D03*
Y38732D02*
D03*
Y38928D02*
D03*
Y39125D02*
D03*
Y39322D02*
D03*
Y39519D02*
D03*
Y39716D02*
D03*
Y39913D02*
D03*
Y40109D02*
D03*
Y40306D02*
D03*
Y40503D02*
D03*
Y40700D02*
D03*
Y40897D02*
D03*
Y41094D02*
D03*
Y41291D02*
D03*
Y41487D02*
D03*
Y41684D02*
D03*
Y41881D02*
D03*
Y42078D02*
D03*
Y42275D02*
D03*
Y42472D02*
D03*
Y42668D02*
D03*
Y42865D02*
D03*
Y43062D02*
D03*
D23*
X75412Y47648D02*
D03*
X73188Y49952D02*
D03*
Y49696D02*
D03*
Y49440D02*
D03*
Y49184D02*
D03*
Y48928D02*
D03*
Y48672D02*
D03*
Y48416D02*
D03*
Y48160D02*
D03*
Y47904D02*
D03*
X73188Y47648D02*
D03*
X75412Y49952D02*
D03*
Y49696D02*
D03*
Y49440D02*
D03*
Y49184D02*
D03*
Y48928D02*
D03*
Y48672D02*
D03*
Y48416D02*
D03*
Y48160D02*
D03*
Y47904D02*
D03*
D24*
X37504Y56111D02*
D03*
X37704Y43811D02*
D03*
X37604Y34011D02*
D03*
Y63711D02*
D03*
X37504Y50611D02*
D03*
X37604Y73511D02*
D03*
D25*
X37760Y56111D02*
D03*
X38016D02*
D03*
X38272D02*
D03*
X38528D02*
D03*
X38784D02*
D03*
X39040D02*
D03*
X39296D02*
D03*
X37504Y58689D02*
D03*
X37760D02*
D03*
X38016D02*
D03*
X38272D02*
D03*
X38528D02*
D03*
X38784D02*
D03*
X39040D02*
D03*
X39296D02*
D03*
X39496Y46389D02*
D03*
X39240D02*
D03*
X38984D02*
D03*
X38728D02*
D03*
X38472D02*
D03*
X38216D02*
D03*
X37960D02*
D03*
X37704D02*
D03*
X39496Y43811D02*
D03*
X39240D02*
D03*
X38984D02*
D03*
X38728D02*
D03*
X38472D02*
D03*
X38216D02*
D03*
X37960D02*
D03*
X39396Y36589D02*
D03*
X39140D02*
D03*
X38884D02*
D03*
X38628D02*
D03*
X38372D02*
D03*
X38116D02*
D03*
X37860D02*
D03*
X37604D02*
D03*
X39396Y34011D02*
D03*
X38116D02*
D03*
X37860D02*
D03*
X39396Y66289D02*
D03*
X39140D02*
D03*
X38884D02*
D03*
X38628D02*
D03*
X38372D02*
D03*
X38116D02*
D03*
X37860D02*
D03*
X37604D02*
D03*
X39396Y63711D02*
D03*
X38116D02*
D03*
X37860D02*
D03*
X37760Y50611D02*
D03*
X38016D02*
D03*
X38272D02*
D03*
X38528D02*
D03*
X38784D02*
D03*
X39040D02*
D03*
X39296D02*
D03*
X37504Y53189D02*
D03*
X37760D02*
D03*
X38016D02*
D03*
X38272D02*
D03*
X38528D02*
D03*
X38784D02*
D03*
X39040D02*
D03*
X39296D02*
D03*
X37860Y73511D02*
D03*
X38116D02*
D03*
X38372D02*
D03*
X38628D02*
D03*
X38884D02*
D03*
X39140D02*
D03*
X39396D02*
D03*
X37604Y76089D02*
D03*
X37860D02*
D03*
X38116D02*
D03*
X38372D02*
D03*
X38628D02*
D03*
X38884D02*
D03*
X39140D02*
D03*
X39396D02*
D03*
X38372Y63711D02*
D03*
X38628D02*
D03*
X38884D02*
D03*
X39140D02*
D03*
X38372Y34011D02*
D03*
X38628D02*
D03*
X38884D02*
D03*
X39140D02*
D03*
D26*
X74224Y34050D02*
D03*
X25776Y77950D02*
D03*
Y73050D02*
D03*
Y68150D02*
D03*
Y48150D02*
D03*
Y43250D02*
D03*
Y38350D02*
D03*
Y33450D02*
D03*
Y63250D02*
D03*
D27*
X72176Y35550D02*
D03*
Y35050D02*
D03*
Y34550D02*
D03*
Y34050D02*
D03*
X74224Y35550D02*
D03*
Y35050D02*
D03*
Y34550D02*
D03*
X25776Y32450D02*
D03*
X27824Y33450D02*
D03*
Y32950D02*
D03*
Y32450D02*
D03*
Y31950D02*
D03*
X25776Y37350D02*
D03*
X27824Y38350D02*
D03*
Y37850D02*
D03*
Y37350D02*
D03*
Y36850D02*
D03*
X25776Y42250D02*
D03*
X27824Y43250D02*
D03*
Y42750D02*
D03*
Y42250D02*
D03*
Y41750D02*
D03*
X25776Y47150D02*
D03*
X27824Y48150D02*
D03*
Y47650D02*
D03*
Y47150D02*
D03*
Y46650D02*
D03*
X25776Y67150D02*
D03*
X27824Y68150D02*
D03*
Y67650D02*
D03*
Y67150D02*
D03*
Y66650D02*
D03*
X25776Y72050D02*
D03*
X27824Y73050D02*
D03*
Y72550D02*
D03*
Y72050D02*
D03*
Y71550D02*
D03*
X25776Y76950D02*
D03*
X27824Y77950D02*
D03*
Y77450D02*
D03*
Y76950D02*
D03*
Y76450D02*
D03*
X25776D02*
D03*
Y71550D02*
D03*
Y66650D02*
D03*
Y46650D02*
D03*
Y41750D02*
D03*
Y36850D02*
D03*
Y31950D02*
D03*
X27824Y61750D02*
D03*
Y62250D02*
D03*
Y62750D02*
D03*
Y63250D02*
D03*
X25776Y61750D02*
D03*
Y62250D02*
D03*
Y77450D02*
D03*
Y72550D02*
D03*
Y67650D02*
D03*
Y62750D02*
D03*
Y47650D02*
D03*
Y42750D02*
D03*
Y37850D02*
D03*
Y32950D02*
D03*
D28*
X35000Y32844D02*
D03*
Y32588D02*
D03*
Y32332D02*
D03*
X36031Y33100D02*
D03*
Y32844D02*
D03*
Y32588D02*
D03*
Y32332D02*
D03*
X35000Y37744D02*
D03*
Y37488D02*
D03*
Y37232D02*
D03*
X36031Y38000D02*
D03*
Y37744D02*
D03*
Y37488D02*
D03*
Y37232D02*
D03*
X35000Y42644D02*
D03*
Y42388D02*
D03*
Y42132D02*
D03*
X36031Y42900D02*
D03*
Y42644D02*
D03*
Y42388D02*
D03*
Y42132D02*
D03*
X35000Y47544D02*
D03*
Y47288D02*
D03*
Y47032D02*
D03*
X36031Y47800D02*
D03*
Y47544D02*
D03*
Y47288D02*
D03*
Y47032D02*
D03*
X34800Y52444D02*
D03*
Y52188D02*
D03*
Y51932D02*
D03*
X35831Y52700D02*
D03*
Y52444D02*
D03*
Y52188D02*
D03*
Y51932D02*
D03*
X34800Y57744D02*
D03*
Y57488D02*
D03*
Y57232D02*
D03*
X35831Y58000D02*
D03*
Y57744D02*
D03*
Y57488D02*
D03*
Y57232D02*
D03*
X35000Y62644D02*
D03*
Y62388D02*
D03*
Y62132D02*
D03*
X36031Y62900D02*
D03*
Y62644D02*
D03*
Y62388D02*
D03*
Y62132D02*
D03*
X35000Y67544D02*
D03*
Y67288D02*
D03*
Y67032D02*
D03*
X36031Y67800D02*
D03*
Y67544D02*
D03*
Y67288D02*
D03*
Y67032D02*
D03*
X35000Y72444D02*
D03*
Y72188D02*
D03*
Y71932D02*
D03*
X36031Y72700D02*
D03*
Y72444D02*
D03*
Y72188D02*
D03*
Y71932D02*
D03*
X35000Y77344D02*
D03*
Y77088D02*
D03*
Y76832D02*
D03*
X36031Y77600D02*
D03*
Y77344D02*
D03*
Y77088D02*
D03*
Y76832D02*
D03*
D29*
X79100Y63681D02*
D03*
Y61319D02*
D03*
X73400Y70719D02*
D03*
Y73081D02*
D03*
Y75119D02*
D03*
Y77481D02*
D03*
D30*
X77410Y71200D02*
D03*
X80790D02*
D03*
X77410Y76500D02*
D03*
X80790D02*
D03*
D31*
X80750Y56753D02*
D03*
X80250D02*
D03*
X79750D02*
D03*
X79250D02*
D03*
X80750Y54647D02*
D03*
X80250D02*
D03*
X79750D02*
D03*
X79250D02*
D03*
D32*
X72338Y37678D02*
D03*
X72535D02*
D03*
X72731D02*
D03*
X72928D02*
D03*
X73125D02*
D03*
X73322D02*
D03*
X73519D02*
D03*
X73716D02*
D03*
X73913D02*
D03*
X74109D02*
D03*
X74306D02*
D03*
X74503D02*
D03*
X74700D02*
D03*
X74897D02*
D03*
X75094D02*
D03*
X75291D02*
D03*
X75487D02*
D03*
X75684D02*
D03*
X75881D02*
D03*
X76078D02*
D03*
X76275D02*
D03*
X76472D02*
D03*
X76669D02*
D03*
X76865D02*
D03*
X77062D02*
D03*
X72338Y43722D02*
D03*
X72535D02*
D03*
X72731D02*
D03*
X72928D02*
D03*
X73125D02*
D03*
X73322D02*
D03*
X73519D02*
D03*
X73716D02*
D03*
X73913D02*
D03*
X74109D02*
D03*
X74306D02*
D03*
X74503D02*
D03*
X74700D02*
D03*
X74897D02*
D03*
X75094D02*
D03*
X75291D02*
D03*
X75487D02*
D03*
X75684D02*
D03*
X75881D02*
D03*
X76078D02*
D03*
X76275D02*
D03*
X76472D02*
D03*
X76669D02*
D03*
X76865D02*
D03*
X77062D02*
D03*
D33*
X81507Y36250D02*
D03*
X81507Y35750D02*
D03*
Y35250D02*
D03*
Y34750D02*
D03*
X83693Y36250D02*
D03*
Y35750D02*
D03*
Y35250D02*
D03*
Y34750D02*
D03*
D34*
X81500Y41200D02*
D03*
Y39200D02*
D03*
X83311Y41200D02*
D03*
Y39200D02*
D03*
D35*
X35000Y77600D02*
D03*
Y72700D02*
D03*
Y67800D02*
D03*
Y62900D02*
D03*
X34800Y58000D02*
D03*
Y52700D02*
D03*
X35000Y47800D02*
D03*
Y42900D02*
D03*
Y38000D02*
D03*
Y33100D02*
D03*
D36*
X68450Y69922D02*
D03*
X67950D02*
D03*
X67450D02*
D03*
X66950D02*
D03*
X68450Y67678D02*
D03*
X67950D02*
D03*
X67450D02*
D03*
X66950D02*
D03*
D37*
X74002Y53750D02*
D03*
X74258D02*
D03*
X74514D02*
D03*
X74770D02*
D03*
X75026D02*
D03*
X75282D02*
D03*
X75538D02*
D03*
X74002Y56050D02*
D03*
X74258D02*
D03*
X74514D02*
D03*
X74770D02*
D03*
X75026D02*
D03*
X75282D02*
D03*
X75538D02*
D03*
X75794Y53750D02*
D03*
Y56050D02*
D03*
X76050Y53750D02*
D03*
Y56050D02*
D03*
X73746D02*
D03*
Y53750D02*
D03*
D38*
X74900Y54900D02*
D03*
D39*
X26235Y78900D02*
D03*
X25565D02*
D03*
X26235Y74000D02*
D03*
X25565D02*
D03*
X26135Y69100D02*
D03*
X25465D02*
D03*
X26235Y64200D02*
D03*
X25565D02*
D03*
X26135Y49200D02*
D03*
X25465D02*
D03*
X25935Y44100D02*
D03*
X25265D02*
D03*
X26035Y39200D02*
D03*
X25365D02*
D03*
X26135Y34400D02*
D03*
X25465D02*
D03*
X25665Y75500D02*
D03*
X26335D02*
D03*
X25665Y70800D02*
D03*
X26335D02*
D03*
X25665Y65700D02*
D03*
X26335D02*
D03*
X25465Y45900D02*
D03*
X26135D02*
D03*
X25365Y40900D02*
D03*
X26035D02*
D03*
X25265Y36100D02*
D03*
X25935D02*
D03*
X25565Y31000D02*
D03*
X26235D02*
D03*
X43265Y76600D02*
D03*
X43935D02*
D03*
X43265Y71700D02*
D03*
X43935D02*
D03*
X43265Y66800D02*
D03*
X43935D02*
D03*
X43265Y61900D02*
D03*
X43935D02*
D03*
X43265Y57000D02*
D03*
X43935D02*
D03*
X43265Y51700D02*
D03*
X43935D02*
D03*
X43265Y46800D02*
D03*
X43935D02*
D03*
X43265Y41900D02*
D03*
X43935D02*
D03*
X43265Y37000D02*
D03*
X43935D02*
D03*
X43265Y32100D02*
D03*
X43935D02*
D03*
X41665Y78800D02*
D03*
X42335D02*
D03*
X41665Y73900D02*
D03*
X42335D02*
D03*
X41665Y69000D02*
D03*
X42335D02*
D03*
X41665Y64100D02*
D03*
X42335D02*
D03*
X41665Y59200D02*
D03*
X42335D02*
D03*
X41665Y53900D02*
D03*
X42335D02*
D03*
X41665Y49000D02*
D03*
X42335D02*
D03*
X41665Y44100D02*
D03*
X42335D02*
D03*
X41665Y39200D02*
D03*
X42335D02*
D03*
X41665Y34300D02*
D03*
X42335D02*
D03*
X40935Y70700D02*
D03*
X40265D02*
D03*
X40835Y60900D02*
D03*
X40165D02*
D03*
X40835Y40800D02*
D03*
X40165D02*
D03*
X42535Y76600D02*
D03*
X41865D02*
D03*
X42535Y71700D02*
D03*
X41865D02*
D03*
X42535Y66800D02*
D03*
X41865D02*
D03*
X42535Y61900D02*
D03*
X41865D02*
D03*
X42535Y57000D02*
D03*
X41865D02*
D03*
X42535Y51700D02*
D03*
X41865D02*
D03*
X42535Y46800D02*
D03*
X41865D02*
D03*
X42535Y41900D02*
D03*
X41865D02*
D03*
X42535Y37000D02*
D03*
X41865D02*
D03*
X42535Y32100D02*
D03*
X41865D02*
D03*
X41665Y77800D02*
D03*
X42335D02*
D03*
X41665Y72900D02*
D03*
X42335D02*
D03*
X41665Y68000D02*
D03*
X42335D02*
D03*
X41665Y63100D02*
D03*
X42335D02*
D03*
X41665Y58200D02*
D03*
X42335D02*
D03*
X41665Y52900D02*
D03*
X42335D02*
D03*
X41665Y48000D02*
D03*
X42335D02*
D03*
X41665Y43100D02*
D03*
X42335D02*
D03*
X41665Y38200D02*
D03*
X42335D02*
D03*
X41665Y33300D02*
D03*
X42335D02*
D03*
X44135Y77800D02*
D03*
X43465D02*
D03*
X44135Y72900D02*
D03*
X43465D02*
D03*
X44135Y68000D02*
D03*
X43465D02*
D03*
X44135Y63100D02*
D03*
X43465D02*
D03*
X44135Y58200D02*
D03*
X43465D02*
D03*
X44135Y52900D02*
D03*
X43465D02*
D03*
X44135Y48000D02*
D03*
X43465D02*
D03*
X44135Y43100D02*
D03*
X43465D02*
D03*
X44135Y38200D02*
D03*
X43465D02*
D03*
X44135Y33300D02*
D03*
X43465D02*
D03*
X51535Y78800D02*
D03*
X50865D02*
D03*
X51535Y73900D02*
D03*
X50865D02*
D03*
X51535Y69000D02*
D03*
X50865D02*
D03*
X51535Y64100D02*
D03*
X50865D02*
D03*
X51535Y59200D02*
D03*
X50865D02*
D03*
X51535Y53900D02*
D03*
X50865D02*
D03*
X51535Y49000D02*
D03*
X50865D02*
D03*
X51535Y44100D02*
D03*
X50865D02*
D03*
X51535Y39200D02*
D03*
X50865D02*
D03*
X51535Y34300D02*
D03*
X50865D02*
D03*
X49935Y76800D02*
D03*
X49265D02*
D03*
X49935Y71900D02*
D03*
X49265D02*
D03*
X49935Y67000D02*
D03*
X49265D02*
D03*
X49935Y62100D02*
D03*
X49265D02*
D03*
X49935Y57200D02*
D03*
X49265D02*
D03*
X49935Y51900D02*
D03*
X49265D02*
D03*
X49935Y47000D02*
D03*
X49265D02*
D03*
X49935Y42100D02*
D03*
X49265D02*
D03*
X49935Y37200D02*
D03*
X49265D02*
D03*
X49935Y32300D02*
D03*
X49265D02*
D03*
X49935Y78800D02*
D03*
X49265D02*
D03*
X49935Y73900D02*
D03*
X49265D02*
D03*
X49935Y69000D02*
D03*
X49265D02*
D03*
X49935Y64100D02*
D03*
X49265D02*
D03*
X49935Y59200D02*
D03*
X49265D02*
D03*
X49935Y53900D02*
D03*
X49265D02*
D03*
X49935Y49000D02*
D03*
X49265D02*
D03*
X49935Y44100D02*
D03*
X49265D02*
D03*
X49935Y39200D02*
D03*
X49265D02*
D03*
X49935Y34300D02*
D03*
X49265D02*
D03*
X50665Y77800D02*
D03*
X51335D02*
D03*
X50665Y72900D02*
D03*
X51335D02*
D03*
X50665Y68000D02*
D03*
X51335D02*
D03*
X50665Y63100D02*
D03*
X51335D02*
D03*
X50665Y58200D02*
D03*
X51335D02*
D03*
X50665Y52900D02*
D03*
X51335D02*
D03*
X50665Y48000D02*
D03*
X51335D02*
D03*
X50665Y43100D02*
D03*
X51335D02*
D03*
X50665Y38200D02*
D03*
X51335D02*
D03*
X50665Y33300D02*
D03*
X51335D02*
D03*
X51535Y76800D02*
D03*
X50865D02*
D03*
X51535Y71900D02*
D03*
X50865D02*
D03*
X51535Y67000D02*
D03*
X50865D02*
D03*
X51535Y62100D02*
D03*
X50865D02*
D03*
X51535Y57200D02*
D03*
X50865D02*
D03*
X51535Y51900D02*
D03*
X50865D02*
D03*
X51535Y47000D02*
D03*
X50865D02*
D03*
X51535Y42100D02*
D03*
X50865D02*
D03*
X51535Y37200D02*
D03*
X50865D02*
D03*
X51535Y32300D02*
D03*
X50865D02*
D03*
X51535Y75800D02*
D03*
X50865D02*
D03*
X51535Y70900D02*
D03*
X50865D02*
D03*
X51535Y66000D02*
D03*
X50865D02*
D03*
X51535Y61100D02*
D03*
X50865D02*
D03*
X51535Y56200D02*
D03*
X50865D02*
D03*
X51535Y50900D02*
D03*
X50865D02*
D03*
X51535Y46000D02*
D03*
X50865D02*
D03*
X51535Y41100D02*
D03*
X50865D02*
D03*
X51535Y36200D02*
D03*
X50865D02*
D03*
X51535Y31300D02*
D03*
X50865D02*
D03*
X82835Y51900D02*
D03*
X82165D02*
D03*
X82835Y50500D02*
D03*
X82165D02*
D03*
X77335Y34400D02*
D03*
X76665D02*
D03*
X79635D02*
D03*
X78965D02*
D03*
X77935Y46400D02*
D03*
X77265D02*
D03*
X77735Y49500D02*
D03*
X77065D02*
D03*
X78765Y46400D02*
D03*
X79435D02*
D03*
X73865D02*
D03*
X74535D02*
D03*
X75465D02*
D03*
X76135D02*
D03*
X66035Y78000D02*
D03*
X65365D02*
D03*
X54535Y77400D02*
D03*
X53865D02*
D03*
X54535Y72500D02*
D03*
X53865D02*
D03*
X54535Y67600D02*
D03*
X53865D02*
D03*
X54535Y62700D02*
D03*
X53865D02*
D03*
X54535Y57800D02*
D03*
X53865D02*
D03*
X54535Y52500D02*
D03*
X53865D02*
D03*
X54535Y47600D02*
D03*
X53865D02*
D03*
X54535Y42700D02*
D03*
X53865D02*
D03*
X54535Y37800D02*
D03*
X53865D02*
D03*
X54535Y32900D02*
D03*
X53865D02*
D03*
X63565Y32500D02*
D03*
X64235D02*
D03*
X64435Y43000D02*
D03*
X63765D02*
D03*
X62435Y44800D02*
D03*
X61765D02*
D03*
X63235Y34500D02*
D03*
X62565D02*
D03*
X24935Y78700D02*
D03*
X24265D02*
D03*
X24935Y73700D02*
D03*
X24265D02*
D03*
X24835Y68800D02*
D03*
X24165D02*
D03*
X24935Y64000D02*
D03*
X24265D02*
D03*
X24835Y48900D02*
D03*
X24165D02*
D03*
X24535Y43900D02*
D03*
X23865D02*
D03*
X24435Y39100D02*
D03*
X23765D02*
D03*
X24635Y34300D02*
D03*
X23965D02*
D03*
X24935Y75600D02*
D03*
X24265D02*
D03*
X24935Y70800D02*
D03*
X24265D02*
D03*
X24935Y65700D02*
D03*
X24265D02*
D03*
X25035Y61100D02*
D03*
X24365D02*
D03*
X24835Y45900D02*
D03*
X24165D02*
D03*
X24735Y40900D02*
D03*
X24065D02*
D03*
X24535Y36100D02*
D03*
X23865D02*
D03*
X24835Y31000D02*
D03*
X24165D02*
D03*
X54635Y76400D02*
D03*
X53965D02*
D03*
X54635Y71500D02*
D03*
X53965D02*
D03*
X54635Y66600D02*
D03*
X53965D02*
D03*
X54635Y61700D02*
D03*
X53965D02*
D03*
X54635Y56800D02*
D03*
X53965D02*
D03*
X54635Y51500D02*
D03*
X53965D02*
D03*
X54635Y46600D02*
D03*
X53965D02*
D03*
X54635Y41700D02*
D03*
X53965D02*
D03*
X54635Y36800D02*
D03*
X53965D02*
D03*
X54635Y31900D02*
D03*
X53965D02*
D03*
X77765Y54000D02*
D03*
X78435D02*
D03*
X81965Y49400D02*
D03*
X82635D02*
D03*
X43265Y75600D02*
D03*
X43935D02*
D03*
X43265Y70700D02*
D03*
X43935D02*
D03*
X43265Y65800D02*
D03*
X43935D02*
D03*
X43265Y60900D02*
D03*
X43935D02*
D03*
X43265Y56000D02*
D03*
X43935D02*
D03*
X43265Y50700D02*
D03*
X43935D02*
D03*
X43265Y45800D02*
D03*
X43935D02*
D03*
X43265Y40900D02*
D03*
X43935D02*
D03*
X43265Y36000D02*
D03*
X43935D02*
D03*
X43265Y31100D02*
D03*
X43935D02*
D03*
X43265Y78800D02*
D03*
X43935D02*
D03*
X43265Y73900D02*
D03*
X43935D02*
D03*
X43265Y69000D02*
D03*
X43935D02*
D03*
X43265Y64100D02*
D03*
X43935D02*
D03*
X43265Y59200D02*
D03*
X43935D02*
D03*
X43265Y53900D02*
D03*
X43935D02*
D03*
X43265Y49000D02*
D03*
X43935D02*
D03*
X43265Y44100D02*
D03*
X43935D02*
D03*
X43265Y39200D02*
D03*
X43935D02*
D03*
X43265Y34300D02*
D03*
X43935D02*
D03*
X41665Y75600D02*
D03*
X42335D02*
D03*
X41665Y70700D02*
D03*
X42335D02*
D03*
X41665Y65800D02*
D03*
X42335D02*
D03*
X41665Y60900D02*
D03*
X42335D02*
D03*
X41665Y56000D02*
D03*
X42335D02*
D03*
X41665Y50700D02*
D03*
X42335D02*
D03*
X41665Y45800D02*
D03*
X42335D02*
D03*
X41665Y40900D02*
D03*
X42335D02*
D03*
X41665Y36000D02*
D03*
X42335D02*
D03*
X41665Y31100D02*
D03*
X42335D02*
D03*
X49065Y77800D02*
D03*
X49735D02*
D03*
X49065Y72900D02*
D03*
X49735D02*
D03*
X49065Y68000D02*
D03*
X49735D02*
D03*
X49065Y63100D02*
D03*
X49735D02*
D03*
X49065Y58200D02*
D03*
X49735D02*
D03*
X49065Y52900D02*
D03*
X49735D02*
D03*
X49065Y48000D02*
D03*
X49735D02*
D03*
X49065Y43100D02*
D03*
X49735D02*
D03*
X49065Y38200D02*
D03*
X49735D02*
D03*
X49065Y33300D02*
D03*
X49735D02*
D03*
X49935Y75800D02*
D03*
X49265D02*
D03*
X49935Y70900D02*
D03*
X49265D02*
D03*
X49935Y66000D02*
D03*
X49265D02*
D03*
X49935Y61100D02*
D03*
X49265D02*
D03*
X49935Y56200D02*
D03*
X49265D02*
D03*
X49935Y50900D02*
D03*
X49265D02*
D03*
X49935Y46000D02*
D03*
X49265D02*
D03*
X49935Y41100D02*
D03*
X49265D02*
D03*
X49935Y36200D02*
D03*
X49265D02*
D03*
X49935Y31300D02*
D03*
X49265D02*
D03*
X75455Y58100D02*
D03*
X74785D02*
D03*
D40*
X55900Y78349D02*
D03*
Y79451D02*
D03*
X56000Y73549D02*
D03*
Y74651D02*
D03*
Y68649D02*
D03*
Y69751D02*
D03*
X55900Y63749D02*
D03*
Y64851D02*
D03*
Y59049D02*
D03*
Y60151D02*
D03*
X56000Y53549D02*
D03*
Y54651D02*
D03*
Y48949D02*
D03*
Y50051D02*
D03*
Y43849D02*
D03*
Y44951D02*
D03*
Y38849D02*
D03*
Y39951D02*
D03*
Y33949D02*
D03*
Y35051D02*
D03*
X67700Y77149D02*
D03*
Y78251D02*
D03*
D41*
X29449Y78600D02*
D03*
X30551D02*
D03*
X29449Y73700D02*
D03*
X30551D02*
D03*
X29449Y68800D02*
D03*
X30551D02*
D03*
X29449Y63900D02*
D03*
X30551D02*
D03*
X29449Y48800D02*
D03*
X30551D02*
D03*
X29449Y43900D02*
D03*
X30551D02*
D03*
X29449Y39000D02*
D03*
X30551D02*
D03*
X29449Y34100D02*
D03*
X30551D02*
D03*
X30351Y75800D02*
D03*
X29249D02*
D03*
X30351Y70900D02*
D03*
X29249D02*
D03*
X30351Y66000D02*
D03*
X29249D02*
D03*
X30351Y61100D02*
D03*
X29249D02*
D03*
X30351Y46000D02*
D03*
X29249D02*
D03*
X30351Y41100D02*
D03*
X29249D02*
D03*
X30351Y36200D02*
D03*
X29249D02*
D03*
X30351Y31300D02*
D03*
X29249D02*
D03*
X36151Y78800D02*
D03*
X35049D02*
D03*
X36151Y73900D02*
D03*
X35049D02*
D03*
X36151Y69000D02*
D03*
X35049D02*
D03*
X36151Y64100D02*
D03*
X35049D02*
D03*
X35951Y59200D02*
D03*
X34849D02*
D03*
X35951Y53900D02*
D03*
X34849D02*
D03*
X36151Y49000D02*
D03*
X35049D02*
D03*
X36151Y44100D02*
D03*
X35049D02*
D03*
X36151Y39200D02*
D03*
X35049D02*
D03*
X36151Y34300D02*
D03*
X35049D02*
D03*
X36351Y75600D02*
D03*
X35249D02*
D03*
X36351Y70700D02*
D03*
X35249D02*
D03*
X36351Y65800D02*
D03*
X35249D02*
D03*
X36351Y60900D02*
D03*
X35249D02*
D03*
X36151Y56000D02*
D03*
X35049D02*
D03*
X36151Y50700D02*
D03*
X35049D02*
D03*
X36351Y45800D02*
D03*
X35249D02*
D03*
X36351Y40900D02*
D03*
X35249D02*
D03*
X36351Y36000D02*
D03*
X35249D02*
D03*
X36351Y31100D02*
D03*
X35249D02*
D03*
X79249Y58700D02*
D03*
X80351D02*
D03*
X69451Y37400D02*
D03*
X68349D02*
D03*
X66751Y72600D02*
D03*
X65649D02*
D03*
X70851Y71200D02*
D03*
X69749D02*
D03*
D42*
X65909D02*
D03*
X67091D02*
D03*
X76009Y51800D02*
D03*
X77191D02*
D03*
X72909D02*
D03*
X74091D02*
D03*
D43*
X29249Y77200D02*
D03*
X30351D02*
D03*
X29249Y72300D02*
D03*
X30351D02*
D03*
X29249Y67400D02*
D03*
X30351D02*
D03*
X29249Y62500D02*
D03*
X30351D02*
D03*
X29249Y56900D02*
D03*
X30351D02*
D03*
X29549Y51700D02*
D03*
X30651D02*
D03*
X29249Y47400D02*
D03*
X30351D02*
D03*
X29249Y42500D02*
D03*
X30351D02*
D03*
X29249Y37600D02*
D03*
X30351D02*
D03*
X29249Y32700D02*
D03*
X30351D02*
D03*
X37849Y78300D02*
D03*
X38951D02*
D03*
X39949Y71700D02*
D03*
X41051D02*
D03*
X37049Y68100D02*
D03*
X38151D02*
D03*
X39949Y61900D02*
D03*
X41051D02*
D03*
X40149Y55300D02*
D03*
X41251D02*
D03*
X40049Y50000D02*
D03*
X41151D02*
D03*
X37349Y48000D02*
D03*
X38451D02*
D03*
X39849Y41800D02*
D03*
X40951D02*
D03*
X37249Y38300D02*
D03*
X38351D02*
D03*
X38049Y31700D02*
D03*
X39151D02*
D03*
M02*
