M48
;Layer_Color=15461320
;FILE_FORMAT=2:4
INCH,LZ
;TYPE=PLATED
T1F00S00C0.0135
T2F00S00C0.0200
T3F00S00C0.0250
T4F00S00C0.0350
T5F00S00C0.0354
T6F00S00C0.0394
T7F00S00C0.0400
T8F00S00C0.0709
T9F00S00C0.1260
;TYPE=NON_PLATED
T10F00S00C0.1500
%
T01
X0526Y0309
X0585Y0311
X046022Y030978
X037988Y031088
X0321Y0311
X0269Y0309
X0275Y0316
X0286Y0313
X0311
X0312Y0341
X0311Y0362
X0286
X0275Y0365
X0268Y0376
X0273Y0387
X027192Y039091
X0288Y039
X0285Y0398
X0286Y0411
X0275Y0414
X0266Y0406
X0268Y0425
X0273Y0436
X027192Y043991
X0288Y0439
X0295Y0449
X0286Y046
X0275Y0463
X026135Y045365
X0234Y0426
X0229Y0371
X0217Y0351
X0265Y0356
X027192Y034192
X0273Y0338
X0281Y0341
X0287
X0268Y0327
X0311Y039
Y0411
X0312Y0439
X0311Y046
X0321Y0458
X0331Y0461
X034656Y046144
X0354Y0467
X036351Y046351
X0365Y045
X0368Y0441
X0374Y0444
Y0429
X036031Y043268
X0354Y0418
X036351Y041451
X0379Y0414
X0377Y0409
X038884Y041084
X0394Y0411
X0397Y0425
Y0432
X041065Y043835
X0389Y0446
X0387Y0453
Y0457
X03796Y04554
X0394Y0453
X0397Y0457
X042335Y046235
X046022Y045678
X0461Y0443
X0466Y04275
X0466Y0422
X046022Y040778
X0461Y0394
X0466Y03785
X0466Y0373
X046022Y035878
X0461Y0345
X0466Y03295
X0466Y0324
X042335Y031535
X041065Y034035
X039396Y033204
X0394Y0324
X0383Y0323
X036351Y031651
X0354Y032
X034656Y031444
X0331Y0314
X0325Y0331
X0331Y0339
X0323Y0344
X0321Y036
X0331Y0363
X034656Y036344
X0354Y0369
X0355Y0374
X036031Y038368
X0368Y0392
X0384Y039
X038884Y039084
X0394Y0387
X039396Y037704
X038628Y0377
X038372Y037328
X038884Y037284
X037604Y037296
X0376Y0357
X0367Y0352
X0368Y0343
X036031Y033468
X034091Y033008
X0344Y0343
X034091Y037908
X0344Y0392
X0331Y0388
X0323Y0393
X0325Y038
X0321Y0409
X0331Y0412
X034656Y041244
X034091Y042808
X0344Y0441
X0331Y0437
X0323Y0442
X0325Y0429
X0386Y0421
X042335Y041335
X041065Y038935
X042335Y036435
X0393Y0358
X036351Y036551
X047135Y034465
X0482Y0352
X0503Y0339
X0504Y0323
X051765Y033565
X0536Y0339
X0552Y034
X0554Y0348
X0551Y0366
X055Y0375
X0552Y0389
X0554Y0397
X0551Y0415
X055Y0424
X0552Y0438
X0555Y0449
X0551Y0464
X053965Y046235
X053323Y0468
X053Y0465
X0526Y0456
X053Y0433
X053426Y043326
X0536Y0437
X0533Y0423
X0528
X0526Y0407
X053965Y041335
X0536Y0388
X053426Y038426
X053Y038
Y0373
X0533Y0368
X053965Y036435
X0526Y0358
X051765Y038465
X0503Y0388
X0504Y0372
Y0421
X0503Y0437
X051765Y043365
X047135Y044265
Y039365
X0474Y0326
X055
X0551Y0317
X053965Y031535
X0572Y0316
X058Y0316
X0575Y0329
X058Y0334
Y0365
X0572Y0365
X0575Y0378
X058Y0379
Y0413
X0572Y0414
X0575Y0427
X058Y0429
X0613Y043
X058Y0464
X0572Y0463
X0618Y0363
X06245Y03555
X0621Y034
X06355Y03405
X064235Y032965
X0631Y0325
X06355Y03605
X06345Y03705
X06705
X0676Y0374
X0694Y039
X071Y0391
X0709Y0404
Y0422
X0724Y0418
X0723Y0413
X0722Y0398
X0724Y0393
X072435Y038535
X0731Y0383
X0737
X0756
X0761
X077
Y0394
Y04
Y042
Y0425
X0762Y0423
X0759Y043
X0753
X0765Y0431
X076078Y044478
X0756Y0448
X0752Y0451
X0751Y0445
X0743Y0443
X0734Y0445
X0735Y0454
X0745
X0742Y0459
X075465Y045965
X0764Y0456
X0772
X0778Y0451
X072778Y046
X0725Y0464
X071678Y044278
X071Y0443
X0706Y0445
X0725Y0431
X0733Y043
X0737
X0744Y037
X0752Y0368
X076078Y036822
X076665Y035465
X0767Y0333
X07485Y03405
X07495Y03455
X07345Y03555
X07285Y03505
X0714Y0353
X07145Y03405
X07345Y03271
X0727Y0371
X06705Y03405
X067Y0334
X06705Y04415
X064247Y043853
X0784Y043
X078291Y041291
X0785Y0398
Y0391
X0787Y0385
X078981Y039519
X0822Y0392
X0823Y0412
X0805Y0419
X0802Y0423
X08Y0465
X0809Y0462
X0783Y0464
X0786Y0456
X08632Y04552
X0869Y0434
X0874
X0855Y0419
X08265Y03525
X08075Y03475
X078965Y035565
X0809Y0469
X081965Y048835
X0827Y05
X082165Y050965
X0825Y0549
X08075Y05395
X07925
Y05755
X08Y0576
X0813Y0587
X083135Y057735
X0784Y0587
X0791Y0601
X0795Y0492
X0782Y0495
X07634Y04944
X0763Y049
X0768Y0489
X077265Y048235
X0777Y0478
X0778Y0472
X075892Y047648
X076Y0483
X076248Y049952
X076009Y051009
X0748Y0518
X0749Y0528
X074514Y053114
X075538Y053038
X0736Y0528
X0722Y0523
X072909Y051009
X073752Y049952
X0738Y0479
X072Y0496
X0669Y048
Y0472
X06365Y04715
X0642Y0483
Y0499
X0779Y0518
X077191Y052509
X077765Y053635
X075794Y056694
X0749Y0567
X074258Y056658
X0739Y0567
X07424Y0581
X07594
X0579Y0583
X0575Y0578
X0572Y0565
X0579Y0565
X059Y0562
X0603Y0549
X057435Y054235
X0575Y0525
X0583Y0528
X058Y0511
X0572Y0512
X0551Y0513
X055Y0522
X0552Y0536
X055474Y054374
X0551Y0566
X055Y0575
X0552Y0589
X055426Y059974
X0551Y0615
X055Y0624
X0533Y0623
X0528
X0526Y0607
X053965Y061335
X0536Y0588
X0533Y058
X053Y0582
Y0571
X05331Y05681
X053965Y056435
X0526Y0558
X0529Y053
X053426Y053126
X0536Y0535
X053Y052
X0533Y0515
X053965Y051135
X0526Y0505
X0536Y0486
X053449Y0482
X0529Y0477
X051765Y048265
X0503Y0486
X0504Y047
Y0519
X0503Y0535
X051765Y053165
Y058465
X0503Y0588
X0504Y0572
Y0621
X047135Y059365
Y054065
Y049165
X0552Y0487
X055426Y049974
X055Y0473
X0575Y0476
X058Y0477
X0622Y0481
X0579Y0614
X0572Y0614
X0466Y0622
X046022Y060778
X0461Y0594
X0466Y05785
X0466Y0573
X046022Y055878
X0461Y0541
X0466Y05255
X0466Y052
X046022Y050578
X0461Y0492
X0466Y04765
X0466Y0471
X041065Y048735
X0395Y0484
X039Y0488
Y0496
X0395
X039689Y050611
X039Y0514
X038528Y051328
X0384Y0518
X038528Y052428
X03776Y05246
X0378Y052
X0393Y0523
X039296Y054896
X038784Y054984
X0377Y055
X0376Y0545
X0373Y0542
Y0538
X0366Y0539
X035831Y053068
X0352Y0516
X036151Y051251
X0361Y0502
X0366Y0499
X0368Y049
X0378Y0492
X0381Y0495
Y0488
X0383Y0472
X038728Y047328
X039496Y047396
X0392Y0477
X0375Y0472
X0355
X036031Y048169
X034091Y047709
X0344Y049
X0331Y0486
X0323Y0491
X0325Y0478
X0319Y0507
X0329Y051
X034456Y051044
X033891Y052608
X0342Y0539
X0329Y0535
X0321Y054
X0323Y0527
X0319Y056
X0329Y0563
X034456Y056344
X0352Y0569
X036151Y056551
X036Y0555
X035831Y058369
X0366Y0592
X0373Y0594
X038Y0598
X0377Y0608
X0378Y0614
X038784Y061384
X039296Y061396
X0393Y0621
X0385
X036351Y061451
X0354Y0618
X034656Y061244
X0331Y0612
X0321Y0609
Y0593
X0329Y0588
X0323Y058
X033891Y057909
X0342Y0592
X03776Y05796
X0383Y0579
Y0575
X0384Y0571
X038
X0388Y0569
X0393Y0578
X0396Y0559
X042335Y056435
X041065Y058935
X042335Y061335
X041065Y053635
X0381Y054
X042335Y051135
X0309Y0509
X0301Y05245
X03Y05335
X0291Y05405
Y0524
X0269Y0523
X027Y0518
X0271Y051
X0261Y0513
X0249Y0508
X0281Y0504
X0286
X0287Y0488
X027192Y048892
X0273Y0485
X0268Y0474
X0238Y0472
X0312Y0488
X0309Y0562
X03025Y0575
X0302Y05855
X0291Y05915
X0288Y05755
X028688Y056788
X0271Y0568
X026256Y057044
X024612Y056788
X0259Y0587
X0258Y0597
X0269Y0602
X0278Y0599
X0275Y0614
X0286Y0611
X0311
X0242Y0605
X0268Y0625
X0273Y0636
X027192Y063991
X0287Y0639
X03Y0647
X0312Y0639
X0311Y066
X0286
X0275Y0663
X0268Y0654
Y0674
X0273Y0685
X027192Y068892
X0286Y0688
X0295Y0699
X0286Y0709
X0275Y0712
X0267Y0705
X0268Y0723
X0273Y0734
X027192Y073791
X02684Y0755
X0275Y0761
X0286Y0758
X029449Y074251
X029Y0728
X0312Y0737
X0311Y0758
Y0709
X0235Y0708
Y0756
X0268Y0772
X0236Y0657
X0321Y0658
X0331Y0661
X034656Y066144
X0354Y0667
X0355Y0672
X036031Y068169
X0368Y069
X038
X0389Y0688
X038884Y067916
X038628Y067392
X038372Y067028
X037604Y066996
X03786Y06546
X038628Y065628
X0393Y0655
Y0649
X0389Y0645
X0385Y0649
X0373Y0642
X0368Y0641
X0364Y065
X036351Y066351
X036031Y063268
X0371Y0629
X0395Y0631
X041065Y063835
X042335Y066235
X041065Y068735
X0394Y0684
X039396Y067404
X0394Y0712
X0389
X038Y0713
Y0707
X0386Y0719
X0396Y0723
X0394Y0728
X0398Y0743
X0389
X0384Y0747
Y0752
X03786Y07536
X0367Y0748
X0368Y0739
X0372Y0742
Y0727
X036031Y073068
X0354Y0716
X034656Y071044
X0331Y071
X0321Y0707
X0323Y0691
X0331Y0686
X0325Y0678
X034091Y067709
X0344Y069
X0313Y0688
X0325Y0727
X0331Y0735
X0323Y074
X0321Y0756
X0331Y0759
X034656Y075944
X0354Y0765
X0355Y077
X036031Y077969
X036351Y076151
X037604Y076896
X038372Y076772
X03914Y07676
X042335Y076035
X041065Y073635
X042335Y071135
X046022Y070578
X0461Y0692
X0466Y06765
X0466Y0671
X046022Y065678
X0461Y0643
X0466Y06275
X0466Y072
X0466Y07255
X0461Y0741
X046022Y075478
X0466Y0769
X0466Y07745
X034091Y077509
X0325Y0776
X0344Y0739
X034091Y072608
X036351Y071251
X0344Y0641
X034091Y062808
X0325Y0629
X0331Y0637
X0323Y0642
X047135Y064265
X0503Y0637
X05225Y063
X0528Y0631
X053426Y063326
X0536Y0637
X0552Y0638
X055426Y064574
X0551Y0664
X055Y0673
X0552Y0687
X0555Y0695
X0551Y0713
X055Y0722
X0552Y0736
X055526Y074474
X0551Y0762
X055Y0771
X0533Y077
X053426Y078026
X051765Y078065
X0504Y0768
X0503Y0735
X0504Y0719
X051765Y073165
X0529Y0731
X053426Y073126
X0536Y0735
X0533Y0721
X0529Y0722
X0526Y0705
X0524Y07
X051765Y068265
X0528Y0678
X053Y0671
X0533Y0668
X053965Y066235
X0526Y0656
X053426Y068226
X0536Y0686
X053965Y071135
X0572Y0712
X0579Y0712
Y0727
X0575Y0725
X0572Y0761
X0575Y0774
X053965Y076035
X0526Y0754
X0524Y0748
X047135Y074065
Y069165
X0503Y0686
X0504Y067
X0572Y0663
X0579Y0664
X0575Y0676
X0579Y068
Y0629
X0575Y0627
X0604Y075
X06275Y07615
X06388Y07562
X06435Y0764
X065372Y077072
X0651Y0775
X0664Y0765
X068185Y075835
X06965Y0759
X0698Y0739
X0681
X0661Y0743
X065628Y074072
X0648Y0748
X065Y0726
X0653Y0712
X0667Y0706
X0665Y0696
X0681Y0685
X0677Y0671
X0685Y0715
X069709Y071891
X0703Y0705
X071065Y069065
X06268Y07792
X0791Y0648
X0675Y079
X06345Y0785
X057635Y078635
X0552Y0785
X055474Y079425
X0536Y0784
X0503
X047135Y078965
X0461Y079
X041065Y078535
X0368Y0788
X0344
X0331Y0784
X0323Y0789
X0312Y0786
X0287
X027192Y078692
X0273Y0783
T02
X0711Y0346
X0702Y0374
X0777
X0757Y0348
X0759Y0712
X07741Y06991
Y07259
Y07539
Y07769
X0761Y0765
X0734Y0741
Y0694
Y0789
T03
X07375Y05448
X07376Y05525
X07584Y0553
X0758Y05456
T04
X0879Y034548
Y03555
Y03705
Y038052
T05
X0212Y0505
Y0515
Y0525
Y0535
Y0545
Y0555
Y0565
Y0575
Y0585
Y0595
X0222
Y0585
Y0575
Y0565
Y0555
Y0545
Y0535
Y0525
Y0515
Y0505
T06
X0881Y040276
Y041063
X088887
Y040276
Y04185
Y042638
X0881
Y04185
Y043425
Y044213
X088887
Y043425
Y045
X0881
T07
X0858Y0501
Y0511
Y0521
Y0531
Y0541
Y0551
Y0561
Y0571
X0888
Y0541
Y0531
Y0501
T08
X0856Y061093
Y062746
Y0644
Y066054
Y071493
Y073146
Y0748
Y076454
T09
X088474Y061093
Y066054
Y071493
Y076454
T10
X0225Y0325
X0875
Y08
X0225
M30
