%FSLAX24Y24*%
%MOIN*%
G70*
G01*
G75*
G04 Layer_Color=8388736*
G04 Layer_Color=8388736*
%ADD10C,0.0080*%
%ADD11R,0.0157X0.0610*%
%ADD12R,0.0394X0.0433*%
%ADD13R,0.0610X0.0157*%
%ADD14R,0.0846X0.0157*%
%ADD15O,0.0409X0.0150*%
%ADD16R,0.0409X0.0150*%
%ADD17R,0.0571X0.0217*%
%ADD18R,0.0236X0.0866*%
%ADD19R,0.0630X0.0118*%
%ADD20R,0.0630X0.0118*%
%ADD21R,0.0807X0.0236*%
%ADD22R,0.0610X0.0118*%
%ADD23R,0.0571X0.0118*%
%ADD24R,0.0157X0.0846*%
%ADD25R,0.0157X0.0846*%
%ADD26R,0.0866X0.0236*%
%ADD27R,0.0866X0.0236*%
%ADD28O,0.0480X0.0169*%
%ADD29R,0.0315X0.1417*%
%ADD30R,0.1240X0.1360*%
%ADD31R,0.0236X0.0807*%
%ADD32R,0.0118X0.0610*%
%ADD33R,0.0728X0.0236*%
%ADD34R,0.0906X0.0591*%
%ADD35R,0.0480X0.0169*%
%ADD36R,0.0236X0.0669*%
%ADD37R,0.0150X0.0600*%
%ADD38R,0.1010X0.0620*%
%ADD39R,0.0433X0.0394*%
%ADD40R,0.0472X0.0787*%
%ADD41R,0.0787X0.0472*%
%ADD42R,0.0787X0.0866*%
%ADD43R,0.0630X0.0709*%
%ADD44C,0.0160*%
%ADD45C,0.0120*%
%ADD46C,0.0100*%
%ADD47C,0.0250*%
%ADD48C,0.0500*%
%ADD49C,0.1575*%
%ADD50C,0.0866*%
%ADD51C,0.0600*%
%ADD52C,0.0591*%
%ADD53R,0.0591X0.0591*%
%ADD54C,0.1800*%
%ADD55C,0.0500*%
%ADD56C,0.0250*%
%ADD57C,0.0400*%
%ADD58C,0.0098*%
%ADD59C,0.0079*%
%ADD60C,0.0070*%
%ADD61C,0.0040*%
%ADD62R,0.0237X0.0690*%
%ADD63R,0.0474X0.0513*%
%ADD64R,0.0690X0.0237*%
%ADD65R,0.0926X0.0237*%
%ADD66O,0.0489X0.0230*%
%ADD67R,0.0489X0.0230*%
%ADD68R,0.0651X0.0297*%
%ADD69R,0.0316X0.0946*%
%ADD70R,0.0710X0.0198*%
%ADD71R,0.0710X0.0198*%
%ADD72R,0.0887X0.0316*%
%ADD73R,0.0690X0.0198*%
%ADD74R,0.0651X0.0198*%
%ADD75R,0.0237X0.0926*%
%ADD76R,0.0237X0.0926*%
%ADD77R,0.0946X0.0316*%
%ADD78R,0.0946X0.0316*%
%ADD79O,0.0560X0.0249*%
%ADD80R,0.0395X0.1497*%
%ADD81R,0.1320X0.1440*%
%ADD82R,0.0316X0.0887*%
%ADD83R,0.0198X0.0690*%
%ADD84R,0.0808X0.0316*%
%ADD85R,0.0986X0.0671*%
%ADD86R,0.0560X0.0249*%
%ADD87R,0.0316X0.0749*%
%ADD88R,0.0230X0.0680*%
%ADD89R,0.0513X0.0474*%
%ADD90R,0.0552X0.0867*%
%ADD91R,0.0867X0.0552*%
%ADD92R,0.0867X0.0946*%
%ADD93R,0.0710X0.0789*%
%ADD94C,0.1655*%
%ADD95C,0.0946*%
%ADD96C,0.0680*%
%ADD97C,0.0671*%
%ADD98R,0.0671X0.0671*%
%ADD99C,0.1880*%
%ADD100C,0.0580*%
%ADD101C,0.0330*%
%ADD102C,0.0480*%
D38*
X74900Y54900D02*
D03*
D62*
X63728Y76383D02*
D03*
X63216D02*
D03*
X63472D02*
D03*
X63984D02*
D03*
X63216Y78017D02*
D03*
X63472D02*
D03*
X63728D02*
D03*
X63984D02*
D03*
X65116Y74783D02*
D03*
X65372D02*
D03*
X65628D02*
D03*
X65884D02*
D03*
X65116Y76417D02*
D03*
X65372D02*
D03*
X65628D02*
D03*
X65884D02*
D03*
D63*
X64700Y73535D02*
D03*
X58400Y70135D02*
D03*
Y69465D02*
D03*
X58500Y78065D02*
D03*
Y78735D02*
D03*
X57800Y53565D02*
D03*
Y54235D02*
D03*
X58500Y74365D02*
D03*
Y75035D02*
D03*
X58400Y64565D02*
D03*
Y65235D02*
D03*
Y59765D02*
D03*
Y60435D02*
D03*
Y49165D02*
D03*
Y49835D02*
D03*
Y44665D02*
D03*
Y45335D02*
D03*
Y39765D02*
D03*
Y40435D02*
D03*
Y34865D02*
D03*
Y35535D02*
D03*
X64700Y72865D02*
D03*
X24400Y76865D02*
D03*
Y77535D02*
D03*
Y71965D02*
D03*
Y72635D02*
D03*
Y67065D02*
D03*
Y67735D02*
D03*
Y62165D02*
D03*
Y62835D02*
D03*
Y47065D02*
D03*
Y47735D02*
D03*
Y42165D02*
D03*
Y42835D02*
D03*
Y37265D02*
D03*
Y37935D02*
D03*
Y32365D02*
D03*
Y33035D02*
D03*
X25800Y60835D02*
D03*
Y60165D02*
D03*
X40600Y75865D02*
D03*
Y76535D02*
D03*
Y66065D02*
D03*
Y66735D02*
D03*
Y57035D02*
D03*
Y56365D02*
D03*
X40500Y51735D02*
D03*
Y51065D02*
D03*
X40800Y46065D02*
D03*
Y46735D02*
D03*
X40600Y36265D02*
D03*
Y36935D02*
D03*
Y31365D02*
D03*
Y32035D02*
D03*
X82500Y57735D02*
D03*
Y57065D02*
D03*
Y54235D02*
D03*
Y53565D02*
D03*
X72000Y49035D02*
D03*
Y48365D02*
D03*
X31600Y76735D02*
D03*
Y76065D02*
D03*
Y71835D02*
D03*
Y71165D02*
D03*
Y66935D02*
D03*
Y66265D02*
D03*
Y62035D02*
D03*
Y61365D02*
D03*
X31400Y57135D02*
D03*
Y56465D02*
D03*
Y51835D02*
D03*
Y51165D02*
D03*
X31600Y46935D02*
D03*
Y46265D02*
D03*
Y42035D02*
D03*
Y41365D02*
D03*
Y37135D02*
D03*
Y36465D02*
D03*
Y32235D02*
D03*
Y31565D02*
D03*
X67700Y74135D02*
D03*
Y73465D02*
D03*
Y75835D02*
D03*
Y75165D02*
D03*
X64200Y49435D02*
D03*
Y48765D02*
D03*
X62200Y47065D02*
D03*
Y47735D02*
D03*
X68900Y71535D02*
D03*
Y70865D02*
D03*
X68000Y70965D02*
D03*
Y71635D02*
D03*
X40600Y77865D02*
D03*
Y78535D02*
D03*
Y72965D02*
D03*
Y73635D02*
D03*
Y68065D02*
D03*
Y68735D02*
D03*
Y63165D02*
D03*
Y63835D02*
D03*
Y58265D02*
D03*
Y58935D02*
D03*
Y52965D02*
D03*
Y53635D02*
D03*
Y48065D02*
D03*
Y48735D02*
D03*
Y43165D02*
D03*
Y43835D02*
D03*
Y38265D02*
D03*
Y38935D02*
D03*
Y33365D02*
D03*
Y34035D02*
D03*
X52600Y78735D02*
D03*
Y78065D02*
D03*
X52450Y73935D02*
D03*
Y73265D02*
D03*
X52550Y69135D02*
D03*
Y68465D02*
D03*
X52450Y64285D02*
D03*
Y63615D02*
D03*
X52500Y59335D02*
D03*
Y58665D02*
D03*
Y54085D02*
D03*
Y53415D02*
D03*
X52550Y48935D02*
D03*
Y48265D02*
D03*
Y44185D02*
D03*
Y43515D02*
D03*
Y39185D02*
D03*
Y38515D02*
D03*
X52600Y34235D02*
D03*
Y33565D02*
D03*
Y76535D02*
D03*
Y75865D02*
D03*
Y71635D02*
D03*
Y70965D02*
D03*
Y66735D02*
D03*
Y66065D02*
D03*
Y61835D02*
D03*
Y61165D02*
D03*
Y56935D02*
D03*
Y56265D02*
D03*
Y51635D02*
D03*
Y50965D02*
D03*
Y46735D02*
D03*
Y46065D02*
D03*
Y41835D02*
D03*
Y41165D02*
D03*
Y36935D02*
D03*
Y36265D02*
D03*
Y32035D02*
D03*
Y31365D02*
D03*
D64*
X29083Y58684D02*
D03*
Y58428D02*
D03*
Y58172D02*
D03*
Y57916D02*
D03*
X30717Y58684D02*
D03*
Y58428D02*
D03*
Y58172D02*
D03*
Y57916D02*
D03*
X28983Y53484D02*
D03*
Y53228D02*
D03*
Y52972D02*
D03*
Y52716D02*
D03*
X30617Y53484D02*
D03*
Y53228D02*
D03*
Y52972D02*
D03*
Y52716D02*
D03*
X31983Y34084D02*
D03*
Y33828D02*
D03*
Y33572D02*
D03*
Y33316D02*
D03*
X33617Y34084D02*
D03*
Y33828D02*
D03*
Y33572D02*
D03*
Y33316D02*
D03*
X31983Y38984D02*
D03*
Y38728D02*
D03*
Y38472D02*
D03*
Y38216D02*
D03*
X33617Y38984D02*
D03*
Y38728D02*
D03*
Y38472D02*
D03*
Y38216D02*
D03*
X31983Y43884D02*
D03*
Y43628D02*
D03*
Y43372D02*
D03*
Y43116D02*
D03*
X33617Y43884D02*
D03*
Y43628D02*
D03*
Y43372D02*
D03*
Y43116D02*
D03*
X31983Y48784D02*
D03*
Y48528D02*
D03*
Y48272D02*
D03*
Y48016D02*
D03*
X33617Y48784D02*
D03*
Y48528D02*
D03*
Y48272D02*
D03*
Y48016D02*
D03*
X31783Y53684D02*
D03*
Y53428D02*
D03*
Y53172D02*
D03*
Y52916D02*
D03*
X33417Y53684D02*
D03*
Y53428D02*
D03*
Y53172D02*
D03*
Y52916D02*
D03*
X31783Y58984D02*
D03*
Y58728D02*
D03*
Y58472D02*
D03*
Y58216D02*
D03*
X33417Y58984D02*
D03*
Y58728D02*
D03*
Y58472D02*
D03*
Y58216D02*
D03*
X31983Y63884D02*
D03*
Y63628D02*
D03*
Y63372D02*
D03*
Y63116D02*
D03*
X33617Y63884D02*
D03*
Y63628D02*
D03*
Y63372D02*
D03*
Y63116D02*
D03*
X31983Y68784D02*
D03*
Y68528D02*
D03*
Y68272D02*
D03*
Y68016D02*
D03*
X33617Y68784D02*
D03*
Y68528D02*
D03*
Y68272D02*
D03*
Y68016D02*
D03*
X31983Y73684D02*
D03*
Y73428D02*
D03*
Y73172D02*
D03*
Y72916D02*
D03*
X33617Y73684D02*
D03*
Y73428D02*
D03*
Y73172D02*
D03*
Y72916D02*
D03*
X31983Y78584D02*
D03*
Y78328D02*
D03*
Y78072D02*
D03*
Y77816D02*
D03*
X33617Y78584D02*
D03*
Y78328D02*
D03*
Y78072D02*
D03*
Y77816D02*
D03*
D65*
X27889Y52642D02*
D03*
X27989Y57812D02*
D03*
X25411Y56532D02*
D03*
X27989D02*
D03*
X25411Y57556D02*
D03*
Y57300D02*
D03*
X27989Y57556D02*
D03*
Y57300D02*
D03*
Y57044D02*
D03*
X25411D02*
D03*
X27989Y56788D02*
D03*
X25411D02*
D03*
X27989Y58068D02*
D03*
X25411Y57812D02*
D03*
Y58068D02*
D03*
X25311Y52898D02*
D03*
Y52642D02*
D03*
Y52386D02*
D03*
Y52130D02*
D03*
Y51874D02*
D03*
Y51618D02*
D03*
Y51362D02*
D03*
X27889Y52898D02*
D03*
Y52386D02*
D03*
Y52130D02*
D03*
Y51874D02*
D03*
Y51618D02*
D03*
Y51362D02*
D03*
D66*
X34269Y75432D02*
D03*
Y75688D02*
D03*
Y75944D02*
D03*
Y76200D02*
D03*
X32600Y75432D02*
D03*
Y75688D02*
D03*
Y75944D02*
D03*
Y71044D02*
D03*
Y70788D02*
D03*
Y70532D02*
D03*
X34269Y71300D02*
D03*
Y71044D02*
D03*
Y70788D02*
D03*
Y70532D02*
D03*
Y65632D02*
D03*
Y65888D02*
D03*
Y66144D02*
D03*
Y66400D02*
D03*
X32600Y65632D02*
D03*
Y65888D02*
D03*
Y66144D02*
D03*
Y61244D02*
D03*
Y60988D02*
D03*
Y60732D02*
D03*
X34269Y61500D02*
D03*
Y61244D02*
D03*
Y60988D02*
D03*
Y60732D02*
D03*
X34069Y55832D02*
D03*
Y56088D02*
D03*
Y56344D02*
D03*
Y56600D02*
D03*
X32400Y55832D02*
D03*
Y56088D02*
D03*
Y56344D02*
D03*
Y51044D02*
D03*
Y50788D02*
D03*
Y50532D02*
D03*
X34069Y51300D02*
D03*
Y51044D02*
D03*
Y50788D02*
D03*
Y50532D02*
D03*
X34269Y45632D02*
D03*
Y45888D02*
D03*
Y46144D02*
D03*
Y46400D02*
D03*
X32600Y45632D02*
D03*
Y45888D02*
D03*
Y46144D02*
D03*
Y41244D02*
D03*
Y40988D02*
D03*
Y40732D02*
D03*
X34269Y41500D02*
D03*
Y41244D02*
D03*
Y40988D02*
D03*
Y40732D02*
D03*
Y35832D02*
D03*
Y36088D02*
D03*
Y36344D02*
D03*
Y36600D02*
D03*
X32600Y35832D02*
D03*
Y36088D02*
D03*
Y36344D02*
D03*
Y31444D02*
D03*
Y31188D02*
D03*
Y30932D02*
D03*
X34269Y31700D02*
D03*
Y31444D02*
D03*
Y31188D02*
D03*
Y30932D02*
D03*
D67*
X32600Y76200D02*
D03*
Y71300D02*
D03*
Y66400D02*
D03*
Y61500D02*
D03*
X32400Y56600D02*
D03*
Y51300D02*
D03*
X32600Y46400D02*
D03*
Y41500D02*
D03*
Y36600D02*
D03*
Y31700D02*
D03*
D68*
X69423Y74274D02*
D03*
Y73526D02*
D03*
X68577D02*
D03*
Y73900D02*
D03*
Y74274D02*
D03*
X54923Y34274D02*
D03*
Y33526D02*
D03*
X54077D02*
D03*
Y33900D02*
D03*
Y34274D02*
D03*
X54923Y39174D02*
D03*
Y38426D02*
D03*
X54077D02*
D03*
Y38800D02*
D03*
Y39174D02*
D03*
X54923Y44074D02*
D03*
Y43326D02*
D03*
X54077D02*
D03*
Y43700D02*
D03*
Y44074D02*
D03*
X54923Y48974D02*
D03*
Y48226D02*
D03*
X54077D02*
D03*
Y48600D02*
D03*
Y48974D02*
D03*
X54923Y53874D02*
D03*
Y53126D02*
D03*
X54077D02*
D03*
Y53500D02*
D03*
Y53874D02*
D03*
X54923Y59174D02*
D03*
Y58426D02*
D03*
X54077D02*
D03*
Y58800D02*
D03*
Y59174D02*
D03*
X54923Y64074D02*
D03*
Y63326D02*
D03*
X54077D02*
D03*
Y63700D02*
D03*
Y64074D02*
D03*
X54923Y68974D02*
D03*
Y68226D02*
D03*
X54077D02*
D03*
Y68600D02*
D03*
Y68974D02*
D03*
X54923Y73874D02*
D03*
Y73126D02*
D03*
X54077D02*
D03*
Y73500D02*
D03*
Y73874D02*
D03*
X54923Y78774D02*
D03*
Y78026D02*
D03*
X54077D02*
D03*
Y78400D02*
D03*
Y78774D02*
D03*
D69*
X45100Y56576D02*
D03*
X45600D02*
D03*
X46100D02*
D03*
X46600D02*
D03*
X47100D02*
D03*
X47600D02*
D03*
X48100D02*
D03*
X45100Y58624D02*
D03*
X45600D02*
D03*
X46100D02*
D03*
X46600D02*
D03*
X47100D02*
D03*
X47600D02*
D03*
X48100D02*
D03*
Y33724D02*
D03*
X47600D02*
D03*
X47100D02*
D03*
X46600D02*
D03*
X46100D02*
D03*
X45600D02*
D03*
X45100D02*
D03*
X48100Y31676D02*
D03*
X47600D02*
D03*
X47100D02*
D03*
X46600D02*
D03*
X46100D02*
D03*
X45600D02*
D03*
X45100D02*
D03*
X48100Y38624D02*
D03*
X47600D02*
D03*
X47100D02*
D03*
X46600D02*
D03*
X46100D02*
D03*
X45600D02*
D03*
X45100D02*
D03*
X48100Y36576D02*
D03*
X47600D02*
D03*
X47100D02*
D03*
X46600D02*
D03*
X46100D02*
D03*
X45600D02*
D03*
X45100D02*
D03*
X48100Y43524D02*
D03*
X47600D02*
D03*
X47100D02*
D03*
X46600D02*
D03*
X46100D02*
D03*
X45600D02*
D03*
X45100D02*
D03*
X48100Y41476D02*
D03*
X47600D02*
D03*
X47100D02*
D03*
X46600D02*
D03*
X46100D02*
D03*
X45600D02*
D03*
X45100D02*
D03*
X48100Y48424D02*
D03*
X47600D02*
D03*
X47100D02*
D03*
X46600D02*
D03*
X46100D02*
D03*
X45600D02*
D03*
X45100D02*
D03*
X48100Y46376D02*
D03*
X47600D02*
D03*
X47100D02*
D03*
X46600D02*
D03*
X46100D02*
D03*
X45600D02*
D03*
X45100D02*
D03*
X48100Y53324D02*
D03*
X47600D02*
D03*
X47100D02*
D03*
X46600D02*
D03*
X46100D02*
D03*
X45600D02*
D03*
X45100D02*
D03*
X48100Y51276D02*
D03*
X47600D02*
D03*
X47100D02*
D03*
X46600D02*
D03*
X46100D02*
D03*
X45600D02*
D03*
X45100D02*
D03*
X48100Y63524D02*
D03*
X47600D02*
D03*
X47100D02*
D03*
X46600D02*
D03*
X46100D02*
D03*
X45600D02*
D03*
X45100D02*
D03*
X48100Y61476D02*
D03*
X47600D02*
D03*
X47100D02*
D03*
X46600D02*
D03*
X46100D02*
D03*
X45600D02*
D03*
X45100D02*
D03*
X48100Y73324D02*
D03*
X47600D02*
D03*
X47100D02*
D03*
X46600D02*
D03*
X46100D02*
D03*
X45600D02*
D03*
X45100D02*
D03*
X48100Y71276D02*
D03*
X47600D02*
D03*
X47100D02*
D03*
X46600D02*
D03*
X46100D02*
D03*
X45600D02*
D03*
X45100D02*
D03*
Y76176D02*
D03*
X45600D02*
D03*
X46100D02*
D03*
X46600D02*
D03*
X47100D02*
D03*
X47600D02*
D03*
X48100D02*
D03*
X45100Y78224D02*
D03*
X45600D02*
D03*
X46100D02*
D03*
X46600D02*
D03*
X47100D02*
D03*
X47600D02*
D03*
X48100D02*
D03*
X45100Y66376D02*
D03*
X45600D02*
D03*
X46100D02*
D03*
X46600D02*
D03*
X47100D02*
D03*
X47600D02*
D03*
X48100D02*
D03*
X45100Y68424D02*
D03*
X45600D02*
D03*
X46100D02*
D03*
X46600D02*
D03*
X47100D02*
D03*
X47600D02*
D03*
X48100D02*
D03*
D70*
X57207Y56806D02*
D03*
Y57003D02*
D03*
Y57200D02*
D03*
Y57397D02*
D03*
X55593Y56806D02*
D03*
Y57003D02*
D03*
Y57200D02*
D03*
X55593Y57397D02*
D03*
X55593Y57594D02*
D03*
X57207Y31906D02*
D03*
Y32103D02*
D03*
Y32300D02*
D03*
Y32497D02*
D03*
X55593Y31906D02*
D03*
Y32103D02*
D03*
Y32300D02*
D03*
X55593Y32497D02*
D03*
X55593Y32694D02*
D03*
X57207Y36806D02*
D03*
Y37003D02*
D03*
Y37200D02*
D03*
Y37397D02*
D03*
X55593Y36806D02*
D03*
Y37003D02*
D03*
Y37200D02*
D03*
X55593Y37397D02*
D03*
X55593Y37594D02*
D03*
X57207Y41706D02*
D03*
Y41903D02*
D03*
Y42100D02*
D03*
Y42297D02*
D03*
X55593Y41706D02*
D03*
Y41903D02*
D03*
Y42100D02*
D03*
X55593Y42297D02*
D03*
X55593Y42494D02*
D03*
X57207Y46606D02*
D03*
Y46803D02*
D03*
Y47000D02*
D03*
Y47197D02*
D03*
X55593Y46606D02*
D03*
Y46803D02*
D03*
Y47000D02*
D03*
X55593Y47197D02*
D03*
X55593Y47394D02*
D03*
X57207Y51506D02*
D03*
Y51703D02*
D03*
Y51900D02*
D03*
Y52097D02*
D03*
X55593Y51506D02*
D03*
Y51703D02*
D03*
Y51900D02*
D03*
X55593Y52097D02*
D03*
X55593Y52294D02*
D03*
X57207Y61706D02*
D03*
Y61903D02*
D03*
Y62100D02*
D03*
Y62297D02*
D03*
X55593Y61706D02*
D03*
Y61903D02*
D03*
Y62100D02*
D03*
X55593Y62297D02*
D03*
X55593Y62494D02*
D03*
X57207Y66606D02*
D03*
Y66803D02*
D03*
Y67000D02*
D03*
Y67197D02*
D03*
X55593Y66606D02*
D03*
Y66803D02*
D03*
Y67000D02*
D03*
X55593Y67197D02*
D03*
X55593Y67394D02*
D03*
X57207Y71506D02*
D03*
Y71703D02*
D03*
Y71900D02*
D03*
Y72097D02*
D03*
X55593Y71506D02*
D03*
Y71703D02*
D03*
Y71900D02*
D03*
X55593Y72097D02*
D03*
X55593Y72294D02*
D03*
X57207Y76406D02*
D03*
Y76603D02*
D03*
Y76800D02*
D03*
Y76997D02*
D03*
X55593Y76406D02*
D03*
Y76603D02*
D03*
Y76800D02*
D03*
X55593Y76997D02*
D03*
X55593Y77194D02*
D03*
D71*
X57207Y57594D02*
D03*
Y32694D02*
D03*
Y37594D02*
D03*
Y42494D02*
D03*
Y47394D02*
D03*
Y52294D02*
D03*
Y62494D02*
D03*
Y67394D02*
D03*
Y72294D02*
D03*
Y77194D02*
D03*
D72*
X64247Y46150D02*
D03*
Y46650D02*
D03*
X66353D02*
D03*
Y46150D02*
D03*
X64247Y34550D02*
D03*
Y45150D02*
D03*
Y45650D02*
D03*
Y33550D02*
D03*
Y47650D02*
D03*
X66353Y44150D02*
D03*
Y44650D02*
D03*
Y45150D02*
D03*
Y45650D02*
D03*
Y47150D02*
D03*
Y47650D02*
D03*
X64247Y44150D02*
D03*
Y44650D02*
D03*
Y47150D02*
D03*
Y37050D02*
D03*
Y36550D02*
D03*
Y36050D02*
D03*
Y35550D02*
D03*
Y35050D02*
D03*
Y34050D02*
D03*
X66353Y37050D02*
D03*
Y36550D02*
D03*
Y36050D02*
D03*
Y35550D02*
D03*
Y35050D02*
D03*
Y34550D02*
D03*
Y34050D02*
D03*
Y33550D02*
D03*
D73*
X77722Y41487D02*
D03*
Y42668D02*
D03*
Y38338D02*
D03*
Y38535D02*
D03*
Y38732D02*
D03*
Y38928D02*
D03*
Y39125D02*
D03*
Y39322D02*
D03*
Y39519D02*
D03*
Y39716D02*
D03*
Y39913D02*
D03*
Y40109D02*
D03*
Y40306D02*
D03*
Y40503D02*
D03*
Y40700D02*
D03*
Y40897D02*
D03*
Y41094D02*
D03*
Y41291D02*
D03*
Y41684D02*
D03*
Y41881D02*
D03*
Y42078D02*
D03*
Y42275D02*
D03*
Y42472D02*
D03*
Y42865D02*
D03*
Y43062D02*
D03*
X71678Y38338D02*
D03*
Y38535D02*
D03*
Y38732D02*
D03*
Y38928D02*
D03*
Y39125D02*
D03*
Y39322D02*
D03*
Y39519D02*
D03*
Y39716D02*
D03*
Y39913D02*
D03*
Y40109D02*
D03*
Y40306D02*
D03*
Y40503D02*
D03*
Y40700D02*
D03*
Y40897D02*
D03*
Y41094D02*
D03*
Y41291D02*
D03*
Y41487D02*
D03*
Y41684D02*
D03*
Y41881D02*
D03*
Y42078D02*
D03*
Y42275D02*
D03*
Y42472D02*
D03*
Y42668D02*
D03*
Y42865D02*
D03*
Y43062D02*
D03*
D74*
X75412Y47648D02*
D03*
X73188Y49952D02*
D03*
Y49696D02*
D03*
Y49440D02*
D03*
Y49184D02*
D03*
Y48928D02*
D03*
Y48672D02*
D03*
Y48416D02*
D03*
Y48160D02*
D03*
Y47904D02*
D03*
X73188Y47648D02*
D03*
X75412Y49952D02*
D03*
Y49696D02*
D03*
Y49440D02*
D03*
Y49184D02*
D03*
Y48928D02*
D03*
Y48672D02*
D03*
Y48416D02*
D03*
Y48160D02*
D03*
Y47904D02*
D03*
D75*
X37504Y56111D02*
D03*
X37704Y43811D02*
D03*
X37604Y34011D02*
D03*
Y63711D02*
D03*
X37504Y50611D02*
D03*
X37604Y73511D02*
D03*
D76*
X37760Y56111D02*
D03*
X38016D02*
D03*
X38272D02*
D03*
X38528D02*
D03*
X38784D02*
D03*
X39040D02*
D03*
X39296D02*
D03*
X37504Y58689D02*
D03*
X37760D02*
D03*
X38016D02*
D03*
X38272D02*
D03*
X38528D02*
D03*
X38784D02*
D03*
X39040D02*
D03*
X39296D02*
D03*
X39496Y46389D02*
D03*
X39240D02*
D03*
X38984D02*
D03*
X38728D02*
D03*
X38472D02*
D03*
X38216D02*
D03*
X37960D02*
D03*
X37704D02*
D03*
X39496Y43811D02*
D03*
X39240D02*
D03*
X38984D02*
D03*
X38728D02*
D03*
X38472D02*
D03*
X38216D02*
D03*
X37960D02*
D03*
X39396Y36589D02*
D03*
X39140D02*
D03*
X38884D02*
D03*
X38628D02*
D03*
X38372D02*
D03*
X38116D02*
D03*
X37860D02*
D03*
X37604D02*
D03*
X39396Y34011D02*
D03*
X38116D02*
D03*
X37860D02*
D03*
X39396Y66289D02*
D03*
X39140D02*
D03*
X38884D02*
D03*
X38628D02*
D03*
X38372D02*
D03*
X38116D02*
D03*
X37860D02*
D03*
X37604D02*
D03*
X39396Y63711D02*
D03*
X38116D02*
D03*
X37860D02*
D03*
X37760Y50611D02*
D03*
X38016D02*
D03*
X38272D02*
D03*
X38528D02*
D03*
X38784D02*
D03*
X39040D02*
D03*
X39296D02*
D03*
X37504Y53189D02*
D03*
X37760D02*
D03*
X38016D02*
D03*
X38272D02*
D03*
X38528D02*
D03*
X38784D02*
D03*
X39040D02*
D03*
X39296D02*
D03*
X37860Y73511D02*
D03*
X38116D02*
D03*
X38372D02*
D03*
X38628D02*
D03*
X38884D02*
D03*
X39140D02*
D03*
X39396D02*
D03*
X37604Y76089D02*
D03*
X37860D02*
D03*
X38116D02*
D03*
X38372D02*
D03*
X38628D02*
D03*
X38884D02*
D03*
X39140D02*
D03*
X39396D02*
D03*
X38372Y63711D02*
D03*
X38628D02*
D03*
X38884D02*
D03*
X39140D02*
D03*
X38372Y34011D02*
D03*
X38628D02*
D03*
X38884D02*
D03*
X39140D02*
D03*
D77*
X74224Y34050D02*
D03*
X25776Y77950D02*
D03*
Y73050D02*
D03*
Y68150D02*
D03*
Y48150D02*
D03*
Y43250D02*
D03*
Y38350D02*
D03*
Y33450D02*
D03*
Y63250D02*
D03*
D78*
X72176Y35550D02*
D03*
Y35050D02*
D03*
Y34550D02*
D03*
Y34050D02*
D03*
X74224Y35550D02*
D03*
Y35050D02*
D03*
Y34550D02*
D03*
X25776Y32450D02*
D03*
X27824Y33450D02*
D03*
Y32950D02*
D03*
Y32450D02*
D03*
Y31950D02*
D03*
X25776Y37350D02*
D03*
X27824Y38350D02*
D03*
Y37850D02*
D03*
Y37350D02*
D03*
Y36850D02*
D03*
X25776Y42250D02*
D03*
X27824Y43250D02*
D03*
Y42750D02*
D03*
Y42250D02*
D03*
Y41750D02*
D03*
X25776Y47150D02*
D03*
X27824Y48150D02*
D03*
Y47650D02*
D03*
Y47150D02*
D03*
Y46650D02*
D03*
X25776Y67150D02*
D03*
X27824Y68150D02*
D03*
Y67650D02*
D03*
Y67150D02*
D03*
Y66650D02*
D03*
X25776Y72050D02*
D03*
X27824Y73050D02*
D03*
Y72550D02*
D03*
Y72050D02*
D03*
Y71550D02*
D03*
X25776Y76950D02*
D03*
X27824Y77950D02*
D03*
Y77450D02*
D03*
Y76950D02*
D03*
Y76450D02*
D03*
X25776D02*
D03*
Y71550D02*
D03*
Y66650D02*
D03*
Y46650D02*
D03*
Y41750D02*
D03*
Y36850D02*
D03*
Y31950D02*
D03*
X27824Y61750D02*
D03*
Y62250D02*
D03*
Y62750D02*
D03*
Y63250D02*
D03*
X25776Y61750D02*
D03*
Y62250D02*
D03*
Y77450D02*
D03*
Y72550D02*
D03*
Y67650D02*
D03*
Y62750D02*
D03*
Y47650D02*
D03*
Y42750D02*
D03*
Y37850D02*
D03*
Y32950D02*
D03*
D79*
X35000Y32844D02*
D03*
Y32588D02*
D03*
Y32332D02*
D03*
X36031Y33100D02*
D03*
Y32844D02*
D03*
Y32588D02*
D03*
Y32332D02*
D03*
X35000Y37744D02*
D03*
Y37488D02*
D03*
Y37232D02*
D03*
X36031Y38000D02*
D03*
Y37744D02*
D03*
Y37488D02*
D03*
Y37232D02*
D03*
X35000Y42644D02*
D03*
Y42388D02*
D03*
Y42132D02*
D03*
X36031Y42900D02*
D03*
Y42644D02*
D03*
Y42388D02*
D03*
Y42132D02*
D03*
X35000Y47544D02*
D03*
Y47288D02*
D03*
Y47032D02*
D03*
X36031Y47800D02*
D03*
Y47544D02*
D03*
Y47288D02*
D03*
Y47032D02*
D03*
X34800Y52444D02*
D03*
Y52188D02*
D03*
Y51932D02*
D03*
X35831Y52700D02*
D03*
Y52444D02*
D03*
Y52188D02*
D03*
Y51932D02*
D03*
X34800Y57744D02*
D03*
Y57488D02*
D03*
Y57232D02*
D03*
X35831Y58000D02*
D03*
Y57744D02*
D03*
Y57488D02*
D03*
Y57232D02*
D03*
X35000Y62644D02*
D03*
Y62388D02*
D03*
Y62132D02*
D03*
X36031Y62900D02*
D03*
Y62644D02*
D03*
Y62388D02*
D03*
Y62132D02*
D03*
X35000Y67544D02*
D03*
Y67288D02*
D03*
Y67032D02*
D03*
X36031Y67800D02*
D03*
Y67544D02*
D03*
Y67288D02*
D03*
Y67032D02*
D03*
X35000Y72444D02*
D03*
Y72188D02*
D03*
Y71932D02*
D03*
X36031Y72700D02*
D03*
Y72444D02*
D03*
Y72188D02*
D03*
Y71932D02*
D03*
X35000Y77344D02*
D03*
Y77088D02*
D03*
Y76832D02*
D03*
X36031Y77600D02*
D03*
Y77344D02*
D03*
Y77088D02*
D03*
Y76832D02*
D03*
D80*
X79100Y63681D02*
D03*
Y61319D02*
D03*
X73400Y70719D02*
D03*
Y73081D02*
D03*
Y75119D02*
D03*
Y77481D02*
D03*
D81*
X77410Y71200D02*
D03*
X80790D02*
D03*
X77410Y76500D02*
D03*
X80790D02*
D03*
D82*
X80750Y56753D02*
D03*
X80250D02*
D03*
X79750D02*
D03*
X79250D02*
D03*
X80750Y54647D02*
D03*
X80250D02*
D03*
X79750D02*
D03*
X79250D02*
D03*
D83*
X72338Y37678D02*
D03*
X72535D02*
D03*
X72731D02*
D03*
X72928D02*
D03*
X73125D02*
D03*
X73322D02*
D03*
X73519D02*
D03*
X73716D02*
D03*
X73913D02*
D03*
X74109D02*
D03*
X74306D02*
D03*
X74503D02*
D03*
X74700D02*
D03*
X74897D02*
D03*
X75094D02*
D03*
X75291D02*
D03*
X75487D02*
D03*
X75684D02*
D03*
X75881D02*
D03*
X76078D02*
D03*
X76275D02*
D03*
X76472D02*
D03*
X76669D02*
D03*
X76865D02*
D03*
X77062D02*
D03*
X72338Y43722D02*
D03*
X72535D02*
D03*
X72731D02*
D03*
X72928D02*
D03*
X73125D02*
D03*
X73322D02*
D03*
X73519D02*
D03*
X73716D02*
D03*
X73913D02*
D03*
X74109D02*
D03*
X74306D02*
D03*
X74503D02*
D03*
X74700D02*
D03*
X74897D02*
D03*
X75094D02*
D03*
X75291D02*
D03*
X75487D02*
D03*
X75684D02*
D03*
X75881D02*
D03*
X76078D02*
D03*
X76275D02*
D03*
X76472D02*
D03*
X76669D02*
D03*
X76865D02*
D03*
X77062D02*
D03*
D84*
X81507Y36250D02*
D03*
X81507Y35750D02*
D03*
Y35250D02*
D03*
Y34750D02*
D03*
X83693Y36250D02*
D03*
Y35750D02*
D03*
Y35250D02*
D03*
Y34750D02*
D03*
D85*
X81500Y41200D02*
D03*
Y39200D02*
D03*
X83311Y41200D02*
D03*
Y39200D02*
D03*
D86*
X35000Y77600D02*
D03*
Y72700D02*
D03*
Y67800D02*
D03*
Y62900D02*
D03*
X34800Y58000D02*
D03*
Y52700D02*
D03*
X35000Y47800D02*
D03*
Y42900D02*
D03*
Y38000D02*
D03*
Y33100D02*
D03*
D87*
X68450Y69922D02*
D03*
X67950D02*
D03*
X67450D02*
D03*
X66950D02*
D03*
X68450Y67678D02*
D03*
X67950D02*
D03*
X67450D02*
D03*
X66950D02*
D03*
D88*
X74002Y53750D02*
D03*
X74258D02*
D03*
X74514D02*
D03*
X74770D02*
D03*
X75026D02*
D03*
X75282D02*
D03*
X75538D02*
D03*
X74002Y56050D02*
D03*
X74258D02*
D03*
X74514D02*
D03*
X74770D02*
D03*
X75026D02*
D03*
X75282D02*
D03*
X75538D02*
D03*
X75794Y53750D02*
D03*
Y56050D02*
D03*
X76050Y53750D02*
D03*
Y56050D02*
D03*
X73746D02*
D03*
Y53750D02*
D03*
D89*
X26235Y78900D02*
D03*
X25565D02*
D03*
X26235Y74000D02*
D03*
X25565D02*
D03*
X26135Y69100D02*
D03*
X25465D02*
D03*
X26235Y64200D02*
D03*
X25565D02*
D03*
X26135Y49200D02*
D03*
X25465D02*
D03*
X25935Y44100D02*
D03*
X25265D02*
D03*
X26035Y39200D02*
D03*
X25365D02*
D03*
X26135Y34400D02*
D03*
X25465D02*
D03*
X25665Y75500D02*
D03*
X26335D02*
D03*
X25665Y70800D02*
D03*
X26335D02*
D03*
X25665Y65700D02*
D03*
X26335D02*
D03*
X25465Y45900D02*
D03*
X26135D02*
D03*
X25365Y40900D02*
D03*
X26035D02*
D03*
X25265Y36100D02*
D03*
X25935D02*
D03*
X25565Y31000D02*
D03*
X26235D02*
D03*
X43265Y76600D02*
D03*
X43935D02*
D03*
X43265Y71700D02*
D03*
X43935D02*
D03*
X43265Y66800D02*
D03*
X43935D02*
D03*
X43265Y61900D02*
D03*
X43935D02*
D03*
X43265Y57000D02*
D03*
X43935D02*
D03*
X43265Y51700D02*
D03*
X43935D02*
D03*
X43265Y46800D02*
D03*
X43935D02*
D03*
X43265Y41900D02*
D03*
X43935D02*
D03*
X43265Y37000D02*
D03*
X43935D02*
D03*
X43265Y32100D02*
D03*
X43935D02*
D03*
X41665Y78800D02*
D03*
X42335D02*
D03*
X41665Y73900D02*
D03*
X42335D02*
D03*
X41665Y69000D02*
D03*
X42335D02*
D03*
X41665Y64100D02*
D03*
X42335D02*
D03*
X41665Y59200D02*
D03*
X42335D02*
D03*
X41665Y53900D02*
D03*
X42335D02*
D03*
X41665Y49000D02*
D03*
X42335D02*
D03*
X41665Y44100D02*
D03*
X42335D02*
D03*
X41665Y39200D02*
D03*
X42335D02*
D03*
X41665Y34300D02*
D03*
X42335D02*
D03*
X40935Y70700D02*
D03*
X40265D02*
D03*
X40835Y60900D02*
D03*
X40165D02*
D03*
X40835Y40800D02*
D03*
X40165D02*
D03*
X42535Y76600D02*
D03*
X41865D02*
D03*
X42535Y71700D02*
D03*
X41865D02*
D03*
X42535Y66800D02*
D03*
X41865D02*
D03*
X42535Y61900D02*
D03*
X41865D02*
D03*
X42535Y57000D02*
D03*
X41865D02*
D03*
X42535Y51700D02*
D03*
X41865D02*
D03*
X42535Y46800D02*
D03*
X41865D02*
D03*
X42535Y41900D02*
D03*
X41865D02*
D03*
X42535Y37000D02*
D03*
X41865D02*
D03*
X42535Y32100D02*
D03*
X41865D02*
D03*
X41665Y77800D02*
D03*
X42335D02*
D03*
X41665Y72900D02*
D03*
X42335D02*
D03*
X41665Y68000D02*
D03*
X42335D02*
D03*
X41665Y63100D02*
D03*
X42335D02*
D03*
X41665Y58200D02*
D03*
X42335D02*
D03*
X41665Y52900D02*
D03*
X42335D02*
D03*
X41665Y48000D02*
D03*
X42335D02*
D03*
X41665Y43100D02*
D03*
X42335D02*
D03*
X41665Y38200D02*
D03*
X42335D02*
D03*
X41665Y33300D02*
D03*
X42335D02*
D03*
X44135Y77800D02*
D03*
X43465D02*
D03*
X44135Y72900D02*
D03*
X43465D02*
D03*
X44135Y68000D02*
D03*
X43465D02*
D03*
X44135Y63100D02*
D03*
X43465D02*
D03*
X44135Y58200D02*
D03*
X43465D02*
D03*
X44135Y52900D02*
D03*
X43465D02*
D03*
X44135Y48000D02*
D03*
X43465D02*
D03*
X44135Y43100D02*
D03*
X43465D02*
D03*
X44135Y38200D02*
D03*
X43465D02*
D03*
X44135Y33300D02*
D03*
X43465D02*
D03*
X51535Y78800D02*
D03*
X50865D02*
D03*
X51535Y73900D02*
D03*
X50865D02*
D03*
X51535Y69000D02*
D03*
X50865D02*
D03*
X51535Y64100D02*
D03*
X50865D02*
D03*
X51535Y59200D02*
D03*
X50865D02*
D03*
X51535Y53900D02*
D03*
X50865D02*
D03*
X51535Y49000D02*
D03*
X50865D02*
D03*
X51535Y44100D02*
D03*
X50865D02*
D03*
X51535Y39200D02*
D03*
X50865D02*
D03*
X51535Y34300D02*
D03*
X50865D02*
D03*
X49935Y76800D02*
D03*
X49265D02*
D03*
X49935Y71900D02*
D03*
X49265D02*
D03*
X49935Y67000D02*
D03*
X49265D02*
D03*
X49935Y62100D02*
D03*
X49265D02*
D03*
X49935Y57200D02*
D03*
X49265D02*
D03*
X49935Y51900D02*
D03*
X49265D02*
D03*
X49935Y47000D02*
D03*
X49265D02*
D03*
X49935Y42100D02*
D03*
X49265D02*
D03*
X49935Y37200D02*
D03*
X49265D02*
D03*
X49935Y32300D02*
D03*
X49265D02*
D03*
X49935Y78800D02*
D03*
X49265D02*
D03*
X49935Y73900D02*
D03*
X49265D02*
D03*
X49935Y69000D02*
D03*
X49265D02*
D03*
X49935Y64100D02*
D03*
X49265D02*
D03*
X49935Y59200D02*
D03*
X49265D02*
D03*
X49935Y53900D02*
D03*
X49265D02*
D03*
X49935Y49000D02*
D03*
X49265D02*
D03*
X49935Y44100D02*
D03*
X49265D02*
D03*
X49935Y39200D02*
D03*
X49265D02*
D03*
X49935Y34300D02*
D03*
X49265D02*
D03*
X50665Y77800D02*
D03*
X51335D02*
D03*
X50665Y72900D02*
D03*
X51335D02*
D03*
X50665Y68000D02*
D03*
X51335D02*
D03*
X50665Y63100D02*
D03*
X51335D02*
D03*
X50665Y58200D02*
D03*
X51335D02*
D03*
X50665Y52900D02*
D03*
X51335D02*
D03*
X50665Y48000D02*
D03*
X51335D02*
D03*
X50665Y43100D02*
D03*
X51335D02*
D03*
X50665Y38200D02*
D03*
X51335D02*
D03*
X50665Y33300D02*
D03*
X51335D02*
D03*
X51535Y76800D02*
D03*
X50865D02*
D03*
X51535Y71900D02*
D03*
X50865D02*
D03*
X51535Y67000D02*
D03*
X50865D02*
D03*
X51535Y62100D02*
D03*
X50865D02*
D03*
X51535Y57200D02*
D03*
X50865D02*
D03*
X51535Y51900D02*
D03*
X50865D02*
D03*
X51535Y47000D02*
D03*
X50865D02*
D03*
X51535Y42100D02*
D03*
X50865D02*
D03*
X51535Y37200D02*
D03*
X50865D02*
D03*
X51535Y32300D02*
D03*
X50865D02*
D03*
X51535Y75800D02*
D03*
X50865D02*
D03*
X51535Y70900D02*
D03*
X50865D02*
D03*
X51535Y66000D02*
D03*
X50865D02*
D03*
X51535Y61100D02*
D03*
X50865D02*
D03*
X51535Y56200D02*
D03*
X50865D02*
D03*
X51535Y50900D02*
D03*
X50865D02*
D03*
X51535Y46000D02*
D03*
X50865D02*
D03*
X51535Y41100D02*
D03*
X50865D02*
D03*
X51535Y36200D02*
D03*
X50865D02*
D03*
X51535Y31300D02*
D03*
X50865D02*
D03*
X82835Y51900D02*
D03*
X82165D02*
D03*
X82835Y50500D02*
D03*
X82165D02*
D03*
X77335Y34400D02*
D03*
X76665D02*
D03*
X79635D02*
D03*
X78965D02*
D03*
X77935Y46400D02*
D03*
X77265D02*
D03*
X77735Y49500D02*
D03*
X77065D02*
D03*
X78765Y46400D02*
D03*
X79435D02*
D03*
X73865D02*
D03*
X74535D02*
D03*
X75465D02*
D03*
X76135D02*
D03*
X66035Y78000D02*
D03*
X65365D02*
D03*
X54535Y77400D02*
D03*
X53865D02*
D03*
X54535Y72500D02*
D03*
X53865D02*
D03*
X54535Y67600D02*
D03*
X53865D02*
D03*
X54535Y62700D02*
D03*
X53865D02*
D03*
X54535Y57800D02*
D03*
X53865D02*
D03*
X54535Y52500D02*
D03*
X53865D02*
D03*
X54535Y47600D02*
D03*
X53865D02*
D03*
X54535Y42700D02*
D03*
X53865D02*
D03*
X54535Y37800D02*
D03*
X53865D02*
D03*
X54535Y32900D02*
D03*
X53865D02*
D03*
X63565Y32500D02*
D03*
X64235D02*
D03*
X64435Y43000D02*
D03*
X63765D02*
D03*
X62435Y44800D02*
D03*
X61765D02*
D03*
X63235Y34500D02*
D03*
X62565D02*
D03*
X24935Y78700D02*
D03*
X24265D02*
D03*
X24935Y73700D02*
D03*
X24265D02*
D03*
X24835Y68800D02*
D03*
X24165D02*
D03*
X24935Y64000D02*
D03*
X24265D02*
D03*
X24835Y48900D02*
D03*
X24165D02*
D03*
X24535Y43900D02*
D03*
X23865D02*
D03*
X24435Y39100D02*
D03*
X23765D02*
D03*
X24635Y34300D02*
D03*
X23965D02*
D03*
X24935Y75600D02*
D03*
X24265D02*
D03*
X24935Y70800D02*
D03*
X24265D02*
D03*
X24935Y65700D02*
D03*
X24265D02*
D03*
X25035Y61100D02*
D03*
X24365D02*
D03*
X24835Y45900D02*
D03*
X24165D02*
D03*
X24735Y40900D02*
D03*
X24065D02*
D03*
X24535Y36100D02*
D03*
X23865D02*
D03*
X24835Y31000D02*
D03*
X24165D02*
D03*
X54635Y76400D02*
D03*
X53965D02*
D03*
X54635Y71500D02*
D03*
X53965D02*
D03*
X54635Y66600D02*
D03*
X53965D02*
D03*
X54635Y61700D02*
D03*
X53965D02*
D03*
X54635Y56800D02*
D03*
X53965D02*
D03*
X54635Y51500D02*
D03*
X53965D02*
D03*
X54635Y46600D02*
D03*
X53965D02*
D03*
X54635Y41700D02*
D03*
X53965D02*
D03*
X54635Y36800D02*
D03*
X53965D02*
D03*
X54635Y31900D02*
D03*
X53965D02*
D03*
X77765Y54000D02*
D03*
X78435D02*
D03*
X81965Y49400D02*
D03*
X82635D02*
D03*
X43265Y75600D02*
D03*
X43935D02*
D03*
X43265Y70700D02*
D03*
X43935D02*
D03*
X43265Y65800D02*
D03*
X43935D02*
D03*
X43265Y60900D02*
D03*
X43935D02*
D03*
X43265Y56000D02*
D03*
X43935D02*
D03*
X43265Y50700D02*
D03*
X43935D02*
D03*
X43265Y45800D02*
D03*
X43935D02*
D03*
X43265Y40900D02*
D03*
X43935D02*
D03*
X43265Y36000D02*
D03*
X43935D02*
D03*
X43265Y31100D02*
D03*
X43935D02*
D03*
X43265Y78800D02*
D03*
X43935D02*
D03*
X43265Y73900D02*
D03*
X43935D02*
D03*
X43265Y69000D02*
D03*
X43935D02*
D03*
X43265Y64100D02*
D03*
X43935D02*
D03*
X43265Y59200D02*
D03*
X43935D02*
D03*
X43265Y53900D02*
D03*
X43935D02*
D03*
X43265Y49000D02*
D03*
X43935D02*
D03*
X43265Y44100D02*
D03*
X43935D02*
D03*
X43265Y39200D02*
D03*
X43935D02*
D03*
X43265Y34300D02*
D03*
X43935D02*
D03*
X41665Y75600D02*
D03*
X42335D02*
D03*
X41665Y70700D02*
D03*
X42335D02*
D03*
X41665Y65800D02*
D03*
X42335D02*
D03*
X41665Y60900D02*
D03*
X42335D02*
D03*
X41665Y56000D02*
D03*
X42335D02*
D03*
X41665Y50700D02*
D03*
X42335D02*
D03*
X41665Y45800D02*
D03*
X42335D02*
D03*
X41665Y40900D02*
D03*
X42335D02*
D03*
X41665Y36000D02*
D03*
X42335D02*
D03*
X41665Y31100D02*
D03*
X42335D02*
D03*
X49065Y77800D02*
D03*
X49735D02*
D03*
X49065Y72900D02*
D03*
X49735D02*
D03*
X49065Y68000D02*
D03*
X49735D02*
D03*
X49065Y63100D02*
D03*
X49735D02*
D03*
X49065Y58200D02*
D03*
X49735D02*
D03*
X49065Y52900D02*
D03*
X49735D02*
D03*
X49065Y48000D02*
D03*
X49735D02*
D03*
X49065Y43100D02*
D03*
X49735D02*
D03*
X49065Y38200D02*
D03*
X49735D02*
D03*
X49065Y33300D02*
D03*
X49735D02*
D03*
X49935Y75800D02*
D03*
X49265D02*
D03*
X49935Y70900D02*
D03*
X49265D02*
D03*
X49935Y66000D02*
D03*
X49265D02*
D03*
X49935Y61100D02*
D03*
X49265D02*
D03*
X49935Y56200D02*
D03*
X49265D02*
D03*
X49935Y50900D02*
D03*
X49265D02*
D03*
X49935Y46000D02*
D03*
X49265D02*
D03*
X49935Y41100D02*
D03*
X49265D02*
D03*
X49935Y36200D02*
D03*
X49265D02*
D03*
X49935Y31300D02*
D03*
X49265D02*
D03*
X75455Y58100D02*
D03*
X74785D02*
D03*
D90*
X55900Y78349D02*
D03*
Y79451D02*
D03*
X56000Y73549D02*
D03*
Y74651D02*
D03*
Y68649D02*
D03*
Y69751D02*
D03*
X55900Y63749D02*
D03*
Y64851D02*
D03*
Y59049D02*
D03*
Y60151D02*
D03*
X56000Y53549D02*
D03*
Y54651D02*
D03*
Y48949D02*
D03*
Y50051D02*
D03*
Y43849D02*
D03*
Y44951D02*
D03*
Y38849D02*
D03*
Y39951D02*
D03*
Y33949D02*
D03*
Y35051D02*
D03*
X67700Y77149D02*
D03*
Y78251D02*
D03*
D91*
X29449Y78600D02*
D03*
X30551D02*
D03*
X29449Y73700D02*
D03*
X30551D02*
D03*
X29449Y68800D02*
D03*
X30551D02*
D03*
X29449Y63900D02*
D03*
X30551D02*
D03*
X29449Y48800D02*
D03*
X30551D02*
D03*
X29449Y43900D02*
D03*
X30551D02*
D03*
X29449Y39000D02*
D03*
X30551D02*
D03*
X29449Y34100D02*
D03*
X30551D02*
D03*
X30351Y75800D02*
D03*
X29249D02*
D03*
X30351Y70900D02*
D03*
X29249D02*
D03*
X30351Y66000D02*
D03*
X29249D02*
D03*
X30351Y61100D02*
D03*
X29249D02*
D03*
X30351Y46000D02*
D03*
X29249D02*
D03*
X30351Y41100D02*
D03*
X29249D02*
D03*
X30351Y36200D02*
D03*
X29249D02*
D03*
X30351Y31300D02*
D03*
X29249D02*
D03*
X36151Y78800D02*
D03*
X35049D02*
D03*
X36151Y73900D02*
D03*
X35049D02*
D03*
X36151Y69000D02*
D03*
X35049D02*
D03*
X36151Y64100D02*
D03*
X35049D02*
D03*
X35951Y59200D02*
D03*
X34849D02*
D03*
X35951Y53900D02*
D03*
X34849D02*
D03*
X36151Y49000D02*
D03*
X35049D02*
D03*
X36151Y44100D02*
D03*
X35049D02*
D03*
X36151Y39200D02*
D03*
X35049D02*
D03*
X36151Y34300D02*
D03*
X35049D02*
D03*
X36351Y75600D02*
D03*
X35249D02*
D03*
X36351Y70700D02*
D03*
X35249D02*
D03*
X36351Y65800D02*
D03*
X35249D02*
D03*
X36351Y60900D02*
D03*
X35249D02*
D03*
X36151Y56000D02*
D03*
X35049D02*
D03*
X36151Y50700D02*
D03*
X35049D02*
D03*
X36351Y45800D02*
D03*
X35249D02*
D03*
X36351Y40900D02*
D03*
X35249D02*
D03*
X36351Y36000D02*
D03*
X35249D02*
D03*
X36351Y31100D02*
D03*
X35249D02*
D03*
X79249Y58700D02*
D03*
X80351D02*
D03*
X69451Y37400D02*
D03*
X68349D02*
D03*
X66751Y72600D02*
D03*
X65649D02*
D03*
X70851Y71200D02*
D03*
X69749D02*
D03*
D92*
X65909D02*
D03*
X67091D02*
D03*
X76009Y51800D02*
D03*
X77191D02*
D03*
X72909D02*
D03*
X74091D02*
D03*
D93*
X29249Y77200D02*
D03*
X30351D02*
D03*
X29249Y72300D02*
D03*
X30351D02*
D03*
X29249Y67400D02*
D03*
X30351D02*
D03*
X29249Y62500D02*
D03*
X30351D02*
D03*
X29249Y56900D02*
D03*
X30351D02*
D03*
X29549Y51700D02*
D03*
X30651D02*
D03*
X29249Y47400D02*
D03*
X30351D02*
D03*
X29249Y42500D02*
D03*
X30351D02*
D03*
X29249Y37600D02*
D03*
X30351D02*
D03*
X29249Y32700D02*
D03*
X30351D02*
D03*
X37849Y78300D02*
D03*
X38951D02*
D03*
X39949Y71700D02*
D03*
X41051D02*
D03*
X37049Y68100D02*
D03*
X38151D02*
D03*
X39949Y61900D02*
D03*
X41051D02*
D03*
X40149Y55300D02*
D03*
X41251D02*
D03*
X40049Y50000D02*
D03*
X41151D02*
D03*
X37349Y48000D02*
D03*
X38451D02*
D03*
X39849Y41800D02*
D03*
X40951D02*
D03*
X37249Y38300D02*
D03*
X38351D02*
D03*
X38049Y31700D02*
D03*
X39151D02*
D03*
D94*
X88474Y61093D02*
D03*
Y66054D02*
D03*
Y71493D02*
D03*
Y76454D02*
D03*
D95*
X85600Y61093D02*
D03*
Y62746D02*
D03*
Y66054D02*
D03*
Y64400D02*
D03*
Y71493D02*
D03*
Y73146D02*
D03*
Y76454D02*
D03*
Y74800D02*
D03*
D96*
X85800Y56100D02*
D03*
Y57100D02*
D03*
Y55100D02*
D03*
Y54100D02*
D03*
X88800Y57100D02*
D03*
Y54100D02*
D03*
Y50100D02*
D03*
Y53100D02*
D03*
X85800Y50100D02*
D03*
Y51100D02*
D03*
Y53100D02*
D03*
Y52100D02*
D03*
D97*
X22200Y50500D02*
D03*
X21200D02*
D03*
X22200Y51500D02*
D03*
X21200D02*
D03*
X22200Y52500D02*
D03*
X21200D02*
D03*
X22200Y53500D02*
D03*
X21200D02*
D03*
X22200Y54500D02*
D03*
X21200D02*
D03*
X22200Y55500D02*
D03*
X21200D02*
D03*
X22200Y56500D02*
D03*
X21200D02*
D03*
X22200Y57500D02*
D03*
X21200D02*
D03*
X22200Y58500D02*
D03*
X21200D02*
D03*
X22200Y59500D02*
D03*
X88100Y45000D02*
D03*
X88887D02*
D03*
X88100Y44213D02*
D03*
X88887D02*
D03*
X88100Y43425D02*
D03*
X88887D02*
D03*
X88100Y42638D02*
D03*
X88887D02*
D03*
X88100Y41850D02*
D03*
X88887D02*
D03*
X88100Y41063D02*
D03*
X88887D02*
D03*
X88100Y40276D02*
D03*
X88887D02*
D03*
D98*
X21200Y59500D02*
D03*
D99*
X87500Y80000D02*
D03*
Y32500D02*
D03*
X22500D02*
D03*
Y80000D02*
D03*
D100*
X87900Y37050D02*
D03*
Y38052D02*
D03*
Y35550D02*
D03*
Y34548D02*
D03*
D101*
X69650Y75900D02*
D03*
X68185Y75835D02*
D03*
X64350Y76400D02*
D03*
X62750Y76150D02*
D03*
X63450Y78500D02*
D03*
X62680Y77920D02*
D03*
X63880Y75620D02*
D03*
X65628Y74072D02*
D03*
X30250Y57500D02*
D03*
X30200Y58550D02*
D03*
X29100Y59150D02*
D03*
X28800Y57550D02*
D03*
X30100Y52450D02*
D03*
X29100Y54050D02*
D03*
X30000Y53350D02*
D03*
X29100Y52400D02*
D03*
X68100Y73900D02*
D03*
X69800D02*
D03*
X66700Y70600D02*
D03*
X70300Y70500D02*
D03*
X71065Y69065D02*
D03*
X68500Y71500D02*
D03*
X69709Y71891D02*
D03*
X65300Y71200D02*
D03*
X65000Y72600D02*
D03*
X58500Y31100D02*
D03*
X53310Y56810D02*
D03*
X53300Y58000D02*
D03*
X52400Y74800D02*
D03*
X60400Y75000D02*
D03*
X62450Y35550D02*
D03*
X61800Y36300D02*
D03*
X53300Y66800D02*
D03*
Y51500D02*
D03*
X53323Y46800D02*
D03*
X53300Y36800D02*
D03*
X53426Y38426D02*
D03*
Y43326D02*
D03*
X53300Y42300D02*
D03*
X53449Y48200D02*
D03*
X53426Y53126D02*
D03*
Y63326D02*
D03*
X53300Y62300D02*
D03*
X53426Y68226D02*
D03*
Y73126D02*
D03*
X53300Y72100D02*
D03*
Y77000D02*
D03*
X53426Y78026D02*
D03*
X62200Y48100D02*
D03*
X60300Y54900D02*
D03*
X59000Y56200D02*
D03*
X61300Y43000D02*
D03*
X57900Y71200D02*
D03*
Y72700D02*
D03*
Y66400D02*
D03*
Y68000D02*
D03*
Y61400D02*
D03*
Y62900D02*
D03*
Y56500D02*
D03*
Y58300D02*
D03*
X58300Y52800D02*
D03*
X58000Y51100D02*
D03*
Y47700D02*
D03*
Y46400D02*
D03*
Y37900D02*
D03*
Y42900D02*
D03*
Y36500D02*
D03*
Y41300D02*
D03*
Y31600D02*
D03*
Y33400D02*
D03*
X57435Y54235D02*
D03*
X57635Y78635D02*
D03*
X55500Y44900D02*
D03*
X55400Y39700D02*
D03*
Y34800D02*
D03*
X55426Y49974D02*
D03*
X55474Y54374D02*
D03*
X55426Y59974D02*
D03*
Y64574D02*
D03*
X55500Y69500D02*
D03*
X55526Y74474D02*
D03*
X55474Y79425D02*
D03*
X57200Y31600D02*
D03*
X53965Y31535D02*
D03*
X55200Y34000D02*
D03*
X53600Y33900D02*
D03*
X57500Y32900D02*
D03*
X55100Y31700D02*
D03*
X55000Y32600D02*
D03*
X57200Y36500D02*
D03*
X53965Y36435D02*
D03*
X55200Y38900D02*
D03*
X53600Y38800D02*
D03*
X57500Y37800D02*
D03*
X55100Y36600D02*
D03*
X55000Y37500D02*
D03*
X57200Y41400D02*
D03*
X53965Y41335D02*
D03*
X55200Y43800D02*
D03*
X53600Y43700D02*
D03*
X57500Y42700D02*
D03*
X55100Y41500D02*
D03*
X55000Y42400D02*
D03*
X57200Y46300D02*
D03*
X53965Y46235D02*
D03*
X55200Y48700D02*
D03*
X53600Y48600D02*
D03*
X57500Y47600D02*
D03*
X55100Y46400D02*
D03*
X55000Y47300D02*
D03*
X57200Y51200D02*
D03*
X53965Y51135D02*
D03*
X55200Y53600D02*
D03*
X53600Y53500D02*
D03*
X57500Y52500D02*
D03*
X55100Y51300D02*
D03*
X55000Y52200D02*
D03*
X57200Y56500D02*
D03*
X53965Y56435D02*
D03*
X55200Y58900D02*
D03*
X53600Y58800D02*
D03*
X57500Y57800D02*
D03*
X55100Y56600D02*
D03*
X55000Y57500D02*
D03*
X57200Y61400D02*
D03*
X53965Y61335D02*
D03*
X55200Y63800D02*
D03*
X53600Y63700D02*
D03*
X57500Y62700D02*
D03*
X55100Y61500D02*
D03*
X55000Y62400D02*
D03*
X57200Y66300D02*
D03*
X53965Y66235D02*
D03*
X55200Y68700D02*
D03*
X53600Y68600D02*
D03*
X57500Y67600D02*
D03*
X55100Y66400D02*
D03*
X55000Y67300D02*
D03*
X57200Y71200D02*
D03*
X53965Y71135D02*
D03*
X55200Y73600D02*
D03*
X53600Y73500D02*
D03*
X57500Y72500D02*
D03*
X55100Y71300D02*
D03*
X55000Y72200D02*
D03*
X57200Y76100D02*
D03*
X57500Y77400D02*
D03*
X53965Y76035D02*
D03*
X55200Y78500D02*
D03*
X53600Y78400D02*
D03*
X55000Y77100D02*
D03*
X55100Y76200D02*
D03*
X64200Y49900D02*
D03*
Y48300D02*
D03*
X64235Y32965D02*
D03*
X63100Y32500D02*
D03*
X75892Y47648D02*
D03*
X77800Y47200D02*
D03*
X80000Y46500D02*
D03*
X80200Y42300D02*
D03*
X80500Y41900D02*
D03*
X79500Y49200D02*
D03*
X38400Y57100D02*
D03*
X38000D02*
D03*
X24900Y50800D02*
D03*
X67600Y37400D02*
D03*
X73450Y32710D02*
D03*
X76700Y33300D02*
D03*
X75940Y58100D02*
D03*
X74240D02*
D03*
X79100Y64800D02*
D03*
Y60100D02*
D03*
X52400Y70000D02*
D03*
X47400Y32600D02*
D03*
X48200Y35200D02*
D03*
X53000Y37300D02*
D03*
Y38000D02*
D03*
X52800Y42300D02*
D03*
X53000Y43300D02*
D03*
Y46500D02*
D03*
X52900Y47700D02*
D03*
X53000Y52000D02*
D03*
X52900Y53000D02*
D03*
X53000Y57100D02*
D03*
Y58200D02*
D03*
X52800Y62300D02*
D03*
Y63100D02*
D03*
X53000Y67100D02*
D03*
X52800Y67800D02*
D03*
X52900Y72200D02*
D03*
Y73100D02*
D03*
X26100Y51300D02*
D03*
X26900Y52300D02*
D03*
X27000Y51800D02*
D03*
X37800Y52000D02*
D03*
X36600Y49900D02*
D03*
X37300Y54200D02*
D03*
X37600Y54500D02*
D03*
X38300Y57500D02*
D03*
X27100Y51000D02*
D03*
X29500Y44900D02*
D03*
X28500Y39800D02*
D03*
X28600Y50400D02*
D03*
X28100D02*
D03*
Y34100D02*
D03*
X28800Y43900D02*
D03*
X31200D02*
D03*
X28700Y48800D02*
D03*
X31200D02*
D03*
X28700Y63900D02*
D03*
X31200D02*
D03*
X29449Y74251D02*
D03*
X31200Y73700D02*
D03*
X31300Y68800D02*
D03*
X28600D02*
D03*
X24612Y56788D02*
D03*
X26256Y57044D02*
D03*
X27100Y56800D02*
D03*
X28688Y56788D02*
D03*
X25900Y58700D02*
D03*
X26900Y60200D02*
D03*
X30000Y64700D02*
D03*
X27800Y59900D02*
D03*
X29500Y69900D02*
D03*
X29000Y72800D02*
D03*
X37800Y49200D02*
D03*
X38528Y51328D02*
D03*
X39396Y33204D02*
D03*
X37604Y37296D02*
D03*
X38372Y37328D02*
D03*
X39300Y35800D02*
D03*
X39700Y43200D02*
D03*
X38300Y47200D02*
D03*
X37500D02*
D03*
X39700Y45700D02*
D03*
X39689Y50611D02*
D03*
X38100Y54000D02*
D03*
X37300Y53800D02*
D03*
X39300Y52300D02*
D03*
X39600Y55900D02*
D03*
X38000Y59800D02*
D03*
X37300Y59400D02*
D03*
X39300Y57800D02*
D03*
X39500Y63100D02*
D03*
X38372Y67028D02*
D03*
X37604Y66996D02*
D03*
X39300Y65500D02*
D03*
X39400Y72800D02*
D03*
X39140Y76760D02*
D03*
X37604Y76896D02*
D03*
X38372Y76772D02*
D03*
X38400Y75200D02*
D03*
X37200Y74200D02*
D03*
Y72700D02*
D03*
X38000Y70700D02*
D03*
Y69000D02*
D03*
X38628Y65628D02*
D03*
X37300Y64200D02*
D03*
X37100Y62900D02*
D03*
X37700Y60800D02*
D03*
X38300Y57900D02*
D03*
X37700Y55000D02*
D03*
X38528Y52428D02*
D03*
X38100Y49500D02*
D03*
Y48800D02*
D03*
X38700Y45700D02*
D03*
X37400Y44400D02*
D03*
Y42900D02*
D03*
X37700Y40900D02*
D03*
X38400Y39000D02*
D03*
Y74700D02*
D03*
X39800Y74300D02*
D03*
X39600Y72300D02*
D03*
X39400Y71200D02*
D03*
Y68400D02*
D03*
X39396Y67404D02*
D03*
X38500Y64900D02*
D03*
X39300D02*
D03*
Y62100D02*
D03*
X39296Y61396D02*
D03*
Y54896D02*
D03*
X38400Y51800D02*
D03*
X39500Y49600D02*
D03*
Y48400D02*
D03*
X39496Y47396D02*
D03*
X73900Y56700D02*
D03*
X74258Y56658D02*
D03*
X74900Y56700D02*
D03*
X75794Y56694D02*
D03*
X72778Y46000D02*
D03*
X74200Y45900D02*
D03*
X75465Y45965D02*
D03*
X74500Y45400D02*
D03*
X73500D02*
D03*
X72500Y46400D02*
D03*
X72200Y52300D02*
D03*
X72909Y51009D02*
D03*
X74800Y51800D02*
D03*
X73600Y52800D02*
D03*
X74514Y53114D02*
D03*
X77191Y52509D02*
D03*
X77900Y51800D02*
D03*
X76009Y51009D02*
D03*
X74900Y52800D02*
D03*
X75538Y53038D02*
D03*
X80900Y46200D02*
D03*
X76500Y43100D02*
D03*
X75600Y44800D02*
D03*
X80900Y46900D02*
D03*
X81965Y48835D02*
D03*
X82700Y50000D02*
D03*
X77765Y53635D02*
D03*
X82165Y50965D02*
D03*
X82500Y54900D02*
D03*
X78400Y58700D02*
D03*
X81300D02*
D03*
X83135Y57735D02*
D03*
X79250Y53950D02*
D03*
Y57550D02*
D03*
X80000Y57600D02*
D03*
X80750Y53950D02*
D03*
X71400Y35300D02*
D03*
X72850Y35050D02*
D03*
X73450Y35550D02*
D03*
X74950Y34550D02*
D03*
X71450Y34050D02*
D03*
X74850D02*
D03*
X69400Y39000D02*
D03*
X72000Y49600D02*
D03*
X72435Y38535D02*
D03*
X76200Y42300D02*
D03*
X70600Y44500D02*
D03*
X71000Y44300D02*
D03*
X78600Y45600D02*
D03*
X71678Y44278D02*
D03*
X75200Y45100D02*
D03*
X77800D02*
D03*
X76400Y45600D02*
D03*
X77200D02*
D03*
X76000Y48300D02*
D03*
X77700Y47800D02*
D03*
X76300Y49000D02*
D03*
X77265Y48235D02*
D03*
X76800Y48900D02*
D03*
X76248Y49952D02*
D03*
X78200Y49500D02*
D03*
X76340Y49440D02*
D03*
X73752Y49952D02*
D03*
X73800Y47900D02*
D03*
X78300Y46400D02*
D03*
X82650Y35250D02*
D03*
X80750Y34750D02*
D03*
X78965Y35565D02*
D03*
X78981Y39519D02*
D03*
X76665Y35465D02*
D03*
X78700Y38500D02*
D03*
X82200Y39200D02*
D03*
X82300Y41200D02*
D03*
X73400Y44500D02*
D03*
X73700Y38300D02*
D03*
X74400Y37000D02*
D03*
X72700Y37100D02*
D03*
X73100Y38300D02*
D03*
X71000Y39100D02*
D03*
X72400Y39300D02*
D03*
X72200Y39800D02*
D03*
X70900Y40400D02*
D03*
X72300Y41300D02*
D03*
X72400Y41800D02*
D03*
X70900Y42200D02*
D03*
X78400Y43000D02*
D03*
X77000Y42500D02*
D03*
Y42000D02*
D03*
X78291Y41291D02*
D03*
X78500Y39800D02*
D03*
X77000Y40000D02*
D03*
Y39400D02*
D03*
X78500Y39100D02*
D03*
X77000Y38300D02*
D03*
X75200Y36800D02*
D03*
X75600Y38300D02*
D03*
X76078Y36822D02*
D03*
X76100Y38300D02*
D03*
X75100Y44500D02*
D03*
X76078Y44478D02*
D03*
X75900Y43000D02*
D03*
X75300D02*
D03*
X74300Y44300D02*
D03*
X73700Y43000D02*
D03*
X73300D02*
D03*
X72500Y43100D02*
D03*
X32300Y74000D02*
D03*
X34091Y72608D02*
D03*
X36800Y73900D02*
D03*
X36351Y71251D02*
D03*
X31100Y70900D02*
D03*
X33100Y73500D02*
D03*
X32500Y72700D02*
D03*
X36031Y73068D02*
D03*
X35400Y71600D02*
D03*
X34656Y71044D02*
D03*
X32100Y70700D02*
D03*
X33100Y71000D02*
D03*
X27192Y73791D02*
D03*
X28600Y70900D02*
D03*
X27500Y71200D02*
D03*
X26800Y72300D02*
D03*
X27300Y73400D02*
D03*
X51765Y78065D02*
D03*
X42335Y76035D02*
D03*
X50300Y78400D02*
D03*
X52600Y75400D02*
D03*
X50400Y76800D02*
D03*
X26800Y77200D02*
D03*
X27192Y78692D02*
D03*
X27300Y78300D02*
D03*
X27500Y76100D02*
D03*
X28600Y75800D02*
D03*
X31100D02*
D03*
X28700Y78600D02*
D03*
X31200D02*
D03*
X32500Y77600D02*
D03*
X32300Y78900D02*
D03*
X34091Y77509D02*
D03*
X33100Y78400D02*
D03*
X34656Y75944D02*
D03*
X33100Y75900D02*
D03*
X32100Y75600D02*
D03*
X35400Y76500D02*
D03*
X35500Y77000D02*
D03*
X36031Y77969D02*
D03*
X36800Y78800D02*
D03*
X34400D02*
D03*
X41065Y78535D02*
D03*
X46100Y79000D02*
D03*
X47135Y78965D02*
D03*
X46600Y77450D02*
D03*
X46022Y75478D02*
D03*
X46600Y76900D02*
D03*
X36351Y76151D02*
D03*
X42335Y71135D02*
D03*
X41065Y73635D02*
D03*
X50300Y73500D02*
D03*
X50400Y71900D02*
D03*
X51765Y73165D02*
D03*
X52600Y70500D02*
D03*
X46100Y74100D02*
D03*
X47135Y74065D02*
D03*
X46600Y72550D02*
D03*
X46600Y72000D02*
D03*
X46022Y70578D02*
D03*
X37860Y75360D02*
D03*
X36700Y74800D02*
D03*
X34400Y73900D02*
D03*
X38600Y71900D02*
D03*
X38000Y71300D02*
D03*
X28600Y66000D02*
D03*
X27500Y66300D02*
D03*
X26800Y67400D02*
D03*
X27300Y68500D02*
D03*
X27192Y68892D02*
D03*
X34400Y69000D02*
D03*
X36800D02*
D03*
X34656Y66144D02*
D03*
X36351Y66351D02*
D03*
X31100Y66000D02*
D03*
X33100Y68600D02*
D03*
X32500Y67800D02*
D03*
X36031Y68169D02*
D03*
X35400Y66700D02*
D03*
X35500Y67200D02*
D03*
X32100Y65800D02*
D03*
X33100Y66100D02*
D03*
X34091Y67709D02*
D03*
X32300Y69100D02*
D03*
X28600Y61100D02*
D03*
X27500Y61400D02*
D03*
X26800Y62500D02*
D03*
X27300Y63600D02*
D03*
X27192Y63991D02*
D03*
X34400Y64100D02*
D03*
X36800D02*
D03*
X34656Y61244D02*
D03*
X36351Y61451D02*
D03*
X31100Y61100D02*
D03*
X33100Y63700D02*
D03*
X32500Y62900D02*
D03*
X36031Y63268D02*
D03*
X35400Y61800D02*
D03*
X34091Y62808D02*
D03*
X32100Y60900D02*
D03*
X33100Y61200D02*
D03*
X32300Y64200D02*
D03*
X42335Y66235D02*
D03*
X41065Y68735D02*
D03*
X50300Y68600D02*
D03*
X50400Y67000D02*
D03*
X51765Y68265D02*
D03*
X52600Y65600D02*
D03*
X46100Y69200D02*
D03*
X47135Y69165D02*
D03*
X46600Y67650D02*
D03*
X46600Y67100D02*
D03*
X46022Y65678D02*
D03*
X42335Y61335D02*
D03*
X41065Y63835D02*
D03*
X50300Y63700D02*
D03*
X50400Y62100D02*
D03*
X52600Y60700D02*
D03*
X46022Y60778D02*
D03*
X46600Y62200D02*
D03*
X46100Y64300D02*
D03*
X47135Y64265D02*
D03*
X46600Y62750D02*
D03*
X37860Y65460D02*
D03*
X36400Y65000D02*
D03*
X38500Y62100D02*
D03*
X37800Y61400D02*
D03*
X28600Y46000D02*
D03*
X27500Y46300D02*
D03*
X26800Y47400D02*
D03*
X27300Y48500D02*
D03*
X27192Y48892D02*
D03*
X28600Y36200D02*
D03*
X27500Y36500D02*
D03*
X26800Y37600D02*
D03*
X27300Y38700D02*
D03*
X27192Y39091D02*
D03*
X28600Y41100D02*
D03*
X27500Y41400D02*
D03*
X26800Y42500D02*
D03*
X27300Y43600D02*
D03*
X27192Y43991D02*
D03*
X28600Y31300D02*
D03*
X27500Y31600D02*
D03*
X26800Y32700D02*
D03*
X27300Y33800D02*
D03*
X27192Y34192D02*
D03*
X34400Y49000D02*
D03*
X36800D02*
D03*
X34656Y46144D02*
D03*
X36351Y46351D02*
D03*
X31100Y46000D02*
D03*
X33100Y48600D02*
D03*
X32500Y47800D02*
D03*
X36031Y48169D02*
D03*
X35400Y46700D02*
D03*
X35500Y47200D02*
D03*
X32100Y45800D02*
D03*
X33100Y46100D02*
D03*
X34091Y47709D02*
D03*
X32300Y49100D02*
D03*
X34400Y39200D02*
D03*
X36800D02*
D03*
X34656Y36344D02*
D03*
X36351Y36551D02*
D03*
X31100Y36200D02*
D03*
X33100Y38800D02*
D03*
X32500Y38000D02*
D03*
X36031Y38368D02*
D03*
X35400Y36900D02*
D03*
X35500Y37400D02*
D03*
X32100Y36000D02*
D03*
X33100Y36300D02*
D03*
X34091Y37908D02*
D03*
X32300Y39300D02*
D03*
X34400Y44100D02*
D03*
X36800D02*
D03*
X34656Y41244D02*
D03*
X36351Y41451D02*
D03*
X31100Y41100D02*
D03*
X33100Y43700D02*
D03*
X32500Y42900D02*
D03*
X36031Y43268D02*
D03*
X35400Y41800D02*
D03*
X34091Y42808D02*
D03*
X32100Y40900D02*
D03*
X33100Y41200D02*
D03*
X32300Y44200D02*
D03*
X34400Y34300D02*
D03*
X36800D02*
D03*
X34656Y31444D02*
D03*
X36351Y31651D02*
D03*
X31100Y31300D02*
D03*
X33100Y33900D02*
D03*
X32500Y33100D02*
D03*
X36031Y33468D02*
D03*
X35400Y32000D02*
D03*
X34091Y33008D02*
D03*
X32100Y31100D02*
D03*
X33100Y31400D02*
D03*
X32300Y34400D02*
D03*
X42335Y41335D02*
D03*
X41065Y43835D02*
D03*
X50300Y43700D02*
D03*
X50400Y42100D02*
D03*
X51765Y43365D02*
D03*
X52600Y40700D02*
D03*
X46100Y44300D02*
D03*
X47135Y44265D02*
D03*
X46600Y42750D02*
D03*
X46600Y42200D02*
D03*
X46022Y40778D02*
D03*
X42335Y46235D02*
D03*
X41065Y48735D02*
D03*
X50300Y48600D02*
D03*
X50400Y47000D02*
D03*
X51765Y48265D02*
D03*
X52600Y45600D02*
D03*
X46100Y49200D02*
D03*
X47135Y49165D02*
D03*
X46600Y47650D02*
D03*
X46600Y47100D02*
D03*
X46022Y45678D02*
D03*
X42335Y36435D02*
D03*
X41065Y38935D02*
D03*
X50300Y38800D02*
D03*
X50400Y37200D02*
D03*
X51765Y38465D02*
D03*
X52600Y35800D02*
D03*
X46100Y39400D02*
D03*
X47135Y39365D02*
D03*
X46600Y37850D02*
D03*
X46600Y37300D02*
D03*
X46022Y35878D02*
D03*
X42335Y31535D02*
D03*
X41065Y34035D02*
D03*
X50300Y33900D02*
D03*
X50400Y32300D02*
D03*
X51765Y33565D02*
D03*
X52600Y30900D02*
D03*
X46100Y34500D02*
D03*
X47135Y34465D02*
D03*
X46600Y32950D02*
D03*
X46600Y32400D02*
D03*
X46022Y30978D02*
D03*
X37960Y45540D02*
D03*
X36500Y45000D02*
D03*
X38300Y32300D02*
D03*
X37600Y35700D02*
D03*
X36700Y35200D02*
D03*
X38600Y42100D02*
D03*
X37900Y41400D02*
D03*
X34200Y59200D02*
D03*
X36600D02*
D03*
X34456Y56344D02*
D03*
X36151Y56551D02*
D03*
X30900Y56200D02*
D03*
X32900Y58800D02*
D03*
X32300Y58000D02*
D03*
X35831Y58369D02*
D03*
X35200Y56900D02*
D03*
X33891Y57909D02*
D03*
X31900Y56000D02*
D03*
X32900Y56300D02*
D03*
X32100Y59300D02*
D03*
X34200Y53900D02*
D03*
X36600D02*
D03*
X34456Y51044D02*
D03*
X36151Y51251D02*
D03*
X30900Y50900D02*
D03*
X32900Y53500D02*
D03*
X32300Y52700D02*
D03*
X35831Y53068D02*
D03*
X35200Y51600D02*
D03*
X33891Y52608D02*
D03*
X31900Y50700D02*
D03*
X32900Y51000D02*
D03*
X32100Y54000D02*
D03*
X42335Y56435D02*
D03*
X41065Y58935D02*
D03*
X50300Y58800D02*
D03*
X50400Y57200D02*
D03*
X51765Y58465D02*
D03*
X52600Y55800D02*
D03*
X46022Y55878D02*
D03*
X46600Y57300D02*
D03*
X46100Y59400D02*
D03*
X47135Y59365D02*
D03*
X46600Y57850D02*
D03*
X42335Y51135D02*
D03*
X41065Y53635D02*
D03*
X50300Y53500D02*
D03*
X50400Y51900D02*
D03*
X51765Y53165D02*
D03*
X52600Y50500D02*
D03*
X46022Y50578D02*
D03*
X46600Y52000D02*
D03*
X46100Y54100D02*
D03*
X47135Y54065D02*
D03*
X46600Y52550D02*
D03*
X37760Y57960D02*
D03*
X36000Y55500D02*
D03*
X37760Y52460D02*
D03*
X36100Y50200D02*
D03*
X66900Y47200D02*
D03*
Y48000D02*
D03*
X63650Y47150D02*
D03*
X67050Y44150D02*
D03*
Y37050D02*
D03*
X63450D02*
D03*
X63550Y34050D02*
D03*
X67050D02*
D03*
X67000Y33400D02*
D03*
X31100Y39000D02*
D03*
X28800D02*
D03*
X28700Y34100D02*
D03*
X31200D02*
D03*
X38884Y39084D02*
D03*
X38900Y44600D02*
D03*
X39000Y48800D02*
D03*
Y49600D02*
D03*
Y51400D02*
D03*
X38784Y54984D02*
D03*
X38800Y56900D02*
D03*
X38784Y61384D02*
D03*
X38900Y64500D02*
D03*
X38884Y67916D02*
D03*
X38900Y68800D02*
D03*
Y71200D02*
D03*
Y74300D02*
D03*
X39396Y37704D02*
D03*
X39400Y38700D02*
D03*
Y45300D02*
D03*
X38700D02*
D03*
X63550Y36050D02*
D03*
X62100Y34000D02*
D03*
X39400Y32400D02*
D03*
X52250Y63000D02*
D03*
X64247Y43853D02*
D03*
X86320Y45520D02*
D03*
X86900Y43400D02*
D03*
X87400D02*
D03*
X85500Y41900D02*
D03*
X67500Y79000D02*
D03*
X66100Y74300D02*
D03*
X64800Y74800D02*
D03*
X65372Y77072D02*
D03*
X66400Y76500D02*
D03*
X65100Y77500D02*
D03*
X38628Y67392D02*
D03*
X38728Y47328D02*
D03*
X39200Y47700D02*
D03*
X38884Y41084D02*
D03*
X39400Y41100D02*
D03*
X39700Y42500D02*
D03*
X38628Y37700D02*
D03*
X38884Y37284D02*
D03*
X37988Y31088D02*
D03*
X66500Y69600D02*
D03*
X26840Y75500D02*
D03*
X23500Y75600D02*
D03*
X26700Y70500D02*
D03*
X23500Y70800D02*
D03*
X23600Y65700D02*
D03*
X26800Y65400D02*
D03*
X25800Y59700D02*
D03*
X24200Y60500D02*
D03*
X26135Y45365D02*
D03*
X23800Y47200D02*
D03*
X23400Y42600D02*
D03*
X26600Y40600D02*
D03*
X26500Y35600D02*
D03*
X22900Y37100D02*
D03*
X21700Y35100D02*
D03*
X26900Y30900D02*
D03*
X68100Y68500D02*
D03*
X67700Y67100D02*
D03*
D102*
X77700Y37400D02*
D03*
X75700Y34800D02*
D03*
X71100Y34600D02*
D03*
X70200Y37400D02*
D03*
X77410Y72590D02*
D03*
Y69910D02*
D03*
X75900Y71200D02*
D03*
X73400Y69400D02*
D03*
Y74100D02*
D03*
Y78900D02*
D03*
X77410Y75390D02*
D03*
Y77690D02*
D03*
X76100Y76500D02*
D03*
Y55280D02*
D03*
X76080Y54450D02*
D03*
X73700Y55280D02*
D03*
X73680Y54450D02*
D03*
M02*
