<?xml version="1.0" encoding="UTF-8" standalone="no"?>
<!-- Created with Inkscape (http://www.inkscape.org/) -->

<svg
   xmlns:dc="http://purl.org/dc/elements/1.1/"
   xmlns:cc="http://creativecommons.org/ns#"
   xmlns:rdf="http://www.w3.org/1999/02/22-rdf-syntax-ns#"
   xmlns:svg="http://www.w3.org/2000/svg"
   xmlns="http://www.w3.org/2000/svg"
   xmlns:sodipodi="http://sodipodi.sourceforge.net/DTD/sodipodi-0.dtd"
   xmlns:inkscape="http://www.inkscape.org/namespaces/inkscape"
   width="754.88202"
   height="566.41156"
   id="svg2"
   sodipodi:version="0.32"
   inkscape:version="0.46+devel r21521"
   version="1.0"
   sodipodi:docname="noise2.svg"
   inkscape:export-filename="/tmp/test.png"
   inkscape:export-xdpi="90"
   inkscape:export-ydpi="90"
   inkscape:output_extension="org.inkscape.output.svg.inkscape">
  <defs
     id="defs4">
    <inkscape:perspective
       sodipodi:type="inkscape:persp3d"
       inkscape:vp_x="0 : 384 : 1"
       inkscape:vp_y="0 : 1000 : 0"
       inkscape:vp_z="1024 : 384 : 1"
       inkscape:persp3d-origin="512 : 256 : 1"
       id="perspective127" />
  </defs>
  <sodipodi:namedview
     id="base"
     pagecolor="#ffffff"
     bordercolor="#666666"
     borderopacity="1.0"
     inkscape:pageopacity="0.0"
     inkscape:pageshadow="2"
     inkscape:zoom="0.5"
     inkscape:cx="425.8389"
     inkscape:cy="226.63535"
     inkscape:document-units="px"
     inkscape:current-layer="layer1"
     width="1024px"
     height="768px"
     showgrid="true"
     inkscape:object-paths="false"
     inkscape:grid-bbox="false"
     gridtolerance="50"
     inkscape:grid-points="false"
     showguides="true"
     inkscape:guide-bbox="true"
     inkscape:window-width="1083"
     inkscape:window-height="858"
     inkscape:window-x="344"
     inkscape:window-y="191"
     inkscape:window-maximized="0">
    <sodipodi:guide
       orientation="horizontal"
       position="-140.1611,-36.014293"
       id="guide1890" />
    <inkscape:grid
       id="GridFromPre046Settings"
       type="xygrid"
       originx="0px"
       originy="0px"
       spacingx="10px"
       spacingy="10px"
       color="#0000ff"
       empcolor="#0000ff"
       opacity="0.2"
       empopacity="0.4"
       empspacing="5"
       visible="true"
       enabled="true"
       snapvisiblegridlinesonly="true" />
  </sodipodi:namedview>
  <metadata
     id="metadata7">
    <rdf:RDF>
      <cc:Work
         rdf:about="">
        <dc:format>image/svg+xml</dc:format>
        <dc:type
           rdf:resource="http://purl.org/dc/dcmitype/StillImage" />
      </cc:Work>
    </rdf:RDF>
  </metadata>
  <g
     inkscape:groupmode="layer"
     id="layer2"
     inkscape:label="background"
     style="display:inline"
     transform="translate(-140.1611,-137.2899)" />
  <g
     inkscape:label="Layer 1"
     inkscape:groupmode="layer"
     id="layer1"
     style="display:inline"
     transform="translate(-140.1611,-137.2899)">
    <g
       id="g2892">
      <path
         style="font-size:200px;font-style:normal;font-variant:normal;font-weight:bold;font-stretch:normal;text-align:start;line-height:125%;writing-mode:lr-tb;text-anchor:start;opacity:0.09090899;fill:#ffffff;fill-opacity:1;stroke:none;font-family:Bitstream Vera Sans"
         d=""
         id="text2944" />
    </g>
    <g
       id="figure1"
       transform="matrix(1.308823,0,0,1.308823,140.6611,137.7899)">
      <polygon
         id="polygon2302"
         points="576,432 0,432 0,432 0,0 576,0 "
         style="fill:#ffffff;stroke:#ffffff;stroke-width:0.76404524;stroke-linecap:square;stroke-linejoin:miter" />
      <g
         id="axes1">
        <polygon
           id="polygon2305"
           points="518.4,388.8 72,388.8 72,388.8 72,43.2 518.4,43.2 "
           style="fill:#ffffff;stroke:#000000;stroke-width:0.76404524;stroke-linecap:square;stroke-linejoin:miter" />
        <defs
           id="defs2307">
          <clipPath
             id="789695421804425603">
            <rect
               id="rect2310"
               style="fill:none;stroke:#808080"
               height="345.60001"
               width="446.39999"
               y="43.200001"
               x="72" />
          </clipPath>
        </defs>
        <path
           id="path2312"
           d="m 75.4875,282.96866 3.4875,-38.40796 3.4875,-44.88931 3.4875,-30.12988 3.4875,-26.03363 3.4875,-4.19908 3.4875,-16.68933 3.4875,-8.51165 3.4875,1.05473 3.4875,-12.18784 3.4875,-8.316611 3.4875,4.434826 3.4875,-4.978602 3.4875,1.192196 3.4875,-1.988785 3.4875,-2.26331 3.4875,11.261966 3.4875,1.54919 3.4875,-8.034455 3.4875,-6.915 3.4875,-7.367492 3.4875,1.98228 3.4875,25.020187 3.4875,1.98285 3.4875,-16.237207 3.4875,-16.805815 3.4875,13.005371 3.4875,7.732047 3.4875,-7.306162 3.4875,11.902276 3.4875,-29.34822 3.4875,10.487076 3.4875,-9.149758 3.4875,17.691902 3.4875,13.99242 3.4875,4.22628 3.4875,-12.601345 3.4875,2.126855 3.4875,9.32938 3.4875,0.32801 3.4875,-4.34541 3.4875,-10.76968 3.4875,-1.073285 3.4875,17.113875 3.4875,5.0739 3.4875,-7.9627 3.4875,-1.47086 3.4875,9.37974 3.4875,-5.46514 3.4875,-1.83495 3.4875,-3.3676 3.4875,6.48264 3.4875,9.46781 3.4875,-1.11268 3.4875,0.23735 3.4875,-8.14706 3.4875,-2.83905 3.4875,9.56639 3.4875,-6.52734 3.4875,22.98458 3.4875,-5.87996 3.4875,1.66703 3.4875,-16.28362 3.4875,27.59752 3.4875,-6.57005 3.4875,-9.34177 3.4875,-3.07516 3.4875,8.5001 3.4875,2.90394 3.4875,0.95832 3.4875,-2.94743 3.4875,17.07848 3.4875,-7.15299 3.4875,3.22861 3.4875,-3.38444 3.4875,-7.64901 3.4875,11.0554 3.4875,-10.22133 3.4875,8.92349 3.4875,-1.71885 3.4875,12.81584 3.4875,4.00611 3.4875,12.2911 3.4875,6.81134 3.4875,15.57699 3.4875,0.92178 3.4875,8.76109 3.4875,13.492 3.4875,16.22182 3.4875,7.20694 3.4875,18.36836 3.4875,11.94629 3.4875,16.88016 3.4875,11.63025 3.4875,7.00717 3.4875,10.60345 3.4875,12.44452 3.4875,9.07423 3.4875,6.55519 3.4875,7.22243 3.4875,5.47843 3.4875,6.5989 3.4875,3.5541 3.4875,2.74539 3.4875,3.19276 3.4875,2.15365 3.4875,0.99936 3.4875,1.61113 3.4875,0.72658 3.4875,0.44823 3.4875,0.61147 3.4875,0.47322 3.4875,-0.1935 3.4875,0.2799 3.4875,-0.10152 3.4875,-0.21363 3.4875,0.25193 3.4875,0.30506 3.4875,-0.0158 3.4875,-0.1233 3.4875,0.0273 3.4875,0.0569 3.4875,0.0808 3.4875,-0.07 3.4875,0.077 3.4875,-0.30071 3.4875,0.19811"
           style="fill:none;stroke:#ff0000;stroke-width:0.76404524;stroke-linecap:butt;stroke-linejoin:miter;stroke-dasharray:4.58427129, 4.58427129;stroke-dashoffset:0" />
        <path
           id="path2314"
           d="m 75.4875,361.28996 3.4875,-39.05443 3.4875,-33.37057 3.4875,-27.8999 3.4875,-29.59584 3.4875,-11.51612 3.4875,-17.26094 3.4875,-2.08682 3.4875,-16.17368 3.4875,3.14384 3.4875,-4.82936 3.4875,1.74894 3.4875,-7.37346 3.4875,5.38958 3.4875,0.81775 3.4875,-13.46404 3.4875,4.03016 3.4875,1.26751 3.4875,2.84972 3.4875,-2.85293 3.4875,-12.16102 3.4875,12.11618 3.4875,7.11931 3.4875,-5.7503 3.4875,-0.55819 3.4875,-0.701 3.4875,4.42309 3.4875,11.83149 3.4875,-13.24021 3.4875,-5.08024 3.4875,2.7818 3.4875,0.44514 3.4875,-3.11192 3.4875,-4.51414 3.4875,4.69988 3.4875,11.84643 3.4875,-15.1986 3.4875,8.50708 3.4875,-1.00123 3.4875,9.41803 3.4875,-1.23141 3.4875,3.89075 3.4875,-5.8947 3.4875,3.18748 3.4875,9.2779 3.4875,1.02654 3.4875,-4.03287 3.4875,-1.87008 3.4875,3.96643 3.4875,2.42734 3.4875,-4.26079 3.4875,-4.26257 3.4875,4.48637 3.4875,-2.71111 3.4875,9.8343 3.4875,-7.78411 3.4875,6.58646 3.4875,-2.32444 3.4875,4.59193 3.4875,1.7447 3.4875,-2.47599 3.4875,-1.4833 3.4875,12.76351 3.4875,1.26238 3.4875,-7.15371 3.4875,8.66202 3.4875,-0.27456 3.4875,1.27095 3.4875,-3.52927 3.4875,6.44553 3.4875,-3.80889 3.4875,-3.20594 3.4875,3.20087 3.4875,0.82495 3.4875,7.83606 3.4875,-0.79919 3.4875,4.65842 3.4875,-7.44189 3.4875,3.22646 3.4875,0.9537 3.4875,11.65138 3.4875,2.5563 3.4875,7.58824 3.4875,1.74965 3.4875,0.89371 3.4875,17.1331 3.4875,3.9798 3.4875,11.15814 3.4875,5.77075 3.4875,4.28544 3.4875,12.526 3.4875,10.31609 3.4875,7.09511 3.4875,11.00656 3.4875,7.20941 3.4875,7.82835 3.4875,6.77497 3.4875,6.82854 3.4875,5.3786 3.4875,4.24331 3.4875,3.76857 3.4875,3.07571 3.4875,2.55309 3.4875,2.23473 3.4875,1.5381 3.4875,1.21356 3.4875,1.14477 3.4875,0.51816 3.4875,0.54548 3.4875,0.31433 3.4875,0.24641 3.4875,0.20172 3.4875,0.11855 3.4875,0.0967 3.4875,0.0575 3.4875,0.026 3.4875,0.0476 3.4875,0.0136 3.4875,0.0134 3.4875,0.007 3.4875,0.015 3.4875,0.002 3.4875,0.0117 3.4875,0.012 3.4875,-0.01 3.4875,0.004 3.4875,0.0121"
           style="fill:none;stroke:#008000;stroke-width:0.76404524;stroke-linecap:butt;stroke-linejoin:miter;stroke-dasharray:4.58427129, 4.58427129;stroke-dashoffset:0" />
        <path
           id="path2316"
           d="m 75.4875,363.10763 3.4875,-37.91058 3.4875,-36.75959 3.4875,-24.84667 3.4875,-32.53017 3.4875,-11.55675 3.4875,-8.87374 3.4875,-3.18523 3.4875,-1.73719 3.4875,-10.84626 3.4875,5.2264 3.4875,-15.32361 3.4875,2.1223 3.4875,11.71753 3.4875,-17.97318 3.4875,2.4474 3.4875,6.12447 3.4875,-8.13027 3.4875,5.51207 3.4875,-9.21819 3.4875,7.38957 3.4875,0.018 3.4875,-6.36617 3.4875,5.60979 3.4875,-5.7916 3.4875,-3.00773 3.4875,11.31621 3.4875,-1.02921 3.4875,0.61619 3.4875,6.28241 3.4875,-15.60227 3.4875,15.91297 3.4875,-1.43439 3.4875,-5.08715 3.4875,-0.28504 3.4875,-2.00642 3.4875,10.7478 3.4875,-6.28458 3.4875,-4.27821 3.4875,3.73125 3.4875,11.13985 3.4875,-8.12793 3.4875,4.14021 3.4875,1.52588 3.4875,3.13142 3.4875,-7.31179 3.4875,4.01278 3.4875,5.41397 3.4875,1.19996 3.4875,11.19251 3.4875,-9.28067 3.4875,-1.53051 3.4875,9.40957 3.4875,-10.91014 3.4875,3.98651 3.4875,2.66637 3.4875,-2.93236 3.4875,1.18326 3.4875,7.89665 3.4875,-5.70134 3.4875,3.97821 3.4875,3.78839 3.4875,-3.85089 3.4875,3.62792 3.4875,0.97128 3.4875,-7.8652 3.4875,7.29367 3.4875,16.21256 3.4875,-12.97465 3.4875,2.24037 3.4875,7.89289 3.4875,3.28013 3.4875,-10.23309 3.4875,0.97365 3.4875,6.52471 3.4875,-0.69637 3.4875,-5.22107 3.4875,3.85607 3.4875,0.7305 3.4875,2.51888 3.4875,8.43145 3.4875,10.86576 3.4875,-1.16624 3.4875,7.53334 3.4875,4.15212 3.4875,3.88435 3.4875,6.0946 3.4875,14.00424 3.4875,5.88744 3.4875,5.88713 3.4875,10.0167 3.4875,12.08225 3.4875,4.19319 3.4875,8.25206 3.4875,10.43345 3.4875,7.93686 3.4875,5.95848 3.4875,4.78219 3.4875,4.30741 3.4875,5.94101 3.4875,3.20509 3.4875,2.84161 3.4875,2.95457 3.4875,1.58133 3.4875,1.80831 3.4875,1.28994 3.4875,0.76903 3.4875,0.66187 3.4875,0.61021 3.4875,0.28639 3.4875,0.20798 3.4875,0.22936 3.4875,0.0798 3.4875,0.11931 3.4875,0.0548 3.4875,0.0342 3.4875,0.0237 3.4875,0.0267 3.4875,0.014 3.4875,0.008 3.4875,0.01 3.4875,0.008 3.4875,0.005 3.4875,0.005 3.4875,0.004 3.4875,0.002 3.4875,0.002"
           style="fill:none;stroke:#0000ff;stroke-width:0.76404524;stroke-linecap:butt;stroke-linejoin:miter;stroke-dasharray:4.58427129, 4.58427129;stroke-dashoffset:0" />
        <path
           id="path2318"
           d="m 75.4875,61.224899 3.4875,6.919069 3.4875,8.540522 3.4875,-4.71468 3.4875,8.952136 3.4875,7.104971 3.4875,-4.61581 3.4875,-5.079247 3.4875,-3.269212 3.4875,2.42933 3.4875,9.274722 3.4875,4.86343 3.4875,-10.253972 3.4875,9.218948 3.4875,-5.647398 3.4875,-1.731592 3.4875,10.34777 3.4875,-6.020713 3.4875,12.737947 3.4875,-4.51238 3.4875,-10.375218 3.4875,10.229653 3.4875,1.040953 3.4875,-7.464101 3.4875,-4.218239 3.4875,6.61964 3.4875,-5.820381 3.4875,2.571286 3.4875,1.313571 3.4875,-0.910327 3.4875,-6.920209 3.4875,1.633681 3.4875,2.736701 3.4875,-0.167354 3.4875,10.2299 3.4875,1.932165 3.4875,1.860219 3.4875,8.12032 3.4875,-3.57404 3.4875,-2.95352 3.4875,1.9054 3.4875,6.59016 3.4875,-3.5743 3.4875,0.0284 3.4875,-3.94181 3.4875,12.84391 3.4875,-8.89518 3.4875,1.90827 3.4875,1.45562 3.4875,3.18665 3.4875,-11.87188 3.4875,7.95144 3.4875,0.73033 3.4875,19.69643 3.4875,-17.06068 3.4875,3.08292 3.4875,4.10377 3.4875,7.55693 3.4875,1.82244 3.4875,-15.57101 3.4875,12.30747 3.4875,4.27799 3.4875,-5.93344 3.4875,4.17094 3.4875,4.45867 3.4875,-9.7504 3.4875,9.089 3.4875,-1.54207 3.4875,0.45709 3.4875,8.2748 3.4875,4.82886 3.4875,-3.03554 3.4875,-1.63551 3.4875,8.94016 3.4875,-3.97422 3.4875,-5.38051 3.4875,-2.91759 3.4875,2.84 3.4875,26.18638 3.4875,-18.30976 3.4875,2.34073 3.4875,-5.54926 3.4875,23.75344 3.4875,0.63609 3.4875,10.18517 3.4875,16.93203 3.4875,14.26281 3.4875,8.06417 3.4875,9.14091 3.4875,11.69067 3.4875,24.47422 3.4875,4.12949 3.4875,18.57813 3.4875,8.84269 3.4875,12.77333 3.4875,10.58602 3.4875,7.2356 3.4875,15.85964 3.4875,7.47712 3.4875,5.50672 3.4875,5.2714 3.4875,5.30762 3.4875,3.33955 3.4875,3.52755 3.4875,2.59053 3.4875,2.05227 3.4875,1.95109 3.4875,0.91476 3.4875,0.53534 3.4875,0.72898 3.4875,0.62419 3.4875,0.40724 3.4875,-0.004 3.4875,0.31608 3.4875,0.0815 3.4875,-0.31073 3.4875,0.41858 3.4875,-0.15547 3.4875,-0.23472 3.4875,0.28612 3.4875,0.17311 3.4875,-0.126 3.4875,0.20284 3.4875,0.0426 3.4875,-0.29309 3.4875,0.195 3.4875,-0.37548"
           style="fill:none;stroke:#ff0000;stroke-width:0.76404524;stroke-linecap:square;stroke-linejoin:miter" />
        <path
           id="path2320"
           d="m 75.4875,152.82728 3.4875,3.66385 3.4875,4.8417 3.4875,7.25319 3.4875,4.20384 3.4875,-10.99489 3.4875,14.02401 3.4875,-9.46419 3.4875,3.78259 3.4875,-9.69284 3.4875,-5.99426 3.4875,15.50522 3.4875,6.63615 3.4875,-9.91905 3.4875,-2.81696 3.4875,4.43788 3.4875,-0.38574 3.4875,-5.93864 3.4875,2.01691 3.4875,18.76103 3.4875,-19.33846 3.4875,17.82066 3.4875,-7.42132 3.4875,5.17497 3.4875,-8.72361 3.4875,0.009 3.4875,-4.64309 3.4875,-2.18 3.4875,1.68709 3.4875,10.8792 3.4875,6.34471 3.4875,-2.08804 3.4875,-12.06629 3.4875,5.52347 3.4875,1.37748 3.4875,3.4782 3.4875,4.99498 3.4875,-3.13607 3.4875,-0.96175 3.4875,8.20507 3.4875,-2.81962 3.4875,-3.74083 3.4875,12.23912 3.4875,-7.20112 3.4875,-5.89286 3.4875,10.71073 3.4875,-1.11336 3.4875,2.66337 3.4875,-7.64904 3.4875,12.84111 3.4875,1.74755 3.4875,-5.829 3.4875,3.20583 3.4875,-6.33793 3.4875,11.81052 3.4875,-13.39877 3.4875,7.17929 3.4875,4.38838 3.4875,1.15646 3.4875,0.48916 3.4875,-5.78849 3.4875,-4.32703 3.4875,6.70202 3.4875,4.79003 3.4875,-0.11546 3.4875,7.23106 3.4875,3.11728 3.4875,-1.2447 3.4875,8.32103 3.4875,-3.93223 3.4875,-3.95845 3.4875,10.69929 3.4875,-6.04864 3.4875,2.15704 3.4875,-0.46819 3.4875,-0.43035 3.4875,-0.38116 3.4875,11.96528 3.4875,-0.74312 3.4875,-2.83751 3.4875,9.07528 3.4875,-5.43416 3.4875,5.14037 3.4875,10.26068 3.4875,1.38755 3.4875,8.91154 3.4875,10.01238 3.4875,12.98881 3.4875,7.13532 3.4875,10.88332 3.4875,10.62294 3.4875,6.56556 3.4875,6.74467 3.4875,8.84718 3.4875,12.96455 3.4875,6.07571 3.4875,6.43771 3.4875,5.26676 3.4875,4.00948 3.4875,5.69022 3.4875,3.40131 3.4875,3.38926 3.4875,3.04947 3.4875,1.80101 3.4875,1.50247 3.4875,1.33191 3.4875,0.93603 3.4875,0.62089 3.4875,0.50524 3.4875,0.44696 3.4875,0.27627 3.4875,0.17996 3.4875,0.11787 3.4875,0.0708 3.4875,0.0572 3.4875,0.0406 3.4875,0.036 3.4875,0.0176 3.4875,0.0156 3.4875,0.005 3.4875,0.015 3.4875,0.002 3.4875,-3.5e-4 3.4875,0.018 3.4875,8e-4 3.4875,10e-4 3.4875,0.003"
           style="fill:none;stroke:#008000;stroke-width:0.76404524;stroke-linecap:square;stroke-linejoin:miter" />
        <path
           id="path2322"
           d="m 75.4875,166.94413 3.4875,2.40314 3.4875,6.01547 3.4875,1.48315 3.4875,-10.07216 3.4875,11.30864 3.4875,-3.03364 3.4875,2.75744 3.4875,0.30765 3.4875,-1.95657 3.4875,-4.12774 3.4875,-1.20119 3.4875,-3.4787 3.4875,5.64445 3.4875,-0.24778 3.4875,-2.89782 3.4875,3.07506 3.4875,-8.02707 3.4875,6.14452 3.4875,-1.63512 3.4875,13.58195 3.4875,0.006 3.4875,-2.53752 3.4875,2.13716 3.4875,2.55976 3.4875,-0.89354 3.4875,-7.06378 3.4875,14.65297 3.4875,-11.00042 3.4875,-0.42839 3.4875,5.50267 3.4875,-3.61958 3.4875,7.94802 3.4875,-4.8687 3.4875,4.30958 3.4875,6.78695 3.4875,-11.61837 3.4875,6.42843 3.4875,2.23848 3.4875,-0.78374 3.4875,1.47837 3.4875,-2.49562 3.4875,-0.83797 3.4875,1.59481 3.4875,-2.99363 3.4875,8.78182 3.4875,-1.89613 3.4875,-2.34612 3.4875,4.42884 3.4875,7.63163 3.4875,-1.13469 3.4875,-1.82874 3.4875,-2.60638 3.4875,3.00338 3.4875,-4.74488 3.4875,3.90391 3.4875,6.04691 3.4875,-9.15308 3.4875,-3.5621 3.4875,3.07177 3.4875,13.18374 3.4875,0.99252 3.4875,5.09315 3.4875,0.92065 3.4875,-6.78594 3.4875,8.49943 3.4875,-2.94361 3.4875,-2.82557 3.4875,5.65668 3.4875,5.70025 3.4875,-7.20381 3.4875,6.57049 3.4875,-1.70063 3.4875,-4.2712 3.4875,5.86115 3.4875,7.19433 3.4875,-2.32522 3.4875,-3.69785 3.4875,6.56582 3.4875,5.38341 3.4875,2.47125 3.4875,0.52395 3.4875,5.51375 3.4875,5.86427 3.4875,9.53327 3.4875,6.50551 3.4875,3.63293 3.4875,17.31836 3.4875,6.12204 3.4875,3.2482 3.4875,8.7821 3.4875,9.54589 3.4875,8.48796 3.4875,7.57544 3.4875,8.71533 3.4875,5.29045 3.4875,7.018 3.4875,6.82476 3.4875,4.11503 3.4875,4.99055 3.4875,3.76905 3.4875,2.97752 3.4875,2.37218 3.4875,2.09297 3.4875,1.39065 3.4875,1.11751 3.4875,1.18192 3.4875,0.62153 3.4875,0.5108 3.4875,0.36371 3.4875,0.24085 3.4875,0.18465 3.4875,0.1398 3.4875,0.0789 3.4875,0.0621 3.4875,0.0378 3.4875,0.0225 3.4875,0.0252 3.4875,0.0157 3.4875,0.0106 3.4875,0.007 3.4875,0.007 3.4875,0.005 3.4875,0.006 3.4875,0.003 3.4875,0.002 3.4875,0.002"
           style="fill:none;stroke:#0000ff;stroke-width:0.76404524;stroke-linecap:square;stroke-linejoin:miter" />
        <text
           id="text2324"
           y="36.287998"
           x="194.075"
           style="font-size:14px;fill:#000000;font-family:Bitstream Vera Sans">Noise Power Spectral Density</text>
        <g
           id="matplotlib.axis1">
          <g
             id="xtick1">
            <text
               id="text2328"
               y="401.79999"
               x="63"
               style="font-size:12px;fill:#000000;font-family:Bitstream Vera Sans">0.0</text>
          </g>
          <g
             id="xtick2">
            <path
               id="path2331"
               d="m 127.8,388.8 0,-345.6"
               style="fill:none;stroke:#000000;stroke-width:0.38202262;stroke-linecap:butt;stroke-linejoin:miter;stroke-dasharray:0.76404521, 2.29213564;stroke-dashoffset:0" />
            <path
               id="path2333"
               d="m 127.8,388.8 0,-4"
               style="fill:none;stroke:#000000;stroke-width:0.38202262;stroke-linecap:butt;stroke-linejoin:miter" />
            <path
               id="path2335"
               d="m 127.8,47.2 0,-4"
               style="fill:none;stroke:#000000;stroke-width:0.38202262;stroke-linecap:butt;stroke-linejoin:miter" />
            <text
               id="text2337"
               y="401.79999"
               x="118.77657"
               style="font-size:12px;fill:#000000;font-family:Bitstream Vera Sans">0.2</text>
          </g>
          <g
             id="xtick3">
            <path
               id="path2340"
               d="m 183.6,388.8 0,-345.6"
               style="fill:none;stroke:#000000;stroke-width:0.38202262;stroke-linecap:butt;stroke-linejoin:miter;stroke-dasharray:0.76404521, 2.29213564;stroke-dashoffset:0" />
            <path
               id="path2342"
               d="m 183.6,388.8 0,-4"
               style="fill:none;stroke:#000000;stroke-width:0.38202262;stroke-linecap:butt;stroke-linejoin:miter" />
            <path
               id="path2344"
               d="m 183.6,47.2 0,-4"
               style="fill:none;stroke:#000000;stroke-width:0.38202262;stroke-linecap:butt;stroke-linejoin:miter" />
            <text
               id="text2346"
               y="401.79999"
               x="174.60001"
               style="font-size:12px;fill:#000000;font-family:Bitstream Vera Sans">0.4</text>
          </g>
          <g
             id="xtick4">
            <path
               id="path2349"
               d="m 239.4,388.8 0,-345.6"
               style="fill:none;stroke:#000000;stroke-width:0.38202262;stroke-linecap:butt;stroke-linejoin:miter;stroke-dasharray:0.76404521, 2.29213564;stroke-dashoffset:0" />
            <path
               id="path2351"
               d="m 239.4,388.8 0,-4"
               style="fill:none;stroke:#000000;stroke-width:0.38202262;stroke-linecap:butt;stroke-linejoin:miter" />
            <path
               id="path2353"
               d="m 239.4,47.2 0,-4"
               style="fill:none;stroke:#000000;stroke-width:0.38202262;stroke-linecap:butt;stroke-linejoin:miter" />
            <text
               id="text2355"
               y="401.79999"
               x="230.39999"
               style="font-size:12px;fill:#000000;font-family:Bitstream Vera Sans">0.6</text>
          </g>
          <g
             id="xtick5">
            <path
               id="path2358"
               d="m 295.2,388.8 0,-345.6"
               style="fill:none;stroke:#000000;stroke-width:0.38202262;stroke-linecap:butt;stroke-linejoin:miter;stroke-dasharray:0.76404521, 2.29213564;stroke-dashoffset:0" />
            <path
               id="path2360"
               d="m 295.2,388.8 0,-4"
               style="fill:none;stroke:#000000;stroke-width:0.38202262;stroke-linecap:butt;stroke-linejoin:miter" />
            <path
               id="path2362"
               d="m 295.2,47.2 0,-4"
               style="fill:none;stroke:#000000;stroke-width:0.38202262;stroke-linecap:butt;stroke-linejoin:miter" />
            <text
               id="text2364"
               y="401.79999"
               x="286.20001"
               style="font-size:12px;fill:#000000;font-family:Bitstream Vera Sans">0.8</text>
          </g>
          <g
             id="xtick6">
            <path
               id="path2367"
               d="M 351,388.8 351,43.2"
               style="fill:none;stroke:#000000;stroke-width:0.38202262;stroke-linecap:butt;stroke-linejoin:miter;stroke-dasharray:0.76404521, 2.29213564;stroke-dashoffset:0" />
            <path
               id="path2369"
               d="m 351,388.8 0,-4"
               style="fill:none;stroke:#000000;stroke-width:0.38202262;stroke-linecap:butt;stroke-linejoin:miter" />
            <path
               id="path2371"
               d="m 351,47.2 0,-4"
               style="fill:none;stroke:#000000;stroke-width:0.38202262;stroke-linecap:butt;stroke-linejoin:miter" />
            <text
               id="text2373"
               y="401.79999"
               x="342"
               style="font-size:12px;fill:#000000;font-family:Bitstream Vera Sans">1.0</text>
          </g>
          <g
             id="xtick7">
            <path
               id="path2376"
               d="m 406.8,388.8 0,-345.6"
               style="fill:none;stroke:#000000;stroke-width:0.38202262;stroke-linecap:butt;stroke-linejoin:miter;stroke-dasharray:0.76404521, 2.29213564;stroke-dashoffset:0" />
            <path
               id="path2378"
               d="m 406.8,388.8 0,-4"
               style="fill:none;stroke:#000000;stroke-width:0.38202262;stroke-linecap:butt;stroke-linejoin:miter" />
            <path
               id="path2380"
               d="m 406.8,47.2 0,-4"
               style="fill:none;stroke:#000000;stroke-width:0.38202262;stroke-linecap:butt;stroke-linejoin:miter" />
            <text
               id="text2382"
               y="401.79999"
               x="397.77655"
               style="font-size:12px;fill:#000000;font-family:Bitstream Vera Sans">1.2</text>
          </g>
          <g
             id="xtick8">
            <path
               id="path2385"
               d="m 462.6,388.8 0,-345.6"
               style="fill:none;stroke:#000000;stroke-width:0.38202262;stroke-linecap:butt;stroke-linejoin:miter;stroke-dasharray:0.76404521, 2.29213564;stroke-dashoffset:0" />
            <path
               id="path2387"
               d="m 462.6,388.8 0,-4"
               style="fill:none;stroke:#000000;stroke-width:0.38202262;stroke-linecap:butt;stroke-linejoin:miter" />
            <path
               id="path2389"
               d="m 462.6,47.2 0,-4"
               style="fill:none;stroke:#000000;stroke-width:0.38202262;stroke-linecap:butt;stroke-linejoin:miter" />
            <text
               id="text2391"
               y="401.79999"
               x="453.60001"
               style="font-size:12px;fill:#000000;font-family:Bitstream Vera Sans">1.4</text>
          </g>
          <g
             id="xtick9">
            <text
               id="text2394"
               y="401.79999"
               x="509.39999"
               style="font-size:12px;fill:#000000;font-family:Bitstream Vera Sans">1.6</text>
          </g>
          <text
             id="text2396"
             y="419.79999"
             x="249.2"
             style="font-size:12px;fill:#000000;font-family:Bitstream Vera Sans">Frequency (Hz)</text>
          <text
             id="text2398"
             y="413.79999"
             x="489.39999"
             style="font-size:12px;fill:#000000;font-family:Bitstream Vera Sans">x1e4</text>
        </g>
        <g
           id="matplotlib.axis2">
          <g
             id="ytick1">
            <text
               id="text2402"
               y="393.29999"
               x="50"
               style="font-size:12px;fill:#000000;font-family:Bitstream Vera Sans">0.0</text>
          </g>
          <g
             id="ytick2">
            <path
               id="path2405"
               d="m 72,339.42857 446.4,0"
               style="fill:none;stroke:#000000;stroke-width:0.38202262;stroke-linecap:butt;stroke-linejoin:miter;stroke-dasharray:0.76404521, 2.29213564;stroke-dashoffset:0" />
            <path
               id="path2407"
               d="m 72,339.42857 4,0"
               style="fill:none;stroke:#000000;stroke-width:0.38202262;stroke-linecap:butt;stroke-linejoin:miter" />
            <path
               id="path2409"
               d="m 514.4,339.42857 4,0"
               style="fill:none;stroke:#000000;stroke-width:0.38202262;stroke-linecap:butt;stroke-linejoin:miter" />
            <text
               id="text2411"
               y="343.92856"
               x="50"
               style="font-size:12px;fill:#000000;font-family:Bitstream Vera Sans">0.5</text>
          </g>
          <g
             id="ytick3">
            <path
               id="path2414"
               d="m 72,290.05714 446.4,0"
               style="fill:none;stroke:#000000;stroke-width:0.38202262;stroke-linecap:butt;stroke-linejoin:miter;stroke-dasharray:0.76404521, 2.29213564;stroke-dashoffset:0" />
            <path
               id="path2416"
               d="m 72,290.05714 4,0"
               style="fill:none;stroke:#000000;stroke-width:0.38202262;stroke-linecap:butt;stroke-linejoin:miter" />
            <path
               id="path2418"
               d="m 514.4,290.05714 4,0"
               style="fill:none;stroke:#000000;stroke-width:0.38202262;stroke-linecap:butt;stroke-linejoin:miter" />
            <text
               id="text2420"
               y="294.55713"
               x="50"
               style="font-size:12px;fill:#000000;font-family:Bitstream Vera Sans">1.0</text>
          </g>
          <g
             id="ytick4">
            <path
               id="path2423"
               d="m 72,240.68571 446.4,0"
               style="fill:none;stroke:#000000;stroke-width:0.38202262;stroke-linecap:butt;stroke-linejoin:miter;stroke-dasharray:0.76404521, 2.29213564;stroke-dashoffset:0" />
            <path
               id="path2425"
               d="m 72,240.68571 4,0"
               style="fill:none;stroke:#000000;stroke-width:0.38202262;stroke-linecap:butt;stroke-linejoin:miter" />
            <path
               id="path2427"
               d="m 514.4,240.68571 4,0"
               style="fill:none;stroke:#000000;stroke-width:0.38202262;stroke-linecap:butt;stroke-linejoin:miter" />
            <text
               id="text2429"
               y="245.18571"
               x="50"
               style="font-size:12px;fill:#000000;font-family:Bitstream Vera Sans">1.5</text>
          </g>
          <g
             id="ytick5">
            <path
               id="path2432"
               d="m 72,191.31429 446.4,0"
               style="fill:none;stroke:#000000;stroke-width:0.38202262;stroke-linecap:butt;stroke-linejoin:miter;stroke-dasharray:0.76404521, 2.29213564;stroke-dashoffset:0" />
            <path
               id="path2434"
               d="m 72,191.31429 4,0"
               style="fill:none;stroke:#000000;stroke-width:0.38202262;stroke-linecap:butt;stroke-linejoin:miter" />
            <path
               id="path2436"
               d="m 514.4,191.31429 4,0"
               style="fill:none;stroke:#000000;stroke-width:0.38202262;stroke-linecap:butt;stroke-linejoin:miter" />
            <text
               id="text2438"
               y="195.81429"
               x="50"
               style="font-size:12px;fill:#000000;font-family:Bitstream Vera Sans">2.0</text>
          </g>
          <g
             id="ytick6">
            <path
               id="path2441"
               d="m 72,141.94286 446.4,0"
               style="fill:none;stroke:#000000;stroke-width:0.38202262;stroke-linecap:butt;stroke-linejoin:miter;stroke-dasharray:0.76404521, 2.29213564;stroke-dashoffset:0" />
            <path
               id="path2443"
               d="m 72,141.94286 4,0"
               style="fill:none;stroke:#000000;stroke-width:0.38202262;stroke-linecap:butt;stroke-linejoin:miter" />
            <path
               id="path2445"
               d="m 514.4,141.94286 4,0"
               style="fill:none;stroke:#000000;stroke-width:0.38202262;stroke-linecap:butt;stroke-linejoin:miter" />
            <text
               id="text2447"
               y="146.44286"
               x="50"
               style="font-size:12px;fill:#000000;font-family:Bitstream Vera Sans">2.5</text>
          </g>
          <g
             id="ytick7">
            <path
               id="path2450"
               d="m 72,92.571429 446.4,0"
               style="fill:none;stroke:#000000;stroke-width:0.38202262;stroke-linecap:butt;stroke-linejoin:miter;stroke-dasharray:0.76404521, 2.29213564;stroke-dashoffset:0" />
            <path
               id="path2452"
               d="m 72,92.571429 4,0"
               style="fill:none;stroke:#000000;stroke-width:0.38202262;stroke-linecap:butt;stroke-linejoin:miter" />
            <path
               id="path2454"
               d="m 514.4,92.571429 4,0"
               style="fill:none;stroke:#000000;stroke-width:0.38202262;stroke-linecap:butt;stroke-linejoin:miter" />
            <text
               id="text2456"
               y="97.071426"
               x="50"
               style="font-size:12px;fill:#000000;font-family:Bitstream Vera Sans">3.0</text>
          </g>
          <g
             id="ytick8">
            <text
               id="text2459"
               y="47.700001"
               x="50"
               style="font-size:12px;fill:#000000;font-family:Bitstream Vera Sans">3.5</text>
          </g>
          <text
             id="text2461"
             transform="matrix(0,-1,1,0,-209.5,299.5)"
             y="254.5"
             x="45"
             style="font-size:12px;fill:#000000;font-family:Bitstream Vera Sans">Noise power</text>
          <text
             id="text2463"
             y="40.200001"
             x="72"
             style="font-size:12px;fill:#000000;font-family:Bitstream Vera Sans">x1e-6</text>
        </g>
        <g
           id="legend1">
          <polygon
             id="polygon2466"
             points="509.472,129.5952 377.1744,129.5952 377.1744,129.5952 377.1744,50.112 509.472,50.112 "
             style="fill:#ffffff;stroke:#000000;stroke-width:0.76404524;stroke-linecap:square;stroke-linejoin:miter" />
          <path
             id="path2468"
             d="m 391.1992,60.2356 7.44,0 7.44,0 7.44,0"
             style="fill:none;stroke:#ff0000;stroke-width:0.76404524;stroke-linecap:butt;stroke-linejoin:miter;stroke-dasharray:4.58427129, 4.58427129;stroke-dashoffset:0" />
          <path
             id="path2470"
             d="m 391.1992,72.0828 7.44,0 7.44,0 7.44,0"
             style="fill:none;stroke:#008000;stroke-width:0.76404524;stroke-linecap:butt;stroke-linejoin:miter;stroke-dasharray:4.58427129, 4.58427129;stroke-dashoffset:0" />
          <path
             id="path2472"
             d="m 391.1992,83.93 7.44,0 7.44,0 7.44,0"
             style="fill:none;stroke:#0000ff;stroke-width:0.76404524;stroke-linecap:butt;stroke-linejoin:miter;stroke-dasharray:4.58427129, 4.58427129;stroke-dashoffset:0" />
          <path
             id="path2474"
             d="m 391.1992,95.7772 7.44,0 7.44,0 7.44,0"
             style="fill:none;stroke:#ff0000;stroke-width:0.76404524;stroke-linecap:square;stroke-linejoin:miter" />
          <path
             id="path2476"
             d="m 391.1992,107.6244 7.44,0 7.44,0 7.44,0"
             style="fill:none;stroke:#008000;stroke-width:0.76404524;stroke-linecap:square;stroke-linejoin:miter" />
          <path
             id="path2478"
             d="m 391.1992,119.4716 7.44,0 7.44,0 7.44,0"
             style="fill:none;stroke:#0000ff;stroke-width:0.76404524;stroke-linecap:square;stroke-linejoin:miter" />
          <text
             id="text2480"
             y="63.7356"
             x="422.4472"
             style="font-size:6.94799995px;fill:#000000;font-family:Bitstream Vera Sans">g = 100 hpf enabled</text>
          <text
             id="text2482"
             y="75.582802"
             x="422.4472"
             style="font-size:6.94799995px;fill:#000000;font-family:Bitstream Vera Sans">g = 1000 hpf enabled</text>
          <text
             id="text2484"
             y="87.43"
             x="422.4472"
             style="font-size:6.94799995px;fill:#000000;font-family:Bitstream Vera Sans">g = 10000 hpf enabled</text>
          <text
             id="text2486"
             y="99.277199"
             x="422.4472"
             style="font-size:6.94799995px;fill:#000000;font-family:Bitstream Vera Sans">g = 100 hpf disabled</text>
          <text
             id="text2488"
             y="111.1244"
             x="422.4472"
             style="font-size:6.94799995px;fill:#000000;font-family:Bitstream Vera Sans">g = 1000 hpf disabled</text>
          <text
             id="text2490"
             y="122.9716"
             x="422.4472"
             style="font-size:6.94799995px;fill:#000000;font-family:Bitstream Vera Sans">g = 10000 hpf disabled</text>
        </g>
      </g>
    </g>
  </g>
</svg>
