%FSLAX24Y24*%
%MOIN*%
G70*
G01*
G75*
G04 Layer_Physical_Order=1*
%ADD10R,0.0591X0.0906*%
%ADD11R,0.0591X0.0512*%
%ADD12R,0.0787X0.0866*%
%ADD13R,0.0315X0.1417*%
%ADD14R,0.0118X0.0630*%
%ADD15R,0.0630X0.0118*%
%ADD16R,0.0846X0.0157*%
%ADD17R,0.0846X0.0157*%
%ADD18R,0.0394X0.0433*%
%ADD19R,0.0433X0.0394*%
%ADD20R,0.0610X0.0157*%
%ADD21R,0.0453X0.0551*%
%ADD22R,0.0512X0.0591*%
%ADD23O,0.0169X0.0480*%
%ADD24R,0.0472X0.0787*%
%ADD25R,0.0169X0.0480*%
%ADD26R,0.0866X0.0236*%
%ADD27R,0.0866X0.0236*%
%ADD28R,0.0236X0.0551*%
%ADD29R,0.0630X0.0709*%
%ADD30R,0.0236X0.0394*%
%ADD31R,0.0807X0.0236*%
%ADD32R,0.0236X0.0807*%
%ADD33R,0.1240X0.1360*%
%ADD34R,0.0866X0.0787*%
%ADD35C,0.0010*%
%ADD36C,0.0160*%
%ADD37C,0.0300*%
%ADD38C,0.0080*%
%ADD39C,0.0100*%
%ADD40C,0.0120*%
%ADD41C,0.0180*%
%ADD42C,0.0200*%
%ADD43R,0.0128X0.0900*%
%ADD44R,0.0128X0.2100*%
%ADD45R,0.2000X0.0200*%
%ADD46R,0.1400X0.0100*%
%ADD47C,0.1100*%
%ADD48C,0.1575*%
%ADD49C,0.0866*%
%ADD50C,0.0591*%
%ADD51R,0.0591X0.0591*%
%ADD52C,0.0591*%
%ADD53R,0.0591X0.0591*%
%ADD54C,0.0600*%
%ADD55C,0.0320*%
D10*
X75400Y33200D02*
D03*
X73400D02*
D03*
X75400Y31389D02*
D03*
X73400D02*
D03*
D11*
X78300Y34274D02*
D03*
Y33526D02*
D03*
X57400Y67574D02*
D03*
Y66826D02*
D03*
X53400Y31126D02*
D03*
Y31874D02*
D03*
Y33674D02*
D03*
Y32926D02*
D03*
X52400Y32726D02*
D03*
Y33474D02*
D03*
X51400Y32726D02*
D03*
Y33474D02*
D03*
X44400Y31874D02*
D03*
Y31126D02*
D03*
X50400Y32126D02*
D03*
Y32874D02*
D03*
X45600Y32926D02*
D03*
Y33674D02*
D03*
X44600Y32926D02*
D03*
Y33674D02*
D03*
X53400Y35026D02*
D03*
Y35774D02*
D03*
Y37574D02*
D03*
Y36826D02*
D03*
X52400Y36626D02*
D03*
Y37374D02*
D03*
X51400Y36626D02*
D03*
Y37374D02*
D03*
X44400Y35774D02*
D03*
Y35026D02*
D03*
X50400Y36026D02*
D03*
Y36774D02*
D03*
X45600Y36826D02*
D03*
Y37574D02*
D03*
X44600Y36826D02*
D03*
Y37574D02*
D03*
X53400Y38926D02*
D03*
Y39674D02*
D03*
Y41474D02*
D03*
Y40726D02*
D03*
X52400Y40526D02*
D03*
Y41274D02*
D03*
X51400Y40526D02*
D03*
Y41274D02*
D03*
X44400Y39674D02*
D03*
Y38926D02*
D03*
X50400Y39926D02*
D03*
Y40674D02*
D03*
X45600Y40726D02*
D03*
Y41474D02*
D03*
X44600Y40726D02*
D03*
Y41474D02*
D03*
X53400Y42826D02*
D03*
Y43574D02*
D03*
Y45374D02*
D03*
Y44626D02*
D03*
X52400Y44426D02*
D03*
Y45174D02*
D03*
X51400Y44426D02*
D03*
Y45174D02*
D03*
X44400Y43574D02*
D03*
Y42826D02*
D03*
X50400Y43826D02*
D03*
Y44574D02*
D03*
X45600Y44626D02*
D03*
Y45374D02*
D03*
X44600Y44626D02*
D03*
Y45374D02*
D03*
X53400Y46726D02*
D03*
Y47474D02*
D03*
Y49274D02*
D03*
Y48526D02*
D03*
X52400Y48326D02*
D03*
Y49074D02*
D03*
X51400Y48326D02*
D03*
Y49074D02*
D03*
X44400Y47474D02*
D03*
Y46726D02*
D03*
X50400Y47726D02*
D03*
Y48474D02*
D03*
X45600Y48526D02*
D03*
Y49274D02*
D03*
X44600Y48526D02*
D03*
Y49274D02*
D03*
X53400Y50626D02*
D03*
Y51374D02*
D03*
Y53174D02*
D03*
Y52426D02*
D03*
X52400Y52226D02*
D03*
Y52974D02*
D03*
X51400Y52226D02*
D03*
Y52974D02*
D03*
X44400Y51374D02*
D03*
Y50626D02*
D03*
X50400Y51626D02*
D03*
Y52374D02*
D03*
X45600Y52426D02*
D03*
Y53174D02*
D03*
X44600Y52426D02*
D03*
Y53174D02*
D03*
X53400Y54526D02*
D03*
Y55274D02*
D03*
Y57074D02*
D03*
Y56326D02*
D03*
X52400Y56126D02*
D03*
Y56874D02*
D03*
X51400Y56126D02*
D03*
Y56874D02*
D03*
X44400Y55274D02*
D03*
Y54526D02*
D03*
X50400Y55526D02*
D03*
Y56274D02*
D03*
X45600Y56326D02*
D03*
Y57074D02*
D03*
X44600Y56326D02*
D03*
Y57074D02*
D03*
X53400Y58426D02*
D03*
Y59174D02*
D03*
Y60974D02*
D03*
Y60226D02*
D03*
X52400Y60026D02*
D03*
Y60774D02*
D03*
X51400Y60026D02*
D03*
Y60774D02*
D03*
X44400Y59174D02*
D03*
Y58426D02*
D03*
X50400Y59426D02*
D03*
Y60174D02*
D03*
X45600Y60226D02*
D03*
Y60974D02*
D03*
X44600Y60226D02*
D03*
Y60974D02*
D03*
X53400Y62326D02*
D03*
Y63074D02*
D03*
Y64874D02*
D03*
Y64126D02*
D03*
X52400Y63926D02*
D03*
Y64674D02*
D03*
X51400Y63926D02*
D03*
Y64674D02*
D03*
X44400Y63074D02*
D03*
Y62326D02*
D03*
X50400Y63326D02*
D03*
Y64074D02*
D03*
X45600Y64126D02*
D03*
Y64874D02*
D03*
X44600Y64126D02*
D03*
Y64874D02*
D03*
X25000Y32126D02*
D03*
Y32874D02*
D03*
Y36026D02*
D03*
Y36774D02*
D03*
Y39926D02*
D03*
Y40674D02*
D03*
Y43826D02*
D03*
Y44574D02*
D03*
Y55526D02*
D03*
Y56274D02*
D03*
Y59426D02*
D03*
Y60174D02*
D03*
Y63326D02*
D03*
Y64074D02*
D03*
Y67226D02*
D03*
Y67974D02*
D03*
X57400Y36374D02*
D03*
Y35626D02*
D03*
Y44174D02*
D03*
Y43426D02*
D03*
Y51974D02*
D03*
Y51226D02*
D03*
X57600Y59974D02*
D03*
Y59226D02*
D03*
X53400Y66226D02*
D03*
Y66974D02*
D03*
Y68774D02*
D03*
Y68026D02*
D03*
X52400Y67826D02*
D03*
Y68574D02*
D03*
X51400Y67826D02*
D03*
Y68574D02*
D03*
X44400Y66974D02*
D03*
Y66226D02*
D03*
X50400Y67226D02*
D03*
Y67974D02*
D03*
X45600Y68026D02*
D03*
Y68774D02*
D03*
X44600Y68026D02*
D03*
Y68774D02*
D03*
X73000Y50574D02*
D03*
Y49826D02*
D03*
Y52374D02*
D03*
Y51626D02*
D03*
X74000Y46226D02*
D03*
Y46974D02*
D03*
Y44226D02*
D03*
Y44974D02*
D03*
Y50974D02*
D03*
Y50226D02*
D03*
Y48974D02*
D03*
Y48226D02*
D03*
D12*
X67991Y34000D02*
D03*
X66809D02*
D03*
X72791Y44400D02*
D03*
X71609D02*
D03*
X59309Y62300D02*
D03*
X60491D02*
D03*
X59309Y54500D02*
D03*
X60491D02*
D03*
X59309Y46700D02*
D03*
X60491D02*
D03*
X59309Y38900D02*
D03*
X60491D02*
D03*
X59309Y31100D02*
D03*
X60491D02*
D03*
X64591Y31800D02*
D03*
X63409D02*
D03*
X62009Y60600D02*
D03*
X63191D02*
D03*
D13*
X69000Y44419D02*
D03*
Y46781D02*
D03*
X25600Y53381D02*
D03*
Y51019D02*
D03*
X67700Y58981D02*
D03*
Y56619D02*
D03*
X25600Y48981D02*
D03*
Y46619D02*
D03*
X71600Y56619D02*
D03*
Y58981D02*
D03*
D14*
X69155Y34627D02*
D03*
X69352D02*
D03*
X69549D02*
D03*
X69746D02*
D03*
X69943D02*
D03*
X70139D02*
D03*
X70336D02*
D03*
X70533D02*
D03*
X70730D02*
D03*
X70927D02*
D03*
X71124D02*
D03*
X71320D02*
D03*
X71517D02*
D03*
X71714D02*
D03*
X71911D02*
D03*
X72108D02*
D03*
X72305D02*
D03*
X72502D02*
D03*
X72698D02*
D03*
X72895D02*
D03*
X73092D02*
D03*
X73289D02*
D03*
X73486D02*
D03*
X73683D02*
D03*
X73880D02*
D03*
X74076D02*
D03*
X74273D02*
D03*
X74470D02*
D03*
X74667D02*
D03*
X74864D02*
D03*
X75061D02*
D03*
X75257D02*
D03*
X75454D02*
D03*
X75651D02*
D03*
X75848D02*
D03*
X76045D02*
D03*
X69155Y42973D02*
D03*
X69352D02*
D03*
X69549D02*
D03*
X69746D02*
D03*
X69943D02*
D03*
X70139D02*
D03*
X70336D02*
D03*
X70533D02*
D03*
X70730D02*
D03*
X70927D02*
D03*
X71124D02*
D03*
X71320D02*
D03*
X71517D02*
D03*
X71714D02*
D03*
X71911D02*
D03*
X72108D02*
D03*
X72305D02*
D03*
X72502D02*
D03*
X72698D02*
D03*
X72895D02*
D03*
X73092D02*
D03*
X73289D02*
D03*
X73486D02*
D03*
X73683D02*
D03*
X73880D02*
D03*
X74076D02*
D03*
X74273D02*
D03*
X74470D02*
D03*
X74667D02*
D03*
X74864D02*
D03*
X75061D02*
D03*
X75257D02*
D03*
X75454D02*
D03*
X75651D02*
D03*
X75848D02*
D03*
X76045D02*
D03*
X60802Y32486D02*
D03*
Y40286D02*
D03*
Y48086D02*
D03*
Y55886D02*
D03*
X61983Y35714D02*
D03*
X61786D02*
D03*
X61589D02*
D03*
X61392D02*
D03*
X61195D02*
D03*
X60998D02*
D03*
X60802D02*
D03*
X60605D02*
D03*
X60408D02*
D03*
X60211D02*
D03*
X60014D02*
D03*
X59817D02*
D03*
X61983Y32486D02*
D03*
X61786D02*
D03*
X61589D02*
D03*
X61392D02*
D03*
X61195D02*
D03*
X60998D02*
D03*
X60605D02*
D03*
X60408D02*
D03*
X60211D02*
D03*
X60014D02*
D03*
X59817D02*
D03*
X61983Y43514D02*
D03*
X61786D02*
D03*
X61589D02*
D03*
X61392D02*
D03*
X61195D02*
D03*
X60998D02*
D03*
X60802D02*
D03*
X60605D02*
D03*
X60408D02*
D03*
X60211D02*
D03*
X60014D02*
D03*
X59817D02*
D03*
X61983Y40286D02*
D03*
X61786D02*
D03*
X61589D02*
D03*
X61392D02*
D03*
X61195D02*
D03*
X60998D02*
D03*
X60605D02*
D03*
X60408D02*
D03*
X60211D02*
D03*
X60014D02*
D03*
X59817D02*
D03*
X61983Y51314D02*
D03*
X61786D02*
D03*
X61589D02*
D03*
X61392D02*
D03*
X61195D02*
D03*
X60998D02*
D03*
X60802D02*
D03*
X60605D02*
D03*
X60408D02*
D03*
X60211D02*
D03*
X60014D02*
D03*
X59817D02*
D03*
X61983Y48086D02*
D03*
X61786D02*
D03*
X61589D02*
D03*
X61392D02*
D03*
X61195D02*
D03*
X60998D02*
D03*
X60605D02*
D03*
X60408D02*
D03*
X60211D02*
D03*
X60014D02*
D03*
X59817D02*
D03*
X61983Y59114D02*
D03*
X61786D02*
D03*
X61589D02*
D03*
X61392D02*
D03*
X61195D02*
D03*
X60998D02*
D03*
X60802D02*
D03*
X60605D02*
D03*
X60408D02*
D03*
X60211D02*
D03*
X60014D02*
D03*
X59817D02*
D03*
X61983Y55886D02*
D03*
X61786D02*
D03*
X61589D02*
D03*
X61392D02*
D03*
X61195D02*
D03*
X60998D02*
D03*
X60605D02*
D03*
X60408D02*
D03*
X60211D02*
D03*
X60014D02*
D03*
X59817D02*
D03*
X61983Y66914D02*
D03*
X61786D02*
D03*
X61589D02*
D03*
X61392D02*
D03*
X61195D02*
D03*
X60998D02*
D03*
X60802D02*
D03*
X60605D02*
D03*
X60408D02*
D03*
X60211D02*
D03*
X60014D02*
D03*
X59817D02*
D03*
X61983Y63686D02*
D03*
X61786D02*
D03*
X61589D02*
D03*
X61392D02*
D03*
X61195D02*
D03*
X60998D02*
D03*
X60802D02*
D03*
X60605D02*
D03*
X60408D02*
D03*
X60211D02*
D03*
X60014D02*
D03*
X59817D02*
D03*
D15*
X76773Y35355D02*
D03*
Y35552D02*
D03*
Y35749D02*
D03*
Y35946D02*
D03*
Y36143D02*
D03*
Y36339D02*
D03*
Y36536D02*
D03*
Y36733D02*
D03*
Y36930D02*
D03*
Y37127D02*
D03*
Y37324D02*
D03*
Y37520D02*
D03*
Y37717D02*
D03*
Y37914D02*
D03*
Y38111D02*
D03*
Y38308D02*
D03*
Y38505D02*
D03*
Y38702D02*
D03*
Y38898D02*
D03*
Y39095D02*
D03*
Y39292D02*
D03*
Y39489D02*
D03*
Y39686D02*
D03*
Y39883D02*
D03*
Y40080D02*
D03*
Y40276D02*
D03*
Y40473D02*
D03*
Y40670D02*
D03*
Y40867D02*
D03*
Y41064D02*
D03*
Y41261D02*
D03*
Y41457D02*
D03*
Y41654D02*
D03*
Y41851D02*
D03*
Y42048D02*
D03*
Y42245D02*
D03*
X68427Y35355D02*
D03*
Y35552D02*
D03*
Y35749D02*
D03*
Y35946D02*
D03*
Y36143D02*
D03*
Y36339D02*
D03*
Y36536D02*
D03*
Y36733D02*
D03*
Y36930D02*
D03*
Y37127D02*
D03*
Y37324D02*
D03*
Y37520D02*
D03*
Y37717D02*
D03*
Y37914D02*
D03*
Y38111D02*
D03*
Y38308D02*
D03*
Y38505D02*
D03*
Y38702D02*
D03*
Y38898D02*
D03*
Y39095D02*
D03*
Y39292D02*
D03*
Y39489D02*
D03*
Y39686D02*
D03*
Y39883D02*
D03*
Y40080D02*
D03*
Y40276D02*
D03*
Y40473D02*
D03*
Y40670D02*
D03*
Y40867D02*
D03*
Y41064D02*
D03*
Y41261D02*
D03*
Y41457D02*
D03*
Y41654D02*
D03*
Y41851D02*
D03*
Y42048D02*
D03*
Y42245D02*
D03*
X62514Y34395D02*
D03*
Y34002D02*
D03*
Y42195D02*
D03*
Y41802D02*
D03*
Y49995D02*
D03*
Y49602D02*
D03*
Y57795D02*
D03*
Y57402D02*
D03*
X59286Y33411D02*
D03*
Y34789D02*
D03*
Y41211D02*
D03*
Y42589D02*
D03*
Y49011D02*
D03*
Y50389D02*
D03*
Y56811D02*
D03*
Y58189D02*
D03*
Y35183D02*
D03*
Y34986D02*
D03*
Y34592D02*
D03*
Y34395D02*
D03*
Y34198D02*
D03*
Y34002D02*
D03*
Y33805D02*
D03*
Y33608D02*
D03*
Y33214D02*
D03*
Y33017D02*
D03*
X62514Y35183D02*
D03*
Y34986D02*
D03*
Y34789D02*
D03*
Y34592D02*
D03*
Y34198D02*
D03*
Y33805D02*
D03*
Y33608D02*
D03*
Y33411D02*
D03*
Y33214D02*
D03*
Y33017D02*
D03*
X59286Y42983D02*
D03*
Y42786D02*
D03*
Y42392D02*
D03*
Y42195D02*
D03*
Y41998D02*
D03*
Y41802D02*
D03*
Y41605D02*
D03*
Y41408D02*
D03*
Y41014D02*
D03*
Y40817D02*
D03*
X62514Y42983D02*
D03*
Y42786D02*
D03*
Y42589D02*
D03*
Y42392D02*
D03*
Y41998D02*
D03*
Y41605D02*
D03*
Y41408D02*
D03*
Y41211D02*
D03*
Y41014D02*
D03*
Y40817D02*
D03*
X59286Y50783D02*
D03*
Y50586D02*
D03*
Y50192D02*
D03*
Y49995D02*
D03*
Y49798D02*
D03*
Y49602D02*
D03*
Y49405D02*
D03*
Y49208D02*
D03*
Y48814D02*
D03*
Y48617D02*
D03*
X62514Y50783D02*
D03*
Y50586D02*
D03*
Y50389D02*
D03*
Y50192D02*
D03*
Y49798D02*
D03*
Y49405D02*
D03*
Y49208D02*
D03*
Y49011D02*
D03*
Y48814D02*
D03*
Y48617D02*
D03*
X59286Y58583D02*
D03*
Y58386D02*
D03*
Y57992D02*
D03*
Y57795D02*
D03*
Y57598D02*
D03*
Y57402D02*
D03*
Y57205D02*
D03*
Y57008D02*
D03*
Y56614D02*
D03*
Y56417D02*
D03*
X62514Y58583D02*
D03*
Y58386D02*
D03*
Y58189D02*
D03*
Y57992D02*
D03*
Y57598D02*
D03*
Y57205D02*
D03*
Y57008D02*
D03*
Y56811D02*
D03*
Y56614D02*
D03*
Y56417D02*
D03*
X59286Y66383D02*
D03*
Y66186D02*
D03*
Y65989D02*
D03*
Y65792D02*
D03*
Y65595D02*
D03*
Y65398D02*
D03*
Y65202D02*
D03*
Y65005D02*
D03*
Y64808D02*
D03*
Y64611D02*
D03*
Y64414D02*
D03*
Y64217D02*
D03*
X62514Y66383D02*
D03*
Y66186D02*
D03*
Y65989D02*
D03*
Y65792D02*
D03*
Y65595D02*
D03*
Y65398D02*
D03*
Y65202D02*
D03*
Y65005D02*
D03*
Y64808D02*
D03*
Y64611D02*
D03*
Y64414D02*
D03*
Y64217D02*
D03*
D16*
X43289Y63204D02*
D03*
Y63460D02*
D03*
Y63716D02*
D03*
Y63972D02*
D03*
Y64228D02*
D03*
Y64484D02*
D03*
Y64740D02*
D03*
Y64996D02*
D03*
X40711Y63204D02*
D03*
Y63460D02*
D03*
Y63716D02*
D03*
Y63972D02*
D03*
Y64228D02*
D03*
Y64484D02*
D03*
Y64740D02*
D03*
Y53040D02*
D03*
Y52784D02*
D03*
Y52528D02*
D03*
Y52272D02*
D03*
Y52016D02*
D03*
Y51760D02*
D03*
Y51504D02*
D03*
X43289Y53296D02*
D03*
Y53040D02*
D03*
Y52784D02*
D03*
Y52528D02*
D03*
Y52272D02*
D03*
Y52016D02*
D03*
Y51760D02*
D03*
Y51504D02*
D03*
X40711Y49140D02*
D03*
Y48884D02*
D03*
Y48628D02*
D03*
Y48372D02*
D03*
Y48116D02*
D03*
Y47860D02*
D03*
Y47604D02*
D03*
X43289Y49396D02*
D03*
Y49140D02*
D03*
Y48884D02*
D03*
Y48628D02*
D03*
Y48372D02*
D03*
Y48116D02*
D03*
Y47860D02*
D03*
Y47604D02*
D03*
X49289Y31804D02*
D03*
Y32060D02*
D03*
Y32316D02*
D03*
Y32572D02*
D03*
Y32828D02*
D03*
Y33084D02*
D03*
Y33340D02*
D03*
Y33596D02*
D03*
X46711Y31804D02*
D03*
Y32060D02*
D03*
Y32316D02*
D03*
Y32572D02*
D03*
Y32828D02*
D03*
Y33084D02*
D03*
Y33340D02*
D03*
X49289Y35704D02*
D03*
Y35960D02*
D03*
Y36216D02*
D03*
Y36472D02*
D03*
Y36728D02*
D03*
Y36984D02*
D03*
Y37240D02*
D03*
Y37496D02*
D03*
X46711Y35704D02*
D03*
Y35960D02*
D03*
Y36216D02*
D03*
Y36472D02*
D03*
Y36728D02*
D03*
Y36984D02*
D03*
Y37240D02*
D03*
X49289Y39604D02*
D03*
Y39860D02*
D03*
Y40116D02*
D03*
Y40372D02*
D03*
Y40628D02*
D03*
Y40884D02*
D03*
Y41140D02*
D03*
Y41396D02*
D03*
X46711Y39604D02*
D03*
Y39860D02*
D03*
Y40116D02*
D03*
Y40372D02*
D03*
Y40628D02*
D03*
Y40884D02*
D03*
Y41140D02*
D03*
X49289Y43504D02*
D03*
Y43760D02*
D03*
Y44016D02*
D03*
Y44272D02*
D03*
Y44528D02*
D03*
Y44784D02*
D03*
Y45040D02*
D03*
Y45296D02*
D03*
X46711Y43504D02*
D03*
Y43760D02*
D03*
Y44016D02*
D03*
Y44272D02*
D03*
Y44528D02*
D03*
Y44784D02*
D03*
Y45040D02*
D03*
X49289Y47404D02*
D03*
Y47660D02*
D03*
Y47916D02*
D03*
Y48172D02*
D03*
Y48428D02*
D03*
Y48684D02*
D03*
Y48940D02*
D03*
Y49196D02*
D03*
X46711Y47404D02*
D03*
Y47660D02*
D03*
Y47916D02*
D03*
Y48172D02*
D03*
Y48428D02*
D03*
Y48684D02*
D03*
Y48940D02*
D03*
X49289Y51304D02*
D03*
Y51560D02*
D03*
Y51816D02*
D03*
Y52072D02*
D03*
Y52328D02*
D03*
Y52584D02*
D03*
Y52840D02*
D03*
Y53096D02*
D03*
X46711Y51304D02*
D03*
Y51560D02*
D03*
Y51816D02*
D03*
Y52072D02*
D03*
Y52328D02*
D03*
Y52584D02*
D03*
Y52840D02*
D03*
X49289Y55204D02*
D03*
Y55460D02*
D03*
Y55716D02*
D03*
Y55972D02*
D03*
Y56228D02*
D03*
Y56484D02*
D03*
Y56740D02*
D03*
Y56996D02*
D03*
X46711Y55204D02*
D03*
Y55460D02*
D03*
Y55716D02*
D03*
Y55972D02*
D03*
Y56228D02*
D03*
Y56484D02*
D03*
Y56740D02*
D03*
X49289Y59104D02*
D03*
Y59360D02*
D03*
Y59616D02*
D03*
Y59872D02*
D03*
Y60128D02*
D03*
Y60384D02*
D03*
Y60640D02*
D03*
Y60896D02*
D03*
X46711Y59104D02*
D03*
Y59360D02*
D03*
Y59616D02*
D03*
Y59872D02*
D03*
Y60128D02*
D03*
Y60384D02*
D03*
Y60640D02*
D03*
X49289Y63004D02*
D03*
Y63260D02*
D03*
Y63516D02*
D03*
Y63772D02*
D03*
Y64028D02*
D03*
Y64284D02*
D03*
Y64540D02*
D03*
Y64796D02*
D03*
X46711Y63004D02*
D03*
Y63260D02*
D03*
Y63516D02*
D03*
Y63772D02*
D03*
Y64028D02*
D03*
Y64284D02*
D03*
Y64540D02*
D03*
X31089Y48712D02*
D03*
Y52312D02*
D03*
Y47432D02*
D03*
Y47688D02*
D03*
Y47944D02*
D03*
Y48200D02*
D03*
Y48456D02*
D03*
Y48968D02*
D03*
X28511Y47432D02*
D03*
Y47688D02*
D03*
Y47944D02*
D03*
Y48200D02*
D03*
Y48456D02*
D03*
Y48712D02*
D03*
Y48968D02*
D03*
X43289Y32004D02*
D03*
Y32260D02*
D03*
Y32516D02*
D03*
Y32772D02*
D03*
Y33028D02*
D03*
Y33284D02*
D03*
Y33540D02*
D03*
Y33796D02*
D03*
X40711Y32004D02*
D03*
Y32260D02*
D03*
Y32516D02*
D03*
Y32772D02*
D03*
Y33028D02*
D03*
Y33284D02*
D03*
Y33540D02*
D03*
X43289Y35904D02*
D03*
Y36160D02*
D03*
Y36416D02*
D03*
Y36672D02*
D03*
Y36928D02*
D03*
Y37184D02*
D03*
Y37440D02*
D03*
Y37696D02*
D03*
X40711Y35904D02*
D03*
Y36160D02*
D03*
Y36416D02*
D03*
Y36672D02*
D03*
Y36928D02*
D03*
Y37184D02*
D03*
Y37440D02*
D03*
X43289Y39804D02*
D03*
Y40060D02*
D03*
Y40316D02*
D03*
Y40572D02*
D03*
Y40828D02*
D03*
Y41084D02*
D03*
Y41340D02*
D03*
Y41596D02*
D03*
X40711Y39804D02*
D03*
Y40060D02*
D03*
Y40316D02*
D03*
Y40572D02*
D03*
Y40828D02*
D03*
Y41084D02*
D03*
Y41340D02*
D03*
X43289Y43704D02*
D03*
Y43960D02*
D03*
Y44216D02*
D03*
Y44472D02*
D03*
Y44728D02*
D03*
Y44984D02*
D03*
Y45240D02*
D03*
Y45496D02*
D03*
X40711Y43704D02*
D03*
Y43960D02*
D03*
Y44216D02*
D03*
Y44472D02*
D03*
Y44728D02*
D03*
Y44984D02*
D03*
Y45240D02*
D03*
X43289Y55404D02*
D03*
Y55660D02*
D03*
Y55916D02*
D03*
Y56172D02*
D03*
Y56428D02*
D03*
Y56684D02*
D03*
Y56940D02*
D03*
Y57196D02*
D03*
X40711Y55404D02*
D03*
Y55660D02*
D03*
Y55916D02*
D03*
Y56172D02*
D03*
Y56428D02*
D03*
Y56684D02*
D03*
Y56940D02*
D03*
X43289Y59304D02*
D03*
Y59560D02*
D03*
Y59816D02*
D03*
Y60072D02*
D03*
Y60328D02*
D03*
Y60584D02*
D03*
Y60840D02*
D03*
Y61096D02*
D03*
X40711Y59304D02*
D03*
Y59560D02*
D03*
Y59816D02*
D03*
Y60072D02*
D03*
Y60328D02*
D03*
Y60584D02*
D03*
Y60840D02*
D03*
X43289Y67104D02*
D03*
Y67360D02*
D03*
Y67616D02*
D03*
Y67872D02*
D03*
Y68128D02*
D03*
Y68384D02*
D03*
Y68640D02*
D03*
Y68896D02*
D03*
X40711Y67104D02*
D03*
Y67360D02*
D03*
Y67616D02*
D03*
Y67872D02*
D03*
Y68128D02*
D03*
Y68384D02*
D03*
Y68640D02*
D03*
X49289Y66904D02*
D03*
Y67160D02*
D03*
Y67416D02*
D03*
Y67672D02*
D03*
Y67928D02*
D03*
Y68184D02*
D03*
Y68440D02*
D03*
Y68696D02*
D03*
X46711Y66904D02*
D03*
Y67160D02*
D03*
Y67416D02*
D03*
Y67672D02*
D03*
Y67928D02*
D03*
Y68184D02*
D03*
Y68440D02*
D03*
X28511Y51032D02*
D03*
X31089D02*
D03*
X28511Y52056D02*
D03*
Y51800D02*
D03*
X31089Y52056D02*
D03*
Y51800D02*
D03*
Y51544D02*
D03*
X28511D02*
D03*
X31089Y51288D02*
D03*
X28511D02*
D03*
X31089Y52568D02*
D03*
X28511Y52312D02*
D03*
Y52568D02*
D03*
D17*
X40711Y64996D02*
D03*
Y53296D02*
D03*
Y49396D02*
D03*
X46711Y33596D02*
D03*
Y37496D02*
D03*
Y41396D02*
D03*
Y45296D02*
D03*
Y49196D02*
D03*
Y53096D02*
D03*
Y56996D02*
D03*
Y60896D02*
D03*
Y64796D02*
D03*
X40711Y33796D02*
D03*
Y37696D02*
D03*
Y41596D02*
D03*
Y45496D02*
D03*
Y57196D02*
D03*
Y61096D02*
D03*
Y68896D02*
D03*
X46711Y68696D02*
D03*
D18*
X63500Y33465D02*
D03*
Y41265D02*
D03*
Y49065D02*
D03*
Y56865D02*
D03*
X58300Y65635D02*
D03*
Y64965D02*
D03*
Y34435D02*
D03*
Y33765D02*
D03*
X63500Y34135D02*
D03*
X58300Y42235D02*
D03*
Y41565D02*
D03*
X63500Y41935D02*
D03*
X58300Y50035D02*
D03*
Y49365D02*
D03*
X63500Y49735D02*
D03*
X58300Y57835D02*
D03*
Y57165D02*
D03*
X63500Y57535D02*
D03*
X63600Y64665D02*
D03*
Y65335D02*
D03*
X64900Y67565D02*
D03*
Y68235D02*
D03*
X67300Y67565D02*
D03*
Y68235D02*
D03*
X64800Y62265D02*
D03*
Y62935D02*
D03*
X67200Y62265D02*
D03*
Y62935D02*
D03*
D19*
X58665Y36600D02*
D03*
Y44400D02*
D03*
Y52200D02*
D03*
Y60000D02*
D03*
X55065Y33900D02*
D03*
X55735D02*
D03*
X52335Y31700D02*
D03*
X51665D02*
D03*
X55065Y37800D02*
D03*
X55735D02*
D03*
X52335Y35600D02*
D03*
X51665D02*
D03*
X55065Y41700D02*
D03*
X55735D02*
D03*
X52335Y39500D02*
D03*
X51665D02*
D03*
X55065Y45600D02*
D03*
X55735D02*
D03*
X52335Y43400D02*
D03*
X51665D02*
D03*
X55065Y49500D02*
D03*
X55735D02*
D03*
X52335Y47300D02*
D03*
X51665D02*
D03*
X55065Y53400D02*
D03*
X55735D02*
D03*
X52335Y51200D02*
D03*
X51665D02*
D03*
X55065Y57300D02*
D03*
X55735D02*
D03*
X52335Y55100D02*
D03*
X51665D02*
D03*
X55065Y61200D02*
D03*
X55735D02*
D03*
X52335Y59000D02*
D03*
X51665D02*
D03*
X55065Y65100D02*
D03*
X55735D02*
D03*
X52335Y62900D02*
D03*
X51665D02*
D03*
X30135Y31900D02*
D03*
X29465D02*
D03*
X30135Y35800D02*
D03*
X29465D02*
D03*
X30135Y39700D02*
D03*
X29465D02*
D03*
X30135Y43600D02*
D03*
X29465D02*
D03*
X30135Y55300D02*
D03*
X29465D02*
D03*
X30135Y59200D02*
D03*
X29465D02*
D03*
X30135Y63100D02*
D03*
X29465D02*
D03*
X30135Y67000D02*
D03*
X29465D02*
D03*
X58565Y32300D02*
D03*
X59235D02*
D03*
X59335Y36600D02*
D03*
X58565Y40100D02*
D03*
X59235D02*
D03*
X59335Y44400D02*
D03*
X58565Y47900D02*
D03*
X59235D02*
D03*
X59335Y52200D02*
D03*
X58565Y55700D02*
D03*
X59235D02*
D03*
X59335Y60000D02*
D03*
X58565Y63500D02*
D03*
X59235D02*
D03*
X58665Y67800D02*
D03*
X59335D02*
D03*
X55065Y69000D02*
D03*
X55735D02*
D03*
X52335Y66800D02*
D03*
X51665D02*
D03*
D20*
X54383Y33184D02*
D03*
Y32928D02*
D03*
Y32672D02*
D03*
Y32416D02*
D03*
X56017Y33184D02*
D03*
Y32928D02*
D03*
Y32672D02*
D03*
Y32416D02*
D03*
X54383Y37084D02*
D03*
Y36828D02*
D03*
Y36572D02*
D03*
Y36316D02*
D03*
X56017Y37084D02*
D03*
Y36828D02*
D03*
Y36572D02*
D03*
Y36316D02*
D03*
X54383Y40984D02*
D03*
Y40728D02*
D03*
Y40472D02*
D03*
Y40216D02*
D03*
X56017Y40984D02*
D03*
Y40728D02*
D03*
Y40472D02*
D03*
Y40216D02*
D03*
X54383Y44884D02*
D03*
Y44628D02*
D03*
Y44372D02*
D03*
Y44116D02*
D03*
X56017Y44884D02*
D03*
Y44628D02*
D03*
Y44372D02*
D03*
Y44116D02*
D03*
X54383Y48784D02*
D03*
Y48528D02*
D03*
Y48272D02*
D03*
Y48016D02*
D03*
X56017Y48784D02*
D03*
Y48528D02*
D03*
Y48272D02*
D03*
Y48016D02*
D03*
X54383Y52684D02*
D03*
Y52428D02*
D03*
Y52172D02*
D03*
Y51916D02*
D03*
X56017Y52684D02*
D03*
Y52428D02*
D03*
Y52172D02*
D03*
Y51916D02*
D03*
X54383Y56584D02*
D03*
Y56328D02*
D03*
Y56072D02*
D03*
Y55816D02*
D03*
X56017Y56584D02*
D03*
Y56328D02*
D03*
Y56072D02*
D03*
Y55816D02*
D03*
X54383Y60484D02*
D03*
Y60228D02*
D03*
Y59972D02*
D03*
Y59716D02*
D03*
X56017Y60484D02*
D03*
Y60228D02*
D03*
Y59972D02*
D03*
Y59716D02*
D03*
X54383Y64384D02*
D03*
Y64128D02*
D03*
Y63872D02*
D03*
Y63616D02*
D03*
X56017Y64384D02*
D03*
Y64128D02*
D03*
Y63872D02*
D03*
Y63616D02*
D03*
X54383Y68284D02*
D03*
Y68028D02*
D03*
Y67772D02*
D03*
Y67516D02*
D03*
X56017Y68284D02*
D03*
Y68028D02*
D03*
Y67772D02*
D03*
Y67516D02*
D03*
D21*
X54816Y31600D02*
D03*
X55584D02*
D03*
X54816Y35500D02*
D03*
X55584D02*
D03*
X54816Y39400D02*
D03*
X55584D02*
D03*
X54816Y43300D02*
D03*
X55584D02*
D03*
X54816Y47200D02*
D03*
X55584D02*
D03*
X54816Y51100D02*
D03*
X55584D02*
D03*
X54816Y55000D02*
D03*
X55584D02*
D03*
X54816Y58900D02*
D03*
X55584D02*
D03*
X54816Y62800D02*
D03*
X55584D02*
D03*
Y66700D02*
D03*
X54816D02*
D03*
D22*
X46574Y31100D02*
D03*
X45826D02*
D03*
X46574Y35000D02*
D03*
X45826D02*
D03*
X46574Y38900D02*
D03*
X45826D02*
D03*
X46574Y42800D02*
D03*
X45826D02*
D03*
X46574Y46700D02*
D03*
X45826D02*
D03*
X46574Y50600D02*
D03*
X45826D02*
D03*
X46574Y54500D02*
D03*
X45826D02*
D03*
X46574Y58400D02*
D03*
X45826D02*
D03*
X46574Y62300D02*
D03*
X45826D02*
D03*
X30174Y32900D02*
D03*
X29426D02*
D03*
X30174Y36800D02*
D03*
X29426D02*
D03*
X30174Y40700D02*
D03*
X29426D02*
D03*
X30174Y44600D02*
D03*
X29426D02*
D03*
X30174Y56300D02*
D03*
X29426D02*
D03*
X30174Y60200D02*
D03*
X29426D02*
D03*
X30174Y64100D02*
D03*
X29426D02*
D03*
X30174Y68000D02*
D03*
X29426D02*
D03*
X46574Y66200D02*
D03*
X45826D02*
D03*
D23*
X35112Y31900D02*
D03*
Y35800D02*
D03*
Y39700D02*
D03*
Y43600D02*
D03*
Y55300D02*
D03*
Y59200D02*
D03*
Y63100D02*
D03*
Y47500D02*
D03*
Y51400D02*
D03*
X38656Y31900D02*
D03*
X38912D02*
D03*
X39168D02*
D03*
X38400Y32931D02*
D03*
X38656D02*
D03*
X38912D02*
D03*
X39168D02*
D03*
X34856Y31900D02*
D03*
X35368D02*
D03*
X34600Y32931D02*
D03*
X34856D02*
D03*
X35112D02*
D03*
X35368D02*
D03*
X38656Y35800D02*
D03*
X38912D02*
D03*
X39168D02*
D03*
X38400Y36832D02*
D03*
X38656D02*
D03*
X38912D02*
D03*
X39168D02*
D03*
X34856Y35800D02*
D03*
X35368D02*
D03*
X34600Y36832D02*
D03*
X34856D02*
D03*
X35112D02*
D03*
X35368D02*
D03*
X38656Y39700D02*
D03*
X38912D02*
D03*
X39168D02*
D03*
X38400Y40732D02*
D03*
X38656D02*
D03*
X38912D02*
D03*
X39168D02*
D03*
X34856Y39700D02*
D03*
X35368D02*
D03*
X34600Y40732D02*
D03*
X34856D02*
D03*
X35112D02*
D03*
X35368D02*
D03*
X38656Y43600D02*
D03*
X38912D02*
D03*
X39168D02*
D03*
X38400Y44632D02*
D03*
X38656D02*
D03*
X38912D02*
D03*
X39168D02*
D03*
X34856Y43600D02*
D03*
X35368D02*
D03*
X34600Y44632D02*
D03*
X34856D02*
D03*
X35112D02*
D03*
X35368D02*
D03*
X38656Y47500D02*
D03*
X38912D02*
D03*
X39168D02*
D03*
X38400Y48531D02*
D03*
X38656D02*
D03*
X38912D02*
D03*
X39168D02*
D03*
X34856Y47500D02*
D03*
X35368D02*
D03*
X34600Y48531D02*
D03*
X34856D02*
D03*
X35112D02*
D03*
X35368D02*
D03*
X38656Y51400D02*
D03*
X38912D02*
D03*
X39168D02*
D03*
X38400Y52432D02*
D03*
X38656D02*
D03*
X38912D02*
D03*
X39168D02*
D03*
X34856Y51400D02*
D03*
X35368D02*
D03*
X34600Y52432D02*
D03*
X34856D02*
D03*
X35112D02*
D03*
X35368D02*
D03*
X38656Y55300D02*
D03*
X38912D02*
D03*
X39168D02*
D03*
X38400Y56332D02*
D03*
X38656D02*
D03*
X38912D02*
D03*
X39168D02*
D03*
X34856Y55300D02*
D03*
X35368D02*
D03*
X34600Y56332D02*
D03*
X34856D02*
D03*
X35112D02*
D03*
X35368D02*
D03*
X38656Y59200D02*
D03*
X38912D02*
D03*
X39168D02*
D03*
X38400Y60231D02*
D03*
X38656D02*
D03*
X38912D02*
D03*
X39168D02*
D03*
X34856Y59200D02*
D03*
X35368D02*
D03*
X34600Y60231D02*
D03*
X34856D02*
D03*
X35112D02*
D03*
X35368D02*
D03*
X38656Y63100D02*
D03*
X38912D02*
D03*
X39168D02*
D03*
X38400Y64131D02*
D03*
X38656D02*
D03*
X38912D02*
D03*
X39168D02*
D03*
X34856Y63100D02*
D03*
X35368D02*
D03*
X34600Y64131D02*
D03*
X34856D02*
D03*
X35112D02*
D03*
X35368D02*
D03*
X38656Y67000D02*
D03*
X38912D02*
D03*
X39168D02*
D03*
X38400Y68032D02*
D03*
X38656D02*
D03*
X38912D02*
D03*
X39168D02*
D03*
X34856Y67000D02*
D03*
X35112D02*
D03*
X35368D02*
D03*
X34600Y68032D02*
D03*
X34856D02*
D03*
X35112D02*
D03*
X35368D02*
D03*
D24*
X37400Y67049D02*
D03*
Y68151D02*
D03*
Y63149D02*
D03*
Y64251D02*
D03*
Y59249D02*
D03*
Y60351D02*
D03*
Y55349D02*
D03*
Y56451D02*
D03*
Y51449D02*
D03*
Y52551D02*
D03*
Y47549D02*
D03*
Y48651D02*
D03*
Y43649D02*
D03*
Y44751D02*
D03*
Y39749D02*
D03*
Y40851D02*
D03*
Y35849D02*
D03*
Y36951D02*
D03*
Y31949D02*
D03*
Y33051D02*
D03*
X36400Y67049D02*
D03*
Y68151D02*
D03*
Y63149D02*
D03*
Y64251D02*
D03*
Y59249D02*
D03*
Y60351D02*
D03*
Y55349D02*
D03*
Y56451D02*
D03*
Y51449D02*
D03*
Y52551D02*
D03*
Y47549D02*
D03*
Y48651D02*
D03*
Y43649D02*
D03*
Y44751D02*
D03*
Y39749D02*
D03*
Y40851D02*
D03*
Y35849D02*
D03*
Y36951D02*
D03*
Y31949D02*
D03*
Y33051D02*
D03*
D25*
X38400Y31900D02*
D03*
X34600D02*
D03*
X38400Y35800D02*
D03*
X34600D02*
D03*
X38400Y39700D02*
D03*
X34600D02*
D03*
X38400Y43600D02*
D03*
X34600D02*
D03*
X38400Y47500D02*
D03*
X34600D02*
D03*
X38400Y51400D02*
D03*
X34600D02*
D03*
X38400Y55300D02*
D03*
X34600D02*
D03*
X38400Y59200D02*
D03*
X34600D02*
D03*
X38400Y63100D02*
D03*
X34600D02*
D03*
X38400Y67000D02*
D03*
X34600D02*
D03*
D26*
X26176Y32750D02*
D03*
Y32250D02*
D03*
Y31750D02*
D03*
X28224Y33250D02*
D03*
Y32750D02*
D03*
Y32250D02*
D03*
Y31750D02*
D03*
X26176Y36650D02*
D03*
Y36150D02*
D03*
Y35650D02*
D03*
X28224Y37150D02*
D03*
Y36650D02*
D03*
Y36150D02*
D03*
Y35650D02*
D03*
X26176Y40550D02*
D03*
Y40050D02*
D03*
Y39550D02*
D03*
X28224Y41050D02*
D03*
Y40550D02*
D03*
Y40050D02*
D03*
Y39550D02*
D03*
X26176Y44450D02*
D03*
Y43950D02*
D03*
Y43450D02*
D03*
X28224Y44950D02*
D03*
Y44450D02*
D03*
Y43950D02*
D03*
Y43450D02*
D03*
X26176Y56150D02*
D03*
Y55650D02*
D03*
Y55150D02*
D03*
X28224Y56650D02*
D03*
Y56150D02*
D03*
Y55650D02*
D03*
Y55150D02*
D03*
X26176Y60050D02*
D03*
Y59550D02*
D03*
Y59050D02*
D03*
X28224Y60550D02*
D03*
Y60050D02*
D03*
Y59550D02*
D03*
Y59050D02*
D03*
X26176Y63950D02*
D03*
Y63450D02*
D03*
Y62950D02*
D03*
X28224Y64450D02*
D03*
Y63950D02*
D03*
Y63450D02*
D03*
Y62950D02*
D03*
X26176Y67850D02*
D03*
Y67350D02*
D03*
Y66850D02*
D03*
X28224Y68350D02*
D03*
Y67850D02*
D03*
Y67350D02*
D03*
Y66850D02*
D03*
X68824Y31450D02*
D03*
Y31950D02*
D03*
Y32450D02*
D03*
Y32950D02*
D03*
X66776Y31450D02*
D03*
Y31950D02*
D03*
Y32450D02*
D03*
X70924Y53750D02*
D03*
Y54250D02*
D03*
Y54750D02*
D03*
Y55250D02*
D03*
X68876Y53750D02*
D03*
Y54250D02*
D03*
Y54750D02*
D03*
D27*
X26176Y33250D02*
D03*
Y37150D02*
D03*
Y41050D02*
D03*
Y44950D02*
D03*
Y56650D02*
D03*
Y60550D02*
D03*
Y64450D02*
D03*
Y68350D02*
D03*
X66776Y32950D02*
D03*
X68876Y55250D02*
D03*
D28*
X32950Y33461D02*
D03*
X32450D02*
D03*
X31950D02*
D03*
X31450D02*
D03*
X32950Y31139D02*
D03*
X32450D02*
D03*
X31950D02*
D03*
X31450D02*
D03*
X32950Y37361D02*
D03*
X32450D02*
D03*
X31950D02*
D03*
X31450D02*
D03*
X32950Y35039D02*
D03*
X32450D02*
D03*
X31950D02*
D03*
X31450D02*
D03*
X32950Y41261D02*
D03*
X32450D02*
D03*
X31950D02*
D03*
X31450D02*
D03*
X32950Y38939D02*
D03*
X32450D02*
D03*
X31950D02*
D03*
X31450D02*
D03*
X32950Y45161D02*
D03*
X32450D02*
D03*
X31950D02*
D03*
X31450D02*
D03*
X32950Y42839D02*
D03*
X32450D02*
D03*
X31950D02*
D03*
X31450D02*
D03*
X32950Y56861D02*
D03*
X32450D02*
D03*
X31950D02*
D03*
X31450D02*
D03*
X32950Y54539D02*
D03*
X32450D02*
D03*
X31950D02*
D03*
X31450D02*
D03*
X32950Y60761D02*
D03*
X32450D02*
D03*
X31950D02*
D03*
X31450D02*
D03*
X32950Y58439D02*
D03*
X32450D02*
D03*
X31950D02*
D03*
X31450D02*
D03*
X32950Y64661D02*
D03*
X32450D02*
D03*
X31950D02*
D03*
X31450D02*
D03*
X32950Y62339D02*
D03*
X32450D02*
D03*
X31950D02*
D03*
X31450D02*
D03*
X32950Y68561D02*
D03*
X32450D02*
D03*
X31950D02*
D03*
X31450D02*
D03*
X32950Y66239D02*
D03*
X32450D02*
D03*
X31950D02*
D03*
X31450D02*
D03*
D29*
X66049Y64400D02*
D03*
X67151D02*
D03*
X68449D02*
D03*
X69551D02*
D03*
D30*
X65700Y67300D02*
D03*
X66074D02*
D03*
X66448D02*
D03*
X65700Y68402D02*
D03*
X66074D02*
D03*
X66448D02*
D03*
X65600Y62000D02*
D03*
X65974D02*
D03*
X66348D02*
D03*
X65600Y63102D02*
D03*
X65974D02*
D03*
X66348D02*
D03*
D31*
X66753Y51650D02*
D03*
Y52150D02*
D03*
Y52650D02*
D03*
Y53150D02*
D03*
Y53650D02*
D03*
Y54150D02*
D03*
Y54650D02*
D03*
Y55150D02*
D03*
X64647Y51650D02*
D03*
Y52150D02*
D03*
Y52650D02*
D03*
Y53150D02*
D03*
Y53650D02*
D03*
Y54150D02*
D03*
Y54650D02*
D03*
Y55150D02*
D03*
X66753Y45250D02*
D03*
Y45750D02*
D03*
Y46250D02*
D03*
Y46750D02*
D03*
Y47250D02*
D03*
Y47750D02*
D03*
Y48250D02*
D03*
Y48750D02*
D03*
X64647Y45250D02*
D03*
Y45750D02*
D03*
Y46250D02*
D03*
Y46750D02*
D03*
Y47250D02*
D03*
Y47750D02*
D03*
Y48250D02*
D03*
Y48750D02*
D03*
X64547Y39350D02*
D03*
Y38850D02*
D03*
Y38350D02*
D03*
Y37850D02*
D03*
Y37350D02*
D03*
Y36850D02*
D03*
Y36350D02*
D03*
Y35850D02*
D03*
X66653Y39350D02*
D03*
Y38850D02*
D03*
Y38350D02*
D03*
Y37850D02*
D03*
Y37350D02*
D03*
Y36850D02*
D03*
Y36350D02*
D03*
Y35850D02*
D03*
D32*
X71350Y33253D02*
D03*
X70850D02*
D03*
X70350D02*
D03*
X69850D02*
D03*
X71350Y31147D02*
D03*
X70850D02*
D03*
X70350D02*
D03*
X69850D02*
D03*
X71450Y45747D02*
D03*
X71950D02*
D03*
X72450D02*
D03*
X72950D02*
D03*
X71450Y47853D02*
D03*
X71950D02*
D03*
X72450D02*
D03*
X72950D02*
D03*
D33*
X69110Y66800D02*
D03*
X72490D02*
D03*
X68910Y62000D02*
D03*
X72290D02*
D03*
D34*
X72300Y53909D02*
D03*
Y55091D02*
D03*
X62400Y44609D02*
D03*
Y45791D02*
D03*
Y53791D02*
D03*
Y52609D02*
D03*
D35*
X80000Y30000D02*
Y70000D01*
Y30000D02*
Y70000D01*
D36*
X24300Y31600D02*
X25400D01*
X25550Y31750D02*
X26176D01*
X24100Y31800D02*
X24300Y31600D01*
X22211Y33589D02*
X22911D01*
X21500Y34300D02*
X22211Y33589D01*
X22911D02*
X24100Y32400D01*
Y31800D02*
Y32400D01*
X72050Y48550D02*
X72450Y48150D01*
X72500Y45200D02*
X72600Y45100D01*
X73300D01*
X73426Y44974D01*
X66900Y55200D02*
Y55600D01*
X63800Y36100D02*
X64050Y36350D01*
X33700Y32800D02*
Y34100D01*
X30000D02*
X33700D01*
Y32800D02*
X34100Y32400D01*
X33700Y36700D02*
Y38000D01*
X30000D02*
X33700D01*
Y36700D02*
X34100Y36300D01*
X33700Y40600D02*
Y41900D01*
X30000D02*
X33700D01*
Y40600D02*
X34100Y40200D01*
X33700Y44500D02*
Y45800D01*
X30000D02*
X33700D01*
Y44500D02*
X34100Y44100D01*
X33700Y56200D02*
Y57500D01*
X30000D02*
X33700D01*
Y56200D02*
X34100Y55800D01*
X33700Y60100D02*
Y61400D01*
X30000D02*
X33700D01*
Y60100D02*
X34100Y59700D01*
X33700Y64000D02*
Y65300D01*
X30000D02*
X33700D01*
Y64000D02*
X34100Y63600D01*
X25400Y31600D02*
X25550Y31750D01*
X21500Y34300D02*
Y46200D01*
X21150Y46550D02*
X21500Y46200D01*
X25200Y37600D02*
X25650Y37150D01*
X25300Y35300D02*
X25650Y35650D01*
X23600Y35300D02*
X25300D01*
X23000Y35900D02*
X23600Y35300D01*
X23000Y35900D02*
Y46500D01*
X22400Y47100D02*
X23000Y46500D01*
X21400Y47100D02*
X22400D01*
X21000Y47500D02*
X21400Y47100D01*
X25500Y39300D02*
X25750Y39550D01*
X24200Y39300D02*
X25500D01*
X23600Y39900D02*
X24200Y39300D01*
X23600Y39900D02*
Y47600D01*
X23100Y48100D02*
X23600Y47600D01*
X21450Y48100D02*
X23100D01*
X21450Y49100D02*
X23000D01*
X24200Y47900D01*
X24600Y43200D02*
X25400D01*
X24200Y43600D02*
X24600Y43200D01*
X24200Y43600D02*
Y47900D01*
X25400Y43200D02*
X25650Y43450D01*
X56572Y32672D02*
Y33628D01*
X21050Y50550D02*
X21600Y51100D01*
X25500Y60800D02*
X25750Y60550D01*
X25400Y58800D02*
X25650Y59050D01*
X24400Y58800D02*
X25400D01*
X23900Y58300D02*
X24400Y58800D01*
X23900Y53500D02*
Y58300D01*
X22500Y52100D02*
X23900Y53500D01*
X21600Y52100D02*
X22500D01*
X21050Y51550D02*
X21600Y52100D01*
X25320Y64480D02*
X26146D01*
X25400Y62700D02*
X25650Y62950D01*
X24000Y62700D02*
X25400D01*
X23400Y62100D02*
X24000Y62700D01*
X23400Y54200D02*
Y62100D01*
X22300Y53100D02*
X23400Y54200D01*
X21500Y53100D02*
X22300D01*
X21000Y52600D02*
X21500Y53100D01*
X25400Y68600D02*
X25650Y68350D01*
X22700Y66600D02*
X25926D01*
X21500Y65400D02*
X22700Y66600D01*
X21500Y53800D02*
Y65400D01*
X21250Y53550D02*
X21500Y53800D01*
X43726Y30800D02*
X44026Y31100D01*
X51426Y33500D02*
X52300D01*
X50826Y32126D02*
X51400Y32700D01*
X55028Y32928D02*
X55065Y32965D01*
X56300Y33900D02*
X56572Y33628D01*
X53800Y31200D02*
X54400D01*
X53726Y31126D02*
X53800Y31200D01*
X54700Y30900D02*
X55200D01*
X54400Y31200D02*
X54700Y30900D01*
X48700Y32000D02*
X48760Y32060D01*
X48700Y31900D02*
Y32000D01*
Y31900D02*
X48796Y31804D01*
X48100Y32100D02*
X48316Y32316D01*
X48100Y31600D02*
Y32100D01*
X47600Y31100D02*
X48100Y31600D01*
X48516Y32684D02*
X48628Y32572D01*
X49940Y33340D02*
X50074Y33474D01*
X44600Y32900D02*
X45184Y32316D01*
X46160Y33340D02*
X46711D01*
X47404Y33596D02*
X47600Y33400D01*
X47460Y32060D02*
X47600Y32200D01*
X43726Y34700D02*
X44026Y35000D01*
X51426Y37400D02*
X52300D01*
X50826Y36026D02*
X51400Y36600D01*
X56300Y37800D02*
X56572Y37528D01*
X53800Y35100D02*
X54400D01*
X53726Y35026D02*
X53800Y35100D01*
X54400D02*
X54700Y34800D01*
X55028Y36828D02*
X55065Y36865D01*
X46160Y37240D02*
X46711D01*
X44600Y36800D02*
X45184Y36216D01*
X47404Y37496D02*
X47600Y37300D01*
X47460Y35960D02*
X47600Y36100D01*
X49940Y37240D02*
X50074Y37374D01*
X48516Y36584D02*
X48628Y36472D01*
X48100Y36000D02*
X48316Y36216D01*
X48100Y35500D02*
Y36000D01*
X47600Y35000D02*
X48100Y35500D01*
X48700Y35900D02*
X48760Y35960D01*
X48700Y35800D02*
Y35900D01*
Y35800D02*
X48796Y35704D01*
X43726Y38600D02*
X44026Y38900D01*
X51426Y41300D02*
X52300D01*
X50826Y39926D02*
X51400Y40500D01*
X56300Y41700D02*
X56572Y41428D01*
X53800Y39000D02*
X54400D01*
X53726Y38926D02*
X53800Y39000D01*
X54700Y38700D02*
X55200D01*
X54400Y39000D02*
X54700Y38700D01*
X55028Y40728D02*
X55065Y40765D01*
X46160Y41140D02*
X46711D01*
X44600Y40700D02*
X45184Y40116D01*
X47404Y41396D02*
X47600Y41200D01*
X47460Y39860D02*
X47600Y40000D01*
X49940Y41140D02*
X50074Y41274D01*
X48516Y40484D02*
X48628Y40372D01*
X48100Y39900D02*
X48316Y40116D01*
X48100Y39400D02*
Y39900D01*
X47600Y38900D02*
X48100Y39400D01*
X48700Y39800D02*
X48760Y39860D01*
X48700Y39700D02*
Y39800D01*
Y39700D02*
X48796Y39604D01*
X43726Y42500D02*
X44026Y42800D01*
X51426Y45200D02*
X52300D01*
X50826Y43826D02*
X51400Y44400D01*
X56300Y45600D02*
X56572Y45328D01*
Y44372D02*
Y45328D01*
X53800Y42900D02*
X54400D01*
X53726Y42826D02*
X53800Y42900D01*
X54700Y42600D02*
X55200D01*
X54400Y42900D02*
X54700Y42600D01*
X55028Y44628D02*
X55065Y44665D01*
X46160Y45040D02*
X46711D01*
X44600Y44600D02*
X45184Y44016D01*
X47404Y45296D02*
X47600Y45100D01*
X47460Y43760D02*
X47600Y43900D01*
X49940Y45040D02*
X50074Y45174D01*
X48516Y44384D02*
X48628Y44272D01*
X48100Y43800D02*
X48316Y44016D01*
X48100Y43300D02*
Y43800D01*
X47600Y42800D02*
X48100Y43300D01*
X48700Y43700D02*
X48760Y43760D01*
X48700Y43600D02*
Y43700D01*
Y43600D02*
X48796Y43504D01*
X43726Y46400D02*
X44026Y46700D01*
X51426Y49100D02*
X52300D01*
X50826Y47726D02*
X51400Y48300D01*
X44400Y49300D02*
X44574D01*
X56300Y49500D02*
X56572Y49228D01*
X53800Y46800D02*
X54400D01*
X53726Y46726D02*
X53800Y46800D01*
X54700Y46500D02*
X55200D01*
X54400Y46800D02*
X54700Y46500D01*
X55028Y48528D02*
X55065Y48565D01*
X46160Y48940D02*
X46711D01*
X44600Y48500D02*
X45184Y47916D01*
X47404Y49196D02*
X47600Y49000D01*
X47460Y47660D02*
X47600Y47800D01*
X49940Y48940D02*
X50074Y49074D01*
X48516Y48284D02*
X48628Y48172D01*
X48100Y47700D02*
X48316Y47916D01*
X48100Y47200D02*
Y47700D01*
X47600Y46700D02*
X48100Y47200D01*
X48700Y47600D02*
X48760Y47660D01*
X48700Y47500D02*
Y47600D01*
Y47500D02*
X48796Y47404D01*
X43726Y50300D02*
X44026Y50600D01*
X51426Y53000D02*
X52300D01*
X50826Y51626D02*
X51400Y52200D01*
X56300Y53400D02*
X56572Y53128D01*
X53800Y50700D02*
X54400D01*
X53726Y50626D02*
X53800Y50700D01*
X54700Y50400D02*
X55200D01*
X54400Y50700D02*
X54700Y50400D01*
X55028Y52428D02*
X55065Y52465D01*
X46160Y52840D02*
X46711D01*
X44600Y52400D02*
X45184Y51816D01*
X47404Y53096D02*
X47600Y52900D01*
X47460Y51560D02*
X47600Y51700D01*
X49940Y52840D02*
X50074Y52974D01*
X48516Y52184D02*
X48628Y52072D01*
X48100Y51600D02*
X48316Y51816D01*
X48100Y51100D02*
Y51600D01*
X47600Y50600D02*
X48100Y51100D01*
X48700Y51500D02*
X48760Y51560D01*
X48700Y51400D02*
Y51500D01*
Y51400D02*
X48796Y51304D01*
X43726Y54200D02*
X44026Y54500D01*
X51426Y56900D02*
X52300D01*
X50826Y55526D02*
X51400Y56100D01*
X56300Y57300D02*
X56572Y57028D01*
X53800Y54600D02*
X54400D01*
X53726Y54526D02*
X53800Y54600D01*
X54700Y54300D02*
X55200D01*
X54400Y54600D02*
X54700Y54300D01*
X55028Y56328D02*
X55065Y56365D01*
X46160Y56740D02*
X46711D01*
X44600Y56300D02*
X45184Y55716D01*
X47404Y56996D02*
X47600Y56800D01*
X47460Y55460D02*
X47600Y55600D01*
X49940Y56740D02*
X50074Y56874D01*
X48516Y56084D02*
X48628Y55972D01*
X48100Y55500D02*
X48316Y55716D01*
X48100Y55000D02*
Y55500D01*
X47600Y54500D02*
X48100Y55000D01*
X48700Y55400D02*
X48760Y55460D01*
X48700Y55300D02*
Y55400D01*
Y55300D02*
X48796Y55204D01*
X43726Y58100D02*
X44026Y58400D01*
X51426Y60800D02*
X52300D01*
X50826Y59426D02*
X51400Y60000D01*
X56300Y61200D02*
X56572Y60928D01*
Y59972D02*
Y60928D01*
X53800Y58500D02*
X54400D01*
X53726Y58426D02*
X53800Y58500D01*
X54700Y58200D02*
X55200D01*
X54400Y58500D02*
X54700Y58200D01*
X55028Y60228D02*
X55065Y60265D01*
X46160Y60640D02*
X46711D01*
X44600Y60200D02*
X45184Y59616D01*
X47404Y60896D02*
X47600Y60700D01*
X47460Y59360D02*
X47600Y59500D01*
X49940Y60640D02*
X50074Y60774D01*
X48516Y59984D02*
X48628Y59872D01*
X48100Y59400D02*
X48316Y59616D01*
X48100Y58900D02*
Y59400D01*
X47600Y58400D02*
X48100Y58900D01*
X48700Y59300D02*
X48760Y59360D01*
X48700Y59200D02*
Y59300D01*
Y59200D02*
X48796Y59104D01*
X43726Y62000D02*
X44026Y62300D01*
X51426Y64700D02*
X52300D01*
X50826Y63326D02*
X51400Y63900D01*
X56300Y65100D02*
X56572Y64828D01*
X53800Y62400D02*
X54400D01*
X53726Y62326D02*
X53800Y62400D01*
X54700Y62100D02*
X55200D01*
X54400Y62400D02*
X54700Y62100D01*
X55028Y64128D02*
X55065Y64165D01*
X46160Y64540D02*
X46711D01*
X44600Y64100D02*
X45184Y63516D01*
X47404Y64796D02*
X47600Y64600D01*
X47460Y63260D02*
X47600Y63400D01*
X49940Y64540D02*
X50074Y64674D01*
X48516Y63884D02*
X48628Y63772D01*
X48100Y63300D02*
X48316Y63516D01*
X48100Y62800D02*
Y63300D01*
X47600Y62300D02*
X48100Y62800D01*
X48700Y63200D02*
X48760Y63260D01*
X48700Y63100D02*
Y63200D01*
Y63100D02*
X48796Y63004D01*
X56572Y67772D02*
Y68728D01*
X54700Y66000D02*
X55200D01*
X55028Y68028D02*
X55065Y68065D01*
X56300Y69000D02*
X56572Y68728D01*
X54400Y66300D02*
X54700Y66000D01*
X53800Y66300D02*
X54400D01*
X53726Y66226D02*
X53800Y66300D01*
X48516Y67784D02*
X48628Y67672D01*
X50826Y67226D02*
X51400Y67800D01*
X51426Y68600D02*
X52300D01*
X49940Y68440D02*
X50074Y68574D01*
X47404Y68696D02*
X47600Y68500D01*
X47460Y67160D02*
X47600Y67300D01*
X48700Y67000D02*
X48796Y66904D01*
X48700Y67000D02*
Y67100D01*
X48760Y67160D01*
X48100Y67200D02*
X48316Y67416D01*
X48100Y66700D02*
Y67200D01*
X47600Y66200D02*
X48100Y66700D01*
X44600Y68000D02*
X45184Y67416D01*
X44400Y68800D02*
X44574D01*
X30000Y69200D02*
X33700D01*
X32300Y67700D02*
X32450Y67850D01*
X30474Y67700D02*
X32300D01*
X31700Y66900D02*
X31950Y66650D01*
X31200Y66900D02*
X31700D01*
X30700Y66400D02*
X31200Y66900D01*
X29700Y66400D02*
X30700D01*
X29465Y66635D02*
X29700Y66400D01*
X28500Y67350D02*
X29115D01*
X29276Y67850D02*
X29353Y67927D01*
X29426Y68626D02*
X30000Y69200D01*
X29465Y62735D02*
X29700Y62500D01*
X28500Y63450D02*
X29115D01*
X29700Y62500D02*
X30700D01*
X31200Y63000D01*
X31700D01*
X31950Y62750D01*
X30474Y63800D02*
X32300D01*
X32450Y63950D01*
X29276D02*
X29353Y64027D01*
X29426Y64726D02*
X30000Y65300D01*
X29465Y58835D02*
X29700Y58600D01*
X28500Y59550D02*
X29115D01*
X29700Y58600D02*
X30700D01*
X31200Y59100D01*
X31700D01*
X31950Y58850D01*
X30474Y59900D02*
X32300D01*
X32450Y60050D01*
X29276D02*
X29353Y60127D01*
X29426Y60826D02*
X30000Y61400D01*
X29465Y54935D02*
X29700Y54700D01*
X28500Y55650D02*
X29115D01*
X29700Y54700D02*
X30700D01*
X31200Y55200D01*
X31700D01*
X31950Y54950D01*
X30474Y56000D02*
X32300D01*
X32450Y56150D01*
X29276D02*
X29353Y56227D01*
X29426Y56926D02*
X30000Y57500D01*
X29465Y43235D02*
X29700Y43000D01*
X28500Y43950D02*
X29115D01*
X29700Y43000D02*
X30700D01*
X31200Y43500D01*
X31700D01*
X31950Y43250D01*
X30474Y44300D02*
X32300D01*
X32450Y44450D01*
X29276D02*
X29353Y44527D01*
X29426Y45226D02*
X30000Y45800D01*
X29465Y39335D02*
X29700Y39100D01*
X28500Y40050D02*
X29115D01*
X29700Y39100D02*
X30700D01*
X31200Y39600D01*
X31700D01*
X31950Y39350D01*
X30474Y40400D02*
X32300D01*
X32450Y40550D01*
X29276D02*
X29353Y40627D01*
X29426Y41326D02*
X30000Y41900D01*
X29465Y35435D02*
X29700Y35200D01*
X28500Y36150D02*
X29115D01*
X29700Y35200D02*
X30700D01*
X31200Y35700D01*
X31700D01*
X31950Y35450D01*
X30474Y36500D02*
X32300D01*
X32450Y36650D01*
X29276D02*
X29353Y36727D01*
X29426Y37426D02*
X30000Y38000D01*
X29465Y31535D02*
X29700Y31300D01*
X28500Y32250D02*
X29115D01*
X29700Y31300D02*
X30700D01*
X31200Y31800D01*
X31700D01*
X31950Y31550D01*
X30474Y32600D02*
X32300D01*
X32450Y32750D01*
X29276D02*
X29353Y32827D01*
X29426Y33526D02*
X30000Y34100D01*
X71950Y54250D02*
X72200Y54000D01*
X71800Y50900D02*
X72400Y51500D01*
X22300Y51100D02*
X24300Y53100D01*
X21600Y51100D02*
X22300D01*
X24300Y53100D02*
Y53800D01*
X25650Y55150D01*
X55735Y33900D02*
X56300D01*
X56017Y32672D02*
X56572D01*
X53400Y31126D02*
X53726D01*
X55735Y37800D02*
X56300D01*
X56017Y36572D02*
X56572D01*
X53400Y35026D02*
X53726D01*
X55735Y41700D02*
X56300D01*
X56572Y40472D02*
Y41428D01*
X56017Y40472D02*
X56572D01*
X53400Y38926D02*
X53726D01*
X55735Y45600D02*
X56300D01*
X56017Y44372D02*
X56572D01*
X53400Y42826D02*
X53726D01*
X55735Y49500D02*
X56300D01*
X56572Y48272D02*
Y49228D01*
X56017Y48272D02*
X56572D01*
X53400Y46726D02*
X53726D01*
X56017Y52172D02*
X56572D01*
X55735Y53400D02*
X56300D01*
X53400Y50626D02*
X53726D01*
X55735Y57300D02*
X56300D01*
X56572Y56072D02*
Y57028D01*
X56017Y56072D02*
X56572D01*
X53400Y54526D02*
X53726D01*
X55735Y61200D02*
X56300D01*
X56017Y59972D02*
X56572D01*
X53400Y58426D02*
X53726D01*
X55735Y65100D02*
X56300D01*
X56572Y63872D02*
Y64828D01*
X56017Y63872D02*
X56572D01*
X53400Y62326D02*
X53726D01*
X72300Y53909D02*
X73091D01*
X73000Y52374D02*
X73974D01*
X72300Y53300D02*
Y53900D01*
X73000Y52374D02*
Y53000D01*
X72295Y53905D02*
X72300Y53909D01*
X70924Y54250D02*
X71950D01*
X70924Y53750D02*
X72141D01*
X67600Y58900D02*
X68100D01*
X66800Y55700D02*
X66900Y55600D01*
X67419Y48750D02*
X67435Y48735D01*
X66753Y48750D02*
X67419D01*
X66653Y35850D02*
X67100Y35403D01*
Y35300D02*
Y35403D01*
X72141Y53750D02*
X72295Y53905D01*
X25124Y32250D02*
X26176D01*
X25000Y32126D02*
X25124Y32250D01*
Y32750D02*
X26176D01*
X25000Y32874D02*
X25124Y32750D01*
Y36150D02*
X26176D01*
X25000Y36026D02*
X25124Y36150D01*
Y36650D02*
X26176D01*
X25000Y36774D02*
X25124Y36650D01*
Y40050D02*
X26176D01*
X25000Y39926D02*
X25124Y40050D01*
Y40550D02*
X26176D01*
X25000Y40674D02*
X25124Y40550D01*
Y43950D02*
X26176D01*
X25000Y43826D02*
X25124Y43950D01*
Y44450D02*
X26176D01*
X25000Y44574D02*
X25124Y44450D01*
Y55650D02*
X26176D01*
X25000Y55526D02*
X25124Y55650D01*
Y56150D02*
X26176D01*
X25000Y56274D02*
X25124Y56150D01*
Y59550D02*
X26176D01*
X25000Y59426D02*
X25124Y59550D01*
Y60050D02*
X26176D01*
X25000Y60174D02*
X25124Y60050D01*
Y63450D02*
X26176D01*
X25000Y63326D02*
X25124Y63450D01*
Y63950D02*
X26176D01*
X25000Y64074D02*
X25124Y63950D01*
Y67350D02*
X26176D01*
X25000Y67226D02*
X25124Y67350D01*
Y67850D02*
X26176D01*
X25000Y67974D02*
X25124Y67850D01*
X45384Y32316D02*
X45826Y31874D01*
Y31100D02*
Y31874D01*
X44600Y32900D02*
Y32926D01*
X45184Y32316D02*
X46711D01*
X45384Y36216D02*
X45826Y35774D01*
Y35000D02*
Y35774D01*
X44600Y36800D02*
Y36826D01*
X45184Y36216D02*
X46711D01*
X45384Y40116D02*
X45826Y39674D01*
Y38900D02*
Y39674D01*
X44600Y40700D02*
Y40726D01*
X45184Y40116D02*
X46711D01*
X45384Y44016D02*
X45826Y43574D01*
Y42800D02*
Y43574D01*
X44600Y44600D02*
Y44626D01*
X45184Y44016D02*
X46711D01*
X45384Y47916D02*
X45826Y47474D01*
Y46700D02*
Y47474D01*
X44600Y48500D02*
Y48526D01*
X45184Y47916D02*
X46711D01*
X45384Y51816D02*
X45826Y51374D01*
Y50600D02*
Y51374D01*
X44600Y52400D02*
Y52426D01*
X45184Y51816D02*
X46711D01*
X45384Y55716D02*
X45826Y55274D01*
Y54500D02*
Y55274D01*
X44600Y56300D02*
Y56326D01*
X45184Y55716D02*
X46711D01*
X45384Y59616D02*
X45826Y59174D01*
Y58400D02*
Y59174D01*
X44600Y60200D02*
Y60226D01*
X45184Y59616D02*
X46711D01*
X45384Y63516D02*
X45826Y63074D01*
Y62300D02*
Y63074D01*
X44600Y64100D02*
Y64126D01*
X45184Y63516D02*
X46711D01*
X45384Y67416D02*
X45826Y66974D01*
Y66200D02*
Y66974D01*
X44600Y68000D02*
Y68026D01*
X45184Y67416D02*
X46711D01*
X50354Y32828D02*
X50400Y32874D01*
X49289Y32828D02*
X50354D01*
Y36728D02*
X50400Y36774D01*
X49289Y36728D02*
X50354D01*
Y40628D02*
X50400Y40674D01*
X49289Y40628D02*
X50354D01*
Y44528D02*
X50400Y44574D01*
X49289Y44528D02*
X50354D01*
Y48428D02*
X50400Y48474D01*
X49289Y48428D02*
X50354D01*
Y52328D02*
X50400Y52374D01*
X49289Y52328D02*
X50354D01*
Y56228D02*
X50400Y56274D01*
X49289Y56228D02*
X50354D01*
Y60128D02*
X50400Y60174D01*
X49289Y60128D02*
X50354D01*
Y64028D02*
X50400Y64074D01*
X49289Y64028D02*
X50354D01*
Y67928D02*
X50400Y67974D01*
X49289Y67928D02*
X50354D01*
X45698Y32828D02*
X46711D01*
X45600Y32926D02*
X45698Y32828D01*
Y36728D02*
X46711D01*
X45600Y36826D02*
X45698Y36728D01*
Y40628D02*
X46711D01*
X45600Y40726D02*
X45698Y40628D01*
Y44528D02*
X46711D01*
X45600Y44626D02*
X45698Y44528D01*
Y48428D02*
X46711D01*
X45600Y48526D02*
X45698Y48428D01*
Y52328D02*
X46711D01*
X45600Y52426D02*
X45698Y52328D01*
Y56228D02*
X46711D01*
X45600Y56326D02*
X45698Y56228D01*
Y60128D02*
X46711D01*
X45600Y60226D02*
X45698Y60128D01*
Y64028D02*
X46711D01*
X45600Y64126D02*
X45698Y64028D01*
Y67928D02*
X46711D01*
X45600Y68026D02*
X45698Y67928D01*
X51400Y32700D02*
Y32726D01*
X50400Y32126D02*
X50826D01*
X50210Y32316D02*
X50400Y32126D01*
X48316Y32316D02*
X50210D01*
X46574Y31100D02*
X47600D01*
X51400Y36600D02*
Y36626D01*
X50400Y36026D02*
X50826D01*
X50210Y36216D02*
X50400Y36026D01*
X48316Y36216D02*
X50210D01*
X46574Y35000D02*
X47600D01*
X51400Y40500D02*
Y40526D01*
X50400Y39926D02*
X50826D01*
X50210Y40116D02*
X50400Y39926D01*
X48316Y40116D02*
X50210D01*
X46574Y38900D02*
X47600D01*
X51400Y44400D02*
Y44426D01*
X50400Y43826D02*
X50826D01*
X50210Y44016D02*
X50400Y43826D01*
X48316Y44016D02*
X50210D01*
X46574Y42800D02*
X47600D01*
X51400Y48300D02*
Y48326D01*
X50400Y47726D02*
X50826D01*
X50210Y47916D02*
X50400Y47726D01*
X48316Y47916D02*
X50210D01*
X46574Y46700D02*
X47600D01*
X51400Y52200D02*
Y52226D01*
X50400Y51626D02*
X50826D01*
X50210Y51816D02*
X50400Y51626D01*
X48316Y51816D02*
X50210D01*
X46574Y50600D02*
X47600D01*
X51400Y56100D02*
Y56126D01*
X50400Y55526D02*
X50826D01*
X50210Y55716D02*
X50400Y55526D01*
X48316Y55716D02*
X50210D01*
X46574Y54500D02*
X47600D01*
X51400Y60000D02*
Y60026D01*
X50400Y59426D02*
X50826D01*
X50210Y59616D02*
X50400Y59426D01*
X48316Y59616D02*
X50210D01*
X46574Y58400D02*
X47600D01*
X51400Y63900D02*
Y63926D01*
X50400Y63326D02*
X50826D01*
X50210Y63516D02*
X50400Y63326D01*
X48316Y63516D02*
X50210D01*
X46574Y62300D02*
X47600D01*
X51400Y67800D02*
Y67826D01*
X50400Y67226D02*
X50826D01*
X50210Y67416D02*
X50400Y67226D01*
X48316Y67416D02*
X50210D01*
X46574Y66200D02*
X47600D01*
X44700Y33700D02*
X45800D01*
X45600Y33674D02*
X45826D01*
X45800Y33700D02*
X46160Y33340D01*
X44700Y37600D02*
X45800D01*
X45600Y37574D02*
X45826D01*
X45800Y37600D02*
X46160Y37240D01*
X44700Y41500D02*
X45800D01*
X45600Y41474D02*
X45826D01*
X45800Y41500D02*
X46160Y41140D01*
X44700Y45400D02*
X45800D01*
X45600Y45374D02*
X45826D01*
X45800Y45400D02*
X46160Y45040D01*
X44700Y49300D02*
X45800D01*
X45600Y49274D02*
X45826D01*
X45800Y49300D02*
X46160Y48940D01*
X44700Y53200D02*
X45800D01*
X45600Y53174D02*
X45826D01*
X45800Y53200D02*
X46160Y52840D01*
X44700Y57100D02*
X45800D01*
X45600Y57074D02*
X45826D01*
X45800Y57100D02*
X46160Y56740D01*
X44700Y61000D02*
X45800D01*
X45600Y60974D02*
X45826D01*
X45800Y61000D02*
X46160Y60640D01*
X44700Y64900D02*
X45800D01*
X45600Y64874D02*
X45826D01*
X45800Y64900D02*
X46160Y64540D01*
X44700Y68800D02*
X45800D01*
X45600Y68774D02*
X45826D01*
X46160Y68440D02*
X46711D01*
X45800Y68800D02*
X46160Y68440D01*
X51400Y33474D02*
X51426Y33500D01*
X50074Y33474D02*
X51400D01*
X49289Y33340D02*
X49940D01*
X51400Y37374D02*
X51426Y37400D01*
X50074Y37374D02*
X51400D01*
X49289Y37240D02*
X49940D01*
X51400Y41274D02*
X51426Y41300D01*
X50074Y41274D02*
X51400D01*
X49289Y41140D02*
X49940D01*
X51400Y45174D02*
X51426Y45200D01*
X50074Y45174D02*
X51400D01*
X49289Y45040D02*
X49940D01*
X51400Y49074D02*
X51426Y49100D01*
X50074Y49074D02*
X51400D01*
X49289Y48940D02*
X49940D01*
X51400Y52974D02*
X51426Y53000D01*
X50074Y52974D02*
X51400D01*
X49289Y52840D02*
X49940D01*
X51400Y56874D02*
X51426Y56900D01*
X50074Y56874D02*
X51400D01*
X49289Y56740D02*
X49940D01*
X51400Y60774D02*
X51426Y60800D01*
X50074Y60774D02*
X51400D01*
X49289Y60640D02*
X49940D01*
X51400Y64674D02*
X51426Y64700D01*
X50074Y64674D02*
X51400D01*
X49289Y64540D02*
X49940D01*
X51400Y68574D02*
X51426Y68600D01*
X50074Y68574D02*
X51400D01*
X49289Y68440D02*
X49940D01*
X73926Y50226D02*
X74000D01*
X74326Y51300D02*
X75800D01*
X74000Y50974D02*
X74326Y51300D01*
X75800Y46300D02*
X75900D01*
X74474Y44974D02*
X75800Y46300D01*
X73426Y44974D02*
X74474D01*
X72500Y45200D02*
Y45800D01*
X74326Y47300D02*
X75800D01*
X74000Y46974D02*
X74326Y47300D01*
X73000Y51500D02*
Y51626D01*
X72400Y51500D02*
X73000D01*
X71800Y49500D02*
Y50900D01*
X71700Y49500D02*
X71800D01*
X32450Y32750D02*
Y33461D01*
X30174Y32900D02*
X30474Y32600D01*
X30135Y31900D02*
Y32861D01*
X31950Y31139D02*
Y31550D01*
X29115Y32250D02*
X29465Y31900D01*
Y31535D02*
Y31900D01*
X32450Y36650D02*
Y37361D01*
X30174Y36800D02*
X30474Y36500D01*
X30135Y35800D02*
Y36761D01*
X31950Y35039D02*
Y35450D01*
X29115Y36150D02*
X29465Y35800D01*
Y35435D02*
Y35800D01*
X32450Y40550D02*
Y41261D01*
X30174Y40700D02*
X30474Y40400D01*
X30135Y39700D02*
Y40661D01*
X31950Y38939D02*
Y39350D01*
X29115Y40050D02*
X29465Y39700D01*
Y39335D02*
Y39700D01*
X32450Y44450D02*
Y45161D01*
X30174Y44600D02*
X30474Y44300D01*
X30135Y43600D02*
Y44561D01*
X31950Y42839D02*
Y43250D01*
X29115Y43950D02*
X29465Y43600D01*
Y43235D02*
Y43600D01*
X32450Y56150D02*
Y56861D01*
X30174Y56300D02*
X30474Y56000D01*
X30135Y55300D02*
Y56261D01*
X31950Y54539D02*
Y54950D01*
X29115Y55650D02*
X29465Y55300D01*
Y54935D02*
Y55300D01*
X32450Y60050D02*
Y60761D01*
X30174Y60200D02*
X30474Y59900D01*
X30135Y59200D02*
Y60161D01*
X31950Y58439D02*
Y58850D01*
X29115Y59550D02*
X29465Y59200D01*
Y58835D02*
Y59200D01*
X32450Y63950D02*
Y64661D01*
X30174Y64100D02*
X30474Y63800D01*
X30135Y63100D02*
Y64061D01*
X31950Y62339D02*
Y62750D01*
X29115Y63450D02*
X29465Y63100D01*
Y62735D02*
Y63100D01*
X32450Y67850D02*
Y68561D01*
X30174Y68000D02*
X30474Y67700D01*
X30135Y67000D02*
Y67961D01*
X31950Y66239D02*
Y66650D01*
X29115Y67350D02*
X29465Y67000D01*
Y66635D02*
Y67000D01*
X52600Y32926D02*
X53400D01*
Y31874D02*
Y32926D01*
X52335Y32661D02*
X52600Y32926D01*
X52335Y31700D02*
Y32661D01*
X52600Y36826D02*
X53400D01*
Y35774D02*
Y36826D01*
X52335Y36561D02*
X52600Y36826D01*
X52335Y35600D02*
Y36561D01*
X52600Y40726D02*
X53400D01*
Y39674D02*
Y40726D01*
X52335Y40461D02*
X52600Y40726D01*
X52335Y39500D02*
Y40461D01*
X52600Y44626D02*
X53400D01*
Y43574D02*
Y44626D01*
X52335Y44361D02*
X52600Y44626D01*
X52335Y43400D02*
Y44361D01*
X52600Y48526D02*
X53400D01*
Y47474D02*
Y48526D01*
X52335Y48261D02*
X52600Y48526D01*
X52335Y47300D02*
Y48261D01*
X52600Y52426D02*
X53400D01*
Y51374D02*
Y52426D01*
X52335Y52161D02*
X52600Y52426D01*
X52335Y51200D02*
Y52161D01*
X52600Y56326D02*
X53400D01*
Y55274D02*
Y56326D01*
X52335Y56061D02*
X52600Y56326D01*
X52335Y55100D02*
Y56061D01*
X52600Y60226D02*
X53400D01*
Y59174D02*
Y60226D01*
X52335Y59961D02*
X52600Y60226D01*
X52335Y59000D02*
Y59961D01*
X52600Y64126D02*
X53400D01*
Y63074D02*
Y64126D01*
X52335Y63861D02*
X52600Y64126D01*
X52335Y62900D02*
Y63861D01*
X52600Y68026D02*
X53400D01*
Y66974D02*
Y68026D01*
X52335Y67761D02*
X52600Y68026D01*
X52335Y66800D02*
Y67761D01*
X55065Y32965D02*
Y33900D01*
X54383Y32928D02*
X55028D01*
X53626Y33900D02*
X55065D01*
X53400Y33674D02*
X53626Y33900D01*
X55065Y36865D02*
Y37800D01*
X54383Y36828D02*
X55028D01*
X53626Y37800D02*
X55065D01*
X53400Y37574D02*
X53626Y37800D01*
X55065Y40765D02*
Y41700D01*
X54383Y40728D02*
X55028D01*
X53626Y41700D02*
X55065D01*
X53400Y41474D02*
X53626Y41700D01*
X55065Y44665D02*
Y45600D01*
X54383Y44628D02*
X55028D01*
X53626Y45600D02*
X55065D01*
X53400Y45374D02*
X53626Y45600D01*
X55065Y48565D02*
Y49500D01*
X54383Y48528D02*
X55028D01*
X53626Y49500D02*
X55065D01*
X53400Y49274D02*
X53626Y49500D01*
X55065Y52465D02*
Y53400D01*
X54383Y52428D02*
X55028D01*
X53626Y53400D02*
X55065D01*
X53400Y53174D02*
X53626Y53400D01*
X55065Y56365D02*
Y57300D01*
X54383Y56328D02*
X55028D01*
X53626Y57300D02*
X55065D01*
X53400Y57074D02*
X53626Y57300D01*
X55065Y60265D02*
Y61200D01*
X54383Y60228D02*
X55028D01*
X53626Y61200D02*
X55065D01*
X53400Y60974D02*
X53626Y61200D01*
X55065Y64165D02*
Y65100D01*
X54383Y64128D02*
X55028D01*
X53626Y65100D02*
X55065D01*
X53400Y64874D02*
X53626Y65100D01*
X55065Y68065D02*
Y69000D01*
X54383Y68028D02*
X55028D01*
X53626Y69000D02*
X55065D01*
X53400Y68774D02*
X53626Y69000D01*
X29426Y32900D02*
Y33526D01*
X28224Y32750D02*
X29276D01*
X29426Y36800D02*
Y37426D01*
X28224Y36650D02*
X29276D01*
X29426Y40700D02*
Y41326D01*
X28224Y40550D02*
X29276D01*
X29426Y44600D02*
Y45226D01*
X28224Y44450D02*
X29276D01*
X29426Y56300D02*
Y56926D01*
X28224Y56150D02*
X29276D01*
X29426Y60200D02*
Y60826D01*
X28224Y60050D02*
X29276D01*
X29426Y64100D02*
Y64726D01*
X28224Y63950D02*
X29276D01*
X29426Y68000D02*
Y68626D01*
X28224Y67850D02*
X29276D01*
X21000Y46550D02*
X21150D01*
X25650Y35650D02*
X26176D01*
X21000Y47500D02*
Y47550D01*
X25750Y39550D02*
X26176D01*
X21000Y48550D02*
X21450Y48100D01*
X25650Y43450D02*
X26176D01*
X21000Y49550D02*
X21450Y49100D01*
X25650Y55150D02*
X26176D01*
X21000Y50550D02*
X21050D01*
X25650Y59050D02*
X26176D01*
X21000Y51550D02*
X21050D01*
X25650Y62950D02*
X26176D01*
X21000Y52550D02*
Y52600D01*
X25926Y66600D02*
X26176Y66850D01*
X21000Y53550D02*
X21250D01*
X25550Y33250D02*
X26176D01*
X25200Y33600D02*
X25550Y33250D01*
X23800Y37600D02*
X25200D01*
X25650Y37150D02*
X26176D01*
X25800Y41000D02*
X26300D01*
X25300Y41500D02*
X25800Y41000D01*
X25750Y44950D02*
X26176D01*
X25400Y45300D02*
X25750Y44950D01*
X25550Y56650D02*
X26176D01*
X25300Y56900D02*
X25550Y56650D01*
X24900Y60800D02*
X25500D01*
X25750Y60550D02*
X26176D01*
X25200Y64600D02*
X25320Y64480D01*
X24600Y68600D02*
X25400D01*
X25650Y68350D02*
X26176D01*
X72950Y45747D02*
X73353D01*
X72300Y55091D02*
Y55800D01*
X71950Y48550D02*
X72050D01*
X71950Y47853D02*
Y48550D01*
X71609Y55091D02*
X72300D01*
X72450Y47853D02*
Y48150D01*
X71609Y43709D02*
Y44400D01*
X70924Y55250D02*
Y55576D01*
X69950Y55250D02*
X70924D01*
X68876D02*
Y55576D01*
X68250Y55250D02*
X68876D01*
X68250Y54750D02*
X68876D01*
X67700Y56619D02*
X68181D01*
X68000Y55000D02*
X68250Y55250D01*
X68162Y56600D02*
X68181Y56619D01*
X68000Y55000D02*
X68250Y54750D01*
X67350Y54650D02*
X67500Y54500D01*
X66753Y54650D02*
X67350D01*
X66700Y51300D02*
Y51600D01*
X66753Y48250D02*
X67450D01*
X66753Y44847D02*
Y45250D01*
X67250Y36350D02*
X67265Y36335D01*
X66653Y36350D02*
X67250D01*
X66653Y39350D02*
Y39753D01*
X64650Y55150D02*
X65100Y55600D01*
X64647Y55150D02*
X64650D01*
X64750Y48750D02*
X65200Y49200D01*
X64647Y48750D02*
X64750D01*
X64547Y35353D02*
Y35850D01*
Y35353D02*
X64600Y35300D01*
X54383Y67417D02*
X54816Y66984D01*
X54383Y67417D02*
Y67516D01*
X54816Y66700D02*
Y66984D01*
X54383Y63517D02*
X54816Y63084D01*
Y62800D02*
Y63084D01*
X54383Y63517D02*
Y63616D01*
Y59617D02*
Y59716D01*
Y59617D02*
X54816Y59184D01*
Y58900D02*
Y59184D01*
X54383Y55717D02*
Y55816D01*
X54816Y55000D02*
Y55284D01*
X54383Y55717D02*
X54816Y55284D01*
Y51100D02*
Y51384D01*
X54383Y51817D02*
Y51916D01*
Y51817D02*
X54816Y51384D01*
X46796Y66904D02*
X47100Y66600D01*
X46711Y66904D02*
X46796D01*
X46711Y63004D02*
X46796D01*
X47100Y62700D01*
X46796Y59104D02*
X47100Y58800D01*
X46796Y55204D02*
X47100Y54900D01*
X46711Y59104D02*
X46796D01*
X46711Y55204D02*
X46796D01*
Y51304D02*
X47100Y51000D01*
X46711Y51304D02*
X46796D01*
X54383Y47917D02*
X54816Y47484D01*
Y47200D02*
Y47484D01*
X54383Y47917D02*
Y48016D01*
Y44017D02*
Y44116D01*
Y44017D02*
X54816Y43584D01*
Y43300D02*
Y43584D01*
X54383Y40117D02*
Y40216D01*
Y40117D02*
X54816Y39684D01*
Y39400D02*
Y39684D01*
X54383Y36217D02*
X54816Y35784D01*
X54383Y36217D02*
Y36316D01*
X54816Y35500D02*
Y35784D01*
Y31600D02*
Y31884D01*
X54383Y32317D02*
Y32416D01*
Y32317D02*
X54816Y31884D01*
X46796Y47404D02*
X47100Y47100D01*
X46711Y47404D02*
X46796D01*
Y43504D02*
X47100Y43200D01*
X46711Y43504D02*
X46796D01*
Y39604D02*
X47100Y39300D01*
X46796Y35704D02*
X47100Y35400D01*
X46711Y39604D02*
X46796D01*
X46711Y35704D02*
X46796D01*
Y31804D02*
X47100Y31500D01*
X46711Y31804D02*
X46796D01*
X35880Y67049D02*
X36400D01*
X35880Y63149D02*
X36400D01*
X35765Y66935D02*
X35880Y67049D01*
X35765Y63035D02*
X35880Y63149D01*
Y59249D02*
X36400D01*
X31311Y68700D02*
X31450Y68561D01*
X31311Y64800D02*
X31450Y64661D01*
X30839Y68561D02*
X31450D01*
X30839Y64661D02*
X31450D01*
X35765Y59135D02*
X35880Y59249D01*
Y55349D02*
X36400D01*
X35765Y55235D02*
X35880Y55349D01*
Y51449D02*
X36400D01*
X35765Y51335D02*
X35880Y51449D01*
X31311Y60900D02*
X31450Y60761D01*
X28224Y66850D02*
X28600Y66474D01*
Y66400D02*
Y66474D01*
X28224Y62950D02*
X28600Y62574D01*
Y62500D02*
Y62574D01*
X30839Y60761D02*
X31450D01*
X31311Y57000D02*
X31450Y56861D01*
X28600Y58600D02*
Y58674D01*
X30839Y56861D02*
X31450D01*
X28600Y54700D02*
Y54774D01*
X28224Y59050D02*
X28600Y58674D01*
X28224Y55150D02*
X28600Y54774D01*
X25119Y51019D02*
X25919D01*
X35880Y47549D02*
X36400D01*
X35880Y43649D02*
X36400D01*
X35765Y47435D02*
X35880Y47549D01*
X35765Y43535D02*
X35880Y43649D01*
Y39749D02*
X36400D01*
X35765Y39635D02*
X35880Y39749D01*
Y35849D02*
X36400D01*
X35765Y35735D02*
X35880Y35849D01*
Y31949D02*
X36400D01*
X35765Y31835D02*
X35880Y31949D01*
X31311Y45300D02*
X31450Y45161D01*
X30839D02*
X31450D01*
X31311Y41400D02*
X31450Y41261D01*
X30839D02*
X31450D01*
X28224Y43450D02*
X28600Y43074D01*
Y43000D02*
Y43074D01*
X28224Y39550D02*
X28600Y39174D01*
Y39100D02*
Y39174D01*
X31311Y37500D02*
X31450Y37361D01*
X30839D02*
X31450D01*
X31311Y33600D02*
X31450Y33461D01*
X30839D02*
X31450D01*
X28224Y35650D02*
X28600Y35274D01*
Y35200D02*
Y35274D01*
X28224Y31750D02*
X28600Y31374D01*
Y31300D02*
Y31374D01*
X55472Y68028D02*
X56017D01*
X55472Y64128D02*
X56017D01*
X55472Y60228D02*
X56017D01*
X55472Y56328D02*
X56017D01*
X49296Y68696D02*
X49600Y69000D01*
X49289Y68696D02*
X49296D01*
Y64796D02*
X49600Y65100D01*
X49289Y64796D02*
X49296D01*
Y60896D02*
X49600Y61200D01*
X49296Y56996D02*
X49600Y57300D01*
X49289Y60896D02*
X49296D01*
X49289Y56996D02*
X49296D01*
Y53096D02*
X49600Y53400D01*
X49289Y53096D02*
X49296D01*
X55472Y52428D02*
X56017D01*
X55472Y48528D02*
X56017D01*
X55472Y44628D02*
X56017D01*
X55472Y40728D02*
X56017D01*
X55472Y36828D02*
X56017D01*
X55472Y32928D02*
X56017D01*
X49296Y49196D02*
X49600Y49500D01*
X49289Y49196D02*
X49296D01*
Y45296D02*
X49600Y45600D01*
X49296Y41396D02*
X49600Y41700D01*
X49289Y45296D02*
X49296D01*
Y37496D02*
X49600Y37800D01*
X49289Y41396D02*
X49296D01*
X49289Y37496D02*
X49296D01*
Y33596D02*
X49600Y33900D01*
X49289Y33596D02*
X49296D01*
X37849Y68151D02*
X38000Y68000D01*
X37400Y68151D02*
X37849D01*
X37400Y64251D02*
X37849D01*
X38000Y64100D01*
X37849Y60351D02*
X38000Y60200D01*
X37400Y60351D02*
X37849D01*
Y56451D02*
X38000Y56300D01*
X37400Y56451D02*
X37849D01*
Y52551D02*
X38000Y52400D01*
X37400Y52551D02*
X37849D01*
X37400Y48651D02*
X37849D01*
X32450Y66550D02*
X32600Y66700D01*
X32450Y66239D02*
Y66550D01*
Y62650D02*
X32600Y62800D01*
X32450Y62339D02*
Y62650D01*
X28250Y68350D02*
X28600Y68700D01*
X28250Y64450D02*
X28600Y64800D01*
X28224Y68350D02*
X28250D01*
Y60550D02*
X28600Y60900D01*
X28224Y64450D02*
X28250D01*
X32450Y58750D02*
X32600Y58900D01*
X32450Y58439D02*
Y58750D01*
Y54850D02*
X32600Y55000D01*
X32450Y54539D02*
Y54850D01*
X28250Y56650D02*
X28600Y57000D01*
X28224Y60550D02*
X28250D01*
X28224Y56650D02*
X28250D01*
X37849Y48651D02*
X38000Y48500D01*
X37400Y44751D02*
X37849D01*
X38000Y44600D01*
X37849Y40851D02*
X38000Y40700D01*
X37400Y40851D02*
X37849D01*
Y36951D02*
X38000Y36800D01*
X37400Y36951D02*
X37849D01*
Y33051D02*
X38000Y32900D01*
X37400Y33051D02*
X37849D01*
X32450Y43150D02*
X32600Y43300D01*
X28250Y44950D02*
X28600Y45300D01*
X32450Y42839D02*
Y43150D01*
X28250Y41050D02*
X28600Y41400D01*
X25600Y46700D02*
X26100D01*
X25119Y46619D02*
X25600D01*
X28224Y44950D02*
X28250D01*
X28224Y41050D02*
X28250D01*
X32450Y39250D02*
X32600Y39400D01*
X32450Y38939D02*
Y39250D01*
Y35350D02*
X32600Y35500D01*
X32450Y35039D02*
Y35350D01*
Y31450D02*
X32600Y31600D01*
X32450Y31139D02*
Y31450D01*
X28250Y37150D02*
X28600Y37500D01*
X28224Y37150D02*
X28250D01*
Y33250D02*
X28600Y33600D01*
X28224Y33250D02*
X28250D01*
X64647Y51353D02*
X64700Y51300D01*
X64647Y51353D02*
Y51650D01*
X51665Y66365D02*
Y66800D01*
X49289Y66589D02*
Y66904D01*
X48760Y67160D02*
X49289D01*
X48796Y66904D02*
X49289D01*
X48760Y63260D02*
X49289D01*
X48796Y63004D02*
X49289D01*
X51665Y62465D02*
Y62900D01*
Y58565D02*
Y59000D01*
X49289Y62689D02*
Y63004D01*
X48760Y59360D02*
X49289D01*
Y58789D02*
Y59104D01*
X48796D02*
X49289D01*
X48760Y55460D02*
X49289D01*
X48796Y55204D02*
X49289D01*
X51665Y54665D02*
Y55100D01*
X49289Y54889D02*
Y55204D01*
X48760Y51560D02*
X49289D01*
X48796Y51304D02*
X49289D01*
X51665Y50765D02*
Y51200D01*
X49289Y50989D02*
Y51304D01*
X64647Y44853D02*
Y45250D01*
X64250Y39350D02*
X64547D01*
X63800Y38900D02*
X64250Y39350D01*
X64050Y36350D02*
X64547D01*
X63800Y35800D02*
Y36100D01*
X48760Y47660D02*
X49289D01*
X48796Y47404D02*
X49289D01*
Y47089D02*
Y47404D01*
X51665Y46865D02*
Y47300D01*
X49289Y43189D02*
Y43504D01*
X48760Y43760D02*
X49289D01*
X48796Y43504D02*
X49289D01*
X51665Y42965D02*
Y43400D01*
Y39065D02*
Y39500D01*
X49289Y39289D02*
Y39604D01*
X48760Y39860D02*
X49289D01*
X48796Y39604D02*
X49289D01*
X48760Y35960D02*
X49289D01*
Y35389D02*
Y35704D01*
X48796D02*
X49289D01*
X51665Y35165D02*
Y35600D01*
X48760Y32060D02*
X49289D01*
Y31489D02*
Y31804D01*
X51665Y31265D02*
Y31700D01*
X48796Y31804D02*
X49289D01*
X48516Y68184D02*
X49289D01*
X48628Y67672D02*
X49289D01*
X48516Y64284D02*
X49289D01*
X48516Y67784D02*
Y68184D01*
X47600Y67300D02*
Y68500D01*
X47572Y67672D02*
X47600Y67700D01*
X48628Y63772D02*
X49289D01*
X48516Y63884D02*
Y64284D01*
Y60384D02*
X49289D01*
X48516Y59984D02*
Y60384D01*
X47600Y63400D02*
Y64600D01*
X47572Y63772D02*
X47600Y63800D01*
Y59500D02*
Y60700D01*
X47572Y59872D02*
X47600Y59900D01*
X46711Y68696D02*
X47404D01*
X46711Y68184D02*
X47684D01*
X46711Y67672D02*
X47572D01*
X46711Y67160D02*
X47460D01*
X46711Y64796D02*
X47404D01*
X46711Y64284D02*
X47684D01*
X46711Y63772D02*
X47572D01*
X46711Y63260D02*
X47460D01*
X46711Y60896D02*
X47404D01*
X46711Y60384D02*
X47684D01*
X48628Y59872D02*
X49289D01*
X48628Y55972D02*
X49289D01*
X48516Y56484D02*
X49289D01*
X46711Y59872D02*
X47572D01*
X48516Y56084D02*
Y56484D01*
X47600Y55600D02*
Y56800D01*
X47572Y55972D02*
X47600Y56000D01*
X48516Y52584D02*
X49289D01*
X48516Y52184D02*
Y52584D01*
X48628Y52072D02*
X49289D01*
X47600Y51700D02*
Y52900D01*
X47572Y52072D02*
X47600Y52100D01*
X46711Y59360D02*
X47460D01*
X46711Y56996D02*
X47404D01*
X46711Y56484D02*
X47684D01*
X46711Y55972D02*
X47572D01*
X46711Y55460D02*
X47460D01*
X46711Y53096D02*
X47404D01*
X46711Y52584D02*
X47684D01*
X46711Y52072D02*
X47572D01*
X46711Y51560D02*
X47460D01*
X36849Y68151D02*
X36900Y68100D01*
X35849Y68151D02*
X36849D01*
X37400Y66500D02*
Y67049D01*
X35800Y68200D02*
X35849Y68151D01*
Y64251D02*
X36849D01*
X35800Y64300D02*
X35849Y64251D01*
X36849D02*
X36900Y64200D01*
X37400Y62600D02*
Y63149D01*
X35800Y60400D02*
X35849Y60351D01*
X36849D02*
X36900Y60300D01*
X31950Y68050D02*
Y68561D01*
X31935Y68035D02*
X31950Y68050D01*
Y64150D02*
Y64661D01*
X31935Y64135D02*
X31950Y64150D01*
Y60250D02*
Y60761D01*
X37400Y58700D02*
Y59249D01*
X35849Y60351D02*
X36849D01*
Y56451D02*
X36900Y56400D01*
X35849Y56451D02*
X36849D01*
X35800Y56500D02*
X35849Y56451D01*
X37400Y54800D02*
Y55349D01*
Y50900D02*
Y51449D01*
X35849Y52551D02*
X36849D01*
X35800Y52600D02*
X35849Y52551D01*
X36849D02*
X36900Y52500D01*
X31935Y60235D02*
X31950Y60250D01*
Y56350D02*
Y56861D01*
X31935Y56335D02*
X31950Y56350D01*
X25219Y53381D02*
X26019D01*
X48516Y48684D02*
X49289D01*
X48628Y48172D02*
X49289D01*
X48516Y44784D02*
X49289D01*
X48516Y48284D02*
Y48684D01*
X47600Y47800D02*
Y49000D01*
X47572Y48172D02*
X47600Y48200D01*
X48628Y44272D02*
X49289D01*
X48516Y44384D02*
Y44784D01*
Y40884D02*
X49289D01*
X48516Y40484D02*
Y40884D01*
X47600Y43900D02*
Y45100D01*
X47572Y44272D02*
X47600Y44300D01*
Y40000D02*
Y41200D01*
X47572Y40372D02*
X47600Y40400D01*
X46711Y48684D02*
X47684D01*
X46711Y49196D02*
X47404D01*
X46711Y48172D02*
X47572D01*
X46711Y47660D02*
X47460D01*
X46711Y45296D02*
X47404D01*
X46711Y44784D02*
X47684D01*
X46711Y44272D02*
X47572D01*
X46711Y43760D02*
X47460D01*
X46711Y41396D02*
X47404D01*
X46711Y40884D02*
X47684D01*
X48628Y40372D02*
X49289D01*
X48516Y36984D02*
X49289D01*
X48628Y36472D02*
X49289D01*
X48516Y36584D02*
Y36984D01*
X46711Y40372D02*
X47572D01*
Y36472D02*
X47600Y36500D01*
Y36100D02*
Y37300D01*
X48516Y33084D02*
X49289D01*
X48628Y32572D02*
X49289D01*
X47600Y32200D02*
Y33400D01*
X48516Y32684D02*
Y33084D01*
X47572Y32572D02*
X47600Y32600D01*
X46711Y39860D02*
X47460D01*
X46711Y37496D02*
X47404D01*
X46711Y36984D02*
X47684D01*
X46711Y36472D02*
X47572D01*
X46711Y35960D02*
X47460D01*
X46711Y33596D02*
X47404D01*
X46711Y33084D02*
X47684D01*
X46711Y32572D02*
X47572D01*
X46711Y32060D02*
X47460D01*
X36849Y48651D02*
X36900Y48600D01*
X35849Y48651D02*
X36849D01*
X37400Y47000D02*
Y47549D01*
X35800Y48700D02*
X35849Y48651D01*
Y44751D02*
X36849D01*
X35800Y44800D02*
X35849Y44751D01*
X37400Y43100D02*
Y43649D01*
X36849Y44751D02*
X36900Y44700D01*
X36849Y40851D02*
X36900Y40800D01*
X35849Y40851D02*
X36849D01*
X35800Y40900D02*
X35849Y40851D01*
X31950Y44650D02*
Y45161D01*
X25119Y48981D02*
X26019D01*
X31935Y44635D02*
X31950Y44650D01*
Y40750D02*
Y41261D01*
X31935Y40735D02*
X31950Y40750D01*
X37400Y39200D02*
Y39749D01*
Y35300D02*
Y35849D01*
X35849Y36951D02*
X36849D01*
X35800Y37000D02*
X35849Y36951D01*
X36849D02*
X36900Y36900D01*
X36849Y33051D02*
X36900Y33000D01*
X35849Y33051D02*
X36849D01*
X37400Y31400D02*
Y31949D01*
X35800Y33100D02*
X35849Y33051D01*
X31950Y36850D02*
Y37361D01*
X31935Y36835D02*
X31950Y36850D01*
Y32950D02*
Y33461D01*
X31935Y32935D02*
X31950Y32950D01*
X55735Y69000D02*
X56300D01*
X56017Y67772D02*
X56572D01*
X53400Y66226D02*
X53726D01*
X38400Y30800D02*
X43726D01*
X38200Y31900D02*
X38400D01*
X38000Y31700D02*
X38200Y31900D01*
Y34700D02*
X43700D01*
X38000Y35400D02*
X38400Y35800D01*
X38200Y39700D02*
X38400D01*
X38200Y38600D02*
X43726D01*
X38000Y39500D02*
X38200Y39700D01*
X38500Y42500D02*
X43726D01*
X38100Y43300D02*
X38400Y43600D01*
X38200Y47500D02*
X38400D01*
X38300Y46400D02*
X43726D01*
X38000Y47300D02*
X38200Y47500D01*
Y51400D02*
X38400D01*
X38200Y50300D02*
X43726D01*
X38000Y51200D02*
X38200Y51400D01*
Y55300D02*
X38400D01*
X38200Y54200D02*
X43726D01*
X38000Y55100D02*
X38200Y55300D01*
X74000Y46226D02*
X74774D01*
X74000Y47700D02*
Y48226D01*
X71450Y46950D02*
Y47853D01*
X73400Y44400D02*
X73574Y44226D01*
X74000D01*
X71450Y45747D02*
Y46650D01*
X72791Y44400D02*
X73400D01*
X71300Y46800D02*
X71450Y46950D01*
X68876Y54250D02*
X69750D01*
X68876Y53750D02*
X69750D01*
X71300Y46800D02*
X71450Y46650D01*
X74000Y48900D02*
Y48974D01*
X74326Y49300D01*
X75800D01*
X44344Y68744D02*
X44400Y68800D01*
X44574D02*
X44600Y68774D01*
X38000Y66900D02*
X38100Y67000D01*
X38400D01*
Y65900D02*
X43726D01*
X44026Y66200D01*
X44374D01*
X44326Y63074D02*
X44400D01*
X44574Y64900D02*
X44600Y64874D01*
X44100Y60700D02*
X44400Y61000D01*
X44100Y59474D02*
X44400Y59174D01*
X44100Y59474D02*
Y60700D01*
X44326Y59174D02*
X44400D01*
X44574Y61000D02*
X44600Y60974D01*
X44400Y61000D02*
X44574D01*
X44100Y55574D02*
Y56800D01*
Y55574D02*
X44400Y55274D01*
X44100Y56800D02*
X44400Y57100D01*
X44326Y55274D02*
X44400D01*
Y57100D02*
X44574D01*
X44600Y57074D01*
X44117Y51657D02*
Y52917D01*
Y51657D02*
X44400Y51374D01*
X44117Y52917D02*
X44400Y53200D01*
X44326Y51374D02*
X44400D01*
Y53200D02*
X44574D01*
X44600Y53174D01*
X44100Y47774D02*
Y49000D01*
Y47774D02*
X44400Y47474D01*
X44326D02*
X44400D01*
X44574Y49300D02*
X44600Y49274D01*
X44100Y49000D02*
X44400Y49300D01*
X44100Y39974D02*
Y41200D01*
Y39974D02*
X44400Y39674D01*
X44100Y41200D02*
X44400Y41500D01*
X44326Y39674D02*
X44400D01*
Y41500D02*
X44574D01*
X44600Y41474D01*
X44100Y36074D02*
Y37300D01*
Y36074D02*
X44400Y35774D01*
X44100Y37300D02*
X44400Y37600D01*
X44326Y35774D02*
X44400D01*
Y37600D02*
X44574D01*
X44600Y37574D01*
X44100Y32174D02*
Y33400D01*
Y32174D02*
X44400Y31874D01*
X44100Y33400D02*
X44400Y33700D01*
X44326Y31874D02*
X44400D01*
Y33700D02*
X44574D01*
X44600Y33674D01*
X44326Y43574D02*
X44400D01*
X42300Y53000D02*
X42340Y53040D01*
X43289D01*
X64000Y47900D02*
X64350Y48250D01*
X65050D01*
D37*
X73254Y66800D02*
X74000Y66054D01*
X72490Y66800D02*
X73254D01*
X73193Y61900D02*
X74000Y61093D01*
X72300Y61900D02*
X73193D01*
X67151Y64400D02*
X68449D01*
X69110Y66800D02*
Y67890D01*
X69400Y64400D02*
X70400D01*
X68910Y61010D02*
Y63090D01*
X68100Y62000D02*
X69900D01*
X67800Y61700D02*
X68100Y62000D01*
X68900Y61000D02*
X68910Y61010D01*
X61300Y60600D02*
X62140D01*
X63200Y68100D02*
X65400Y65900D01*
X60435Y68100D02*
X63200D01*
X65400Y65000D02*
X66000Y64400D01*
X65400Y65000D02*
Y65900D01*
X59817Y67483D02*
X60435Y68100D01*
X63191Y60600D02*
X63800D01*
X65300Y64100D02*
X65600Y64400D01*
X66049D01*
D38*
X78300Y34274D02*
X78854D01*
X71300Y34000D02*
Y34700D01*
X71350Y33253D02*
Y33950D01*
Y33250D02*
X71900Y32700D01*
Y31100D02*
Y32700D01*
Y31100D02*
X72200Y30800D01*
X71300Y34000D02*
X71350Y33950D01*
X70850Y33750D02*
X71124Y34024D01*
X67350Y46250D02*
X67600Y46000D01*
Y44100D02*
Y46000D01*
X66800Y43300D02*
X67600Y44100D01*
X66800Y41300D02*
Y43300D01*
Y41300D02*
X67233Y40867D01*
X67100Y41400D02*
X67436Y41064D01*
X67100Y41400D02*
Y43100D01*
X68000Y44000D01*
Y46300D01*
X67550Y46750D02*
X68000Y46300D01*
X67350Y47750D02*
X68300Y46800D01*
X67500Y42900D02*
X68300Y43700D01*
Y46800D01*
X67500Y41500D02*
Y42900D01*
Y41500D02*
X67739Y41261D01*
X67050Y38350D02*
X67200Y38500D01*
Y39000D01*
X67689Y39489D01*
X67550Y38950D02*
X67892Y39292D01*
X67550Y38150D02*
Y38950D01*
X67250Y37850D02*
X67550Y38150D01*
X67700Y38800D02*
X67995Y39095D01*
X67700Y37700D02*
Y38800D01*
X67350Y37350D02*
X67700Y37700D01*
X67250Y36850D02*
X67920Y37520D01*
X77198Y38702D02*
X77200Y38700D01*
X72108Y34192D02*
X72300Y34000D01*
X68800Y38111D02*
X69000Y37911D01*
X67900Y42200D02*
X68052Y42048D01*
X76065Y36765D02*
X76230Y36930D01*
X68970D02*
X69000Y36900D01*
X55200Y32600D02*
X55272Y32672D01*
X55200Y30900D02*
Y32600D01*
Y40400D02*
X55272Y40472D01*
X55200Y38700D02*
Y40400D01*
Y44300D02*
X55272Y44372D01*
X55200Y42600D02*
Y44300D01*
Y48200D02*
X55272Y48272D01*
X55200Y46500D02*
Y48200D01*
Y52100D02*
X55272Y52172D01*
X55200Y50400D02*
Y52100D01*
Y56000D02*
X55272Y56072D01*
X55200Y54300D02*
Y56000D01*
Y59900D02*
X55272Y59972D01*
X55200Y58200D02*
Y59900D01*
Y63800D02*
X55272Y63872D01*
X55200Y62100D02*
Y63800D01*
Y66000D02*
Y67700D01*
X55272Y67772D01*
X35440Y53740D02*
X39760D01*
X40204Y53296D01*
X34856Y53156D02*
X35440Y53740D01*
X35502Y53590D02*
X39610D01*
X40160Y53040D01*
X35112Y53200D02*
X35502Y53590D01*
X35600Y53400D02*
X39500D01*
X40116Y52784D01*
X35368Y53168D02*
X35600Y53400D01*
X38800Y53100D02*
X39500D01*
X40072Y52528D01*
X38656Y52956D02*
X38800Y53100D01*
X39900Y52300D02*
X40600D01*
X39000Y52900D02*
X39300D01*
X39900Y52300D01*
X38912Y52812D02*
X39000Y52900D01*
X39469Y52432D02*
X39884Y52016D01*
X39760Y69340D02*
X40204Y68896D01*
X35440Y69340D02*
X39760D01*
X34856Y68756D02*
X35440Y69340D01*
X39610Y69190D02*
X40160Y68640D01*
X35502Y69190D02*
X39610D01*
X35112Y68800D02*
X35502Y69190D01*
X39500Y69000D02*
X40116Y68384D01*
X35600Y69000D02*
X39500D01*
X35368Y68768D02*
X35600Y69000D01*
X39500Y68700D02*
X40072Y68128D01*
X38800Y68700D02*
X39500D01*
X38656Y68556D02*
X38800Y68700D01*
X38912Y68412D02*
X39000Y68500D01*
X39300D01*
X39900Y67900D01*
X40600D01*
X39469Y68032D02*
X39884Y67616D01*
X34856Y64856D02*
X35440Y65440D01*
X39760D02*
X40204Y64996D01*
X35440Y65440D02*
X39760D01*
X35112Y64900D02*
X35502Y65290D01*
X39610D02*
X40160Y64740D01*
X35502Y65290D02*
X39610D01*
X35368Y64868D02*
X35600Y65100D01*
X39500D02*
X40116Y64484D01*
X35600Y65100D02*
X39500D01*
X38656Y64656D02*
X38800Y64800D01*
X39500D02*
X40072Y64228D01*
X38800Y64800D02*
X39500D01*
X38912Y64512D02*
X39000Y64600D01*
X39300D02*
X39900Y64000D01*
X39000Y64600D02*
X39300D01*
X39900Y64000D02*
X40600D01*
X39469Y64131D02*
X39884Y63716D01*
X34856Y60956D02*
X35440Y61540D01*
X39760D02*
X40204Y61096D01*
X35440Y61540D02*
X39760D01*
X35112Y61000D02*
X35502Y61390D01*
X39610D02*
X40160Y60840D01*
X35502Y61390D02*
X39610D01*
X35368Y60968D02*
X35600Y61200D01*
X39500D02*
X40116Y60584D01*
X35600Y61200D02*
X39500D01*
X38656Y60756D02*
X38800Y60900D01*
X39500D02*
X40072Y60328D01*
X38800Y60900D02*
X39500D01*
X38912Y60612D02*
X39000Y60700D01*
X39300D02*
X39900Y60100D01*
X39000Y60700D02*
X39300D01*
X39900Y60100D02*
X40600D01*
X39469Y60231D02*
X39884Y59816D01*
X34856Y57056D02*
X35440Y57640D01*
X39760D02*
X40204Y57196D01*
X35440Y57640D02*
X39760D01*
X35112Y57100D02*
X35502Y57490D01*
X39610D02*
X40160Y56940D01*
X35502Y57490D02*
X39610D01*
X35368Y57068D02*
X35600Y57300D01*
X39500D02*
X40116Y56684D01*
X35600Y57300D02*
X39500D01*
X38656Y56856D02*
X38800Y57000D01*
X39500D02*
X40072Y56428D01*
X38800Y57000D02*
X39500D01*
X38912Y56712D02*
X39000Y56800D01*
X39300D02*
X39900Y56200D01*
X39000Y56800D02*
X39300D01*
X39900Y56200D02*
X40600D01*
X39469Y56332D02*
X39884Y55916D01*
X34856Y49256D02*
X35440Y49840D01*
X39760D02*
X40204Y49396D01*
X35440Y49840D02*
X39760D01*
X35112Y49300D02*
X35502Y49690D01*
X39610D02*
X40160Y49140D01*
X35502Y49690D02*
X39610D01*
X35368Y49268D02*
X35600Y49500D01*
X39500D02*
X40116Y48884D01*
X35600Y49500D02*
X39500D01*
X38656Y49056D02*
X38800Y49200D01*
X39500D02*
X40072Y48628D01*
X38800Y49200D02*
X39500D01*
X38912Y48912D02*
X39000Y49000D01*
X39300D02*
X39900Y48400D01*
X39000Y49000D02*
X39300D01*
X39900Y48400D02*
X40600D01*
X39469Y48531D02*
X39884Y48116D01*
X34856Y45356D02*
X35440Y45940D01*
X39760D02*
X40204Y45496D01*
X35440Y45940D02*
X39760D01*
X35112Y45400D02*
X35502Y45790D01*
X39610D02*
X40160Y45240D01*
X35502Y45790D02*
X39610D01*
X35368Y45368D02*
X35600Y45600D01*
X39500D02*
X40116Y44984D01*
X35600Y45600D02*
X39500D01*
X38656Y45156D02*
X38800Y45300D01*
X39500D02*
X40072Y44728D01*
X38800Y45300D02*
X39500D01*
X38912Y45012D02*
X39000Y45100D01*
X39300D02*
X39900Y44500D01*
X39000Y45100D02*
X39300D01*
X39900Y44500D02*
X40600D01*
X39469Y44632D02*
X39884Y44216D01*
X34856Y41456D02*
X35440Y42040D01*
X39760D02*
X40204Y41596D01*
X35440Y42040D02*
X39760D01*
X35112Y41500D02*
X35502Y41890D01*
X39610D02*
X40160Y41340D01*
X35502Y41890D02*
X39610D01*
X35368Y41468D02*
X35600Y41700D01*
X39500D02*
X40116Y41084D01*
X35600Y41700D02*
X39500D01*
X38656Y41256D02*
X38800Y41400D01*
X39500D02*
X40072Y40828D01*
X38800Y41400D02*
X39500D01*
X38912Y41112D02*
X39000Y41200D01*
X39300D02*
X39900Y40600D01*
X39000Y41200D02*
X39300D01*
X39900Y40600D02*
X40600D01*
X39469Y40732D02*
X39884Y40316D01*
X34856Y37556D02*
X35440Y38140D01*
X39760D02*
X40204Y37696D01*
X35440Y38140D02*
X39760D01*
X35112Y37600D02*
X35502Y37990D01*
X39610D02*
X40160Y37440D01*
X35502Y37990D02*
X39610D01*
X35368Y37568D02*
X35600Y37800D01*
X39500D02*
X40116Y37184D01*
X35600Y37800D02*
X39500D01*
X38656Y37356D02*
X38800Y37500D01*
X39500D02*
X40072Y36928D01*
X38800Y37500D02*
X39500D01*
X38912Y37212D02*
X39000Y37300D01*
X39300D02*
X39900Y36700D01*
X39000Y37300D02*
X39300D01*
X39900Y36700D02*
X40600D01*
X39469Y36832D02*
X39884Y36416D01*
X34856Y33656D02*
X35440Y34240D01*
X39760D02*
X40204Y33796D01*
X35440Y34240D02*
X39760D01*
X35112Y33700D02*
X35502Y34090D01*
X39610D02*
X40160Y33540D01*
X35502Y34090D02*
X39610D01*
X35368Y33668D02*
X35600Y33900D01*
X39500D02*
X40116Y33284D01*
X35600Y33900D02*
X39500D01*
X38656Y33456D02*
X38800Y33600D01*
X39500D02*
X40072Y33028D01*
X38800Y33600D02*
X39500D01*
X38912Y33312D02*
X39000Y33400D01*
X39300D02*
X39900Y32800D01*
X39000Y33400D02*
X39300D01*
X39900Y32800D02*
X40600D01*
X39469Y32931D02*
X39884Y32516D01*
X70700Y50600D02*
X72200Y52100D01*
Y52600D01*
X72700Y53100D01*
Y53300D01*
X72900Y53500D01*
X73200D01*
X73700Y54000D01*
X75000D01*
X75400Y53600D01*
Y52800D02*
Y53600D01*
Y52800D02*
X77100Y51100D01*
X70700Y49600D02*
Y50600D01*
X71124Y34024D02*
Y34627D01*
X70850Y33253D02*
Y33750D01*
X67233Y40867D02*
X68427D01*
X66753Y46250D02*
X67350D01*
X67436Y41064D02*
X68427D01*
X66753Y46750D02*
X67550D01*
X67739Y41261D02*
X68427D01*
X66753Y47750D02*
X67350D01*
X55272Y32672D02*
X56017D01*
X55272Y40472D02*
X56017D01*
X55272Y44372D02*
X56017D01*
X55272Y48272D02*
X56017D01*
X55272Y52172D02*
X56017D01*
X55272Y56072D02*
X56017D01*
X55272Y59972D02*
X56017D01*
X55272Y63872D02*
X56017D01*
X76345Y42245D02*
X76773D01*
X76100Y42000D02*
X76345Y42245D01*
X72698Y43498D02*
X72800Y43600D01*
X72698Y42973D02*
Y43498D01*
X76205Y38505D02*
X76773D01*
X76009Y38700D02*
X76205Y38505D01*
X76045Y34645D02*
X76400Y35000D01*
X76045Y34627D02*
Y34645D01*
X72100Y35400D02*
X72305Y35195D01*
Y34627D02*
Y35195D01*
X69028Y43100D02*
X69155Y42973D01*
X68800Y43100D02*
X69028D01*
X68795Y38505D02*
X69035Y38265D01*
X69453Y33253D02*
X69850D01*
X68427Y38505D02*
X68795D01*
X68427Y35273D02*
Y35355D01*
Y35273D02*
X68600Y35100D01*
X77100Y44800D02*
Y51100D01*
X75848Y43548D02*
X77100Y44800D01*
X75848Y42973D02*
Y43548D01*
X69746Y42346D02*
Y42973D01*
X68100Y47800D02*
X68600Y47300D01*
Y43900D02*
Y47300D01*
X40072Y33028D02*
X40711D01*
X38656Y32931D02*
Y33456D01*
X38912Y32931D02*
Y33312D01*
X39884Y32516D02*
X40711D01*
X39168Y32931D02*
X39469D01*
X40072Y36928D02*
X40711D01*
X38656Y36832D02*
Y37356D01*
X38912Y36832D02*
Y37212D01*
X39884Y36416D02*
X40711D01*
X39168Y36832D02*
X39469D01*
X40072Y40828D02*
X40711D01*
X38656Y40732D02*
Y41256D01*
X38912Y40732D02*
Y41112D01*
X39884Y40316D02*
X40711D01*
X39168Y40732D02*
X39469D01*
X40072Y44728D02*
X40711D01*
X38656Y44632D02*
Y45156D01*
X38912Y44632D02*
Y45012D01*
X39884Y44216D02*
X40711D01*
X39168Y44632D02*
X39469D01*
X40072Y48628D02*
X40711D01*
X38656Y48531D02*
Y49056D01*
X38912Y48531D02*
Y48912D01*
X39884Y48116D02*
X40711D01*
X39168Y48531D02*
X39469D01*
X40072Y52528D02*
X40711D01*
X38656Y52432D02*
Y52956D01*
X38912Y52432D02*
Y52812D01*
X39884Y52016D02*
X40711D01*
X39168Y52432D02*
X39469D01*
X40072Y56428D02*
X40711D01*
X38656Y56332D02*
Y56856D01*
X38912Y56332D02*
Y56712D01*
X39884Y55916D02*
X40711D01*
X39168Y56332D02*
X39469D01*
X40072Y60328D02*
X40711D01*
X38656Y60231D02*
Y60756D01*
X38912Y60231D02*
Y60612D01*
X39884Y59816D02*
X40711D01*
X39168Y60231D02*
X39469D01*
X40072Y64228D02*
X40711D01*
X38656Y64131D02*
Y64656D01*
X38912Y64131D02*
Y64512D01*
X39884Y63716D02*
X40711D01*
X39168Y64131D02*
X39469D01*
X40072Y68128D02*
X40711D01*
X38656Y68032D02*
Y68556D01*
X38912Y68032D02*
Y68412D01*
X39884Y67616D02*
X40711D01*
X39168Y68032D02*
X39469D01*
X40204Y33796D02*
X40711D01*
X34856Y32931D02*
Y33656D01*
X40160Y33540D02*
X40711D01*
X35112Y32931D02*
Y33700D01*
X40116Y33284D02*
X40711D01*
X35368Y32931D02*
Y33668D01*
X40204Y37696D02*
X40711D01*
X34856Y36832D02*
Y37556D01*
X40160Y37440D02*
X40711D01*
X35112Y36832D02*
Y37600D01*
X40116Y37184D02*
X40711D01*
X35368Y36832D02*
Y37568D01*
X40204Y41596D02*
X40711D01*
X34856Y40732D02*
Y41456D01*
X40160Y41340D02*
X40711D01*
X35112Y40732D02*
Y41500D01*
X40116Y41084D02*
X40711D01*
X35368Y40732D02*
Y41468D01*
X40204Y45496D02*
X40711D01*
X34856Y44632D02*
Y45356D01*
X40160Y45240D02*
X40711D01*
X35112Y44632D02*
Y45400D01*
X40116Y44984D02*
X40711D01*
X35368Y44632D02*
Y45368D01*
X40204Y49396D02*
X40711D01*
X34856Y48531D02*
Y49256D01*
X40160Y49140D02*
X40711D01*
X35112Y48531D02*
Y49300D01*
X40116Y48884D02*
X40711D01*
X35368Y48531D02*
Y49268D01*
X40204Y53296D02*
X40711D01*
X34856Y52432D02*
Y53156D01*
X40160Y53040D02*
X40711D01*
X35112Y52432D02*
Y53200D01*
X40116Y52784D02*
X40711D01*
X35368Y52432D02*
Y53168D01*
X40204Y57196D02*
X40711D01*
X34856Y56332D02*
Y57056D01*
X40160Y56940D02*
X40711D01*
X35112Y56332D02*
Y57100D01*
X40116Y56684D02*
X40711D01*
X35368Y56332D02*
Y57068D01*
X40204Y61096D02*
X40711D01*
X34856Y60231D02*
Y60956D01*
X40160Y60840D02*
X40711D01*
X35112Y60231D02*
Y61000D01*
X40116Y60584D02*
X40711D01*
X35368Y60231D02*
Y60968D01*
X40204Y64996D02*
X40711D01*
X34856Y64131D02*
Y64856D01*
X40160Y64740D02*
X40711D01*
X35112Y64131D02*
Y64900D01*
X40116Y64484D02*
X40711D01*
X35368Y64131D02*
Y64868D01*
X40204Y68896D02*
X40711D01*
X34856Y68032D02*
Y68756D01*
X40160Y68640D02*
X40711D01*
X35112Y68032D02*
Y68800D01*
X40116Y68384D02*
X40711D01*
X35368Y68032D02*
Y68768D01*
X67920Y37520D02*
X68427D01*
X66653Y36850D02*
X67250D01*
X67995Y39095D02*
X68427D01*
X66653Y37350D02*
X67350D01*
X67892Y39292D02*
X68427D01*
X66653Y37850D02*
X67250D01*
X67689Y39489D02*
X68427D01*
X66653Y38350D02*
X67050D01*
X76773Y41851D02*
X77349D01*
X72300Y43600D02*
X72502Y43398D01*
Y42402D02*
Y43398D01*
X72465Y42365D02*
X72502Y42402D01*
X70927Y42427D02*
Y42973D01*
X77349Y41851D02*
X77500Y41700D01*
X77200Y38700D02*
X77600D01*
X76124Y40276D02*
X76773D01*
X76065Y40335D02*
X76124Y40276D01*
X76773Y38702D02*
X77198D01*
X76230Y36930D02*
X76773D01*
X76065Y36665D02*
Y36765D01*
X73880Y34627D02*
Y35180D01*
X75651Y34151D02*
Y34627D01*
X72108Y34192D02*
Y34627D01*
X75500Y34000D02*
X75651Y34151D01*
X72300Y34000D02*
X72400D01*
X71100Y32000D02*
X71350Y31750D01*
Y31147D02*
Y31750D01*
X68052Y42048D02*
X68427D01*
X68836Y40276D02*
X69059Y40500D01*
X68427Y40276D02*
X68836D01*
X67800Y42200D02*
X67900D01*
X70730Y34627D02*
Y35230D01*
X68427Y38702D02*
X69002D01*
X68427Y36930D02*
X68970D01*
X70850Y31750D02*
X71100Y32000D01*
X70350Y33253D02*
Y33950D01*
X70850Y31147D02*
Y31750D01*
X70350Y31147D02*
Y31650D01*
X70100Y31900D02*
X70350Y31650D01*
X68727Y34627D02*
X69155D01*
X69850Y31650D02*
X70100Y31900D01*
X69850Y31147D02*
Y31650D01*
X69000Y36600D02*
Y36900D01*
X59817Y52152D02*
X59865Y52200D01*
X59817Y51314D02*
Y52152D01*
X60800Y62300D02*
X61100Y62000D01*
X60491Y62300D02*
X60800D01*
X55272Y67772D02*
X56017D01*
X76280Y40080D02*
X76773D01*
X76100Y39900D02*
X76280Y40080D01*
X76211Y38111D02*
X76773D01*
X76200Y38100D02*
X76211Y38111D01*
X73092Y42408D02*
Y42973D01*
Y42408D02*
X73135Y42365D01*
X76200Y37300D02*
X76373Y37127D01*
X76773D01*
X72700Y34628D02*
Y35200D01*
X72698Y34627D02*
X72700Y34628D01*
X68427Y40080D02*
X69020D01*
X69000Y37300D02*
Y37911D01*
X68827Y37127D02*
X69000Y37300D01*
X68427Y38111D02*
X68800D01*
X68427Y37127D02*
X68827D01*
X43760Y63460D02*
X43900Y63600D01*
Y64800D01*
X43704Y64996D02*
X43900Y64800D01*
X43289Y63460D02*
X43760D01*
X43289Y64996D02*
X43704D01*
X43860Y32260D02*
X43900Y32300D01*
Y33700D01*
X43804Y33796D02*
X43900Y33700D01*
X43289Y32260D02*
X43860D01*
X43396Y33796D02*
X43804D01*
X43760Y36160D02*
X43900Y36300D01*
Y37600D01*
X43800Y37700D02*
X43900Y37600D01*
X43289Y36160D02*
X43760D01*
X43100Y37700D02*
X43800D01*
X43760Y40060D02*
X43900Y40200D01*
Y41500D01*
X43804Y41596D02*
X43900Y41500D01*
X43289Y40060D02*
X43760D01*
X43200Y41596D02*
X43804D01*
X43760Y43960D02*
X43900Y44100D01*
Y45300D01*
X43700Y45500D02*
X43900Y45300D01*
X43289Y43960D02*
X43760D01*
X43400Y45500D02*
X43700D01*
X43740Y47860D02*
X43900Y47700D01*
Y47100D02*
Y47700D01*
X43289Y47860D02*
X43740D01*
X43700Y46900D02*
X43900Y47100D01*
Y51900D02*
Y53200D01*
X43800Y53300D02*
X43900Y53200D01*
X43289Y51760D02*
X43760D01*
X43900Y51900D01*
X43400Y53300D02*
X43800D01*
X43860Y55660D02*
X43900Y55700D01*
Y57200D01*
X43289Y55660D02*
X43860D01*
X43500Y57200D02*
X43900D01*
X43860Y59560D02*
X43900Y59600D01*
Y61000D01*
X43800Y61100D02*
X43900Y61000D01*
X43289Y59560D02*
X43860D01*
X43400Y61100D02*
X43800D01*
X76200Y30900D02*
Y31600D01*
X78126Y33526D01*
X76100Y30800D02*
X76200Y30900D01*
X78126Y33526D02*
X78300D01*
X72200Y30800D02*
X76100D01*
D39*
X70200Y48600D02*
Y49800D01*
X68200Y51800D02*
X70200Y49800D01*
X67650Y54150D02*
X68200Y53600D01*
Y51800D02*
Y53600D01*
X68700Y50400D02*
X69200Y49900D01*
Y49100D02*
Y49900D01*
X67550Y53650D02*
X67900Y53300D01*
X68100Y50400D02*
X68700D01*
X67900Y50600D02*
X68100Y50400D01*
X67900Y50600D02*
Y53300D01*
X67500Y49800D02*
X69000Y48300D01*
X69500D01*
X67250Y53150D02*
X67500Y52900D01*
Y49800D02*
Y52900D01*
X67300Y49600D02*
X68900Y48000D01*
X67100Y52650D02*
X67300Y52450D01*
Y49600D02*
Y52450D01*
X70200Y48600D02*
X70533Y48267D01*
X69200Y49100D02*
X70336Y47964D01*
X69500Y48300D02*
X70139Y47661D01*
X69300Y48000D02*
X69943Y47357D01*
X68900Y48000D02*
X69300D01*
X71800Y45100D02*
X71950Y45250D01*
X71100Y45100D02*
X71800D01*
X71000Y45000D02*
X71100Y45100D01*
X71000Y43800D02*
Y45000D01*
Y43800D02*
X71320Y43480D01*
X63100Y54900D02*
X64500Y56300D01*
X63100Y52300D02*
Y54900D01*
X63700Y55100D02*
X65000Y56400D01*
X63700Y54400D02*
Y55100D01*
Y54400D02*
X63950Y54150D01*
X64500Y50500D02*
Y50900D01*
X64000Y52500D02*
X64150Y52650D01*
X64000Y51400D02*
X64500Y50900D01*
X64000Y51400D02*
Y52500D01*
X63100Y52300D02*
X63500Y51900D01*
X63900Y45000D02*
X65200Y43700D01*
Y40760D02*
Y43700D01*
X62600Y38160D02*
X65200Y40760D01*
X62600Y36200D02*
Y38160D01*
Y36200D02*
X63500Y35300D01*
Y34900D02*
Y35300D01*
X63192Y34592D02*
X63500Y34900D01*
X62300Y38100D02*
X64900Y40700D01*
X62300Y36100D02*
X63100Y35300D01*
X62300Y36100D02*
Y38100D01*
X63100Y35000D02*
Y35300D01*
X62889Y34789D02*
X63100Y35000D01*
X62989Y50389D02*
X63200Y50600D01*
X64500Y57600D02*
X64600Y57700D01*
X64500Y56300D02*
Y57600D01*
X64100Y56300D02*
X64154D01*
X64400Y63700D02*
Y65900D01*
X63600Y44700D02*
X64900Y43400D01*
X62900Y36300D02*
Y36800D01*
Y36300D02*
X64300Y34900D01*
X61200Y37800D02*
X64100Y40700D01*
X60014Y36214D02*
X64500Y40700D01*
Y43239D01*
X63900Y36600D02*
X64150Y36850D01*
X60300Y44700D02*
X64100Y48500D01*
X62398Y46791D02*
X62439Y46750D01*
X60000Y43800D02*
Y44000D01*
X60300Y44300D01*
Y44700D01*
X60000Y59449D02*
X60100Y59549D01*
Y59900D01*
X34100Y32400D02*
X35000D01*
X34100Y36300D02*
X35000D01*
X34100Y40200D02*
X35000D01*
X34100Y44100D02*
X35000D01*
X34100Y55800D02*
X35000D01*
X34100Y59700D02*
X35000D01*
X34100Y63600D02*
X35000D01*
X62900Y36800D02*
X63950Y37850D01*
X42300Y34400D02*
X50800D01*
X42500Y34200D02*
X51300D01*
X42300Y34000D02*
X42500Y34200D01*
X42300Y33600D02*
Y34000D01*
Y33600D02*
X42500Y33400D01*
X42570D01*
X42686Y33284D01*
X41100Y41900D02*
X41300Y41700D01*
Y39600D02*
Y41700D01*
X41100Y39400D02*
X41300Y39600D01*
X41100Y41900D02*
Y42100D01*
X41200Y42200D01*
X43100D01*
X42800Y49800D02*
X43000Y50000D01*
X43700D01*
X44000Y49700D01*
Y49300D02*
Y49700D01*
X43840Y49140D02*
X44000Y49300D01*
X42414Y48100D02*
X42686Y48372D01*
X42200Y49200D02*
Y49700D01*
X42100Y49100D02*
X42200Y49200D01*
X42100Y48100D02*
Y49100D01*
Y48100D02*
X42414D01*
X41900Y47700D02*
X42300D01*
X42716Y48116D01*
X41900Y48100D02*
X41916Y48116D01*
Y47716D02*
Y48116D01*
X42400Y51900D02*
X42772Y52272D01*
X41900Y52100D02*
Y53100D01*
Y52100D02*
X42100Y51900D01*
X42400D01*
X42313Y51513D02*
X42816Y52016D01*
X42570Y68500D02*
X42686Y68384D01*
X42614Y60000D02*
X42686Y60072D01*
X42400Y60000D02*
X42614D01*
X41700Y61700D02*
X42000D01*
X42200Y61500D01*
Y60200D02*
Y61500D01*
Y60200D02*
X42400Y60000D01*
X42700Y56100D02*
X42772Y56172D01*
X42300Y56100D02*
X42700D01*
X42000Y57600D02*
X42200Y57400D01*
Y56200D02*
Y57400D01*
Y56200D02*
X42300Y56100D01*
X41700Y52000D02*
Y53300D01*
X41600Y53900D02*
X42100D01*
X42200Y53800D01*
Y53400D02*
Y53800D01*
X41900Y53100D02*
X42200Y53400D01*
X42614Y44400D02*
X42686Y44472D01*
X42300Y44400D02*
X42614D01*
X42100Y45700D02*
X42200Y45600D01*
Y44500D02*
Y45600D01*
Y44500D02*
X42300Y44400D01*
X42200Y40600D02*
Y41800D01*
Y40600D02*
X42300Y40500D01*
X41600Y42000D02*
X42000D01*
X42200Y41800D01*
X42614Y40500D02*
X42686Y40572D01*
X42300Y40500D02*
X42614D01*
Y36600D02*
X42686Y36672D01*
X42300Y36600D02*
X42614D01*
X42100Y38100D02*
X42200Y38000D01*
Y36700D02*
Y38000D01*
Y36700D02*
X42300Y36600D01*
X42614Y63900D02*
X42686Y63972D01*
X42300Y63900D02*
X42614D01*
X42000Y65400D02*
X42200Y65200D01*
Y64000D02*
Y65200D01*
Y64000D02*
X42300Y63900D01*
X41900Y66800D02*
X42716Y67616D01*
X42700Y32700D02*
X42772Y32772D01*
X41900Y32700D02*
X42700D01*
X41500Y33100D02*
X41900Y32700D01*
X41500Y66686D02*
X42686Y67872D01*
X40000Y51500D02*
X40260Y51760D01*
X40000Y51300D02*
Y51500D01*
Y51300D02*
X40700Y50600D01*
X41400D01*
X41600Y50800D01*
X53800Y32500D02*
X53972Y32672D01*
X53800Y48100D02*
X53972Y48272D01*
X53800Y55900D02*
X53972Y56072D01*
X53800Y63700D02*
X53972Y63872D01*
X65700Y67000D02*
X65900Y66800D01*
X56600Y42600D02*
X56611Y42589D01*
X56500Y50400D02*
X56511Y50389D01*
X56600Y58200D02*
X56611Y58189D01*
X59817Y35183D02*
X59900Y35100D01*
Y34300D02*
Y35100D01*
X59602Y34002D02*
X59900Y34300D01*
X58800Y34100D02*
X58898Y34002D01*
X58700Y34100D02*
X58800D01*
X58700Y33700D02*
X58792Y33608D01*
X60784Y35302D02*
X60802D01*
X60211Y35189D02*
X60300Y35100D01*
X62995Y33805D02*
X63000Y33809D01*
X62000Y33700D02*
X62092Y33608D01*
X62914Y33214D02*
X63000Y33300D01*
X62300Y32000D02*
X62800D01*
X61900Y31935D02*
X61983Y32017D01*
X60605Y32095D02*
X60800Y31900D01*
X60500Y33100D02*
X60700D01*
X60400Y33000D02*
X60500Y33100D01*
X60400Y32494D02*
Y33000D01*
X59309Y31109D02*
X60014Y31814D01*
X60117Y32983D02*
X60211Y32889D01*
X59817Y32983D02*
X60117D01*
X59783Y33017D02*
X59817Y32983D01*
Y42983D02*
X59900Y42900D01*
Y42100D02*
Y42900D01*
X59602Y41802D02*
X59900Y42100D01*
X58800Y41900D02*
X58898Y41802D01*
X58700Y41900D02*
X58800D01*
X58700Y41500D02*
X58792Y41408D01*
X60784Y43102D02*
X60802D01*
X60211Y42989D02*
X60300Y42900D01*
X59535Y44600D02*
X59865D01*
X59817Y44083D02*
X59865Y44131D01*
X62995Y41605D02*
X63000Y41609D01*
X62000Y41500D02*
X62092Y41408D01*
X62914Y41014D02*
X63000Y41100D01*
X62800Y39800D02*
X63400Y40400D01*
X62300Y39800D02*
X62800D01*
X61900Y39735D02*
X61983Y39817D01*
X60605Y39895D02*
X60800Y39700D01*
X60500Y40900D02*
X60700D01*
X60400Y40800D02*
X60500Y40900D01*
X60400Y40294D02*
Y40800D01*
X59309Y38909D02*
X60014Y39614D01*
X60117Y40783D02*
X60211Y40689D01*
X59817Y40783D02*
X60117D01*
X59783Y40817D02*
X59817Y40783D01*
Y50783D02*
X59900Y50700D01*
Y49900D02*
Y50700D01*
X59602Y49602D02*
X59900Y49900D01*
X58800Y49700D02*
X58898Y49602D01*
X58700Y49700D02*
X58800D01*
X58700Y49300D02*
X58792Y49208D01*
X60784Y50902D02*
X60802D01*
X60211Y50789D02*
X60300Y50700D01*
X59535Y52400D02*
X59865D01*
X62995Y49405D02*
X63000Y49409D01*
X62000Y49300D02*
X62092Y49208D01*
X62914Y48814D02*
X63000Y48900D01*
X61900Y47535D02*
X61983Y47617D01*
X60605Y47695D02*
X60800Y47500D01*
X60400Y48600D02*
X60500Y48700D01*
X60400Y48094D02*
Y48600D01*
X59309Y46709D02*
X60014Y47414D01*
X60117Y48583D02*
X60211Y48489D01*
X59817Y48583D02*
X60117D01*
X59783Y48617D02*
X59817Y48583D01*
Y58583D02*
X59900Y58500D01*
Y57700D02*
Y58500D01*
X59602Y57402D02*
X59900Y57700D01*
X58800Y57500D02*
X58898Y57402D01*
X58700Y57500D02*
X58800D01*
X58700Y57100D02*
X58792Y57008D01*
X60784Y58702D02*
X60802D01*
X60211Y58589D02*
X60300Y58500D01*
X59865Y59731D02*
Y60200D01*
X59535D02*
X59865D01*
X62995Y57205D02*
X63000Y57209D01*
X62000Y57100D02*
X62092Y57008D01*
X62914Y56614D02*
X63000Y56700D01*
X61900Y55335D02*
X61983Y55417D01*
X60605Y55495D02*
X60800Y55300D01*
X60500Y56500D02*
X60700D01*
X60400Y56400D02*
X60500Y56500D01*
X60400Y55894D02*
Y56400D01*
X59309Y54509D02*
X60014Y55214D01*
X60117Y56383D02*
X60211Y56289D01*
X59817Y56383D02*
X60117D01*
X59783Y56417D02*
X59817Y56383D01*
X56600Y30900D02*
X56611Y30889D01*
X56600Y38700D02*
X56611Y38689D01*
X56600Y46500D02*
X56611Y46489D01*
X56600Y54300D02*
X56611Y54289D01*
X56600Y62100D02*
X56611Y62089D01*
X59535Y68000D02*
X59865D01*
X62000Y64900D02*
X62092Y64808D01*
X60605Y63295D02*
X60800Y63100D01*
X60400Y63694D02*
Y64200D01*
X60500Y64300D01*
X62914Y64414D02*
X63000Y64500D01*
X62995Y65005D02*
X63000Y65009D01*
X60211Y66389D02*
X60300Y66300D01*
X60784Y66502D02*
X60802D01*
X56600Y66000D02*
X56611Y65989D01*
X59602Y65202D02*
X59900Y65500D01*
Y66300D01*
X59817Y66383D02*
X59900Y66300D01*
X58700Y65300D02*
X58800D01*
X58898Y65202D01*
X59783Y64217D02*
X59817Y64183D01*
X60117D01*
X60211Y64089D01*
X59309Y62309D02*
X60014Y63014D01*
X58700Y64900D02*
X58792Y64808D01*
X35000Y51900D02*
X35112Y51788D01*
X38912Y51188D02*
X39000Y51100D01*
Y50700D02*
Y51100D01*
X38900Y50600D02*
X39000Y50700D01*
X34500Y50800D02*
Y51300D01*
Y50800D02*
X34700Y50600D01*
X28200Y49700D02*
X32600D01*
X27400Y48900D02*
X28200Y49700D01*
X27400Y47400D02*
Y48900D01*
Y47400D02*
X27800Y47000D01*
X28200D01*
X28511Y47311D01*
X31168Y47432D02*
X31600Y47000D01*
X31089Y50611D02*
X31300Y50400D01*
X28511Y50589D02*
X29100Y50000D01*
X32800Y48000D02*
X35000D01*
X32088Y48712D02*
X32800Y48000D01*
X30300Y46700D02*
Y48000D01*
X30500Y48200D01*
X30000Y48300D02*
X30156Y48456D01*
X29344D02*
X29500Y48300D01*
X29300Y46700D02*
Y48100D01*
X29200Y48200D02*
X29300Y48100D01*
X33000Y51900D02*
X35000D01*
X32588Y52312D02*
X33000Y51900D01*
X29100Y51800D02*
X29300Y52000D01*
X38912Y66788D02*
X39000Y66700D01*
Y66300D02*
Y66700D01*
X34500Y66400D02*
X34700Y66200D01*
X34500Y66400D02*
Y66900D01*
X33700Y67900D02*
Y69200D01*
Y67900D02*
X34100Y67500D01*
X35000D01*
X35112Y67388D01*
X38900Y66200D02*
X39000Y66300D01*
X34500Y62500D02*
X34700Y62300D01*
X34500Y62500D02*
Y63000D01*
X38900Y62300D02*
X39000Y62400D01*
Y62800D01*
X38912Y62888D02*
X39000Y62800D01*
X35000Y63600D02*
X35112Y63488D01*
X34500Y58600D02*
X34700Y58400D01*
X34500Y58600D02*
Y59100D01*
X38900Y58400D02*
X39000Y58500D01*
Y58900D01*
X38912Y58988D02*
X39000Y58900D01*
X35000Y59700D02*
X35112Y59588D01*
X34500Y54700D02*
X34700Y54500D01*
X34500Y54700D02*
Y55200D01*
X38900Y54500D02*
X39000Y54600D01*
Y55000D01*
X38912Y55088D02*
X39000Y55000D01*
X35000Y55800D02*
X35112Y55688D01*
X34500Y46900D02*
X34700Y46700D01*
X34500Y46900D02*
Y47400D01*
X38900Y46700D02*
X39000Y46800D01*
Y47200D01*
X38912Y47288D02*
X39000Y47200D01*
X35000Y48000D02*
X35112Y47888D01*
X34500Y43000D02*
X34700Y42800D01*
X34500Y43000D02*
Y43500D01*
X38900Y42800D02*
X39000Y42900D01*
Y43300D01*
X38912Y43388D02*
X39000Y43300D01*
X35000Y44100D02*
X35112Y43988D01*
X34500Y39100D02*
X34700Y38900D01*
X34500Y39100D02*
Y39600D01*
X38900Y38900D02*
X39000Y39000D01*
Y39400D01*
X38912Y39488D02*
X39000Y39400D01*
X35000Y40200D02*
X35112Y40088D01*
X34500Y35200D02*
X34700Y35000D01*
X34500Y35200D02*
Y35700D01*
X38900Y35000D02*
X39000Y35100D01*
Y35500D01*
X38912Y35588D02*
X39000Y35500D01*
X35000Y36300D02*
X35112Y36188D01*
X34500Y31300D02*
X34700Y31100D01*
X34500Y31300D02*
Y31800D01*
X38900Y31100D02*
X39000Y31200D01*
Y31600D01*
X38912Y31688D02*
X39000Y31600D01*
X35000Y32400D02*
X35112Y32288D01*
X70800Y43700D02*
Y48400D01*
X71300Y48900D01*
X73200D02*
X74000Y49700D01*
X70800Y43700D02*
X71124Y43376D01*
X71300Y48900D02*
X73200D01*
X72270Y49070D02*
X73000Y49800D01*
X71130Y49070D02*
X72270D01*
X61100Y59900D02*
X61300Y59700D01*
X62700D01*
X63900Y56500D02*
Y58500D01*
X62700Y59700D02*
X63900Y58500D01*
X61476Y59900D02*
X63000D01*
X64154Y56300D02*
Y58746D01*
X63000Y59900D02*
X64154Y58746D01*
X34700Y66200D02*
X36900D01*
X34700Y62300D02*
X36900D01*
X34700Y58400D02*
X36900D01*
Y54500D02*
X38900D01*
X36900Y50600D02*
X38900D01*
X34700Y46700D02*
X36900D01*
X34700Y42800D02*
X36900D01*
Y38900D02*
X38900D01*
X36900Y35000D02*
X38900D01*
X36900Y31100D02*
X38900D01*
X69943Y42973D02*
Y47357D01*
X66753Y52650D02*
X67100D01*
X70139Y42973D02*
Y47661D01*
X66753Y53150D02*
X67250D01*
X70336Y42973D02*
Y47964D01*
X66753Y53650D02*
X67550D01*
X70533Y42973D02*
Y48267D01*
X66753Y54150D02*
X67650D01*
X71950Y45250D02*
Y45747D01*
X71320Y42973D02*
Y43480D01*
X56583Y33411D02*
X59286D01*
X56411Y34789D02*
X59286D01*
X56583Y41211D02*
X59286D01*
X56572Y41200D02*
X56583Y41211D01*
X56611Y42589D02*
X59286D01*
X56583Y49011D02*
X59286D01*
X56572Y49000D02*
X56583Y49011D01*
X56511Y50389D02*
X59286D01*
X56583Y56811D02*
X59286D01*
X56572Y56800D02*
X56583Y56811D01*
X56611Y58189D02*
X59286D01*
X56461Y64939D02*
X56789Y64611D01*
X59286D01*
X41600Y50800D02*
X41900D01*
X40260Y51760D02*
X40711D01*
X29100Y50000D02*
X33700D01*
X28511Y50589D02*
Y51032D01*
X35112Y47500D02*
Y47888D01*
X31089Y48712D02*
X32088D01*
X35112Y51400D02*
Y51788D01*
X31089Y52312D02*
X32588D01*
X34100Y51900D02*
X35000D01*
X72266Y50574D02*
X73000D01*
Y49800D02*
Y49826D01*
X70700Y49500D02*
X71130Y49070D01*
X42716Y37184D02*
X43289D01*
X42800Y35100D02*
Y35500D01*
X43289Y31689D02*
Y32004D01*
X43200Y31600D02*
X43289Y31689D01*
X42500Y37400D02*
X42716Y37184D01*
X42200Y36100D02*
X42800Y35500D01*
X63750Y38350D02*
X64547D01*
X63500Y38100D02*
X63750Y38350D01*
X53600Y34300D02*
X56900D01*
X51300Y34200D02*
X51500Y34400D01*
X42686Y33284D02*
X43289D01*
X42816Y41084D02*
X43289D01*
X42600Y39000D02*
Y39100D01*
X43200Y35900D02*
X43300Y35800D01*
Y35500D02*
Y35800D01*
X42500Y41400D02*
X42816Y41084D01*
X42400Y39200D02*
X42600Y39000D01*
X42400Y39200D02*
Y39900D01*
X42800Y45000D02*
X43300D01*
X42500Y45300D02*
X42800Y45000D01*
X42200Y43700D02*
Y43800D01*
Y43700D02*
X42900Y43000D01*
X43289Y39489D02*
Y39804D01*
X43100Y42200D02*
X43200Y42100D01*
Y39400D02*
X43289Y39489D01*
X41100Y39100D02*
Y39400D01*
X42816Y48884D02*
X43289D01*
Y43311D02*
Y43704D01*
Y43311D02*
X43300Y43300D01*
X42600Y49100D02*
X42816Y48884D01*
X42200Y47400D02*
X42800Y46800D01*
X43289Y47604D02*
X43300Y47594D01*
Y47200D02*
Y47594D01*
X42484Y52784D02*
X43289D01*
X42300Y52600D02*
X42484Y52784D01*
X42816Y56684D02*
X43289D01*
X43694Y51100D02*
X43700D01*
X43289Y51504D02*
X43694Y51100D01*
X42500Y57000D02*
X42816Y56684D01*
X42400Y55100D02*
X42900Y54600D01*
X42400Y55100D02*
Y55500D01*
X42816Y60584D02*
X43289D01*
Y55111D02*
Y55404D01*
Y55111D02*
X43300Y55100D01*
X42500Y60900D02*
X42816Y60584D01*
X42300Y59400D02*
X42800Y58900D01*
X43100Y66300D02*
X43500D01*
X43289Y62711D02*
Y63204D01*
Y62711D02*
X43300Y62700D01*
X42200Y68500D02*
X42570D01*
X42686Y68384D02*
X43289D01*
X42600Y66800D02*
X43100Y66300D01*
X63950Y53150D02*
X64647D01*
X63400Y52600D02*
X63950Y53150D01*
X62514Y50192D02*
X63292D01*
X63950Y53650D02*
X64647D01*
X63292Y57992D02*
X63400Y58100D01*
X62514Y57992D02*
X63292D01*
X42772Y56172D02*
X43289D01*
X42686Y67872D02*
X43289D01*
X42686Y63972D02*
X43289D01*
X42686Y60072D02*
X43289D01*
X42772Y52272D02*
X43289D01*
X42686Y48372D02*
X43289D01*
X42686Y44472D02*
X43289D01*
X42686Y40572D02*
X43289D01*
X64050Y37350D02*
X64547D01*
X63800Y37100D02*
X64050Y37350D01*
X63800Y37000D02*
Y37100D01*
X42686Y36672D02*
X43289D01*
X50800Y34400D02*
X51000Y34600D01*
X42772Y32772D02*
X43289D01*
X41500Y65400D02*
X42000D01*
X41500Y61500D02*
X41700Y61700D01*
X41500Y57600D02*
X42000D01*
X41500Y51700D02*
X42400Y50800D01*
X41500Y66400D02*
Y66686D01*
Y62400D02*
Y65400D01*
Y58600D02*
Y61500D01*
Y54700D02*
Y57600D01*
Y53800D02*
X41600Y53900D01*
X41500Y51700D02*
Y53800D01*
X42000Y49900D02*
X42200Y49700D01*
X41500Y49400D02*
X42000Y49900D01*
X41500Y45700D02*
X42100D01*
X41500Y38100D02*
X42100D01*
X41500Y33600D02*
X42300Y34400D01*
X41500Y46900D02*
Y49400D01*
Y43000D02*
Y45700D01*
Y41900D02*
X41600Y42000D01*
X41500Y39100D02*
Y41900D01*
Y35200D02*
Y38100D01*
Y33100D02*
Y34200D01*
X42716Y67616D02*
X43289D01*
X41916Y59816D02*
X43289D01*
X42816Y52016D02*
X43289D01*
X42716Y48116D02*
X43289D01*
X42187Y51513D02*
X42313D01*
X63950Y37850D02*
X64547D01*
X64300Y34900D02*
X64800D01*
X42016Y32516D02*
X43289D01*
X41916Y63716D02*
X43289D01*
X41916Y55916D02*
X43289D01*
X41700Y52000D02*
X42900Y50800D01*
X41900Y66400D02*
Y66800D01*
Y63700D02*
X41916Y63716D01*
X41900Y62400D02*
Y64800D01*
Y58600D02*
Y61200D01*
Y55900D02*
X41916Y55916D01*
X41900Y54700D02*
Y57200D01*
Y48100D02*
Y49400D01*
X41700Y53300D02*
X41900Y53500D01*
X41916Y44216D02*
X43289D01*
X41916Y40316D02*
X43289D01*
X41916Y36416D02*
X43289D01*
X41900Y31800D02*
X42500Y31200D01*
X41900Y46900D02*
Y47700D01*
Y44200D02*
X41916Y44216D01*
X41900Y43000D02*
Y45300D01*
Y40300D02*
X41916Y40316D01*
X41900Y39100D02*
Y41500D01*
Y35200D02*
Y37600D01*
Y32400D02*
X42016Y32516D01*
X41900Y36400D02*
X41916Y36416D01*
X41900Y31800D02*
Y32400D01*
X38912Y31688D02*
Y31900D01*
X34500Y31800D02*
X34600Y31900D01*
X34700Y31100D02*
X36900D01*
X38912Y35588D02*
Y35800D01*
X34500Y35700D02*
X34600Y35800D01*
X34700Y35000D02*
X36900D01*
X38912Y39488D02*
Y39700D01*
X34500Y39600D02*
X34600Y39700D01*
X34700Y38900D02*
X36900D01*
X38912Y43388D02*
Y43600D01*
X34500Y43500D02*
X34600Y43600D01*
X36900Y42800D02*
X38900D01*
X38912Y47288D02*
Y47500D01*
X34500Y47400D02*
X34600Y47500D01*
X36900Y46700D02*
X38900D01*
X38912Y51188D02*
Y51400D01*
X34500Y51300D02*
X34600Y51400D01*
X34700Y50600D02*
X36900D01*
X38912Y55088D02*
Y55300D01*
X34500Y55200D02*
X34600Y55300D01*
X34700Y54500D02*
X36900D01*
X38912Y58988D02*
Y59200D01*
X34500Y59100D02*
X34600Y59200D01*
X36900Y58400D02*
X38900D01*
X38912Y62888D02*
Y63100D01*
X34500Y63000D02*
X34600Y63100D01*
X36900Y62300D02*
X38900D01*
X38912Y66788D02*
Y67000D01*
X34500Y66900D02*
X34600Y67000D01*
X36900Y66200D02*
X38900D01*
X64150Y36850D02*
X64547D01*
X64597Y46300D02*
X64647Y46250D01*
X74000Y49700D02*
Y50226D01*
X71124Y42973D02*
Y43376D01*
X30174Y32861D02*
Y32900D01*
X28224Y32250D02*
X28500D01*
X30174Y36761D02*
Y36800D01*
X28224Y36150D02*
X28500D01*
X30174Y40661D02*
Y40700D01*
X28224Y40050D02*
X28500D01*
X30174Y44561D02*
Y44600D01*
X28224Y43950D02*
X28500D01*
X30174Y56261D02*
Y56300D01*
X28224Y55650D02*
X28500D01*
X30174Y60161D02*
Y60200D01*
X28224Y59550D02*
X28500D01*
X30174Y64061D02*
Y64100D01*
X28224Y63450D02*
X28500D01*
X30174Y67961D02*
Y68000D01*
X28224Y67350D02*
X28500D01*
X59286Y35183D02*
X59817D01*
X58602Y34198D02*
X59286D01*
X58898Y34002D02*
X59602D01*
X57974Y35426D02*
X58000Y35400D01*
X57400Y35426D02*
X57974D01*
X57765Y34435D02*
X58300D01*
X58400Y34400D02*
X58700Y34100D01*
X59286Y42983D02*
X59817D01*
X58602Y41998D02*
X59286D01*
X58898Y41802D02*
X59602D01*
X57974Y43226D02*
X58000Y43200D01*
X57400Y43226D02*
X57974D01*
X57765Y42235D02*
X58300D01*
X58400Y42200D02*
X58700Y41900D01*
X59286Y50783D02*
X59817D01*
X58602Y49798D02*
X59286D01*
X58898Y49602D02*
X59602D01*
X57974Y51026D02*
X58000Y51000D01*
X57400Y51026D02*
X57974D01*
X57765Y50035D02*
X58300D01*
X58400Y50000D02*
X58700Y49700D01*
X59286Y58583D02*
X59817D01*
X58602Y57598D02*
X59286D01*
X58898Y57402D02*
X59602D01*
X58400Y57800D02*
X58700Y57500D01*
X59286Y66383D02*
X59817D01*
X58602Y65398D02*
X59286D01*
X58898Y65202D02*
X59602D01*
X57974Y66626D02*
X58000Y66600D01*
X57400Y66626D02*
X57974D01*
X57765Y65635D02*
X58300D01*
X58400Y65600D02*
X58700Y65300D01*
X39960Y47860D02*
X40711D01*
X39900Y47800D02*
X39960Y47860D01*
X32600Y49700D02*
X33200Y49100D01*
X28511Y47311D02*
Y47432D01*
X42800Y49700D02*
Y49800D01*
X43289Y49140D02*
X43840D01*
X31089Y47432D02*
X31168D01*
X31600Y47000D02*
X32000D01*
X30500Y48200D02*
X31089D01*
X35112Y31900D02*
Y32288D01*
X30300Y46700D02*
X30600Y46400D01*
X29353Y32827D02*
X29426Y32900D01*
X30156Y48456D02*
X31089D01*
X30000Y46400D02*
Y48300D01*
X35112Y35800D02*
Y36188D01*
X29353Y36727D02*
X29426Y36800D01*
X28900Y36650D02*
Y36700D01*
X29500Y46400D02*
Y48300D01*
X35112Y39700D02*
Y40088D01*
X28511Y48456D02*
X29344D01*
X29353Y40627D02*
X29426Y40700D01*
X29353Y44527D02*
X29426Y44600D01*
X35112Y43600D02*
Y43988D01*
X28511Y48200D02*
X29200D01*
X29000Y46400D02*
X29300Y46700D01*
X29353Y56227D02*
X29426Y56300D01*
X35112Y55300D02*
Y55688D01*
X28900Y56150D02*
Y56300D01*
X27700Y52300D02*
X27944Y52056D01*
X28511D01*
X29353Y60127D02*
X29426Y60200D01*
X35112Y59200D02*
Y59588D01*
X29300Y52000D02*
Y53300D01*
X28511Y51800D02*
X29100D01*
X35112Y63100D02*
Y63488D01*
X30344Y52056D02*
X31089D01*
X29800Y52600D02*
X30344Y52056D01*
X29353Y64027D02*
X29426Y64100D01*
X35112Y67000D02*
Y67388D01*
X30000Y51800D02*
X31089D01*
X29800Y52000D02*
X30000Y51800D01*
X29353Y67927D02*
X29426Y68000D01*
X63065Y57535D02*
X63400D01*
X63065Y49735D02*
X63400D01*
X63000Y57600D02*
X63065Y57535D01*
X62514Y57598D02*
X62998D01*
X63000Y57209D02*
Y57600D01*
X62514Y57205D02*
X62995D01*
X62514Y56086D02*
Y56417D01*
Y49798D02*
X62998D01*
X63065Y41935D02*
X63400D01*
X63065Y34135D02*
X63400D01*
X63000Y49800D02*
X63065Y49735D01*
X63000Y49409D02*
Y49800D01*
Y42000D02*
X63065Y41935D01*
X63000Y41609D02*
Y42000D01*
X62514Y49405D02*
X62995D01*
X62514Y48286D02*
Y48617D01*
Y41998D02*
X62998D01*
X62514Y41605D02*
X62995D01*
X63000Y34200D02*
X63065Y34135D01*
X62514Y40486D02*
Y40817D01*
X63000Y33809D02*
Y34200D01*
X62514Y34198D02*
X62998D01*
X62514Y33805D02*
X62995D01*
X62514Y32686D02*
Y33017D01*
X60605Y63295D02*
Y63686D01*
X59335Y67800D02*
X59535Y68000D01*
X59335Y60000D02*
X59535Y60200D01*
X59865Y52200D02*
Y52400D01*
X59335Y52200D02*
X59535Y52400D01*
X59865Y44131D02*
Y44600D01*
X59817Y43514D02*
Y44083D01*
X59335Y44400D02*
X59535Y44600D01*
X59865Y36331D02*
Y36800D01*
X59817Y36283D02*
X59865Y36331D01*
X59800Y36700D02*
X59817Y36683D01*
Y35714D02*
Y36683D01*
X59535Y36800D02*
X59865D01*
X59335Y36600D02*
X59535Y36800D01*
X39168Y67000D02*
X39600D01*
X39168Y63100D02*
X39600D01*
X39168Y59200D02*
X39600D01*
X39168Y55300D02*
X39600D01*
X39168Y51400D02*
X39600D01*
X39168Y47500D02*
X39600D01*
X39168Y43600D02*
X39600D01*
X39168Y39700D02*
X39600D01*
X39168Y35800D02*
X39600D01*
X39168Y31900D02*
X39600D01*
X35700Y67000D02*
X35765Y66935D01*
X35368Y67000D02*
X35700D01*
Y63100D02*
X35765Y63035D01*
X35368Y63100D02*
X35700D01*
Y59200D02*
X35765Y59135D01*
X35700Y55300D02*
X35765Y55235D01*
X35700Y51400D02*
X35765Y51335D01*
X35368Y59200D02*
X35700D01*
X35368Y55300D02*
X35700D01*
X35368Y51400D02*
X35700D01*
X31544Y51544D02*
X31800Y51800D01*
X31089Y51544D02*
X31544D01*
X35700Y47500D02*
X35765Y47435D01*
X35368Y47500D02*
X35700D01*
Y43600D02*
X35765Y43535D01*
X31089Y47944D02*
X31756D01*
X35368Y43600D02*
X35700D01*
Y39700D02*
X35765Y39635D01*
X35700Y35800D02*
X35765Y35735D01*
X35700Y31900D02*
X35765Y31835D01*
X35368Y39700D02*
X35700D01*
X35368Y35800D02*
X35700D01*
X35368Y31900D02*
X35700D01*
X66616Y68235D02*
X67300D01*
X66448Y68402D02*
X66616Y68235D01*
X60014Y63014D02*
Y63686D01*
X59300Y63500D02*
X59700Y63100D01*
X59235Y63500D02*
X59300D01*
X59700Y63100D02*
X60000D01*
X59309Y62300D02*
Y62309D01*
X60014Y55214D02*
Y55886D01*
X59300Y55700D02*
X59700Y55300D01*
X60000D01*
X59309Y54500D02*
Y54509D01*
X59235Y55700D02*
X59300D01*
X42900Y61400D02*
X43200Y61100D01*
X42800Y65300D02*
X43104Y64996D01*
X38031Y68032D02*
X38400D01*
X38000Y68000D02*
X38031Y68032D01*
Y64131D02*
X38400D01*
X38000Y64100D02*
X38031Y64131D01*
X43200Y61100D02*
X43300D01*
X43204Y57196D02*
X43289D01*
X42800Y57600D02*
X43204Y57196D01*
X38031Y60231D02*
X38400D01*
X38000Y60200D02*
X38031Y60231D01*
X42900Y53600D02*
X43204Y53296D01*
X43289D01*
X38031Y56332D02*
X38400D01*
X38000Y56300D02*
X38031Y56332D01*
X59235Y47900D02*
X59300D01*
X60014Y47414D02*
Y48086D01*
X59300Y47900D02*
X59700Y47500D01*
X60000D01*
X59309Y46700D02*
Y46709D01*
X60014Y39614D02*
Y40286D01*
X59700Y39700D02*
X60000D01*
X59300Y40100D02*
X59700Y39700D01*
X59309Y38900D02*
Y38909D01*
X59235Y40100D02*
X59300D01*
X60014Y31814D02*
Y32486D01*
X59700Y31900D02*
X60000D01*
X59300Y32300D02*
X59700Y31900D01*
X59235Y32300D02*
X59300D01*
X59309Y31100D02*
Y31109D01*
X43289Y49396D02*
Y49689D01*
X43204Y45496D02*
X43289D01*
X42800Y45900D02*
X43204Y45496D01*
X38031Y52432D02*
X38400D01*
X38000Y52400D02*
X38031Y52432D01*
Y48531D02*
X38400D01*
X38000Y48500D02*
X38031Y48531D01*
X42700Y41900D02*
X43004Y41596D01*
X38031Y44632D02*
X38400D01*
X38000Y44600D02*
X38031Y44632D01*
X43289Y37696D02*
Y37711D01*
X43000Y38000D02*
X43289Y37711D01*
X38031Y40732D02*
X38400D01*
X38000Y40700D02*
X38031Y40732D01*
Y36832D02*
X38400D01*
X38000Y36800D02*
X38031Y36832D01*
Y32931D02*
X38400D01*
X38000Y32900D02*
X38031Y32931D01*
X34600Y68032D02*
Y68100D01*
Y64131D02*
Y64200D01*
X34200Y68300D02*
X34469Y68032D01*
X34600D01*
X34469Y64131D02*
X34600D01*
X34200Y64400D02*
X34469Y64131D01*
X34200Y60500D02*
X34469Y60231D01*
X34600D02*
Y60300D01*
X34469Y60231D02*
X34600D01*
X34200Y56600D02*
X34469Y56332D01*
X34600D02*
Y56400D01*
X34469Y56332D02*
X34600D01*
Y52432D02*
Y52500D01*
X34469Y52432D02*
X34600D01*
X34200Y52700D02*
X34469Y52432D01*
X31089Y51288D02*
X31788D01*
X27844Y51544D02*
X28511D01*
X34600Y48531D02*
Y48600D01*
X34469Y48531D02*
X34600D01*
X34200Y48800D02*
X34469Y48531D01*
X34600Y44632D02*
Y44700D01*
X34469Y44632D02*
X34600D01*
X34200Y44900D02*
X34469Y44632D01*
X34200Y41000D02*
X34469Y40732D01*
X34600D02*
Y40800D01*
X34469Y40732D02*
X34600D01*
X34200Y37100D02*
X34469Y36832D01*
X34600D02*
Y36900D01*
X34469Y36832D02*
X34600D01*
X34200Y33200D02*
X34469Y32931D01*
X34600D02*
Y33000D01*
X34469Y32931D02*
X34600D01*
X31612Y47688D02*
X31800Y47500D01*
X31089Y47688D02*
X31612D01*
X27800Y48100D02*
X27956Y47944D01*
X28511D01*
X67300Y67565D02*
X67765D01*
X66074Y66874D02*
Y67300D01*
X66000Y66800D02*
X66074Y66874D01*
X65700Y67000D02*
Y67300D01*
X64900Y67100D02*
Y67565D01*
X63257Y64808D02*
X63400Y64665D01*
X63346Y64611D02*
X63400Y64665D01*
X62514Y64611D02*
X63346D01*
X63000Y64500D02*
Y64611D01*
X63400Y64200D02*
Y64665D01*
X62514Y64414D02*
X62914D01*
X60802Y66502D02*
Y66914D01*
X60582Y66300D02*
X60784Y66502D01*
X60408Y66474D02*
Y66914D01*
Y66474D02*
X60582Y66300D01*
X60211Y66389D02*
Y66914D01*
X60400Y63694D02*
X60408Y63686D01*
X60300Y66300D02*
X60582D01*
X61983Y63217D02*
Y63686D01*
X61933Y63167D02*
X61983Y63217D01*
X61900Y63100D02*
Y63200D01*
X61786Y63214D02*
Y63686D01*
Y63214D02*
X61900Y63100D01*
X60408Y63208D02*
Y63686D01*
X60211Y63189D02*
Y64089D01*
X60300Y63100D02*
X60408Y63208D01*
X60491Y62300D02*
Y62909D01*
X60211Y63189D02*
X60491Y62909D01*
X63257Y57008D02*
X63400Y56865D01*
X63346Y56811D02*
X63400Y56865D01*
X63000Y56700D02*
Y56811D01*
X62514D02*
X63346D01*
X62514Y56614D02*
X62914D01*
X64050Y54650D02*
X64647D01*
X64000Y54600D02*
X64050Y54650D01*
X60802Y58702D02*
Y59114D01*
X60582Y58500D02*
X60784Y58702D01*
X60408Y58674D02*
X60582Y58500D01*
X60408Y58674D02*
Y59114D01*
X60300Y58500D02*
X60582D01*
X60211Y58589D02*
Y59114D01*
X60400Y55894D02*
X60408Y55886D01*
X60491Y54500D02*
X61100D01*
X60802Y50902D02*
Y51314D01*
X60582Y50700D02*
X60784Y50902D01*
X60408Y50874D02*
X60582Y50700D01*
X60408Y55408D02*
Y55886D01*
X60300Y55300D02*
X60408Y55408D01*
X60491Y54500D02*
Y55109D01*
X60211Y55389D02*
X60491Y55109D01*
X60408Y50874D02*
Y51314D01*
X60300Y50700D02*
X60582D01*
X58614Y66186D02*
X59286D01*
X58705Y65005D02*
X59286D01*
X58792Y64808D02*
X59286D01*
X58665Y67335D02*
Y67800D01*
X58335Y65000D02*
X58700D01*
X58500Y66300D02*
X58614Y66186D01*
X58300Y64965D02*
X58335Y65000D01*
X58814Y64414D02*
X59286D01*
X58700Y64300D02*
X58783Y64217D01*
X58565Y64165D02*
X58814Y64414D01*
X59817Y63686D02*
Y64183D01*
X58783Y64217D02*
X59783D01*
X58565Y63500D02*
Y64165D01*
X58665Y59535D02*
Y60000D01*
X58500Y58500D02*
X58614Y58386D01*
X59286D01*
X58783Y56417D02*
X59783D01*
X58705Y57205D02*
X59286D01*
X58792Y57008D02*
X59286D01*
X58814Y56614D02*
X59286D01*
X58700Y56500D02*
X58783Y56417D01*
X58565Y56365D02*
X58814Y56614D01*
X60211Y55389D02*
Y56289D01*
X59817Y55886D02*
Y56383D01*
X60211Y50789D02*
Y51314D01*
X58614Y50586D02*
X59286D01*
X58665Y51735D02*
Y52200D01*
X58565Y55700D02*
Y56365D01*
X58500Y50700D02*
X58614Y50586D01*
X58705Y49405D02*
X59286D01*
X58792Y49208D02*
X59286D01*
X58335Y57200D02*
X58700D01*
X58300Y57165D02*
X58335Y57200D01*
Y49400D02*
X58700D01*
X58300Y49365D02*
X58335Y49400D01*
X63257Y49208D02*
X63400Y49065D01*
X63346Y49011D02*
X63400Y49065D01*
X63000Y48900D02*
Y49011D01*
X62514D02*
X63346D01*
X62514Y48814D02*
X62914D01*
X63346Y41211D02*
X63400Y41265D01*
X63257Y41408D02*
X63400Y41265D01*
X63000Y41100D02*
Y41211D01*
X62514D02*
X63346D01*
X62514Y41014D02*
X62914D01*
X60491Y46700D02*
X61100D01*
X60400Y48094D02*
X60408Y48086D01*
Y47608D02*
Y48086D01*
X60300Y47500D02*
X60408Y47608D01*
X60491Y46700D02*
Y47309D01*
X60211Y47589D02*
X60491Y47309D01*
X60802Y43102D02*
Y43514D01*
X60582Y42900D02*
X60784Y43102D01*
X60408Y43074D02*
Y43514D01*
Y43074D02*
X60582Y42900D01*
X60300D02*
X60582D01*
X63257Y33608D02*
X63400Y33465D01*
X63346Y33411D02*
X63400Y33465D01*
X63000Y33300D02*
Y33411D01*
X62514D02*
X63346D01*
X62514Y33214D02*
X62914D01*
X60491Y38900D02*
X61100D01*
X60802Y35302D02*
Y35714D01*
X60582Y35100D02*
X60784Y35302D01*
X60408Y35274D02*
X60582Y35100D01*
X60400Y40294D02*
X60408Y40286D01*
Y39808D02*
Y40286D01*
X60491Y38900D02*
Y39509D01*
X60300Y39700D02*
X60408Y39808D01*
X60211Y39789D02*
X60491Y39509D01*
X60408Y35274D02*
Y35714D01*
X60300Y35100D02*
X60582D01*
X60700Y31100D02*
X61100Y31500D01*
X60400Y32494D02*
X60408Y32486D01*
Y32008D02*
Y32486D01*
X60491Y31100D02*
Y31709D01*
X60300Y31900D02*
X60408Y32008D01*
X60491Y31100D02*
X60700D01*
X60211Y31989D02*
X60491Y31709D01*
X58783Y48617D02*
X59783D01*
X60211Y47589D02*
Y48489D01*
X59817Y48086D02*
Y48583D01*
X60211Y42989D02*
Y43514D01*
X58814Y48814D02*
X59286D01*
X58700Y48700D02*
X58783Y48617D01*
X58565Y48565D02*
X58814Y48814D01*
X58565Y47900D02*
Y48565D01*
X58665Y43935D02*
Y44400D01*
X58614Y42786D02*
X59286D01*
X58500Y42900D02*
X58614Y42786D01*
X60211Y39789D02*
Y40689D01*
X59817Y40286D02*
Y40783D01*
X58783Y40817D02*
X59783D01*
X58705Y41605D02*
X59286D01*
X58792Y41408D02*
X59286D01*
X58814Y41014D02*
X59286D01*
X58700Y40900D02*
X58783Y40817D01*
X58565Y40765D02*
X58814Y41014D01*
X58565Y40100D02*
Y40765D01*
X58335Y41600D02*
X58700D01*
X58300Y41565D02*
X58335Y41600D01*
X60211Y35189D02*
Y36171D01*
X58614Y34986D02*
X59286D01*
X58705Y33805D02*
X59286D01*
X58665Y36135D02*
Y36600D01*
X58500Y35100D02*
X58614Y34986D01*
X58335Y33800D02*
X58700D01*
X58300Y33765D02*
X58335Y33800D01*
X58783Y33017D02*
X59783D01*
X58792Y33608D02*
X59286D01*
X60211Y31989D02*
Y32889D01*
X59817Y32486D02*
Y32983D01*
X58814Y33214D02*
X59286D01*
X58700Y33100D02*
X58783Y33017D01*
X58565Y32965D02*
X58814Y33214D01*
X58565Y32300D02*
Y32965D01*
X42572Y68128D02*
X43289D01*
X40711Y66989D02*
Y67104D01*
Y66989D02*
X41100Y66600D01*
X42572Y64228D02*
X43289D01*
X40711Y63089D02*
Y63204D01*
Y63089D02*
X41100Y62700D01*
X42572Y60328D02*
X43289D01*
X40711Y59189D02*
X41100Y58800D01*
X40711Y59189D02*
Y59304D01*
X42572Y56428D02*
X43289D01*
X40711Y55289D02*
Y55404D01*
X42628Y52528D02*
X43289D01*
X42300Y52200D02*
X42628Y52528D01*
X40711Y55289D02*
X41100Y54900D01*
X40711Y51389D02*
X41100Y51000D01*
X40711Y51389D02*
Y51504D01*
X38656Y66544D02*
Y67000D01*
Y62644D02*
Y63100D01*
X34856Y66570D02*
Y67000D01*
Y62670D02*
Y63100D01*
X38656Y58744D02*
Y59200D01*
Y54844D02*
Y55300D01*
Y50944D02*
Y51400D01*
X34856Y58770D02*
Y59200D01*
Y54870D02*
Y55300D01*
Y50970D02*
Y51400D01*
X28511Y51288D02*
X29188D01*
X42572Y48628D02*
X43289D01*
X40711Y47489D02*
Y47604D01*
Y47489D02*
X41100Y47100D01*
X42572Y44728D02*
X43289D01*
X40711Y43589D02*
Y43704D01*
Y43589D02*
X41100Y43200D01*
X42572Y40828D02*
X43289D01*
X42572Y36928D02*
X43289D01*
X40096Y39804D02*
X40711D01*
X40000Y39900D02*
X40096Y39804D01*
X40711Y35789D02*
Y35904D01*
X42572Y33028D02*
X43289D01*
X40711Y35789D02*
X41100Y35400D01*
X40711Y31889D02*
Y32004D01*
Y31889D02*
X41100Y31500D01*
X38656Y47044D02*
Y47500D01*
Y43144D02*
Y43600D01*
X34856Y47070D02*
Y47500D01*
X27812Y47688D02*
X28511D01*
X34856Y43170D02*
Y43600D01*
X38656Y39244D02*
Y39700D01*
Y35344D02*
Y35800D01*
Y31444D02*
Y31900D01*
X34856Y39270D02*
Y39700D01*
Y35370D02*
Y35800D01*
Y31470D02*
Y31900D01*
X56611Y65989D02*
X59286D01*
X38600Y58100D02*
X43726D01*
X38100Y59200D02*
X38400D01*
Y62000D02*
X43726D01*
X38200Y63100D02*
X38400D01*
X38100Y63000D02*
X38200Y63100D01*
X59817Y59114D02*
Y59683D01*
X59865Y59731D01*
X64900Y68235D02*
X65068Y68402D01*
X60605Y67405D02*
X60685Y67485D01*
X62715D01*
X64000Y66200D01*
Y64300D02*
Y66200D01*
X60408Y67677D02*
X62923D01*
X60014Y67284D02*
X60408Y67677D01*
X62923D02*
X64200Y66400D01*
Y64000D02*
Y66400D01*
X59817Y66914D02*
Y67483D01*
X59865Y67531D01*
Y68000D01*
X52800Y34100D02*
Y36100D01*
X52900Y36200D01*
X52800Y38000D02*
Y40000D01*
X52900Y40100D01*
X52800Y45700D02*
Y47800D01*
X52900Y42000D02*
Y44000D01*
X52800Y47800D02*
X52900Y47900D01*
X52800Y49600D02*
Y51700D01*
X52900Y51800D01*
X52800Y53600D02*
Y55600D01*
X52900Y55700D01*
X52800Y57400D02*
Y59500D01*
X52900Y59600D01*
X53800Y32400D02*
Y32500D01*
Y48000D02*
Y48100D01*
Y55800D02*
Y55900D01*
Y36300D02*
X54072Y36572D01*
X53972Y32672D02*
X54383D01*
X53800Y40200D02*
X54072Y40472D01*
Y36572D02*
X54383D01*
X54072Y40472D02*
X54383D01*
X53800Y44100D02*
X54072Y44372D01*
X54383D01*
X53800Y51900D02*
X54072Y52172D01*
X53972Y48272D02*
X54383D01*
X54072Y52172D02*
X54383D01*
X53800Y59700D02*
X54072Y59972D01*
X53972Y56072D02*
X54383D01*
X54072Y59972D02*
X54383D01*
X53800Y63600D02*
Y63700D01*
X53972Y63872D02*
X54383D01*
X53800Y67500D02*
X54072Y67772D01*
X54383D01*
X64080Y61320D02*
X65000Y60400D01*
Y56400D02*
Y60400D01*
X63950Y54150D02*
X64647D01*
X62514Y65792D02*
X63292D01*
X63500Y66000D01*
X64080Y61320D02*
Y62980D01*
X64700Y63600D01*
Y64900D01*
X63800Y61200D02*
X64500Y60500D01*
X63800Y61200D02*
Y63100D01*
X64400Y63700D01*
X61000Y52000D02*
X61100Y51900D01*
X62100D02*
X62800Y51200D01*
X61100Y51900D02*
X62100D01*
X62204Y52096D02*
X62800Y51500D01*
X61446Y52096D02*
X62204D01*
X63500Y51500D02*
X64100Y50900D01*
X62800Y51500D02*
X63500D01*
X64100Y48500D02*
Y50900D01*
X61500Y54400D02*
X61933Y54833D01*
X62233D02*
X63900Y56500D01*
X61500Y54100D02*
Y54400D01*
X61933Y54833D02*
X62233D01*
X61800Y54300D02*
X62000Y54500D01*
X61100Y52900D02*
Y53300D01*
X61800Y54000D02*
Y54300D01*
X62000Y54500D02*
X62300D01*
X64100Y56300D01*
X61100Y53300D02*
X61800Y54000D01*
X60600Y53200D02*
X61500Y54100D01*
X63200Y44539D02*
Y46650D01*
Y44539D02*
X64500Y43239D01*
X60900Y44000D02*
X63000D01*
X64100Y42900D01*
Y40700D02*
Y42900D01*
X60802Y32486D02*
Y32998D01*
X60700Y33100D02*
X60998Y32802D01*
X61900Y31900D02*
Y31935D01*
X61786Y32014D02*
X61900Y31900D01*
X62200D01*
X61786Y32014D02*
Y32486D01*
X61983Y32017D02*
Y32486D01*
X62200Y31900D02*
X62300Y32000D01*
X62800D02*
X63400Y32600D01*
Y33465D01*
X61000Y31800D02*
X61195Y31995D01*
X60605Y32095D02*
Y32486D01*
X60800Y31800D02*
Y31900D01*
Y31800D02*
X61000D01*
X61195Y31995D02*
Y32486D01*
X61900Y39700D02*
Y39735D01*
X61786Y39814D02*
X61900Y39700D01*
X62200D01*
X61786Y39814D02*
Y40286D01*
X61983Y39817D02*
Y40286D01*
X62200Y39700D02*
X62300Y39800D01*
X63400Y40400D02*
Y41265D01*
X60900Y39600D02*
X61195Y39895D01*
X60605D02*
Y40286D01*
X60800Y39600D02*
Y39700D01*
Y39600D02*
X60900D01*
X61195Y39895D02*
Y40286D01*
X60995Y40798D02*
X60998Y40802D01*
X60700Y40900D02*
X60802Y40798D01*
Y40286D02*
Y40798D01*
X60995D01*
X60998Y40286D02*
Y40802D01*
X61786Y47614D02*
X61900Y47500D01*
Y47535D01*
X61786Y47614D02*
Y48086D01*
X61900Y47500D02*
X62400D01*
X61983Y47617D02*
Y48086D01*
X62400Y47500D02*
X63400Y48500D01*
Y49065D01*
X61000Y47400D02*
X61195Y47595D01*
X60605Y47695D02*
Y48086D01*
X60800Y47400D02*
Y47500D01*
Y47400D02*
X61000D01*
X61195Y47595D02*
Y48086D01*
X61786Y55414D02*
X61900Y55300D01*
X62400D01*
X61786Y55414D02*
Y55886D01*
X61900Y55300D02*
Y55335D01*
X61983Y55417D02*
Y55886D01*
X62400Y55300D02*
X63400Y56300D01*
Y56865D01*
X61100Y55200D02*
X61195Y55295D01*
X60605Y55495D02*
Y55886D01*
X60800Y55200D02*
Y55300D01*
Y55200D02*
X61100D01*
X61195Y55295D02*
Y55886D01*
X61000Y63000D02*
X61195Y63195D01*
X60800Y63000D02*
X61000D01*
X61195Y63195D02*
Y63686D01*
X62514Y63886D02*
Y64217D01*
Y65005D02*
X62995D01*
X63000Y65009D02*
Y65400D01*
X62514Y65398D02*
X62998D01*
X63000Y65400D02*
X63065Y65335D01*
X63400D01*
X42400Y62900D02*
Y63200D01*
Y62900D02*
X43000Y62300D01*
X42716Y64484D02*
X43289D01*
X42500Y64700D02*
X42716Y64484D01*
X43289Y58911D02*
Y59304D01*
X43300Y58900D02*
X43400Y58800D01*
X57600Y59200D02*
Y59226D01*
X57765Y57835D02*
X58300D01*
X57600Y59200D02*
X58000Y58800D01*
X75848Y34627D02*
Y35752D01*
X75800Y35800D02*
X75848Y35752D01*
X62000Y42100D02*
X62095Y42195D01*
X62000Y41700D02*
X62102Y41802D01*
X62514D01*
X62095Y42195D02*
X62514D01*
X62000Y41500D02*
Y42100D01*
X62092Y41408D02*
X63257D01*
X62000Y65500D02*
X62095Y65595D01*
X62000Y65100D02*
X62102Y65202D01*
X62514D01*
X62095Y65595D02*
X62514D01*
X62000Y64900D02*
Y65500D01*
X62092Y64808D02*
X63257D01*
X62000Y57700D02*
X62095Y57795D01*
X62000Y57300D02*
X62102Y57402D01*
X62514D01*
X62095Y57795D02*
X62514D01*
X62000Y57100D02*
Y57700D01*
X62092Y57008D02*
X63257D01*
X63900Y48600D02*
Y50600D01*
X60605Y35714D02*
Y36305D01*
Y43514D02*
Y44295D01*
Y51314D02*
Y51995D01*
X60600Y52000D02*
X60605Y51995D01*
Y36305D02*
X60900Y36600D01*
X60600Y45600D02*
X60900D01*
X60600Y52800D02*
Y53200D01*
X60605Y59114D02*
Y59895D01*
X60600Y59900D02*
X60605Y59895D01*
Y66914D02*
Y67405D01*
X60600Y52000D02*
X61000D01*
X60600Y59900D02*
X61100D01*
X60600Y60900D02*
X64000Y64300D01*
X60900Y36600D02*
Y36700D01*
Y37800D02*
X61200D01*
X63200Y36600D02*
X63900D01*
X62800Y51200D02*
X63300D01*
X60600Y44300D02*
X60900Y44000D01*
Y45600D02*
X63900Y48600D01*
X63300Y51200D02*
X63900Y50600D01*
X62000Y49900D02*
X62095Y49995D01*
X62000Y49500D02*
X62102Y49602D01*
X62514D01*
X62095Y49995D02*
X62514D01*
X62000Y49300D02*
Y49900D01*
X62092Y49208D02*
X63257D01*
X62000Y34300D02*
X62095Y34395D01*
X62000Y33900D02*
X62102Y34002D01*
X62514D01*
X62095Y34395D02*
X62514D01*
X62000Y33700D02*
Y34300D01*
X62092Y33608D02*
X63257D01*
X44100Y67274D02*
X44400Y66974D01*
X44100Y67274D02*
Y68500D01*
X44344Y68744D01*
X43760Y67360D02*
X43900Y67500D01*
Y68800D01*
X43804Y68896D02*
X43900Y68800D01*
X43289Y67360D02*
X43760D01*
X42604Y68896D02*
X43804D01*
X43104Y64996D02*
X43289D01*
X42604Y33796D02*
X43396D01*
X43004Y41596D02*
X43200D01*
X31300Y50400D02*
X33700D01*
X31089Y50611D02*
Y51032D01*
X58700Y42300D02*
X58800D01*
X58805Y42195D02*
X59286D01*
X58700Y42300D02*
X58805Y42195D01*
X58700Y42300D02*
X58792Y42392D01*
X59286D01*
X58700Y50100D02*
X58800D01*
X58805Y49995D02*
X59286D01*
X58700Y50100D02*
X58805Y49995D01*
X58700Y50100D02*
X58792Y50192D01*
X59286D01*
X58700Y57900D02*
X58800D01*
X58805Y57795D02*
X59286D01*
X58700Y57900D02*
X58805Y57795D01*
X58700Y57900D02*
X58792Y57992D01*
X59286D01*
X58700Y65700D02*
X58800D01*
X58805Y65595D02*
X59286D01*
X58700Y65700D02*
X58805Y65595D01*
X58700Y65700D02*
X58792Y65792D01*
X59286D01*
X60800Y64300D02*
X60998Y64102D01*
X60802Y63686D02*
Y64198D01*
X60700Y64300D02*
X60802Y64198D01*
X60998Y63686D02*
Y64102D01*
X60500Y64300D02*
X60800D01*
X60995Y56398D02*
X60998Y56402D01*
X60700Y56500D02*
X60802Y56398D01*
Y55886D02*
Y56398D01*
X60995D01*
X60998Y55886D02*
Y56402D01*
X60900Y48700D02*
X60998Y48602D01*
X60700Y48700D02*
X60802Y48598D01*
Y48086D02*
Y48598D01*
X60998Y48086D02*
Y48602D01*
X60500Y48700D02*
X60900D01*
X58700Y34500D02*
X58800D01*
X58805Y34395D02*
X59286D01*
X58700Y34500D02*
X58805Y34395D01*
X58700Y34500D02*
X58792Y34592D01*
X59286D01*
X62514Y42392D02*
X63492D01*
X63700Y42600D01*
X64400Y50400D02*
X64500Y50500D01*
X64150Y52650D02*
X64647D01*
X62514Y34789D02*
X62889D01*
X62514Y42589D02*
X62989D01*
X62514Y50389D02*
X62989D01*
Y42589D02*
X63400Y43000D01*
X63200Y50600D02*
Y50700D01*
X62514Y58189D02*
X63089D01*
X62514Y65989D02*
X62889D01*
X63089Y58189D02*
X63400Y58500D01*
X62889Y65989D02*
X63300Y66400D01*
X63600Y44700D02*
Y46300D01*
X64597D01*
X63500Y51900D02*
X63700D01*
X64600Y57700D02*
Y58600D01*
X64400Y65900D02*
X64500Y66000D01*
X64900Y40700D02*
Y43400D01*
X64500Y58600D02*
Y60500D01*
Y58700D02*
X64600Y58600D01*
X64250Y47250D02*
X64647D01*
X64000Y47000D02*
X64250Y47250D01*
X63500Y46750D02*
X63650Y46600D01*
X60014Y35714D02*
Y36214D01*
Y51314D02*
Y51814D01*
X60871Y52671D02*
X61446Y52096D01*
X60000Y59114D02*
Y59449D01*
X60014Y66914D02*
Y67284D01*
X60788Y60588D02*
X61476Y59900D01*
X63100Y46750D02*
X63200Y46650D01*
X64200Y46600D02*
X64350Y46750D01*
X60014Y51814D02*
X61100Y52900D01*
X60100Y59900D02*
X64200Y64000D01*
X62439Y46750D02*
X63500D01*
X63650Y46600D02*
X64200D01*
X64350Y46750D02*
X64647D01*
X62514Y34592D02*
X63192D01*
X63200Y47000D02*
Y47100D01*
X63900Y45000D02*
Y45800D01*
X63544Y47344D02*
X63944D01*
X64350Y47750D01*
X64647D01*
X63200Y47000D02*
X63544Y47344D01*
D40*
X77292Y38308D02*
X77500Y38100D01*
Y33400D02*
Y38100D01*
X76400Y32300D02*
X77500Y33400D01*
X74900Y32300D02*
X76400D01*
X73989Y31389D02*
X74900Y32300D01*
X78500Y40700D02*
Y42700D01*
X78200Y43000D02*
X78500Y42700D01*
X78100Y43000D02*
X78200D01*
X77400Y42300D02*
X78100Y43000D01*
X77400Y42100D02*
Y42300D01*
X77348Y42048D02*
X77400Y42100D01*
X76000Y51900D02*
X76600Y51300D01*
X73900Y51900D02*
X76000D01*
X73626Y51626D02*
X73900Y51900D01*
X78300Y43500D02*
X79000Y42800D01*
X76500Y43500D02*
X78300D01*
X76045Y43045D02*
X76500Y43500D01*
X69352Y41748D02*
X70000Y41100D01*
X74700D01*
X76000Y42400D01*
X76100D01*
X76500Y42800D01*
X69700Y43900D02*
Y47000D01*
X69352Y43552D02*
X69700Y43900D01*
X69000Y46781D02*
Y47400D01*
X69119Y46781D02*
X69400Y46500D01*
X68700Y47700D02*
X69000Y47400D01*
Y46781D02*
X69119D01*
X79000Y42200D02*
Y42800D01*
X76045Y42973D02*
Y43045D01*
X78500Y40700D02*
X79000Y40200D01*
X76773Y42048D02*
X77348D01*
X77400Y39600D02*
X78000Y40200D01*
X76500Y42800D02*
X77000D01*
X69600Y47100D02*
X69700Y47000D01*
X69352Y41748D02*
Y43552D01*
X76773Y38308D02*
X77292D01*
X73400Y31389D02*
X73989D01*
X76773Y34827D02*
Y35355D01*
Y34827D02*
X76900Y34700D01*
X76600Y45100D02*
Y51300D01*
X78500Y36300D02*
X79000Y35800D01*
X78500Y36300D02*
Y39000D01*
X73000Y51626D02*
X73626D01*
X74470Y42973D02*
Y43570D01*
X69000Y44419D02*
Y45400D01*
Y44419D02*
X69381D01*
X66809Y32983D02*
Y34791D01*
X68824Y31950D02*
X69550D01*
X68824Y31450D02*
X69490D01*
X68824Y31056D02*
Y31450D01*
X67991Y34000D02*
X68900D01*
X75454Y34627D02*
Y35454D01*
X75800Y35800D01*
X44100Y63374D02*
Y64600D01*
X44374Y64874D01*
X44100Y63374D02*
X44400Y63074D01*
X44374Y64874D02*
X44600D01*
X44100Y43874D02*
Y45000D01*
Y43874D02*
X44400Y43574D01*
X44100Y45000D02*
X44400Y45300D01*
X82300Y43000D02*
Y42400D01*
X82700D01*
X82900D02*
Y42800D01*
X83100Y43000D01*
X83300Y42800D01*
Y42400D01*
Y42700D01*
X82900D01*
X83500Y43000D02*
Y42900D01*
X83700Y42700D01*
X83899Y42900D01*
Y43000D01*
X83700Y42700D02*
Y42400D01*
X84499Y43000D02*
X84099D01*
Y42400D01*
X84499D01*
X84099Y42700D02*
X84299D01*
X84699Y42400D02*
Y43000D01*
X84999D01*
X85099Y42900D01*
Y42700D01*
X84999Y42600D01*
X84699D01*
X84899D02*
X85099Y42400D01*
X85899D02*
X86099D01*
X85999D01*
Y43000D01*
X85899Y42900D01*
D41*
X55600Y31700D02*
Y32300D01*
X55500Y32400D02*
X55516Y32416D01*
X55600Y35600D02*
Y36200D01*
X55500Y36300D02*
X55516Y36316D01*
X55600Y39500D02*
Y40100D01*
X55500Y40200D02*
X55516Y40216D01*
X55600Y43400D02*
Y44000D01*
X55500Y44100D02*
X55516Y44116D01*
X55600Y47300D02*
Y47900D01*
X55500Y48000D02*
X55516Y48016D01*
X55600Y51200D02*
Y51800D01*
X55500Y51900D02*
X55516Y51916D01*
X55600Y55100D02*
Y55700D01*
X55500Y55800D02*
X55516Y55816D01*
X55600Y59000D02*
Y59600D01*
X55500Y59700D02*
X55516Y59716D01*
X55600Y62900D02*
Y63500D01*
X55500Y63600D02*
X55516Y63616D01*
X55600Y66800D02*
Y67400D01*
X55500Y67500D02*
X55516Y67516D01*
Y32416D02*
X56017D01*
X55500Y31600D02*
Y32400D01*
Y31600D02*
X55600Y31700D01*
X55516Y36316D02*
X56017D01*
X55500Y35500D02*
X55600Y35600D01*
X55500Y35500D02*
Y36300D01*
X55516Y40216D02*
X56017D01*
X55500Y39400D02*
X55600Y39500D01*
X55500Y39400D02*
Y40200D01*
X55516Y44116D02*
X56017D01*
X55500Y43300D02*
X55600Y43400D01*
X55500Y43300D02*
Y44100D01*
X55516Y48016D02*
X56017D01*
X55500Y47200D02*
X55600Y47300D01*
X55500Y47200D02*
Y48000D01*
X55516Y51916D02*
X56017D01*
X55500Y51100D02*
X55600Y51200D01*
X55500Y51100D02*
Y51900D01*
X55516Y55816D02*
X56017D01*
X55500Y55000D02*
X55600Y55100D01*
X55500Y55000D02*
Y55800D01*
X55516Y59716D02*
X56017D01*
X55500Y58900D02*
X55600Y59000D01*
X55500Y58900D02*
Y59700D01*
X55516Y63616D02*
X56017D01*
X55500Y62800D02*
X55600Y62900D01*
X55500Y62800D02*
Y63600D01*
X55516Y67516D02*
X56017D01*
X55500Y66700D02*
X55600Y66800D01*
X55500Y66700D02*
Y67500D01*
D42*
X74800Y33200D02*
X75400D01*
X74711Y31389D02*
X75400D01*
X73400D02*
X73789D01*
X64800Y62935D02*
X64968Y63102D01*
X71181Y58981D02*
X72019D01*
X73400Y33200D02*
X74200D01*
X68824Y32950D02*
Y33324D01*
X67350Y32950D02*
X67600Y32700D01*
X67350Y32450D02*
X67600Y32700D01*
X66776Y32950D02*
X67350D01*
X66200Y34000D02*
X66809D01*
X66776Y32450D02*
X67350D01*
X66700Y63200D02*
X66965Y62935D01*
X66446Y63200D02*
X66700D01*
X66348Y63102D02*
X66446Y63200D01*
X66965Y62935D02*
X67200D01*
Y62265D02*
X67665D01*
X65974Y61674D02*
Y62000D01*
X65800Y61500D02*
X65974Y61674D01*
X65600Y61700D02*
Y62000D01*
Y61700D02*
X65800Y61500D01*
X64800Y61800D02*
Y62200D01*
X71081Y56619D02*
X72081D01*
X66776Y31950D02*
X67650D01*
X66776Y31450D02*
X67650D01*
X54400Y61500D02*
X54600Y61700D01*
X52900Y61500D02*
X54400D01*
X64400Y69000D02*
X64900Y68500D01*
X65068Y68402D02*
X65700D01*
X64900Y68235D02*
Y68500D01*
X57400Y36374D02*
Y40400D01*
Y44174D02*
Y48400D01*
Y51974D02*
Y56500D01*
Y59774D02*
Y63400D01*
Y67574D02*
X58826Y69000D01*
X64400D01*
X52800Y61600D02*
Y63400D01*
Y61600D02*
X52900Y61500D01*
X52800Y63400D02*
X52900Y63500D01*
X54600Y61700D02*
X56500D01*
X64968Y63102D02*
X65600D01*
X62400Y52400D02*
Y52609D01*
Y52400D02*
X62800Y52000D01*
X62291Y53791D02*
X62400D01*
Y54200D01*
X62600Y54400D01*
X61709Y44609D02*
X62400D01*
X61700Y45600D02*
X61891Y45791D01*
X62400D01*
X62800Y31600D02*
X63000Y31800D01*
X63409D01*
X64591D02*
Y32491D01*
X60800Y63000D02*
X60889D01*
D43*
X56636Y33250D02*
D03*
Y37150D02*
D03*
Y41050D02*
D03*
Y44950D02*
D03*
Y48850D02*
D03*
Y52750D02*
D03*
Y56650D02*
D03*
Y60550D02*
D03*
Y64450D02*
D03*
Y68350D02*
D03*
D44*
Y31850D02*
D03*
Y35750D02*
D03*
Y39650D02*
D03*
Y43550D02*
D03*
Y47450D02*
D03*
Y51350D02*
D03*
Y55250D02*
D03*
Y59150D02*
D03*
Y63050D02*
D03*
Y66950D02*
D03*
D45*
X55700Y30900D02*
D03*
Y34800D02*
D03*
Y38700D02*
D03*
Y42600D02*
D03*
Y46500D02*
D03*
Y54300D02*
D03*
Y58200D02*
D03*
Y62100D02*
D03*
Y66000D02*
D03*
D46*
X55900Y30850D02*
D03*
Y38650D02*
D03*
Y42550D02*
D03*
Y46450D02*
D03*
Y54250D02*
D03*
Y58150D02*
D03*
Y62050D02*
D03*
Y65950D02*
D03*
D47*
X23000Y68500D02*
D03*
Y31500D02*
D03*
X78000Y68000D02*
D03*
X78010Y32000D02*
D03*
D48*
X76874Y53293D02*
D03*
Y58254D02*
D03*
Y61093D02*
D03*
Y66054D02*
D03*
D49*
X74000Y53293D02*
D03*
Y54946D02*
D03*
Y58254D02*
D03*
Y56600D02*
D03*
Y61093D02*
D03*
Y62746D02*
D03*
Y66054D02*
D03*
Y64400D02*
D03*
D50*
X78000Y42200D02*
D03*
X79000D02*
D03*
X78000Y41200D02*
D03*
X79000D02*
D03*
X78000Y40200D02*
D03*
X22000Y45550D02*
D03*
X21000D02*
D03*
X22000Y46550D02*
D03*
X21000D02*
D03*
X22000Y47550D02*
D03*
X21000D02*
D03*
X22000Y48550D02*
D03*
X21000D02*
D03*
X22000Y49550D02*
D03*
X21000D02*
D03*
X22000Y50550D02*
D03*
X21000D02*
D03*
X22000Y51550D02*
D03*
X21000D02*
D03*
X22000Y52550D02*
D03*
X21000D02*
D03*
X22000Y53550D02*
D03*
X21000D02*
D03*
X22000Y54550D02*
D03*
X78000Y37800D02*
D03*
X79000D02*
D03*
X78000Y36800D02*
D03*
X79000D02*
D03*
X78000Y35800D02*
D03*
D51*
X79000Y40200D02*
D03*
X21000Y54550D02*
D03*
X79000Y35800D02*
D03*
D52*
X71700Y52500D02*
D03*
X70700D02*
D03*
X69700D02*
D03*
X68700D02*
D03*
X71700Y49500D02*
D03*
X70700D02*
D03*
X69700D02*
D03*
D53*
X68700D02*
D03*
D54*
X78800Y44300D02*
D03*
Y47300D02*
D03*
X75800Y44300D02*
D03*
Y45300D02*
D03*
Y47300D02*
D03*
Y46300D02*
D03*
X78800Y48300D02*
D03*
Y51300D02*
D03*
X75800Y48300D02*
D03*
Y49300D02*
D03*
Y51300D02*
D03*
Y50300D02*
D03*
D55*
X78854Y34274D02*
D03*
X74800Y33200D02*
D03*
X74711Y31389D02*
D03*
X74200Y33200D02*
D03*
X71609Y43709D02*
D03*
X74000Y47700D02*
D03*
X74774Y46226D02*
D03*
X71950Y48550D02*
D03*
X71300Y46800D02*
D03*
X73100D02*
D03*
X73353Y45747D02*
D03*
X73400Y44400D02*
D03*
X60800Y63000D02*
D03*
X61100Y62000D02*
D03*
X70100Y31900D02*
D03*
X71100Y32000D02*
D03*
X70350Y33950D02*
D03*
X70927Y42427D02*
D03*
X72300Y43600D02*
D03*
X72800D02*
D03*
X77500Y41700D02*
D03*
X76100Y42000D02*
D03*
X76009Y38700D02*
D03*
X77600D02*
D03*
X76400Y35000D02*
D03*
X75500Y34000D02*
D03*
X72100Y35400D02*
D03*
X72400Y34000D02*
D03*
X68600Y35100D02*
D03*
X69035Y38265D02*
D03*
X69002Y38702D02*
D03*
X67800Y42200D02*
D03*
X68800Y43100D02*
D03*
X76065Y40335D02*
D03*
X76100Y39900D02*
D03*
X76200Y38100D02*
D03*
Y37300D02*
D03*
X76065Y36665D02*
D03*
X68727Y34627D02*
D03*
X70730Y35230D02*
D03*
X73880Y35180D02*
D03*
X72700Y35200D02*
D03*
X69000Y37300D02*
D03*
Y36600D02*
D03*
X69059Y40500D02*
D03*
X69020Y40080D02*
D03*
X72465Y42365D02*
D03*
X73135D02*
D03*
X67500Y54500D02*
D03*
X66800Y55700D02*
D03*
X64000Y54600D02*
D03*
X65100Y55600D02*
D03*
X64700Y51300D02*
D03*
X66700D02*
D03*
X64600Y35300D02*
D03*
X63800Y35800D02*
D03*
Y38900D02*
D03*
X65200Y49200D02*
D03*
X64647Y44853D02*
D03*
X66753Y44847D02*
D03*
X67450Y48250D02*
D03*
X67435Y48735D02*
D03*
X66653Y39753D02*
D03*
X67265Y36335D02*
D03*
X67100Y35300D02*
D03*
X64400Y50400D02*
D03*
X63700Y51900D02*
D03*
Y42600D02*
D03*
X63900Y45800D02*
D03*
X63400Y52600D02*
D03*
X63292Y50192D02*
D03*
X63200Y50700D02*
D03*
X63400Y58100D02*
D03*
X64500Y58600D02*
D03*
X63400Y58500D02*
D03*
X63950Y53650D02*
D03*
X64700Y64900D02*
D03*
X63500Y66000D02*
D03*
X63300Y66400D02*
D03*
X64900Y43000D02*
D03*
X63400D02*
D03*
X63600Y46300D02*
D03*
X64500Y66000D02*
D03*
X60900Y37800D02*
D03*
X63200Y36600D02*
D03*
X60900D02*
D03*
X60600Y44300D02*
D03*
Y45600D02*
D03*
Y52000D02*
D03*
Y52800D02*
D03*
Y59900D02*
D03*
Y60900D02*
D03*
X59865Y52200D02*
D03*
X61900Y63200D02*
D03*
X25200Y33600D02*
D03*
X23800Y37600D02*
D03*
X25300Y41500D02*
D03*
X25400Y45300D02*
D03*
X59800Y36700D02*
D03*
X64800Y34900D02*
D03*
X52600Y31100D02*
D03*
X42500Y31200D02*
D03*
X63800Y37100D02*
D03*
X61100Y31500D02*
D03*
X51000Y34600D02*
D03*
X63500Y38100D02*
D03*
X56900Y34300D02*
D03*
X53600D02*
D03*
X51500Y34400D02*
D03*
X42604Y33796D02*
D03*
X43200Y31600D02*
D03*
X42800Y35100D02*
D03*
X42200Y36100D02*
D03*
X42500Y37400D02*
D03*
X43000Y38000D02*
D03*
X43300Y35500D02*
D03*
X42600Y39100D02*
D03*
X42400Y39900D02*
D03*
X42500Y41400D02*
D03*
X42700Y41900D02*
D03*
X43200Y39400D02*
D03*
X41100Y39100D02*
D03*
X40000Y39900D02*
D03*
X43200Y42100D02*
D03*
X42900Y43000D02*
D03*
X42200Y43800D02*
D03*
X42500Y45300D02*
D03*
X42800Y45900D02*
D03*
X43300Y43300D02*
D03*
X42800Y46800D02*
D03*
X42200Y47400D02*
D03*
X42600Y49100D02*
D03*
X42800Y49700D02*
D03*
X43300Y47200D02*
D03*
X42300Y52600D02*
D03*
Y52200D02*
D03*
X42900Y53600D02*
D03*
X43700Y51100D02*
D03*
X42900Y54600D02*
D03*
X42400Y55500D02*
D03*
X42500Y57000D02*
D03*
X42800Y57600D02*
D03*
X43300Y55100D02*
D03*
X42800Y58900D02*
D03*
X42300Y59400D02*
D03*
X42500Y60900D02*
D03*
X42900Y61400D02*
D03*
X43300Y58900D02*
D03*
X43000Y62300D02*
D03*
X42400Y63200D02*
D03*
X42500Y64700D02*
D03*
X43300Y62700D02*
D03*
X43500Y66300D02*
D03*
X42600Y66800D02*
D03*
X42800Y65300D02*
D03*
X42200Y68500D02*
D03*
X42300Y53000D02*
D03*
X41900Y41500D02*
D03*
Y32400D02*
D03*
Y35200D02*
D03*
Y37600D02*
D03*
Y39100D02*
D03*
Y43000D02*
D03*
Y45300D02*
D03*
Y46900D02*
D03*
Y49400D02*
D03*
X42900Y50800D02*
D03*
X41900Y53500D02*
D03*
Y54700D02*
D03*
Y57200D02*
D03*
Y58600D02*
D03*
Y61200D02*
D03*
Y62400D02*
D03*
Y64800D02*
D03*
Y66400D02*
D03*
X41500Y34200D02*
D03*
Y35200D02*
D03*
Y38100D02*
D03*
Y39100D02*
D03*
Y41900D02*
D03*
Y43000D02*
D03*
Y45700D02*
D03*
Y46900D02*
D03*
X42000Y49900D02*
D03*
X42400Y50800D02*
D03*
X41500Y53800D02*
D03*
Y54700D02*
D03*
Y57600D02*
D03*
Y58600D02*
D03*
Y61500D02*
D03*
Y62400D02*
D03*
Y65400D02*
D03*
Y66400D02*
D03*
X39900Y47800D02*
D03*
X41900Y50800D02*
D03*
X53800Y32400D02*
D03*
Y36300D02*
D03*
Y40200D02*
D03*
Y44100D02*
D03*
Y48000D02*
D03*
Y51900D02*
D03*
Y55800D02*
D03*
Y59700D02*
D03*
Y63600D02*
D03*
X52800Y34100D02*
D03*
X52900Y36200D02*
D03*
X52800Y38000D02*
D03*
X52900Y40100D02*
D03*
Y42000D02*
D03*
Y44000D02*
D03*
X52800Y45700D02*
D03*
X52900Y47900D02*
D03*
X52800Y49600D02*
D03*
X52900Y51800D02*
D03*
X52800Y53600D02*
D03*
X52900Y55700D02*
D03*
X52800Y57400D02*
D03*
X52900Y59600D02*
D03*
X52800Y61600D02*
D03*
X53800Y67500D02*
D03*
X65200Y63102D02*
D03*
X64800Y61800D02*
D03*
X65800Y61500D02*
D03*
X67665Y62265D02*
D03*
X66700Y63200D02*
D03*
X57400Y63400D02*
D03*
Y37100D02*
D03*
Y40400D02*
D03*
Y44900D02*
D03*
Y48400D02*
D03*
Y52700D02*
D03*
Y56500D02*
D03*
Y60600D02*
D03*
X58061Y68235D02*
D03*
X64900Y67100D02*
D03*
X66000Y66800D02*
D03*
X67765Y67565D02*
D03*
X66765Y68235D02*
D03*
X25300Y56900D02*
D03*
X24900Y60800D02*
D03*
X25200Y64600D02*
D03*
X24600Y68600D02*
D03*
X58665Y36135D02*
D03*
X58000Y35400D02*
D03*
X57765Y34435D02*
D03*
X58500Y35100D02*
D03*
X58700Y33800D02*
D03*
X60582Y35100D02*
D03*
X63065Y34135D02*
D03*
X62514Y32686D02*
D03*
X63400Y33000D02*
D03*
X60800Y31800D02*
D03*
X59700Y31900D02*
D03*
X60300D02*
D03*
X58700Y33100D02*
D03*
X58665Y43935D02*
D03*
X61100Y38900D02*
D03*
X58000Y43200D02*
D03*
X57765Y42235D02*
D03*
X58500Y42900D02*
D03*
X58700Y41600D02*
D03*
X60582Y42900D02*
D03*
X59800Y44200D02*
D03*
X62514Y40486D02*
D03*
X63400Y40800D02*
D03*
X60800Y39600D02*
D03*
X59700Y39700D02*
D03*
X60300D02*
D03*
X58700Y40900D02*
D03*
X58665Y51735D02*
D03*
X61100Y46700D02*
D03*
X58000Y51000D02*
D03*
X57765Y50035D02*
D03*
X58500Y50700D02*
D03*
X58700Y49400D02*
D03*
X60582Y50700D02*
D03*
X63065Y49735D02*
D03*
X62514Y48286D02*
D03*
X63400Y48600D02*
D03*
X60800Y47400D02*
D03*
X59700Y47500D02*
D03*
X60300D02*
D03*
X58700Y48700D02*
D03*
X58665Y59535D02*
D03*
X61100Y54500D02*
D03*
X58000Y58800D02*
D03*
X57765Y57835D02*
D03*
X58500Y58500D02*
D03*
X58700Y57200D02*
D03*
X60582Y58500D02*
D03*
X59817Y59683D02*
D03*
X63065Y57535D02*
D03*
X62514Y56086D02*
D03*
X63400Y56400D02*
D03*
X60800Y55200D02*
D03*
X59700Y55300D02*
D03*
X60300D02*
D03*
X58700Y56500D02*
D03*
X54265Y33565D02*
D03*
X48000Y33900D02*
D03*
X51665Y31265D02*
D03*
X54600Y32100D02*
D03*
X55400Y33000D02*
D03*
X49289Y31489D02*
D03*
X48516Y33084D02*
D03*
X49600Y33900D02*
D03*
X47100Y31500D02*
D03*
X47684Y33084D02*
D03*
X47600Y32600D02*
D03*
X54265Y37465D02*
D03*
X48000Y37800D02*
D03*
X54200Y34700D02*
D03*
X51665Y35165D02*
D03*
X55400Y36900D02*
D03*
X54600Y36000D02*
D03*
X47684Y36984D02*
D03*
X47600Y36500D02*
D03*
X47100Y35400D02*
D03*
X49600Y37800D02*
D03*
X48516Y36984D02*
D03*
X49289Y35389D02*
D03*
X54265Y41365D02*
D03*
X48000Y41700D02*
D03*
X54200Y38600D02*
D03*
X51665Y39065D02*
D03*
X55400Y40800D02*
D03*
X54600Y39900D02*
D03*
X47684Y40884D02*
D03*
X47600Y40400D02*
D03*
X47100Y39300D02*
D03*
X49600Y41700D02*
D03*
X48516Y40884D02*
D03*
X49289Y39289D02*
D03*
X54265Y45265D02*
D03*
X48000Y45600D02*
D03*
X54200Y42500D02*
D03*
X51665Y42965D02*
D03*
X55400Y44700D02*
D03*
X54600Y43800D02*
D03*
X47684Y44784D02*
D03*
X47600Y44300D02*
D03*
X47100Y43200D02*
D03*
X49600Y45600D02*
D03*
X48516Y44784D02*
D03*
X49289Y43189D02*
D03*
X54265Y49165D02*
D03*
X48000Y49500D02*
D03*
X54200Y46400D02*
D03*
X51665Y46865D02*
D03*
X55400Y48600D02*
D03*
X54600Y47700D02*
D03*
X47684Y48684D02*
D03*
X47600Y48200D02*
D03*
X47100Y47100D02*
D03*
X49600Y49500D02*
D03*
X48516Y48684D02*
D03*
X49289Y47089D02*
D03*
X54265Y53065D02*
D03*
X48000Y53400D02*
D03*
X54200Y50300D02*
D03*
X51665Y50765D02*
D03*
X55400Y52500D02*
D03*
X54600Y51600D02*
D03*
X47684Y52584D02*
D03*
X47600Y52100D02*
D03*
X47100Y51000D02*
D03*
X49600Y53400D02*
D03*
X48516Y52584D02*
D03*
X49289Y50989D02*
D03*
X54265Y56965D02*
D03*
X48000Y57300D02*
D03*
X54200Y54200D02*
D03*
X51665Y54665D02*
D03*
X55400Y56400D02*
D03*
X54600Y55500D02*
D03*
X47684Y56484D02*
D03*
X47600Y56000D02*
D03*
X47100Y54900D02*
D03*
X49600Y57300D02*
D03*
X48516Y56484D02*
D03*
X49289Y54889D02*
D03*
X54265Y60865D02*
D03*
X48000Y61200D02*
D03*
X54200Y58100D02*
D03*
X51665Y58565D02*
D03*
X55400Y60300D02*
D03*
X54600Y59400D02*
D03*
X47684Y60384D02*
D03*
X47600Y59900D02*
D03*
X47100Y58800D02*
D03*
X49600Y61200D02*
D03*
X48516Y60384D02*
D03*
X49289Y58789D02*
D03*
X54265Y64765D02*
D03*
X48000Y65100D02*
D03*
X54200Y62000D02*
D03*
X51665Y62465D02*
D03*
X55400Y64200D02*
D03*
X54600Y63300D02*
D03*
X47684Y64284D02*
D03*
X47600Y63800D02*
D03*
X47100Y62700D02*
D03*
X49600Y65100D02*
D03*
X48516Y64284D02*
D03*
X49289Y62689D02*
D03*
X58665Y67335D02*
D03*
X62514Y63886D02*
D03*
X63400Y64200D02*
D03*
X63065Y65335D02*
D03*
X60582Y66300D02*
D03*
X59817Y67483D02*
D03*
X58000Y66600D02*
D03*
X57765Y65635D02*
D03*
X59700Y63100D02*
D03*
X60300D02*
D03*
X58500Y66300D02*
D03*
X58700Y65000D02*
D03*
Y64300D02*
D03*
X35400Y50200D02*
D03*
X37400Y50900D02*
D03*
X36900Y52500D02*
D03*
X35800Y52600D02*
D03*
X34200Y52700D02*
D03*
X35765Y51335D02*
D03*
X34856Y50970D02*
D03*
X38000Y52400D02*
D03*
X39600Y51400D02*
D03*
X38656Y50944D02*
D03*
X38000Y51200D02*
D03*
X38200Y50300D02*
D03*
X41100Y51000D02*
D03*
X38400Y30800D02*
D03*
X38000Y31700D02*
D03*
X38200Y34700D02*
D03*
X38000Y35400D02*
D03*
X38200Y38600D02*
D03*
X38000Y39500D02*
D03*
X38500Y42500D02*
D03*
X38100Y43300D02*
D03*
X38300Y46400D02*
D03*
X38000Y47300D02*
D03*
X38200Y54200D02*
D03*
X38000Y55100D02*
D03*
X38600Y58100D02*
D03*
X38100Y59200D02*
D03*
X38400Y62000D02*
D03*
X38100Y63000D02*
D03*
X54265Y68665D02*
D03*
X55400Y68100D02*
D03*
X48516Y68184D02*
D03*
X51665Y66365D02*
D03*
X49600Y69000D02*
D03*
X48000D02*
D03*
X47600Y67700D02*
D03*
X47684Y68184D02*
D03*
X47100Y66600D02*
D03*
X49289Y66589D02*
D03*
X38400Y65900D02*
D03*
X38000Y66900D02*
D03*
X54200Y65900D02*
D03*
X54600Y67200D02*
D03*
X33200Y49100D02*
D03*
X32000Y47000D02*
D03*
X43289Y49689D02*
D03*
X33700Y50400D02*
D03*
Y50000D02*
D03*
X31756Y47944D02*
D03*
X31800Y47500D02*
D03*
X27800Y48100D02*
D03*
X27812Y47688D02*
D03*
X28900Y32700D02*
D03*
X30600Y46400D02*
D03*
X28900Y36700D02*
D03*
X30000Y46400D02*
D03*
X28900Y40600D02*
D03*
X29500Y46400D02*
D03*
X28900Y44400D02*
D03*
X29000Y46400D02*
D03*
X31800Y51800D02*
D03*
X31788Y51288D02*
D03*
X29188D02*
D03*
X27844Y51544D02*
D03*
X28900Y67900D02*
D03*
Y64000D02*
D03*
X29800Y52600D02*
D03*
Y52000D02*
D03*
X28900Y60000D02*
D03*
X29300Y53300D02*
D03*
X28900Y56300D02*
D03*
X27700Y52300D02*
D03*
X38656Y66544D02*
D03*
X39600Y67000D02*
D03*
X35400Y65800D02*
D03*
X35765Y66935D02*
D03*
X34856Y66570D02*
D03*
X35800Y68200D02*
D03*
X34200Y68300D02*
D03*
X27465Y68835D02*
D03*
X28600Y68700D02*
D03*
Y66400D02*
D03*
X30839Y68561D02*
D03*
X31935Y68035D02*
D03*
X32600Y66700D02*
D03*
X33335Y66635D02*
D03*
X26900Y66200D02*
D03*
X28600Y64800D02*
D03*
Y62500D02*
D03*
X31935Y64135D02*
D03*
X30839Y64661D02*
D03*
X32600Y62800D02*
D03*
X27465Y64935D02*
D03*
X33335Y62735D02*
D03*
X26900Y62300D02*
D03*
X28600Y60900D02*
D03*
Y58600D02*
D03*
X31935Y60235D02*
D03*
X30839Y60761D02*
D03*
X32600Y58900D02*
D03*
X27465Y61035D02*
D03*
X33335Y58835D02*
D03*
X26900Y58400D02*
D03*
X28600Y57000D02*
D03*
Y54700D02*
D03*
X31935Y56335D02*
D03*
X30839Y56861D02*
D03*
X32600Y55000D02*
D03*
X27465Y57135D02*
D03*
X33335Y54935D02*
D03*
X26900Y54500D02*
D03*
X28600Y45300D02*
D03*
Y43000D02*
D03*
X31935Y44635D02*
D03*
X30839Y45161D02*
D03*
X32600Y43300D02*
D03*
X27465Y45435D02*
D03*
X33335Y43235D02*
D03*
X26900Y42800D02*
D03*
X28600Y41400D02*
D03*
Y39100D02*
D03*
X31935Y40735D02*
D03*
X30839Y41261D02*
D03*
X32600Y39400D02*
D03*
X27465Y41535D02*
D03*
X33335Y39335D02*
D03*
X26900Y38900D02*
D03*
X28600Y37500D02*
D03*
Y35200D02*
D03*
X31935Y36835D02*
D03*
X30839Y37361D02*
D03*
X32600Y35500D02*
D03*
X27465Y37635D02*
D03*
X33335Y35435D02*
D03*
X26900Y35000D02*
D03*
X28600Y33600D02*
D03*
Y31300D02*
D03*
X31935Y32935D02*
D03*
X30839Y33461D02*
D03*
X32600Y31600D02*
D03*
X27465Y33735D02*
D03*
X33335Y31535D02*
D03*
X26900Y31100D02*
D03*
X36900Y68100D02*
D03*
X38000Y68000D02*
D03*
X37400Y66500D02*
D03*
X41100Y66600D02*
D03*
X42604Y68896D02*
D03*
X42572Y68128D02*
D03*
X37400Y62600D02*
D03*
X38000Y64100D02*
D03*
X35765Y63035D02*
D03*
X35800Y64300D02*
D03*
X36900Y64200D02*
D03*
X34856Y62670D02*
D03*
X34200Y64400D02*
D03*
X38656Y62644D02*
D03*
X39600Y63100D02*
D03*
X42572Y64228D02*
D03*
X41100Y62700D02*
D03*
X35400Y61900D02*
D03*
X37400Y58700D02*
D03*
X38000Y60200D02*
D03*
X35765Y59135D02*
D03*
X35800Y60400D02*
D03*
X36900Y60300D02*
D03*
X34856Y58770D02*
D03*
X34200Y60500D02*
D03*
X38656Y58744D02*
D03*
X39600Y59200D02*
D03*
X42572Y60328D02*
D03*
X41100Y58800D02*
D03*
X35400Y58000D02*
D03*
X37400Y54800D02*
D03*
X38000Y56300D02*
D03*
X35765Y55235D02*
D03*
X35800Y56500D02*
D03*
X36900Y56400D02*
D03*
X34856Y54870D02*
D03*
X34200Y56600D02*
D03*
X38656Y54844D02*
D03*
X39600Y55300D02*
D03*
X42572Y56428D02*
D03*
X41100Y54900D02*
D03*
X35400Y54100D02*
D03*
X37400Y47000D02*
D03*
X38000Y48500D02*
D03*
X35765Y47435D02*
D03*
X35800Y48700D02*
D03*
X36900Y48600D02*
D03*
X34856Y47070D02*
D03*
X34200Y48800D02*
D03*
X38656Y47044D02*
D03*
X39600Y47500D02*
D03*
X42572Y48628D02*
D03*
X41100Y47100D02*
D03*
X35400Y46300D02*
D03*
X37400Y43100D02*
D03*
X38000Y44600D02*
D03*
X35765Y43535D02*
D03*
X35800Y44800D02*
D03*
X36900Y44700D02*
D03*
X34856Y43170D02*
D03*
X34200Y44900D02*
D03*
X38656Y43144D02*
D03*
X39600Y43600D02*
D03*
X42572Y44728D02*
D03*
X41100Y43200D02*
D03*
X35400Y42400D02*
D03*
X37400Y39200D02*
D03*
X38000Y40700D02*
D03*
X35765Y39635D02*
D03*
X35800Y40900D02*
D03*
X36900Y40800D02*
D03*
X34856Y39270D02*
D03*
X34200Y41000D02*
D03*
X38656Y39244D02*
D03*
X39600Y39700D02*
D03*
X42572Y40828D02*
D03*
X35400Y38500D02*
D03*
X37400Y35300D02*
D03*
X38000Y36800D02*
D03*
X35765Y35735D02*
D03*
X35800Y37000D02*
D03*
X36900Y36900D02*
D03*
X34856Y35370D02*
D03*
X34200Y37100D02*
D03*
X38656Y35344D02*
D03*
X39600Y35800D02*
D03*
X42572Y36928D02*
D03*
X41100Y35400D02*
D03*
X35400Y34600D02*
D03*
X37400Y31400D02*
D03*
X38000Y32900D02*
D03*
X35765Y31835D02*
D03*
X35800Y33100D02*
D03*
X36900Y33000D02*
D03*
X34856Y31470D02*
D03*
X34200Y33200D02*
D03*
X38656Y31444D02*
D03*
X39600Y31900D02*
D03*
X42572Y33028D02*
D03*
X41100Y31500D02*
D03*
X35000Y30800D02*
D03*
X68100Y58900D02*
D03*
X68162Y56600D02*
D03*
X68000Y55000D02*
D03*
X68876Y55576D02*
D03*
X70924D02*
D03*
X69750Y54250D02*
D03*
Y53750D02*
D03*
X73091Y53909D02*
D03*
X72300Y53300D02*
D03*
Y55800D02*
D03*
X71609Y55091D02*
D03*
X69950Y55250D02*
D03*
X69746Y42346D02*
D03*
X68600Y43900D02*
D03*
X68100Y47800D02*
D03*
X69600Y47100D02*
D03*
X73000Y53000D02*
D03*
X73974Y52374D02*
D03*
X72019Y58981D02*
D03*
X71181D02*
D03*
X72081Y56619D02*
D03*
X71081D02*
D03*
X68824Y33324D02*
D03*
X67600Y32700D02*
D03*
X67650Y31950D02*
D03*
Y31450D02*
D03*
X69453Y33253D02*
D03*
X75800Y35800D02*
D03*
X76900Y34700D02*
D03*
X78500Y39000D02*
D03*
X76600Y45100D02*
D03*
X77100Y44800D02*
D03*
X77000Y42800D02*
D03*
X77400Y39600D02*
D03*
X69000Y45400D02*
D03*
X68700Y47700D02*
D03*
X69381Y44419D02*
D03*
X69400Y46500D02*
D03*
X69550Y31950D02*
D03*
X68824Y31056D02*
D03*
X69490Y31450D02*
D03*
X68900Y34000D02*
D03*
X66809Y34791D02*
D03*
X74470Y43570D02*
D03*
X72266Y50574D02*
D03*
X69855Y50945D02*
D03*
X61300Y60600D02*
D03*
X69110Y67890D02*
D03*
X68910Y63090D02*
D03*
X69900Y62000D02*
D03*
X68900Y61000D02*
D03*
X67800Y61700D02*
D03*
X70400Y64400D02*
D03*
X26019Y53381D02*
D03*
X25219D02*
D03*
X25919Y51019D02*
D03*
X25119D02*
D03*
X26019Y48981D02*
D03*
X25119D02*
D03*
X26100Y46700D02*
D03*
X25119Y46619D02*
D03*
X65300Y64100D02*
D03*
X65400Y65000D02*
D03*
X52900Y63500D02*
D03*
X56500Y61700D02*
D03*
X63800Y60600D02*
D03*
X62800Y52000D02*
D03*
X62600Y54400D02*
D03*
X61709Y44609D02*
D03*
X61700Y45600D02*
D03*
X62800Y31600D02*
D03*
X64591Y32491D02*
D03*
X63065Y41935D02*
D03*
X66800Y31000D02*
D03*
X43700Y46900D02*
D03*
X58800Y42300D02*
D03*
Y50100D02*
D03*
Y57900D02*
D03*
Y65700D02*
D03*
Y34500D02*
D03*
X63200Y47100D02*
D03*
X64000Y47000D02*
D03*
X63900Y47800D02*
D03*
M02*
