%FSLAX24Y24*%
%MOIN*%
G70*
G01*
G75*
%ADD10R,0.0591X0.0906*%
%ADD11R,0.0591X0.0512*%
%ADD12R,0.0787X0.0866*%
%ADD13R,0.0315X0.1417*%
%ADD14R,0.0118X0.0630*%
%ADD15R,0.0630X0.0118*%
%ADD16R,0.0846X0.0157*%
%ADD17R,0.0846X0.0157*%
%ADD18R,0.0394X0.0433*%
%ADD19R,0.0433X0.0394*%
%ADD20R,0.0610X0.0157*%
%ADD21R,0.0453X0.0551*%
%ADD22R,0.0512X0.0591*%
%ADD23O,0.0169X0.0480*%
%ADD24R,0.0472X0.0787*%
%ADD25R,0.0169X0.0480*%
%ADD26R,0.0866X0.0236*%
%ADD27R,0.0866X0.0236*%
%ADD28R,0.0236X0.0551*%
%ADD29R,0.0630X0.0709*%
%ADD30R,0.0236X0.0394*%
%ADD31R,0.0807X0.0236*%
%ADD32R,0.0236X0.0807*%
%ADD33R,0.1240X0.1360*%
%ADD34R,0.0866X0.0787*%
%ADD35C,0.0010*%
%ADD36C,0.0160*%
%ADD37C,0.0300*%
%ADD38C,0.0080*%
%ADD39C,0.0100*%
%ADD40C,0.0120*%
%ADD41C,0.0180*%
%ADD42C,0.0200*%
%ADD43R,0.0128X0.0900*%
%ADD44R,0.0128X0.2100*%
%ADD45R,0.2000X0.0200*%
%ADD46R,0.1400X0.0100*%
%ADD47C,0.1100*%
%ADD48C,0.1575*%
%ADD49C,0.0866*%
%ADD50C,0.0591*%
%ADD51R,0.0591X0.0591*%
%ADD52C,0.0591*%
%ADD53R,0.0591X0.0591*%
%ADD54C,0.0600*%
%ADD55C,0.0320*%
%ADD56C,0.0098*%
%ADD57C,0.0079*%
%ADD58C,0.0070*%
%ADD59R,0.0079X0.0197*%
%ADD60R,0.0197X0.0079*%
%ADD61R,0.0197X0.0079*%
D35*
X71772Y47199D02*
Y47267D01*
X71959D01*
Y47199D01*
X71772D01*
X71780Y47207D02*
X71780Y47259D01*
X71950Y47259D01*
X71950Y47207D01*
X71780Y47207D01*
X71789Y47215D02*
Y47251D01*
X71942D01*
Y47215D01*
X71789D01*
X71797Y47224D02*
Y47242D01*
X71934Y47242D01*
Y47224D01*
X71797Y47224D01*
X71805Y47232D02*
Y47234D01*
X71925D01*
Y47232D01*
X71805D01*
X71814Y47228D02*
X71917Y47238D01*
X71772Y46333D02*
Y46401D01*
X71959D01*
Y46333D01*
X71772D01*
X71780Y46341D02*
X71780Y46393D01*
X71950Y46393D01*
X71950Y46341D01*
X71780Y46341D01*
X71789Y46349D02*
Y46385D01*
X71942D01*
Y46349D01*
X71789D01*
X71797Y46358D02*
Y46376D01*
X71934Y46376D01*
Y46358D01*
X71797Y46358D01*
X71805Y46366D02*
Y46368D01*
X71925D01*
Y46366D01*
X71805D01*
X71814Y46362D02*
X71917Y46372D01*
X76372Y42399D02*
Y42467D01*
X76559D01*
Y42399D01*
X76372D01*
X76380Y42407D02*
X76380Y42459D01*
X76550Y42459D01*
X76550Y42407D01*
X76380Y42407D01*
X76389Y42415D02*
Y42451D01*
X76542D01*
Y42415D01*
X76389D01*
X76397Y42424D02*
Y42442D01*
X76534Y42442D01*
Y42424D01*
X76397Y42424D01*
X76405Y42432D02*
Y42434D01*
X76525D01*
Y42432D01*
X76405D01*
X76414Y42428D02*
X76517Y42438D01*
X76372Y41533D02*
Y41601D01*
X76559D01*
Y41533D01*
X76372D01*
X76380Y41541D02*
X76380Y41593D01*
X76550Y41593D01*
X76550Y41541D01*
X76380Y41541D01*
X76389Y41549D02*
Y41585D01*
X76542D01*
Y41549D01*
X76389D01*
X76397Y41558D02*
Y41576D01*
X76534Y41576D01*
Y41558D01*
X76397Y41558D01*
X76405Y41566D02*
Y41568D01*
X76525D01*
Y41566D01*
X76405D01*
X76414Y41562D02*
X76517Y41572D01*
X76372Y39199D02*
Y39267D01*
X76559D01*
Y39199D01*
X76372D01*
X76380Y39207D02*
X76380Y39259D01*
X76550Y39259D01*
X76550Y39207D01*
X76380Y39207D01*
X76389Y39215D02*
Y39251D01*
X76542D01*
Y39215D01*
X76389D01*
X76397Y39224D02*
Y39242D01*
X76534Y39242D01*
Y39224D01*
X76397Y39224D01*
X76405Y39232D02*
Y39234D01*
X76525D01*
Y39232D01*
X76405D01*
X76414Y39228D02*
X76517Y39238D01*
X76372Y38333D02*
Y38401D01*
X76559D01*
Y38333D01*
X76372D01*
X76380Y38341D02*
X76380Y38393D01*
X76550Y38393D01*
X76550Y38341D01*
X76380Y38341D01*
X76389Y38349D02*
Y38385D01*
X76542D01*
Y38349D01*
X76389D01*
X76397Y38358D02*
Y38376D01*
X76534Y38376D01*
Y38358D01*
X76397Y38358D01*
X76405Y38366D02*
Y38368D01*
X76525D01*
Y38366D01*
X76405D01*
X76414Y38362D02*
X76517Y38372D01*
X72772Y35999D02*
Y36067D01*
X72959D01*
Y35999D01*
X72772D01*
X72780Y36007D02*
X72780Y36059D01*
X72950Y36059D01*
X72950Y36007D01*
X72780Y36007D01*
X72789Y36015D02*
Y36051D01*
X72942D01*
Y36015D01*
X72789D01*
X72797Y36024D02*
Y36042D01*
X72934Y36042D01*
Y36024D01*
X72797Y36024D01*
X72805Y36032D02*
Y36034D01*
X72925D01*
Y36032D01*
X72805D01*
X72814Y36028D02*
X72917Y36038D01*
X72772Y35133D02*
Y35201D01*
X72959D01*
Y35133D01*
X72772D01*
X72780Y35141D02*
X72780Y35193D01*
X72950Y35193D01*
X72950Y35141D01*
X72780Y35141D01*
X72789Y35149D02*
Y35185D01*
X72942D01*
Y35149D01*
X72789D01*
X72797Y35158D02*
Y35176D01*
X72934Y35176D01*
Y35158D01*
X72797Y35158D01*
X72805Y35166D02*
Y35168D01*
X72925D01*
Y35166D01*
X72805D01*
X72814Y35162D02*
X72917Y35172D01*
X54172Y32633D02*
Y32701D01*
X54359D01*
Y32633D01*
X54172D01*
X54180Y32641D02*
X54180Y32693D01*
X54350Y32693D01*
X54350Y32641D01*
X54180Y32641D01*
X54189Y32649D02*
Y32685D01*
X54342D01*
Y32649D01*
X54189D01*
X54197Y32658D02*
Y32676D01*
X54334Y32676D01*
Y32658D01*
X54197Y32658D01*
X54205Y32666D02*
Y32668D01*
X54325D01*
Y32666D01*
X54205D01*
X54214Y32662D02*
X54317Y32672D01*
X54172Y33499D02*
Y33567D01*
X54359D01*
Y33499D01*
X54172D01*
X54180Y33507D02*
X54180Y33559D01*
X54350Y33559D01*
X54350Y33507D01*
X54180Y33507D01*
X54189Y33515D02*
Y33551D01*
X54342D01*
Y33515D01*
X54189D01*
X54197Y33524D02*
Y33542D01*
X54334Y33542D01*
Y33524D01*
X54197Y33524D01*
X54205Y33532D02*
Y33534D01*
X54325D01*
Y33532D01*
X54205D01*
X54214Y33528D02*
X54317Y33538D01*
X48372Y33433D02*
Y33501D01*
X48559D01*
Y33433D01*
X48372D01*
X48380Y33441D02*
X48380Y33493D01*
X48550Y33493D01*
X48550Y33441D01*
X48380Y33441D01*
X48389Y33449D02*
Y33485D01*
X48542D01*
Y33449D01*
X48389D01*
X48397Y33458D02*
Y33476D01*
X48534Y33476D01*
Y33458D01*
X48397Y33458D01*
X48405Y33466D02*
Y33468D01*
X48525D01*
Y33466D01*
X48405D01*
X48414Y33462D02*
X48517Y33472D01*
X48372Y34299D02*
Y34367D01*
X48559D01*
Y34299D01*
X48372D01*
X48380Y34307D02*
X48380Y34359D01*
X48550Y34359D01*
X48550Y34307D01*
X48380Y34307D01*
X48389Y34315D02*
Y34351D01*
X48542D01*
Y34315D01*
X48389D01*
X48397Y34324D02*
Y34342D01*
X48534Y34342D01*
Y34324D01*
X48397Y34324D01*
X48405Y34332D02*
Y34334D01*
X48525D01*
Y34332D01*
X48405D01*
X48414Y34328D02*
X48517Y34338D01*
X54172Y36533D02*
Y36601D01*
X54359D01*
Y36533D01*
X54172D01*
X54180Y36541D02*
X54180Y36593D01*
X54350Y36593D01*
X54350Y36541D01*
X54180Y36541D01*
X54189Y36549D02*
Y36585D01*
X54342D01*
Y36549D01*
X54189D01*
X54197Y36558D02*
Y36576D01*
X54334Y36576D01*
Y36558D01*
X54197Y36558D01*
X54205Y36566D02*
Y36568D01*
X54325D01*
Y36566D01*
X54205D01*
X54214Y36562D02*
X54317Y36572D01*
X54172Y37399D02*
Y37467D01*
X54359D01*
Y37399D01*
X54172D01*
X54180Y37407D02*
X54180Y37459D01*
X54350Y37459D01*
X54350Y37407D01*
X54180Y37407D01*
X54189Y37415D02*
Y37451D01*
X54342D01*
Y37415D01*
X54189D01*
X54197Y37424D02*
Y37442D01*
X54334Y37442D01*
Y37424D01*
X54197Y37424D01*
X54205Y37432D02*
Y37434D01*
X54325D01*
Y37432D01*
X54205D01*
X54214Y37428D02*
X54317Y37438D01*
X48372Y37333D02*
Y37401D01*
X48559D01*
Y37333D01*
X48372D01*
X48380Y37341D02*
X48380Y37393D01*
X48550Y37393D01*
X48550Y37341D01*
X48380Y37341D01*
X48389Y37349D02*
Y37385D01*
X48542D01*
Y37349D01*
X48389D01*
X48397Y37358D02*
Y37376D01*
X48534Y37376D01*
Y37358D01*
X48397Y37358D01*
X48405Y37366D02*
Y37368D01*
X48525D01*
Y37366D01*
X48405D01*
X48414Y37362D02*
X48517Y37372D01*
X48372Y38199D02*
Y38267D01*
X48559D01*
Y38199D01*
X48372D01*
X48380Y38207D02*
X48380Y38259D01*
X48550Y38259D01*
X48550Y38207D01*
X48380Y38207D01*
X48389Y38215D02*
Y38251D01*
X48542D01*
Y38215D01*
X48389D01*
X48397Y38224D02*
Y38242D01*
X48534Y38242D01*
Y38224D01*
X48397Y38224D01*
X48405Y38232D02*
Y38234D01*
X48525D01*
Y38232D01*
X48405D01*
X48414Y38228D02*
X48517Y38238D01*
X54172Y40433D02*
Y40501D01*
X54359D01*
Y40433D01*
X54172D01*
X54180Y40441D02*
X54180Y40493D01*
X54350Y40493D01*
X54350Y40441D01*
X54180Y40441D01*
X54189Y40449D02*
Y40485D01*
X54342D01*
Y40449D01*
X54189D01*
X54197Y40458D02*
Y40476D01*
X54334Y40476D01*
Y40458D01*
X54197Y40458D01*
X54205Y40466D02*
Y40468D01*
X54325D01*
Y40466D01*
X54205D01*
X54214Y40462D02*
X54317Y40472D01*
X54172Y41299D02*
Y41367D01*
X54359D01*
Y41299D01*
X54172D01*
X54180Y41307D02*
X54180Y41359D01*
X54350Y41359D01*
X54350Y41307D01*
X54180Y41307D01*
X54189Y41315D02*
Y41351D01*
X54342D01*
Y41315D01*
X54189D01*
X54197Y41324D02*
Y41342D01*
X54334Y41342D01*
Y41324D01*
X54197Y41324D01*
X54205Y41332D02*
Y41334D01*
X54325D01*
Y41332D01*
X54205D01*
X54214Y41328D02*
X54317Y41338D01*
X48372Y41233D02*
Y41301D01*
X48559D01*
Y41233D01*
X48372D01*
X48380Y41241D02*
X48380Y41293D01*
X48550Y41293D01*
X48550Y41241D01*
X48380Y41241D01*
X48389Y41249D02*
Y41285D01*
X48542D01*
Y41249D01*
X48389D01*
X48397Y41258D02*
Y41276D01*
X48534Y41276D01*
Y41258D01*
X48397Y41258D01*
X48405Y41266D02*
Y41268D01*
X48525D01*
Y41266D01*
X48405D01*
X48414Y41262D02*
X48517Y41272D01*
X48372Y42099D02*
Y42167D01*
X48559D01*
Y42099D01*
X48372D01*
X48380Y42107D02*
X48380Y42159D01*
X48550Y42159D01*
X48550Y42107D01*
X48380Y42107D01*
X48389Y42115D02*
Y42151D01*
X48542D01*
Y42115D01*
X48389D01*
X48397Y42124D02*
Y42142D01*
X48534Y42142D01*
Y42124D01*
X48397Y42124D01*
X48405Y42132D02*
Y42134D01*
X48525D01*
Y42132D01*
X48405D01*
X48414Y42128D02*
X48517Y42138D01*
X54172Y44333D02*
Y44401D01*
X54359D01*
Y44333D01*
X54172D01*
X54180Y44341D02*
X54180Y44393D01*
X54350Y44393D01*
X54350Y44341D01*
X54180Y44341D01*
X54189Y44349D02*
Y44385D01*
X54342D01*
Y44349D01*
X54189D01*
X54197Y44358D02*
Y44376D01*
X54334Y44376D01*
Y44358D01*
X54197Y44358D01*
X54205Y44366D02*
Y44368D01*
X54325D01*
Y44366D01*
X54205D01*
X54214Y44362D02*
X54317Y44372D01*
X54172Y45199D02*
Y45267D01*
X54359D01*
Y45199D01*
X54172D01*
X54180Y45207D02*
X54180Y45259D01*
X54350Y45259D01*
X54350Y45207D01*
X54180Y45207D01*
X54189Y45215D02*
Y45251D01*
X54342D01*
Y45215D01*
X54189D01*
X54197Y45224D02*
Y45242D01*
X54334Y45242D01*
Y45224D01*
X54197Y45224D01*
X54205Y45232D02*
Y45234D01*
X54325D01*
Y45232D01*
X54205D01*
X54214Y45228D02*
X54317Y45238D01*
X48372Y45133D02*
Y45201D01*
X48559D01*
Y45133D01*
X48372D01*
X48380Y45141D02*
X48380Y45193D01*
X48550Y45193D01*
X48550Y45141D01*
X48380Y45141D01*
X48389Y45149D02*
Y45185D01*
X48542D01*
Y45149D01*
X48389D01*
X48397Y45158D02*
Y45176D01*
X48534Y45176D01*
Y45158D01*
X48397Y45158D01*
X48405Y45166D02*
Y45168D01*
X48525D01*
Y45166D01*
X48405D01*
X48414Y45162D02*
X48517Y45172D01*
X48372Y45999D02*
Y46067D01*
X48559D01*
Y45999D01*
X48372D01*
X48380Y46007D02*
X48380Y46059D01*
X48550Y46059D01*
X48550Y46007D01*
X48380Y46007D01*
X48389Y46015D02*
Y46051D01*
X48542D01*
Y46015D01*
X48389D01*
X48397Y46024D02*
Y46042D01*
X48534Y46042D01*
Y46024D01*
X48397Y46024D01*
X48405Y46032D02*
Y46034D01*
X48525D01*
Y46032D01*
X48405D01*
X48414Y46028D02*
X48517Y46038D01*
X54172Y48233D02*
Y48301D01*
X54359D01*
Y48233D01*
X54172D01*
X54180Y48241D02*
X54180Y48293D01*
X54350Y48293D01*
X54350Y48241D01*
X54180Y48241D01*
X54189Y48249D02*
Y48285D01*
X54342D01*
Y48249D01*
X54189D01*
X54197Y48258D02*
Y48276D01*
X54334Y48276D01*
Y48258D01*
X54197Y48258D01*
X54205Y48266D02*
Y48268D01*
X54325D01*
Y48266D01*
X54205D01*
X54214Y48262D02*
X54317Y48272D01*
X54172Y49099D02*
Y49167D01*
X54359D01*
Y49099D01*
X54172D01*
X54180Y49107D02*
X54180Y49159D01*
X54350Y49159D01*
X54350Y49107D01*
X54180Y49107D01*
X54189Y49115D02*
Y49151D01*
X54342D01*
Y49115D01*
X54189D01*
X54197Y49124D02*
Y49142D01*
X54334Y49142D01*
Y49124D01*
X54197Y49124D01*
X54205Y49132D02*
Y49134D01*
X54325D01*
Y49132D01*
X54205D01*
X54214Y49128D02*
X54317Y49138D01*
X48372Y49033D02*
Y49101D01*
X48559D01*
Y49033D01*
X48372D01*
X48380Y49041D02*
X48380Y49093D01*
X48550Y49093D01*
X48550Y49041D01*
X48380Y49041D01*
X48389Y49049D02*
Y49085D01*
X48542D01*
Y49049D01*
X48389D01*
X48397Y49058D02*
Y49076D01*
X48534Y49076D01*
Y49058D01*
X48397Y49058D01*
X48405Y49066D02*
Y49068D01*
X48525D01*
Y49066D01*
X48405D01*
X48414Y49062D02*
X48517Y49072D01*
X48372Y49899D02*
Y49967D01*
X48559D01*
Y49899D01*
X48372D01*
X48380Y49907D02*
X48380Y49959D01*
X48550Y49959D01*
X48550Y49907D01*
X48380Y49907D01*
X48389Y49915D02*
Y49951D01*
X48542D01*
Y49915D01*
X48389D01*
X48397Y49924D02*
Y49942D01*
X48534Y49942D01*
Y49924D01*
X48397Y49924D01*
X48405Y49932D02*
Y49934D01*
X48525D01*
Y49932D01*
X48405D01*
X48414Y49928D02*
X48517Y49938D01*
X54172Y52133D02*
Y52201D01*
X54359D01*
Y52133D01*
X54172D01*
X54180Y52141D02*
X54180Y52193D01*
X54350Y52193D01*
X54350Y52141D01*
X54180Y52141D01*
X54189Y52149D02*
Y52185D01*
X54342D01*
Y52149D01*
X54189D01*
X54197Y52158D02*
Y52176D01*
X54334Y52176D01*
Y52158D01*
X54197Y52158D01*
X54205Y52166D02*
Y52168D01*
X54325D01*
Y52166D01*
X54205D01*
X54214Y52162D02*
X54317Y52172D01*
X54172Y52999D02*
Y53067D01*
X54359D01*
Y52999D01*
X54172D01*
X54180Y53007D02*
X54180Y53059D01*
X54350Y53059D01*
X54350Y53007D01*
X54180Y53007D01*
X54189Y53015D02*
Y53051D01*
X54342D01*
Y53015D01*
X54189D01*
X54197Y53024D02*
Y53042D01*
X54334Y53042D01*
Y53024D01*
X54197Y53024D01*
X54205Y53032D02*
Y53034D01*
X54325D01*
Y53032D01*
X54205D01*
X54214Y53028D02*
X54317Y53038D01*
X48372Y52933D02*
Y53001D01*
X48559D01*
Y52933D01*
X48372D01*
X48380Y52941D02*
X48380Y52993D01*
X48550Y52993D01*
X48550Y52941D01*
X48380Y52941D01*
X48389Y52949D02*
Y52985D01*
X48542D01*
Y52949D01*
X48389D01*
X48397Y52958D02*
Y52976D01*
X48534Y52976D01*
Y52958D01*
X48397Y52958D01*
X48405Y52966D02*
Y52968D01*
X48525D01*
Y52966D01*
X48405D01*
X48414Y52962D02*
X48517Y52972D01*
X48372Y53799D02*
Y53867D01*
X48559D01*
Y53799D01*
X48372D01*
X48380Y53807D02*
X48380Y53859D01*
X48550Y53859D01*
X48550Y53807D01*
X48380Y53807D01*
X48389Y53815D02*
Y53851D01*
X48542D01*
Y53815D01*
X48389D01*
X48397Y53824D02*
Y53842D01*
X48534Y53842D01*
Y53824D01*
X48397Y53824D01*
X48405Y53832D02*
Y53834D01*
X48525D01*
Y53832D01*
X48405D01*
X48414Y53828D02*
X48517Y53838D01*
X54172Y56033D02*
Y56101D01*
X54359D01*
Y56033D01*
X54172D01*
X54180Y56041D02*
X54180Y56093D01*
X54350Y56093D01*
X54350Y56041D01*
X54180Y56041D01*
X54189Y56049D02*
Y56085D01*
X54342D01*
Y56049D01*
X54189D01*
X54197Y56058D02*
Y56076D01*
X54334Y56076D01*
Y56058D01*
X54197Y56058D01*
X54205Y56066D02*
Y56068D01*
X54325D01*
Y56066D01*
X54205D01*
X54214Y56062D02*
X54317Y56072D01*
X54172Y56899D02*
Y56967D01*
X54359D01*
Y56899D01*
X54172D01*
X54180Y56907D02*
X54180Y56959D01*
X54350Y56959D01*
X54350Y56907D01*
X54180Y56907D01*
X54189Y56915D02*
Y56951D01*
X54342D01*
Y56915D01*
X54189D01*
X54197Y56924D02*
Y56942D01*
X54334Y56942D01*
Y56924D01*
X54197Y56924D01*
X54205Y56932D02*
Y56934D01*
X54325D01*
Y56932D01*
X54205D01*
X54214Y56928D02*
X54317Y56938D01*
X48372Y56833D02*
Y56901D01*
X48559D01*
Y56833D01*
X48372D01*
X48380Y56841D02*
X48380Y56893D01*
X48550Y56893D01*
X48550Y56841D01*
X48380Y56841D01*
X48389Y56849D02*
Y56885D01*
X48542D01*
Y56849D01*
X48389D01*
X48397Y56858D02*
Y56876D01*
X48534Y56876D01*
Y56858D01*
X48397Y56858D01*
X48405Y56866D02*
Y56868D01*
X48525D01*
Y56866D01*
X48405D01*
X48414Y56862D02*
X48517Y56872D01*
X48372Y57699D02*
Y57767D01*
X48559D01*
Y57699D01*
X48372D01*
X48380Y57707D02*
X48380Y57759D01*
X48550Y57759D01*
X48550Y57707D01*
X48380Y57707D01*
X48389Y57715D02*
Y57751D01*
X48542D01*
Y57715D01*
X48389D01*
X48397Y57724D02*
Y57742D01*
X48534Y57742D01*
Y57724D01*
X48397Y57724D01*
X48405Y57732D02*
Y57734D01*
X48525D01*
Y57732D01*
X48405D01*
X48414Y57728D02*
X48517Y57738D01*
X54172Y59933D02*
Y60001D01*
X54359D01*
Y59933D01*
X54172D01*
X54180Y59941D02*
X54180Y59993D01*
X54350Y59993D01*
X54350Y59941D01*
X54180Y59941D01*
X54189Y59949D02*
Y59985D01*
X54342D01*
Y59949D01*
X54189D01*
X54197Y59958D02*
Y59976D01*
X54334Y59976D01*
Y59958D01*
X54197Y59958D01*
X54205Y59966D02*
Y59968D01*
X54325D01*
Y59966D01*
X54205D01*
X54214Y59962D02*
X54317Y59972D01*
X54172Y60799D02*
Y60867D01*
X54359D01*
Y60799D01*
X54172D01*
X54180Y60807D02*
X54180Y60859D01*
X54350Y60859D01*
X54350Y60807D01*
X54180Y60807D01*
X54189Y60815D02*
Y60851D01*
X54342D01*
Y60815D01*
X54189D01*
X54197Y60824D02*
Y60842D01*
X54334Y60842D01*
Y60824D01*
X54197Y60824D01*
X54205Y60832D02*
Y60834D01*
X54325D01*
Y60832D01*
X54205D01*
X54214Y60828D02*
X54317Y60838D01*
X48372Y60733D02*
Y60801D01*
X48559D01*
Y60733D01*
X48372D01*
X48380Y60741D02*
X48380Y60793D01*
X48550Y60793D01*
X48550Y60741D01*
X48380Y60741D01*
X48389Y60749D02*
Y60785D01*
X48542D01*
Y60749D01*
X48389D01*
X48397Y60758D02*
Y60776D01*
X48534Y60776D01*
Y60758D01*
X48397Y60758D01*
X48405Y60766D02*
Y60768D01*
X48525D01*
Y60766D01*
X48405D01*
X48414Y60762D02*
X48517Y60772D01*
X48372Y61599D02*
Y61667D01*
X48559D01*
Y61599D01*
X48372D01*
X48380Y61607D02*
X48380Y61659D01*
X48550Y61659D01*
X48550Y61607D01*
X48380Y61607D01*
X48389Y61615D02*
Y61651D01*
X48542D01*
Y61615D01*
X48389D01*
X48397Y61624D02*
Y61642D01*
X48534Y61642D01*
Y61624D01*
X48397Y61624D01*
X48405Y61632D02*
Y61634D01*
X48525D01*
Y61632D01*
X48405D01*
X48414Y61628D02*
X48517Y61638D01*
X54172Y63833D02*
Y63901D01*
X54359D01*
Y63833D01*
X54172D01*
X54180Y63841D02*
X54180Y63893D01*
X54350Y63893D01*
X54350Y63841D01*
X54180Y63841D01*
X54189Y63849D02*
Y63885D01*
X54342D01*
Y63849D01*
X54189D01*
X54197Y63858D02*
Y63876D01*
X54334Y63876D01*
Y63858D01*
X54197Y63858D01*
X54205Y63866D02*
Y63868D01*
X54325D01*
Y63866D01*
X54205D01*
X54214Y63862D02*
X54317Y63872D01*
X54172Y64699D02*
Y64767D01*
X54359D01*
Y64699D01*
X54172D01*
X54180Y64707D02*
X54180Y64759D01*
X54350Y64759D01*
X54350Y64707D01*
X54180Y64707D01*
X54189Y64715D02*
Y64751D01*
X54342D01*
Y64715D01*
X54189D01*
X54197Y64724D02*
Y64742D01*
X54334Y64742D01*
Y64724D01*
X54197Y64724D01*
X54205Y64732D02*
Y64734D01*
X54325D01*
Y64732D01*
X54205D01*
X54214Y64728D02*
X54317Y64738D01*
X48372Y64633D02*
Y64701D01*
X48559D01*
Y64633D01*
X48372D01*
X48380Y64641D02*
X48380Y64693D01*
X48550Y64693D01*
X48550Y64641D01*
X48380Y64641D01*
X48389Y64649D02*
Y64685D01*
X48542D01*
Y64649D01*
X48389D01*
X48397Y64658D02*
Y64676D01*
X48534Y64676D01*
Y64658D01*
X48397Y64658D01*
X48405Y64666D02*
Y64668D01*
X48525D01*
Y64666D01*
X48405D01*
X48414Y64662D02*
X48517Y64672D01*
X48372Y65499D02*
Y65567D01*
X48559D01*
Y65499D01*
X48372D01*
X48380Y65507D02*
X48380Y65559D01*
X48550Y65559D01*
X48550Y65507D01*
X48380Y65507D01*
X48389Y65515D02*
Y65551D01*
X48542D01*
Y65515D01*
X48389D01*
X48397Y65524D02*
Y65542D01*
X48534Y65542D01*
Y65524D01*
X48397Y65524D01*
X48405Y65532D02*
Y65534D01*
X48525D01*
Y65532D01*
X48405D01*
X48414Y65528D02*
X48517Y65538D01*
X54172Y68599D02*
Y68667D01*
X54359D01*
Y68599D01*
X54172D01*
X54180Y68607D02*
X54180Y68659D01*
X54350Y68659D01*
X54350Y68607D01*
X54180Y68607D01*
X54189Y68615D02*
Y68651D01*
X54342D01*
Y68615D01*
X54189D01*
X54197Y68624D02*
Y68642D01*
X54334Y68642D01*
Y68624D01*
X54197Y68624D01*
X54205Y68632D02*
Y68634D01*
X54325D01*
Y68632D01*
X54205D01*
X54214Y68628D02*
X54317Y68638D01*
X54172Y67733D02*
Y67801D01*
X54359D01*
Y67733D01*
X54172D01*
X54180Y67741D02*
X54180Y67793D01*
X54350Y67793D01*
X54350Y67741D01*
X54180Y67741D01*
X54189Y67749D02*
Y67785D01*
X54342D01*
Y67749D01*
X54189D01*
X54197Y67758D02*
Y67776D01*
X54334Y67776D01*
Y67758D01*
X54197Y67758D01*
X54205Y67766D02*
Y67768D01*
X54325D01*
Y67766D01*
X54205D01*
X54214Y67762D02*
X54317Y67772D01*
X48372Y69399D02*
Y69467D01*
X48559D01*
Y69399D01*
X48372D01*
X48380Y69407D02*
X48380Y69459D01*
X48550Y69459D01*
X48550Y69407D01*
X48380Y69407D01*
X48389Y69415D02*
Y69451D01*
X48542D01*
Y69415D01*
X48389D01*
X48397Y69424D02*
Y69442D01*
X48534Y69442D01*
Y69424D01*
X48397Y69424D01*
X48405Y69432D02*
Y69434D01*
X48525D01*
Y69432D01*
X48405D01*
X48414Y69428D02*
X48517Y69438D01*
X48372Y68533D02*
Y68601D01*
X48559D01*
Y68533D01*
X48372D01*
X48380Y68541D02*
X48380Y68593D01*
X48550Y68593D01*
X48550Y68541D01*
X48380Y68541D01*
X48389Y68549D02*
Y68585D01*
X48542D01*
Y68549D01*
X48389D01*
X48397Y68558D02*
Y68576D01*
X48534Y68576D01*
Y68558D01*
X48397Y68558D01*
X48405Y68566D02*
Y68568D01*
X48525D01*
Y68566D01*
X48405D01*
X48414Y68562D02*
X48517Y68572D01*
X39772Y66999D02*
Y67067D01*
X39959D01*
Y66999D01*
X39772D01*
X39780Y67007D02*
X39780Y67059D01*
X39950Y67059D01*
X39950Y67007D01*
X39780Y67007D01*
X39789Y67015D02*
Y67051D01*
X39942D01*
Y67015D01*
X39789D01*
X39797Y67024D02*
Y67042D01*
X39934Y67042D01*
Y67024D01*
X39797Y67024D01*
X39805Y67032D02*
Y67034D01*
X39925D01*
Y67032D01*
X39805D01*
X39814Y67028D02*
X39917Y67038D01*
X39772Y66133D02*
Y66201D01*
X39959D01*
Y66133D01*
X39772D01*
X39780Y66141D02*
X39780Y66193D01*
X39950Y66193D01*
X39950Y66141D01*
X39780Y66141D01*
X39789Y66149D02*
Y66185D01*
X39942D01*
Y66149D01*
X39789D01*
X39797Y66158D02*
Y66176D01*
X39934Y66176D01*
Y66158D01*
X39797Y66158D01*
X39805Y66166D02*
Y66168D01*
X39925D01*
Y66166D01*
X39805D01*
X39814Y66162D02*
X39917Y66172D01*
X34572Y68799D02*
Y68867D01*
X34759D01*
Y68799D01*
X34572D01*
X34580Y68807D02*
X34580Y68859D01*
X34750Y68859D01*
X34750Y68807D01*
X34580Y68807D01*
X34589Y68815D02*
Y68851D01*
X34742D01*
Y68815D01*
X34589D01*
X34597Y68824D02*
Y68842D01*
X34734Y68842D01*
Y68824D01*
X34597Y68824D01*
X34605Y68832D02*
Y68834D01*
X34725D01*
Y68832D01*
X34605D01*
X34614Y68828D02*
X34717Y68838D01*
X34572Y67933D02*
Y68001D01*
X34759D01*
Y67933D01*
X34572D01*
X34580Y67941D02*
X34580Y67993D01*
X34750Y67993D01*
X34750Y67941D01*
X34580Y67941D01*
X34589Y67949D02*
Y67985D01*
X34742D01*
Y67949D01*
X34589D01*
X34597Y67958D02*
Y67976D01*
X34734Y67976D01*
Y67958D01*
X34597Y67958D01*
X34605Y67966D02*
Y67968D01*
X34725D01*
Y67966D01*
X34605D01*
X34614Y67962D02*
X34717Y67972D01*
X32572Y66599D02*
Y66667D01*
X32759D01*
Y66599D01*
X32572D01*
X32580Y66607D02*
X32580Y66659D01*
X32750Y66659D01*
X32750Y66607D01*
X32580Y66607D01*
X32589Y66615D02*
Y66651D01*
X32742D01*
Y66615D01*
X32589D01*
X32597Y66624D02*
Y66642D01*
X32734Y66642D01*
Y66624D01*
X32597Y66624D01*
X32605Y66632D02*
Y66634D01*
X32725D01*
Y66632D01*
X32605D01*
X32614Y66628D02*
X32717Y66638D01*
X32572Y65733D02*
Y65801D01*
X32759D01*
Y65733D01*
X32572D01*
X32580Y65741D02*
X32580Y65793D01*
X32750Y65793D01*
X32750Y65741D01*
X32580Y65741D01*
X32589Y65749D02*
Y65785D01*
X32742D01*
Y65749D01*
X32589D01*
X32597Y65758D02*
Y65776D01*
X32734Y65776D01*
Y65758D01*
X32597Y65758D01*
X32605Y65766D02*
Y65768D01*
X32725D01*
Y65766D01*
X32605D01*
X32614Y65762D02*
X32717Y65772D01*
X31172Y68999D02*
Y69067D01*
X31359D01*
Y68999D01*
X31172D01*
X31180Y69007D02*
X31180Y69059D01*
X31350Y69059D01*
X31350Y69007D01*
X31180Y69007D01*
X31189Y69015D02*
Y69051D01*
X31342D01*
Y69015D01*
X31189D01*
X31197Y69024D02*
Y69042D01*
X31334Y69042D01*
Y69024D01*
X31197Y69024D01*
X31205Y69032D02*
Y69034D01*
X31325D01*
Y69032D01*
X31205D01*
X31214Y69028D02*
X31317Y69038D01*
X31172Y68133D02*
Y68201D01*
X31359D01*
Y68133D01*
X31172D01*
X31180Y68141D02*
X31180Y68193D01*
X31350Y68193D01*
X31350Y68141D01*
X31180Y68141D01*
X31189Y68149D02*
Y68185D01*
X31342D01*
Y68149D01*
X31189D01*
X31197Y68158D02*
Y68176D01*
X31334Y68176D01*
Y68158D01*
X31197Y68158D01*
X31205Y68166D02*
Y68168D01*
X31325D01*
Y68166D01*
X31205D01*
X31214Y68162D02*
X31317Y68172D01*
X32572Y62699D02*
Y62767D01*
X32759D01*
Y62699D01*
X32572D01*
X32580Y62707D02*
X32580Y62759D01*
X32750Y62759D01*
X32750Y62707D01*
X32580Y62707D01*
X32589Y62715D02*
Y62751D01*
X32742D01*
Y62715D01*
X32589D01*
X32597Y62724D02*
Y62742D01*
X32734Y62742D01*
Y62724D01*
X32597Y62724D01*
X32605Y62732D02*
Y62734D01*
X32725D01*
Y62732D01*
X32605D01*
X32614Y62728D02*
X32717Y62738D01*
X32572Y61833D02*
Y61901D01*
X32759D01*
Y61833D01*
X32572D01*
X32580Y61841D02*
X32580Y61893D01*
X32750Y61893D01*
X32750Y61841D01*
X32580Y61841D01*
X32589Y61849D02*
Y61885D01*
X32742D01*
Y61849D01*
X32589D01*
X32597Y61858D02*
Y61876D01*
X32734Y61876D01*
Y61858D01*
X32597Y61858D01*
X32605Y61866D02*
Y61868D01*
X32725D01*
Y61866D01*
X32605D01*
X32614Y61862D02*
X32717Y61872D01*
X31172Y65099D02*
Y65167D01*
X31359D01*
Y65099D01*
X31172D01*
X31180Y65107D02*
X31180Y65159D01*
X31350Y65159D01*
X31350Y65107D01*
X31180Y65107D01*
X31189Y65115D02*
Y65151D01*
X31342D01*
Y65115D01*
X31189D01*
X31197Y65124D02*
Y65142D01*
X31334Y65142D01*
Y65124D01*
X31197Y65124D01*
X31205Y65132D02*
Y65134D01*
X31325D01*
Y65132D01*
X31205D01*
X31214Y65128D02*
X31317Y65138D01*
X31172Y64233D02*
Y64301D01*
X31359D01*
Y64233D01*
X31172D01*
X31180Y64241D02*
X31180Y64293D01*
X31350Y64293D01*
X31350Y64241D01*
X31180Y64241D01*
X31189Y64249D02*
Y64285D01*
X31342D01*
Y64249D01*
X31189D01*
X31197Y64258D02*
Y64276D01*
X31334Y64276D01*
Y64258D01*
X31197Y64258D01*
X31205Y64266D02*
Y64268D01*
X31325D01*
Y64266D01*
X31205D01*
X31214Y64262D02*
X31317Y64272D01*
X32572Y58799D02*
Y58867D01*
X32759D01*
Y58799D01*
X32572D01*
X32580Y58807D02*
X32580Y58859D01*
X32750Y58859D01*
X32750Y58807D01*
X32580Y58807D01*
X32589Y58815D02*
Y58851D01*
X32742D01*
Y58815D01*
X32589D01*
X32597Y58824D02*
Y58842D01*
X32734Y58842D01*
Y58824D01*
X32597Y58824D01*
X32605Y58832D02*
Y58834D01*
X32725D01*
Y58832D01*
X32605D01*
X32614Y58828D02*
X32717Y58838D01*
X32572Y57933D02*
Y58001D01*
X32759D01*
Y57933D01*
X32572D01*
X32580Y57941D02*
X32580Y57993D01*
X32750Y57993D01*
X32750Y57941D01*
X32580Y57941D01*
X32589Y57949D02*
Y57985D01*
X32742D01*
Y57949D01*
X32589D01*
X32597Y57958D02*
Y57976D01*
X32734Y57976D01*
Y57958D01*
X32597Y57958D01*
X32605Y57966D02*
Y57968D01*
X32725D01*
Y57966D01*
X32605D01*
X32614Y57962D02*
X32717Y57972D01*
X31172Y61199D02*
Y61267D01*
X31359D01*
Y61199D01*
X31172D01*
X31180Y61207D02*
X31180Y61259D01*
X31350Y61259D01*
X31350Y61207D01*
X31180Y61207D01*
X31189Y61215D02*
Y61251D01*
X31342D01*
Y61215D01*
X31189D01*
X31197Y61224D02*
Y61242D01*
X31334Y61242D01*
Y61224D01*
X31197Y61224D01*
X31205Y61232D02*
Y61234D01*
X31325D01*
Y61232D01*
X31205D01*
X31214Y61228D02*
X31317Y61238D01*
X31172Y60333D02*
Y60401D01*
X31359D01*
Y60333D01*
X31172D01*
X31180Y60341D02*
X31180Y60393D01*
X31350Y60393D01*
X31350Y60341D01*
X31180Y60341D01*
X31189Y60349D02*
Y60385D01*
X31342D01*
Y60349D01*
X31189D01*
X31197Y60358D02*
Y60376D01*
X31334Y60376D01*
Y60358D01*
X31197Y60358D01*
X31205Y60366D02*
Y60368D01*
X31325D01*
Y60366D01*
X31205D01*
X31214Y60362D02*
X31317Y60372D01*
X32572Y54899D02*
Y54967D01*
X32759D01*
Y54899D01*
X32572D01*
X32580Y54907D02*
X32580Y54959D01*
X32750Y54959D01*
X32750Y54907D01*
X32580Y54907D01*
X32589Y54915D02*
Y54951D01*
X32742D01*
Y54915D01*
X32589D01*
X32597Y54924D02*
Y54942D01*
X32734Y54942D01*
Y54924D01*
X32597Y54924D01*
X32605Y54932D02*
Y54934D01*
X32725D01*
Y54932D01*
X32605D01*
X32614Y54928D02*
X32717Y54938D01*
X32572Y54033D02*
Y54101D01*
X32759D01*
Y54033D01*
X32572D01*
X32580Y54041D02*
X32580Y54093D01*
X32750Y54093D01*
X32750Y54041D01*
X32580Y54041D01*
X32589Y54049D02*
Y54085D01*
X32742D01*
Y54049D01*
X32589D01*
X32597Y54058D02*
Y54076D01*
X32734Y54076D01*
Y54058D01*
X32597Y54058D01*
X32605Y54066D02*
Y54068D01*
X32725D01*
Y54066D01*
X32605D01*
X32614Y54062D02*
X32717Y54072D01*
X31172Y57299D02*
Y57367D01*
X31359D01*
Y57299D01*
X31172D01*
X31180Y57307D02*
X31180Y57359D01*
X31350Y57359D01*
X31350Y57307D01*
X31180Y57307D01*
X31189Y57315D02*
Y57351D01*
X31342D01*
Y57315D01*
X31189D01*
X31197Y57324D02*
Y57342D01*
X31334Y57342D01*
Y57324D01*
X31197Y57324D01*
X31205Y57332D02*
Y57334D01*
X31325D01*
Y57332D01*
X31205D01*
X31214Y57328D02*
X31317Y57338D01*
X31172Y56433D02*
Y56501D01*
X31359D01*
Y56433D01*
X31172D01*
X31180Y56441D02*
X31180Y56493D01*
X31350Y56493D01*
X31350Y56441D01*
X31180Y56441D01*
X31189Y56449D02*
Y56485D01*
X31342D01*
Y56449D01*
X31189D01*
X31197Y56458D02*
Y56476D01*
X31334Y56476D01*
Y56458D01*
X31197Y56458D01*
X31205Y56466D02*
Y56468D01*
X31325D01*
Y56466D01*
X31205D01*
X31214Y56462D02*
X31317Y56472D01*
X32572Y43199D02*
Y43267D01*
X32759D01*
Y43199D01*
X32572D01*
X32580Y43207D02*
X32580Y43259D01*
X32750Y43259D01*
X32750Y43207D01*
X32580Y43207D01*
X32589Y43215D02*
Y43251D01*
X32742D01*
Y43215D01*
X32589D01*
X32597Y43224D02*
Y43242D01*
X32734Y43242D01*
Y43224D01*
X32597Y43224D01*
X32605Y43232D02*
Y43234D01*
X32725D01*
Y43232D01*
X32605D01*
X32614Y43228D02*
X32717Y43238D01*
X32572Y42333D02*
Y42401D01*
X32759D01*
Y42333D01*
X32572D01*
X32580Y42341D02*
X32580Y42393D01*
X32750Y42393D01*
X32750Y42341D01*
X32580Y42341D01*
X32589Y42349D02*
Y42385D01*
X32742D01*
Y42349D01*
X32589D01*
X32597Y42358D02*
Y42376D01*
X32734Y42376D01*
Y42358D01*
X32597Y42358D01*
X32605Y42366D02*
Y42368D01*
X32725D01*
Y42366D01*
X32605D01*
X32614Y42362D02*
X32717Y42372D01*
X31172Y45599D02*
Y45667D01*
X31359D01*
Y45599D01*
X31172D01*
X31180Y45607D02*
X31180Y45659D01*
X31350Y45659D01*
X31350Y45607D01*
X31180Y45607D01*
X31189Y45615D02*
Y45651D01*
X31342D01*
Y45615D01*
X31189D01*
X31197Y45624D02*
Y45642D01*
X31334Y45642D01*
Y45624D01*
X31197Y45624D01*
X31205Y45632D02*
Y45634D01*
X31325D01*
Y45632D01*
X31205D01*
X31214Y45628D02*
X31317Y45638D01*
X31172Y44733D02*
Y44801D01*
X31359D01*
Y44733D01*
X31172D01*
X31180Y44741D02*
X31180Y44793D01*
X31350Y44793D01*
X31350Y44741D01*
X31180Y44741D01*
X31189Y44749D02*
Y44785D01*
X31342D01*
Y44749D01*
X31189D01*
X31197Y44758D02*
Y44776D01*
X31334Y44776D01*
Y44758D01*
X31197Y44758D01*
X31205Y44766D02*
Y44768D01*
X31325D01*
Y44766D01*
X31205D01*
X31214Y44762D02*
X31317Y44772D01*
X32572Y39299D02*
Y39367D01*
X32759D01*
Y39299D01*
X32572D01*
X32580Y39307D02*
X32580Y39359D01*
X32750Y39359D01*
X32750Y39307D01*
X32580Y39307D01*
X32589Y39315D02*
Y39351D01*
X32742D01*
Y39315D01*
X32589D01*
X32597Y39324D02*
Y39342D01*
X32734Y39342D01*
Y39324D01*
X32597Y39324D01*
X32605Y39332D02*
Y39334D01*
X32725D01*
Y39332D01*
X32605D01*
X32614Y39328D02*
X32717Y39338D01*
X32572Y38433D02*
Y38501D01*
X32759D01*
Y38433D01*
X32572D01*
X32580Y38441D02*
X32580Y38493D01*
X32750Y38493D01*
X32750Y38441D01*
X32580Y38441D01*
X32589Y38449D02*
Y38485D01*
X32742D01*
Y38449D01*
X32589D01*
X32597Y38458D02*
Y38476D01*
X32734Y38476D01*
Y38458D01*
X32597Y38458D01*
X32605Y38466D02*
Y38468D01*
X32725D01*
Y38466D01*
X32605D01*
X32614Y38462D02*
X32717Y38472D01*
X31172Y41699D02*
Y41767D01*
X31359D01*
Y41699D01*
X31172D01*
X31180Y41707D02*
X31180Y41759D01*
X31350Y41759D01*
X31350Y41707D01*
X31180Y41707D01*
X31189Y41715D02*
Y41751D01*
X31342D01*
Y41715D01*
X31189D01*
X31197Y41724D02*
Y41742D01*
X31334Y41742D01*
Y41724D01*
X31197Y41724D01*
X31205Y41732D02*
Y41734D01*
X31325D01*
Y41732D01*
X31205D01*
X31214Y41728D02*
X31317Y41738D01*
X31172Y40833D02*
Y40901D01*
X31359D01*
Y40833D01*
X31172D01*
X31180Y40841D02*
X31180Y40893D01*
X31350Y40893D01*
X31350Y40841D01*
X31180Y40841D01*
X31189Y40849D02*
Y40885D01*
X31342D01*
Y40849D01*
X31189D01*
X31197Y40858D02*
Y40876D01*
X31334Y40876D01*
Y40858D01*
X31197Y40858D01*
X31205Y40866D02*
Y40868D01*
X31325D01*
Y40866D01*
X31205D01*
X31214Y40862D02*
X31317Y40872D01*
X32572Y35399D02*
Y35467D01*
X32759D01*
Y35399D01*
X32572D01*
X32580Y35407D02*
X32580Y35459D01*
X32750Y35459D01*
X32750Y35407D01*
X32580Y35407D01*
X32589Y35415D02*
Y35451D01*
X32742D01*
Y35415D01*
X32589D01*
X32597Y35424D02*
Y35442D01*
X32734Y35442D01*
Y35424D01*
X32597Y35424D01*
X32605Y35432D02*
Y35434D01*
X32725D01*
Y35432D01*
X32605D01*
X32614Y35428D02*
X32717Y35438D01*
X32572Y34533D02*
Y34601D01*
X32759D01*
Y34533D01*
X32572D01*
X32580Y34541D02*
X32580Y34593D01*
X32750Y34593D01*
X32750Y34541D01*
X32580Y34541D01*
X32589Y34549D02*
Y34585D01*
X32742D01*
Y34549D01*
X32589D01*
X32597Y34558D02*
Y34576D01*
X32734Y34576D01*
Y34558D01*
X32597Y34558D01*
X32605Y34566D02*
Y34568D01*
X32725D01*
Y34566D01*
X32605D01*
X32614Y34562D02*
X32717Y34572D01*
X31172Y37799D02*
Y37867D01*
X31359D01*
Y37799D01*
X31172D01*
X31180Y37807D02*
X31180Y37859D01*
X31350Y37859D01*
X31350Y37807D01*
X31180Y37807D01*
X31189Y37815D02*
Y37851D01*
X31342D01*
Y37815D01*
X31189D01*
X31197Y37824D02*
Y37842D01*
X31334Y37842D01*
Y37824D01*
X31197Y37824D01*
X31205Y37832D02*
Y37834D01*
X31325D01*
Y37832D01*
X31205D01*
X31214Y37828D02*
X31317Y37838D01*
X31172Y36933D02*
Y37001D01*
X31359D01*
Y36933D01*
X31172D01*
X31180Y36941D02*
X31180Y36993D01*
X31350Y36993D01*
X31350Y36941D01*
X31180Y36941D01*
X31189Y36949D02*
Y36985D01*
X31342D01*
Y36949D01*
X31189D01*
X31197Y36958D02*
Y36976D01*
X31334Y36976D01*
Y36958D01*
X31197Y36958D01*
X31205Y36966D02*
Y36968D01*
X31325D01*
Y36966D01*
X31205D01*
X31214Y36962D02*
X31317Y36972D01*
X32572Y31499D02*
Y31567D01*
X32759D01*
Y31499D01*
X32572D01*
X32580Y31507D02*
X32580Y31559D01*
X32750Y31559D01*
X32750Y31507D01*
X32580Y31507D01*
X32589Y31515D02*
Y31551D01*
X32742D01*
Y31515D01*
X32589D01*
X32597Y31524D02*
Y31542D01*
X32734Y31542D01*
Y31524D01*
X32597Y31524D01*
X32605Y31532D02*
Y31534D01*
X32725D01*
Y31532D01*
X32605D01*
X32614Y31528D02*
X32717Y31538D01*
X32572Y30633D02*
Y30701D01*
X32759D01*
Y30633D01*
X32572D01*
X32580Y30641D02*
X32580Y30693D01*
X32750Y30693D01*
X32750Y30641D01*
X32580Y30641D01*
X32589Y30649D02*
Y30685D01*
X32742D01*
Y30649D01*
X32589D01*
X32597Y30658D02*
Y30676D01*
X32734Y30676D01*
Y30658D01*
X32597Y30658D01*
X32605Y30666D02*
Y30668D01*
X32725D01*
Y30666D01*
X32605D01*
X32614Y30662D02*
X32717Y30672D01*
X31172Y33899D02*
Y33967D01*
X31359D01*
Y33899D01*
X31172D01*
X31180Y33907D02*
X31180Y33959D01*
X31350Y33959D01*
X31350Y33907D01*
X31180Y33907D01*
X31189Y33915D02*
Y33951D01*
X31342D01*
Y33915D01*
X31189D01*
X31197Y33924D02*
Y33942D01*
X31334Y33942D01*
Y33924D01*
X31197Y33924D01*
X31205Y33932D02*
Y33934D01*
X31325D01*
Y33932D01*
X31205D01*
X31214Y33928D02*
X31317Y33938D01*
X31172Y33033D02*
Y33101D01*
X31359D01*
Y33033D01*
X31172D01*
X31180Y33041D02*
X31180Y33093D01*
X31350Y33093D01*
X31350Y33041D01*
X31180Y33041D01*
X31189Y33049D02*
Y33085D01*
X31342D01*
Y33049D01*
X31189D01*
X31197Y33058D02*
Y33076D01*
X31334Y33076D01*
Y33058D01*
X31197Y33058D01*
X31205Y33066D02*
Y33068D01*
X31325D01*
Y33066D01*
X31205D01*
X31214Y33062D02*
X31317Y33072D01*
X34572Y64899D02*
Y64967D01*
X34759D01*
Y64899D01*
X34572D01*
X34580Y64907D02*
X34580Y64959D01*
X34750Y64959D01*
X34750Y64907D01*
X34580Y64907D01*
X34589Y64915D02*
Y64951D01*
X34742D01*
Y64915D01*
X34589D01*
X34597Y64924D02*
Y64942D01*
X34734Y64942D01*
Y64924D01*
X34597Y64924D01*
X34605Y64932D02*
Y64934D01*
X34725D01*
Y64932D01*
X34605D01*
X34614Y64928D02*
X34717Y64938D01*
X34572Y64033D02*
Y64101D01*
X34759D01*
Y64033D01*
X34572D01*
X34580Y64041D02*
X34580Y64093D01*
X34750Y64093D01*
X34750Y64041D01*
X34580Y64041D01*
X34589Y64049D02*
Y64085D01*
X34742D01*
Y64049D01*
X34589D01*
X34597Y64058D02*
Y64076D01*
X34734Y64076D01*
Y64058D01*
X34597Y64058D01*
X34605Y64066D02*
Y64068D01*
X34725D01*
Y64066D01*
X34605D01*
X34614Y64062D02*
X34717Y64072D01*
X39772Y63099D02*
Y63167D01*
X39959D01*
Y63099D01*
X39772D01*
X39780Y63107D02*
X39780Y63159D01*
X39950Y63159D01*
X39950Y63107D01*
X39780Y63107D01*
X39789Y63115D02*
Y63151D01*
X39942D01*
Y63115D01*
X39789D01*
X39797Y63124D02*
Y63142D01*
X39934Y63142D01*
Y63124D01*
X39797Y63124D01*
X39805Y63132D02*
Y63134D01*
X39925D01*
Y63132D01*
X39805D01*
X39814Y63128D02*
X39917Y63138D01*
X39772Y62233D02*
Y62301D01*
X39959D01*
Y62233D01*
X39772D01*
X39780Y62241D02*
X39780Y62293D01*
X39950Y62293D01*
X39950Y62241D01*
X39780Y62241D01*
X39789Y62249D02*
Y62285D01*
X39942D01*
Y62249D01*
X39789D01*
X39797Y62258D02*
Y62276D01*
X39934Y62276D01*
Y62258D01*
X39797Y62258D01*
X39805Y62266D02*
Y62268D01*
X39925D01*
Y62266D01*
X39805D01*
X39814Y62262D02*
X39917Y62272D01*
X34572Y60999D02*
Y61067D01*
X34759D01*
Y60999D01*
X34572D01*
X34580Y61007D02*
X34580Y61059D01*
X34750Y61059D01*
X34750Y61007D01*
X34580Y61007D01*
X34589Y61015D02*
Y61051D01*
X34742D01*
Y61015D01*
X34589D01*
X34597Y61024D02*
Y61042D01*
X34734Y61042D01*
Y61024D01*
X34597Y61024D01*
X34605Y61032D02*
Y61034D01*
X34725D01*
Y61032D01*
X34605D01*
X34614Y61028D02*
X34717Y61038D01*
X34572Y60133D02*
Y60201D01*
X34759D01*
Y60133D01*
X34572D01*
X34580Y60141D02*
X34580Y60193D01*
X34750Y60193D01*
X34750Y60141D01*
X34580Y60141D01*
X34589Y60149D02*
Y60185D01*
X34742D01*
Y60149D01*
X34589D01*
X34597Y60158D02*
Y60176D01*
X34734Y60176D01*
Y60158D01*
X34597Y60158D01*
X34605Y60166D02*
Y60168D01*
X34725D01*
Y60166D01*
X34605D01*
X34614Y60162D02*
X34717Y60172D01*
X39772Y59199D02*
Y59267D01*
X39959D01*
Y59199D01*
X39772D01*
X39780Y59207D02*
X39780Y59259D01*
X39950Y59259D01*
X39950Y59207D01*
X39780Y59207D01*
X39789Y59215D02*
Y59251D01*
X39942D01*
Y59215D01*
X39789D01*
X39797Y59224D02*
Y59242D01*
X39934Y59242D01*
Y59224D01*
X39797Y59224D01*
X39805Y59232D02*
Y59234D01*
X39925D01*
Y59232D01*
X39805D01*
X39814Y59228D02*
X39917Y59238D01*
X39772Y58333D02*
Y58401D01*
X39959D01*
Y58333D01*
X39772D01*
X39780Y58341D02*
X39780Y58393D01*
X39950Y58393D01*
X39950Y58341D01*
X39780Y58341D01*
X39789Y58349D02*
Y58385D01*
X39942D01*
Y58349D01*
X39789D01*
X39797Y58358D02*
Y58376D01*
X39934Y58376D01*
Y58358D01*
X39797Y58358D01*
X39805Y58366D02*
Y58368D01*
X39925D01*
Y58366D01*
X39805D01*
X39814Y58362D02*
X39917Y58372D01*
X34572Y57099D02*
Y57167D01*
X34759D01*
Y57099D01*
X34572D01*
X34580Y57107D02*
X34580Y57159D01*
X34750Y57159D01*
X34750Y57107D01*
X34580Y57107D01*
X34589Y57115D02*
Y57151D01*
X34742D01*
Y57115D01*
X34589D01*
X34597Y57124D02*
Y57142D01*
X34734Y57142D01*
Y57124D01*
X34597Y57124D01*
X34605Y57132D02*
Y57134D01*
X34725D01*
Y57132D01*
X34605D01*
X34614Y57128D02*
X34717Y57138D01*
X34572Y56233D02*
Y56301D01*
X34759D01*
Y56233D01*
X34572D01*
X34580Y56241D02*
X34580Y56293D01*
X34750Y56293D01*
X34750Y56241D01*
X34580Y56241D01*
X34589Y56249D02*
Y56285D01*
X34742D01*
Y56249D01*
X34589D01*
X34597Y56258D02*
Y56276D01*
X34734Y56276D01*
Y56258D01*
X34597Y56258D01*
X34605Y56266D02*
Y56268D01*
X34725D01*
Y56266D01*
X34605D01*
X34614Y56262D02*
X34717Y56272D01*
X39772Y55299D02*
Y55367D01*
X39959D01*
Y55299D01*
X39772D01*
X39780Y55307D02*
X39780Y55359D01*
X39950Y55359D01*
X39950Y55307D01*
X39780Y55307D01*
X39789Y55315D02*
Y55351D01*
X39942D01*
Y55315D01*
X39789D01*
X39797Y55324D02*
Y55342D01*
X39934Y55342D01*
Y55324D01*
X39797Y55324D01*
X39805Y55332D02*
Y55334D01*
X39925D01*
Y55332D01*
X39805D01*
X39814Y55328D02*
X39917Y55338D01*
X39772Y54433D02*
Y54501D01*
X39959D01*
Y54433D01*
X39772D01*
X39780Y54441D02*
X39780Y54493D01*
X39950Y54493D01*
X39950Y54441D01*
X39780Y54441D01*
X39789Y54449D02*
Y54485D01*
X39942D01*
Y54449D01*
X39789D01*
X39797Y54458D02*
Y54476D01*
X39934Y54476D01*
Y54458D01*
X39797Y54458D01*
X39805Y54466D02*
Y54468D01*
X39925D01*
Y54466D01*
X39805D01*
X39814Y54462D02*
X39917Y54472D01*
X34572Y53199D02*
Y53267D01*
X34759D01*
Y53199D01*
X34572D01*
X34580Y53207D02*
X34580Y53259D01*
X34750Y53259D01*
X34750Y53207D01*
X34580Y53207D01*
X34589Y53215D02*
Y53251D01*
X34742D01*
Y53215D01*
X34589D01*
X34597Y53224D02*
Y53242D01*
X34734Y53242D01*
Y53224D01*
X34597Y53224D01*
X34605Y53232D02*
Y53234D01*
X34725D01*
Y53232D01*
X34605D01*
X34614Y53228D02*
X34717Y53238D01*
X34572Y52333D02*
Y52401D01*
X34759D01*
Y52333D01*
X34572D01*
X34580Y52341D02*
X34580Y52393D01*
X34750Y52393D01*
X34750Y52341D01*
X34580Y52341D01*
X34589Y52349D02*
Y52385D01*
X34742D01*
Y52349D01*
X34589D01*
X34597Y52358D02*
Y52376D01*
X34734Y52376D01*
Y52358D01*
X34597Y52358D01*
X34605Y52366D02*
Y52368D01*
X34725D01*
Y52366D01*
X34605D01*
X34614Y52362D02*
X34717Y52372D01*
X39772Y51399D02*
Y51467D01*
X39959D01*
Y51399D01*
X39772D01*
X39780Y51407D02*
X39780Y51459D01*
X39950Y51459D01*
X39950Y51407D01*
X39780Y51407D01*
X39789Y51415D02*
Y51451D01*
X39942D01*
Y51415D01*
X39789D01*
X39797Y51424D02*
Y51442D01*
X39934Y51442D01*
Y51424D01*
X39797Y51424D01*
X39805Y51432D02*
Y51434D01*
X39925D01*
Y51432D01*
X39805D01*
X39814Y51428D02*
X39917Y51438D01*
X39772Y50533D02*
Y50601D01*
X39959D01*
Y50533D01*
X39772D01*
X39780Y50541D02*
X39780Y50593D01*
X39950Y50593D01*
X39950Y50541D01*
X39780Y50541D01*
X39789Y50549D02*
Y50585D01*
X39942D01*
Y50549D01*
X39789D01*
X39797Y50558D02*
Y50576D01*
X39934Y50576D01*
Y50558D01*
X39797Y50558D01*
X39805Y50566D02*
Y50568D01*
X39925D01*
Y50566D01*
X39805D01*
X39814Y50562D02*
X39917Y50572D01*
X34572Y49299D02*
Y49367D01*
X34759D01*
Y49299D01*
X34572D01*
X34580Y49307D02*
X34580Y49359D01*
X34750Y49359D01*
X34750Y49307D01*
X34580Y49307D01*
X34589Y49315D02*
Y49351D01*
X34742D01*
Y49315D01*
X34589D01*
X34597Y49324D02*
Y49342D01*
X34734Y49342D01*
Y49324D01*
X34597Y49324D01*
X34605Y49332D02*
Y49334D01*
X34725D01*
Y49332D01*
X34605D01*
X34614Y49328D02*
X34717Y49338D01*
X34572Y48433D02*
Y48501D01*
X34759D01*
Y48433D01*
X34572D01*
X34580Y48441D02*
X34580Y48493D01*
X34750Y48493D01*
X34750Y48441D01*
X34580Y48441D01*
X34589Y48449D02*
Y48485D01*
X34742D01*
Y48449D01*
X34589D01*
X34597Y48458D02*
Y48476D01*
X34734Y48476D01*
Y48458D01*
X34597Y48458D01*
X34605Y48466D02*
Y48468D01*
X34725D01*
Y48466D01*
X34605D01*
X34614Y48462D02*
X34717Y48472D01*
X39772Y47499D02*
Y47567D01*
X39959D01*
Y47499D01*
X39772D01*
X39780Y47507D02*
X39780Y47559D01*
X39950Y47559D01*
X39950Y47507D01*
X39780Y47507D01*
X39789Y47515D02*
Y47551D01*
X39942D01*
Y47515D01*
X39789D01*
X39797Y47524D02*
Y47542D01*
X39934Y47542D01*
Y47524D01*
X39797Y47524D01*
X39805Y47532D02*
Y47534D01*
X39925D01*
Y47532D01*
X39805D01*
X39814Y47528D02*
X39917Y47538D01*
X39772Y46633D02*
Y46701D01*
X39959D01*
Y46633D01*
X39772D01*
X39780Y46641D02*
X39780Y46693D01*
X39950Y46693D01*
X39950Y46641D01*
X39780Y46641D01*
X39789Y46649D02*
Y46685D01*
X39942D01*
Y46649D01*
X39789D01*
X39797Y46658D02*
Y46676D01*
X39934Y46676D01*
Y46658D01*
X39797Y46658D01*
X39805Y46666D02*
Y46668D01*
X39925D01*
Y46666D01*
X39805D01*
X39814Y46662D02*
X39917Y46672D01*
X34572Y45399D02*
Y45467D01*
X34759D01*
Y45399D01*
X34572D01*
X34580Y45407D02*
X34580Y45459D01*
X34750Y45459D01*
X34750Y45407D01*
X34580Y45407D01*
X34589Y45415D02*
Y45451D01*
X34742D01*
Y45415D01*
X34589D01*
X34597Y45424D02*
Y45442D01*
X34734Y45442D01*
Y45424D01*
X34597Y45424D01*
X34605Y45432D02*
Y45434D01*
X34725D01*
Y45432D01*
X34605D01*
X34614Y45428D02*
X34717Y45438D01*
X34572Y44533D02*
Y44601D01*
X34759D01*
Y44533D01*
X34572D01*
X34580Y44541D02*
X34580Y44593D01*
X34750Y44593D01*
X34750Y44541D01*
X34580Y44541D01*
X34589Y44549D02*
Y44585D01*
X34742D01*
Y44549D01*
X34589D01*
X34597Y44558D02*
Y44576D01*
X34734Y44576D01*
Y44558D01*
X34597Y44558D01*
X34605Y44566D02*
Y44568D01*
X34725D01*
Y44566D01*
X34605D01*
X34614Y44562D02*
X34717Y44572D01*
X39772Y43599D02*
Y43667D01*
X39959D01*
Y43599D01*
X39772D01*
X39780Y43607D02*
X39780Y43659D01*
X39950Y43659D01*
X39950Y43607D01*
X39780Y43607D01*
X39789Y43615D02*
Y43651D01*
X39942D01*
Y43615D01*
X39789D01*
X39797Y43624D02*
Y43642D01*
X39934Y43642D01*
Y43624D01*
X39797Y43624D01*
X39805Y43632D02*
Y43634D01*
X39925D01*
Y43632D01*
X39805D01*
X39814Y43628D02*
X39917Y43638D01*
X39772Y42733D02*
Y42801D01*
X39959D01*
Y42733D01*
X39772D01*
X39780Y42741D02*
X39780Y42793D01*
X39950Y42793D01*
X39950Y42741D01*
X39780Y42741D01*
X39789Y42749D02*
Y42785D01*
X39942D01*
Y42749D01*
X39789D01*
X39797Y42758D02*
Y42776D01*
X39934Y42776D01*
Y42758D01*
X39797Y42758D01*
X39805Y42766D02*
Y42768D01*
X39925D01*
Y42766D01*
X39805D01*
X39814Y42762D02*
X39917Y42772D01*
X34572Y41499D02*
Y41567D01*
X34759D01*
Y41499D01*
X34572D01*
X34580Y41507D02*
X34580Y41559D01*
X34750Y41559D01*
X34750Y41507D01*
X34580Y41507D01*
X34589Y41515D02*
Y41551D01*
X34742D01*
Y41515D01*
X34589D01*
X34597Y41524D02*
Y41542D01*
X34734Y41542D01*
Y41524D01*
X34597Y41524D01*
X34605Y41532D02*
Y41534D01*
X34725D01*
Y41532D01*
X34605D01*
X34614Y41528D02*
X34717Y41538D01*
X34572Y40633D02*
Y40701D01*
X34759D01*
Y40633D01*
X34572D01*
X34580Y40641D02*
X34580Y40693D01*
X34750Y40693D01*
X34750Y40641D01*
X34580Y40641D01*
X34589Y40649D02*
Y40685D01*
X34742D01*
Y40649D01*
X34589D01*
X34597Y40658D02*
Y40676D01*
X34734Y40676D01*
Y40658D01*
X34597Y40658D01*
X34605Y40666D02*
Y40668D01*
X34725D01*
Y40666D01*
X34605D01*
X34614Y40662D02*
X34717Y40672D01*
X39772Y39699D02*
Y39767D01*
X39959D01*
Y39699D01*
X39772D01*
X39780Y39707D02*
X39780Y39759D01*
X39950Y39759D01*
X39950Y39707D01*
X39780Y39707D01*
X39789Y39715D02*
Y39751D01*
X39942D01*
Y39715D01*
X39789D01*
X39797Y39724D02*
Y39742D01*
X39934Y39742D01*
Y39724D01*
X39797Y39724D01*
X39805Y39732D02*
Y39734D01*
X39925D01*
Y39732D01*
X39805D01*
X39814Y39728D02*
X39917Y39738D01*
X39772Y38833D02*
Y38901D01*
X39959D01*
Y38833D01*
X39772D01*
X39780Y38841D02*
X39780Y38893D01*
X39950Y38893D01*
X39950Y38841D01*
X39780Y38841D01*
X39789Y38849D02*
Y38885D01*
X39942D01*
Y38849D01*
X39789D01*
X39797Y38858D02*
Y38876D01*
X39934Y38876D01*
Y38858D01*
X39797Y38858D01*
X39805Y38866D02*
Y38868D01*
X39925D01*
Y38866D01*
X39805D01*
X39814Y38862D02*
X39917Y38872D01*
X34572Y37599D02*
Y37667D01*
X34759D01*
Y37599D01*
X34572D01*
X34580Y37607D02*
X34580Y37659D01*
X34750Y37659D01*
X34750Y37607D01*
X34580Y37607D01*
X34589Y37615D02*
Y37651D01*
X34742D01*
Y37615D01*
X34589D01*
X34597Y37624D02*
Y37642D01*
X34734Y37642D01*
Y37624D01*
X34597Y37624D01*
X34605Y37632D02*
Y37634D01*
X34725D01*
Y37632D01*
X34605D01*
X34614Y37628D02*
X34717Y37638D01*
X34572Y36733D02*
Y36801D01*
X34759D01*
Y36733D01*
X34572D01*
X34580Y36741D02*
X34580Y36793D01*
X34750Y36793D01*
X34750Y36741D01*
X34580Y36741D01*
X34589Y36749D02*
Y36785D01*
X34742D01*
Y36749D01*
X34589D01*
X34597Y36758D02*
Y36776D01*
X34734Y36776D01*
Y36758D01*
X34597Y36758D01*
X34605Y36766D02*
Y36768D01*
X34725D01*
Y36766D01*
X34605D01*
X34614Y36762D02*
X34717Y36772D01*
X39772Y35799D02*
Y35867D01*
X39959D01*
Y35799D01*
X39772D01*
X39780Y35807D02*
X39780Y35859D01*
X39950Y35859D01*
X39950Y35807D01*
X39780Y35807D01*
X39789Y35815D02*
Y35851D01*
X39942D01*
Y35815D01*
X39789D01*
X39797Y35824D02*
Y35842D01*
X39934Y35842D01*
Y35824D01*
X39797Y35824D01*
X39805Y35832D02*
Y35834D01*
X39925D01*
Y35832D01*
X39805D01*
X39814Y35828D02*
X39917Y35838D01*
X39772Y34933D02*
Y35001D01*
X39959D01*
Y34933D01*
X39772D01*
X39780Y34941D02*
X39780Y34993D01*
X39950Y34993D01*
X39950Y34941D01*
X39780Y34941D01*
X39789Y34949D02*
Y34985D01*
X39942D01*
Y34949D01*
X39789D01*
X39797Y34958D02*
Y34976D01*
X39934Y34976D01*
Y34958D01*
X39797Y34958D01*
X39805Y34966D02*
Y34968D01*
X39925D01*
Y34966D01*
X39805D01*
X39814Y34962D02*
X39917Y34972D01*
X34572Y33699D02*
Y33767D01*
X34759D01*
Y33699D01*
X34572D01*
X34580Y33707D02*
X34580Y33759D01*
X34750Y33759D01*
X34750Y33707D01*
X34580Y33707D01*
X34589Y33715D02*
Y33751D01*
X34742D01*
Y33715D01*
X34589D01*
X34597Y33724D02*
Y33742D01*
X34734Y33742D01*
Y33724D01*
X34597Y33724D01*
X34605Y33732D02*
Y33734D01*
X34725D01*
Y33732D01*
X34605D01*
X34614Y33728D02*
X34717Y33738D01*
X34572Y32833D02*
Y32901D01*
X34759D01*
Y32833D01*
X34572D01*
X34580Y32841D02*
X34580Y32893D01*
X34750Y32893D01*
X34750Y32841D01*
X34580Y32841D01*
X34589Y32849D02*
Y32885D01*
X34742D01*
Y32849D01*
X34589D01*
X34597Y32858D02*
Y32876D01*
X34734Y32876D01*
Y32858D01*
X34597Y32858D01*
X34605Y32866D02*
Y32868D01*
X34725D01*
Y32866D01*
X34605D01*
X34614Y32862D02*
X34717Y32872D01*
X39772Y31899D02*
Y31967D01*
X39959D01*
Y31899D01*
X39772D01*
X39780Y31907D02*
X39780Y31959D01*
X39950Y31959D01*
X39950Y31907D01*
X39780Y31907D01*
X39789Y31915D02*
Y31951D01*
X39942D01*
Y31915D01*
X39789D01*
X39797Y31924D02*
Y31942D01*
X39934Y31942D01*
Y31924D01*
X39797Y31924D01*
X39805Y31932D02*
Y31934D01*
X39925D01*
Y31932D01*
X39805D01*
X39814Y31928D02*
X39917Y31938D01*
X39772Y31033D02*
Y31101D01*
X39959D01*
Y31033D01*
X39772D01*
X39780Y31041D02*
X39780Y31093D01*
X39950Y31093D01*
X39950Y31041D01*
X39780Y31041D01*
X39789Y31049D02*
Y31085D01*
X39942D01*
Y31049D01*
X39789D01*
X39797Y31058D02*
Y31076D01*
X39934Y31076D01*
Y31058D01*
X39797Y31058D01*
X39805Y31066D02*
Y31068D01*
X39925D01*
Y31066D01*
X39805D01*
X39814Y31062D02*
X39917Y31072D01*
X69092Y51999D02*
Y52067D01*
X69279D01*
Y51999D01*
X69092D01*
X69100Y52007D02*
X69100Y52059D01*
X69270Y52059D01*
X69270Y52007D01*
X69100Y52007D01*
X69109Y52015D02*
Y52051D01*
X69262D01*
Y52015D01*
X69109D01*
X69117Y52024D02*
Y52042D01*
X69254Y52042D01*
Y52024D01*
X69117Y52024D01*
X69125Y52032D02*
Y52034D01*
X69245D01*
Y52032D01*
X69125D01*
X69134Y52028D02*
X69237Y52038D01*
X69092Y51133D02*
Y51201D01*
X69279D01*
Y51133D01*
X69092D01*
X69100Y51141D02*
X69100Y51193D01*
X69270Y51193D01*
X69270Y51141D01*
X69100Y51141D01*
X69109Y51149D02*
Y51185D01*
X69262D01*
Y51149D01*
X69109D01*
X69117Y51158D02*
Y51176D01*
X69254Y51176D01*
Y51158D01*
X69117Y51158D01*
X69125Y51166D02*
Y51168D01*
X69245D01*
Y51166D01*
X69125D01*
X69134Y51162D02*
X69237Y51172D01*
D57*
X74754Y31491D02*
Y32062D01*
X74046Y31491D02*
Y32062D01*
Y31491D02*
X74754D01*
X74046Y32909D02*
X74754D01*
Y32338D02*
Y32909D01*
X74046Y32338D02*
Y32909D01*
X72738Y43554D02*
X73309D01*
X72738Y42846D02*
X73309D01*
Y43554D01*
X71891Y42846D02*
Y43554D01*
X72462D01*
X71891Y42846D02*
X72462D01*
X73646Y48738D02*
Y49309D01*
X74354Y48738D02*
Y49309D01*
X73646D02*
X74354D01*
X73646Y47891D02*
X74354D01*
X73646D02*
Y48462D01*
X74354Y47891D02*
Y48462D01*
X71491Y46446D02*
X72062D01*
X71491Y47154D02*
X72062D01*
X71491Y46446D02*
Y47154D01*
X72909Y46446D02*
Y47154D01*
X72338Y46446D02*
X72909D01*
X72338Y47154D02*
X72909D01*
X75646Y34738D02*
Y35309D01*
X76354Y34738D02*
Y35309D01*
X75646D02*
X76354D01*
X75646Y33891D02*
X76354D01*
X75646D02*
Y34462D01*
X76354Y33891D02*
Y34462D01*
X71646Y34738D02*
Y35309D01*
X72354Y34738D02*
Y35309D01*
X71646D02*
X72354D01*
X71646Y33891D02*
X72354D01*
X71646D02*
Y34462D01*
X72354Y33891D02*
Y34462D01*
X67846Y35138D02*
Y35709D01*
X68554Y35138D02*
Y35709D01*
X67846D02*
X68554D01*
X67846Y34291D02*
X68554D01*
X67846D02*
Y34862D01*
X68554Y34291D02*
Y34862D01*
X69754Y37891D02*
Y38462D01*
X69046Y37891D02*
Y38462D01*
Y37891D02*
X69754D01*
X69046Y39309D02*
X69754D01*
Y38738D02*
Y39309D01*
X69046Y38738D02*
Y39309D01*
X68738Y42954D02*
X69309D01*
X68738Y42246D02*
X69309D01*
Y42954D01*
X67891Y42246D02*
Y42954D01*
X68462D01*
X67891Y42246D02*
X68462D01*
X76091Y41646D02*
X76662D01*
X76091Y42354D02*
X76662D01*
X76091Y41646D02*
Y42354D01*
X77509Y41646D02*
Y42354D01*
X76938Y41646D02*
X77509D01*
X76938Y42354D02*
X77509D01*
X76091Y38446D02*
X76662D01*
X76091Y39154D02*
X76662D01*
X76091Y38446D02*
Y39154D01*
X77509Y38446D02*
Y39154D01*
X76938Y38446D02*
X77509D01*
X76938Y39154D02*
X77509D01*
X69246Y40338D02*
Y40909D01*
X69954Y40338D02*
Y40909D01*
X69246D02*
X69954D01*
X69246Y39491D02*
X69954D01*
X69246D02*
Y40062D01*
X69954Y39491D02*
Y40062D01*
X69046Y37138D02*
Y37709D01*
X69754Y37138D02*
Y37709D01*
X69046D02*
X69754D01*
X69046Y36291D02*
X69754D01*
X69046D02*
Y36862D01*
X69754Y36291D02*
Y36862D01*
X72491Y35246D02*
X73062D01*
X72491Y35954D02*
X73062D01*
X72491Y35246D02*
Y35954D01*
X73909Y35246D02*
Y35954D01*
X73338Y35246D02*
X73909D01*
X73338Y35954D02*
X73909D01*
X75246Y37138D02*
Y37709D01*
X75954Y37138D02*
Y37709D01*
X75246D02*
X75954D01*
X75246Y36291D02*
X75954D01*
X75246D02*
Y36862D01*
X75954Y36291D02*
Y36862D01*
Y39291D02*
Y39862D01*
X75246Y39291D02*
Y39862D01*
Y39291D02*
X75954D01*
X75246Y40709D02*
X75954D01*
Y40138D02*
Y40709D01*
X75246Y40138D02*
Y40709D01*
X72938Y42354D02*
X73509D01*
X72938Y41646D02*
X73509D01*
Y42354D01*
X72091Y41646D02*
Y42354D01*
X72662D01*
X72091Y41646D02*
X72662D01*
X66246Y36138D02*
Y36709D01*
X66954Y36138D02*
Y36709D01*
X66246D02*
X66954D01*
X66246Y35291D02*
X66954D01*
X66246D02*
Y35862D01*
X66954Y35291D02*
Y35862D01*
X64246Y36138D02*
Y36709D01*
X64954Y36138D02*
Y36709D01*
X64246D02*
X64954D01*
X64246Y35291D02*
X64954D01*
X64246D02*
Y35862D01*
X64954Y35291D02*
Y35862D01*
X67154Y47691D02*
Y48262D01*
X66446Y47691D02*
Y48262D01*
Y47691D02*
X67154D01*
X66446Y49109D02*
X67154D01*
Y48538D02*
Y49109D01*
X66446Y48538D02*
Y49109D01*
X64954Y47691D02*
Y48262D01*
X64246Y47691D02*
Y48262D01*
Y47691D02*
X64954D01*
X64246Y49109D02*
X64954D01*
Y48538D02*
Y49109D01*
X64246Y48538D02*
Y49109D01*
X67154Y54091D02*
Y54662D01*
X66446Y54091D02*
Y54662D01*
Y54091D02*
X67154D01*
X66446Y55509D02*
X67154D01*
Y54938D02*
Y55509D01*
X66446Y54938D02*
Y55509D01*
X64246Y54938D02*
Y55509D01*
X64954Y54938D02*
Y55509D01*
X64246D02*
X64954D01*
X64246Y54091D02*
X64954D01*
X64246D02*
Y54662D01*
X64954Y54091D02*
Y54662D01*
X54738Y33454D02*
X55309D01*
X54738Y32746D02*
X55309D01*
Y33454D01*
X53891Y32746D02*
Y33454D01*
X54462D01*
X53891Y32746D02*
X54462D01*
X48938Y34254D02*
X49509D01*
X48938Y33546D02*
X49509D01*
Y34254D01*
X48091Y33546D02*
Y34254D01*
X48662D01*
X48091Y33546D02*
X48662D01*
X53846Y31738D02*
Y32309D01*
X54554Y31738D02*
Y32309D01*
X53846D02*
X54554D01*
X53846Y30891D02*
X54554D01*
X53846D02*
Y31462D01*
X54554Y30891D02*
Y31462D01*
X47291Y31146D02*
X47862D01*
X47291Y31854D02*
X47862D01*
X47291Y31146D02*
Y31854D01*
X48709Y31146D02*
Y31854D01*
X48138Y31146D02*
X48709D01*
X48138Y31854D02*
X48709D01*
X54738Y37354D02*
X55309D01*
X54738Y36646D02*
X55309D01*
Y37354D01*
X53891Y36646D02*
Y37354D01*
X54462D01*
X53891Y36646D02*
X54462D01*
X48938Y38154D02*
X49509D01*
X48938Y37446D02*
X49509D01*
Y38154D01*
X48091Y37446D02*
Y38154D01*
X48662D01*
X48091Y37446D02*
X48662D01*
X53846Y35638D02*
Y36209D01*
X54554Y35638D02*
Y36209D01*
X53846D02*
X54554D01*
X53846Y34791D02*
X54554D01*
X53846D02*
Y35362D01*
X54554Y34791D02*
Y35362D01*
X47291Y35046D02*
X47862D01*
X47291Y35754D02*
X47862D01*
X47291Y35046D02*
Y35754D01*
X48709Y35046D02*
Y35754D01*
X48138Y35046D02*
X48709D01*
X48138Y35754D02*
X48709D01*
X54738Y41254D02*
X55309D01*
X54738Y40546D02*
X55309D01*
Y41254D01*
X53891Y40546D02*
Y41254D01*
X54462D01*
X53891Y40546D02*
X54462D01*
X48938Y42054D02*
X49509D01*
X48938Y41346D02*
X49509D01*
Y42054D01*
X48091Y41346D02*
Y42054D01*
X48662D01*
X48091Y41346D02*
X48662D01*
X53846Y39538D02*
Y40109D01*
X54554Y39538D02*
Y40109D01*
X53846D02*
X54554D01*
X53846Y38691D02*
X54554D01*
X53846D02*
Y39262D01*
X54554Y38691D02*
Y39262D01*
X47291Y38946D02*
X47862D01*
X47291Y39654D02*
X47862D01*
X47291Y38946D02*
Y39654D01*
X48709Y38946D02*
Y39654D01*
X48138Y38946D02*
X48709D01*
X48138Y39654D02*
X48709D01*
X54738Y45154D02*
X55309D01*
X54738Y44446D02*
X55309D01*
Y45154D01*
X53891Y44446D02*
Y45154D01*
X54462D01*
X53891Y44446D02*
X54462D01*
X48938Y45954D02*
X49509D01*
X48938Y45246D02*
X49509D01*
Y45954D01*
X48091Y45246D02*
Y45954D01*
X48662D01*
X48091Y45246D02*
X48662D01*
X53846Y43438D02*
Y44009D01*
X54554Y43438D02*
Y44009D01*
X53846D02*
X54554D01*
X53846Y42591D02*
X54554D01*
X53846D02*
Y43162D01*
X54554Y42591D02*
Y43162D01*
X47291Y42846D02*
X47862D01*
X47291Y43554D02*
X47862D01*
X47291Y42846D02*
Y43554D01*
X48709Y42846D02*
Y43554D01*
X48138Y42846D02*
X48709D01*
X48138Y43554D02*
X48709D01*
X54738Y49054D02*
X55309D01*
X54738Y48346D02*
X55309D01*
Y49054D01*
X53891Y48346D02*
Y49054D01*
X54462D01*
X53891Y48346D02*
X54462D01*
X48938Y49854D02*
X49509D01*
X48938Y49146D02*
X49509D01*
Y49854D01*
X48091Y49146D02*
Y49854D01*
X48662D01*
X48091Y49146D02*
X48662D01*
X53846Y47338D02*
Y47909D01*
X54554Y47338D02*
Y47909D01*
X53846D02*
X54554D01*
X53846Y46491D02*
X54554D01*
X53846D02*
Y47062D01*
X54554Y46491D02*
Y47062D01*
X47291Y46746D02*
X47862D01*
X47291Y47454D02*
X47862D01*
X47291Y46746D02*
Y47454D01*
X48709Y46746D02*
Y47454D01*
X48138Y46746D02*
X48709D01*
X48138Y47454D02*
X48709D01*
X54738Y52954D02*
X55309D01*
X54738Y52246D02*
X55309D01*
Y52954D01*
X53891Y52246D02*
Y52954D01*
X54462D01*
X53891Y52246D02*
X54462D01*
X48938Y53754D02*
X49509D01*
X48938Y53046D02*
X49509D01*
Y53754D01*
X48091Y53046D02*
Y53754D01*
X48662D01*
X48091Y53046D02*
X48662D01*
X53846Y51238D02*
Y51809D01*
X54554Y51238D02*
Y51809D01*
X53846D02*
X54554D01*
X53846Y50391D02*
X54554D01*
X53846D02*
Y50962D01*
X54554Y50391D02*
Y50962D01*
X47291Y50646D02*
X47862D01*
X47291Y51354D02*
X47862D01*
X47291Y50646D02*
Y51354D01*
X48709Y50646D02*
Y51354D01*
X48138Y50646D02*
X48709D01*
X48138Y51354D02*
X48709D01*
X54738Y56854D02*
X55309D01*
X54738Y56146D02*
X55309D01*
Y56854D01*
X53891Y56146D02*
Y56854D01*
X54462D01*
X53891Y56146D02*
X54462D01*
X48938Y57654D02*
X49509D01*
X48938Y56946D02*
X49509D01*
Y57654D01*
X48091Y56946D02*
Y57654D01*
X48662D01*
X48091Y56946D02*
X48662D01*
X53846Y55138D02*
Y55709D01*
X54554Y55138D02*
Y55709D01*
X53846D02*
X54554D01*
X53846Y54291D02*
X54554D01*
X53846D02*
Y54862D01*
X54554Y54291D02*
Y54862D01*
X47291Y54546D02*
X47862D01*
X47291Y55254D02*
X47862D01*
X47291Y54546D02*
Y55254D01*
X48709Y54546D02*
Y55254D01*
X48138Y54546D02*
X48709D01*
X48138Y55254D02*
X48709D01*
X54738Y60754D02*
X55309D01*
X54738Y60046D02*
X55309D01*
Y60754D01*
X53891Y60046D02*
Y60754D01*
X54462D01*
X53891Y60046D02*
X54462D01*
X48938Y61554D02*
X49509D01*
X48938Y60846D02*
X49509D01*
Y61554D01*
X48091Y60846D02*
Y61554D01*
X48662D01*
X48091Y60846D02*
X48662D01*
X53846Y59038D02*
Y59609D01*
X54554Y59038D02*
Y59609D01*
X53846D02*
X54554D01*
X53846Y58191D02*
X54554D01*
X53846D02*
Y58762D01*
X54554Y58191D02*
Y58762D01*
X47291Y58446D02*
X47862D01*
X47291Y59154D02*
X47862D01*
X47291Y58446D02*
Y59154D01*
X48709Y58446D02*
Y59154D01*
X48138Y58446D02*
X48709D01*
X48138Y59154D02*
X48709D01*
X54738Y64654D02*
X55309D01*
X54738Y63946D02*
X55309D01*
Y64654D01*
X53891Y63946D02*
Y64654D01*
X54462D01*
X53891Y63946D02*
X54462D01*
X48938Y65454D02*
X49509D01*
X48938Y64746D02*
X49509D01*
Y65454D01*
X48091Y64746D02*
Y65454D01*
X48662D01*
X48091Y64746D02*
X48662D01*
X53846Y62938D02*
Y63509D01*
X54554Y62938D02*
Y63509D01*
X53846D02*
X54554D01*
X53846Y62091D02*
X54554D01*
X53846D02*
Y62662D01*
X54554Y62091D02*
Y62662D01*
X47291Y62346D02*
X47862D01*
X47291Y63054D02*
X47862D01*
X47291Y62346D02*
Y63054D01*
X48709Y62346D02*
Y63054D01*
X48138Y62346D02*
X48709D01*
X48138Y63054D02*
X48709D01*
X48138Y66954D02*
X48709D01*
X48138Y66246D02*
X48709D01*
Y66954D01*
X47291Y66246D02*
Y66954D01*
X47862D01*
X47291Y66246D02*
X47862D01*
X53891Y67846D02*
X54462D01*
X53891Y68554D02*
X54462D01*
X53891Y67846D02*
Y68554D01*
X55309Y67846D02*
Y68554D01*
X54738Y67846D02*
X55309D01*
X54738Y68554D02*
X55309D01*
X54554Y65991D02*
Y66562D01*
X53846Y65991D02*
Y66562D01*
Y65991D02*
X54554D01*
X53846Y67409D02*
X54554D01*
Y66838D02*
Y67409D01*
X53846Y66838D02*
Y67409D01*
X48091Y68646D02*
X48662D01*
X48091Y69354D02*
X48662D01*
X48091Y68646D02*
Y69354D01*
X49509Y68646D02*
Y69354D01*
X48938Y68646D02*
X49509D01*
X48938Y69354D02*
X49509D01*
X35754Y65891D02*
Y66462D01*
X35046Y65891D02*
Y66462D01*
Y65891D02*
X35754D01*
X35046Y67309D02*
X35754D01*
Y66738D02*
Y67309D01*
X35046Y66738D02*
Y67309D01*
X39491Y66246D02*
X40062D01*
X39491Y66954D02*
X40062D01*
X39491Y66246D02*
Y66954D01*
X40909Y66246D02*
Y66954D01*
X40338Y66246D02*
X40909D01*
X40338Y66954D02*
X40909D01*
X37738Y68754D02*
X38309D01*
X37738Y68046D02*
X38309D01*
Y68754D01*
X36891Y68046D02*
Y68754D01*
X37462D01*
X36891Y68046D02*
X37462D01*
X34291D02*
X34862D01*
X34291Y68754D02*
X34862D01*
X34291Y68046D02*
Y68754D01*
X35709Y68046D02*
Y68754D01*
X35138Y68046D02*
X35709D01*
X35138Y68754D02*
X35709D01*
X27938Y66554D02*
X28509D01*
X27938Y65846D02*
X28509D01*
Y66554D01*
X27091Y65846D02*
Y66554D01*
X27662D01*
X27091Y65846D02*
X27662D01*
X27938Y68754D02*
X28509D01*
X27938Y68046D02*
X28509D01*
Y68754D01*
X27091Y68046D02*
Y68754D01*
X27662D01*
X27091Y68046D02*
X27662D01*
X32291Y65846D02*
X32862D01*
X32291Y66554D02*
X32862D01*
X32291Y65846D02*
Y66554D01*
X33709Y65846D02*
Y66554D01*
X33138Y65846D02*
X33709D01*
X33138Y66554D02*
X33709D01*
X30891Y68246D02*
X31462D01*
X30891Y68954D02*
X31462D01*
X30891Y68246D02*
Y68954D01*
X32309Y68246D02*
Y68954D01*
X31738Y68246D02*
X32309D01*
X31738Y68954D02*
X32309D01*
X27938Y64854D02*
X28509D01*
X27938Y64146D02*
X28509D01*
Y64854D01*
X27091Y64146D02*
Y64854D01*
X27662D01*
X27091Y64146D02*
X27662D01*
X32291Y61946D02*
X32862D01*
X32291Y62654D02*
X32862D01*
X32291Y61946D02*
Y62654D01*
X33709Y61946D02*
Y62654D01*
X33138Y61946D02*
X33709D01*
X33138Y62654D02*
X33709D01*
X30891Y64346D02*
X31462D01*
X30891Y65054D02*
X31462D01*
X30891Y64346D02*
Y65054D01*
X32309Y64346D02*
Y65054D01*
X31738Y64346D02*
X32309D01*
X31738Y65054D02*
X32309D01*
X27938Y62654D02*
X28509D01*
X27938Y61946D02*
X28509D01*
Y62654D01*
X27091Y61946D02*
Y62654D01*
X27662D01*
X27091Y61946D02*
X27662D01*
X27938Y60954D02*
X28509D01*
X27938Y60246D02*
X28509D01*
Y60954D01*
X27091Y60246D02*
Y60954D01*
X27662D01*
X27091Y60246D02*
X27662D01*
X32291Y58046D02*
X32862D01*
X32291Y58754D02*
X32862D01*
X32291Y58046D02*
Y58754D01*
X33709Y58046D02*
Y58754D01*
X33138Y58046D02*
X33709D01*
X33138Y58754D02*
X33709D01*
X30891Y60446D02*
X31462D01*
X30891Y61154D02*
X31462D01*
X30891Y60446D02*
Y61154D01*
X32309Y60446D02*
Y61154D01*
X31738Y60446D02*
X32309D01*
X31738Y61154D02*
X32309D01*
X27938Y58754D02*
X28509D01*
X27938Y58046D02*
X28509D01*
Y58754D01*
X27091Y58046D02*
Y58754D01*
X27662D01*
X27091Y58046D02*
X27662D01*
X27938Y57054D02*
X28509D01*
X27938Y56346D02*
X28509D01*
Y57054D01*
X27091Y56346D02*
Y57054D01*
X27662D01*
X27091Y56346D02*
X27662D01*
X32291Y54146D02*
X32862D01*
X32291Y54854D02*
X32862D01*
X32291Y54146D02*
Y54854D01*
X33709Y54146D02*
Y54854D01*
X33138Y54146D02*
X33709D01*
X33138Y54854D02*
X33709D01*
X30891Y56546D02*
X31462D01*
X30891Y57254D02*
X31462D01*
X30891Y56546D02*
Y57254D01*
X32309Y56546D02*
Y57254D01*
X31738Y56546D02*
X32309D01*
X31738Y57254D02*
X32309D01*
X27938Y54854D02*
X28509D01*
X27938Y54146D02*
X28509D01*
Y54854D01*
X27091Y54146D02*
Y54854D01*
X27662D01*
X27091Y54146D02*
X27662D01*
X27938Y45354D02*
X28509D01*
X27938Y44646D02*
X28509D01*
Y45354D01*
X27091Y44646D02*
Y45354D01*
X27662D01*
X27091Y44646D02*
X27662D01*
X32291Y42446D02*
X32862D01*
X32291Y43154D02*
X32862D01*
X32291Y42446D02*
Y43154D01*
X33709Y42446D02*
Y43154D01*
X33138Y42446D02*
X33709D01*
X33138Y43154D02*
X33709D01*
X30891Y44846D02*
X31462D01*
X30891Y45554D02*
X31462D01*
X30891Y44846D02*
Y45554D01*
X32309Y44846D02*
Y45554D01*
X31738Y44846D02*
X32309D01*
X31738Y45554D02*
X32309D01*
X27938Y43154D02*
X28509D01*
X27938Y42446D02*
X28509D01*
Y43154D01*
X27091Y42446D02*
Y43154D01*
X27662D01*
X27091Y42446D02*
X27662D01*
X27938Y41454D02*
X28509D01*
X27938Y40746D02*
X28509D01*
Y41454D01*
X27091Y40746D02*
Y41454D01*
X27662D01*
X27091Y40746D02*
X27662D01*
X32291Y38546D02*
X32862D01*
X32291Y39254D02*
X32862D01*
X32291Y38546D02*
Y39254D01*
X33709Y38546D02*
Y39254D01*
X33138Y38546D02*
X33709D01*
X33138Y39254D02*
X33709D01*
X30891Y40946D02*
X31462D01*
X30891Y41654D02*
X31462D01*
X30891Y40946D02*
Y41654D01*
X32309Y40946D02*
Y41654D01*
X31738Y40946D02*
X32309D01*
X31738Y41654D02*
X32309D01*
X27938Y39254D02*
X28509D01*
X27938Y38546D02*
X28509D01*
Y39254D01*
X27091Y38546D02*
Y39254D01*
X27662D01*
X27091Y38546D02*
X27662D01*
X27938Y37554D02*
X28509D01*
X27938Y36846D02*
X28509D01*
Y37554D01*
X27091Y36846D02*
Y37554D01*
X27662D01*
X27091Y36846D02*
X27662D01*
X32291Y34646D02*
X32862D01*
X32291Y35354D02*
X32862D01*
X32291Y34646D02*
Y35354D01*
X33709Y34646D02*
Y35354D01*
X33138Y34646D02*
X33709D01*
X33138Y35354D02*
X33709D01*
X30891Y37046D02*
X31462D01*
X30891Y37754D02*
X31462D01*
X30891Y37046D02*
Y37754D01*
X32309Y37046D02*
Y37754D01*
X31738Y37046D02*
X32309D01*
X31738Y37754D02*
X32309D01*
X27938Y35354D02*
X28509D01*
X27938Y34646D02*
X28509D01*
Y35354D01*
X27091Y34646D02*
Y35354D01*
X27662D01*
X27091Y34646D02*
X27662D01*
X27938Y33654D02*
X28509D01*
X27938Y32946D02*
X28509D01*
Y33654D01*
X27091Y32946D02*
Y33654D01*
X27662D01*
X27091Y32946D02*
X27662D01*
X32291Y30746D02*
X32862D01*
X32291Y31454D02*
X32862D01*
X32291Y30746D02*
Y31454D01*
X33709Y30746D02*
Y31454D01*
X33138Y30746D02*
X33709D01*
X33138Y31454D02*
X33709D01*
X30891Y33146D02*
X31462D01*
X30891Y33854D02*
X31462D01*
X30891Y33146D02*
Y33854D01*
X32309Y33146D02*
Y33854D01*
X31738Y33146D02*
X32309D01*
X31738Y33854D02*
X32309D01*
X27938Y31454D02*
X28509D01*
X27938Y30746D02*
X28509D01*
Y31454D01*
X27091Y30746D02*
Y31454D01*
X27662D01*
X27091Y30746D02*
X27662D01*
X34291Y64146D02*
X34862D01*
X34291Y64854D02*
X34862D01*
X34291Y64146D02*
Y64854D01*
X35709Y64146D02*
Y64854D01*
X35138Y64146D02*
X35709D01*
X35138Y64854D02*
X35709D01*
X37738Y64854D02*
X38309D01*
X37738Y64146D02*
X38309D01*
Y64854D01*
X36891Y64146D02*
Y64854D01*
X37462D01*
X36891Y64146D02*
X37462D01*
X35754Y61991D02*
Y62562D01*
X35046Y61991D02*
Y62562D01*
Y61991D02*
X35754D01*
X35046Y63409D02*
X35754D01*
Y62838D02*
Y63409D01*
X35046Y62838D02*
Y63409D01*
X39491Y62346D02*
X40062D01*
X39491Y63054D02*
X40062D01*
X39491Y62346D02*
Y63054D01*
X40909Y62346D02*
Y63054D01*
X40338Y62346D02*
X40909D01*
X40338Y63054D02*
X40909D01*
X34291Y60246D02*
X34862D01*
X34291Y60954D02*
X34862D01*
X34291Y60246D02*
Y60954D01*
X35709Y60246D02*
Y60954D01*
X35138Y60246D02*
X35709D01*
X35138Y60954D02*
X35709D01*
X37738Y60954D02*
X38309D01*
X37738Y60246D02*
X38309D01*
Y60954D01*
X36891Y60246D02*
Y60954D01*
X37462D01*
X36891Y60246D02*
X37462D01*
X35754Y58091D02*
Y58662D01*
X35046Y58091D02*
Y58662D01*
Y58091D02*
X35754D01*
X35046Y59509D02*
X35754D01*
Y58938D02*
Y59509D01*
X35046Y58938D02*
Y59509D01*
X39491Y58446D02*
X40062D01*
X39491Y59154D02*
X40062D01*
X39491Y58446D02*
Y59154D01*
X40909Y58446D02*
Y59154D01*
X40338Y58446D02*
X40909D01*
X40338Y59154D02*
X40909D01*
X34291Y56346D02*
X34862D01*
X34291Y57054D02*
X34862D01*
X34291Y56346D02*
Y57054D01*
X35709Y56346D02*
Y57054D01*
X35138Y56346D02*
X35709D01*
X35138Y57054D02*
X35709D01*
X37738Y57054D02*
X38309D01*
X37738Y56346D02*
X38309D01*
Y57054D01*
X36891Y56346D02*
Y57054D01*
X37462D01*
X36891Y56346D02*
X37462D01*
X35754Y54191D02*
Y54762D01*
X35046Y54191D02*
Y54762D01*
Y54191D02*
X35754D01*
X35046Y55609D02*
X35754D01*
Y55038D02*
Y55609D01*
X35046Y55038D02*
Y55609D01*
X39491Y54546D02*
X40062D01*
X39491Y55254D02*
X40062D01*
X39491Y54546D02*
Y55254D01*
X40909Y54546D02*
Y55254D01*
X40338Y54546D02*
X40909D01*
X40338Y55254D02*
X40909D01*
X34291Y52446D02*
X34862D01*
X34291Y53154D02*
X34862D01*
X34291Y52446D02*
Y53154D01*
X35709Y52446D02*
Y53154D01*
X35138Y52446D02*
X35709D01*
X35138Y53154D02*
X35709D01*
X37738Y53154D02*
X38309D01*
X37738Y52446D02*
X38309D01*
Y53154D01*
X36891Y52446D02*
Y53154D01*
X37462D01*
X36891Y52446D02*
X37462D01*
X35754Y50291D02*
Y50862D01*
X35046Y50291D02*
Y50862D01*
Y50291D02*
X35754D01*
X35046Y51709D02*
X35754D01*
Y51138D02*
Y51709D01*
X35046Y51138D02*
Y51709D01*
X39491Y50646D02*
X40062D01*
X39491Y51354D02*
X40062D01*
X39491Y50646D02*
Y51354D01*
X40909Y50646D02*
Y51354D01*
X40338Y50646D02*
X40909D01*
X40338Y51354D02*
X40909D01*
X34291Y48546D02*
X34862D01*
X34291Y49254D02*
X34862D01*
X34291Y48546D02*
Y49254D01*
X35709Y48546D02*
Y49254D01*
X35138Y48546D02*
X35709D01*
X35138Y49254D02*
X35709D01*
X37738Y49254D02*
X38309D01*
X37738Y48546D02*
X38309D01*
Y49254D01*
X36891Y48546D02*
Y49254D01*
X37462D01*
X36891Y48546D02*
X37462D01*
X35754Y46391D02*
Y46962D01*
X35046Y46391D02*
Y46962D01*
Y46391D02*
X35754D01*
X35046Y47809D02*
X35754D01*
Y47238D02*
Y47809D01*
X35046Y47238D02*
Y47809D01*
X39491Y46746D02*
X40062D01*
X39491Y47454D02*
X40062D01*
X39491Y46746D02*
Y47454D01*
X40909Y46746D02*
Y47454D01*
X40338Y46746D02*
X40909D01*
X40338Y47454D02*
X40909D01*
X34291Y44646D02*
X34862D01*
X34291Y45354D02*
X34862D01*
X34291Y44646D02*
Y45354D01*
X35709Y44646D02*
Y45354D01*
X35138Y44646D02*
X35709D01*
X35138Y45354D02*
X35709D01*
X37738Y45354D02*
X38309D01*
X37738Y44646D02*
X38309D01*
Y45354D01*
X36891Y44646D02*
Y45354D01*
X37462D01*
X36891Y44646D02*
X37462D01*
X35754Y42491D02*
Y43062D01*
X35046Y42491D02*
Y43062D01*
Y42491D02*
X35754D01*
X35046Y43909D02*
X35754D01*
Y43338D02*
Y43909D01*
X35046Y43338D02*
Y43909D01*
X39491Y42846D02*
X40062D01*
X39491Y43554D02*
X40062D01*
X39491Y42846D02*
Y43554D01*
X40909Y42846D02*
Y43554D01*
X40338Y42846D02*
X40909D01*
X40338Y43554D02*
X40909D01*
X34291Y40746D02*
X34862D01*
X34291Y41454D02*
X34862D01*
X34291Y40746D02*
Y41454D01*
X35709Y40746D02*
Y41454D01*
X35138Y40746D02*
X35709D01*
X35138Y41454D02*
X35709D01*
X37738Y41454D02*
X38309D01*
X37738Y40746D02*
X38309D01*
Y41454D01*
X36891Y40746D02*
Y41454D01*
X37462D01*
X36891Y40746D02*
X37462D01*
X35754Y38591D02*
Y39162D01*
X35046Y38591D02*
Y39162D01*
Y38591D02*
X35754D01*
X35046Y40009D02*
X35754D01*
Y39438D02*
Y40009D01*
X35046Y39438D02*
Y40009D01*
X39491Y38946D02*
X40062D01*
X39491Y39654D02*
X40062D01*
X39491Y38946D02*
Y39654D01*
X40909Y38946D02*
Y39654D01*
X40338Y38946D02*
X40909D01*
X40338Y39654D02*
X40909D01*
X34291Y36846D02*
X34862D01*
X34291Y37554D02*
X34862D01*
X34291Y36846D02*
Y37554D01*
X35709Y36846D02*
Y37554D01*
X35138Y36846D02*
X35709D01*
X35138Y37554D02*
X35709D01*
X37738Y37554D02*
X38309D01*
X37738Y36846D02*
X38309D01*
Y37554D01*
X36891Y36846D02*
Y37554D01*
X37462D01*
X36891Y36846D02*
X37462D01*
X35754Y34691D02*
Y35262D01*
X35046Y34691D02*
Y35262D01*
Y34691D02*
X35754D01*
X35046Y36109D02*
X35754D01*
Y35538D02*
Y36109D01*
X35046Y35538D02*
Y36109D01*
X39491Y35046D02*
X40062D01*
X39491Y35754D02*
X40062D01*
X39491Y35046D02*
Y35754D01*
X40909Y35046D02*
Y35754D01*
X40338Y35046D02*
X40909D01*
X40338Y35754D02*
X40909D01*
X34291Y32946D02*
X34862D01*
X34291Y33654D02*
X34862D01*
X34291Y32946D02*
Y33654D01*
X35709Y32946D02*
Y33654D01*
X35138Y32946D02*
X35709D01*
X35138Y33654D02*
X35709D01*
X37738Y33654D02*
X38309D01*
X37738Y32946D02*
X38309D01*
Y33654D01*
X36891Y32946D02*
Y33654D01*
X37462D01*
X36891Y32946D02*
X37462D01*
X35754Y30791D02*
Y31362D01*
X35046Y30791D02*
Y31362D01*
Y30791D02*
X35754D01*
X35046Y32209D02*
X35754D01*
Y31638D02*
Y32209D01*
X35046Y31638D02*
Y32209D01*
X39491Y31146D02*
X40062D01*
X39491Y31854D02*
X40062D01*
X39491Y31146D02*
Y31854D01*
X40909Y31146D02*
Y31854D01*
X40338Y31146D02*
X40909D01*
X40338Y31854D02*
X40909D01*
X68811Y51246D02*
X69382D01*
X68811Y51954D02*
X69382D01*
X68811Y51246D02*
Y51954D01*
X70229Y51246D02*
Y51954D01*
X69658Y51246D02*
X70229D01*
X69658Y51954D02*
X70229D01*
X66446Y32458D02*
Y33029D01*
X67154Y32458D02*
Y33029D01*
X66446D02*
X67154D01*
X66446Y31611D02*
X67154D01*
X66446D02*
Y32182D01*
X67154Y31611D02*
Y32182D01*
D58*
X70000Y52590D02*
X70050Y52640D01*
X70150D01*
X70200Y52590D01*
Y52390D01*
X70150Y52340D01*
X70050D01*
X70000Y52390D01*
X69700Y52340D02*
X69900D01*
X69700Y52540D01*
Y52590D01*
X69750Y52640D01*
X69850D01*
X69900Y52590D01*
X69400Y52340D02*
X69600D01*
X69400Y52540D01*
Y52590D01*
X69450Y52640D01*
X69550D01*
X69600Y52590D01*
X69150Y52340D02*
Y52640D01*
X69300Y52490D01*
X69100D01*
X48830Y32490D02*
X48880Y32540D01*
X48980D01*
X49030Y32490D01*
Y32290D01*
X48980Y32240D01*
X48880D01*
X48830Y32290D01*
X48730Y32240D02*
X48630D01*
X48680D01*
Y32540D01*
X48730Y32490D01*
X48480Y32540D02*
X48280D01*
Y32490D01*
X48480Y32290D01*
Y32240D01*
X47980D02*
X48180D01*
X47980Y32440D01*
Y32490D01*
X48030Y32540D01*
X48130D01*
X48180Y32490D01*
X48580Y36390D02*
X48630Y36440D01*
X48730D01*
X48780Y36390D01*
Y36190D01*
X48730Y36140D01*
X48630D01*
X48580Y36190D01*
X48480Y36140D02*
X48380D01*
X48430D01*
Y36440D01*
X48480Y36390D01*
X48230Y36440D02*
X48030D01*
Y36390D01*
X48230Y36190D01*
Y36140D01*
X47930Y36390D02*
X47880Y36440D01*
X47780D01*
X47730Y36390D01*
Y36340D01*
X47780Y36290D01*
X47830D01*
X47780D01*
X47730Y36240D01*
Y36190D01*
X47780Y36140D01*
X47880D01*
X47930Y36190D01*
X48580Y40290D02*
X48630Y40340D01*
X48730D01*
X48780Y40290D01*
Y40090D01*
X48730Y40040D01*
X48630D01*
X48580Y40090D01*
X48480Y40040D02*
X48380D01*
X48430D01*
Y40340D01*
X48480Y40290D01*
X48230Y40340D02*
X48030D01*
Y40290D01*
X48230Y40090D01*
Y40040D01*
X47780D02*
Y40340D01*
X47930Y40190D01*
X47730D01*
X48580Y44190D02*
X48630Y44240D01*
X48730D01*
X48780Y44190D01*
Y43990D01*
X48730Y43940D01*
X48630D01*
X48580Y43990D01*
X48480Y43940D02*
X48380D01*
X48430D01*
Y44240D01*
X48480Y44190D01*
X48230Y44240D02*
X48030D01*
Y44190D01*
X48230Y43990D01*
Y43940D01*
X47730Y44240D02*
X47930D01*
Y44090D01*
X47830Y44140D01*
X47780D01*
X47730Y44090D01*
Y43990D01*
X47780Y43940D01*
X47880D01*
X47930Y43990D01*
X48580Y48090D02*
X48630Y48140D01*
X48730D01*
X48780Y48090D01*
Y47890D01*
X48730Y47840D01*
X48630D01*
X48580Y47890D01*
X48480Y47840D02*
X48380D01*
X48430D01*
Y48140D01*
X48480Y48090D01*
X48230Y48140D02*
X48030D01*
Y48090D01*
X48230Y47890D01*
Y47840D01*
X47730Y48140D02*
X47830Y48090D01*
X47930Y47990D01*
Y47890D01*
X47880Y47840D01*
X47780D01*
X47730Y47890D01*
Y47940D01*
X47780Y47990D01*
X47930D01*
X48580Y51990D02*
X48630Y52040D01*
X48730D01*
X48780Y51990D01*
Y51790D01*
X48730Y51740D01*
X48630D01*
X48580Y51790D01*
X48480Y51740D02*
X48380D01*
X48430D01*
Y52040D01*
X48480Y51990D01*
X48230Y52040D02*
X48030D01*
Y51990D01*
X48230Y51790D01*
Y51740D01*
X47930Y52040D02*
X47730D01*
Y51990D01*
X47930Y51790D01*
Y51740D01*
X48580Y55890D02*
X48630Y55940D01*
X48730D01*
X48780Y55890D01*
Y55690D01*
X48730Y55640D01*
X48630D01*
X48580Y55690D01*
X48480Y55640D02*
X48380D01*
X48430D01*
Y55940D01*
X48480Y55890D01*
X48230Y55940D02*
X48030D01*
Y55890D01*
X48230Y55690D01*
Y55640D01*
X47930Y55890D02*
X47880Y55940D01*
X47780D01*
X47730Y55890D01*
Y55840D01*
X47780Y55790D01*
X47730Y55740D01*
Y55690D01*
X47780Y55640D01*
X47880D01*
X47930Y55690D01*
Y55740D01*
X47880Y55790D01*
X47930Y55840D01*
Y55890D01*
X47880Y55790D02*
X47780D01*
X48580Y59790D02*
X48630Y59840D01*
X48730D01*
X48780Y59790D01*
Y59590D01*
X48730Y59540D01*
X48630D01*
X48580Y59590D01*
X48480Y59540D02*
X48380D01*
X48430D01*
Y59840D01*
X48480Y59790D01*
X48230Y59840D02*
X48030D01*
Y59790D01*
X48230Y59590D01*
Y59540D01*
X47930Y59590D02*
X47880Y59540D01*
X47780D01*
X47730Y59590D01*
Y59790D01*
X47780Y59840D01*
X47880D01*
X47930Y59790D01*
Y59740D01*
X47880Y59690D01*
X47730D01*
X48580Y63690D02*
X48630Y63740D01*
X48730D01*
X48780Y63690D01*
Y63490D01*
X48730Y63440D01*
X48630D01*
X48580Y63490D01*
X48480Y63440D02*
X48380D01*
X48430D01*
Y63740D01*
X48480Y63690D01*
X48230D02*
X48180Y63740D01*
X48080D01*
X48030Y63690D01*
Y63640D01*
X48080Y63590D01*
X48030Y63540D01*
Y63490D01*
X48080Y63440D01*
X48180D01*
X48230Y63490D01*
Y63540D01*
X48180Y63590D01*
X48230Y63640D01*
Y63690D01*
X48180Y63590D02*
X48080D01*
X47930Y63690D02*
X47880Y63740D01*
X47780D01*
X47730Y63690D01*
Y63490D01*
X47780Y63440D01*
X47880D01*
X47930Y63490D01*
Y63690D01*
X55450Y32650D02*
X55500Y32700D01*
X55600D01*
X55650Y32650D01*
Y32450D01*
X55600Y32400D01*
X55500D01*
X55450Y32450D01*
X55350Y32400D02*
X55250D01*
X55300D01*
Y32700D01*
X55350Y32650D01*
X55100Y32450D02*
X55050Y32400D01*
X54950D01*
X54900Y32450D01*
Y32650D01*
X54950Y32700D01*
X55050D01*
X55100Y32650D01*
Y32600D01*
X55050Y32550D01*
X54900D01*
X54600Y32400D02*
X54800D01*
X54600Y32600D01*
Y32650D01*
X54650Y32700D01*
X54750D01*
X54800Y32650D01*
X55200Y36550D02*
X55250Y36600D01*
X55350D01*
X55400Y36550D01*
Y36350D01*
X55350Y36300D01*
X55250D01*
X55200Y36350D01*
X55100Y36300D02*
X55000D01*
X55050D01*
Y36600D01*
X55100Y36550D01*
X54850Y36350D02*
X54800Y36300D01*
X54700D01*
X54650Y36350D01*
Y36550D01*
X54700Y36600D01*
X54800D01*
X54850Y36550D01*
Y36500D01*
X54800Y36450D01*
X54650D01*
X54400Y36300D02*
Y36600D01*
X54550Y36450D01*
X54350D01*
X55200Y40450D02*
X55250Y40500D01*
X55350D01*
X55400Y40450D01*
Y40250D01*
X55350Y40200D01*
X55250D01*
X55200Y40250D01*
X55100Y40200D02*
X55000D01*
X55050D01*
Y40500D01*
X55100Y40450D01*
X54850Y40250D02*
X54800Y40200D01*
X54700D01*
X54650Y40250D01*
Y40450D01*
X54700Y40500D01*
X54800D01*
X54850Y40450D01*
Y40400D01*
X54800Y40350D01*
X54650D01*
X54350Y40500D02*
X54450Y40450D01*
X54550Y40350D01*
Y40250D01*
X54500Y40200D01*
X54400D01*
X54350Y40250D01*
Y40300D01*
X54400Y40350D01*
X54550D01*
X55200Y44350D02*
X55250Y44400D01*
X55350D01*
X55400Y44350D01*
Y44150D01*
X55350Y44100D01*
X55250D01*
X55200Y44150D01*
X55100Y44100D02*
X55000D01*
X55050D01*
Y44400D01*
X55100Y44350D01*
X54850Y44150D02*
X54800Y44100D01*
X54700D01*
X54650Y44150D01*
Y44350D01*
X54700Y44400D01*
X54800D01*
X54850Y44350D01*
Y44300D01*
X54800Y44250D01*
X54650D01*
X54550Y44350D02*
X54500Y44400D01*
X54400D01*
X54350Y44350D01*
Y44300D01*
X54400Y44250D01*
X54350Y44200D01*
Y44150D01*
X54400Y44100D01*
X54500D01*
X54550Y44150D01*
Y44200D01*
X54500Y44250D01*
X54550Y44300D01*
Y44350D01*
X54500Y44250D02*
X54400D01*
X55200Y48250D02*
X55250Y48300D01*
X55350D01*
X55400Y48250D01*
Y48050D01*
X55350Y48000D01*
X55250D01*
X55200Y48050D01*
X54900Y48000D02*
X55100D01*
X54900Y48200D01*
Y48250D01*
X54950Y48300D01*
X55050D01*
X55100Y48250D01*
X54800D02*
X54750Y48300D01*
X54650D01*
X54600Y48250D01*
Y48050D01*
X54650Y48000D01*
X54750D01*
X54800Y48050D01*
Y48250D01*
X54500D02*
X54450Y48300D01*
X54350D01*
X54300Y48250D01*
Y48050D01*
X54350Y48000D01*
X54450D01*
X54500Y48050D01*
Y48250D01*
X55200Y52150D02*
X55250Y52200D01*
X55350D01*
X55400Y52150D01*
Y51950D01*
X55350Y51900D01*
X55250D01*
X55200Y51950D01*
X54900Y51900D02*
X55100D01*
X54900Y52100D01*
Y52150D01*
X54950Y52200D01*
X55050D01*
X55100Y52150D01*
X54800D02*
X54750Y52200D01*
X54650D01*
X54600Y52150D01*
Y51950D01*
X54650Y51900D01*
X54750D01*
X54800Y51950D01*
Y52150D01*
X54300Y51900D02*
X54500D01*
X54300Y52100D01*
Y52150D01*
X54350Y52200D01*
X54450D01*
X54500Y52150D01*
X55200Y56050D02*
X55250Y56100D01*
X55350D01*
X55400Y56050D01*
Y55850D01*
X55350Y55800D01*
X55250D01*
X55200Y55850D01*
X54900Y55800D02*
X55100D01*
X54900Y56000D01*
Y56050D01*
X54950Y56100D01*
X55050D01*
X55100Y56050D01*
X54800D02*
X54750Y56100D01*
X54650D01*
X54600Y56050D01*
Y55850D01*
X54650Y55800D01*
X54750D01*
X54800Y55850D01*
Y56050D01*
X54350Y55800D02*
Y56100D01*
X54500Y55950D01*
X54300D01*
X55200Y59950D02*
X55250Y60000D01*
X55350D01*
X55400Y59950D01*
Y59750D01*
X55350Y59700D01*
X55250D01*
X55200Y59750D01*
X54900Y59700D02*
X55100D01*
X54900Y59900D01*
Y59950D01*
X54950Y60000D01*
X55050D01*
X55100Y59950D01*
X54800D02*
X54750Y60000D01*
X54650D01*
X54600Y59950D01*
Y59750D01*
X54650Y59700D01*
X54750D01*
X54800Y59750D01*
Y59950D01*
X54300Y60000D02*
X54400Y59950D01*
X54500Y59850D01*
Y59750D01*
X54450Y59700D01*
X54350D01*
X54300Y59750D01*
Y59800D01*
X54350Y59850D01*
X54500D01*
X55200Y63850D02*
X55250Y63900D01*
X55350D01*
X55400Y63850D01*
Y63650D01*
X55350Y63600D01*
X55250D01*
X55200Y63650D01*
X54900Y63600D02*
X55100D01*
X54900Y63800D01*
Y63850D01*
X54950Y63900D01*
X55050D01*
X55100Y63850D01*
X54800D02*
X54750Y63900D01*
X54650D01*
X54600Y63850D01*
Y63650D01*
X54650Y63600D01*
X54750D01*
X54800Y63650D01*
Y63850D01*
X54500D02*
X54450Y63900D01*
X54350D01*
X54300Y63850D01*
Y63800D01*
X54350Y63750D01*
X54300Y63700D01*
Y63650D01*
X54350Y63600D01*
X54450D01*
X54500Y63650D01*
Y63700D01*
X54450Y63750D01*
X54500Y63800D01*
Y63850D01*
X54450Y63750D02*
X54350D01*
X49750Y34650D02*
X49800Y34700D01*
X49900D01*
X49950Y34650D01*
Y34450D01*
X49900Y34400D01*
X49800D01*
X49750Y34450D01*
X49650Y34400D02*
X49550D01*
X49600D01*
Y34700D01*
X49650Y34650D01*
X49400D02*
X49350Y34700D01*
X49250D01*
X49200Y34650D01*
Y34600D01*
X49250Y34550D01*
X49200Y34500D01*
Y34450D01*
X49250Y34400D01*
X49350D01*
X49400Y34450D01*
Y34500D01*
X49350Y34550D01*
X49400Y34600D01*
Y34650D01*
X49350Y34550D02*
X49250D01*
X48900Y34400D02*
X49100D01*
X48900Y34600D01*
Y34650D01*
X48950Y34700D01*
X49050D01*
X49100Y34650D01*
X49500Y38550D02*
X49550Y38600D01*
X49650D01*
X49700Y38550D01*
Y38350D01*
X49650Y38300D01*
X49550D01*
X49500Y38350D01*
X49400Y38300D02*
X49300D01*
X49350D01*
Y38600D01*
X49400Y38550D01*
X49150D02*
X49100Y38600D01*
X49000D01*
X48950Y38550D01*
Y38500D01*
X49000Y38450D01*
X48950Y38400D01*
Y38350D01*
X49000Y38300D01*
X49100D01*
X49150Y38350D01*
Y38400D01*
X49100Y38450D01*
X49150Y38500D01*
Y38550D01*
X49100Y38450D02*
X49000D01*
X48850Y38550D02*
X48800Y38600D01*
X48700D01*
X48650Y38550D01*
Y38500D01*
X48700Y38450D01*
X48750D01*
X48700D01*
X48650Y38400D01*
Y38350D01*
X48700Y38300D01*
X48800D01*
X48850Y38350D01*
X49500Y42450D02*
X49550Y42500D01*
X49650D01*
X49700Y42450D01*
Y42250D01*
X49650Y42200D01*
X49550D01*
X49500Y42250D01*
X49400Y42200D02*
X49300D01*
X49350D01*
Y42500D01*
X49400Y42450D01*
X49150D02*
X49100Y42500D01*
X49000D01*
X48950Y42450D01*
Y42400D01*
X49000Y42350D01*
X48950Y42300D01*
Y42250D01*
X49000Y42200D01*
X49100D01*
X49150Y42250D01*
Y42300D01*
X49100Y42350D01*
X49150Y42400D01*
Y42450D01*
X49100Y42350D02*
X49000D01*
X48700Y42200D02*
Y42500D01*
X48850Y42350D01*
X48650D01*
X49500Y46350D02*
X49550Y46400D01*
X49650D01*
X49700Y46350D01*
Y46150D01*
X49650Y46100D01*
X49550D01*
X49500Y46150D01*
X49400Y46100D02*
X49300D01*
X49350D01*
Y46400D01*
X49400Y46350D01*
X49150D02*
X49100Y46400D01*
X49000D01*
X48950Y46350D01*
Y46300D01*
X49000Y46250D01*
X48950Y46200D01*
Y46150D01*
X49000Y46100D01*
X49100D01*
X49150Y46150D01*
Y46200D01*
X49100Y46250D01*
X49150Y46300D01*
Y46350D01*
X49100Y46250D02*
X49000D01*
X48650Y46400D02*
X48850D01*
Y46250D01*
X48750Y46300D01*
X48700D01*
X48650Y46250D01*
Y46150D01*
X48700Y46100D01*
X48800D01*
X48850Y46150D01*
X49500Y50250D02*
X49550Y50300D01*
X49650D01*
X49700Y50250D01*
Y50050D01*
X49650Y50000D01*
X49550D01*
X49500Y50050D01*
X49400Y50000D02*
X49300D01*
X49350D01*
Y50300D01*
X49400Y50250D01*
X49150D02*
X49100Y50300D01*
X49000D01*
X48950Y50250D01*
Y50200D01*
X49000Y50150D01*
X48950Y50100D01*
Y50050D01*
X49000Y50000D01*
X49100D01*
X49150Y50050D01*
Y50100D01*
X49100Y50150D01*
X49150Y50200D01*
Y50250D01*
X49100Y50150D02*
X49000D01*
X48650Y50300D02*
X48750Y50250D01*
X48850Y50150D01*
Y50050D01*
X48800Y50000D01*
X48700D01*
X48650Y50050D01*
Y50100D01*
X48700Y50150D01*
X48850D01*
X49500Y54150D02*
X49550Y54200D01*
X49650D01*
X49700Y54150D01*
Y53950D01*
X49650Y53900D01*
X49550D01*
X49500Y53950D01*
X49400Y53900D02*
X49300D01*
X49350D01*
Y54200D01*
X49400Y54150D01*
X49150D02*
X49100Y54200D01*
X49000D01*
X48950Y54150D01*
Y54100D01*
X49000Y54050D01*
X48950Y54000D01*
Y53950D01*
X49000Y53900D01*
X49100D01*
X49150Y53950D01*
Y54000D01*
X49100Y54050D01*
X49150Y54100D01*
Y54150D01*
X49100Y54050D02*
X49000D01*
X48850Y54200D02*
X48650D01*
Y54150D01*
X48850Y53950D01*
Y53900D01*
X49500Y58050D02*
X49550Y58100D01*
X49650D01*
X49700Y58050D01*
Y57850D01*
X49650Y57800D01*
X49550D01*
X49500Y57850D01*
X49400Y57800D02*
X49300D01*
X49350D01*
Y58100D01*
X49400Y58050D01*
X49150D02*
X49100Y58100D01*
X49000D01*
X48950Y58050D01*
Y58000D01*
X49000Y57950D01*
X48950Y57900D01*
Y57850D01*
X49000Y57800D01*
X49100D01*
X49150Y57850D01*
Y57900D01*
X49100Y57950D01*
X49150Y58000D01*
Y58050D01*
X49100Y57950D02*
X49000D01*
X48850Y58050D02*
X48800Y58100D01*
X48700D01*
X48650Y58050D01*
Y58000D01*
X48700Y57950D01*
X48650Y57900D01*
Y57850D01*
X48700Y57800D01*
X48800D01*
X48850Y57850D01*
Y57900D01*
X48800Y57950D01*
X48850Y58000D01*
Y58050D01*
X48800Y57950D02*
X48700D01*
X49500Y61950D02*
X49550Y62000D01*
X49650D01*
X49700Y61950D01*
Y61750D01*
X49650Y61700D01*
X49550D01*
X49500Y61750D01*
X49400Y61700D02*
X49300D01*
X49350D01*
Y62000D01*
X49400Y61950D01*
X49150D02*
X49100Y62000D01*
X49000D01*
X48950Y61950D01*
Y61900D01*
X49000Y61850D01*
X48950Y61800D01*
Y61750D01*
X49000Y61700D01*
X49100D01*
X49150Y61750D01*
Y61800D01*
X49100Y61850D01*
X49150Y61900D01*
Y61950D01*
X49100Y61850D02*
X49000D01*
X48850Y61750D02*
X48800Y61700D01*
X48700D01*
X48650Y61750D01*
Y61950D01*
X48700Y62000D01*
X48800D01*
X48850Y61950D01*
Y61900D01*
X48800Y61850D01*
X48650D01*
X49500Y65850D02*
X49550Y65900D01*
X49650D01*
X49700Y65850D01*
Y65650D01*
X49650Y65600D01*
X49550D01*
X49500Y65650D01*
X49400Y65600D02*
X49300D01*
X49350D01*
Y65900D01*
X49400Y65850D01*
X49150Y65650D02*
X49100Y65600D01*
X49000D01*
X48950Y65650D01*
Y65850D01*
X49000Y65900D01*
X49100D01*
X49150Y65850D01*
Y65800D01*
X49100Y65750D01*
X48950D01*
X48850Y65850D02*
X48800Y65900D01*
X48700D01*
X48650Y65850D01*
Y65650D01*
X48700Y65600D01*
X48800D01*
X48850Y65650D01*
Y65850D01*
X55350Y33750D02*
X55400Y33800D01*
X55500D01*
X55550Y33750D01*
Y33550D01*
X55500Y33500D01*
X55400D01*
X55350Y33550D01*
X55250Y33500D02*
X55150D01*
X55200D01*
Y33800D01*
X55250Y33750D01*
X55000Y33550D02*
X54950Y33500D01*
X54850D01*
X54800Y33550D01*
Y33750D01*
X54850Y33800D01*
X54950D01*
X55000Y33750D01*
Y33700D01*
X54950Y33650D01*
X54800D01*
X54700Y33750D02*
X54650Y33800D01*
X54550D01*
X54500Y33750D01*
Y33700D01*
X54550Y33650D01*
X54600D01*
X54550D01*
X54500Y33600D01*
Y33550D01*
X54550Y33500D01*
X54650D01*
X54700Y33550D01*
X55100Y37650D02*
X55150Y37700D01*
X55250D01*
X55300Y37650D01*
Y37450D01*
X55250Y37400D01*
X55150D01*
X55100Y37450D01*
X55000Y37400D02*
X54900D01*
X54950D01*
Y37700D01*
X55000Y37650D01*
X54750Y37450D02*
X54700Y37400D01*
X54600D01*
X54550Y37450D01*
Y37650D01*
X54600Y37700D01*
X54700D01*
X54750Y37650D01*
Y37600D01*
X54700Y37550D01*
X54550D01*
X54250Y37700D02*
X54450D01*
Y37550D01*
X54350Y37600D01*
X54300D01*
X54250Y37550D01*
Y37450D01*
X54300Y37400D01*
X54400D01*
X54450Y37450D01*
X55100Y41550D02*
X55150Y41600D01*
X55250D01*
X55300Y41550D01*
Y41350D01*
X55250Y41300D01*
X55150D01*
X55100Y41350D01*
X55000Y41300D02*
X54900D01*
X54950D01*
Y41600D01*
X55000Y41550D01*
X54750Y41350D02*
X54700Y41300D01*
X54600D01*
X54550Y41350D01*
Y41550D01*
X54600Y41600D01*
X54700D01*
X54750Y41550D01*
Y41500D01*
X54700Y41450D01*
X54550D01*
X54450Y41600D02*
X54250D01*
Y41550D01*
X54450Y41350D01*
Y41300D01*
X55100Y45450D02*
X55150Y45500D01*
X55250D01*
X55300Y45450D01*
Y45250D01*
X55250Y45200D01*
X55150D01*
X55100Y45250D01*
X55000Y45200D02*
X54900D01*
X54950D01*
Y45500D01*
X55000Y45450D01*
X54750Y45250D02*
X54700Y45200D01*
X54600D01*
X54550Y45250D01*
Y45450D01*
X54600Y45500D01*
X54700D01*
X54750Y45450D01*
Y45400D01*
X54700Y45350D01*
X54550D01*
X54450Y45250D02*
X54400Y45200D01*
X54300D01*
X54250Y45250D01*
Y45450D01*
X54300Y45500D01*
X54400D01*
X54450Y45450D01*
Y45400D01*
X54400Y45350D01*
X54250D01*
X55100Y49350D02*
X55150Y49400D01*
X55250D01*
X55300Y49350D01*
Y49150D01*
X55250Y49100D01*
X55150D01*
X55100Y49150D01*
X54800Y49100D02*
X55000D01*
X54800Y49300D01*
Y49350D01*
X54850Y49400D01*
X54950D01*
X55000Y49350D01*
X54700D02*
X54650Y49400D01*
X54550D01*
X54500Y49350D01*
Y49150D01*
X54550Y49100D01*
X54650D01*
X54700Y49150D01*
Y49350D01*
X54400Y49100D02*
X54300D01*
X54350D01*
Y49400D01*
X54400Y49350D01*
X55100Y53250D02*
X55150Y53300D01*
X55250D01*
X55300Y53250D01*
Y53050D01*
X55250Y53000D01*
X55150D01*
X55100Y53050D01*
X54800Y53000D02*
X55000D01*
X54800Y53200D01*
Y53250D01*
X54850Y53300D01*
X54950D01*
X55000Y53250D01*
X54700D02*
X54650Y53300D01*
X54550D01*
X54500Y53250D01*
Y53050D01*
X54550Y53000D01*
X54650D01*
X54700Y53050D01*
Y53250D01*
X54400D02*
X54350Y53300D01*
X54250D01*
X54200Y53250D01*
Y53200D01*
X54250Y53150D01*
X54300D01*
X54250D01*
X54200Y53100D01*
Y53050D01*
X54250Y53000D01*
X54350D01*
X54400Y53050D01*
X55100Y57150D02*
X55150Y57200D01*
X55250D01*
X55300Y57150D01*
Y56950D01*
X55250Y56900D01*
X55150D01*
X55100Y56950D01*
X54800Y56900D02*
X55000D01*
X54800Y57100D01*
Y57150D01*
X54850Y57200D01*
X54950D01*
X55000Y57150D01*
X54700D02*
X54650Y57200D01*
X54550D01*
X54500Y57150D01*
Y56950D01*
X54550Y56900D01*
X54650D01*
X54700Y56950D01*
Y57150D01*
X54200Y57200D02*
X54400D01*
Y57050D01*
X54300Y57100D01*
X54250D01*
X54200Y57050D01*
Y56950D01*
X54250Y56900D01*
X54350D01*
X54400Y56950D01*
X55100Y61050D02*
X55150Y61100D01*
X55250D01*
X55300Y61050D01*
Y60850D01*
X55250Y60800D01*
X55150D01*
X55100Y60850D01*
X54800Y60800D02*
X55000D01*
X54800Y61000D01*
Y61050D01*
X54850Y61100D01*
X54950D01*
X55000Y61050D01*
X54700D02*
X54650Y61100D01*
X54550D01*
X54500Y61050D01*
Y60850D01*
X54550Y60800D01*
X54650D01*
X54700Y60850D01*
Y61050D01*
X54400Y61100D02*
X54200D01*
Y61050D01*
X54400Y60850D01*
Y60800D01*
X55100Y64950D02*
X55150Y65000D01*
X55250D01*
X55300Y64950D01*
Y64750D01*
X55250Y64700D01*
X55150D01*
X55100Y64750D01*
X54800Y64700D02*
X55000D01*
X54800Y64900D01*
Y64950D01*
X54850Y65000D01*
X54950D01*
X55000Y64950D01*
X54700D02*
X54650Y65000D01*
X54550D01*
X54500Y64950D01*
Y64750D01*
X54550Y64700D01*
X54650D01*
X54700Y64750D01*
Y64950D01*
X54400Y64750D02*
X54350Y64700D01*
X54250D01*
X54200Y64750D01*
Y64950D01*
X54250Y65000D01*
X54350D01*
X54400Y64950D01*
Y64900D01*
X54350Y64850D01*
X54200D01*
X41030Y32490D02*
X41080Y32540D01*
X41180D01*
X41230Y32490D01*
Y32290D01*
X41180Y32240D01*
X41080D01*
X41030Y32290D01*
X40930Y32240D02*
X40830D01*
X40880D01*
Y32540D01*
X40930Y32490D01*
X40480Y32540D02*
X40580Y32490D01*
X40680Y32390D01*
Y32290D01*
X40630Y32240D01*
X40530D01*
X40480Y32290D01*
Y32340D01*
X40530Y32390D01*
X40680D01*
X40180Y32240D02*
X40380D01*
X40180Y32440D01*
Y32490D01*
X40230Y32540D01*
X40330D01*
X40380Y32490D01*
X40780Y36390D02*
X40830Y36440D01*
X40930D01*
X40980Y36390D01*
Y36190D01*
X40930Y36140D01*
X40830D01*
X40780Y36190D01*
X40680Y36140D02*
X40580D01*
X40630D01*
Y36440D01*
X40680Y36390D01*
X40230Y36440D02*
X40330Y36390D01*
X40430Y36290D01*
Y36190D01*
X40380Y36140D01*
X40280D01*
X40230Y36190D01*
Y36240D01*
X40280Y36290D01*
X40430D01*
X40130Y36390D02*
X40080Y36440D01*
X39980D01*
X39930Y36390D01*
Y36340D01*
X39980Y36290D01*
X40030D01*
X39980D01*
X39930Y36240D01*
Y36190D01*
X39980Y36140D01*
X40080D01*
X40130Y36190D01*
X40780Y40290D02*
X40830Y40340D01*
X40930D01*
X40980Y40290D01*
Y40090D01*
X40930Y40040D01*
X40830D01*
X40780Y40090D01*
X40680Y40040D02*
X40580D01*
X40630D01*
Y40340D01*
X40680Y40290D01*
X40230Y40340D02*
X40330Y40290D01*
X40430Y40190D01*
Y40090D01*
X40380Y40040D01*
X40280D01*
X40230Y40090D01*
Y40140D01*
X40280Y40190D01*
X40430D01*
X39980Y40040D02*
Y40340D01*
X40130Y40190D01*
X39930D01*
X40780Y44190D02*
X40830Y44240D01*
X40930D01*
X40980Y44190D01*
Y43990D01*
X40930Y43940D01*
X40830D01*
X40780Y43990D01*
X40680Y43940D02*
X40580D01*
X40630D01*
Y44240D01*
X40680Y44190D01*
X40230Y44240D02*
X40330Y44190D01*
X40430Y44090D01*
Y43990D01*
X40380Y43940D01*
X40280D01*
X40230Y43990D01*
Y44040D01*
X40280Y44090D01*
X40430D01*
X39930Y44240D02*
X40130D01*
Y44090D01*
X40030Y44140D01*
X39980D01*
X39930Y44090D01*
Y43990D01*
X39980Y43940D01*
X40080D01*
X40130Y43990D01*
X40780Y48090D02*
X40830Y48140D01*
X40930D01*
X40980Y48090D01*
Y47890D01*
X40930Y47840D01*
X40830D01*
X40780Y47890D01*
X40680Y47840D02*
X40580D01*
X40630D01*
Y48140D01*
X40680Y48090D01*
X40230Y48140D02*
X40330Y48090D01*
X40430Y47990D01*
Y47890D01*
X40380Y47840D01*
X40280D01*
X40230Y47890D01*
Y47940D01*
X40280Y47990D01*
X40430D01*
X39930Y48140D02*
X40030Y48090D01*
X40130Y47990D01*
Y47890D01*
X40080Y47840D01*
X39980D01*
X39930Y47890D01*
Y47940D01*
X39980Y47990D01*
X40130D01*
X40780Y51990D02*
X40830Y52040D01*
X40930D01*
X40980Y51990D01*
Y51790D01*
X40930Y51740D01*
X40830D01*
X40780Y51790D01*
X40680Y51740D02*
X40580D01*
X40630D01*
Y52040D01*
X40680Y51990D01*
X40230Y52040D02*
X40330Y51990D01*
X40430Y51890D01*
Y51790D01*
X40380Y51740D01*
X40280D01*
X40230Y51790D01*
Y51840D01*
X40280Y51890D01*
X40430D01*
X40130Y52040D02*
X39930D01*
Y51990D01*
X40130Y51790D01*
Y51740D01*
X40780Y55890D02*
X40830Y55940D01*
X40930D01*
X40980Y55890D01*
Y55690D01*
X40930Y55640D01*
X40830D01*
X40780Y55690D01*
X40680Y55640D02*
X40580D01*
X40630D01*
Y55940D01*
X40680Y55890D01*
X40230Y55940D02*
X40330Y55890D01*
X40430Y55790D01*
Y55690D01*
X40380Y55640D01*
X40280D01*
X40230Y55690D01*
Y55740D01*
X40280Y55790D01*
X40430D01*
X40130Y55890D02*
X40080Y55940D01*
X39980D01*
X39930Y55890D01*
Y55840D01*
X39980Y55790D01*
X39930Y55740D01*
Y55690D01*
X39980Y55640D01*
X40080D01*
X40130Y55690D01*
Y55740D01*
X40080Y55790D01*
X40130Y55840D01*
Y55890D01*
X40080Y55790D02*
X39980D01*
X40780Y59790D02*
X40830Y59840D01*
X40930D01*
X40980Y59790D01*
Y59590D01*
X40930Y59540D01*
X40830D01*
X40780Y59590D01*
X40680Y59540D02*
X40580D01*
X40630D01*
Y59840D01*
X40680Y59790D01*
X40230Y59840D02*
X40330Y59790D01*
X40430Y59690D01*
Y59590D01*
X40380Y59540D01*
X40280D01*
X40230Y59590D01*
Y59640D01*
X40280Y59690D01*
X40430D01*
X40130Y59590D02*
X40080Y59540D01*
X39980D01*
X39930Y59590D01*
Y59790D01*
X39980Y59840D01*
X40080D01*
X40130Y59790D01*
Y59740D01*
X40080Y59690D01*
X39930D01*
X40780Y63690D02*
X40830Y63740D01*
X40930D01*
X40980Y63690D01*
Y63490D01*
X40930Y63440D01*
X40830D01*
X40780Y63490D01*
X40680Y63440D02*
X40580D01*
X40630D01*
Y63740D01*
X40680Y63690D01*
X40430Y63740D02*
X40230D01*
Y63690D01*
X40430Y63490D01*
Y63440D01*
X40130Y63690D02*
X40080Y63740D01*
X39980D01*
X39930Y63690D01*
Y63490D01*
X39980Y63440D01*
X40080D01*
X40130Y63490D01*
Y63690D01*
X36150Y30900D02*
X36200Y30850D01*
Y30750D01*
X36150Y30700D01*
X35950D01*
X35900Y30750D01*
Y30850D01*
X35950Y30900D01*
X35900Y31000D02*
Y31100D01*
Y31050D01*
X36200D01*
X36150Y31000D01*
X35900Y31400D02*
X36200D01*
X36050Y31250D01*
Y31450D01*
X35900Y31750D02*
Y31550D01*
X36100Y31750D01*
X36150D01*
X36200Y31700D01*
Y31600D01*
X36150Y31550D01*
Y34800D02*
X36200Y34750D01*
Y34650D01*
X36150Y34600D01*
X35950D01*
X35900Y34650D01*
Y34750D01*
X35950Y34800D01*
X35900Y34900D02*
Y35000D01*
Y34950D01*
X36200D01*
X36150Y34900D01*
X35900Y35300D02*
X36200D01*
X36050Y35150D01*
Y35350D01*
X36150Y35450D02*
X36200Y35500D01*
Y35600D01*
X36150Y35650D01*
X36100D01*
X36050Y35600D01*
Y35550D01*
Y35600D01*
X36000Y35650D01*
X35950D01*
X35900Y35600D01*
Y35500D01*
X35950Y35450D01*
X36150Y38700D02*
X36200Y38650D01*
Y38550D01*
X36150Y38500D01*
X35950D01*
X35900Y38550D01*
Y38650D01*
X35950Y38700D01*
X35900Y38800D02*
Y38900D01*
Y38850D01*
X36200D01*
X36150Y38800D01*
X35900Y39200D02*
X36200D01*
X36050Y39050D01*
Y39250D01*
X35900Y39500D02*
X36200D01*
X36050Y39350D01*
Y39550D01*
X36150Y42600D02*
X36200Y42550D01*
Y42450D01*
X36150Y42400D01*
X35950D01*
X35900Y42450D01*
Y42550D01*
X35950Y42600D01*
X35900Y42700D02*
Y42800D01*
Y42750D01*
X36200D01*
X36150Y42700D01*
X35900Y43100D02*
X36200D01*
X36050Y42950D01*
Y43150D01*
X36200Y43450D02*
Y43250D01*
X36050D01*
X36100Y43350D01*
Y43400D01*
X36050Y43450D01*
X35950D01*
X35900Y43400D01*
Y43300D01*
X35950Y43250D01*
X36150Y46500D02*
X36200Y46450D01*
Y46350D01*
X36150Y46300D01*
X35950D01*
X35900Y46350D01*
Y46450D01*
X35950Y46500D01*
X35900Y46600D02*
Y46700D01*
Y46650D01*
X36200D01*
X36150Y46600D01*
X35900Y47000D02*
X36200D01*
X36050Y46850D01*
Y47050D01*
X36200Y47350D02*
X36150Y47250D01*
X36050Y47150D01*
X35950D01*
X35900Y47200D01*
Y47300D01*
X35950Y47350D01*
X36000D01*
X36050Y47300D01*
Y47150D01*
X36150Y50400D02*
X36200Y50350D01*
Y50250D01*
X36150Y50200D01*
X35950D01*
X35900Y50250D01*
Y50350D01*
X35950Y50400D01*
X35900Y50500D02*
Y50600D01*
Y50550D01*
X36200D01*
X36150Y50500D01*
X35900Y50900D02*
X36200D01*
X36050Y50750D01*
Y50950D01*
X36200Y51050D02*
Y51250D01*
X36150D01*
X35950Y51050D01*
X35900D01*
X36150Y54300D02*
X36200Y54250D01*
Y54150D01*
X36150Y54100D01*
X35950D01*
X35900Y54150D01*
Y54250D01*
X35950Y54300D01*
X35900Y54400D02*
Y54500D01*
Y54450D01*
X36200D01*
X36150Y54400D01*
X35900Y54800D02*
X36200D01*
X36050Y54650D01*
Y54850D01*
X36150Y54950D02*
X36200Y55000D01*
Y55100D01*
X36150Y55150D01*
X36100D01*
X36050Y55100D01*
X36000Y55150D01*
X35950D01*
X35900Y55100D01*
Y55000D01*
X35950Y54950D01*
X36000D01*
X36050Y55000D01*
X36100Y54950D01*
X36150D01*
X36050Y55000D02*
Y55100D01*
X36150Y58200D02*
X36200Y58150D01*
Y58050D01*
X36150Y58000D01*
X35950D01*
X35900Y58050D01*
Y58150D01*
X35950Y58200D01*
X35900Y58300D02*
Y58400D01*
Y58350D01*
X36200D01*
X36150Y58300D01*
X35900Y58700D02*
X36200D01*
X36050Y58550D01*
Y58750D01*
X35950Y58850D02*
X35900Y58900D01*
Y59000D01*
X35950Y59050D01*
X36150D01*
X36200Y59000D01*
Y58900D01*
X36150Y58850D01*
X36100D01*
X36050Y58900D01*
Y59050D01*
X36150Y62100D02*
X36200Y62050D01*
Y61950D01*
X36150Y61900D01*
X35950D01*
X35900Y61950D01*
Y62050D01*
X35950Y62100D01*
X35900Y62200D02*
Y62300D01*
Y62250D01*
X36200D01*
X36150Y62200D01*
X36200Y62650D02*
Y62450D01*
X36050D01*
X36100Y62550D01*
Y62600D01*
X36050Y62650D01*
X35950D01*
X35900Y62600D01*
Y62500D01*
X35950Y62450D01*
X36150Y62750D02*
X36200Y62800D01*
Y62900D01*
X36150Y62950D01*
X35950D01*
X35900Y62900D01*
Y62800D01*
X35950Y62750D01*
X36150D01*
X38430Y34290D02*
X38480Y34340D01*
X38580D01*
X38630Y34290D01*
Y34090D01*
X38580Y34040D01*
X38480D01*
X38430Y34090D01*
X38330Y34040D02*
X38230D01*
X38280D01*
Y34340D01*
X38330Y34290D01*
X37880Y34340D02*
X38080D01*
Y34190D01*
X37980Y34240D01*
X37930D01*
X37880Y34190D01*
Y34090D01*
X37930Y34040D01*
X38030D01*
X38080Y34090D01*
X37580Y34040D02*
X37780D01*
X37580Y34240D01*
Y34290D01*
X37630Y34340D01*
X37730D01*
X37780Y34290D01*
X38180Y38190D02*
X38230Y38240D01*
X38330D01*
X38380Y38190D01*
Y37990D01*
X38330Y37940D01*
X38230D01*
X38180Y37990D01*
X38080Y37940D02*
X37980D01*
X38030D01*
Y38240D01*
X38080Y38190D01*
X37630Y38240D02*
X37830D01*
Y38090D01*
X37730Y38140D01*
X37680D01*
X37630Y38090D01*
Y37990D01*
X37680Y37940D01*
X37780D01*
X37830Y37990D01*
X37530Y38190D02*
X37480Y38240D01*
X37380D01*
X37330Y38190D01*
Y38140D01*
X37380Y38090D01*
X37430D01*
X37380D01*
X37330Y38040D01*
Y37990D01*
X37380Y37940D01*
X37480D01*
X37530Y37990D01*
X38180Y42090D02*
X38230Y42140D01*
X38330D01*
X38380Y42090D01*
Y41890D01*
X38330Y41840D01*
X38230D01*
X38180Y41890D01*
X38080Y41840D02*
X37980D01*
X38030D01*
Y42140D01*
X38080Y42090D01*
X37630Y42140D02*
X37830D01*
Y41990D01*
X37730Y42040D01*
X37680D01*
X37630Y41990D01*
Y41890D01*
X37680Y41840D01*
X37780D01*
X37830Y41890D01*
X37380Y41840D02*
Y42140D01*
X37530Y41990D01*
X37330D01*
X38180Y45990D02*
X38230Y46040D01*
X38330D01*
X38380Y45990D01*
Y45790D01*
X38330Y45740D01*
X38230D01*
X38180Y45790D01*
X38080Y45740D02*
X37980D01*
X38030D01*
Y46040D01*
X38080Y45990D01*
X37630Y46040D02*
X37830D01*
Y45890D01*
X37730Y45940D01*
X37680D01*
X37630Y45890D01*
Y45790D01*
X37680Y45740D01*
X37780D01*
X37830Y45790D01*
X37330Y46040D02*
X37530D01*
Y45890D01*
X37430Y45940D01*
X37380D01*
X37330Y45890D01*
Y45790D01*
X37380Y45740D01*
X37480D01*
X37530Y45790D01*
X38180Y49890D02*
X38230Y49940D01*
X38330D01*
X38380Y49890D01*
Y49690D01*
X38330Y49640D01*
X38230D01*
X38180Y49690D01*
X38080Y49640D02*
X37980D01*
X38030D01*
Y49940D01*
X38080Y49890D01*
X37630Y49940D02*
X37830D01*
Y49790D01*
X37730Y49840D01*
X37680D01*
X37630Y49790D01*
Y49690D01*
X37680Y49640D01*
X37780D01*
X37830Y49690D01*
X37330Y49940D02*
X37430Y49890D01*
X37530Y49790D01*
Y49690D01*
X37480Y49640D01*
X37380D01*
X37330Y49690D01*
Y49740D01*
X37380Y49790D01*
X37530D01*
X38180Y53790D02*
X38230Y53840D01*
X38330D01*
X38380Y53790D01*
Y53590D01*
X38330Y53540D01*
X38230D01*
X38180Y53590D01*
X38080Y53540D02*
X37980D01*
X38030D01*
Y53840D01*
X38080Y53790D01*
X37630Y53840D02*
X37830D01*
Y53690D01*
X37730Y53740D01*
X37680D01*
X37630Y53690D01*
Y53590D01*
X37680Y53540D01*
X37780D01*
X37830Y53590D01*
X37530Y53840D02*
X37330D01*
Y53790D01*
X37530Y53590D01*
Y53540D01*
X38180Y57690D02*
X38230Y57740D01*
X38330D01*
X38380Y57690D01*
Y57490D01*
X38330Y57440D01*
X38230D01*
X38180Y57490D01*
X38080Y57440D02*
X37980D01*
X38030D01*
Y57740D01*
X38080Y57690D01*
X37630Y57740D02*
X37830D01*
Y57590D01*
X37730Y57640D01*
X37680D01*
X37630Y57590D01*
Y57490D01*
X37680Y57440D01*
X37780D01*
X37830Y57490D01*
X37530Y57690D02*
X37480Y57740D01*
X37380D01*
X37330Y57690D01*
Y57640D01*
X37380Y57590D01*
X37330Y57540D01*
Y57490D01*
X37380Y57440D01*
X37480D01*
X37530Y57490D01*
Y57540D01*
X37480Y57590D01*
X37530Y57640D01*
Y57690D01*
X37480Y57590D02*
X37380D01*
X38180Y61590D02*
X38230Y61640D01*
X38330D01*
X38380Y61590D01*
Y61390D01*
X38330Y61340D01*
X38230D01*
X38180Y61390D01*
X38080Y61340D02*
X37980D01*
X38030D01*
Y61640D01*
X38080Y61590D01*
X37630Y61640D02*
X37830D01*
Y61490D01*
X37730Y61540D01*
X37680D01*
X37630Y61490D01*
Y61390D01*
X37680Y61340D01*
X37780D01*
X37830Y61390D01*
X37530D02*
X37480Y61340D01*
X37380D01*
X37330Y61390D01*
Y61590D01*
X37380Y61640D01*
X37480D01*
X37530Y61590D01*
Y61540D01*
X37480Y61490D01*
X37330D01*
X38180Y65490D02*
X38230Y65540D01*
X38330D01*
X38380Y65490D01*
Y65290D01*
X38330Y65240D01*
X38230D01*
X38180Y65290D01*
X38080Y65240D02*
X37980D01*
X38030D01*
Y65540D01*
X38080Y65490D01*
X37630Y65540D02*
X37730Y65490D01*
X37830Y65390D01*
Y65290D01*
X37780Y65240D01*
X37680D01*
X37630Y65290D01*
Y65340D01*
X37680Y65390D01*
X37830D01*
X37530Y65490D02*
X37480Y65540D01*
X37380D01*
X37330Y65490D01*
Y65290D01*
X37380Y65240D01*
X37480D01*
X37530Y65290D01*
Y65490D01*
X34050Y33450D02*
X34000Y33500D01*
Y33600D01*
X34050Y33650D01*
X34250D01*
X34300Y33600D01*
Y33500D01*
X34250Y33450D01*
X34300Y33350D02*
Y33250D01*
Y33300D01*
X34000D01*
X34050Y33350D01*
Y33100D02*
X34000Y33050D01*
Y32950D01*
X34050Y32900D01*
X34100D01*
X34150Y32950D01*
Y33000D01*
Y32950D01*
X34200Y32900D01*
X34250D01*
X34300Y32950D01*
Y33050D01*
X34250Y33100D01*
X34300Y32600D02*
Y32800D01*
X34100Y32600D01*
X34050D01*
X34000Y32650D01*
Y32750D01*
X34050Y32800D01*
Y37100D02*
X34000Y37150D01*
Y37250D01*
X34050Y37300D01*
X34250D01*
X34300Y37250D01*
Y37150D01*
X34250Y37100D01*
X34300Y37000D02*
Y36900D01*
Y36950D01*
X34000D01*
X34050Y37000D01*
Y36750D02*
X34000Y36700D01*
Y36600D01*
X34050Y36550D01*
X34100D01*
X34150Y36600D01*
Y36650D01*
Y36600D01*
X34200Y36550D01*
X34250D01*
X34300Y36600D01*
Y36700D01*
X34250Y36750D01*
X34050Y36450D02*
X34000Y36400D01*
Y36300D01*
X34050Y36250D01*
X34100D01*
X34150Y36300D01*
Y36350D01*
Y36300D01*
X34200Y36250D01*
X34250D01*
X34300Y36300D01*
Y36400D01*
X34250Y36450D01*
X34050Y41000D02*
X34000Y41050D01*
Y41150D01*
X34050Y41200D01*
X34250D01*
X34300Y41150D01*
Y41050D01*
X34250Y41000D01*
X34300Y40900D02*
Y40800D01*
Y40850D01*
X34000D01*
X34050Y40900D01*
Y40650D02*
X34000Y40600D01*
Y40500D01*
X34050Y40450D01*
X34100D01*
X34150Y40500D01*
Y40550D01*
Y40500D01*
X34200Y40450D01*
X34250D01*
X34300Y40500D01*
Y40600D01*
X34250Y40650D01*
X34300Y40200D02*
X34000D01*
X34150Y40350D01*
Y40150D01*
X34050Y44900D02*
X34000Y44950D01*
Y45050D01*
X34050Y45100D01*
X34250D01*
X34300Y45050D01*
Y44950D01*
X34250Y44900D01*
X34300Y44800D02*
Y44700D01*
Y44750D01*
X34000D01*
X34050Y44800D01*
Y44550D02*
X34000Y44500D01*
Y44400D01*
X34050Y44350D01*
X34100D01*
X34150Y44400D01*
Y44450D01*
Y44400D01*
X34200Y44350D01*
X34250D01*
X34300Y44400D01*
Y44500D01*
X34250Y44550D01*
X34000Y44050D02*
Y44250D01*
X34150D01*
X34100Y44150D01*
Y44100D01*
X34150Y44050D01*
X34250D01*
X34300Y44100D01*
Y44200D01*
X34250Y44250D01*
X34050Y48800D02*
X34000Y48850D01*
Y48950D01*
X34050Y49000D01*
X34250D01*
X34300Y48950D01*
Y48850D01*
X34250Y48800D01*
X34300Y48700D02*
Y48600D01*
Y48650D01*
X34000D01*
X34050Y48700D01*
Y48450D02*
X34000Y48400D01*
Y48300D01*
X34050Y48250D01*
X34100D01*
X34150Y48300D01*
Y48350D01*
Y48300D01*
X34200Y48250D01*
X34250D01*
X34300Y48300D01*
Y48400D01*
X34250Y48450D01*
X34000Y47950D02*
X34050Y48050D01*
X34150Y48150D01*
X34250D01*
X34300Y48100D01*
Y48000D01*
X34250Y47950D01*
X34200D01*
X34150Y48000D01*
Y48150D01*
X34050Y52700D02*
X34000Y52750D01*
Y52850D01*
X34050Y52900D01*
X34250D01*
X34300Y52850D01*
Y52750D01*
X34250Y52700D01*
X34300Y52600D02*
Y52500D01*
Y52550D01*
X34000D01*
X34050Y52600D01*
Y52350D02*
X34000Y52300D01*
Y52200D01*
X34050Y52150D01*
X34100D01*
X34150Y52200D01*
Y52250D01*
Y52200D01*
X34200Y52150D01*
X34250D01*
X34300Y52200D01*
Y52300D01*
X34250Y52350D01*
X34000Y52050D02*
Y51850D01*
X34050D01*
X34250Y52050D01*
X34300D01*
X34050Y56600D02*
X34000Y56650D01*
Y56750D01*
X34050Y56800D01*
X34250D01*
X34300Y56750D01*
Y56650D01*
X34250Y56600D01*
X34300Y56500D02*
Y56400D01*
Y56450D01*
X34000D01*
X34050Y56500D01*
Y56250D02*
X34000Y56200D01*
Y56100D01*
X34050Y56050D01*
X34100D01*
X34150Y56100D01*
Y56150D01*
Y56100D01*
X34200Y56050D01*
X34250D01*
X34300Y56100D01*
Y56200D01*
X34250Y56250D01*
X34050Y55950D02*
X34000Y55900D01*
Y55800D01*
X34050Y55750D01*
X34100D01*
X34150Y55800D01*
X34200Y55750D01*
X34250D01*
X34300Y55800D01*
Y55900D01*
X34250Y55950D01*
X34200D01*
X34150Y55900D01*
X34100Y55950D01*
X34050D01*
X34150Y55900D02*
Y55800D01*
X34050Y60500D02*
X34000Y60550D01*
Y60650D01*
X34050Y60700D01*
X34250D01*
X34300Y60650D01*
Y60550D01*
X34250Y60500D01*
X34300Y60400D02*
Y60300D01*
Y60350D01*
X34000D01*
X34050Y60400D01*
Y60150D02*
X34000Y60100D01*
Y60000D01*
X34050Y59950D01*
X34100D01*
X34150Y60000D01*
Y60050D01*
Y60000D01*
X34200Y59950D01*
X34250D01*
X34300Y60000D01*
Y60100D01*
X34250Y60150D01*
Y59850D02*
X34300Y59800D01*
Y59700D01*
X34250Y59650D01*
X34050D01*
X34000Y59700D01*
Y59800D01*
X34050Y59850D01*
X34100D01*
X34150Y59800D01*
Y59650D01*
X34050Y64400D02*
X34000Y64450D01*
Y64550D01*
X34050Y64600D01*
X34250D01*
X34300Y64550D01*
Y64450D01*
X34250Y64400D01*
X34300Y64300D02*
Y64200D01*
Y64250D01*
X34000D01*
X34050Y64300D01*
X34300Y63900D02*
X34000D01*
X34150Y64050D01*
Y63850D01*
X34050Y63750D02*
X34000Y63700D01*
Y63600D01*
X34050Y63550D01*
X34250D01*
X34300Y63600D01*
Y63700D01*
X34250Y63750D01*
X34050D01*
X36150Y66000D02*
X36200Y65950D01*
Y65850D01*
X36150Y65800D01*
X35950D01*
X35900Y65850D01*
Y65950D01*
X35950Y66000D01*
X35900Y66100D02*
Y66200D01*
Y66150D01*
X36200D01*
X36150Y66100D01*
X36200Y66550D02*
Y66350D01*
X36050D01*
X36100Y66450D01*
Y66500D01*
X36050Y66550D01*
X35950D01*
X35900Y66500D01*
Y66400D01*
X35950Y66350D01*
X35900Y66650D02*
Y66750D01*
Y66700D01*
X36200D01*
X36150Y66650D01*
X28500Y31850D02*
X28550Y31900D01*
X28650D01*
X28700Y31850D01*
Y31650D01*
X28650Y31600D01*
X28550D01*
X28500Y31650D01*
X28400Y31600D02*
X28300D01*
X28350D01*
Y31900D01*
X28400Y31850D01*
X28150D02*
X28100Y31900D01*
X28000D01*
X27950Y31850D01*
Y31650D01*
X28000Y31600D01*
X28100D01*
X28150Y31650D01*
Y31850D01*
X27850D02*
X27800Y31900D01*
X27700D01*
X27650Y31850D01*
Y31650D01*
X27700Y31600D01*
X27800D01*
X27850Y31650D01*
Y31850D01*
X28500Y35750D02*
X28550Y35800D01*
X28650D01*
X28700Y35750D01*
Y35550D01*
X28650Y35500D01*
X28550D01*
X28500Y35550D01*
X28400Y35500D02*
X28300D01*
X28350D01*
Y35800D01*
X28400Y35750D01*
X28150D02*
X28100Y35800D01*
X28000D01*
X27950Y35750D01*
Y35550D01*
X28000Y35500D01*
X28100D01*
X28150Y35550D01*
Y35750D01*
X27650Y35500D02*
X27850D01*
X27650Y35700D01*
Y35750D01*
X27700Y35800D01*
X27800D01*
X27850Y35750D01*
X28500Y39650D02*
X28550Y39700D01*
X28650D01*
X28700Y39650D01*
Y39450D01*
X28650Y39400D01*
X28550D01*
X28500Y39450D01*
X28400Y39400D02*
X28300D01*
X28350D01*
Y39700D01*
X28400Y39650D01*
X28150D02*
X28100Y39700D01*
X28000D01*
X27950Y39650D01*
Y39450D01*
X28000Y39400D01*
X28100D01*
X28150Y39450D01*
Y39650D01*
X27700Y39400D02*
Y39700D01*
X27850Y39550D01*
X27650D01*
X28500Y43550D02*
X28550Y43600D01*
X28650D01*
X28700Y43550D01*
Y43350D01*
X28650Y43300D01*
X28550D01*
X28500Y43350D01*
X28400Y43300D02*
X28300D01*
X28350D01*
Y43600D01*
X28400Y43550D01*
X28150D02*
X28100Y43600D01*
X28000D01*
X27950Y43550D01*
Y43350D01*
X28000Y43300D01*
X28100D01*
X28150Y43350D01*
Y43550D01*
X27650Y43600D02*
X27750Y43550D01*
X27850Y43450D01*
Y43350D01*
X27800Y43300D01*
X27700D01*
X27650Y43350D01*
Y43400D01*
X27700Y43450D01*
X27850D01*
X28500Y55250D02*
X28550Y55300D01*
X28650D01*
X28700Y55250D01*
Y55050D01*
X28650Y55000D01*
X28550D01*
X28500Y55050D01*
X28400Y55000D02*
X28300D01*
X28350D01*
Y55300D01*
X28400Y55250D01*
X28150D02*
X28100Y55300D01*
X28000D01*
X27950Y55250D01*
Y55050D01*
X28000Y55000D01*
X28100D01*
X28150Y55050D01*
Y55250D01*
X27850D02*
X27800Y55300D01*
X27700D01*
X27650Y55250D01*
Y55200D01*
X27700Y55150D01*
X27650Y55100D01*
Y55050D01*
X27700Y55000D01*
X27800D01*
X27850Y55050D01*
Y55100D01*
X27800Y55150D01*
X27850Y55200D01*
Y55250D01*
X27800Y55150D02*
X27700D01*
X28500Y59150D02*
X28550Y59200D01*
X28650D01*
X28700Y59150D01*
Y58950D01*
X28650Y58900D01*
X28550D01*
X28500Y58950D01*
X28400Y58900D02*
X28300D01*
X28350D01*
Y59200D01*
X28400Y59150D01*
X28150Y58900D02*
X28050D01*
X28100D01*
Y59200D01*
X28150Y59150D01*
X27900D02*
X27850Y59200D01*
X27750D01*
X27700Y59150D01*
Y58950D01*
X27750Y58900D01*
X27850D01*
X27900Y58950D01*
Y59150D01*
X28500Y63050D02*
X28550Y63100D01*
X28650D01*
X28700Y63050D01*
Y62850D01*
X28650Y62800D01*
X28550D01*
X28500Y62850D01*
X28400Y62800D02*
X28300D01*
X28350D01*
Y63100D01*
X28400Y63050D01*
X28150Y62800D02*
X28050D01*
X28100D01*
Y63100D01*
X28150Y63050D01*
X27700Y62800D02*
X27900D01*
X27700Y63000D01*
Y63050D01*
X27750Y63100D01*
X27850D01*
X27900Y63050D01*
X28400Y66950D02*
X28450Y67000D01*
X28550D01*
X28600Y66950D01*
Y66750D01*
X28550Y66700D01*
X28450D01*
X28400Y66750D01*
X28300Y66700D02*
X28200D01*
X28250D01*
Y67000D01*
X28300Y66950D01*
X28050Y66700D02*
X27950D01*
X28000D01*
Y67000D01*
X28050Y66950D01*
X27650Y66700D02*
Y67000D01*
X27800Y66850D01*
X27600D01*
X32400Y34250D02*
X32450Y34300D01*
X32550D01*
X32600Y34250D01*
Y34050D01*
X32550Y34000D01*
X32450D01*
X32400Y34050D01*
X32300Y34000D02*
X32200D01*
X32250D01*
Y34300D01*
X32300Y34250D01*
X32050Y34000D02*
X31950D01*
X32000D01*
Y34300D01*
X32050Y34250D01*
X31600Y34300D02*
X31700Y34250D01*
X31800Y34150D01*
Y34050D01*
X31750Y34000D01*
X31650D01*
X31600Y34050D01*
Y34100D01*
X31650Y34150D01*
X31800D01*
X32400Y38150D02*
X32450Y38200D01*
X32550D01*
X32600Y38150D01*
Y37950D01*
X32550Y37900D01*
X32450D01*
X32400Y37950D01*
X32300Y37900D02*
X32200D01*
X32250D01*
Y38200D01*
X32300Y38150D01*
X32050Y37900D02*
X31950D01*
X32000D01*
Y38200D01*
X32050Y38150D01*
X31800Y38200D02*
X31600D01*
Y38150D01*
X31800Y37950D01*
Y37900D01*
X32400Y42050D02*
X32450Y42100D01*
X32550D01*
X32600Y42050D01*
Y41850D01*
X32550Y41800D01*
X32450D01*
X32400Y41850D01*
X32300Y41800D02*
X32200D01*
X32250D01*
Y42100D01*
X32300Y42050D01*
X32050Y41800D02*
X31950D01*
X32000D01*
Y42100D01*
X32050Y42050D01*
X31800D02*
X31750Y42100D01*
X31650D01*
X31600Y42050D01*
Y42000D01*
X31650Y41950D01*
X31600Y41900D01*
Y41850D01*
X31650Y41800D01*
X31750D01*
X31800Y41850D01*
Y41900D01*
X31750Y41950D01*
X31800Y42000D01*
Y42050D01*
X31750Y41950D02*
X31650D01*
X32400Y45950D02*
X32450Y46000D01*
X32550D01*
X32600Y45950D01*
Y45750D01*
X32550Y45700D01*
X32450D01*
X32400Y45750D01*
X32300Y45700D02*
X32200D01*
X32250D01*
Y46000D01*
X32300Y45950D01*
X32050Y45700D02*
X31950D01*
X32000D01*
Y46000D01*
X32050Y45950D01*
X31800Y45750D02*
X31750Y45700D01*
X31650D01*
X31600Y45750D01*
Y45950D01*
X31650Y46000D01*
X31750D01*
X31800Y45950D01*
Y45900D01*
X31750Y45850D01*
X31600D01*
X32400Y57650D02*
X32450Y57700D01*
X32550D01*
X32600Y57650D01*
Y57450D01*
X32550Y57400D01*
X32450D01*
X32400Y57450D01*
X32300Y57400D02*
X32200D01*
X32250D01*
Y57700D01*
X32300Y57650D01*
X31850Y57400D02*
X32050D01*
X31850Y57600D01*
Y57650D01*
X31900Y57700D01*
X32000D01*
X32050Y57650D01*
X31750D02*
X31700Y57700D01*
X31600D01*
X31550Y57650D01*
Y57450D01*
X31600Y57400D01*
X31700D01*
X31750Y57450D01*
Y57650D01*
X32400Y61550D02*
X32450Y61600D01*
X32550D01*
X32600Y61550D01*
Y61350D01*
X32550Y61300D01*
X32450D01*
X32400Y61350D01*
X32300Y61300D02*
X32200D01*
X32250D01*
Y61600D01*
X32300Y61550D01*
X31850Y61300D02*
X32050D01*
X31850Y61500D01*
Y61550D01*
X31900Y61600D01*
X32000D01*
X32050Y61550D01*
X31750Y61300D02*
X31650D01*
X31700D01*
Y61600D01*
X31750Y61550D01*
X32400Y65450D02*
X32450Y65500D01*
X32550D01*
X32600Y65450D01*
Y65250D01*
X32550Y65200D01*
X32450D01*
X32400Y65250D01*
X32300Y65200D02*
X32200D01*
X32250D01*
Y65500D01*
X32300Y65450D01*
X31850Y65200D02*
X32050D01*
X31850Y65400D01*
Y65450D01*
X31900Y65500D01*
X32000D01*
X32050Y65450D01*
X31550Y65200D02*
X31750D01*
X31550Y65400D01*
Y65450D01*
X31600Y65500D01*
X31700D01*
X31750Y65450D01*
X33600Y31950D02*
X33650Y32000D01*
X33750D01*
X33800Y31950D01*
Y31750D01*
X33750Y31700D01*
X33650D01*
X33600Y31750D01*
X33500Y31700D02*
X33400D01*
X33450D01*
Y32000D01*
X33500Y31950D01*
X33050Y31700D02*
X33250D01*
X33050Y31900D01*
Y31950D01*
X33100Y32000D01*
X33200D01*
X33250Y31950D01*
X32800Y31700D02*
Y32000D01*
X32950Y31850D01*
X32750D01*
X33600Y35850D02*
X33650Y35900D01*
X33750D01*
X33800Y35850D01*
Y35650D01*
X33750Y35600D01*
X33650D01*
X33600Y35650D01*
X33500Y35600D02*
X33400D01*
X33450D01*
Y35900D01*
X33500Y35850D01*
X33050Y35600D02*
X33250D01*
X33050Y35800D01*
Y35850D01*
X33100Y35900D01*
X33200D01*
X33250Y35850D01*
X32750Y35900D02*
X32950D01*
Y35750D01*
X32850Y35800D01*
X32800D01*
X32750Y35750D01*
Y35650D01*
X32800Y35600D01*
X32900D01*
X32950Y35650D01*
X33600Y39750D02*
X33650Y39800D01*
X33750D01*
X33800Y39750D01*
Y39550D01*
X33750Y39500D01*
X33650D01*
X33600Y39550D01*
X33500Y39500D02*
X33400D01*
X33450D01*
Y39800D01*
X33500Y39750D01*
X33050Y39500D02*
X33250D01*
X33050Y39700D01*
Y39750D01*
X33100Y39800D01*
X33200D01*
X33250Y39750D01*
X32750Y39800D02*
X32850Y39750D01*
X32950Y39650D01*
Y39550D01*
X32900Y39500D01*
X32800D01*
X32750Y39550D01*
Y39600D01*
X32800Y39650D01*
X32950D01*
X33600Y43650D02*
X33650Y43700D01*
X33750D01*
X33800Y43650D01*
Y43450D01*
X33750Y43400D01*
X33650D01*
X33600Y43450D01*
X33500Y43400D02*
X33400D01*
X33450D01*
Y43700D01*
X33500Y43650D01*
X33050Y43400D02*
X33250D01*
X33050Y43600D01*
Y43650D01*
X33100Y43700D01*
X33200D01*
X33250Y43650D01*
X32950Y43700D02*
X32750D01*
Y43650D01*
X32950Y43450D01*
Y43400D01*
X33600Y55350D02*
X33650Y55400D01*
X33750D01*
X33800Y55350D01*
Y55150D01*
X33750Y55100D01*
X33650D01*
X33600Y55150D01*
X33500Y55100D02*
X33400D01*
X33450D01*
Y55400D01*
X33500Y55350D01*
X33050Y55100D02*
X33250D01*
X33050Y55300D01*
Y55350D01*
X33100Y55400D01*
X33200D01*
X33250Y55350D01*
X32950D02*
X32900Y55400D01*
X32800D01*
X32750Y55350D01*
Y55300D01*
X32800Y55250D01*
X32750Y55200D01*
Y55150D01*
X32800Y55100D01*
X32900D01*
X32950Y55150D01*
Y55200D01*
X32900Y55250D01*
X32950Y55300D01*
Y55350D01*
X32900Y55250D02*
X32800D01*
X33600Y59250D02*
X33650Y59300D01*
X33750D01*
X33800Y59250D01*
Y59050D01*
X33750Y59000D01*
X33650D01*
X33600Y59050D01*
X33500Y59000D02*
X33400D01*
X33450D01*
Y59300D01*
X33500Y59250D01*
X33050Y59000D02*
X33250D01*
X33050Y59200D01*
Y59250D01*
X33100Y59300D01*
X33200D01*
X33250Y59250D01*
X32950Y59050D02*
X32900Y59000D01*
X32800D01*
X32750Y59050D01*
Y59250D01*
X32800Y59300D01*
X32900D01*
X32950Y59250D01*
Y59200D01*
X32900Y59150D01*
X32750D01*
X33600Y63150D02*
X33650Y63200D01*
X33750D01*
X33800Y63150D01*
Y62950D01*
X33750Y62900D01*
X33650D01*
X33600Y62950D01*
X33500Y62900D02*
X33400D01*
X33450D01*
Y63200D01*
X33500Y63150D01*
X33250D02*
X33200Y63200D01*
X33100D01*
X33050Y63150D01*
Y63100D01*
X33100Y63050D01*
X33150D01*
X33100D01*
X33050Y63000D01*
Y62950D01*
X33100Y62900D01*
X33200D01*
X33250Y62950D01*
X32950Y63150D02*
X32900Y63200D01*
X32800D01*
X32750Y63150D01*
Y62950D01*
X32800Y62900D01*
X32900D01*
X32950Y62950D01*
Y63150D01*
X33500Y67050D02*
X33550Y67100D01*
X33650D01*
X33700Y67050D01*
Y66850D01*
X33650Y66800D01*
X33550D01*
X33500Y66850D01*
X33400Y66800D02*
X33300D01*
X33350D01*
Y67100D01*
X33400Y67050D01*
X33150D02*
X33100Y67100D01*
X33000D01*
X32950Y67050D01*
Y67000D01*
X33000Y66950D01*
X33050D01*
X33000D01*
X32950Y66900D01*
Y66850D01*
X33000Y66800D01*
X33100D01*
X33150Y66850D01*
X32850Y66800D02*
X32750D01*
X32800D01*
Y67100D01*
X32850Y67050D01*
X28400Y34050D02*
X28450Y34100D01*
X28550D01*
X28600Y34050D01*
Y33850D01*
X28550Y33800D01*
X28450D01*
X28400Y33850D01*
X28300Y33800D02*
X28200D01*
X28250D01*
Y34100D01*
X28300Y34050D01*
X28050D02*
X28000Y34100D01*
X27900D01*
X27850Y34050D01*
Y33850D01*
X27900Y33800D01*
X28000D01*
X28050Y33850D01*
Y34050D01*
X27750Y33800D02*
X27650D01*
X27700D01*
Y34100D01*
X27750Y34050D01*
X28400Y37950D02*
X28450Y38000D01*
X28550D01*
X28600Y37950D01*
Y37750D01*
X28550Y37700D01*
X28450D01*
X28400Y37750D01*
X28300Y37700D02*
X28200D01*
X28250D01*
Y38000D01*
X28300Y37950D01*
X28050D02*
X28000Y38000D01*
X27900D01*
X27850Y37950D01*
Y37750D01*
X27900Y37700D01*
X28000D01*
X28050Y37750D01*
Y37950D01*
X27750D02*
X27700Y38000D01*
X27600D01*
X27550Y37950D01*
Y37900D01*
X27600Y37850D01*
X27650D01*
X27600D01*
X27550Y37800D01*
Y37750D01*
X27600Y37700D01*
X27700D01*
X27750Y37750D01*
X28400Y41850D02*
X28450Y41900D01*
X28550D01*
X28600Y41850D01*
Y41650D01*
X28550Y41600D01*
X28450D01*
X28400Y41650D01*
X28300Y41600D02*
X28200D01*
X28250D01*
Y41900D01*
X28300Y41850D01*
X28050D02*
X28000Y41900D01*
X27900D01*
X27850Y41850D01*
Y41650D01*
X27900Y41600D01*
X28000D01*
X28050Y41650D01*
Y41850D01*
X27550Y41900D02*
X27750D01*
Y41750D01*
X27650Y41800D01*
X27600D01*
X27550Y41750D01*
Y41650D01*
X27600Y41600D01*
X27700D01*
X27750Y41650D01*
X28400Y45750D02*
X28450Y45800D01*
X28550D01*
X28600Y45750D01*
Y45550D01*
X28550Y45500D01*
X28450D01*
X28400Y45550D01*
X28300Y45500D02*
X28200D01*
X28250D01*
Y45800D01*
X28300Y45750D01*
X28050D02*
X28000Y45800D01*
X27900D01*
X27850Y45750D01*
Y45550D01*
X27900Y45500D01*
X28000D01*
X28050Y45550D01*
Y45750D01*
X27750Y45800D02*
X27550D01*
Y45750D01*
X27750Y45550D01*
Y45500D01*
X28400Y57450D02*
X28450Y57500D01*
X28550D01*
X28600Y57450D01*
Y57250D01*
X28550Y57200D01*
X28450D01*
X28400Y57250D01*
X28300Y57200D02*
X28200D01*
X28250D01*
Y57500D01*
X28300Y57450D01*
X28050D02*
X28000Y57500D01*
X27900D01*
X27850Y57450D01*
Y57250D01*
X27900Y57200D01*
X28000D01*
X28050Y57250D01*
Y57450D01*
X27750Y57250D02*
X27700Y57200D01*
X27600D01*
X27550Y57250D01*
Y57450D01*
X27600Y57500D01*
X27700D01*
X27750Y57450D01*
Y57400D01*
X27700Y57350D01*
X27550D01*
X28400Y61350D02*
X28450Y61400D01*
X28550D01*
X28600Y61350D01*
Y61150D01*
X28550Y61100D01*
X28450D01*
X28400Y61150D01*
X28300Y61100D02*
X28200D01*
X28250D01*
Y61400D01*
X28300Y61350D01*
X28050Y61100D02*
X27950D01*
X28000D01*
Y61400D01*
X28050Y61350D01*
X27800Y61100D02*
X27700D01*
X27750D01*
Y61400D01*
X27800Y61350D01*
X28400Y65250D02*
X28450Y65300D01*
X28550D01*
X28600Y65250D01*
Y65050D01*
X28550Y65000D01*
X28450D01*
X28400Y65050D01*
X28300Y65000D02*
X28200D01*
X28250D01*
Y65300D01*
X28300Y65250D01*
X28050Y65000D02*
X27950D01*
X28000D01*
Y65300D01*
X28050Y65250D01*
X27800D02*
X27750Y65300D01*
X27650D01*
X27600Y65250D01*
Y65200D01*
X27650Y65150D01*
X27700D01*
X27650D01*
X27600Y65100D01*
Y65050D01*
X27650Y65000D01*
X27750D01*
X27800Y65050D01*
X28300Y69150D02*
X28350Y69200D01*
X28450D01*
X28500Y69150D01*
Y68950D01*
X28450Y68900D01*
X28350D01*
X28300Y68950D01*
X28200Y68900D02*
X28100D01*
X28150D01*
Y69200D01*
X28200Y69150D01*
X27950Y68900D02*
X27850D01*
X27900D01*
Y69200D01*
X27950Y69150D01*
X27500Y69200D02*
X27700D01*
Y69050D01*
X27600Y69100D01*
X27550D01*
X27500Y69050D01*
Y68950D01*
X27550Y68900D01*
X27650D01*
X27700Y68950D01*
X32300Y69350D02*
X32350Y69400D01*
X32450D01*
X32500Y69350D01*
Y69150D01*
X32450Y69100D01*
X32350D01*
X32300Y69150D01*
X32200Y69100D02*
X32100D01*
X32150D01*
Y69400D01*
X32200Y69350D01*
X31750Y69100D02*
X31950D01*
X31750Y69300D01*
Y69350D01*
X31800Y69400D01*
X31900D01*
X31950Y69350D01*
X31650D02*
X31600Y69400D01*
X31500D01*
X31450Y69350D01*
Y69300D01*
X31500Y69250D01*
X31550D01*
X31500D01*
X31450Y69200D01*
Y69150D01*
X31500Y69100D01*
X31600D01*
X31650Y69150D01*
X40680Y67590D02*
X40730Y67640D01*
X40830D01*
X40880Y67590D01*
Y67390D01*
X40830Y67340D01*
X40730D01*
X40680Y67390D01*
X40580Y67340D02*
X40480D01*
X40530D01*
Y67640D01*
X40580Y67590D01*
X40330Y67640D02*
X40130D01*
Y67590D01*
X40330Y67390D01*
Y67340D01*
X40030D02*
X39930D01*
X39980D01*
Y67640D01*
X40030Y67590D01*
X38080Y69390D02*
X38130Y69440D01*
X38230D01*
X38280Y69390D01*
Y69190D01*
X38230Y69140D01*
X38130D01*
X38080Y69190D01*
X37980Y69140D02*
X37880D01*
X37930D01*
Y69440D01*
X37980Y69390D01*
X37530Y69440D02*
X37630Y69390D01*
X37730Y69290D01*
Y69190D01*
X37680Y69140D01*
X37580D01*
X37530Y69190D01*
Y69240D01*
X37580Y69290D01*
X37730D01*
X37430Y69140D02*
X37330D01*
X37380D01*
Y69440D01*
X37430Y69390D01*
X34050Y68200D02*
X34000Y68250D01*
Y68350D01*
X34050Y68400D01*
X34250D01*
X34300Y68350D01*
Y68250D01*
X34250Y68200D01*
X34300Y68100D02*
Y68000D01*
Y68050D01*
X34000D01*
X34050Y68100D01*
X34300Y67700D02*
X34000D01*
X34150Y67850D01*
Y67650D01*
X34300Y67550D02*
Y67450D01*
Y67500D01*
X34000D01*
X34050Y67550D01*
X66800Y37270D02*
X66850Y37320D01*
X66950D01*
X67000Y37270D01*
Y37070D01*
X66950Y37020D01*
X66850D01*
X66800Y37070D01*
X66500Y37020D02*
X66700D01*
X66500Y37220D01*
Y37270D01*
X66550Y37320D01*
X66650D01*
X66700Y37270D01*
X66400Y37020D02*
X66300D01*
X66350D01*
Y37320D01*
X66400Y37270D01*
X65950Y37320D02*
X66150D01*
Y37170D01*
X66050Y37220D01*
X66000D01*
X65950Y37170D01*
Y37070D01*
X66000Y37020D01*
X66100D01*
X66150Y37070D01*
X64800Y37270D02*
X64850Y37320D01*
X64950D01*
X65000Y37270D01*
Y37070D01*
X64950Y37020D01*
X64850D01*
X64800Y37070D01*
X64500Y37020D02*
X64700D01*
X64500Y37220D01*
Y37270D01*
X64550Y37320D01*
X64650D01*
X64700Y37270D01*
X64400Y37020D02*
X64300D01*
X64350D01*
Y37320D01*
X64400Y37270D01*
X63950Y37020D02*
X64150D01*
X63950Y37220D01*
Y37270D01*
X64000Y37320D01*
X64100D01*
X64150Y37270D01*
X67000Y49670D02*
X67050Y49720D01*
X67150D01*
X67200Y49670D01*
Y49470D01*
X67150Y49420D01*
X67050D01*
X67000Y49470D01*
X66700Y49420D02*
X66900D01*
X66700Y49620D01*
Y49670D01*
X66750Y49720D01*
X66850D01*
X66900Y49670D01*
X66600Y49420D02*
X66500D01*
X66550D01*
Y49720D01*
X66600Y49670D01*
X66350Y49720D02*
X66150D01*
Y49670D01*
X66350Y49470D01*
Y49420D01*
X64800Y49670D02*
X64850Y49720D01*
X64950D01*
X65000Y49670D01*
Y49470D01*
X64950Y49420D01*
X64850D01*
X64800Y49470D01*
X64500Y49420D02*
X64700D01*
X64500Y49620D01*
Y49670D01*
X64550Y49720D01*
X64650D01*
X64700Y49670D01*
X64400Y49420D02*
X64300D01*
X64350D01*
Y49720D01*
X64400Y49670D01*
X64150D02*
X64100Y49720D01*
X64000D01*
X63950Y49670D01*
Y49620D01*
X64000Y49570D01*
X64050D01*
X64000D01*
X63950Y49520D01*
Y49470D01*
X64000Y49420D01*
X64100D01*
X64150Y49470D01*
X67000Y56070D02*
X67050Y56120D01*
X67150D01*
X67200Y56070D01*
Y55870D01*
X67150Y55820D01*
X67050D01*
X67000Y55870D01*
X66700Y55820D02*
X66900D01*
X66700Y56020D01*
Y56070D01*
X66750Y56120D01*
X66850D01*
X66900Y56070D01*
X66600Y55820D02*
X66500D01*
X66550D01*
Y56120D01*
X66600Y56070D01*
X66350D02*
X66300Y56120D01*
X66200D01*
X66150Y56070D01*
Y56020D01*
X66200Y55970D01*
X66150Y55920D01*
Y55870D01*
X66200Y55820D01*
X66300D01*
X66350Y55870D01*
Y55920D01*
X66300Y55970D01*
X66350Y56020D01*
Y56070D01*
X66300Y55970D02*
X66200D01*
X64800Y56070D02*
X64850Y56120D01*
X64950D01*
X65000Y56070D01*
Y55870D01*
X64950Y55820D01*
X64850D01*
X64800Y55870D01*
X64500Y55820D02*
X64700D01*
X64500Y56020D01*
Y56070D01*
X64550Y56120D01*
X64650D01*
X64700Y56070D01*
X64400Y55820D02*
X64300D01*
X64350D01*
Y56120D01*
X64400Y56070D01*
X64000Y55820D02*
Y56120D01*
X64150Y55970D01*
X63950D01*
X48480Y67590D02*
X48530Y67640D01*
X48630D01*
X48680Y67590D01*
Y67390D01*
X48630Y67340D01*
X48530D01*
X48480Y67390D01*
X48380Y67340D02*
X48280D01*
X48330D01*
Y67640D01*
X48380Y67590D01*
X48130D02*
X48080Y67640D01*
X47980D01*
X47930Y67590D01*
Y67540D01*
X47980Y67490D01*
X47930Y67440D01*
Y67390D01*
X47980Y67340D01*
X48080D01*
X48130Y67390D01*
Y67440D01*
X48080Y67490D01*
X48130Y67540D01*
Y67590D01*
X48080Y67490D02*
X47980D01*
X47830Y67340D02*
X47730D01*
X47780D01*
Y67640D01*
X47830Y67590D01*
X55100Y67750D02*
X55150Y67800D01*
X55250D01*
X55300Y67750D01*
Y67550D01*
X55250Y67500D01*
X55150D01*
X55100Y67550D01*
X54800Y67500D02*
X55000D01*
X54800Y67700D01*
Y67750D01*
X54850Y67800D01*
X54950D01*
X55000Y67750D01*
X54700Y67500D02*
X54600D01*
X54650D01*
Y67800D01*
X54700Y67750D01*
X54450D02*
X54400Y67800D01*
X54300D01*
X54250Y67750D01*
Y67550D01*
X54300Y67500D01*
X54400D01*
X54450Y67550D01*
Y67750D01*
X49400Y69750D02*
X49450Y69800D01*
X49550D01*
X49600Y69750D01*
Y69550D01*
X49550Y69500D01*
X49450D01*
X49400Y69550D01*
X49300Y69500D02*
X49200D01*
X49250D01*
Y69800D01*
X49300Y69750D01*
X49050Y69550D02*
X49000Y69500D01*
X48900D01*
X48850Y69550D01*
Y69750D01*
X48900Y69800D01*
X49000D01*
X49050Y69750D01*
Y69700D01*
X49000Y69650D01*
X48850D01*
X48750Y69500D02*
X48650D01*
X48700D01*
Y69800D01*
X48750Y69750D01*
X55000Y68850D02*
X55050Y68900D01*
X55150D01*
X55200Y68850D01*
Y68650D01*
X55150Y68600D01*
X55050D01*
X55000Y68650D01*
X54700Y68600D02*
X54900D01*
X54700Y68800D01*
Y68850D01*
X54750Y68900D01*
X54850D01*
X54900Y68850D01*
X54600Y68600D02*
X54500D01*
X54550D01*
Y68900D01*
X54600Y68850D01*
X54350Y68600D02*
X54250D01*
X54300D01*
Y68900D01*
X54350Y68850D01*
X74200Y49870D02*
X74250Y49920D01*
X74350D01*
X74400Y49870D01*
Y49670D01*
X74350Y49620D01*
X74250D01*
X74200Y49670D01*
X73900Y49620D02*
X74100D01*
X73900Y49820D01*
Y49870D01*
X73950Y49920D01*
X74050D01*
X74100Y49870D01*
X73800D02*
X73750Y49920D01*
X73650D01*
X73600Y49870D01*
Y49820D01*
X73650Y49770D01*
X73700D01*
X73650D01*
X73600Y49720D01*
Y49670D01*
X73650Y49620D01*
X73750D01*
X73800Y49670D01*
X73500Y49620D02*
X73400D01*
X73450D01*
Y49920D01*
X73500Y49870D01*
X76200Y35870D02*
X76250Y35920D01*
X76350D01*
X76400Y35870D01*
Y35670D01*
X76350Y35620D01*
X76250D01*
X76200Y35670D01*
X75900Y35620D02*
X76100D01*
X75900Y35820D01*
Y35870D01*
X75950Y35920D01*
X76050D01*
X76100Y35870D01*
X75800D02*
X75750Y35920D01*
X75650D01*
X75600Y35870D01*
Y35820D01*
X75650Y35770D01*
X75700D01*
X75650D01*
X75600Y35720D01*
Y35670D01*
X75650Y35620D01*
X75750D01*
X75800Y35670D01*
X75350Y35620D02*
Y35920D01*
X75500Y35770D01*
X75300D01*
X72200Y35870D02*
X72250Y35920D01*
X72350D01*
X72400Y35870D01*
Y35670D01*
X72350Y35620D01*
X72250D01*
X72200Y35670D01*
X71900Y35620D02*
X72100D01*
X71900Y35820D01*
Y35870D01*
X71950Y35920D01*
X72050D01*
X72100Y35870D01*
X71600Y35620D02*
X71800D01*
X71600Y35820D01*
Y35870D01*
X71650Y35920D01*
X71750D01*
X71800Y35870D01*
X71300Y35920D02*
X71500D01*
Y35770D01*
X71400Y35820D01*
X71350D01*
X71300Y35770D01*
Y35670D01*
X71350Y35620D01*
X71450D01*
X71500Y35670D01*
X68400Y36270D02*
X68450Y36320D01*
X68550D01*
X68600Y36270D01*
Y36070D01*
X68550Y36020D01*
X68450D01*
X68400Y36070D01*
X68100Y36020D02*
X68300D01*
X68100Y36220D01*
Y36270D01*
X68150Y36320D01*
X68250D01*
X68300Y36270D01*
X68000Y36020D02*
X67900D01*
X67950D01*
Y36320D01*
X68000Y36270D01*
X67750Y36070D02*
X67700Y36020D01*
X67600D01*
X67550Y36070D01*
Y36270D01*
X67600Y36320D01*
X67700D01*
X67750Y36270D01*
Y36220D01*
X67700Y36170D01*
X67550D01*
X69600Y39870D02*
X69650Y39920D01*
X69750D01*
X69800Y39870D01*
Y39670D01*
X69750Y39620D01*
X69650D01*
X69600Y39670D01*
X69300Y39620D02*
X69500D01*
X69300Y39820D01*
Y39870D01*
X69350Y39920D01*
X69450D01*
X69500Y39870D01*
X69000Y39620D02*
X69200D01*
X69000Y39820D01*
Y39870D01*
X69050Y39920D01*
X69150D01*
X69200Y39870D01*
X68700Y39620D02*
X68900D01*
X68700Y39820D01*
Y39870D01*
X68750Y39920D01*
X68850D01*
X68900Y39870D01*
X69080Y43590D02*
X69130Y43640D01*
X69230D01*
X69280Y43590D01*
Y43390D01*
X69230Y43340D01*
X69130D01*
X69080Y43390D01*
X68780Y43340D02*
X68980D01*
X68780Y43540D01*
Y43590D01*
X68830Y43640D01*
X68930D01*
X68980Y43590D01*
X68480Y43340D02*
X68680D01*
X68480Y43540D01*
Y43590D01*
X68530Y43640D01*
X68630D01*
X68680Y43590D01*
X68380D02*
X68330Y43640D01*
X68230D01*
X68180Y43590D01*
Y43390D01*
X68230Y43340D01*
X68330D01*
X68380Y43390D01*
Y43590D01*
X73000Y44150D02*
X73050Y44200D01*
X73150D01*
X73200Y44150D01*
Y43950D01*
X73150Y43900D01*
X73050D01*
X73000Y43950D01*
X72700Y43900D02*
X72900D01*
X72700Y44100D01*
Y44150D01*
X72750Y44200D01*
X72850D01*
X72900Y44150D01*
X72400Y43900D02*
X72600D01*
X72400Y44100D01*
Y44150D01*
X72450Y44200D01*
X72550D01*
X72600Y44150D01*
X72100Y44200D02*
X72200Y44150D01*
X72300Y44050D01*
Y43950D01*
X72250Y43900D01*
X72150D01*
X72100Y43950D01*
Y44000D01*
X72150Y44050D01*
X72300D01*
X77280Y42990D02*
X77330Y43040D01*
X77430D01*
X77480Y42990D01*
Y42790D01*
X77430Y42740D01*
X77330D01*
X77280Y42790D01*
X76980Y42740D02*
X77180D01*
X76980Y42940D01*
Y42990D01*
X77030Y43040D01*
X77130D01*
X77180Y42990D01*
X76880D02*
X76830Y43040D01*
X76730D01*
X76680Y42990D01*
Y42940D01*
X76730Y42890D01*
X76780D01*
X76730D01*
X76680Y42840D01*
Y42790D01*
X76730Y42740D01*
X76830D01*
X76880Y42790D01*
X76380Y43040D02*
X76480Y42990D01*
X76580Y42890D01*
Y42790D01*
X76530Y42740D01*
X76430D01*
X76380Y42790D01*
Y42840D01*
X76430Y42890D01*
X76580D01*
X77280Y39790D02*
X77330Y39840D01*
X77430D01*
X77480Y39790D01*
Y39590D01*
X77430Y39540D01*
X77330D01*
X77280Y39590D01*
X76980Y39540D02*
X77180D01*
X76980Y39740D01*
Y39790D01*
X77030Y39840D01*
X77130D01*
X77180Y39790D01*
X76880D02*
X76830Y39840D01*
X76730D01*
X76680Y39790D01*
Y39740D01*
X76730Y39690D01*
X76780D01*
X76730D01*
X76680Y39640D01*
Y39590D01*
X76730Y39540D01*
X76830D01*
X76880Y39590D01*
X76380Y39840D02*
X76580D01*
Y39690D01*
X76480Y39740D01*
X76430D01*
X76380Y39690D01*
Y39590D01*
X76430Y39540D01*
X76530D01*
X76580Y39590D01*
X69800Y41470D02*
X69850Y41520D01*
X69950D01*
X70000Y41470D01*
Y41270D01*
X69950Y41220D01*
X69850D01*
X69800Y41270D01*
X69500Y41220D02*
X69700D01*
X69500Y41420D01*
Y41470D01*
X69550Y41520D01*
X69650D01*
X69700Y41470D01*
X69200Y41220D02*
X69400D01*
X69200Y41420D01*
Y41470D01*
X69250Y41520D01*
X69350D01*
X69400Y41470D01*
X69100D02*
X69050Y41520D01*
X68950D01*
X68900Y41470D01*
Y41420D01*
X68950Y41370D01*
X69000D01*
X68950D01*
X68900Y41320D01*
Y41270D01*
X68950Y41220D01*
X69050D01*
X69100Y41270D01*
X69600Y38270D02*
X69650Y38320D01*
X69750D01*
X69800Y38270D01*
Y38070D01*
X69750Y38020D01*
X69650D01*
X69600Y38070D01*
X69300Y38020D02*
X69500D01*
X69300Y38220D01*
Y38270D01*
X69350Y38320D01*
X69450D01*
X69500Y38270D01*
X69000Y38020D02*
X69200D01*
X69000Y38220D01*
Y38270D01*
X69050Y38320D01*
X69150D01*
X69200Y38270D01*
X68900Y38020D02*
X68800D01*
X68850D01*
Y38320D01*
X68900Y38270D01*
X73680Y36590D02*
X73730Y36640D01*
X73830D01*
X73880Y36590D01*
Y36390D01*
X73830Y36340D01*
X73730D01*
X73680Y36390D01*
X73380Y36340D02*
X73580D01*
X73380Y36540D01*
Y36590D01*
X73430Y36640D01*
X73530D01*
X73580Y36590D01*
X73080Y36340D02*
X73280D01*
X73080Y36540D01*
Y36590D01*
X73130Y36640D01*
X73230D01*
X73280Y36590D01*
X72980D02*
X72930Y36640D01*
X72830D01*
X72780Y36590D01*
Y36540D01*
X72830Y36490D01*
X72780Y36440D01*
Y36390D01*
X72830Y36340D01*
X72930D01*
X72980Y36390D01*
Y36440D01*
X72930Y36490D01*
X72980Y36540D01*
Y36590D01*
X72930Y36490D02*
X72830D01*
X75800Y38270D02*
X75850Y38320D01*
X75950D01*
X76000Y38270D01*
Y38070D01*
X75950Y38020D01*
X75850D01*
X75800Y38070D01*
X75500Y38020D02*
X75700D01*
X75500Y38220D01*
Y38270D01*
X75550Y38320D01*
X75650D01*
X75700Y38270D01*
X75400D02*
X75350Y38320D01*
X75250D01*
X75200Y38270D01*
Y38220D01*
X75250Y38170D01*
X75300D01*
X75250D01*
X75200Y38120D01*
Y38070D01*
X75250Y38020D01*
X75350D01*
X75400Y38070D01*
X74900Y38020D02*
X75100D01*
X74900Y38220D01*
Y38270D01*
X74950Y38320D01*
X75050D01*
X75100Y38270D01*
X75800Y41270D02*
X75850Y41320D01*
X75950D01*
X76000Y41270D01*
Y41070D01*
X75950Y41020D01*
X75850D01*
X75800Y41070D01*
X75500Y41020D02*
X75700D01*
X75500Y41220D01*
Y41270D01*
X75550Y41320D01*
X75650D01*
X75700Y41270D01*
X75400D02*
X75350Y41320D01*
X75250D01*
X75200Y41270D01*
Y41220D01*
X75250Y41170D01*
X75300D01*
X75250D01*
X75200Y41120D01*
Y41070D01*
X75250Y41020D01*
X75350D01*
X75400Y41070D01*
X75100Y41270D02*
X75050Y41320D01*
X74950D01*
X74900Y41270D01*
Y41220D01*
X74950Y41170D01*
X75000D01*
X74950D01*
X74900Y41120D01*
Y41070D01*
X74950Y41020D01*
X75050D01*
X75100Y41070D01*
X73280Y42990D02*
X73330Y43040D01*
X73430D01*
X73480Y42990D01*
Y42790D01*
X73430Y42740D01*
X73330D01*
X73280Y42790D01*
X72980Y42740D02*
X73180D01*
X72980Y42940D01*
Y42990D01*
X73030Y43040D01*
X73130D01*
X73180Y42990D01*
X72680Y42740D02*
X72880D01*
X72680Y42940D01*
Y42990D01*
X72730Y43040D01*
X72830D01*
X72880Y42990D01*
X72580Y42790D02*
X72530Y42740D01*
X72430D01*
X72380Y42790D01*
Y42990D01*
X72430Y43040D01*
X72530D01*
X72580Y42990D01*
Y42940D01*
X72530Y42890D01*
X72380D01*
X72680Y47790D02*
X72730Y47840D01*
X72830D01*
X72880Y47790D01*
Y47590D01*
X72830Y47540D01*
X72730D01*
X72680Y47590D01*
X72380Y47540D02*
X72580D01*
X72380Y47740D01*
Y47790D01*
X72430Y47840D01*
X72530D01*
X72580Y47790D01*
X72080Y47540D02*
X72280D01*
X72080Y47740D01*
Y47790D01*
X72130Y47840D01*
X72230D01*
X72280Y47790D01*
X71980Y47840D02*
X71780D01*
Y47790D01*
X71980Y47590D01*
Y47540D01*
X74600Y33470D02*
X74650Y33520D01*
X74750D01*
X74800Y33470D01*
Y33270D01*
X74750Y33220D01*
X74650D01*
X74600Y33270D01*
X74300Y33220D02*
X74500D01*
X74300Y33420D01*
Y33470D01*
X74350Y33520D01*
X74450D01*
X74500Y33470D01*
X74200D02*
X74150Y33520D01*
X74050D01*
X74000Y33470D01*
Y33420D01*
X74050Y33370D01*
X74100D01*
X74050D01*
X74000Y33320D01*
Y33270D01*
X74050Y33220D01*
X74150D01*
X74200Y33270D01*
X73900Y33470D02*
X73850Y33520D01*
X73750D01*
X73700Y33470D01*
Y33270D01*
X73750Y33220D01*
X73850D01*
X73900Y33270D01*
Y33470D01*
X67000Y33590D02*
X67050Y33640D01*
X67150D01*
X67200Y33590D01*
Y33390D01*
X67150Y33340D01*
X67050D01*
X67000Y33390D01*
X66700Y33340D02*
X66900D01*
X66700Y33540D01*
Y33590D01*
X66750Y33640D01*
X66850D01*
X66900Y33590D01*
X66600Y33340D02*
X66500D01*
X66550D01*
Y33640D01*
X66600Y33590D01*
X66150Y33640D02*
X66250Y33590D01*
X66350Y33490D01*
Y33390D01*
X66300Y33340D01*
X66200D01*
X66150Y33390D01*
Y33440D01*
X66200Y33490D01*
X66350D01*
D59*
X73967Y31865D02*
D03*
X74833D02*
D03*
X74433Y48935D02*
D03*
X73567D02*
D03*
X76433Y34935D02*
D03*
X75567D02*
D03*
X72433D02*
D03*
X71567D02*
D03*
X68633Y35335D02*
D03*
X67767D02*
D03*
X68967Y38265D02*
D03*
X69833D02*
D03*
X70033Y39865D02*
D03*
X69167D02*
D03*
X69833Y37335D02*
D03*
X68967D02*
D03*
X76033D02*
D03*
X75167D02*
D03*
Y39665D02*
D03*
X76033D02*
D03*
X67033Y36335D02*
D03*
X66167D02*
D03*
X65033D02*
D03*
X64167D02*
D03*
X66367Y48065D02*
D03*
X67233D02*
D03*
X64167D02*
D03*
X65033D02*
D03*
X66367Y54465D02*
D03*
X67233D02*
D03*
X65033Y55135D02*
D03*
X64167D02*
D03*
X54633Y31265D02*
D03*
X53767D02*
D03*
X54633Y35165D02*
D03*
X53767D02*
D03*
X54633Y39065D02*
D03*
X53767D02*
D03*
X54633Y42965D02*
D03*
X53767D02*
D03*
X54633Y46865D02*
D03*
X53767D02*
D03*
X54633Y50765D02*
D03*
X53767D02*
D03*
X54633Y54665D02*
D03*
X53767D02*
D03*
X54633Y58565D02*
D03*
X53767D02*
D03*
X54633Y62465D02*
D03*
X53767D02*
D03*
Y66365D02*
D03*
X54633D02*
D03*
X34967Y66265D02*
D03*
X35833D02*
D03*
X34967Y62365D02*
D03*
X35833D02*
D03*
X34967Y58465D02*
D03*
X35833D02*
D03*
X34967Y54565D02*
D03*
X35833D02*
D03*
X34967Y50665D02*
D03*
X35833D02*
D03*
X34967Y46765D02*
D03*
X35833D02*
D03*
X34967Y42865D02*
D03*
X35833D02*
D03*
X34967Y38965D02*
D03*
X35833D02*
D03*
X34967Y35065D02*
D03*
X35833D02*
D03*
X34967Y31165D02*
D03*
X35833D02*
D03*
X67233Y32655D02*
D03*
X66367D02*
D03*
D60*
X72935Y42767D02*
D03*
Y43633D02*
D03*
X68935Y42167D02*
D03*
Y43033D02*
D03*
X73135Y41567D02*
D03*
Y42433D02*
D03*
X48335Y31933D02*
D03*
Y31067D02*
D03*
Y35833D02*
D03*
Y34967D02*
D03*
Y39733D02*
D03*
Y38867D02*
D03*
Y43633D02*
D03*
Y42767D02*
D03*
Y47533D02*
D03*
Y46667D02*
D03*
Y51433D02*
D03*
Y50567D02*
D03*
Y55333D02*
D03*
Y54467D02*
D03*
Y59233D02*
D03*
Y58367D02*
D03*
Y63133D02*
D03*
Y62267D02*
D03*
Y66167D02*
D03*
Y67033D02*
D03*
X37935Y67967D02*
D03*
Y68833D02*
D03*
X28135Y66633D02*
D03*
Y67967D02*
D03*
Y68833D02*
D03*
Y64067D02*
D03*
Y64933D02*
D03*
Y61867D02*
D03*
Y62733D02*
D03*
Y60167D02*
D03*
Y61033D02*
D03*
Y57967D02*
D03*
Y58833D02*
D03*
Y56267D02*
D03*
Y57133D02*
D03*
Y54067D02*
D03*
Y54933D02*
D03*
Y44567D02*
D03*
Y45433D02*
D03*
Y42367D02*
D03*
Y43233D02*
D03*
Y40667D02*
D03*
Y41533D02*
D03*
Y38467D02*
D03*
Y39333D02*
D03*
Y36767D02*
D03*
Y37633D02*
D03*
Y34567D02*
D03*
Y35433D02*
D03*
Y32867D02*
D03*
Y33733D02*
D03*
Y30667D02*
D03*
Y31533D02*
D03*
X37935Y64067D02*
D03*
Y64933D02*
D03*
Y60167D02*
D03*
Y61033D02*
D03*
Y56267D02*
D03*
Y57133D02*
D03*
Y52367D02*
D03*
Y53233D02*
D03*
Y48467D02*
D03*
Y49333D02*
D03*
Y44567D02*
D03*
Y45433D02*
D03*
Y36767D02*
D03*
Y37633D02*
D03*
Y32867D02*
D03*
Y33733D02*
D03*
D61*
X28135Y65767D02*
D03*
X37935Y40667D02*
D03*
Y41533D02*
D03*
M02*
