%FSLAX24Y24*%
%MOIN*%
G70*
G01*
G75*
%ADD10R,0.0591X0.0906*%
%ADD11R,0.0591X0.0512*%
%ADD12R,0.0787X0.0866*%
%ADD13R,0.0315X0.1417*%
%ADD14R,0.0118X0.0630*%
%ADD15R,0.0630X0.0118*%
%ADD16R,0.0846X0.0157*%
%ADD17R,0.0846X0.0157*%
%ADD18R,0.0394X0.0433*%
%ADD19R,0.0433X0.0394*%
%ADD20R,0.0610X0.0157*%
%ADD21R,0.0453X0.0551*%
%ADD22R,0.0512X0.0591*%
%ADD23O,0.0169X0.0480*%
%ADD24R,0.0472X0.0787*%
%ADD25R,0.0169X0.0480*%
%ADD26R,0.0866X0.0236*%
%ADD27R,0.0866X0.0236*%
%ADD28R,0.0236X0.0551*%
%ADD29R,0.0630X0.0709*%
%ADD30R,0.0236X0.0394*%
%ADD31R,0.0807X0.0236*%
%ADD32R,0.0236X0.0807*%
%ADD33R,0.1240X0.1360*%
%ADD34R,0.0866X0.0787*%
%ADD35C,0.0010*%
%ADD36C,0.0160*%
%ADD37C,0.0300*%
%ADD38C,0.0080*%
%ADD39C,0.0100*%
%ADD40C,0.0120*%
%ADD41C,0.0180*%
%ADD42C,0.0200*%
%ADD43R,0.0128X0.0900*%
%ADD44R,0.0128X0.2100*%
%ADD45R,0.2000X0.0200*%
%ADD46R,0.1400X0.0100*%
%ADD47C,0.1100*%
%ADD48C,0.1575*%
%ADD49C,0.0866*%
%ADD50C,0.0591*%
%ADD51R,0.0591X0.0591*%
%ADD52C,0.0591*%
%ADD53R,0.0591X0.0591*%
%ADD54C,0.0600*%
%ADD55C,0.0320*%
%ADD56C,0.0098*%
%ADD57C,0.0079*%
%ADD58C,0.0070*%
%ADD59R,0.0079X0.0197*%
%ADD60R,0.0197X0.0079*%
%ADD61R,0.0197X0.0079*%
D35*
X80000Y30000D02*
Y70000D01*
X20000Y30000D02*
X80000D01*
X20000D02*
Y70000D01*
X80000D01*
X51572Y32099D02*
Y32167D01*
X51759D01*
Y32099D01*
X51572D01*
X51580Y32107D02*
X51580Y32159D01*
X51750Y32159D01*
X51750Y32107D01*
X51580Y32107D01*
X51589Y32115D02*
Y32151D01*
X51742D01*
Y32115D01*
X51589D01*
X51597Y32124D02*
Y32142D01*
X51734Y32142D01*
Y32124D01*
X51597Y32124D01*
X51605Y32132D02*
Y32134D01*
X51725D01*
Y32132D01*
X51605D01*
X51614Y32128D02*
X51717Y32138D01*
X51572Y31233D02*
Y31301D01*
X51759D01*
Y31233D01*
X51572D01*
X51580Y31241D02*
X51580Y31293D01*
X51750Y31293D01*
X51750Y31241D01*
X51580Y31241D01*
X51589Y31249D02*
Y31285D01*
X51742D01*
Y31249D01*
X51589D01*
X51597Y31258D02*
Y31276D01*
X51734Y31276D01*
Y31258D01*
X51597Y31258D01*
X51605Y31266D02*
Y31268D01*
X51725D01*
Y31266D01*
X51605D01*
X51614Y31262D02*
X51717Y31272D01*
X51572Y35999D02*
Y36067D01*
X51759D01*
Y35999D01*
X51572D01*
X51580Y36007D02*
X51580Y36059D01*
X51750Y36059D01*
X51750Y36007D01*
X51580Y36007D01*
X51589Y36015D02*
Y36051D01*
X51742D01*
Y36015D01*
X51589D01*
X51597Y36024D02*
Y36042D01*
X51734Y36042D01*
Y36024D01*
X51597Y36024D01*
X51605Y36032D02*
Y36034D01*
X51725D01*
Y36032D01*
X51605D01*
X51614Y36028D02*
X51717Y36038D01*
X51572Y35133D02*
Y35201D01*
X51759D01*
Y35133D01*
X51572D01*
X51580Y35141D02*
X51580Y35193D01*
X51750Y35193D01*
X51750Y35141D01*
X51580Y35141D01*
X51589Y35149D02*
Y35185D01*
X51742D01*
Y35149D01*
X51589D01*
X51597Y35158D02*
Y35176D01*
X51734Y35176D01*
Y35158D01*
X51597Y35158D01*
X51605Y35166D02*
Y35168D01*
X51725D01*
Y35166D01*
X51605D01*
X51614Y35162D02*
X51717Y35172D01*
X51572Y39899D02*
Y39967D01*
X51759D01*
Y39899D01*
X51572D01*
X51580Y39907D02*
X51580Y39959D01*
X51750Y39959D01*
X51750Y39907D01*
X51580Y39907D01*
X51589Y39915D02*
Y39951D01*
X51742D01*
Y39915D01*
X51589D01*
X51597Y39924D02*
Y39942D01*
X51734Y39942D01*
Y39924D01*
X51597Y39924D01*
X51605Y39932D02*
Y39934D01*
X51725D01*
Y39932D01*
X51605D01*
X51614Y39928D02*
X51717Y39938D01*
X51572Y39033D02*
Y39101D01*
X51759D01*
Y39033D01*
X51572D01*
X51580Y39041D02*
X51580Y39093D01*
X51750Y39093D01*
X51750Y39041D01*
X51580Y39041D01*
X51589Y39049D02*
Y39085D01*
X51742D01*
Y39049D01*
X51589D01*
X51597Y39058D02*
Y39076D01*
X51734Y39076D01*
Y39058D01*
X51597Y39058D01*
X51605Y39066D02*
Y39068D01*
X51725D01*
Y39066D01*
X51605D01*
X51614Y39062D02*
X51717Y39072D01*
X51572Y43799D02*
Y43867D01*
X51759D01*
Y43799D01*
X51572D01*
X51580Y43807D02*
X51580Y43859D01*
X51750Y43859D01*
X51750Y43807D01*
X51580Y43807D01*
X51589Y43815D02*
Y43851D01*
X51742D01*
Y43815D01*
X51589D01*
X51597Y43824D02*
Y43842D01*
X51734Y43842D01*
Y43824D01*
X51597Y43824D01*
X51605Y43832D02*
Y43834D01*
X51725D01*
Y43832D01*
X51605D01*
X51614Y43828D02*
X51717Y43838D01*
X51572Y42933D02*
Y43001D01*
X51759D01*
Y42933D01*
X51572D01*
X51580Y42941D02*
X51580Y42993D01*
X51750Y42993D01*
X51750Y42941D01*
X51580Y42941D01*
X51589Y42949D02*
Y42985D01*
X51742D01*
Y42949D01*
X51589D01*
X51597Y42958D02*
Y42976D01*
X51734Y42976D01*
Y42958D01*
X51597Y42958D01*
X51605Y42966D02*
Y42968D01*
X51725D01*
Y42966D01*
X51605D01*
X51614Y42962D02*
X51717Y42972D01*
X51572Y47699D02*
Y47767D01*
X51759D01*
Y47699D01*
X51572D01*
X51580Y47707D02*
X51580Y47759D01*
X51750Y47759D01*
X51750Y47707D01*
X51580Y47707D01*
X51589Y47715D02*
Y47751D01*
X51742D01*
Y47715D01*
X51589D01*
X51597Y47724D02*
Y47742D01*
X51734Y47742D01*
Y47724D01*
X51597Y47724D01*
X51605Y47732D02*
Y47734D01*
X51725D01*
Y47732D01*
X51605D01*
X51614Y47728D02*
X51717Y47738D01*
X51572Y46833D02*
Y46901D01*
X51759D01*
Y46833D01*
X51572D01*
X51580Y46841D02*
X51580Y46893D01*
X51750Y46893D01*
X51750Y46841D01*
X51580Y46841D01*
X51589Y46849D02*
Y46885D01*
X51742D01*
Y46849D01*
X51589D01*
X51597Y46858D02*
Y46876D01*
X51734Y46876D01*
Y46858D01*
X51597Y46858D01*
X51605Y46866D02*
Y46868D01*
X51725D01*
Y46866D01*
X51605D01*
X51614Y46862D02*
X51717Y46872D01*
X51572Y51599D02*
Y51667D01*
X51759D01*
Y51599D01*
X51572D01*
X51580Y51607D02*
X51580Y51659D01*
X51750Y51659D01*
X51750Y51607D01*
X51580Y51607D01*
X51589Y51615D02*
Y51651D01*
X51742D01*
Y51615D01*
X51589D01*
X51597Y51624D02*
Y51642D01*
X51734Y51642D01*
Y51624D01*
X51597Y51624D01*
X51605Y51632D02*
Y51634D01*
X51725D01*
Y51632D01*
X51605D01*
X51614Y51628D02*
X51717Y51638D01*
X51572Y50733D02*
Y50801D01*
X51759D01*
Y50733D01*
X51572D01*
X51580Y50741D02*
X51580Y50793D01*
X51750Y50793D01*
X51750Y50741D01*
X51580Y50741D01*
X51589Y50749D02*
Y50785D01*
X51742D01*
Y50749D01*
X51589D01*
X51597Y50758D02*
Y50776D01*
X51734Y50776D01*
Y50758D01*
X51597Y50758D01*
X51605Y50766D02*
Y50768D01*
X51725D01*
Y50766D01*
X51605D01*
X51614Y50762D02*
X51717Y50772D01*
X51572Y55499D02*
Y55567D01*
X51759D01*
Y55499D01*
X51572D01*
X51580Y55507D02*
X51580Y55559D01*
X51750Y55559D01*
X51750Y55507D01*
X51580Y55507D01*
X51589Y55515D02*
Y55551D01*
X51742D01*
Y55515D01*
X51589D01*
X51597Y55524D02*
Y55542D01*
X51734Y55542D01*
Y55524D01*
X51597Y55524D01*
X51605Y55532D02*
Y55534D01*
X51725D01*
Y55532D01*
X51605D01*
X51614Y55528D02*
X51717Y55538D01*
X51572Y54633D02*
Y54701D01*
X51759D01*
Y54633D01*
X51572D01*
X51580Y54641D02*
X51580Y54693D01*
X51750Y54693D01*
X51750Y54641D01*
X51580Y54641D01*
X51589Y54649D02*
Y54685D01*
X51742D01*
Y54649D01*
X51589D01*
X51597Y54658D02*
Y54676D01*
X51734Y54676D01*
Y54658D01*
X51597Y54658D01*
X51605Y54666D02*
Y54668D01*
X51725D01*
Y54666D01*
X51605D01*
X51614Y54662D02*
X51717Y54672D01*
X51572Y59399D02*
Y59467D01*
X51759D01*
Y59399D01*
X51572D01*
X51580Y59407D02*
X51580Y59459D01*
X51750Y59459D01*
X51750Y59407D01*
X51580Y59407D01*
X51589Y59415D02*
Y59451D01*
X51742D01*
Y59415D01*
X51589D01*
X51597Y59424D02*
Y59442D01*
X51734Y59442D01*
Y59424D01*
X51597Y59424D01*
X51605Y59432D02*
Y59434D01*
X51725D01*
Y59432D01*
X51605D01*
X51614Y59428D02*
X51717Y59438D01*
X51572Y58533D02*
Y58601D01*
X51759D01*
Y58533D01*
X51572D01*
X51580Y58541D02*
X51580Y58593D01*
X51750Y58593D01*
X51750Y58541D01*
X51580Y58541D01*
X51589Y58549D02*
Y58585D01*
X51742D01*
Y58549D01*
X51589D01*
X51597Y58558D02*
Y58576D01*
X51734Y58576D01*
Y58558D01*
X51597Y58558D01*
X51605Y58566D02*
Y58568D01*
X51725D01*
Y58566D01*
X51605D01*
X51614Y58562D02*
X51717Y58572D01*
X51572Y63299D02*
Y63367D01*
X51759D01*
Y63299D01*
X51572D01*
X51580Y63307D02*
X51580Y63359D01*
X51750Y63359D01*
X51750Y63307D01*
X51580Y63307D01*
X51589Y63315D02*
Y63351D01*
X51742D01*
Y63315D01*
X51589D01*
X51597Y63324D02*
Y63342D01*
X51734Y63342D01*
Y63324D01*
X51597Y63324D01*
X51605Y63332D02*
Y63334D01*
X51725D01*
Y63332D01*
X51605D01*
X51614Y63328D02*
X51717Y63338D01*
X51572Y62433D02*
Y62501D01*
X51759D01*
Y62433D01*
X51572D01*
X51580Y62441D02*
X51580Y62493D01*
X51750Y62493D01*
X51750Y62441D01*
X51580Y62441D01*
X51589Y62449D02*
Y62485D01*
X51742D01*
Y62449D01*
X51589D01*
X51597Y62458D02*
Y62476D01*
X51734Y62476D01*
Y62458D01*
X51597Y62458D01*
X51605Y62466D02*
Y62468D01*
X51725D01*
Y62466D01*
X51605D01*
X51614Y62462D02*
X51717Y62472D01*
X29372Y32299D02*
Y32367D01*
X29559D01*
Y32299D01*
X29372D01*
X29380Y32307D02*
X29380Y32359D01*
X29550Y32359D01*
X29550Y32307D01*
X29380Y32307D01*
X29389Y32315D02*
Y32351D01*
X29542D01*
Y32315D01*
X29389D01*
X29397Y32324D02*
Y32342D01*
X29534Y32342D01*
Y32324D01*
X29397Y32324D01*
X29405Y32332D02*
Y32334D01*
X29525D01*
Y32332D01*
X29405D01*
X29414Y32328D02*
X29517Y32338D01*
X29372Y31433D02*
Y31501D01*
X29559D01*
Y31433D01*
X29372D01*
X29380Y31441D02*
X29380Y31493D01*
X29550Y31493D01*
X29550Y31441D01*
X29380Y31441D01*
X29389Y31449D02*
Y31485D01*
X29542D01*
Y31449D01*
X29389D01*
X29397Y31458D02*
Y31476D01*
X29534Y31476D01*
Y31458D01*
X29397Y31458D01*
X29405Y31466D02*
Y31468D01*
X29525D01*
Y31466D01*
X29405D01*
X29414Y31462D02*
X29517Y31472D01*
X29372Y36199D02*
Y36267D01*
X29559D01*
Y36199D01*
X29372D01*
X29380Y36207D02*
X29380Y36259D01*
X29550Y36259D01*
X29550Y36207D01*
X29380Y36207D01*
X29389Y36215D02*
Y36251D01*
X29542D01*
Y36215D01*
X29389D01*
X29397Y36224D02*
Y36242D01*
X29534Y36242D01*
Y36224D01*
X29397Y36224D01*
X29405Y36232D02*
Y36234D01*
X29525D01*
Y36232D01*
X29405D01*
X29414Y36228D02*
X29517Y36238D01*
X29372Y35333D02*
Y35401D01*
X29559D01*
Y35333D01*
X29372D01*
X29380Y35341D02*
X29380Y35393D01*
X29550Y35393D01*
X29550Y35341D01*
X29380Y35341D01*
X29389Y35349D02*
Y35385D01*
X29542D01*
Y35349D01*
X29389D01*
X29397Y35358D02*
Y35376D01*
X29534Y35376D01*
Y35358D01*
X29397Y35358D01*
X29405Y35366D02*
Y35368D01*
X29525D01*
Y35366D01*
X29405D01*
X29414Y35362D02*
X29517Y35372D01*
X29372Y40099D02*
Y40167D01*
X29559D01*
Y40099D01*
X29372D01*
X29380Y40107D02*
X29380Y40159D01*
X29550Y40159D01*
X29550Y40107D01*
X29380Y40107D01*
X29389Y40115D02*
Y40151D01*
X29542D01*
Y40115D01*
X29389D01*
X29397Y40124D02*
Y40142D01*
X29534Y40142D01*
Y40124D01*
X29397Y40124D01*
X29405Y40132D02*
Y40134D01*
X29525D01*
Y40132D01*
X29405D01*
X29414Y40128D02*
X29517Y40138D01*
X29372Y39233D02*
Y39301D01*
X29559D01*
Y39233D01*
X29372D01*
X29380Y39241D02*
X29380Y39293D01*
X29550Y39293D01*
X29550Y39241D01*
X29380Y39241D01*
X29389Y39249D02*
Y39285D01*
X29542D01*
Y39249D01*
X29389D01*
X29397Y39258D02*
Y39276D01*
X29534Y39276D01*
Y39258D01*
X29397Y39258D01*
X29405Y39266D02*
Y39268D01*
X29525D01*
Y39266D01*
X29405D01*
X29414Y39262D02*
X29517Y39272D01*
X29372Y43999D02*
Y44067D01*
X29559D01*
Y43999D01*
X29372D01*
X29380Y44007D02*
X29380Y44059D01*
X29550Y44059D01*
X29550Y44007D01*
X29380Y44007D01*
X29389Y44015D02*
Y44051D01*
X29542D01*
Y44015D01*
X29389D01*
X29397Y44024D02*
Y44042D01*
X29534Y44042D01*
Y44024D01*
X29397Y44024D01*
X29405Y44032D02*
Y44034D01*
X29525D01*
Y44032D01*
X29405D01*
X29414Y44028D02*
X29517Y44038D01*
X29372Y43133D02*
Y43201D01*
X29559D01*
Y43133D01*
X29372D01*
X29380Y43141D02*
X29380Y43193D01*
X29550Y43193D01*
X29550Y43141D01*
X29380Y43141D01*
X29389Y43149D02*
Y43185D01*
X29542D01*
Y43149D01*
X29389D01*
X29397Y43158D02*
Y43176D01*
X29534Y43176D01*
Y43158D01*
X29397Y43158D01*
X29405Y43166D02*
Y43168D01*
X29525D01*
Y43166D01*
X29405D01*
X29414Y43162D02*
X29517Y43172D01*
X29372Y55699D02*
Y55767D01*
X29559D01*
Y55699D01*
X29372D01*
X29380Y55707D02*
X29380Y55759D01*
X29550Y55759D01*
X29550Y55707D01*
X29380Y55707D01*
X29389Y55715D02*
Y55751D01*
X29542D01*
Y55715D01*
X29389D01*
X29397Y55724D02*
Y55742D01*
X29534Y55742D01*
Y55724D01*
X29397Y55724D01*
X29405Y55732D02*
Y55734D01*
X29525D01*
Y55732D01*
X29405D01*
X29414Y55728D02*
X29517Y55738D01*
X29372Y54833D02*
Y54901D01*
X29559D01*
Y54833D01*
X29372D01*
X29380Y54841D02*
X29380Y54893D01*
X29550Y54893D01*
X29550Y54841D01*
X29380Y54841D01*
X29389Y54849D02*
Y54885D01*
X29542D01*
Y54849D01*
X29389D01*
X29397Y54858D02*
Y54876D01*
X29534Y54876D01*
Y54858D01*
X29397Y54858D01*
X29405Y54866D02*
Y54868D01*
X29525D01*
Y54866D01*
X29405D01*
X29414Y54862D02*
X29517Y54872D01*
X29372Y59599D02*
Y59667D01*
X29559D01*
Y59599D01*
X29372D01*
X29380Y59607D02*
X29380Y59659D01*
X29550Y59659D01*
X29550Y59607D01*
X29380Y59607D01*
X29389Y59615D02*
Y59651D01*
X29542D01*
Y59615D01*
X29389D01*
X29397Y59624D02*
Y59642D01*
X29534Y59642D01*
Y59624D01*
X29397Y59624D01*
X29405Y59632D02*
Y59634D01*
X29525D01*
Y59632D01*
X29405D01*
X29414Y59628D02*
X29517Y59638D01*
X29372Y58733D02*
Y58801D01*
X29559D01*
Y58733D01*
X29372D01*
X29380Y58741D02*
X29380Y58793D01*
X29550Y58793D01*
X29550Y58741D01*
X29380Y58741D01*
X29389Y58749D02*
Y58785D01*
X29542D01*
Y58749D01*
X29389D01*
X29397Y58758D02*
Y58776D01*
X29534Y58776D01*
Y58758D01*
X29397Y58758D01*
X29405Y58766D02*
Y58768D01*
X29525D01*
Y58766D01*
X29405D01*
X29414Y58762D02*
X29517Y58772D01*
X29372Y63499D02*
Y63567D01*
X29559D01*
Y63499D01*
X29372D01*
X29380Y63507D02*
X29380Y63559D01*
X29550Y63559D01*
X29550Y63507D01*
X29380Y63507D01*
X29389Y63515D02*
Y63551D01*
X29542D01*
Y63515D01*
X29389D01*
X29397Y63524D02*
Y63542D01*
X29534Y63542D01*
Y63524D01*
X29397Y63524D01*
X29405Y63532D02*
Y63534D01*
X29525D01*
Y63532D01*
X29405D01*
X29414Y63528D02*
X29517Y63538D01*
X29372Y62633D02*
Y62701D01*
X29559D01*
Y62633D01*
X29372D01*
X29380Y62641D02*
X29380Y62693D01*
X29550Y62693D01*
X29550Y62641D01*
X29380Y62641D01*
X29389Y62649D02*
Y62685D01*
X29542D01*
Y62649D01*
X29389D01*
X29397Y62658D02*
Y62676D01*
X29534Y62676D01*
Y62658D01*
X29397Y62658D01*
X29405Y62666D02*
Y62668D01*
X29525D01*
Y62666D01*
X29405D01*
X29414Y62662D02*
X29517Y62672D01*
X29372Y67399D02*
Y67467D01*
X29559D01*
Y67399D01*
X29372D01*
X29380Y67407D02*
X29380Y67459D01*
X29550Y67459D01*
X29550Y67407D01*
X29380Y67407D01*
X29389Y67415D02*
Y67451D01*
X29542D01*
Y67415D01*
X29389D01*
X29397Y67424D02*
Y67442D01*
X29534Y67442D01*
Y67424D01*
X29397Y67424D01*
X29405Y67432D02*
Y67434D01*
X29525D01*
Y67432D01*
X29405D01*
X29414Y67428D02*
X29517Y67438D01*
X29372Y66533D02*
Y66601D01*
X29559D01*
Y66533D01*
X29372D01*
X29380Y66541D02*
X29380Y66593D01*
X29551Y66593D01*
X29551Y66541D01*
X29380Y66541D01*
X29389Y66549D02*
Y66585D01*
X29542D01*
Y66549D01*
X29389D01*
X29397Y66558D02*
Y66576D01*
X29534Y66576D01*
Y66558D01*
X29397Y66558D01*
X29405Y66566D02*
Y66568D01*
X29526D01*
Y66566D01*
X29405D01*
X29414Y66562D02*
X29517Y66572D01*
X51572Y67199D02*
Y67267D01*
X51759D01*
Y67199D01*
X51572D01*
X51580Y67207D02*
X51580Y67259D01*
X51750Y67259D01*
X51750Y67207D01*
X51580Y67207D01*
X51589Y67215D02*
Y67251D01*
X51742D01*
Y67215D01*
X51589D01*
X51597Y67224D02*
Y67242D01*
X51734Y67242D01*
Y67224D01*
X51597Y67224D01*
X51605Y67232D02*
Y67234D01*
X51725D01*
Y67232D01*
X51605D01*
X51614Y67228D02*
X51717Y67238D01*
X51572Y66333D02*
Y66401D01*
X51759D01*
Y66333D01*
X51572D01*
X51580Y66341D02*
X51580Y66393D01*
X51750Y66393D01*
X51750Y66341D01*
X51580Y66341D01*
X51589Y66349D02*
Y66385D01*
X51742D01*
Y66349D01*
X51589D01*
X51597Y66358D02*
Y66376D01*
X51734Y66376D01*
Y66358D01*
X51597Y66358D01*
X51605Y66366D02*
Y66368D01*
X51725D01*
Y66366D01*
X51605D01*
X51614Y66362D02*
X51717Y66372D01*
D38*
X79200Y39400D02*
Y39567D01*
Y39483D01*
X78700D01*
X78783Y39400D01*
X78200Y39533D02*
Y39200D01*
X77867Y39533D01*
X77783D01*
X77700Y39450D01*
Y39283D01*
X77783Y39200D01*
X78700Y43133D02*
Y42800D01*
X78950D01*
X78867Y42967D01*
Y43050D01*
X78950Y43133D01*
X79117D01*
X79200Y43050D01*
Y42883D01*
X79117Y42800D01*
X77700Y43133D02*
X77783Y42967D01*
X77950Y42800D01*
X78117D01*
X78200Y42883D01*
Y43050D01*
X78117Y43133D01*
X78033D01*
X77950Y43050D01*
Y42800D01*
X21800Y55217D02*
Y55550D01*
X22133Y55217D01*
X22217D01*
X22300Y55300D01*
Y55467D01*
X22217Y55550D01*
X20800D02*
Y55383D01*
Y55467D01*
X21300D01*
X21217Y55550D01*
X20800Y44950D02*
Y44783D01*
Y44867D01*
X21300D01*
X21217Y44950D01*
X20883Y44533D02*
X20800Y44450D01*
Y44284D01*
X20883Y44200D01*
X21217D01*
X21300Y44284D01*
Y44450D01*
X21217Y44533D01*
X21133D01*
X21050Y44450D01*
Y44200D01*
X21800Y44617D02*
Y44950D01*
X22133Y44617D01*
X22217D01*
X22300Y44700D01*
Y44867D01*
X22217Y44950D01*
Y44450D02*
X22300Y44367D01*
Y44200D01*
X22217Y44117D01*
X21883D01*
X21800Y44200D01*
Y44367D01*
X21883Y44450D01*
X22217D01*
X79200Y35000D02*
Y35167D01*
Y35083D01*
X78700D01*
X78783Y35000D01*
X78200Y35133D02*
Y34800D01*
X77867Y35133D01*
X77783D01*
X77700Y35050D01*
Y34883D01*
X77783Y34800D01*
X78700Y38733D02*
Y38400D01*
X78950D01*
X78867Y38567D01*
Y38650D01*
X78950Y38733D01*
X79117D01*
X79200Y38650D01*
Y38483D01*
X79117Y38400D01*
X77700Y38733D02*
X77783Y38567D01*
X77950Y38400D01*
X78117D01*
X78200Y38483D01*
Y38650D01*
X78117Y38733D01*
X78033D01*
X77950Y38650D01*
Y38400D01*
D39*
X76600Y33200D02*
G03*
X76600Y32400I400J-400D01*
G01*
X72000Y33200D02*
X72800D01*
X72000Y31400D02*
Y33200D01*
Y31400D02*
X72800D01*
X76000D02*
X76600D01*
Y33200D01*
X76000D02*
X76600D01*
X67346Y43789D02*
X68606D01*
X67346D02*
Y46978D01*
X67780Y47411D01*
X68606D01*
X69394D02*
X70220D01*
X70614Y47017D01*
Y43789D02*
Y47017D01*
X69394Y43789D02*
X70614D01*
X74748Y52230D02*
Y59317D01*
X79591D01*
Y52230D02*
Y59317D01*
X74748Y52230D02*
X79591D01*
X74748Y60030D02*
Y67117D01*
X79591D01*
Y60030D02*
Y67117D01*
X74748Y60030D02*
X79591D01*
X25994Y50389D02*
X27214D01*
Y53617D01*
X26820Y54011D02*
X27214Y53617D01*
X25994Y54011D02*
X26820D01*
X24380D02*
X25206D01*
X23946Y53578D02*
X24380Y54011D01*
X23946Y50389D02*
Y53578D01*
Y50389D02*
X25206D01*
X79100Y47800D02*
X79500Y47400D01*
X79100Y43800D02*
X79500Y44200D01*
X79200Y47800D02*
X79500D01*
Y43800D02*
Y47800D01*
X78800Y43800D02*
X79500D01*
X74800D02*
X75900D01*
X74800Y47800D02*
X75800D01*
X74800Y47600D02*
Y47800D01*
Y47600D02*
X75000D01*
Y47000D02*
Y47600D01*
X74800Y47000D02*
X75000D01*
X74800Y46300D02*
Y47000D01*
Y46300D02*
X75000D01*
Y45300D02*
Y46300D01*
X74800Y45300D02*
X75000D01*
X74800Y44600D02*
Y45300D01*
Y44600D02*
X75000D01*
Y44000D02*
Y44600D01*
X74800Y44000D02*
X75000D01*
X74800Y43800D02*
Y44000D01*
X75800Y47800D02*
X79200D01*
X75800Y43800D02*
X79200D01*
X79100Y51800D02*
X79500Y51400D01*
X79100Y47800D02*
X79500Y48200D01*
X79200Y51800D02*
X79500D01*
Y47800D02*
Y51800D01*
X78800Y47800D02*
X79500D01*
X74800D02*
X75900D01*
X74800Y51800D02*
X75800D01*
X74800Y51600D02*
Y51800D01*
Y51600D02*
X75000D01*
Y51000D02*
Y51600D01*
X74800Y51000D02*
X75000D01*
X74800Y50300D02*
Y51000D01*
Y50300D02*
X75000D01*
Y49300D02*
Y50300D01*
X74800Y49300D02*
X75000D01*
X74800Y48600D02*
Y49300D01*
Y48600D02*
X75000D01*
Y48000D02*
Y48600D01*
X74800Y48000D02*
X75000D01*
X74800Y47800D02*
Y48000D01*
X75800Y51800D02*
X79200D01*
X75800Y47800D02*
X79200D01*
X68094Y55989D02*
X69314D01*
Y59217D01*
X68920Y59611D02*
X69314Y59217D01*
X68094Y59611D02*
X68920D01*
X66480D02*
X67306D01*
X66046Y59178D02*
X66480Y59611D01*
X66046Y55989D02*
Y59178D01*
Y55989D02*
X67306D01*
X73430Y65800D02*
Y66800D01*
X68170Y65800D02*
X73430D01*
X68170D02*
Y67800D01*
X73430D01*
Y66800D02*
Y67800D01*
X25994Y49611D02*
X27254D01*
Y46422D02*
Y49611D01*
X26820Y45989D02*
X27254Y46422D01*
X25994Y45989D02*
X26820D01*
X24380D02*
X25206D01*
X23986Y46383D02*
X24380Y45989D01*
X23986Y46383D02*
Y49611D01*
X25206D01*
X73230Y61000D02*
Y62000D01*
X67970Y61000D02*
X73230D01*
X67970D02*
Y63000D01*
X73230D01*
Y62000D02*
Y63000D01*
X69986Y59611D02*
X71206D01*
X69986Y56383D02*
Y59611D01*
Y56383D02*
X70380Y55989D01*
X71206D01*
X71994D02*
X72820D01*
X73254Y56422D01*
Y59611D01*
X71994D02*
X73254D01*
X20700Y31100D02*
X20600Y31000D01*
Y30800D01*
X20700Y30700D01*
X20800D01*
X20900Y30800D01*
Y31000D01*
X21000Y31100D01*
X21100D01*
X21200Y31000D01*
Y30800D01*
X21100Y30700D01*
X20600Y31600D02*
Y31400D01*
X20700Y31300D01*
X21100D01*
X21200Y31400D01*
Y31600D01*
X21100Y31700D01*
X20700D01*
X20600Y31600D01*
X21200Y31900D02*
X20600D01*
X20800Y32100D01*
X20600Y32299D01*
X21200D01*
Y32499D02*
X20800D01*
X20600Y32699D01*
X20800Y32899D01*
X21200D01*
X20900D01*
Y32499D01*
X21200Y33699D02*
X20800D01*
X20600Y33899D01*
X20800Y34099D01*
X21200D01*
X20900D01*
Y33699D01*
X20800Y34699D02*
Y34399D01*
X20900Y34299D01*
X21100D01*
X21200Y34399D01*
Y34699D01*
X21400Y35299D02*
X20800D01*
Y34999D01*
X20900Y34899D01*
X21100D01*
X21200Y34999D01*
Y35299D01*
X20800Y35498D02*
X21100D01*
X21200Y35598D01*
Y35898D01*
X20800D01*
X21200Y36098D02*
Y36298D01*
Y36198D01*
X20800D01*
Y36098D01*
X21200Y36598D02*
Y36898D01*
X21100Y36998D01*
X21000Y36898D01*
Y36698D01*
X20900Y36598D01*
X20800Y36698D01*
Y36998D01*
X21200Y37198D02*
Y37398D01*
Y37298D01*
X20800D01*
Y37198D01*
X20700Y37798D02*
X20800D01*
Y37698D01*
Y37898D01*
Y37798D01*
X21100D01*
X21200Y37898D01*
Y38198D02*
Y38398D01*
Y38298D01*
X20800D01*
Y38198D01*
X21200Y38797D02*
Y38997D01*
X21100Y39097D01*
X20900D01*
X20800Y38997D01*
Y38797D01*
X20900Y38697D01*
X21100D01*
X21200Y38797D01*
Y39297D02*
X20800D01*
Y39597D01*
X20900Y39697D01*
X21200D01*
X20600Y40497D02*
X21200D01*
Y40797D01*
X21100Y40897D01*
X21000D01*
X20900Y40797D01*
Y40497D01*
Y40797D01*
X20800Y40897D01*
X20700D01*
X20600Y40797D01*
Y40497D01*
X21200Y41197D02*
Y41397D01*
X21100Y41497D01*
X20900D01*
X20800Y41397D01*
Y41197D01*
X20900Y41097D01*
X21100D01*
X21200Y41197D01*
X20800Y41796D02*
Y41996D01*
X20900Y42096D01*
X21200D01*
Y41796D01*
X21100Y41696D01*
X21000Y41796D01*
Y42096D01*
X20800Y42296D02*
X21200D01*
X21000D01*
X20900Y42396D01*
X20800Y42496D01*
Y42596D01*
X20600Y43296D02*
X21200D01*
Y42996D01*
X21100Y42896D01*
X20900D01*
X20800Y42996D01*
Y43296D01*
D56*
X68929Y34627D02*
G03*
X68929Y34627I-49J0D01*
G01*
X40760Y65291D02*
G03*
X40760Y65291I-49J0D01*
G01*
Y53591D02*
G03*
X40760Y53591I-49J0D01*
G01*
Y49691D02*
G03*
X40760Y49691I-49J0D01*
G01*
X54432Y33479D02*
G03*
X54432Y33479I-49J0D01*
G01*
X46760Y33891D02*
G03*
X46760Y33891I-49J0D01*
G01*
X54432Y37379D02*
G03*
X54432Y37379I-49J0D01*
G01*
X46760Y37791D02*
G03*
X46760Y37791I-49J0D01*
G01*
X54432Y41279D02*
G03*
X54432Y41279I-49J0D01*
G01*
X46760Y41691D02*
G03*
X46760Y41691I-49J0D01*
G01*
X54432Y45179D02*
G03*
X54432Y45179I-49J0D01*
G01*
X46760Y45591D02*
G03*
X46760Y45591I-49J0D01*
G01*
X54432Y49079D02*
G03*
X54432Y49079I-49J0D01*
G01*
X46760Y49491D02*
G03*
X46760Y49491I-49J0D01*
G01*
X54432Y52979D02*
G03*
X54432Y52979I-49J0D01*
G01*
X46760Y53391D02*
G03*
X46760Y53391I-49J0D01*
G01*
X54432Y56879D02*
G03*
X54432Y56879I-49J0D01*
G01*
X46760Y57291D02*
G03*
X46760Y57291I-49J0D01*
G01*
X54432Y60779D02*
G03*
X54432Y60779I-49J0D01*
G01*
X46760Y61191D02*
G03*
X46760Y61191I-49J0D01*
G01*
X54432Y64679D02*
G03*
X54432Y64679I-49J0D01*
G01*
X46760Y65091D02*
G03*
X46760Y65091I-49J0D01*
G01*
X31139Y47137D02*
G03*
X31139Y47137I-49J0D01*
G01*
X40760Y34091D02*
G03*
X40760Y34091I-49J0D01*
G01*
Y37991D02*
G03*
X40760Y37991I-49J0D01*
G01*
Y41891D02*
G03*
X40760Y41891I-49J0D01*
G01*
Y45791D02*
G03*
X40760Y45791I-49J0D01*
G01*
Y57491D02*
G03*
X40760Y57491I-49J0D01*
G01*
Y61391D02*
G03*
X40760Y61391I-49J0D01*
G01*
Y69191D02*
G03*
X40760Y69191I-49J0D01*
G01*
X26226Y33585D02*
G03*
X26226Y33585I-49J0D01*
G01*
X33334Y33461D02*
G03*
X33334Y33461I-49J0D01*
G01*
X26226Y37485D02*
G03*
X26226Y37485I-49J0D01*
G01*
X33334Y37361D02*
G03*
X33334Y37361I-49J0D01*
G01*
X26226Y41385D02*
G03*
X26226Y41385I-49J0D01*
G01*
X33334Y41261D02*
G03*
X33334Y41261I-49J0D01*
G01*
X26226Y45285D02*
G03*
X26226Y45285I-49J0D01*
G01*
X33334Y45161D02*
G03*
X33334Y45161I-49J0D01*
G01*
X26226Y56985D02*
G03*
X26226Y56985I-49J0D01*
G01*
X33334Y56861D02*
G03*
X33334Y56861I-49J0D01*
G01*
X26226Y60885D02*
G03*
X26226Y60885I-49J0D01*
G01*
X33334Y60761D02*
G03*
X33334Y60761I-49J0D01*
G01*
X26226Y64785D02*
G03*
X26226Y64785I-49J0D01*
G01*
X33334Y64661D02*
G03*
X33334Y64661I-49J0D01*
G01*
X26226Y68685D02*
G03*
X26226Y68685I-49J0D01*
G01*
X33334Y68561D02*
G03*
X33334Y68561I-49J0D01*
G01*
X59591Y32486D02*
G03*
X59591Y32486I-49J0D01*
G01*
Y40286D02*
G03*
X59591Y40286I-49J0D01*
G01*
Y48086D02*
G03*
X59591Y48086I-49J0D01*
G01*
Y55886D02*
G03*
X59591Y55886I-49J0D01*
G01*
Y63686D02*
G03*
X59591Y63686I-49J0D01*
G01*
X54432Y68579D02*
G03*
X54432Y68579I-49J0D01*
G01*
X46760Y68991D02*
G03*
X46760Y68991I-49J0D01*
G01*
X64696Y55485D02*
G03*
X64696Y55485I-49J0D01*
G01*
Y49085D02*
G03*
X64696Y49085I-49J0D01*
G01*
X66702Y35515D02*
G03*
X66702Y35515I-49J0D01*
G01*
X69565Y31147D02*
G03*
X69565Y31147I-49J0D01*
G01*
X31139Y50737D02*
G03*
X31139Y50737I-49J0D01*
G01*
X71165Y45747D02*
G03*
X71165Y45747I-49J0D01*
G01*
X66826Y33285D02*
G03*
X66826Y33285I-49J0D01*
G01*
X68926Y55585D02*
G03*
X68926Y55585I-49J0D01*
G01*
D57*
X41764Y65380D02*
G03*
X42236Y65380I236J0D01*
G01*
X41764Y53680D02*
G03*
X42236Y53680I236J0D01*
G01*
X41764Y49780D02*
G03*
X42236Y49780I236J0D01*
G01*
X55082Y33410D02*
G03*
X55318Y33410I118J0D01*
G01*
X47764Y33980D02*
G03*
X48236Y33980I236J0D01*
G01*
X55082Y37310D02*
G03*
X55318Y37310I118J0D01*
G01*
X47764Y37880D02*
G03*
X48236Y37880I236J0D01*
G01*
X55082Y41210D02*
G03*
X55318Y41210I118J0D01*
G01*
X47764Y41780D02*
G03*
X48236Y41780I236J0D01*
G01*
X55082Y45110D02*
G03*
X55318Y45110I118J0D01*
G01*
X47764Y45680D02*
G03*
X48236Y45680I236J0D01*
G01*
X55082Y49010D02*
G03*
X55318Y49010I118J0D01*
G01*
X47764Y49580D02*
G03*
X48236Y49580I236J0D01*
G01*
X55082Y52910D02*
G03*
X55318Y52910I118J0D01*
G01*
X47764Y53480D02*
G03*
X48236Y53480I236J0D01*
G01*
X55082Y56810D02*
G03*
X55318Y56810I118J0D01*
G01*
X47764Y57380D02*
G03*
X48236Y57380I236J0D01*
G01*
X55082Y60710D02*
G03*
X55318Y60710I118J0D01*
G01*
X47764Y61280D02*
G03*
X48236Y61280I236J0D01*
G01*
X55082Y64610D02*
G03*
X55318Y64610I118J0D01*
G01*
X47764Y65180D02*
G03*
X48236Y65180I236J0D01*
G01*
X30036Y46920D02*
G03*
X29564Y46920I-236J0D01*
G01*
X41764Y34180D02*
G03*
X42236Y34180I236J0D01*
G01*
X41764Y38080D02*
G03*
X42236Y38080I236J0D01*
G01*
X41764Y41980D02*
G03*
X42236Y41980I236J0D01*
G01*
X41764Y45880D02*
G03*
X42236Y45880I236J0D01*
G01*
X41764Y57580D02*
G03*
X42236Y57580I236J0D01*
G01*
X41764Y61480D02*
G03*
X42236Y61480I236J0D01*
G01*
X41764Y69280D02*
G03*
X42236Y69280I236J0D01*
G01*
X27056Y33484D02*
G03*
X27344Y33484I144J0D01*
G01*
X33204Y32543D02*
G03*
X33204Y32057I0J-243D01*
G01*
X27056Y37384D02*
G03*
X27344Y37384I144J0D01*
G01*
X33204Y36443D02*
G03*
X33204Y35957I0J-243D01*
G01*
X27056Y41284D02*
G03*
X27344Y41284I144J0D01*
G01*
X33204Y40343D02*
G03*
X33204Y39857I0J-243D01*
G01*
X27056Y45184D02*
G03*
X27344Y45184I144J0D01*
G01*
X33204Y44243D02*
G03*
X33204Y43757I0J-243D01*
G01*
X27056Y56884D02*
G03*
X27344Y56884I144J0D01*
G01*
X33204Y55943D02*
G03*
X33204Y55457I0J-243D01*
G01*
X27056Y60784D02*
G03*
X27344Y60784I144J0D01*
G01*
X33204Y59843D02*
G03*
X33204Y59357I0J-243D01*
G01*
X27056Y64684D02*
G03*
X27344Y64684I144J0D01*
G01*
X33204Y63743D02*
G03*
X33204Y63257I0J-243D01*
G01*
X27056Y68584D02*
G03*
X27344Y68584I144J0D01*
G01*
X33204Y67643D02*
G03*
X33204Y67157I0J-243D01*
G01*
X55082Y68510D02*
G03*
X55318Y68510I118J0D01*
G01*
X47764Y69080D02*
G03*
X48236Y69080I236J0D01*
G01*
X65510Y67753D02*
G03*
X65510Y67940I0J93D01*
G01*
X65410Y62453D02*
G03*
X65410Y62640I0J93D01*
G01*
X65536Y55368D02*
G03*
X65864Y55368I164J0D01*
G01*
X65536Y48969D02*
G03*
X65864Y48969I164J0D01*
G01*
X65764Y35631D02*
G03*
X65436Y35631I-164J0D01*
G01*
X69616Y32036D02*
G03*
X69616Y32364I0J164D01*
G01*
X68172Y50750D02*
G03*
X68172Y51250I0J250D01*
G01*
X30036Y50520D02*
G03*
X29564Y50520I-236J0D01*
G01*
X71216Y46636D02*
G03*
X71216Y46964I0J164D01*
G01*
X67656Y33184D02*
G03*
X67944Y33184I144J0D01*
G01*
X69756Y55484D02*
G03*
X70044Y55484I144J0D01*
G01*
X78753Y34057D02*
Y34687D01*
X77847Y34057D02*
Y34687D01*
X78753D01*
X77847Y33113D02*
X78753D01*
Y33743D01*
X77847Y33113D02*
Y33743D01*
X66455Y33409D02*
X68542D01*
X66455Y34591D02*
X68542D01*
Y33409D02*
Y34591D01*
X71255Y43809D02*
X73342D01*
X71255Y44991D02*
X73342D01*
Y43809D02*
Y44991D01*
X76301Y35099D02*
Y42501D01*
X68899Y35099D02*
Y42501D01*
Y35099D02*
X76301D01*
X68899Y42501D02*
X76301D01*
X42709Y62820D02*
Y65380D01*
X41291Y62820D02*
Y65380D01*
Y62820D02*
X42709D01*
X42236Y65380D02*
X42709D01*
X41291D02*
X41764D01*
X41291Y53680D02*
X41764D01*
X42236D02*
X42709D01*
X41291Y51120D02*
X42709D01*
X41291D02*
Y53680D01*
X42709Y51120D02*
Y53680D01*
X41291Y49780D02*
X41764D01*
X42236D02*
X42709D01*
X41291Y47220D02*
X42709D01*
X41291D02*
Y49780D01*
X42709Y47220D02*
Y49780D01*
X58654Y65438D02*
Y66009D01*
X57946Y65438D02*
Y66009D01*
X58654D01*
X57946Y64591D02*
X58654D01*
Y65162D01*
X57946Y64591D02*
Y65162D01*
X57853Y67357D02*
Y67987D01*
X56947Y67357D02*
Y67987D01*
X57853D01*
X56947Y66413D02*
X57853D01*
Y67043D01*
X56947Y66413D02*
Y67043D01*
X58758Y62891D02*
X60845D01*
X58758Y61709D02*
X60845D01*
X58758D02*
Y62891D01*
Y55091D02*
X60845D01*
X58758Y53909D02*
X60845D01*
X58758D02*
Y55091D01*
Y47291D02*
X60845D01*
X58758Y46109D02*
X60845D01*
X58758D02*
Y47291D01*
Y39491D02*
X60845D01*
X58758Y38309D02*
X60845D01*
X58758D02*
Y39491D01*
Y31691D02*
X60845D01*
X58758Y30509D02*
X60845D01*
X58758D02*
Y31691D01*
X52947Y30713D02*
Y31343D01*
X53853Y30713D02*
Y31343D01*
X52947Y30713D02*
X53853D01*
X52947Y32287D02*
X53853D01*
X52947Y31657D02*
Y32287D01*
X53853Y31657D02*
Y32287D01*
X54691Y34254D02*
X55262D01*
X54691Y33546D02*
X55262D01*
X54691D02*
Y34254D01*
X56109Y33546D02*
Y34254D01*
X55538D02*
X56109D01*
X55538Y33546D02*
X56109D01*
X54846Y33410D02*
X55082D01*
X55318D02*
X55554D01*
X54846Y32190D02*
X55554D01*
X54846D02*
Y33410D01*
X55554Y32190D02*
Y33410D01*
X53853Y33457D02*
Y34087D01*
X52947Y33457D02*
Y34087D01*
X53853D01*
X52947Y32513D02*
X53853D01*
Y33143D01*
X52947Y32513D02*
Y33143D01*
X51947Y32313D02*
Y32943D01*
X52853Y32313D02*
Y32943D01*
X51947Y32313D02*
X52853D01*
X51947Y33887D02*
X52853D01*
X51947Y33257D02*
Y33887D01*
X52853Y33257D02*
Y33887D01*
X48709Y31420D02*
Y33980D01*
X47291Y31420D02*
Y33980D01*
Y31420D02*
X48709D01*
X48236Y33980D02*
X48709D01*
X47291D02*
X47764D01*
X52138Y31346D02*
X52709D01*
X52138Y32054D02*
X52709D01*
Y31346D02*
Y32054D01*
X51291Y31346D02*
Y32054D01*
Y31346D02*
X51862D01*
X51291Y32054D02*
X51862D01*
X50947Y32313D02*
Y32943D01*
X51853Y32313D02*
Y32943D01*
X50947Y32313D02*
X51853D01*
X50947Y33887D02*
X51853D01*
X50947Y33257D02*
Y33887D01*
X51853Y33257D02*
Y33887D01*
X44853Y31657D02*
Y32287D01*
X43947Y31657D02*
Y32287D01*
X44853D01*
X43947Y30713D02*
X44853D01*
Y31343D01*
X43947Y30713D02*
Y31343D01*
X54432Y32033D02*
X55003D01*
X54432Y31167D02*
X55003D01*
X54432D02*
Y32033D01*
X55968Y31167D02*
Y32033D01*
X55397D02*
X55968D01*
X55397Y31167D02*
X55968D01*
X49947Y31713D02*
Y32343D01*
X50853Y31713D02*
Y32343D01*
X49947Y31713D02*
X50853D01*
X49947Y33287D02*
X50853D01*
X49947Y32657D02*
Y33287D01*
X50853Y32657D02*
Y33287D01*
X45147Y32513D02*
Y33143D01*
X46053Y32513D02*
Y33143D01*
X45147Y32513D02*
X46053D01*
X45147Y34087D02*
X46053D01*
X45147Y33457D02*
Y34087D01*
X46053Y33457D02*
Y34087D01*
X44147Y32513D02*
Y33143D01*
X45053Y32513D02*
Y33143D01*
X44147Y32513D02*
X45053D01*
X44147Y34087D02*
X45053D01*
X44147Y33457D02*
Y34087D01*
X45053Y33457D02*
Y34087D01*
X46357Y30647D02*
X46987D01*
X46357Y31553D02*
X46987D01*
Y30647D02*
Y31553D01*
X45413Y30647D02*
Y31553D01*
Y30647D02*
X46043D01*
X45413Y31553D02*
X46043D01*
X52947Y34613D02*
Y35243D01*
X53853Y34613D02*
Y35243D01*
X52947Y34613D02*
X53853D01*
X52947Y36187D02*
X53853D01*
X52947Y35557D02*
Y36187D01*
X53853Y35557D02*
Y36187D01*
X54691Y38154D02*
X55262D01*
X54691Y37446D02*
X55262D01*
X54691D02*
Y38154D01*
X56109Y37446D02*
Y38154D01*
X55538D02*
X56109D01*
X55538Y37446D02*
X56109D01*
X54846Y37310D02*
X55082D01*
X55318D02*
X55554D01*
X54846Y36090D02*
X55554D01*
X54846D02*
Y37310D01*
X55554Y36090D02*
Y37310D01*
X53853Y37357D02*
Y37987D01*
X52947Y37357D02*
Y37987D01*
X53853D01*
X52947Y36413D02*
X53853D01*
Y37043D01*
X52947Y36413D02*
Y37043D01*
X51947Y36213D02*
Y36843D01*
X52853Y36213D02*
Y36843D01*
X51947Y36213D02*
X52853D01*
X51947Y37787D02*
X52853D01*
X51947Y37157D02*
Y37787D01*
X52853Y37157D02*
Y37787D01*
X48709Y35320D02*
Y37880D01*
X47291Y35320D02*
Y37880D01*
Y35320D02*
X48709D01*
X48236Y37880D02*
X48709D01*
X47291D02*
X47764D01*
X52138Y35246D02*
X52709D01*
X52138Y35954D02*
X52709D01*
Y35246D02*
Y35954D01*
X51291Y35246D02*
Y35954D01*
Y35246D02*
X51862D01*
X51291Y35954D02*
X51862D01*
X50947Y36213D02*
Y36843D01*
X51853Y36213D02*
Y36843D01*
X50947Y36213D02*
X51853D01*
X50947Y37787D02*
X51853D01*
X50947Y37157D02*
Y37787D01*
X51853Y37157D02*
Y37787D01*
X44853Y35557D02*
Y36187D01*
X43947Y35557D02*
Y36187D01*
X44853D01*
X43947Y34613D02*
X44853D01*
Y35243D01*
X43947Y34613D02*
Y35243D01*
X54432Y35933D02*
X55003D01*
X54432Y35067D02*
X55003D01*
X54432D02*
Y35933D01*
X55968Y35067D02*
Y35933D01*
X55397D02*
X55968D01*
X55397Y35067D02*
X55968D01*
X49947Y35613D02*
Y36243D01*
X50853Y35613D02*
Y36243D01*
X49947Y35613D02*
X50853D01*
X49947Y37187D02*
X50853D01*
X49947Y36557D02*
Y37187D01*
X50853Y36557D02*
Y37187D01*
X45147Y36413D02*
Y37043D01*
X46053Y36413D02*
Y37043D01*
X45147Y36413D02*
X46053D01*
X45147Y37987D02*
X46053D01*
X45147Y37357D02*
Y37987D01*
X46053Y37357D02*
Y37987D01*
X44147Y36413D02*
Y37043D01*
X45053Y36413D02*
Y37043D01*
X44147Y36413D02*
X45053D01*
X44147Y37987D02*
X45053D01*
X44147Y37357D02*
Y37987D01*
X45053Y37357D02*
Y37987D01*
X46357Y34547D02*
X46987D01*
X46357Y35453D02*
X46987D01*
Y34547D02*
Y35453D01*
X45413Y34547D02*
Y35453D01*
Y34547D02*
X46043D01*
X45413Y35453D02*
X46043D01*
X52947Y38513D02*
Y39143D01*
X53853Y38513D02*
Y39143D01*
X52947Y38513D02*
X53853D01*
X52947Y40087D02*
X53853D01*
X52947Y39457D02*
Y40087D01*
X53853Y39457D02*
Y40087D01*
X54691Y42054D02*
X55262D01*
X54691Y41346D02*
X55262D01*
X54691D02*
Y42054D01*
X56109Y41346D02*
Y42054D01*
X55538D02*
X56109D01*
X55538Y41346D02*
X56109D01*
X54846Y41210D02*
X55082D01*
X55318D02*
X55554D01*
X54846Y39990D02*
X55554D01*
X54846D02*
Y41210D01*
X55554Y39990D02*
Y41210D01*
X53853Y41257D02*
Y41887D01*
X52947Y41257D02*
Y41887D01*
X53853D01*
X52947Y40313D02*
X53853D01*
Y40943D01*
X52947Y40313D02*
Y40943D01*
X51947Y40113D02*
Y40743D01*
X52853Y40113D02*
Y40743D01*
X51947Y40113D02*
X52853D01*
X51947Y41687D02*
X52853D01*
X51947Y41057D02*
Y41687D01*
X52853Y41057D02*
Y41687D01*
X48709Y39220D02*
Y41780D01*
X47291Y39220D02*
Y41780D01*
Y39220D02*
X48709D01*
X48236Y41780D02*
X48709D01*
X47291D02*
X47764D01*
X52138Y39146D02*
X52709D01*
X52138Y39854D02*
X52709D01*
Y39146D02*
Y39854D01*
X51291Y39146D02*
Y39854D01*
Y39146D02*
X51862D01*
X51291Y39854D02*
X51862D01*
X50947Y40113D02*
Y40743D01*
X51853Y40113D02*
Y40743D01*
X50947Y40113D02*
X51853D01*
X50947Y41687D02*
X51853D01*
X50947Y41057D02*
Y41687D01*
X51853Y41057D02*
Y41687D01*
X44853Y39457D02*
Y40087D01*
X43947Y39457D02*
Y40087D01*
X44853D01*
X43947Y38513D02*
X44853D01*
Y39143D01*
X43947Y38513D02*
Y39143D01*
X54432Y39833D02*
X55003D01*
X54432Y38967D02*
X55003D01*
X54432D02*
Y39833D01*
X55968Y38967D02*
Y39833D01*
X55397D02*
X55968D01*
X55397Y38967D02*
X55968D01*
X49947Y39513D02*
Y40143D01*
X50853Y39513D02*
Y40143D01*
X49947Y39513D02*
X50853D01*
X49947Y41087D02*
X50853D01*
X49947Y40457D02*
Y41087D01*
X50853Y40457D02*
Y41087D01*
X45147Y40313D02*
Y40943D01*
X46053Y40313D02*
Y40943D01*
X45147Y40313D02*
X46053D01*
X45147Y41887D02*
X46053D01*
X45147Y41257D02*
Y41887D01*
X46053Y41257D02*
Y41887D01*
X44147Y40313D02*
Y40943D01*
X45053Y40313D02*
Y40943D01*
X44147Y40313D02*
X45053D01*
X44147Y41887D02*
X45053D01*
X44147Y41257D02*
Y41887D01*
X45053Y41257D02*
Y41887D01*
X46357Y38447D02*
X46987D01*
X46357Y39353D02*
X46987D01*
Y38447D02*
Y39353D01*
X45413Y38447D02*
Y39353D01*
Y38447D02*
X46043D01*
X45413Y39353D02*
X46043D01*
X52947Y42413D02*
Y43043D01*
X53853Y42413D02*
Y43043D01*
X52947Y42413D02*
X53853D01*
X52947Y43987D02*
X53853D01*
X52947Y43357D02*
Y43987D01*
X53853Y43357D02*
Y43987D01*
X54691Y45954D02*
X55262D01*
X54691Y45246D02*
X55262D01*
X54691D02*
Y45954D01*
X56109Y45246D02*
Y45954D01*
X55538D02*
X56109D01*
X55538Y45246D02*
X56109D01*
X54846Y45110D02*
X55082D01*
X55318D02*
X55554D01*
X54846Y43890D02*
X55554D01*
X54846D02*
Y45110D01*
X55554Y43890D02*
Y45110D01*
X53853Y45157D02*
Y45787D01*
X52947Y45157D02*
Y45787D01*
X53853D01*
X52947Y44213D02*
X53853D01*
Y44843D01*
X52947Y44213D02*
Y44843D01*
X51947Y44013D02*
Y44643D01*
X52853Y44013D02*
Y44643D01*
X51947Y44013D02*
X52853D01*
X51947Y45587D02*
X52853D01*
X51947Y44957D02*
Y45587D01*
X52853Y44957D02*
Y45587D01*
X48709Y43120D02*
Y45680D01*
X47291Y43120D02*
Y45680D01*
Y43120D02*
X48709D01*
X48236Y45680D02*
X48709D01*
X47291D02*
X47764D01*
X52138Y43046D02*
X52709D01*
X52138Y43754D02*
X52709D01*
Y43046D02*
Y43754D01*
X51291Y43046D02*
Y43754D01*
Y43046D02*
X51862D01*
X51291Y43754D02*
X51862D01*
X50947Y44013D02*
Y44643D01*
X51853Y44013D02*
Y44643D01*
X50947Y44013D02*
X51853D01*
X50947Y45587D02*
X51853D01*
X50947Y44957D02*
Y45587D01*
X51853Y44957D02*
Y45587D01*
X44853Y43357D02*
Y43987D01*
X43947Y43357D02*
Y43987D01*
X44853D01*
X43947Y42413D02*
X44853D01*
Y43043D01*
X43947Y42413D02*
Y43043D01*
X54432Y43733D02*
X55003D01*
X54432Y42867D02*
X55003D01*
X54432D02*
Y43733D01*
X55968Y42867D02*
Y43733D01*
X55397D02*
X55968D01*
X55397Y42867D02*
X55968D01*
X49947Y43413D02*
Y44043D01*
X50853Y43413D02*
Y44043D01*
X49947Y43413D02*
X50853D01*
X49947Y44987D02*
X50853D01*
X49947Y44357D02*
Y44987D01*
X50853Y44357D02*
Y44987D01*
X45147Y44213D02*
Y44843D01*
X46053Y44213D02*
Y44843D01*
X45147Y44213D02*
X46053D01*
X45147Y45787D02*
X46053D01*
X45147Y45157D02*
Y45787D01*
X46053Y45157D02*
Y45787D01*
X44147Y44213D02*
Y44843D01*
X45053Y44213D02*
Y44843D01*
X44147Y44213D02*
X45053D01*
X44147Y45787D02*
X45053D01*
X44147Y45157D02*
Y45787D01*
X45053Y45157D02*
Y45787D01*
X46357Y42347D02*
X46987D01*
X46357Y43253D02*
X46987D01*
Y42347D02*
Y43253D01*
X45413Y42347D02*
Y43253D01*
Y42347D02*
X46043D01*
X45413Y43253D02*
X46043D01*
X52947Y46313D02*
Y46943D01*
X53853Y46313D02*
Y46943D01*
X52947Y46313D02*
X53853D01*
X52947Y47887D02*
X53853D01*
X52947Y47257D02*
Y47887D01*
X53853Y47257D02*
Y47887D01*
X54691Y49854D02*
X55262D01*
X54691Y49146D02*
X55262D01*
X54691D02*
Y49854D01*
X56109Y49146D02*
Y49854D01*
X55538D02*
X56109D01*
X55538Y49146D02*
X56109D01*
X54846Y49010D02*
X55082D01*
X55318D02*
X55554D01*
X54846Y47790D02*
X55554D01*
X54846D02*
Y49010D01*
X55554Y47790D02*
Y49010D01*
X53853Y49057D02*
Y49687D01*
X52947Y49057D02*
Y49687D01*
X53853D01*
X52947Y48113D02*
X53853D01*
Y48743D01*
X52947Y48113D02*
Y48743D01*
X51947Y47913D02*
Y48543D01*
X52853Y47913D02*
Y48543D01*
X51947Y47913D02*
X52853D01*
X51947Y49487D02*
X52853D01*
X51947Y48857D02*
Y49487D01*
X52853Y48857D02*
Y49487D01*
X48709Y47020D02*
Y49580D01*
X47291Y47020D02*
Y49580D01*
Y47020D02*
X48709D01*
X48236Y49580D02*
X48709D01*
X47291D02*
X47764D01*
X52138Y46946D02*
X52709D01*
X52138Y47654D02*
X52709D01*
Y46946D02*
Y47654D01*
X51291Y46946D02*
Y47654D01*
Y46946D02*
X51862D01*
X51291Y47654D02*
X51862D01*
X50947Y47913D02*
Y48543D01*
X51853Y47913D02*
Y48543D01*
X50947Y47913D02*
X51853D01*
X50947Y49487D02*
X51853D01*
X50947Y48857D02*
Y49487D01*
X51853Y48857D02*
Y49487D01*
X44853Y47257D02*
Y47887D01*
X43947Y47257D02*
Y47887D01*
X44853D01*
X43947Y46313D02*
X44853D01*
Y46943D01*
X43947Y46313D02*
Y46943D01*
X54432Y47633D02*
X55003D01*
X54432Y46767D02*
X55003D01*
X54432D02*
Y47633D01*
X55968Y46767D02*
Y47633D01*
X55397D02*
X55968D01*
X55397Y46767D02*
X55968D01*
X49947Y47313D02*
Y47943D01*
X50853Y47313D02*
Y47943D01*
X49947Y47313D02*
X50853D01*
X49947Y48887D02*
X50853D01*
X49947Y48257D02*
Y48887D01*
X50853Y48257D02*
Y48887D01*
X45147Y48113D02*
Y48743D01*
X46053Y48113D02*
Y48743D01*
X45147Y48113D02*
X46053D01*
X45147Y49687D02*
X46053D01*
X45147Y49057D02*
Y49687D01*
X46053Y49057D02*
Y49687D01*
X44147Y48113D02*
Y48743D01*
X45053Y48113D02*
Y48743D01*
X44147Y48113D02*
X45053D01*
X44147Y49687D02*
X45053D01*
X44147Y49057D02*
Y49687D01*
X45053Y49057D02*
Y49687D01*
X46357Y46247D02*
X46987D01*
X46357Y47153D02*
X46987D01*
Y46247D02*
Y47153D01*
X45413Y46247D02*
Y47153D01*
Y46247D02*
X46043D01*
X45413Y47153D02*
X46043D01*
X52947Y50213D02*
Y50843D01*
X53853Y50213D02*
Y50843D01*
X52947Y50213D02*
X53853D01*
X52947Y51787D02*
X53853D01*
X52947Y51157D02*
Y51787D01*
X53853Y51157D02*
Y51787D01*
X54691Y53754D02*
X55262D01*
X54691Y53046D02*
X55262D01*
X54691D02*
Y53754D01*
X56109Y53046D02*
Y53754D01*
X55538D02*
X56109D01*
X55538Y53046D02*
X56109D01*
X54846Y52910D02*
X55082D01*
X55318D02*
X55554D01*
X54846Y51690D02*
X55554D01*
X54846D02*
Y52910D01*
X55554Y51690D02*
Y52910D01*
X53853Y52957D02*
Y53587D01*
X52947Y52957D02*
Y53587D01*
X53853D01*
X52947Y52013D02*
X53853D01*
Y52643D01*
X52947Y52013D02*
Y52643D01*
X51947Y51813D02*
Y52443D01*
X52853Y51813D02*
Y52443D01*
X51947Y51813D02*
X52853D01*
X51947Y53387D02*
X52853D01*
X51947Y52757D02*
Y53387D01*
X52853Y52757D02*
Y53387D01*
X48709Y50920D02*
Y53480D01*
X47291Y50920D02*
Y53480D01*
Y50920D02*
X48709D01*
X48236Y53480D02*
X48709D01*
X47291D02*
X47764D01*
X52138Y50846D02*
X52709D01*
X52138Y51554D02*
X52709D01*
Y50846D02*
Y51554D01*
X51291Y50846D02*
Y51554D01*
Y50846D02*
X51862D01*
X51291Y51554D02*
X51862D01*
X50947Y51813D02*
Y52443D01*
X51853Y51813D02*
Y52443D01*
X50947Y51813D02*
X51853D01*
X50947Y53387D02*
X51853D01*
X50947Y52757D02*
Y53387D01*
X51853Y52757D02*
Y53387D01*
X44853Y51157D02*
Y51787D01*
X43947Y51157D02*
Y51787D01*
X44853D01*
X43947Y50213D02*
X44853D01*
Y50843D01*
X43947Y50213D02*
Y50843D01*
X54432Y51533D02*
X55003D01*
X54432Y50667D02*
X55003D01*
X54432D02*
Y51533D01*
X55968Y50667D02*
Y51533D01*
X55397D02*
X55968D01*
X55397Y50667D02*
X55968D01*
X49947Y51213D02*
Y51843D01*
X50853Y51213D02*
Y51843D01*
X49947Y51213D02*
X50853D01*
X49947Y52787D02*
X50853D01*
X49947Y52157D02*
Y52787D01*
X50853Y52157D02*
Y52787D01*
X45147Y52013D02*
Y52643D01*
X46053Y52013D02*
Y52643D01*
X45147Y52013D02*
X46053D01*
X45147Y53587D02*
X46053D01*
X45147Y52957D02*
Y53587D01*
X46053Y52957D02*
Y53587D01*
X44147Y52013D02*
Y52643D01*
X45053Y52013D02*
Y52643D01*
X44147Y52013D02*
X45053D01*
X44147Y53587D02*
X45053D01*
X44147Y52957D02*
Y53587D01*
X45053Y52957D02*
Y53587D01*
X46357Y50147D02*
X46987D01*
X46357Y51053D02*
X46987D01*
Y50147D02*
Y51053D01*
X45413Y50147D02*
Y51053D01*
Y50147D02*
X46043D01*
X45413Y51053D02*
X46043D01*
X52947Y54113D02*
Y54743D01*
X53853Y54113D02*
Y54743D01*
X52947Y54113D02*
X53853D01*
X52947Y55687D02*
X53853D01*
X52947Y55057D02*
Y55687D01*
X53853Y55057D02*
Y55687D01*
X54691Y57654D02*
X55262D01*
X54691Y56946D02*
X55262D01*
X54691D02*
Y57654D01*
X56109Y56946D02*
Y57654D01*
X55538D02*
X56109D01*
X55538Y56946D02*
X56109D01*
X54846Y56810D02*
X55082D01*
X55318D02*
X55554D01*
X54846Y55590D02*
X55554D01*
X54846D02*
Y56810D01*
X55554Y55590D02*
Y56810D01*
X53853Y56857D02*
Y57487D01*
X52947Y56857D02*
Y57487D01*
X53853D01*
X52947Y55913D02*
X53853D01*
Y56543D01*
X52947Y55913D02*
Y56543D01*
X51947Y55713D02*
Y56343D01*
X52853Y55713D02*
Y56343D01*
X51947Y55713D02*
X52853D01*
X51947Y57287D02*
X52853D01*
X51947Y56657D02*
Y57287D01*
X52853Y56657D02*
Y57287D01*
X48709Y54820D02*
Y57380D01*
X47291Y54820D02*
Y57380D01*
Y54820D02*
X48709D01*
X48236Y57380D02*
X48709D01*
X47291D02*
X47764D01*
X52138Y54746D02*
X52709D01*
X52138Y55454D02*
X52709D01*
Y54746D02*
Y55454D01*
X51291Y54746D02*
Y55454D01*
Y54746D02*
X51862D01*
X51291Y55454D02*
X51862D01*
X50947Y55713D02*
Y56343D01*
X51853Y55713D02*
Y56343D01*
X50947Y55713D02*
X51853D01*
X50947Y57287D02*
X51853D01*
X50947Y56657D02*
Y57287D01*
X51853Y56657D02*
Y57287D01*
X44853Y55057D02*
Y55687D01*
X43947Y55057D02*
Y55687D01*
X44853D01*
X43947Y54113D02*
X44853D01*
Y54743D01*
X43947Y54113D02*
Y54743D01*
X54432Y55433D02*
X55003D01*
X54432Y54567D02*
X55003D01*
X54432D02*
Y55433D01*
X55968Y54567D02*
Y55433D01*
X55397D02*
X55968D01*
X55397Y54567D02*
X55968D01*
X49947Y55113D02*
Y55743D01*
X50853Y55113D02*
Y55743D01*
X49947Y55113D02*
X50853D01*
X49947Y56687D02*
X50853D01*
X49947Y56057D02*
Y56687D01*
X50853Y56057D02*
Y56687D01*
X45147Y55913D02*
Y56543D01*
X46053Y55913D02*
Y56543D01*
X45147Y55913D02*
X46053D01*
X45147Y57487D02*
X46053D01*
X45147Y56857D02*
Y57487D01*
X46053Y56857D02*
Y57487D01*
X44147Y55913D02*
Y56543D01*
X45053Y55913D02*
Y56543D01*
X44147Y55913D02*
X45053D01*
X44147Y57487D02*
X45053D01*
X44147Y56857D02*
Y57487D01*
X45053Y56857D02*
Y57487D01*
X46357Y54047D02*
X46987D01*
X46357Y54953D02*
X46987D01*
Y54047D02*
Y54953D01*
X45413Y54047D02*
Y54953D01*
Y54047D02*
X46043D01*
X45413Y54953D02*
X46043D01*
X52947Y58013D02*
Y58643D01*
X53853Y58013D02*
Y58643D01*
X52947Y58013D02*
X53853D01*
X52947Y59587D02*
X53853D01*
X52947Y58957D02*
Y59587D01*
X53853Y58957D02*
Y59587D01*
X54691Y61554D02*
X55262D01*
X54691Y60846D02*
X55262D01*
X54691D02*
Y61554D01*
X56109Y60846D02*
Y61554D01*
X55538D02*
X56109D01*
X55538Y60846D02*
X56109D01*
X54846Y60710D02*
X55082D01*
X55318D02*
X55554D01*
X54846Y59490D02*
X55554D01*
X54846D02*
Y60710D01*
X55554Y59490D02*
Y60710D01*
X53853Y60757D02*
Y61387D01*
X52947Y60757D02*
Y61387D01*
X53853D01*
X52947Y59813D02*
X53853D01*
Y60443D01*
X52947Y59813D02*
Y60443D01*
X51947Y59613D02*
Y60243D01*
X52853Y59613D02*
Y60243D01*
X51947Y59613D02*
X52853D01*
X51947Y61187D02*
X52853D01*
X51947Y60557D02*
Y61187D01*
X52853Y60557D02*
Y61187D01*
X48709Y58720D02*
Y61280D01*
X47291Y58720D02*
Y61280D01*
Y58720D02*
X48709D01*
X48236Y61280D02*
X48709D01*
X47291D02*
X47764D01*
X52138Y58646D02*
X52709D01*
X52138Y59354D02*
X52709D01*
Y58646D02*
Y59354D01*
X51291Y58646D02*
Y59354D01*
Y58646D02*
X51862D01*
X51291Y59354D02*
X51862D01*
X50947Y59613D02*
Y60243D01*
X51853Y59613D02*
Y60243D01*
X50947Y59613D02*
X51853D01*
X50947Y61187D02*
X51853D01*
X50947Y60557D02*
Y61187D01*
X51853Y60557D02*
Y61187D01*
X44853Y58957D02*
Y59587D01*
X43947Y58957D02*
Y59587D01*
X44853D01*
X43947Y58013D02*
X44853D01*
Y58643D01*
X43947Y58013D02*
Y58643D01*
X54432Y59333D02*
X55003D01*
X54432Y58467D02*
X55003D01*
X54432D02*
Y59333D01*
X55968Y58467D02*
Y59333D01*
X55397D02*
X55968D01*
X55397Y58467D02*
X55968D01*
X49947Y59013D02*
Y59643D01*
X50853Y59013D02*
Y59643D01*
X49947Y59013D02*
X50853D01*
X49947Y60587D02*
X50853D01*
X49947Y59957D02*
Y60587D01*
X50853Y59957D02*
Y60587D01*
X45147Y59813D02*
Y60443D01*
X46053Y59813D02*
Y60443D01*
X45147Y59813D02*
X46053D01*
X45147Y61387D02*
X46053D01*
X45147Y60757D02*
Y61387D01*
X46053Y60757D02*
Y61387D01*
X44147Y59813D02*
Y60443D01*
X45053Y59813D02*
Y60443D01*
X44147Y59813D02*
X45053D01*
X44147Y61387D02*
X45053D01*
X44147Y60757D02*
Y61387D01*
X45053Y60757D02*
Y61387D01*
X46357Y57947D02*
X46987D01*
X46357Y58853D02*
X46987D01*
Y57947D02*
Y58853D01*
X45413Y57947D02*
Y58853D01*
Y57947D02*
X46043D01*
X45413Y58853D02*
X46043D01*
X52947Y61913D02*
Y62543D01*
X53853Y61913D02*
Y62543D01*
X52947Y61913D02*
X53853D01*
X52947Y63487D02*
X53853D01*
X52947Y62857D02*
Y63487D01*
X53853Y62857D02*
Y63487D01*
X54691Y65454D02*
X55262D01*
X54691Y64746D02*
X55262D01*
X54691D02*
Y65454D01*
X56109Y64746D02*
Y65454D01*
X55538D02*
X56109D01*
X55538Y64746D02*
X56109D01*
X54846Y64610D02*
X55082D01*
X55318D02*
X55554D01*
X54846Y63390D02*
X55554D01*
X54846D02*
Y64610D01*
X55554Y63390D02*
Y64610D01*
X53853Y64657D02*
Y65287D01*
X52947Y64657D02*
Y65287D01*
X53853D01*
X52947Y63713D02*
X53853D01*
Y64343D01*
X52947Y63713D02*
Y64343D01*
X51947Y63513D02*
Y64143D01*
X52853Y63513D02*
Y64143D01*
X51947Y63513D02*
X52853D01*
X51947Y65087D02*
X52853D01*
X51947Y64457D02*
Y65087D01*
X52853Y64457D02*
Y65087D01*
X48709Y62620D02*
Y65180D01*
X47291Y62620D02*
Y65180D01*
Y62620D02*
X48709D01*
X48236Y65180D02*
X48709D01*
X47291D02*
X47764D01*
X52138Y62546D02*
X52709D01*
X52138Y63254D02*
X52709D01*
Y62546D02*
Y63254D01*
X51291Y62546D02*
Y63254D01*
Y62546D02*
X51862D01*
X51291Y63254D02*
X51862D01*
X50947Y63513D02*
Y64143D01*
X51853Y63513D02*
Y64143D01*
X50947Y63513D02*
X51853D01*
X50947Y65087D02*
X51853D01*
X50947Y64457D02*
Y65087D01*
X51853Y64457D02*
Y65087D01*
X44853Y62857D02*
Y63487D01*
X43947Y62857D02*
Y63487D01*
X44853D01*
X43947Y61913D02*
X44853D01*
Y62543D01*
X43947Y61913D02*
Y62543D01*
X54432Y63233D02*
X55003D01*
X54432Y62367D02*
X55003D01*
X54432D02*
Y63233D01*
X55968Y62367D02*
Y63233D01*
X55397D02*
X55968D01*
X55397Y62367D02*
X55968D01*
X49947Y62913D02*
Y63543D01*
X50853Y62913D02*
Y63543D01*
X49947Y62913D02*
X50853D01*
X49947Y64487D02*
X50853D01*
X49947Y63857D02*
Y64487D01*
X50853Y63857D02*
Y64487D01*
X45147Y63713D02*
Y64343D01*
X46053Y63713D02*
Y64343D01*
X45147Y63713D02*
X46053D01*
X45147Y65287D02*
X46053D01*
X45147Y64657D02*
Y65287D01*
X46053Y64657D02*
Y65287D01*
X44147Y63713D02*
Y64343D01*
X45053Y63713D02*
Y64343D01*
X44147Y63713D02*
X45053D01*
X44147Y65287D02*
X45053D01*
X44147Y64657D02*
Y65287D01*
X45053Y64657D02*
Y65287D01*
X46357Y61847D02*
X46987D01*
X46357Y62753D02*
X46987D01*
Y61847D02*
Y62753D01*
X45413Y61847D02*
Y62753D01*
Y61847D02*
X46043D01*
X45413Y62753D02*
X46043D01*
X55397Y66267D02*
X55968D01*
X55397Y67133D02*
X55968D01*
Y66267D02*
Y67133D01*
X54432Y66267D02*
Y67133D01*
Y66267D02*
X55003D01*
X54432Y67133D02*
X55003D01*
X37006Y68702D02*
X37794D01*
X37006Y66694D02*
Y68702D01*
X37794Y66694D02*
Y68702D01*
X37006Y64802D02*
X37794D01*
X37006Y62794D02*
Y64802D01*
X37794Y62794D02*
Y64802D01*
X37006Y60902D02*
X37794D01*
X37006Y58894D02*
Y60902D01*
X37794Y58894D02*
Y60902D01*
X37006Y57002D02*
X37794D01*
X37006Y54994D02*
Y57002D01*
X37794Y54994D02*
Y57002D01*
X37006Y53102D02*
X37794D01*
X37006Y51094D02*
Y53102D01*
X37794Y51094D02*
Y53102D01*
X37006Y49202D02*
X37794D01*
X37006Y47194D02*
Y49202D01*
X37794Y47194D02*
Y49202D01*
X37006Y45302D02*
X37794D01*
X37006Y43294D02*
Y45302D01*
X37794Y43294D02*
Y45302D01*
X37006Y41402D02*
X37794D01*
X37006Y39394D02*
Y41402D01*
X37794Y39394D02*
Y41402D01*
X37006Y37502D02*
X37794D01*
X37006Y35494D02*
Y37502D01*
X37794Y35494D02*
Y37502D01*
X37006Y33602D02*
X37794D01*
X37006Y31594D02*
Y33602D01*
X37794Y31594D02*
Y33602D01*
X36006Y68702D02*
X36794D01*
X36006Y66694D02*
Y68702D01*
X36794Y66694D02*
Y68702D01*
X36006Y64802D02*
X36794D01*
X36006Y62794D02*
Y64802D01*
X36794Y62794D02*
Y64802D01*
X36006Y60902D02*
X36794D01*
X36006Y58894D02*
Y60902D01*
X36794Y58894D02*
Y60902D01*
X36006Y57002D02*
X36794D01*
X36006Y54994D02*
Y57002D01*
X36794Y54994D02*
Y57002D01*
X36006Y53102D02*
X36794D01*
X36006Y51094D02*
Y53102D01*
X36794Y51094D02*
Y53102D01*
X36006Y49202D02*
X36794D01*
X36006Y47194D02*
Y49202D01*
X36794Y47194D02*
Y49202D01*
X36006Y45302D02*
X36794D01*
X36006Y43294D02*
Y45302D01*
X36794Y43294D02*
Y45302D01*
X36006Y41402D02*
X36794D01*
X36006Y39394D02*
Y41402D01*
X36794Y39394D02*
Y41402D01*
X36006Y37502D02*
X36794D01*
X36006Y35494D02*
Y37502D01*
X36794Y35494D02*
Y37502D01*
X36006Y33602D02*
X36794D01*
X36006Y31594D02*
Y33602D01*
X36794Y31594D02*
Y33602D01*
X30036Y46920D02*
X30509D01*
X29091D02*
X29564D01*
X29091Y49480D02*
X30509D01*
Y46920D02*
Y49480D01*
X29091Y46920D02*
Y49480D01*
X42709Y31620D02*
Y34180D01*
X41291Y31620D02*
Y34180D01*
Y31620D02*
X42709D01*
X42236Y34180D02*
X42709D01*
X41291D02*
X41764D01*
X42709Y35520D02*
Y38080D01*
X41291Y35520D02*
Y38080D01*
Y35520D02*
X42709D01*
X42236Y38080D02*
X42709D01*
X41291D02*
X41764D01*
X42709Y39420D02*
Y41980D01*
X41291Y39420D02*
Y41980D01*
Y39420D02*
X42709D01*
X42236Y41980D02*
X42709D01*
X41291D02*
X41764D01*
X42709Y43320D02*
Y45880D01*
X41291Y43320D02*
Y45880D01*
Y43320D02*
X42709D01*
X42236Y45880D02*
X42709D01*
X41291D02*
X41764D01*
X42709Y55020D02*
Y57580D01*
X41291Y55020D02*
Y57580D01*
Y55020D02*
X42709D01*
X42236Y57580D02*
X42709D01*
X41291D02*
X41764D01*
X42709Y58920D02*
Y61480D01*
X41291Y58920D02*
Y61480D01*
Y58920D02*
X42709D01*
X42236Y61480D02*
X42709D01*
X41291D02*
X41764D01*
X42709Y66720D02*
Y69280D01*
X41291Y66720D02*
Y69280D01*
Y66720D02*
X42709D01*
X42236Y69280D02*
X42709D01*
X41291D02*
X41764D01*
X26767Y33484D02*
X27056D01*
X27344D02*
X27633D01*
X26767Y31516D02*
X27633D01*
X26767D02*
Y33484D01*
X27633Y31516D02*
Y33484D01*
X33204Y32543D02*
Y33028D01*
Y31572D02*
Y32057D01*
X31196Y31572D02*
Y33028D01*
X33204D01*
X31196Y31572D02*
X33204D01*
X29957Y32447D02*
X30587D01*
X29957Y33353D02*
X30587D01*
Y32447D02*
Y33353D01*
X29013Y32447D02*
Y33353D01*
Y32447D02*
X29643D01*
X29013Y33353D02*
X29643D01*
X24547Y31713D02*
Y32343D01*
X25453Y31713D02*
Y32343D01*
X24547Y31713D02*
X25453D01*
X24547Y33287D02*
X25453D01*
X24547Y32657D02*
Y33287D01*
X25453Y32657D02*
Y33287D01*
X29938Y31546D02*
X30509D01*
X29938Y32254D02*
X30509D01*
Y31546D02*
Y32254D01*
X29091Y31546D02*
Y32254D01*
Y31546D02*
X29662D01*
X29091Y32254D02*
X29662D01*
X26767Y37384D02*
X27056D01*
X27344D02*
X27633D01*
X26767Y35416D02*
X27633D01*
X26767D02*
Y37384D01*
X27633Y35416D02*
Y37384D01*
X33204Y36443D02*
Y36928D01*
Y35472D02*
Y35957D01*
X31196Y35472D02*
Y36928D01*
X33204D01*
X31196Y35472D02*
X33204D01*
X29957Y36347D02*
X30587D01*
X29957Y37253D02*
X30587D01*
Y36347D02*
Y37253D01*
X29013Y36347D02*
Y37253D01*
Y36347D02*
X29643D01*
X29013Y37253D02*
X29643D01*
X24547Y35613D02*
Y36243D01*
X25453Y35613D02*
Y36243D01*
X24547Y35613D02*
X25453D01*
X24547Y37187D02*
X25453D01*
X24547Y36557D02*
Y37187D01*
X25453Y36557D02*
Y37187D01*
X29938Y35446D02*
X30509D01*
X29938Y36154D02*
X30509D01*
Y35446D02*
Y36154D01*
X29091Y35446D02*
Y36154D01*
Y35446D02*
X29662D01*
X29091Y36154D02*
X29662D01*
X26767Y41284D02*
X27056D01*
X27344D02*
X27633D01*
X26767Y39316D02*
X27633D01*
X26767D02*
Y41284D01*
X27633Y39316D02*
Y41284D01*
X33204Y40343D02*
Y40828D01*
Y39372D02*
Y39857D01*
X31196Y39372D02*
Y40828D01*
X33204D01*
X31196Y39372D02*
X33204D01*
X29957Y40247D02*
X30587D01*
X29957Y41153D02*
X30587D01*
Y40247D02*
Y41153D01*
X29013Y40247D02*
Y41153D01*
Y40247D02*
X29643D01*
X29013Y41153D02*
X29643D01*
X24547Y39513D02*
Y40143D01*
X25453Y39513D02*
Y40143D01*
X24547Y39513D02*
X25453D01*
X24547Y41087D02*
X25453D01*
X24547Y40457D02*
Y41087D01*
X25453Y40457D02*
Y41087D01*
X29938Y39346D02*
X30509D01*
X29938Y40054D02*
X30509D01*
Y39346D02*
Y40054D01*
X29091Y39346D02*
Y40054D01*
Y39346D02*
X29662D01*
X29091Y40054D02*
X29662D01*
X26767Y45184D02*
X27056D01*
X27344D02*
X27633D01*
X26767Y43216D02*
X27633D01*
X26767D02*
Y45184D01*
X27633Y43216D02*
Y45184D01*
X33204Y44243D02*
Y44728D01*
Y43272D02*
Y43757D01*
X31196Y43272D02*
Y44728D01*
X33204D01*
X31196Y43272D02*
X33204D01*
X29957Y44147D02*
X30587D01*
X29957Y45053D02*
X30587D01*
Y44147D02*
Y45053D01*
X29013Y44147D02*
Y45053D01*
Y44147D02*
X29643D01*
X29013Y45053D02*
X29643D01*
X24547Y43413D02*
Y44043D01*
X25453Y43413D02*
Y44043D01*
X24547Y43413D02*
X25453D01*
X24547Y44987D02*
X25453D01*
X24547Y44357D02*
Y44987D01*
X25453Y44357D02*
Y44987D01*
X29938Y43246D02*
X30509D01*
X29938Y43954D02*
X30509D01*
Y43246D02*
Y43954D01*
X29091Y43246D02*
Y43954D01*
Y43246D02*
X29662D01*
X29091Y43954D02*
X29662D01*
X26767Y56884D02*
X27056D01*
X27344D02*
X27633D01*
X26767Y54916D02*
X27633D01*
X26767D02*
Y56884D01*
X27633Y54916D02*
Y56884D01*
X33204Y55943D02*
Y56428D01*
Y54972D02*
Y55457D01*
X31196Y54972D02*
Y56428D01*
X33204D01*
X31196Y54972D02*
X33204D01*
X29957Y55847D02*
X30587D01*
X29957Y56753D02*
X30587D01*
Y55847D02*
Y56753D01*
X29013Y55847D02*
Y56753D01*
Y55847D02*
X29643D01*
X29013Y56753D02*
X29643D01*
X24547Y55113D02*
Y55743D01*
X25453Y55113D02*
Y55743D01*
X24547Y55113D02*
X25453D01*
X24547Y56687D02*
X25453D01*
X24547Y56057D02*
Y56687D01*
X25453Y56057D02*
Y56687D01*
X29938Y54946D02*
X30509D01*
X29938Y55654D02*
X30509D01*
Y54946D02*
Y55654D01*
X29091Y54946D02*
Y55654D01*
Y54946D02*
X29662D01*
X29091Y55654D02*
X29662D01*
X26767Y60784D02*
X27056D01*
X27344D02*
X27633D01*
X26767Y58816D02*
X27633D01*
X26767D02*
Y60784D01*
X27633Y58816D02*
Y60784D01*
X33204Y59843D02*
Y60328D01*
Y58872D02*
Y59357D01*
X31196Y58872D02*
Y60328D01*
X33204D01*
X31196Y58872D02*
X33204D01*
X29957Y59747D02*
X30587D01*
X29957Y60653D02*
X30587D01*
Y59747D02*
Y60653D01*
X29013Y59747D02*
Y60653D01*
Y59747D02*
X29643D01*
X29013Y60653D02*
X29643D01*
X24547Y59013D02*
Y59643D01*
X25453Y59013D02*
Y59643D01*
X24547Y59013D02*
X25453D01*
X24547Y60587D02*
X25453D01*
X24547Y59957D02*
Y60587D01*
X25453Y59957D02*
Y60587D01*
X29938Y58846D02*
X30509D01*
X29938Y59554D02*
X30509D01*
Y58846D02*
Y59554D01*
X29091Y58846D02*
Y59554D01*
Y58846D02*
X29662D01*
X29091Y59554D02*
X29662D01*
X26767Y64684D02*
X27056D01*
X27344D02*
X27633D01*
X26767Y62716D02*
X27633D01*
X26767D02*
Y64684D01*
X27633Y62716D02*
Y64684D01*
X33204Y63743D02*
Y64228D01*
Y62772D02*
Y63257D01*
X31196Y62772D02*
Y64228D01*
X33204D01*
X31196Y62772D02*
X33204D01*
X29957Y63647D02*
X30587D01*
X29957Y64553D02*
X30587D01*
Y63647D02*
Y64553D01*
X29013Y63647D02*
Y64553D01*
Y63647D02*
X29643D01*
X29013Y64553D02*
X29643D01*
X24547Y62913D02*
Y63543D01*
X25453Y62913D02*
Y63543D01*
X24547Y62913D02*
X25453D01*
X24547Y64487D02*
X25453D01*
X24547Y63857D02*
Y64487D01*
X25453Y63857D02*
Y64487D01*
X29938Y62746D02*
X30509D01*
X29938Y63454D02*
X30509D01*
Y62746D02*
Y63454D01*
X29091Y62746D02*
Y63454D01*
Y62746D02*
X29662D01*
X29091Y63454D02*
X29662D01*
X26767Y68584D02*
X27056D01*
X27344D02*
X27633D01*
X26767Y66616D02*
X27633D01*
X26767D02*
Y68584D01*
X27633Y66616D02*
Y68584D01*
X33204Y67643D02*
Y68128D01*
Y66672D02*
Y67157D01*
X31196Y66672D02*
Y68128D01*
X33204D01*
X31196Y66672D02*
X33204D01*
X29957Y67547D02*
X30587D01*
X29957Y68453D02*
X30587D01*
Y67547D02*
Y68453D01*
X29013Y67547D02*
Y68453D01*
Y67547D02*
X29643D01*
X29013Y68453D02*
X29643D01*
X24547Y66813D02*
Y67443D01*
X25453Y66813D02*
Y67443D01*
X24547Y66813D02*
X25453D01*
X24547Y68387D02*
X25453D01*
X24547Y67757D02*
Y68387D01*
X25453Y67757D02*
Y68387D01*
X29938Y66646D02*
X30509D01*
X29938Y67354D02*
X30509D01*
Y66646D02*
Y67354D01*
X29091Y66646D02*
Y67354D01*
Y66646D02*
X29662D01*
X29091Y67354D02*
X29662D01*
X58191Y32654D02*
X58762D01*
X58191Y31946D02*
X58762D01*
X58191D02*
Y32654D01*
X59609Y31946D02*
Y32654D01*
X59038D02*
X59609D01*
X59038Y31946D02*
X59609D01*
X57853Y36157D02*
Y36787D01*
X56947Y36157D02*
Y36787D01*
X57853D01*
X56947Y35213D02*
X57853D01*
Y35843D01*
X56947Y35213D02*
Y35843D01*
X58654Y34238D02*
Y34809D01*
X57946Y34238D02*
Y34809D01*
X58654D01*
X57946Y33391D02*
X58654D01*
Y33962D01*
X57946Y33391D02*
Y33962D01*
X63146Y33091D02*
Y33662D01*
X63854Y33091D02*
Y33662D01*
X63146Y33091D02*
X63854D01*
X63146Y34509D02*
X63854D01*
X63146Y33938D02*
Y34509D01*
X63854Y33938D02*
Y34509D01*
X58291Y36954D02*
X58862D01*
X58291Y36246D02*
X58862D01*
X58291D02*
Y36954D01*
X59709Y36246D02*
Y36954D01*
X59138D02*
X59709D01*
X59138Y36246D02*
X59709D01*
X59758Y35242D02*
X62042D01*
X59758Y32958D02*
X62042D01*
X59758D02*
Y35242D01*
X62042Y32958D02*
Y35242D01*
X58191Y40454D02*
X58762D01*
X58191Y39746D02*
X58762D01*
X58191D02*
Y40454D01*
X59609Y39746D02*
Y40454D01*
X59038D02*
X59609D01*
X59038Y39746D02*
X59609D01*
X57853Y43957D02*
Y44587D01*
X56947Y43957D02*
Y44587D01*
X57853D01*
X56947Y43013D02*
X57853D01*
Y43643D01*
X56947Y43013D02*
Y43643D01*
X58654Y42038D02*
Y42609D01*
X57946Y42038D02*
Y42609D01*
X58654D01*
X57946Y41191D02*
X58654D01*
Y41762D01*
X57946Y41191D02*
Y41762D01*
X63146Y40891D02*
Y41462D01*
X63854Y40891D02*
Y41462D01*
X63146Y40891D02*
X63854D01*
X63146Y42309D02*
X63854D01*
X63146Y41738D02*
Y42309D01*
X63854Y41738D02*
Y42309D01*
X58291Y44754D02*
X58862D01*
X58291Y44046D02*
X58862D01*
X58291D02*
Y44754D01*
X59709Y44046D02*
Y44754D01*
X59138D02*
X59709D01*
X59138Y44046D02*
X59709D01*
X59758Y43042D02*
X62042D01*
X59758Y40758D02*
X62042D01*
X59758D02*
Y43042D01*
X62042Y40758D02*
Y43042D01*
X58191Y48254D02*
X58762D01*
X58191Y47546D02*
X58762D01*
X58191D02*
Y48254D01*
X59609Y47546D02*
Y48254D01*
X59038D02*
X59609D01*
X59038Y47546D02*
X59609D01*
X57853Y51757D02*
Y52387D01*
X56947Y51757D02*
Y52387D01*
X57853D01*
X56947Y50813D02*
X57853D01*
Y51443D01*
X56947Y50813D02*
Y51443D01*
X58654Y49838D02*
Y50409D01*
X57946Y49838D02*
Y50409D01*
X58654D01*
X57946Y48991D02*
X58654D01*
Y49562D01*
X57946Y48991D02*
Y49562D01*
X63146Y48691D02*
Y49262D01*
X63854Y48691D02*
Y49262D01*
X63146Y48691D02*
X63854D01*
X63146Y50109D02*
X63854D01*
X63146Y49538D02*
Y50109D01*
X63854Y49538D02*
Y50109D01*
X58291Y52554D02*
X58862D01*
X58291Y51846D02*
X58862D01*
X58291D02*
Y52554D01*
X59709Y51846D02*
Y52554D01*
X59138D02*
X59709D01*
X59138Y51846D02*
X59709D01*
X59758Y50842D02*
X62042D01*
X59758Y48558D02*
X62042D01*
X59758D02*
Y50842D01*
X62042Y48558D02*
Y50842D01*
X58191Y56054D02*
X58762D01*
X58191Y55346D02*
X58762D01*
X58191D02*
Y56054D01*
X59609Y55346D02*
Y56054D01*
X59038D02*
X59609D01*
X59038Y55346D02*
X59609D01*
X58053Y59757D02*
Y60387D01*
X57147Y59757D02*
Y60387D01*
X58053D01*
X57147Y58813D02*
X58053D01*
Y59443D01*
X57147Y58813D02*
Y59443D01*
X58654Y57638D02*
Y58209D01*
X57946Y57638D02*
Y58209D01*
X58654D01*
X57946Y56791D02*
X58654D01*
Y57362D01*
X57946Y56791D02*
Y57362D01*
X63146Y56491D02*
Y57062D01*
X63854Y56491D02*
Y57062D01*
X63146Y56491D02*
X63854D01*
X63146Y57909D02*
X63854D01*
X63146Y57338D02*
Y57909D01*
X63854Y57338D02*
Y57909D01*
X58291Y60354D02*
X58862D01*
X58291Y59646D02*
X58862D01*
X58291D02*
Y60354D01*
X59709Y59646D02*
Y60354D01*
X59138D02*
X59709D01*
X59138Y59646D02*
X59709D01*
X59758Y58642D02*
X62042D01*
X59758Y56358D02*
X62042D01*
X59758D02*
Y58642D01*
X62042Y56358D02*
Y58642D01*
X58191Y63854D02*
X58762D01*
X58191Y63146D02*
X58762D01*
X58191D02*
Y63854D01*
X59609Y63146D02*
Y63854D01*
X59038D02*
X59609D01*
X59038Y63146D02*
X59609D01*
X63246Y64291D02*
Y64862D01*
X63954Y64291D02*
Y64862D01*
X63246Y64291D02*
X63954D01*
X63246Y65709D02*
X63954D01*
X63246Y65138D02*
Y65709D01*
X63954Y65138D02*
Y65709D01*
X58291Y68154D02*
X58862D01*
X58291Y67446D02*
X58862D01*
X58291D02*
Y68154D01*
X59709Y67446D02*
Y68154D01*
X59138D02*
X59709D01*
X59138Y67446D02*
X59709D01*
X59758Y66442D02*
X62042D01*
X59758Y64158D02*
X62042D01*
X59758D02*
Y66442D01*
X62042Y64158D02*
Y66442D01*
X52947Y65813D02*
Y66443D01*
X53853Y65813D02*
Y66443D01*
X52947Y65813D02*
X53853D01*
X52947Y67387D02*
X53853D01*
X52947Y66757D02*
Y67387D01*
X53853Y66757D02*
Y67387D01*
X54691Y69354D02*
X55262D01*
X54691Y68646D02*
X55262D01*
X54691D02*
Y69354D01*
X56109Y68646D02*
Y69354D01*
X55538D02*
X56109D01*
X55538Y68646D02*
X56109D01*
X54846Y68510D02*
X55082D01*
X55318D02*
X55554D01*
X54846Y67290D02*
X55554D01*
X54846D02*
Y68510D01*
X55554Y67290D02*
Y68510D01*
X53853Y68557D02*
Y69187D01*
X52947Y68557D02*
Y69187D01*
X53853D01*
X52947Y67613D02*
X53853D01*
Y68243D01*
X52947Y67613D02*
Y68243D01*
X51947Y67413D02*
Y68043D01*
X52853Y67413D02*
Y68043D01*
X51947Y67413D02*
X52853D01*
X51947Y68987D02*
X52853D01*
X51947Y68357D02*
Y68987D01*
X52853Y68357D02*
Y68987D01*
X48709Y66520D02*
Y69080D01*
X47291Y66520D02*
Y69080D01*
Y66520D02*
X48709D01*
X48236Y69080D02*
X48709D01*
X47291D02*
X47764D01*
X52138Y66446D02*
X52709D01*
X52138Y67154D02*
X52709D01*
Y66446D02*
Y67154D01*
X51291Y66446D02*
Y67154D01*
Y66446D02*
X51862D01*
X51291Y67154D02*
X51862D01*
X50947Y67413D02*
Y68043D01*
X51853Y67413D02*
Y68043D01*
X50947Y67413D02*
X51853D01*
X50947Y68987D02*
X51853D01*
X50947Y68357D02*
Y68987D01*
X51853Y68357D02*
Y68987D01*
X44853Y66757D02*
Y67387D01*
X43947Y66757D02*
Y67387D01*
X44853D01*
X43947Y65813D02*
X44853D01*
Y66443D01*
X43947Y65813D02*
Y66443D01*
X49947Y66813D02*
Y67443D01*
X50853Y66813D02*
Y67443D01*
X49947Y66813D02*
X50853D01*
X49947Y68387D02*
X50853D01*
X49947Y67757D02*
Y68387D01*
X50853Y67757D02*
Y68387D01*
X45147Y67613D02*
Y68243D01*
X46053Y67613D02*
Y68243D01*
X45147Y67613D02*
X46053D01*
X45147Y69187D02*
X46053D01*
X45147Y68557D02*
Y69187D01*
X46053Y68557D02*
Y69187D01*
X44147Y67613D02*
Y68243D01*
X45053Y67613D02*
Y68243D01*
X44147Y67613D02*
X45053D01*
X44147Y69187D02*
X45053D01*
X44147Y68557D02*
Y69187D01*
X45053Y68557D02*
Y69187D01*
X46357Y65747D02*
X46987D01*
X46357Y66653D02*
X46987D01*
Y65747D02*
Y66653D01*
X45413Y65747D02*
Y66653D01*
Y65747D02*
X46043D01*
X45413Y66653D02*
X46043D01*
X65576Y63888D02*
Y64912D01*
X67624Y63888D02*
Y64912D01*
X66876D02*
X67624D01*
X66876Y63888D02*
X67624D01*
X65576Y64912D02*
X66324D01*
X65576Y63888D02*
X66324D01*
X67976D02*
Y64912D01*
X70024Y63888D02*
Y64912D01*
X69276D02*
X70024D01*
X69276Y63888D02*
X70024D01*
X67976Y64912D02*
X68724D01*
X67976Y63888D02*
X68724D01*
X65510Y67630D02*
Y67698D01*
Y68000D02*
Y68068D01*
X65520Y68070D02*
X66642D01*
X66630Y67630D02*
Y68070D01*
X65518Y67630D02*
X66640D01*
X64546Y67191D02*
Y67762D01*
X65254Y67191D02*
Y67762D01*
X64546Y67191D02*
X65254D01*
X64546Y68609D02*
X65254D01*
X64546Y68038D02*
Y68609D01*
X65254Y68038D02*
Y68609D01*
X66946Y67191D02*
Y67762D01*
X67654Y67191D02*
Y67762D01*
X66946Y67191D02*
X67654D01*
X66946Y68609D02*
X67654D01*
X66946Y68038D02*
Y68609D01*
X67654Y68038D02*
Y68609D01*
X65410Y62330D02*
Y62398D01*
Y62700D02*
Y62768D01*
X65420Y62770D02*
X66542D01*
X66530Y62330D02*
Y62770D01*
X65418Y62330D02*
X66540D01*
X64446Y61891D02*
Y62462D01*
X65154Y61891D02*
Y62462D01*
X64446Y61891D02*
X65154D01*
X64446Y63309D02*
X65154D01*
X64446Y62738D02*
Y63309D01*
X65154Y62738D02*
Y63309D01*
X66846Y61891D02*
Y62462D01*
X67554Y61891D02*
Y62462D01*
X66846Y61891D02*
X67554D01*
X66846Y63309D02*
X67554D01*
X66846Y62738D02*
Y63309D01*
X67554Y62738D02*
Y63309D01*
X66192Y51431D02*
Y55368D01*
X65208Y51431D02*
Y55368D01*
Y51431D02*
X66192D01*
X65864Y55368D02*
X66192D01*
X65208D02*
X65536D01*
X66192Y45031D02*
Y48969D01*
X65208Y45031D02*
Y48969D01*
Y45031D02*
X66192D01*
X65864Y48969D02*
X66192D01*
X65208D02*
X65536D01*
X65108Y35631D02*
Y39569D01*
X66092Y35631D02*
Y39569D01*
X65108D02*
X66092D01*
X65108Y35631D02*
X65436D01*
X65764D02*
X66092D01*
X79500Y40783D02*
Y42700D01*
Y39700D02*
Y42700D01*
X77500Y39700D02*
Y42700D01*
Y39700D02*
X79500D01*
X77500Y42700D02*
X79500D01*
X69616Y32692D02*
X71584D01*
X69616Y31708D02*
X71584D01*
Y32692D01*
X69616Y32364D02*
Y32692D01*
Y31708D02*
Y32036D01*
X68172Y52043D02*
X72228D01*
X68172Y49957D02*
X72228D01*
Y52043D01*
X68172Y51250D02*
Y52043D01*
Y49957D02*
Y50750D01*
X73453Y50357D02*
Y50987D01*
X72547Y50357D02*
Y50987D01*
X73453D01*
X72547Y49413D02*
X73453D01*
Y50043D01*
X72547Y49413D02*
Y50043D01*
X73453Y52157D02*
Y52787D01*
X72547Y52157D02*
Y52787D01*
X73453D01*
X72547Y51213D02*
X73453D01*
Y51843D01*
X72547Y51213D02*
Y51843D01*
X73547Y45813D02*
Y46443D01*
X74453Y45813D02*
Y46443D01*
X73547Y45813D02*
X74453D01*
X73547Y47387D02*
X74453D01*
X73547Y46757D02*
Y47387D01*
X74453Y46757D02*
Y47387D01*
X73547Y43813D02*
Y44443D01*
X74453Y43813D02*
Y44443D01*
X73547Y43813D02*
X74453D01*
X73547Y45387D02*
X74453D01*
X73547Y44757D02*
Y45387D01*
X74453Y44757D02*
Y45387D01*
Y50757D02*
Y51387D01*
X73547Y50757D02*
Y51387D01*
X74453D01*
X73547Y49813D02*
X74453D01*
Y50443D01*
X73547Y49813D02*
Y50443D01*
X74453Y48757D02*
Y49387D01*
X73547Y48757D02*
Y49387D01*
X74453D01*
X73547Y47813D02*
X74453D01*
Y48443D01*
X73547Y47813D02*
Y48443D01*
X30036Y50520D02*
X30509D01*
X29091D02*
X29564D01*
X29091Y53080D02*
X30509D01*
Y50520D02*
Y53080D01*
X29091Y50520D02*
Y53080D01*
X71216Y46308D02*
Y46636D01*
Y46964D02*
Y47292D01*
X73184Y46308D02*
Y47292D01*
X71216Y46308D02*
X73184D01*
X71216Y47292D02*
X73184D01*
X20500Y45050D02*
Y54300D01*
X22500Y45050D02*
Y54300D01*
Y55050D01*
X20500D02*
X22500D01*
X20500Y54300D02*
Y55050D01*
Y45050D02*
X22500D01*
X68233Y31216D02*
Y33184D01*
X67367Y31216D02*
Y33184D01*
Y31216D02*
X68233D01*
X67944Y33184D02*
X68233D01*
X67367D02*
X67656D01*
X71709Y53358D02*
Y55445D01*
X72891Y53358D02*
Y55445D01*
X71709Y53358D02*
X72891D01*
X70333Y53516D02*
Y55484D01*
X69467Y53516D02*
Y55484D01*
Y53516D02*
X70333D01*
X70044Y55484D02*
X70333D01*
X69467D02*
X69756D01*
X79500Y36383D02*
Y38300D01*
Y35300D02*
Y38300D01*
X77500Y35300D02*
Y38300D01*
Y35300D02*
X79500D01*
X77500Y38300D02*
X79500D01*
X63055Y31209D02*
X65142D01*
X63055Y32391D02*
X65142D01*
Y31209D02*
Y32391D01*
X61809Y44058D02*
Y46145D01*
X62991Y44058D02*
Y46145D01*
X61809Y44058D02*
X62991D01*
Y52255D02*
Y54342D01*
X61809Y52255D02*
Y54342D01*
X62991D01*
X63742Y60009D02*
Y61191D01*
X61655D02*
X63742D01*
X61655Y60009D02*
X63742D01*
D58*
X38302Y32363D02*
G03*
X38302Y32491I0J64D01*
G01*
X34502Y32363D02*
G03*
X34502Y32491I0J64D01*
G01*
X38302Y36263D02*
G03*
X38302Y36391I0J64D01*
G01*
X34502Y36263D02*
G03*
X34502Y36391I0J64D01*
G01*
X38302Y40163D02*
G03*
X38302Y40291I0J64D01*
G01*
X34502Y40163D02*
G03*
X34502Y40291I0J64D01*
G01*
X38302Y44063D02*
G03*
X38302Y44191I0J64D01*
G01*
X34502Y44063D02*
G03*
X34502Y44191I0J64D01*
G01*
X38302Y47963D02*
G03*
X38302Y48091I0J64D01*
G01*
X34502Y47963D02*
G03*
X34502Y48091I0J64D01*
G01*
X38302Y51863D02*
G03*
X38302Y51991I0J64D01*
G01*
X34502Y51863D02*
G03*
X34502Y51991I0J64D01*
G01*
X38302Y55763D02*
G03*
X38302Y55891I0J64D01*
G01*
X34502Y55763D02*
G03*
X34502Y55891I0J64D01*
G01*
X38302Y59663D02*
G03*
X38302Y59791I0J64D01*
G01*
X34502Y59663D02*
G03*
X34502Y59791I0J64D01*
G01*
X38302Y63563D02*
G03*
X38302Y63691I0J64D01*
G01*
X34502Y63563D02*
G03*
X34502Y63691I0J64D01*
G01*
X38302Y67463D02*
G03*
X38302Y67591I0J64D01*
G01*
X34502Y67463D02*
G03*
X34502Y67591I0J64D01*
G01*
X38302Y32254D02*
Y32353D01*
Y32500D02*
Y32589D01*
Y32254D02*
X39325D01*
Y32589D01*
X38302D02*
X39325D01*
X34502Y32254D02*
Y32353D01*
Y32500D02*
Y32589D01*
Y32254D02*
X35525D01*
Y32589D01*
X34502D02*
X35525D01*
X38302Y36154D02*
Y36253D01*
Y36400D02*
Y36489D01*
Y36154D02*
X39325D01*
Y36489D01*
X38302D02*
X39325D01*
X34502Y36154D02*
Y36253D01*
Y36400D02*
Y36489D01*
Y36154D02*
X35525D01*
Y36489D01*
X34502D02*
X35525D01*
X38302Y40054D02*
Y40153D01*
Y40300D02*
Y40389D01*
Y40054D02*
X39325D01*
Y40389D01*
X38302D02*
X39325D01*
X34502Y40054D02*
Y40153D01*
Y40300D02*
Y40389D01*
Y40054D02*
X35525D01*
Y40389D01*
X34502D02*
X35525D01*
X38302Y43954D02*
Y44053D01*
Y44200D02*
Y44289D01*
Y43954D02*
X39325D01*
Y44289D01*
X38302D02*
X39325D01*
X34502Y43954D02*
Y44053D01*
Y44200D02*
Y44289D01*
Y43954D02*
X35525D01*
Y44289D01*
X34502D02*
X35525D01*
X38302Y47854D02*
Y47953D01*
Y48100D02*
Y48189D01*
Y47854D02*
X39325D01*
Y48189D01*
X38302D02*
X39325D01*
X34502Y47854D02*
Y47953D01*
Y48100D02*
Y48189D01*
Y47854D02*
X35525D01*
Y48189D01*
X34502D02*
X35525D01*
X38302Y51754D02*
Y51853D01*
Y52000D02*
Y52089D01*
Y51754D02*
X39325D01*
Y52089D01*
X38302D02*
X39325D01*
X34502Y51754D02*
Y51853D01*
Y52000D02*
Y52089D01*
Y51754D02*
X35525D01*
Y52089D01*
X34502D02*
X35525D01*
X38302Y55654D02*
Y55753D01*
Y55900D02*
Y55989D01*
Y55654D02*
X39325D01*
Y55989D01*
X38302D02*
X39325D01*
X34502Y55654D02*
Y55753D01*
Y55900D02*
Y55989D01*
Y55654D02*
X35525D01*
Y55989D01*
X34502D02*
X35525D01*
X38302Y59554D02*
Y59653D01*
Y59800D02*
Y59889D01*
Y59554D02*
X39325D01*
Y59889D01*
X38302D02*
X39325D01*
X34502Y59554D02*
Y59653D01*
Y59800D02*
Y59889D01*
Y59554D02*
X35525D01*
Y59889D01*
X34502D02*
X35525D01*
X38302Y63454D02*
Y63553D01*
Y63700D02*
Y63789D01*
Y63454D02*
X39325D01*
Y63789D01*
X38302D02*
X39325D01*
X34502Y63454D02*
Y63553D01*
Y63700D02*
Y63789D01*
Y63454D02*
X35525D01*
Y63789D01*
X34502D02*
X35525D01*
X38302Y67354D02*
Y67453D01*
Y67600D02*
Y67689D01*
Y67354D02*
X39325D01*
Y67689D01*
X38302D02*
X39325D01*
X34502Y67354D02*
Y67453D01*
Y67600D02*
Y67689D01*
Y67354D02*
X35525D01*
Y67689D01*
X34502D02*
X35525D01*
X77700Y33400D02*
X77400D01*
Y33550D01*
X77450Y33600D01*
X77550D01*
X77600Y33550D01*
Y33400D01*
Y33500D02*
X77700Y33600D01*
Y33700D02*
Y33800D01*
Y33750D01*
X77400D01*
X77450Y33700D01*
X77700Y33950D02*
Y34050D01*
Y34000D01*
X77400D01*
X77450Y33950D01*
X77650Y34200D02*
X77700Y34250D01*
Y34350D01*
X77650Y34400D01*
X77450D01*
X77400Y34350D01*
Y34250D01*
X77450Y34200D01*
X77500D01*
X77550Y34250D01*
Y34400D01*
X41500Y62700D02*
Y62450D01*
X41550Y62400D01*
X41650D01*
X41700Y62450D01*
Y62700D01*
X41950Y62400D02*
Y62700D01*
X41800Y62550D01*
X42000D01*
X42100Y62700D02*
X42300D01*
Y62650D01*
X42100Y62450D01*
Y62400D01*
X41400Y51000D02*
Y50750D01*
X41450Y50700D01*
X41550D01*
X41600Y50750D01*
Y51000D01*
X41850Y50700D02*
Y51000D01*
X41700Y50850D01*
X41900D01*
X42150Y50700D02*
Y51000D01*
X42000Y50850D01*
X42200D01*
X41400Y47100D02*
Y46850D01*
X41450Y46800D01*
X41550D01*
X41600Y46850D01*
Y47100D01*
X41850Y46800D02*
Y47100D01*
X41700Y46950D01*
X41900D01*
X42000Y47050D02*
X42050Y47100D01*
X42150D01*
X42200Y47050D01*
Y47000D01*
X42150Y46950D01*
X42100D01*
X42150D01*
X42200Y46900D01*
Y46850D01*
X42150Y46800D01*
X42050D01*
X42000Y46850D01*
X47970Y31370D02*
Y31120D01*
X48020Y31070D01*
X48120D01*
X48170Y31120D01*
Y31370D01*
X48420Y31070D02*
Y31370D01*
X48270Y31220D01*
X48470D01*
X48570Y31120D02*
X48620Y31070D01*
X48720D01*
X48769Y31120D01*
Y31320D01*
X48720Y31370D01*
X48620D01*
X48570Y31320D01*
Y31270D01*
X48620Y31220D01*
X48769D01*
X48200Y35200D02*
Y34950D01*
X48250Y34900D01*
X48350D01*
X48400Y34950D01*
Y35200D01*
X48700D02*
X48500D01*
Y35050D01*
X48600Y35100D01*
X48650D01*
X48700Y35050D01*
Y34950D01*
X48650Y34900D01*
X48550D01*
X48500Y34950D01*
X48800Y35150D02*
X48850Y35200D01*
X48950D01*
X49000Y35150D01*
Y34950D01*
X48950Y34900D01*
X48850D01*
X48800Y34950D01*
Y35150D01*
X48000Y39000D02*
Y38750D01*
X48050Y38700D01*
X48150D01*
X48200Y38750D01*
Y39000D01*
X48500D02*
X48300D01*
Y38850D01*
X48400Y38900D01*
X48450D01*
X48500Y38850D01*
Y38750D01*
X48450Y38700D01*
X48350D01*
X48300Y38750D01*
X48600Y38700D02*
X48700D01*
X48650D01*
Y39000D01*
X48600Y38950D01*
X48100Y42900D02*
Y42650D01*
X48150Y42600D01*
X48250D01*
X48300Y42650D01*
Y42900D01*
X48600D02*
X48400D01*
Y42750D01*
X48500Y42800D01*
X48550D01*
X48600Y42750D01*
Y42650D01*
X48550Y42600D01*
X48450D01*
X48400Y42650D01*
X48900Y42600D02*
X48700D01*
X48900Y42800D01*
Y42850D01*
X48850Y42900D01*
X48750D01*
X48700Y42850D01*
X48000Y46900D02*
Y46650D01*
X48050Y46600D01*
X48150D01*
X48200Y46650D01*
Y46900D01*
X48500D02*
X48300D01*
Y46750D01*
X48400Y46800D01*
X48450D01*
X48500Y46750D01*
Y46650D01*
X48450Y46600D01*
X48350D01*
X48300Y46650D01*
X48600Y46850D02*
X48650Y46900D01*
X48750D01*
X48800Y46850D01*
Y46800D01*
X48750Y46750D01*
X48700D01*
X48750D01*
X48800Y46700D01*
Y46650D01*
X48750Y46600D01*
X48650D01*
X48600Y46650D01*
X47900Y50800D02*
Y50550D01*
X47950Y50500D01*
X48050D01*
X48100Y50550D01*
Y50800D01*
X48400D02*
X48200D01*
Y50650D01*
X48300Y50700D01*
X48350D01*
X48400Y50650D01*
Y50550D01*
X48350Y50500D01*
X48250D01*
X48200Y50550D01*
X48650Y50500D02*
Y50800D01*
X48500Y50650D01*
X48700D01*
X47900Y54700D02*
Y54450D01*
X47950Y54400D01*
X48050D01*
X48100Y54450D01*
Y54700D01*
X48400D02*
X48200D01*
Y54550D01*
X48300Y54600D01*
X48350D01*
X48400Y54550D01*
Y54450D01*
X48350Y54400D01*
X48250D01*
X48200Y54450D01*
X48700Y54700D02*
X48500D01*
Y54550D01*
X48600Y54600D01*
X48650D01*
X48700Y54550D01*
Y54450D01*
X48650Y54400D01*
X48550D01*
X48500Y54450D01*
X48000Y58500D02*
Y58250D01*
X48050Y58200D01*
X48150D01*
X48200Y58250D01*
Y58500D01*
X48500D02*
X48300D01*
Y58350D01*
X48400Y58400D01*
X48450D01*
X48500Y58350D01*
Y58250D01*
X48450Y58200D01*
X48350D01*
X48300Y58250D01*
X48800Y58500D02*
X48700Y58450D01*
X48600Y58350D01*
Y58250D01*
X48650Y58200D01*
X48750D01*
X48800Y58250D01*
Y58300D01*
X48750Y58350D01*
X48600D01*
X47900Y62400D02*
Y62150D01*
X47950Y62100D01*
X48050D01*
X48100Y62150D01*
Y62400D01*
X48400D02*
X48200D01*
Y62250D01*
X48300Y62300D01*
X48350D01*
X48400Y62250D01*
Y62150D01*
X48350Y62100D01*
X48250D01*
X48200Y62150D01*
X48500Y62400D02*
X48700D01*
Y62350D01*
X48500Y62150D01*
Y62100D01*
X56500Y32500D02*
X56750D01*
X56800Y32550D01*
Y32650D01*
X56750Y32700D01*
X56500D01*
Y33000D02*
Y32800D01*
X56650D01*
X56600Y32900D01*
Y32950D01*
X56650Y33000D01*
X56750D01*
X56800Y32950D01*
Y32850D01*
X56750Y32800D01*
Y33100D02*
X56800Y33150D01*
Y33250D01*
X56750Y33300D01*
X56550D01*
X56500Y33250D01*
Y33150D01*
X56550Y33100D01*
X56600D01*
X56650Y33150D01*
Y33300D01*
X56400Y36300D02*
X56650D01*
X56700Y36350D01*
Y36450D01*
X56650Y36500D01*
X56400D01*
Y36800D02*
X56450Y36700D01*
X56550Y36600D01*
X56650D01*
X56700Y36650D01*
Y36750D01*
X56650Y36800D01*
X56600D01*
X56550Y36750D01*
Y36600D01*
X56450Y36900D02*
X56400Y36950D01*
Y37050D01*
X56450Y37100D01*
X56650D01*
X56700Y37050D01*
Y36950D01*
X56650Y36900D01*
X56450D01*
X56500Y40200D02*
X56750D01*
X56800Y40250D01*
Y40350D01*
X56750Y40400D01*
X56500D01*
Y40700D02*
X56550Y40600D01*
X56650Y40500D01*
X56750D01*
X56800Y40550D01*
Y40650D01*
X56750Y40700D01*
X56700D01*
X56650Y40650D01*
Y40500D01*
X56800Y40800D02*
Y40900D01*
Y40850D01*
X56500D01*
X56550Y40800D01*
X56400Y44080D02*
X56650D01*
X56700Y44130D01*
Y44230D01*
X56650Y44280D01*
X56400D01*
Y44580D02*
X56450Y44480D01*
X56550Y44380D01*
X56650D01*
X56700Y44430D01*
Y44530D01*
X56650Y44580D01*
X56600D01*
X56550Y44530D01*
Y44380D01*
X56700Y44880D02*
Y44680D01*
X56500Y44880D01*
X56450D01*
X56400Y44830D01*
Y44730D01*
X56450Y44680D01*
X56400Y47900D02*
X56650D01*
X56700Y47950D01*
Y48050D01*
X56650Y48100D01*
X56400D01*
Y48400D02*
X56450Y48300D01*
X56550Y48200D01*
X56650D01*
X56700Y48250D01*
Y48350D01*
X56650Y48400D01*
X56600D01*
X56550Y48350D01*
Y48200D01*
X56450Y48500D02*
X56400Y48550D01*
Y48650D01*
X56450Y48700D01*
X56500D01*
X56550Y48650D01*
Y48600D01*
Y48650D01*
X56600Y48700D01*
X56650D01*
X56700Y48650D01*
Y48550D01*
X56650Y48500D01*
X56400Y51900D02*
X56650D01*
X56700Y51950D01*
Y52050D01*
X56650Y52100D01*
X56400D01*
Y52400D02*
X56450Y52300D01*
X56550Y52200D01*
X56650D01*
X56700Y52250D01*
Y52350D01*
X56650Y52400D01*
X56600D01*
X56550Y52350D01*
Y52200D01*
X56700Y52650D02*
X56400D01*
X56550Y52500D01*
Y52700D01*
X56500Y55700D02*
X56750D01*
X56800Y55750D01*
Y55850D01*
X56750Y55900D01*
X56500D01*
Y56200D02*
X56550Y56100D01*
X56650Y56000D01*
X56750D01*
X56800Y56050D01*
Y56150D01*
X56750Y56200D01*
X56700D01*
X56650Y56150D01*
Y56000D01*
X56500Y56500D02*
Y56300D01*
X56650D01*
X56600Y56400D01*
Y56450D01*
X56650Y56500D01*
X56750D01*
X56800Y56450D01*
Y56350D01*
X56750Y56300D01*
X56500Y59800D02*
X56750D01*
X56800Y59850D01*
Y59950D01*
X56750Y60000D01*
X56500D01*
Y60300D02*
X56550Y60200D01*
X56650Y60100D01*
X56750D01*
X56800Y60150D01*
Y60250D01*
X56750Y60300D01*
X56700D01*
X56650Y60250D01*
Y60100D01*
X56500Y60600D02*
X56550Y60500D01*
X56650Y60400D01*
X56750D01*
X56800Y60450D01*
Y60550D01*
X56750Y60600D01*
X56700D01*
X56650Y60550D01*
Y60400D01*
X56400Y63600D02*
X56650D01*
X56700Y63650D01*
Y63750D01*
X56650Y63800D01*
X56400D01*
Y64100D02*
X56450Y64000D01*
X56550Y63900D01*
X56650D01*
X56700Y63950D01*
Y64050D01*
X56650Y64100D01*
X56600D01*
X56550Y64050D01*
Y63900D01*
X56400Y64200D02*
Y64400D01*
X56450D01*
X56650Y64200D01*
X56700D01*
X45300Y31700D02*
Y32000D01*
X45450D01*
X45500Y31950D01*
Y31850D01*
X45450Y31800D01*
X45300D01*
X45400D02*
X45500Y31700D01*
X45600Y31950D02*
X45650Y32000D01*
X45750D01*
X45800Y31950D01*
Y31900D01*
X45750Y31850D01*
X45700D01*
X45750D01*
X45800Y31800D01*
Y31750D01*
X45750Y31700D01*
X45650D01*
X45600Y31750D01*
X45900Y32000D02*
X46100D01*
Y31950D01*
X45900Y31750D01*
Y31700D01*
X45300Y35600D02*
Y35900D01*
X45450D01*
X45500Y35850D01*
Y35750D01*
X45450Y35700D01*
X45300D01*
X45400D02*
X45500Y35600D01*
X45600Y35850D02*
X45650Y35900D01*
X45750D01*
X45800Y35850D01*
Y35800D01*
X45750Y35750D01*
X45700D01*
X45750D01*
X45800Y35700D01*
Y35650D01*
X45750Y35600D01*
X45650D01*
X45600Y35650D01*
X45900D02*
X45950Y35600D01*
X46050D01*
X46100Y35650D01*
Y35850D01*
X46050Y35900D01*
X45950D01*
X45900Y35850D01*
Y35800D01*
X45950Y35750D01*
X46100D01*
X45200Y39500D02*
Y39800D01*
X45350D01*
X45400Y39750D01*
Y39650D01*
X45350Y39600D01*
X45200D01*
X45300D02*
X45400Y39500D01*
X45650D02*
Y39800D01*
X45500Y39650D01*
X45700D01*
X45800Y39500D02*
X45900D01*
X45850D01*
Y39800D01*
X45800Y39750D01*
X45300Y43400D02*
Y43700D01*
X45450D01*
X45500Y43650D01*
Y43550D01*
X45450Y43500D01*
X45300D01*
X45400D02*
X45500Y43400D01*
X45750D02*
Y43700D01*
X45600Y43550D01*
X45800D01*
X45900Y43650D02*
X45950Y43700D01*
X46050D01*
X46100Y43650D01*
Y43600D01*
X46050Y43550D01*
X46000D01*
X46050D01*
X46100Y43500D01*
Y43450D01*
X46050Y43400D01*
X45950D01*
X45900Y43450D01*
X45300Y47300D02*
Y47600D01*
X45450D01*
X45500Y47550D01*
Y47450D01*
X45450Y47400D01*
X45300D01*
X45400D02*
X45500Y47300D01*
X45750D02*
Y47600D01*
X45600Y47450D01*
X45800D01*
X46100Y47600D02*
X45900D01*
Y47450D01*
X46000Y47500D01*
X46050D01*
X46100Y47450D01*
Y47350D01*
X46050Y47300D01*
X45950D01*
X45900Y47350D01*
X45200Y51200D02*
Y51500D01*
X45350D01*
X45400Y51450D01*
Y51350D01*
X45350Y51300D01*
X45200D01*
X45300D02*
X45400Y51200D01*
X45650D02*
Y51500D01*
X45500Y51350D01*
X45700D01*
X45800Y51500D02*
X46000D01*
Y51450D01*
X45800Y51250D01*
Y51200D01*
X45300Y55100D02*
Y55400D01*
X45450D01*
X45500Y55350D01*
Y55250D01*
X45450Y55200D01*
X45300D01*
X45400D02*
X45500Y55100D01*
X45750D02*
Y55400D01*
X45600Y55250D01*
X45800D01*
X45900Y55150D02*
X45950Y55100D01*
X46050D01*
X46100Y55150D01*
Y55350D01*
X46050Y55400D01*
X45950D01*
X45900Y55350D01*
Y55300D01*
X45950Y55250D01*
X46100D01*
X45200Y59000D02*
Y59300D01*
X45350D01*
X45400Y59250D01*
Y59150D01*
X45350Y59100D01*
X45200D01*
X45300D02*
X45400Y59000D01*
X45700Y59300D02*
X45500D01*
Y59150D01*
X45600Y59200D01*
X45650D01*
X45700Y59150D01*
Y59050D01*
X45650Y59000D01*
X45550D01*
X45500Y59050D01*
X45800Y59000D02*
X45900D01*
X45850D01*
Y59300D01*
X45800Y59250D01*
X45300Y62900D02*
Y63200D01*
X45450D01*
X45500Y63150D01*
Y63050D01*
X45450Y63000D01*
X45300D01*
X45400D02*
X45500Y62900D01*
X45800Y63200D02*
X45600D01*
Y63050D01*
X45700Y63100D01*
X45750D01*
X45800Y63050D01*
Y62950D01*
X45750Y62900D01*
X45650D01*
X45600Y62950D01*
X45900Y63150D02*
X45950Y63200D01*
X46050D01*
X46100Y63150D01*
Y63100D01*
X46050Y63050D01*
X46000D01*
X46050D01*
X46100Y63000D01*
Y62950D01*
X46050Y62900D01*
X45950D01*
X45900Y62950D01*
X44100Y33300D02*
X43800D01*
Y33450D01*
X43850Y33500D01*
X43950D01*
X44000Y33450D01*
Y33300D01*
Y33400D02*
X44100Y33500D01*
Y33600D02*
Y33700D01*
Y33650D01*
X43800D01*
X43850Y33600D01*
Y33850D02*
X43800Y33900D01*
Y34000D01*
X43850Y34050D01*
X43900D01*
X43950Y34000D01*
X44000Y34050D01*
X44050D01*
X44100Y34000D01*
Y33900D01*
X44050Y33850D01*
X44000D01*
X43950Y33900D01*
X43900Y33850D01*
X43850D01*
X43950Y33900D02*
Y34000D01*
X44000Y37100D02*
X43700D01*
Y37250D01*
X43750Y37300D01*
X43850D01*
X43900Y37250D01*
Y37100D01*
Y37200D02*
X44000Y37300D01*
Y37600D02*
Y37400D01*
X43800Y37600D01*
X43750D01*
X43700Y37550D01*
Y37450D01*
X43750Y37400D01*
Y37700D02*
X43700Y37750D01*
Y37850D01*
X43750Y37900D01*
X43950D01*
X44000Y37850D01*
Y37750D01*
X43950Y37700D01*
X43750D01*
X44100Y41300D02*
X43800D01*
Y41450D01*
X43850Y41500D01*
X43950D01*
X44000Y41450D01*
Y41300D01*
Y41400D02*
X44100Y41500D01*
Y41800D02*
Y41600D01*
X43900Y41800D01*
X43850D01*
X43800Y41750D01*
Y41650D01*
X43850Y41600D01*
X44100Y42100D02*
Y41900D01*
X43900Y42100D01*
X43850D01*
X43800Y42050D01*
Y41950D01*
X43850Y41900D01*
X44100Y45000D02*
X43800D01*
Y45150D01*
X43850Y45200D01*
X43950D01*
X44000Y45150D01*
Y45000D01*
Y45100D02*
X44100Y45200D01*
Y45500D02*
Y45300D01*
X43900Y45500D01*
X43850D01*
X43800Y45450D01*
Y45350D01*
X43850Y45300D01*
X44100Y45750D02*
X43800D01*
X43950Y45600D01*
Y45800D01*
X44100Y48900D02*
X43800D01*
Y49050D01*
X43850Y49100D01*
X43950D01*
X44000Y49050D01*
Y48900D01*
Y49000D02*
X44100Y49100D01*
Y49400D02*
Y49200D01*
X43900Y49400D01*
X43850D01*
X43800Y49350D01*
Y49250D01*
X43850Y49200D01*
X43800Y49700D02*
X43850Y49600D01*
X43950Y49500D01*
X44050D01*
X44100Y49550D01*
Y49650D01*
X44050Y49700D01*
X44000D01*
X43950Y49650D01*
Y49500D01*
X44000Y52800D02*
X43700D01*
Y52950D01*
X43750Y53000D01*
X43850D01*
X43900Y52950D01*
Y52800D01*
Y52900D02*
X44000Y53000D01*
Y53300D02*
Y53100D01*
X43800Y53300D01*
X43750D01*
X43700Y53250D01*
Y53150D01*
X43750Y53100D01*
Y53400D02*
X43700Y53450D01*
Y53550D01*
X43750Y53600D01*
X43800D01*
X43850Y53550D01*
X43900Y53600D01*
X43950D01*
X44000Y53550D01*
Y53450D01*
X43950Y53400D01*
X43900D01*
X43850Y53450D01*
X43800Y53400D01*
X43750D01*
X43850Y53450D02*
Y53550D01*
X44100Y56700D02*
X43800D01*
Y56850D01*
X43850Y56900D01*
X43950D01*
X44000Y56850D01*
Y56700D01*
Y56800D02*
X44100Y56900D01*
X43850Y57000D02*
X43800Y57050D01*
Y57150D01*
X43850Y57200D01*
X43900D01*
X43950Y57150D01*
Y57100D01*
Y57150D01*
X44000Y57200D01*
X44050D01*
X44100Y57150D01*
Y57050D01*
X44050Y57000D01*
X43850Y57300D02*
X43800Y57350D01*
Y57450D01*
X43850Y57500D01*
X44050D01*
X44100Y57450D01*
Y57350D01*
X44050Y57300D01*
X43850D01*
X44100Y60700D02*
X43800D01*
Y60850D01*
X43850Y60900D01*
X43950D01*
X44000Y60850D01*
Y60700D01*
Y60800D02*
X44100Y60900D01*
X43850Y61000D02*
X43800Y61050D01*
Y61150D01*
X43850Y61200D01*
X43900D01*
X43950Y61150D01*
Y61100D01*
Y61150D01*
X44000Y61200D01*
X44050D01*
X44100Y61150D01*
Y61050D01*
X44050Y61000D01*
X44100Y61500D02*
Y61300D01*
X43900Y61500D01*
X43850D01*
X43800Y61450D01*
Y61350D01*
X43850Y61300D01*
X44100Y64500D02*
X43800D01*
Y64650D01*
X43850Y64700D01*
X43950D01*
X44000Y64650D01*
Y64500D01*
Y64600D02*
X44100Y64700D01*
X43850Y64800D02*
X43800Y64850D01*
Y64950D01*
X43850Y65000D01*
X43900D01*
X43950Y64950D01*
Y64900D01*
Y64950D01*
X44000Y65000D01*
X44050D01*
X44100Y64950D01*
Y64850D01*
X44050Y64800D01*
X44100Y65250D02*
X43800D01*
X43950Y65100D01*
Y65300D01*
X50000Y33400D02*
Y33700D01*
X50150D01*
X50200Y33650D01*
Y33550D01*
X50150Y33500D01*
X50000D01*
X50100D02*
X50200Y33400D01*
X50500Y33700D02*
X50300D01*
Y33550D01*
X50400Y33600D01*
X50450D01*
X50500Y33550D01*
Y33450D01*
X50450Y33400D01*
X50350D01*
X50300Y33450D01*
X50600Y33700D02*
X50800D01*
Y33650D01*
X50600Y33450D01*
Y33400D01*
X49900Y37300D02*
Y37600D01*
X50050D01*
X50100Y37550D01*
Y37450D01*
X50050Y37400D01*
X49900D01*
X50000D02*
X50100Y37300D01*
X50400Y37600D02*
X50200D01*
Y37450D01*
X50300Y37500D01*
X50350D01*
X50400Y37450D01*
Y37350D01*
X50350Y37300D01*
X50250D01*
X50200Y37350D01*
X50500Y37550D02*
X50550Y37600D01*
X50650D01*
X50700Y37550D01*
Y37500D01*
X50650Y37450D01*
X50700Y37400D01*
Y37350D01*
X50650Y37300D01*
X50550D01*
X50500Y37350D01*
Y37400D01*
X50550Y37450D01*
X50500Y37500D01*
Y37550D01*
X50550Y37450D02*
X50650D01*
X50000Y41300D02*
Y41600D01*
X50150D01*
X50200Y41550D01*
Y41450D01*
X50150Y41400D01*
X50000D01*
X50100D02*
X50200Y41300D01*
X50500Y41600D02*
X50300D01*
Y41450D01*
X50400Y41500D01*
X50450D01*
X50500Y41450D01*
Y41350D01*
X50450Y41300D01*
X50350D01*
X50300Y41350D01*
X50600D02*
X50650Y41300D01*
X50750D01*
X50800Y41350D01*
Y41550D01*
X50750Y41600D01*
X50650D01*
X50600Y41550D01*
Y41500D01*
X50650Y41450D01*
X50800D01*
X49900Y45100D02*
Y45400D01*
X50050D01*
X50100Y45350D01*
Y45250D01*
X50050Y45200D01*
X49900D01*
X50000D02*
X50100Y45100D01*
X50400Y45400D02*
X50300Y45350D01*
X50200Y45250D01*
Y45150D01*
X50250Y45100D01*
X50350D01*
X50400Y45150D01*
Y45200D01*
X50350Y45250D01*
X50200D01*
X50500Y45350D02*
X50550Y45400D01*
X50650D01*
X50700Y45350D01*
Y45150D01*
X50650Y45100D01*
X50550D01*
X50500Y45150D01*
Y45350D01*
X49900Y49000D02*
Y49300D01*
X50050D01*
X50100Y49250D01*
Y49150D01*
X50050Y49100D01*
X49900D01*
X50000D02*
X50100Y49000D01*
X50400Y49300D02*
X50300Y49250D01*
X50200Y49150D01*
Y49050D01*
X50250Y49000D01*
X50350D01*
X50400Y49050D01*
Y49100D01*
X50350Y49150D01*
X50200D01*
X50500Y49000D02*
X50600D01*
X50550D01*
Y49300D01*
X50500Y49250D01*
X50000Y53000D02*
Y53300D01*
X50150D01*
X50200Y53250D01*
Y53150D01*
X50150Y53100D01*
X50000D01*
X50100D02*
X50200Y53000D01*
X50500Y53300D02*
X50400Y53250D01*
X50300Y53150D01*
Y53050D01*
X50350Y53000D01*
X50450D01*
X50500Y53050D01*
Y53100D01*
X50450Y53150D01*
X50300D01*
X50800Y53000D02*
X50600D01*
X50800Y53200D01*
Y53250D01*
X50750Y53300D01*
X50650D01*
X50600Y53250D01*
X49900Y56800D02*
Y57100D01*
X50050D01*
X50100Y57050D01*
Y56950D01*
X50050Y56900D01*
X49900D01*
X50000D02*
X50100Y56800D01*
X50400Y57100D02*
X50300Y57050D01*
X50200Y56950D01*
Y56850D01*
X50250Y56800D01*
X50350D01*
X50400Y56850D01*
Y56900D01*
X50350Y56950D01*
X50200D01*
X50500Y57050D02*
X50550Y57100D01*
X50650D01*
X50700Y57050D01*
Y57000D01*
X50650Y56950D01*
X50600D01*
X50650D01*
X50700Y56900D01*
Y56850D01*
X50650Y56800D01*
X50550D01*
X50500Y56850D01*
X49900Y60700D02*
Y61000D01*
X50050D01*
X50100Y60950D01*
Y60850D01*
X50050Y60800D01*
X49900D01*
X50000D02*
X50100Y60700D01*
X50400Y61000D02*
X50300Y60950D01*
X50200Y60850D01*
Y60750D01*
X50250Y60700D01*
X50350D01*
X50400Y60750D01*
Y60800D01*
X50350Y60850D01*
X50200D01*
X50650Y60700D02*
Y61000D01*
X50500Y60850D01*
X50700D01*
X49900Y64600D02*
Y64900D01*
X50050D01*
X50100Y64850D01*
Y64750D01*
X50050Y64700D01*
X49900D01*
X50000D02*
X50100Y64600D01*
X50400Y64900D02*
X50300Y64850D01*
X50200Y64750D01*
Y64650D01*
X50250Y64600D01*
X50350D01*
X50400Y64650D01*
Y64700D01*
X50350Y64750D01*
X50200D01*
X50700Y64900D02*
X50500D01*
Y64750D01*
X50600Y64800D01*
X50650D01*
X50700Y64750D01*
Y64650D01*
X50650Y64600D01*
X50550D01*
X50500Y64650D01*
X45230Y32070D02*
Y32370D01*
X45380D01*
X45430Y32320D01*
Y32220D01*
X45380Y32170D01*
X45230D01*
X45330D02*
X45430Y32070D01*
X45530Y32320D02*
X45580Y32370D01*
X45680D01*
X45730Y32320D01*
Y32270D01*
X45680Y32220D01*
X45630D01*
X45680D01*
X45730Y32170D01*
Y32120D01*
X45680Y32070D01*
X45580D01*
X45530Y32120D01*
X45830Y32320D02*
X45880Y32370D01*
X45980D01*
X46030Y32320D01*
Y32270D01*
X45980Y32220D01*
X46030Y32170D01*
Y32120D01*
X45980Y32070D01*
X45880D01*
X45830Y32120D01*
Y32170D01*
X45880Y32220D01*
X45830Y32270D01*
Y32320D01*
X45880Y32220D02*
X45980D01*
X45200Y36000D02*
Y36300D01*
X45350D01*
X45400Y36250D01*
Y36150D01*
X45350Y36100D01*
X45200D01*
X45300D02*
X45400Y36000D01*
X45650D02*
Y36300D01*
X45500Y36150D01*
X45700D01*
X45800Y36250D02*
X45850Y36300D01*
X45950D01*
X46000Y36250D01*
Y36050D01*
X45950Y36000D01*
X45850D01*
X45800Y36050D01*
Y36250D01*
X45300Y39900D02*
Y40200D01*
X45450D01*
X45500Y40150D01*
Y40050D01*
X45450Y40000D01*
X45300D01*
X45400D02*
X45500Y39900D01*
X45750D02*
Y40200D01*
X45600Y40050D01*
X45800D01*
X46100Y39900D02*
X45900D01*
X46100Y40100D01*
Y40150D01*
X46050Y40200D01*
X45950D01*
X45900Y40150D01*
X45230Y43770D02*
Y44070D01*
X45380D01*
X45430Y44020D01*
Y43920D01*
X45380Y43870D01*
X45230D01*
X45330D02*
X45430Y43770D01*
X45680D02*
Y44070D01*
X45530Y43920D01*
X45730D01*
X45980Y43770D02*
Y44070D01*
X45830Y43920D01*
X46030D01*
X45100Y47700D02*
Y48000D01*
X45250D01*
X45300Y47950D01*
Y47850D01*
X45250Y47800D01*
X45100D01*
X45200D02*
X45300Y47700D01*
X45550D02*
Y48000D01*
X45400Y47850D01*
X45600D01*
X45900Y48000D02*
X45800Y47950D01*
X45700Y47850D01*
Y47750D01*
X45750Y47700D01*
X45850D01*
X45900Y47750D01*
Y47800D01*
X45850Y47850D01*
X45700D01*
X45130Y51570D02*
Y51870D01*
X45280D01*
X45330Y51820D01*
Y51720D01*
X45280Y51670D01*
X45130D01*
X45230D02*
X45330Y51570D01*
X45580D02*
Y51870D01*
X45430Y51720D01*
X45630D01*
X45730Y51820D02*
X45780Y51870D01*
X45880D01*
X45930Y51820D01*
Y51770D01*
X45880Y51720D01*
X45930Y51670D01*
Y51620D01*
X45880Y51570D01*
X45780D01*
X45730Y51620D01*
Y51670D01*
X45780Y51720D01*
X45730Y51770D01*
Y51820D01*
X45780Y51720D02*
X45880D01*
X45200Y55500D02*
Y55800D01*
X45350D01*
X45400Y55750D01*
Y55650D01*
X45350Y55600D01*
X45200D01*
X45300D02*
X45400Y55500D01*
X45700Y55800D02*
X45500D01*
Y55650D01*
X45600Y55700D01*
X45650D01*
X45700Y55650D01*
Y55550D01*
X45650Y55500D01*
X45550D01*
X45500Y55550D01*
X45800Y55750D02*
X45850Y55800D01*
X45950D01*
X46000Y55750D01*
Y55550D01*
X45950Y55500D01*
X45850D01*
X45800Y55550D01*
Y55750D01*
X45200Y59400D02*
Y59700D01*
X45350D01*
X45400Y59650D01*
Y59550D01*
X45350Y59500D01*
X45200D01*
X45300D02*
X45400Y59400D01*
X45700Y59700D02*
X45500D01*
Y59550D01*
X45600Y59600D01*
X45650D01*
X45700Y59550D01*
Y59450D01*
X45650Y59400D01*
X45550D01*
X45500Y59450D01*
X46000Y59400D02*
X45800D01*
X46000Y59600D01*
Y59650D01*
X45950Y59700D01*
X45850D01*
X45800Y59650D01*
X45230Y63270D02*
Y63570D01*
X45380D01*
X45430Y63520D01*
Y63420D01*
X45380Y63370D01*
X45230D01*
X45330D02*
X45430Y63270D01*
X45730Y63570D02*
X45530D01*
Y63420D01*
X45630Y63470D01*
X45680D01*
X45730Y63420D01*
Y63320D01*
X45680Y63270D01*
X45580D01*
X45530Y63320D01*
X45980Y63270D02*
Y63570D01*
X45830Y63420D01*
X46030D01*
X50900Y34000D02*
Y34300D01*
X51050D01*
X51100Y34250D01*
Y34150D01*
X51050Y34100D01*
X50900D01*
X51000D02*
X51100Y34000D01*
X51400Y34300D02*
X51300Y34250D01*
X51200Y34150D01*
Y34050D01*
X51250Y34000D01*
X51350D01*
X51400Y34050D01*
Y34100D01*
X51350Y34150D01*
X51200D01*
X51500Y34300D02*
X51700D01*
Y34250D01*
X51500Y34050D01*
Y34000D01*
X50900Y37900D02*
Y38200D01*
X51050D01*
X51100Y38150D01*
Y38050D01*
X51050Y38000D01*
X50900D01*
X51000D02*
X51100Y37900D01*
X51400Y38200D02*
X51300Y38150D01*
X51200Y38050D01*
Y37950D01*
X51250Y37900D01*
X51350D01*
X51400Y37950D01*
Y38000D01*
X51350Y38050D01*
X51200D01*
X51500Y38150D02*
X51550Y38200D01*
X51650D01*
X51700Y38150D01*
Y38100D01*
X51650Y38050D01*
X51700Y38000D01*
Y37950D01*
X51650Y37900D01*
X51550D01*
X51500Y37950D01*
Y38000D01*
X51550Y38050D01*
X51500Y38100D01*
Y38150D01*
X51550Y38050D02*
X51650D01*
X50900Y41800D02*
Y42100D01*
X51050D01*
X51100Y42050D01*
Y41950D01*
X51050Y41900D01*
X50900D01*
X51000D02*
X51100Y41800D01*
X51400Y42100D02*
X51300Y42050D01*
X51200Y41950D01*
Y41850D01*
X51250Y41800D01*
X51350D01*
X51400Y41850D01*
Y41900D01*
X51350Y41950D01*
X51200D01*
X51500Y41850D02*
X51550Y41800D01*
X51650D01*
X51700Y41850D01*
Y42050D01*
X51650Y42100D01*
X51550D01*
X51500Y42050D01*
Y42000D01*
X51550Y41950D01*
X51700D01*
X50900Y45700D02*
Y46000D01*
X51050D01*
X51100Y45950D01*
Y45850D01*
X51050Y45800D01*
X50900D01*
X51000D02*
X51100Y45700D01*
X51200Y46000D02*
X51400D01*
Y45950D01*
X51200Y45750D01*
Y45700D01*
X51500Y45950D02*
X51550Y46000D01*
X51650D01*
X51700Y45950D01*
Y45750D01*
X51650Y45700D01*
X51550D01*
X51500Y45750D01*
Y45950D01*
X50900Y49600D02*
Y49900D01*
X51050D01*
X51100Y49850D01*
Y49750D01*
X51050Y49700D01*
X50900D01*
X51000D02*
X51100Y49600D01*
X51200Y49900D02*
X51400D01*
Y49850D01*
X51200Y49650D01*
Y49600D01*
X51500D02*
X51600D01*
X51550D01*
Y49900D01*
X51500Y49850D01*
X50900Y53500D02*
Y53800D01*
X51050D01*
X51100Y53750D01*
Y53650D01*
X51050Y53600D01*
X50900D01*
X51000D02*
X51100Y53500D01*
X51200Y53800D02*
X51400D01*
Y53750D01*
X51200Y53550D01*
Y53500D01*
X51700D02*
X51500D01*
X51700Y53700D01*
Y53750D01*
X51650Y53800D01*
X51550D01*
X51500Y53750D01*
X50900Y57400D02*
Y57700D01*
X51050D01*
X51100Y57650D01*
Y57550D01*
X51050Y57500D01*
X50900D01*
X51000D02*
X51100Y57400D01*
X51200Y57700D02*
X51400D01*
Y57650D01*
X51200Y57450D01*
Y57400D01*
X51500Y57650D02*
X51550Y57700D01*
X51650D01*
X51700Y57650D01*
Y57600D01*
X51650Y57550D01*
X51600D01*
X51650D01*
X51700Y57500D01*
Y57450D01*
X51650Y57400D01*
X51550D01*
X51500Y57450D01*
X50900Y61300D02*
Y61600D01*
X51050D01*
X51100Y61550D01*
Y61450D01*
X51050Y61400D01*
X50900D01*
X51000D02*
X51100Y61300D01*
X51200Y61600D02*
X51400D01*
Y61550D01*
X51200Y61350D01*
Y61300D01*
X51650D02*
Y61600D01*
X51500Y61450D01*
X51700D01*
X50900Y65200D02*
Y65500D01*
X51050D01*
X51100Y65450D01*
Y65350D01*
X51050Y65300D01*
X50900D01*
X51000D02*
X51100Y65200D01*
X51200Y65500D02*
X51400D01*
Y65450D01*
X51200Y65250D01*
Y65200D01*
X51700Y65500D02*
X51500D01*
Y65350D01*
X51600Y65400D01*
X51650D01*
X51700Y65350D01*
Y65250D01*
X51650Y65200D01*
X51550D01*
X51500Y65250D01*
X43800Y30700D02*
X43500D01*
Y30850D01*
X43550Y30900D01*
X43650D01*
X43700Y30850D01*
Y30700D01*
Y30800D02*
X43800Y30900D01*
Y31000D02*
Y31100D01*
Y31050D01*
X43500D01*
X43550Y31000D01*
X43500Y31250D02*
Y31450D01*
X43550D01*
X43750Y31250D01*
X43800D01*
Y34700D02*
X43500D01*
Y34850D01*
X43550Y34900D01*
X43650D01*
X43700Y34850D01*
Y34700D01*
Y34800D02*
X43800Y34900D01*
Y35000D02*
Y35100D01*
Y35050D01*
X43500D01*
X43550Y35000D01*
X43750Y35250D02*
X43800Y35300D01*
Y35400D01*
X43750Y35450D01*
X43550D01*
X43500Y35400D01*
Y35300D01*
X43550Y35250D01*
X43600D01*
X43650Y35300D01*
Y35450D01*
X43800Y38500D02*
X43500D01*
Y38650D01*
X43550Y38700D01*
X43650D01*
X43700Y38650D01*
Y38500D01*
Y38600D02*
X43800Y38700D01*
Y39000D02*
Y38800D01*
X43600Y39000D01*
X43550D01*
X43500Y38950D01*
Y38850D01*
X43550Y38800D01*
X43800Y39100D02*
Y39200D01*
Y39150D01*
X43500D01*
X43550Y39100D01*
X43800Y42400D02*
X43500D01*
Y42550D01*
X43550Y42600D01*
X43650D01*
X43700Y42550D01*
Y42400D01*
Y42500D02*
X43800Y42600D01*
Y42900D02*
Y42700D01*
X43600Y42900D01*
X43550D01*
X43500Y42850D01*
Y42750D01*
X43550Y42700D01*
Y43000D02*
X43500Y43050D01*
Y43150D01*
X43550Y43200D01*
X43600D01*
X43650Y43150D01*
Y43100D01*
Y43150D01*
X43700Y43200D01*
X43750D01*
X43800Y43150D01*
Y43050D01*
X43750Y43000D01*
X43800Y46500D02*
X43500D01*
Y46650D01*
X43550Y46700D01*
X43650D01*
X43700Y46650D01*
Y46500D01*
Y46600D02*
X43800Y46700D01*
Y47000D02*
Y46800D01*
X43600Y47000D01*
X43550D01*
X43500Y46950D01*
Y46850D01*
X43550Y46800D01*
X43500Y47300D02*
Y47100D01*
X43650D01*
X43600Y47200D01*
Y47250D01*
X43650Y47300D01*
X43750D01*
X43800Y47250D01*
Y47150D01*
X43750Y47100D01*
X43800Y50300D02*
X43500D01*
Y50450D01*
X43550Y50500D01*
X43650D01*
X43700Y50450D01*
Y50300D01*
Y50400D02*
X43800Y50500D01*
Y50800D02*
Y50600D01*
X43600Y50800D01*
X43550D01*
X43500Y50750D01*
Y50650D01*
X43550Y50600D01*
X43500Y50900D02*
Y51100D01*
X43550D01*
X43750Y50900D01*
X43800D01*
Y54100D02*
X43500D01*
Y54250D01*
X43550Y54300D01*
X43650D01*
X43700Y54250D01*
Y54100D01*
Y54200D02*
X43800Y54300D01*
Y54600D02*
Y54400D01*
X43600Y54600D01*
X43550D01*
X43500Y54550D01*
Y54450D01*
X43550Y54400D01*
X43750Y54700D02*
X43800Y54750D01*
Y54850D01*
X43750Y54900D01*
X43550D01*
X43500Y54850D01*
Y54750D01*
X43550Y54700D01*
X43600D01*
X43650Y54750D01*
Y54900D01*
X43800Y58200D02*
X43500D01*
Y58350D01*
X43550Y58400D01*
X43650D01*
X43700Y58350D01*
Y58200D01*
Y58300D02*
X43800Y58400D01*
X43550Y58500D02*
X43500Y58550D01*
Y58650D01*
X43550Y58700D01*
X43600D01*
X43650Y58650D01*
Y58600D01*
Y58650D01*
X43700Y58700D01*
X43750D01*
X43800Y58650D01*
Y58550D01*
X43750Y58500D01*
X43800Y58800D02*
Y58900D01*
Y58850D01*
X43500D01*
X43550Y58800D01*
X43800Y62000D02*
X43500D01*
Y62150D01*
X43550Y62200D01*
X43650D01*
X43700Y62150D01*
Y62000D01*
Y62100D02*
X43800Y62200D01*
X43550Y62300D02*
X43500Y62350D01*
Y62450D01*
X43550Y62500D01*
X43600D01*
X43650Y62450D01*
Y62400D01*
Y62450D01*
X43700Y62500D01*
X43750D01*
X43800Y62450D01*
Y62350D01*
X43750Y62300D01*
X43550Y62600D02*
X43500Y62650D01*
Y62750D01*
X43550Y62800D01*
X43600D01*
X43650Y62750D01*
Y62700D01*
Y62750D01*
X43700Y62800D01*
X43750D01*
X43800Y62750D01*
Y62650D01*
X43750Y62600D01*
X52900Y34200D02*
Y34500D01*
X53050D01*
X53100Y34450D01*
Y34350D01*
X53050Y34300D01*
X52900D01*
X53000D02*
X53100Y34200D01*
X53200Y34450D02*
X53250Y34500D01*
X53350D01*
X53400Y34450D01*
Y34400D01*
X53350Y34350D01*
X53400Y34300D01*
Y34250D01*
X53350Y34200D01*
X53250D01*
X53200Y34250D01*
Y34300D01*
X53250Y34350D01*
X53200Y34400D01*
Y34450D01*
X53250Y34350D02*
X53350D01*
X53500Y34450D02*
X53550Y34500D01*
X53650D01*
X53700Y34450D01*
Y34400D01*
X53650Y34350D01*
X53700Y34300D01*
Y34250D01*
X53650Y34200D01*
X53550D01*
X53500Y34250D01*
Y34300D01*
X53550Y34350D01*
X53500Y34400D01*
Y34450D01*
X53550Y34350D02*
X53650D01*
X52900Y38100D02*
Y38400D01*
X53050D01*
X53100Y38350D01*
Y38250D01*
X53050Y38200D01*
X52900D01*
X53000D02*
X53100Y38100D01*
X53200Y38150D02*
X53250Y38100D01*
X53350D01*
X53400Y38150D01*
Y38350D01*
X53350Y38400D01*
X53250D01*
X53200Y38350D01*
Y38300D01*
X53250Y38250D01*
X53400D01*
X53500Y38350D02*
X53550Y38400D01*
X53650D01*
X53700Y38350D01*
Y38150D01*
X53650Y38100D01*
X53550D01*
X53500Y38150D01*
Y38350D01*
X53000Y42000D02*
Y42300D01*
X53150D01*
X53200Y42250D01*
Y42150D01*
X53150Y42100D01*
X53000D01*
X53100D02*
X53200Y42000D01*
X53300Y42050D02*
X53350Y42000D01*
X53450D01*
X53500Y42050D01*
Y42250D01*
X53450Y42300D01*
X53350D01*
X53300Y42250D01*
Y42200D01*
X53350Y42150D01*
X53500D01*
X53800Y42000D02*
X53600D01*
X53800Y42200D01*
Y42250D01*
X53750Y42300D01*
X53650D01*
X53600Y42250D01*
X52900Y45800D02*
Y46100D01*
X53050D01*
X53100Y46050D01*
Y45950D01*
X53050Y45900D01*
X52900D01*
X53000D02*
X53100Y45800D01*
X53200Y45850D02*
X53250Y45800D01*
X53350D01*
X53400Y45850D01*
Y46050D01*
X53350Y46100D01*
X53250D01*
X53200Y46050D01*
Y46000D01*
X53250Y45950D01*
X53400D01*
X53650Y45800D02*
Y46100D01*
X53500Y45950D01*
X53700D01*
X53000Y49800D02*
Y50100D01*
X53150D01*
X53200Y50050D01*
Y49950D01*
X53150Y49900D01*
X53000D01*
X53100D02*
X53200Y49800D01*
X53300Y49850D02*
X53350Y49800D01*
X53450D01*
X53500Y49850D01*
Y50050D01*
X53450Y50100D01*
X53350D01*
X53300Y50050D01*
Y50000D01*
X53350Y49950D01*
X53500D01*
X53800Y50100D02*
X53700Y50050D01*
X53600Y49950D01*
Y49850D01*
X53650Y49800D01*
X53750D01*
X53800Y49850D01*
Y49900D01*
X53750Y49950D01*
X53600D01*
X53000Y53700D02*
Y54000D01*
X53150D01*
X53200Y53950D01*
Y53850D01*
X53150Y53800D01*
X53000D01*
X53100D02*
X53200Y53700D01*
X53300Y53750D02*
X53350Y53700D01*
X53450D01*
X53500Y53750D01*
Y53950D01*
X53450Y54000D01*
X53350D01*
X53300Y53950D01*
Y53900D01*
X53350Y53850D01*
X53500D01*
X53600Y53950D02*
X53650Y54000D01*
X53750D01*
X53800Y53950D01*
Y53900D01*
X53750Y53850D01*
X53800Y53800D01*
Y53750D01*
X53750Y53700D01*
X53650D01*
X53600Y53750D01*
Y53800D01*
X53650Y53850D01*
X53600Y53900D01*
Y53950D01*
X53650Y53850D02*
X53750D01*
X53000Y57600D02*
Y57900D01*
X53150D01*
X53200Y57850D01*
Y57750D01*
X53150Y57700D01*
X53000D01*
X53100D02*
X53200Y57600D01*
X53300D02*
X53400D01*
X53350D01*
Y57900D01*
X53300Y57850D01*
X53550D02*
X53600Y57900D01*
X53700D01*
X53750Y57850D01*
Y57650D01*
X53700Y57600D01*
X53600D01*
X53550Y57650D01*
Y57850D01*
X53850D02*
X53900Y57900D01*
X54000D01*
X54050Y57850D01*
Y57650D01*
X54000Y57600D01*
X53900D01*
X53850Y57650D01*
Y57850D01*
X53000Y61500D02*
Y61800D01*
X53150D01*
X53200Y61750D01*
Y61650D01*
X53150Y61600D01*
X53000D01*
X53100D02*
X53200Y61500D01*
X53300D02*
X53400D01*
X53350D01*
Y61800D01*
X53300Y61750D01*
X53550D02*
X53600Y61800D01*
X53700D01*
X53750Y61750D01*
Y61550D01*
X53700Y61500D01*
X53600D01*
X53550Y61550D01*
Y61750D01*
X54050Y61500D02*
X53850D01*
X54050Y61700D01*
Y61750D01*
X54000Y61800D01*
X53900D01*
X53850Y61750D01*
X52900Y65400D02*
Y65700D01*
X53050D01*
X53100Y65650D01*
Y65550D01*
X53050Y65500D01*
X52900D01*
X53000D02*
X53100Y65400D01*
X53200D02*
X53300D01*
X53250D01*
Y65700D01*
X53200Y65650D01*
X53450D02*
X53500Y65700D01*
X53600D01*
X53650Y65650D01*
Y65450D01*
X53600Y65400D01*
X53500D01*
X53450Y65450D01*
Y65650D01*
X53900Y65400D02*
Y65700D01*
X53750Y65550D01*
X53950D01*
X54000Y32000D02*
X54300D01*
Y31850D01*
X54250Y31800D01*
X54150D01*
X54100Y31850D01*
Y32000D01*
Y31900D02*
X54000Y31800D01*
X54250Y31700D02*
X54300Y31650D01*
Y31550D01*
X54250Y31500D01*
X54200D01*
X54150Y31550D01*
X54100Y31500D01*
X54050D01*
X54000Y31550D01*
Y31650D01*
X54050Y31700D01*
X54100D01*
X54150Y31650D01*
X54200Y31700D01*
X54250D01*
X54150Y31650D02*
Y31550D01*
X54300Y31400D02*
Y31200D01*
X54250D01*
X54050Y31400D01*
X54000D01*
Y36000D02*
X54300D01*
Y35850D01*
X54250Y35800D01*
X54150D01*
X54100Y35850D01*
Y36000D01*
Y35900D02*
X54000Y35800D01*
X54250Y35700D02*
X54300Y35650D01*
Y35550D01*
X54250Y35500D01*
X54200D01*
X54150Y35550D01*
X54100Y35500D01*
X54050D01*
X54000Y35550D01*
Y35650D01*
X54050Y35700D01*
X54100D01*
X54150Y35650D01*
X54200Y35700D01*
X54250D01*
X54150Y35650D02*
Y35550D01*
X54050Y35400D02*
X54000Y35350D01*
Y35250D01*
X54050Y35200D01*
X54250D01*
X54300Y35250D01*
Y35350D01*
X54250Y35400D01*
X54200D01*
X54150Y35350D01*
Y35200D01*
X54000Y39900D02*
X54300D01*
Y39750D01*
X54250Y39700D01*
X54150D01*
X54100Y39750D01*
Y39900D01*
Y39800D02*
X54000Y39700D01*
X54050Y39600D02*
X54000Y39550D01*
Y39450D01*
X54050Y39400D01*
X54250D01*
X54300Y39450D01*
Y39550D01*
X54250Y39600D01*
X54200D01*
X54150Y39550D01*
Y39400D01*
X54000Y39300D02*
Y39200D01*
Y39250D01*
X54300D01*
X54250Y39300D01*
X54000Y42500D02*
Y42800D01*
X54150D01*
X54200Y42750D01*
Y42650D01*
X54150Y42600D01*
X54000D01*
X54100D02*
X54200Y42500D01*
X54300Y42550D02*
X54350Y42500D01*
X54450D01*
X54500Y42550D01*
Y42750D01*
X54450Y42800D01*
X54350D01*
X54300Y42750D01*
Y42700D01*
X54350Y42650D01*
X54500D01*
X54600Y42750D02*
X54650Y42800D01*
X54750D01*
X54800Y42750D01*
Y42700D01*
X54750Y42650D01*
X54700D01*
X54750D01*
X54800Y42600D01*
Y42550D01*
X54750Y42500D01*
X54650D01*
X54600Y42550D01*
X54000Y47500D02*
X54300D01*
Y47350D01*
X54250Y47300D01*
X54150D01*
X54100Y47350D01*
Y47500D01*
Y47400D02*
X54000Y47300D01*
X54050Y47200D02*
X54000Y47150D01*
Y47050D01*
X54050Y47000D01*
X54250D01*
X54300Y47050D01*
Y47150D01*
X54250Y47200D01*
X54200D01*
X54150Y47150D01*
Y47000D01*
X54300Y46700D02*
Y46900D01*
X54150D01*
X54200Y46800D01*
Y46750D01*
X54150Y46700D01*
X54050D01*
X54000Y46750D01*
Y46850D01*
X54050Y46900D01*
X54000Y51500D02*
X54300D01*
Y51350D01*
X54250Y51300D01*
X54150D01*
X54100Y51350D01*
Y51500D01*
Y51400D02*
X54000Y51300D01*
X54050Y51200D02*
X54000Y51150D01*
Y51050D01*
X54050Y51000D01*
X54250D01*
X54300Y51050D01*
Y51150D01*
X54250Y51200D01*
X54200D01*
X54150Y51150D01*
Y51000D01*
X54300Y50900D02*
Y50700D01*
X54250D01*
X54050Y50900D01*
X54000D01*
Y55400D02*
X54300D01*
Y55250D01*
X54250Y55200D01*
X54150D01*
X54100Y55250D01*
Y55400D01*
Y55300D02*
X54000Y55200D01*
X54050Y55100D02*
X54000Y55050D01*
Y54950D01*
X54050Y54900D01*
X54250D01*
X54300Y54950D01*
Y55050D01*
X54250Y55100D01*
X54200D01*
X54150Y55050D01*
Y54900D01*
X54050Y54800D02*
X54000Y54750D01*
Y54650D01*
X54050Y54600D01*
X54250D01*
X54300Y54650D01*
Y54750D01*
X54250Y54800D01*
X54200D01*
X54150Y54750D01*
Y54600D01*
X54000Y59400D02*
X54300D01*
Y59250D01*
X54250Y59200D01*
X54150D01*
X54100Y59250D01*
Y59400D01*
Y59300D02*
X54000Y59200D01*
Y59100D02*
Y59000D01*
Y59050D01*
X54300D01*
X54250Y59100D01*
Y58850D02*
X54300Y58800D01*
Y58700D01*
X54250Y58650D01*
X54050D01*
X54000Y58700D01*
Y58800D01*
X54050Y58850D01*
X54250D01*
X54000Y58550D02*
Y58450D01*
Y58500D01*
X54300D01*
X54250Y58550D01*
X54000Y63100D02*
X54300D01*
Y62950D01*
X54250Y62900D01*
X54150D01*
X54100Y62950D01*
Y63100D01*
Y63000D02*
X54000Y62900D01*
Y62800D02*
Y62700D01*
Y62750D01*
X54300D01*
X54250Y62800D01*
Y62550D02*
X54300Y62500D01*
Y62400D01*
X54250Y62350D01*
X54050D01*
X54000Y62400D01*
Y62500D01*
X54050Y62550D01*
X54250D01*
Y62250D02*
X54300Y62200D01*
Y62100D01*
X54250Y62050D01*
X54200D01*
X54150Y62100D01*
Y62150D01*
Y62100D01*
X54100Y62050D01*
X54050D01*
X54000Y62100D01*
Y62200D01*
X54050Y62250D01*
X56350Y31800D02*
X56400Y31850D01*
Y31950D01*
X56350Y32000D01*
X56150D01*
X56100Y31950D01*
Y31850D01*
X56150Y31800D01*
X56100Y31550D02*
X56400D01*
X56250Y31700D01*
Y31500D01*
X56100Y31400D02*
Y31300D01*
Y31350D01*
X56400D01*
X56350Y31400D01*
Y35700D02*
X56400Y35750D01*
Y35850D01*
X56350Y35900D01*
X56150D01*
X56100Y35850D01*
Y35750D01*
X56150Y35700D01*
X56100Y35450D02*
X56400D01*
X56250Y35600D01*
Y35400D01*
X56350Y35300D02*
X56400Y35250D01*
Y35150D01*
X56350Y35100D01*
X56300D01*
X56250Y35150D01*
Y35200D01*
Y35150D01*
X56200Y35100D01*
X56150D01*
X56100Y35150D01*
Y35250D01*
X56150Y35300D01*
X56350Y39600D02*
X56400Y39650D01*
Y39750D01*
X56350Y39800D01*
X56150D01*
X56100Y39750D01*
Y39650D01*
X56150Y39600D01*
X56100Y39350D02*
X56400D01*
X56250Y39500D01*
Y39300D01*
X56400Y39000D02*
Y39200D01*
X56250D01*
X56300Y39100D01*
Y39050D01*
X56250Y39000D01*
X56150D01*
X56100Y39050D01*
Y39150D01*
X56150Y39200D01*
X56350Y43560D02*
X56400Y43610D01*
Y43710D01*
X56350Y43760D01*
X56150D01*
X56100Y43710D01*
Y43610D01*
X56150Y43560D01*
X56100Y43310D02*
X56400D01*
X56250Y43460D01*
Y43260D01*
X56400Y43160D02*
Y42960D01*
X56350D01*
X56150Y43160D01*
X56100D01*
X56350Y47400D02*
X56400Y47450D01*
Y47550D01*
X56350Y47600D01*
X56150D01*
X56100Y47550D01*
Y47450D01*
X56150Y47400D01*
X56100Y47150D02*
X56400D01*
X56250Y47300D01*
Y47100D01*
X56150Y47000D02*
X56100Y46950D01*
Y46850D01*
X56150Y46800D01*
X56350D01*
X56400Y46850D01*
Y46950D01*
X56350Y47000D01*
X56300D01*
X56250Y46950D01*
Y46800D01*
X56350Y51300D02*
X56400Y51350D01*
Y51450D01*
X56350Y51500D01*
X56150D01*
X56100Y51450D01*
Y51350D01*
X56150Y51300D01*
X56400Y51000D02*
Y51200D01*
X56250D01*
X56300Y51100D01*
Y51050D01*
X56250Y51000D01*
X56150D01*
X56100Y51050D01*
Y51150D01*
X56150Y51200D01*
X56100Y50900D02*
Y50800D01*
Y50850D01*
X56400D01*
X56350Y50900D01*
Y55200D02*
X56400Y55250D01*
Y55350D01*
X56350Y55400D01*
X56150D01*
X56100Y55350D01*
Y55250D01*
X56150Y55200D01*
X56400Y54900D02*
Y55100D01*
X56250D01*
X56300Y55000D01*
Y54950D01*
X56250Y54900D01*
X56150D01*
X56100Y54950D01*
Y55050D01*
X56150Y55100D01*
X56350Y54800D02*
X56400Y54750D01*
Y54650D01*
X56350Y54600D01*
X56300D01*
X56250Y54650D01*
Y54700D01*
Y54650D01*
X56200Y54600D01*
X56150D01*
X56100Y54650D01*
Y54750D01*
X56150Y54800D01*
X56350Y59100D02*
X56400Y59150D01*
Y59250D01*
X56350Y59300D01*
X56150D01*
X56100Y59250D01*
Y59150D01*
X56150Y59100D01*
X56400Y58800D02*
Y59000D01*
X56250D01*
X56300Y58900D01*
Y58850D01*
X56250Y58800D01*
X56150D01*
X56100Y58850D01*
Y58950D01*
X56150Y59000D01*
X56400Y58500D02*
Y58700D01*
X56250D01*
X56300Y58600D01*
Y58550D01*
X56250Y58500D01*
X56150D01*
X56100Y58550D01*
Y58650D01*
X56150Y58700D01*
X56350Y63000D02*
X56400Y63050D01*
Y63150D01*
X56350Y63200D01*
X56150D01*
X56100Y63150D01*
Y63050D01*
X56150Y63000D01*
X56400Y62700D02*
Y62900D01*
X56250D01*
X56300Y62800D01*
Y62750D01*
X56250Y62700D01*
X56150D01*
X56100Y62750D01*
Y62850D01*
X56150Y62900D01*
X56400Y62600D02*
Y62400D01*
X56350D01*
X56150Y62600D01*
X56100D01*
X50950Y31500D02*
X50900Y31450D01*
Y31350D01*
X50950Y31300D01*
X51150D01*
X51200Y31350D01*
Y31450D01*
X51150Y31500D01*
X50950Y31600D02*
X50900Y31650D01*
Y31750D01*
X50950Y31800D01*
X51000D01*
X51050Y31750D01*
Y31700D01*
Y31750D01*
X51100Y31800D01*
X51150D01*
X51200Y31750D01*
Y31650D01*
X51150Y31600D01*
X51200Y31900D02*
Y32000D01*
Y31950D01*
X50900D01*
X50950Y31900D01*
Y35400D02*
X50900Y35350D01*
Y35250D01*
X50950Y35200D01*
X51150D01*
X51200Y35250D01*
Y35350D01*
X51150Y35400D01*
X50950Y35500D02*
X50900Y35550D01*
Y35650D01*
X50950Y35700D01*
X51000D01*
X51050Y35650D01*
Y35600D01*
Y35650D01*
X51100Y35700D01*
X51150D01*
X51200Y35650D01*
Y35550D01*
X51150Y35500D01*
X51200Y36000D02*
Y35800D01*
X51000Y36000D01*
X50950D01*
X50900Y35950D01*
Y35850D01*
X50950Y35800D01*
Y39300D02*
X50900Y39250D01*
Y39150D01*
X50950Y39100D01*
X51150D01*
X51200Y39150D01*
Y39250D01*
X51150Y39300D01*
X50950Y39400D02*
X50900Y39450D01*
Y39550D01*
X50950Y39600D01*
X51000D01*
X51050Y39550D01*
Y39500D01*
Y39550D01*
X51100Y39600D01*
X51150D01*
X51200Y39550D01*
Y39450D01*
X51150Y39400D01*
X50950Y39700D02*
X50900Y39750D01*
Y39850D01*
X50950Y39900D01*
X51000D01*
X51050Y39850D01*
Y39800D01*
Y39850D01*
X51100Y39900D01*
X51150D01*
X51200Y39850D01*
Y39750D01*
X51150Y39700D01*
X50950Y43200D02*
X50900Y43150D01*
Y43050D01*
X50950Y43000D01*
X51150D01*
X51200Y43050D01*
Y43150D01*
X51150Y43200D01*
X50950Y43300D02*
X50900Y43350D01*
Y43450D01*
X50950Y43500D01*
X51000D01*
X51050Y43450D01*
Y43400D01*
Y43450D01*
X51100Y43500D01*
X51150D01*
X51200Y43450D01*
Y43350D01*
X51150Y43300D01*
X51200Y43750D02*
X50900D01*
X51050Y43600D01*
Y43800D01*
X50950Y47000D02*
X50900Y46950D01*
Y46850D01*
X50950Y46800D01*
X51150D01*
X51200Y46850D01*
Y46950D01*
X51150Y47000D01*
X50950Y47100D02*
X50900Y47150D01*
Y47250D01*
X50950Y47300D01*
X51000D01*
X51050Y47250D01*
Y47200D01*
Y47250D01*
X51100Y47300D01*
X51150D01*
X51200Y47250D01*
Y47150D01*
X51150Y47100D01*
X50900Y47600D02*
Y47400D01*
X51050D01*
X51000Y47500D01*
Y47550D01*
X51050Y47600D01*
X51150D01*
X51200Y47550D01*
Y47450D01*
X51150Y47400D01*
X50950Y51000D02*
X50900Y50950D01*
Y50850D01*
X50950Y50800D01*
X51150D01*
X51200Y50850D01*
Y50950D01*
X51150Y51000D01*
X50950Y51100D02*
X50900Y51150D01*
Y51250D01*
X50950Y51300D01*
X51000D01*
X51050Y51250D01*
Y51200D01*
Y51250D01*
X51100Y51300D01*
X51150D01*
X51200Y51250D01*
Y51150D01*
X51150Y51100D01*
X50900Y51600D02*
X50950Y51500D01*
X51050Y51400D01*
X51150D01*
X51200Y51450D01*
Y51550D01*
X51150Y51600D01*
X51100D01*
X51050Y51550D01*
Y51400D01*
X50950Y54900D02*
X50900Y54850D01*
Y54750D01*
X50950Y54700D01*
X51150D01*
X51200Y54750D01*
Y54850D01*
X51150Y54900D01*
X50950Y55000D02*
X50900Y55050D01*
Y55150D01*
X50950Y55200D01*
X51000D01*
X51050Y55150D01*
Y55100D01*
Y55150D01*
X51100Y55200D01*
X51150D01*
X51200Y55150D01*
Y55050D01*
X51150Y55000D01*
X50900Y55300D02*
Y55500D01*
X50950D01*
X51150Y55300D01*
X51200D01*
X50950Y58800D02*
X50900Y58750D01*
Y58650D01*
X50950Y58600D01*
X51150D01*
X51200Y58650D01*
Y58750D01*
X51150Y58800D01*
X50950Y58900D02*
X50900Y58950D01*
Y59050D01*
X50950Y59100D01*
X51000D01*
X51050Y59050D01*
Y59000D01*
Y59050D01*
X51100Y59100D01*
X51150D01*
X51200Y59050D01*
Y58950D01*
X51150Y58900D01*
X50950Y59200D02*
X50900Y59250D01*
Y59350D01*
X50950Y59400D01*
X51000D01*
X51050Y59350D01*
X51100Y59400D01*
X51150D01*
X51200Y59350D01*
Y59250D01*
X51150Y59200D01*
X51100D01*
X51050Y59250D01*
X51000Y59200D01*
X50950D01*
X51050Y59250D02*
Y59350D01*
X50950Y62700D02*
X50900Y62650D01*
Y62550D01*
X50950Y62500D01*
X51150D01*
X51200Y62550D01*
Y62650D01*
X51150Y62700D01*
X50950Y62800D02*
X50900Y62850D01*
Y62950D01*
X50950Y63000D01*
X51000D01*
X51050Y62950D01*
Y62900D01*
Y62950D01*
X51100Y63000D01*
X51150D01*
X51200Y62950D01*
Y62850D01*
X51150Y62800D01*
Y63100D02*
X51200Y63150D01*
Y63250D01*
X51150Y63300D01*
X50950D01*
X50900Y63250D01*
Y63150D01*
X50950Y63100D01*
X51000D01*
X51050Y63150D01*
Y63300D01*
X56500Y34150D02*
X56450Y34200D01*
X56350D01*
X56300Y34150D01*
Y33950D01*
X56350Y33900D01*
X56450D01*
X56500Y33950D01*
X56750Y33900D02*
Y34200D01*
X56600Y34050D01*
X56800D01*
X57100Y33900D02*
X56900D01*
X57100Y34100D01*
Y34150D01*
X57050Y34200D01*
X56950D01*
X56900Y34150D01*
X56500Y38050D02*
X56450Y38100D01*
X56350D01*
X56300Y38050D01*
Y37850D01*
X56350Y37800D01*
X56450D01*
X56500Y37850D01*
X56750Y37800D02*
Y38100D01*
X56600Y37950D01*
X56800D01*
X57050Y37800D02*
Y38100D01*
X56900Y37950D01*
X57100D01*
X56450Y41900D02*
X56500Y41950D01*
Y42050D01*
X56450Y42100D01*
X56250D01*
X56200Y42050D01*
Y41950D01*
X56250Y41900D01*
X56200Y41650D02*
X56500D01*
X56350Y41800D01*
Y41600D01*
X56500Y41300D02*
X56450Y41400D01*
X56350Y41500D01*
X56250D01*
X56200Y41450D01*
Y41350D01*
X56250Y41300D01*
X56300D01*
X56350Y41350D01*
Y41500D01*
X56550Y45960D02*
X56600Y46010D01*
Y46110D01*
X56550Y46160D01*
X56350D01*
X56300Y46110D01*
Y46010D01*
X56350Y45960D01*
X56300Y45710D02*
X56600D01*
X56450Y45860D01*
Y45660D01*
X56550Y45560D02*
X56600Y45510D01*
Y45410D01*
X56550Y45360D01*
X56500D01*
X56450Y45410D01*
X56400Y45360D01*
X56350D01*
X56300Y45410D01*
Y45510D01*
X56350Y45560D01*
X56400D01*
X56450Y45510D01*
X56500Y45560D01*
X56550D01*
X56450Y45510D02*
Y45410D01*
X56450Y49600D02*
X56500Y49650D01*
Y49750D01*
X56450Y49800D01*
X56250D01*
X56200Y49750D01*
Y49650D01*
X56250Y49600D01*
X56500Y49300D02*
Y49500D01*
X56350D01*
X56400Y49400D01*
Y49350D01*
X56350Y49300D01*
X56250D01*
X56200Y49350D01*
Y49450D01*
X56250Y49500D01*
X56450Y49200D02*
X56500Y49150D01*
Y49050D01*
X56450Y49000D01*
X56250D01*
X56200Y49050D01*
Y49150D01*
X56250Y49200D01*
X56450D01*
X56500Y53650D02*
X56450Y53700D01*
X56350D01*
X56300Y53650D01*
Y53450D01*
X56350Y53400D01*
X56450D01*
X56500Y53450D01*
X56800Y53700D02*
X56600D01*
Y53550D01*
X56700Y53600D01*
X56750D01*
X56800Y53550D01*
Y53450D01*
X56750Y53400D01*
X56650D01*
X56600Y53450D01*
X57100Y53400D02*
X56900D01*
X57100Y53600D01*
Y53650D01*
X57050Y53700D01*
X56950D01*
X56900Y53650D01*
X56450Y57500D02*
X56500Y57550D01*
Y57650D01*
X56450Y57700D01*
X56250D01*
X56200Y57650D01*
Y57550D01*
X56250Y57500D01*
X56500Y57200D02*
Y57400D01*
X56350D01*
X56400Y57300D01*
Y57250D01*
X56350Y57200D01*
X56250D01*
X56200Y57250D01*
Y57350D01*
X56250Y57400D01*
X56200Y56950D02*
X56500D01*
X56350Y57100D01*
Y56900D01*
X56550Y61400D02*
X56600Y61450D01*
Y61550D01*
X56550Y61600D01*
X56350D01*
X56300Y61550D01*
Y61450D01*
X56350Y61400D01*
X56600Y61100D02*
Y61300D01*
X56450D01*
X56500Y61200D01*
Y61150D01*
X56450Y61100D01*
X56350D01*
X56300Y61150D01*
Y61250D01*
X56350Y61300D01*
X56600Y60800D02*
X56550Y60900D01*
X56450Y61000D01*
X56350D01*
X56300Y60950D01*
Y60850D01*
X56350Y60800D01*
X56400D01*
X56450Y60850D01*
Y61000D01*
X56500Y65350D02*
X56450Y65400D01*
X56350D01*
X56300Y65350D01*
Y65150D01*
X56350Y65100D01*
X56450D01*
X56500Y65150D01*
X56800Y65400D02*
X56600D01*
Y65250D01*
X56700Y65300D01*
X56750D01*
X56800Y65250D01*
Y65150D01*
X56750Y65100D01*
X56650D01*
X56600Y65150D01*
X56900Y65350D02*
X56950Y65400D01*
X57050D01*
X57100Y65350D01*
Y65300D01*
X57050Y65250D01*
X57100Y65200D01*
Y65150D01*
X57050Y65100D01*
X56950D01*
X56900Y65150D01*
Y65200D01*
X56950Y65250D01*
X56900Y65300D01*
Y65350D01*
X56950Y65250D02*
X57050D01*
X28000Y53500D02*
Y53350D01*
X28050Y53300D01*
X28200D01*
Y53500D01*
X28300Y53350D02*
X28350Y53300D01*
X28450D01*
X28500Y53350D01*
Y53550D01*
X28450Y53600D01*
X28350D01*
X28300Y53550D01*
Y53500D01*
X28350Y53450D01*
X28500D01*
X28200Y49800D02*
Y49650D01*
X28250Y49600D01*
X28400D01*
Y49800D01*
X28500Y49600D02*
X28600D01*
X28550D01*
Y49900D01*
X28500Y49850D01*
X28750D02*
X28800Y49900D01*
X28900D01*
X28950Y49850D01*
Y49650D01*
X28900Y49600D01*
X28800D01*
X28750Y49650D01*
Y49850D01*
X41400Y31500D02*
Y31250D01*
X41450Y31200D01*
X41550D01*
X41600Y31250D01*
Y31500D01*
X41700Y31450D02*
X41750Y31500D01*
X41850D01*
X41900Y31450D01*
Y31400D01*
X41850Y31350D01*
X41800D01*
X41850D01*
X41900Y31300D01*
Y31250D01*
X41850Y31200D01*
X41750D01*
X41700Y31250D01*
X42000D02*
X42050Y31200D01*
X42150D01*
X42200Y31250D01*
Y31450D01*
X42150Y31500D01*
X42050D01*
X42000Y31450D01*
Y31400D01*
X42050Y31350D01*
X42200D01*
X41400Y35400D02*
Y35150D01*
X41450Y35100D01*
X41550D01*
X41600Y35150D01*
Y35400D01*
X41850Y35100D02*
Y35400D01*
X41700Y35250D01*
X41900D01*
X42000Y35350D02*
X42050Y35400D01*
X42150D01*
X42200Y35350D01*
Y35150D01*
X42150Y35100D01*
X42050D01*
X42000Y35150D01*
Y35350D01*
X41400Y39300D02*
Y39050D01*
X41450Y39000D01*
X41550D01*
X41600Y39050D01*
Y39300D01*
X41850Y39000D02*
Y39300D01*
X41700Y39150D01*
X41900D01*
X42000Y39000D02*
X42100D01*
X42050D01*
Y39300D01*
X42000Y39250D01*
X41400Y43200D02*
Y42950D01*
X41450Y42900D01*
X41550D01*
X41600Y42950D01*
Y43200D01*
X41850Y42900D02*
Y43200D01*
X41700Y43050D01*
X41900D01*
X42200Y42900D02*
X42000D01*
X42200Y43100D01*
Y43150D01*
X42150Y43200D01*
X42050D01*
X42000Y43150D01*
X41400Y54900D02*
Y54650D01*
X41450Y54600D01*
X41550D01*
X41600Y54650D01*
Y54900D01*
X41850Y54600D02*
Y54900D01*
X41700Y54750D01*
X41900D01*
X42200Y54900D02*
X42000D01*
Y54750D01*
X42100Y54800D01*
X42150D01*
X42200Y54750D01*
Y54650D01*
X42150Y54600D01*
X42050D01*
X42000Y54650D01*
X41400Y58800D02*
Y58550D01*
X41450Y58500D01*
X41550D01*
X41600Y58550D01*
Y58800D01*
X41850Y58500D02*
Y58800D01*
X41700Y58650D01*
X41900D01*
X42200Y58800D02*
X42100Y58750D01*
X42000Y58650D01*
Y58550D01*
X42050Y58500D01*
X42150D01*
X42200Y58550D01*
Y58600D01*
X42150Y58650D01*
X42000D01*
X41400Y66600D02*
Y66350D01*
X41450Y66300D01*
X41550D01*
X41600Y66350D01*
Y66600D01*
X41850Y66300D02*
Y66600D01*
X41700Y66450D01*
X41900D01*
X42000Y66550D02*
X42050Y66600D01*
X42150D01*
X42200Y66550D01*
Y66500D01*
X42150Y66450D01*
X42200Y66400D01*
Y66350D01*
X42150Y66300D01*
X42050D01*
X42000Y66350D01*
Y66400D01*
X42050Y66450D01*
X42000Y66500D01*
Y66550D01*
X42050Y66450D02*
X42150D01*
X65500Y63800D02*
Y63550D01*
X65550Y63500D01*
X65650D01*
X65700Y63550D01*
Y63800D01*
X65800D02*
X66000D01*
Y63750D01*
X65800Y63550D01*
Y63500D01*
X66100Y63800D02*
X66300D01*
Y63750D01*
X66100Y63550D01*
Y63500D01*
X65540Y69210D02*
Y68960D01*
X65590Y68910D01*
X65690D01*
X65740Y68960D01*
Y69210D01*
X65840D02*
X66040D01*
Y69160D01*
X65840Y68960D01*
Y68910D01*
X66140Y69160D02*
X66190Y69210D01*
X66290D01*
X66340Y69160D01*
Y69110D01*
X66290Y69060D01*
X66340Y69010D01*
Y68960D01*
X66290Y68910D01*
X66190D01*
X66140Y68960D01*
Y69010D01*
X66190Y69060D01*
X66140Y69110D01*
Y69160D01*
X66190Y69060D02*
X66290D01*
X65300Y49500D02*
Y49250D01*
X65350Y49200D01*
X65450D01*
X65500Y49250D01*
Y49500D01*
X65600D02*
X65800D01*
Y49450D01*
X65600Y49250D01*
Y49200D01*
X66100Y49500D02*
X65900D01*
Y49350D01*
X66000Y49400D01*
X66050D01*
X66100Y49350D01*
Y49250D01*
X66050Y49200D01*
X65950D01*
X65900Y49250D01*
X65200Y40100D02*
Y39850D01*
X65250Y39800D01*
X65350D01*
X65400Y39850D01*
Y40100D01*
X65500D02*
X65700D01*
Y40050D01*
X65500Y39850D01*
Y39800D01*
X65950D02*
Y40100D01*
X65800Y39950D01*
X66000D01*
X65100Y56100D02*
Y55850D01*
X65150Y55800D01*
X65250D01*
X65300Y55850D01*
Y56100D01*
X65400D02*
X65600D01*
Y56050D01*
X65400Y55850D01*
Y55800D01*
X65900Y56100D02*
X65800Y56050D01*
X65700Y55950D01*
Y55850D01*
X65750Y55800D01*
X65850D01*
X65900Y55850D01*
Y55900D01*
X65850Y55950D01*
X65700D01*
X30800Y31500D02*
X31050D01*
X31100Y31550D01*
Y31650D01*
X31050Y31700D01*
X30800D01*
X31100Y31800D02*
Y31900D01*
Y31850D01*
X30800D01*
X30850Y31800D01*
X31100Y32050D02*
Y32150D01*
Y32100D01*
X30800D01*
X30850Y32050D01*
X30800Y35400D02*
X31050D01*
X31100Y35450D01*
Y35550D01*
X31050Y35600D01*
X30800D01*
X31100Y35700D02*
Y35800D01*
Y35750D01*
X30800D01*
X30850Y35700D01*
X31100Y36150D02*
Y35950D01*
X30900Y36150D01*
X30850D01*
X30800Y36100D01*
Y36000D01*
X30850Y35950D01*
X30800Y39300D02*
X31050D01*
X31100Y39350D01*
Y39450D01*
X31050Y39500D01*
X30800D01*
X31100Y39600D02*
Y39700D01*
Y39650D01*
X30800D01*
X30850Y39600D01*
Y39850D02*
X30800Y39900D01*
Y40000D01*
X30850Y40050D01*
X30900D01*
X30950Y40000D01*
Y39950D01*
Y40000D01*
X31000Y40050D01*
X31050D01*
X31100Y40000D01*
Y39900D01*
X31050Y39850D01*
X30800Y43200D02*
X31050D01*
X31100Y43250D01*
Y43350D01*
X31050Y43400D01*
X30800D01*
X31100Y43500D02*
Y43600D01*
Y43550D01*
X30800D01*
X30850Y43500D01*
X31100Y43900D02*
X30800D01*
X30950Y43750D01*
Y43950D01*
X30800Y54900D02*
X31050D01*
X31100Y54950D01*
Y55050D01*
X31050Y55100D01*
X30800D01*
X31100Y55200D02*
Y55300D01*
Y55250D01*
X30800D01*
X30850Y55200D01*
X30800Y55650D02*
Y55450D01*
X30950D01*
X30900Y55550D01*
Y55600D01*
X30950Y55650D01*
X31050D01*
X31100Y55600D01*
Y55500D01*
X31050Y55450D01*
X30800Y58800D02*
X31050D01*
X31100Y58850D01*
Y58950D01*
X31050Y59000D01*
X30800D01*
X31100Y59100D02*
Y59200D01*
Y59150D01*
X30800D01*
X30850Y59100D01*
X30800Y59550D02*
X30850Y59450D01*
X30950Y59350D01*
X31050D01*
X31100Y59400D01*
Y59500D01*
X31050Y59550D01*
X31000D01*
X30950Y59500D01*
Y59350D01*
X30800Y62700D02*
X31050D01*
X31100Y62750D01*
Y62850D01*
X31050Y62900D01*
X30800D01*
X31100Y63000D02*
Y63100D01*
Y63050D01*
X30800D01*
X30850Y63000D01*
X30800Y63250D02*
Y63450D01*
X30850D01*
X31050Y63250D01*
X31100D01*
X30800Y66600D02*
X31050D01*
X31100Y66650D01*
Y66750D01*
X31050Y66800D01*
X30800D01*
X31100Y66900D02*
Y67000D01*
Y66950D01*
X30800D01*
X30850Y66900D01*
Y67150D02*
X30800Y67200D01*
Y67300D01*
X30850Y67350D01*
X30900D01*
X30950Y67300D01*
X31000Y67350D01*
X31050D01*
X31100Y67300D01*
Y67200D01*
X31050Y67150D01*
X31000D01*
X30950Y67200D01*
X30900Y67150D01*
X30850D01*
X30950Y67200D02*
Y67300D01*
X26600Y33900D02*
Y33650D01*
X26650Y33600D01*
X26750D01*
X26800Y33650D01*
Y33900D01*
X26900Y33600D02*
X27000D01*
X26950D01*
Y33900D01*
X26900Y33850D01*
X26600Y37800D02*
Y37550D01*
X26650Y37500D01*
X26750D01*
X26800Y37550D01*
Y37800D01*
X27100Y37500D02*
X26900D01*
X27100Y37700D01*
Y37750D01*
X27050Y37800D01*
X26950D01*
X26900Y37750D01*
X26600Y41700D02*
Y41450D01*
X26650Y41400D01*
X26750D01*
X26800Y41450D01*
Y41700D01*
X26900Y41650D02*
X26950Y41700D01*
X27050D01*
X27100Y41650D01*
Y41600D01*
X27050Y41550D01*
X27000D01*
X27050D01*
X27100Y41500D01*
Y41450D01*
X27050Y41400D01*
X26950D01*
X26900Y41450D01*
X26600Y45600D02*
Y45350D01*
X26650Y45300D01*
X26750D01*
X26800Y45350D01*
Y45600D01*
X27050Y45300D02*
Y45600D01*
X26900Y45450D01*
X27100D01*
X26600Y57300D02*
Y57050D01*
X26650Y57000D01*
X26750D01*
X26800Y57050D01*
Y57300D01*
X27100D02*
X26900D01*
Y57150D01*
X27000Y57200D01*
X27050D01*
X27100Y57150D01*
Y57050D01*
X27050Y57000D01*
X26950D01*
X26900Y57050D01*
X26600Y61200D02*
Y60950D01*
X26650Y60900D01*
X26750D01*
X26800Y60950D01*
Y61200D01*
X27100D02*
X27000Y61150D01*
X26900Y61050D01*
Y60950D01*
X26950Y60900D01*
X27050D01*
X27100Y60950D01*
Y61000D01*
X27050Y61050D01*
X26900D01*
X26600Y65100D02*
Y64850D01*
X26650Y64800D01*
X26750D01*
X26800Y64850D01*
Y65100D01*
X26900D02*
X27100D01*
Y65050D01*
X26900Y64850D01*
Y64800D01*
X26600Y69000D02*
Y68750D01*
X26650Y68700D01*
X26750D01*
X26800Y68750D01*
Y69000D01*
X26900Y68950D02*
X26950Y69000D01*
X27050D01*
X27100Y68950D01*
Y68900D01*
X27050Y68850D01*
X27100Y68800D01*
Y68750D01*
X27050Y68700D01*
X26950D01*
X26900Y68750D01*
Y68800D01*
X26950Y68850D01*
X26900Y68900D01*
Y68950D01*
X26950Y68850D02*
X27050D01*
X48200Y66400D02*
Y66150D01*
X48250Y66100D01*
X48350D01*
X48400Y66150D01*
Y66400D01*
X48700D02*
X48500D01*
Y66250D01*
X48600Y66300D01*
X48650D01*
X48700Y66250D01*
Y66150D01*
X48650Y66100D01*
X48550D01*
X48500Y66150D01*
X48800Y66350D02*
X48850Y66400D01*
X48950D01*
X49000Y66350D01*
Y66300D01*
X48950Y66250D01*
X49000Y66200D01*
Y66150D01*
X48950Y66100D01*
X48850D01*
X48800Y66150D01*
Y66200D01*
X48850Y66250D01*
X48800Y66300D01*
Y66350D01*
X48850Y66250D02*
X48950D01*
X56400Y67000D02*
X56650D01*
X56700Y67050D01*
Y67150D01*
X56650Y67200D01*
X56400D01*
Y67500D02*
X56450Y67400D01*
X56550Y67300D01*
X56650D01*
X56700Y67350D01*
Y67450D01*
X56650Y67500D01*
X56600D01*
X56550Y67450D01*
Y67300D01*
X56450Y67600D02*
X56400Y67650D01*
Y67750D01*
X56450Y67800D01*
X56500D01*
X56550Y67750D01*
X56600Y67800D01*
X56650D01*
X56700Y67750D01*
Y67650D01*
X56650Y67600D01*
X56600D01*
X56550Y67650D01*
X56500Y67600D01*
X56450D01*
X56550Y67650D02*
Y67750D01*
X39400Y32200D02*
X39650D01*
X39700Y32250D01*
Y32350D01*
X39650Y32400D01*
X39400D01*
X39450Y32500D02*
X39400Y32550D01*
Y32650D01*
X39450Y32700D01*
X39500D01*
X39550Y32650D01*
Y32600D01*
Y32650D01*
X39600Y32700D01*
X39650D01*
X39700Y32650D01*
Y32550D01*
X39650Y32500D01*
X39450Y32800D02*
X39400Y32850D01*
Y32950D01*
X39450Y33000D01*
X39650D01*
X39700Y32950D01*
Y32850D01*
X39650Y32800D01*
X39450D01*
X39400Y36100D02*
X39650D01*
X39700Y36150D01*
Y36250D01*
X39650Y36300D01*
X39400D01*
X39450Y36400D02*
X39400Y36450D01*
Y36550D01*
X39450Y36600D01*
X39500D01*
X39550Y36550D01*
Y36500D01*
Y36550D01*
X39600Y36600D01*
X39650D01*
X39700Y36550D01*
Y36450D01*
X39650Y36400D01*
X39700Y36700D02*
Y36800D01*
Y36750D01*
X39400D01*
X39450Y36700D01*
X39500Y40200D02*
X39750D01*
X39800Y40250D01*
Y40350D01*
X39750Y40400D01*
X39500D01*
X39550Y40500D02*
X39500Y40550D01*
Y40650D01*
X39550Y40700D01*
X39600D01*
X39650Y40650D01*
Y40600D01*
Y40650D01*
X39700Y40700D01*
X39750D01*
X39800Y40650D01*
Y40550D01*
X39750Y40500D01*
X39800Y41000D02*
Y40800D01*
X39600Y41000D01*
X39550D01*
X39500Y40950D01*
Y40850D01*
X39550Y40800D01*
X39400Y43900D02*
X39650D01*
X39700Y43950D01*
Y44050D01*
X39650Y44100D01*
X39400D01*
X39450Y44200D02*
X39400Y44250D01*
Y44350D01*
X39450Y44400D01*
X39500D01*
X39550Y44350D01*
Y44300D01*
Y44350D01*
X39600Y44400D01*
X39650D01*
X39700Y44350D01*
Y44250D01*
X39650Y44200D01*
X39450Y44500D02*
X39400Y44550D01*
Y44650D01*
X39450Y44700D01*
X39500D01*
X39550Y44650D01*
Y44600D01*
Y44650D01*
X39600Y44700D01*
X39650D01*
X39700Y44650D01*
Y44550D01*
X39650Y44500D01*
X39400Y47900D02*
X39650D01*
X39700Y47950D01*
Y48050D01*
X39650Y48100D01*
X39400D01*
X39450Y48200D02*
X39400Y48250D01*
Y48350D01*
X39450Y48400D01*
X39500D01*
X39550Y48350D01*
Y48300D01*
Y48350D01*
X39600Y48400D01*
X39650D01*
X39700Y48350D01*
Y48250D01*
X39650Y48200D01*
X39700Y48650D02*
X39400D01*
X39550Y48500D01*
Y48700D01*
X37900Y51100D02*
X38150D01*
X38200Y51150D01*
Y51250D01*
X38150Y51300D01*
X37900D01*
X38200Y51600D02*
Y51400D01*
X38000Y51600D01*
X37950D01*
X37900Y51550D01*
Y51450D01*
X37950Y51400D01*
X38150Y51700D02*
X38200Y51750D01*
Y51850D01*
X38150Y51900D01*
X37950D01*
X37900Y51850D01*
Y51750D01*
X37950Y51700D01*
X38000D01*
X38050Y51750D01*
Y51900D01*
X39400Y55500D02*
X39650D01*
X39700Y55550D01*
Y55650D01*
X39650Y55700D01*
X39400D01*
X39450Y55800D02*
X39400Y55850D01*
Y55950D01*
X39450Y56000D01*
X39500D01*
X39550Y55950D01*
Y55900D01*
Y55950D01*
X39600Y56000D01*
X39650D01*
X39700Y55950D01*
Y55850D01*
X39650Y55800D01*
X39400Y56300D02*
Y56100D01*
X39550D01*
X39500Y56200D01*
Y56250D01*
X39550Y56300D01*
X39650D01*
X39700Y56250D01*
Y56150D01*
X39650Y56100D01*
X39400Y59500D02*
X39650D01*
X39700Y59550D01*
Y59650D01*
X39650Y59700D01*
X39400D01*
X39450Y59800D02*
X39400Y59850D01*
Y59950D01*
X39450Y60000D01*
X39500D01*
X39550Y59950D01*
Y59900D01*
Y59950D01*
X39600Y60000D01*
X39650D01*
X39700Y59950D01*
Y59850D01*
X39650Y59800D01*
X39400Y60300D02*
X39450Y60200D01*
X39550Y60100D01*
X39650D01*
X39700Y60150D01*
Y60250D01*
X39650Y60300D01*
X39600D01*
X39550Y60250D01*
Y60100D01*
X39500Y63300D02*
X39750D01*
X39800Y63350D01*
Y63450D01*
X39750Y63500D01*
X39500D01*
X39550Y63600D02*
X39500Y63650D01*
Y63750D01*
X39550Y63800D01*
X39600D01*
X39650Y63750D01*
Y63700D01*
Y63750D01*
X39700Y63800D01*
X39750D01*
X39800Y63750D01*
Y63650D01*
X39750Y63600D01*
X39500Y63900D02*
Y64100D01*
X39550D01*
X39750Y63900D01*
X39800D01*
X39400Y67300D02*
X39650D01*
X39700Y67350D01*
Y67450D01*
X39650Y67500D01*
X39400D01*
X39450Y67600D02*
X39400Y67650D01*
Y67750D01*
X39450Y67800D01*
X39500D01*
X39550Y67750D01*
Y67700D01*
Y67750D01*
X39600Y67800D01*
X39650D01*
X39700Y67750D01*
Y67650D01*
X39650Y67600D01*
X39450Y67900D02*
X39400Y67950D01*
Y68050D01*
X39450Y68100D01*
X39500D01*
X39550Y68050D01*
X39600Y68100D01*
X39650D01*
X39700Y68050D01*
Y67950D01*
X39650Y67900D01*
X39600D01*
X39550Y67950D01*
X39500Y67900D01*
X39450D01*
X39550Y67950D02*
Y68050D01*
X34000Y31700D02*
X34250D01*
X34300Y31750D01*
Y31850D01*
X34250Y31900D01*
X34000D01*
X34300Y32000D02*
Y32100D01*
Y32050D01*
X34000D01*
X34050Y32000D01*
X34250Y32250D02*
X34300Y32300D01*
Y32400D01*
X34250Y32450D01*
X34050D01*
X34000Y32400D01*
Y32300D01*
X34050Y32250D01*
X34100D01*
X34150Y32300D01*
Y32450D01*
X34000Y35600D02*
X34250D01*
X34300Y35650D01*
Y35750D01*
X34250Y35800D01*
X34000D01*
X34300Y36100D02*
Y35900D01*
X34100Y36100D01*
X34050D01*
X34000Y36050D01*
Y35950D01*
X34050Y35900D01*
Y36200D02*
X34000Y36250D01*
Y36350D01*
X34050Y36400D01*
X34250D01*
X34300Y36350D01*
Y36250D01*
X34250Y36200D01*
X34050D01*
X34000Y39500D02*
X34250D01*
X34300Y39550D01*
Y39650D01*
X34250Y39700D01*
X34000D01*
X34300Y40000D02*
Y39800D01*
X34100Y40000D01*
X34050D01*
X34000Y39950D01*
Y39850D01*
X34050Y39800D01*
X34300Y40100D02*
Y40200D01*
Y40150D01*
X34000D01*
X34050Y40100D01*
X34000Y43400D02*
X34250D01*
X34300Y43450D01*
Y43550D01*
X34250Y43600D01*
X34000D01*
X34300Y43900D02*
Y43700D01*
X34100Y43900D01*
X34050D01*
X34000Y43850D01*
Y43750D01*
X34050Y43700D01*
X34300Y44200D02*
Y44000D01*
X34100Y44200D01*
X34050D01*
X34000Y44150D01*
Y44050D01*
X34050Y44000D01*
X34000Y47300D02*
X34250D01*
X34300Y47350D01*
Y47450D01*
X34250Y47500D01*
X34000D01*
X34300Y47800D02*
Y47600D01*
X34100Y47800D01*
X34050D01*
X34000Y47750D01*
Y47650D01*
X34050Y47600D01*
Y47900D02*
X34000Y47950D01*
Y48050D01*
X34050Y48100D01*
X34100D01*
X34150Y48050D01*
Y48000D01*
Y48050D01*
X34200Y48100D01*
X34250D01*
X34300Y48050D01*
Y47950D01*
X34250Y47900D01*
X34000Y51200D02*
X34250D01*
X34300Y51250D01*
Y51350D01*
X34250Y51400D01*
X34000D01*
X34300Y51700D02*
Y51500D01*
X34100Y51700D01*
X34050D01*
X34000Y51650D01*
Y51550D01*
X34050Y51500D01*
X34300Y51950D02*
X34000D01*
X34150Y51800D01*
Y52000D01*
X34000Y55100D02*
X34250D01*
X34300Y55150D01*
Y55250D01*
X34250Y55300D01*
X34000D01*
X34300Y55600D02*
Y55400D01*
X34100Y55600D01*
X34050D01*
X34000Y55550D01*
Y55450D01*
X34050Y55400D01*
X34000Y55900D02*
Y55700D01*
X34150D01*
X34100Y55800D01*
Y55850D01*
X34150Y55900D01*
X34250D01*
X34300Y55850D01*
Y55750D01*
X34250Y55700D01*
X34000Y59000D02*
X34250D01*
X34300Y59050D01*
Y59150D01*
X34250Y59200D01*
X34000D01*
X34300Y59500D02*
Y59300D01*
X34100Y59500D01*
X34050D01*
X34000Y59450D01*
Y59350D01*
X34050Y59300D01*
X34000Y59800D02*
X34050Y59700D01*
X34150Y59600D01*
X34250D01*
X34300Y59650D01*
Y59750D01*
X34250Y59800D01*
X34200D01*
X34150Y59750D01*
Y59600D01*
X34000Y62900D02*
X34250D01*
X34300Y62950D01*
Y63050D01*
X34250Y63100D01*
X34000D01*
X34300Y63400D02*
Y63200D01*
X34100Y63400D01*
X34050D01*
X34000Y63350D01*
Y63250D01*
X34050Y63200D01*
X34000Y63500D02*
Y63700D01*
X34050D01*
X34250Y63500D01*
X34300D01*
X34000Y66800D02*
X34250D01*
X34300Y66850D01*
Y66950D01*
X34250Y67000D01*
X34000D01*
X34300Y67300D02*
Y67100D01*
X34100Y67300D01*
X34050D01*
X34000Y67250D01*
Y67150D01*
X34050Y67100D01*
Y67400D02*
X34000Y67450D01*
Y67550D01*
X34050Y67600D01*
X34100D01*
X34150Y67550D01*
X34200Y67600D01*
X34250D01*
X34300Y67550D01*
Y67450D01*
X34250Y67400D01*
X34200D01*
X34150Y67450D01*
X34100Y67400D01*
X34050D01*
X34150Y67450D02*
Y67550D01*
X67600Y50000D02*
X67850D01*
X67900Y50050D01*
Y50150D01*
X67850Y50200D01*
X67600D01*
X67650Y50300D02*
X67600Y50350D01*
Y50450D01*
X67650Y50500D01*
X67700D01*
X67750Y50450D01*
X67800Y50500D01*
X67850D01*
X67900Y50450D01*
Y50350D01*
X67850Y50300D01*
X67800D01*
X67750Y50350D01*
X67700Y50300D01*
X67650D01*
X67750Y50350D02*
Y50450D01*
X67650Y50600D02*
X67600Y50650D01*
Y50750D01*
X67650Y50800D01*
X67850D01*
X67900Y50750D01*
Y50650D01*
X67850Y50600D01*
X67650D01*
X69300Y33300D02*
X69550D01*
X69600Y33350D01*
Y33450D01*
X69550Y33500D01*
X69300D01*
X69350Y33600D02*
X69300Y33650D01*
Y33750D01*
X69350Y33800D01*
X69400D01*
X69450Y33750D01*
X69500Y33800D01*
X69550D01*
X69600Y33750D01*
Y33650D01*
X69550Y33600D01*
X69500D01*
X69450Y33650D01*
X69400Y33600D01*
X69350D01*
X69450Y33650D02*
Y33750D01*
X69350Y33900D02*
X69300Y33950D01*
Y34050D01*
X69350Y34100D01*
X69400D01*
X69450Y34050D01*
Y34000D01*
Y34050D01*
X69500Y34100D01*
X69550D01*
X69600Y34050D01*
Y33950D01*
X69550Y33900D01*
X68300Y42900D02*
Y42650D01*
X68350Y42600D01*
X68450D01*
X68500Y42650D01*
Y42900D01*
X68600Y42850D02*
X68650Y42900D01*
X68750D01*
X68800Y42850D01*
Y42800D01*
X68750Y42750D01*
X68800Y42700D01*
Y42650D01*
X68750Y42600D01*
X68650D01*
X68600Y42650D01*
Y42700D01*
X68650Y42750D01*
X68600Y42800D01*
Y42850D01*
X68650Y42750D02*
X68750D01*
X68900Y42600D02*
X69000D01*
X68950D01*
Y42900D01*
X68900Y42850D01*
X62300Y35700D02*
Y35450D01*
X62350Y35400D01*
X62450D01*
X62500Y35450D01*
Y35700D01*
X62800D02*
X62700Y35650D01*
X62600Y35550D01*
Y35450D01*
X62650Y35400D01*
X62750D01*
X62800Y35450D01*
Y35500D01*
X62750Y35550D01*
X62600D01*
X62900Y35450D02*
X62950Y35400D01*
X63050D01*
X63100Y35450D01*
Y35650D01*
X63050Y35700D01*
X62950D01*
X62900Y35650D01*
Y35600D01*
X62950Y35550D01*
X63100D01*
X62300Y43500D02*
Y43250D01*
X62350Y43200D01*
X62450D01*
X62500Y43250D01*
Y43500D01*
X62600D02*
X62800D01*
Y43450D01*
X62600Y43250D01*
Y43200D01*
X62900Y43450D02*
X62950Y43500D01*
X63050D01*
X63100Y43450D01*
Y43250D01*
X63050Y43200D01*
X62950D01*
X62900Y43250D01*
Y43450D01*
X62300Y51300D02*
Y51050D01*
X62350Y51000D01*
X62450D01*
X62500Y51050D01*
Y51300D01*
X62600D02*
X62800D01*
Y51250D01*
X62600Y51050D01*
Y51000D01*
X62900D02*
X63000D01*
X62950D01*
Y51300D01*
X62900Y51250D01*
X62300Y59100D02*
Y58850D01*
X62350Y58800D01*
X62450D01*
X62500Y58850D01*
Y59100D01*
X62600D02*
X62800D01*
Y59050D01*
X62600Y58850D01*
Y58800D01*
X63100D02*
X62900D01*
X63100Y59000D01*
Y59050D01*
X63050Y59100D01*
X62950D01*
X62900Y59050D01*
X62300Y66900D02*
Y66650D01*
X62350Y66600D01*
X62450D01*
X62500Y66650D01*
Y66900D01*
X62600D02*
X62800D01*
Y66850D01*
X62600Y66650D01*
Y66600D01*
X62900Y66850D02*
X62950Y66900D01*
X63050D01*
X63100Y66850D01*
Y66800D01*
X63050Y66750D01*
X63000D01*
X63050D01*
X63100Y66700D01*
Y66650D01*
X63050Y66600D01*
X62950D01*
X62900Y66650D01*
X65700Y65100D02*
Y65400D01*
X65850D01*
X65900Y65350D01*
Y65250D01*
X65850Y65200D01*
X65700D01*
X65800D02*
X65900Y65100D01*
X66000D02*
X66100D01*
X66050D01*
Y65400D01*
X66000Y65350D01*
X66250Y65100D02*
X66350D01*
X66300D01*
Y65400D01*
X66250Y65350D01*
X66700Y65100D02*
X66500D01*
X66700Y65300D01*
Y65350D01*
X66650Y65400D01*
X66550D01*
X66500Y65350D01*
X24400Y31680D02*
X24100D01*
Y31830D01*
X24150Y31880D01*
X24250D01*
X24300Y31830D01*
Y31680D01*
Y31780D02*
X24400Y31880D01*
Y31980D02*
Y32080D01*
Y32030D01*
X24100D01*
X24150Y31980D01*
X24400Y35580D02*
X24100D01*
Y35730D01*
X24150Y35780D01*
X24250D01*
X24300Y35730D01*
Y35580D01*
Y35680D02*
X24400Y35780D01*
Y36080D02*
Y35880D01*
X24200Y36080D01*
X24150D01*
X24100Y36030D01*
Y35930D01*
X24150Y35880D01*
X24400Y39480D02*
X24100D01*
Y39630D01*
X24150Y39680D01*
X24250D01*
X24300Y39630D01*
Y39480D01*
Y39580D02*
X24400Y39680D01*
X24150Y39780D02*
X24100Y39830D01*
Y39930D01*
X24150Y39980D01*
X24200D01*
X24250Y39930D01*
Y39880D01*
Y39930D01*
X24300Y39980D01*
X24350D01*
X24400Y39930D01*
Y39830D01*
X24350Y39780D01*
X24400Y43380D02*
X24100D01*
Y43530D01*
X24150Y43580D01*
X24250D01*
X24300Y43530D01*
Y43380D01*
Y43480D02*
X24400Y43580D01*
Y43830D02*
X24100D01*
X24250Y43680D01*
Y43880D01*
X24400Y55080D02*
X24100D01*
Y55230D01*
X24150Y55280D01*
X24250D01*
X24300Y55230D01*
Y55080D01*
Y55180D02*
X24400Y55280D01*
X24100Y55580D02*
Y55380D01*
X24250D01*
X24200Y55480D01*
Y55530D01*
X24250Y55580D01*
X24350D01*
X24400Y55530D01*
Y55430D01*
X24350Y55380D01*
X24400Y58980D02*
X24100D01*
Y59130D01*
X24150Y59180D01*
X24250D01*
X24300Y59130D01*
Y58980D01*
Y59080D02*
X24400Y59180D01*
X24100Y59480D02*
X24150Y59380D01*
X24250Y59280D01*
X24350D01*
X24400Y59330D01*
Y59430D01*
X24350Y59480D01*
X24300D01*
X24250Y59430D01*
Y59280D01*
X24400Y62880D02*
X24100D01*
Y63030D01*
X24150Y63080D01*
X24250D01*
X24300Y63030D01*
Y62880D01*
Y62980D02*
X24400Y63080D01*
X24100Y63180D02*
Y63380D01*
X24150D01*
X24350Y63180D01*
X24400D01*
Y66780D02*
X24100D01*
Y66930D01*
X24150Y66980D01*
X24250D01*
X24300Y66930D01*
Y66780D01*
Y66880D02*
X24400Y66980D01*
X24150Y67080D02*
X24100Y67130D01*
Y67230D01*
X24150Y67280D01*
X24200D01*
X24250Y67230D01*
X24300Y67280D01*
X24350D01*
X24400Y67230D01*
Y67130D01*
X24350Y67080D01*
X24300D01*
X24250Y67130D01*
X24200Y67080D01*
X24150D01*
X24250Y67130D02*
Y67230D01*
X29000Y33500D02*
Y33800D01*
X29150D01*
X29200Y33750D01*
Y33650D01*
X29150Y33600D01*
X29000D01*
X29100D02*
X29200Y33500D01*
X29300Y33550D02*
X29350Y33500D01*
X29450D01*
X29500Y33550D01*
Y33750D01*
X29450Y33800D01*
X29350D01*
X29300Y33750D01*
Y33700D01*
X29350Y33650D01*
X29500D01*
X29000Y37400D02*
Y37700D01*
X29150D01*
X29200Y37650D01*
Y37550D01*
X29150Y37500D01*
X29000D01*
X29100D02*
X29200Y37400D01*
X29300D02*
X29400D01*
X29350D01*
Y37700D01*
X29300Y37650D01*
X29550D02*
X29600Y37700D01*
X29700D01*
X29750Y37650D01*
Y37450D01*
X29700Y37400D01*
X29600D01*
X29550Y37450D01*
Y37650D01*
X29000Y41300D02*
Y41600D01*
X29150D01*
X29200Y41550D01*
Y41450D01*
X29150Y41400D01*
X29000D01*
X29100D02*
X29200Y41300D01*
X29300D02*
X29400D01*
X29350D01*
Y41600D01*
X29300Y41550D01*
X29550Y41300D02*
X29650D01*
X29600D01*
Y41600D01*
X29550Y41550D01*
X29000Y45200D02*
Y45500D01*
X29150D01*
X29200Y45450D01*
Y45350D01*
X29150Y45300D01*
X29000D01*
X29100D02*
X29200Y45200D01*
X29300D02*
X29400D01*
X29350D01*
Y45500D01*
X29300Y45450D01*
X29750Y45200D02*
X29550D01*
X29750Y45400D01*
Y45450D01*
X29700Y45500D01*
X29600D01*
X29550Y45450D01*
X29000Y56900D02*
Y57200D01*
X29150D01*
X29200Y57150D01*
Y57050D01*
X29150Y57000D01*
X29000D01*
X29100D02*
X29200Y56900D01*
X29300D02*
X29400D01*
X29350D01*
Y57200D01*
X29300Y57150D01*
X29550D02*
X29600Y57200D01*
X29700D01*
X29750Y57150D01*
Y57100D01*
X29700Y57050D01*
X29650D01*
X29700D01*
X29750Y57000D01*
Y56950D01*
X29700Y56900D01*
X29600D01*
X29550Y56950D01*
X29000Y60800D02*
Y61100D01*
X29150D01*
X29200Y61050D01*
Y60950D01*
X29150Y60900D01*
X29000D01*
X29100D02*
X29200Y60800D01*
X29300D02*
X29400D01*
X29350D01*
Y61100D01*
X29300Y61050D01*
X29700Y60800D02*
Y61100D01*
X29550Y60950D01*
X29750D01*
X29000Y64700D02*
Y65000D01*
X29150D01*
X29200Y64950D01*
Y64850D01*
X29150Y64800D01*
X29000D01*
X29100D02*
X29200Y64700D01*
X29300D02*
X29400D01*
X29350D01*
Y65000D01*
X29300Y64950D01*
X29750Y65000D02*
X29550D01*
Y64850D01*
X29650Y64900D01*
X29700D01*
X29750Y64850D01*
Y64750D01*
X29700Y64700D01*
X29600D01*
X29550Y64750D01*
X29000Y68600D02*
Y68900D01*
X29150D01*
X29200Y68850D01*
Y68750D01*
X29150Y68700D01*
X29000D01*
X29100D02*
X29200Y68600D01*
X29300D02*
X29400D01*
X29350D01*
Y68900D01*
X29300Y68850D01*
X29750Y68900D02*
X29650Y68850D01*
X29550Y68750D01*
Y68650D01*
X29600Y68600D01*
X29700D01*
X29750Y68650D01*
Y68700D01*
X29700Y68750D01*
X29550D01*
X45400Y66700D02*
Y67000D01*
X45550D01*
X45600Y66950D01*
Y66850D01*
X45550Y66800D01*
X45400D01*
X45500D02*
X45600Y66700D01*
X45900Y67000D02*
X45700D01*
Y66850D01*
X45800Y66900D01*
X45850D01*
X45900Y66850D01*
Y66750D01*
X45850Y66700D01*
X45750D01*
X45700Y66750D01*
X46200Y67000D02*
X46000D01*
Y66850D01*
X46100Y66900D01*
X46150D01*
X46200Y66850D01*
Y66750D01*
X46150Y66700D01*
X46050D01*
X46000Y66750D01*
X44000Y68400D02*
X43700D01*
Y68550D01*
X43750Y68600D01*
X43850D01*
X43900Y68550D01*
Y68400D01*
Y68500D02*
X44000Y68600D01*
X43750Y68700D02*
X43700Y68750D01*
Y68850D01*
X43750Y68900D01*
X43800D01*
X43850Y68850D01*
Y68800D01*
Y68850D01*
X43900Y68900D01*
X43950D01*
X44000Y68850D01*
Y68750D01*
X43950Y68700D01*
X43700Y69200D02*
X43750Y69100D01*
X43850Y69000D01*
X43950D01*
X44000Y69050D01*
Y69150D01*
X43950Y69200D01*
X43900D01*
X43850Y69150D01*
Y69000D01*
X49900Y68500D02*
Y68800D01*
X50050D01*
X50100Y68750D01*
Y68650D01*
X50050Y68600D01*
X49900D01*
X50000D02*
X50100Y68500D01*
X50400Y68800D02*
X50300Y68750D01*
X50200Y68650D01*
Y68550D01*
X50250Y68500D01*
X50350D01*
X50400Y68550D01*
Y68600D01*
X50350Y68650D01*
X50200D01*
X50700Y68800D02*
X50600Y68750D01*
X50500Y68650D01*
Y68550D01*
X50550Y68500D01*
X50650D01*
X50700Y68550D01*
Y68600D01*
X50650Y68650D01*
X50500D01*
X46000Y67500D02*
Y67200D01*
X45850D01*
X45800Y67250D01*
Y67350D01*
X45850Y67400D01*
X46000D01*
X45900D02*
X45800Y67500D01*
X45500Y67200D02*
X45700D01*
Y67350D01*
X45600Y67300D01*
X45550D01*
X45500Y67350D01*
Y67450D01*
X45550Y67500D01*
X45650D01*
X45700Y67450D01*
X45200Y67200D02*
X45300Y67250D01*
X45400Y67350D01*
Y67450D01*
X45350Y67500D01*
X45250D01*
X45200Y67450D01*
Y67400D01*
X45250Y67350D01*
X45400D01*
X50900Y69100D02*
Y69400D01*
X51050D01*
X51100Y69350D01*
Y69250D01*
X51050Y69200D01*
X50900D01*
X51000D02*
X51100Y69100D01*
X51200Y69400D02*
X51400D01*
Y69350D01*
X51200Y69150D01*
Y69100D01*
X51700Y69400D02*
X51600Y69350D01*
X51500Y69250D01*
Y69150D01*
X51550Y69100D01*
X51650D01*
X51700Y69150D01*
Y69200D01*
X51650Y69250D01*
X51500D01*
X43800Y65900D02*
X43500D01*
Y66050D01*
X43550Y66100D01*
X43650D01*
X43700Y66050D01*
Y65900D01*
Y66000D02*
X43800Y66100D01*
X43550Y66200D02*
X43500Y66250D01*
Y66350D01*
X43550Y66400D01*
X43600D01*
X43650Y66350D01*
Y66300D01*
Y66350D01*
X43700Y66400D01*
X43750D01*
X43800Y66350D01*
Y66250D01*
X43750Y66200D01*
X43500Y66700D02*
Y66500D01*
X43650D01*
X43600Y66600D01*
Y66650D01*
X43650Y66700D01*
X43750D01*
X43800Y66650D01*
Y66550D01*
X43750Y66500D01*
X52900Y69200D02*
Y69500D01*
X53050D01*
X53100Y69450D01*
Y69350D01*
X53050Y69300D01*
X52900D01*
X53000D02*
X53100Y69200D01*
X53200D02*
X53300D01*
X53250D01*
Y69500D01*
X53200Y69450D01*
X53450D02*
X53500Y69500D01*
X53600D01*
X53650Y69450D01*
Y69250D01*
X53600Y69200D01*
X53500D01*
X53450Y69250D01*
Y69450D01*
X53950Y69500D02*
X53850Y69450D01*
X53750Y69350D01*
Y69250D01*
X53800Y69200D01*
X53900D01*
X53950Y69250D01*
Y69300D01*
X53900Y69350D01*
X53750D01*
X54000Y67100D02*
X54300D01*
Y66950D01*
X54250Y66900D01*
X54150D01*
X54100Y66950D01*
Y67100D01*
Y67000D02*
X54000Y66900D01*
Y66800D02*
Y66700D01*
Y66750D01*
X54300D01*
X54250Y66800D01*
Y66550D02*
X54300Y66500D01*
Y66400D01*
X54250Y66350D01*
X54050D01*
X54000Y66400D01*
Y66500D01*
X54050Y66550D01*
X54250D01*
X54300Y66050D02*
Y66250D01*
X54150D01*
X54200Y66150D01*
Y66100D01*
X54150Y66050D01*
X54050D01*
X54000Y66100D01*
Y66200D01*
X54050Y66250D01*
X73400Y48400D02*
X73100D01*
Y48550D01*
X73150Y48600D01*
X73250D01*
X73300Y48550D01*
Y48400D01*
Y48500D02*
X73400Y48600D01*
Y48700D02*
Y48800D01*
Y48750D01*
X73100D01*
X73150Y48700D01*
X73400Y48950D02*
Y49050D01*
Y49000D01*
X73100D01*
X73150Y48950D01*
X73100Y49200D02*
Y49400D01*
X73150D01*
X73350Y49200D01*
X73400D01*
X73600Y51500D02*
Y51800D01*
X73750D01*
X73800Y51750D01*
Y51650D01*
X73750Y51600D01*
X73600D01*
X73700D02*
X73800Y51500D01*
X73900D02*
X74000D01*
X73950D01*
Y51800D01*
X73900Y51750D01*
X74150Y51500D02*
X74250D01*
X74200D01*
Y51800D01*
X74150Y51750D01*
X74400D02*
X74450Y51800D01*
X74550D01*
X74600Y51750D01*
Y51700D01*
X74550Y51650D01*
X74600Y51600D01*
Y51550D01*
X74550Y51500D01*
X74450D01*
X74400Y51550D01*
Y51600D01*
X74450Y51650D01*
X74400Y51700D01*
Y51750D01*
X74450Y51650D02*
X74550D01*
X74000Y43700D02*
Y43400D01*
X73850D01*
X73800Y43450D01*
Y43550D01*
X73850Y43600D01*
X74000D01*
X73900D02*
X73800Y43700D01*
X73700D02*
X73600D01*
X73650D01*
Y43400D01*
X73700Y43450D01*
X73450Y43700D02*
X73350D01*
X73400D01*
Y43400D01*
X73450Y43450D01*
X73200D02*
X73150Y43400D01*
X73050D01*
X73000Y43450D01*
Y43500D01*
X73050Y43550D01*
X73100D01*
X73050D01*
X73000Y43600D01*
Y43650D01*
X73050Y43700D01*
X73150D01*
X73200Y43650D01*
X74500Y45700D02*
Y45400D01*
X74350D01*
X74300Y45450D01*
Y45550D01*
X74350Y45600D01*
X74500D01*
X74400D02*
X74300Y45700D01*
X74200D02*
X74100D01*
X74150D01*
Y45400D01*
X74200Y45450D01*
X73950Y45700D02*
X73850D01*
X73900D01*
Y45400D01*
X73950Y45450D01*
X73500Y45400D02*
X73600Y45450D01*
X73700Y45550D01*
Y45650D01*
X73650Y45700D01*
X73550D01*
X73500Y45650D01*
Y45600D01*
X73550Y45550D01*
X73700D01*
X72560Y52900D02*
Y53200D01*
X72710D01*
X72760Y53150D01*
Y53050D01*
X72710Y53000D01*
X72560D01*
X72660D02*
X72760Y52900D01*
X72860D02*
X72960D01*
X72910D01*
Y53200D01*
X72860Y53150D01*
X73110Y52900D02*
X73210D01*
X73160D01*
Y53200D01*
X73110Y53150D01*
X73560Y53200D02*
X73360D01*
Y53050D01*
X73460Y53100D01*
X73510D01*
X73560Y53050D01*
Y52950D01*
X73510Y52900D01*
X73410D01*
X73360Y52950D01*
X72480Y49300D02*
X72180D01*
Y49450D01*
X72230Y49500D01*
X72330D01*
X72380Y49450D01*
Y49300D01*
Y49400D02*
X72480Y49500D01*
Y49600D02*
Y49700D01*
Y49650D01*
X72180D01*
X72230Y49600D01*
X72480Y49850D02*
Y49950D01*
Y49900D01*
X72180D01*
X72230Y49850D01*
X72480Y50250D02*
X72180D01*
X72330Y50100D01*
Y50300D01*
X56900Y36900D02*
Y37200D01*
X57050D01*
X57100Y37150D01*
Y37050D01*
X57050Y37000D01*
X56900D01*
X57000D02*
X57100Y36900D01*
X57200D02*
X57300D01*
X57250D01*
Y37200D01*
X57200Y37150D01*
X57450D02*
X57500Y37200D01*
X57600D01*
X57650Y37150D01*
Y36950D01*
X57600Y36900D01*
X57500D01*
X57450Y36950D01*
Y37150D01*
X57750Y37200D02*
X57950D01*
Y37150D01*
X57750Y36950D01*
Y36900D01*
X56900Y44700D02*
Y45000D01*
X57050D01*
X57100Y44950D01*
Y44850D01*
X57050Y44800D01*
X56900D01*
X57000D02*
X57100Y44700D01*
X57200D02*
X57300D01*
X57250D01*
Y45000D01*
X57200Y44950D01*
X57450D02*
X57500Y45000D01*
X57600D01*
X57650Y44950D01*
Y44750D01*
X57600Y44700D01*
X57500D01*
X57450Y44750D01*
Y44950D01*
X57750D02*
X57800Y45000D01*
X57900D01*
X57950Y44950D01*
Y44900D01*
X57900Y44850D01*
X57950Y44800D01*
Y44750D01*
X57900Y44700D01*
X57800D01*
X57750Y44750D01*
Y44800D01*
X57800Y44850D01*
X57750Y44900D01*
Y44950D01*
X57800Y44850D02*
X57900D01*
X56900Y52600D02*
Y52900D01*
X57050D01*
X57100Y52850D01*
Y52750D01*
X57050Y52700D01*
X56900D01*
X57000D02*
X57100Y52600D01*
X57200D02*
X57300D01*
X57250D01*
Y52900D01*
X57200Y52850D01*
X57450D02*
X57500Y52900D01*
X57600D01*
X57650Y52850D01*
Y52650D01*
X57600Y52600D01*
X57500D01*
X57450Y52650D01*
Y52850D01*
X57750Y52650D02*
X57800Y52600D01*
X57900D01*
X57950Y52650D01*
Y52850D01*
X57900Y52900D01*
X57800D01*
X57750Y52850D01*
Y52800D01*
X57800Y52750D01*
X57950D01*
X57100Y60600D02*
Y60900D01*
X57250D01*
X57300Y60850D01*
Y60750D01*
X57250Y60700D01*
X57100D01*
X57200D02*
X57300Y60600D01*
X57400D02*
X57500D01*
X57450D01*
Y60900D01*
X57400Y60850D01*
X57650Y60600D02*
X57750D01*
X57700D01*
Y60900D01*
X57650Y60850D01*
X57900Y60600D02*
X58000D01*
X57950D01*
Y60900D01*
X57900Y60850D01*
X56800Y68100D02*
Y68400D01*
X56950D01*
X57000Y68350D01*
Y68250D01*
X56950Y68200D01*
X56800D01*
X56900D02*
X57000Y68100D01*
X57100D02*
X57200D01*
X57150D01*
Y68400D01*
X57100Y68350D01*
X57350Y68100D02*
X57450D01*
X57400D01*
Y68400D01*
X57350Y68350D01*
X57600D02*
X57650Y68400D01*
X57750D01*
X57800Y68350D01*
Y68150D01*
X57750Y68100D01*
X57650D01*
X57600Y68150D01*
Y68350D01*
X74500Y49750D02*
Y49650D01*
X74550Y49600D01*
X74750D01*
X74800Y49650D01*
Y49750D01*
X74750Y49800D01*
X74550D01*
X74500Y49750D01*
X74550Y49900D02*
X74500Y49950D01*
Y50050D01*
X74550Y50100D01*
X74600D01*
X74650Y50050D01*
Y50000D01*
Y50050D01*
X74700Y50100D01*
X74750D01*
X74800Y50050D01*
Y49950D01*
X74750Y49900D01*
X75450Y43400D02*
X75550D01*
X75600Y43450D01*
Y43650D01*
X75550Y43700D01*
X75450D01*
X75400Y43650D01*
Y43450D01*
X75450Y43400D01*
X75100Y43700D02*
X75300D01*
X75100Y43500D01*
Y43450D01*
X75150Y43400D01*
X75250D01*
X75300Y43450D01*
X72050Y33600D02*
X71950D01*
X71900Y33550D01*
Y33350D01*
X71950Y33300D01*
X72050D01*
X72100Y33350D01*
Y33550D01*
X72050Y33600D01*
X72200Y33300D02*
X72300D01*
X72250D01*
Y33600D01*
X72200Y33550D01*
X68000Y65300D02*
Y65000D01*
X68200D01*
X68500D02*
X68300D01*
X68500Y65200D01*
Y65250D01*
X68450Y65300D01*
X68350D01*
X68300Y65250D01*
X74700Y67300D02*
Y67600D01*
X74850D01*
X74900Y67550D01*
Y67450D01*
X74850Y67400D01*
X74700D01*
X75150Y67600D02*
X75050D01*
X75000Y67550D01*
Y67350D01*
X75050Y67300D01*
X75150D01*
X75200Y67350D01*
Y67550D01*
X75150Y67600D01*
X75300D02*
Y67300D01*
X75400Y67400D01*
X75500Y67300D01*
Y67600D01*
X75800D02*
X75600D01*
Y67300D01*
X75800D01*
X75600Y67450D02*
X75700D01*
X75900Y67300D02*
Y67600D01*
X76050D01*
X76100Y67550D01*
Y67450D01*
X76050Y67400D01*
X75900D01*
X76000D02*
X76100Y67300D01*
X76200Y67450D02*
X76399D01*
X76499Y67300D02*
Y67500D01*
X76599Y67600D01*
X76699Y67500D01*
Y67300D01*
Y67450D01*
X76499D01*
X76799Y67300D02*
X76899D01*
X76849D01*
Y67600D01*
X76799Y67550D01*
X74800Y59600D02*
Y59900D01*
X74950D01*
X75000Y59850D01*
Y59750D01*
X74950Y59700D01*
X74800D01*
X75250Y59900D02*
X75150D01*
X75100Y59850D01*
Y59650D01*
X75150Y59600D01*
X75250D01*
X75300Y59650D01*
Y59850D01*
X75250Y59900D01*
X75400D02*
Y59600D01*
X75500Y59700D01*
X75600Y59600D01*
Y59900D01*
X75900D02*
X75700D01*
Y59600D01*
X75900D01*
X75700Y59750D02*
X75800D01*
X76000Y59600D02*
Y59900D01*
X76150D01*
X76200Y59850D01*
Y59750D01*
X76150Y59700D01*
X76000D01*
X76100D02*
X76200Y59600D01*
X76300Y59750D02*
X76499D01*
X76599Y59900D02*
Y59600D01*
X76749D01*
X76799Y59650D01*
Y59850D01*
X76749Y59900D01*
X76599D01*
X76899Y59600D02*
X76999D01*
X76949D01*
Y59900D01*
X76899Y59850D01*
X20730Y56200D02*
X20630D01*
X20680D01*
Y55950D01*
X20630Y55900D01*
X20580D01*
X20530Y55950D01*
X20830Y55900D02*
Y56200D01*
X20980D01*
X21030Y56150D01*
Y56050D01*
X20980Y56000D01*
X20830D01*
X21130Y55900D02*
X21230D01*
X21180D01*
Y56200D01*
X21130Y56150D01*
X77100Y42700D02*
Y42600D01*
Y42650D01*
X77350D01*
X77400Y42600D01*
Y42550D01*
X77350Y42500D01*
X77400Y42800D02*
X77100D01*
Y42950D01*
X77150Y43000D01*
X77250D01*
X77300Y42950D01*
Y42800D01*
X77150Y43100D02*
X77100Y43150D01*
Y43250D01*
X77150Y43300D01*
X77200D01*
X77250Y43250D01*
Y43200D01*
Y43250D01*
X77300Y43300D01*
X77350D01*
X77400Y43250D01*
Y43150D01*
X77350Y43100D01*
X23450Y50700D02*
X23400Y50650D01*
Y50550D01*
X23450Y50500D01*
X23650D01*
X23700Y50550D01*
Y50650D01*
X23650Y50700D01*
X23700Y51000D02*
Y50800D01*
X23500Y51000D01*
X23450D01*
X23400Y50950D01*
Y50850D01*
X23450Y50800D01*
X68950Y34200D02*
X69000Y34250D01*
Y34350D01*
X68950Y34400D01*
X68750D01*
X68700Y34350D01*
Y34250D01*
X68750Y34200D01*
Y34100D02*
X68700Y34050D01*
Y33950D01*
X68750Y33900D01*
X68950D01*
X69000Y33950D01*
Y34050D01*
X68950Y34100D01*
X68900D01*
X68850Y34050D01*
Y33900D01*
X68950Y33800D02*
X69000Y33750D01*
Y33650D01*
X68950Y33600D01*
X68900D01*
X68850Y33650D01*
Y33700D01*
Y33650D01*
X68800Y33600D01*
X68750D01*
X68700Y33650D01*
Y33750D01*
X68750Y33800D01*
X69500Y47850D02*
X69450Y47900D01*
X69350D01*
X69300Y47850D01*
Y47650D01*
X69350Y47600D01*
X69450D01*
X69500Y47650D01*
X69600D02*
X69650Y47600D01*
X69750D01*
X69800Y47650D01*
Y47850D01*
X69750Y47900D01*
X69650D01*
X69600Y47850D01*
Y47800D01*
X69650Y47750D01*
X69800D01*
X70100Y47900D02*
X70000Y47850D01*
X69900Y47750D01*
Y47650D01*
X69950Y47600D01*
X70050D01*
X70100Y47650D01*
Y47700D01*
X70050Y47750D01*
X69900D01*
X66300Y60050D02*
X66250Y60100D01*
X66150D01*
X66100Y60050D01*
Y59850D01*
X66150Y59800D01*
X66250D01*
X66300Y59850D01*
X66400D02*
X66450Y59800D01*
X66550D01*
X66600Y59850D01*
Y60050D01*
X66550Y60100D01*
X66450D01*
X66400Y60050D01*
Y60000D01*
X66450Y59950D01*
X66600D01*
X66900Y59800D02*
X66700D01*
X66900Y60000D01*
Y60050D01*
X66850Y60100D01*
X66750D01*
X66700Y60050D01*
X64600Y63650D02*
X64550Y63700D01*
X64450D01*
X64400Y63650D01*
Y63450D01*
X64450Y63400D01*
X64550D01*
X64600Y63450D01*
X64700D02*
X64750Y63400D01*
X64850D01*
X64900Y63450D01*
Y63650D01*
X64850Y63700D01*
X64750D01*
X64700Y63650D01*
Y63600D01*
X64750Y63550D01*
X64900D01*
X65000Y63650D02*
X65050Y63700D01*
X65150D01*
X65200Y63650D01*
Y63450D01*
X65150Y63400D01*
X65050D01*
X65000Y63450D01*
Y63650D01*
X67000D02*
X66950Y63700D01*
X66850D01*
X66800Y63650D01*
Y63450D01*
X66850Y63400D01*
X66950D01*
X67000Y63450D01*
X67100D02*
X67150Y63400D01*
X67250D01*
X67300Y63450D01*
Y63650D01*
X67250Y63700D01*
X67150D01*
X67100Y63650D01*
Y63600D01*
X67150Y63550D01*
X67300D01*
X67550Y63400D02*
Y63700D01*
X67400Y63550D01*
X67600D01*
X64700Y69170D02*
X64650Y69220D01*
X64550D01*
X64500Y69170D01*
Y68970D01*
X64550Y68920D01*
X64650D01*
X64700Y68970D01*
X64800D02*
X64850Y68920D01*
X64950D01*
X65000Y68970D01*
Y69170D01*
X64950Y69220D01*
X64850D01*
X64800Y69170D01*
Y69120D01*
X64850Y69070D01*
X65000D01*
X65100Y68920D02*
X65200D01*
X65150D01*
Y69220D01*
X65100Y69170D01*
X67100D02*
X67050Y69220D01*
X66950D01*
X66900Y69170D01*
Y68970D01*
X66950Y68920D01*
X67050D01*
X67100Y68970D01*
X67200D02*
X67250Y68920D01*
X67350D01*
X67400Y68970D01*
Y69170D01*
X67350Y69220D01*
X67250D01*
X67200Y69170D01*
Y69120D01*
X67250Y69070D01*
X67400D01*
X67700Y69220D02*
X67500D01*
Y69070D01*
X67600Y69120D01*
X67650D01*
X67700Y69070D01*
Y68970D01*
X67650Y68920D01*
X67550D01*
X67500Y68970D01*
X29200Y31250D02*
X29150Y31300D01*
X29050D01*
X29000Y31250D01*
Y31050D01*
X29050Y31000D01*
X29150D01*
X29200Y31050D01*
X29300Y31250D02*
X29350Y31300D01*
X29450D01*
X29500Y31250D01*
Y31200D01*
X29450Y31150D01*
X29400D01*
X29450D01*
X29500Y31100D01*
Y31050D01*
X29450Y31000D01*
X29350D01*
X29300Y31050D01*
X29200Y35150D02*
X29150Y35200D01*
X29050D01*
X29000Y35150D01*
Y34950D01*
X29050Y34900D01*
X29150D01*
X29200Y34950D01*
X29450Y34900D02*
Y35200D01*
X29300Y35050D01*
X29500D01*
X29200Y39050D02*
X29150Y39100D01*
X29050D01*
X29000Y39050D01*
Y38850D01*
X29050Y38800D01*
X29150D01*
X29200Y38850D01*
X29500Y39100D02*
X29300D01*
Y38950D01*
X29400Y39000D01*
X29450D01*
X29500Y38950D01*
Y38850D01*
X29450Y38800D01*
X29350D01*
X29300Y38850D01*
X29200Y42950D02*
X29150Y43000D01*
X29050D01*
X29000Y42950D01*
Y42750D01*
X29050Y42700D01*
X29150D01*
X29200Y42750D01*
X29500Y43000D02*
X29400Y42950D01*
X29300Y42850D01*
Y42750D01*
X29350Y42700D01*
X29450D01*
X29500Y42750D01*
Y42800D01*
X29450Y42850D01*
X29300D01*
X29200Y54650D02*
X29150Y54700D01*
X29050D01*
X29000Y54650D01*
Y54450D01*
X29050Y54400D01*
X29150D01*
X29200Y54450D01*
X29300Y54700D02*
X29500D01*
Y54650D01*
X29300Y54450D01*
Y54400D01*
X29200Y58550D02*
X29150Y58600D01*
X29050D01*
X29000Y58550D01*
Y58350D01*
X29050Y58300D01*
X29150D01*
X29200Y58350D01*
X29300Y58550D02*
X29350Y58600D01*
X29450D01*
X29500Y58550D01*
Y58500D01*
X29450Y58450D01*
X29500Y58400D01*
Y58350D01*
X29450Y58300D01*
X29350D01*
X29300Y58350D01*
Y58400D01*
X29350Y58450D01*
X29300Y58500D01*
Y58550D01*
X29350Y58450D02*
X29450D01*
X29200Y62450D02*
X29150Y62500D01*
X29050D01*
X29000Y62450D01*
Y62250D01*
X29050Y62200D01*
X29150D01*
X29200Y62250D01*
X29300D02*
X29350Y62200D01*
X29450D01*
X29500Y62250D01*
Y62450D01*
X29450Y62500D01*
X29350D01*
X29300Y62450D01*
Y62400D01*
X29350Y62350D01*
X29500D01*
X29200Y66350D02*
X29150Y66400D01*
X29050D01*
X29000Y66350D01*
Y66150D01*
X29050Y66100D01*
X29150D01*
X29200Y66150D01*
X29300Y66100D02*
X29400D01*
X29350D01*
Y66400D01*
X29300Y66350D01*
X29550D02*
X29600Y66400D01*
X29700D01*
X29750Y66350D01*
Y66150D01*
X29700Y66100D01*
X29600D01*
X29550Y66150D01*
Y66350D01*
X56350Y66900D02*
X56400Y66950D01*
Y67050D01*
X56350Y67100D01*
X56150D01*
X56100Y67050D01*
Y66950D01*
X56150Y66900D01*
X56400Y66600D02*
Y66800D01*
X56250D01*
X56300Y66700D01*
Y66650D01*
X56250Y66600D01*
X56150D01*
X56100Y66650D01*
Y66750D01*
X56150Y66800D01*
Y66500D02*
X56100Y66450D01*
Y66350D01*
X56150Y66300D01*
X56350D01*
X56400Y66350D01*
Y66450D01*
X56350Y66500D01*
X56300D01*
X56250Y66450D01*
Y66300D01*
X50950Y66600D02*
X50900Y66550D01*
Y66450D01*
X50950Y66400D01*
X51150D01*
X51200Y66450D01*
Y66550D01*
X51150Y66600D01*
X51200Y66850D02*
X50900D01*
X51050Y66700D01*
Y66900D01*
X50950Y67000D02*
X50900Y67050D01*
Y67150D01*
X50950Y67200D01*
X51150D01*
X51200Y67150D01*
Y67050D01*
X51150Y67000D01*
X50950D01*
X56500Y69250D02*
X56450Y69300D01*
X56350D01*
X56300Y69250D01*
Y69050D01*
X56350Y69000D01*
X56450D01*
X56500Y69050D01*
X56800Y69300D02*
X56700Y69250D01*
X56600Y69150D01*
Y69050D01*
X56650Y69000D01*
X56750D01*
X56800Y69050D01*
Y69100D01*
X56750Y69150D01*
X56600D01*
X56900Y69250D02*
X56950Y69300D01*
X57050D01*
X57100Y69250D01*
Y69050D01*
X57050Y69000D01*
X56950D01*
X56900Y69050D01*
Y69250D01*
X36100Y33950D02*
X36050Y34000D01*
X35950D01*
X35900Y33950D01*
Y33750D01*
X35950Y33700D01*
X36050D01*
X36100Y33750D01*
X36200Y33700D02*
X36300D01*
X36250D01*
Y34000D01*
X36200Y33950D01*
X36450Y33700D02*
X36550D01*
X36500D01*
Y34000D01*
X36450Y33950D01*
X36100Y37850D02*
X36050Y37900D01*
X35950D01*
X35900Y37850D01*
Y37650D01*
X35950Y37600D01*
X36050D01*
X36100Y37650D01*
X36200Y37600D02*
X36300D01*
X36250D01*
Y37900D01*
X36200Y37850D01*
X36650Y37600D02*
X36450D01*
X36650Y37800D01*
Y37850D01*
X36600Y37900D01*
X36500D01*
X36450Y37850D01*
X36100Y41750D02*
X36050Y41800D01*
X35950D01*
X35900Y41750D01*
Y41550D01*
X35950Y41500D01*
X36050D01*
X36100Y41550D01*
X36200Y41500D02*
X36300D01*
X36250D01*
Y41800D01*
X36200Y41750D01*
X36450D02*
X36500Y41800D01*
X36600D01*
X36650Y41750D01*
Y41700D01*
X36600Y41650D01*
X36550D01*
X36600D01*
X36650Y41600D01*
Y41550D01*
X36600Y41500D01*
X36500D01*
X36450Y41550D01*
X36100Y45650D02*
X36050Y45700D01*
X35950D01*
X35900Y45650D01*
Y45450D01*
X35950Y45400D01*
X36050D01*
X36100Y45450D01*
X36200Y45400D02*
X36300D01*
X36250D01*
Y45700D01*
X36200Y45650D01*
X36600Y45400D02*
Y45700D01*
X36450Y45550D01*
X36650D01*
X36100Y49550D02*
X36050Y49600D01*
X35950D01*
X35900Y49550D01*
Y49350D01*
X35950Y49300D01*
X36050D01*
X36100Y49350D01*
X36200Y49300D02*
X36300D01*
X36250D01*
Y49600D01*
X36200Y49550D01*
X36650Y49600D02*
X36450D01*
Y49450D01*
X36550Y49500D01*
X36600D01*
X36650Y49450D01*
Y49350D01*
X36600Y49300D01*
X36500D01*
X36450Y49350D01*
X36200Y53450D02*
X36150Y53500D01*
X36050D01*
X36000Y53450D01*
Y53250D01*
X36050Y53200D01*
X36150D01*
X36200Y53250D01*
X36300Y53200D02*
X36400D01*
X36350D01*
Y53500D01*
X36300Y53450D01*
X36750Y53500D02*
X36650Y53450D01*
X36550Y53350D01*
Y53250D01*
X36600Y53200D01*
X36700D01*
X36750Y53250D01*
Y53300D01*
X36700Y53350D01*
X36550D01*
X36200Y57350D02*
X36150Y57400D01*
X36050D01*
X36000Y57350D01*
Y57150D01*
X36050Y57100D01*
X36150D01*
X36200Y57150D01*
X36300Y57100D02*
X36400D01*
X36350D01*
Y57400D01*
X36300Y57350D01*
X36550Y57400D02*
X36750D01*
Y57350D01*
X36550Y57150D01*
Y57100D01*
X36100Y61250D02*
X36050Y61300D01*
X35950D01*
X35900Y61250D01*
Y61050D01*
X35950Y61000D01*
X36050D01*
X36100Y61050D01*
X36200Y61000D02*
X36300D01*
X36250D01*
Y61300D01*
X36200Y61250D01*
X36450D02*
X36500Y61300D01*
X36600D01*
X36650Y61250D01*
Y61200D01*
X36600Y61150D01*
X36650Y61100D01*
Y61050D01*
X36600Y61000D01*
X36500D01*
X36450Y61050D01*
Y61100D01*
X36500Y61150D01*
X36450Y61200D01*
Y61250D01*
X36500Y61150D02*
X36600D01*
X36100Y65150D02*
X36050Y65200D01*
X35950D01*
X35900Y65150D01*
Y64950D01*
X35950Y64900D01*
X36050D01*
X36100Y64950D01*
X36200Y64900D02*
X36300D01*
X36250D01*
Y65200D01*
X36200Y65150D01*
X36450Y64950D02*
X36500Y64900D01*
X36600D01*
X36650Y64950D01*
Y65150D01*
X36600Y65200D01*
X36500D01*
X36450Y65150D01*
Y65100D01*
X36500Y65050D01*
X36650D01*
X36100Y69050D02*
X36050Y69100D01*
X35950D01*
X35900Y69050D01*
Y68850D01*
X35950Y68800D01*
X36050D01*
X36100Y68850D01*
X36400Y68800D02*
X36200D01*
X36400Y69000D01*
Y69050D01*
X36350Y69100D01*
X36250D01*
X36200Y69050D01*
X36500D02*
X36550Y69100D01*
X36650D01*
X36700Y69050D01*
Y68850D01*
X36650Y68800D01*
X36550D01*
X36500Y68850D01*
Y69050D01*
X37200Y33950D02*
X37150Y34000D01*
X37050D01*
X37000Y33950D01*
Y33750D01*
X37050Y33700D01*
X37150D01*
X37200Y33750D01*
X37500Y33700D02*
X37300D01*
X37500Y33900D01*
Y33950D01*
X37450Y34000D01*
X37350D01*
X37300Y33950D01*
X37600Y33700D02*
X37700D01*
X37650D01*
Y34000D01*
X37600Y33950D01*
X37200Y37850D02*
X37150Y37900D01*
X37050D01*
X37000Y37850D01*
Y37650D01*
X37050Y37600D01*
X37150D01*
X37200Y37650D01*
X37500Y37600D02*
X37300D01*
X37500Y37800D01*
Y37850D01*
X37450Y37900D01*
X37350D01*
X37300Y37850D01*
X37800Y37600D02*
X37600D01*
X37800Y37800D01*
Y37850D01*
X37750Y37900D01*
X37650D01*
X37600Y37850D01*
X37200Y41750D02*
X37150Y41800D01*
X37050D01*
X37000Y41750D01*
Y41550D01*
X37050Y41500D01*
X37150D01*
X37200Y41550D01*
X37500Y41500D02*
X37300D01*
X37500Y41700D01*
Y41750D01*
X37450Y41800D01*
X37350D01*
X37300Y41750D01*
X37600D02*
X37650Y41800D01*
X37750D01*
X37800Y41750D01*
Y41700D01*
X37750Y41650D01*
X37700D01*
X37750D01*
X37800Y41600D01*
Y41550D01*
X37750Y41500D01*
X37650D01*
X37600Y41550D01*
X37200Y45650D02*
X37150Y45700D01*
X37050D01*
X37000Y45650D01*
Y45450D01*
X37050Y45400D01*
X37150D01*
X37200Y45450D01*
X37500Y45400D02*
X37300D01*
X37500Y45600D01*
Y45650D01*
X37450Y45700D01*
X37350D01*
X37300Y45650D01*
X37750Y45400D02*
Y45700D01*
X37600Y45550D01*
X37800D01*
X37200Y49550D02*
X37150Y49600D01*
X37050D01*
X37000Y49550D01*
Y49350D01*
X37050Y49300D01*
X37150D01*
X37200Y49350D01*
X37500Y49300D02*
X37300D01*
X37500Y49500D01*
Y49550D01*
X37450Y49600D01*
X37350D01*
X37300Y49550D01*
X37800Y49600D02*
X37600D01*
Y49450D01*
X37700Y49500D01*
X37750D01*
X37800Y49450D01*
Y49350D01*
X37750Y49300D01*
X37650D01*
X37600Y49350D01*
X37200Y53450D02*
X37150Y53500D01*
X37050D01*
X37000Y53450D01*
Y53250D01*
X37050Y53200D01*
X37150D01*
X37200Y53250D01*
X37500Y53200D02*
X37300D01*
X37500Y53400D01*
Y53450D01*
X37450Y53500D01*
X37350D01*
X37300Y53450D01*
X37800Y53500D02*
X37700Y53450D01*
X37600Y53350D01*
Y53250D01*
X37650Y53200D01*
X37750D01*
X37800Y53250D01*
Y53300D01*
X37750Y53350D01*
X37600D01*
X37200Y57350D02*
X37150Y57400D01*
X37050D01*
X37000Y57350D01*
Y57150D01*
X37050Y57100D01*
X37150D01*
X37200Y57150D01*
X37500Y57100D02*
X37300D01*
X37500Y57300D01*
Y57350D01*
X37450Y57400D01*
X37350D01*
X37300Y57350D01*
X37600Y57400D02*
X37800D01*
Y57350D01*
X37600Y57150D01*
Y57100D01*
X37200Y61250D02*
X37150Y61300D01*
X37050D01*
X37000Y61250D01*
Y61050D01*
X37050Y61000D01*
X37150D01*
X37200Y61050D01*
X37500Y61000D02*
X37300D01*
X37500Y61200D01*
Y61250D01*
X37450Y61300D01*
X37350D01*
X37300Y61250D01*
X37600D02*
X37650Y61300D01*
X37750D01*
X37800Y61250D01*
Y61200D01*
X37750Y61150D01*
X37800Y61100D01*
Y61050D01*
X37750Y61000D01*
X37650D01*
X37600Y61050D01*
Y61100D01*
X37650Y61150D01*
X37600Y61200D01*
Y61250D01*
X37650Y61150D02*
X37750D01*
X37200Y65150D02*
X37150Y65200D01*
X37050D01*
X37000Y65150D01*
Y64950D01*
X37050Y64900D01*
X37150D01*
X37200Y64950D01*
X37500Y64900D02*
X37300D01*
X37500Y65100D01*
Y65150D01*
X37450Y65200D01*
X37350D01*
X37300Y65150D01*
X37600Y64950D02*
X37650Y64900D01*
X37750D01*
X37800Y64950D01*
Y65150D01*
X37750Y65200D01*
X37650D01*
X37600Y65150D01*
Y65100D01*
X37650Y65050D01*
X37800D01*
X37200Y69050D02*
X37150Y69100D01*
X37050D01*
X37000Y69050D01*
Y68850D01*
X37050Y68800D01*
X37150D01*
X37200Y68850D01*
X37300Y69050D02*
X37350Y69100D01*
X37450D01*
X37500Y69050D01*
Y69000D01*
X37450Y68950D01*
X37400D01*
X37450D01*
X37500Y68900D01*
Y68850D01*
X37450Y68800D01*
X37350D01*
X37300Y68850D01*
X37600Y69050D02*
X37650Y69100D01*
X37750D01*
X37800Y69050D01*
Y68850D01*
X37750Y68800D01*
X37650D01*
X37600Y68850D01*
Y69050D01*
X70850Y44100D02*
X70800Y44050D01*
Y43950D01*
X70850Y43900D01*
X71050D01*
X71100Y43950D01*
Y44050D01*
X71050Y44100D01*
Y44200D02*
X71100Y44250D01*
Y44350D01*
X71050Y44400D01*
X70850D01*
X70800Y44350D01*
Y44250D01*
X70850Y44200D01*
X70900D01*
X70950Y44250D01*
Y44400D01*
X70850Y44500D02*
X70800Y44550D01*
Y44650D01*
X70850Y44700D01*
X70900D01*
X70950Y44650D01*
X71000Y44700D01*
X71050D01*
X71100Y44650D01*
Y44550D01*
X71050Y44500D01*
X71000D01*
X70950Y44550D01*
X70900Y44500D01*
X70850D01*
X70950Y44550D02*
Y44650D01*
X58350Y31000D02*
X58300Y30950D01*
Y30850D01*
X58350Y30800D01*
X58550D01*
X58600Y30850D01*
Y30950D01*
X58550Y31000D01*
X58300Y31300D02*
X58350Y31200D01*
X58450Y31100D01*
X58550D01*
X58600Y31150D01*
Y31250D01*
X58550Y31300D01*
X58500D01*
X58450Y31250D01*
Y31100D01*
X58300Y31600D02*
X58350Y31500D01*
X58450Y31400D01*
X58550D01*
X58600Y31450D01*
Y31550D01*
X58550Y31600D01*
X58500D01*
X58450Y31550D01*
Y31400D01*
X58450Y38700D02*
X58400Y38650D01*
Y38550D01*
X58450Y38500D01*
X58650D01*
X58700Y38550D01*
Y38650D01*
X58650Y38700D01*
X58400Y39000D02*
X58450Y38900D01*
X58550Y38800D01*
X58650D01*
X58700Y38850D01*
Y38950D01*
X58650Y39000D01*
X58600D01*
X58550Y38950D01*
Y38800D01*
X58650Y39100D02*
X58700Y39150D01*
Y39250D01*
X58650Y39300D01*
X58450D01*
X58400Y39250D01*
Y39150D01*
X58450Y39100D01*
X58500D01*
X58550Y39150D01*
Y39300D01*
X58350Y46400D02*
X58300Y46350D01*
Y46250D01*
X58350Y46200D01*
X58550D01*
X58600Y46250D01*
Y46350D01*
X58550Y46400D01*
X58300Y46500D02*
Y46700D01*
X58350D01*
X58550Y46500D01*
X58600D01*
Y47000D02*
Y46800D01*
X58400Y47000D01*
X58350D01*
X58300Y46950D01*
Y46850D01*
X58350Y46800D01*
Y54300D02*
X58300Y54250D01*
Y54150D01*
X58350Y54100D01*
X58550D01*
X58600Y54150D01*
Y54250D01*
X58550Y54300D01*
X58300Y54400D02*
Y54600D01*
X58350D01*
X58550Y54400D01*
X58600D01*
X58300Y54900D02*
Y54700D01*
X58450D01*
X58400Y54800D01*
Y54850D01*
X58450Y54900D01*
X58550D01*
X58600Y54850D01*
Y54750D01*
X58550Y54700D01*
X61300Y62050D02*
X61250Y62100D01*
X61150D01*
X61100Y62050D01*
Y61850D01*
X61150Y61800D01*
X61250D01*
X61300Y61850D01*
X61400Y62100D02*
X61600D01*
Y62050D01*
X61400Y61850D01*
Y61800D01*
X61700Y62050D02*
X61750Y62100D01*
X61850D01*
X61900Y62050D01*
Y62000D01*
X61850Y61950D01*
X61900Y61900D01*
Y61850D01*
X61850Y61800D01*
X61750D01*
X61700Y61850D01*
Y61900D01*
X61750Y61950D01*
X61700Y62000D01*
Y62050D01*
X61750Y61950D02*
X61850D01*
X64250Y34400D02*
X64300Y34450D01*
Y34550D01*
X64250Y34600D01*
X64050D01*
X64000Y34550D01*
Y34450D01*
X64050Y34400D01*
X64250Y34300D02*
X64300Y34250D01*
Y34150D01*
X64250Y34100D01*
X64200D01*
X64150Y34150D01*
X64100Y34100D01*
X64050D01*
X64000Y34150D01*
Y34250D01*
X64050Y34300D01*
X64100D01*
X64150Y34250D01*
X64200Y34300D01*
X64250D01*
X64150Y34250D02*
Y34150D01*
X64300Y33800D02*
Y34000D01*
X64150D01*
X64200Y33900D01*
Y33850D01*
X64150Y33800D01*
X64050D01*
X64000Y33850D01*
Y33950D01*
X64050Y34000D01*
X64250Y42200D02*
X64300Y42250D01*
Y42350D01*
X64250Y42400D01*
X64050D01*
X64000Y42350D01*
Y42250D01*
X64050Y42200D01*
X64250Y42100D02*
X64300Y42050D01*
Y41950D01*
X64250Y41900D01*
X64200D01*
X64150Y41950D01*
X64100Y41900D01*
X64050D01*
X64000Y41950D01*
Y42050D01*
X64050Y42100D01*
X64100D01*
X64150Y42050D01*
X64200Y42100D01*
X64250D01*
X64150Y42050D02*
Y41950D01*
X64300Y41600D02*
X64250Y41700D01*
X64150Y41800D01*
X64050D01*
X64000Y41750D01*
Y41650D01*
X64050Y41600D01*
X64100D01*
X64150Y41650D01*
Y41800D01*
X64250Y50000D02*
X64300Y50050D01*
Y50150D01*
X64250Y50200D01*
X64050D01*
X64000Y50150D01*
Y50050D01*
X64050Y50000D01*
X64250Y49900D02*
X64300Y49850D01*
Y49750D01*
X64250Y49700D01*
X64200D01*
X64150Y49750D01*
X64100Y49700D01*
X64050D01*
X64000Y49750D01*
Y49850D01*
X64050Y49900D01*
X64100D01*
X64150Y49850D01*
X64200Y49900D01*
X64250D01*
X64150Y49850D02*
Y49750D01*
X64300Y49600D02*
Y49400D01*
X64250D01*
X64050Y49600D01*
X64000D01*
X64250Y57800D02*
X64300Y57850D01*
Y57950D01*
X64250Y58000D01*
X64050D01*
X64000Y57950D01*
Y57850D01*
X64050Y57800D01*
X64250Y57700D02*
X64300Y57650D01*
Y57550D01*
X64250Y57500D01*
X64200D01*
X64150Y57550D01*
X64100Y57500D01*
X64050D01*
X64000Y57550D01*
Y57650D01*
X64050Y57700D01*
X64100D01*
X64150Y57650D01*
X64200Y57700D01*
X64250D01*
X64150Y57650D02*
Y57550D01*
X64250Y57400D02*
X64300Y57350D01*
Y57250D01*
X64250Y57200D01*
X64200D01*
X64150Y57250D01*
X64100Y57200D01*
X64050D01*
X64000Y57250D01*
Y57350D01*
X64050Y57400D01*
X64100D01*
X64150Y57350D01*
X64200Y57400D01*
X64250D01*
X64150Y57350D02*
Y57250D01*
X64350Y65500D02*
X64400Y65550D01*
Y65650D01*
X64350Y65700D01*
X64150D01*
X64100Y65650D01*
Y65550D01*
X64150Y65500D01*
X64350Y65400D02*
X64400Y65350D01*
Y65250D01*
X64350Y65200D01*
X64300D01*
X64250Y65250D01*
X64200Y65200D01*
X64150D01*
X64100Y65250D01*
Y65350D01*
X64150Y65400D01*
X64200D01*
X64250Y65350D01*
X64300Y65400D01*
X64350D01*
X64250Y65350D02*
Y65250D01*
X64150Y65100D02*
X64100Y65050D01*
Y64950D01*
X64150Y64900D01*
X64350D01*
X64400Y64950D01*
Y65050D01*
X64350Y65100D01*
X64300D01*
X64250Y65050D01*
Y64900D01*
X58500Y37350D02*
X58450Y37400D01*
X58350D01*
X58300Y37350D01*
Y37150D01*
X58350Y37100D01*
X58450D01*
X58500Y37150D01*
X58800Y37400D02*
X58700Y37350D01*
X58600Y37250D01*
Y37150D01*
X58650Y37100D01*
X58750D01*
X58800Y37150D01*
Y37200D01*
X58750Y37250D01*
X58600D01*
X58900Y37350D02*
X58950Y37400D01*
X59050D01*
X59100Y37350D01*
Y37300D01*
X59050Y37250D01*
X59100Y37200D01*
Y37150D01*
X59050Y37100D01*
X58950D01*
X58900Y37150D01*
Y37200D01*
X58950Y37250D01*
X58900Y37300D01*
Y37350D01*
X58950Y37250D02*
X59050D01*
X58500Y45150D02*
X58450Y45200D01*
X58350D01*
X58300Y45150D01*
Y44950D01*
X58350Y44900D01*
X58450D01*
X58500Y44950D01*
X58600Y45200D02*
X58800D01*
Y45150D01*
X58600Y44950D01*
Y44900D01*
X58900D02*
X59000D01*
X58950D01*
Y45200D01*
X58900Y45150D01*
X58500Y52950D02*
X58450Y53000D01*
X58350D01*
X58300Y52950D01*
Y52750D01*
X58350Y52700D01*
X58450D01*
X58500Y52750D01*
X58600Y53000D02*
X58800D01*
Y52950D01*
X58600Y52750D01*
Y52700D01*
X59050D02*
Y53000D01*
X58900Y52850D01*
X59100D01*
X58500Y60750D02*
X58450Y60800D01*
X58350D01*
X58300Y60750D01*
Y60550D01*
X58350Y60500D01*
X58450D01*
X58500Y60550D01*
X58600Y60800D02*
X58800D01*
Y60750D01*
X58600Y60550D01*
Y60500D01*
X58900Y60800D02*
X59100D01*
Y60750D01*
X58900Y60550D01*
Y60500D01*
X58500Y68550D02*
X58450Y68600D01*
X58350D01*
X58300Y68550D01*
Y68350D01*
X58350Y68300D01*
X58450D01*
X58500Y68350D01*
X58600Y68550D02*
X58650Y68600D01*
X58750D01*
X58800Y68550D01*
Y68500D01*
X58750Y68450D01*
X58800Y68400D01*
Y68350D01*
X58750Y68300D01*
X58650D01*
X58600Y68350D01*
Y68400D01*
X58650Y68450D01*
X58600Y68500D01*
Y68550D01*
X58650Y68450D02*
X58750D01*
X58900Y68550D02*
X58950Y68600D01*
X59050D01*
X59100Y68550D01*
Y68350D01*
X59050Y68300D01*
X58950D01*
X58900Y68350D01*
Y68550D01*
X70700Y46300D02*
X70950D01*
X71000Y46350D01*
Y46450D01*
X70950Y46500D01*
X70700D01*
X70750Y46600D02*
X70700Y46650D01*
Y46750D01*
X70750Y46800D01*
X70800D01*
X70850Y46750D01*
X70900Y46800D01*
X70950D01*
X71000Y46750D01*
Y46650D01*
X70950Y46600D01*
X70900D01*
X70850Y46650D01*
X70800Y46600D01*
X70750D01*
X70850Y46650D02*
Y46750D01*
X71000Y47050D02*
X70700D01*
X70850Y46900D01*
Y47100D01*
X70210Y60250D02*
X70160Y60300D01*
X70060D01*
X70010Y60250D01*
Y60050D01*
X70060Y60000D01*
X70160D01*
X70210Y60050D01*
X70310D02*
X70360Y60000D01*
X70460D01*
X70510Y60050D01*
Y60250D01*
X70460Y60300D01*
X70360D01*
X70310Y60250D01*
Y60200D01*
X70360Y60150D01*
X70510D01*
X70610Y60300D02*
X70810D01*
Y60250D01*
X70610Y60050D01*
Y60000D01*
X73050Y54700D02*
X73000Y54650D01*
Y54550D01*
X73050Y54500D01*
X73250D01*
X73300Y54550D01*
Y54650D01*
X73250Y54700D01*
Y54800D02*
X73300Y54850D01*
Y54950D01*
X73250Y55000D01*
X73050D01*
X73000Y54950D01*
Y54850D01*
X73050Y54800D01*
X73100D01*
X73150Y54850D01*
Y55000D01*
X73250Y55100D02*
X73300Y55150D01*
Y55250D01*
X73250Y55300D01*
X73050D01*
X73000Y55250D01*
Y55150D01*
X73050Y55100D01*
X73100D01*
X73150Y55150D01*
Y55300D01*
X63000Y61550D02*
X62950Y61600D01*
X62850D01*
X62800Y61550D01*
Y61350D01*
X62850Y61300D01*
X62950D01*
X63000Y61350D01*
X63100Y61550D02*
X63150Y61600D01*
X63250D01*
X63300Y61550D01*
Y61500D01*
X63250Y61450D01*
X63300Y61400D01*
Y61350D01*
X63250Y61300D01*
X63150D01*
X63100Y61350D01*
Y61400D01*
X63150Y61450D01*
X63100Y61500D01*
Y61550D01*
X63150Y61450D02*
X63250D01*
X63400Y61550D02*
X63450Y61600D01*
X63550D01*
X63600Y61550D01*
Y61500D01*
X63550Y61450D01*
X63500D01*
X63550D01*
X63600Y61400D01*
Y61350D01*
X63550Y61300D01*
X63450D01*
X63400Y61350D01*
X23550Y48900D02*
X23500Y48850D01*
Y48750D01*
X23550Y48700D01*
X23750D01*
X23800Y48750D01*
Y48850D01*
X23750Y48900D01*
X23800Y49000D02*
Y49100D01*
Y49050D01*
X23500D01*
X23550Y49000D01*
X72800Y63500D02*
Y63200D01*
X73000D01*
X73100D02*
X73200D01*
X73150D01*
Y63500D01*
X73100Y63450D01*
X68190Y68420D02*
Y68120D01*
X68390D01*
X68490Y68370D02*
X68540Y68420D01*
X68640D01*
X68690Y68370D01*
Y68320D01*
X68640Y68270D01*
X68590D01*
X68640D01*
X68690Y68220D01*
Y68170D01*
X68640Y68120D01*
X68540D01*
X68490Y68170D01*
X67300Y31100D02*
Y30850D01*
X67350Y30800D01*
X67450D01*
X67500Y30850D01*
Y31100D01*
X67600D02*
X67800D01*
Y31050D01*
X67600Y30850D01*
Y30800D01*
X67900Y30850D02*
X67950Y30800D01*
X68050D01*
X68100Y30850D01*
Y31050D01*
X68050Y31100D01*
X67950D01*
X67900Y31050D01*
Y31000D01*
X67950Y30950D01*
X68100D01*
X69500Y53400D02*
Y53150D01*
X69550Y53100D01*
X69650D01*
X69700Y53150D01*
Y53400D01*
X69800Y53350D02*
X69850Y53400D01*
X69950D01*
X70000Y53350D01*
Y53300D01*
X69950Y53250D01*
X70000Y53200D01*
Y53150D01*
X69950Y53100D01*
X69850D01*
X69800Y53150D01*
Y53200D01*
X69850Y53250D01*
X69800Y53300D01*
Y53350D01*
X69850Y53250D02*
X69950D01*
X70300Y53100D02*
X70100D01*
X70300Y53300D01*
Y53350D01*
X70250Y53400D01*
X70150D01*
X70100Y53350D01*
X79000Y34200D02*
Y34100D01*
Y34150D01*
X79250D01*
X79300Y34100D01*
Y34050D01*
X79250Y34000D01*
X79300Y34300D02*
X79000D01*
Y34450D01*
X79050Y34500D01*
X79150D01*
X79200Y34450D01*
Y34300D01*
X79300Y34800D02*
Y34600D01*
X79100Y34800D01*
X79050D01*
X79000Y34750D01*
Y34650D01*
X79050Y34600D01*
X65550Y32100D02*
X65600Y32150D01*
Y32250D01*
X65550Y32300D01*
X65350D01*
X65300Y32250D01*
Y32150D01*
X65350Y32100D01*
X65550Y32000D02*
X65600Y31950D01*
Y31850D01*
X65550Y31800D01*
X65500D01*
X65450Y31850D01*
X65400Y31800D01*
X65350D01*
X65300Y31850D01*
Y31950D01*
X65350Y32000D01*
X65400D01*
X65450Y31950D01*
X65500Y32000D01*
X65550D01*
X65450Y31950D02*
Y31850D01*
X65300Y31550D02*
X65600D01*
X65450Y31700D01*
Y31500D01*
X62100Y46550D02*
X62050Y46600D01*
X61950D01*
X61900Y46550D01*
Y46350D01*
X61950Y46300D01*
X62050D01*
X62100Y46350D01*
X62200Y46550D02*
X62250Y46600D01*
X62350D01*
X62400Y46550D01*
Y46500D01*
X62350Y46450D01*
X62400Y46400D01*
Y46350D01*
X62350Y46300D01*
X62250D01*
X62200Y46350D01*
Y46400D01*
X62250Y46450D01*
X62200Y46500D01*
Y46550D01*
X62250Y46450D02*
X62350D01*
X62500Y46300D02*
X62600D01*
X62550D01*
Y46600D01*
X62500Y46550D01*
X62040Y54900D02*
X61990Y54950D01*
X61890D01*
X61840Y54900D01*
Y54700D01*
X61890Y54650D01*
X61990D01*
X62040Y54700D01*
X62140Y54900D02*
X62190Y54950D01*
X62290D01*
X62340Y54900D01*
Y54850D01*
X62290Y54800D01*
X62340Y54750D01*
Y54700D01*
X62290Y54650D01*
X62190D01*
X62140Y54700D01*
Y54750D01*
X62190Y54800D01*
X62140Y54850D01*
Y54900D01*
X62190Y54800D02*
X62290D01*
X62640Y54650D02*
X62440D01*
X62640Y54850D01*
Y54900D01*
X62590Y54950D01*
X62490D01*
X62440Y54900D01*
X21450Y30900D02*
X21400Y30850D01*
Y30750D01*
X21450Y30700D01*
X21650D01*
X21700Y30750D01*
Y30850D01*
X21650Y30900D01*
X21700Y31050D02*
Y31150D01*
X21650Y31200D01*
X21550D01*
X21500Y31150D01*
Y31050D01*
X21550Y31000D01*
X21650D01*
X21700Y31050D01*
X21800Y31300D02*
X21500D01*
Y31450D01*
X21550Y31500D01*
X21650D01*
X21700Y31450D01*
Y31300D01*
X21500Y31600D02*
X21650D01*
X21700Y31650D01*
Y31800D01*
X21750D01*
X21800Y31750D01*
Y31700D01*
X21700Y31800D02*
X21500D01*
Y31900D02*
X21700D01*
X21600D01*
X21550Y31950D01*
X21500Y32000D01*
Y32050D01*
X21700Y32200D02*
Y32299D01*
Y32250D01*
X21500D01*
Y32200D01*
X21800Y32549D02*
Y32599D01*
X21750Y32649D01*
X21500D01*
Y32499D01*
X21550Y32449D01*
X21650D01*
X21700Y32499D01*
Y32649D01*
X21400Y32749D02*
X21700D01*
X21550D01*
X21500Y32799D01*
Y32899D01*
X21550Y32949D01*
X21700D01*
X21450Y33099D02*
X21500D01*
Y33049D01*
Y33149D01*
Y33099D01*
X21650D01*
X21700Y33149D01*
X21400Y33799D02*
Y33599D01*
X21700D01*
Y33799D01*
X21550Y33599D02*
Y33699D01*
X21500Y33899D02*
X21700D01*
X21600D01*
X21550Y33949D01*
X21500Y33999D01*
Y34049D01*
X21700Y34199D02*
Y34299D01*
Y34249D01*
X21500D01*
Y34199D01*
Y34649D02*
Y34499D01*
X21550Y34449D01*
X21650D01*
X21700Y34499D01*
Y34649D01*
X21400Y35249D02*
Y35149D01*
Y35199D01*
X21650D01*
X21700Y35149D01*
Y35099D01*
X21650Y35049D01*
X21700Y35398D02*
Y35498D01*
X21650Y35548D01*
X21550D01*
X21500Y35498D01*
Y35398D01*
X21550Y35348D01*
X21650D01*
X21700Y35398D01*
Y35648D02*
X21500D01*
Y35798D01*
X21550Y35848D01*
X21700D01*
X21500Y35998D02*
Y36098D01*
X21550Y36148D01*
X21700D01*
Y35998D01*
X21650Y35948D01*
X21600Y35998D01*
Y36148D01*
X21700Y36248D02*
Y36398D01*
X21650Y36448D01*
X21600Y36398D01*
Y36298D01*
X21550Y36248D01*
X21500Y36298D01*
Y36448D01*
X21700Y37048D02*
Y36848D01*
X21500Y37048D01*
X21450D01*
X21400Y36998D01*
Y36898D01*
X21450Y36848D01*
Y37148D02*
X21400Y37198D01*
Y37298D01*
X21450Y37348D01*
X21650D01*
X21700Y37298D01*
Y37198D01*
X21650Y37148D01*
X21450D01*
Y37448D02*
X21400Y37498D01*
Y37598D01*
X21450Y37648D01*
X21650D01*
X21700Y37598D01*
Y37498D01*
X21650Y37448D01*
X21450D01*
X21700Y37948D02*
Y37748D01*
X21500Y37948D01*
X21450D01*
X21400Y37898D01*
Y37798D01*
X21450Y37748D01*
X21550Y38048D02*
Y38248D01*
X21700Y38547D02*
Y38348D01*
X21500Y38547D01*
X21450D01*
X21400Y38497D01*
Y38398D01*
X21450Y38348D01*
Y38647D02*
X21400Y38697D01*
Y38797D01*
X21450Y38847D01*
X21650D01*
X21700Y38797D01*
Y38697D01*
X21650Y38647D01*
X21450D01*
Y38947D02*
X21400Y38997D01*
Y39097D01*
X21450Y39147D01*
X21650D01*
X21700Y39097D01*
Y38997D01*
X21650Y38947D01*
X21450D01*
Y39247D02*
X21400Y39297D01*
Y39397D01*
X21450Y39447D01*
X21500D01*
X21550Y39397D01*
Y39347D01*
Y39397D01*
X21600Y39447D01*
X21650D01*
X21700Y39397D01*
Y39297D01*
X21650Y39247D01*
X21567Y42000D02*
X21700Y42067D01*
X21567Y42133D01*
X21700Y42300D02*
Y42233D01*
X21667Y42200D01*
X21600D01*
X21567Y42233D01*
Y42300D01*
X21600Y42333D01*
X21633D01*
Y42200D01*
X21567Y42400D02*
X21700D01*
X21633D01*
X21600Y42433D01*
X21567Y42467D01*
Y42500D01*
X21533Y42800D02*
X21500Y42833D01*
Y42900D01*
X21533Y42933D01*
X21567D01*
X21600Y42900D01*
Y42866D01*
Y42900D01*
X21633Y42933D01*
X21667D01*
X21700Y42900D01*
Y42833D01*
X21667Y42800D01*
X21700Y43000D02*
X21667D01*
Y43033D01*
X21700D01*
Y43000D01*
X21533Y43166D02*
X21500Y43200D01*
Y43266D01*
X21533Y43300D01*
X21667D01*
X21700Y43266D01*
Y43200D01*
X21667Y43166D01*
X21533D01*
X21850Y30700D02*
X22100D01*
X22017Y30783D01*
X22100Y30867D01*
X21850D01*
X22100Y30950D02*
Y31033D01*
Y30992D01*
X21933D01*
Y30950D01*
X22100Y31158D02*
Y31241D01*
Y31200D01*
X21850D01*
Y31158D01*
X22100Y31366D02*
Y31491D01*
X22058Y31533D01*
X22017Y31491D01*
Y31408D01*
X21975Y31366D01*
X21933Y31408D01*
Y31533D01*
X22100Y31658D02*
Y31741D01*
X22058Y31783D01*
X21975D01*
X21933Y31741D01*
Y31658D01*
X21975Y31616D01*
X22058D01*
X22100Y31658D01*
Y31866D02*
X21933D01*
Y31991D01*
X21975Y32033D01*
X22100D01*
X21850Y32366D02*
X22100D01*
Y32533D01*
X21933Y32658D02*
Y32741D01*
X21975Y32783D01*
X22100D01*
Y32658D01*
X22058Y32616D01*
X22017Y32658D01*
Y32783D01*
X21850Y32866D02*
X22100D01*
Y32991D01*
X22058Y33033D01*
X22017D01*
X21975D01*
X21933Y32991D01*
Y32866D01*
X22100Y41200D02*
X21850D01*
Y41325D01*
X21892Y41367D01*
X21975D01*
X22017Y41325D01*
Y41200D01*
X21892Y41617D02*
X21850Y41575D01*
Y41492D01*
X21892Y41450D01*
X22058D01*
X22100Y41492D01*
Y41575D01*
X22058Y41617D01*
X21850Y41700D02*
X22100D01*
Y41866D01*
Y41950D02*
X21850D01*
X21933Y42033D01*
X21850Y42116D01*
X22100D01*
X22142Y42241D02*
X22100Y42283D01*
X22058D01*
Y42241D01*
X22100D01*
Y42283D01*
X22142Y42241D01*
X22183Y42200D01*
X22100Y42700D02*
X21850D01*
X21933Y42783D01*
X21850Y42866D01*
X22100D01*
X21850Y42949D02*
Y43033D01*
Y42991D01*
X22100D01*
Y42949D01*
Y43033D01*
X21850Y43158D02*
Y43324D01*
Y43241D01*
X22100D01*
D59*
X57867Y64965D02*
D03*
X58733D02*
D03*
X57867Y33765D02*
D03*
X58733D02*
D03*
X63933Y34135D02*
D03*
X63067D02*
D03*
X57867Y41565D02*
D03*
X58733D02*
D03*
X63933Y41935D02*
D03*
X63067D02*
D03*
X57867Y49365D02*
D03*
X58733D02*
D03*
X63933Y49735D02*
D03*
X63067D02*
D03*
X57867Y57165D02*
D03*
X58733D02*
D03*
X63933Y57535D02*
D03*
X63067D02*
D03*
X64033Y65335D02*
D03*
X63167D02*
D03*
X65333Y68235D02*
D03*
X64467D02*
D03*
X67733D02*
D03*
X66867D02*
D03*
X65233Y62935D02*
D03*
X64367D02*
D03*
X67633D02*
D03*
X66767D02*
D03*
D60*
X55735Y33467D02*
D03*
Y34333D02*
D03*
X55584Y31088D02*
D03*
X55735Y37367D02*
D03*
Y38233D02*
D03*
X55584Y34988D02*
D03*
X55735Y41267D02*
D03*
Y42133D02*
D03*
X55584Y38888D02*
D03*
X55735Y45167D02*
D03*
Y46033D02*
D03*
X55584Y42788D02*
D03*
X55735Y49067D02*
D03*
Y49933D02*
D03*
X55584Y46688D02*
D03*
X55735Y52967D02*
D03*
Y53833D02*
D03*
X55584Y50588D02*
D03*
X55735Y56867D02*
D03*
Y57733D02*
D03*
X55584Y54488D02*
D03*
X55735Y60767D02*
D03*
Y61633D02*
D03*
X55584Y58388D02*
D03*
X55735Y64667D02*
D03*
Y65533D02*
D03*
X55584Y62288D02*
D03*
X59235Y31867D02*
D03*
Y32733D02*
D03*
X59335Y36167D02*
D03*
Y37033D02*
D03*
X59235Y39667D02*
D03*
Y40533D02*
D03*
X59335Y43967D02*
D03*
Y44833D02*
D03*
X59235Y47467D02*
D03*
Y48333D02*
D03*
X59335Y51767D02*
D03*
Y52633D02*
D03*
X59235Y55267D02*
D03*
Y56133D02*
D03*
X59335Y59567D02*
D03*
Y60433D02*
D03*
X59235Y63067D02*
D03*
Y63933D02*
D03*
X59335Y67367D02*
D03*
Y68233D02*
D03*
X55735Y68567D02*
D03*
Y69433D02*
D03*
D61*
X55584Y32112D02*
D03*
Y36012D02*
D03*
Y39912D02*
D03*
Y43812D02*
D03*
Y47712D02*
D03*
Y51612D02*
D03*
Y55512D02*
D03*
Y59412D02*
D03*
Y63312D02*
D03*
X55584Y66188D02*
D03*
Y67212D02*
D03*
M02*
