INCH,LZ
M48
T1F00S00C0.0135
T2F00S00C0.0354
T3F00S00C0.0400
T4F00S00C0.0709
T5F00S00C0.0800
T6F00S00C0.1260
%
T01
X0668Y031
X068824Y031056
X0526Y0311
X0425Y0312
X0384Y0308
X035
X0269Y0311
X0286Y0313
X0289Y0327
X0286Y0336
X027465Y033735
X0269Y035
X0286Y0352
X0289Y0367
X0286Y0375
X027465Y037635
X0269Y0389
X0286Y0391
X0289Y0406
X0286Y0414
X027465Y041535
X0269Y0428
X0286Y043
X0289Y0444
X0286Y0453
X027465Y045435
X0254Y0453
X025119Y046619
X0261Y0467
X029Y0464
X0295
X03
X0306
X030839Y045161
Y041261
Y037361
Y033461
X0252Y0336
X0238Y0376
X0253Y0415
X031935Y040735
X0326Y0394
X033335Y039335
X034856Y03927
X035765Y039635
X0358Y0409
X0369Y0408
X038Y0407
Y0395
X0374Y0392
X038656Y039244
X0382Y0386
X038Y0368
X0369Y0369
X0358Y037
X035765Y035735
X034856Y03537
X0354Y0346
X0358Y0331
X0369Y033
X038Y0329
Y0317
X0374Y0314
X038656Y031444
X0396Y0319
X0411Y0315
X0419Y0324
X042572Y033028
X042604Y033796
X0428Y0351
X0433Y0355
X0422Y0361
X0419Y0352
X0415
X0411Y0354
X0415Y0342
X0396Y0358
X038656Y035344
X038Y0354
X0374Y0353
X0382Y0347
X035765Y031835
X034856Y03147
X033335Y031535
X0326Y0316
X031935Y032935
X0342Y0332
X033335Y035435
X0326Y0355
X031935Y036835
X0342Y0371
X0354Y0385
X0342Y041
X0354Y0424
X034856Y04317
X035765Y043535
X0358Y0448
X0369Y0447
X038Y0446
X0381Y0433
X038656Y043144
X0385Y0425
X0374Y0431
X0396Y0436
X0411Y0432
X0415Y043
X0419
X0429
X0433Y0433
X0432Y0421
X0427Y0419
X0425Y0414
X042572Y040828
X0424Y0399
X0426Y0391
X0419
X0415
X0411
X0415Y0381
X0419Y0376
X0425Y0374
X042572Y036928
X043Y038
X0432Y0394
X0419Y0415
X0415Y0419
X0422Y0438
X042572Y044728
X0425Y0453
X0419
X0415Y0457
X0428Y0459
Y0468
X0383Y0464
X0354Y0463
X0342Y0449
X031935Y044635
X0326Y0433
X033335Y043235
X0396Y0397
X04Y0399
X0432Y0316
X0471Y0315
X0476Y0326
X047684Y033084
X048516
X048Y0339
X0496
X049289Y035389
X0471Y0354
X0476Y0365
X047684Y036984
X048516
X048Y0378
X0496
X049289Y039289
X0471Y0393
X0476Y0404
X047684Y040884
X048516
X048Y0417
X0496
X049289Y043189
X0471Y0432
X0476Y0443
X047684Y044784
X048516
X048Y0456
X0496
X0528Y0457
X0529Y044
X0538Y0441
X0546Y0438
X0542Y0425
X054265Y041365
X0538Y0402
X0529Y0401
Y042
X051665Y042965
Y039065
X0528Y038
X0529Y0362
X0538Y0363
X0546Y036
X0542Y0347
X0536Y0343
X0528Y0341
X0515Y0344
X051Y0346
X051665Y035165
Y031265
X049289Y031489
X0538Y0324
X0546Y0321
X0554Y033
X054265Y033565
X0569Y0343
X057765Y034435
X0588Y0345
X0587Y0338
Y0331
X0585Y0351
X058Y0354
X058665Y036135
X0598Y0367
X0609Y0366
Y0378
X0611Y0389
X0608Y0396
X0603Y0397
X0597
X0587Y0409
Y0416
X0588Y0423
X0585Y0429
X058Y0432
X057765Y042235
X0574Y0404
X0554Y0408
X0546Y0399
X0542Y0386
X054265Y037465
X0554Y0369
X0574Y0371
X060582Y0351
X0603Y0319
X0608Y0318
X0611Y0315
X0597Y0319
X060582Y0429
X0606Y0443
X0598Y0442
X058665Y043935
X0574Y0449
X0554Y0447
X054265Y045265
X0542Y0464
X051665Y046865
X0611Y0467
X0606Y0456
X0617
X061709Y044609
X064647Y044853
X0639Y0458
X0636Y0463
X0634Y043
X0637Y0426
X063065Y041935
X0634Y0408
X062514Y040486
X0638Y0389
X0635Y0381
X0638Y0371
X0632Y0366
X0638Y0358
X0646Y0353
X0648Y0349
X066809Y034791
X0671Y0353
X067265Y036335
X069Y0366
Y0373
X069035Y038265
X069002Y038702
X06902Y04008
X069059Y0405
X069746Y042346
X070927Y042427
X072465Y042365
X073135
X0728Y0436
X0723
X071609Y043709
X0734Y0444
X073353Y045747
X0731Y0468
X0713
X0694Y0465
X069Y0454
X069381Y044419
X0686Y0439
X0688Y0431
X0678Y0422
X066653Y039753
X0649Y043
X066753Y044847
X07447Y04357
X074774Y046226
X0766Y0451
X0771Y0448
X077Y0428
X0775Y0417
X0761Y042
X076065Y040335
X0761Y0399
X076009Y0387
X0762Y0381
Y0373
X076065Y036665
X0758Y0358
X0764Y035
X0769Y0347
X0755Y034
X0748Y0332
X0742
X07388Y03518
X0727Y0352
X0721Y0354
X07073Y03523
X07035Y03395
X0689Y034
X068824Y033324
X069453Y033253
X06955Y03195
X06949Y03145
X0701Y0319
X0711Y032
X0724Y034
X068727Y034627
X0686Y0351
X0676Y0327
X06765Y03195
Y03145
X064591Y032491
X0634Y033
X062514Y032686
X0628Y0316
X063065Y034135
X074711Y031389
X0776Y0387
X0774Y0396
X0785Y039
X078854Y034274
X074Y0477
X07195Y04855
X072266Y050574
X0723Y0533
X073Y053
X073091Y053909
X073974Y052374
X071609Y055091
X070924Y055576
X071081Y056619
X072081
X0723Y0558
X06995Y05525
X06975Y05425
Y05375
X068876Y055576
X068Y055
X0675Y0545
X0668Y0557
X0651Y0556
X064Y0546
X06395Y05365
X0634Y0526
X0637Y0519
X0628Y052
X0632Y0507
X063292Y050192
X063065Y049735
X0634Y0486
X062514Y048286
X0632Y0471
X064Y047
X0639Y0478
X0652Y0492
X0644Y0504
X0647Y0513
X0667
X067435Y048735
X06745Y04825
X0681Y0478
X0687Y0477
X0696Y0471
X069855Y050945
X068162Y0566
X0681Y0589
X0689Y061
X0678Y0617
X067665Y062265
X0699Y062
X071181Y058981
X072019
X0645Y0586
X0634Y0585
Y0581
X063065Y057535
X0634Y0564
X062514Y056086
X0626Y0544
X0638Y0606
X0648Y0618
X0658Y0615
X0611Y062
X0606Y0609
Y0599
X059817Y059683
X058665Y059535
X0585Y0585
X058Y0588
X057765Y057835
X0588Y0579
X0587Y0572
Y0565
X0574
X0554Y0564
X054265Y056965
X0542Y0581
X0546Y0594
X0538Y0597
X0529Y0596
X0528Y0616
X0542Y062
X054265Y060865
X0554Y0603
X0574Y0606
X0565Y0617
X051665Y062465
X0496Y0612
X048
X047684Y060384
X0476Y0599
X048516Y060384
X049289Y058789
X0496Y0573
X048
X047684Y056484
X0476Y056
X048516Y056484
X049289Y054889
X0496Y0534
X048
X047684Y052584
X0476Y0521
X048516Y052584
X049289Y050989
X0496Y0495
X048
X047684Y048684
X0476Y0482
X048516Y048684
X049289Y047089
X0471Y0471
Y051
Y0549
Y0588
X051665Y058565
X0528Y0574
X0529Y0557
X0538Y0558
X0546Y0555
X0542Y0542
X054265Y053065
X0538Y0519
X0529Y0518
X0528Y0536
X051665Y054665
Y050765
X0528Y0496
X0529Y0479
X0538Y048
X0546Y0477
X0554Y0486
X054265Y049165
X0542Y0503
X0546Y0516
X0554Y0525
X0574Y0527
X058665Y051735
X0585Y0507
X058Y051
X057765Y050035
X0588Y0501
X0587Y0494
Y0487
X0574Y0484
X0597Y0475
X0603
X0608Y0474
X060582Y0507
X0606Y052
Y0528
X059865Y0522
X0597Y0553
X0603
X0608Y0552
X0611Y0545
X060582Y0585
X0613Y0606
X042572Y060328
X0425Y0609
X0429Y0614
X043Y0623
X0419Y0624
X0415
Y0615
X0419Y0612
X0423Y0594
X0428Y0589
X0433
X0419Y0586
X0415
X0411Y0588
X0415Y0576
X0419Y0572
X0425Y057
X042572Y056428
X0424Y0555
X0433Y0551
X0429Y0546
Y0536
X0419Y0535
X0415Y0538
Y0547
X0419
X0411Y0549
X0396Y0553
X038656Y054844
X038Y0551
X0374Y0548
X0382Y0542
X038Y0524
X0369Y0525
X0358Y0526
X035765Y051335
X034856Y05097
X0354Y0502
X0337Y0504
Y05
X0332Y0491
X0342Y0488
X0358Y0487
X0369Y0486
X038Y0485
Y0473
X0374Y047
X038656Y047044
X0396Y0475
X0399Y0478
X0411Y0471
X0415Y0469
X0419
X0422Y0474
X0433Y0472
X0437Y0469
X042572Y048628
X0426Y0491
X0428Y0497
X043289Y049689
X0429Y0508
X0424
X0419
X042Y0499
X0419Y0494
X0411Y051
X0396Y0514
X038656Y050944
X038Y0512
X0374Y0509
X0382Y0503
X035765Y047435
X034856Y04707
X032Y047
X0318Y0475
X031756Y047944
X031788Y051288
X0318Y0518
X0342Y0527
X0354Y0541
X034856Y05487
X035765Y055235
X0358Y0565
X0369Y0564
X038Y0563
X0386Y0581
X038656Y058744
X0381Y0592
X038Y0602
X0369Y0603
X0358Y0604
X035765Y059135
X034856Y05877
X0354Y058
X0342Y0566
X031935Y056335
X0326Y055
X033335Y054935
Y058835
X0326Y0589
X031935Y060235
X0342Y0605
X0354Y0619
X0384Y062
X0396Y0592
X0374Y0587
X0428Y0576
X0423Y053
Y0526
Y0522
X0437Y0511
X029188Y051288
X0298Y052
Y0526
X0293Y0533
X0286Y0547
X0289Y0563
X0286Y057
X027465Y057135
X0269Y0584
X0286Y0586
X0289Y06
X0286Y0609
X027465Y061035
X0269Y0623
X0249Y0608
X0253Y0569
X025219Y053381
X026019
X0269Y0545
X0277Y0523
X027844Y051544
X025919Y051019
X025119
Y048981
X026019
X0278Y0481
X027812Y047688
X030839Y056861
Y060761
Y064661
X0286Y0648
X0289Y064
X0286Y0625
X027465Y064935
X0269Y0662
X0286Y0664
X0289Y0679
X0286Y0687
X027465Y068835
X0246Y0686
X0252Y0646
X030839Y068561
X031935Y068035
X0326Y0667
X033335Y066635
X034856Y06657
X035765Y066935
X0358Y0682
X0369Y0681
X038Y068
Y0669
X0374Y0665
X038656Y066544
X0384Y0659
X038Y0641
X0381Y063
X038656Y062644
X0374Y0626
X035765Y063035
X034856Y06267
X033335Y062735
X0326Y0628
X031935Y064135
X0342Y0644
X0358Y0643
X0369Y0642
X0354Y0658
X0342Y0683
X0396Y067
X0411Y0666
X0415Y0664
X0419
X0426Y0668
X042572Y068128
X0422Y0685
X042604Y068896
X0435Y0663
X0428Y0653
X0425Y0647
X042572Y064228
X0424Y0632
X0433Y0627
X0411
X0396Y0631
X0419Y0648
X0415Y0654
X048Y0651
X047684Y064284
X0476Y0638
X048516Y064284
X0496Y0651
X049289Y066589
X0471Y0666
X0476Y0677
X047684Y068184
X048516
X048Y069
X0496
X051665Y066365
X0542Y0659
X054265Y064765
X0538Y0636
X0529Y0635
X0546Y0633
X0554Y0642
X0574Y0634
X0587Y0643
Y065
X0588Y0657
X0585Y0663
X058Y0666
X057765Y065635
X058665Y067335
X059817Y067483
X060582Y0663
X0603Y0631
X0608Y063
X0597Y0631
X0619Y0632
X058061Y068235
X0554Y0681
X054265Y068665
X0538Y0675
X0546Y0672
X049289Y062689
X0471Y0627
X062514Y063886
X0634Y0642
X063065Y065335
X0635Y066
X0633Y0664
X0645Y066
X0647Y0649
X0654Y065
X0653Y0641
X0652Y063102
X0667Y0632
X06891Y06309
X0704Y0644
X06911Y06789
X067765Y067565
X066765Y068235
X066Y0668
X0649Y0671
T02
X021Y04555
X022
Y04655
X021
X078Y0422
Y0412
Y0402
Y0378
Y0368
Y0358
X079
Y0368
Y0378
Y0402
Y0412
Y0422
X0717Y0495
X0707
X0697
X0687
Y0525
X0697
X0707
X0717
X022Y05255
Y05155
Y05055
Y04955
Y04855
Y04755
X021
Y04855
Y04955
Y05055
Y05155
Y05255
Y05355
X022
Y05455
X021
T03
X0758Y0443
Y0453
Y0463
X0788Y0443
Y0473
Y0483
Y0513
X0758
Y0503
Y0493
Y0483
Y0473
T04
X074Y053293
Y054946
Y0566
Y058254
Y061093
Y062746
Y0644
Y066054
T05
X023Y0315
X07801Y032
X023Y0685
X078Y068
T06
X076874Y053293
Y058254
Y061093
Y066054
M30
