INCH,LZ
M48
T1F00S00C0.0135
T2F00S00C0.0250
T3F00S00C0.0350
T4F00S00C0.0354
T5F00S00C0.0400
T6F00S00C0.0709
T7F00S00C0.1000
T8F00S00C0.1260
%
T01
X0662Y0309
X0565Y0312
X0266
X0258Y0317
X028065Y031935
X028824Y031824
Y034176
X028065Y034065
X027Y0344
X027249Y036451
X028065Y036735
X028824Y036624
Y038976
X028065Y038865
X0268Y0392
X0269Y0413
X0258
X028065Y041535
X028824Y041424
X0295Y0428
X028824Y043776
X028065Y043665
X0267Y044
X027Y0461
X0258
X028065Y046335
X028824Y046224
X0299Y03805
X0304Y0352
X0258Y0366
X034107Y036893
X0348Y037
X034784Y037816
X036293Y036707
Y034693
Y031907
X0348Y0322
X034107Y032093
X034784Y033016
X0388Y0326
X039Y0322
X04045Y03185
X0414Y0318
X0416Y0327
X0414Y0338
X042265Y034735
X043151Y034751
X0436Y0344
X0432Y034
X0434Y0322
X0454Y0314
X0462Y0315
X046309Y033291
X04584Y03536
X045072Y035328
X044304Y035296
X0454Y0362
X0462Y0363
X0464Y0383
X04584Y04016
X045072Y040128
X044304Y040096
X0436Y0392
X0432Y0388
X043151Y039551
X042265Y039535
X0414Y0386
X04168Y0374
X0414Y0366
X04045Y03665
X039Y037
X0388Y0374
Y039
X03945Y03975
X03995Y03995
X04045Y04145
X0414Y0414
X0416Y04224
X0414Y0434
X042265Y044335
X043151Y044351
X0436Y044
X0432Y0436
X0434Y0418
X0454Y041
X0462Y0411
X0464Y043
X04584Y04496
X045072Y044928
X044304Y044896
X0454Y0458
X0462Y0459
X0434Y0466
X0414Y0462
X04045Y04625
X039Y0466
X03945Y04455
X03995Y04475
X0388Y0438
Y0422
X039Y0418
X036293Y041507
X0348Y0418
X034107Y041693
X034784Y042616
X036293Y044293
Y046307
X0348Y0466
X034107Y046493
X036293Y039493
X03945Y03495
X03995Y03515
X0388Y0342
X0434Y037
X0473Y0364
X0474Y0352
X048865Y036535
X05Y037
X0504Y0376
Y0388
X051535Y038865
X0527Y0399
X0534Y0416
X052289Y041911
X0504Y0424
X05Y0418
X048865Y041335
X0473Y0412
X0474Y04
Y0448
X0472Y046
X048865Y046135
X05Y0466
X052289Y046711
X0534Y0464
X055Y046
X055Y0443
X0568Y0442
X0565Y0456
X05775Y04635
X061517Y046183
X0617Y0455
X0615Y045198
Y0447
X061609Y041909
X061Y0413
X06Y0423
X059635Y042935
X05765Y04155
X0565Y0408
X0568Y0394
X055Y0395
X055Y0412
Y0364
X055Y0347
X0568Y0346
X0565Y036
X05765Y03675
X06Y0375
X059635Y038135
X0605Y0387
X061517Y036583
X0617Y0359
X0615Y035598
Y0351
X061609Y032309
X061Y0317
X06Y0327
X059635Y033335
X05765Y03195
X0551Y0316
X0534Y032
X052289Y032311
X0504Y0328
X05Y0322
X048865Y031735
X0471Y0315
X0504Y034
X051535Y034065
X0527Y0351
X0534Y0368
X052289Y037111
X051535Y043665
X0504Y0436
X0527Y0447
X0624Y0406
X062791Y041991
X062914Y042714
X0632Y0429
X0638Y043
X0637Y0425
X0626Y043
X062717Y044083
X0648Y043
X0654Y0424
X065914Y044214
X066Y0446
X065965Y045135
X069Y0457
X06955Y04465
X071765Y044465
X07175Y04515
X0738Y0463
X075Y0447
Y0441
X0738Y043
X0739Y0426
X075Y0415
Y041
X074565Y039335
X0742Y0383
X075155Y038245
X07435Y03695
X0739Y0364
X07165Y03515
X071735Y032135
X0719Y0316
X068335Y031465
X0683Y0319
X0678Y0318
X0681Y0328
Y0334
Y0342
X06815Y03515
X0672Y0346
X065914Y034614
X066Y035
X065965Y035535
X066191Y037369
X0677Y0376
X0672Y0389
X0682Y0395
X068947Y041247
X06825Y04265
X0682Y0434
X07165Y04165
X07673Y03947
X078108Y039392
X0772Y0378
X07775Y03595
Y03545
X076927Y046427
X0637Y0396
X0639Y0378
X0632Y0377
X0644Y0382
X0648Y0334
X0638
X0637Y0329
X0632Y0333
X062914Y033114
X0626Y0334
X062717Y034483
X062791Y032391
X0654Y0328
X0795Y0352
X07988Y03828
X078305Y038295
X078735Y039435
X0815Y0394
X082045Y039455
X0819Y0412
X0822Y0422
Y0429
X082165Y044065
X0822Y0445
X0818Y0455
X082149Y046051
X082155Y046445
X0812Y0462
X0791Y0466
X078465Y046565
X085035Y045335
X0844Y0442
X086211Y044089
X0866Y0449
X0865Y0466
X0834Y0431
X083395Y042705
X08337Y04113
X0844Y041
X0835Y0371
X08384Y0352
X08464Y0482
X08208
X082665Y049165
X082626Y051374
X0829Y0528
X08325Y05465
X0838Y0543
X084374Y054826
X08325Y05615
X083026Y058174
X084174
X080081Y058219
X079081
X079119Y060581
X079981
X07995Y05565
X0796Y0544
X0799Y0531
X081009Y053491
Y052109
X0812Y051
X0793Y0503
X07856Y05076
X078624Y048976
X0789Y0478
X0783Y0477
X07955Y04831
X08055Y04825
X08047Y04777
X0865Y0474
X0756Y048
X0754Y0484
X0748Y0472
X0764Y052
X0775Y051
X0762Y0602
X07605Y06105
X0753Y0609
X0747Y0602
X076876Y061776
X0717Y0617
X07175Y06105
X069535Y060865
X0696Y0618
X0682Y0597
X066391Y059291
X0652Y0593
X0646Y0586
X063Y058
X062574Y058774
X0625Y0569
X0632
X064Y057
X0672Y0577
X068947Y057753
X071053Y057647
X0677Y0558
X065965Y054735
X066Y0542
X065914Y053814
X0654Y052
X0648Y0526
X0638
X0637Y0521
X0632Y0525
X062914Y052314
X0626Y0526
X062717Y053683
X062791Y051591
X0625Y0475
X0632Y0473
X064Y0474
X0646Y048
X066391Y047209
X0677Y0469
X0672Y0488
X068Y0494
X0654Y0616
X0648Y0622
X0638
X0637Y0617
X0632Y0621
X062914Y061914
X0626Y0622
X062791Y061191
X061609Y061109
X061Y0605
X061465Y059135
X061898Y059498
X0624Y0598
Y0574
X062Y0562
X061517Y055783
X0617Y0551
X0615Y054798
Y0543
X061609Y051509
X061Y0509
X06Y0519
X059635Y052535
X05755Y05115
X0565Y0504
X0567Y049
X055Y0491
X0551Y0508
X0534Y0512
X052289Y051511
X0504Y052
X05Y0514
X048865Y050935
X0471Y0511
X0474Y0496
X0504Y0484
X051535Y048465
X0527Y0495
X0504Y0472
Y0532
X051535Y053265
X0527Y0543
X0534Y056
X052289Y056311
X0504Y0568
X05Y0562
X048865Y055735
X0472Y0556
X0474Y0544
Y0592
X0472Y0604
X048865Y060535
X05Y061
X0504Y0616
X052289Y061111
X0534Y0608
X055Y0602
Y0587
X0567
X0565Y06
X05765Y06075
X06Y0615
X059635Y062135
Y057335
X06Y0567
X061Y0576
X05775Y05595
X0565Y0552
X055Y0554
Y0539
X0568Y0538
X059635Y047735
X06Y0471
X0605Y0485
X0624Y0502
X0527Y0591
X051535Y058065
X0504Y058
X0464Y0574
X0462Y0555
X0454Y0554
X045072Y054528
X04584Y05456
X044304Y054496
X0436Y0536
X0432Y0532
X043151Y053951
X042265Y053935
X0414Y053
X0417Y05184
X0414Y051
X04045Y05105
X039Y0514
X0388Y0518
Y0534
X03945Y05415
X03995Y05435
X04045Y05585
X0414Y0558
X0417Y05676
X0414Y0578
X042265Y058735
X043151Y058751
X0436Y0584
X0432Y058
X0434Y0562
X044304Y059296
X045072Y059328
X04584Y05936
X0454Y0602
X0462Y0603
X0463Y0622
X0434Y061
X04168Y06136
X0414Y0606
X04045Y06065
X039Y061
X0388Y0614
X03945Y05895
X03995Y05915
X0388Y0582
Y0566
X039Y0562
X036293Y055907
X0348Y0562
X034107Y056093
X034784Y057016
X036293Y058693
Y060707
X0348Y061
X034107Y060893
X034784Y061816
X036293Y053893
Y051107
X0348Y0514
X034107Y051293
X034784Y052216
X036293Y049093
X0388Y0486
X03945Y04935
X03995Y04955
X042265Y049135
X043151Y049151
X0436Y0488
X0432Y0484
X0414Y0482
X0416Y0471
X0388Y047
X034784Y047416
X044304Y049696
X045072Y049728
X04584Y04976
X0454Y0506
X0462Y0507
X0461Y0527
X0434Y0514
X0464Y0479
X028824Y048576
X028065Y048465
X0268Y0488
X026912Y051288
X028212
X0282Y0517
X027856Y052056
X0277Y0506
X029
X03005Y05085
X0296Y0518
X03005Y05565
X029588Y056888
X028Y0569
X0277Y0574
X028044Y057656
X026988Y056888
X025644Y057144
X0256Y0603
X026449Y059549
X028065Y060735
X028824Y060624
X0297Y0594
X0256Y0514
X0253Y0517
X0268Y0632
X028065Y062865
X028824Y062976
Y065424
X028065Y065535
X0269Y0654
X0258Y0652
X0268Y068
X028065Y067665
X028824Y067776
Y070224
X028065Y070335
X027Y0702
X0258Y07
X0268Y0729
X028065Y072465
X028824Y072576
X0298Y0716
X03005Y07005
Y06525
Y07485
X028824Y075024
X028065Y075135
X027449Y074751
X0264Y0748
X028065Y077265
X028824Y077376
X034784Y076216
X0348Y0754
X034107Y075293
X036293Y075107
Y073093
Y070307
X0348Y0706
X034107Y070493
X034784Y071416
X0388Y071
X039Y0706
X04045Y07025
X0414Y0702
X0419Y07112
X0414Y0722
X042265Y073135
X043151Y073151
X0436Y0728
X0432Y0724
X0434Y0706
X043151Y068351
X0436Y068
X0432Y0676
X042265Y068335
X0414Y0674
X0417Y06624
X0414Y0654
X04045Y06545
X039Y0658
X0388Y0662
Y0678
X03945Y06855
X03995Y06875
X036293Y068293
Y065507
X0348Y0658
X034107Y065693
X034784Y066616
X036293Y063493
X0388Y063
X03945Y06375
X03995Y06395
X042265Y063535
X043151Y063551
X0436Y0632
X0432Y0628
X0414Y0626
X044304Y064096
X045072Y064128
X04584Y06416
X0454Y065
X0462Y0651
X0463Y0669
X04584Y06896
X045072Y068928
X044304Y068896
X0454Y0698
X0462Y0699
X0461Y0719
X04584Y07376
X045072Y073728
X044304Y073696
X0454Y0746
X0462Y0747
X0434Y0754
X0432Y0772
X0436Y0776
X043151Y077951
X042265Y077935
X0414Y077
X042Y076
X0414Y075
X04045Y07505
X039Y0754
X0388Y0758
Y0774
X036293Y077893
X03945Y07335
X03995Y07355
X0388Y0726
X0434Y0658
X0472Y0651
X0474Y064
X048865Y065335
X05Y0658
X0504Y0664
Y0676
X051535Y067665
X0527Y0687
X0534Y0704
X052289Y070711
X0504Y0712
X05Y0706
X048865Y070135
X0472Y07
X0474Y0688
Y0736
X048865Y074935
X05Y0754
X0504Y076
Y0772
X051535Y077265
X052289Y075511
X0534Y0752
X055Y0746
Y0731
X0568
X0565Y0744
X0595Y0742
X0604Y0751
X0599Y0759
X0613Y0756
X06176Y0757
X061426Y073974
X061417Y072883
X0616Y0722
X0614Y071898
Y0714
X0599Y0711
X0602Y07
X05785Y07035
X0565Y0696
X0567Y0683
X055
Y0698
Y065
Y0635
X0567Y0634
X0565Y0648
X05775Y06555
X06Y0663
X059635Y066935
X0605Y0674
X0609Y068
X061509Y068609
X0621Y0671
X0624Y0667
X061517Y065383
X0617Y0647
X0615Y064398
Y0639
X0527
X051535Y062865
X0504Y0628
X052289Y065911
X0534Y0656
X0527Y0735
X051535Y072465
X0504Y0724
X0592Y0722
X0592Y077
X060865Y077835
X0619Y0778
X062509Y077191
X063949Y077249
X0639Y0741
X0631Y074
X062617Y070783
X0625Y0697
X062814Y069414
X0631Y0696
X0637Y0697
X0636Y0692
X062691Y068691
X0637Y0678
X0646Y0673
X0658Y06724
X0669Y0671
X0677Y0674
Y0664
X0682Y0663
X069
X067689Y064989
X0672Y0654
X065965Y064335
X066Y0638
X065914Y063414
X062717Y063283
X0632Y0665
X064Y0666
X0653Y0691
X0647Y0697
X065814Y070914
X0659Y0713
X065865Y071835
X069Y072
X069551Y071351
X0691Y077
X07505Y06465
X07655
X078981Y063819
X080119
X0796Y0627
X079Y0662
X080281Y066181
X0796Y0675
X069074Y078174
X067498Y078902
X0527Y0783
X0474Y0784
X04584Y07856
X045072Y078528
X044304Y078496
X03995Y07835
X03945Y07815
X027Y0782
T02
X0713Y0693
X0724
X071219Y071581
X0718Y0738
X071219Y077381
X072381
X075Y076
X07611Y07501
Y07709
Y07191
Y06971
X075Y0708
T03
X0878Y034448
Y035448
Y036952
Y037952
T04
X088Y04
X089
Y041
X088
Y042
X089
Y043
Y044
Y045
X088
Y044
Y043
X0783Y0527
Y0537
Y0547
Y0557
X0753
Y0547
Y0537
Y0527
X022Y0525
Y0515
Y0505
X021
Y0515
Y0525
Y0535
X022
Y0545
X021
Y0555
X022
Y0565
X021
Y0575
X022
Y0585
X021
Y0595
X022
T05
X0858Y0499
Y0509
Y0519
Y0529
Y0539
Y0549
Y0559
Y0569
X0888
Y0539
Y0529
Y0499
T06
X0838Y060293
Y061946
Y0636
Y065254
X0836Y070893
Y072546
Y0742
Y075854
T07
X022Y032
X088
X022Y078
X088
T08
X086674Y060293
Y065254
X086474Y070893
Y075854
M30
