%FSLAX23Y23*%
%MOIN*%
G70*
G01*
G75*
%ADD10R,0.087X0.079*%
%ADD11R,0.079X0.087*%
%ADD12R,0.073X0.024*%
%ADD13R,0.061X0.012*%
%ADD14R,0.012X0.061*%
%ADD15R,0.081X0.024*%
%ADD16R,0.059X0.051*%
%ADD17R,0.078X0.062*%
%ADD18R,0.256X0.036*%
%ADD19R,0.015X0.060*%
%ADD20R,0.101X0.062*%
%ADD21R,0.043X0.039*%
%ADD22R,0.012X0.057*%
%ADD23R,0.039X0.043*%
%ADD24R,0.087X0.024*%
%ADD25R,0.085X0.016*%
%ADD26R,0.051X0.059*%
%ADD27R,0.061X0.024*%
%ADD28R,0.085X0.016*%
%ADD29R,0.063X0.012*%
%ADD30R,0.012X0.063*%
%ADD31R,0.016X0.085*%
%ADD32R,0.016X0.085*%
%ADD33R,0.065X0.012*%
%ADD34R,0.048X0.017*%
%ADD35O,0.048X0.017*%
%ADD36R,0.024X0.055*%
%ADD37R,0.079X0.047*%
%ADD38R,0.087X0.024*%
%ADD39R,0.142X0.031*%
%ADD40R,0.071X0.063*%
%ADD41R,0.124X0.136*%
%ADD42R,0.031X0.142*%
%ADD43R,0.039X0.024*%
%ADD44R,0.091X0.059*%
%ADD45C,0.010*%
%ADD46C,0.016*%
%ADD47C,0.008*%
%ADD48C,0.040*%
%ADD49C,0.012*%
%ADD50C,0.020*%
%ADD51C,0.030*%
%ADD52C,0.059*%
%ADD53C,0.050*%
%ADD54C,0.020*%
%ADD55C,0.150*%
%ADD56R,0.059X0.059*%
%ADD57C,0.157*%
%ADD58C,0.087*%
%ADD59C,0.060*%
%ADD60C,0.025*%
%ADD61C,0.040*%
%ADD62C,0.010*%
%ADD63C,0.008*%
%ADD64C,0.007*%
%ADD65R,0.020X0.008*%
%ADD66C,0.002*%
%ADD67R,0.008X0.020*%
%ADD68R,0.020X0.008*%
%ADD69R,0.008X0.020*%
%ADD70R,0.095X0.087*%
%ADD71R,0.087X0.095*%
%ADD72R,0.081X0.032*%
%ADD73R,0.069X0.020*%
%ADD74R,0.020X0.069*%
%ADD75R,0.089X0.032*%
%ADD76R,0.067X0.059*%
%ADD77R,0.023X0.068*%
%ADD78R,0.051X0.047*%
%ADD79R,0.020X0.065*%
%ADD80R,0.047X0.051*%
%ADD81R,0.095X0.032*%
%ADD82R,0.093X0.024*%
%ADD83R,0.059X0.067*%
%ADD84R,0.069X0.032*%
%ADD85R,0.093X0.024*%
%ADD86R,0.071X0.020*%
%ADD87R,0.020X0.071*%
%ADD88R,0.024X0.093*%
%ADD89R,0.024X0.093*%
%ADD90R,0.073X0.020*%
%ADD91R,0.056X0.025*%
%ADD92O,0.056X0.025*%
%ADD93R,0.032X0.063*%
%ADD94R,0.087X0.055*%
%ADD95R,0.095X0.032*%
%ADD96R,0.150X0.039*%
%ADD97R,0.079X0.071*%
%ADD98R,0.132X0.144*%
%ADD99R,0.039X0.150*%
%ADD100R,0.047X0.032*%
%ADD101R,0.099X0.067*%
%ADD102C,0.058*%
%ADD103C,0.158*%
%ADD104R,0.067X0.067*%
%ADD105C,0.067*%
%ADD106C,0.165*%
%ADD107C,0.095*%
%ADD108C,0.068*%
%ADD109C,0.033*%
%ADD110C,0.048*%
D78*
X7467Y4340D02*
D03*
X7533D02*
D03*
X8133Y4280D02*
D03*
X8067D02*
D03*
X7533Y4260D02*
D03*
X7467D02*
D03*
X8067Y4480D02*
D03*
X8133D02*
D03*
X7533Y4160D02*
D03*
X7467D02*
D03*
X7533Y4440D02*
D03*
X7467D02*
D03*
X8067Y4180D02*
D03*
X8133D02*
D03*
Y4380D02*
D03*
X8067D02*
D03*
X4033Y3220D02*
D03*
X3967D02*
D03*
Y3460D02*
D03*
X4033D02*
D03*
X4227Y3440D02*
D03*
X4293D02*
D03*
X4227Y3240D02*
D03*
X4293D02*
D03*
X4033Y3700D02*
D03*
X3967D02*
D03*
Y3940D02*
D03*
X4033D02*
D03*
X4227Y3920D02*
D03*
X4293D02*
D03*
X4227Y3720D02*
D03*
X4293D02*
D03*
X4033Y4180D02*
D03*
X3967D02*
D03*
Y4420D02*
D03*
X4033D02*
D03*
X4227Y4400D02*
D03*
X4293D02*
D03*
X4227Y4200D02*
D03*
X4293D02*
D03*
X4033Y4660D02*
D03*
X3967D02*
D03*
Y4900D02*
D03*
X4033D02*
D03*
X4227Y4880D02*
D03*
X4293D02*
D03*
X4227Y4680D02*
D03*
X4293D02*
D03*
X4033Y5140D02*
D03*
X3967D02*
D03*
Y5380D02*
D03*
X4033D02*
D03*
X4227Y5360D02*
D03*
X4293D02*
D03*
X4227Y5160D02*
D03*
X4293D02*
D03*
X4033Y5620D02*
D03*
X3967D02*
D03*
Y5860D02*
D03*
X4033D02*
D03*
X4227Y5840D02*
D03*
X4293D02*
D03*
X4227Y5640D02*
D03*
X4293D02*
D03*
X4033Y6100D02*
D03*
X3967D02*
D03*
Y6340D02*
D03*
X4033D02*
D03*
X4227Y6320D02*
D03*
X4293D02*
D03*
X4227Y6120D02*
D03*
X4293D02*
D03*
X4033Y6580D02*
D03*
X3967D02*
D03*
Y6820D02*
D03*
X4033D02*
D03*
X4227Y6800D02*
D03*
X4293D02*
D03*
X4227Y6600D02*
D03*
X4293D02*
D03*
X4033Y7060D02*
D03*
X3967D02*
D03*
Y7300D02*
D03*
X4033D02*
D03*
X4227Y7280D02*
D03*
X4293D02*
D03*
X4227Y7080D02*
D03*
X4293D02*
D03*
X2807Y3360D02*
D03*
X2873D02*
D03*
X2807Y3240D02*
D03*
X2873D02*
D03*
X2807Y3840D02*
D03*
X2873D02*
D03*
X2807Y3720D02*
D03*
X2873D02*
D03*
X2807Y4320D02*
D03*
X2873D02*
D03*
X2807Y4200D02*
D03*
X2873D02*
D03*
X2807Y4800D02*
D03*
X2873D02*
D03*
X2807Y4680D02*
D03*
X2873D02*
D03*
X2807Y6240D02*
D03*
X2873D02*
D03*
X2807Y6120D02*
D03*
X2873D02*
D03*
X2807Y6720D02*
D03*
X2873D02*
D03*
X2807Y6600D02*
D03*
X2873D02*
D03*
X2807Y7200D02*
D03*
X2873D02*
D03*
X2807Y7080D02*
D03*
X2873D02*
D03*
X4953Y7540D02*
D03*
X4887D02*
D03*
X4293Y7560D02*
D03*
X4227D02*
D03*
X4293Y7760D02*
D03*
X4227D02*
D03*
X4033Y7780D02*
D03*
X3967D02*
D03*
Y7540D02*
D03*
X4033D02*
D03*
X2807Y7690D02*
D03*
X2873D02*
D03*
X2807Y7570D02*
D03*
X2873D02*
D03*
X5547Y7000D02*
D03*
X5613D02*
D03*
X4887Y7060D02*
D03*
X4953D02*
D03*
X5547Y6520D02*
D03*
X5613D02*
D03*
X4887Y6580D02*
D03*
X4953D02*
D03*
X5547Y6040D02*
D03*
X5613D02*
D03*
X4887Y6100D02*
D03*
X4953D02*
D03*
X5547Y5560D02*
D03*
X5613D02*
D03*
X4887Y5620D02*
D03*
X4953D02*
D03*
X5547Y5080D02*
D03*
X5613D02*
D03*
X4887Y5140D02*
D03*
X4953D02*
D03*
X5547Y4600D02*
D03*
X5613D02*
D03*
X4887Y4660D02*
D03*
X4953D02*
D03*
X5547Y4120D02*
D03*
X5613D02*
D03*
X4887Y4180D02*
D03*
X4953D02*
D03*
X5547Y3640D02*
D03*
X5613D02*
D03*
X4887Y3700D02*
D03*
X4953D02*
D03*
X5547Y3160D02*
D03*
X5613D02*
D03*
X4887Y3220D02*
D03*
X4953D02*
D03*
X6767Y7840D02*
D03*
X6833D02*
D03*
X6153D02*
D03*
X6087D02*
D03*
X5547Y7480D02*
D03*
X5613D02*
D03*
X6107Y7620D02*
D03*
X6173D02*
D03*
D80*
X8400Y3713D02*
D03*
Y3647D02*
D03*
X7840Y4633D02*
D03*
Y4567D02*
D03*
X7740Y3967D02*
D03*
Y4033D02*
D03*
Y4567D02*
D03*
Y4633D02*
D03*
X7640Y4033D02*
D03*
Y3967D02*
D03*
X7960Y4633D02*
D03*
Y4567D02*
D03*
X7640Y4567D02*
D03*
Y4633D02*
D03*
X7960Y4033D02*
D03*
Y3967D02*
D03*
X7860D02*
D03*
Y4033D02*
D03*
X5220Y7793D02*
D03*
Y7727D02*
D03*
X6900Y6153D02*
D03*
Y6087D02*
D03*
X7100Y6107D02*
D03*
Y6173D02*
D03*
X6900Y4447D02*
D03*
Y4513D02*
D03*
X7100Y4447D02*
D03*
Y4513D02*
D03*
X6900Y3213D02*
D03*
Y3147D02*
D03*
X7100Y3213D02*
D03*
Y3147D02*
D03*
X8440Y4207D02*
D03*
Y4273D02*
D03*
X5920Y7587D02*
D03*
Y7653D02*
D03*
X5920Y7173D02*
D03*
Y7107D02*
D03*
X5220Y7247D02*
D03*
Y7313D02*
D03*
X5920Y6693D02*
D03*
Y6627D02*
D03*
X5220Y6767D02*
D03*
Y6833D02*
D03*
X5920Y6213D02*
D03*
Y6147D02*
D03*
X5220Y6287D02*
D03*
Y6353D02*
D03*
X5920Y5733D02*
D03*
Y5667D02*
D03*
X5220Y5807D02*
D03*
Y5873D02*
D03*
X5920Y5253D02*
D03*
Y5187D02*
D03*
X5220Y5327D02*
D03*
Y5393D02*
D03*
X5920Y4773D02*
D03*
Y4707D02*
D03*
X5220Y4847D02*
D03*
Y4913D02*
D03*
X5920Y4293D02*
D03*
Y4227D02*
D03*
X5220Y4367D02*
D03*
Y4433D02*
D03*
X5920Y3813D02*
D03*
Y3747D02*
D03*
X5220Y3887D02*
D03*
Y3953D02*
D03*
X5920Y3333D02*
D03*
Y3267D02*
D03*
X5220Y3407D02*
D03*
Y3473D02*
D03*
D102*
X8740Y3485D02*
D03*
Y3585D02*
D03*
Y3835D02*
D03*
Y3735D02*
D03*
D103*
X8800Y7800D02*
D03*
Y3200D02*
D03*
X2200D02*
D03*
Y7800D02*
D03*
D104*
X2100Y5950D02*
D03*
D105*
X2200D02*
D03*
X2100Y5850D02*
D03*
X2200D02*
D03*
X2100Y5750D02*
D03*
X2200D02*
D03*
X2100Y5650D02*
D03*
X2200D02*
D03*
X2100Y5550D02*
D03*
X2200D02*
D03*
X2100Y5450D02*
D03*
X2200D02*
D03*
X2100Y5350D02*
D03*
X2200D02*
D03*
X2100Y5250D02*
D03*
X2200D02*
D03*
X2100Y5150D02*
D03*
X2200D02*
D03*
X2100Y5050D02*
D03*
X2200D02*
D03*
D106*
X8667Y6029D02*
D03*
Y6525D02*
D03*
X8647Y7089D02*
D03*
Y7585D02*
D03*
D107*
X8380Y6029D02*
D03*
Y6195D02*
D03*
Y6525D02*
D03*
Y6360D02*
D03*
X8360Y7089D02*
D03*
Y7255D02*
D03*
Y7585D02*
D03*
Y7420D02*
D03*
D108*
X8880Y5340D02*
D03*
Y5640D02*
D03*
X8580Y5340D02*
D03*
Y5440D02*
D03*
Y5640D02*
D03*
Y5540D02*
D03*
X8880Y4940D02*
D03*
Y5240D02*
D03*
X8580Y4940D02*
D03*
Y5040D02*
D03*
Y5240D02*
D03*
Y5140D02*
D03*
D109*
X8660Y4560D02*
D03*
X8209Y5911D02*
D03*
X8010Y5790D02*
D03*
X7720Y5780D02*
D03*
X7830D02*
D03*
X7620Y5830D02*
D03*
X8161Y3879D02*
D03*
X8128Y3718D02*
D03*
X8050Y3640D02*
D03*
X7780Y6140D02*
D03*
X7960Y6150D02*
D03*
X7867Y6147D02*
D03*
X7816Y6144D02*
D03*
X7541Y6029D02*
D03*
X8189D02*
D03*
X7660Y6400D02*
D03*
X8110D02*
D03*
X7645Y3555D02*
D03*
X7655Y3505D02*
D03*
X7850Y3630D02*
D03*
X8065Y3515D02*
D03*
X8275Y3565D02*
D03*
X8255Y3515D02*
D03*
X8279Y3729D02*
D03*
X8265Y3665D02*
D03*
X8400Y3610D02*
D03*
X7107Y3977D02*
D03*
X7889Y5231D02*
D03*
X7591Y5231D02*
D03*
X7650Y5300D02*
D03*
X8160Y4720D02*
D03*
X8330D02*
D03*
X8040Y4900D02*
D03*
X7977Y4903D02*
D03*
Y4703D02*
D03*
X8180Y4870D02*
D03*
X8240Y4580D02*
D03*
X8100Y4730D02*
D03*
X7930Y4940D02*
D03*
X8040Y4460D02*
D03*
X7950Y4430D02*
D03*
X7940Y4490D02*
D03*
X7590Y4550D02*
D03*
X7460Y4740D02*
D03*
X7590Y4870D02*
D03*
X8010Y4700D02*
D03*
X7780Y5100D02*
D03*
X7420Y4740D02*
D03*
Y4580D02*
D03*
X7310Y4160D02*
D03*
X7540Y4930D02*
D03*
X7280Y4670D02*
D03*
X7510Y5060D02*
D03*
X7310D02*
D03*
X7490Y5150D02*
D03*
X7280D02*
D03*
X7210Y4590D02*
D03*
X7336Y4064D02*
D03*
X8660Y4670D02*
D03*
X8290Y4140D02*
D03*
X8470D02*
D03*
Y4340D02*
D03*
X7420Y4360D02*
D03*
X7570Y4340D02*
D03*
X8170Y4470D02*
D03*
X8050Y4420D02*
D03*
X8160Y4340D02*
D03*
X8030Y4280D02*
D03*
X8160Y4220D02*
D03*
Y4140D02*
D03*
X8040D02*
D03*
X8030Y4050D02*
D03*
X7970Y4070D02*
D03*
X7918Y3942D02*
D03*
X7860Y3920D02*
D03*
X7898Y4048D02*
D03*
X7770Y4060D02*
D03*
X7700Y3940D02*
D03*
X7600D02*
D03*
X7680Y4050D02*
D03*
X7880Y4660D02*
D03*
X7840Y4530D02*
D03*
X7741Y4679D02*
D03*
X7690Y4540D02*
D03*
X7570Y4140D02*
D03*
X7550Y4220D02*
D03*
X7430Y4260D02*
D03*
Y4160D02*
D03*
X7920Y4540D02*
D03*
X7918Y4658D02*
D03*
X7670Y4656D02*
D03*
X7570Y4420D02*
D03*
X7430Y4400D02*
D03*
X4631Y3329D02*
D03*
X6639Y5929D02*
D03*
X6619Y3737D02*
D03*
X6639Y4721D02*
D03*
X6370Y3960D02*
D03*
X6250Y4750D02*
D03*
Y5690D02*
D03*
X6240Y6670D02*
D03*
X6090Y6800D02*
D03*
X6151Y6861D02*
D03*
X6269Y6869D02*
D03*
X6281Y6941D02*
D03*
X6250Y6970D02*
D03*
X6310Y6960D02*
D03*
X6142Y7288D02*
D03*
X6140Y7190D02*
D03*
Y7140D02*
D03*
X2560Y6030D02*
D03*
X2580Y6520D02*
D03*
Y7000D02*
D03*
X2640Y7490D02*
D03*
X2807Y3407D02*
D03*
X2882Y3418D02*
D03*
X2807Y3193D02*
D03*
X2882Y3182D02*
D03*
X2807Y3887D02*
D03*
X2882Y3898D02*
D03*
X2807Y3673D02*
D03*
X2882Y3662D02*
D03*
X2807Y4367D02*
D03*
X2882Y4378D02*
D03*
X2807Y4153D02*
D03*
X2882Y4142D02*
D03*
X2807Y4847D02*
D03*
X2882Y4858D02*
D03*
X2807Y4633D02*
D03*
X2882Y4622D02*
D03*
X2807Y6287D02*
D03*
X2882Y6298D02*
D03*
X2807Y6073D02*
D03*
X2882Y6062D02*
D03*
X2807Y6767D02*
D03*
X2882Y6778D02*
D03*
X2807Y6553D02*
D03*
X2882Y6542D02*
D03*
X2807Y7247D02*
D03*
X2882Y7258D02*
D03*
X2807Y7033D02*
D03*
X2882Y7022D02*
D03*
Y7512D02*
D03*
X4507Y7853D02*
D03*
X4584Y7856D02*
D03*
X4430Y7850D02*
D03*
X4540Y7460D02*
D03*
X3629Y7511D02*
D03*
X4140Y7700D02*
D03*
X4340Y7540D02*
D03*
X4140Y7500D02*
D03*
X4200Y7600D02*
D03*
X4315Y7795D02*
D03*
X4227Y7793D02*
D03*
X4320Y7720D02*
D03*
X3995Y7835D02*
D03*
X3945Y7815D02*
D03*
X3900Y7540D02*
D03*
X4045Y7505D02*
D03*
X3880Y7740D02*
D03*
Y7580D02*
D03*
X3629Y7789D02*
D03*
X3480Y7540D02*
D03*
X3411Y7529D02*
D03*
X3478Y7622D02*
D03*
X2807Y7523D02*
D03*
Y7737D02*
D03*
X2882Y7748D02*
D03*
X6590Y7130D02*
D03*
X6587Y7183D02*
D03*
X6581Y7091D02*
D03*
X6470Y6970D02*
D03*
X6370D02*
D03*
X6360Y6920D02*
D03*
X6530Y6910D02*
D03*
X6310Y7400D02*
D03*
X6262Y7078D02*
D03*
X6160Y7220D02*
D03*
X6291Y6191D02*
D03*
X6161Y6111D02*
D03*
X6150Y6390D02*
D03*
Y6440D02*
D03*
X6152Y6538D02*
D03*
X6600Y6380D02*
D03*
X6597Y6433D02*
D03*
X6370Y6170D02*
D03*
X6480Y6220D02*
D03*
X6540Y6160D02*
D03*
X6279Y6119D02*
D03*
X6100Y6050D02*
D03*
X6260Y6220D02*
D03*
X6272Y6328D02*
D03*
X6320Y6210D02*
D03*
X6380Y6220D02*
D03*
X6591Y6341D02*
D03*
X6320Y6650D02*
D03*
X6170Y6470D02*
D03*
X6291Y5231D02*
D03*
X6161Y5151D02*
D03*
X6150Y5430D02*
D03*
Y5480D02*
D03*
X6152Y5578D02*
D03*
X6600Y5420D02*
D03*
X6597Y5473D02*
D03*
X6370Y5210D02*
D03*
X6480Y5260D02*
D03*
X6540Y5200D02*
D03*
X6279Y5159D02*
D03*
X6100Y5090D02*
D03*
X6260Y5260D02*
D03*
X6272Y5368D02*
D03*
X6320Y5250D02*
D03*
X6380Y5260D02*
D03*
X6591Y5381D02*
D03*
X6320Y5690D02*
D03*
X6170Y5510D02*
D03*
X6291Y4271D02*
D03*
X6161Y4191D02*
D03*
X6150Y4470D02*
D03*
Y4520D02*
D03*
X6152Y4618D02*
D03*
X6600Y4460D02*
D03*
X6597Y4513D02*
D03*
X6370Y4250D02*
D03*
X6480Y4300D02*
D03*
X6540Y4240D02*
D03*
X6279Y4199D02*
D03*
X6100Y4130D02*
D03*
X6260Y4300D02*
D03*
X6272Y4408D02*
D03*
X6320Y4290D02*
D03*
X6380Y4300D02*
D03*
X6591Y4421D02*
D03*
X6320Y4730D02*
D03*
X6170Y4550D02*
D03*
X6291Y3311D02*
D03*
X6161Y3231D02*
D03*
X6150Y3510D02*
D03*
Y3560D02*
D03*
X6152Y3658D02*
D03*
X6600Y3500D02*
D03*
X6597Y3553D02*
D03*
X6370Y3290D02*
D03*
X6480Y3340D02*
D03*
X6540Y3280D02*
D03*
X6279Y3239D02*
D03*
X6100Y3170D02*
D03*
X6260Y3340D02*
D03*
X6272Y3448D02*
D03*
X6320Y3330D02*
D03*
X6380Y3340D02*
D03*
X6591Y3461D02*
D03*
X6320Y3770D02*
D03*
X6170Y3590D02*
D03*
X3005Y7485D02*
D03*
X2970Y5940D02*
D03*
X2804Y5766D02*
D03*
X2770Y5740D02*
D03*
X2564Y5714D02*
D03*
X2699Y5689D02*
D03*
X2959D02*
D03*
X2800Y5690D02*
D03*
X2580Y4610D02*
D03*
Y3170D02*
D03*
Y4130D02*
D03*
Y3660D02*
D03*
X2530Y5170D02*
D03*
X2950Y4280D02*
D03*
X2786Y5206D02*
D03*
X2821Y5129D02*
D03*
X2820Y5170D02*
D03*
X2960Y5180D02*
D03*
X2691Y5129D02*
D03*
X2560Y5140D02*
D03*
X2900Y5060D02*
D03*
X2770D02*
D03*
X4360Y7760D02*
D03*
X4620Y7470D02*
D03*
X3005Y7005D02*
D03*
X4227Y7313D02*
D03*
X4315Y7315D02*
D03*
X4140Y7020D02*
D03*
X4340Y7060D02*
D03*
X3880Y7260D02*
D03*
Y7100D02*
D03*
X4320Y7240D02*
D03*
X4140Y7220D02*
D03*
X4360Y7280D02*
D03*
X3629Y7031D02*
D03*
X4540Y6980D02*
D03*
X3629Y7309D02*
D03*
X3411Y7049D02*
D03*
X3480Y7060D02*
D03*
X3478Y7142D02*
D03*
X4045Y7025D02*
D03*
X3945Y7335D02*
D03*
X3995Y7355D02*
D03*
X4584Y7376D02*
D03*
X4507Y7373D02*
D03*
X4430Y7370D02*
D03*
X4620Y6990D02*
D03*
X3900Y7060D02*
D03*
X3005Y6525D02*
D03*
X4227Y6833D02*
D03*
X4315Y6835D02*
D03*
X4140Y6540D02*
D03*
X4340Y6580D02*
D03*
X3880Y6780D02*
D03*
Y6620D02*
D03*
X4320Y6760D02*
D03*
X4140Y6740D02*
D03*
X4360Y6800D02*
D03*
X3629Y6551D02*
D03*
X4540Y6500D02*
D03*
X3629Y6829D02*
D03*
X3411Y6569D02*
D03*
X3480Y6580D02*
D03*
X3478Y6662D02*
D03*
X4045Y6545D02*
D03*
X3945Y6855D02*
D03*
X3995Y6875D02*
D03*
X4584Y6896D02*
D03*
X4507Y6893D02*
D03*
X4430Y6890D02*
D03*
X4620Y6510D02*
D03*
X3900Y6580D02*
D03*
X4227Y6353D02*
D03*
X4315Y6355D02*
D03*
X4140Y6060D02*
D03*
X4340Y6100D02*
D03*
X3880Y6300D02*
D03*
Y6140D02*
D03*
X4320Y6280D02*
D03*
X4140Y6260D02*
D03*
X4360Y6320D02*
D03*
X3629Y6071D02*
D03*
X4540Y6020D02*
D03*
X3629Y6349D02*
D03*
X3411Y6089D02*
D03*
X3480Y6100D02*
D03*
X3478Y6182D02*
D03*
X4045Y6065D02*
D03*
X3945Y6375D02*
D03*
X3995Y6395D02*
D03*
X4584Y6416D02*
D03*
X4507Y6413D02*
D03*
X4430Y6410D02*
D03*
X4620Y6030D02*
D03*
X3900Y6100D02*
D03*
X3005Y5565D02*
D03*
X4227Y5873D02*
D03*
X4315Y5875D02*
D03*
X4140Y5580D02*
D03*
X4340Y5620D02*
D03*
X3880Y5820D02*
D03*
Y5660D02*
D03*
X4320Y5800D02*
D03*
X4140Y5780D02*
D03*
X4360Y5840D02*
D03*
X3629Y5591D02*
D03*
X4540Y5540D02*
D03*
X3629Y5869D02*
D03*
X3411Y5609D02*
D03*
X3480Y5620D02*
D03*
X3478Y5702D02*
D03*
X4045Y5585D02*
D03*
X3945Y5895D02*
D03*
X3995Y5915D02*
D03*
X4584Y5936D02*
D03*
X4507Y5933D02*
D03*
X4430Y5930D02*
D03*
X4620Y5550D02*
D03*
X3900Y5620D02*
D03*
X3005Y5085D02*
D03*
X4227Y5393D02*
D03*
X4315Y5395D02*
D03*
X4140Y5100D02*
D03*
X4340Y5140D02*
D03*
X3880Y5340D02*
D03*
Y5180D02*
D03*
X4320Y5320D02*
D03*
X4140Y5300D02*
D03*
X4360Y5360D02*
D03*
X3629Y5111D02*
D03*
X4540Y5060D02*
D03*
X3629Y5389D02*
D03*
X3411Y5129D02*
D03*
X3480Y5140D02*
D03*
X3478Y5222D02*
D03*
X4045Y5105D02*
D03*
X3945Y5415D02*
D03*
X3995Y5435D02*
D03*
X4584Y5456D02*
D03*
X4507Y5453D02*
D03*
X4430Y5450D02*
D03*
X4620Y5070D02*
D03*
X3900Y5140D02*
D03*
X4227Y4913D02*
D03*
X4315Y4915D02*
D03*
X4140Y4620D02*
D03*
X4340Y4660D02*
D03*
X3880Y4860D02*
D03*
Y4700D02*
D03*
X4320Y4840D02*
D03*
X4140Y4820D02*
D03*
X4360Y4880D02*
D03*
X3629Y4631D02*
D03*
X4540Y4580D02*
D03*
X3629Y4909D02*
D03*
X3411Y4649D02*
D03*
X3480Y4660D02*
D03*
X3478Y4742D02*
D03*
X4045Y4625D02*
D03*
X3945Y4935D02*
D03*
X3995Y4955D02*
D03*
X4584Y4976D02*
D03*
X4507Y4973D02*
D03*
X4430Y4970D02*
D03*
X4620Y4590D02*
D03*
X3900Y4660D02*
D03*
X4227Y4433D02*
D03*
X4315Y4435D02*
D03*
X4140Y4140D02*
D03*
X4340Y4180D02*
D03*
X3880Y4380D02*
D03*
Y4220D02*
D03*
X4320Y4360D02*
D03*
X4140Y4340D02*
D03*
X4360Y4400D02*
D03*
X3629Y4151D02*
D03*
X4540Y4100D02*
D03*
X3629Y4429D02*
D03*
X3411Y4169D02*
D03*
X3480Y4180D02*
D03*
X3478Y4262D02*
D03*
X4045Y4145D02*
D03*
X3945Y4455D02*
D03*
X3995Y4475D02*
D03*
X4584Y4496D02*
D03*
X4507Y4493D02*
D03*
X4430Y4490D02*
D03*
X4620Y4110D02*
D03*
X3900Y4180D02*
D03*
X4227Y3953D02*
D03*
X4315Y3955D02*
D03*
X4140Y3660D02*
D03*
X4340Y3700D02*
D03*
X3880Y3900D02*
D03*
Y3740D02*
D03*
X4320Y3880D02*
D03*
X4140Y3860D02*
D03*
X4360Y3920D02*
D03*
X3629Y3671D02*
D03*
X4540Y3620D02*
D03*
X3629Y3949D02*
D03*
X3411Y3689D02*
D03*
X3480Y3700D02*
D03*
X3478Y3782D02*
D03*
X4045Y3665D02*
D03*
X3945Y3975D02*
D03*
X3995Y3995D02*
D03*
X4584Y4016D02*
D03*
X4507Y4013D02*
D03*
X4430Y4010D02*
D03*
X4620Y3630D02*
D03*
X3900Y3700D02*
D03*
X4227Y3473D02*
D03*
X4315Y3475D02*
D03*
X4140Y3180D02*
D03*
X4340Y3220D02*
D03*
X3880Y3420D02*
D03*
Y3260D02*
D03*
X4320Y3400D02*
D03*
X4140Y3380D02*
D03*
X4360Y3440D02*
D03*
X3629Y3191D02*
D03*
X4540Y3140D02*
D03*
X3629Y3469D02*
D03*
X3411Y3209D02*
D03*
X3480Y3220D02*
D03*
X3478Y3302D02*
D03*
X4045Y3185D02*
D03*
X3945Y3495D02*
D03*
X3995Y3515D02*
D03*
X4584Y3536D02*
D03*
X4507Y3533D02*
D03*
X4430Y3530D02*
D03*
X4620Y3150D02*
D03*
X3900Y3220D02*
D03*
X4740Y7840D02*
D03*
X5040Y7720D02*
D03*
Y7600D02*
D03*
X5000Y7540D02*
D03*
X5153Y7727D02*
D03*
X5229Y7551D02*
D03*
X4887Y7493D02*
D03*
X4610Y7190D02*
D03*
X4720Y7000D02*
D03*
X4630Y6690D02*
D03*
X4720Y6510D02*
D03*
X4630Y6220D02*
D03*
X4720Y6040D02*
D03*
X4640Y5740D02*
D03*
X4720Y5560D02*
D03*
X4610Y5270D02*
D03*
X4640Y4790D02*
D03*
X4720Y4600D02*
D03*
X4640Y4300D02*
D03*
X4730Y4120D02*
D03*
X4640Y3830D02*
D03*
X4730Y3640D02*
D03*
X4710Y3150D02*
D03*
X6810Y3340D02*
D03*
X6780Y3180D02*
D03*
X6810Y3420D02*
D03*
X6620Y3090D02*
D03*
X6810Y3280D02*
D03*
X6390Y3780D02*
D03*
X6720Y3460D02*
D03*
X6390Y7410D02*
D03*
X6400Y6660D02*
D03*
Y5700D02*
D03*
X6720Y5770D02*
D03*
X6400Y4740D02*
D03*
X6720Y3890D02*
D03*
X6825Y4265D02*
D03*
X6769Y6499D02*
D03*
X6770Y5580D02*
D03*
Y4690D02*
D03*
X6820Y4340D02*
D03*
Y3950D02*
D03*
X6770Y3760D02*
D03*
X6720Y6540D02*
D03*
X6770Y6640D02*
D03*
X6820Y6630D02*
D03*
X6770Y6740D02*
D03*
X6820Y5970D02*
D03*
X6800Y4940D02*
D03*
X6690Y6710D02*
D03*
X6370Y6780D02*
D03*
X7190Y3160D02*
D03*
X7173Y3213D02*
D03*
X6833Y3147D02*
D03*
X6830Y3190D02*
D03*
X6815Y3515D02*
D03*
X7165D02*
D03*
X6900Y4570D02*
D03*
X6955Y4465D02*
D03*
X6895Y4125D02*
D03*
X7165Y4165D02*
D03*
X7177Y4447D02*
D03*
X7175Y4515D02*
D03*
X6895Y5775D02*
D03*
X7175Y6105D02*
D03*
X7170Y6170D02*
D03*
X6960Y6180D02*
D03*
X6953Y6087D02*
D03*
X7105Y5765D02*
D03*
X8267Y4867D02*
D03*
X8263Y5087D02*
D03*
X8290Y5230D02*
D03*
X8325Y5415D02*
D03*
X8380Y5380D02*
D03*
X8437Y5433D02*
D03*
X8417Y5767D02*
D03*
X8303D02*
D03*
X7995Y5515D02*
D03*
X7960Y5390D02*
D03*
X8325Y5565D02*
D03*
X6720Y4880D02*
D03*
X6210Y6710D02*
D03*
X6240Y5980D02*
D03*
Y5020D02*
D03*
Y4060D02*
D03*
X6580Y6724D02*
D03*
X6460Y6730D02*
D03*
X6257Y5877D02*
D03*
X6300Y5800D02*
D03*
X6190Y5950D02*
D03*
X6147Y5913D02*
D03*
X6143Y7397D02*
D03*
X6020Y7000D02*
D03*
X6050Y6740D02*
D03*
X6100Y5760D02*
D03*
X6050Y4850D02*
D03*
Y3870D02*
D03*
X6900Y7200D02*
D03*
X6955Y7135D02*
D03*
X6900Y6630D02*
D03*
X6440Y3820D02*
D03*
X6460Y4800D02*
D03*
Y5860D02*
D03*
X6520Y5930D02*
D03*
X2980Y7160D02*
D03*
X3040Y3520D02*
D03*
X2990Y3805D02*
D03*
X4190Y7112D02*
D03*
X4170Y6624D02*
D03*
X4168Y6136D02*
D03*
X4170Y5676D02*
D03*
Y5184D02*
D03*
X4160Y4710D02*
D03*
Y4224D02*
D03*
X4168Y3740D02*
D03*
X4160Y3270D02*
D03*
X5270Y7830D02*
D03*
X5340Y7520D02*
D03*
X5650Y7440D02*
D03*
X5500Y7460D02*
D03*
X5340Y7040D02*
D03*
X4740Y7360D02*
D03*
X5040Y7240D02*
D03*
Y7120D02*
D03*
X5000Y7060D02*
D03*
X5270Y7350D02*
D03*
X5153Y7247D02*
D03*
X5229Y7071D02*
D03*
X5650Y6960D02*
D03*
X5500Y6980D02*
D03*
X4887Y7013D02*
D03*
X5340Y6560D02*
D03*
X4740Y6880D02*
D03*
X5040Y6760D02*
D03*
Y6640D02*
D03*
X5000Y6580D02*
D03*
X5270Y6870D02*
D03*
X5153Y6767D02*
D03*
X5229Y6591D02*
D03*
X5650Y6480D02*
D03*
X5500Y7310D02*
D03*
X4887Y6533D02*
D03*
X5500Y6830D02*
D03*
X5990Y7590D02*
D03*
X5920Y7700D02*
D03*
X5990Y7110D02*
D03*
X5920Y7220D02*
D03*
X6000Y6630D02*
D03*
X5963Y6693D02*
D03*
X5340Y6080D02*
D03*
X5500Y6350D02*
D03*
X4740Y6400D02*
D03*
X6000Y6150D02*
D03*
X5650Y6000D02*
D03*
X5040Y6280D02*
D03*
Y6160D02*
D03*
X5000Y6100D02*
D03*
X5270Y6390D02*
D03*
X5153Y6287D02*
D03*
X5229Y6111D02*
D03*
X5963Y6213D02*
D03*
X4887Y6053D02*
D03*
X5340Y5600D02*
D03*
X5500Y5870D02*
D03*
X4740Y5920D02*
D03*
X6000Y5670D02*
D03*
X5650Y5520D02*
D03*
X5040Y5800D02*
D03*
Y5680D02*
D03*
X5000Y5620D02*
D03*
X5270Y5910D02*
D03*
X5153Y5807D02*
D03*
X5229Y5631D02*
D03*
X5963Y5733D02*
D03*
X4887Y5573D02*
D03*
X5340Y5120D02*
D03*
X5500Y5390D02*
D03*
X4740Y5440D02*
D03*
X6000Y5190D02*
D03*
X5650Y5040D02*
D03*
X5040Y5320D02*
D03*
Y5200D02*
D03*
X5000Y5140D02*
D03*
X5270Y5430D02*
D03*
X5153Y5327D02*
D03*
X5229Y5151D02*
D03*
X5963Y5253D02*
D03*
X4887Y5093D02*
D03*
X5340Y4640D02*
D03*
X5500Y4910D02*
D03*
X4740Y4960D02*
D03*
X6000Y4710D02*
D03*
X5650Y4560D02*
D03*
X5040Y4840D02*
D03*
Y4720D02*
D03*
X5000Y4660D02*
D03*
X5270Y4950D02*
D03*
X5153Y4847D02*
D03*
X5229Y4671D02*
D03*
X5963Y4773D02*
D03*
X4887Y4613D02*
D03*
X5340Y4160D02*
D03*
X5500Y4430D02*
D03*
X4740Y4480D02*
D03*
X6000Y4230D02*
D03*
X5650Y4080D02*
D03*
X5040Y4360D02*
D03*
Y4240D02*
D03*
X5000Y4180D02*
D03*
X5270Y4470D02*
D03*
X5153Y4367D02*
D03*
X5229Y4191D02*
D03*
X5963Y4293D02*
D03*
X4887Y4133D02*
D03*
X5340Y3680D02*
D03*
X5500Y3950D02*
D03*
X4740Y4000D02*
D03*
X6000Y3750D02*
D03*
X5650Y3600D02*
D03*
X5040Y3880D02*
D03*
Y3760D02*
D03*
X5000Y3700D02*
D03*
X5270Y3990D02*
D03*
X5153Y3887D02*
D03*
X5229Y3711D02*
D03*
X5963Y3813D02*
D03*
X4887Y3653D02*
D03*
X5340Y3200D02*
D03*
X5500Y3470D02*
D03*
X4740Y3520D02*
D03*
X6000Y3270D02*
D03*
X5650Y3120D02*
D03*
X5040Y3400D02*
D03*
Y3280D02*
D03*
X5000Y3220D02*
D03*
X5270Y3510D02*
D03*
X5153Y3407D02*
D03*
X5229Y3231D02*
D03*
X5963Y3333D02*
D03*
X4887Y3173D02*
D03*
X6910Y7700D02*
D03*
X6907Y7817D02*
D03*
X6750Y7890D02*
D03*
X6395Y7725D02*
D03*
X6251Y7719D02*
D03*
X6190Y7780D02*
D03*
X6087Y7783D02*
D03*
X5950Y7420D02*
D03*
X6040Y7510D02*
D03*
X5785Y7035D02*
D03*
X5775Y6555D02*
D03*
X5670Y6830D02*
D03*
X5765Y6075D02*
D03*
X5670Y6340D02*
D03*
X5775Y5595D02*
D03*
X5670Y5870D02*
D03*
X5755Y5115D02*
D03*
X5680Y5380D02*
D03*
X5775Y4635D02*
D03*
X5670Y4900D02*
D03*
X5765Y4155D02*
D03*
X5680Y4420D02*
D03*
X5765Y3675D02*
D03*
X5680Y3940D02*
D03*
X5765Y3195D02*
D03*
X5680Y3460D02*
D03*
X5500Y6500D02*
D03*
Y6020D02*
D03*
Y5540D02*
D03*
X5510Y5080D02*
D03*
X5500Y4600D02*
D03*
Y4120D02*
D03*
Y3640D02*
D03*
X5510Y3160D02*
D03*
X6200Y5620D02*
D03*
X6176Y7570D02*
D03*
X6130Y7560D02*
D03*
X6240Y5740D02*
D03*
X5680Y7310D02*
D03*
X4710Y5110D02*
D03*
X2700Y7830D02*
D03*
X2745Y7485D02*
D03*
X2680Y7290D02*
D03*
X2700Y7020D02*
D03*
X2680Y6800D02*
D03*
X2690Y6540D02*
D03*
X2680Y6320D02*
D03*
X2645Y5955D02*
D03*
X2680Y4880D02*
D03*
X2700Y4610D02*
D03*
X2670Y4400D02*
D03*
X2690Y4130D02*
D03*
X2680Y3920D02*
D03*
X2725Y3645D02*
D03*
X2700Y3440D02*
D03*
X2660Y3120D02*
D03*
X8030Y5230D02*
D03*
D110*
X7240Y6930D02*
D03*
X7130D02*
D03*
X7122Y7158D02*
D03*
X7180Y7380D02*
D03*
X7238Y7738D02*
D03*
X7122D02*
D03*
X7611Y7191D02*
D03*
X7500Y7080D02*
D03*
X7611Y6971D02*
D03*
Y7709D02*
D03*
X7500Y7600D02*
D03*
X7611Y7501D02*
D03*
M02*
