%FSLAX23Y23*%
%MOIN*%
G70*
G01*
G75*
G04 Layer_Physical_Order=1*
%ADD10R,0.079X0.087*%
%ADD11R,0.059X0.051*%
%ADD12R,0.039X0.024*%
%ADD13R,0.079X0.047*%
%ADD14R,0.016X0.085*%
%ADD15R,0.016X0.085*%
%ADD16R,0.024X0.055*%
%ADD17R,0.039X0.043*%
%ADD18R,0.071X0.063*%
%ADD19R,0.043X0.039*%
%ADD20R,0.048X0.017*%
%ADD21O,0.048X0.017*%
%ADD22R,0.031X0.142*%
%ADD23R,0.051X0.059*%
%ADD24R,0.081X0.024*%
%ADD25R,0.091X0.059*%
%ADD26R,0.124X0.136*%
%ADD27R,0.087X0.079*%
%ADD28R,0.142X0.031*%
%ADD29R,0.087X0.024*%
%ADD30R,0.087X0.024*%
%ADD31R,0.012X0.063*%
%ADD32R,0.063X0.012*%
%ADD33R,0.065X0.012*%
%ADD34R,0.085X0.016*%
%ADD35R,0.085X0.016*%
%ADD36R,0.061X0.024*%
%ADD37R,0.012X0.057*%
%ADD38R,0.101X0.062*%
%ADD39R,0.015X0.060*%
%ADD40R,0.256X0.036*%
%ADD41R,0.078X0.062*%
%ADD42R,0.012X0.061*%
%ADD43R,0.061X0.012*%
%ADD44R,0.073X0.024*%
%ADD45C,0.010*%
%ADD46C,0.016*%
%ADD47C,0.008*%
%ADD48C,0.012*%
%ADD49C,0.020*%
%ADD50C,0.040*%
%ADD51C,0.030*%
%ADD52C,0.060*%
%ADD53C,0.150*%
%ADD54C,0.087*%
%ADD55C,0.157*%
%ADD56C,0.059*%
%ADD57R,0.059X0.059*%
%ADD58C,0.020*%
%ADD59C,0.025*%
%ADD60C,0.040*%
D10*
X8101Y5230D02*
D03*
X8219D02*
D03*
X6639Y4800D02*
D03*
X6521D02*
D03*
X6269Y6800D02*
D03*
X6151D02*
D03*
X6279Y6050D02*
D03*
X6161D02*
D03*
X6279Y5090D02*
D03*
X6161D02*
D03*
X6279Y4130D02*
D03*
X6161D02*
D03*
X6279Y3170D02*
D03*
X6161D02*
D03*
X6521Y5860D02*
D03*
X6639D02*
D03*
X6619Y3820D02*
D03*
X6501D02*
D03*
X8161Y3800D02*
D03*
X8279D02*
D03*
D11*
X8500Y3763D02*
D03*
Y3597D02*
D03*
Y3523D02*
D03*
X8380Y5507D02*
D03*
Y5433D02*
D03*
X8360Y5693D02*
D03*
Y5767D02*
D03*
X4860Y7757D02*
D03*
Y7683D02*
D03*
X5340Y7717D02*
D03*
Y7643D02*
D03*
X4740Y7777D02*
D03*
Y7703D02*
D03*
X5460Y7717D02*
D03*
Y7643D02*
D03*
X5600Y7817D02*
D03*
Y7743D02*
D03*
X5580Y7597D02*
D03*
Y7523D02*
D03*
X6070Y7323D02*
D03*
Y7397D02*
D03*
X6080Y6573D02*
D03*
Y6647D02*
D03*
Y5613D02*
D03*
Y5687D02*
D03*
Y4653D02*
D03*
Y4727D02*
D03*
Y3693D02*
D03*
Y3767D02*
D03*
X2540Y7667D02*
D03*
Y7593D02*
D03*
Y7177D02*
D03*
Y7103D02*
D03*
Y6697D02*
D03*
Y6623D02*
D03*
Y6217D02*
D03*
Y6143D02*
D03*
Y4777D02*
D03*
Y4703D02*
D03*
Y4297D02*
D03*
Y4223D02*
D03*
Y3817D02*
D03*
Y3743D02*
D03*
Y3337D02*
D03*
Y3263D02*
D03*
X4860Y7277D02*
D03*
Y7203D02*
D03*
X5340Y7237D02*
D03*
Y7163D02*
D03*
X4740Y7297D02*
D03*
Y7223D02*
D03*
X5460Y7237D02*
D03*
Y7163D02*
D03*
X5600Y7337D02*
D03*
Y7263D02*
D03*
X5580Y7117D02*
D03*
Y7043D02*
D03*
X4860Y6797D02*
D03*
Y6723D02*
D03*
X5340Y6757D02*
D03*
Y6683D02*
D03*
X4740Y6817D02*
D03*
Y6743D02*
D03*
X5460Y6757D02*
D03*
Y6683D02*
D03*
X5600Y6857D02*
D03*
Y6783D02*
D03*
X5580Y6637D02*
D03*
Y6563D02*
D03*
X4860Y6317D02*
D03*
Y6243D02*
D03*
X5340Y6277D02*
D03*
Y6203D02*
D03*
X4740Y6337D02*
D03*
Y6263D02*
D03*
X5460Y6277D02*
D03*
Y6203D02*
D03*
X5600Y6377D02*
D03*
Y6303D02*
D03*
X5580Y6157D02*
D03*
Y6083D02*
D03*
X4860Y5837D02*
D03*
Y5763D02*
D03*
X5340Y5797D02*
D03*
Y5723D02*
D03*
X4740Y5857D02*
D03*
Y5783D02*
D03*
X5460Y5797D02*
D03*
Y5723D02*
D03*
X5600Y5897D02*
D03*
Y5823D02*
D03*
X5580Y5677D02*
D03*
Y5603D02*
D03*
X4860Y5357D02*
D03*
Y5283D02*
D03*
X5340Y5317D02*
D03*
Y5243D02*
D03*
X4740Y5377D02*
D03*
Y5303D02*
D03*
X5460Y5317D02*
D03*
Y5243D02*
D03*
X5600Y5417D02*
D03*
Y5343D02*
D03*
X5580Y5197D02*
D03*
Y5123D02*
D03*
X4860Y4877D02*
D03*
Y4803D02*
D03*
X5340Y4837D02*
D03*
Y4763D02*
D03*
X4740Y4897D02*
D03*
Y4823D02*
D03*
X5460Y4837D02*
D03*
Y4763D02*
D03*
X5600Y4937D02*
D03*
Y4863D02*
D03*
X5580Y4717D02*
D03*
Y4643D02*
D03*
X4860Y4397D02*
D03*
Y4323D02*
D03*
X5340Y4357D02*
D03*
Y4283D02*
D03*
X4740Y4417D02*
D03*
Y4343D02*
D03*
X5460Y4357D02*
D03*
Y4283D02*
D03*
X5600Y4457D02*
D03*
Y4383D02*
D03*
X5580Y4237D02*
D03*
Y4163D02*
D03*
X4860Y3917D02*
D03*
Y3843D02*
D03*
X5340Y3877D02*
D03*
Y3803D02*
D03*
X4740Y3937D02*
D03*
Y3863D02*
D03*
X5460Y3877D02*
D03*
Y3803D02*
D03*
X5600Y3977D02*
D03*
Y3903D02*
D03*
X5580Y3757D02*
D03*
Y3683D02*
D03*
X4860Y3437D02*
D03*
Y3363D02*
D03*
X5340Y3397D02*
D03*
Y3323D02*
D03*
X4740Y3457D02*
D03*
Y3383D02*
D03*
X5460Y3397D02*
D03*
Y3323D02*
D03*
X5600Y3497D02*
D03*
Y3423D02*
D03*
X5580Y3277D02*
D03*
Y3203D02*
D03*
X8500Y3837D02*
D03*
X8080Y4983D02*
D03*
Y5057D02*
D03*
D12*
X6860Y7780D02*
D03*
Y7817D02*
D03*
Y7855D02*
D03*
X6750Y7780D02*
D03*
Y7817D02*
D03*
Y7855D02*
D03*
X6190Y5915D02*
D03*
Y5877D02*
D03*
Y5840D02*
D03*
X6300Y5915D02*
D03*
Y5877D02*
D03*
Y5840D02*
D03*
D13*
X2765Y7830D02*
D03*
X2875D02*
D03*
X2745Y7340D02*
D03*
X2855D02*
D03*
X2725Y6860D02*
D03*
X2835D02*
D03*
X2725Y6380D02*
D03*
X2835D02*
D03*
X2725Y4940D02*
D03*
X2835D02*
D03*
X2725Y4460D02*
D03*
X2835D02*
D03*
X2725Y3980D02*
D03*
X2835D02*
D03*
X2725Y3500D02*
D03*
X2835D02*
D03*
X2855Y7450D02*
D03*
X2745D02*
D03*
X2835Y6960D02*
D03*
X2725D02*
D03*
X2835Y6480D02*
D03*
X2725D02*
D03*
X2755Y6000D02*
D03*
X2645D02*
D03*
X2835Y4560D02*
D03*
X2725D02*
D03*
X2815Y4080D02*
D03*
X2705D02*
D03*
X2835Y3600D02*
D03*
X2725D02*
D03*
X2835Y3120D02*
D03*
X2725D02*
D03*
X4205Y7500D02*
D03*
X4315D02*
D03*
X4205Y7840D02*
D03*
X4315D02*
D03*
X4205Y7020D02*
D03*
X4315D02*
D03*
X4205Y7360D02*
D03*
X4315D02*
D03*
X4205Y6540D02*
D03*
X4315D02*
D03*
X4205Y6880D02*
D03*
X4315D02*
D03*
X4205Y6060D02*
D03*
X4315D02*
D03*
X4205Y6400D02*
D03*
X4315D02*
D03*
X4205Y5580D02*
D03*
X4315D02*
D03*
X4205Y5920D02*
D03*
X4315D02*
D03*
X4205Y5100D02*
D03*
X4315D02*
D03*
X4205Y5440D02*
D03*
X4315D02*
D03*
X4205Y4620D02*
D03*
X4315D02*
D03*
X4205Y4960D02*
D03*
X4315D02*
D03*
X4205Y4140D02*
D03*
X4315D02*
D03*
X4205Y4480D02*
D03*
X4315D02*
D03*
X4205Y3660D02*
D03*
X4315D02*
D03*
X4205Y4000D02*
D03*
X4315D02*
D03*
X4205Y3180D02*
D03*
X4315D02*
D03*
X4205Y3520D02*
D03*
X4315D02*
D03*
D14*
X4610Y3949D02*
D03*
X4584D02*
D03*
X4558D02*
D03*
X4533D02*
D03*
X4507D02*
D03*
X4482D02*
D03*
X4456D02*
D03*
X4430D02*
D03*
X4610Y3691D02*
D03*
X4584D02*
D03*
X4558D02*
D03*
X4533D02*
D03*
X4507D02*
D03*
X4482D02*
D03*
X4456D02*
D03*
Y7051D02*
D03*
X4482D02*
D03*
X4507D02*
D03*
X4533D02*
D03*
X4558D02*
D03*
X4584D02*
D03*
X4610D02*
D03*
X4430Y7309D02*
D03*
X4456D02*
D03*
X4482D02*
D03*
X4507D02*
D03*
X4533D02*
D03*
X4558D02*
D03*
X4584D02*
D03*
X4610D02*
D03*
X4456Y6571D02*
D03*
X4482D02*
D03*
X4507D02*
D03*
X4533D02*
D03*
X4558D02*
D03*
X4584D02*
D03*
X4610D02*
D03*
X4430Y6829D02*
D03*
X4456D02*
D03*
X4482D02*
D03*
X4507D02*
D03*
X4533D02*
D03*
X4558D02*
D03*
X4584D02*
D03*
X4610D02*
D03*
X4456Y6091D02*
D03*
X4482D02*
D03*
X4507D02*
D03*
X4533D02*
D03*
X4558D02*
D03*
X4584D02*
D03*
X4610D02*
D03*
X4430Y6349D02*
D03*
X4456D02*
D03*
X4482D02*
D03*
X4507D02*
D03*
X4533D02*
D03*
X4558D02*
D03*
X4584D02*
D03*
X4610D02*
D03*
X4456Y5611D02*
D03*
X4482D02*
D03*
X4507D02*
D03*
X4533D02*
D03*
X4558D02*
D03*
X4584D02*
D03*
X4610D02*
D03*
X4430Y5869D02*
D03*
X4456D02*
D03*
X4482D02*
D03*
X4507D02*
D03*
X4533D02*
D03*
X4558D02*
D03*
X4584D02*
D03*
X4610D02*
D03*
X4456Y5131D02*
D03*
X4482D02*
D03*
X4507D02*
D03*
X4533D02*
D03*
X4558D02*
D03*
X4584D02*
D03*
X4610D02*
D03*
X4430Y5389D02*
D03*
X4456D02*
D03*
X4482D02*
D03*
X4507D02*
D03*
X4533D02*
D03*
X4558D02*
D03*
X4584D02*
D03*
X4610D02*
D03*
X4456Y4651D02*
D03*
X4482D02*
D03*
X4507D02*
D03*
X4533D02*
D03*
X4558D02*
D03*
X4584D02*
D03*
X4610D02*
D03*
X4430Y4909D02*
D03*
X4456D02*
D03*
X4482D02*
D03*
X4507D02*
D03*
X4533D02*
D03*
X4558D02*
D03*
X4584D02*
D03*
X4610D02*
D03*
X4456Y4171D02*
D03*
X4482D02*
D03*
X4507D02*
D03*
X4533D02*
D03*
X4558D02*
D03*
X4584D02*
D03*
X4610D02*
D03*
X4430Y4429D02*
D03*
X4456D02*
D03*
X4482D02*
D03*
X4507D02*
D03*
X4533D02*
D03*
X4558D02*
D03*
X4584D02*
D03*
X4610D02*
D03*
X4456Y3211D02*
D03*
X4482D02*
D03*
X4507D02*
D03*
X4533D02*
D03*
X4558D02*
D03*
X4584D02*
D03*
X4610D02*
D03*
X4430Y3469D02*
D03*
X4456D02*
D03*
X4482D02*
D03*
X4507D02*
D03*
X4533D02*
D03*
X4558D02*
D03*
X4584D02*
D03*
X4610D02*
D03*
Y7789D02*
D03*
X4584D02*
D03*
X4558D02*
D03*
X4533D02*
D03*
X4507D02*
D03*
X4482D02*
D03*
X4456D02*
D03*
X4430D02*
D03*
X4610Y7531D02*
D03*
X4584D02*
D03*
X4558D02*
D03*
X4533D02*
D03*
X4507D02*
D03*
X4482D02*
D03*
X4456D02*
D03*
D15*
X4430Y3691D02*
D03*
Y7051D02*
D03*
Y6571D02*
D03*
Y6091D02*
D03*
Y5611D02*
D03*
Y5131D02*
D03*
Y4651D02*
D03*
Y4171D02*
D03*
Y3211D02*
D03*
Y7531D02*
D03*
D16*
X6045Y7624D02*
D03*
X6095D02*
D03*
X6145D02*
D03*
X6195D02*
D03*
X6045Y7856D02*
D03*
X6095D02*
D03*
X6145D02*
D03*
X6195D02*
D03*
X3945Y7544D02*
D03*
X3995D02*
D03*
X4045D02*
D03*
X4095D02*
D03*
X3945Y7776D02*
D03*
X3995D02*
D03*
X4045D02*
D03*
X4095D02*
D03*
X3945Y7064D02*
D03*
X3995D02*
D03*
X4045D02*
D03*
X4095D02*
D03*
X3945Y7296D02*
D03*
X3995D02*
D03*
X4045D02*
D03*
X4095D02*
D03*
X3945Y6584D02*
D03*
X3995D02*
D03*
X4045D02*
D03*
X4095D02*
D03*
X3945Y6816D02*
D03*
X3995D02*
D03*
X4045D02*
D03*
X4095D02*
D03*
X3945Y6104D02*
D03*
X3995D02*
D03*
X4045D02*
D03*
X4095D02*
D03*
X3945Y6336D02*
D03*
X3995D02*
D03*
X4045D02*
D03*
X4095D02*
D03*
X3945Y5624D02*
D03*
X3995D02*
D03*
X4045D02*
D03*
X4095D02*
D03*
X3945Y5856D02*
D03*
X3995D02*
D03*
X4045D02*
D03*
X4095D02*
D03*
X3945Y5144D02*
D03*
X3995D02*
D03*
X4045D02*
D03*
X4095D02*
D03*
X3945Y5376D02*
D03*
X3995D02*
D03*
X4045D02*
D03*
X4095D02*
D03*
X3945Y4664D02*
D03*
X3995D02*
D03*
X4045D02*
D03*
X4095D02*
D03*
X3945Y4896D02*
D03*
X3995D02*
D03*
X4045D02*
D03*
X4095D02*
D03*
X3945Y4184D02*
D03*
X3995D02*
D03*
X4045D02*
D03*
X4095D02*
D03*
X3945Y4416D02*
D03*
X3995D02*
D03*
X4045D02*
D03*
X4095D02*
D03*
X3945Y3704D02*
D03*
X3995D02*
D03*
X4045D02*
D03*
X4095D02*
D03*
X3945Y3936D02*
D03*
X3995D02*
D03*
X4045D02*
D03*
X4095D02*
D03*
X3945Y3224D02*
D03*
X3995D02*
D03*
X4045D02*
D03*
X4095D02*
D03*
X3945Y3456D02*
D03*
X3995D02*
D03*
X4045D02*
D03*
X4095D02*
D03*
D17*
X6200Y5721D02*
D03*
Y5655D02*
D03*
X7940Y5437D02*
D03*
Y5503D02*
D03*
X6100Y5847D02*
D03*
Y5913D02*
D03*
X6630Y7117D02*
D03*
Y7183D02*
D03*
X6090Y7137D02*
D03*
Y7203D02*
D03*
X6640Y6367D02*
D03*
Y6433D02*
D03*
X6100Y6387D02*
D03*
Y6453D02*
D03*
X6640Y5407D02*
D03*
Y5473D02*
D03*
X6100Y5427D02*
D03*
Y5493D02*
D03*
X6640Y4447D02*
D03*
Y4513D02*
D03*
X6100Y4467D02*
D03*
Y4533D02*
D03*
X6640Y3487D02*
D03*
Y3553D02*
D03*
X6100Y3507D02*
D03*
Y3573D02*
D03*
X7160Y4833D02*
D03*
Y4767D02*
D03*
X7280Y4833D02*
D03*
Y4767D02*
D03*
Y4593D02*
D03*
Y4527D02*
D03*
X8380Y4647D02*
D03*
Y4713D02*
D03*
D18*
X6640Y7725D02*
D03*
Y7835D02*
D03*
X6460D02*
D03*
Y7725D02*
D03*
X6900Y7135D02*
D03*
Y7025D02*
D03*
Y6815D02*
D03*
Y6705D02*
D03*
D19*
X3067Y3640D02*
D03*
X3133D02*
D03*
X3067Y3160D02*
D03*
X3133D02*
D03*
X8333Y4910D02*
D03*
X8267D02*
D03*
X6787Y7700D02*
D03*
X6853D02*
D03*
X5387Y7520D02*
D03*
X5453D02*
D03*
X5787Y7720D02*
D03*
X5387Y5120D02*
D03*
X5453D02*
D03*
X6417Y6910D02*
D03*
X6483D02*
D03*
X6243Y6920D02*
D03*
X6177D02*
D03*
X6427Y6160D02*
D03*
X6493D02*
D03*
X6253Y6170D02*
D03*
X6187D02*
D03*
X6427Y5200D02*
D03*
X6493D02*
D03*
X6253Y5210D02*
D03*
X6187D02*
D03*
X6427Y4240D02*
D03*
X6493D02*
D03*
X6253Y4250D02*
D03*
X6187D02*
D03*
X6427Y3280D02*
D03*
X6493D02*
D03*
X6253Y3290D02*
D03*
X6187D02*
D03*
X3147Y7840D02*
D03*
X3213D02*
D03*
X3227Y7720D02*
D03*
X3293D02*
D03*
X3133D02*
D03*
X3067D02*
D03*
X3227Y7480D02*
D03*
X3293D02*
D03*
X3133D02*
D03*
X3067D02*
D03*
X3227Y7600D02*
D03*
X3293D02*
D03*
X3133D02*
D03*
X3067D02*
D03*
X3813Y7480D02*
D03*
X3747D02*
D03*
X3813Y7840D02*
D03*
X3747D02*
D03*
X3813Y7740D02*
D03*
X3747D02*
D03*
X3813Y7580D02*
D03*
X3747D02*
D03*
X3147Y7360D02*
D03*
X3213D02*
D03*
X3227Y7240D02*
D03*
X3293D02*
D03*
X3133D02*
D03*
X3067D02*
D03*
X3227Y7000D02*
D03*
X3293D02*
D03*
X3133D02*
D03*
X3067D02*
D03*
X3227Y7120D02*
D03*
X3293D02*
D03*
X3133D02*
D03*
X3067D02*
D03*
X3813Y7000D02*
D03*
X3747D02*
D03*
X3813Y7360D02*
D03*
X3747D02*
D03*
X3813Y7260D02*
D03*
X3747D02*
D03*
X3813Y7100D02*
D03*
X3747D02*
D03*
X3147Y6880D02*
D03*
X3213D02*
D03*
X3227Y6760D02*
D03*
X3293D02*
D03*
X3133D02*
D03*
X3067D02*
D03*
X3227Y6520D02*
D03*
X3293D02*
D03*
X3133D02*
D03*
X3067D02*
D03*
X3227Y6640D02*
D03*
X3293D02*
D03*
X3133D02*
D03*
X3067D02*
D03*
X3813Y6520D02*
D03*
X3747D02*
D03*
X3813Y6880D02*
D03*
X3747D02*
D03*
X3813Y6780D02*
D03*
X3747D02*
D03*
X3813Y6620D02*
D03*
X3747D02*
D03*
X3147Y6400D02*
D03*
X3213D02*
D03*
X3227Y6280D02*
D03*
X3293D02*
D03*
X3133D02*
D03*
X3067D02*
D03*
X3227Y6040D02*
D03*
X3293D02*
D03*
X3133D02*
D03*
X3067D02*
D03*
X3227Y6160D02*
D03*
X3293D02*
D03*
X3133D02*
D03*
X3067D02*
D03*
X3813Y6040D02*
D03*
X3747D02*
D03*
X3813Y6400D02*
D03*
X3747D02*
D03*
X3813Y6300D02*
D03*
X3747D02*
D03*
X3813Y6140D02*
D03*
X3747D02*
D03*
X3147Y5920D02*
D03*
X3213D02*
D03*
X3227Y5800D02*
D03*
X3293D02*
D03*
X3133D02*
D03*
X3067D02*
D03*
X3227Y5560D02*
D03*
X3293D02*
D03*
X3133D02*
D03*
X3067D02*
D03*
X3227Y5680D02*
D03*
X3293D02*
D03*
X3133D02*
D03*
X3067D02*
D03*
X3813Y5560D02*
D03*
X3747D02*
D03*
X3813Y5920D02*
D03*
X3747D02*
D03*
X3813Y5820D02*
D03*
X3747D02*
D03*
X3813Y5660D02*
D03*
X3747D02*
D03*
X3147Y5440D02*
D03*
X3213D02*
D03*
X3227Y5320D02*
D03*
X3293D02*
D03*
X3133D02*
D03*
X3067D02*
D03*
X3227Y5080D02*
D03*
X3293D02*
D03*
X3133D02*
D03*
X3067D02*
D03*
X3227Y5200D02*
D03*
X3293D02*
D03*
X3813Y5080D02*
D03*
X3747D02*
D03*
X3813Y5440D02*
D03*
X3747D02*
D03*
X3813Y5340D02*
D03*
X3747D02*
D03*
X3813Y5180D02*
D03*
X3747D02*
D03*
X3147Y4960D02*
D03*
X3213D02*
D03*
X3227Y4840D02*
D03*
X3293D02*
D03*
X3133D02*
D03*
X3067D02*
D03*
X3227Y4600D02*
D03*
X3293D02*
D03*
X3133D02*
D03*
X3067D02*
D03*
X3227Y4720D02*
D03*
X3293D02*
D03*
X3133D02*
D03*
X3067D02*
D03*
X3813Y4600D02*
D03*
X3747D02*
D03*
X3813Y4960D02*
D03*
X3747D02*
D03*
X3813Y4860D02*
D03*
X3747D02*
D03*
X3813Y4700D02*
D03*
X3747D02*
D03*
X3147Y4480D02*
D03*
X3213D02*
D03*
X3227Y4360D02*
D03*
X3293D02*
D03*
X3133D02*
D03*
X3067D02*
D03*
X3227Y4120D02*
D03*
X3293D02*
D03*
X3133D02*
D03*
X3067D02*
D03*
X3227Y4240D02*
D03*
X3293D02*
D03*
X3133D02*
D03*
X3067D02*
D03*
X3813Y4120D02*
D03*
X3747D02*
D03*
X3813Y4480D02*
D03*
X3747D02*
D03*
X3813Y4380D02*
D03*
X3747D02*
D03*
X3813Y4220D02*
D03*
X3747D02*
D03*
X3147Y4000D02*
D03*
X3213D02*
D03*
X3227Y3880D02*
D03*
X3293D02*
D03*
X3133D02*
D03*
X3067D02*
D03*
X3227Y3640D02*
D03*
X3293D02*
D03*
X3227Y3760D02*
D03*
X3293D02*
D03*
X3133D02*
D03*
X3067D02*
D03*
X3813Y3640D02*
D03*
X3747D02*
D03*
X3813Y4000D02*
D03*
X3747D02*
D03*
X3813Y3900D02*
D03*
X3747D02*
D03*
X3813Y3740D02*
D03*
X3747D02*
D03*
X3147Y3520D02*
D03*
X3213D02*
D03*
X3227Y3400D02*
D03*
X3293D02*
D03*
X3133D02*
D03*
X3067D02*
D03*
X3227Y3160D02*
D03*
X3293D02*
D03*
X3227Y3280D02*
D03*
X3293D02*
D03*
X3133D02*
D03*
X3067D02*
D03*
X3813Y3160D02*
D03*
X3747D02*
D03*
X3813Y3520D02*
D03*
X3747D02*
D03*
X3813Y3420D02*
D03*
X3747D02*
D03*
X3813Y3260D02*
D03*
X3747D02*
D03*
X3067Y5200D02*
D03*
X3133D02*
D03*
X5853Y7720D02*
D03*
X5387Y7040D02*
D03*
X5453D02*
D03*
X5853Y7240D02*
D03*
X5787D02*
D03*
X5387Y6560D02*
D03*
X5453D02*
D03*
X5853Y6760D02*
D03*
X5787D02*
D03*
X5387Y6080D02*
D03*
X5453D02*
D03*
X5853Y6280D02*
D03*
X5787D02*
D03*
X5387Y5600D02*
D03*
X5453D02*
D03*
X5853Y5800D02*
D03*
X5787D02*
D03*
X5853Y5320D02*
D03*
X5787D02*
D03*
X5387Y4640D02*
D03*
X5453D02*
D03*
X5853Y4840D02*
D03*
X5787D02*
D03*
X5387Y4160D02*
D03*
X5453D02*
D03*
X5853Y4360D02*
D03*
X5787D02*
D03*
X5387Y3680D02*
D03*
X5453D02*
D03*
X5853Y3880D02*
D03*
X5787D02*
D03*
X5387Y3200D02*
D03*
X5453D02*
D03*
X5853Y3400D02*
D03*
X5787D02*
D03*
X8273Y4720D02*
D03*
X8207D02*
D03*
X7107Y4040D02*
D03*
X7173D02*
D03*
D20*
X4200Y7700D02*
D03*
Y7220D02*
D03*
Y6740D02*
D03*
Y6260D02*
D03*
Y5780D02*
D03*
Y5300D02*
D03*
Y4820D02*
D03*
Y4340D02*
D03*
Y3860D02*
D03*
Y3380D02*
D03*
D21*
Y7674D02*
D03*
Y7649D02*
D03*
Y7623D02*
D03*
X4303Y7700D02*
D03*
Y7674D02*
D03*
Y7649D02*
D03*
Y7623D02*
D03*
Y7143D02*
D03*
Y7169D02*
D03*
Y7194D02*
D03*
Y7220D02*
D03*
X4200Y7143D02*
D03*
Y7169D02*
D03*
Y7194D02*
D03*
X4303Y6663D02*
D03*
Y6689D02*
D03*
Y6714D02*
D03*
Y6740D02*
D03*
X4200Y6663D02*
D03*
Y6689D02*
D03*
Y6714D02*
D03*
X4303Y6183D02*
D03*
Y6209D02*
D03*
Y6234D02*
D03*
Y6260D02*
D03*
X4200Y6183D02*
D03*
Y6209D02*
D03*
Y6234D02*
D03*
X4303Y5703D02*
D03*
Y5729D02*
D03*
Y5754D02*
D03*
Y5780D02*
D03*
X4200Y5703D02*
D03*
Y5729D02*
D03*
Y5754D02*
D03*
X4303Y5223D02*
D03*
Y5249D02*
D03*
Y5274D02*
D03*
Y5300D02*
D03*
X4200Y5223D02*
D03*
Y5249D02*
D03*
Y5274D02*
D03*
X4303Y4743D02*
D03*
Y4769D02*
D03*
Y4794D02*
D03*
Y4820D02*
D03*
X4200Y4743D02*
D03*
Y4769D02*
D03*
Y4794D02*
D03*
X4303Y4263D02*
D03*
Y4289D02*
D03*
Y4314D02*
D03*
Y4340D02*
D03*
X4200Y4263D02*
D03*
Y4289D02*
D03*
Y4314D02*
D03*
X4303Y3783D02*
D03*
Y3809D02*
D03*
Y3834D02*
D03*
Y3860D02*
D03*
X4200Y3783D02*
D03*
Y3809D02*
D03*
Y3834D02*
D03*
X4303Y3303D02*
D03*
Y3329D02*
D03*
Y3354D02*
D03*
Y3380D02*
D03*
X4200Y3303D02*
D03*
Y3329D02*
D03*
Y3354D02*
D03*
D22*
X7180Y7502D02*
D03*
Y7738D02*
D03*
Y7158D02*
D03*
Y6922D02*
D03*
D23*
X8263Y5030D02*
D03*
X8337D02*
D03*
X5083Y7480D02*
D03*
X5157D02*
D03*
X4763Y7560D02*
D03*
X4837D02*
D03*
X5743Y7840D02*
D03*
X5817D02*
D03*
X5083Y7000D02*
D03*
X5157D02*
D03*
X4763Y7080D02*
D03*
X4837D02*
D03*
X5743Y7360D02*
D03*
X5817D02*
D03*
X5083Y6520D02*
D03*
X5157D02*
D03*
X4763Y6600D02*
D03*
X4837D02*
D03*
X5743Y6880D02*
D03*
X5817D02*
D03*
X5083Y6040D02*
D03*
X5157D02*
D03*
X4763Y6120D02*
D03*
X4837D02*
D03*
X5743Y6400D02*
D03*
X5817D02*
D03*
X5083Y5560D02*
D03*
X5157D02*
D03*
X4763Y5640D02*
D03*
X4837D02*
D03*
X5743Y5920D02*
D03*
X5817D02*
D03*
X5083Y5080D02*
D03*
X5157D02*
D03*
X4763Y5160D02*
D03*
X4837D02*
D03*
X5743Y5440D02*
D03*
X5817D02*
D03*
X5083Y4600D02*
D03*
X5157D02*
D03*
X4763Y4680D02*
D03*
X4837D02*
D03*
X5743Y4960D02*
D03*
X5817D02*
D03*
X5083Y4120D02*
D03*
X5157D02*
D03*
X4763Y4200D02*
D03*
X4837D02*
D03*
X5743Y4480D02*
D03*
X5817D02*
D03*
X5083Y3640D02*
D03*
X5157D02*
D03*
X4763Y3720D02*
D03*
X4837D02*
D03*
X5743Y4000D02*
D03*
X5817D02*
D03*
X5083Y3160D02*
D03*
X5157D02*
D03*
X4763Y3240D02*
D03*
X4837D02*
D03*
X5743Y3520D02*
D03*
X5817D02*
D03*
D24*
X8265Y5415D02*
D03*
Y5515D02*
D03*
Y5565D02*
D03*
X8055Y5415D02*
D03*
Y5465D02*
D03*
Y5515D02*
D03*
Y5565D02*
D03*
X7105Y3165D02*
D03*
Y3215D02*
D03*
Y3465D02*
D03*
Y3515D02*
D03*
X6895Y3165D02*
D03*
Y3215D02*
D03*
Y3265D02*
D03*
Y3315D02*
D03*
Y3365D02*
D03*
Y3415D02*
D03*
Y3465D02*
D03*
Y3515D02*
D03*
X6895Y4515D02*
D03*
Y4465D02*
D03*
Y4415D02*
D03*
Y4365D02*
D03*
Y4315D02*
D03*
Y4265D02*
D03*
Y4215D02*
D03*
Y4165D02*
D03*
X7105Y4515D02*
D03*
Y4465D02*
D03*
Y4365D02*
D03*
Y4215D02*
D03*
Y4165D02*
D03*
X6895Y6155D02*
D03*
Y6105D02*
D03*
Y6055D02*
D03*
Y6005D02*
D03*
Y5955D02*
D03*
Y5905D02*
D03*
Y5855D02*
D03*
Y5805D02*
D03*
X7105Y6155D02*
D03*
Y6105D02*
D03*
Y5855D02*
D03*
Y5805D02*
D03*
X8265Y5465D02*
D03*
X7105Y5905D02*
D03*
Y6005D02*
D03*
Y6055D02*
D03*
X7105Y3265D02*
D03*
Y3315D02*
D03*
Y3365D02*
D03*
Y3415D02*
D03*
X7105Y5955D02*
D03*
Y4415D02*
D03*
Y4265D02*
D03*
Y4315D02*
D03*
D25*
X8359Y4340D02*
D03*
Y4140D02*
D03*
X8540Y4340D02*
D03*
Y4140D02*
D03*
D26*
X7611Y7600D02*
D03*
X7949D02*
D03*
X7611Y7080D02*
D03*
X7949D02*
D03*
D27*
X6320Y7601D02*
D03*
Y7719D02*
D03*
X7620Y5911D02*
D03*
Y6029D02*
D03*
X8120Y5911D02*
D03*
Y6029D02*
D03*
D28*
X7762Y6400D02*
D03*
X7998D02*
D03*
D29*
X8332Y3515D02*
D03*
X2678Y7705D02*
D03*
Y7215D02*
D03*
Y6735D02*
D03*
Y6255D02*
D03*
Y4815D02*
D03*
Y4335D02*
D03*
Y3855D02*
D03*
Y3375D02*
D03*
D30*
X8128Y3565D02*
D03*
Y3515D02*
D03*
X8332Y3665D02*
D03*
Y3615D02*
D03*
Y3565D02*
D03*
X2882Y7555D02*
D03*
Y7605D02*
D03*
Y7655D02*
D03*
Y7705D02*
D03*
X2678Y7555D02*
D03*
Y7605D02*
D03*
Y7655D02*
D03*
X2882Y7065D02*
D03*
Y7115D02*
D03*
Y7165D02*
D03*
Y7215D02*
D03*
X2678Y7065D02*
D03*
Y7115D02*
D03*
Y7165D02*
D03*
X2882Y6585D02*
D03*
Y6635D02*
D03*
Y6685D02*
D03*
Y6735D02*
D03*
X2678Y6585D02*
D03*
Y6635D02*
D03*
Y6685D02*
D03*
X2882Y6105D02*
D03*
Y6155D02*
D03*
Y6205D02*
D03*
Y6255D02*
D03*
X2678Y6105D02*
D03*
Y6155D02*
D03*
Y6205D02*
D03*
X2882Y4665D02*
D03*
Y4715D02*
D03*
Y4765D02*
D03*
Y4815D02*
D03*
X2678Y4665D02*
D03*
Y4715D02*
D03*
Y4765D02*
D03*
X2882Y4185D02*
D03*
Y4235D02*
D03*
Y4285D02*
D03*
Y4335D02*
D03*
X2678Y4185D02*
D03*
Y4235D02*
D03*
Y4285D02*
D03*
X2882Y3705D02*
D03*
Y3755D02*
D03*
Y3805D02*
D03*
Y3855D02*
D03*
X2678Y3705D02*
D03*
Y3755D02*
D03*
Y3805D02*
D03*
X2882Y3225D02*
D03*
Y3275D02*
D03*
Y3325D02*
D03*
Y3375D02*
D03*
X2678Y3225D02*
D03*
Y3275D02*
D03*
Y3325D02*
D03*
X8128Y3665D02*
D03*
Y3615D02*
D03*
D31*
X6272Y6269D02*
D03*
X6291D02*
D03*
X6311D02*
D03*
X6331D02*
D03*
X6350D02*
D03*
X6370D02*
D03*
X6390D02*
D03*
X6410D02*
D03*
X6429D02*
D03*
X6449D02*
D03*
X6469D02*
D03*
X6488D02*
D03*
X6272Y6591D02*
D03*
X6291D02*
D03*
X6311D02*
D03*
X6331D02*
D03*
X6350D02*
D03*
X6370D02*
D03*
X6390D02*
D03*
X6410D02*
D03*
X6429D02*
D03*
X6449D02*
D03*
X6469D02*
D03*
X6488D02*
D03*
X6272Y5309D02*
D03*
X6291D02*
D03*
X6311D02*
D03*
X6331D02*
D03*
X6350D02*
D03*
X6370D02*
D03*
X6390D02*
D03*
X6410D02*
D03*
X6429D02*
D03*
X6449D02*
D03*
X6469D02*
D03*
X6488D02*
D03*
X6272Y5631D02*
D03*
X6291D02*
D03*
X6311D02*
D03*
X6331D02*
D03*
X6350D02*
D03*
X6370D02*
D03*
X6390D02*
D03*
X6410D02*
D03*
X6429D02*
D03*
X6449D02*
D03*
X6469D02*
D03*
X6488D02*
D03*
X6272Y4349D02*
D03*
X6291D02*
D03*
X6311D02*
D03*
X6331D02*
D03*
X6350D02*
D03*
X6370D02*
D03*
X6390D02*
D03*
X6410D02*
D03*
X6429D02*
D03*
X6449D02*
D03*
X6469D02*
D03*
X6488D02*
D03*
X6272Y4671D02*
D03*
X6291D02*
D03*
X6311D02*
D03*
X6331D02*
D03*
X6350D02*
D03*
X6370D02*
D03*
X6390D02*
D03*
X6410D02*
D03*
X6429D02*
D03*
X6449D02*
D03*
X6469D02*
D03*
X6488D02*
D03*
X6272Y3389D02*
D03*
X6291D02*
D03*
X6311D02*
D03*
X6331D02*
D03*
X6350D02*
D03*
X6370D02*
D03*
X6390D02*
D03*
X6410D02*
D03*
X6429D02*
D03*
X6449D02*
D03*
X6469D02*
D03*
X6488D02*
D03*
X6272Y3711D02*
D03*
X6291D02*
D03*
X6311D02*
D03*
X6331D02*
D03*
X6350D02*
D03*
X6370D02*
D03*
X6390D02*
D03*
X6410D02*
D03*
X6429D02*
D03*
X6449D02*
D03*
X6469D02*
D03*
X6488D02*
D03*
X6262Y7019D02*
D03*
X6281D02*
D03*
X6301D02*
D03*
X6321D02*
D03*
X6340D02*
D03*
X6360D02*
D03*
X6380D02*
D03*
X6400D02*
D03*
X6419D02*
D03*
X6439D02*
D03*
X6459D02*
D03*
X6478D02*
D03*
X6262Y7341D02*
D03*
X6281D02*
D03*
X6301D02*
D03*
X6321D02*
D03*
X6340D02*
D03*
X6360D02*
D03*
X6380D02*
D03*
X6400D02*
D03*
X6419D02*
D03*
X6439D02*
D03*
X6459D02*
D03*
X6478D02*
D03*
D32*
X6541Y6322D02*
D03*
Y6341D02*
D03*
Y6361D02*
D03*
Y6381D02*
D03*
Y6400D02*
D03*
Y6420D02*
D03*
Y6440D02*
D03*
Y6460D02*
D03*
Y6479D02*
D03*
Y6499D02*
D03*
Y6519D02*
D03*
Y6538D02*
D03*
X6219Y6322D02*
D03*
Y6341D02*
D03*
Y6381D02*
D03*
Y6400D02*
D03*
Y6420D02*
D03*
Y6440D02*
D03*
Y6460D02*
D03*
Y6479D02*
D03*
Y6519D02*
D03*
Y6538D02*
D03*
X6541Y5362D02*
D03*
Y5381D02*
D03*
Y5401D02*
D03*
Y5421D02*
D03*
Y5440D02*
D03*
Y5460D02*
D03*
Y5480D02*
D03*
Y5500D02*
D03*
Y5519D02*
D03*
Y5539D02*
D03*
Y5559D02*
D03*
Y5578D02*
D03*
X6219Y5362D02*
D03*
Y5381D02*
D03*
Y5401D02*
D03*
Y5421D02*
D03*
Y5440D02*
D03*
Y5460D02*
D03*
Y5480D02*
D03*
Y5500D02*
D03*
Y5519D02*
D03*
Y5559D02*
D03*
Y5578D02*
D03*
X6541Y4402D02*
D03*
Y4421D02*
D03*
Y4441D02*
D03*
Y4461D02*
D03*
Y4480D02*
D03*
Y4500D02*
D03*
Y4520D02*
D03*
Y4540D02*
D03*
Y4559D02*
D03*
Y4579D02*
D03*
Y4599D02*
D03*
Y4618D02*
D03*
X6219Y4402D02*
D03*
Y4421D02*
D03*
Y4461D02*
D03*
Y4480D02*
D03*
Y4500D02*
D03*
Y4520D02*
D03*
Y4540D02*
D03*
Y4559D02*
D03*
Y4599D02*
D03*
Y4618D02*
D03*
X6541Y3442D02*
D03*
Y3461D02*
D03*
Y3481D02*
D03*
Y3501D02*
D03*
Y3520D02*
D03*
Y3540D02*
D03*
Y3560D02*
D03*
Y3580D02*
D03*
Y3599D02*
D03*
Y3619D02*
D03*
Y3639D02*
D03*
Y3658D02*
D03*
X6219Y3442D02*
D03*
Y3461D02*
D03*
Y3481D02*
D03*
Y3501D02*
D03*
Y3520D02*
D03*
Y3540D02*
D03*
Y3560D02*
D03*
Y3580D02*
D03*
Y3599D02*
D03*
Y3639D02*
D03*
Y3658D02*
D03*
X6531Y7072D02*
D03*
Y7091D02*
D03*
Y7111D02*
D03*
Y7131D02*
D03*
Y7150D02*
D03*
Y7170D02*
D03*
Y7190D02*
D03*
Y7210D02*
D03*
Y7229D02*
D03*
Y7249D02*
D03*
Y7269D02*
D03*
Y7288D02*
D03*
X6209Y7072D02*
D03*
Y7091D02*
D03*
Y7131D02*
D03*
Y7150D02*
D03*
Y7170D02*
D03*
Y7190D02*
D03*
Y7210D02*
D03*
Y7229D02*
D03*
Y7269D02*
D03*
Y7288D02*
D03*
Y7249D02*
D03*
X6219Y6499D02*
D03*
Y4441D02*
D03*
X6209Y7111D02*
D03*
X6219Y6361D02*
D03*
Y5539D02*
D03*
Y4579D02*
D03*
Y3619D02*
D03*
D33*
X3629Y7570D02*
D03*
Y7596D02*
D03*
Y7622D02*
D03*
Y7647D02*
D03*
Y7673D02*
D03*
Y7698D02*
D03*
Y7724D02*
D03*
Y7750D02*
D03*
X3411Y7570D02*
D03*
Y7596D02*
D03*
Y7622D02*
D03*
Y7647D02*
D03*
Y7673D02*
D03*
Y7698D02*
D03*
Y7724D02*
D03*
Y7750D02*
D03*
X3629Y7090D02*
D03*
Y7116D02*
D03*
Y7142D02*
D03*
Y7167D02*
D03*
Y7193D02*
D03*
Y7218D02*
D03*
Y7244D02*
D03*
Y7270D02*
D03*
X3411Y7090D02*
D03*
Y7116D02*
D03*
Y7142D02*
D03*
Y7167D02*
D03*
Y7193D02*
D03*
Y7218D02*
D03*
Y7244D02*
D03*
Y7270D02*
D03*
X3629Y6610D02*
D03*
Y6636D02*
D03*
Y6662D02*
D03*
Y6687D02*
D03*
Y6713D02*
D03*
Y6738D02*
D03*
Y6764D02*
D03*
Y6790D02*
D03*
X3411Y6610D02*
D03*
Y6636D02*
D03*
Y6662D02*
D03*
Y6687D02*
D03*
Y6713D02*
D03*
Y6738D02*
D03*
Y6764D02*
D03*
Y6790D02*
D03*
X3629Y6130D02*
D03*
Y6156D02*
D03*
Y6182D02*
D03*
Y6207D02*
D03*
Y6233D02*
D03*
Y6258D02*
D03*
Y6284D02*
D03*
Y6310D02*
D03*
X3411Y6130D02*
D03*
Y6156D02*
D03*
Y6182D02*
D03*
Y6207D02*
D03*
Y6233D02*
D03*
Y6258D02*
D03*
Y6284D02*
D03*
Y6310D02*
D03*
X3629Y5650D02*
D03*
Y5676D02*
D03*
Y5702D02*
D03*
Y5727D02*
D03*
Y5753D02*
D03*
Y5778D02*
D03*
Y5804D02*
D03*
Y5830D02*
D03*
X3411Y5650D02*
D03*
Y5676D02*
D03*
Y5702D02*
D03*
Y5727D02*
D03*
Y5753D02*
D03*
Y5778D02*
D03*
Y5804D02*
D03*
Y5830D02*
D03*
X3629Y5170D02*
D03*
Y5196D02*
D03*
Y5222D02*
D03*
Y5247D02*
D03*
Y5273D02*
D03*
Y5298D02*
D03*
Y5324D02*
D03*
Y5350D02*
D03*
X3411Y5170D02*
D03*
Y5196D02*
D03*
Y5222D02*
D03*
Y5247D02*
D03*
Y5273D02*
D03*
Y5298D02*
D03*
Y5324D02*
D03*
Y5350D02*
D03*
X3629Y4690D02*
D03*
Y4716D02*
D03*
Y4742D02*
D03*
Y4767D02*
D03*
Y4793D02*
D03*
Y4818D02*
D03*
Y4844D02*
D03*
Y4870D02*
D03*
X3411Y4690D02*
D03*
Y4716D02*
D03*
Y4742D02*
D03*
Y4767D02*
D03*
Y4793D02*
D03*
Y4818D02*
D03*
Y4844D02*
D03*
Y4870D02*
D03*
X3629Y4210D02*
D03*
Y4236D02*
D03*
Y4262D02*
D03*
Y4287D02*
D03*
Y4313D02*
D03*
Y4338D02*
D03*
Y4364D02*
D03*
Y4390D02*
D03*
X3411Y4210D02*
D03*
Y4236D02*
D03*
Y4262D02*
D03*
Y4287D02*
D03*
Y4313D02*
D03*
Y4338D02*
D03*
Y4364D02*
D03*
Y4390D02*
D03*
X3629Y3730D02*
D03*
Y3756D02*
D03*
Y3782D02*
D03*
Y3807D02*
D03*
Y3833D02*
D03*
Y3858D02*
D03*
Y3884D02*
D03*
Y3910D02*
D03*
X3411Y3730D02*
D03*
Y3756D02*
D03*
Y3782D02*
D03*
Y3807D02*
D03*
Y3833D02*
D03*
Y3858D02*
D03*
Y3884D02*
D03*
Y3910D02*
D03*
X3629Y3250D02*
D03*
Y3276D02*
D03*
Y3302D02*
D03*
Y3327D02*
D03*
Y3353D02*
D03*
Y3378D02*
D03*
Y3404D02*
D03*
Y3430D02*
D03*
X3411Y3250D02*
D03*
Y3276D02*
D03*
Y3302D02*
D03*
Y3327D02*
D03*
Y3353D02*
D03*
Y3378D02*
D03*
Y3404D02*
D03*
Y3430D02*
D03*
D34*
X2631Y5257D02*
D03*
Y5231D02*
D03*
Y5206D02*
D03*
Y5180D02*
D03*
Y5154D02*
D03*
Y5129D02*
D03*
Y5103D02*
D03*
X2889Y5257D02*
D03*
Y5231D02*
D03*
Y5206D02*
D03*
Y5180D02*
D03*
Y5154D02*
D03*
Y5129D02*
D03*
Y5103D02*
D03*
X4971Y7744D02*
D03*
Y7718D02*
D03*
Y7693D02*
D03*
Y7667D02*
D03*
Y7642D02*
D03*
Y7616D02*
D03*
Y7590D02*
D03*
X5229Y7770D02*
D03*
Y7744D02*
D03*
Y7718D02*
D03*
Y7693D02*
D03*
Y7667D02*
D03*
Y7642D02*
D03*
Y7616D02*
D03*
Y7590D02*
D03*
X4971Y7264D02*
D03*
Y7238D02*
D03*
Y7213D02*
D03*
Y7187D02*
D03*
Y7162D02*
D03*
Y7136D02*
D03*
Y7110D02*
D03*
X5229Y7290D02*
D03*
Y7264D02*
D03*
Y7238D02*
D03*
Y7213D02*
D03*
Y7187D02*
D03*
Y7162D02*
D03*
Y7136D02*
D03*
Y7110D02*
D03*
X4971Y6784D02*
D03*
Y6758D02*
D03*
Y6733D02*
D03*
Y6707D02*
D03*
Y6682D02*
D03*
Y6656D02*
D03*
Y6630D02*
D03*
X5229Y6810D02*
D03*
Y6784D02*
D03*
Y6758D02*
D03*
Y6733D02*
D03*
Y6707D02*
D03*
Y6682D02*
D03*
Y6656D02*
D03*
Y6630D02*
D03*
X4971Y6304D02*
D03*
Y6278D02*
D03*
Y6253D02*
D03*
Y6227D02*
D03*
Y6202D02*
D03*
Y6176D02*
D03*
Y6150D02*
D03*
X5229Y6330D02*
D03*
Y6304D02*
D03*
Y6278D02*
D03*
Y6253D02*
D03*
Y6227D02*
D03*
Y6202D02*
D03*
Y6176D02*
D03*
Y6150D02*
D03*
X4971Y5824D02*
D03*
Y5798D02*
D03*
Y5773D02*
D03*
Y5747D02*
D03*
Y5722D02*
D03*
Y5696D02*
D03*
Y5670D02*
D03*
X5229Y5850D02*
D03*
Y5824D02*
D03*
Y5798D02*
D03*
Y5773D02*
D03*
Y5747D02*
D03*
Y5722D02*
D03*
Y5696D02*
D03*
Y5670D02*
D03*
X4971Y5344D02*
D03*
Y5318D02*
D03*
Y5293D02*
D03*
Y5267D02*
D03*
Y5242D02*
D03*
Y5216D02*
D03*
Y5190D02*
D03*
X5229Y5370D02*
D03*
Y5344D02*
D03*
Y5318D02*
D03*
Y5293D02*
D03*
Y5267D02*
D03*
Y5242D02*
D03*
Y5216D02*
D03*
Y5190D02*
D03*
X4971Y4864D02*
D03*
Y4838D02*
D03*
Y4813D02*
D03*
Y4787D02*
D03*
Y4762D02*
D03*
Y4736D02*
D03*
Y4710D02*
D03*
X5229Y4890D02*
D03*
Y4864D02*
D03*
Y4838D02*
D03*
Y4813D02*
D03*
Y4787D02*
D03*
Y4762D02*
D03*
Y4736D02*
D03*
Y4710D02*
D03*
X4971Y4384D02*
D03*
Y4358D02*
D03*
Y4333D02*
D03*
Y4307D02*
D03*
Y4282D02*
D03*
Y4256D02*
D03*
Y4230D02*
D03*
X5229Y4410D02*
D03*
Y4384D02*
D03*
Y4358D02*
D03*
Y4333D02*
D03*
Y4307D02*
D03*
Y4282D02*
D03*
Y4256D02*
D03*
Y4230D02*
D03*
X4971Y3904D02*
D03*
Y3878D02*
D03*
Y3853D02*
D03*
Y3827D02*
D03*
Y3802D02*
D03*
Y3776D02*
D03*
Y3750D02*
D03*
X5229Y3930D02*
D03*
Y3904D02*
D03*
Y3878D02*
D03*
Y3853D02*
D03*
Y3827D02*
D03*
Y3802D02*
D03*
Y3776D02*
D03*
Y3750D02*
D03*
X4971Y3424D02*
D03*
Y3398D02*
D03*
Y3373D02*
D03*
Y3347D02*
D03*
Y3322D02*
D03*
Y3296D02*
D03*
Y3270D02*
D03*
X5229Y3450D02*
D03*
Y3424D02*
D03*
Y3398D02*
D03*
Y3373D02*
D03*
Y3347D02*
D03*
Y3322D02*
D03*
Y3296D02*
D03*
Y3270D02*
D03*
X2889Y5791D02*
D03*
X2631Y5663D02*
D03*
X2889D02*
D03*
X2631Y5766D02*
D03*
Y5740D02*
D03*
X2889Y5766D02*
D03*
Y5740D02*
D03*
Y5714D02*
D03*
X2631D02*
D03*
X2889Y5689D02*
D03*
X2631D02*
D03*
X2889Y5817D02*
D03*
X2631Y5791D02*
D03*
Y5817D02*
D03*
D35*
X4971Y7770D02*
D03*
Y7290D02*
D03*
Y6810D02*
D03*
Y6330D02*
D03*
Y5850D02*
D03*
Y5370D02*
D03*
Y4890D02*
D03*
Y4410D02*
D03*
Y3930D02*
D03*
Y3450D02*
D03*
D36*
X5935Y7465D02*
D03*
Y7515D02*
D03*
Y7565D02*
D03*
Y7615D02*
D03*
X5705Y7465D02*
D03*
Y7515D02*
D03*
Y7565D02*
D03*
Y7615D02*
D03*
X5935Y6985D02*
D03*
Y7035D02*
D03*
Y7085D02*
D03*
Y7135D02*
D03*
X5705Y6985D02*
D03*
Y7035D02*
D03*
Y7085D02*
D03*
Y7135D02*
D03*
X5935Y6505D02*
D03*
Y6555D02*
D03*
Y6605D02*
D03*
Y6655D02*
D03*
X5705Y6505D02*
D03*
Y6555D02*
D03*
Y6605D02*
D03*
Y6655D02*
D03*
X5935Y6025D02*
D03*
Y6075D02*
D03*
Y6125D02*
D03*
Y6175D02*
D03*
X5705Y6025D02*
D03*
Y6075D02*
D03*
Y6125D02*
D03*
Y6175D02*
D03*
X5935Y5545D02*
D03*
Y5595D02*
D03*
Y5645D02*
D03*
Y5695D02*
D03*
X5705Y5545D02*
D03*
Y5595D02*
D03*
Y5645D02*
D03*
Y5695D02*
D03*
X5935Y5065D02*
D03*
Y5115D02*
D03*
Y5165D02*
D03*
Y5215D02*
D03*
X5705Y5065D02*
D03*
Y5115D02*
D03*
Y5165D02*
D03*
Y5215D02*
D03*
X5935Y4585D02*
D03*
Y4635D02*
D03*
Y4685D02*
D03*
Y4735D02*
D03*
X5705Y4585D02*
D03*
Y4635D02*
D03*
Y4685D02*
D03*
Y4735D02*
D03*
X5935Y4105D02*
D03*
Y4155D02*
D03*
Y4205D02*
D03*
Y4255D02*
D03*
X5705Y4105D02*
D03*
Y4155D02*
D03*
Y4205D02*
D03*
Y4255D02*
D03*
X5935Y3625D02*
D03*
Y3675D02*
D03*
Y3725D02*
D03*
Y3775D02*
D03*
X5705Y3625D02*
D03*
Y3675D02*
D03*
Y3725D02*
D03*
Y3775D02*
D03*
X5935Y3145D02*
D03*
Y3195D02*
D03*
Y3245D02*
D03*
Y3295D02*
D03*
X5705Y3145D02*
D03*
Y3195D02*
D03*
Y3245D02*
D03*
Y3295D02*
D03*
D37*
X7855Y5231D02*
D03*
X7830D02*
D03*
X7804D02*
D03*
X7778D02*
D03*
X7753D02*
D03*
X7727D02*
D03*
X7702D02*
D03*
X7676D02*
D03*
X7650D02*
D03*
X7625Y5231D02*
D03*
X7855Y5009D02*
D03*
X7830D02*
D03*
X7804D02*
D03*
X7778D02*
D03*
X7753D02*
D03*
X7727D02*
D03*
X7702D02*
D03*
X7676D02*
D03*
X7650D02*
D03*
X7625D02*
D03*
D38*
X7880Y5970D02*
D03*
D39*
X7995Y6085D02*
D03*
X7969D02*
D03*
X7944D02*
D03*
X7918D02*
D03*
X7893D02*
D03*
X7867D02*
D03*
X7841D02*
D03*
X7816D02*
D03*
X7790D02*
D03*
X7765D02*
D03*
X7995Y5855D02*
D03*
X7969D02*
D03*
X7944D02*
D03*
X7918D02*
D03*
X7893D02*
D03*
X7867D02*
D03*
X7841D02*
D03*
X7816D02*
D03*
X7790D02*
D03*
X7765D02*
D03*
D40*
X7880Y5921D02*
D03*
Y6019D02*
D03*
D41*
X7969Y5970D02*
D03*
X7791D02*
D03*
D42*
X7997Y4602D02*
D03*
X7977D02*
D03*
X7564Y3998D02*
D03*
X7583D02*
D03*
X7603D02*
D03*
X7623D02*
D03*
X7643D02*
D03*
X7662D02*
D03*
X7682D02*
D03*
X7702D02*
D03*
X7721D02*
D03*
X7741D02*
D03*
X7761D02*
D03*
X7780D02*
D03*
X7800D02*
D03*
X7820D02*
D03*
X7839D02*
D03*
X7859D02*
D03*
X7879D02*
D03*
X7898D02*
D03*
X7918D02*
D03*
X7938D02*
D03*
X7957D02*
D03*
X7977D02*
D03*
X7997D02*
D03*
X8017D02*
D03*
X8036D02*
D03*
X7564Y4602D02*
D03*
X7583D02*
D03*
X7603D02*
D03*
X7623D02*
D03*
X7643D02*
D03*
X7662D02*
D03*
X7682D02*
D03*
X7702D02*
D03*
X7721D02*
D03*
X7741D02*
D03*
X7761D02*
D03*
X7780D02*
D03*
X7800D02*
D03*
X7820D02*
D03*
X7839D02*
D03*
X7859D02*
D03*
X7879D02*
D03*
X7898D02*
D03*
X7918D02*
D03*
X7938D02*
D03*
X7957D02*
D03*
X8017D02*
D03*
X8036D02*
D03*
D43*
X8102Y4064D02*
D03*
Y4083D02*
D03*
Y4103D02*
D03*
Y4123D02*
D03*
Y4143D02*
D03*
Y4162D02*
D03*
Y4182D02*
D03*
Y4202D02*
D03*
Y4221D02*
D03*
Y4241D02*
D03*
Y4261D02*
D03*
Y4280D02*
D03*
Y4300D02*
D03*
Y4320D02*
D03*
Y4339D02*
D03*
Y4359D02*
D03*
Y4379D02*
D03*
Y4398D02*
D03*
Y4418D02*
D03*
Y4438D02*
D03*
Y4457D02*
D03*
Y4477D02*
D03*
Y4497D02*
D03*
Y4517D02*
D03*
Y4536D02*
D03*
X7498Y4064D02*
D03*
Y4083D02*
D03*
Y4103D02*
D03*
Y4123D02*
D03*
Y4143D02*
D03*
Y4162D02*
D03*
Y4182D02*
D03*
Y4202D02*
D03*
Y4221D02*
D03*
Y4241D02*
D03*
Y4261D02*
D03*
Y4280D02*
D03*
Y4300D02*
D03*
Y4320D02*
D03*
Y4339D02*
D03*
Y4359D02*
D03*
Y4379D02*
D03*
Y4398D02*
D03*
Y4418D02*
D03*
Y4438D02*
D03*
Y4457D02*
D03*
Y4477D02*
D03*
Y4497D02*
D03*
Y4517D02*
D03*
Y4536D02*
D03*
D44*
X7711Y3655D02*
D03*
X7711Y3605D02*
D03*
X7929Y3505D02*
D03*
Y3555D02*
D03*
X7711D02*
D03*
Y3505D02*
D03*
X7929Y3655D02*
D03*
Y3605D02*
D03*
D45*
X7423Y4360D02*
X7442Y4379D01*
X7498D01*
X7420Y4360D02*
X7422Y4362D01*
X8470Y4340D02*
X8540D01*
X8470Y4140D02*
X8540D01*
X8279Y3729D02*
Y3800D01*
X6262Y7341D02*
Y7502D01*
X6320Y7560D02*
Y7590D01*
X6262Y7502D02*
X6320Y7560D01*
X6171Y3481D02*
X6219D01*
X5853Y3400D02*
X6090D01*
X6171Y3481D01*
X5985Y3675D02*
X6041Y3619D01*
X6219D01*
X5935Y3675D02*
X5985D01*
X6151Y4441D02*
X6219D01*
X5853Y4360D02*
X6070D01*
X6151Y4441D01*
X5985Y4635D02*
X6041Y4579D01*
X6219D01*
X5935Y4635D02*
X5985D01*
X6181Y6361D02*
X6219D01*
X5853Y6280D02*
X6100D01*
X6181Y6361D01*
X6161Y5401D02*
X6219D01*
X5853Y5320D02*
X6080D01*
X6161Y5401D01*
X6041Y5539D02*
X6219D01*
X5935Y5595D02*
X5985D01*
X6041Y5539D01*
X5985Y6555D02*
X6041Y6499D01*
X6219D01*
X5935Y6555D02*
X5985D01*
X5229Y3249D02*
Y3270D01*
X5176Y3296D02*
X5229D01*
X5170Y3270D02*
X5229D01*
X5160Y3280D02*
X5176Y3296D01*
X5160Y3280D02*
X5170Y3270D01*
X5229Y3729D02*
Y3750D01*
X5176Y3776D02*
X5229D01*
X5170Y3750D02*
X5229D01*
X5160Y3760D02*
X5176Y3776D01*
X5160Y3760D02*
X5170Y3750D01*
X5229Y4209D02*
Y4230D01*
X5176Y4256D02*
X5229D01*
X5170Y4230D02*
X5229D01*
X5160Y4240D02*
X5176Y4256D01*
X5160Y4240D02*
X5170Y4230D01*
X5229Y4689D02*
Y4710D01*
X5176Y4736D02*
X5229D01*
X5170Y4710D02*
X5229D01*
X5160Y4720D02*
X5176Y4736D01*
X5160Y4720D02*
X5170Y4710D01*
X5229Y5169D02*
Y5190D01*
X5176Y5216D02*
X5229D01*
X5170Y5190D02*
X5229D01*
X5160Y5200D02*
X5176Y5216D01*
X5160Y5200D02*
X5170Y5190D01*
X5229Y5649D02*
Y5670D01*
X5176Y5696D02*
X5229D01*
X5170Y5670D02*
X5229D01*
X5160Y5680D02*
X5176Y5696D01*
X5160Y5680D02*
X5170Y5670D01*
X5229Y6129D02*
Y6150D01*
X5176Y6176D02*
X5229D01*
X5170Y6150D02*
X5229D01*
X5160Y6160D02*
X5176Y6176D01*
X5160Y6160D02*
X5170Y6150D01*
X6141Y7111D02*
X6209D01*
X5935Y7035D02*
X6065D01*
X6141Y7111D01*
X5229Y6609D02*
Y6630D01*
X5176Y6656D02*
X5229D01*
X5170Y6630D02*
X5229D01*
X5160Y6640D02*
X5176Y6656D01*
X5160Y6640D02*
X5170Y6630D01*
X5229Y7089D02*
Y7110D01*
X5176Y7136D02*
X5229D01*
X5170Y7110D02*
X5229D01*
X5160Y7120D02*
X5176Y7136D01*
X5160Y7120D02*
X5170Y7110D01*
X5935Y7515D02*
X5985D01*
X6041Y7249D02*
X6209D01*
X6000Y7290D02*
X6041Y7249D01*
X6000Y7290D02*
Y7500D01*
X5985Y7515D02*
X6000Y7500D01*
X6560Y6700D02*
X6720Y6540D01*
X6460Y4880D02*
X6720D01*
X6380Y6700D02*
X6560D01*
X6350Y6670D02*
X6380Y6700D01*
X6340Y7341D02*
Y7400D01*
X6350Y6591D02*
Y6670D01*
X6400Y5770D02*
X6720D01*
X6350Y5631D02*
Y5720D01*
Y4671D02*
Y4770D01*
X6340Y6940D02*
X6370Y6910D01*
X6417D01*
X6340Y6940D02*
Y7019D01*
X6490Y7150D02*
X6580D01*
X6603Y7117D02*
X6630D01*
X6590Y7130D02*
X6603Y7117D01*
X6590Y7130D02*
Y7140D01*
X6610Y7060D02*
X6630Y7080D01*
X6490Y7190D02*
X6531D01*
X6279Y4099D02*
Y4199D01*
X6240Y4060D02*
X6279Y4099D01*
Y5059D02*
Y5159D01*
X6240Y5020D02*
X6279Y5059D01*
Y6019D02*
Y6119D01*
X6240Y5980D02*
X6279Y6019D01*
X6250Y6010D02*
X6279Y6039D01*
X6269Y6769D02*
Y6869D01*
X6210Y6710D02*
X6269Y6769D01*
X6350Y4770D02*
X6460Y4880D01*
X6340Y7400D02*
X6400Y7460D01*
X8265Y5565D02*
X8325D01*
X7995Y5515D02*
X8055D01*
X7995Y5475D02*
Y5515D01*
X8005Y5465D02*
X8055D01*
X7983Y5503D02*
X7995Y5515D01*
X7940Y5503D02*
X7983D01*
X7995Y5475D02*
X8005Y5465D01*
X7985Y5415D02*
X8055D01*
X7960Y5390D02*
X7985Y5415D01*
X7940Y5410D02*
Y5437D01*
Y5410D02*
X7960Y5390D01*
X7105Y5765D02*
Y5805D01*
X6370Y4710D02*
X6400Y4740D01*
X6370Y4671D02*
Y4710D01*
X6350Y5720D02*
X6400Y5770D01*
X6370Y5670D02*
X6400Y5700D01*
X6370Y5631D02*
Y5670D01*
Y6630D02*
X6400Y6660D01*
X6370Y6591D02*
Y6630D01*
X6360Y7380D02*
X6390Y7410D01*
X6360Y7341D02*
Y7380D01*
X5229Y7569D02*
Y7590D01*
X5176Y7616D02*
X5229D01*
X5160Y7600D02*
X5176Y7616D01*
X5170Y7590D02*
X5229D01*
X5160Y7600D02*
X5170Y7590D01*
X4482Y7218D02*
X4572Y7128D01*
X4622D02*
X4650Y7100D01*
X4572Y7128D02*
X4622D01*
X4610Y6829D02*
Y6930D01*
X4480Y7309D02*
Y7320D01*
X4482Y7218D02*
Y7309D01*
X4620Y7610D02*
X4650Y7580D01*
X4482Y7698D02*
X4570Y7610D01*
X4620D01*
X4610Y7309D02*
Y7390D01*
X4482Y7698D02*
Y7789D01*
X4650Y6970D02*
Y7100D01*
X4610Y6930D02*
X4650Y6970D01*
Y7430D02*
Y7580D01*
X4610Y7390D02*
X4650Y7430D01*
X4586Y5070D02*
Y5094D01*
Y5070D02*
X4600Y5056D01*
X2900Y5060D02*
X2960Y5000D01*
X4560D02*
X4600Y5040D01*
X2960Y5000D02*
X4560D01*
X4600Y5040D02*
Y5056D01*
X2889Y5103D02*
X2937D01*
X3020Y5020D02*
X4480D01*
X4426Y3354D02*
X4482Y3298D01*
Y3211D02*
Y3298D01*
X4303Y3354D02*
X4426D01*
X4411Y3329D02*
X4456Y3284D01*
Y3211D02*
Y3284D01*
X4303Y3329D02*
X4411D01*
X4397Y3303D02*
X4430Y3270D01*
Y3211D02*
Y3270D01*
X4303Y3303D02*
X4397D01*
X4426Y3834D02*
X4482Y3778D01*
Y3691D02*
Y3778D01*
X4303Y3834D02*
X4426D01*
X4411Y3809D02*
X4456Y3764D01*
Y3691D02*
Y3764D01*
X4303Y3809D02*
X4411D01*
X4397Y3783D02*
X4430Y3750D01*
Y3691D02*
Y3750D01*
X4303Y3783D02*
X4397D01*
X4426Y4314D02*
X4482Y4258D01*
Y4171D02*
Y4258D01*
X4303Y4314D02*
X4426D01*
X4411Y4289D02*
X4456Y4244D01*
Y4171D02*
Y4244D01*
X4303Y4289D02*
X4411D01*
X4397Y4263D02*
X4430Y4230D01*
Y4171D02*
Y4230D01*
X4303Y4263D02*
X4397D01*
X4426Y4794D02*
X4482Y4738D01*
Y4651D02*
Y4738D01*
X4303Y4794D02*
X4426D01*
X4411Y4769D02*
X4456Y4724D01*
Y4651D02*
Y4724D01*
X4303Y4769D02*
X4411D01*
X4397Y4743D02*
X4430Y4710D01*
Y4651D02*
Y4710D01*
X4303Y4743D02*
X4397D01*
X4426Y5274D02*
X4482Y5218D01*
Y5131D02*
Y5218D01*
X4303Y5274D02*
X4426D01*
X4411Y5249D02*
X4456Y5204D01*
Y5131D02*
Y5204D01*
X4303Y5249D02*
X4411D01*
X4397Y5223D02*
X4430Y5190D01*
Y5131D02*
Y5190D01*
X4303Y5223D02*
X4397D01*
X4426Y5754D02*
X4482Y5698D01*
Y5611D02*
Y5698D01*
X4303Y5754D02*
X4426D01*
X4411Y5729D02*
X4456Y5684D01*
Y5611D02*
Y5684D01*
X4303Y5729D02*
X4411D01*
X4397Y5703D02*
X4430Y5670D01*
Y5611D02*
Y5670D01*
X4303Y5703D02*
X4397D01*
X4426Y6234D02*
X4482Y6178D01*
Y6091D02*
Y6178D01*
X4303Y6234D02*
X4426D01*
X4411Y6209D02*
X4456Y6164D01*
Y6091D02*
Y6164D01*
X4303Y6209D02*
X4411D01*
X4397Y6183D02*
X4430Y6150D01*
Y6091D02*
Y6150D01*
X4303Y6183D02*
X4397D01*
X4426Y6714D02*
X4482Y6658D01*
Y6571D02*
Y6658D01*
X4303Y6714D02*
X4426D01*
X4411Y6689D02*
X4456Y6644D01*
Y6571D02*
Y6644D01*
X4303Y6689D02*
X4411D01*
X4397Y6663D02*
X4430Y6630D01*
Y6571D02*
Y6630D01*
X4303Y6663D02*
X4397D01*
X4426Y7194D02*
X4482Y7138D01*
Y7051D02*
Y7138D01*
X4303Y7194D02*
X4426D01*
X4411Y7169D02*
X4456Y7124D01*
Y7051D02*
Y7124D01*
X4303Y7169D02*
X4411D01*
X4397Y7143D02*
X4430Y7110D01*
Y7051D02*
Y7110D01*
X4303Y7143D02*
X4397D01*
X2937Y5103D02*
X3020Y5020D01*
X6271Y3639D02*
X6280Y3630D01*
Y3610D02*
Y3630D01*
X6269Y3599D02*
X6280Y3610D01*
X6219Y3639D02*
X6271D01*
X6179Y3599D02*
X6269D01*
X6180Y3580D02*
X6219D01*
X6170Y3590D02*
X6179Y3599D01*
X6170Y3590D02*
X6180Y3580D01*
X6331Y3711D02*
Y3759D01*
X6320Y3770D02*
X6331Y3759D01*
X6311Y3711D02*
Y3761D01*
X6501Y3501D02*
X6541D01*
X6490Y3490D02*
X6501Y3501D01*
X6499Y3481D02*
X6541D01*
X6498Y3480D02*
X6499Y3481D01*
X6490Y3480D02*
X6498D01*
X6490Y3470D02*
Y3490D01*
X6499Y3461D02*
X6591D01*
X6490Y3470D02*
X6499Y3461D01*
X6541Y3442D02*
X6568D01*
X6390Y3350D02*
Y3389D01*
X6370Y3350D02*
Y3389D01*
X6380Y3340D02*
X6390Y3350D01*
X6370D02*
X6380Y3340D01*
X6331Y3341D02*
Y3389D01*
X6320Y3330D02*
X6331Y3341D01*
X6311Y3339D02*
Y3389D01*
Y3339D02*
X6320Y3330D01*
X6259Y3461D02*
X6272Y3448D01*
X6219Y3461D02*
X6259D01*
X6265Y3442D02*
X6272Y3448D01*
Y3352D02*
Y3448D01*
X6219Y3442D02*
X6265D01*
X6260Y3340D02*
X6272Y3352D01*
X6100Y3170D02*
X6161D01*
X6279D02*
Y3239D01*
X6488Y3348D02*
Y3389D01*
X6493Y3280D02*
X6540D01*
X6493D02*
Y3327D01*
X6469Y3351D02*
X6493Y3327D01*
X6469Y3351D02*
Y3389D01*
X6480Y3340D02*
X6488Y3348D01*
X6380Y3280D02*
X6427D01*
X6410Y3290D02*
Y3389D01*
X6350Y3310D02*
Y3389D01*
Y3310D02*
X6380Y3280D01*
X6410Y3290D02*
X6410Y3290D01*
X6541Y3580D02*
X6590D01*
X6597Y3573D01*
Y3553D02*
X6640D01*
X6597D02*
Y3573D01*
X6583Y3540D02*
X6597Y3553D01*
X6541Y3540D02*
X6583D01*
X6613Y3487D02*
X6640D01*
X6600Y3500D02*
X6613Y3487D01*
X6640Y3450D02*
Y3487D01*
X6620Y3430D02*
X6640Y3450D01*
X6580Y3430D02*
X6620D01*
X6590Y3520D02*
X6600Y3510D01*
Y3500D02*
Y3510D01*
X6568Y3442D02*
X6580Y3430D01*
X6500Y3560D02*
X6541D01*
X6490Y3550D02*
X6500Y3560D01*
X6490Y3530D02*
Y3550D01*
X6500Y3520D02*
X6590D01*
X6490Y3530D02*
X6500Y3520D01*
X6187Y3257D02*
Y3290D01*
X6161Y3231D02*
X6187Y3257D01*
X6161Y3170D02*
Y3231D01*
X6291Y3311D02*
Y3389D01*
X6275Y3311D02*
X6291D01*
X6253Y3290D02*
X6275Y3311D01*
X6253Y3290D02*
X6270D01*
X6271Y4599D02*
X6280Y4590D01*
Y4570D02*
Y4590D01*
X6269Y4559D02*
X6280Y4570D01*
X6219Y4599D02*
X6271D01*
X6179Y4559D02*
X6269D01*
X6180Y4540D02*
X6219D01*
X6170Y4550D02*
X6179Y4559D01*
X6170Y4550D02*
X6180Y4540D01*
X6331Y4671D02*
Y4719D01*
X6320Y4730D02*
X6331Y4719D01*
X6311Y4671D02*
Y4721D01*
X6501Y4461D02*
X6541D01*
X6490Y4450D02*
X6501Y4461D01*
X6499Y4441D02*
X6541D01*
X6498Y4440D02*
X6499Y4441D01*
X6490Y4440D02*
X6498D01*
X6490Y4430D02*
Y4450D01*
X6499Y4421D02*
X6591D01*
X6490Y4430D02*
X6499Y4421D01*
X6541Y4402D02*
X6568D01*
X6390Y4310D02*
Y4349D01*
X6370Y4310D02*
Y4349D01*
X6380Y4300D02*
X6390Y4310D01*
X6370D02*
X6380Y4300D01*
X6331Y4301D02*
Y4349D01*
X6320Y4290D02*
X6331Y4301D01*
X6311Y4299D02*
Y4349D01*
Y4299D02*
X6320Y4290D01*
X6259Y4421D02*
X6272Y4408D01*
X6219Y4421D02*
X6259D01*
X6265Y4402D02*
X6272Y4408D01*
Y4312D02*
Y4408D01*
X6219Y4402D02*
X6265D01*
X6260Y4300D02*
X6272Y4312D01*
X6100Y4130D02*
X6161D01*
X6488Y4308D02*
Y4349D01*
X6493Y4240D02*
X6540D01*
X6493D02*
Y4287D01*
X6469Y4311D02*
X6493Y4287D01*
X6469Y4311D02*
Y4349D01*
X6480Y4300D02*
X6488Y4308D01*
X6380Y4240D02*
X6427D01*
X6410Y4250D02*
Y4349D01*
X6350Y4270D02*
Y4349D01*
Y4270D02*
X6380Y4240D01*
X6410Y4250D02*
X6410Y4250D01*
X6541Y4540D02*
X6590D01*
X6597Y4533D01*
Y4513D02*
X6640D01*
X6597D02*
Y4533D01*
X6583Y4500D02*
X6597Y4513D01*
X6541Y4500D02*
X6583D01*
X6613Y4447D02*
X6640D01*
X6600Y4460D02*
X6613Y4447D01*
X6640Y4410D02*
Y4447D01*
X6620Y4390D02*
X6640Y4410D01*
X6580Y4390D02*
X6620D01*
X6590Y4480D02*
X6600Y4470D01*
Y4460D02*
Y4470D01*
X6568Y4402D02*
X6580Y4390D01*
X6500Y4520D02*
X6541D01*
X6490Y4510D02*
X6500Y4520D01*
X6490Y4490D02*
Y4510D01*
X6500Y4480D02*
X6590D01*
X6490Y4490D02*
X6500Y4480D01*
X6187Y4217D02*
Y4250D01*
X6161Y4191D02*
X6187Y4217D01*
X6161Y4130D02*
Y4191D01*
X6291Y4271D02*
Y4349D01*
X6275Y4271D02*
X6291D01*
X6253Y4250D02*
X6275Y4271D01*
X6253Y4250D02*
X6270D01*
X6271Y5559D02*
X6280Y5550D01*
Y5530D02*
Y5550D01*
X6269Y5519D02*
X6280Y5530D01*
X6219Y5559D02*
X6271D01*
X6179Y5519D02*
X6269D01*
X6180Y5500D02*
X6219D01*
X6170Y5510D02*
X6179Y5519D01*
X6170Y5510D02*
X6180Y5500D01*
X6331Y5631D02*
Y5679D01*
X6320Y5690D02*
X6331Y5679D01*
X6311Y5631D02*
Y5681D01*
X6501Y5421D02*
X6541D01*
X6490Y5410D02*
X6501Y5421D01*
X6499Y5401D02*
X6541D01*
X6498Y5400D02*
X6499Y5401D01*
X6490Y5400D02*
X6498D01*
X6490Y5390D02*
Y5410D01*
X6499Y5381D02*
X6591D01*
X6490Y5390D02*
X6499Y5381D01*
X6541Y5362D02*
X6568D01*
X6390Y5270D02*
Y5309D01*
X6370Y5270D02*
Y5309D01*
X6380Y5260D02*
X6390Y5270D01*
X6370D02*
X6380Y5260D01*
X6331Y5261D02*
Y5309D01*
X6320Y5250D02*
X6331Y5261D01*
X6311Y5259D02*
Y5309D01*
Y5259D02*
X6320Y5250D01*
X6259Y5381D02*
X6272Y5368D01*
X6219Y5381D02*
X6259D01*
X6265Y5362D02*
X6272Y5368D01*
Y5272D02*
Y5368D01*
X6219Y5362D02*
X6265D01*
X6260Y5260D02*
X6272Y5272D01*
X6100Y5090D02*
X6161D01*
X6488Y5268D02*
Y5309D01*
X6493Y5200D02*
X6540D01*
X6493D02*
Y5247D01*
X6469Y5271D02*
X6493Y5247D01*
X6469Y5271D02*
Y5309D01*
X6480Y5260D02*
X6488Y5268D01*
X6380Y5200D02*
X6427D01*
X6410Y5210D02*
Y5309D01*
X6350Y5230D02*
Y5309D01*
Y5230D02*
X6380Y5200D01*
X6410Y5210D02*
X6410Y5210D01*
X6541Y5500D02*
X6590D01*
X6597Y5493D01*
Y5473D02*
X6640D01*
X6597D02*
Y5493D01*
X6583Y5460D02*
X6597Y5473D01*
X6541Y5460D02*
X6583D01*
X6613Y5407D02*
X6640D01*
X6600Y5420D02*
X6613Y5407D01*
X6640Y5370D02*
Y5407D01*
X6620Y5350D02*
X6640Y5370D01*
X6580Y5350D02*
X6620D01*
X6590Y5440D02*
X6600Y5430D01*
Y5420D02*
Y5430D01*
X6568Y5362D02*
X6580Y5350D01*
X6500Y5480D02*
X6541D01*
X6490Y5470D02*
X6500Y5480D01*
X6490Y5450D02*
Y5470D01*
X6500Y5440D02*
X6590D01*
X6490Y5450D02*
X6500Y5440D01*
X6187Y5177D02*
Y5210D01*
X6161Y5151D02*
X6187Y5177D01*
X6161Y5090D02*
Y5151D01*
X6291Y5231D02*
Y5309D01*
X6275Y5231D02*
X6291D01*
X6253Y5210D02*
X6275Y5231D01*
X6253Y5210D02*
X6270D01*
X6271Y6519D02*
X6280Y6510D01*
Y6490D02*
Y6510D01*
X6269Y6479D02*
X6280Y6490D01*
X6219Y6519D02*
X6271D01*
X6179Y6479D02*
X6269D01*
X6180Y6460D02*
X6219D01*
X6170Y6470D02*
X6179Y6479D01*
X6170Y6470D02*
X6180Y6460D01*
X6331Y6591D02*
Y6639D01*
X6320Y6650D02*
X6331Y6639D01*
X6311Y6591D02*
Y6641D01*
X6501Y6381D02*
X6541D01*
X6490Y6370D02*
X6501Y6381D01*
X6499Y6361D02*
X6541D01*
X6498Y6360D02*
X6499Y6361D01*
X6490Y6360D02*
X6498D01*
X6490Y6350D02*
Y6370D01*
X6499Y6341D02*
X6591D01*
X6490Y6350D02*
X6499Y6341D01*
X6541Y6322D02*
X6568D01*
X6390Y6230D02*
Y6269D01*
X6370Y6230D02*
Y6269D01*
X6380Y6220D02*
X6390Y6230D01*
X6370D02*
X6380Y6220D01*
X6331Y6221D02*
Y6269D01*
X6320Y6210D02*
X6331Y6221D01*
X6311Y6219D02*
Y6269D01*
Y6219D02*
X6320Y6210D01*
X6259Y6341D02*
X6272Y6328D01*
X6219Y6341D02*
X6259D01*
X6265Y6322D02*
X6272Y6328D01*
Y6232D02*
Y6328D01*
X6219Y6322D02*
X6265D01*
X6260Y6220D02*
X6272Y6232D01*
X6100Y6050D02*
X6161D01*
X6488Y6228D02*
Y6269D01*
X6493Y6160D02*
X6540D01*
X6493D02*
Y6207D01*
X6469Y6231D02*
X6493Y6207D01*
X6469Y6231D02*
Y6269D01*
X6480Y6220D02*
X6488Y6228D01*
X6380Y6160D02*
X6427D01*
X6410Y6170D02*
Y6269D01*
X6350Y6190D02*
Y6269D01*
Y6190D02*
X6380Y6160D01*
X6410Y6170D02*
X6410Y6170D01*
X6541Y6460D02*
X6590D01*
X6597Y6453D01*
Y6433D02*
X6640D01*
X6597D02*
Y6453D01*
X6583Y6420D02*
X6597Y6433D01*
X6541Y6420D02*
X6583D01*
X6613Y6367D02*
X6640D01*
X6600Y6380D02*
X6613Y6367D01*
X6640Y6330D02*
Y6367D01*
X6620Y6310D02*
X6640Y6330D01*
X6580Y6310D02*
X6620D01*
X6590Y6400D02*
X6600Y6390D01*
Y6380D02*
Y6390D01*
X6568Y6322D02*
X6580Y6310D01*
X6500Y6440D02*
X6541D01*
X6490Y6430D02*
X6500Y6440D01*
X6490Y6410D02*
Y6430D01*
X6500Y6400D02*
X6590D01*
X6490Y6410D02*
X6500Y6400D01*
X6187Y6137D02*
Y6170D01*
X6161Y6111D02*
X6187Y6137D01*
X6161Y6050D02*
Y6111D01*
X6291Y6191D02*
Y6269D01*
X6275Y6191D02*
X6291D01*
X6253Y6170D02*
X6275Y6191D01*
X6253Y6170D02*
X6270D01*
X6169Y7229D02*
X6259D01*
X6209Y7269D02*
X6261D01*
X6160Y7220D02*
X6169Y7229D01*
X6170Y7210D02*
X6209D01*
X6160Y7220D02*
X6170Y7210D01*
X6259Y7229D02*
X6270Y7240D01*
Y7260D01*
X6261Y7269D02*
X6270Y7260D01*
X6262Y6982D02*
Y7078D01*
X6249Y7091D02*
X6262Y7078D01*
X6255Y7072D02*
X6262Y7078D01*
X6250Y6970D02*
X6262Y6982D01*
X6209Y7091D02*
X6249D01*
X6209Y7072D02*
X6255D01*
X6301Y7341D02*
Y7391D01*
X6321Y7341D02*
Y7389D01*
X6310Y7400D02*
X6321Y7389D01*
X6459Y6981D02*
X6483Y6957D01*
Y6910D02*
X6530D01*
X6478Y6978D02*
Y7019D01*
X6483Y6910D02*
Y6957D01*
X6470Y6970D02*
X6478Y6978D01*
X6459Y6981D02*
Y7019D01*
X6400Y6920D02*
Y7019D01*
Y6920D02*
X6400Y6920D01*
X6380Y6980D02*
Y7019D01*
X6370Y6970D02*
X6380Y6980D01*
X6360D02*
X6370Y6970D01*
X6360Y6980D02*
Y7019D01*
X6531Y7072D02*
X6558D01*
X6570Y7060D02*
X6610D01*
X6558Y7072D02*
X6570Y7060D01*
X6489Y7091D02*
X6581D01*
X6480Y7100D02*
Y7120D01*
X6491Y7131D02*
X6531D01*
X6489Y7111D02*
X6531D01*
X6480Y7110D02*
X6488D01*
X6489Y7111D01*
X6480Y7100D02*
X6489Y7091D01*
X6480Y7120D02*
X6491Y7131D01*
X6480Y7160D02*
X6490Y7150D01*
X6480Y7160D02*
Y7180D01*
X6490Y7190D01*
X6587Y7183D02*
X6630D01*
X6587D02*
Y7203D01*
X6531Y7210D02*
X6580D01*
X6573Y7170D02*
X6587Y7183D01*
X6531Y7170D02*
X6573D01*
X6580Y7210D02*
X6587Y7203D01*
X6580Y7150D02*
X6590Y7140D01*
X4397Y7623D02*
X4430Y7590D01*
X4411Y7649D02*
X4456Y7604D01*
X4426Y7674D02*
X4482Y7618D01*
X4456Y7531D02*
Y7604D01*
X4303Y7649D02*
X4411D01*
X4482Y7531D02*
Y7618D01*
X4303Y7674D02*
X4426D01*
X4430Y7531D02*
Y7590D01*
X4303Y7623D02*
X4397D01*
X6301Y6969D02*
Y7019D01*
Y6969D02*
X6310Y6960D01*
X6321Y6971D01*
Y7019D01*
X6243Y6920D02*
X6260D01*
X6243D02*
X6265Y6941D01*
X6281D01*
Y7019D01*
X6090Y6800D02*
X6151D01*
Y6861D01*
X6177Y6887D01*
Y6920D01*
X6240Y6670D02*
X6272Y6638D01*
Y6591D02*
Y6638D01*
X6250Y5690D02*
X6272Y5668D01*
Y5631D02*
Y5668D01*
X6250Y4750D02*
X6272Y4728D01*
Y4671D02*
Y4728D01*
Y3711D02*
Y3862D01*
X6370Y3960D01*
X6639Y4721D02*
Y4800D01*
X6619Y3737D02*
Y3820D01*
X6639Y5860D02*
Y5929D01*
X7430Y4400D02*
X7496D01*
X7498Y4398D01*
Y4418D02*
X7568D01*
X7570Y4420D01*
X7662Y4602D02*
Y4648D01*
X7670Y4656D01*
X7918Y4602D02*
Y4658D01*
X7920Y4540D02*
X7938Y4558D01*
Y4602D01*
X7430Y4160D02*
X7452Y4182D01*
X7498D01*
Y4162D02*
X7548D01*
X7570Y4140D01*
X7498Y4202D02*
X7532D01*
X7550Y4220D01*
X7682Y4548D02*
Y4602D01*
Y4548D02*
X7690Y4540D01*
X7741Y4602D02*
Y4679D01*
X7898Y4602D02*
Y4642D01*
X7880Y4660D02*
X7898Y4642D01*
X7662Y3998D02*
Y4032D01*
X7680Y4050D01*
X7600Y3940D02*
X7603Y3943D01*
Y3998D01*
X7682Y3958D02*
Y3998D01*
Y3958D02*
X7700Y3940D01*
X7741Y3998D02*
Y4041D01*
X7760Y4060D01*
X7898Y3998D02*
Y4048D01*
X7918Y3942D02*
Y3998D01*
X7938D02*
Y4038D01*
X7970Y4070D01*
X8017Y3998D02*
Y4037D01*
X8036Y3998D02*
Y4044D01*
X8030Y4050D02*
X8036Y4044D01*
X8044Y4064D02*
X8102D01*
X8017Y4037D02*
X8044Y4064D01*
X8040Y4140D02*
X8057Y4123D01*
X8102D01*
Y4162D02*
X8138D01*
X8160Y4140D01*
X8102Y4202D02*
X8142D01*
X8160Y4220D01*
X8102Y4359D02*
X8141D01*
X8160Y4340D01*
X8050Y4420D02*
X8068Y4438D01*
X8102D01*
Y4457D02*
X8157D01*
X8170Y4470D01*
X7440Y4230D02*
X7451Y4241D01*
X7250Y4230D02*
X7440D01*
X7215Y4265D02*
X7250Y4230D01*
X7105Y4265D02*
X7215D01*
X7451Y4241D02*
X7498D01*
X7415Y4315D02*
X7450Y4280D01*
X7105Y4315D02*
X7415D01*
X7450Y4280D02*
X7498D01*
X7564Y3974D02*
Y3998D01*
X7540Y3920D02*
X7583Y3963D01*
X7335Y4415D02*
X7397Y4477D01*
X7105Y4415D02*
X7335D01*
X7397Y4477D02*
X7498D01*
X7721Y3959D02*
X7730Y3950D01*
X7350Y4920D02*
X7564Y4706D01*
X7350Y4920D02*
Y5720D01*
X7165Y5905D02*
X7350Y5720D01*
X7105Y5905D02*
X7165D01*
X7564Y4602D02*
Y4706D01*
X7380Y4930D02*
X7583Y4727D01*
X7380Y4930D02*
Y5740D01*
X7165Y5955D02*
X7380Y5740D01*
X7105Y5955D02*
X7165D01*
X7583Y4602D02*
Y4727D01*
X7420Y4940D02*
X7623Y4737D01*
X7420Y4940D02*
Y5800D01*
X7215Y6005D02*
X7420Y5800D01*
X7105Y6005D02*
X7215D01*
X7623Y4602D02*
Y4737D01*
X7235Y6055D02*
X7460Y5830D01*
Y4950D02*
Y5830D01*
Y4950D02*
X7643Y4767D01*
X7105Y6055D02*
X7235D01*
X7643Y4602D02*
Y4767D01*
X8270Y4300D02*
X8310Y4340D01*
X8090Y4300D02*
X8270D01*
X8310Y4340D02*
X8370D01*
X8290Y4140D02*
X8359D01*
X8830Y4570D02*
X8850Y4550D01*
Y4270D02*
Y4550D01*
X8453Y4647D02*
X8680Y4420D01*
X7880Y4840D02*
X8490D01*
X7753Y4967D02*
X7880Y4840D01*
X8400Y4770D02*
X8650Y4520D01*
X7870Y4770D02*
X8400D01*
X7702Y4938D02*
Y5009D01*
Y4938D02*
X7870Y4770D01*
X8650Y4520D02*
X8800D01*
X8420Y4800D02*
X8650Y4570D01*
X7880Y4800D02*
X8420D01*
X7727Y4953D02*
X7880Y4800D01*
X8650Y4570D02*
X8830D01*
X7280Y4527D02*
X7310Y4497D01*
X7498D01*
X7370Y4560D02*
X7413Y4517D01*
X7370Y4560D02*
Y4677D01*
X7280Y4767D02*
X7370Y4677D01*
X7413Y4517D02*
X7498D01*
X7160Y4640D02*
X7210Y4590D01*
X7160Y4640D02*
Y4767D01*
X7336Y4064D02*
X7498D01*
X7550Y5100D02*
X7720D01*
X7753Y5067D01*
X7280Y4833D02*
Y5030D01*
X7310Y5060D01*
X7510D02*
X7550Y5100D01*
X8490Y4840D02*
X8660Y4670D01*
X7753Y4967D02*
Y5067D01*
X7540Y5010D02*
X7610Y5080D01*
X7690D01*
X7727Y5043D01*
X7280Y4593D02*
Y4670D01*
X7540Y4930D02*
Y5010D01*
X8790Y4210D02*
X8850Y4270D01*
X7727Y4953D02*
Y5043D01*
X7778Y5009D02*
X7780Y5010D01*
X7960Y5210D02*
X8215Y5465D01*
X8107Y5057D02*
X8170Y5120D01*
X8460D01*
X8080Y5057D02*
X8107D01*
X8460Y5120D02*
X8580Y5240D01*
X7870Y4740D02*
X8020D01*
X7676Y4934D02*
X7870Y4740D01*
X7960Y4460D02*
X8147Y4647D01*
X7590Y4550D02*
X7603Y4563D01*
Y4602D01*
X7550Y4500D02*
X7590Y4460D01*
X7498Y4536D02*
X7534D01*
X7550Y4520D01*
X8680Y4420D02*
X8800D01*
X7550Y4500D02*
Y4520D01*
X7590Y4460D02*
X7960D01*
X8147Y4647D02*
X8453D01*
X7460Y4640D02*
Y4740D01*
X7590Y4870D02*
X7625Y4905D01*
Y5009D01*
X8017Y4602D02*
Y4667D01*
X7676Y4934D02*
Y5009D01*
X8041Y4691D02*
Y4719D01*
X8020Y4740D02*
X8041Y4719D01*
X8017Y4667D02*
X8041Y4691D01*
X8209Y4379D02*
X8240Y4410D01*
X7960Y4920D02*
X7977Y4903D01*
X8215Y5465D02*
X8265D01*
X7960Y4920D02*
Y5210D01*
X7977Y4602D02*
Y4703D01*
X7997Y4602D02*
Y4687D01*
X8010Y4700D01*
X8040Y4900D02*
Y4943D01*
X8080Y4983D01*
X7804Y4956D02*
X7890Y4870D01*
X8273Y4720D02*
X8330D01*
X8337Y4713D01*
X8380D01*
X8102Y4379D02*
X8209D01*
X8160Y4720D02*
X8207D01*
X7804Y4956D02*
Y5009D01*
X7890Y4870D02*
X8180D01*
X8240Y4410D02*
Y4580D01*
X7670Y5150D02*
X7702Y5182D01*
X7160Y4833D02*
Y5030D01*
X7280Y5150D01*
X7490D02*
X7670D01*
X7702Y5182D02*
Y5231D01*
X7650D02*
Y5300D01*
X7676Y5231D02*
Y5274D01*
X7650Y5300D02*
X7676Y5274D01*
X7591Y5231D02*
X7625D01*
X7855Y5231D02*
X7889D01*
X7107Y3977D02*
Y4040D01*
X7173D02*
X7190D01*
X7310Y4160D01*
X7387Y4083D01*
X7420Y4580D02*
Y4740D01*
X7387Y4083D02*
X7498D01*
X7780Y5010D02*
Y5100D01*
X7290Y3510D02*
Y3700D01*
X7105Y3415D02*
X7195D01*
X7290Y3510D01*
Y3700D02*
X7564Y3974D01*
X7225Y3365D02*
X7360Y3500D01*
X7105Y3365D02*
X7225D01*
X7360Y3500D02*
Y3660D01*
X7540Y3840D01*
X7583Y3963D02*
Y3998D01*
X7540Y3840D02*
Y3920D01*
X7410Y3510D02*
Y3637D01*
X7105Y3315D02*
X7215D01*
X7410Y3510D01*
Y3637D02*
X7643Y3870D01*
Y3998D01*
X7480Y3490D02*
Y3610D01*
X7255Y3265D02*
X7480Y3490D01*
Y3610D02*
X7730Y3860D01*
Y3950D01*
X7721Y3959D02*
Y3998D01*
X7105Y3265D02*
X7255D01*
X8545Y3735D02*
X8740D01*
X8500Y3780D02*
X8545Y3735D01*
X8168Y4182D02*
X8500Y3850D01*
X8102Y4182D02*
X8168D01*
X8500Y3837D02*
Y3850D01*
X8177Y4103D02*
X8380Y3900D01*
Y3770D02*
Y3900D01*
Y3770D02*
X8500Y3650D01*
X8102Y4103D02*
X8177D01*
X8500Y3597D02*
Y3650D01*
X8545Y3485D02*
X8740D01*
X8500Y3530D02*
X8545Y3485D01*
X8320Y3610D02*
X8400D01*
X8265Y3665D02*
X8332D01*
X8255Y3515D02*
X8332D01*
X8275Y3565D02*
X8332D01*
X8065Y3515D02*
X8128D01*
X7850Y3630D02*
X7875Y3605D01*
X7850Y3630D02*
X7875Y3655D01*
Y3605D02*
X7929D01*
X7875Y3655D02*
X7929D01*
X7655Y3505D02*
X7711D01*
X7645Y3555D02*
X7711D01*
X7755Y3655D02*
X7830Y3730D01*
Y3930D01*
X7859Y3959D01*
X7711Y3655D02*
X7755D01*
X7859Y3959D02*
Y3998D01*
X7650Y3670D02*
X7800Y3820D01*
X7650Y3630D02*
Y3670D01*
Y3630D02*
X7670Y3610D01*
X7700D01*
X7800Y3820D02*
Y3998D01*
X7965Y3555D02*
X7990Y3580D01*
Y3760D01*
X7977Y3773D02*
X7990Y3760D01*
X7929Y3555D02*
X7965D01*
X7977Y3773D02*
Y3998D01*
X7995Y3505D02*
X8010Y3520D01*
Y3790D01*
X7997Y3803D02*
X8010Y3790D01*
X7929Y3505D02*
X7995D01*
X7997Y3803D02*
Y3998D01*
X7998Y6400D02*
X8110D01*
X7660D02*
X7762D01*
X9290Y4020D02*
Y3960D01*
X9330D01*
X9350D02*
Y4000D01*
X9370Y4020D01*
X9390Y4000D01*
Y3960D01*
Y3990D01*
X9350D01*
X9410Y4020D02*
Y4010D01*
X9430Y3990D01*
X9450Y4010D01*
Y4020D01*
X9430Y3990D02*
Y3960D01*
X9510Y4020D02*
X9470D01*
Y3960D01*
X9510D01*
X9470Y3990D02*
X9490D01*
X9530Y3960D02*
Y4020D01*
X9560D01*
X9570Y4010D01*
Y3990D01*
X9560Y3980D01*
X9530D01*
X9550D02*
X9570Y3960D01*
X9650D02*
X9670D01*
X9660D01*
Y4020D01*
X9650Y4010D01*
D46*
X8030Y5230D02*
X8101D01*
X6860Y7817D02*
X6907D01*
Y7797D02*
Y7817D01*
X6860Y7780D02*
X6890D01*
X6907Y7797D01*
X2660Y3120D02*
X2725D01*
X2882Y3167D02*
Y3225D01*
X2835Y3120D02*
X2882Y3167D01*
Y3375D02*
Y3418D01*
X2835Y3465D02*
Y3500D01*
Y3465D02*
X2882Y3418D01*
X2725Y3465D02*
Y3500D01*
X2700Y3440D02*
X2725Y3465D01*
Y3600D02*
Y3645D01*
X2882Y3662D02*
Y3705D01*
X2835Y3615D02*
X2882Y3662D01*
X2835Y3600D02*
Y3615D01*
X2882Y3855D02*
Y3898D01*
X2835Y3945D02*
Y3980D01*
Y3945D02*
X2882Y3898D01*
X2725Y3965D02*
Y3980D01*
X2680Y3920D02*
X2725Y3965D01*
X2690Y4080D02*
Y4130D01*
X2882Y4122D02*
Y4185D01*
X2810Y4080D02*
X2840D01*
X2882Y4122D01*
Y4335D02*
Y4378D01*
X2835Y4425D02*
Y4460D01*
Y4425D02*
X2882Y4378D01*
X2725Y4455D02*
Y4460D01*
X2670Y4400D02*
X2725Y4455D01*
X2700Y4610D02*
X2725Y4585D01*
Y4560D02*
Y4585D01*
X2882Y4622D02*
Y4665D01*
X2835Y4575D02*
X2882Y4622D01*
X2835Y4560D02*
Y4575D01*
X2725Y4925D02*
Y4940D01*
X2680Y4880D02*
X2725Y4925D01*
X2882Y4815D02*
Y4858D01*
X2835Y4905D02*
Y4940D01*
Y4905D02*
X2882Y4858D01*
X2645Y5955D02*
Y6000D01*
X2882Y6062D02*
Y6105D01*
X2862Y6062D02*
X2882D01*
X2755Y6000D02*
X2800D01*
X2862Y6062D01*
X2882Y6255D02*
Y6298D01*
X2835Y6345D02*
Y6380D01*
Y6345D02*
X2882Y6298D01*
X2725Y6365D02*
Y6380D01*
X2680Y6320D02*
X2725Y6365D01*
Y6480D02*
Y6505D01*
X2690Y6540D02*
X2725Y6505D01*
X2882Y6542D02*
Y6585D01*
X2835Y6495D02*
X2882Y6542D01*
X2835Y6480D02*
Y6495D01*
X2882Y6735D02*
Y6778D01*
X2835Y6825D02*
Y6860D01*
Y6825D02*
X2882Y6778D01*
X2725Y6845D02*
Y6860D01*
X2680Y6800D02*
X2725Y6845D01*
X2700Y7020D02*
X2725Y6995D01*
Y6960D02*
Y6995D01*
X2882Y7007D02*
Y7065D01*
X2835Y6960D02*
X2882Y7007D01*
Y7215D02*
Y7258D01*
X2855Y7285D02*
Y7340D01*
Y7285D02*
X2882Y7258D01*
X2730Y7340D02*
X2745D01*
X2680Y7290D02*
X2730Y7340D01*
X2745Y7450D02*
Y7485D01*
X2882Y7512D02*
Y7555D01*
X2855Y7485D02*
X2882Y7512D01*
X2855Y7450D02*
Y7485D01*
X2700Y7830D02*
X2765D01*
X2882Y7705D02*
Y7823D01*
X2875Y7830D02*
X2882Y7823D01*
X4700Y5110D02*
X4710D01*
X6095Y7565D02*
Y7685D01*
X5710Y7420D02*
X5950D01*
X6145Y7735D02*
Y7856D01*
X6040Y7510D02*
X6095Y7565D01*
X5765Y7515D02*
X5860Y7420D01*
X5785Y6975D02*
Y7035D01*
X5705D02*
X5785D01*
X5705Y7515D02*
X5765D01*
X5775Y6485D02*
Y6555D01*
X5765Y5995D02*
Y6075D01*
X5705Y6555D02*
X5775D01*
X5705Y6075D02*
X5765D01*
X5775Y5525D02*
Y5595D01*
Y4565D02*
Y4635D01*
X5705Y5595D02*
X5775D01*
X5705Y4635D02*
X5775D01*
X5765Y4085D02*
Y4155D01*
X5705D02*
X5765D01*
X5755Y5025D02*
Y5115D01*
X5705D02*
X5755D01*
X5765Y3595D02*
Y3675D01*
X5705D02*
X5765D01*
X5680Y7310D02*
Y7390D01*
X5670Y6830D02*
Y6920D01*
Y6340D02*
Y6430D01*
Y5870D02*
Y5940D01*
X5705Y3195D02*
X5765D01*
X5680Y5380D02*
Y5480D01*
Y4420D02*
Y4520D01*
X5670Y4900D02*
Y4980D01*
X5680Y3940D02*
Y4030D01*
Y3460D02*
Y3540D01*
Y7390D02*
X5710Y7420D01*
X6221Y5721D02*
X6240Y5740D01*
X6200Y5721D02*
X6221D01*
X6195Y7589D02*
Y7624D01*
X6176Y7570D02*
X6195Y7589D01*
X6200Y5620D02*
Y5655D01*
X5500Y6490D02*
Y6500D01*
X5750Y3580D02*
X5765Y3595D01*
X5720Y3580D02*
X5750D01*
X5680Y3540D02*
X5720Y3580D01*
X5740Y4060D02*
X5765Y4085D01*
X5710Y4060D02*
X5740D01*
X5680Y4030D02*
X5710Y4060D01*
X5760Y4550D02*
X5775Y4565D01*
X5710Y4550D02*
X5760D01*
X5680Y4520D02*
X5710Y4550D01*
X5750Y5020D02*
X5755Y5025D01*
X5710Y5020D02*
X5750D01*
X5670Y4980D02*
X5710Y5020D01*
X5750Y5500D02*
X5775Y5525D01*
X5700Y5500D02*
X5750D01*
X5680Y5480D02*
X5700Y5500D01*
X5750Y5980D02*
X5765Y5995D01*
X5710Y5980D02*
X5750D01*
X5670Y5940D02*
X5710Y5980D01*
X5750Y6460D02*
X5775Y6485D01*
X5700Y6460D02*
X5750D01*
X5670Y6430D02*
X5700Y6460D01*
X5750Y6940D02*
X5785Y6975D01*
X5690Y6940D02*
X5750D01*
X5670Y6920D02*
X5690Y6940D01*
X6095Y7792D02*
Y7856D01*
X6087Y7783D02*
X6095Y7792D01*
Y7685D02*
X6145Y7735D01*
X6305Y7835D02*
X6640D01*
X6145Y7624D02*
Y7675D01*
X6305Y7835D01*
X6251Y7719D02*
X6389D01*
X6395Y7725D02*
X6460D01*
X6750Y7780D02*
X6787Y7743D01*
X6750Y7760D02*
Y7780D01*
X6787Y7700D02*
Y7743D01*
X6640Y7725D02*
X6715D01*
X6750Y7760D01*
Y7855D02*
Y7890D01*
X6853Y7700D02*
X6910D01*
X6900Y6705D02*
X6955D01*
X6990Y6740D01*
X6281Y7520D02*
X6850D01*
X6990Y6740D02*
Y7380D01*
X6850Y7520D02*
X6990Y7380D01*
X5810Y3530D02*
X5853Y3487D01*
Y3227D02*
Y3487D01*
X5885Y3195D02*
X5935D01*
X5810Y4490D02*
X5853Y4447D01*
Y4187D02*
Y4447D01*
X5885Y4155D02*
X5935D01*
X5810Y6410D02*
X5853Y6367D01*
X5895Y6075D02*
X5935D01*
X5853Y6280D02*
Y6367D01*
X5853Y6117D02*
Y6280D01*
Y6117D02*
X5895Y6075D01*
X5810Y5450D02*
X5853Y5407D01*
Y5147D02*
Y5407D01*
X5885Y5115D02*
X5935D01*
X5229Y3231D02*
Y3270D01*
Y3322D02*
X5230Y3323D01*
X5140Y3420D02*
X5162Y3398D01*
X5229D01*
X5153Y3367D02*
Y3407D01*
X5173Y3347D02*
X5229D01*
X5153Y3367D02*
X5173Y3347D01*
X5270Y3470D02*
Y3510D01*
X5250Y3450D02*
X5270Y3470D01*
X5229Y3450D02*
X5250D01*
X4971Y3249D02*
Y3270D01*
Y3249D02*
X5000Y3220D01*
X5024Y3296D02*
X5040Y3280D01*
X4971Y3296D02*
X5024D01*
X5030Y3450D02*
X5040Y3440D01*
X5038Y3398D02*
X5040Y3400D01*
X4971Y3398D02*
X5038D01*
X4971Y3450D02*
X5030D01*
X5040Y3360D02*
Y3440D01*
X5027Y3347D02*
X5040Y3360D01*
X4971Y3347D02*
X5027D01*
X5675Y3145D02*
X5705D01*
X5650Y3120D02*
X5675Y3145D01*
X5975Y3245D02*
X6000Y3270D01*
X5935Y3245D02*
X5975D01*
X5162Y3322D02*
X5229D01*
X5130Y3290D02*
X5162Y3322D01*
X5130Y3250D02*
Y3290D01*
Y3250D02*
X5157Y3223D01*
Y3160D02*
Y3223D01*
X5058Y3322D02*
X5083Y3297D01*
Y3160D02*
Y3297D01*
X4902Y3322D02*
X5058D01*
X4837Y3257D02*
X4902Y3322D01*
X4837Y3240D02*
Y3257D01*
X5230Y3323D02*
X5340D01*
X5303Y3373D02*
X5330Y3400D01*
X5229Y3373D02*
X5303D01*
X4870D02*
X4971D01*
X4860Y3363D02*
X4870Y3373D01*
X4857Y3440D02*
X4873Y3424D01*
X4971D01*
X4840Y3440D02*
X4857D01*
X5340Y3323D02*
X5460D01*
X4780Y3380D02*
X4840Y3440D01*
X4740Y3380D02*
X4780D01*
X4740Y3383D02*
X4763Y3360D01*
Y3240D02*
Y3360D01*
X4740Y3457D02*
Y3520D01*
X5580Y3277D02*
X5600Y3297D01*
Y3423D01*
X5507Y3497D02*
X5600D01*
X5460Y3450D02*
X5507Y3497D01*
X5460Y3397D02*
Y3450D01*
X5450D02*
X5460Y3440D01*
X5310Y3450D02*
X5450D01*
X5284Y3424D02*
X5310Y3450D01*
X5229Y3424D02*
X5284D01*
X5743Y3473D02*
Y3520D01*
X5693Y3423D02*
X5743Y3473D01*
X5600Y3423D02*
X5693D01*
X5517Y3277D02*
X5580D01*
X5453Y3213D02*
X5517Y3277D01*
X5453Y3200D02*
Y3213D01*
X5340Y3200D02*
X5387D01*
X5787Y3267D02*
Y3400D01*
X5765Y3245D02*
X5787Y3267D01*
X5665Y3245D02*
X5765D01*
X5623Y3203D02*
X5665Y3245D01*
X5580Y3203D02*
X5623D01*
X5853Y3227D02*
X5885Y3195D01*
X5229Y3711D02*
Y3750D01*
Y3802D02*
X5230Y3803D01*
X5140Y3900D02*
X5162Y3878D01*
X5229D01*
X5153Y3847D02*
Y3887D01*
X5173Y3827D02*
X5229D01*
X5153Y3847D02*
X5173Y3827D01*
X5270Y3950D02*
Y3990D01*
X5250Y3930D02*
X5270Y3950D01*
X5229Y3930D02*
X5250D01*
X4971Y3729D02*
Y3750D01*
Y3729D02*
X5000Y3700D01*
X5024Y3776D02*
X5040Y3760D01*
X4971Y3776D02*
X5024D01*
X5030Y3930D02*
X5040Y3920D01*
X5038Y3878D02*
X5040Y3880D01*
X4971Y3878D02*
X5038D01*
X4971Y3930D02*
X5030D01*
X5040Y3840D02*
Y3920D01*
X5027Y3827D02*
X5040Y3840D01*
X4971Y3827D02*
X5027D01*
X5675Y3625D02*
X5705D01*
X5650Y3600D02*
X5675Y3625D01*
X5975Y3725D02*
X6000Y3750D01*
X5935Y3725D02*
X5975D01*
X5162Y3802D02*
X5229D01*
X5130Y3770D02*
X5162Y3802D01*
X5130Y3730D02*
Y3770D01*
Y3730D02*
X5157Y3703D01*
Y3640D02*
Y3703D01*
X5058Y3802D02*
X5083Y3777D01*
Y3640D02*
Y3777D01*
X4902Y3802D02*
X5058D01*
X4837Y3737D02*
X4902Y3802D01*
X4837Y3720D02*
Y3737D01*
X5230Y3803D02*
X5340D01*
X5303Y3853D02*
X5330Y3880D01*
X5229Y3853D02*
X5303D01*
X4870D02*
X4971D01*
X4860Y3843D02*
X4870Y3853D01*
X4857Y3920D02*
X4873Y3904D01*
X4971D01*
X4840Y3920D02*
X4857D01*
X5340Y3803D02*
X5460D01*
X4780Y3860D02*
X4840Y3920D01*
X4740Y3860D02*
X4780D01*
X4740Y3863D02*
X4763Y3840D01*
Y3720D02*
Y3840D01*
X4740Y3937D02*
Y4000D01*
X5580Y3757D02*
X5600Y3777D01*
Y3903D01*
X5507Y3977D02*
X5600D01*
X5460Y3930D02*
X5507Y3977D01*
X5460Y3877D02*
Y3930D01*
X5450D02*
X5460Y3920D01*
X5310Y3930D02*
X5450D01*
X5284Y3904D02*
X5310Y3930D01*
X5229Y3904D02*
X5284D01*
X5743Y3953D02*
Y4000D01*
X5693Y3903D02*
X5743Y3953D01*
X5600Y3903D02*
X5693D01*
X5517Y3757D02*
X5580D01*
X5453Y3693D02*
X5517Y3757D01*
X5453Y3680D02*
Y3693D01*
X5340Y3680D02*
X5387D01*
X5787Y3747D02*
Y3880D01*
X5765Y3725D02*
X5787Y3747D01*
X5665Y3725D02*
X5765D01*
X5623Y3683D02*
X5665Y3725D01*
X5580Y3683D02*
X5623D01*
X5885Y3675D02*
X5935D01*
X5810Y4010D02*
X5853Y3967D01*
Y3707D02*
X5885Y3675D01*
X5853Y3707D02*
Y3967D01*
X5229Y4191D02*
Y4230D01*
Y4282D02*
X5230Y4283D01*
X5140Y4380D02*
X5162Y4358D01*
X5229D01*
X5153Y4327D02*
Y4367D01*
X5173Y4307D02*
X5229D01*
X5153Y4327D02*
X5173Y4307D01*
X5270Y4430D02*
Y4470D01*
X5250Y4410D02*
X5270Y4430D01*
X5229Y4410D02*
X5250D01*
X4971Y4209D02*
Y4230D01*
Y4209D02*
X5000Y4180D01*
X5024Y4256D02*
X5040Y4240D01*
X4971Y4256D02*
X5024D01*
X5030Y4410D02*
X5040Y4400D01*
X5038Y4358D02*
X5040Y4360D01*
X4971Y4358D02*
X5038D01*
X4971Y4410D02*
X5030D01*
X5040Y4320D02*
Y4400D01*
X5027Y4307D02*
X5040Y4320D01*
X4971Y4307D02*
X5027D01*
X5675Y4105D02*
X5705D01*
X5650Y4080D02*
X5675Y4105D01*
X5975Y4205D02*
X6000Y4230D01*
X5935Y4205D02*
X5975D01*
X5162Y4282D02*
X5229D01*
X5130Y4250D02*
X5162Y4282D01*
X5130Y4210D02*
Y4250D01*
Y4210D02*
X5157Y4183D01*
Y4120D02*
Y4183D01*
X5058Y4282D02*
X5083Y4257D01*
Y4120D02*
Y4257D01*
X4902Y4282D02*
X5058D01*
X4837Y4217D02*
X4902Y4282D01*
X4837Y4200D02*
Y4217D01*
X5230Y4283D02*
X5340D01*
X5303Y4333D02*
X5330Y4360D01*
X5229Y4333D02*
X5303D01*
X4870D02*
X4971D01*
X4860Y4323D02*
X4870Y4333D01*
X4857Y4400D02*
X4873Y4384D01*
X4971D01*
X4840Y4400D02*
X4857D01*
X5340Y4283D02*
X5460D01*
X4780Y4340D02*
X4840Y4400D01*
X4740Y4340D02*
X4780D01*
X4740Y4343D02*
X4763Y4320D01*
Y4200D02*
Y4320D01*
X4740Y4417D02*
Y4480D01*
X5580Y4237D02*
X5600Y4257D01*
Y4383D01*
X5507Y4457D02*
X5600D01*
X5460Y4410D02*
X5507Y4457D01*
X5460Y4357D02*
Y4410D01*
X5450D02*
X5460Y4400D01*
X5310Y4410D02*
X5450D01*
X5284Y4384D02*
X5310Y4410D01*
X5229Y4384D02*
X5284D01*
X5743Y4433D02*
Y4480D01*
X5693Y4383D02*
X5743Y4433D01*
X5600Y4383D02*
X5693D01*
X5517Y4237D02*
X5580D01*
X5453Y4173D02*
X5517Y4237D01*
X5453Y4160D02*
Y4173D01*
X5340Y4160D02*
X5387D01*
X5787Y4227D02*
Y4360D01*
X5765Y4205D02*
X5787Y4227D01*
X5665Y4205D02*
X5765D01*
X5623Y4163D02*
X5665Y4205D01*
X5580Y4163D02*
X5623D01*
X5853Y4187D02*
X5885Y4155D01*
X5229Y4671D02*
Y4710D01*
Y4762D02*
X5230Y4763D01*
X5140Y4860D02*
X5162Y4838D01*
X5229D01*
X5153Y4807D02*
Y4847D01*
X5173Y4787D02*
X5229D01*
X5153Y4807D02*
X5173Y4787D01*
X5270Y4910D02*
Y4950D01*
X5250Y4890D02*
X5270Y4910D01*
X5229Y4890D02*
X5250D01*
X4971Y4689D02*
Y4710D01*
Y4689D02*
X5000Y4660D01*
X5024Y4736D02*
X5040Y4720D01*
X4971Y4736D02*
X5024D01*
X5030Y4890D02*
X5040Y4880D01*
X5038Y4838D02*
X5040Y4840D01*
X4971Y4838D02*
X5038D01*
X4971Y4890D02*
X5030D01*
X5040Y4800D02*
Y4880D01*
X5027Y4787D02*
X5040Y4800D01*
X4971Y4787D02*
X5027D01*
X5675Y4585D02*
X5705D01*
X5650Y4560D02*
X5675Y4585D01*
X5975Y4685D02*
X6000Y4710D01*
X5935Y4685D02*
X5975D01*
X5162Y4762D02*
X5229D01*
X5130Y4730D02*
X5162Y4762D01*
X5130Y4690D02*
Y4730D01*
Y4690D02*
X5157Y4663D01*
Y4600D02*
Y4663D01*
X5058Y4762D02*
X5083Y4737D01*
Y4600D02*
Y4737D01*
X4902Y4762D02*
X5058D01*
X4837Y4697D02*
X4902Y4762D01*
X4837Y4680D02*
Y4697D01*
X5230Y4763D02*
X5340D01*
X5303Y4813D02*
X5330Y4840D01*
X5229Y4813D02*
X5303D01*
X4870D02*
X4971D01*
X4860Y4803D02*
X4870Y4813D01*
X4857Y4880D02*
X4873Y4864D01*
X4971D01*
X4840Y4880D02*
X4857D01*
X5340Y4763D02*
X5460D01*
X4780Y4820D02*
X4840Y4880D01*
X4740Y4820D02*
X4780D01*
X4740Y4823D02*
X4763Y4800D01*
Y4680D02*
Y4800D01*
X4740Y4897D02*
Y4960D01*
X5580Y4717D02*
X5600Y4737D01*
Y4863D01*
X5507Y4937D02*
X5600D01*
X5460Y4890D02*
X5507Y4937D01*
X5460Y4837D02*
Y4890D01*
X5450D02*
X5460Y4880D01*
X5310Y4890D02*
X5450D01*
X5284Y4864D02*
X5310Y4890D01*
X5229Y4864D02*
X5284D01*
X5743Y4913D02*
Y4960D01*
X5693Y4863D02*
X5743Y4913D01*
X5600Y4863D02*
X5693D01*
X5517Y4717D02*
X5580D01*
X5453Y4653D02*
X5517Y4717D01*
X5453Y4640D02*
Y4653D01*
X5340Y4640D02*
X5387D01*
X5787Y4707D02*
Y4840D01*
X5765Y4685D02*
X5787Y4707D01*
X5665Y4685D02*
X5765D01*
X5623Y4643D02*
X5665Y4685D01*
X5580Y4643D02*
X5623D01*
X5885Y4635D02*
X5935D01*
X5810Y4970D02*
X5853Y4927D01*
Y4667D02*
X5885Y4635D01*
X5853Y4667D02*
Y4927D01*
X5229Y5151D02*
Y5190D01*
Y5242D02*
X5230Y5243D01*
X5140Y5340D02*
X5162Y5318D01*
X5229D01*
X5153Y5287D02*
Y5327D01*
X5173Y5267D02*
X5229D01*
X5153Y5287D02*
X5173Y5267D01*
X5270Y5390D02*
Y5430D01*
X5250Y5370D02*
X5270Y5390D01*
X5229Y5370D02*
X5250D01*
X4971Y5169D02*
Y5190D01*
Y5169D02*
X5000Y5140D01*
X5024Y5216D02*
X5040Y5200D01*
X4971Y5216D02*
X5024D01*
X5030Y5370D02*
X5040Y5360D01*
X5038Y5318D02*
X5040Y5320D01*
X4971Y5318D02*
X5038D01*
X4971Y5370D02*
X5030D01*
X5040Y5280D02*
Y5360D01*
X5027Y5267D02*
X5040Y5280D01*
X4971Y5267D02*
X5027D01*
X5675Y5065D02*
X5705D01*
X5650Y5040D02*
X5675Y5065D01*
X5975Y5165D02*
X6000Y5190D01*
X5935Y5165D02*
X5975D01*
X5162Y5242D02*
X5229D01*
X5130Y5210D02*
X5162Y5242D01*
X5130Y5170D02*
Y5210D01*
Y5170D02*
X5157Y5143D01*
Y5080D02*
Y5143D01*
X5058Y5242D02*
X5083Y5217D01*
Y5080D02*
Y5217D01*
X4902Y5242D02*
X5058D01*
X4837Y5177D02*
X4902Y5242D01*
X4837Y5160D02*
Y5177D01*
X5230Y5243D02*
X5340D01*
X5303Y5293D02*
X5330Y5320D01*
X5229Y5293D02*
X5303D01*
X4870D02*
X4971D01*
X4860Y5283D02*
X4870Y5293D01*
X4857Y5360D02*
X4873Y5344D01*
X4971D01*
X4840Y5360D02*
X4857D01*
X5340Y5243D02*
X5460D01*
X4780Y5300D02*
X4840Y5360D01*
X4740Y5300D02*
X4780D01*
X4740Y5303D02*
X4763Y5280D01*
Y5160D02*
Y5280D01*
X4740Y5377D02*
Y5440D01*
X5580Y5197D02*
X5600Y5217D01*
Y5343D01*
X5507Y5417D02*
X5600D01*
X5460Y5370D02*
X5507Y5417D01*
X5460Y5317D02*
Y5370D01*
X5450D02*
X5460Y5360D01*
X5310Y5370D02*
X5450D01*
X5284Y5344D02*
X5310Y5370D01*
X5229Y5344D02*
X5284D01*
X5743Y5393D02*
Y5440D01*
X5693Y5343D02*
X5743Y5393D01*
X5600Y5343D02*
X5693D01*
X5517Y5197D02*
X5580D01*
X5453Y5133D02*
X5517Y5197D01*
X5453Y5120D02*
Y5133D01*
X5340Y5120D02*
X5387D01*
X5787Y5187D02*
Y5320D01*
X5765Y5165D02*
X5787Y5187D01*
X5665Y5165D02*
X5765D01*
X5623Y5123D02*
X5665Y5165D01*
X5580Y5123D02*
X5623D01*
X5853Y5147D02*
X5885Y5115D01*
X5229Y5631D02*
Y5670D01*
Y5722D02*
X5230Y5723D01*
X5140Y5820D02*
X5162Y5798D01*
X5229D01*
X5153Y5767D02*
Y5807D01*
X5173Y5747D02*
X5229D01*
X5153Y5767D02*
X5173Y5747D01*
X5270Y5870D02*
Y5910D01*
X5250Y5850D02*
X5270Y5870D01*
X5229Y5850D02*
X5250D01*
X4971Y5649D02*
Y5670D01*
Y5649D02*
X5000Y5620D01*
X5024Y5696D02*
X5040Y5680D01*
X4971Y5696D02*
X5024D01*
X5030Y5850D02*
X5040Y5840D01*
X5038Y5798D02*
X5040Y5800D01*
X4971Y5798D02*
X5038D01*
X4971Y5850D02*
X5030D01*
X5040Y5760D02*
Y5840D01*
X5027Y5747D02*
X5040Y5760D01*
X4971Y5747D02*
X5027D01*
X5675Y5545D02*
X5705D01*
X5650Y5520D02*
X5675Y5545D01*
X5975Y5645D02*
X6000Y5670D01*
X5935Y5645D02*
X5975D01*
X5162Y5722D02*
X5229D01*
X5130Y5690D02*
X5162Y5722D01*
X5130Y5650D02*
Y5690D01*
Y5650D02*
X5157Y5623D01*
Y5560D02*
Y5623D01*
X5058Y5722D02*
X5083Y5697D01*
Y5560D02*
Y5697D01*
X4902Y5722D02*
X5058D01*
X4837Y5657D02*
X4902Y5722D01*
X4837Y5640D02*
Y5657D01*
X5230Y5723D02*
X5340D01*
X5303Y5773D02*
X5330Y5800D01*
X5229Y5773D02*
X5303D01*
X4870D02*
X4971D01*
X4860Y5763D02*
X4870Y5773D01*
X4857Y5840D02*
X4873Y5824D01*
X4971D01*
X4840Y5840D02*
X4857D01*
X5340Y5723D02*
X5460D01*
X4780Y5780D02*
X4840Y5840D01*
X4740Y5780D02*
X4780D01*
X4740Y5783D02*
X4763Y5760D01*
Y5640D02*
Y5760D01*
X4740Y5857D02*
Y5920D01*
X5580Y5677D02*
X5600Y5697D01*
Y5823D01*
X5507Y5897D02*
X5600D01*
X5460Y5850D02*
X5507Y5897D01*
X5460Y5797D02*
Y5850D01*
X5450D02*
X5460Y5840D01*
X5310Y5850D02*
X5450D01*
X5284Y5824D02*
X5310Y5850D01*
X5229Y5824D02*
X5284D01*
X5743Y5873D02*
Y5920D01*
X5693Y5823D02*
X5743Y5873D01*
X5600Y5823D02*
X5693D01*
X5517Y5677D02*
X5580D01*
X5453Y5613D02*
X5517Y5677D01*
X5453Y5600D02*
Y5613D01*
X5340Y5600D02*
X5387D01*
X5787Y5667D02*
Y5800D01*
X5765Y5645D02*
X5787Y5667D01*
X5665Y5645D02*
X5765D01*
X5623Y5603D02*
X5665Y5645D01*
X5580Y5603D02*
X5623D01*
X5885Y5595D02*
X5935D01*
X5810Y5930D02*
X5853Y5887D01*
Y5627D02*
X5885Y5595D01*
X5853Y5627D02*
Y5887D01*
X5229Y6111D02*
Y6150D01*
Y6202D02*
X5230Y6203D01*
X5140Y6300D02*
X5162Y6278D01*
X5229D01*
X5153Y6247D02*
Y6287D01*
X5173Y6227D02*
X5229D01*
X5153Y6247D02*
X5173Y6227D01*
X5270Y6350D02*
Y6390D01*
X5250Y6330D02*
X5270Y6350D01*
X5229Y6330D02*
X5250D01*
X4971Y6129D02*
Y6150D01*
Y6129D02*
X5000Y6100D01*
X5024Y6176D02*
X5040Y6160D01*
X4971Y6176D02*
X5024D01*
X5030Y6330D02*
X5040Y6320D01*
X5038Y6278D02*
X5040Y6280D01*
X4971Y6278D02*
X5038D01*
X4971Y6330D02*
X5030D01*
X5040Y6240D02*
Y6320D01*
X5027Y6227D02*
X5040Y6240D01*
X4971Y6227D02*
X5027D01*
X5675Y6025D02*
X5705D01*
X5650Y6000D02*
X5675Y6025D01*
X5975Y6125D02*
X6000Y6150D01*
X5935Y6125D02*
X5975D01*
X5162Y6202D02*
X5229D01*
X5130Y6170D02*
X5162Y6202D01*
X5130Y6130D02*
Y6170D01*
Y6130D02*
X5157Y6103D01*
Y6040D02*
Y6103D01*
X5058Y6202D02*
X5083Y6177D01*
Y6040D02*
Y6177D01*
X4902Y6202D02*
X5058D01*
X4837Y6137D02*
X4902Y6202D01*
X4837Y6120D02*
Y6137D01*
X5230Y6203D02*
X5340D01*
X5303Y6253D02*
X5330Y6280D01*
X5229Y6253D02*
X5303D01*
X4870D02*
X4971D01*
X4860Y6243D02*
X4870Y6253D01*
X4857Y6320D02*
X4873Y6304D01*
X4971D01*
X4840Y6320D02*
X4857D01*
X5340Y6203D02*
X5460D01*
X4780Y6260D02*
X4840Y6320D01*
X4740Y6260D02*
X4780D01*
X4740Y6263D02*
X4763Y6240D01*
Y6120D02*
Y6240D01*
X4740Y6337D02*
Y6400D01*
X5580Y6157D02*
X5600Y6177D01*
Y6303D01*
X5507Y6377D02*
X5600D01*
X5460Y6330D02*
X5507Y6377D01*
X5460Y6277D02*
Y6330D01*
X5450D02*
X5460Y6320D01*
X5310Y6330D02*
X5450D01*
X5284Y6304D02*
X5310Y6330D01*
X5229Y6304D02*
X5284D01*
X5743Y6353D02*
Y6400D01*
X5693Y6303D02*
X5743Y6353D01*
X5600Y6303D02*
X5693D01*
X5517Y6157D02*
X5580D01*
X5453Y6093D02*
X5517Y6157D01*
X5453Y6080D02*
Y6093D01*
X5340Y6080D02*
X5387D01*
X5787Y6147D02*
Y6280D01*
X5765Y6125D02*
X5787Y6147D01*
X5665Y6125D02*
X5765D01*
X5623Y6083D02*
X5665Y6125D01*
X5580Y6083D02*
X5623D01*
X5340Y6683D02*
X5460D01*
X5230Y6683D02*
X5340D01*
X5975Y6605D02*
X6000Y6630D01*
X5935Y6605D02*
X5975D01*
X5965Y7085D02*
X5990Y7110D01*
X5935Y7085D02*
X5965D01*
Y7565D02*
X5990Y7590D01*
X5935Y7565D02*
X5965D01*
X5340Y7150D02*
X5353Y7163D01*
X5460D01*
X5230Y7643D02*
X5460D01*
X5810Y7370D02*
X5853Y7327D01*
Y7067D02*
Y7327D01*
X5885Y7035D02*
X5935D01*
X5675Y6505D02*
X5705D01*
X5650Y6480D02*
X5675Y6505D01*
X5229Y6591D02*
Y6630D01*
Y6682D02*
X5230Y6683D01*
X5162Y6758D02*
X5229D01*
X5173Y6707D02*
X5229D01*
X5153Y6727D02*
Y6767D01*
X5140Y6780D02*
X5162Y6758D01*
X5153Y6727D02*
X5173Y6707D01*
X5270Y6830D02*
Y6870D01*
X5250Y6810D02*
X5270Y6830D01*
X5229Y6810D02*
X5250D01*
X4971Y6609D02*
X5000Y6580D01*
X4971Y6609D02*
Y6630D01*
X5024Y6656D02*
X5040Y6640D01*
X4971Y6656D02*
X5024D01*
X5040Y6720D02*
Y6800D01*
X5030Y6810D02*
X5040Y6800D01*
X5038Y6758D02*
X5040Y6760D01*
X4971Y6810D02*
X5030D01*
X4971Y6758D02*
X5038D01*
X5027Y6707D02*
X5040Y6720D01*
X4971Y6707D02*
X5027D01*
X5162Y6682D02*
X5229D01*
X5130Y6650D02*
X5162Y6682D01*
X5130Y6610D02*
Y6650D01*
Y6610D02*
X5157Y6583D01*
Y6520D02*
Y6583D01*
X5058Y6682D02*
X5083Y6657D01*
Y6520D02*
Y6657D01*
X4902Y6682D02*
X5058D01*
X4837Y6617D02*
X4902Y6682D01*
X4837Y6600D02*
Y6617D01*
X5303Y6733D02*
X5330Y6760D01*
X5229Y6733D02*
X5303D01*
X4870D02*
X4971D01*
X4860Y6723D02*
X4870Y6733D01*
X4857Y6800D02*
X4873Y6784D01*
X4971D01*
X4840Y6800D02*
X4857D01*
X4780Y6740D02*
X4840Y6800D01*
X4740Y6740D02*
X4780D01*
X4740Y6743D02*
X4763Y6720D01*
Y6600D02*
Y6720D01*
X4740Y6817D02*
Y6880D01*
X5580Y6637D02*
X5600Y6657D01*
Y6783D01*
X5507Y6857D02*
X5600D01*
X5460Y6810D02*
X5507Y6857D01*
X5450Y6810D02*
X5460Y6800D01*
Y6757D02*
Y6810D01*
X5310D02*
X5450D01*
X5284Y6784D02*
X5310Y6810D01*
X5229Y6784D02*
X5284D01*
X5743Y6833D02*
Y6880D01*
X5693Y6783D02*
X5743Y6833D01*
X5600Y6783D02*
X5693D01*
X5517Y6637D02*
X5580D01*
X5453Y6573D02*
X5517Y6637D01*
X5453Y6560D02*
Y6573D01*
X5340Y6560D02*
X5387D01*
X5810Y6890D02*
X5853Y6847D01*
Y6587D02*
X5885Y6555D01*
X5935D01*
X5853Y6587D02*
Y6847D01*
X5787Y6627D02*
Y6760D01*
X5765Y6605D02*
X5787Y6627D01*
X5665Y6605D02*
X5765D01*
X5623Y6563D02*
X5665Y6605D01*
X5580Y6563D02*
X5623D01*
X5675Y6985D02*
X5705D01*
X5650Y6960D02*
X5675Y6985D01*
X5229Y7071D02*
Y7110D01*
Y7162D02*
X5230Y7163D01*
X5162Y7238D02*
X5229D01*
X5173Y7187D02*
X5229D01*
X5153Y7207D02*
Y7247D01*
X5140Y7260D02*
X5162Y7238D01*
X5153Y7207D02*
X5173Y7187D01*
X5270Y7310D02*
Y7350D01*
X5250Y7290D02*
X5270Y7310D01*
X5229Y7290D02*
X5250D01*
X4971Y7089D02*
X5000Y7060D01*
X4971Y7089D02*
Y7110D01*
X5024Y7136D02*
X5040Y7120D01*
X4971Y7136D02*
X5024D01*
X5040Y7200D02*
Y7280D01*
X5030Y7290D02*
X5040Y7280D01*
X5038Y7238D02*
X5040Y7240D01*
X4971Y7290D02*
X5030D01*
X4971Y7238D02*
X5038D01*
X5027Y7187D02*
X5040Y7200D01*
X4971Y7187D02*
X5027D01*
X5162Y7162D02*
X5229D01*
X5130Y7130D02*
X5162Y7162D01*
X5130Y7090D02*
Y7130D01*
Y7090D02*
X5157Y7063D01*
Y7000D02*
Y7063D01*
X5058Y7162D02*
X5083Y7137D01*
Y7000D02*
Y7137D01*
X4902Y7162D02*
X5058D01*
X4837Y7097D02*
X4902Y7162D01*
X4837Y7080D02*
Y7097D01*
X5230Y7163D02*
X5340D01*
X5303Y7213D02*
X5330Y7240D01*
X5229Y7213D02*
X5303D01*
X4870D02*
X4971D01*
X4860Y7203D02*
X4870Y7213D01*
X4857Y7280D02*
X4873Y7264D01*
X4971D01*
X4840Y7280D02*
X4857D01*
X4780Y7220D02*
X4840Y7280D01*
X4740Y7220D02*
X4780D01*
X4740Y7223D02*
X4763Y7200D01*
Y7080D02*
Y7200D01*
X4740Y7297D02*
Y7360D01*
X5580Y7117D02*
X5600Y7137D01*
Y7263D01*
X5507Y7337D02*
X5600D01*
X5460Y7290D02*
X5507Y7337D01*
X5450Y7290D02*
X5460Y7280D01*
Y7237D02*
Y7290D01*
X5310D02*
X5450D01*
X5284Y7264D02*
X5310Y7290D01*
X5229Y7264D02*
X5284D01*
X5743Y7313D02*
Y7360D01*
X5693Y7263D02*
X5743Y7313D01*
X5600Y7263D02*
X5693D01*
X5517Y7117D02*
X5580D01*
X5453Y7053D02*
X5517Y7117D01*
X5453Y7040D02*
Y7053D01*
X5340Y7040D02*
X5387D01*
X5853Y7067D02*
X5885Y7035D01*
X5787Y7107D02*
Y7240D01*
X5765Y7085D02*
X5787Y7107D01*
X5665Y7085D02*
X5765D01*
X5623Y7043D02*
X5665Y7085D01*
X5580Y7043D02*
X5623D01*
X5810Y7850D02*
X5853Y7807D01*
Y7547D02*
Y7807D01*
X5885Y7515D02*
X5935D01*
X5675Y7465D02*
X5705D01*
X5650Y7440D02*
X5675Y7465D01*
X5665Y7565D02*
X5765D01*
X5787Y7587D02*
Y7720D01*
X5580Y7523D02*
X5623D01*
X5765Y7565D02*
X5787Y7587D01*
X5853Y7547D02*
X5885Y7515D01*
X5743Y7793D02*
Y7840D01*
X5600Y7743D02*
X5693D01*
X5600Y7617D02*
Y7743D01*
X5693D02*
X5743Y7793D01*
X5340Y7520D02*
X5387D01*
X5623Y7523D02*
X5665Y7565D01*
X5580Y7597D02*
X5600Y7617D01*
X5517Y7597D02*
X5580D01*
X5453Y7520D02*
Y7533D01*
X5517Y7597D01*
X5460Y7717D02*
Y7770D01*
X5507Y7817D02*
X5600D01*
X5450Y7770D02*
X5460Y7760D01*
X5229Y7744D02*
X5284D01*
X5460Y7770D02*
X5507Y7817D01*
X5303Y7693D02*
X5330Y7720D01*
X5229Y7693D02*
X5303D01*
X5310Y7770D02*
X5450D01*
X5284Y7744D02*
X5310Y7770D01*
X5229Y7642D02*
X5230Y7643D01*
X5162Y7642D02*
X5229D01*
X5157Y7480D02*
Y7543D01*
X5130Y7610D02*
X5162Y7642D01*
X5130Y7570D02*
Y7610D01*
Y7570D02*
X5157Y7543D01*
X5229Y7770D02*
X5250D01*
X5270Y7790D02*
Y7830D01*
X5250Y7770D02*
X5270Y7790D01*
X4183Y3303D02*
X4200D01*
X4160Y3270D02*
Y3280D01*
X4183Y3303D01*
X4173Y3783D02*
X4200D01*
X4168Y3740D02*
Y3778D01*
X4173Y3783D01*
X4183Y4263D02*
X4200D01*
X4160Y4224D02*
Y4240D01*
X4183Y4263D01*
X4160Y4730D02*
X4176Y4746D01*
X4160Y4710D02*
Y4730D01*
X4170Y5220D02*
X4176Y5226D01*
X4170Y5184D02*
Y5220D01*
Y5690D02*
X4180Y5700D01*
X4170Y5676D02*
Y5690D01*
X4168Y6158D02*
X4190Y6180D01*
X4168Y6136D02*
Y6158D01*
X4190Y6120D02*
X4227D01*
X4170Y6640D02*
X4190Y6660D01*
X4170Y6624D02*
Y6640D01*
X4190Y7133D02*
X4200Y7143D01*
X4190Y7112D02*
Y7133D01*
X4200Y7600D02*
Y7623D01*
Y7600D02*
X4220Y7580D01*
X2889Y5180D02*
X2960D01*
X2945Y3320D02*
X2975D01*
X6460Y5860D02*
X6521D01*
X6520D02*
Y5930D01*
X6460Y4800D02*
X6521D01*
X6440Y3820D02*
X6501D01*
X6900Y6630D02*
Y6705D01*
Y6815D02*
Y7025D01*
Y7135D02*
X6955D01*
X6900D02*
Y7200D01*
X6845Y3265D02*
X6895D01*
X6670Y3410D02*
X6720Y3460D01*
X8303Y5767D02*
X8417D01*
X8400Y5640D02*
X8580D01*
X8360Y5680D02*
X8400Y5640D01*
X8380Y5433D02*
X8437D01*
X8380Y5380D02*
Y5433D01*
X8265Y5415D02*
X8325D01*
X8270Y5510D02*
X8383D01*
X8413Y5540D02*
X8580D01*
X8265Y5515D02*
X8270Y5510D01*
X8383D02*
X8413Y5540D01*
X8219Y5230D02*
X8290D01*
X8263Y5030D02*
Y5087D01*
X8267Y4867D02*
Y4910D01*
X8333D02*
Y5013D01*
X8490Y5040D02*
X8580D01*
X8333Y4970D02*
X8420D01*
X8490Y5040D01*
X6810Y3230D02*
X6845Y3265D01*
X6670Y3280D02*
Y3410D01*
Y3280D02*
X6720Y3230D01*
X6810D01*
X4507Y3949D02*
Y4013D01*
Y4429D02*
Y4493D01*
Y4909D02*
Y4973D01*
Y5389D02*
Y5453D01*
Y5869D02*
Y5933D01*
Y6349D02*
Y6413D01*
Y6829D02*
Y6893D01*
X4260Y3440D02*
X4360D01*
X4200Y3380D02*
X4260Y3440D01*
Y3920D02*
X4360D01*
X4200Y3860D02*
X4260Y3920D01*
Y4400D02*
X4360D01*
X4200Y4340D02*
X4260Y4400D01*
Y4880D02*
X4360D01*
X4200Y4820D02*
X4260Y4880D01*
Y5360D02*
X4360D01*
X4200Y5300D02*
X4260Y5360D01*
Y5840D02*
X4360D01*
X4200Y5780D02*
X4260Y5840D01*
Y6800D02*
X4360D01*
X4200Y6740D02*
X4260Y6800D01*
Y7280D02*
X4360D01*
X4200Y7220D02*
X4260Y7280D01*
X4740Y7777D02*
Y7840D01*
X4260Y7760D02*
X4360D01*
X4200Y7700D02*
X4260Y7760D01*
X5229Y7551D02*
Y7590D01*
X5162Y7718D02*
X5229D01*
X5173Y7667D02*
X5229D01*
X5153Y7687D02*
Y7727D01*
X5140Y7740D02*
X5162Y7718D01*
X5153Y7687D02*
X5173Y7667D01*
X4971Y7569D02*
Y7590D01*
Y7569D02*
X5000Y7540D01*
X5024Y7616D02*
X5040Y7600D01*
X4971Y7616D02*
X5024D01*
X5030Y7770D02*
X5040Y7760D01*
X4971Y7770D02*
X5030D01*
X5038Y7718D02*
X5040Y7720D01*
X4971Y7718D02*
X5038D01*
X5040Y7680D02*
Y7760D01*
X5027Y7667D02*
X5040Y7680D01*
X4971Y7667D02*
X5027D01*
X5058Y7642D02*
X5083Y7617D01*
Y7480D02*
Y7617D01*
X4902Y7642D02*
X5058D01*
X4837Y7577D02*
X4902Y7642D01*
X4837Y7560D02*
Y7577D01*
X4870Y7693D02*
X4971D01*
X4860Y7683D02*
X4870Y7693D01*
X4857Y7760D02*
X4873Y7744D01*
X4971D01*
X4840Y7760D02*
X4857D01*
X4780Y7700D02*
X4840Y7760D01*
X4740Y7700D02*
X4780D01*
X4740Y7703D02*
X4763Y7680D01*
Y7560D02*
Y7680D01*
X4260Y6320D02*
X4360D01*
X4200Y6260D02*
X4260Y6320D01*
X4507Y7789D02*
Y7853D01*
Y7309D02*
Y7373D01*
X4610Y3160D02*
X4620Y3150D01*
X4610Y3160D02*
Y3211D01*
X4430Y3469D02*
Y3530D01*
X4507Y3469D02*
Y3533D01*
X4584Y3469D02*
Y3536D01*
X3995Y3456D02*
Y3515D01*
X3945Y3456D02*
Y3495D01*
X4045Y3185D02*
Y3224D01*
Y3405D02*
Y3455D01*
X3993Y3353D02*
X4045Y3405D01*
X3629Y3353D02*
X3993D01*
X4146Y3354D02*
X4200D01*
X4140Y3360D02*
Y3380D01*
Y3360D02*
X4146Y3354D01*
X4303Y3383D02*
X4320Y3400D01*
X4303Y3380D02*
Y3383D01*
X4049Y3329D02*
X4200D01*
X3995Y3275D02*
X4049Y3329D01*
X3900Y3280D02*
X4000D01*
X3995Y3175D02*
Y3275D01*
X3980Y3160D02*
X3995Y3175D01*
X3880Y3260D02*
X3900Y3280D01*
X3813Y3420D02*
X3880D01*
X3813Y3260D02*
X3880D01*
X3813Y3160D02*
X3980D01*
X4340Y3205D02*
Y3220D01*
X4315Y3180D02*
X4340Y3205D01*
X4140Y3180D02*
X4205D01*
X4315Y3475D02*
Y3520D01*
X4205Y3495D02*
Y3520D01*
Y3495D02*
X4227Y3473D01*
X4610Y3640D02*
X4620Y3630D01*
X4610Y3640D02*
Y3691D01*
X4430Y3949D02*
Y4010D01*
X4584Y3949D02*
Y4016D01*
X3995Y3936D02*
Y3995D01*
X3945Y3936D02*
Y3975D01*
X4045Y3665D02*
Y3704D01*
Y3885D02*
Y3935D01*
X3993Y3833D02*
X4045Y3885D01*
X3629Y3833D02*
X3993D01*
X4146Y3834D02*
X4200D01*
X4140Y3840D02*
Y3860D01*
Y3840D02*
X4146Y3834D01*
X4303Y3863D02*
X4320Y3880D01*
X4303Y3860D02*
Y3863D01*
X4049Y3809D02*
X4200D01*
X3995Y3755D02*
X4049Y3809D01*
X3900Y3760D02*
X4000D01*
X3995Y3655D02*
Y3755D01*
X3980Y3640D02*
X3995Y3655D01*
X3880Y3740D02*
X3900Y3760D01*
X3813Y3900D02*
X3880D01*
X3813Y3740D02*
X3880D01*
X3813Y3640D02*
X3980D01*
X4340Y3685D02*
Y3700D01*
X4315Y3660D02*
X4340Y3685D01*
X4140Y3660D02*
X4205D01*
X4315Y3955D02*
Y4000D01*
X4205Y3975D02*
Y4000D01*
Y3975D02*
X4227Y3953D01*
X4610Y4120D02*
X4620Y4110D01*
X4610Y4120D02*
Y4171D01*
X4430Y4429D02*
Y4490D01*
X4584Y4429D02*
Y4496D01*
X3995Y4416D02*
Y4475D01*
X3945Y4416D02*
Y4455D01*
X4045Y4145D02*
Y4184D01*
Y4365D02*
Y4415D01*
X3993Y4313D02*
X4045Y4365D01*
X3629Y4313D02*
X3993D01*
X4146Y4314D02*
X4200D01*
X4140Y4320D02*
Y4340D01*
Y4320D02*
X4146Y4314D01*
X4303Y4343D02*
X4320Y4360D01*
X4303Y4340D02*
Y4343D01*
X4049Y4289D02*
X4200D01*
X3995Y4235D02*
X4049Y4289D01*
X3900Y4240D02*
X4000D01*
X3995Y4135D02*
Y4235D01*
X3980Y4120D02*
X3995Y4135D01*
X3880Y4220D02*
X3900Y4240D01*
X3813Y4380D02*
X3880D01*
X3813Y4220D02*
X3880D01*
X3813Y4120D02*
X3980D01*
X4340Y4165D02*
Y4180D01*
X4315Y4140D02*
X4340Y4165D01*
X4140Y4140D02*
X4205D01*
X4315Y4435D02*
Y4480D01*
X4205Y4455D02*
Y4480D01*
Y4455D02*
X4227Y4433D01*
X4610Y4600D02*
X4620Y4590D01*
X4610Y4600D02*
Y4651D01*
X4430Y4909D02*
Y4970D01*
X4584Y4909D02*
Y4976D01*
X3995Y4896D02*
Y4955D01*
X3945Y4896D02*
Y4935D01*
X4045Y4625D02*
Y4664D01*
Y4845D02*
Y4895D01*
X3993Y4793D02*
X4045Y4845D01*
X3629Y4793D02*
X3993D01*
X4146Y4794D02*
X4200D01*
X4140Y4800D02*
Y4820D01*
Y4800D02*
X4146Y4794D01*
X4303Y4823D02*
X4320Y4840D01*
X4303Y4820D02*
Y4823D01*
X4049Y4769D02*
X4200D01*
X3995Y4715D02*
X4049Y4769D01*
X3900Y4720D02*
X4000D01*
X3995Y4615D02*
Y4715D01*
X3980Y4600D02*
X3995Y4615D01*
X3880Y4700D02*
X3900Y4720D01*
X3813Y4860D02*
X3880D01*
X3813Y4700D02*
X3880D01*
X3813Y4600D02*
X3980D01*
X4340Y4645D02*
Y4660D01*
X4315Y4620D02*
X4340Y4645D01*
X4140Y4620D02*
X4205D01*
X4315Y4915D02*
Y4960D01*
X4205Y4935D02*
Y4960D01*
Y4935D02*
X4227Y4913D01*
X4610Y5080D02*
X4620Y5070D01*
X4610Y5080D02*
Y5131D01*
X4430Y5389D02*
Y5450D01*
X4584Y5389D02*
Y5456D01*
X3995Y5376D02*
Y5435D01*
X3945Y5376D02*
Y5415D01*
X4045Y5105D02*
Y5144D01*
Y5325D02*
Y5375D01*
X3993Y5273D02*
X4045Y5325D01*
X3629Y5273D02*
X3993D01*
X4146Y5274D02*
X4200D01*
X4140Y5280D02*
Y5300D01*
Y5280D02*
X4146Y5274D01*
X4303Y5303D02*
X4320Y5320D01*
X4303Y5300D02*
Y5303D01*
X4049Y5249D02*
X4200D01*
X3995Y5195D02*
X4049Y5249D01*
X3900Y5200D02*
X4000D01*
X3995Y5095D02*
Y5195D01*
X3980Y5080D02*
X3995Y5095D01*
X3880Y5180D02*
X3900Y5200D01*
X3813Y5340D02*
X3880D01*
X3813Y5180D02*
X3880D01*
X3813Y5080D02*
X3980D01*
X4340Y5125D02*
Y5140D01*
X4315Y5100D02*
X4340Y5125D01*
X4140Y5100D02*
X4205D01*
X4315Y5395D02*
Y5440D01*
X4205Y5415D02*
Y5440D01*
Y5415D02*
X4227Y5393D01*
X4610Y5560D02*
X4620Y5550D01*
X4610Y5560D02*
Y5611D01*
X4430Y5869D02*
Y5930D01*
X4584Y5869D02*
Y5936D01*
X3995Y5856D02*
Y5915D01*
X3945Y5856D02*
Y5895D01*
X4045Y5585D02*
Y5624D01*
Y5805D02*
Y5855D01*
X3993Y5753D02*
X4045Y5805D01*
X3629Y5753D02*
X3993D01*
X4146Y5754D02*
X4200D01*
X4140Y5760D02*
Y5780D01*
Y5760D02*
X4146Y5754D01*
X4303Y5783D02*
X4320Y5800D01*
X4303Y5780D02*
Y5783D01*
X4049Y5729D02*
X4200D01*
X3995Y5675D02*
X4049Y5729D01*
X3900Y5680D02*
X4000D01*
X3995Y5575D02*
Y5675D01*
X3980Y5560D02*
X3995Y5575D01*
X3880Y5660D02*
X3900Y5680D01*
X3813Y5820D02*
X3880D01*
X3813Y5660D02*
X3880D01*
X3813Y5560D02*
X3980D01*
X4340Y5605D02*
Y5620D01*
X4315Y5580D02*
X4340Y5605D01*
X4140Y5580D02*
X4205D01*
X4315Y5875D02*
Y5920D01*
X4205Y5895D02*
Y5920D01*
Y5895D02*
X4227Y5873D01*
X4610Y6040D02*
X4620Y6030D01*
X4610Y6040D02*
Y6091D01*
X4430Y6349D02*
Y6410D01*
X4584Y6349D02*
Y6416D01*
X3995Y6336D02*
Y6395D01*
X3945Y6336D02*
Y6375D01*
X4045Y6065D02*
Y6104D01*
Y6285D02*
Y6335D01*
X3993Y6233D02*
X4045Y6285D01*
X3629Y6233D02*
X3993D01*
X4146Y6234D02*
X4200D01*
X4140Y6240D02*
Y6260D01*
Y6240D02*
X4146Y6234D01*
X4303Y6263D02*
X4320Y6280D01*
X4303Y6260D02*
Y6263D01*
X4049Y6209D02*
X4200D01*
X3995Y6155D02*
X4049Y6209D01*
X3900Y6160D02*
X4000D01*
X3995Y6055D02*
Y6155D01*
X3980Y6040D02*
X3995Y6055D01*
X3880Y6140D02*
X3900Y6160D01*
X3813Y6300D02*
X3880D01*
X3813Y6140D02*
X3880D01*
X3813Y6040D02*
X3980D01*
X4340Y6085D02*
Y6100D01*
X4315Y6060D02*
X4340Y6085D01*
X4140Y6060D02*
X4205D01*
X4315Y6355D02*
Y6400D01*
X4205Y6375D02*
Y6400D01*
Y6375D02*
X4227Y6353D01*
X4610Y6520D02*
X4620Y6510D01*
X4610Y6520D02*
Y6571D01*
X4430Y6829D02*
Y6890D01*
X4584Y6829D02*
Y6896D01*
X3995Y6816D02*
Y6875D01*
X3945Y6816D02*
Y6855D01*
X4045Y6545D02*
Y6584D01*
Y6765D02*
Y6815D01*
X3993Y6713D02*
X4045Y6765D01*
X3629Y6713D02*
X3993D01*
X4146Y6714D02*
X4200D01*
X4140Y6720D02*
Y6740D01*
Y6720D02*
X4146Y6714D01*
X4303Y6743D02*
X4320Y6760D01*
X4303Y6740D02*
Y6743D01*
X4049Y6689D02*
X4200D01*
X3995Y6635D02*
X4049Y6689D01*
X3900Y6640D02*
X4000D01*
X3995Y6535D02*
Y6635D01*
X3980Y6520D02*
X3995Y6535D01*
X3880Y6620D02*
X3900Y6640D01*
X3813Y6780D02*
X3880D01*
X3813Y6620D02*
X3880D01*
X3813Y6520D02*
X3980D01*
X4340Y6565D02*
Y6580D01*
X4315Y6540D02*
X4340Y6565D01*
X4140Y6540D02*
X4205D01*
X4315Y6835D02*
Y6880D01*
X4205Y6855D02*
Y6880D01*
Y6855D02*
X4227Y6833D01*
X4610Y7000D02*
X4620Y6990D01*
X4610Y7000D02*
Y7051D01*
X4430Y7309D02*
Y7370D01*
X4584Y7309D02*
Y7376D01*
X3995Y7296D02*
Y7355D01*
X3945Y7296D02*
Y7335D01*
X4045Y7025D02*
Y7064D01*
Y7245D02*
Y7295D01*
X3993Y7193D02*
X4045Y7245D01*
X3629Y7193D02*
X3993D01*
X4146Y7194D02*
X4200D01*
X4140Y7200D02*
Y7220D01*
Y7200D02*
X4146Y7194D01*
X4303Y7223D02*
X4320Y7240D01*
X4303Y7220D02*
Y7223D01*
X4049Y7169D02*
X4200D01*
X3995Y7115D02*
X4049Y7169D01*
X3900Y7120D02*
X4000D01*
X3995Y7015D02*
Y7115D01*
X3980Y7000D02*
X3995Y7015D01*
X3880Y7100D02*
X3900Y7120D01*
X3813Y7260D02*
X3880D01*
X3813Y7100D02*
X3880D01*
X3813Y7000D02*
X3980D01*
X4340Y7045D02*
Y7060D01*
X4315Y7020D02*
X4340Y7045D01*
X4140Y7020D02*
X4205D01*
X4315Y7315D02*
Y7360D01*
X4205Y7335D02*
Y7360D01*
Y7335D02*
X4227Y7313D01*
X4610Y7480D02*
Y7531D01*
Y7480D02*
X4620Y7470D01*
X2786Y5206D02*
X2889D01*
X2574Y5154D02*
X2631D01*
X2560Y5140D02*
X2574Y5154D01*
X2631Y5129D02*
X2691D01*
X2836Y5154D02*
X2889D01*
X2820Y5170D02*
X2836Y5154D01*
X2821Y5129D02*
X2889D01*
X2566Y5206D02*
X2631D01*
X2530Y5170D02*
X2566Y5206D01*
X2950Y4280D02*
X2975D01*
X2700Y5180D02*
X2920Y4960D01*
X3040D01*
X2631Y5180D02*
X2700D01*
X2945Y4760D02*
X2975D01*
X2850Y6000D02*
X2960D01*
X2889Y5791D02*
X2979D01*
X2960Y6000D02*
X3005Y6045D01*
X3993Y7673D02*
X4045Y7725D01*
Y7775D01*
X3980Y7480D02*
X3995Y7495D01*
X4220Y7560D02*
Y7580D01*
X4140Y7680D02*
X4146Y7674D01*
X2807Y7597D02*
X2815Y7605D01*
X4205Y7815D02*
Y7840D01*
Y7815D02*
X4227Y7793D01*
X3995Y7776D02*
Y7835D01*
X4140Y7680D02*
Y7700D01*
X4146Y7674D02*
X4200D01*
X2815Y7605D02*
X2882D01*
X2807Y7523D02*
Y7597D01*
X4340Y7525D02*
Y7540D01*
X4315Y7500D02*
X4340Y7525D01*
X4584Y7789D02*
Y7856D01*
X4315Y7795D02*
Y7840D01*
X4430Y7789D02*
Y7850D01*
X4303Y7703D02*
X4320Y7720D01*
X4303Y7700D02*
Y7703D01*
X4045Y7505D02*
Y7544D01*
X3945Y7776D02*
Y7815D01*
X4140Y7500D02*
X4205D01*
X4049Y7649D02*
X4200D01*
X3995Y7595D02*
X4049Y7649D01*
X3900Y7600D02*
X4000D01*
X3995Y7495D02*
Y7595D01*
X3880Y7580D02*
X3900Y7600D01*
X3813Y7740D02*
X3880D01*
X3813Y7580D02*
X3880D01*
X3813Y7480D02*
X3980D01*
X2552Y7655D02*
X2678D01*
X2540Y7667D02*
X2552Y7655D01*
Y7605D02*
X2678D01*
X2540Y7593D02*
X2552Y7605D01*
X3629Y7673D02*
X3993D01*
X2807Y7033D02*
Y7107D01*
X2815Y7115D01*
X2882D01*
X2552D02*
X2678D01*
X2552Y7165D02*
X2678D01*
X2540Y7177D02*
X2552Y7165D01*
X2540Y7103D02*
X2552Y7115D01*
X2807Y6553D02*
Y6627D01*
X2815Y6635D01*
X2882D01*
X2552D02*
X2678D01*
X2552Y6685D02*
X2678D01*
X2540Y6697D02*
X2552Y6685D01*
X2540Y6623D02*
X2552Y6635D01*
X2807Y6073D02*
Y6147D01*
X2815Y6155D01*
X2882D01*
X2552D02*
X2678D01*
X2552Y6205D02*
X2678D01*
X2540Y6217D02*
X2552Y6205D01*
X2540Y6143D02*
X2552Y6155D01*
X2807Y4633D02*
Y4707D01*
X2815Y4715D01*
X2882D01*
X2552D02*
X2678D01*
X2552Y4765D02*
X2678D01*
X2540Y4777D02*
X2552Y4765D01*
X2540Y4703D02*
X2552Y4715D01*
X2807Y4153D02*
Y4227D01*
X2815Y4235D01*
X2882D01*
X2552D02*
X2678D01*
X2552Y4285D02*
X2678D01*
X2540Y4297D02*
X2552Y4285D01*
X2540Y4223D02*
X2552Y4235D01*
X2807Y3673D02*
Y3747D01*
X2815Y3755D01*
X2882D01*
X2552D02*
X2678D01*
X2552Y3805D02*
X2678D01*
X2540Y3817D02*
X2552Y3805D01*
X2540Y3743D02*
X2552Y3755D01*
X2807Y3193D02*
Y3267D01*
X2815Y3275D01*
X2882D01*
X2552D02*
X2678D01*
X2552Y3325D02*
X2678D01*
X2540Y3337D02*
X2552Y3325D01*
X2540Y3263D02*
X2552Y3275D01*
X2580Y7750D02*
X2625Y7705D01*
X2480Y7750D02*
X2580D01*
X2150Y5900D02*
Y7410D01*
Y5900D02*
X2200Y5850D01*
X2625Y7705D02*
X2678D01*
X2150Y7410D02*
X2480Y7740D01*
X2640Y7490D02*
X2678Y7528D01*
Y7555D01*
X2290Y7150D02*
X2390Y7250D01*
X2600D01*
X2635Y7215D01*
X2200Y5750D02*
X2290Y5840D01*
Y7150D01*
X2635Y7215D02*
X2678D01*
X2580Y7000D02*
X2645Y7065D01*
X2678D01*
X2280Y5650D02*
X2360Y5730D01*
Y6670D01*
X2460Y6770D01*
X2590D01*
X2625Y6735D01*
X2200Y5650D02*
X2280D01*
X2625Y6735D02*
X2678D01*
X2580Y6520D02*
X2645Y6585D01*
X2678D01*
X2330Y5550D02*
X2430Y5650D01*
Y6260D01*
X2480Y6310D01*
X2570D01*
X2625Y6255D01*
X2200Y5550D02*
X2330D01*
X2625Y6255D02*
X2678D01*
X2560Y6030D02*
X2635Y6105D01*
X2678D01*
X8040Y5790D02*
X8120Y5870D01*
Y6029D02*
X8189D01*
X7541D02*
X7620D01*
X7816Y6085D02*
Y6144D01*
X7867Y6085D02*
Y6147D01*
X7893Y6085D02*
Y6121D01*
X7867Y6147D02*
X7893Y6121D01*
X7944Y6085D02*
Y6134D01*
X7960Y6150D01*
X7969Y6085D02*
Y6141D01*
X7960Y6150D02*
X7969Y6141D01*
X7765Y6085D02*
Y6125D01*
X7780Y6140D01*
X7790Y6085D02*
Y6130D01*
X7780Y6140D02*
X7790Y6130D01*
X8050Y3640D02*
X8075Y3615D01*
X8128D01*
X8050Y3640D02*
X8075Y3665D01*
X8128D01*
Y3718D01*
X8161Y3751D01*
Y3879D01*
X7620Y5830D02*
X7670Y5780D01*
X7620Y5830D02*
Y5911D01*
X7760Y5780D02*
X7790Y5810D01*
X7800Y5780D02*
X7816Y5796D01*
X7830Y5780D02*
X7841Y5791D01*
Y5855D01*
X7790Y5810D02*
Y5855D01*
X7816Y5796D02*
Y5855D01*
X7670Y5780D02*
X7830D01*
X7918Y5802D02*
X7930Y5790D01*
X7944D02*
Y5855D01*
X7969Y5801D02*
X7980Y5790D01*
X7918Y5802D02*
Y5855D01*
X7969Y5801D02*
Y5855D01*
X8120Y5870D02*
Y5911D01*
X8209D01*
X7930Y5790D02*
X8040D01*
D47*
X4690Y3170D02*
Y7620D01*
Y6970D02*
X4720Y7000D01*
X4710Y6500D02*
X4720Y6510D01*
X4690Y6500D02*
X4710D01*
X4690Y6010D02*
X4720Y6040D01*
X4690Y5530D02*
X4720Y5560D01*
X4690Y5100D02*
X4700Y5110D01*
X6835Y3365D02*
X6895D01*
X6810Y3340D02*
X6835Y3365D01*
X4690Y4080D02*
X4730Y4120D01*
X4690Y4570D02*
X4720Y4600D01*
X4690Y3600D02*
X4730Y3640D01*
X4690Y3170D02*
X4710Y3150D01*
X4558Y7242D02*
X4610Y7190D01*
X4558Y6762D02*
X4630Y6690D01*
X4600Y6220D02*
X4630D01*
X4610Y5740D02*
X4640D01*
X4558Y7712D02*
Y7789D01*
Y7242D02*
Y7309D01*
Y6762D02*
Y6829D01*
Y6262D02*
Y6349D01*
Y5792D02*
Y5869D01*
Y5322D02*
X4610Y5270D01*
X4600Y4790D02*
X4640D01*
X4590Y4300D02*
X4640D01*
X4600Y3830D02*
X4640D01*
X4558Y5322D02*
Y5389D01*
Y4832D02*
Y4909D01*
Y4332D02*
Y4429D01*
Y3872D02*
Y3949D01*
X6440Y3890D02*
X6720D01*
X6350Y3711D02*
Y3800D01*
X6440Y3890D01*
X6370Y3760D02*
X6390Y3780D01*
X6370Y3711D02*
Y3760D01*
X4670Y3130D02*
Y7590D01*
X4710Y3090D02*
X6620D01*
X4610Y6660D02*
X4670D01*
X4590Y7150D02*
X4670D01*
X4590Y6190D02*
X4670D01*
X4600Y5710D02*
X4670D01*
X4580Y5240D02*
X4670D01*
X4580Y4760D02*
X4670D01*
X4533Y7697D02*
Y7789D01*
Y7207D02*
Y7309D01*
X4580Y4270D02*
X4670D01*
X4580Y3800D02*
X4670D01*
X6845Y3315D02*
X6895D01*
X6810Y3280D02*
X6845Y3315D01*
X4650Y3270D02*
X4670D01*
X4533Y6737D02*
Y6829D01*
Y6247D02*
Y6349D01*
Y5777D02*
Y5869D01*
Y5287D02*
Y5389D01*
Y4807D02*
Y4909D01*
Y4317D02*
Y4429D01*
Y3847D02*
Y3949D01*
Y3387D02*
Y3469D01*
X4480Y3400D02*
Y3480D01*
X4684Y3066D02*
X6666D01*
X6815Y3415D02*
X6895D01*
X6810Y3420D02*
X6815Y3415D01*
X6666Y3066D02*
X6780Y3180D01*
X4670Y3130D02*
X4710Y3090D01*
X4650Y3100D02*
X4684Y3066D01*
X4650Y3100D02*
Y3249D01*
X4480Y3400D02*
X4600Y3280D01*
X4619D02*
X4650Y3249D01*
X4600Y3280D02*
X4619D01*
X4533Y3387D02*
X4650Y3270D01*
X4558Y3872D02*
X4600Y3830D01*
X4558Y4332D02*
X4590Y4300D01*
X4558Y4832D02*
X4600Y4790D01*
X4558Y5792D02*
X4610Y5740D01*
X4558Y6262D02*
X4600Y6220D01*
X4533Y3847D02*
X4580Y3800D01*
X4533Y4317D02*
X4580Y4270D01*
X4533Y4807D02*
X4580Y4760D01*
X4533Y5287D02*
X4580Y5240D01*
X4533Y5777D02*
X4600Y5710D01*
X4533Y6247D02*
X4590Y6190D01*
X4533Y6737D02*
X4610Y6660D01*
X4533Y7207D02*
X4590Y7150D01*
X4660Y7650D02*
X4690Y7620D01*
X4620Y7650D02*
X4660D01*
X4558Y7712D02*
X4620Y7650D01*
X4630Y7630D02*
X4670Y7590D01*
X4600Y7630D02*
X4630D01*
X4533Y7697D02*
X4600Y7630D01*
X4482Y3848D02*
Y3949D01*
X4616Y3764D02*
X4650Y3730D01*
X4566Y3764D02*
X4616D01*
X4610Y3469D02*
Y3530D01*
X4482Y3848D02*
X4566Y3764D01*
X4482Y6738D02*
Y6829D01*
X4579Y6641D02*
X4619D01*
X4650Y6610D01*
X4482Y6738D02*
X4579Y6641D01*
X4610Y3530D02*
X4650Y3570D01*
Y3730D01*
X4610Y3949D02*
Y3990D01*
X4482Y4318D02*
X4560Y4240D01*
X4650Y4030D02*
Y4200D01*
X4482Y4318D02*
Y4429D01*
X4610Y3990D02*
X4650Y4030D01*
X4610Y4240D02*
X4650Y4200D01*
X4560Y4240D02*
X4610D01*
X4610Y4429D02*
Y4470D01*
X4482Y4808D02*
Y4909D01*
X4610Y4470D02*
X4650Y4510D01*
Y4700D01*
X4620Y4730D02*
X4650Y4700D01*
X4560Y4730D02*
X4620D01*
X4482Y4808D02*
X4560Y4730D01*
X4610Y4909D02*
Y4970D01*
X4482Y5288D02*
Y5389D01*
X4610Y4970D02*
X4650Y5010D01*
Y5170D01*
X4600Y5220D02*
X4650Y5170D01*
X4550Y5220D02*
X4600D01*
X4482Y5288D02*
X4550Y5220D01*
X4610Y5380D02*
Y5430D01*
X4482Y5768D02*
Y5869D01*
X4610Y5430D02*
X4650Y5470D01*
Y5650D01*
X4610Y5690D02*
X4650Y5650D01*
X4560Y5690D02*
X4610D01*
X4482Y5768D02*
X4560Y5690D01*
X4610Y5869D02*
Y5910D01*
X4482Y6248D02*
Y6349D01*
X4610Y5910D02*
X4650Y5950D01*
Y6140D01*
X4630Y6160D02*
X4650Y6140D01*
X4570Y6160D02*
X4630D01*
X4482Y6248D02*
X4570Y6160D01*
X4610Y6340D02*
Y6390D01*
X4650Y6430D01*
Y6610D01*
X4585Y5094D02*
Y5095D01*
X4560Y5080D02*
X4570Y5070D01*
Y5050D02*
Y5070D01*
X4480Y5020D02*
X4540D01*
X4570Y5050D01*
X4560Y5080D02*
Y5110D01*
X2814Y5480D02*
X4560D01*
X4584Y5556D02*
Y5596D01*
X2631Y5663D02*
X2814Y5480D01*
X4584Y5556D02*
X4590Y5550D01*
Y5510D02*
Y5550D01*
X4560Y5480D02*
X4590Y5510D01*
X4560Y5560D02*
Y5590D01*
X4570Y5520D02*
Y5550D01*
X4550Y5500D02*
X4570Y5520D01*
X2889Y5621D02*
Y5663D01*
X4560Y5560D02*
X4570Y5550D01*
X4507Y3147D02*
Y3211D01*
X4480Y3120D02*
X4507Y3147D01*
X3640Y3120D02*
X4480D01*
X3576Y3276D02*
X3629D01*
X3560Y3260D02*
X3576Y3276D01*
X3560Y3200D02*
X3640Y3120D01*
X3560Y3200D02*
Y3260D01*
X4533Y3147D02*
X4540Y3140D01*
X4533Y3147D02*
Y3211D01*
X3629Y3191D02*
Y3250D01*
X4507Y3627D02*
Y3691D01*
X4480Y3600D02*
X4507Y3627D01*
X3640Y3600D02*
X4480D01*
X3576Y3756D02*
X3629D01*
X3560Y3740D02*
X3576Y3756D01*
X3560Y3680D02*
X3640Y3600D01*
X3560Y3680D02*
Y3740D01*
X4533Y3627D02*
X4540Y3620D01*
X4533Y3627D02*
Y3691D01*
X3629Y3671D02*
Y3730D01*
X4507Y4107D02*
Y4171D01*
X4480Y4080D02*
X4507Y4107D01*
X3640Y4080D02*
X4480D01*
X3576Y4236D02*
X3629D01*
X3560Y4220D02*
X3576Y4236D01*
X3560Y4160D02*
X3640Y4080D01*
X3560Y4160D02*
Y4220D01*
X4533Y4107D02*
X4540Y4100D01*
X4533Y4107D02*
Y4171D01*
X3629Y4151D02*
Y4210D01*
X4507Y4587D02*
Y4651D01*
X4480Y4560D02*
X4507Y4587D01*
X3640Y4560D02*
X4480D01*
X3576Y4716D02*
X3629D01*
X3560Y4700D02*
X3576Y4716D01*
X3560Y4640D02*
X3640Y4560D01*
X3560Y4640D02*
Y4700D01*
X4533Y4587D02*
X4540Y4580D01*
X4533Y4587D02*
Y4651D01*
X3629Y4631D02*
Y4690D01*
X4507Y5067D02*
Y5131D01*
X4480Y5040D02*
X4507Y5067D01*
X3640Y5040D02*
X4480D01*
X3576Y5196D02*
X3629D01*
X3560Y5180D02*
X3576Y5196D01*
X3560Y5120D02*
X3640Y5040D01*
X3560Y5120D02*
Y5180D01*
X4533Y5067D02*
X4540Y5060D01*
X4533Y5067D02*
Y5131D01*
X3629Y5111D02*
Y5170D01*
X4507Y5547D02*
Y5611D01*
X4480Y5520D02*
X4507Y5547D01*
X3640Y5520D02*
X4480D01*
X3576Y5676D02*
X3629D01*
X3560Y5660D02*
X3576Y5676D01*
X3560Y5600D02*
X3640Y5520D01*
X3560Y5600D02*
Y5660D01*
X4533Y5547D02*
X4540Y5540D01*
X4533Y5547D02*
Y5611D01*
X3629Y5591D02*
Y5650D01*
X4507Y6027D02*
Y6091D01*
X4480Y6000D02*
X4507Y6027D01*
X3640Y6000D02*
X4480D01*
X3576Y6156D02*
X3629D01*
X3560Y6140D02*
X3576Y6156D01*
X3560Y6080D02*
X3640Y6000D01*
X3560Y6080D02*
Y6140D01*
X4533Y6027D02*
X4540Y6020D01*
X4533Y6027D02*
Y6091D01*
X3629Y6071D02*
Y6130D01*
X4507Y6507D02*
Y6571D01*
X4480Y6480D02*
X4507Y6507D01*
X3640Y6480D02*
X4480D01*
X3576Y6636D02*
X3629D01*
X3560Y6620D02*
X3576Y6636D01*
X3560Y6560D02*
X3640Y6480D01*
X3560Y6560D02*
Y6620D01*
X4533Y6507D02*
X4540Y6500D01*
X4533Y6507D02*
Y6571D01*
X3629Y6551D02*
Y6610D01*
X4507Y6987D02*
Y7051D01*
X4480Y6960D02*
X4507Y6987D01*
X3640Y6960D02*
X4480D01*
X3576Y7116D02*
X3629D01*
X3560Y7100D02*
X3576Y7116D01*
X3560Y7040D02*
X3640Y6960D01*
X3560Y7040D02*
Y7100D01*
X4533Y6987D02*
X4540Y6980D01*
X4533Y6987D02*
Y7051D01*
X3629Y7031D02*
Y7090D01*
X3010Y5500D02*
X4550D01*
X2889Y5621D02*
X3010Y5500D01*
X4480Y7440D02*
X4507Y7467D01*
X3640Y7440D02*
X4480D01*
X3560Y7520D02*
X3640Y7440D01*
X3560Y7520D02*
Y7580D01*
X3576Y7596D01*
X4533Y7467D02*
X4540Y7460D01*
X4533Y7467D02*
Y7531D01*
X3629Y7511D02*
Y7570D01*
X4507Y7467D02*
Y7531D01*
X3576Y7596D02*
X3629D01*
X4558Y3402D02*
Y3469D01*
Y3402D02*
X4650Y3310D01*
X7460Y4640D02*
X7610Y4490D01*
X8040Y4450D02*
Y4460D01*
X7610Y4490D02*
X7940D01*
X7950Y4430D02*
X7970D01*
X7950D02*
X7960Y4440D01*
X7970Y4430D02*
X8037Y4497D01*
X8102D01*
X7855Y5009D02*
X7861D01*
X8090Y4656D02*
Y4720D01*
X7861Y5009D02*
X7930Y4940D01*
X8036Y4602D02*
X8090Y4656D01*
Y4720D02*
X8100Y4730D01*
D48*
X6820Y6610D02*
Y7340D01*
X6670Y7490D02*
X6820Y7340D01*
X6281Y7451D02*
X6320Y7490D01*
X6690Y6660D02*
Y6710D01*
X6820Y4340D02*
X6845Y4315D01*
X6895D01*
X6320Y7490D02*
X6670D01*
X6291Y6701D02*
X6370Y6780D01*
X6281Y7341D02*
Y7451D01*
X6291Y6591D02*
Y6701D01*
X6510Y5970D02*
X6820D01*
X6420Y4940D02*
X6800D01*
X6430Y3950D02*
X6820D01*
X6291Y5631D02*
Y5751D01*
Y4671D02*
Y4811D01*
Y3711D02*
Y3811D01*
X2804Y5766D02*
X2889D01*
X6107Y5840D02*
X6190D01*
X6100Y5913D02*
X6147D01*
X6190Y5915D02*
Y5950D01*
X6300Y5800D02*
Y5840D01*
X6257Y5877D02*
X6300D01*
X6770Y6740D02*
Y7350D01*
X6800Y6590D02*
X6820Y6610D01*
X6400Y7460D02*
X6660D01*
X6770Y7350D01*
X6650Y7229D02*
X6690Y7189D01*
Y6830D02*
Y7189D01*
X6835Y6055D02*
X6895D01*
X6531Y7229D02*
X6650D01*
X6640Y6780D02*
X6690Y6830D01*
X6670Y7249D02*
X6720Y7199D01*
Y6690D02*
Y7199D01*
X6729Y5539D02*
X6770Y5580D01*
X6720Y6690D02*
X6770Y6640D01*
X6825Y4265D02*
X6895D01*
X6770Y3690D02*
Y3760D01*
X6541Y6499D02*
X6769D01*
X6541Y5539D02*
X6729D01*
X6531Y7249D02*
X6670D01*
X6659Y4579D02*
X6770Y4690D01*
X6541Y4579D02*
X6659D01*
X6541Y3619D02*
X6699D01*
X6935Y6105D02*
X6953Y6087D01*
X6895Y6105D02*
X6935D01*
Y6155D02*
X6960Y6180D01*
X6895Y6155D02*
X6935D01*
X7155D02*
X7170Y6170D01*
X7105Y6155D02*
X7155D01*
X7105Y6105D02*
X7175D01*
X6895Y5775D02*
Y5805D01*
X7105Y4515D02*
X7175D01*
X7105Y4465D02*
X7158D01*
X7177Y4447D01*
X7105Y4165D02*
X7165D01*
X6895Y4125D02*
Y4165D01*
Y4465D02*
X6955D01*
Y4385D02*
Y4465D01*
X6895Y4365D02*
X6935D01*
X6955Y4385D01*
X6900Y4520D02*
Y4570D01*
X7105Y3515D02*
X7165D01*
X6815D02*
X6895D01*
X6855Y3215D02*
X6895D01*
X6830Y3190D02*
X6855Y3215D01*
X6852Y3165D02*
X6895D01*
X6833Y3147D02*
X6852Y3165D01*
X7105Y3215D02*
X7172D01*
X7173Y3213D01*
X7105Y3165D02*
X7110Y3160D01*
X7190D01*
X6690Y6660D02*
X6760Y6590D01*
X6800D01*
X6810Y6080D02*
Y6510D01*
X6640Y6680D02*
X6810Y6510D01*
X6640Y6680D02*
Y6780D01*
X6291Y4811D02*
X6420Y4940D01*
X6291Y5751D02*
X6510Y5970D01*
X6699Y3619D02*
X6770Y3690D01*
X6291Y3811D02*
X6430Y3950D01*
X6729Y3599D02*
X6850Y3720D01*
X6835Y4415D02*
X6895D01*
X6770Y4140D02*
X6850Y4060D01*
X6770Y4140D02*
Y4350D01*
X6541Y3599D02*
X6729D01*
X6850Y3720D02*
Y4060D01*
X6699Y4559D02*
X6830Y4690D01*
X6845Y5905D02*
X6895D01*
X6830Y4690D02*
Y5890D01*
X6541Y4559D02*
X6699D01*
X6830Y5890D02*
X6845Y5905D01*
X6895Y6055D02*
X6895Y6055D01*
X6810Y6080D02*
X6835Y6055D01*
X6815Y6005D02*
X6895D01*
X6770Y6050D02*
Y6410D01*
X6541Y6479D02*
X6701D01*
X6770Y6050D02*
X6815Y6005D01*
X6845Y5955D02*
X6895D01*
X6800Y5910D02*
X6845Y5955D01*
X6541Y5519D02*
X6764D01*
X6800Y5555D01*
Y5910D01*
X6701Y6479D02*
X6770Y6410D01*
Y4350D02*
X6835Y4415D01*
X2760Y5070D02*
X2770Y5060D01*
X3390Y3430D02*
X3411D01*
Y3302D02*
X3478D01*
X3464Y3276D02*
X3480Y3260D01*
X3411Y3276D02*
X3464D01*
X3480Y3220D02*
Y3260D01*
X3411Y3209D02*
Y3250D01*
X3629Y3430D02*
Y3469D01*
X3411Y3378D02*
X3502D01*
X3527Y3353D02*
X3629D01*
X3502Y3378D02*
X3527Y3353D01*
X3300Y3520D02*
X3390Y3430D01*
X3213Y3520D02*
X3300D01*
X3297Y3404D02*
X3411D01*
X3367Y3327D02*
X3411D01*
X3340Y3300D02*
X3367Y3327D01*
X3340Y3180D02*
Y3300D01*
X3320Y3160D02*
X3340Y3180D01*
X3293Y3160D02*
X3320D01*
X3333Y3353D02*
X3411D01*
X3293Y3313D02*
X3333Y3353D01*
X3293Y3280D02*
Y3313D01*
X3700Y3160D02*
X3747D01*
X3680Y3180D02*
X3700Y3160D01*
X3620Y3300D02*
X3680D01*
Y3180D02*
Y3300D01*
X3720Y3520D02*
X3747D01*
X3680Y3480D02*
X3720Y3520D01*
X3680Y3407D02*
Y3480D01*
X3677Y3404D02*
X3680Y3407D01*
X3629Y3404D02*
X3677D01*
X3720Y3420D02*
X3747D01*
Y3407D02*
Y3420D01*
X3680Y3380D02*
X3720Y3420D01*
X3620Y3380D02*
X3680D01*
X3813Y3420D02*
Y3520D01*
X3713Y3327D02*
X3747Y3293D01*
Y3260D02*
Y3293D01*
X3629Y3327D02*
X3713D01*
X3813Y3160D02*
Y3260D01*
X3390Y3910D02*
X3411D01*
Y3782D02*
X3478D01*
X3464Y3756D02*
X3480Y3740D01*
X3411Y3756D02*
X3464D01*
X3480Y3700D02*
Y3740D01*
X3411Y3689D02*
Y3730D01*
X3629Y3910D02*
Y3949D01*
X3411Y3858D02*
X3502D01*
X3527Y3833D02*
X3629D01*
X3502Y3858D02*
X3527Y3833D01*
X3300Y4000D02*
X3390Y3910D01*
X3213Y4000D02*
X3300D01*
X3297Y3884D02*
X3411D01*
X3367Y3807D02*
X3411D01*
X3340Y3780D02*
X3367Y3807D01*
X3340Y3660D02*
Y3780D01*
X3320Y3640D02*
X3340Y3660D01*
X3293Y3640D02*
X3320D01*
X3333Y3833D02*
X3411D01*
X3293Y3793D02*
X3333Y3833D01*
X3293Y3760D02*
Y3793D01*
X3700Y3640D02*
X3747D01*
X3680Y3660D02*
X3700Y3640D01*
X3620Y3780D02*
X3680D01*
Y3660D02*
Y3780D01*
X3720Y4000D02*
X3747D01*
X3680Y3960D02*
X3720Y4000D01*
X3680Y3887D02*
Y3960D01*
X3677Y3884D02*
X3680Y3887D01*
X3629Y3884D02*
X3677D01*
X3720Y3900D02*
X3747D01*
Y3887D02*
Y3900D01*
X3680Y3860D02*
X3720Y3900D01*
X3620Y3860D02*
X3680D01*
X3813Y3900D02*
Y4000D01*
X3713Y3807D02*
X3747Y3773D01*
Y3740D02*
Y3773D01*
X3629Y3807D02*
X3713D01*
X3813Y3640D02*
Y3740D01*
X3390Y4390D02*
X3411D01*
Y4262D02*
X3478D01*
X3464Y4236D02*
X3480Y4220D01*
X3411Y4236D02*
X3464D01*
X3480Y4180D02*
Y4220D01*
X3411Y4169D02*
Y4210D01*
X3629Y4390D02*
Y4429D01*
X3411Y4338D02*
X3502D01*
X3527Y4313D02*
X3629D01*
X3502Y4338D02*
X3527Y4313D01*
X3300Y4480D02*
X3390Y4390D01*
X3213Y4480D02*
X3300D01*
X3297Y4364D02*
X3411D01*
X3367Y4287D02*
X3411D01*
X3340Y4260D02*
X3367Y4287D01*
X3340Y4140D02*
Y4260D01*
X3320Y4120D02*
X3340Y4140D01*
X3293Y4120D02*
X3320D01*
X3333Y4313D02*
X3411D01*
X3293Y4273D02*
X3333Y4313D01*
X3293Y4240D02*
Y4273D01*
X3700Y4120D02*
X3747D01*
X3680Y4140D02*
X3700Y4120D01*
X3620Y4260D02*
X3680D01*
Y4140D02*
Y4260D01*
X3720Y4480D02*
X3747D01*
X3680Y4440D02*
X3720Y4480D01*
X3680Y4367D02*
Y4440D01*
X3677Y4364D02*
X3680Y4367D01*
X3629Y4364D02*
X3677D01*
X3720Y4380D02*
X3747D01*
Y4367D02*
Y4380D01*
X3680Y4340D02*
X3720Y4380D01*
X3620Y4340D02*
X3680D01*
X3813Y4380D02*
Y4480D01*
X3713Y4287D02*
X3747Y4253D01*
Y4220D02*
Y4253D01*
X3629Y4287D02*
X3713D01*
X3813Y4120D02*
Y4220D01*
X3390Y4870D02*
X3411D01*
Y4742D02*
X3478D01*
X3464Y4716D02*
X3480Y4700D01*
X3411Y4716D02*
X3464D01*
X3480Y4660D02*
Y4700D01*
X3411Y4649D02*
Y4690D01*
X3629Y4870D02*
Y4909D01*
X3411Y4818D02*
X3502D01*
X3527Y4793D02*
X3629D01*
X3502Y4818D02*
X3527Y4793D01*
X3300Y4960D02*
X3390Y4870D01*
X3213Y4960D02*
X3300D01*
X3297Y4844D02*
X3411D01*
X3367Y4767D02*
X3411D01*
X3340Y4740D02*
X3367Y4767D01*
X3340Y4620D02*
Y4740D01*
X3320Y4600D02*
X3340Y4620D01*
X3293Y4600D02*
X3320D01*
X3333Y4793D02*
X3411D01*
X3293Y4753D02*
X3333Y4793D01*
X3293Y4720D02*
Y4753D01*
X3700Y4600D02*
X3747D01*
X3680Y4620D02*
X3700Y4600D01*
X3620Y4740D02*
X3680D01*
Y4620D02*
Y4740D01*
X3720Y4960D02*
X3747D01*
X3680Y4920D02*
X3720Y4960D01*
X3680Y4847D02*
Y4920D01*
X3677Y4844D02*
X3680Y4847D01*
X3629Y4844D02*
X3677D01*
X3720Y4860D02*
X3747D01*
Y4847D02*
Y4860D01*
X3680Y4820D02*
X3720Y4860D01*
X3620Y4820D02*
X3680D01*
X3813Y4860D02*
Y4960D01*
X3713Y4767D02*
X3747Y4733D01*
Y4700D02*
Y4733D01*
X3629Y4767D02*
X3713D01*
X3813Y4600D02*
Y4700D01*
X3390Y5350D02*
X3411D01*
Y5222D02*
X3478D01*
X3464Y5196D02*
X3480Y5180D01*
X3411Y5196D02*
X3464D01*
X3480Y5140D02*
Y5180D01*
X3411Y5129D02*
Y5170D01*
X3629Y5350D02*
Y5389D01*
X3411Y5298D02*
X3502D01*
X3527Y5273D02*
X3629D01*
X3502Y5298D02*
X3527Y5273D01*
X3300Y5440D02*
X3390Y5350D01*
X3213Y5440D02*
X3300D01*
X3297Y5324D02*
X3411D01*
X3367Y5247D02*
X3411D01*
X3340Y5220D02*
X3367Y5247D01*
X3340Y5100D02*
Y5220D01*
X3320Y5080D02*
X3340Y5100D01*
X3293Y5080D02*
X3320D01*
X3333Y5273D02*
X3411D01*
X3293Y5233D02*
X3333Y5273D01*
X3293Y5200D02*
Y5233D01*
X3700Y5080D02*
X3747D01*
X3680Y5100D02*
X3700Y5080D01*
X3620Y5220D02*
X3680D01*
Y5100D02*
Y5220D01*
X3720Y5440D02*
X3747D01*
X3680Y5400D02*
X3720Y5440D01*
X3680Y5327D02*
Y5400D01*
X3677Y5324D02*
X3680Y5327D01*
X3629Y5324D02*
X3677D01*
X3720Y5340D02*
X3747D01*
Y5327D02*
Y5340D01*
X3680Y5300D02*
X3720Y5340D01*
X3620Y5300D02*
X3680D01*
X3813Y5340D02*
Y5440D01*
X3713Y5247D02*
X3747Y5213D01*
Y5180D02*
Y5213D01*
X3629Y5247D02*
X3713D01*
X3813Y5080D02*
Y5180D01*
X3390Y5830D02*
X3411D01*
Y5702D02*
X3478D01*
X3464Y5676D02*
X3480Y5660D01*
X3411Y5676D02*
X3464D01*
X3480Y5620D02*
Y5660D01*
X3411Y5609D02*
Y5650D01*
X3629Y5830D02*
Y5869D01*
X3411Y5778D02*
X3502D01*
X3527Y5753D02*
X3629D01*
X3502Y5778D02*
X3527Y5753D01*
X3300Y5920D02*
X3390Y5830D01*
X3213Y5920D02*
X3300D01*
X3297Y5804D02*
X3411D01*
X3367Y5727D02*
X3411D01*
X3340Y5700D02*
X3367Y5727D01*
X3340Y5580D02*
Y5700D01*
X3320Y5560D02*
X3340Y5580D01*
X3293Y5560D02*
X3320D01*
X3333Y5753D02*
X3411D01*
X3293Y5713D02*
X3333Y5753D01*
X3293Y5680D02*
Y5713D01*
X3700Y5560D02*
X3747D01*
X3680Y5580D02*
X3700Y5560D01*
X3620Y5700D02*
X3680D01*
Y5580D02*
Y5700D01*
X3720Y5920D02*
X3747D01*
X3680Y5880D02*
X3720Y5920D01*
X3680Y5807D02*
Y5880D01*
X3677Y5804D02*
X3680Y5807D01*
X3629Y5804D02*
X3677D01*
X3720Y5820D02*
X3747D01*
Y5807D02*
Y5820D01*
X3680Y5780D02*
X3720Y5820D01*
X3620Y5780D02*
X3680D01*
X3813Y5820D02*
Y5920D01*
X3713Y5727D02*
X3747Y5693D01*
Y5660D02*
Y5693D01*
X3629Y5727D02*
X3713D01*
X3813Y5560D02*
Y5660D01*
X3390Y6310D02*
X3411D01*
Y6182D02*
X3478D01*
X3464Y6156D02*
X3480Y6140D01*
X3411Y6156D02*
X3464D01*
X3480Y6100D02*
Y6140D01*
X3411Y6089D02*
Y6130D01*
X3629Y6310D02*
Y6349D01*
X3411Y6258D02*
X3502D01*
X3527Y6233D02*
X3629D01*
X3502Y6258D02*
X3527Y6233D01*
X3300Y6400D02*
X3390Y6310D01*
X3213Y6400D02*
X3300D01*
X3297Y6284D02*
X3411D01*
X3367Y6207D02*
X3411D01*
X3340Y6180D02*
X3367Y6207D01*
X3340Y6060D02*
Y6180D01*
X3320Y6040D02*
X3340Y6060D01*
X3293Y6040D02*
X3320D01*
X3333Y6233D02*
X3411D01*
X3293Y6193D02*
X3333Y6233D01*
X3293Y6160D02*
Y6193D01*
X3700Y6040D02*
X3747D01*
X3680Y6060D02*
X3700Y6040D01*
X3620Y6180D02*
X3680D01*
Y6060D02*
Y6180D01*
X3720Y6400D02*
X3747D01*
X3680Y6360D02*
X3720Y6400D01*
X3680Y6287D02*
Y6360D01*
X3677Y6284D02*
X3680Y6287D01*
X3629Y6284D02*
X3677D01*
X3720Y6300D02*
X3747D01*
Y6287D02*
Y6300D01*
X3680Y6260D02*
X3720Y6300D01*
X3620Y6260D02*
X3680D01*
X3813Y6300D02*
Y6400D01*
X3713Y6207D02*
X3747Y6173D01*
Y6140D02*
Y6173D01*
X3629Y6207D02*
X3713D01*
X3813Y6040D02*
Y6140D01*
X3390Y6790D02*
X3411D01*
Y6662D02*
X3478D01*
X3464Y6636D02*
X3480Y6620D01*
X3411Y6636D02*
X3464D01*
X3480Y6580D02*
Y6620D01*
X3411Y6569D02*
Y6610D01*
X3629Y6790D02*
Y6829D01*
X3411Y6738D02*
X3502D01*
X3527Y6713D02*
X3629D01*
X3502Y6738D02*
X3527Y6713D01*
X3300Y6880D02*
X3390Y6790D01*
X3213Y6880D02*
X3300D01*
X3297Y6764D02*
X3411D01*
X3367Y6687D02*
X3411D01*
X3340Y6660D02*
X3367Y6687D01*
X3340Y6540D02*
Y6660D01*
X3320Y6520D02*
X3340Y6540D01*
X3293Y6520D02*
X3320D01*
X3333Y6713D02*
X3411D01*
X3293Y6673D02*
X3333Y6713D01*
X3293Y6640D02*
Y6673D01*
X3700Y6520D02*
X3747D01*
X3680Y6540D02*
X3700Y6520D01*
X3620Y6660D02*
X3680D01*
Y6540D02*
Y6660D01*
X3720Y6880D02*
X3747D01*
X3680Y6840D02*
X3720Y6880D01*
X3680Y6767D02*
Y6840D01*
X3677Y6764D02*
X3680Y6767D01*
X3629Y6764D02*
X3677D01*
X3720Y6780D02*
X3747D01*
Y6767D02*
Y6780D01*
X3680Y6740D02*
X3720Y6780D01*
X3620Y6740D02*
X3680D01*
X3813Y6780D02*
Y6880D01*
X3713Y6687D02*
X3747Y6653D01*
Y6620D02*
Y6653D01*
X3629Y6687D02*
X3713D01*
X3813Y6520D02*
Y6620D01*
X3390Y7270D02*
X3411D01*
Y7142D02*
X3478D01*
X3464Y7116D02*
X3480Y7100D01*
X3411Y7116D02*
X3464D01*
X3480Y7060D02*
Y7100D01*
X3411Y7049D02*
Y7090D01*
X3629Y7270D02*
Y7309D01*
X3411Y7218D02*
X3502D01*
X3527Y7193D02*
X3629D01*
X3502Y7218D02*
X3527Y7193D01*
X3300Y7360D02*
X3390Y7270D01*
X3213Y7360D02*
X3300D01*
X3297Y7244D02*
X3411D01*
X3367Y7167D02*
X3411D01*
X3340Y7140D02*
X3367Y7167D01*
X3340Y7020D02*
Y7140D01*
X3320Y7000D02*
X3340Y7020D01*
X3293Y7000D02*
X3320D01*
X3333Y7193D02*
X3411D01*
X3293Y7153D02*
X3333Y7193D01*
X3293Y7120D02*
Y7153D01*
X3700Y7000D02*
X3747D01*
X3680Y7020D02*
X3700Y7000D01*
X3620Y7140D02*
X3680D01*
Y7020D02*
Y7140D01*
X3720Y7360D02*
X3747D01*
X3680Y7320D02*
X3720Y7360D01*
X3680Y7247D02*
Y7320D01*
X3677Y7244D02*
X3680Y7247D01*
X3629Y7244D02*
X3677D01*
X3720Y7260D02*
X3747D01*
Y7247D02*
Y7260D01*
X3680Y7220D02*
X3720Y7260D01*
X3620Y7220D02*
X3680D01*
X3813Y7260D02*
Y7360D01*
X3713Y7167D02*
X3747Y7133D01*
Y7100D02*
Y7133D01*
X3629Y7167D02*
X3713D01*
X3813Y7000D02*
Y7100D01*
X2640Y5100D02*
X2670Y5070D01*
X2760D01*
X2766Y5206D02*
X2786D01*
X2770Y5740D02*
X2889D01*
X2824Y5714D02*
X2889D01*
X2800Y5690D02*
X2824Y5714D01*
X2889Y5689D02*
X2959D01*
X2631D02*
X2699D01*
X2564Y5714D02*
X2631D01*
X2910Y5940D02*
X2970D01*
X2710Y5740D02*
X2910Y5940D01*
X2631Y5740D02*
X2710D01*
Y5860D02*
X2850Y6000D01*
X2686Y5766D02*
X2710Y5790D01*
X2631Y5766D02*
X2686D01*
X2710Y5790D02*
Y5860D01*
X6152Y3658D02*
X6219D01*
X6130Y3560D02*
X6219D01*
X6150Y3540D02*
X6219D01*
X6117Y3693D02*
X6152Y3658D01*
X6080Y3693D02*
X6117D01*
X6117Y3573D02*
X6150Y3540D01*
X6100Y3573D02*
X6117D01*
X6160Y3520D02*
X6219D01*
X6159Y3501D02*
X6219D01*
X6147Y3507D02*
X6160Y3520D01*
X6150Y3510D02*
X6159Y3501D01*
X6100Y3507D02*
X6147D01*
X6152Y4618D02*
X6219D01*
X6130Y4520D02*
X6219D01*
X6150Y4500D02*
X6219D01*
X6117Y4653D02*
X6152Y4618D01*
X6080Y4653D02*
X6117D01*
X6117Y4533D02*
X6150Y4500D01*
X6100Y4533D02*
X6117D01*
X6160Y4480D02*
X6219D01*
X6159Y4461D02*
X6219D01*
X6147Y4467D02*
X6160Y4480D01*
X6150Y4470D02*
X6159Y4461D01*
X6100Y4467D02*
X6147D01*
X6152Y5578D02*
X6219D01*
X6130Y5480D02*
X6219D01*
X6150Y5460D02*
X6219D01*
X6117Y5613D02*
X6152Y5578D01*
X6080Y5613D02*
X6117D01*
X6117Y5493D02*
X6150Y5460D01*
X6100Y5493D02*
X6117D01*
X6160Y5440D02*
X6219D01*
X6159Y5421D02*
X6219D01*
X6147Y5427D02*
X6160Y5440D01*
X6150Y5430D02*
X6159Y5421D01*
X6100Y5427D02*
X6147D01*
X6152Y6538D02*
X6219D01*
X6130Y6440D02*
X6219D01*
X6150Y6420D02*
X6219D01*
X6117Y6573D02*
X6152Y6538D01*
X6080Y6573D02*
X6117D01*
X6117Y6453D02*
X6150Y6420D01*
X6100Y6453D02*
X6117D01*
X6160Y6400D02*
X6219D01*
X6159Y6381D02*
X6219D01*
X6147Y6387D02*
X6160Y6400D01*
X6150Y6390D02*
X6159Y6381D01*
X6100Y6387D02*
X6147D01*
X6120Y7190D02*
X6209D01*
X6107Y7203D02*
X6140Y7170D01*
X6142Y7288D02*
X6209D01*
X6140Y7170D02*
X6209D01*
X6107Y7323D02*
X6142Y7288D01*
X6070Y7323D02*
X6107D01*
X3300Y7840D02*
X3390Y7750D01*
X3293Y7633D02*
X3333Y7673D01*
X3320Y7480D02*
X3340Y7500D01*
Y7620D01*
X3367Y7647D01*
X3464Y7596D02*
X3480Y7580D01*
X3502Y7698D02*
X3527Y7673D01*
X3680Y7700D02*
X3720Y7740D01*
X3677Y7724D02*
X3680Y7727D01*
Y7800D01*
X3720Y7840D01*
X3713Y7647D02*
X3747Y7613D01*
X3680Y7500D02*
X3700Y7480D01*
X3680Y7500D02*
Y7620D01*
X3411Y7622D02*
X3478D01*
X3411Y7529D02*
Y7570D01*
X3629Y7750D02*
Y7789D01*
X3411Y7596D02*
X3464D01*
X3480Y7540D02*
Y7580D01*
X3813Y7740D02*
Y7840D01*
Y7480D02*
Y7580D01*
X3747D02*
Y7613D01*
X3629Y7647D02*
X3713D01*
X3720Y7740D02*
X3747D01*
Y7727D02*
Y7740D01*
X3620Y7700D02*
X3680D01*
X3720Y7840D02*
X3747D01*
X3629Y7724D02*
X3677D01*
X3700Y7480D02*
X3747D01*
X3620Y7620D02*
X3680D01*
X3333Y7673D02*
X3411D01*
X3293Y7600D02*
Y7633D01*
X3367Y7647D02*
X3411D01*
X3293Y7480D02*
X3320D01*
X3297Y7724D02*
X3411D01*
X3390Y7750D02*
X3411D01*
X3213Y7840D02*
X3300D01*
X3411Y7698D02*
X3502D01*
X3527Y7673D02*
X3629D01*
X6140Y7140D02*
X6149Y7131D01*
X6090Y7137D02*
X6137D01*
X6149Y7131D02*
X6209D01*
X6150Y7150D02*
X6209D01*
X6137Y7137D02*
X6150Y7150D01*
X6090Y7203D02*
X6107D01*
D49*
X2980Y3805D02*
X3025Y3760D01*
X3040Y4000D02*
X3147D01*
X3005Y3780D02*
Y3805D01*
X3025Y3760D02*
X3067D01*
X3010Y3640D02*
X3060D01*
X3010D02*
Y3775D01*
X2980Y3805D02*
Y3940D01*
X2882Y3805D02*
X2940D01*
X2975Y3800D02*
X2980Y3805D01*
X3040Y3520D02*
X3147D01*
X2980Y3460D02*
X3040Y3520D01*
X3025Y3280D02*
X3067D01*
X3010Y3160D02*
X3060D01*
X3010D02*
Y3285D01*
X2975Y3320D02*
X2980Y3325D01*
X2975Y3320D02*
X3010Y3285D01*
X2882Y3325D02*
X2940D01*
X2945Y3800D02*
X2975D01*
X3005Y3300D02*
Y3325D01*
Y3300D02*
X3025Y3280D01*
X2940Y3325D02*
X2945Y3320D01*
Y7160D02*
X3010D01*
X3005Y7005D02*
Y7165D01*
X2975Y7160D02*
X2980Y7165D01*
X3040Y7360D02*
X3147D01*
X2980Y7165D02*
X3005D01*
Y7140D02*
X3025Y7120D01*
X3067D01*
X2882Y7165D02*
X2940D01*
X6050Y6677D02*
Y6970D01*
X6100Y5720D02*
Y5847D01*
X6070Y5690D02*
X6100Y5720D01*
X6080Y3760D02*
Y3840D01*
X6070Y7397D02*
X6143D01*
X6050Y6677D02*
X6080Y6647D01*
Y4727D02*
Y4820D01*
X6020Y7000D02*
X6050Y6970D01*
Y4850D02*
X6080Y4820D01*
X6050Y3870D02*
X6080Y3840D01*
X3067Y3387D02*
Y3400D01*
X3133D02*
X3227D01*
X3133Y3160D02*
X3227D01*
X2980Y3325D02*
Y3460D01*
X3005Y3325D02*
X3067Y3387D01*
X2980Y3325D02*
X3005D01*
X3133Y3280D02*
X3240D01*
X3067Y3867D02*
Y3880D01*
X3133D02*
X3227D01*
X3133Y3640D02*
X3227D01*
X2980Y3940D02*
X3040Y4000D01*
X3005Y3805D02*
X3067Y3867D01*
X3133Y3760D02*
X3240D01*
X3067Y4347D02*
Y4360D01*
X3133D02*
X3227D01*
X3133Y4120D02*
X3227D01*
X3040Y4480D02*
X3147D01*
X2980Y4420D02*
X3040Y4480D01*
X2980Y4285D02*
Y4420D01*
X3005Y4285D02*
X3067Y4347D01*
X2980Y4285D02*
X3005D01*
X3025Y4240D02*
X3067D01*
X3010Y4120D02*
X3060D01*
X3005Y4125D02*
Y4285D01*
Y4260D02*
X3025Y4240D01*
X2975Y4280D02*
X2980Y4285D01*
X3133Y4240D02*
X3240D01*
X3067Y4827D02*
Y4840D01*
X3133D02*
X3227D01*
X3133Y4600D02*
X3227D01*
X3040Y4960D02*
X3147D01*
X2980Y4900D02*
X3040Y4960D01*
X2980Y4765D02*
Y4900D01*
X3005Y4765D02*
X3067Y4827D01*
X2980Y4765D02*
X3005D01*
X3025Y4720D02*
X3067D01*
X3010Y4600D02*
X3060D01*
X3005Y4605D02*
Y4765D01*
Y4740D02*
X3025Y4720D01*
X2975Y4760D02*
X2980Y4765D01*
X3133Y4720D02*
X3240D01*
X3067Y5307D02*
Y5320D01*
X3133D02*
X3227D01*
X3133Y5080D02*
X3227D01*
X3040Y5440D02*
X3147D01*
X2980Y5380D02*
X3040Y5440D01*
X2980Y5245D02*
Y5380D01*
X3005Y5245D02*
X3067Y5307D01*
X2980Y5245D02*
X3005D01*
X3025Y5200D02*
X3067D01*
X3010Y5080D02*
X3060D01*
X3005Y5085D02*
Y5245D01*
Y5220D02*
X3025Y5200D01*
X2975Y5240D02*
X2980Y5245D01*
X3133Y5200D02*
X3240D01*
X3067Y5787D02*
Y5800D01*
X3133D02*
X3227D01*
X3133Y5560D02*
X3227D01*
X3040Y5920D02*
X3147D01*
X2980Y5860D02*
X3040Y5920D01*
X2980Y5725D02*
Y5860D01*
X3005Y5725D02*
X3067Y5787D01*
X2980Y5725D02*
X3005D01*
X3025Y5680D02*
X3067D01*
X3010Y5560D02*
X3060D01*
X3005Y5565D02*
Y5725D01*
Y5700D02*
X3025Y5680D01*
X2975Y5720D02*
X2980Y5725D01*
X3133Y5680D02*
X3240D01*
X3067Y6267D02*
Y6280D01*
X3133D02*
X3227D01*
X3133Y6040D02*
X3227D01*
X3040Y6400D02*
X3147D01*
X2980Y6340D02*
X3040Y6400D01*
X2980Y6205D02*
Y6340D01*
X3005Y6205D02*
X3067Y6267D01*
X2980Y6205D02*
X3005D01*
X3025Y6160D02*
X3067D01*
X3010Y6040D02*
X3060D01*
X3005Y6045D02*
Y6205D01*
Y6180D02*
X3025Y6160D01*
X2975Y6200D02*
X2980Y6205D01*
X3133Y6160D02*
X3240D01*
X3067Y6747D02*
Y6760D01*
X3133D02*
X3227D01*
X3133Y6520D02*
X3227D01*
X3040Y6880D02*
X3147D01*
X2980Y6820D02*
X3040Y6880D01*
X2980Y6685D02*
Y6820D01*
X3005Y6685D02*
X3067Y6747D01*
X2980Y6685D02*
X3005D01*
X3025Y6640D02*
X3067D01*
X3010Y6520D02*
X3060D01*
X3005Y6525D02*
Y6685D01*
Y6660D02*
X3025Y6640D01*
X2975Y6680D02*
X2980Y6685D01*
X3133Y6640D02*
X3240D01*
X3067Y7227D02*
Y7240D01*
X3133D02*
X3227D01*
X3133Y7000D02*
X3227D01*
X2980Y7300D02*
X3040Y7360D01*
X2980Y7165D02*
Y7300D01*
X3005Y7165D02*
X3067Y7227D01*
X3010Y7000D02*
X3060D01*
X3133Y7120D02*
X3240D01*
X2940Y3805D02*
X2945Y3800D01*
X2882Y4765D02*
X2940D01*
X2945Y4760D01*
X2966Y5231D02*
X2980Y5245D01*
X2889Y5231D02*
X2966D01*
X2625Y3705D02*
X2678D01*
X2580Y3660D02*
X2625Y3705D01*
X2615Y3855D02*
X2678D01*
X2200Y5250D02*
X2290Y5160D01*
Y4090D02*
Y5160D01*
Y4090D02*
X2480Y3900D01*
X2570D01*
X2615Y3855D01*
X2635Y4185D02*
X2678D01*
X2580Y4130D02*
X2635Y4185D01*
X2625Y4335D02*
X2678D01*
X2200Y5350D02*
X2280D01*
X2590Y4370D02*
X2625Y4335D01*
X2500Y4370D02*
X2590D01*
X2360Y4510D02*
X2500Y4370D01*
X2360Y4510D02*
Y5270D01*
X2280Y5350D02*
X2360Y5270D01*
X2635Y3225D02*
X2678D01*
X2580Y3170D02*
X2635Y3225D01*
X2615Y3375D02*
X2678D01*
X2150Y5100D02*
X2200Y5150D01*
X2570Y3420D02*
X2615Y3375D01*
X2400Y3420D02*
X2570D01*
X2150Y3670D02*
X2400Y3420D01*
X2150Y3670D02*
Y5100D01*
X2635Y4665D02*
X2678D01*
X2580Y4610D02*
X2635Y4665D01*
X2605Y4815D02*
X2678D01*
X2200Y5450D02*
X2310D01*
X2430Y5330D01*
Y4990D02*
Y5330D01*
Y4990D02*
X2605Y4815D01*
X3005Y7485D02*
Y7645D01*
X3040Y7840D02*
X3147D01*
X3005Y7620D02*
X3025Y7600D01*
X3067D01*
X2882Y7655D02*
X2940D01*
X2882Y6685D02*
X3005D01*
X2940D02*
X2945Y6680D01*
Y6200D02*
X2985D01*
X2882Y6205D02*
X2940D01*
X2945Y6200D01*
X2940Y7165D02*
X2945Y7160D01*
X2980Y7780D02*
X3040Y7840D01*
X3005Y7645D02*
X3067Y7707D01*
X3010Y7480D02*
X3060D01*
X2940Y7655D02*
X2945Y7650D01*
Y7640D02*
X2975D01*
X2980Y7645D01*
Y7780D01*
Y7645D02*
X3005D01*
X3067Y7707D02*
Y7720D01*
X3133Y7600D02*
X3240D01*
X3133Y7480D02*
X3227D01*
X3133Y7720D02*
X3227D01*
X2940Y4285D02*
X2945Y4280D01*
X2882Y4285D02*
X2940D01*
D50*
X7611Y7501D02*
Y7709D01*
X7500Y7600D02*
X7611D01*
Y6971D02*
Y7191D01*
X7500Y7080D02*
X7611D01*
X7969Y7089D02*
X8360D01*
X7955Y7585D02*
X8360D01*
X7122Y7738D02*
X7238D01*
X7180Y7380D02*
Y7502D01*
X7122Y7158D02*
X7180D01*
X7130Y6930D02*
X7240D01*
D51*
X6417Y6773D02*
Y6910D01*
Y6773D02*
X6460Y6730D01*
X6630Y6880D02*
Y7117D01*
X6580Y6724D02*
Y6830D01*
X6630Y6880D01*
D52*
X8740Y3485D02*
D03*
Y3585D02*
D03*
Y3835D02*
D03*
Y3735D02*
D03*
X8580Y5140D02*
D03*
Y5240D02*
D03*
Y5040D02*
D03*
Y4940D02*
D03*
X8880Y5240D02*
D03*
Y4940D02*
D03*
X8580Y5540D02*
D03*
Y5640D02*
D03*
Y5440D02*
D03*
Y5340D02*
D03*
X8880Y5640D02*
D03*
Y5340D02*
D03*
D53*
X2200Y7800D02*
D03*
Y3200D02*
D03*
X8800D02*
D03*
Y7800D02*
D03*
D54*
X8360Y7420D02*
D03*
Y7585D02*
D03*
Y7255D02*
D03*
Y7089D02*
D03*
X8380Y6360D02*
D03*
Y6525D02*
D03*
Y6195D02*
D03*
Y6029D02*
D03*
D55*
X8647Y7585D02*
D03*
Y7089D02*
D03*
X8667Y6525D02*
D03*
Y6029D02*
D03*
D56*
X2200Y5050D02*
D03*
X2100D02*
D03*
X2200Y5150D02*
D03*
X2100D02*
D03*
X2200Y5250D02*
D03*
X2100D02*
D03*
X2200Y5350D02*
D03*
X2100D02*
D03*
X2200Y5450D02*
D03*
X2100D02*
D03*
X2200Y5550D02*
D03*
X2100D02*
D03*
X2200Y5650D02*
D03*
X2100D02*
D03*
X2200Y5750D02*
D03*
X2100D02*
D03*
X2200Y5850D02*
D03*
X2100D02*
D03*
X2200Y5950D02*
D03*
X8800Y4720D02*
D03*
X8900D02*
D03*
X8800Y4620D02*
D03*
X8900D02*
D03*
X8800Y4520D02*
D03*
X8900D02*
D03*
X8800Y4420D02*
D03*
X8900D02*
D03*
X8800Y4320D02*
D03*
X8900D02*
D03*
X8800Y4220D02*
D03*
X8900D02*
D03*
X8800Y4120D02*
D03*
D57*
X2100Y5950D02*
D03*
X8900Y4120D02*
D03*
D58*
X7985Y6010D02*
D03*
Y5930D02*
D03*
X7920Y5990D02*
D03*
Y5950D02*
D03*
X7880Y5990D02*
D03*
Y5950D02*
D03*
X7840Y5990D02*
D03*
Y5950D02*
D03*
X7780Y6010D02*
D03*
Y5930D02*
D03*
D59*
X8030Y5230D02*
D03*
X2660Y3120D02*
D03*
X2700Y3440D02*
D03*
X2725Y3645D02*
D03*
X2680Y3920D02*
D03*
X2690Y4130D02*
D03*
X2670Y4400D02*
D03*
X2700Y4610D02*
D03*
X2680Y4880D02*
D03*
X2645Y5955D02*
D03*
X2680Y6320D02*
D03*
X2690Y6540D02*
D03*
X2680Y6800D02*
D03*
X2700Y7020D02*
D03*
X2680Y7290D02*
D03*
X2745Y7485D02*
D03*
X2700Y7830D02*
D03*
X4710Y5110D02*
D03*
X5680Y7310D02*
D03*
X6240Y5740D02*
D03*
X6130Y7560D02*
D03*
X6176Y7570D02*
D03*
X6200Y5620D02*
D03*
X5510Y3160D02*
D03*
X5500Y3640D02*
D03*
Y4120D02*
D03*
Y4600D02*
D03*
X5510Y5080D02*
D03*
X5500Y5540D02*
D03*
Y6020D02*
D03*
Y6500D02*
D03*
X5680Y3460D02*
D03*
X5765Y3195D02*
D03*
X5680Y3940D02*
D03*
X5765Y3675D02*
D03*
X5680Y4420D02*
D03*
X5765Y4155D02*
D03*
X5670Y4900D02*
D03*
X5775Y4635D02*
D03*
X5680Y5380D02*
D03*
X5755Y5115D02*
D03*
X5670Y5870D02*
D03*
X5775Y5595D02*
D03*
X5670Y6340D02*
D03*
X5765Y6075D02*
D03*
X5670Y6830D02*
D03*
X5775Y6555D02*
D03*
X5785Y7035D02*
D03*
X6040Y7510D02*
D03*
X5950Y7420D02*
D03*
X6087Y7783D02*
D03*
X6190Y7780D02*
D03*
X6251Y7719D02*
D03*
X6395Y7725D02*
D03*
X6750Y7890D02*
D03*
X6907Y7817D02*
D03*
X6910Y7700D02*
D03*
X4887Y3173D02*
D03*
X5963Y3333D02*
D03*
X5229Y3231D02*
D03*
X5153Y3407D02*
D03*
X5270Y3510D02*
D03*
X5000Y3220D02*
D03*
X5040Y3280D02*
D03*
Y3400D02*
D03*
X5650Y3120D02*
D03*
X6000Y3270D02*
D03*
X4740Y3520D02*
D03*
X5500Y3470D02*
D03*
X5340Y3200D02*
D03*
X4887Y3653D02*
D03*
X5963Y3813D02*
D03*
X5229Y3711D02*
D03*
X5153Y3887D02*
D03*
X5270Y3990D02*
D03*
X5000Y3700D02*
D03*
X5040Y3760D02*
D03*
Y3880D02*
D03*
X5650Y3600D02*
D03*
X6000Y3750D02*
D03*
X4740Y4000D02*
D03*
X5500Y3950D02*
D03*
X5340Y3680D02*
D03*
X4887Y4133D02*
D03*
X5963Y4293D02*
D03*
X5229Y4191D02*
D03*
X5153Y4367D02*
D03*
X5270Y4470D02*
D03*
X5000Y4180D02*
D03*
X5040Y4240D02*
D03*
Y4360D02*
D03*
X5650Y4080D02*
D03*
X6000Y4230D02*
D03*
X4740Y4480D02*
D03*
X5500Y4430D02*
D03*
X5340Y4160D02*
D03*
X4887Y4613D02*
D03*
X5963Y4773D02*
D03*
X5229Y4671D02*
D03*
X5153Y4847D02*
D03*
X5270Y4950D02*
D03*
X5000Y4660D02*
D03*
X5040Y4720D02*
D03*
Y4840D02*
D03*
X5650Y4560D02*
D03*
X6000Y4710D02*
D03*
X4740Y4960D02*
D03*
X5500Y4910D02*
D03*
X5340Y4640D02*
D03*
X4887Y5093D02*
D03*
X5963Y5253D02*
D03*
X5229Y5151D02*
D03*
X5153Y5327D02*
D03*
X5270Y5430D02*
D03*
X5000Y5140D02*
D03*
X5040Y5200D02*
D03*
Y5320D02*
D03*
X5650Y5040D02*
D03*
X6000Y5190D02*
D03*
X4740Y5440D02*
D03*
X5500Y5390D02*
D03*
X5340Y5120D02*
D03*
X4887Y5573D02*
D03*
X5963Y5733D02*
D03*
X5229Y5631D02*
D03*
X5153Y5807D02*
D03*
X5270Y5910D02*
D03*
X5000Y5620D02*
D03*
X5040Y5680D02*
D03*
Y5800D02*
D03*
X5650Y5520D02*
D03*
X6000Y5670D02*
D03*
X4740Y5920D02*
D03*
X5500Y5870D02*
D03*
X5340Y5600D02*
D03*
X4887Y6053D02*
D03*
X5963Y6213D02*
D03*
X5229Y6111D02*
D03*
X5153Y6287D02*
D03*
X5270Y6390D02*
D03*
X5000Y6100D02*
D03*
X5040Y6160D02*
D03*
Y6280D02*
D03*
X5650Y6000D02*
D03*
X6000Y6150D02*
D03*
X4740Y6400D02*
D03*
X5500Y6350D02*
D03*
X5340Y6080D02*
D03*
X5963Y6693D02*
D03*
X6000Y6630D02*
D03*
X5920Y7220D02*
D03*
X5990Y7110D02*
D03*
X5920Y7700D02*
D03*
X5990Y7590D02*
D03*
X5500Y6830D02*
D03*
X4887Y6533D02*
D03*
X5500Y7310D02*
D03*
X5650Y6480D02*
D03*
X5229Y6591D02*
D03*
X5153Y6767D02*
D03*
X5270Y6870D02*
D03*
X5000Y6580D02*
D03*
X5040Y6640D02*
D03*
Y6760D02*
D03*
X4740Y6880D02*
D03*
X5340Y6560D02*
D03*
X4887Y7013D02*
D03*
X5500Y6980D02*
D03*
X5650Y6960D02*
D03*
X5229Y7071D02*
D03*
X5153Y7247D02*
D03*
X5270Y7350D02*
D03*
X5000Y7060D02*
D03*
X5040Y7120D02*
D03*
Y7240D02*
D03*
X4740Y7360D02*
D03*
X5340Y7040D02*
D03*
X5500Y7460D02*
D03*
X5650Y7440D02*
D03*
X5340Y7520D02*
D03*
X5270Y7830D02*
D03*
X4160Y3270D02*
D03*
X4168Y3740D02*
D03*
X4160Y4224D02*
D03*
Y4710D02*
D03*
X4170Y5184D02*
D03*
Y5676D02*
D03*
X4168Y6136D02*
D03*
X4170Y6624D02*
D03*
X4190Y7112D02*
D03*
X2990Y3805D02*
D03*
X3040Y3520D02*
D03*
X2980Y7160D02*
D03*
X6520Y5930D02*
D03*
X6460Y5860D02*
D03*
Y4800D02*
D03*
X6440Y3820D02*
D03*
X6900Y6630D02*
D03*
X6955Y7135D02*
D03*
X6900Y7200D02*
D03*
X6050Y3870D02*
D03*
Y4850D02*
D03*
X6100Y5760D02*
D03*
X6050Y6740D02*
D03*
X6020Y7000D02*
D03*
X6143Y7397D02*
D03*
X6147Y5913D02*
D03*
X6190Y5950D02*
D03*
X6300Y5800D02*
D03*
X6257Y5877D02*
D03*
X6460Y6730D02*
D03*
X6580Y6724D02*
D03*
X6240Y4060D02*
D03*
Y5020D02*
D03*
Y5980D02*
D03*
X6210Y6710D02*
D03*
X6720Y4880D02*
D03*
X8325Y5565D02*
D03*
X7960Y5390D02*
D03*
X7995Y5515D02*
D03*
X8303Y5767D02*
D03*
X8417D02*
D03*
X8437Y5433D02*
D03*
X8380Y5380D02*
D03*
X8325Y5415D02*
D03*
X8290Y5230D02*
D03*
X8263Y5087D02*
D03*
X8267Y4867D02*
D03*
X7105Y5765D02*
D03*
X6953Y6087D02*
D03*
X6960Y6180D02*
D03*
X7170Y6170D02*
D03*
X7175Y6105D02*
D03*
X6895Y5775D02*
D03*
X7175Y4515D02*
D03*
X7177Y4447D02*
D03*
X7165Y4165D02*
D03*
X6895Y4125D02*
D03*
X6955Y4465D02*
D03*
X6900Y4570D02*
D03*
X7165Y3515D02*
D03*
X6815D02*
D03*
X6830Y3190D02*
D03*
X6833Y3147D02*
D03*
X7173Y3213D02*
D03*
X7190Y3160D02*
D03*
X6370Y6780D02*
D03*
X6690Y6710D02*
D03*
X6800Y4940D02*
D03*
X6820Y5970D02*
D03*
X6770Y6740D02*
D03*
X6820Y6630D02*
D03*
X6770Y6640D02*
D03*
X6720Y6540D02*
D03*
X6770Y3760D02*
D03*
X6820Y3950D02*
D03*
Y4340D02*
D03*
X6770Y4690D02*
D03*
Y5580D02*
D03*
X6769Y6499D02*
D03*
X6825Y4265D02*
D03*
X6720Y3890D02*
D03*
X6400Y4740D02*
D03*
X6720Y5770D02*
D03*
X6400Y5700D02*
D03*
Y6660D02*
D03*
X6390Y7410D02*
D03*
X6720Y3460D02*
D03*
X6390Y3780D02*
D03*
X6810Y3280D02*
D03*
X6620Y3090D02*
D03*
X6810Y3420D02*
D03*
X6780Y3180D02*
D03*
X6810Y3340D02*
D03*
X4710Y3150D02*
D03*
X4730Y3640D02*
D03*
X4640Y3830D02*
D03*
X4730Y4120D02*
D03*
X4640Y4300D02*
D03*
X4720Y4600D02*
D03*
X4640Y4790D02*
D03*
X4610Y5270D02*
D03*
X4720Y5560D02*
D03*
X4640Y5740D02*
D03*
X4720Y6040D02*
D03*
X4630Y6220D02*
D03*
X4720Y6510D02*
D03*
X4630Y6690D02*
D03*
X4720Y7000D02*
D03*
X4610Y7190D02*
D03*
X4887Y7493D02*
D03*
X5229Y7551D02*
D03*
X5153Y7727D02*
D03*
X5000Y7540D02*
D03*
X5040Y7600D02*
D03*
Y7720D02*
D03*
X4740Y7840D02*
D03*
X3900Y3220D02*
D03*
X4620Y3150D02*
D03*
X4430Y3530D02*
D03*
X4507Y3533D02*
D03*
X4584Y3536D02*
D03*
X3995Y3515D02*
D03*
X3945Y3495D02*
D03*
X4045Y3185D02*
D03*
X3478Y3302D02*
D03*
X3480Y3220D02*
D03*
X3411Y3209D02*
D03*
X3629Y3469D02*
D03*
X4540Y3140D02*
D03*
X3629Y3191D02*
D03*
X4360Y3440D02*
D03*
X4140Y3380D02*
D03*
X4320Y3400D02*
D03*
X3880Y3260D02*
D03*
Y3420D02*
D03*
X4340Y3220D02*
D03*
X4140Y3180D02*
D03*
X4315Y3475D02*
D03*
X4227Y3473D02*
D03*
X3900Y3700D02*
D03*
X4620Y3630D02*
D03*
X4430Y4010D02*
D03*
X4507Y4013D02*
D03*
X4584Y4016D02*
D03*
X3995Y3995D02*
D03*
X3945Y3975D02*
D03*
X4045Y3665D02*
D03*
X3478Y3782D02*
D03*
X3480Y3700D02*
D03*
X3411Y3689D02*
D03*
X3629Y3949D02*
D03*
X4540Y3620D02*
D03*
X3629Y3671D02*
D03*
X4360Y3920D02*
D03*
X4140Y3860D02*
D03*
X4320Y3880D02*
D03*
X3880Y3740D02*
D03*
Y3900D02*
D03*
X4340Y3700D02*
D03*
X4140Y3660D02*
D03*
X4315Y3955D02*
D03*
X4227Y3953D02*
D03*
X3900Y4180D02*
D03*
X4620Y4110D02*
D03*
X4430Y4490D02*
D03*
X4507Y4493D02*
D03*
X4584Y4496D02*
D03*
X3995Y4475D02*
D03*
X3945Y4455D02*
D03*
X4045Y4145D02*
D03*
X3478Y4262D02*
D03*
X3480Y4180D02*
D03*
X3411Y4169D02*
D03*
X3629Y4429D02*
D03*
X4540Y4100D02*
D03*
X3629Y4151D02*
D03*
X4360Y4400D02*
D03*
X4140Y4340D02*
D03*
X4320Y4360D02*
D03*
X3880Y4220D02*
D03*
Y4380D02*
D03*
X4340Y4180D02*
D03*
X4140Y4140D02*
D03*
X4315Y4435D02*
D03*
X4227Y4433D02*
D03*
X3900Y4660D02*
D03*
X4620Y4590D02*
D03*
X4430Y4970D02*
D03*
X4507Y4973D02*
D03*
X4584Y4976D02*
D03*
X3995Y4955D02*
D03*
X3945Y4935D02*
D03*
X4045Y4625D02*
D03*
X3478Y4742D02*
D03*
X3480Y4660D02*
D03*
X3411Y4649D02*
D03*
X3629Y4909D02*
D03*
X4540Y4580D02*
D03*
X3629Y4631D02*
D03*
X4360Y4880D02*
D03*
X4140Y4820D02*
D03*
X4320Y4840D02*
D03*
X3880Y4700D02*
D03*
Y4860D02*
D03*
X4340Y4660D02*
D03*
X4140Y4620D02*
D03*
X4315Y4915D02*
D03*
X4227Y4913D02*
D03*
X3900Y5140D02*
D03*
X4620Y5070D02*
D03*
X4430Y5450D02*
D03*
X4507Y5453D02*
D03*
X4584Y5456D02*
D03*
X3995Y5435D02*
D03*
X3945Y5415D02*
D03*
X4045Y5105D02*
D03*
X3478Y5222D02*
D03*
X3480Y5140D02*
D03*
X3411Y5129D02*
D03*
X3629Y5389D02*
D03*
X4540Y5060D02*
D03*
X3629Y5111D02*
D03*
X4360Y5360D02*
D03*
X4140Y5300D02*
D03*
X4320Y5320D02*
D03*
X3880Y5180D02*
D03*
Y5340D02*
D03*
X4340Y5140D02*
D03*
X4140Y5100D02*
D03*
X4315Y5395D02*
D03*
X4227Y5393D02*
D03*
X3005Y5085D02*
D03*
X3900Y5620D02*
D03*
X4620Y5550D02*
D03*
X4430Y5930D02*
D03*
X4507Y5933D02*
D03*
X4584Y5936D02*
D03*
X3995Y5915D02*
D03*
X3945Y5895D02*
D03*
X4045Y5585D02*
D03*
X3478Y5702D02*
D03*
X3480Y5620D02*
D03*
X3411Y5609D02*
D03*
X3629Y5869D02*
D03*
X4540Y5540D02*
D03*
X3629Y5591D02*
D03*
X4360Y5840D02*
D03*
X4140Y5780D02*
D03*
X4320Y5800D02*
D03*
X3880Y5660D02*
D03*
Y5820D02*
D03*
X4340Y5620D02*
D03*
X4140Y5580D02*
D03*
X4315Y5875D02*
D03*
X4227Y5873D02*
D03*
X3005Y5565D02*
D03*
X3900Y6100D02*
D03*
X4620Y6030D02*
D03*
X4430Y6410D02*
D03*
X4507Y6413D02*
D03*
X4584Y6416D02*
D03*
X3995Y6395D02*
D03*
X3945Y6375D02*
D03*
X4045Y6065D02*
D03*
X3478Y6182D02*
D03*
X3480Y6100D02*
D03*
X3411Y6089D02*
D03*
X3629Y6349D02*
D03*
X4540Y6020D02*
D03*
X3629Y6071D02*
D03*
X4360Y6320D02*
D03*
X4140Y6260D02*
D03*
X4320Y6280D02*
D03*
X3880Y6140D02*
D03*
Y6300D02*
D03*
X4340Y6100D02*
D03*
X4140Y6060D02*
D03*
X4315Y6355D02*
D03*
X4227Y6353D02*
D03*
X3900Y6580D02*
D03*
X4620Y6510D02*
D03*
X4430Y6890D02*
D03*
X4507Y6893D02*
D03*
X4584Y6896D02*
D03*
X3995Y6875D02*
D03*
X3945Y6855D02*
D03*
X4045Y6545D02*
D03*
X3478Y6662D02*
D03*
X3480Y6580D02*
D03*
X3411Y6569D02*
D03*
X3629Y6829D02*
D03*
X4540Y6500D02*
D03*
X3629Y6551D02*
D03*
X4360Y6800D02*
D03*
X4140Y6740D02*
D03*
X4320Y6760D02*
D03*
X3880Y6620D02*
D03*
Y6780D02*
D03*
X4340Y6580D02*
D03*
X4140Y6540D02*
D03*
X4315Y6835D02*
D03*
X4227Y6833D02*
D03*
X3005Y6525D02*
D03*
X3900Y7060D02*
D03*
X4620Y6990D02*
D03*
X4430Y7370D02*
D03*
X4507Y7373D02*
D03*
X4584Y7376D02*
D03*
X3995Y7355D02*
D03*
X3945Y7335D02*
D03*
X4045Y7025D02*
D03*
X3478Y7142D02*
D03*
X3480Y7060D02*
D03*
X3411Y7049D02*
D03*
X3629Y7309D02*
D03*
X4540Y6980D02*
D03*
X3629Y7031D02*
D03*
X4360Y7280D02*
D03*
X4140Y7220D02*
D03*
X4320Y7240D02*
D03*
X3880Y7100D02*
D03*
Y7260D02*
D03*
X4340Y7060D02*
D03*
X4140Y7020D02*
D03*
X4315Y7315D02*
D03*
X4227Y7313D02*
D03*
X3005Y7005D02*
D03*
X4620Y7470D02*
D03*
X4360Y7760D02*
D03*
X2770Y5060D02*
D03*
X2900D02*
D03*
X2560Y5140D02*
D03*
X2691Y5129D02*
D03*
X2960Y5180D02*
D03*
X2820Y5170D02*
D03*
X2821Y5129D02*
D03*
X2786Y5206D02*
D03*
X2950Y4280D02*
D03*
X2530Y5170D02*
D03*
X2580Y3660D02*
D03*
Y4130D02*
D03*
Y3170D02*
D03*
Y4610D02*
D03*
X2800Y5690D02*
D03*
X2959Y5689D02*
D03*
X2699D02*
D03*
X2564Y5714D02*
D03*
X2770Y5740D02*
D03*
X2804Y5766D02*
D03*
X2970Y5940D02*
D03*
X3005Y7485D02*
D03*
X6170Y3590D02*
D03*
X6320Y3770D02*
D03*
X6591Y3461D02*
D03*
X6380Y3340D02*
D03*
X6320Y3330D02*
D03*
X6272Y3448D02*
D03*
X6260Y3340D02*
D03*
X6100Y3170D02*
D03*
X6279Y3239D02*
D03*
X6540Y3280D02*
D03*
X6480Y3340D02*
D03*
X6370Y3290D02*
D03*
X6597Y3553D02*
D03*
X6600Y3500D02*
D03*
X6152Y3658D02*
D03*
X6150Y3560D02*
D03*
Y3510D02*
D03*
X6161Y3231D02*
D03*
X6291Y3311D02*
D03*
X6170Y4550D02*
D03*
X6320Y4730D02*
D03*
X6591Y4421D02*
D03*
X6380Y4300D02*
D03*
X6320Y4290D02*
D03*
X6272Y4408D02*
D03*
X6260Y4300D02*
D03*
X6100Y4130D02*
D03*
X6279Y4199D02*
D03*
X6540Y4240D02*
D03*
X6480Y4300D02*
D03*
X6370Y4250D02*
D03*
X6597Y4513D02*
D03*
X6600Y4460D02*
D03*
X6152Y4618D02*
D03*
X6150Y4520D02*
D03*
Y4470D02*
D03*
X6161Y4191D02*
D03*
X6291Y4271D02*
D03*
X6170Y5510D02*
D03*
X6320Y5690D02*
D03*
X6591Y5381D02*
D03*
X6380Y5260D02*
D03*
X6320Y5250D02*
D03*
X6272Y5368D02*
D03*
X6260Y5260D02*
D03*
X6100Y5090D02*
D03*
X6279Y5159D02*
D03*
X6540Y5200D02*
D03*
X6480Y5260D02*
D03*
X6370Y5210D02*
D03*
X6597Y5473D02*
D03*
X6600Y5420D02*
D03*
X6152Y5578D02*
D03*
X6150Y5480D02*
D03*
Y5430D02*
D03*
X6161Y5151D02*
D03*
X6291Y5231D02*
D03*
X6170Y6470D02*
D03*
X6320Y6650D02*
D03*
X6591Y6341D02*
D03*
X6380Y6220D02*
D03*
X6320Y6210D02*
D03*
X6272Y6328D02*
D03*
X6260Y6220D02*
D03*
X6100Y6050D02*
D03*
X6279Y6119D02*
D03*
X6540Y6160D02*
D03*
X6480Y6220D02*
D03*
X6370Y6170D02*
D03*
X6597Y6433D02*
D03*
X6600Y6380D02*
D03*
X6152Y6538D02*
D03*
X6150Y6440D02*
D03*
Y6390D02*
D03*
X6161Y6111D02*
D03*
X6291Y6191D02*
D03*
X6160Y7220D02*
D03*
X6262Y7078D02*
D03*
X6310Y7400D02*
D03*
X6530Y6910D02*
D03*
X6360Y6920D02*
D03*
X6370Y6970D02*
D03*
X6470D02*
D03*
X6581Y7091D02*
D03*
X6587Y7183D02*
D03*
X6590Y7130D02*
D03*
X2882Y7748D02*
D03*
X2807Y7737D02*
D03*
Y7523D02*
D03*
X3478Y7622D02*
D03*
X3411Y7529D02*
D03*
X3480Y7540D02*
D03*
X3629Y7789D02*
D03*
X3880Y7580D02*
D03*
Y7740D02*
D03*
X4045Y7505D02*
D03*
X3900Y7540D02*
D03*
X3945Y7815D02*
D03*
X3995Y7835D02*
D03*
X4320Y7720D02*
D03*
X4227Y7793D02*
D03*
X4315Y7795D02*
D03*
X4200Y7600D02*
D03*
X4140Y7500D02*
D03*
X4340Y7540D02*
D03*
X4140Y7700D02*
D03*
X3629Y7511D02*
D03*
X4540Y7460D02*
D03*
X4430Y7850D02*
D03*
X4584Y7856D02*
D03*
X4507Y7853D02*
D03*
X2882Y7512D02*
D03*
Y7022D02*
D03*
X2807Y7033D02*
D03*
X2882Y7258D02*
D03*
X2807Y7247D02*
D03*
X2882Y6542D02*
D03*
X2807Y6553D02*
D03*
X2882Y6778D02*
D03*
X2807Y6767D02*
D03*
X2882Y6062D02*
D03*
X2807Y6073D02*
D03*
X2882Y6298D02*
D03*
X2807Y6287D02*
D03*
X2882Y4622D02*
D03*
X2807Y4633D02*
D03*
X2882Y4858D02*
D03*
X2807Y4847D02*
D03*
X2882Y4142D02*
D03*
X2807Y4153D02*
D03*
X2882Y4378D02*
D03*
X2807Y4367D02*
D03*
X2882Y3662D02*
D03*
X2807Y3673D02*
D03*
X2882Y3898D02*
D03*
X2807Y3887D02*
D03*
X2882Y3182D02*
D03*
X2807Y3193D02*
D03*
X2882Y3418D02*
D03*
X2807Y3407D02*
D03*
X2640Y7490D02*
D03*
X2580Y7000D02*
D03*
Y6520D02*
D03*
X2560Y6030D02*
D03*
X6140Y7140D02*
D03*
Y7190D02*
D03*
X6142Y7288D02*
D03*
X6310Y6960D02*
D03*
X6250Y6970D02*
D03*
X6281Y6941D02*
D03*
X6269Y6869D02*
D03*
X6151Y6861D02*
D03*
X6090Y6800D02*
D03*
X6240Y6670D02*
D03*
X6250Y5690D02*
D03*
Y4750D02*
D03*
X6370Y3960D02*
D03*
X6639Y4721D02*
D03*
X6619Y3737D02*
D03*
X6639Y5929D02*
D03*
X4631Y3329D02*
D03*
X7430Y4400D02*
D03*
X7570Y4420D02*
D03*
X7670Y4656D02*
D03*
X7918Y4658D02*
D03*
X7920Y4540D02*
D03*
X7430Y4160D02*
D03*
Y4260D02*
D03*
X7550Y4220D02*
D03*
X7570Y4140D02*
D03*
X7690Y4540D02*
D03*
X7741Y4679D02*
D03*
X7840Y4530D02*
D03*
X7880Y4660D02*
D03*
X7680Y4050D02*
D03*
X7600Y3940D02*
D03*
X7700D02*
D03*
X7770Y4060D02*
D03*
X7898Y4048D02*
D03*
X7860Y3920D02*
D03*
X7918Y3942D02*
D03*
X7970Y4070D02*
D03*
X8030Y4050D02*
D03*
X8040Y4140D02*
D03*
X8160D02*
D03*
Y4220D02*
D03*
X8030Y4280D02*
D03*
X8160Y4340D02*
D03*
X8050Y4420D02*
D03*
X8170Y4470D02*
D03*
X7570Y4340D02*
D03*
X7420Y4360D02*
D03*
X8470Y4340D02*
D03*
Y4140D02*
D03*
X8290D02*
D03*
X8660Y4670D02*
D03*
X7336Y4064D02*
D03*
X7210Y4590D02*
D03*
X7280Y5150D02*
D03*
X7490D02*
D03*
X7310Y5060D02*
D03*
X7510D02*
D03*
X7280Y4670D02*
D03*
X7540Y4930D02*
D03*
X7310Y4160D02*
D03*
X7420Y4580D02*
D03*
Y4740D02*
D03*
X7780Y5100D02*
D03*
X8010Y4700D02*
D03*
X7590Y4870D02*
D03*
X7460Y4740D02*
D03*
X7590Y4550D02*
D03*
X7940Y4490D02*
D03*
X7950Y4430D02*
D03*
X8040Y4460D02*
D03*
X7930Y4940D02*
D03*
X8100Y4730D02*
D03*
X8240Y4580D02*
D03*
X8180Y4870D02*
D03*
X7977Y4703D02*
D03*
Y4903D02*
D03*
X8040Y4900D02*
D03*
X8330Y4720D02*
D03*
X8160D02*
D03*
X7650Y5300D02*
D03*
X7591Y5231D02*
D03*
X7889Y5231D02*
D03*
X7107Y3977D02*
D03*
X8400Y3610D02*
D03*
X8265Y3665D02*
D03*
X8279Y3729D02*
D03*
X8255Y3515D02*
D03*
X8275Y3565D02*
D03*
X8065Y3515D02*
D03*
X7850Y3630D02*
D03*
X7655Y3505D02*
D03*
X7645Y3555D02*
D03*
X8110Y6400D02*
D03*
X7660D02*
D03*
X8189Y6029D02*
D03*
X7541D02*
D03*
X7816Y6144D02*
D03*
X7867Y6147D02*
D03*
X7960Y6150D02*
D03*
X7780Y6140D02*
D03*
X8050Y3640D02*
D03*
X8128Y3718D02*
D03*
X8161Y3879D02*
D03*
X7620Y5830D02*
D03*
X7830Y5780D02*
D03*
X7720D02*
D03*
X8010Y5790D02*
D03*
X8209Y5911D02*
D03*
D60*
X7611Y7501D02*
D03*
X7500Y7600D02*
D03*
X7611Y7709D02*
D03*
Y6971D02*
D03*
X7500Y7080D02*
D03*
X7611Y7191D02*
D03*
X7122Y7738D02*
D03*
X7238D02*
D03*
X7180Y7380D02*
D03*
X7122Y7158D02*
D03*
X7130Y6930D02*
D03*
X7240D02*
D03*
M02*
