%FSLAX24Y24*%
%MOIN*%
G70*
G01*
G75*
%ADD10R,0.0591X0.0906*%
%ADD11R,0.0591X0.0512*%
%ADD12R,0.0787X0.0866*%
%ADD13R,0.0315X0.1417*%
%ADD14R,0.0118X0.0630*%
%ADD15R,0.0630X0.0118*%
%ADD16R,0.0846X0.0157*%
%ADD17R,0.0846X0.0157*%
%ADD18R,0.0394X0.0433*%
%ADD19R,0.0433X0.0394*%
%ADD20R,0.0610X0.0157*%
%ADD21R,0.0453X0.0551*%
%ADD22R,0.0512X0.0591*%
%ADD23O,0.0169X0.0480*%
%ADD24R,0.0472X0.0787*%
%ADD25R,0.0169X0.0480*%
%ADD26R,0.0866X0.0236*%
%ADD27R,0.0866X0.0236*%
%ADD28R,0.0236X0.0551*%
%ADD29R,0.0630X0.0709*%
%ADD30R,0.0236X0.0394*%
%ADD31R,0.0807X0.0236*%
%ADD32R,0.0236X0.0807*%
%ADD33R,0.1240X0.1360*%
%ADD34R,0.0866X0.0787*%
%ADD35C,0.0010*%
%ADD36C,0.0160*%
%ADD37C,0.0300*%
%ADD38C,0.0080*%
%ADD39C,0.0100*%
%ADD40C,0.0120*%
%ADD41C,0.0180*%
%ADD42C,0.0200*%
%ADD43R,0.0128X0.0900*%
%ADD44R,0.0128X0.2100*%
%ADD45R,0.2000X0.0200*%
%ADD46R,0.1400X0.0100*%
%ADD47C,0.1100*%
%ADD48C,0.1575*%
%ADD49C,0.0866*%
%ADD50C,0.0591*%
%ADD51R,0.0591X0.0591*%
%ADD52C,0.0591*%
%ADD53R,0.0591X0.0591*%
%ADD54C,0.0600*%
%ADD55C,0.0320*%
%ADD56C,0.0098*%
%ADD57C,0.0079*%
%ADD58C,0.0070*%
%ADD59R,0.0079X0.0197*%
%ADD60R,0.0197X0.0079*%
%ADD61R,0.0197X0.0079*%
%ADD62R,0.0671X0.0986*%
%ADD63R,0.0671X0.0592*%
%ADD64R,0.0867X0.0946*%
%ADD65R,0.0395X0.1497*%
%ADD66R,0.0198X0.0710*%
%ADD67R,0.0710X0.0198*%
%ADD68R,0.0926X0.0237*%
%ADD69R,0.0926X0.0237*%
%ADD70R,0.0474X0.0513*%
%ADD71R,0.0513X0.0474*%
%ADD72R,0.0690X0.0237*%
%ADD73R,0.0533X0.0631*%
%ADD74R,0.0592X0.0671*%
%ADD75O,0.0249X0.0560*%
%ADD76R,0.0552X0.0867*%
%ADD77R,0.0249X0.0560*%
%ADD78R,0.0946X0.0316*%
%ADD79R,0.0946X0.0316*%
%ADD80R,0.0316X0.0631*%
%ADD81R,0.0710X0.0789*%
%ADD82R,0.0316X0.0474*%
%ADD83R,0.0887X0.0316*%
%ADD84R,0.0316X0.0887*%
%ADD85R,0.1320X0.1440*%
%ADD86R,0.0946X0.0867*%
%ADD87C,0.1180*%
%ADD88C,0.1655*%
%ADD89C,0.0946*%
%ADD90C,0.0671*%
%ADD91R,0.0671X0.0671*%
%ADD92C,0.0671*%
%ADD93R,0.0671X0.0671*%
%ADD94C,0.0680*%
%ADD95C,0.0400*%
D35*
X80000Y30000D02*
Y70000D01*
X20000Y30000D02*
X80000D01*
X20000D02*
Y70000D01*
X80000D01*
D62*
X75400Y33200D02*
D03*
X73400D02*
D03*
X75400Y31389D02*
D03*
X73400D02*
D03*
D63*
X78300Y34274D02*
D03*
Y33526D02*
D03*
X57400Y67574D02*
D03*
Y66826D02*
D03*
X53400Y31126D02*
D03*
Y31874D02*
D03*
Y33674D02*
D03*
Y32926D02*
D03*
X52400Y32726D02*
D03*
Y33474D02*
D03*
X51400Y32726D02*
D03*
Y33474D02*
D03*
X44400Y31874D02*
D03*
Y31126D02*
D03*
X50400Y32126D02*
D03*
Y32874D02*
D03*
X45600Y32926D02*
D03*
Y33674D02*
D03*
X44600Y32926D02*
D03*
Y33674D02*
D03*
X53400Y35026D02*
D03*
Y35774D02*
D03*
Y37574D02*
D03*
Y36826D02*
D03*
X52400Y36626D02*
D03*
Y37374D02*
D03*
X51400Y36626D02*
D03*
Y37374D02*
D03*
X44400Y35774D02*
D03*
Y35026D02*
D03*
X50400Y36026D02*
D03*
Y36774D02*
D03*
X45600Y36826D02*
D03*
Y37574D02*
D03*
X44600Y36826D02*
D03*
Y37574D02*
D03*
X53400Y38926D02*
D03*
Y39674D02*
D03*
Y41474D02*
D03*
Y40726D02*
D03*
X52400Y40526D02*
D03*
Y41274D02*
D03*
X51400Y40526D02*
D03*
Y41274D02*
D03*
X44400Y39674D02*
D03*
Y38926D02*
D03*
X50400Y39926D02*
D03*
Y40674D02*
D03*
X45600Y40726D02*
D03*
Y41474D02*
D03*
X44600Y40726D02*
D03*
Y41474D02*
D03*
X53400Y42826D02*
D03*
Y43574D02*
D03*
Y45374D02*
D03*
Y44626D02*
D03*
X52400Y44426D02*
D03*
Y45174D02*
D03*
X51400Y44426D02*
D03*
Y45174D02*
D03*
X44400Y43574D02*
D03*
Y42826D02*
D03*
X50400Y43826D02*
D03*
Y44574D02*
D03*
X45600Y44626D02*
D03*
Y45374D02*
D03*
X44600Y44626D02*
D03*
Y45374D02*
D03*
X53400Y46726D02*
D03*
Y47474D02*
D03*
Y49274D02*
D03*
Y48526D02*
D03*
X52400Y48326D02*
D03*
Y49074D02*
D03*
X51400Y48326D02*
D03*
Y49074D02*
D03*
X44400Y47474D02*
D03*
Y46726D02*
D03*
X50400Y47726D02*
D03*
Y48474D02*
D03*
X45600Y48526D02*
D03*
Y49274D02*
D03*
X44600Y48526D02*
D03*
Y49274D02*
D03*
X53400Y50626D02*
D03*
Y51374D02*
D03*
Y53174D02*
D03*
Y52426D02*
D03*
X52400Y52226D02*
D03*
Y52974D02*
D03*
X51400Y52226D02*
D03*
Y52974D02*
D03*
X44400Y51374D02*
D03*
Y50626D02*
D03*
X50400Y51626D02*
D03*
Y52374D02*
D03*
X45600Y52426D02*
D03*
Y53174D02*
D03*
X44600Y52426D02*
D03*
Y53174D02*
D03*
X53400Y54526D02*
D03*
Y55274D02*
D03*
Y57074D02*
D03*
Y56326D02*
D03*
X52400Y56126D02*
D03*
Y56874D02*
D03*
X51400Y56126D02*
D03*
Y56874D02*
D03*
X44400Y55274D02*
D03*
Y54526D02*
D03*
X50400Y55526D02*
D03*
Y56274D02*
D03*
X45600Y56326D02*
D03*
Y57074D02*
D03*
X44600Y56326D02*
D03*
Y57074D02*
D03*
X53400Y58426D02*
D03*
Y59174D02*
D03*
Y60974D02*
D03*
Y60226D02*
D03*
X52400Y60026D02*
D03*
Y60774D02*
D03*
X51400Y60026D02*
D03*
Y60774D02*
D03*
X44400Y59174D02*
D03*
Y58426D02*
D03*
X50400Y59426D02*
D03*
Y60174D02*
D03*
X45600Y60226D02*
D03*
Y60974D02*
D03*
X44600Y60226D02*
D03*
Y60974D02*
D03*
X53400Y62326D02*
D03*
Y63074D02*
D03*
Y64874D02*
D03*
Y64126D02*
D03*
X52400Y63926D02*
D03*
Y64674D02*
D03*
X51400Y63926D02*
D03*
Y64674D02*
D03*
X44400Y63074D02*
D03*
Y62326D02*
D03*
X50400Y63326D02*
D03*
Y64074D02*
D03*
X45600Y64126D02*
D03*
Y64874D02*
D03*
X44600Y64126D02*
D03*
Y64874D02*
D03*
X25000Y32126D02*
D03*
Y32874D02*
D03*
Y36026D02*
D03*
Y36774D02*
D03*
Y39926D02*
D03*
Y40674D02*
D03*
Y43826D02*
D03*
Y44574D02*
D03*
Y55526D02*
D03*
Y56274D02*
D03*
Y59426D02*
D03*
Y60174D02*
D03*
Y63326D02*
D03*
Y64074D02*
D03*
Y67226D02*
D03*
Y67974D02*
D03*
X57400Y36374D02*
D03*
Y35626D02*
D03*
Y44174D02*
D03*
Y43426D02*
D03*
Y51974D02*
D03*
Y51226D02*
D03*
X57600Y59974D02*
D03*
Y59226D02*
D03*
X53400Y66226D02*
D03*
Y66974D02*
D03*
Y68774D02*
D03*
Y68026D02*
D03*
X52400Y67826D02*
D03*
Y68574D02*
D03*
X51400Y67826D02*
D03*
Y68574D02*
D03*
X44400Y66974D02*
D03*
Y66226D02*
D03*
X50400Y67226D02*
D03*
Y67974D02*
D03*
X45600Y68026D02*
D03*
Y68774D02*
D03*
X44600Y68026D02*
D03*
Y68774D02*
D03*
X73000Y50574D02*
D03*
Y49826D02*
D03*
Y52374D02*
D03*
Y51626D02*
D03*
X74000Y46226D02*
D03*
Y46974D02*
D03*
Y44226D02*
D03*
Y44974D02*
D03*
Y50974D02*
D03*
Y50226D02*
D03*
Y48974D02*
D03*
Y48226D02*
D03*
D64*
X67991Y34000D02*
D03*
X66809D02*
D03*
X72791Y44400D02*
D03*
X71609D02*
D03*
X59309Y62300D02*
D03*
X60491D02*
D03*
X59309Y54500D02*
D03*
X60491D02*
D03*
X59309Y46700D02*
D03*
X60491D02*
D03*
X59309Y38900D02*
D03*
X60491D02*
D03*
X59309Y31100D02*
D03*
X60491D02*
D03*
X64591Y31800D02*
D03*
X63409D02*
D03*
X62009Y60600D02*
D03*
X63191D02*
D03*
D65*
X69000Y44419D02*
D03*
Y46781D02*
D03*
X25600Y53381D02*
D03*
Y51019D02*
D03*
X67700Y58981D02*
D03*
Y56619D02*
D03*
X25600Y48981D02*
D03*
Y46619D02*
D03*
X71600Y56619D02*
D03*
Y58981D02*
D03*
D66*
X69155Y34627D02*
D03*
X69352D02*
D03*
X69549D02*
D03*
X69746D02*
D03*
X69943D02*
D03*
X70139D02*
D03*
X70336D02*
D03*
X70533D02*
D03*
X70730D02*
D03*
X70927D02*
D03*
X71124D02*
D03*
X71320D02*
D03*
X71517D02*
D03*
X71714D02*
D03*
X71911D02*
D03*
X72108D02*
D03*
X72305D02*
D03*
X72502D02*
D03*
X72698D02*
D03*
X72895D02*
D03*
X73092D02*
D03*
X73289D02*
D03*
X73486D02*
D03*
X73683D02*
D03*
X73880D02*
D03*
X74076D02*
D03*
X74273D02*
D03*
X74470D02*
D03*
X74667D02*
D03*
X74864D02*
D03*
X75061D02*
D03*
X75257D02*
D03*
X75454D02*
D03*
X75651D02*
D03*
X75848D02*
D03*
X76045D02*
D03*
X69155Y42973D02*
D03*
X69352D02*
D03*
X69549D02*
D03*
X69746D02*
D03*
X69943D02*
D03*
X70139D02*
D03*
X70336D02*
D03*
X70533D02*
D03*
X70730D02*
D03*
X70927D02*
D03*
X71124D02*
D03*
X71320D02*
D03*
X71517D02*
D03*
X71714D02*
D03*
X71911D02*
D03*
X72108D02*
D03*
X72305D02*
D03*
X72502D02*
D03*
X72698D02*
D03*
X72895D02*
D03*
X73092D02*
D03*
X73289D02*
D03*
X73486D02*
D03*
X73683D02*
D03*
X73880D02*
D03*
X74076D02*
D03*
X74273D02*
D03*
X74470D02*
D03*
X74667D02*
D03*
X74864D02*
D03*
X75061D02*
D03*
X75257D02*
D03*
X75454D02*
D03*
X75651D02*
D03*
X75848D02*
D03*
X76045D02*
D03*
X60802Y32486D02*
D03*
Y40286D02*
D03*
Y48086D02*
D03*
Y55886D02*
D03*
X61983Y35714D02*
D03*
X61786D02*
D03*
X61589D02*
D03*
X61392D02*
D03*
X61195D02*
D03*
X60998D02*
D03*
X60802D02*
D03*
X60605D02*
D03*
X60408D02*
D03*
X60211D02*
D03*
X60014D02*
D03*
X59817D02*
D03*
X61983Y32486D02*
D03*
X61786D02*
D03*
X61589D02*
D03*
X61392D02*
D03*
X61195D02*
D03*
X60998D02*
D03*
X60605D02*
D03*
X60408D02*
D03*
X60211D02*
D03*
X60014D02*
D03*
X59817D02*
D03*
X61983Y43514D02*
D03*
X61786D02*
D03*
X61589D02*
D03*
X61392D02*
D03*
X61195D02*
D03*
X60998D02*
D03*
X60802D02*
D03*
X60605D02*
D03*
X60408D02*
D03*
X60211D02*
D03*
X60014D02*
D03*
X59817D02*
D03*
X61983Y40286D02*
D03*
X61786D02*
D03*
X61589D02*
D03*
X61392D02*
D03*
X61195D02*
D03*
X60998D02*
D03*
X60605D02*
D03*
X60408D02*
D03*
X60211D02*
D03*
X60014D02*
D03*
X59817D02*
D03*
X61983Y51314D02*
D03*
X61786D02*
D03*
X61589D02*
D03*
X61392D02*
D03*
X61195D02*
D03*
X60998D02*
D03*
X60802D02*
D03*
X60605D02*
D03*
X60408D02*
D03*
X60211D02*
D03*
X60014D02*
D03*
X59817D02*
D03*
X61983Y48086D02*
D03*
X61786D02*
D03*
X61589D02*
D03*
X61392D02*
D03*
X61195D02*
D03*
X60998D02*
D03*
X60605D02*
D03*
X60408D02*
D03*
X60211D02*
D03*
X60014D02*
D03*
X59817D02*
D03*
X61983Y59114D02*
D03*
X61786D02*
D03*
X61589D02*
D03*
X61392D02*
D03*
X61195D02*
D03*
X60998D02*
D03*
X60802D02*
D03*
X60605D02*
D03*
X60408D02*
D03*
X60211D02*
D03*
X60014D02*
D03*
X59817D02*
D03*
X61983Y55886D02*
D03*
X61786D02*
D03*
X61589D02*
D03*
X61392D02*
D03*
X61195D02*
D03*
X60998D02*
D03*
X60605D02*
D03*
X60408D02*
D03*
X60211D02*
D03*
X60014D02*
D03*
X59817D02*
D03*
X61983Y66914D02*
D03*
X61786D02*
D03*
X61589D02*
D03*
X61392D02*
D03*
X61195D02*
D03*
X60998D02*
D03*
X60802D02*
D03*
X60605D02*
D03*
X60408D02*
D03*
X60211D02*
D03*
X60014D02*
D03*
X59817D02*
D03*
X61983Y63686D02*
D03*
X61786D02*
D03*
X61589D02*
D03*
X61392D02*
D03*
X61195D02*
D03*
X60998D02*
D03*
X60802D02*
D03*
X60605D02*
D03*
X60408D02*
D03*
X60211D02*
D03*
X60014D02*
D03*
X59817D02*
D03*
D67*
X76773Y35355D02*
D03*
Y35552D02*
D03*
Y35749D02*
D03*
Y35946D02*
D03*
Y36143D02*
D03*
Y36339D02*
D03*
Y36536D02*
D03*
Y36733D02*
D03*
Y36930D02*
D03*
Y37127D02*
D03*
Y37324D02*
D03*
Y37520D02*
D03*
Y37717D02*
D03*
Y37914D02*
D03*
Y38111D02*
D03*
Y38308D02*
D03*
Y38505D02*
D03*
Y38702D02*
D03*
Y38898D02*
D03*
Y39095D02*
D03*
Y39292D02*
D03*
Y39489D02*
D03*
Y39686D02*
D03*
Y39883D02*
D03*
Y40080D02*
D03*
Y40276D02*
D03*
Y40473D02*
D03*
Y40670D02*
D03*
Y40867D02*
D03*
Y41064D02*
D03*
Y41261D02*
D03*
Y41457D02*
D03*
Y41654D02*
D03*
Y41851D02*
D03*
Y42048D02*
D03*
Y42245D02*
D03*
X68427Y35355D02*
D03*
Y35552D02*
D03*
Y35749D02*
D03*
Y35946D02*
D03*
Y36143D02*
D03*
Y36339D02*
D03*
Y36536D02*
D03*
Y36733D02*
D03*
Y36930D02*
D03*
Y37127D02*
D03*
Y37324D02*
D03*
Y37520D02*
D03*
Y37717D02*
D03*
Y37914D02*
D03*
Y38111D02*
D03*
Y38308D02*
D03*
Y38505D02*
D03*
Y38702D02*
D03*
Y38898D02*
D03*
Y39095D02*
D03*
Y39292D02*
D03*
Y39489D02*
D03*
Y39686D02*
D03*
Y39883D02*
D03*
Y40080D02*
D03*
Y40276D02*
D03*
Y40473D02*
D03*
Y40670D02*
D03*
Y40867D02*
D03*
Y41064D02*
D03*
Y41261D02*
D03*
Y41457D02*
D03*
Y41654D02*
D03*
Y41851D02*
D03*
Y42048D02*
D03*
Y42245D02*
D03*
X62514Y34395D02*
D03*
Y34002D02*
D03*
Y42195D02*
D03*
Y41802D02*
D03*
Y49995D02*
D03*
Y49602D02*
D03*
Y57795D02*
D03*
Y57402D02*
D03*
X59286Y33411D02*
D03*
Y34789D02*
D03*
Y41211D02*
D03*
Y42589D02*
D03*
Y49011D02*
D03*
Y50389D02*
D03*
Y56811D02*
D03*
Y58189D02*
D03*
Y35183D02*
D03*
Y34986D02*
D03*
Y34592D02*
D03*
Y34395D02*
D03*
Y34198D02*
D03*
Y34002D02*
D03*
Y33805D02*
D03*
Y33608D02*
D03*
Y33214D02*
D03*
Y33017D02*
D03*
X62514Y35183D02*
D03*
Y34986D02*
D03*
Y34789D02*
D03*
Y34592D02*
D03*
Y34198D02*
D03*
Y33805D02*
D03*
Y33608D02*
D03*
Y33411D02*
D03*
Y33214D02*
D03*
Y33017D02*
D03*
X59286Y42983D02*
D03*
Y42786D02*
D03*
Y42392D02*
D03*
Y42195D02*
D03*
Y41998D02*
D03*
Y41802D02*
D03*
Y41605D02*
D03*
Y41408D02*
D03*
Y41014D02*
D03*
Y40817D02*
D03*
X62514Y42983D02*
D03*
Y42786D02*
D03*
Y42589D02*
D03*
Y42392D02*
D03*
Y41998D02*
D03*
Y41605D02*
D03*
Y41408D02*
D03*
Y41211D02*
D03*
Y41014D02*
D03*
Y40817D02*
D03*
X59286Y50783D02*
D03*
Y50586D02*
D03*
Y50192D02*
D03*
Y49995D02*
D03*
Y49798D02*
D03*
Y49602D02*
D03*
Y49405D02*
D03*
Y49208D02*
D03*
Y48814D02*
D03*
Y48617D02*
D03*
X62514Y50783D02*
D03*
Y50586D02*
D03*
Y50389D02*
D03*
Y50192D02*
D03*
Y49798D02*
D03*
Y49405D02*
D03*
Y49208D02*
D03*
Y49011D02*
D03*
Y48814D02*
D03*
Y48617D02*
D03*
X59286Y58583D02*
D03*
Y58386D02*
D03*
Y57992D02*
D03*
Y57795D02*
D03*
Y57598D02*
D03*
Y57402D02*
D03*
Y57205D02*
D03*
Y57008D02*
D03*
Y56614D02*
D03*
Y56417D02*
D03*
X62514Y58583D02*
D03*
Y58386D02*
D03*
Y58189D02*
D03*
Y57992D02*
D03*
Y57598D02*
D03*
Y57205D02*
D03*
Y57008D02*
D03*
Y56811D02*
D03*
Y56614D02*
D03*
Y56417D02*
D03*
X59286Y66383D02*
D03*
Y66186D02*
D03*
Y65989D02*
D03*
Y65792D02*
D03*
Y65595D02*
D03*
Y65398D02*
D03*
Y65202D02*
D03*
Y65005D02*
D03*
Y64808D02*
D03*
Y64611D02*
D03*
Y64414D02*
D03*
Y64217D02*
D03*
X62514Y66383D02*
D03*
Y66186D02*
D03*
Y65989D02*
D03*
Y65792D02*
D03*
Y65595D02*
D03*
Y65398D02*
D03*
Y65202D02*
D03*
Y65005D02*
D03*
Y64808D02*
D03*
Y64611D02*
D03*
Y64414D02*
D03*
Y64217D02*
D03*
D68*
X43289Y63204D02*
D03*
Y63460D02*
D03*
Y63716D02*
D03*
Y63972D02*
D03*
Y64228D02*
D03*
Y64484D02*
D03*
Y64740D02*
D03*
Y64996D02*
D03*
X40711Y63204D02*
D03*
Y63460D02*
D03*
Y63716D02*
D03*
Y63972D02*
D03*
Y64228D02*
D03*
Y64484D02*
D03*
Y64740D02*
D03*
Y53040D02*
D03*
Y52784D02*
D03*
Y52528D02*
D03*
Y52272D02*
D03*
Y52016D02*
D03*
Y51760D02*
D03*
Y51504D02*
D03*
X43289Y53296D02*
D03*
Y53040D02*
D03*
Y52784D02*
D03*
Y52528D02*
D03*
Y52272D02*
D03*
Y52016D02*
D03*
Y51760D02*
D03*
Y51504D02*
D03*
X40711Y49140D02*
D03*
Y48884D02*
D03*
Y48628D02*
D03*
Y48372D02*
D03*
Y48116D02*
D03*
Y47860D02*
D03*
Y47604D02*
D03*
X43289Y49396D02*
D03*
Y49140D02*
D03*
Y48884D02*
D03*
Y48628D02*
D03*
Y48372D02*
D03*
Y48116D02*
D03*
Y47860D02*
D03*
Y47604D02*
D03*
X49289Y31804D02*
D03*
Y32060D02*
D03*
Y32316D02*
D03*
Y32572D02*
D03*
Y32828D02*
D03*
Y33084D02*
D03*
Y33340D02*
D03*
Y33596D02*
D03*
X46711Y31804D02*
D03*
Y32060D02*
D03*
Y32316D02*
D03*
Y32572D02*
D03*
Y32828D02*
D03*
Y33084D02*
D03*
Y33340D02*
D03*
X49289Y35704D02*
D03*
Y35960D02*
D03*
Y36216D02*
D03*
Y36472D02*
D03*
Y36728D02*
D03*
Y36984D02*
D03*
Y37240D02*
D03*
Y37496D02*
D03*
X46711Y35704D02*
D03*
Y35960D02*
D03*
Y36216D02*
D03*
Y36472D02*
D03*
Y36728D02*
D03*
Y36984D02*
D03*
Y37240D02*
D03*
X49289Y39604D02*
D03*
Y39860D02*
D03*
Y40116D02*
D03*
Y40372D02*
D03*
Y40628D02*
D03*
Y40884D02*
D03*
Y41140D02*
D03*
Y41396D02*
D03*
X46711Y39604D02*
D03*
Y39860D02*
D03*
Y40116D02*
D03*
Y40372D02*
D03*
Y40628D02*
D03*
Y40884D02*
D03*
Y41140D02*
D03*
X49289Y43504D02*
D03*
Y43760D02*
D03*
Y44016D02*
D03*
Y44272D02*
D03*
Y44528D02*
D03*
Y44784D02*
D03*
Y45040D02*
D03*
Y45296D02*
D03*
X46711Y43504D02*
D03*
Y43760D02*
D03*
Y44016D02*
D03*
Y44272D02*
D03*
Y44528D02*
D03*
Y44784D02*
D03*
Y45040D02*
D03*
X49289Y47404D02*
D03*
Y47660D02*
D03*
Y47916D02*
D03*
Y48172D02*
D03*
Y48428D02*
D03*
Y48684D02*
D03*
Y48940D02*
D03*
Y49196D02*
D03*
X46711Y47404D02*
D03*
Y47660D02*
D03*
Y47916D02*
D03*
Y48172D02*
D03*
Y48428D02*
D03*
Y48684D02*
D03*
Y48940D02*
D03*
X49289Y51304D02*
D03*
Y51560D02*
D03*
Y51816D02*
D03*
Y52072D02*
D03*
Y52328D02*
D03*
Y52584D02*
D03*
Y52840D02*
D03*
Y53096D02*
D03*
X46711Y51304D02*
D03*
Y51560D02*
D03*
Y51816D02*
D03*
Y52072D02*
D03*
Y52328D02*
D03*
Y52584D02*
D03*
Y52840D02*
D03*
X49289Y55204D02*
D03*
Y55460D02*
D03*
Y55716D02*
D03*
Y55972D02*
D03*
Y56228D02*
D03*
Y56484D02*
D03*
Y56740D02*
D03*
Y56996D02*
D03*
X46711Y55204D02*
D03*
Y55460D02*
D03*
Y55716D02*
D03*
Y55972D02*
D03*
Y56228D02*
D03*
Y56484D02*
D03*
Y56740D02*
D03*
X49289Y59104D02*
D03*
Y59360D02*
D03*
Y59616D02*
D03*
Y59872D02*
D03*
Y60128D02*
D03*
Y60384D02*
D03*
Y60640D02*
D03*
Y60896D02*
D03*
X46711Y59104D02*
D03*
Y59360D02*
D03*
Y59616D02*
D03*
Y59872D02*
D03*
Y60128D02*
D03*
Y60384D02*
D03*
Y60640D02*
D03*
X49289Y63004D02*
D03*
Y63260D02*
D03*
Y63516D02*
D03*
Y63772D02*
D03*
Y64028D02*
D03*
Y64284D02*
D03*
Y64540D02*
D03*
Y64796D02*
D03*
X46711Y63004D02*
D03*
Y63260D02*
D03*
Y63516D02*
D03*
Y63772D02*
D03*
Y64028D02*
D03*
Y64284D02*
D03*
Y64540D02*
D03*
X31089Y48712D02*
D03*
Y52312D02*
D03*
Y47432D02*
D03*
Y47688D02*
D03*
Y47944D02*
D03*
Y48200D02*
D03*
Y48456D02*
D03*
Y48968D02*
D03*
X28511Y47432D02*
D03*
Y47688D02*
D03*
Y47944D02*
D03*
Y48200D02*
D03*
Y48456D02*
D03*
Y48712D02*
D03*
Y48968D02*
D03*
X43289Y32004D02*
D03*
Y32260D02*
D03*
Y32516D02*
D03*
Y32772D02*
D03*
Y33028D02*
D03*
Y33284D02*
D03*
Y33540D02*
D03*
Y33796D02*
D03*
X40711Y32004D02*
D03*
Y32260D02*
D03*
Y32516D02*
D03*
Y32772D02*
D03*
Y33028D02*
D03*
Y33284D02*
D03*
Y33540D02*
D03*
X43289Y35904D02*
D03*
Y36160D02*
D03*
Y36416D02*
D03*
Y36672D02*
D03*
Y36928D02*
D03*
Y37184D02*
D03*
Y37440D02*
D03*
Y37696D02*
D03*
X40711Y35904D02*
D03*
Y36160D02*
D03*
Y36416D02*
D03*
Y36672D02*
D03*
Y36928D02*
D03*
Y37184D02*
D03*
Y37440D02*
D03*
X43289Y39804D02*
D03*
Y40060D02*
D03*
Y40316D02*
D03*
Y40572D02*
D03*
Y40828D02*
D03*
Y41084D02*
D03*
Y41340D02*
D03*
Y41596D02*
D03*
X40711Y39804D02*
D03*
Y40060D02*
D03*
Y40316D02*
D03*
Y40572D02*
D03*
Y40828D02*
D03*
Y41084D02*
D03*
Y41340D02*
D03*
X43289Y43704D02*
D03*
Y43960D02*
D03*
Y44216D02*
D03*
Y44472D02*
D03*
Y44728D02*
D03*
Y44984D02*
D03*
Y45240D02*
D03*
Y45496D02*
D03*
X40711Y43704D02*
D03*
Y43960D02*
D03*
Y44216D02*
D03*
Y44472D02*
D03*
Y44728D02*
D03*
Y44984D02*
D03*
Y45240D02*
D03*
X43289Y55404D02*
D03*
Y55660D02*
D03*
Y55916D02*
D03*
Y56172D02*
D03*
Y56428D02*
D03*
Y56684D02*
D03*
Y56940D02*
D03*
Y57196D02*
D03*
X40711Y55404D02*
D03*
Y55660D02*
D03*
Y55916D02*
D03*
Y56172D02*
D03*
Y56428D02*
D03*
Y56684D02*
D03*
Y56940D02*
D03*
X43289Y59304D02*
D03*
Y59560D02*
D03*
Y59816D02*
D03*
Y60072D02*
D03*
Y60328D02*
D03*
Y60584D02*
D03*
Y60840D02*
D03*
Y61096D02*
D03*
X40711Y59304D02*
D03*
Y59560D02*
D03*
Y59816D02*
D03*
Y60072D02*
D03*
Y60328D02*
D03*
Y60584D02*
D03*
Y60840D02*
D03*
X43289Y67104D02*
D03*
Y67360D02*
D03*
Y67616D02*
D03*
Y67872D02*
D03*
Y68128D02*
D03*
Y68384D02*
D03*
Y68640D02*
D03*
Y68896D02*
D03*
X40711Y67104D02*
D03*
Y67360D02*
D03*
Y67616D02*
D03*
Y67872D02*
D03*
Y68128D02*
D03*
Y68384D02*
D03*
Y68640D02*
D03*
X49289Y66904D02*
D03*
Y67160D02*
D03*
Y67416D02*
D03*
Y67672D02*
D03*
Y67928D02*
D03*
Y68184D02*
D03*
Y68440D02*
D03*
Y68696D02*
D03*
X46711Y66904D02*
D03*
Y67160D02*
D03*
Y67416D02*
D03*
Y67672D02*
D03*
Y67928D02*
D03*
Y68184D02*
D03*
Y68440D02*
D03*
X28511Y51032D02*
D03*
X31089D02*
D03*
X28511Y52056D02*
D03*
Y51800D02*
D03*
X31089Y52056D02*
D03*
Y51800D02*
D03*
Y51544D02*
D03*
X28511D02*
D03*
X31089Y51288D02*
D03*
X28511D02*
D03*
X31089Y52568D02*
D03*
X28511Y52312D02*
D03*
Y52568D02*
D03*
D69*
X40711Y64996D02*
D03*
Y53296D02*
D03*
Y49396D02*
D03*
X46711Y33596D02*
D03*
Y37496D02*
D03*
Y41396D02*
D03*
Y45296D02*
D03*
Y49196D02*
D03*
Y53096D02*
D03*
Y56996D02*
D03*
Y60896D02*
D03*
Y64796D02*
D03*
X40711Y33796D02*
D03*
Y37696D02*
D03*
Y41596D02*
D03*
Y45496D02*
D03*
Y57196D02*
D03*
Y61096D02*
D03*
Y68896D02*
D03*
X46711Y68696D02*
D03*
D70*
X63500Y33465D02*
D03*
Y41265D02*
D03*
Y49065D02*
D03*
Y56865D02*
D03*
X58300Y65635D02*
D03*
Y64965D02*
D03*
Y34435D02*
D03*
Y33765D02*
D03*
X63500Y34135D02*
D03*
X58300Y42235D02*
D03*
Y41565D02*
D03*
X63500Y41935D02*
D03*
X58300Y50035D02*
D03*
Y49365D02*
D03*
X63500Y49735D02*
D03*
X58300Y57835D02*
D03*
Y57165D02*
D03*
X63500Y57535D02*
D03*
X63600Y64665D02*
D03*
Y65335D02*
D03*
X64900Y67565D02*
D03*
Y68235D02*
D03*
X67300Y67565D02*
D03*
Y68235D02*
D03*
X64800Y62265D02*
D03*
Y62935D02*
D03*
X67200Y62265D02*
D03*
Y62935D02*
D03*
D71*
X58665Y36600D02*
D03*
Y44400D02*
D03*
Y52200D02*
D03*
Y60000D02*
D03*
X55065Y33900D02*
D03*
X55735D02*
D03*
X52335Y31700D02*
D03*
X51665D02*
D03*
X55065Y37800D02*
D03*
X55735D02*
D03*
X52335Y35600D02*
D03*
X51665D02*
D03*
X55065Y41700D02*
D03*
X55735D02*
D03*
X52335Y39500D02*
D03*
X51665D02*
D03*
X55065Y45600D02*
D03*
X55735D02*
D03*
X52335Y43400D02*
D03*
X51665D02*
D03*
X55065Y49500D02*
D03*
X55735D02*
D03*
X52335Y47300D02*
D03*
X51665D02*
D03*
X55065Y53400D02*
D03*
X55735D02*
D03*
X52335Y51200D02*
D03*
X51665D02*
D03*
X55065Y57300D02*
D03*
X55735D02*
D03*
X52335Y55100D02*
D03*
X51665D02*
D03*
X55065Y61200D02*
D03*
X55735D02*
D03*
X52335Y59000D02*
D03*
X51665D02*
D03*
X55065Y65100D02*
D03*
X55735D02*
D03*
X52335Y62900D02*
D03*
X51665D02*
D03*
X30135Y31900D02*
D03*
X29465D02*
D03*
X30135Y35800D02*
D03*
X29465D02*
D03*
X30135Y39700D02*
D03*
X29465D02*
D03*
X30135Y43600D02*
D03*
X29465D02*
D03*
X30135Y55300D02*
D03*
X29465D02*
D03*
X30135Y59200D02*
D03*
X29465D02*
D03*
X30135Y63100D02*
D03*
X29465D02*
D03*
X30135Y67000D02*
D03*
X29465D02*
D03*
X58565Y32300D02*
D03*
X59235D02*
D03*
X59335Y36600D02*
D03*
X58565Y40100D02*
D03*
X59235D02*
D03*
X59335Y44400D02*
D03*
X58565Y47900D02*
D03*
X59235D02*
D03*
X59335Y52200D02*
D03*
X58565Y55700D02*
D03*
X59235D02*
D03*
X59335Y60000D02*
D03*
X58565Y63500D02*
D03*
X59235D02*
D03*
X58665Y67800D02*
D03*
X59335D02*
D03*
X55065Y69000D02*
D03*
X55735D02*
D03*
X52335Y66800D02*
D03*
X51665D02*
D03*
D72*
X54383Y33184D02*
D03*
Y32928D02*
D03*
Y32672D02*
D03*
Y32416D02*
D03*
X56017Y33184D02*
D03*
Y32928D02*
D03*
Y32672D02*
D03*
Y32416D02*
D03*
X54383Y37084D02*
D03*
Y36828D02*
D03*
Y36572D02*
D03*
Y36316D02*
D03*
X56017Y37084D02*
D03*
Y36828D02*
D03*
Y36572D02*
D03*
Y36316D02*
D03*
X54383Y40984D02*
D03*
Y40728D02*
D03*
Y40472D02*
D03*
Y40216D02*
D03*
X56017Y40984D02*
D03*
Y40728D02*
D03*
Y40472D02*
D03*
Y40216D02*
D03*
X54383Y44884D02*
D03*
Y44628D02*
D03*
Y44372D02*
D03*
Y44116D02*
D03*
X56017Y44884D02*
D03*
Y44628D02*
D03*
Y44372D02*
D03*
Y44116D02*
D03*
X54383Y48784D02*
D03*
Y48528D02*
D03*
Y48272D02*
D03*
Y48016D02*
D03*
X56017Y48784D02*
D03*
Y48528D02*
D03*
Y48272D02*
D03*
Y48016D02*
D03*
X54383Y52684D02*
D03*
Y52428D02*
D03*
Y52172D02*
D03*
Y51916D02*
D03*
X56017Y52684D02*
D03*
Y52428D02*
D03*
Y52172D02*
D03*
Y51916D02*
D03*
X54383Y56584D02*
D03*
Y56328D02*
D03*
Y56072D02*
D03*
Y55816D02*
D03*
X56017Y56584D02*
D03*
Y56328D02*
D03*
Y56072D02*
D03*
Y55816D02*
D03*
X54383Y60484D02*
D03*
Y60228D02*
D03*
Y59972D02*
D03*
Y59716D02*
D03*
X56017Y60484D02*
D03*
Y60228D02*
D03*
Y59972D02*
D03*
Y59716D02*
D03*
X54383Y64384D02*
D03*
Y64128D02*
D03*
Y63872D02*
D03*
Y63616D02*
D03*
X56017Y64384D02*
D03*
Y64128D02*
D03*
Y63872D02*
D03*
Y63616D02*
D03*
X54383Y68284D02*
D03*
Y68028D02*
D03*
Y67772D02*
D03*
Y67516D02*
D03*
X56017Y68284D02*
D03*
Y68028D02*
D03*
Y67772D02*
D03*
Y67516D02*
D03*
D73*
X54816Y31600D02*
D03*
X55584D02*
D03*
X54816Y35500D02*
D03*
X55584D02*
D03*
X54816Y39400D02*
D03*
X55584D02*
D03*
X54816Y43300D02*
D03*
X55584D02*
D03*
X54816Y47200D02*
D03*
X55584D02*
D03*
X54816Y51100D02*
D03*
X55584D02*
D03*
X54816Y55000D02*
D03*
X55584D02*
D03*
X54816Y58900D02*
D03*
X55584D02*
D03*
X54816Y62800D02*
D03*
X55584D02*
D03*
Y66700D02*
D03*
X54816D02*
D03*
D74*
X46574Y31100D02*
D03*
X45826D02*
D03*
X46574Y35000D02*
D03*
X45826D02*
D03*
X46574Y38900D02*
D03*
X45826D02*
D03*
X46574Y42800D02*
D03*
X45826D02*
D03*
X46574Y46700D02*
D03*
X45826D02*
D03*
X46574Y50600D02*
D03*
X45826D02*
D03*
X46574Y54500D02*
D03*
X45826D02*
D03*
X46574Y58400D02*
D03*
X45826D02*
D03*
X46574Y62300D02*
D03*
X45826D02*
D03*
X30174Y32900D02*
D03*
X29426D02*
D03*
X30174Y36800D02*
D03*
X29426D02*
D03*
X30174Y40700D02*
D03*
X29426D02*
D03*
X30174Y44600D02*
D03*
X29426D02*
D03*
X30174Y56300D02*
D03*
X29426D02*
D03*
X30174Y60200D02*
D03*
X29426D02*
D03*
X30174Y64100D02*
D03*
X29426D02*
D03*
X30174Y68000D02*
D03*
X29426D02*
D03*
X46574Y66200D02*
D03*
X45826D02*
D03*
D75*
X35112Y31900D02*
D03*
Y35800D02*
D03*
Y39700D02*
D03*
Y43600D02*
D03*
Y55300D02*
D03*
Y59200D02*
D03*
Y63100D02*
D03*
Y47500D02*
D03*
Y51400D02*
D03*
X38656Y31900D02*
D03*
X38912D02*
D03*
X39168D02*
D03*
X38400Y32931D02*
D03*
X38656D02*
D03*
X38912D02*
D03*
X39168D02*
D03*
X34856Y31900D02*
D03*
X35368D02*
D03*
X34600Y32931D02*
D03*
X34856D02*
D03*
X35112D02*
D03*
X35368D02*
D03*
X38656Y35800D02*
D03*
X38912D02*
D03*
X39168D02*
D03*
X38400Y36832D02*
D03*
X38656D02*
D03*
X38912D02*
D03*
X39168D02*
D03*
X34856Y35800D02*
D03*
X35368D02*
D03*
X34600Y36832D02*
D03*
X34856D02*
D03*
X35112D02*
D03*
X35368D02*
D03*
X38656Y39700D02*
D03*
X38912D02*
D03*
X39168D02*
D03*
X38400Y40732D02*
D03*
X38656D02*
D03*
X38912D02*
D03*
X39168D02*
D03*
X34856Y39700D02*
D03*
X35368D02*
D03*
X34600Y40732D02*
D03*
X34856D02*
D03*
X35112D02*
D03*
X35368D02*
D03*
X38656Y43600D02*
D03*
X38912D02*
D03*
X39168D02*
D03*
X38400Y44632D02*
D03*
X38656D02*
D03*
X38912D02*
D03*
X39168D02*
D03*
X34856Y43600D02*
D03*
X35368D02*
D03*
X34600Y44632D02*
D03*
X34856D02*
D03*
X35112D02*
D03*
X35368D02*
D03*
X38656Y47500D02*
D03*
X38912D02*
D03*
X39168D02*
D03*
X38400Y48531D02*
D03*
X38656D02*
D03*
X38912D02*
D03*
X39168D02*
D03*
X34856Y47500D02*
D03*
X35368D02*
D03*
X34600Y48531D02*
D03*
X34856D02*
D03*
X35112D02*
D03*
X35368D02*
D03*
X38656Y51400D02*
D03*
X38912D02*
D03*
X39168D02*
D03*
X38400Y52432D02*
D03*
X38656D02*
D03*
X38912D02*
D03*
X39168D02*
D03*
X34856Y51400D02*
D03*
X35368D02*
D03*
X34600Y52432D02*
D03*
X34856D02*
D03*
X35112D02*
D03*
X35368D02*
D03*
X38656Y55300D02*
D03*
X38912D02*
D03*
X39168D02*
D03*
X38400Y56332D02*
D03*
X38656D02*
D03*
X38912D02*
D03*
X39168D02*
D03*
X34856Y55300D02*
D03*
X35368D02*
D03*
X34600Y56332D02*
D03*
X34856D02*
D03*
X35112D02*
D03*
X35368D02*
D03*
X38656Y59200D02*
D03*
X38912D02*
D03*
X39168D02*
D03*
X38400Y60231D02*
D03*
X38656D02*
D03*
X38912D02*
D03*
X39168D02*
D03*
X34856Y59200D02*
D03*
X35368D02*
D03*
X34600Y60231D02*
D03*
X34856D02*
D03*
X35112D02*
D03*
X35368D02*
D03*
X38656Y63100D02*
D03*
X38912D02*
D03*
X39168D02*
D03*
X38400Y64131D02*
D03*
X38656D02*
D03*
X38912D02*
D03*
X39168D02*
D03*
X34856Y63100D02*
D03*
X35368D02*
D03*
X34600Y64131D02*
D03*
X34856D02*
D03*
X35112D02*
D03*
X35368D02*
D03*
X38656Y67000D02*
D03*
X38912D02*
D03*
X39168D02*
D03*
X38400Y68032D02*
D03*
X38656D02*
D03*
X38912D02*
D03*
X39168D02*
D03*
X34856Y67000D02*
D03*
X35112D02*
D03*
X35368D02*
D03*
X34600Y68032D02*
D03*
X34856D02*
D03*
X35112D02*
D03*
X35368D02*
D03*
D76*
X37400Y67049D02*
D03*
Y68151D02*
D03*
Y63149D02*
D03*
Y64251D02*
D03*
Y59249D02*
D03*
Y60351D02*
D03*
Y55349D02*
D03*
Y56451D02*
D03*
Y51449D02*
D03*
Y52551D02*
D03*
Y47549D02*
D03*
Y48651D02*
D03*
Y43649D02*
D03*
Y44751D02*
D03*
Y39749D02*
D03*
Y40851D02*
D03*
Y35849D02*
D03*
Y36951D02*
D03*
Y31949D02*
D03*
Y33051D02*
D03*
X36400Y67049D02*
D03*
Y68151D02*
D03*
Y63149D02*
D03*
Y64251D02*
D03*
Y59249D02*
D03*
Y60351D02*
D03*
Y55349D02*
D03*
Y56451D02*
D03*
Y51449D02*
D03*
Y52551D02*
D03*
Y47549D02*
D03*
Y48651D02*
D03*
Y43649D02*
D03*
Y44751D02*
D03*
Y39749D02*
D03*
Y40851D02*
D03*
Y35849D02*
D03*
Y36951D02*
D03*
Y31949D02*
D03*
Y33051D02*
D03*
D77*
X38400Y31900D02*
D03*
X34600D02*
D03*
X38400Y35800D02*
D03*
X34600D02*
D03*
X38400Y39700D02*
D03*
X34600D02*
D03*
X38400Y43600D02*
D03*
X34600D02*
D03*
X38400Y47500D02*
D03*
X34600D02*
D03*
X38400Y51400D02*
D03*
X34600D02*
D03*
X38400Y55300D02*
D03*
X34600D02*
D03*
X38400Y59200D02*
D03*
X34600D02*
D03*
X38400Y63100D02*
D03*
X34600D02*
D03*
X38400Y67000D02*
D03*
X34600D02*
D03*
D78*
X26176Y32750D02*
D03*
Y32250D02*
D03*
Y31750D02*
D03*
X28224Y33250D02*
D03*
Y32750D02*
D03*
Y32250D02*
D03*
Y31750D02*
D03*
X26176Y36650D02*
D03*
Y36150D02*
D03*
Y35650D02*
D03*
X28224Y37150D02*
D03*
Y36650D02*
D03*
Y36150D02*
D03*
Y35650D02*
D03*
X26176Y40550D02*
D03*
Y40050D02*
D03*
Y39550D02*
D03*
X28224Y41050D02*
D03*
Y40550D02*
D03*
Y40050D02*
D03*
Y39550D02*
D03*
X26176Y44450D02*
D03*
Y43950D02*
D03*
Y43450D02*
D03*
X28224Y44950D02*
D03*
Y44450D02*
D03*
Y43950D02*
D03*
Y43450D02*
D03*
X26176Y56150D02*
D03*
Y55650D02*
D03*
Y55150D02*
D03*
X28224Y56650D02*
D03*
Y56150D02*
D03*
Y55650D02*
D03*
Y55150D02*
D03*
X26176Y60050D02*
D03*
Y59550D02*
D03*
Y59050D02*
D03*
X28224Y60550D02*
D03*
Y60050D02*
D03*
Y59550D02*
D03*
Y59050D02*
D03*
X26176Y63950D02*
D03*
Y63450D02*
D03*
Y62950D02*
D03*
X28224Y64450D02*
D03*
Y63950D02*
D03*
Y63450D02*
D03*
Y62950D02*
D03*
X26176Y67850D02*
D03*
Y67350D02*
D03*
Y66850D02*
D03*
X28224Y68350D02*
D03*
Y67850D02*
D03*
Y67350D02*
D03*
Y66850D02*
D03*
X68824Y31450D02*
D03*
Y31950D02*
D03*
Y32450D02*
D03*
Y32950D02*
D03*
X66776Y31450D02*
D03*
Y31950D02*
D03*
Y32450D02*
D03*
X70924Y53750D02*
D03*
Y54250D02*
D03*
Y54750D02*
D03*
Y55250D02*
D03*
X68876Y53750D02*
D03*
Y54250D02*
D03*
Y54750D02*
D03*
D79*
X26176Y33250D02*
D03*
Y37150D02*
D03*
Y41050D02*
D03*
Y44950D02*
D03*
Y56650D02*
D03*
Y60550D02*
D03*
Y64450D02*
D03*
Y68350D02*
D03*
X66776Y32950D02*
D03*
X68876Y55250D02*
D03*
D80*
X32950Y33461D02*
D03*
X32450D02*
D03*
X31950D02*
D03*
X31450D02*
D03*
X32950Y31139D02*
D03*
X32450D02*
D03*
X31950D02*
D03*
X31450D02*
D03*
X32950Y37361D02*
D03*
X32450D02*
D03*
X31950D02*
D03*
X31450D02*
D03*
X32950Y35039D02*
D03*
X32450D02*
D03*
X31950D02*
D03*
X31450D02*
D03*
X32950Y41261D02*
D03*
X32450D02*
D03*
X31950D02*
D03*
X31450D02*
D03*
X32950Y38939D02*
D03*
X32450D02*
D03*
X31950D02*
D03*
X31450D02*
D03*
X32950Y45161D02*
D03*
X32450D02*
D03*
X31950D02*
D03*
X31450D02*
D03*
X32950Y42839D02*
D03*
X32450D02*
D03*
X31950D02*
D03*
X31450D02*
D03*
X32950Y56861D02*
D03*
X32450D02*
D03*
X31950D02*
D03*
X31450D02*
D03*
X32950Y54539D02*
D03*
X32450D02*
D03*
X31950D02*
D03*
X31450D02*
D03*
X32950Y60761D02*
D03*
X32450D02*
D03*
X31950D02*
D03*
X31450D02*
D03*
X32950Y58439D02*
D03*
X32450D02*
D03*
X31950D02*
D03*
X31450D02*
D03*
X32950Y64661D02*
D03*
X32450D02*
D03*
X31950D02*
D03*
X31450D02*
D03*
X32950Y62339D02*
D03*
X32450D02*
D03*
X31950D02*
D03*
X31450D02*
D03*
X32950Y68561D02*
D03*
X32450D02*
D03*
X31950D02*
D03*
X31450D02*
D03*
X32950Y66239D02*
D03*
X32450D02*
D03*
X31950D02*
D03*
X31450D02*
D03*
D81*
X66049Y64400D02*
D03*
X67151D02*
D03*
X68449D02*
D03*
X69551D02*
D03*
D82*
X65700Y67300D02*
D03*
X66074D02*
D03*
X66448D02*
D03*
X65700Y68402D02*
D03*
X66074D02*
D03*
X66448D02*
D03*
X65600Y62000D02*
D03*
X65974D02*
D03*
X66348D02*
D03*
X65600Y63102D02*
D03*
X65974D02*
D03*
X66348D02*
D03*
D83*
X66753Y51650D02*
D03*
Y52150D02*
D03*
Y52650D02*
D03*
Y53150D02*
D03*
Y53650D02*
D03*
Y54150D02*
D03*
Y54650D02*
D03*
Y55150D02*
D03*
X64647Y51650D02*
D03*
Y52150D02*
D03*
Y52650D02*
D03*
Y53150D02*
D03*
Y53650D02*
D03*
Y54150D02*
D03*
Y54650D02*
D03*
Y55150D02*
D03*
X66753Y45250D02*
D03*
Y45750D02*
D03*
Y46250D02*
D03*
Y46750D02*
D03*
Y47250D02*
D03*
Y47750D02*
D03*
Y48250D02*
D03*
Y48750D02*
D03*
X64647Y45250D02*
D03*
Y45750D02*
D03*
Y46250D02*
D03*
Y46750D02*
D03*
Y47250D02*
D03*
Y47750D02*
D03*
Y48250D02*
D03*
Y48750D02*
D03*
X64547Y39350D02*
D03*
Y38850D02*
D03*
Y38350D02*
D03*
Y37850D02*
D03*
Y37350D02*
D03*
Y36850D02*
D03*
Y36350D02*
D03*
Y35850D02*
D03*
X66653Y39350D02*
D03*
Y38850D02*
D03*
Y38350D02*
D03*
Y37850D02*
D03*
Y37350D02*
D03*
Y36850D02*
D03*
Y36350D02*
D03*
Y35850D02*
D03*
D84*
X71350Y33253D02*
D03*
X70850D02*
D03*
X70350D02*
D03*
X69850D02*
D03*
X71350Y31147D02*
D03*
X70850D02*
D03*
X70350D02*
D03*
X69850D02*
D03*
X71450Y45747D02*
D03*
X71950D02*
D03*
X72450D02*
D03*
X72950D02*
D03*
X71450Y47853D02*
D03*
X71950D02*
D03*
X72450D02*
D03*
X72950D02*
D03*
D85*
X69110Y66800D02*
D03*
X72490D02*
D03*
X68910Y62000D02*
D03*
X72290D02*
D03*
D86*
X72300Y53909D02*
D03*
Y55091D02*
D03*
X62400Y44609D02*
D03*
Y45791D02*
D03*
Y53791D02*
D03*
Y52609D02*
D03*
D87*
X23000Y68500D02*
D03*
Y31500D02*
D03*
X78000Y68000D02*
D03*
X78010Y32000D02*
D03*
D88*
X76874Y53293D02*
D03*
Y58254D02*
D03*
Y61093D02*
D03*
Y66054D02*
D03*
D89*
X74000Y53293D02*
D03*
Y54946D02*
D03*
Y58254D02*
D03*
Y56600D02*
D03*
Y61093D02*
D03*
Y62746D02*
D03*
Y66054D02*
D03*
Y64400D02*
D03*
D90*
X78000Y42200D02*
D03*
X79000D02*
D03*
X78000Y41200D02*
D03*
X79000D02*
D03*
X78000Y40200D02*
D03*
X22000Y45550D02*
D03*
X21000D02*
D03*
X22000Y46550D02*
D03*
X21000D02*
D03*
X22000Y47550D02*
D03*
X21000D02*
D03*
X22000Y48550D02*
D03*
X21000D02*
D03*
X22000Y49550D02*
D03*
X21000D02*
D03*
X22000Y50550D02*
D03*
X21000D02*
D03*
X22000Y51550D02*
D03*
X21000D02*
D03*
X22000Y52550D02*
D03*
X21000D02*
D03*
X22000Y53550D02*
D03*
X21000D02*
D03*
X22000Y54550D02*
D03*
X78000Y37800D02*
D03*
X79000D02*
D03*
X78000Y36800D02*
D03*
X79000D02*
D03*
X78000Y35800D02*
D03*
D91*
X79000Y40200D02*
D03*
X21000Y54550D02*
D03*
X79000Y35800D02*
D03*
D92*
X71700Y52500D02*
D03*
X70700D02*
D03*
X69700D02*
D03*
X68700D02*
D03*
X71700Y49500D02*
D03*
X70700D02*
D03*
X69700D02*
D03*
D93*
X68700D02*
D03*
D94*
X78800Y44300D02*
D03*
Y47300D02*
D03*
X75800Y44300D02*
D03*
Y45300D02*
D03*
Y47300D02*
D03*
Y46300D02*
D03*
X78800Y48300D02*
D03*
Y51300D02*
D03*
X75800Y48300D02*
D03*
Y49300D02*
D03*
Y51300D02*
D03*
Y50300D02*
D03*
D95*
X78854Y34274D02*
D03*
X74800Y33200D02*
D03*
X74711Y31389D02*
D03*
X74200Y33200D02*
D03*
X71609Y43709D02*
D03*
X74000Y47700D02*
D03*
X74774Y46226D02*
D03*
X71950Y48550D02*
D03*
X71300Y46800D02*
D03*
X73100D02*
D03*
X73353Y45747D02*
D03*
X73400Y44400D02*
D03*
X60800Y63000D02*
D03*
X61100Y62000D02*
D03*
X70100Y31900D02*
D03*
X71100Y32000D02*
D03*
X70350Y33950D02*
D03*
X70927Y42427D02*
D03*
X72300Y43600D02*
D03*
X72800D02*
D03*
X77500Y41700D02*
D03*
X76100Y42000D02*
D03*
X76009Y38700D02*
D03*
X77600D02*
D03*
X76400Y35000D02*
D03*
X75500Y34000D02*
D03*
X72100Y35400D02*
D03*
X72400Y34000D02*
D03*
X68600Y35100D02*
D03*
X69035Y38265D02*
D03*
X69002Y38702D02*
D03*
X67800Y42200D02*
D03*
X68800Y43100D02*
D03*
X76065Y40335D02*
D03*
X76100Y39900D02*
D03*
X76200Y38100D02*
D03*
Y37300D02*
D03*
X76065Y36665D02*
D03*
X68727Y34627D02*
D03*
X70730Y35230D02*
D03*
X73880Y35180D02*
D03*
X72700Y35200D02*
D03*
X69000Y37300D02*
D03*
Y36600D02*
D03*
X69059Y40500D02*
D03*
X69020Y40080D02*
D03*
X72465Y42365D02*
D03*
X73135D02*
D03*
X67500Y54500D02*
D03*
X66800Y55700D02*
D03*
X64000Y54600D02*
D03*
X65100Y55600D02*
D03*
X64700Y51300D02*
D03*
X66700D02*
D03*
X64600Y35300D02*
D03*
X63800Y35800D02*
D03*
Y38900D02*
D03*
X65200Y49200D02*
D03*
X64647Y44853D02*
D03*
X66753Y44847D02*
D03*
X67450Y48250D02*
D03*
X67435Y48735D02*
D03*
X66653Y39753D02*
D03*
X67265Y36335D02*
D03*
X67100Y35300D02*
D03*
X64400Y50400D02*
D03*
X63700Y51900D02*
D03*
Y42600D02*
D03*
X63900Y45800D02*
D03*
X63400Y52600D02*
D03*
X63292Y50192D02*
D03*
X63200Y50700D02*
D03*
X63400Y58100D02*
D03*
X64500Y58600D02*
D03*
X63400Y58500D02*
D03*
X63950Y53650D02*
D03*
X64700Y64900D02*
D03*
X63500Y66000D02*
D03*
X63300Y66400D02*
D03*
X64900Y43000D02*
D03*
X63400D02*
D03*
X63600Y46300D02*
D03*
X64500Y66000D02*
D03*
X60900Y37800D02*
D03*
X63200Y36600D02*
D03*
X60900D02*
D03*
X60600Y44300D02*
D03*
Y45600D02*
D03*
Y52000D02*
D03*
Y52800D02*
D03*
Y59900D02*
D03*
Y60900D02*
D03*
X59865Y52200D02*
D03*
X61900Y63200D02*
D03*
X25200Y33600D02*
D03*
X23800Y37600D02*
D03*
X25300Y41500D02*
D03*
X25400Y45300D02*
D03*
X59800Y36700D02*
D03*
X64800Y34900D02*
D03*
X52600Y31100D02*
D03*
X42500Y31200D02*
D03*
X63800Y37100D02*
D03*
X61100Y31500D02*
D03*
X51000Y34600D02*
D03*
X63500Y38100D02*
D03*
X56900Y34300D02*
D03*
X53600D02*
D03*
X51500Y34400D02*
D03*
X42604Y33796D02*
D03*
X43200Y31600D02*
D03*
X42800Y35100D02*
D03*
X42200Y36100D02*
D03*
X42500Y37400D02*
D03*
X43000Y38000D02*
D03*
X43300Y35500D02*
D03*
X42600Y39100D02*
D03*
X42400Y39900D02*
D03*
X42500Y41400D02*
D03*
X42700Y41900D02*
D03*
X43200Y39400D02*
D03*
X41100Y39100D02*
D03*
X40000Y39900D02*
D03*
X43200Y42100D02*
D03*
X42900Y43000D02*
D03*
X42200Y43800D02*
D03*
X42500Y45300D02*
D03*
X42800Y45900D02*
D03*
X43300Y43300D02*
D03*
X42800Y46800D02*
D03*
X42200Y47400D02*
D03*
X42600Y49100D02*
D03*
X42800Y49700D02*
D03*
X43300Y47200D02*
D03*
X42300Y52600D02*
D03*
Y52200D02*
D03*
X42900Y53600D02*
D03*
X43700Y51100D02*
D03*
X42900Y54600D02*
D03*
X42400Y55500D02*
D03*
X42500Y57000D02*
D03*
X42800Y57600D02*
D03*
X43300Y55100D02*
D03*
X42800Y58900D02*
D03*
X42300Y59400D02*
D03*
X42500Y60900D02*
D03*
X42900Y61400D02*
D03*
X43300Y58900D02*
D03*
X43000Y62300D02*
D03*
X42400Y63200D02*
D03*
X42500Y64700D02*
D03*
X43300Y62700D02*
D03*
X43500Y66300D02*
D03*
X42600Y66800D02*
D03*
X42800Y65300D02*
D03*
X42200Y68500D02*
D03*
X42300Y53000D02*
D03*
X41900Y41500D02*
D03*
Y32400D02*
D03*
Y35200D02*
D03*
Y37600D02*
D03*
Y39100D02*
D03*
Y43000D02*
D03*
Y45300D02*
D03*
Y46900D02*
D03*
Y49400D02*
D03*
X42900Y50800D02*
D03*
X41900Y53500D02*
D03*
Y54700D02*
D03*
Y57200D02*
D03*
Y58600D02*
D03*
Y61200D02*
D03*
Y62400D02*
D03*
Y64800D02*
D03*
Y66400D02*
D03*
X41500Y34200D02*
D03*
Y35200D02*
D03*
Y38100D02*
D03*
Y39100D02*
D03*
Y41900D02*
D03*
Y43000D02*
D03*
Y45700D02*
D03*
Y46900D02*
D03*
X42000Y49900D02*
D03*
X42400Y50800D02*
D03*
X41500Y53800D02*
D03*
Y54700D02*
D03*
Y57600D02*
D03*
Y58600D02*
D03*
Y61500D02*
D03*
Y62400D02*
D03*
Y65400D02*
D03*
Y66400D02*
D03*
X39900Y47800D02*
D03*
X41900Y50800D02*
D03*
X53800Y32400D02*
D03*
Y36300D02*
D03*
Y40200D02*
D03*
Y44100D02*
D03*
Y48000D02*
D03*
Y51900D02*
D03*
Y55800D02*
D03*
Y59700D02*
D03*
Y63600D02*
D03*
X52800Y34100D02*
D03*
X52900Y36200D02*
D03*
X52800Y38000D02*
D03*
X52900Y40100D02*
D03*
Y42000D02*
D03*
Y44000D02*
D03*
X52800Y45700D02*
D03*
X52900Y47900D02*
D03*
X52800Y49600D02*
D03*
X52900Y51800D02*
D03*
X52800Y53600D02*
D03*
X52900Y55700D02*
D03*
X52800Y57400D02*
D03*
X52900Y59600D02*
D03*
X52800Y61600D02*
D03*
X53800Y67500D02*
D03*
X65200Y63102D02*
D03*
X64800Y61800D02*
D03*
X65800Y61500D02*
D03*
X67665Y62265D02*
D03*
X66700Y63200D02*
D03*
X57400Y63400D02*
D03*
Y37100D02*
D03*
Y40400D02*
D03*
Y44900D02*
D03*
Y48400D02*
D03*
Y52700D02*
D03*
Y56500D02*
D03*
Y60600D02*
D03*
X58061Y68235D02*
D03*
X64900Y67100D02*
D03*
X66000Y66800D02*
D03*
X67765Y67565D02*
D03*
X66765Y68235D02*
D03*
X25300Y56900D02*
D03*
X24900Y60800D02*
D03*
X25200Y64600D02*
D03*
X24600Y68600D02*
D03*
X58665Y36135D02*
D03*
X58000Y35400D02*
D03*
X57765Y34435D02*
D03*
X58500Y35100D02*
D03*
X58700Y33800D02*
D03*
X60582Y35100D02*
D03*
X63065Y34135D02*
D03*
X62514Y32686D02*
D03*
X63400Y33000D02*
D03*
X60800Y31800D02*
D03*
X59700Y31900D02*
D03*
X60300D02*
D03*
X58700Y33100D02*
D03*
X58665Y43935D02*
D03*
X61100Y38900D02*
D03*
X58000Y43200D02*
D03*
X57765Y42235D02*
D03*
X58500Y42900D02*
D03*
X58700Y41600D02*
D03*
X60582Y42900D02*
D03*
X59800Y44200D02*
D03*
X62514Y40486D02*
D03*
X63400Y40800D02*
D03*
X60800Y39600D02*
D03*
X59700Y39700D02*
D03*
X60300D02*
D03*
X58700Y40900D02*
D03*
X58665Y51735D02*
D03*
X61100Y46700D02*
D03*
X58000Y51000D02*
D03*
X57765Y50035D02*
D03*
X58500Y50700D02*
D03*
X58700Y49400D02*
D03*
X60582Y50700D02*
D03*
X63065Y49735D02*
D03*
X62514Y48286D02*
D03*
X63400Y48600D02*
D03*
X60800Y47400D02*
D03*
X59700Y47500D02*
D03*
X60300D02*
D03*
X58700Y48700D02*
D03*
X58665Y59535D02*
D03*
X61100Y54500D02*
D03*
X58000Y58800D02*
D03*
X57765Y57835D02*
D03*
X58500Y58500D02*
D03*
X58700Y57200D02*
D03*
X60582Y58500D02*
D03*
X59817Y59683D02*
D03*
X63065Y57535D02*
D03*
X62514Y56086D02*
D03*
X63400Y56400D02*
D03*
X60800Y55200D02*
D03*
X59700Y55300D02*
D03*
X60300D02*
D03*
X58700Y56500D02*
D03*
X54265Y33565D02*
D03*
X48000Y33900D02*
D03*
X51665Y31265D02*
D03*
X54600Y32100D02*
D03*
X55400Y33000D02*
D03*
X49289Y31489D02*
D03*
X48516Y33084D02*
D03*
X49600Y33900D02*
D03*
X47100Y31500D02*
D03*
X47684Y33084D02*
D03*
X47600Y32600D02*
D03*
X54265Y37465D02*
D03*
X48000Y37800D02*
D03*
X54200Y34700D02*
D03*
X51665Y35165D02*
D03*
X55400Y36900D02*
D03*
X54600Y36000D02*
D03*
X47684Y36984D02*
D03*
X47600Y36500D02*
D03*
X47100Y35400D02*
D03*
X49600Y37800D02*
D03*
X48516Y36984D02*
D03*
X49289Y35389D02*
D03*
X54265Y41365D02*
D03*
X48000Y41700D02*
D03*
X54200Y38600D02*
D03*
X51665Y39065D02*
D03*
X55400Y40800D02*
D03*
X54600Y39900D02*
D03*
X47684Y40884D02*
D03*
X47600Y40400D02*
D03*
X47100Y39300D02*
D03*
X49600Y41700D02*
D03*
X48516Y40884D02*
D03*
X49289Y39289D02*
D03*
X54265Y45265D02*
D03*
X48000Y45600D02*
D03*
X54200Y42500D02*
D03*
X51665Y42965D02*
D03*
X55400Y44700D02*
D03*
X54600Y43800D02*
D03*
X47684Y44784D02*
D03*
X47600Y44300D02*
D03*
X47100Y43200D02*
D03*
X49600Y45600D02*
D03*
X48516Y44784D02*
D03*
X49289Y43189D02*
D03*
X54265Y49165D02*
D03*
X48000Y49500D02*
D03*
X54200Y46400D02*
D03*
X51665Y46865D02*
D03*
X55400Y48600D02*
D03*
X54600Y47700D02*
D03*
X47684Y48684D02*
D03*
X47600Y48200D02*
D03*
X47100Y47100D02*
D03*
X49600Y49500D02*
D03*
X48516Y48684D02*
D03*
X49289Y47089D02*
D03*
X54265Y53065D02*
D03*
X48000Y53400D02*
D03*
X54200Y50300D02*
D03*
X51665Y50765D02*
D03*
X55400Y52500D02*
D03*
X54600Y51600D02*
D03*
X47684Y52584D02*
D03*
X47600Y52100D02*
D03*
X47100Y51000D02*
D03*
X49600Y53400D02*
D03*
X48516Y52584D02*
D03*
X49289Y50989D02*
D03*
X54265Y56965D02*
D03*
X48000Y57300D02*
D03*
X54200Y54200D02*
D03*
X51665Y54665D02*
D03*
X55400Y56400D02*
D03*
X54600Y55500D02*
D03*
X47684Y56484D02*
D03*
X47600Y56000D02*
D03*
X47100Y54900D02*
D03*
X49600Y57300D02*
D03*
X48516Y56484D02*
D03*
X49289Y54889D02*
D03*
X54265Y60865D02*
D03*
X48000Y61200D02*
D03*
X54200Y58100D02*
D03*
X51665Y58565D02*
D03*
X55400Y60300D02*
D03*
X54600Y59400D02*
D03*
X47684Y60384D02*
D03*
X47600Y59900D02*
D03*
X47100Y58800D02*
D03*
X49600Y61200D02*
D03*
X48516Y60384D02*
D03*
X49289Y58789D02*
D03*
X54265Y64765D02*
D03*
X48000Y65100D02*
D03*
X54200Y62000D02*
D03*
X51665Y62465D02*
D03*
X55400Y64200D02*
D03*
X54600Y63300D02*
D03*
X47684Y64284D02*
D03*
X47600Y63800D02*
D03*
X47100Y62700D02*
D03*
X49600Y65100D02*
D03*
X48516Y64284D02*
D03*
X49289Y62689D02*
D03*
X58665Y67335D02*
D03*
X62514Y63886D02*
D03*
X63400Y64200D02*
D03*
X63065Y65335D02*
D03*
X60582Y66300D02*
D03*
X59817Y67483D02*
D03*
X58000Y66600D02*
D03*
X57765Y65635D02*
D03*
X59700Y63100D02*
D03*
X60300D02*
D03*
X58500Y66300D02*
D03*
X58700Y65000D02*
D03*
Y64300D02*
D03*
X35400Y50200D02*
D03*
X37400Y50900D02*
D03*
X36900Y52500D02*
D03*
X35800Y52600D02*
D03*
X34200Y52700D02*
D03*
X35765Y51335D02*
D03*
X34856Y50970D02*
D03*
X38000Y52400D02*
D03*
X39600Y51400D02*
D03*
X38656Y50944D02*
D03*
X38000Y51200D02*
D03*
X38200Y50300D02*
D03*
X41100Y51000D02*
D03*
X38400Y30800D02*
D03*
X38000Y31700D02*
D03*
X38200Y34700D02*
D03*
X38000Y35400D02*
D03*
X38200Y38600D02*
D03*
X38000Y39500D02*
D03*
X38500Y42500D02*
D03*
X38100Y43300D02*
D03*
X38300Y46400D02*
D03*
X38000Y47300D02*
D03*
X38200Y54200D02*
D03*
X38000Y55100D02*
D03*
X38600Y58100D02*
D03*
X38100Y59200D02*
D03*
X38400Y62000D02*
D03*
X38100Y63000D02*
D03*
X54265Y68665D02*
D03*
X55400Y68100D02*
D03*
X48516Y68184D02*
D03*
X51665Y66365D02*
D03*
X49600Y69000D02*
D03*
X48000D02*
D03*
X47600Y67700D02*
D03*
X47684Y68184D02*
D03*
X47100Y66600D02*
D03*
X49289Y66589D02*
D03*
X38400Y65900D02*
D03*
X38000Y66900D02*
D03*
X54200Y65900D02*
D03*
X54600Y67200D02*
D03*
X33200Y49100D02*
D03*
X32000Y47000D02*
D03*
X43289Y49689D02*
D03*
X33700Y50400D02*
D03*
Y50000D02*
D03*
X31756Y47944D02*
D03*
X31800Y47500D02*
D03*
X27800Y48100D02*
D03*
X27812Y47688D02*
D03*
X28900Y32700D02*
D03*
X30600Y46400D02*
D03*
X28900Y36700D02*
D03*
X30000Y46400D02*
D03*
X28900Y40600D02*
D03*
X29500Y46400D02*
D03*
X28900Y44400D02*
D03*
X29000Y46400D02*
D03*
X31800Y51800D02*
D03*
X31788Y51288D02*
D03*
X29188D02*
D03*
X27844Y51544D02*
D03*
X28900Y67900D02*
D03*
Y64000D02*
D03*
X29800Y52600D02*
D03*
Y52000D02*
D03*
X28900Y60000D02*
D03*
X29300Y53300D02*
D03*
X28900Y56300D02*
D03*
X27700Y52300D02*
D03*
X38656Y66544D02*
D03*
X39600Y67000D02*
D03*
X35400Y65800D02*
D03*
X35765Y66935D02*
D03*
X34856Y66570D02*
D03*
X35800Y68200D02*
D03*
X34200Y68300D02*
D03*
X27465Y68835D02*
D03*
X28600Y68700D02*
D03*
Y66400D02*
D03*
X30839Y68561D02*
D03*
X31935Y68035D02*
D03*
X32600Y66700D02*
D03*
X33335Y66635D02*
D03*
X26900Y66200D02*
D03*
X28600Y64800D02*
D03*
Y62500D02*
D03*
X31935Y64135D02*
D03*
X30839Y64661D02*
D03*
X32600Y62800D02*
D03*
X27465Y64935D02*
D03*
X33335Y62735D02*
D03*
X26900Y62300D02*
D03*
X28600Y60900D02*
D03*
Y58600D02*
D03*
X31935Y60235D02*
D03*
X30839Y60761D02*
D03*
X32600Y58900D02*
D03*
X27465Y61035D02*
D03*
X33335Y58835D02*
D03*
X26900Y58400D02*
D03*
X28600Y57000D02*
D03*
Y54700D02*
D03*
X31935Y56335D02*
D03*
X30839Y56861D02*
D03*
X32600Y55000D02*
D03*
X27465Y57135D02*
D03*
X33335Y54935D02*
D03*
X26900Y54500D02*
D03*
X28600Y45300D02*
D03*
Y43000D02*
D03*
X31935Y44635D02*
D03*
X30839Y45161D02*
D03*
X32600Y43300D02*
D03*
X27465Y45435D02*
D03*
X33335Y43235D02*
D03*
X26900Y42800D02*
D03*
X28600Y41400D02*
D03*
Y39100D02*
D03*
X31935Y40735D02*
D03*
X30839Y41261D02*
D03*
X32600Y39400D02*
D03*
X27465Y41535D02*
D03*
X33335Y39335D02*
D03*
X26900Y38900D02*
D03*
X28600Y37500D02*
D03*
Y35200D02*
D03*
X31935Y36835D02*
D03*
X30839Y37361D02*
D03*
X32600Y35500D02*
D03*
X27465Y37635D02*
D03*
X33335Y35435D02*
D03*
X26900Y35000D02*
D03*
X28600Y33600D02*
D03*
Y31300D02*
D03*
X31935Y32935D02*
D03*
X30839Y33461D02*
D03*
X32600Y31600D02*
D03*
X27465Y33735D02*
D03*
X33335Y31535D02*
D03*
X26900Y31100D02*
D03*
X36900Y68100D02*
D03*
X38000Y68000D02*
D03*
X37400Y66500D02*
D03*
X41100Y66600D02*
D03*
X42604Y68896D02*
D03*
X42572Y68128D02*
D03*
X37400Y62600D02*
D03*
X38000Y64100D02*
D03*
X35765Y63035D02*
D03*
X35800Y64300D02*
D03*
X36900Y64200D02*
D03*
X34856Y62670D02*
D03*
X34200Y64400D02*
D03*
X38656Y62644D02*
D03*
X39600Y63100D02*
D03*
X42572Y64228D02*
D03*
X41100Y62700D02*
D03*
X35400Y61900D02*
D03*
X37400Y58700D02*
D03*
X38000Y60200D02*
D03*
X35765Y59135D02*
D03*
X35800Y60400D02*
D03*
X36900Y60300D02*
D03*
X34856Y58770D02*
D03*
X34200Y60500D02*
D03*
X38656Y58744D02*
D03*
X39600Y59200D02*
D03*
X42572Y60328D02*
D03*
X41100Y58800D02*
D03*
X35400Y58000D02*
D03*
X37400Y54800D02*
D03*
X38000Y56300D02*
D03*
X35765Y55235D02*
D03*
X35800Y56500D02*
D03*
X36900Y56400D02*
D03*
X34856Y54870D02*
D03*
X34200Y56600D02*
D03*
X38656Y54844D02*
D03*
X39600Y55300D02*
D03*
X42572Y56428D02*
D03*
X41100Y54900D02*
D03*
X35400Y54100D02*
D03*
X37400Y47000D02*
D03*
X38000Y48500D02*
D03*
X35765Y47435D02*
D03*
X35800Y48700D02*
D03*
X36900Y48600D02*
D03*
X34856Y47070D02*
D03*
X34200Y48800D02*
D03*
X38656Y47044D02*
D03*
X39600Y47500D02*
D03*
X42572Y48628D02*
D03*
X41100Y47100D02*
D03*
X35400Y46300D02*
D03*
X37400Y43100D02*
D03*
X38000Y44600D02*
D03*
X35765Y43535D02*
D03*
X35800Y44800D02*
D03*
X36900Y44700D02*
D03*
X34856Y43170D02*
D03*
X34200Y44900D02*
D03*
X38656Y43144D02*
D03*
X39600Y43600D02*
D03*
X42572Y44728D02*
D03*
X41100Y43200D02*
D03*
X35400Y42400D02*
D03*
X37400Y39200D02*
D03*
X38000Y40700D02*
D03*
X35765Y39635D02*
D03*
X35800Y40900D02*
D03*
X36900Y40800D02*
D03*
X34856Y39270D02*
D03*
X34200Y41000D02*
D03*
X38656Y39244D02*
D03*
X39600Y39700D02*
D03*
X42572Y40828D02*
D03*
X35400Y38500D02*
D03*
X37400Y35300D02*
D03*
X38000Y36800D02*
D03*
X35765Y35735D02*
D03*
X35800Y37000D02*
D03*
X36900Y36900D02*
D03*
X34856Y35370D02*
D03*
X34200Y37100D02*
D03*
X38656Y35344D02*
D03*
X39600Y35800D02*
D03*
X42572Y36928D02*
D03*
X41100Y35400D02*
D03*
X35400Y34600D02*
D03*
X37400Y31400D02*
D03*
X38000Y32900D02*
D03*
X35765Y31835D02*
D03*
X35800Y33100D02*
D03*
X36900Y33000D02*
D03*
X34856Y31470D02*
D03*
X34200Y33200D02*
D03*
X38656Y31444D02*
D03*
X39600Y31900D02*
D03*
X42572Y33028D02*
D03*
X41100Y31500D02*
D03*
X35000Y30800D02*
D03*
X68100Y58900D02*
D03*
X68162Y56600D02*
D03*
X68000Y55000D02*
D03*
X68876Y55576D02*
D03*
X70924D02*
D03*
X69750Y54250D02*
D03*
Y53750D02*
D03*
X73091Y53909D02*
D03*
X72300Y53300D02*
D03*
Y55800D02*
D03*
X71609Y55091D02*
D03*
X69950Y55250D02*
D03*
X69746Y42346D02*
D03*
X68600Y43900D02*
D03*
X68100Y47800D02*
D03*
X69600Y47100D02*
D03*
X73000Y53000D02*
D03*
X73974Y52374D02*
D03*
X72019Y58981D02*
D03*
X71181D02*
D03*
X72081Y56619D02*
D03*
X71081D02*
D03*
X68824Y33324D02*
D03*
X67600Y32700D02*
D03*
X67650Y31950D02*
D03*
Y31450D02*
D03*
X69453Y33253D02*
D03*
X75800Y35800D02*
D03*
X76900Y34700D02*
D03*
X78500Y39000D02*
D03*
X76600Y45100D02*
D03*
X77100Y44800D02*
D03*
X77000Y42800D02*
D03*
X77400Y39600D02*
D03*
X69000Y45400D02*
D03*
X68700Y47700D02*
D03*
X69381Y44419D02*
D03*
X69400Y46500D02*
D03*
X69550Y31950D02*
D03*
X68824Y31056D02*
D03*
X69490Y31450D02*
D03*
X68900Y34000D02*
D03*
X66809Y34791D02*
D03*
X74470Y43570D02*
D03*
X72266Y50574D02*
D03*
X69855Y50945D02*
D03*
X61300Y60600D02*
D03*
X69110Y67890D02*
D03*
X68910Y63090D02*
D03*
X69900Y62000D02*
D03*
X68900Y61000D02*
D03*
X67800Y61700D02*
D03*
X70400Y64400D02*
D03*
X26019Y53381D02*
D03*
X25219D02*
D03*
X25919Y51019D02*
D03*
X25119D02*
D03*
X26019Y48981D02*
D03*
X25119D02*
D03*
X26100Y46700D02*
D03*
X25119Y46619D02*
D03*
X65300Y64100D02*
D03*
X65400Y65000D02*
D03*
X52900Y63500D02*
D03*
X56500Y61700D02*
D03*
X63800Y60600D02*
D03*
X62800Y52000D02*
D03*
X62600Y54400D02*
D03*
X61709Y44609D02*
D03*
X61700Y45600D02*
D03*
X62800Y31600D02*
D03*
X64591Y32491D02*
D03*
X63065Y41935D02*
D03*
X66800Y31000D02*
D03*
X43700Y46900D02*
D03*
X58800Y42300D02*
D03*
Y50100D02*
D03*
Y57900D02*
D03*
Y65700D02*
D03*
Y34500D02*
D03*
X63200Y47100D02*
D03*
X64000Y47000D02*
D03*
X63900Y47800D02*
D03*
M02*
