INCH,LZ
M48
T1F00S00C0.0354
T2F00S00C0.0500
T3F00S00C0.0520
T4F00S00C0.0650
%
T01
X0368Y0484
X0378
Y0494
X0368
Y0504
X0378
Y0514
X0368
Y0524
X0378
Y0534
X0368
Y0544
X0378
Y0554
X0368
Y0564
X0378
Y0574
X0368
T02
X02735Y0442
Y056
T03
X0217Y0633
X0242Y0658
X0267Y0633
X0289
Y0683
X0267
X0217
X0314Y0658
X0339Y0633
Y0683
T04
X0221Y0427
X0256
X02585Y0457
X0241
X0256Y0545
X02585Y0575
X0241
X0221Y0545
M30
