%FSLAX24Y24*%
%MOIN*%
G70*
G01*
G75*
G04 Layer_Physical_Order=1*
%ADD10C,0.0160*%
%ADD11C,0.0100*%
%ADD12C,0.0750*%
%ADD13C,0.0700*%
%ADD14C,0.0591*%
%ADD15R,0.0591X0.0591*%
D10*
X35300Y57500D02*
X35900Y56900D01*
X37300D01*
X37800Y53400D02*
Y56400D01*
X35100Y57100D02*
X35800Y56400D01*
X28450Y57100D02*
X35100D01*
X36800Y53400D02*
Y56400D01*
X31400Y62000D02*
X34500Y58900D01*
X31400Y62000D02*
Y65800D01*
X37300Y56900D02*
X37800Y56400D01*
X34500Y57500D02*
Y58900D01*
X25850Y57500D02*
X35300D01*
X25000Y56500D02*
X25500Y56000D01*
X25000Y56500D02*
Y65000D01*
X25500Y56000D02*
X27350D01*
X24200Y65800D02*
X25000Y65000D01*
X27350Y56000D02*
X28450Y57100D01*
X35800Y56400D02*
X36800D01*
X27350Y44850D02*
X31900Y49400D01*
X27350Y44550D02*
Y44850D01*
X31900Y49400D02*
X36800D01*
Y49300D02*
Y52400D01*
X25850Y44450D02*
X27000Y43300D01*
X27500D01*
X33100Y48900D01*
X37300D01*
X25850Y44450D02*
Y45700D01*
X37300Y48900D02*
X37800Y49400D01*
Y52400D01*
D11*
X39900Y47700D02*
Y47100D01*
X40243D01*
X40651Y47500D02*
Y47100D01*
Y47414D02*
X40594Y47471D01*
X40537Y47500D01*
X40451D01*
X40394Y47471D01*
X40337Y47414D01*
X40308Y47329D01*
Y47271D01*
X40337Y47186D01*
X40394Y47129D01*
X40451Y47100D01*
X40537D01*
X40594Y47129D01*
X40651Y47186D01*
X40840Y47500D02*
X41011Y47100D01*
X41183Y47500D02*
X41011Y47100D01*
X40954Y46986D01*
X40897Y46929D01*
X40840Y46900D01*
X40811D01*
X41283Y47329D02*
X41625D01*
Y47386D01*
X41597Y47443D01*
X41568Y47471D01*
X41511Y47500D01*
X41425D01*
X41368Y47471D01*
X41311Y47414D01*
X41283Y47329D01*
Y47271D01*
X41311Y47186D01*
X41368Y47129D01*
X41425Y47100D01*
X41511D01*
X41568Y47129D01*
X41625Y47186D01*
X41754Y47500D02*
Y47100D01*
Y47329D02*
X41782Y47414D01*
X41840Y47471D01*
X41897Y47500D01*
X41982D01*
X42508Y47586D02*
X42565Y47614D01*
X42651Y47700D01*
Y47100D01*
D12*
X24100Y45700D02*
D03*
X22100Y42700D02*
D03*
X27350Y44200D02*
D03*
X25850Y45700D02*
D03*
X25600Y42700D02*
D03*
X24100Y57500D02*
D03*
X22100Y54500D02*
D03*
X27350Y56000D02*
D03*
X25850Y57500D02*
D03*
X25600Y54500D02*
D03*
D13*
X24200Y65800D02*
D03*
X26700Y63300D02*
D03*
X21700D02*
D03*
Y68300D02*
D03*
X26700D02*
D03*
X31400Y65800D02*
D03*
X33900Y63300D02*
D03*
X28900D02*
D03*
Y68300D02*
D03*
X33900D02*
D03*
D14*
X37800Y48400D02*
D03*
X36800D02*
D03*
X37800Y49400D02*
D03*
X36800D02*
D03*
X37800Y50400D02*
D03*
X36800D02*
D03*
X37800Y51400D02*
D03*
X36800D02*
D03*
X37800Y52400D02*
D03*
X36800D02*
D03*
X37800Y53400D02*
D03*
X36800D02*
D03*
X37800Y54400D02*
D03*
X36800D02*
D03*
X37800Y55400D02*
D03*
X36800D02*
D03*
X37800Y56400D02*
D03*
X36800D02*
D03*
X37800Y57400D02*
D03*
D15*
X36800D02*
D03*
M02*
